<svg height="155.905" viewBox="0 0 581.102 116.929" width="774.803" xmlns="http://www.w3.org/2000/svg" xmlns:xlink="http://www.w3.org/1999/xlink"><clipPath id="E"><path d="M76 0h429v116.93H76zm0 0"/></clipPath><clipPath id="F"><path d="M138 7h3v109.93h-3zm0 0"/></clipPath><clipPath id="G"><path d="M174 7h3v109.93h-3zm0 0"/></clipPath><clipPath id="H"><path d="M209 7h3v109.93h-3zm0 0"/></clipPath><clipPath id="I"><path d="M245 7h3v109.93h-3zm0 0"/></clipPath><clipPath id="J"><path d="M333 7h3v109.93h-3zm0 0"/></clipPath><clipPath id="K"><path d="M369 7h3v109.93h-3zm0 0"/></clipPath><clipPath id="L"><path d="M404 7h3v109.93h-3zm0 0"/></clipPath><clipPath id="M"><path d="M440 7h3v109.93h-3zm0 0"/></clipPath><clipPath id="T"><path d="M151 103h13v13.93h-13zm0 0"/></clipPath><clipPath id="U"><path d="M381 103h14v13.93h-14zm0 0"/></clipPath><clipPath id="V"><path d="M140 57h106v59.93H140zm0 0"/></clipPath><clipPath id="W"><path d="M335 57h70v59.93h-70zm0 0"/></clipPath><symbol id="a" overflow="visible"><path d="M.938-5h.218l.438-2.672c.015-.078.015-.156.015-.234 0-.407-.203-.625-.562-.625s-.563.219-.563.625c0 .078 0 .156.016.234zm0 0"/></symbol><symbol id="b" overflow="visible"><path d="M.375 2.094C1.75 1.938 2.625.938 2.625-.281c0-.781-.422-1.266-1.094-1.266-.484 0-.828.328-.828.813 0 .265.078.468.25.656h.75v.11c0 .827-.469 1.359-1.328 1.515zm0 0"/></symbol><symbol id="c" overflow="visible"><path d="M1.719-1.813c-.516 0-.938.422-.938.97a.94.94 0 00.938.937.944.944 0 00.953-.938.96.96 0 00-.953-.969zm0 0"/></symbol><symbol id="k" overflow="visible"><path d="M2.063-5.828c-.516 0-.922.406-.922.937s.406.954.921.954S3-4.36 3-4.891s-.422-.937-.938-.937zM.813 2.094C2.155 1.938 3.03.938 3.03-.281c0-.781-.406-1.266-1.078-1.266-.5 0-.812.328-.812.813 0 .265.078.468.25.656h.718v.094c0 .828-.453 1.375-1.296 1.53zm0 0"/></symbol><symbol id="d" overflow="visible"><path d="M4-3.453c1.656 0 2.797-1.188 2.797-2.422 0-1.266-1.172-2.422-2.797-2.422H1.094V0h1.015v-3.453zm-.25-4.172c1.406 0 2.094.828 2.094 1.734 0 .938-.735 1.75-2.094 1.75H2.094v-3.484zm0 0"/></symbol><symbol id="e" overflow="visible"><path d="M7.688-8.297H6.655L4.61-5.203c-.234.344-.468.703-.671 1.031-.032-.062-.157-.297-.672-1.078L1.234-8.297H.031L3.36-3.328V0h1v-3.328zm0 0"/></symbol><symbol id="f" overflow="visible"><path d="M4.39-8.297H3.329L.328 0h.875l.875-2.422h3.375L6.328 0h1.078zm-.624.86l1.437 4.343h-2.86zm0 0"/></symbol><symbol id="g" overflow="visible"><path d="M7.969-4.125c0-2.531-1.719-4.422-3.657-4.422-1.984 0-3.671 1.922-3.671 4.422C.64-1.609 2.375.25 4.297.25c1.984 0 3.672-1.875 3.672-4.375zM4.312-.5c-1.39 0-2.64-1.5-2.64-3.797 0-2.203 1.297-3.516 2.625-3.516 1.375 0 2.64 1.344 2.64 3.516C6.938-1.953 5.657-.5 4.313-.5zm0 0"/></symbol><symbol id="h" overflow="visible"><path d="M5.969-3.938v-.718h-3.86v-2.875h1.625c.141 0 .282.015.422.015h2.157v-.75H1.077V0h5.39v-.813h-1.56c-.156 0-.297.016-.437.016H2.11v-3.14zm0 0"/></symbol><symbol id="i" overflow="visible"><path d="M6.89-8.297h-.92v5.531c0 1.594-1 2.344-1.953 2.344-.938 0-1.907-.734-1.907-2.344v-5.53H1.08v5.515C1.078-1.031 2.452.25 4 .25c1.563 0 2.89-1.297 2.89-3.031zm0 0"/></symbol><symbol id="j" overflow="visible"><path d="M2.11-8.297H1.077V0H2.11zm0 0"/></symbol><symbol id="l" overflow="visible"><path d="M6.234-.39C7.422-1.345 7.97-2.657 7.97-4.126c0-2.531-1.719-4.422-3.657-4.422-1.984 0-3.671 1.922-3.671 4.422S2.344.25 4.312.25c.5 0 .954-.14 1.11-.203L6.438 1.5H7.64zm-1.25-.204c-.234.078-.328.11-.671.11-1.391 0-2.657-1.422-2.657-3.641 0-2.266 1.297-3.688 2.64-3.688 1.407 0 2.673 1.454 2.673 3.688 0 1.531-.594 2.563-1.203 3.063l-.938-1.25H3.797zm0 0"/></symbol><symbol id="m" overflow="visible"><path d="M4.531-8.297h-1v6.485c0 .687-.344 1.328-1.39 1.328a1.956 1.956 0 01-1.485-.657L.484-.25c.704.36 1.375.5 2 .5 1.25 0 2.047-.734 2.047-2.016zm0 0"/></symbol><symbol id="n" overflow="visible"><path d="M4.281-5.016l3.125-3.28H6.281L2.094-3.892v-4.406h-1V0h1v-2.703L3.64-4.328 6.453 0h1.094zm0 0"/></symbol><symbol id="o" overflow="visible"><path d="M4.281-4.375l2.797-3.922h-1.11l-2.187 3.14-2.25-3.14H.328l2.953 3.922L.171 0h1.095L3.78-3.656 6.36 0h1.188zm0 0"/></symbol><symbol id="p" overflow="visible"><path d="M5.656-3.781V-4.5H2.11v-3.031h1.532c.156 0 .296.015.437.015h2.063v-.75H1.078V0H2.11v-3.781zm0 0"/></symbol><symbol id="q" overflow="visible"><path d="M7.016-3.625h-2.47v.734h1.548v2c-.485.125-.985.25-1.563.25-1.718 0-2.718-1.859-2.718-3.515 0-1.61.953-3.532 2.78-3.532.907 0 1.485.282 2.141.813l.188-.984c-.797-.407-1.453-.579-2.375-.579C2.266-8.438.78-6.28.78-4.155.78-2.015 2.265.11 4.577.11a5.28 5.28 0 002.438-.578zm0 0"/></symbol><symbol id="r" overflow="visible"><path d="M6.813-1.375c-.735.531-1.235.734-2.266.734-1.563 0-2.734-1.609-2.734-3.53 0-1.61.953-3.516 2.78-3.516.782 0 1.376.234 1.985.64l.172-.969c-.781-.296-1.36-.406-2.188-.406-2.03 0-3.78 1.781-3.78 4.266 0 2.61 1.937 4.265 3.671 4.265 1.203 0 1.469-.078 2.438-.656zm0 0"/></symbol><symbol id="s" overflow="visible"><path d="M4.86-3.89c1.312-.376 2.015-1.282 2.015-2.172 0-1.188-1.281-2.235-2.969-2.235H1.094V0h1v-3.797h1.86L6.171 0h1.031zM2.093-4.5v-3.125H3.78c1.438 0 2.14.766 2.14 1.563 0 .75-.64 1.562-2.14 1.562zm0 0"/></symbol><symbol id="t" overflow="visible"><path d="M2.11-8.297H1.077V0h4.75v-.766c-1.062.032-2.094.032-3.156.032h-.563zm0 0"/></symbol><symbol id="u" overflow="visible"><path d="M1.094-8.297V0h3.062c2 0 3.594-1.813 3.594-4.078 0-2.328-1.578-4.219-3.594-4.219zm1 7.625v-6.953H3.89c1.593 0 2.859 1.375 2.859 3.531 0 2.188-1.328 3.422-2.86 3.422zm0 0"/></symbol><symbol id="v" overflow="visible"><path d="M7.11-8.297H6.077v3.625H2.11v-3.625H1.08V0h1.03v-3.953h3.97V0h1.03zm0 0"/></symbol><symbol id="w" overflow="visible"><path d="M4.5-7.5h1.063c.14 0 .28.016.421.016h1.563v-.75H.422v.75H2c.14 0 .281-.016.422-.016h1.062V0H4.5zm0 0"/></symbol><symbol id="x" overflow="visible"><path d="M2.563-8.297h-1.47V0h.923v-7.406c.109.234.734 1.531.968 2L5.625 0h1.469v-8.297h-.907V-.89h-.015c-.11-.234-.734-1.53-.969-2zm0 0"/></symbol><symbol id="y" overflow="visible"><path d="M5.438-7.953c-.485-.266-1.094-.594-2.157-.594-1.594 0-2.64 1.14-2.64 2.344 0 .844.515 1.39.578 1.453.593.61 1 .703 1.75.906 1.031.25 1.187.297 1.578.688.203.219.375.594.375 1.015 0 .829-.672 1.594-1.703 1.594a3.752 3.752 0 01-2.516-1l-.172.969A4.894 4.894 0 003.22.25c1.53 0 2.624-1.188 2.624-2.516 0-.765-.375-1.328-.625-1.625-.563-.593-1-.718-1.797-.921-.813-.204-1.11-.266-1.375-.516-.156-.172-.485-.469-.485-1 0-.734.657-1.438 1.72-1.438 1.015 0 1.546.391 1.984.766zm0 0"/></symbol><symbol id="z" overflow="visible"><path d="M1.11-8.297V0h3.093C5.875 0 7.11-1.078 7.11-2.25c0-1.047-1.03-1.89-2.265-2.094 1.39-.375 1.937-1.172 1.937-1.875 0-1.078-1.218-2.078-2.906-2.078zm.968 3.625v-2.953h1.469c1.281 0 2.312.625 2.312 1.422 0 .844-1.03 1.531-2.296 1.531zm0 4v-3.281h1.594c1.547 0 2.5.86 2.5 1.687 0 .844-.969 1.594-2.313 1.594zm0 0"/></symbol><symbol id="A" overflow="visible"><path d="M2.5-8.297H1.14V0h.923v-7.375c.171.813 2.109 5.922 2.562 7.125H5.5c.39-1.031 2.36-6.234 2.578-7.14h.016V0h.922v-8.297h-1.36L6.281-4.609c-.61 1.671-1.078 2.921-1.203 3.468h-.016c-.03-.203-.187-.64-.343-1.109-.219-.64-.219-.672-.407-1.156zm0 0"/></symbol><symbol id="B" overflow="visible"><path d="M10.813-8.297h-.876L8.845-4.375 8.36-2.609c-.14.578-.328 1.265-.375 1.703H7.97c-.063-.5-.313-1.531-.516-2.25l-1.422-5.14H5.016L4-4.595c-.094.297-.813 2.89-.89 3.672h-.016c-.047-.469-.344-1.625-.39-1.828l-.517-1.906-1-3.64H.173L2.516 0H3.5l1.125-4.063c.297-1.062.75-2.703.828-3.343h.016c0 .015.078.625.64 2.672L7.406 0H8.47zm0 0"/></symbol><symbol id="C" overflow="visible"><path d="M7.547-8.297H6.64L5.156-4.328c-.484 1.281-1.078 2.86-1.218 3.437-.11-.515-.5-1.515-.782-2.28L1.25-8.298H.172L3.328 0h1.078zm0 0"/></symbol><symbol id="D" overflow="visible"><path d="M6.484-7.813v-.484H.813v.735h2.343c.14 0 .281-.016.422-.016h1.61L.64-.484V0h5.906v-.766H5.422c-1.016 0-2.063.032-3.094.032h-.375zm0 0"/></symbol><symbol id="N" overflow="visible"><path d="M-.297-9.625v.703l.938.172L3.906.031h1.438L8.53-8.734l.938-.188v-.703h-3.14v.703l.859.078.156.203L5.03-2.094 2.656-8.64l.156-.203.829-.078v-.703zm0 0"/></symbol><symbol id="O" overflow="visible"><path d="M4.25-7.156C2-7.156.531-5.688.531-3.484.531-1.313 1.984.109 4.125.109c2.266 0 3.719-1.437 3.719-3.562 0-2.281-1.407-3.703-3.594-3.703zm-.063.765C5.204-6.39 5.86-5.375 5.86-3.5c0 1.86-.625 2.86-1.687 2.86-1 0-1.64-1.016-1.64-2.907 0-1.844.64-2.844 1.655-2.844zm0 0"/></symbol><symbol id="P" overflow="visible"><path d="M-.016-6.984v.656l.86.094L2.704 0h1.421l1.719-5.156L7.437 0h1.438l1.953-6.219.797-.11v-.655H8.922v.656l.765.094.094.203-1.265 4.14-1.563-5.093H5.516L3.844-1.891 2.688-6.03l.156-.188.703-.11v-.655zm0 0"/></symbol><symbol id="Q" overflow="visible"><path d="M7.047-1.781c-.844.531-1.61.797-2.375.797-1.422 0-2.313-.985-2.313-2.625v-.047h4.704v-.281c0-2.063-1.11-3.235-2.985-3.235-2.062 0-3.547 1.5-3.547 3.703C.531-1.313 1.937.125 4.078.125c1 0 2-.281 2.969-.844zm-1.875-2.64H2.438c.046-1.25.624-1.97 1.5-1.97.78 0 1.234.625 1.234 1.813zm0 0"/></symbol><symbol id="R" overflow="visible"><path d="M.328 0h3.844v-.625l-.828-.094-.219-.234v-9.64H2.5l-2.172.687v.547H1.36v8.437l-.203.203-.828.094zm0 0"/></symbol><symbol id="S" overflow="visible"><path d="M5.672-6.813A6.661 6.661 0 003.5-7.171c-1.766 0-2.813.906-2.813 2.14 0 .86.547 1.36 1.61 1.891 1.11.563 1.89.704 1.89 1.485 0 .625-.437 1.031-1.218 1.031-.438 0-.828-.11-1.203-.313l-.141-.156-.156-1.234H.594v2.125c.89.25 1.672.36 2.36.36 1.858 0 2.921-.923 2.921-2.36 0-1.031-.813-1.422-2.094-2.047-.844-.406-1.328-.656-1.328-1.266 0-.515.39-.859 1.094-.859.328 0 .64.094.937.234l.172.157.157 1.078h.859zm0 0"/></symbol><symbol id="X" overflow="visible"><path d="M.438 0h4.28v-.703l-.952-.078L3.53-1v-7.656l.235-.188.953-.078v-.703H.437v.703l.938.078.234.188V-1l-.234.219-.938.078zm0 0"/></symbol><symbol id="Y" overflow="visible"><path d="M.438 0h3.546v-.64L3.36-.704l-.203-.219v-4.734c.547-.157 1-.235 1.36-.235.906 0 1.296.485 1.296 1.547v3.422l-.203.219-.625.062V0H8.5v-.64l-.75-.063-.188-.219v-3.844c0-1.593-.64-2.375-1.953-2.375-.625 0-1.437.313-2.453.875v-.843H2.47l-2.063.671v.579h.969v4.937l-.203.219-.734.062zm0 0"/></symbol><symbol id="Z" overflow="visible"><path d="M4.922-.813L5.109 0h2.547v-.625l-.75-.078-.187-.203v-3.719c0-1.828-.688-2.531-2.688-2.531-1.89 0-3.125.843-3.125 1.656 0 .39.235.531.656.531h1.329v-1.343c.25-.063.468-.079.687-.079.938 0 1.36.454 1.36 1.485v.437c-3 .672-4.36 1.078-4.36 2.735 0 1.093.766 1.859 1.875 1.859.781 0 1.547-.328 2.469-.938zm0-.593c-.563.281-1.016.437-1.39.437-.657 0-1.063-.422-1.063-1.078 0-.953.765-1.328 2.453-1.703zm0 0"/></symbol><symbol id="aa" overflow="visible"><path d="M.422 0h3.953v-.64L3.359-.704l-.218-.219v-4.11c.437-.28.796-.405 1.015-.405.422 0 .719.156.938.515h.75l.187-1.984a2.194 2.194 0 00-.953-.235 2.05 2.05 0 00-.312.032 10.51 10.51 0 00-1.688 1.453l.063-1.453h-.688l-2.11.671v.579h1.032v4.937l-.203.219-.75.062zm0 0"/></symbol><symbol id="ab" overflow="visible"><path d="M5.578-9.36v2.329a7.557 7.557 0 00-1.344-.14c-2.187 0-3.703 1.53-3.703 3.843C.531-1.266 1.703.125 3.312.125c.735 0 1.454-.328 2.266-.922V0h2.688v-.625L7.53-.688l-.203-.234v-9.672h-.656l-2.14.672v.563zm0 8c-.453.173-.86.266-1.203.266-1.188 0-1.922-.922-1.922-2.531 0-1.703.844-2.75 2.063-2.75.296 0 .64.078 1.062.219zm0 0"/></symbol><path d="M104.527 13.84v96.336a4.982 4.982 0 004.98 4.984h362.09c2.75 0 4.981-2.23 4.981-4.984V13.84a4.98 4.98 0 00-4.98-4.98h-362.09a4.98 4.98 0 00-4.98 4.98zm0 0" fill="#d4d4c8"/><path d="M104.527 13.84v96.336a4.982 4.982 0 004.98 4.984h167.208c2.75 0 4.98-2.23 4.98-4.984V13.84a4.98 4.98 0 00-4.98-4.98H109.508a4.98 4.98 0 00-4.98 4.98zm180.004-4.98v106.3h12.047V8.86zm0 0" fill="#ececd7"/><use x="121.198" xlink:href="#a" y="30.128"/><use x="155.949" xlink:href="#b" y="29.665"/><use x="191.383" xlink:href="#c" y="29.978"/><use x="224.821" xlink:href="#d" y="29.978"/><use x="260.109" xlink:href="#e" y="29.978"/><use x="118.377" xlink:href="#f" y="65.412"/><use x="153.36" xlink:href="#g" y="65.412"/><use x="189.623" xlink:href="#h" y="65.412"/><use x="224.558" xlink:href="#i" y="65.412"/><use x="262.385" xlink:href="#j" y="65.412"/><use x="120.212" xlink:href="#k" y="100.531"/><use x="153.36" xlink:href="#l" y="100.845"/><use x="190.363" xlink:href="#m" y="100.845"/><use x="224.513" xlink:href="#n" y="100.845"/><use x="260.109" xlink:href="#o" y="100.845"/><path d="M299.41 13.84v96.336a4.983 4.983 0 004.985 4.984h167.203c2.75 0 4.98-2.23 4.98-4.984V13.84a4.98 4.98 0 00-4.98-4.98H304.395a4.982 4.982 0 00-4.985 4.98zm0 0" fill="#ececd7"/><use x="313.802" xlink:href="#p" y="29.979"/><use x="348.657" xlink:href="#q" y="29.979"/><use x="384.253" xlink:href="#r" y="29.979"/><use x="419.658" xlink:href="#s" y="29.979"/><use x="455.696" xlink:href="#t" y="29.979"/><use x="312.916" xlink:href="#u" y="65.412"/><use x="348.456" xlink:href="#v" y="65.412"/><use x="384" xlink:href="#w" y="65.412"/><use x="419.322" xlink:href="#x" y="65.412"/><use x="455.606" xlink:href="#y" y="65.412"/><use x="313.241" xlink:href="#z" y="100.845"/><use x="347.481" xlink:href="#A" y="100.845"/><use x="382.499" xlink:href="#B" y="100.845"/><use x="419.558" xlink:href="#C" y="100.845"/><use x="455.281" xlink:href="#D" y="100.845"/><g clip-path="url(#E)"><path d="M104.527 13.84v96.336a4.982 4.982 0 004.98 4.984h362.09c2.75 0 4.981-2.23 4.981-4.984V13.84a4.98 4.98 0 00-4.98-4.98h-362.09a4.98 4.98 0 00-4.98 4.98zm0 0" fill="none" stroke="#d4d4c8" stroke-miterlimit="10" stroke-width="1.993"/></g><path d="M104.527 44.293h177.168M104.527 79.727h177.168" fill="none" stroke="#d4d4c8" stroke-miterlimit="10" stroke-width="1.993"/><g clip-path="url(#F)"><path d="M139.96 8.86v106.3" fill="none" stroke="#d4d4c8" stroke-miterlimit="10" stroke-width="1.993"/></g><g clip-path="url(#G)"><path d="M175.395 8.86v106.3" fill="none" stroke="#d4d4c8" stroke-miterlimit="10" stroke-width="1.993"/></g><g clip-path="url(#H)"><path d="M210.828 8.86v106.3" fill="none" stroke="#d4d4c8" stroke-miterlimit="10" stroke-width="1.993"/></g><g clip-path="url(#I)"><path d="M246.262 8.86v106.3" fill="none" stroke="#d4d4c8" stroke-miterlimit="10" stroke-width="1.993"/></g><path d="M299.41 44.293h177.168M299.41 79.727h177.168" fill="none" stroke="#d4d4c8" stroke-miterlimit="10" stroke-width="1.993"/><g clip-path="url(#J)"><path d="M334.844 8.86v106.3" fill="none" stroke="#d4d4c8" stroke-miterlimit="10" stroke-width="1.993"/></g><g clip-path="url(#K)"><path d="M370.277 8.86v106.3" fill="none" stroke="#d4d4c8" stroke-miterlimit="10" stroke-width="1.993"/></g><g clip-path="url(#L)"><path d="M405.71 8.86v106.3" fill="none" stroke="#d4d4c8" stroke-miterlimit="10" stroke-width="1.993"/></g><g clip-path="url(#M)"><path d="M441.145 8.86v106.3" fill="none" stroke="#d4d4c8" stroke-miterlimit="10" stroke-width="1.993"/></g><path d="M102.422 37.207h131.77a4.983 4.983 0 004.984-4.984V6.753c0-2.753 2.23-4.98 4.98-4.98h39.645c2.75 0 4.98 2.227 4.98 4.98v75.079a4.98 4.98 0 01-4.98 4.98H102.42a4.98 4.98 0 01-4.98-4.98V42.188a4.979 4.979 0 014.98-4.981zm0 0" fill="none" stroke="#75507b" stroke-miterlimit="10" stroke-width="1.993"/><use fill="#75507b" x="44.317" xlink:href="#N" y="67.287"/><g fill="#75507b"><use x="52.236" xlink:href="#O" y="67.287"/><use x="60.514" xlink:href="#P" y="67.287"/><use x="71.976" xlink:href="#Q" y="67.287"/><use x="79.494" xlink:href="#R" y="67.287"/><use x="83.855" xlink:href="#S" y="67.287"/></g><path d="M163.902 74.41a6.226 6.226 0 10-12.453 0 6.226 6.226 0 1012.453 0zm70.868 0a6.226 6.226 0 10-12.454 0 6.226 6.226 0 1012.453 0zm0 0" fill="#f57900"/><g clip-path="url(#T)"><path d="M163.902 109.844a6.226 6.226 0 10-12.453 0 6.226 6.226 0 1012.453 0zm0 0" fill="#f57900"/></g><path d="M358.79 38.977a6.226 6.226 0 10-12.453 0 6.226 6.226 0 1012.452 0zm0 35.433a6.226 6.226 0 10-12.453 0 6.226 6.226 0 1012.452 0zm35.433 0a6.226 6.226 0 10-12.453 0 6.226 6.226 0 1012.453 0zm35.433 0a6.226 6.226 0 10-12.453 0 6.226 6.226 0 1012.453 0zm35.434 0a6.226 6.226 0 10-12.453 0 6.226 6.226 0 1012.453 0zm0 0" fill="#f57900"/><g clip-path="url(#U)"><path d="M394.223 109.844a6.226 6.226 0 10-12.453 0 6.226 6.226 0 1012.453 0zm0 0" fill="#f57900"/></g><path d="M157.676 74.41h70.867" fill="none" stroke="#f57900" stroke-miterlimit="10" stroke-width="1.196"/><path d="M190.242 71.86c.156.956 1.91 2.39 2.39 2.55-.48.16-2.234 1.594-2.39 2.55" fill="none" stroke-width=".956" stroke-linecap="round" stroke-linejoin="round" stroke="#f57900" stroke-miterlimit="10"/><g clip-path="url(#V)"><path d="M157.676 109.844l70.867-35.434" fill="none" stroke="#f57900" stroke-miterlimit="10" stroke-width="1.196"/></g><g fill="none" stroke="#f57900" stroke-miterlimit="10"><path d="M189.367 91.148c.57.786 2.781 1.282 3.281 1.211-.359.356-1.285 2.422-1 3.352" stroke-linecap="round" stroke-linejoin="round" stroke-width=".956"/><path d="M387.996 74.41h-35.434" stroke-width="1.196"/><path d="M373.148 76.96c-.16-.956-1.914-2.39-2.39-2.55.476-.16 2.23-1.594 2.39-2.55" stroke-linecap="round" stroke-linejoin="round" stroke-width=".956"/><path d="M423.43 74.41c-19.282-24.293-39.868-34.586-70.868-35.433" stroke-width="1.196"/><path d="M393.82 51.465c.285-.926-.644-2.992-1-3.348.5.07 2.711-.43 3.282-1.21" stroke-linecap="round" stroke-linejoin="round" stroke-width=".956"/><path d="M458.863 74.41c-37.57 17.52-68.73 17.52-106.3 0" stroke-width="1.196"/><path d="M408.582 90.102c-.16-.957-1.914-2.391-2.39-2.551.476-.16 2.23-1.594 2.39-2.551" stroke-linecap="round" stroke-linejoin="round" stroke-width=".956"/></g><g clip-path="url(#W)"><path d="M387.996 109.844L352.562 74.41" fill="none" stroke="#f57900" stroke-miterlimit="10" stroke-width="1.196"/></g><path d="M370.512 95.969c.562-.79.34-3.043.113-3.496.45.226 2.703.453 3.492-.114" fill="none" stroke-width=".956" stroke-linecap="round" stroke-linejoin="round" stroke="#f57900" stroke-miterlimit="10"/><g fill="#ce5c00"><use x="484.544" xlink:href="#X" y="52.978"/><use x="489.623" xlink:href="#Y" y="52.978"/><use x="498.302" xlink:href="#P" y="52.978"/><use x="509.765" xlink:href="#Z" y="52.978"/><use x="517.569" xlink:href="#aa" y="52.978"/><use x="523.609" xlink:href="#ab" y="52.978"/><use x="484.544" xlink:href="#aa" y="67.424"/><use x="490.584" xlink:href="#O" y="67.424"/><use x="498.862" xlink:href="#R" y="67.424"/><use x="503.223" xlink:href="#R" y="67.424"/><use x="507.584" xlink:href="#S" y="67.424"/></g></svg>