<svg xmlns="http://www.w3.org/2000/svg" xmlns:xlink="http://www.w3.org/1999/xlink" width="543.307" height="146.457" viewBox="0 0 407.48 109.843"><defs><path d="M3.516-2.875c1.234 0 2.28-.906 2.28-2.031 0-1.063-.984-2.016-2.359-2.016H.954V0h.89v-2.875Zm-.297-3.484C4.313-6.36 5-5.75 5-4.906c0 .797-.64 1.453-1.781 1.453H1.813V-6.36Zm0 0" id="a"/><path d="M3.516-3.89c.218 0 .484-.047.734-.047.172 0 .563.03.578.03l-.11-.624a4.17 4.17 0 0 0-1.562.312 1.542 1.542 0 0 0-.953-.312c-.86 0-1.578.718-1.578 1.625 0 .36.125.719.328.984-.297.406-.297.797-.297.844 0 .266.094.547.266.766C.406-.017.282.453.282.702c0 .75.984 1.344 2.202 1.344 1.22 0 2.204-.578 2.204-1.344 0-1.39-1.657-1.39-2.047-1.39h-.875c-.125 0-.579 0-.579-.532 0-.11.032-.265.11-.36.203.157.531.298.906.298.89 0 1.594-.75 1.594-1.625 0-.485-.219-.86-.328-1ZM2.203-1.86c-.375 0-.89-.218-.89-1.046 0-.828.515-1.063.89-1.063.422 0 .89.281.89 1.063 0 .765-.468 1.047-.89 1.047ZM2.656.032C2.875.031 4 .031 4 .72c0 .437-.688.765-1.5.765-.813 0-1.516-.312-1.516-.78 0-.032 0-.673.766-.673Zm0 0" id="b"/><path d="M5.906-6.922h-.765v4.61C5.14-1 4.297-.345 3.453-.345c-.812 0-1.625-.625-1.625-1.969v-4.609h-.89v4.594A2.53 2.53 0 0 0 3.453.219c1.328 0 2.453-1.094 2.453-2.547Zm0 0" id="c"/><path d="M1.594-.453c.312.281.75.562 1.343.562.97 0 1.844-.984 1.844-2.328 0-1.203-.625-2.312-1.578-2.312-.594 0-1.172.203-1.64.593v-.484h-.75v6.36h.78Zm0-2.86a1.259 1.259 0 0 1 1.062-.578c.75 0 1.344.75 1.344 1.672C4-1.203 3.297-.5 2.547-.5c-.39 0-.656-.203-.86-.469-.093-.14-.093-.172-.093-.344Zm0 0" id="d"/><path d="M.953-6.922V0h2.625c1.703 0 3.047-1.516 3.047-3.406 0-1.922-1.344-3.516-3.063-3.516Zm.86 6.36V-6.36h1.53c1.391 0 2.423 1.203 2.423 2.953 0 1.703-1.032 2.844-2.422 2.844Zm0 0" id="e"/><path d="M4.344-2.969c0-.656-.157-1.562-1.375-1.562-.89 0-1.39.672-1.438.75v-.703H.813V0h.765v-2.438c0-.656.25-1.484 1.016-1.484.953 0 .969.703.969 1.016V0h.78Zm0 0" id="f"/><path d="M6.11-6.922h-.891v3.031h-3.39v-3.03H.937V0h.89v-3.297h3.39V0h.891Zm0 0" id="g"/><path d="M4.672-2.188c0-1.343-1-2.406-2.172-2.406C1.266-4.594.297-3.5.297-2.187.297-.875 1.313.108 2.484.108c1.188 0 2.188-1 2.188-2.296ZM2.484-.53c-.687 0-1.406-.563-1.406-1.766s.75-1.687 1.406-1.687c.704 0 1.407.515 1.407 1.687 0 1.188-.672 1.766-1.407 1.766Zm0 0" id="h"/><path d="M7.11-2.969c0-.672-.157-1.562-1.376-1.562-.593 0-1.109.281-1.484.812-.25-.75-.953-.812-1.266-.812-.718 0-1.187.406-1.453.765v-.718H.813V0h.765v-2.438c0-.687.281-1.484 1.016-1.484.922 0 .969.64.969 1.016V0h.78v-2.438c0-.687.266-1.484 1.016-1.484.922 0 .97.64.97 1.016V0h.78Zm0 0" id="i"/><path d="M4.125-2.188c0-.328-.016-1.078-.39-1.687a1.629 1.629 0 0 0-1.376-.719C1.25-4.594.344-3.53.344-2.25.344-.937 1.313.11 2.5.11a2.81 2.81 0 0 0 1.594-.516l-.063-.656A2.35 2.35 0 0 1 2.516-.5c-.797 0-1.438-.703-1.47-1.688Zm-3.031-.546c.156-.75.687-1.25 1.265-1.25.516 0 1.063.328 1.204 1.25Zm0 0" id="j"/><path d="M5.11-3.281v-.61H1.827V-6.25h1.375c.11 0 .235.016.36.016H5.39v-.657H.937V0h4.579v-.703H1.828v-2.578Zm0 0" id="k"/><path d="M4.328-6.922h-.75v2.938a2.289 2.289 0 0 0-1.453-.547C1.141-4.531.359-3.5.359-2.22.36-.906 1.125.11 2.08.11c.327 0 .905-.093 1.468-.625V0h.781ZM3.547-1.39c0 .141-.016.329-.328.61a1.09 1.09 0 0 1-.735.281c-.625 0-1.343-.469-1.343-1.703 0-1.313.859-1.719 1.437-1.719.453 0 .75.219.969.547Zm0 0" id="l"/><clipPath id="m"><path d="M52 0h3v109.844h-3Zm0 0"/></clipPath><clipPath id="n"><path d="M87 0h3v109.844h-3Zm0 0"/></clipPath><clipPath id="o"><path d="M123 0h3v109.844h-3Zm0 0"/></clipPath><clipPath id="p"><path d="M158 0h3v109.844h-3Zm0 0"/></clipPath><clipPath id="q"><path d="M247 0h3v109.844h-3Zm0 0"/></clipPath><clipPath id="r"><path d="M282 0h3v109.844h-3Zm0 0"/></clipPath><clipPath id="s"><path d="M317 0h3v109.844h-3Zm0 0"/></clipPath><clipPath id="t"><path d="M353 0h3v109.844h-3Zm0 0"/></clipPath></defs><path fill="#D4D4C8" d="M17.715 6.754v96.336a4.983 4.983 0 0 0 4.984 4.984h362.086a4.983 4.983 0 0 0 4.985-4.984V6.754c0-2.75-2.23-4.98-4.985-4.98H22.7a4.982 4.982 0 0 0-4.984 4.98Zm0 0"/><path fill="#ECECD7" d="M17.715 6.754v96.336a4.983 4.983 0 0 0 4.984 4.984h167.203c2.75 0 4.98-2.23 4.98-4.984V6.754a4.98 4.98 0 0 0-4.98-4.98H22.7a4.982 4.982 0 0 0-4.984 4.98Zm180.004-4.981v106.301h12.047V1.774Zm14.883 4.981v96.336a4.982 4.982 0 0 0 4.98 4.984h167.203a4.983 4.983 0 0 0 4.985-4.984V6.754c0-2.75-2.23-4.98-4.985-4.98H217.582a4.98 4.98 0 0 0-4.98 4.98Zm0 0"/><use xlink:href="#a" x="218.643" y="21.979"/><use xlink:href="#b" x="225.008" y="21.979"/><use xlink:href="#c" x="229.989" y="21.979"/><use xlink:href="#d" x="236.839" y="21.979"/><use xlink:href="#a" x="218.47" y="57.412"/><use xlink:href="#b" x="224.835" y="57.412"/><use xlink:href="#e" x="229.816" y="57.412"/><use xlink:href="#f" x="237.011" y="57.412"/><use xlink:href="#g" x="253.557" y="21.979"/><use xlink:href="#h" x="260.614" y="21.979"/><use xlink:href="#i" x="265.595" y="21.979"/><use xlink:href="#j" x="273.509" y="21.979"/><path fill="none" stroke-width=".797" stroke="#000" stroke-miterlimit="10" d="M301.184 28.348V15.246"/><path stroke-width=".797" stroke="#000" stroke-miterlimit="10" d="m301.184 11.426-2.18 3.62h4.363Zm0 0"/><use xlink:href="#k" x="328.492" y="21.979"/><use xlink:href="#f" x="334.442" y="21.979"/><use xlink:href="#l" x="339.589" y="21.979"/><path fill="none" stroke-width=".797" stroke="#000" stroke-miterlimit="10" d="M274.61 54.922h-13.102"/><path stroke-width=".797" stroke="#000" stroke-miterlimit="10" d="m257.691 54.922 3.618 2.183v-4.363Zm0 0"/><path fill="none" stroke-width=".797" stroke="#000" stroke-miterlimit="10" d="M301.184 46.063v13.101"/><path stroke-width=".797" stroke="#000" stroke-miterlimit="10" d="m301.184 62.984 2.183-3.62h-4.363Zm0 0"/><path fill="none" stroke-width=".797" stroke="#000" stroke-miterlimit="10" d="M327.758 54.922h13.101"/><path stroke-width=".797" stroke="#000" stroke-miterlimit="10" d="m344.68 54.922-3.621-2.18v4.363Zm0 0"/><path fill="none" stroke-width="1.993" stroke="#D4D4C8" stroke-miterlimit="10" d="M17.715 6.754v96.336a4.983 4.983 0 0 0 4.984 4.984h362.086a4.983 4.983 0 0 0 4.985-4.984V6.754c0-2.75-2.23-4.98-4.985-4.98H22.7a4.982 4.982 0 0 0-4.984 4.98Zm0 30.453h177.168M17.715 72.64h177.168"/><g clip-path="url(#m)"><path fill="none" stroke-width="1.993" stroke="#D4D4C8" stroke-miterlimit="10" d="M53.148 1.773v106.301"/></g><g clip-path="url(#n)"><path fill="none" stroke-width="1.993" stroke="#D4D4C8" stroke-miterlimit="10" d="M88.582 1.773v106.301"/></g><g clip-path="url(#o)"><path fill="none" stroke-width="1.993" stroke="#D4D4C8" stroke-miterlimit="10" d="M124.016 1.773v106.301"/></g><g clip-path="url(#p)"><path fill="none" stroke-width="1.993" stroke="#D4D4C8" stroke-miterlimit="10" d="M159.45 1.773v106.301"/></g><path fill="none" stroke-width="1.993" stroke="#D4D4C8" stroke-miterlimit="10" d="M212.602 37.207H389.77M212.602 72.64H389.77"/><g clip-path="url(#q)"><path fill="none" stroke-width="1.993" stroke="#D4D4C8" stroke-miterlimit="10" d="M248.035 1.773v106.301"/></g><g clip-path="url(#r)"><path fill="none" stroke-width="1.993" stroke="#D4D4C8" stroke-miterlimit="10" d="M283.469 1.773v106.301"/></g><g clip-path="url(#s)"><path fill="none" stroke-width="1.993" stroke="#D4D4C8" stroke-miterlimit="10" d="M318.902 1.773v106.301"/></g><g clip-path="url(#t)"><path fill="none" stroke-width="1.993" stroke="#D4D4C8" stroke-miterlimit="10" d="M354.336 1.773v106.301"/></g></svg>