<svg xmlns="http://www.w3.org/2000/svg" width="532.45" height="239.77" viewBox="-3 -3 140.88 63.44"><g stroke="#ccc" stroke-linecap="round"><path fill="none" stroke-width=".27" d="M94.09 15.88c.15 1.15-.13 2.4-.13 2.4s-.41-.68-.81-.86-.87-1-.87-1"/><path fill="#404040" stroke="#000" stroke-width=".4" d="M80.98 34.42c1.58-.6 3.5-1.12 4.59-2.13.96-.89 3.86-1.82 4.38-.9.32.62 1.07 1.15 1.02 1.98s-.4 1.26-.44 1.9.38 1.32.19 1.9c-.2.58-1.6 1.07-2.43 1.1-.83.02-2.67-.06-4.4.59-1.78.67-4.68 1.91-5.74 2.4-2.25 1.03-5.37 3-7.14 2.84-.9-.12-2.08-.98-2.28-1.52s-.4-3.47-.4-3.47-.07-1.01.42-1.42c1.5-1.24 3.31-.47 6.12-1.5 2.62-1 4.12-1.03 6.11-1.77z"/><g fill="none" stroke-width=".4"><path d="M14.52 25s-.82.96-2.34 1.64c-1.48.67-3.1 1.13-4.72 1.23-2.28.01-5.41-.47-6.75-2.2a2.3 2.3 0 0 1-.48-1.83c.12-.74.76-1.37 1.64-1.97a36 36 0 0 1 6.34-3.63c2.38-.95 4.83-1.36 7.16-2.14a86 86 0 0 0 8.15-3.29c1.16-.53 2.16-1.44 3.4-1.76.76-.2.95-.08 2.37-.1 1.42 0 6.13.16 6.13.16"/><path d="M11.8 23.97s.51.46.97.67c.61.28.97.3 1.76.37.8.06 2.49.13 4.68-.2a47 47 0 0 0 10.97-3.35m-1.92-1.1a8 8 0 0 0 3 1.37c1.15.2 2.02.27 3.47.35 1.72.1 4 .13 5.38.17 1.4.04 4.94.09 5.27.29.6.35.66.57 1.36 1.6.7 1.05.58.93 1.13 1.53.82.9 1.96 1.61 2.7 1.92s1.87.73 2.46.7c.58-.05.8 0 .8 0m-34.38 1.76s-.1.38-.59.84-2.01 1.61-3.1 2.22a18 18 0 0 1-4.26 1.87c-1.7.44-3 .34-3.61.16-.64-.2-1.93-1.1-2.2-2.3s.02-1.5.3-2.18a18 18 0 0 1 1.75-2.81M18.4 29.4c.4.33-.01.08.4.33s.66.32.66.32.49.08 1.29.1 2.1-.01 3.13-.2c1.03-.18 2.65-.39 3.38-.49.72-.1 3-.32 3.95-.58.94-.27 2.12-1.24 2.12-1.24m-1.48-1.24s.23.4.71.73c.48.34.77.5.77.5S34.94 28 36 28s5.68.04 6.66 0c.98-.02 2.32.04 2.32.04m-.96-1.32c.34.46.63.83.96 1.32 1.02.37 2.09.4 3.42.72"/><path d="M47.36 25.12s-.13.22-.06.65c.06.44.44 1.65.68 2.23.25.57.42.76.42.76s.57.42 1.11.86c.54.45 1.91 1.16 2.56 1.69.64.53.7.5 1.51 1.27.82.76 1.62 1.62 2.28 2.6.66 1 1.37 2.99 1.37 2.99m-4.2-11.4.8 1.52s1.82 4.06 2.48 5.43a9 9 0 0 0 1.36 2.09"/><path d="M58.15 33.19c-.13 1.21-.48 2.62-.48 2.62l.09.97c.04.46-.53 1.39-.53 1.39s-.45.74-.86 1.15-2.92 1.67-4.5 2.3c-1.58.64-2.79 1.15-3.83 1.53-2.34 1.07-4.9 1-7.06 1.86-1.09.43-2.3 1.08-3.04 1.77a7.5 7.5 0 0 0-2.11 7.2 4.4 4.4 0 0 0 4.18 3.26c3.7-.03 7.08-1.13 10.23-2.48l7.1-3.05c1.21-.56 2.47-.89 3.71-1.32 4.01-1.4 13.46-4.6 13.46-4.6 5.72-2.16 10.63-5.32 13.44-5.97m9.95-2.03c9.37-.83 12.32.1 18.3 1.39 4.54.97 8.65 2.87 13.07 4.75"/><path d="M63.04 31.85a2.9 2.9 0 0 1-.96 2.82c-.45.4-2.14 1-3.07 1.71-.67.5-1.78 1.79-1.78 1.79m-33.35-8.23s-.65 1.57-1.05 2.32c-1.11 2.08-1.72 3.59-3.73 6a7 7 0 0 0-1.16 2.25c-.06.5.6 1.34.97 1.69.5.46 1.37 1.06 2.81 1.14s2.4-.16 3.51-.57a8 8 0 0 0 3.08-1.88 17 17 0 0 0 2.98-4.14c.51-1.2.74-2.04.74-2.04m-1.6-1.04s.22.23.91.63l.7.4a25 25 0 0 0 4.94-.2c1.86-.23 3.22-.35 4.98-1.1"/><path d="M36.98 34.5s.12.39-.44 1.31-1.11 1.37-1.46 2.17a10 10 0 0 0-.87 3.5c.07.67.38 1.55.98 1.81 1.12.49 2.87.4 3.73-.34 1.1-.99 1.62-1.75 1.82-3.18"/><path d="M39.19 39.03s.4.33.98.54l.57.2c1.47.13 3.04-.76 4.1-2.11"/><path d="m44.11 36.97.72.69s.9.5 1.48.59c.6.09 1.27.32 3.36.14s3.83-.42 4.43-.32 2.07 1.38 2.07 1.38m-14.8-7.25s-.03.19.13.5c.16.33.46.7.46.7s.9.55 1.52.66c2.13.4 8.23-.02 10.48-1.03M35.25 11.09s1.34.16 2.01.2c3.78.45 7.67.1 11.3-.23 1.94-.19 6.87-.55 8.82-.88s3.45.1 5.15.34c4.8.67 9.44 2.3 14.24 3.06 3.85.6 7.15 1.06 11.64 1.18M39.18 57.18c.05 0 4.82-1.7 5.18-2.04.36-.33.13-.84.13-.84m-8.62-3.91c.04 0 5.42-1.45 5.74-1.2.34.25.3.54.3.54"/></g><path fill="#404040" stroke="#000" stroke-width=".4" d="M47.08 48.25c-2.9 1.15-1.28.43-2.91 1.15s-1.58.69-1.91 1.04c-.34.35-.67.98-.68 1.55-.01.43.12.95.47 1.21.52.39 1.08.27 1.94.15s2.84-.8 3.81-1.15 2.65-1.15 3.64-1.29 1.7.22 2.15.3c.44.06 1.15-.17 1.51-.46s.3-1.27.29-1.91a5 5 0 0 0-.4-2.07 4 4 0 0 0-1.37-1.74 2 2 0 0 0-1.27-.26 2.6 2.6 0 0 0-1.34.8c-.33.35-.78 1.1-1.45 1.6-.67.48-2.48 1.08-2.48 1.08z"/></g><g stroke="#ccc" stroke-linecap="round" stroke-width=".4"><g fill="#404040" stroke="#000"><path d="M104.78 22.1c-1.33-.24-4.46-.83-5.01-1.28s-1.14-1.43-.9-2.08.68-.85 1.33-.86c.64 0 6.83.38 9.35.81s5.93 1.48 9.7 1.72 13.71 1.48 13.71 1.48l-5.78 2.47s-9.6-.61-12.18-1-6.46-.6-10.22-1.26zm-11.53-1.23c-.27.7-.25 1.32.21 2.24s1.14 3.41 2.23 4.61 1.81 1.57 2.59 1.6 2.04-.08 2.16-1.86c.13-1.79.34-5.45-.96-6.41s-2.75-2.37-4.12-2.14c-1.36.23-1.77 1.06-2.11 1.96z"/><path d="M93.94 24.3c1.73.97 2.2 2.6 2.1 3.69s.74.15.6 1.63c-.1 1.12-2.88 2.38-4.45 2.75s-5.4.7-6.11-.31c-.7-1.02-1.5-1.62-.94-2.76.54-1.14 1.43-1.05.68-1.68-.86-.73.4-1.94.71-2.3a12 12 0 0 1 3.13-1.95c.86-.24 3.19.32 4.28.93zm2.05-6.5c.87.7 1.33 1.9 1.2 2.5-.11.58-.71 1.82-2.76.96-2.5-1.06.03-4.44 1.56-3.46z"/><path d="M69.13 19.46s2.13.06 3.39.54c1.25.47 5.62 2.9 6.66 3.36s2.7 1.76 4.86 1.6 4.89-.87 6.25-1.65c1.37-.79 3.33-1.4 3.54-2.16s.51-2.05-.1-2.7c-.6-.64-3.8-1.45-6.97-1.92A640 640 0 0 1 74 14.28"/></g><path fill="none" d="M133.01 13.43c-6.97 1.15-3.65.78-7.22 1.24-3.58.47-24.8.74-24.8.74"/></g><g stroke="#ccc"><g stroke-linecap="round" stroke-width=".4"><g fill="#404040" stroke="#000"><path d="M115.93 34.82s-5.63.12-9.2.22c-3.55.1-15.24 1.72-16.38 1.39s-.9-.95-.52-1.05 9.25-1.4 10.67-1.45c1.41-.04 15.54-.14 15.54-.14z"/><path d="M84.54 37.45c5.85-1.81 16.42-4.22 17.84-4.34s13.9-.43 13.9-.43l.07-1.96s-4.94.65-7.52.7-4.52-.4-9.23.88-14.4 3.65-18.41 4.64-10.9 2.47-11.91 3.31l.67 2.7a126 126 0 0 1 14.6-5.5zm44.75 2.28c-3.37-.1-5-.04-7.12-.84s-3.01-1.6-4.58-2.25c-.86-.36-2.57-.5-2.65-.91-.08-.4.42-1.05.27-1.42-.16-.38.6-.81 1.15-.9 1.83-.3 7.68-.28 11.49.1a31 31 0 0 1 3.09.6"/></g><path fill="none" d="M102.47 18.92c.19 1.86-.23 6.99-1.6 9-1.36 2-.9 2.1-.67 2.88.24.78-.44 2.2-.37 2.87.06.68.08 1.86-.2 2.45a5 5 0 0 1-1.82 1.69m-2.55.43s-4.95 1.18-7.25 1.56c.3-.74.99-2.88 1.11-3.08.26-.4 1.5-1.5 1.32-3.04-.18-1.53.44-1.93.11-2.8-.33-.89-.78-.4-.69-1.32.1-.93 1.33-1.84 1.55-3.1.22-1.27 1.1-4.82-.92-9.08-.6-1.27-1.73-.46-2.24-1.27l-.26-.42c-.89-1.44 2.84-.96 5.56-.68.84.08 2.55.08 2.55.08 6.2-.46 5.42.3 6.4 3.92"/></g><path fill="none" stroke-width=".66" d="m100.14 16.25 3.53-4.73"/><g stroke-linecap="round"><path fill="#404040" stroke="#000" stroke-width=".4" d="M55.16 43.96c.09-.42.43.04 2.15-.34 1.72-.4 3.64-1.1 4.66-1.65s2.39-1.32 3.17-2.3a4 4 0 0 1 2.22-1.01c.32.03 1.76.21 1.85.85.2 1.3.72 1.74 1 2.44.18.5-.13 1.06-.45 1.5-1.22 1.65-3.95 1.64-5.45 2.12s-2.39 1.01-3.23 1.47-1.7.9-2.6 1.25c-.63.23-1.8.79-1.93.54-.13-.24.14-.74.07-1.53a6 6 0 0 0-.5-1.92c-.24-.52-1.07-.86-.96-1.42z"/><g fill="none"><path stroke-width=".27" d="M99.68 15.6s.62.65 1.21 1.44c.6.79 1.38 2.77 1.38 2.77m-3.96-3.64c.58.83 1.3 3.3 1.3 3.3m-8.3-3.61c.07.4.07.47.34.75l.9.92s-.17-.22-.2-.8a7 7 0 0 0-.1-.9M90.62 38.6a3.4 3.4 0 0 0 1.2-1.05c.13-.24.22-.74.22-.74"/><path stroke-width=".24" d="M92.82 38.3c.68-.32.92-.8 1.33-.97a7 7 0 0 0 1.15-.54l.08-.1"/><path stroke-width=".27" d="M93.15 30.6c-.28-.43-.27-.72-.07-1.04.19-.31.96-1.2.96-1.2m1.09 2.24c-.13-.36-.22-.7-.1-1.15.13-.44.57-1.34.51-1.52-.06-.19-.08-.58-.08-.58m1.8 3.18c-.1-.3-.21-.75-.06-1.1s.37-1.02.37-1.02m-6.77 1.7c.42-.53.85-1.29 1.16-2.06.32-.77.71-1.36.71-1.36m3.67-10.9c.59.76.47.55.64.86.23.44.5 1.4.5 1.4m1.85 12.22s-.18-.69-.14-1.17c.05-.49.14-.95.33-1.23l.22-.33"/></g></g></g><text x="112.26" y="160.97" fill="#ccc" stroke-width=".27" font-family="Lato" font-size="4.94" letter-spacing="0" transform="translate(-9.3 -150.52)" word-spacing="0"><tspan x="112.26" y="160.97">Retinaculum</tspan></text><text fill="#ccc" font-family="Lato" font-size="21.33" letter-spacing="0" transform="translate(22.6 -2.72)scale(.265)" word-spacing="0"><tspan x="219.54" y="26">Carpal bones</tspan></text><g stroke="#ccc"><path fill="#fc0" stroke="#000" stroke-linecap="round" stroke-width=".4" d="M68.52 20.64c.73.3 24.8 10.44 24.5 10.5-2.53.52-7.23 1.03-11.63 3.14s-13.45 6.3-17.27 7.88c-3.92 1.64-15.29 6.29-21.92 9.45-.28.13.39.72.67.61 2.37-.9 16.48-6.65 24.65-10.16h0C73.97 39 79 35.96 85.18 34.02c4.6-1.44 6-1.7 14.24-2.58s31.68-.5 31.68-.5q.3-.56.42-.94s-18.38-.55-26.43-.12c-4.01.22-7.49.39-10 .85-2.32-1.03-20.8-8.68-25.98-10.9"/><path fill="none" stroke-width=".58" d="M98.25 9.4s-.08-1.25-.57-1.45c-2.16-.88-4.55 1.65-5.74-.71 0 0-.86 1.04-1.73 1.07-1.66.06-2.77-.5-4.15.14-.48.23-.36 1.28-.36 1.28"/><g stroke="#000" stroke-linecap="round" stroke-width=".4"><path fill="#404040" d="M134.68 21.4c-4.21 1.14-9.76 4.05-12.6 5.89-2.82 1.83-4.62 2.09-5.9 3.1s-.23.94-.21 1.41-1.93.84-1.47 1.29c5.21 1.23 11.01.16 16.43 1.01"/><path fill="none" d="M133.8 24.2s-2.02.71-3.03.92c-1 .2-1.81.12-3.9.85s-8.44 3.29-8.44 3.29m.23 5.33s-.97-.11-1.61-.35-1.24-.7-1.24-.7"/></g></g><path fill="none" stroke="#ff2a2a" stroke-width=".75" d="m94.22 31.26 5.19 15.38"/><text fill="#ccc" font-family="Lato" font-size="21.33" letter-spacing="0" transform="translate(-5 -9.11)scale(.265)" word-spacing="0"><tspan x="334.15" y="232.04">Median nerve</tspan></text></svg>