<svg xmlns="http://www.w3.org/2000/svg" width="357.35" height="234.57" viewBox="0 0 94.55 62.06"><path fill="#404040" stroke="#000" stroke-linecap="round" stroke-width=".4" d="M24.18 37.06c2.95.24 6.95.24 8.52.94h0c1.9.9 4.48 2.29 6.26 2.92 1.1.39 3.41.76 3.41.76 1.87.2 2.88.79 4.85-.3 1.2-.67 3.26-2.14 2.78-3.46-1.45-3.97-3.06-9.33-2.91-11.47.17-2.3 1.75-5.14 1.62-6.4-.1-1-3.05-1.68-4.71-2.1s-4.7.85-6.89 1.9c-2.2 1.05-2.96 1.15-5.7 1.36-2.72.22-7.23-.44-7.23-.44"/><g fill="#ccc" stroke-width=".27" font-family="Lato" font-size="4.94" letter-spacing="0" word-spacing="0"><text x="108.96" y="88.32" transform="translate(-93.7 -59.98)"><tspan x="108.96" y="88.32">Proximal</tspan><tspan x="108.96" y="94.5">phalanx</tspan></text><text x="169.76" y="68.56" text-anchor="end" transform="translate(-93.7 -59.98)"><tspan x="169.76" y="68.56">UCL proper</tspan><tspan x="169.76" y="74.74">(cord like)</tspan></text><text x="98.68" y="110.15" transform="translate(-93.7 -59.98)"><tspan x="98.68" y="110.15">Accessory UCL</tspan><tspan x="98.68" y="116.32">(fan like)</tspan></text><text x="143.9" y="114.32" transform="translate(-93.7 -59.98)"><tspan x="143.9" y="114.32">Volar plate</tspan></text></g><path fill="#404040" stroke="#000" stroke-linecap="round" stroke-width=".4" d="M83.93 18.93s-3.49.74-6.53.8-9.73.47-12.76.18-6.06-1.5-7.4-1.42-3.06-.1-4.33.7c-1.26.79-2.9 3.59-3.22 4.6a19 19 0 0 0-.75 5.65c-.03 2.88.5 6.25.98 7.26.47 1 2.65 6.78 8.13 5.74s7.14-2.5 8.46-3.3c1.31-.8 1.83-2.14 4.59-3.09a34 34 0 0 1 9.4-1.6l3.34-.14"/><text x="159.29" y="89.22" fill="#ccc" stroke-width=".27" font-family="Lato" font-size="4.94" letter-spacing="0" transform="translate(-93.7 -59.98)" word-spacing="0"><tspan x="159.29" y="89.22">Metacarpal</tspan></text><g stroke="#ccc"><g stroke-linecap="round"><g stroke="#000" stroke-width=".4"><path fill="#f55" d="M47.52 35.46c4.08-1.75 10.43-5.3 10.43-5.3s.03-1.3-.75-1.26c-.78.03.34-.81-.43-1.32 0-.7.94-.87.6-1.06s-10.22 4.6-11.72 5.15c-1.5.54-4.69 1.4-4.43 1.77s1.1.32.5.78-1.5.77-.8.78c.71 0 1.5.2 1.33.58s-.66.89-.43 1.25c.23.37.63.32.44.84-.58 1.55 4.1-1.72 5.26-2.21z"/><path fill="#404040" d="M60.84 42.63c2.83-1.1 4.37-1.9 4.8-1.89.44.02 1.14.86.9 1.5-.24.66-1.3 1.74-3.86 2.64s-7.32 1.48-9.93 1.21-4.8-.48-6.76-2.15c-.31-.27-.36-.91-.1-1.23.49-.57 2.26-.21 2.26-.21"/><path fill="#f55" d="M57.95 30.16c-.72-.6-.47-1.18-1.28-.23-.82.96-3 2.94-4.72 5.43-1.71 2.5-4.45 6.7-3.99 7.25.47.55.9-.3 1.35.34s.18.86.78.58.71-.57 1.19-.1c.48.45.62.27 1.22.08.6-.18.84.47 1.28.4s.83-1.04 1.12-.76.58 1.14 1.28.9 1.19-1.17 2.03-1.04c.84.14 1.37.68 1.96.37s.87-.62.46-1.56c-.4-.93-.78-3.35-.7-5.05.1-1.86 1.47-4.95 1.35-5.42s-1.13.11-1.38-.48c-.25-.6-.79.53-1.15.35-.38-.17.2-1.37-.47-1.16l-.33.1"/></g><g stroke-width=".27"><path fill="none" stroke="#000" d="M61.25 36.38s.36.7 1.09.56c.72-.14 1.25-.41 1.34-.73.09-.33.44-.91 1.02-.82.57.1 1.07.17 1.16.45s0 1.2 0 1.2m-.42 2.44c.1-.6.33-1.2.81-1.17.5.02.17-1.74.6-1.86.48-.14.38-.52 1.06-.53.67-.01.46-.58.72-.6s.76-.53 1.2-.61c.46-.08.84.12 1.29.08s.96-.5 1.47-.49c.51 0 1.53.66 1.53.66m-2.26-1.63c-.84.16-.41.14-.83.17s-1.78.02-1.78.02m-5.35.66c-.03-.65-.11-.33-.03-.65s.28-.65.28-.65m1.25 1.91c-.36-.42-.56-.33-.5-1.04.06-.72.32-1.59.32-1.59m1.92-11.39c-.88.34-.97.57-1.76.55-.79-.03-2.38-.84-2.38-.84m-9.07 3.98c.22-.46.28-.9.5-1.12s.96-.33 1.2-.74c.22-.37.93-.5.95-.63l.07-.65m-12.77-1.25c.56.27 1.15.11 1.24.36.09.24.5.26.02.6s-.87.7-.68.89c.19.18 1.16.02.52.22-.8.26-1.22.93-.76 1.21.47.28 1.27.51.77.78-.5.28-.94.34-1.05.66-.1.33.01.67.01.67m2.44-4.56c.33.4.16.09.33.4.16.3 0 .06-.28 1.1l-.52 1.93m-.62-5.5c.58.45.83.65 1.29.79.45.14 1 .25 1 .25m-.17 16.3c0 .72.02 1.55.15 1.82l.32.77-1.03-1.65m-1.12.53.58 1.2M31.1 22.04s1.73.1 2.19-.02.49-.2.74-.02c.26.16.33.18.33.18m.8-.08c.64.15.76.21-.18.5s-2.62.58-2.18.73.83.21.83.21M36 37.99l1.95 2.54m-3.44-2.79.73 1.52"/><path fill="red" d="m32.6 36.96.8 1.36"/></g></g><path fill="none" stroke-width=".56" d="m54.16 13.69-1.8 16.56M36.6 45.24l17.57-8.4m6.05 12.45.14-4.66"/></g></svg>