<svg xmlns="http://www.w3.org/2000/svg" width="683.02" height="303.83" viewBox="0 0 180.72 80.39"><g stroke="#ccc" stroke-linecap="round"><path fill="none" stroke-width=".27" d="M112.81 25.14c.16 1.15-.12 2.4-.12 2.4s-.41-.68-.81-.86-.88-1-.88-1"/><path fill="#404040" stroke="#000" stroke-width=".4" d="M85.98 43.53c1.58-.6 3.5-1.12 4.59-2.13.96-.9 3.86-1.82 4.38-.9.32.62 1.07 1.15 1.02 1.98s-.4 1.26-.44 1.9.38 1.32.19 1.9c-.2.57-1.6 1.07-2.43 1.1-.83.02-2.67-.06-4.4.59-1.78.67-4.68 1.91-5.74 2.4-2.25 1.03-5.37 3-7.14 2.84-.9-.12-2.08-.98-2.28-1.52s-.4-3.47-.4-3.47-.07-1.01.42-1.42c1.5-1.24 3.31-.48 6.12-1.5 2.62-1 4.12-1.03 6.11-1.77z"/><g fill="none" stroke-width=".4"><path d="M19.52 34.12s-.82.95-2.34 1.63c-1.48.67-3.1 1.13-4.72 1.23-2.28.01-5.42-.47-6.75-2.2a2.3 2.3 0 0 1-.48-1.83c.12-.74.76-1.37 1.64-1.97a36 36 0 0 1 6.34-3.63c2.38-.95 4.83-1.36 7.16-2.14a86 86 0 0 0 8.15-3.29c1.16-.53 2.16-1.44 3.4-1.76.76-.2.95-.08 2.37-.1 1.42 0 6.13.16 6.13.16"/><path d="M16.8 33.08s.51.46.97.67c.61.28.97.3 1.76.37.8.06 2.49.13 4.68-.2a47 47 0 0 0 10.97-3.35m-1.92-1.1a8 8 0 0 0 3 1.37c1.15.2 2.02.27 3.47.35 1.72.1 4 .13 5.38.17 1.4.04 4.94.09 5.27.29.6.35.66.57 1.36 1.6.7 1.05.58.93 1.13 1.53a8 8 0 0 0 2.7 1.92c.75.31 1.87.73 2.46.69s.8 0 .8 0m-34.38 1.77s-.1.38-.59.84-2.01 1.61-3.1 2.22a18 18 0 0 1-4.26 1.86c-1.7.45-3 .35-3.61.16-.64-.19-1.93-1.1-2.2-2.3s.02-1.49.3-2.17a18 18 0 0 1 1.75-2.81M23.4 38.5c.4.33-.01.08.4.33.43.24.66.32.66.32s.49.08 1.29.1 2.1-.01 3.13-.2c1.03-.18 2.65-.39 3.38-.5.72-.1 3-.3 3.95-.57.94-.27 2.12-1.25 2.12-1.25m-1.48-1.23s.23.4.71.73c.48.34.77.5.77.5s1.62.37 2.68.37c1.05 0 5.69.04 6.66 0 .98-.03 2.32.04 2.32.04m-.96-1.32c.34.46.63.83.96 1.32 1.02.37 2.09.4 3.42.72"/><path d="M52.36 34.23s-.13.22-.06.65c.06.43.44 1.65.68 2.23.25.57.42.76.42.76s.57.42 1.11.86c.54.45 1.91 1.16 2.56 1.69.64.53.7.5 1.51 1.27.82.76 1.62 1.62 2.28 2.6.66 1 1.37 2.99 1.37 2.99m-4.2-11.4.8 1.52s1.82 4.06 2.48 5.43a9 9 0 0 0 1.36 2.09"/><path d="M63.15 42.3c-.13 1.21-.48 2.62-.48 2.62l.09.97c.04.46-.53 1.39-.53 1.39s-.45.74-.86 1.15-2.92 1.67-4.5 2.3c-1.58.64-2.79 1.15-3.83 1.53-2.34 1.07-4.9 1-7.06 1.86-1.09.43-2.3 1.08-3.04 1.76a7.5 7.5 0 0 0-2.11 7.2 4.44 4.44 0 0 0 4.18 3.27c3.7-.03 7.08-1.13 10.23-2.48l7.1-3.05c1.21-.56 2.47-.89 3.71-1.32a1799 1799 0 0 1 12.07-4.14m2.79-.93c4.32-1.7 5.13-2.65 7.8-3.72a118 118 0 0 1 10.16-3.33m2.72-.55c3.77.15 14.62.37 20 1.5 4.84 1 8.26 2.83 12.69 4.71"/><path d="M68.04 40.96a2.9 2.9 0 0 1-.96 2.82c-.45.4-2.14 1-3.07 1.71-.67.5-1.78 1.79-1.78 1.79m-33.35-8.23s-.65 1.57-1.05 2.32c-1.11 2.08-1.72 3.58-3.73 6a7 7 0 0 0-1.16 2.25c-.06.5.6 1.34.97 1.69.5.46 1.37 1.06 2.81 1.14s2.4-.16 3.51-.57a8 8 0 0 0 3.08-1.89 17 17 0 0 0 2.98-4.13c.51-1.2.74-2.05.74-2.05"/><path d="M35.43 42.78s.22.23.91.63l.7.4a25 25 0 0 0 4.94-.2c1.86-.23 3.22-.35 4.98-1.1"/><path d="M41.98 43.6s.12.4-.44 1.32-1.11 1.37-1.46 2.17a10 10 0 0 0-.87 3.5c.07.67.38 1.55.98 1.81 1.12.49 2.87.4 3.73-.34 1.1-.99 1.62-1.75 1.82-3.18"/><path d="M44.19 48.14s.4.33.98.53l.57.2c1.47.14 3.04-.75 4.1-2.1"/><path d="m49.11 46.08.72.69s.9.5 1.48.58c.6.1 1.27.33 3.36.15s3.83-.42 4.43-.33c.6.1 2.07 1.38 2.07 1.38m-14.8-7.24s-.03.19.13.5c.16.33.46.7.46.7s.9.55 1.52.66c2.13.4 8.23-.02 10.48-1.03M40.25 20.2s1.34.16 2.01.2c3.78.45 7.67.1 11.3-.23 1.94-.2 6.87-.55 8.82-.88s3.45.1 5.15.34c4.8.67 9.43 2.36 14.24 3.05 5.2.76 11.75.73 15.72 1.22M44.2 66.3c.04 0 4.81-1.7 5.17-2.04.36-.33.13-.85.13-.85m-8.62-3.9c.04 0 5.42-1.45 5.74-1.2.34.25.3.54.3.54"/></g><path fill="#404040" stroke="#000" stroke-width=".4" d="M52.08 57.36c-2.9 1.15-1.28.43-2.91 1.15s-1.58.69-1.91 1.04c-.34.35-.67.98-.68 1.54-.01.44.12.96.47 1.22.52.39 1.08.27 1.94.15s2.84-.8 3.81-1.15 2.65-1.14 3.64-1.29c.99-.14 1.7.22 2.15.3.44.06 1.15-.17 1.51-.46s.3-1.27.29-1.91a5 5 0 0 0-.4-2.07 4 4 0 0 0-1.37-1.74 2 2 0 0 0-1.27-.26 2.6 2.6 0 0 0-1.34.8c-.33.35-.78 1.1-1.45 1.6-.67.48-2.48 1.08-2.48 1.08z"/></g><text x="90.38" y="150.83" fill="#ccc" stroke-width=".27" font-family="Lato" font-size="6" letter-spacing="0" transform="translate(-4.3 -141.41)" word-spacing="0"><tspan x="90.38" y="150.83">Tendon</tspan><tspan x="90.38" y="158.33">sheath</tspan></text><g stroke="#ccc" stroke-linecap="round" stroke-width=".4"><path fill="none" d="M100.13 24.15s.1.04 1.73.19 3.99.2 4.88.36"/><g fill="#404040" stroke="#000"><path d="M109.78 31.2c-1.33-.23-4.46-.83-5.01-1.27s-1.14-1.43-.9-2.08.68-.85 1.33-.86c.64 0 6.83.38 9.35.81s5.93 1.48 9.7 1.72S137.97 31 137.97 31l-5.78 2.47s-9.6-.61-12.18-1-6.46-.6-10.22-1.26zm-11.53-1.22c-.27.7-.25 1.32.21 2.24s1.14 3.41 2.23 4.6 1.81 1.58 2.59 1.61 2.04-.08 2.16-1.86c.13-1.79.34-5.45-.96-6.41s-2.75-2.37-4.12-2.14c-1.36.23-1.77 1.06-2.11 1.96z"/><path d="M98.94 33.4c1.73.98 2.2 2.6 2.1 3.7s.74.15.6 1.63c-.1 1.12-2.88 2.38-4.45 2.75s-5.4.7-6.11-.31c-.7-1.02-1.5-1.62-.94-2.76.54-1.14 1.43-1.05.68-1.68-.86-.73.4-1.94.71-2.3a12 12 0 0 1 3.13-1.95c.86-.24 3.19.32 4.28.93zm2.05-6.49c.87.7 1.33 1.9 1.2 2.49-.11.6-.71 1.83-2.76.97-2.5-1.06.03-4.44 1.56-3.46z"/><path d="M74.13 28.57s2.13.06 3.39.53c1.25.48 5.62 2.92 6.66 3.36s2.7 1.76 4.86 1.61 4.89-.87 6.25-1.65c1.37-.79 3.33-1.4 3.54-2.16.2-.75.51-2.05-.1-2.7-.6-.63-3.8-1.45-6.97-1.92A640 640 0 0 1 79 23.39"/></g><path fill="none" d="M138.01 22.54c-6.97 1.15-3.65.78-7.22 1.24-3.58.47-10.64.68-10.64.68"/></g><g stroke="#ccc"><g stroke-linecap="round" stroke-width=".4"><path fill="#f55" stroke="#000" d="M101.53 46.12c2.97-.64 11.14-1.24 15.84-.82 3.14.28 3.56-1.37 3.56-1.37l.4-4.01c.14-1.27-1.61-1.4-2.04-1.4s-3.95.77-6.27.75-4.85.08-7.22.54c-1.96.38-4.95 1.67-5.71 1.82-2.25.45-2.63.3-3.3.64s-.38 1.16-.12 1.94c.26.79-.59 1.74-.1 2.48.2.31 1.24.16 2.67-.11"/><path fill="#fc0" stroke="#000" d="M120.93 43.93s-5.63.11-9.2.21c-3.55.1-15.24 1.73-16.38 1.4s-.9-.95-.52-1.05 9.25-1.4 10.67-1.45c1.41-.04 15.54-.14 15.54-.14z"/><path fill="#fc0" stroke="#000" d="M89.54 46.56c5.85-1.81 16.42-4.22 17.84-4.34s13.9-.43 13.9-.43l.07-1.96s-4.94.64-7.52.7c-2.58.04-4.52-.4-9.23.88s-14.4 3.65-18.41 4.64-10.9 2.47-11.91 3.31l.67 2.7a126 126 0 0 1 14.6-5.5z"/><path fill="#404040" stroke="#000" d="M139.68 30.5c-4.21 1.15-9.76 4.06-12.6 5.9-2.82 1.83-4.62 2.08-5.9 3.1s-.23.94-.21 1.41-1.93.84-1.47 1.28c5.21 1.24 11.01.17 16.43 1.02"/><path fill="#404040" stroke="#000" d="M134.29 48.84c-3.37-.1-5-.04-7.12-.84s-3.01-1.6-4.58-2.25c-.86-.36-2.57-.51-2.65-.91s.42-1.06.27-1.43c-.16-.37.6-.8 1.15-.9 1.83-.29 7.68-.27 11.49.11a31 31 0 0 1 3.09.6"/><path fill="none" d="M106.74 24.65c1-1.15 3.94-.54 6.63-.72a33 33 0 0 1 6.13.04c.8.17 2 2.15 2.2 4.01.19 1.86-.72 6.89-2.08 8.9-1.37 2-.91 2.1-.67 2.88s-.44 2.2-.38 2.88.16 1.89-.2 2.44c-.35.56-2.92 2.25-2.92 2.25l-9.81-.33s1.98-.91 2.23-1.31 1.49-1.51 1.31-3.05.45-1.93.12-2.8c-.33-.89-.79-.4-.7-1.32.1-.93 1.33-1.84 1.56-3.1.22-1.27 1.1-4.82-.92-9.07-.6-1.28-3.13-.97-2.5-1.7z"/></g><path fill="none" stroke-width=".75" d="m116.18 25.65 1.08-7.76"/></g><path fill="none" stroke="#ff2a2a" stroke-width=".75" d="m97.19 19.7 8.02 20.92"/><g stroke="#ccc"><path fill="none" stroke-width=".75" d="m78.15 64.8 2.1-15.95m20.24 6.16.05-10.7"/><g stroke-linecap="round"><path fill="#404040" stroke="#000" stroke-width=".4" d="M60.16 53.07c.09-.42.43.04 2.15-.34 1.72-.4 3.64-1.1 4.66-1.65s2.39-1.32 3.17-2.3a4 4 0 0 1 2.22-1.01c.32.02 1.76.21 1.85.85.2 1.3.72 1.74 1 2.44.18.5-.13 1.06-.45 1.49-1.22 1.66-3.95 1.65-5.45 2.13s-2.39 1.01-3.23 1.47-1.7.9-2.6 1.25c-.63.23-1.8.79-1.93.54-.13-.24.14-.74.07-1.53a6 6 0 0 0-.5-1.93c-.24-.51-1.07-.85-.96-1.4z"/><g fill="none"><path stroke-width=".27" d="M118.96 24.95s.62.66 1.21 1.44c.6.79 1.38 2.78 1.38 2.78m-3.83-3.74c.57.83 1.3 3.3 1.3 3.3m-8.98-3.62c.07.41.07.48.34.76l.89.92s-.17-.22-.2-.8a7 7 0 0 0-.1-.9M108.15 47c.62-.18 1.19-.6 1.36-.81.18-.2.36-.68.36-.68m.5 1.6c.86-.17 1.22-.58 1.74-.65s1.34-.2 1.45-.28l.11-.06m-1.8-6.26c-.28-.43-.26-.72-.07-1.04.2-.31.97-1.2.97-1.2m1.08 2.24c-.13-.36-.21-.7-.09-1.15s.57-1.34.5-1.52c-.06-.19-.08-.58-.08-.58m1.81 3.18c-.1-.3-.22-.75-.07-1.1s.38-1.02.38-1.02m-6.78 1.7c.43-.53.86-1.29 1.17-2.06s.7-1.36.7-1.36m1.78-11.14c.59.76.47.55.64.86.23.44.5 1.4.5 1.4m3.74 12.46s-.18-.69-.14-1.17c.05-.49.14-.95.33-1.23l.23-.32"/><path stroke="#000" stroke-width=".4" d="M138.8 33.32s-2.02.7-3.03.9-1.81.12-3.9.86c-2.08.73-8.44 3.29-8.44 3.29m.23 5.33s-.97-.11-1.61-.35-1.24-.7-1.24-.7"/><path stroke-width=".27" d="M113.2 47.28c.78-.3.69-.67 1.25-.79.56-.1.7-.28.7-.28"/></g></g></g><g fill="#ccc" stroke-width=".27" font-family="Lato" font-size="4.94" letter-spacing="0" word-spacing="0"><text x="59.57" y="210.59" transform="translate(-4.3 -141.41)"><tspan x="59.57" y="210.59">Extensor pollicis</tspan><tspan x="59.57" y="216.76">brevis tendon</tspan></text><text x="145.09" y="175.11" transform="translate(-4.3 -141.41)"><tspan x="145.09" y="175.11">Extensor pollicis</tspan><tspan x="145.09" y="181.29">brevis</tspan></text><text x="98.42" y="201.2" transform="translate(-4.3 -141.41)"><tspan x="98.42" y="201.2">Abductor pollicis</tspan><tspan x="98.42" y="207.37">longus tendon</tspan></text><text x="140.87" y="189.82" transform="translate(-4.3 -141.41)"><tspan x="140.87" y="189.82">Abductor pollicis</tspan><tspan x="140.87" y="195.99">longus</tspan></text><text x="118.13" y="157.63" transform="translate(-4.3 -141.41)"><tspan x="118.13" y="157.63">Retinaculum</tspan></text></g></svg>