<svg xmlns="http://www.w3.org/2000/svg" width="490.26" height="270.23"><g stroke="#ccc"><g stroke-linecap="round" stroke-width="1.5"><path fill="#404040" stroke="#000" d="M311.13 108.68c5.58-1.51 11.01-3.55 16.59-5.11 4.77-1.34 12.7-7.25 14.42-3.63 1.03 2.4 3.72 4.6 3.29 7.71s-2.32 4.62-2.17 7.08c.17 2.71 4.23 5.3 3.35 7.43s-5.27 2.65-8.42 2.52-15.26-1.05-21.92.91c-6.92 2.04-16.17 4.57-22.63 7.34-3.72 1.59-5.53 4.84-7.62 5.73s-22.36 6.82-23.37 4.93c-1-1.9-2.95-5.22-3.55-7.29s-5.56-15.96-5.56-15.96l2.99-6.58 22-2.03s5.32 1.09 10.13 1.06c7.63-.05 16.88-2.59 22.47-4.1z"/><path fill="#404040" stroke="#000" d="M207.57 137.8c.43-1.59 1.58.26 8.17-.73 6.6-1 14.05-3.1 18.03-4.92 3.97-1.83 9.37-4.35 12.59-7.78 1.91-2.04 5.7-4.18 6.86-3.99 1.18.2 3.3 1.09 4.46 2.28 1.4 1.45 2.64 3.07 2.6 5.47-.02 2.4-1.29 3.8-1.22 5.77.09 2.33 1.94 6.74 1.94 6.74s-13.6 4.3-19.4 5.7-9.26 3.18-12.55 4.66a82 82 0 0 1-10.18 4c-2.4.72-6.95 2.5-7.38 1.54s.72-2.75.65-5.75a21 21 0 0 0-1.37-7.4c-.74-2.02-3.77-3.52-3.2-5.6z"/><g fill="none"><path d="M59.53 55.21s-3.35 3.4-9.25 5.53c-5.78 2.1-12 3.42-18.14 3.35-8.6-.59-20.28-3.25-24.85-10.15-1.27-2.01-1.95-4.27-1.29-7.02s3.25-4.97 6.7-6.97c7.84-4.54 15.2-8.56 24.91-11.95 9.25-2.93 18.58-3.81 27.56-6.13a327 327 0 0 0 31.64-10.15c4.51-1.7 8.54-4.83 13.27-5.73 2.95-.55 3.64-.04 8.99.31 5.35.36 23.06 2.24 23.06 2.24"/><path d="M49.6 50.56s1.79 1.9 3.44 2.79c2.24 1.21 3.58 1.43 6.55 1.88s9.33 1.17 17.68.5c14.67-1.3 28.47-4.9 42.27-9.6m-6.92-4.67c3.37 2.63 6.17 4.49 10.96 6 4.25 1.06 7.5 1.56 12.96 2.27 6.43.82 15.05 1.56 20.23 2.1 5.25.55 18.58 1.69 19.78 2.52 2.17 1.5 2.33 2.33 4.7 6.45s1.93 3.63 3.83 6.05a32 32 0 0 0 9.67 7.97c2.72 1.38 6.85 3.27 9.06 3.27 2.2 0 3.05.26 3.05.26M76.75 75.57s-.45 1.43-2.44 3A83 83 0 0 1 62 86.12c-4.27 2-10.02 4.64-16.56 5.86-6.55 1.22-11.42.47-13.65-.39-2.35-.9-6.96-4.66-7.68-9.27-.72-4.57.5-5.62 1.76-8.1 1.27-2.48 4.62-7 5.82-8.42a19 19 0 0 1 1.54-1.72m39.7 8.78c1.46 1.34-.05.3 1.46 1.34 1.5 1.04 2.37 1.37 2.37 1.37s1.83.44 4.84.73c3 .3 7.9.55 11.83.13 3.94-.41 10.12-.75 12.88-.93 2.76-.2 11.44-.38 15.06-1.12s8.32-4.1 8.32-4.1"/><path d="M124.46 65.21s.76 1.55 2.48 2.96 2.74 2.1 2.74 2.1 6.04 1.82 10.01 2.1c3.98.27 21.43 1.71 25.12 1.85s8.73.77 8.73.77m-3.26-5.24c1.16 1.8 2.15 3.31 3.26 5.24 3.73 1.66 7.76 2.08 12.71 3.66m-2.93-14.03s-.55.79-.43 2.44a51 51 0 0 0 1.97 8.58c.77 2.23 1.39 3.01 1.39 3.01s2.03 1.72 3.94 3.54 6.9 4.88 9.16 7.06c2.27 2.18 2.5 2.1 5.37 5.19a56 56 0 0 1 7.87 10.46c2.22 3.9 4.36 11.61 4.36 11.61M204.21 72.4l2.65 5.96s5.72 15.82 7.84 21.14a33 33 0 0 0 4.55 8.25"/><path d="M223.03 88.79s-.39 4.66-1.24 9.2-2.54 9.75-2.54 9.75.06 1.92.07 3.68-2.37 5.1-2.37 5.1-1.89 2.67-3.55 4.1c-1.67 1.4-11.47 5.5-17.6 7.45s-10.83 3.56-14.85 4.72c-9.13 3.39-18.74 2.4-27.14 5.06-4.22 1.35-8.94 3.46-11.93 5.83-8.39 6.66-11.26 17.18-9.93 26.56 1.96 8.25 8.24 12.91 14.85 13.46 13.97.89 27-2.33 39.25-6.54 5.86-2.01 14.73-5.21 14.73-5.21"/><path d="M240.56 94.28c.46 4.72-1.34 8.03-4.39 10.37-1.8 1.39-8.32 3.2-12.03 5.62-2.66 1.73-7.19 6.24-7.19 6.24M93.5 76.36s-2.9 5.77-4.6 8.49c-4.76 7.53-7.48 13.03-15.7 21.6-1.45 1.52-4.6 6.24-4.97 8.14s1.88 5.22 3.17 6.63c1.73 1.9 4.88 4.4 10.29 5.08s9.09.05 13.4-1.2c4.36-1.27 8.78-3.26 12.13-6.25 4.46-3.99 10.12-10.39 12.36-14.78 2.24-4.4 3.35-7.5 3.35-7.5"/><path d="M117.16 92.22s.77.93 3.26 2.64l2.5 1.71c6.58.96 12.48.87 18.71.56 7.07-.34 12.2-.43 19.04-2.74"/><path d="M141.63 97.13s.35 1.51-2.03 4.84-4.56 4.86-6.11 7.77c-2.14 4-4.26 10.39-4.21 12.95s.99 5.95 3.2 7.1c4.06 2.14 10.67 2.3 14.14-.25 4.38-3.43 6.57-6.16 7.73-11.5"/><path d="M148.7 114.83s1.43 1.36 3.54 2.28l2.11.92c5.5.92 11.65-2.02 16.01-6.84m-2.53-2.78 2.53 2.78s3.2 2.13 5.4 2.63 4.71 1.57 12.62 1.46c7.9-.1 14.55-.53 16.8-.01s7.41 5.77 7.41 5.77m-53.76-31.37s-.2.71.31 1.96c.52 1.25 1.53 2.76 1.53 2.76s3.24 2.29 5.56 2.89c7.93 2.06 31.05 2.17 39.79-1.04M141.48 8.42s5.01.98 7.54 1.34c14.14 2.7 28.89 2.48 42.64 2.19 7.39-.18 26.08-.19 33.51-.9 7.43-.7 12.96 1.33 19.32 2.69 17.94 3.84 34.93 11.42 52.84 15.41 19 4.25 42.88 6.11 57.71 9.06M143.71 183.23c.2.03 18.64-5.1 20.08-6.25 1.44-1.14.73-3.15.73-3.15m-31.45-17.1c.17 0 20.83-3.98 21.98-2.97 1.2 1.06.97 2.15.97 2.15m57.65 11.7c4.71-1.81 9.54-2.72 14.34-3.99 2.89-.76 8.7-2.15 8.7-2.15m42.94-10.69s10.04-3.14 14.77-5.4c5.06-2.4 9.38-6.18 14.4-8.64 5.08-2.47 15.8-6.08 15.8-6.08m7.39-2.03s12.96-3.06 20.73-3.62c7.76-.55 14.38.23 14.38.23"/></g><path fill="#404040" stroke="#000" d="M175.9 151.74c-11.23 3.54-4.91 1.28-11.27 3.54s-6.12 2.16-7.48 3.39-2.79 3.53-2.99 5.65c-.15 1.64.21 3.65 1.46 4.72 1.86 1.6 3.99 1.3 7.25 1.08 3.27-.22 10.95-2.25 14.7-3.29s10.3-3.59 14.06-3.86 6.38 1.3 8.02 1.69 4.38-.3 5.83-1.3 1.49-4.7 1.61-7.13c.14-2.65-.03-5.42-.96-7.91-.97-2.62-2.41-5.31-4.68-6.94a7 7 0 0 0-4.7-1.3c-1.96.19-3.94 1.4-5.28 2.64s-3.24 3.95-5.9 5.61c-2.65 1.66-9.66 3.41-9.66 3.41zm78.36-13.52c-2.68.07-7.59-1.23-8-.82-.4.4.86 1.76.45 2.22s-1.97-.53-2.33-.03 1.48 1.83.6 2.48-3.88.4-3.96.9 1.09 1.94 1.97 2.57c3.07 2.18 6.97 3.18 10.72 3.55 6.2.61 12.58-.45 18.53-2.27 4.7-1.44 11.89-5.2 13.12-6.7s-1.4-.73-2.17-.72c-.48 0-2.12.6-.73-1.2 1.38-1.8 5-3.95 3.05-3.48-1.94.47-5.36 1.74-4.07.12 1.28-1.63 3.42-4.25 2.12-3.52-1.3.72-9.02 3.5-12.32 4.36a70 70 0 0 1-16.98 2.54z"/><path fill="#f55" stroke="#000" d="M226.3 134.3s6.67-4.44 9.9-8.9 7.42-13.7 13.98-16.94c4.95-2.44 12.27-1.73 16.57-.61 5.46 1.41 6.77 2.44 11.79 3.88 0 0-3.38.07-8.2.7-4.84.62-12 1.1-14.06 3.13-2.05 2.03-2.74 4.78-2.74 4.78s-2-.4-3.83.94c-1.82 1.34-4.18 5.03-9.85 7.67a171 171 0 0 1-13.56 5.35z"/></g><g fill="none"><path stroke-width="2.13" d="m185.34 200.83 35.25-49.76m-4.2 69.06 31.65-74.89m89.1-6.47-16.1-17.27"/><path stroke-width="1.5" d="M249.65 155.44s-.06 3.28 1.14 3.9c5.32 2.75 11.93-3.4 14.47 3.05 0 0 2.42-2.55 4.64-2.46 4.23.17 6.95 1.85 10.6.46 1.26-.49 1.19-3.27 1.19-3.27"/></g></g><path fill="none" stroke="#ff2a2a" stroke-width="2.13" d="m262.02 97.7 4.35 4.94 5.38-3.98m-4.3-5.9-1.08 9.88"/><g fill="#ccc" font-family="Lato" letter-spacing="0" word-spacing="0"><text x="331.75" y="128.91" font-size="22.67" transform="translate(-86.49 -67.64)"><tspan x="331.75" y="128.91">Ulnar collateral ligament</tspan><tspan x="331.75" y="157.25">(UCL)</tspan></text><g font-size="18.67"><text x="184.98" y="284.57" transform="translate(-86.49 -67.64)"><tspan x="184.98" y="284.57">Proximal</tspan><tspan x="184.98" y="307.9">phalanx</tspan></text><text x="282.68" y="306.8" transform="translate(-86.49 -67.64)"><tspan x="282.68" y="306.8">Radial collateral ligament</tspan><tspan x="282.68" y="330.14">(RCL)</tspan></text><text x="428.39" y="216.47" transform="translate(-86.49 -67.64)"><tspan x="428.39" y="216.47">Metacarpal</tspan></text><text x="338.81" y="250.03" transform="translate(-86.49 -67.64)"><tspan x="338.81" y="250.03">Metacarpophalangeal</tspan><tspan x="338.81" y="273.36">(MCP) joint</tspan></text></g></g></svg>