<svg xmlns="http://www.w3.org/2000/svg" width="629.8" height="247.55" viewBox="0 0 314.9 123.77"><defs><path id="a" fill="#fff" d="M4.9-1.16c-.63.43-1.18.63-1.73.63-1.1 0-1.83-.83-1.83-2.22v-.12h3.54l.01-.33c0-1.35-.78-2.16-1.97-2.16C1.47-5.36.41-4.23.41-2.58.4-.98 1.39.1 2.83.1q1.05 0 2.06-.65zm-.98-2.17H1.4c.08-.92.69-1.53 1.4-1.53q1.11.01 1.13 1.36zm0 0"/><path id="b" fill="#fff" d="M3.9-2.55a4 4 0 0 0-.35-1.87c-.35-.7-1-.88-1.44-.88-1 0-1.38.75-1.48.97-.29.58-.3 1.38-.3 1.78 0 .53.01 1.33.4 1.97.36.6.96.75 1.38.75a1.6 1.6 0 0 0 1.47-.9c.3-.58.31-1.3.31-1.82M2.1-.06c-.26 0-.8-.13-.98-.96-.09-.45-.09-1.2-.09-1.62 0-.55 0-1.11.1-1.55.17-.81.78-.89.98-.89a1 1 0 0 1 .98.86c.1.44.1 1.05.1 1.58 0 .47 0 1.19-.1 1.64-.17.83-.71.94-.98.94m0 0"/><path id="e" fill="#fff" d="M2.25-1.62c.13-.13.45-.4.6-.5.48-.46.95-.9.95-1.61C3.8-4.7 3-5.3 2.02-5.3c-.97 0-1.6.72-1.6 1.44 0 .4.31.44.42.44.18 0 .43-.11.43-.42 0-.41-.41-.41-.5-.41.23-.6.76-.78 1.15-.78.74 0 1.13.62 1.13 1.3 0 .82-.58 1.43-1.53 2.39L.52-.3c-.1.08-.1.1-.1.3h3.14l.24-1.42h-.25c-.02.15-.08.54-.17.7-.05.06-.66.06-.79.06H1.17zm0 0"/><path id="f" fill="#fff" d="M3.14-5.16c0-.15 0-.21-.17-.21-.1 0-.11 0-.19.1L.23-1.57v.26h2.25v.67c0 .3-.01.37-.64.37h-.17V0c.67-.03.69-.03 1.14-.03s.47 0 1.14.03v-.27h-.17c-.62 0-.64-.07-.64-.37v-.67h.84v-.25h-.84zm-.6.64v2.96H.53zm0 0"/><path id="g" fill="#fff" d="M2.64-2.87c.45-.22 1-.61 1-1.24 0-.76-.78-1.19-1.51-1.19-.85 0-1.54.58-1.54 1.33q0 .44.3.8c.14.17.17.19.66.5-.99.44-1.2 1.01-1.2 1.45 0 .9.88 1.4 1.76 1.4.97 0 1.77-.68 1.77-1.52 0-.5-.27-.83-.41-.97-.13-.13-.14-.14-.83-.56m-1.23-.75C1.17-3.77.98-4 .98-4.28c0-.5.55-.82 1.13-.82.6 0 1.12.42 1.12.98 0 .45-.35.84-.82 1.08zm.39 1.09c.03.01.93.58 1.08.65.12.08.54.33.54.82 0 .6-.65.98-1.3.98-.71 0-1.3-.48-1.3-1.14 0-.6.43-1.06.98-1.31m0 0"/><path id="h" fill="#fff" d="M2.02-2.66c.62 0 1.03.46 1.03 1.3 0 1-.57 1.28-.99 1.28-.44 0-1.04-.15-1.33-.58.3 0 .5-.18.5-.43 0-.27-.18-.44-.45-.44-.2 0-.44.12-.44.45 0 .75.82 1.25 1.74 1.25 1.05 0 1.8-.73 1.8-1.53 0-.67-.54-1.26-1.35-1.45.63-.22 1.11-.75 1.11-1.4S2.92-5.3 2.1-5.3c-.86 0-1.5.46-1.5 1.07 0 .3.2.42.41.42.25 0 .4-.17.4-.4 0-.3-.26-.41-.43-.41.34-.44.95-.47 1.1-.47.2 0 .8.06.8.89 0 .54-.23.89-.34 1.01-.23.25-.42.27-.9.3q-.23-.01-.22.12c0 .13.07.11.22.11zm0 0"/><path id="c" fill="#fff" d="M1.63-.44a.46.46 0 0 0-.46-.45.45.45 0 0 0-.44.44c0 .28.22.45.44.45.25 0 .46-.2.46-.44m0 0"/><clipPath id="i"><path fill="#fff" d="M44 3h270.9v78H44zm0 0"/></clipPath></defs><path fill="none" stroke="#fff" stroke-miterlimit="10" stroke-width=".4" d="M61.03 6.55V88.4H303.4"/><g fill="#fff"><path d="M4.64 50.1a5 5 0 0 0 1.97.34c1.73 0 2.81-.9 2.81-2.19q0-.71-.47-1.2c-.51-.48-1.09-.66-1.65-.9-1-.41-1.53-.7-1.53-1.41 0-.8.56-1.33 1.48-1.33q.6 0 .98.23l.18.2.15 1.02h.57v-1.69a6 6 0 0 0-1.85-.3c-1.55 0-2.51.85-2.51 2.09 0 1.06.62 1.46 1.84 1.98 1.19.52 1.81.72 1.81 1.63 0 .74-.6 1.3-1.64 1.3q-.75 0-1.22-.26l-.15-.19-.13-1.25h-.64zm5.66 2.59h2.56v-.4l-.7-.04-.17-.19v-1.8q.59.08 1 .09c1.62 0 2.69-1.11 2.69-2.83 0-1.53-.9-2.56-2.1-2.56-.51 0-1.01.21-1.6.65v-.6h-.41l-1.27.4v.34h.78v6.31l-.19.2-.59.04zm1.69-3v-3.67q.58-.37 1.14-.38c.95 0 1.6.75 1.6 2.02 0 1.34-.76 2.2-1.82 2.2q-.4 0-.92-.17m0 0"/><use x="16.06" y="50.31" href="#a"/><use x="21.42" y="50.31" href="#a"/><path d="M30.95 43.02v2.04q-.5-.1-.97-.1c-1.66 0-2.82 1.15-2.82 2.9 0 1.53.93 2.55 2.11 2.55.6 0 1.13-.22 1.68-.66v.56h1.62v-.39l-.53-.06-.19-.17v-7.4h-.4l-1.33.38v.35zm0 6.33q-.6.37-1.2.37c-.98 0-1.62-.76-1.62-2.05 0-1.36.75-2.25 1.86-2.25q.41 0 .96.18zm0 0"/></g><path fill="#fff" d="M162.18 110.98v1.67h.6l.15-1.02.16-.15h1.68v6.15l-.2.16-.73.04v.46h2.84v-.46l-.72-.04-.2-.16v-6.15h1.68l.15.15.15 1.02h.61v-1.67zm0 0"/><g fill="#fff"><path d="M169.98 110.57c-.34 0-.62.26-.62.62s.28.63.62.63c.36 0 .64-.27.64-.63a.63.63 0 0 0-.64-.62m-.03 2.42-1.26.4v.34h.76v3.93l-.18.17-.58.07v.39h2.45v-.4l-.58-.06-.2-.17V113zm6.37.67a1.3 1.3 0 0 0-1.2-.73q-.68.01-1.75.65V113h-.4l-1.27.4v.34h.76v3.93l-.17.17-.6.07v.39h2.4v-.4l-.54-.06-.18-.17v-3.65q.71-.36 1.25-.36.96-.01.95 1.12v2.9l-.17.16-.53.07v.39h2.33v-.4l-.52-.06-.2-.17v-3.65q.71-.34 1.23-.36c.69 0 .99.36.99 1.12v2.9l-.2.16-.5.07v.39h2.37v-.4l-.58-.06-.19-.17v-3.08c0-1.07-.55-1.65-1.4-1.65a4 4 0 0 0-1.88.73m0 0"/><use x="180.56" y="118.29" href="#a"/></g><path fill="#fff" d="M193.16 110.46c-1.94.23-3.05 1.9-3.05 4.72 0 2.8 1.15 4.44 3.05 4.65v-.45c-1.46-.25-2.13-1.62-2.13-4.19 0-2.62.64-4.01 2.13-4.28zm4.09 2.72q-.56-.25-1.28-.25c-1.23 0-1.92.58-1.92 1.53 0 .73.48 1.08 1.4 1.5.72.33 1.11.52 1.11 1.08 0 .51-.39.89-1.01.89q-.49 0-.94-.27l-.12-.92h-.54v1.42q.59.22 1.43.22c1.28 0 2.04-.62 2.04-1.62q0-.63-.42-.94c-.36-.3-.78-.45-1.15-.64-.61-.3-.93-.52-.93-.99 0-.5.33-.8.91-.8q.38 0 .8.24l.09.78h.53zm.95-2.72v.45c1.5.27 2.13 1.66 2.13 4.28 0 2.57-.67 3.94-2.12 4.2v.44c1.89-.21 3.05-1.85 3.05-4.65 0-2.83-1.11-4.49-3.05-4.72m0 0"/><path fill="none" stroke="#fff" stroke-miterlimit="10" stroke-width=".4" d="M61.03 88.39v2.04"/><use x="58.91" y="99.75" fill="#fff" href="#b"/><path fill="none" stroke="#fff" stroke-miterlimit="10" stroke-width=".4" d="M77.19 88.39v2.04m16.16-2.04v2.04m16.15-2.04v2.04m16.16-2.04v2.04"/><path fill="#fff" d="M118.52 94.68c0-.22-.02-.22-.24-.22-.33.31-.75.5-1.5.5v.26c.22 0 .64 0 1.11-.2v4.08c0 .3-.03.39-.78.39h-.28v.26c.33-.03 1.01-.03 1.37-.03s1.05 0 1.38.03v-.26h-.28c-.75 0-.78-.1-.78-.4zm0 0"/><use x="120.25" y="99.75" fill="#fff" href="#c"/><g fill="#fff"><use x="122.6" y="99.75" href="#b"/><use x="126.84" y="99.75" href="#e"/><use x="131.07" y="99.75" href="#f"/></g><path fill="none" stroke="#fff" stroke-miterlimit="10" stroke-width=".4" d="M141.82 88.39v2.04m16.16-2.04v2.04m16.15-2.04v2.04m16.17-2.04v2.04"/><use x="180.65" y="99.75" fill="#fff" href="#e"/><use x="184.88" y="99.75" fill="#fff" href="#c"/><g fill="#fff"><use x="187.23" y="99.75" href="#b"/><use x="191.47" y="99.75" href="#f"/><use x="195.7" y="99.75" href="#g"/></g><path fill="none" stroke="#fff" stroke-miterlimit="10" stroke-width=".4" d="M206.45 88.39v2.04m16.15-2.04v2.04m16.17-2.04v2.04m16.15-2.04v2.04"/><use x="245.27" y="99.75" fill="#fff" href="#h"/><use x="249.51" y="99.75" fill="#fff" href="#c"/><g fill="#fff"><use x="251.86" y="99.75" href="#b"/><path d="M260.13 94.9c.07-.08.07-.1.07-.27h-2.03l-.64-.03c-.42-.03-.42-.11-.45-.24h-.25l-.27 1.7h.25c.02-.13.11-.68.22-.74.08-.05.7-.05.8-.05h1.69l-.82 1.1a5.4 5.4 0 0 0-1.1 3.1c0 .08 0 .46.37.46s.38-.36.38-.46v-.39c0-1.14.2-2.08.59-2.6zm0 0"/><use x="260.33" y="99.75" href="#e"/></g><path fill="none" stroke="#fff" stroke-miterlimit="10" stroke-width=".4" d="M271.08 88.39v2.04m16.16-2.04v2.04m16.16-2.04v2.04"/><use x="295.86" y="99.75" fill="#fff" href="#h"/><use x="300.1" y="99.75" fill="#fff" href="#c"/><g fill="#fff"><use x="302.45" y="99.75" href="#g"/><use x="306.68" y="99.75" href="#f"/></g><path fill="none" stroke="#fff" stroke-miterlimit="10" stroke-width=".4" d="M61.03 88.39h-2.58"/><use x="50.03" y="90.96" fill="#fff" href="#b"/><path fill="none" stroke="#fff" stroke-miterlimit="10" stroke-width=".4" d="M61.03 67.93h-2.58"/><g fill="#fff"><use x="45.79" y="70.5" href="#e"/><use x="50.03" y="70.5" href="#b"/></g><path fill="none" stroke="#fff" stroke-miterlimit="10" stroke-width=".4" d="M61.03 47.47h-2.58"/><g fill="#fff"><use x="45.79" y="50.04" href="#f"/><use x="50.03" y="50.04" href="#b"/></g><path fill="none" stroke="#fff" stroke-miterlimit="10" stroke-width=".4" d="M61.03 27.01h-2.58"/><g fill="#fff"><path d="M46.89 26.94c0-.66.06-1.24.34-1.72.25-.4.66-.73 1.16-.73.15 0 .51.03.7.3-.36.02-.39.29-.39.37 0 .25.19.37.38.37.14 0 .37-.08.37-.39 0-.47-.36-.86-1.08-.86-1.1 0-2.23 1.05-2.23 2.77 0 2.17 1.01 2.7 1.78 2.7.39 0 .8-.1 1.16-.45.32-.31.59-.64.59-1.35 0-1.03-.8-1.76-1.67-1.76-.58 0-.92.36-1.11.75m1.03 2.56a.9.9 0 0 1-.8-.51 3 3 0 0 1-.2-1.2c0-.79.42-1.38 1.05-1.38.39 0 .64.2.78.48.17.3.17.66.17 1.06s0 .75-.16 1.05q-.31.52-.84.5m0 0"/><use x="50.03" y="29.58" href="#b"/></g><path fill="none" stroke="#fff" stroke-miterlimit="10" stroke-width=".4" d="M61.03 6.55h-2.58"/><g fill="#fff"><use x="45.79" y="9.12" href="#g"/><use x="50.03" y="9.12" href="#b"/></g><g clip-path="url(#i)"><path fill="none" stroke="#4b7e96" stroke-miterlimit="10" stroke-width="1.2" d="M61.03 63.84h32.32l16.15-8.19 16.16-26.6 16.16-8.18h161.57"/></g><path fill="#4b7e96" d="M62.28 63.84a1.25 1.25 0 1 0-2.5 0 1.25 1.25 0 0 0 2.5 0m16.16 0a1.25 1.25 0 1 0-2.5 0 1.25 1.25 0 0 0 2.5 0m16.16 0a1.25 1.25 0 1 0-2.5 0 1.25 1.25 0 0 0 2.5 0m16.15-8.19a1.25 1.25 0 1 0-2.5 0 1.25 1.25 0 0 0 2.5 0m16.16-26.59a1.25 1.25 0 1 0-2.5 0 1.25 1.25 0 0 0 2.5 0m16.16-8.18a1.25 1.25 0 1 0-2.5 0 1.25 1.25 0 0 0 2.5 0m16.16 0a1.25 1.25 0 1 0-2.5 0 1.25 1.25 0 0 0 2.5 0m16.15 0a1.25 1.25 0 1 0-2.5 0 1.25 1.25 0 0 0 2.5 0m16.16 0a1.25 1.25 0 1 0-2.5 0 1.25 1.25 0 0 0 2.5 0m16.16 0a1.25 1.25 0 1 0-2.5 0 1.25 1.25 0 0 0 2.5 0m16.16 0a1.25 1.25 0 1 0-2.5 0 1.25 1.25 0 0 0 2.5 0m16.15 0a1.25 1.25 0 1 0-2.5 0 1.25 1.25 0 0 0 2.5 0m16.16 0a1.25 1.25 0 1 0-2.5 0 1.25 1.25 0 0 0 2.5 0m16.16 0a1.25 1.25 0 1 0-2.5 0 1.25 1.25 0 0 0 2.5 0m16.15 0a1.25 1.25 0 1 0-2.5 0 1.25 1.25 0 0 0 2.5 0m16.16 0a1.25 1.25 0 1 0-2.5 0 1.25 1.25 0 0 0 2.5 0m0 0"/></svg>