<svg xmlns="http://www.w3.org/2000/svg" viewBox="0 0 760 270"><defs><linearGradient id="p" x2="0" y2="1"><stop stop-color="#fff"/><stop offset="1" stop-color="#f6f8fa"/></linearGradient><linearGradient id="e" x2="0" y2="1"><stop stop-color="#f4fce3"/><stop offset="1" stop-color="#e8f5d6"/></linearGradient><linearGradient id="r" x2="0" y2="1"><stop stop-color="#e0f2fe"/><stop offset="1" stop-color="#bae6fd"/></linearGradient><linearGradient id="v" x2="0" y2="1"><stop stop-color="#fef3c7"/><stop offset="1" stop-color="#fde68a"/></linearGradient><marker id="ar" markerHeight="9" markerWidth="9" orient="auto" refX="7" refY="5" viewBox="0 0 10 10"><path fill="#57606a" d="m2 2 6 3-6 3z"/></marker><marker id="al" markerHeight="9" markerWidth="9" orient="auto" refX="3" refY="5" viewBox="0 0 10 10"><path fill="#57606a" d="M8 2 2 5l6 3z"/></marker><filter id="s" width="110%" height="110%" x="-5%" y="-5%"><feDropShadow dy="4" flood-color="#000" flood-opacity=".06" stdDeviation="6"/></filter><style>text{font:400 16px system-ui,-apple-system,sans-serif;fill:#24292f;text-anchor:middle}.title{font-size:20px;fill:#57606a;text-anchor:start;dominant-baseline:middle}.sub{font-size:13px;fill:#4d7c0f}</style></defs><rect width="380" height="210" x="20" y="30" fill="url(#p)" stroke="#d0d7de" stroke-width="2" filter="url(#s)" rx="4"/><g transform="translate(40 56)"><rect width="22" height="14" fill="#57606a" rx="2"/><g fill="#fff"><rect width="4" height="3" x="3" y="3" rx="1"/><rect width="4" height="3" x="9" y="3" rx="1"/><rect width="4" height="3" x="15" y="3" rx="1"/><rect width="12" height="3" x="5" y="8" rx="1"/></g></g><text x="70" y="68" class="title">Keyboard firmware</text><rect width="140" height="100" x="35" y="110" fill="url(#e)" stroke="#65a30d" stroke-width="2" rx="4"/><g transform="translate(93 133)"><path fill="#4d7c0f" d="M4 5v10a8 3 0 0 0 16 0V5z"/><ellipse cx="12" cy="5" fill="#4d7c0f" rx="8" ry="3"/><path fill="none" stroke="#f4fce3" stroke-width="1.5" d="M4 10a8 3 0 0 0 16 0"/></g><text x="105" y="172">EEPROM</text><text x="105" y="192" class="sub">(persistent storage)</text><rect width="140" height="100" x="245" y="110" fill="url(#r)" stroke="#0ea5e9" stroke-width="2" rx="4"/><g transform="translate(303 128)"><path stroke="#0369a1" stroke-linecap="round" stroke-width="2.5" d="M4 6h16M4 12h16M4 18h16"/><rect width="12" height="20" x="6" y="2" fill="#0369a1" rx="1.5"/></g><text x="315" y="172">RAM</text><rect width="210" height="210" x="530" y="30" fill="url(#p)" stroke="#d0d7de" stroke-width="2" filter="url(#s)" rx="4"/><g transform="translate(550 54)"><g fill="#57606a"><rect width="20" height="13" rx="2"/><rect width="8" height="2" x="6" y="16" rx="1"/><path d="M8 13h4v3H8z"/></g><rect width="16" height="9" x="2" y="2" fill="#fff" rx="1"/></g><text x="580" y="68" class="title">Computer</text><rect width="170" height="100" x="550" y="110" fill="url(#v)" stroke="#d97706" stroke-width="2" rx="4"/><g transform="translate(623 128)"><rect width="20" height="16" x="2" y="4" fill="#b45309" rx="2"/><rect width="12" height="3" x="6" y="12" fill="#b45309" rx="1"/><g fill="#fef3c7"><rect width="16" height="9" x="4" y="9" rx="1"/><circle cx="6" cy="6.5" r="1"/><circle cx="9" cy="6.5" r="1"/></g></g><text x="635" y="172" font-size="15">Vial configurator</text><path stroke="#57606a" stroke-width="2.5" marker-end="url(#ar)" marker-start="url(#al)" d="M187 160h46"/><path stroke="#57606a" stroke-dasharray="6 5" stroke-width="2.5" marker-end="url(#ar)" marker-start="url(#al)" d="M397 160h141"/><text x="467" y="145" fill="#57606a">Raw HID</text></svg>