<svg xmlns="http://www.w3.org/2000/svg" width="623.62" height="184.25" viewBox="0 0 467.72 138.19"><style>use[href=&quot;#aq&quot;],use[href=&quot;#ar&quot;],use[href=&quot;#as&quot;],use[href=&quot;#at&quot;],use[href=&quot;#au&quot;]{fill:#ccc!important}path[fill=&quot;#ececd7&quot;]{fill:#b7b7a2!important}path[fill=&quot;#d4d4c8&quot;]{fill:#928a7c!important}path[stroke=&quot;#d4d4c8&quot;]{stroke:#928a7c!important}</style><defs><path id="a" d="M5.02-5.19 1.39 0h3.86c2.1 0 4.1-.67 4.63-1.4.45-.66-.47-1.2-1.93-1.32 1.9-.23 2.94-.73 3.24-1.17.47-.67-.61-1.3-2.72-1.3Zm-.38 2.27 1.28-1.85h1.85c1.59 0 2.6.4 2.26.9-.37.51-1.95.95-3.53.95ZM2.9-.42l1.44-2.05H6.3c1.94 0 2.75.53 2.38 1.06-.36.52-1.9.99-3.56.99Zm0 0"/><path id="b" d="M6.25-5.19H4.97L1.34 0h5.94l.34-.48-3.95.01h-.72Zm0 0"/><path id="c" d="M4.98-5.19 1.36 0H5.2c2.49 0 5.27-1.12 6.27-2.55 1.01-1.45-.14-2.64-2.64-2.64ZM2.91-.42l3.03-4.35h2.25c2 0 2.98.86 2.03 2.22S7.08-.42 5.16-.42Zm0 0"/><path id="d" d="M9.1-.86a10 10 0 0 1-3.16.47C4-.4 3.24-1.41 4.08-2.61c.7-1 2.75-2.19 5.01-2.19a5 5 0 0 1 2.2.4l.66-.62a11 11 0 0 0-2.56-.25c-2.53 0-5.51 1.13-6.6 2.68C1.67-.97 3.35.06 5.54.06c1.49 0 1.84-.04 3.31-.4Zm0 0"/><path id="e" d="M13.06-5.19h-1.12L8.33-2.7C7.17-1.9 5.73-.92 5.3-.55c.1-.32.04-.95.03-1.43l-.16-3.2H3.83L4.16 0H5.5Zm0 0"/><path id="f" d="M6.83-5.19H4.98L1.36 0h1.16l3.23-4.62h.02c.03.14.23.95.32 1.25L7.03 0h1.84l3.63-5.19h-1.16L8.1-.55h-.01c-.02-.15-.22-.97-.31-1.26Zm0 0"/><path id="g" d="M7.78-2.44c1.8-.23 3.08-.8 3.45-1.34.54-.75-.62-1.4-2.71-1.4H4.98L1.36 0H2.6l1.66-2.37h2.32L7.7 0H9Zm-3.2-.37 1.36-1.96h2.1c1.82 0 2.37.49 2 .99-.3.45-1.46.97-3.35.97Zm0 0"/><path id="h" d="M8.9-4.69h1.33l.52.02h1.95l.33-.47H4.11l-.33.47h1.99l.54-.02h1.32L4.34 0h1.29Zm0 0"/><path id="i" d="M10.28-4.97c-.5-.17-1.1-.37-2.44-.37-2 0-3.8.71-4.3 1.47-.38.53 0 .87.07.9.45.38.92.44 1.8.56 1.15.16 1.34.2 1.64.44.18.13.22.38.04.63-.36.51-1.56 1-2.84 1-1.1 0-2.1-.22-2.7-.63L.9-.36a8 8 0 0 0 3 .52c1.92 0 3.8-.74 4.37-1.57.35-.48.14-.84-.06-1.03-.44-.36-.94-.44-1.86-.56s-1.25-.17-1.49-.33c-.1-.1-.39-.3-.15-.62.31-.46 1.47-.9 2.78-.9 1.27 0 1.75.24 2.14.47Zm0 0"/><path id="j" d="M10.34-2.27H7.25l-.31.46h1.95L8-.55q-.98.12-2.06.14c-2.14 0-2.6-1.15-1.88-2.18.7-1 2.77-2.2 5.03-2.2a4.3 4.3 0 0 1 2.33.5l.67-.62a9 9 0 0 0-2.71-.36c-2.85 0-5.66 1.35-6.6 2.68C1.84-1.25 2.8.06 5.68.06c1.04 0 2.18-.1 3.29-.36Zm0 0"/><path id="k" d="m7.25-2.73 5.22-2.46h-1.4l-4.1 1.97-1.44-1.97h-1.5L6-2.73.2 0h1.38L6.3-2.28 7.95 0h1.49Zm0 0"/><path id="l" d="M7.97-.25q2.85-.92 3.8-2.33c1.1-1.58-.22-2.76-2.64-2.76-2.49 0-5.43 1.2-6.52 2.76C1.5-1.02 2.8.16 5.28.16c.63 0 1.27-.1 1.49-.13l.6.9H8.9ZM6.5-.37c-.33.04-.47.06-.9.06-1.72 0-2.7-.88-1.74-2.27 1-1.42 3.23-2.3 4.92-2.3 1.75 0 2.7.91 1.72 2.3a5.6 5.6 0 0 1-2.83 1.9l-.62-.77h-1.3Zm0 0"/><path id="m" d="M6.75-5.19h-1.7L1.42 0h1.14l3.22-4.6h.02c-.14.5.06 3.7.1 4.44h1.08c.94-.64 5.7-3.9 6.33-4.45h.02L10.1 0h1.16l3.62-5.19h-1.7l-3.31 2.3A66 66 0 0 0 6.83-.7H6.8q.08-.23.08-.7c0-.41.02-.43-.01-.73Zm0 0"/><path id="n" d="M17.13-5.19h-1.1l-3.08 2.46-1.36 1.1c-.43.36-.96.79-1.21 1.07h-.02a6 6 0 0 0 .33-1.4l.48-3.23H9.91L7-2.87c-.23.18-2.27 1.8-2.7 2.3h-.02c.13-.29.27-1.02.3-1.15l.19-1.19.34-2.28H3.83L3.14 0h1.23l3.2-2.55c.82-.65 2.12-1.68 2.48-2.08h.01c-.01.02-.15.4-.36 1.68L9.27 0h1.3Zm0 0"/><path id="o" d="m11.53-4.9.2-.29H4.64l-.31.46H9.8L1.03-.31.81 0H8.2l.34-.48h-1.4l-3.9.01h-.46Zm0 0"/><path id="p" d="M9.28-5.19H8.03L5.2-1.14c-.3.44-1 .83-2.3.83-.84 0-1.37-.19-1.57-.4l-.61.55Q1.8.17 3 .16c1.56 0 2.88-.47 3.44-1.27Zm0 0"/><path id="q" d="M13.23-5.19h-1.3l-3.9 1.94q-.68.32-1.28.64c-.02-.03-.08-.19-.37-.67l-1.22-1.9H3.67l1.99 3.1L4.2 0h1.25l1.46-2.08Zm0 0"/><path id="r" d="M11.77-2.58c1.1-1.58-.22-2.76-2.64-2.76-2.49 0-5.43 1.2-6.52 2.76C1.5-1 2.86.16 5.27.16c2.46 0 5.4-1.18 6.5-2.74M5.6-.3c-1.74 0-2.64-.94-1.64-2.38.97-1.37 3.16-2.18 4.81-2.18 1.7 0 2.72.82 1.77 2.18C9.53-1.22 7.28-.3 5.6-.3m0 0"/><path id="s" d="M12.23-5.19H11.1L8.7-1.73c-.71 1-2.3 1.46-3.5 1.46-1.17 0-2.08-.45-1.36-1.46L6.25-5.2H4.97l-2.4 3.46C1.8-.64 2.94.16 4.88.16c1.95 0 4.17-.82 4.94-1.9Zm0 0"/><path id="u" d="M6.52-2.16c2.06 0 3.98-.73 4.53-1.51.56-.8-.4-1.52-2.43-1.52H4.98L1.36 0h1.28l1.52-2.16Zm1.5-2.6c1.75 0 2.25.51 1.86 1.07-.41.6-1.68 1.1-3.38 1.1H4.42l1.52-2.18Zm0 0"/><path id="v" d="M12.52-5.19h-1.29L9.66-2.92H4.67L6.25-5.2H4.97L1.34 0h1.29l1.73-2.47h4.98L7.61 0h1.28Zm0 0"/><path id="w" d="M9.1-5.19H7.8L.4 0h1.12l2.14-1.52h4.22L7.92 0h1.33Zm-1.15.55-.1 2.7H4.29Zm0 0"/><path id="x" d="m9.2-2.47.3-.44H4.66l1.26-1.8h5.27l.33-.46H4.97L1.34 0h6.74l.36-.52H6.48l-.54.02H2.97l1.39-1.97Zm0 0"/><path id="y" d="M6.25-5.19H4.97L1.34 0h1.29Zm0 0"/><path id="z" d="m7.53-3.12 5.35-2.07h-1.41L4.3-2.42 6.23-5.2H4.98L1.36 0H2.6l1.2-1.69L6.44-2.7 8.06 0h1.38Zm0 0"/><path id="A" d="m8.72-2.36.31-.45H4.6l1.33-1.9h5.05l.33-.46H4.97L1.34 0h1.29l1.65-2.36Zm0 0"/><path id="t" d="M-.45 1.31c1.8-.1 3.33-.73 3.86-1.48.34-.5.01-.8-.83-.8-.61 0-1.17.2-1.4.52q-.14.22.04.4h.94L2.1.02C1.75.53.94.86-.2.97Zm0 0"/><path id="B" d="M3.36-3.12h.28l1.7-1.68q.07-.07.11-.14c.2-.26.03-.39-.42-.39s-.8.14-.97.4l-.08.13Zm0 0"/><path id="C" d="M5.13-3.64c-.65 0-1.33.25-1.57.58-.23.34.11.6.75.6s1.35-.26 1.58-.6c.24-.33-.12-.58-.76-.58M.08 1.3c1.77-.1 3.3-.73 3.83-1.48.35-.5.02-.8-.81-.8-.61 0-1.16.2-1.38.52q-.14.22.04.4h.89L2.62 0Q2.07.8.35.97Zm0 0"/><path id="D" d="M2.5-1.5h.64c.88 0 .86.38.67.64-.25.36-.84.64-1.51.64-.52 0-1.17-.12-1.35-.47l-.3.28c.2.33.8.49 1.46.49 1.06 0 2.14-.44 2.48-.94.27-.36-.03-.67-.65-.78.65-.16 1.26-.44 1.5-.78.28-.4-.2-.7-1.08-.7-.81 0-1.6.25-2.05.51l.14.25c.4-.27 1.07-.47 1.7-.47.5 0 .72.17.55.4-.17.27-.67.54-1.3.62-.02 0-.62.01-.7.03Zm0 0"/><path id="P" d="M7.72-4.33h-1.1L.34 0h.93l1.86-1.27h3.62L6.8 0h1.14Zm-1 2.7h-3.1l1.6-1.12c.53-.37 1.28-.9 1.53-1.12h.02c-.04.07-.07.23-.07.65Zm0 0"/><path id="Q" d="M4.97-4.33h-.92L1.02 0h.92Zm0 0"/><path id="R" d="M3.86-2.4h1.77l.25-.37H4.1l.56-.8H3.8l-.56.8H2.17l-.25.36h1.05L1.8-.73c-.25.36-.4.8.47.8s1.62-.16 2-.24l.04-.36q-.64.19-1.26.2c-.46 0-.52-.19-.28-.51Zm0 0"/><path id="S" d="M8.7-4.16a6 6 0 0 0-2.06-.3c-1.73 0-3.23.6-3.67 1.23-.19.26-.2.53.1.8.34.27.84.34 1.5.43.98.13 1.09.14 1.32.3.17.1.31.3.13.6-.3.4-1.27.8-2.41.8A5 5 0 0 1 1.3-.8l-.55.5c.86.35 1.8.44 2.58.44 1.64 0 3.23-.64 3.7-1.31.3-.4.11-.7-.06-.86-.36-.31-.72-.38-1.78-.52-.66-.08-.85-.1-1.11-.26-.05-.05-.27-.22-.08-.5.25-.36 1.19-.74 2.33-.74 1.05 0 1.5.2 1.84.4Zm0 0"/><path id="T" d="M6.72-1.86c.28-.4.5-.98-1.02-.98-.78 0-1.51.2-2.1.45l1.37-1.94h-.92L1.02 0h.96l1.08-1.53c.28-.4.96-.92 1.9-.92 1.2 0 .9.43.76.64L4.45 0h.97Zm0 0"/><path id="U" d="M5-4.23H3.9l-.4.54h1.1ZM3.88-2.77h-.93L1.02 0h.92Zm0 0"/><path id="V" d="M3.88-2.4h1.37l.25-.37H4.1l.5-.75c.34-.45 1.2-.5 1.53-.5q.38-.01.93.11l.3-.42c-.14-.01-.5-.06-.95-.06-1.18 0-2.4.44-2.83 1.06l-.4.56h-.9l-.25.36h.9L1.26 0h.94Zm0 0"/><path id="W" d="M7.73-.7c-.89.23-1.4.36-2.64.36-1.8 0-2.26-.93-1.64-1.83C4.05-3.02 5.77-4 7.67-4c.9 0 1.38.1 1.9.33l.55-.52a10 10 0 0 0-2.15-.2c-2.3 0-4.75.97-5.67 2.28-.7.98-.05 2.17 2.54 2.17 1.16 0 1.7-.1 2.7-.34Zm0 0"/><path id="X" d="M2.88-1.33c.43-.62 1.67-1.08 2.89-1.1l.3-.41a6 6 0 0 0-2.62.6l.4-.57h-.87L1.02 0h.93Zm0 0"/><path id="Y" d="M5.64-1.8c1.53 0 3.27-.57 3.75-1.26.47-.67-.34-1.27-2.06-1.27h-3.1L1.2 0h1.1l1.25-1.8ZM6.8-3.98c1.37 0 1.95.39 1.58.92-.35.48-1.41.9-2.85.9H3.78l1.27-1.82Zm0 0"/><path id="Z" d="M6.1-2.44c.26 0 .63-.03.95-.03l.7.03.14-.4c-.87 0-1.67.12-2.1.2q-.3-.18-1.06-.2c-1.06 0-2.3.45-2.68 1.01q-.24.38-.02.63c-.53.25-.72.5-.73.53-.11.15-.13.34-.02.47C.5 0 .14.28.03.44c-.33.47.66.84 2.17.84 1.53 0 3.02-.36 3.35-.84.62-.88-1.46-.88-1.94-.88H2.5c-.15 0-.71 0-.5-.33a1 1 0 0 1 .3-.21c.19.09.55.18 1 .18 1.13 0 2.33-.47 2.72-1.03.2-.3.08-.51 0-.6ZM3.55-1.16c-.45 0-1.01-.14-.64-.67.36-.51 1.11-.65 1.56-.65.54 0 1.02.17.68.65-.36.5-1.07.67-1.6.67M3.3.02c.28 0 1.68 0 1.39.43C4.5.72 3.5.92 2.47.92 1.47.92.7.73.9.44.92.42 1.2.02 2.17.02Zm0 0"/><path id="aa" d="M10.42-4.33h-.98L7.42-1.45C6.84-.62 5.53-.22 4.48-.22 3.45-.22 2.7-.6 3.3-1.45l2-2.88H4.2L2.18-1.45c-.64.9.34 1.6 2.03 1.6 1.67 0 3.55-.7 4.19-1.6Zm0 0"/><path id="ab" d="M2.2-.28c.25.17.67.34 1.42.34 1.2 0 2.74-.6 3.33-1.45.53-.75.22-1.45-.97-1.45-.75 0-1.56.14-2.3.37l.21-.3h-.94L.17 1.2h.99Zm1.25-1.8a4 4 0 0 1 1.57-.36c.95 0 1.36.47.95 1.05C5.53-.75 4.34-.31 3.4-.31c-.49 0-.74-.13-.88-.3-.05-.1-.05-.1.05-.22Zm0 0"/><path id="ac" d="M4.23-4.33 1.2 0h3.27c2.12 0 4.48-.95 5.3-2.12.84-1.2-.14-2.2-2.29-2.2ZM2.5-.34l2.55-3.64h1.9c1.75 0 2.5.76 1.74 1.86C7.95-1.06 6.16-.34 4.4-.34Zm0 0"/><path id="ad" d="M6.72-1.86c.28-.4.5-.98-1.02-.98-1.12 0-2.03.43-2.14.48l.31-.45h-.89L1.02 0h.96l1.08-1.53c.28-.4.96-.92 1.9-.92 1.2 0 .9.43.76.64L4.45 0h.97Zm0 0"/><path id="ae" d="M10.67-4.33h-1.1l-1.34 1.9H3.98l1.33-1.9h-1.1L1.16 0h1.11l1.44-2.06h4.25L6.53 0h1.11Zm0 0"/><path id="af" d="M6.81-1.37c.58-.83-.2-1.5-1.68-1.5-1.54 0-3.22.68-3.79 1.5C.75-.56 1.6.05 3.04.05c1.5 0 3.2-.62 3.77-1.43M3.33-.33c-.86 0-1.52-.34-.99-1.1.54-.76 1.7-1.07 2.5-1.07.88 0 1.55.33 1.04 1.06C5.36-.7 4.25-.33 3.33-.33m0 0"/><path id="ag" d="M10.17-1.86c.3-.42.5-.98-1.01-.98a5 5 0 0 0-2.22.51c.01-.47-.83-.51-1.24-.51a5 5 0 0 0-2.14.48l.31-.45h-.89L1.02 0h.96l1.08-1.53c.28-.42.97-.92 1.9-.92 1.15 0 .93.4.76.64L4.45 0h.97L6.5-1.53c.28-.42.98-.92 1.9-.92 1.16 0 .94.4.77.64L7.91 0h.96Zm0 0"/><path id="ah" d="M6.1-1.36c.17-.22.48-.69.24-1.06-.23-.4-.93-.46-1.39-.46-1.37 0-2.97.66-3.53 1.47C.86-.59 1.58.06 3.08.06c.78 0 1.6-.14 2.2-.31l.2-.4c-1 .3-1.84.34-2.12.34-1 0-1.48-.44-1.1-1.05ZM2.57-1.7a3.4 3.4 0 0 1 2.13-.8c.65 0 1.18.22.95.8Zm0 0"/><path id="ai" d="m7.83-2.05.26-.39H4L5.01-3.9h4.43l.28-.4H4.2L1.17 0h5.74l.3-.44H2.6l1.13-1.6Zm0 0"/><path id="aj" d="M8.44-4.33H7.5L6.22-2.5a3.4 3.4 0 0 0-1.58-.34c-1.23 0-2.66.65-3.22 1.45C.84-.56 1.36.06 2.55.06c.4 0 1.17-.04 2.12-.39L4.44 0h.97ZM5.04-.86c-.06.08-.15.19-.68.38Q3.8-.3 3.3-.31c-.76 0-1.47-.3-.92-1.06.58-.83 1.81-1.08 2.55-1.08.56 0 .84.14.97.34Zm0 0"/><path id="al" d="M6.22-1.8c.45-.64-.14-1.07-1.3-1.07-.8 0-1.42.09-2.14.26l-.22.42a7 7 0 0 1 2.1-.31c.59 0 .92.25.59.7l-.17.27c-1.9.01-3.66.28-4.05.83-.17.26-.19.76.9.76.16 0 1.34 0 2.26-.28L4.03 0h.94Zm-1.64.97c-.1.13-.2.28-.69.4-.45.12-.94.12-1.06.12-.61 0-1.08-.14-.9-.4.32-.45 2.38-.5 2.91-.5Zm0 0"/><path id="am" d="M6.14-2.67a6 6 0 0 0-1.64-.2c-.31 0-2.08 0-2.66.8-.22.32 0 .52.24.63.3.14.56.17 1.19.24.42.04 1.07.12.86.45-.3.42-1.29.42-1.47.42-1 0-1.55-.23-1.72-.3L.48-.2c.35.1.91.26 1.91.26.23 0 .9 0 1.6-.18.48-.16.87-.41 1.06-.68.23-.34-.08-.56-.08-.57-.34-.22-.66-.25-1.24-.32-.64-.06-1.17-.12-.95-.44.27-.37 1.16-.37 1.33-.37.39 0 1.03.02 1.6.23Zm0 0"/><path id="an" d="M14.6-4.33h-.9l-2.5 1.96c-.7.56-2.03 1.6-2.31 1.92h-.02s.16-.33.33-1.75l.26-2.13h-1l-2.5 1.96c-.6.46-1.98 1.56-2.28 1.9h-.01c.1-.23.2-.86.26-1.06l.13-1.03.23-1.77H3.2L2.7 0h1.02l2.75-2.16c.6-.46 1.76-1.39 2.08-1.71h.01c-.1.18-.2.78-.28 1.37L7.95 0h1.1Zm0 0"/><path id="aq" d="M1.83-6.92h-.9V0h4.04v-.66q-1.32.03-2.66.02h-.48Zm0 0"/><path id="ar" d="M3.98-2.87c0-1.02-.73-1.72-1.65-1.72-.64 0-1.1.15-1.56.42l.06.65A2.5 2.5 0 0 1 2.33-4c.47 0 .87.4.87 1.13v.43C1.7-2.42.44-2 .44-1.12.44-.7.7.1 1.58.1a3 3 0 0 0 1.65-.47V0h.75ZM3.2-1.31c0 .19 0 .44-.34.62-.28.17-.67.19-.78.19-.47 0-.92-.23-.92-.64 0-.7 1.6-.77 2.04-.8Zm0 0"/><path id="as" d="M4.45-4.42H3.7C2.4-1.25 2.37-.8 2.37-.56h-.01c-.06-.67-.86-2.53-.9-2.63L.93-4.42H.14L2.08 0l-.36.9c-.27.57-.44.57-.58.57-.16 0-.47-.03-.76-.16l.04.66c.22.05.5.08.72.08.36 0 .72-.13 1.13-1.14Zm0 0"/><path id="at" d="M4.13-2.19a3.3 3.3 0 0 0-.4-1.68 1.6 1.6 0 0 0-1.37-.72C1.25-4.6.34-3.53.34-2.25.34-.94 1.31.11 2.5.11c.63 0 1.2-.23 1.6-.52l-.07-.65c-.62.53-1.3.56-1.51.56-.8 0-1.44-.7-1.47-1.69Zm-3.04-.54c.16-.75.7-1.25 1.27-1.25.52 0 1.06.32 1.2 1.25Zm0 0"/><path id="au" d="M1.56-2.14c0-.98.72-1.7 1.7-1.73v-.66c-.88 0-1.43.5-1.74.95v-.9h-.7V0h.74Zm0 0"/><path id="av" d="M4.56-3.25a5 5 0 0 0-.47-2.52c-.4-.75-1.09-1-1.59-1-.6 0-1.3.29-1.7 1.16a6 6 0 0 0-.38 2.36c0 .78.03 1.52.33 2.25a1.84 1.84 0 0 0 3.4.13c.3-.66.41-1.32.41-2.38M2.5-.39c-.53 0-.94-.38-1.14-1.1-.16-.56-.16-1.1-.16-1.88 0-.63 0-1.22.16-1.77.06-.19.31-1.02 1.12-1.02.79 0 1.04.77 1.11.94.2.56.2 1.24.2 1.84 0 .66 0 1.3-.2 1.93C3.34-.55 2.81-.4 2.5-.4m0 0"/><path id="aw" d="M2.98-6.77h-.2c-.6.61-1.42.64-1.89.68v.57c.33-.01.8-.03 1.3-.25v5.2H.95V0h3.28v-.58H2.98Zm0 0"/><path id="ax" d="M1.73-1.87.5-.64V0h3.97v-.7H1.22L2.6-2.02c.19-.17.69-.59.87-.78.46-.43.99-.97.99-1.8 0-1.17-.8-2.17-2.11-2.17-1.14 0-1.7.79-1.94 1.64.11.18.17.24.19.27l.22.28c.2-.76.48-1.54 1.39-1.54.94 0 1.44.75 1.44 1.53 0 .84-.57 1.4-1.16 2.01Zm0 0"/><path id="ay" d="M.92-5.12c.28-.7.94-1.07 1.55-1.07.51 0 1 .32 1 .94 0 .6-.4 1.2-1.02 1.34-.06.02-.08.02-.78.07v.6h.7c1.08 0 1.3.94 1.3 1.44 0 .77-.47 1.4-1.23 1.4a2.3 2.3 0 0 1-1.9-1.02l-.12.6A2.5 2.5 0 0 0 2.47.23c1.2 0 2.1-.97 2.1-2.02 0-.9-.71-1.51-1.38-1.73.75-.4 1.1-1.08 1.1-1.72 0-.84-.84-1.52-1.82-1.52a2.2 2.2 0 0 0-1.9 1.11Zm0 0"/><path id="ak" fill="none" stroke="#000" d="M-2.31 2.75C-1.9 1.1-.95.32 0 0c-.95-.32-1.89-1.1-2.31-2.75"/><clipPath id="E"><path d="M18 56h449.71v82.19H18Zm0 0"/></clipPath><clipPath id="F"><path d="M52 56h112v82.19H52Zm0 0"/></clipPath><clipPath id="G"><path d="M87 56h113v82.19H87Zm0 0"/></clipPath><clipPath id="H"><path d="M123 56h112v82.19H123Zm0 0"/></clipPath><clipPath id="I"><path d="M158 56h113v82.19H158Zm0 0"/></clipPath><clipPath id="J"><path d="M247 56h112v82.19H247Zm0 0"/></clipPath><clipPath id="K"><path d="M282 56h113v82.19H282Zm0 0"/></clipPath><clipPath id="L"><path d="M317 56h113v82.19H317Zm0 0"/></clipPath><clipPath id="M"><path d="M353 56h113v82.19H353Zm0 0"/></clipPath><clipPath id="N"><path d="M17 35h450.71v89H17Zm0 0"/></clipPath><clipPath id="O"><path d="M17 14h450.71v89H17Zm0 0"/></clipPath><clipPath id="ao"><path d="M16 0h451.71v82H16Zm0 0"/></clipPath><clipPath id="ap"><path d="M400 26h67.71v112.19H400Zm0 0"/></clipPath></defs><path fill="#d4d4c8" d="m89.06 77.52-32.85 46.93c-1.2 1.71.61 3.1 4.05 3.1h359.6c3.44 0 7.2-1.39 8.4-3.1l32.85-46.93c1.2-1.72-.6-3.11-4.04-3.11H97.47c-3.44 0-7.2 1.4-8.4 3.11m0 0"/><path fill="#ececd7" d="m89.06 77.52-32.85 46.93c-1.2 1.71.61 3.1 4.05 3.1h164.72c3.44 0 7.2-1.39 8.4-3.1l32.85-46.93c1.2-1.72-.6-3.11-4.05-3.11H97.46c-3.43 0-7.2 1.4-8.4 3.11m182.18-3.11-37.2 53.15h12.05l37.2-53.15Zm0 0"/><use x="93.81" y="85.92" href="#a"/><use x="129.24" y="85.92" href="#b"/><use x="164.68" y="85.92" href="#c"/><use x="200.11" y="85.92" href="#d"/><use x="235.54" y="85.92" href="#e"/><use x="81.41" y="103.64" href="#f"/><use x="116.84" y="103.64" href="#g"/><use x="152.27" y="103.64" href="#h"/><use x="187.71" y="103.64" href="#i"/><use x="223.14" y="103.64" href="#j"/><use x="69.01" y="121.36" href="#k"/><use x="104.44" y="121.36" href="#l"/><use x="139.87" y="121.36" href="#m"/><use x="175.31" y="121.36" href="#n"/><use x="210.74" y="121.36" href="#o"/><path fill="#ececd7" d="m283.95 77.52-32.85 46.93c-1.2 1.71.6 3.1 4.05 3.1h164.71c3.44 0 7.2-1.39 8.4-3.1l32.85-46.93c1.2-1.72-.6-3.11-4.04-3.11H292.35c-3.44 0-7.2 1.4-8.4 3.11m0 0"/><use x="292.72" y="85.4" href="#p"/><use x="326.75" y="85.4" href="#q"/><use x="361.62" y="85.4" href="#r"/><use x="397.47" y="85.4" href="#s"/><use x="435.86" y="85.2" href="#t"/><use x="279.09" y="103.11" href="#u"/><use x="314.05" y="103.11" href="#v"/><use x="349.78" y="103.11" href="#w"/><use x="385.69" y="103.11" href="#x"/><use x="423.49" y="103.11" href="#y"/><use x="266.31" y="120.83" href="#z"/><use x="302.62" y="120.83" href="#A"/><use x="340.84" y="120.92" href="#B"/><use x="375.24" y="120.63" href="#C"/><path fill="#00d3ff" d="m391.27 126.68 11.78-16.84h33.67l-11.78 16.84Zm0 0"/><path d="m410.85 124.02 12.5-2.66-8.78-2.66-12.49 2.66Zm0 0"/><path fill="#ececd7" stroke="#000" stroke-miterlimit="10" stroke-width=".4" d="m269.3-60.95 8.5 4.25-8.5 4.26-8.5-4.26Zm0 0" transform="matrix(1.25 0 .437 -.625 102.76 83.27)"/><use x="411.37" y="119.92" href="#D"/><g clip-path="url(#E)"><path fill="none" stroke="#d4d4c8" stroke-miterlimit="10" stroke-width="1.99" d="M-14.17 9.2v-75.08a5 5 0 0 1 4.98-4.98h287.68a5 5 0 0 1 4.98 4.98V9.19a5 5 0 0 1-4.98 4.98H-9.2a5 5 0 0 1-4.98-4.98Zm0 0" transform="matrix(1.25 0 .437 -.625 102.76 83.27)"/></g><path fill="none" stroke="#d4d4c8" stroke-miterlimit="10" stroke-width="1.99" d="M-14.17-14.17h141.73M-14.17-42.52h141.73" transform="matrix(1.25 0 .437 -.625 102.76 83.27)"/><g clip-path="url(#F)"><path fill="none" stroke="#d4d4c8" stroke-miterlimit="10" stroke-width="1.99" d="M14.17 14.17v-85.03" transform="matrix(1.25 0 .437 -.625 102.76 83.27)"/></g><g clip-path="url(#G)"><path fill="none" stroke="#d4d4c8" stroke-miterlimit="10" stroke-width="1.99" d="M42.52 14.17v-85.03" transform="matrix(1.25 0 .437 -.625 102.76 83.27)"/></g><g clip-path="url(#H)"><path fill="none" stroke="#d4d4c8" stroke-miterlimit="10" stroke-width="1.99" d="M70.87 14.17v-85.03" transform="matrix(1.25 0 .437 -.625 102.76 83.27)"/></g><g clip-path="url(#I)"><path fill="none" stroke="#d4d4c8" stroke-miterlimit="10" stroke-width="1.99" d="M99.21 14.17v-85.03" transform="matrix(1.25 0 .437 -.625 102.76 83.27)"/></g><path fill="none" stroke="#d4d4c8" stroke-miterlimit="10" stroke-width="1.99" d="M141.73-14.17h141.74M141.73-42.52h141.74" transform="matrix(1.25 0 .437 -.625 102.76 83.27)"/><g clip-path="url(#J)"><path fill="none" stroke="#d4d4c8" stroke-miterlimit="10" stroke-width="1.99" d="M170.08 14.17v-85.03" transform="matrix(1.25 0 .437 -.625 102.76 83.27)"/></g><g clip-path="url(#K)"><path fill="none" stroke="#d4d4c8" stroke-miterlimit="10" stroke-width="1.99" d="M198.43 14.17v-85.03" transform="matrix(1.25 0 .437 -.625 102.76 83.27)"/></g><g clip-path="url(#L)"><path fill="none" stroke="#d4d4c8" stroke-miterlimit="10" stroke-width="1.99" d="M226.78 14.17v-85.03" transform="matrix(1.25 0 .437 -.625 102.76 83.27)"/></g><g clip-path="url(#M)"><path fill="none" stroke="#d4d4c8" stroke-miterlimit="10" stroke-width="1.99" d="M255.12 14.17v-85.03" transform="matrix(1.25 0 .437 -.625 102.76 83.27)"/></g><path fill="#d4d4c8" fill-opacity=".4" d="M88.35 56.26 55.51 103.2c-1.2 1.72.6 3.11 4.04 3.11h359.6c3.44 0 7.2-1.4 8.4-3.11l32.85-46.93c1.2-1.72-.6-3.11-4.04-3.11H96.76c-3.44 0-7.2 1.4-8.4 3.11m0 0"/><path fill="#ececd7" fill-opacity=".4" d="M88.35 56.26 55.51 103.2c-1.2 1.72.6 3.11 4.04 3.11h164.72c3.44 0 7.2-1.4 8.4-3.11l32.85-46.93c1.2-1.72-.61-3.11-4.05-3.11H96.76c-3.44 0-7.2 1.4-8.4 3.11m182.17-3.12-37.2 53.15h12.04l37.2-53.15Zm12.7 3.11L250.4 103.2c-1.2 1.72.61 3.11 4.05 3.11h164.71c3.44 0 7.2-1.4 8.4-3.11l32.85-46.93c1.2-1.72-.6-3.11-4.04-3.11H291.64c-3.44 0-7.2 1.4-8.4 3.11m0 0"/><g clip-path="url(#N)"><path fill="none" stroke="#d4d4c8" stroke-miterlimit="10" stroke-opacity=".4" stroke-width="1.99" d="M-26.65 43.21v-75.08a5 5 0 0 1 4.99-4.98H266a5 5 0 0 1 4.99 4.98V43.2a5 5 0 0 1-4.99 4.98H-21.66a5 5 0 0 1-4.99-4.98Zm0 0" transform="matrix(1.25 0 .437 -.625 102.76 83.27)"/></g><path fill="none" stroke="#d4d4c8" stroke-miterlimit="10" stroke-opacity=".4" stroke-width="1.99" d="M-26.65 19.84H115.1M-26.65-8.5H115.1M1.7 48.2v-85.05M30.05 48.2v-85.05M58.4 48.2v-85.05M86.74 48.2v-85.05m42.52 56.69h141.73M129.26-8.5H271M157.6 48.2v-85.05m28.35 85.05v-85.05M214.3 48.2v-85.05m28.35 85.05v-85.05" transform="matrix(1.25 0 .437 -.625 102.76 83.27)"/><path fill="#d4d4c8" fill-opacity=".4" d="M87.64 35 54.8 81.93c-1.2 1.71.6 3.1 4.04 3.1h359.6c3.44 0 7.2-1.39 8.4-3.1L459.7 35c1.2-1.71-.61-3.1-4.06-3.1H96.04c-3.43 0-7.2 1.39-8.4 3.1m0 0"/><path fill="#ececd7" fill-opacity=".4" d="M87.64 35 54.8 81.93c-1.2 1.71.6 3.1 4.04 3.1h164.72c3.44 0 7.2-1.39 8.4-3.1L264.81 35c1.2-1.71-.61-3.1-4.05-3.1H96.05c-3.44 0-7.2 1.39-8.4 3.1m182.17-3.1-37.2 53.14h12.05l37.2-53.15Zm12.71 3.1-32.85 46.93c-1.2 1.71.6 3.1 4.05 3.1h164.71c3.44 0 7.2-1.39 8.4-3.1L459.7 35c1.2-1.71-.61-3.1-4.06-3.1h-164.7c-3.45 0-7.21 1.39-8.41 3.1m0 0"/><g clip-path="url(#O)"><path fill="none" stroke="#d4d4c8" stroke-miterlimit="10" stroke-opacity=".4" stroke-width="1.99" d="M-39.12 77.22V2.15a5 5 0 0 1 4.98-4.98h287.68a5 5 0 0 1 4.98 4.98v75.07a5 5 0 0 1-4.98 4.98H-34.14a5 5 0 0 1-4.98-4.98Zm0 0" transform="matrix(1.25 0 .437 -.625 102.76 83.27)"/></g><path fill="none" stroke="#d4d4c8" stroke-miterlimit="10" stroke-opacity=".4" stroke-width="1.99" d="M-39.12 53.86H102.6M-39.12 25.51h141.74M-10.77 82.2V-2.83M17.58 82.2V-2.83M45.92 82.2V-2.83M74.27 82.2V-2.83m42.52 56.69h141.73M116.79 25.51h141.73M145.14 82.2V-2.83m28.34 85.03V-2.83m28.35 85.03V-2.83m28.35 85.03V-2.83" transform="matrix(1.25 0 .437 -.625 102.76 83.27)"/><path fill="#d4d4c8" d="M86.93 13.74 54.1 60.67c-1.2 1.72.6 3.11 4.05 3.11h359.6c3.43 0 7.2-1.4 8.4-3.11l32.84-46.93c1.2-1.72-.6-3.11-4.04-3.11H95.34c-3.44 0-7.2 1.4-8.4 3.11m0 0"/><path fill="#ececd7" d="M86.93 13.74 54.1 60.67c-1.2 1.72.6 3.11 4.05 3.11h164.7c3.45 0 7.21-1.4 8.41-3.11l32.85-46.93c1.2-1.72-.6-3.11-4.05-3.11H95.34c-3.44 0-7.2 1.4-8.4 3.11m182.17-3.11-37.2 53.15h12.05l37.2-53.15Zm0 0"/><use x="79.25" y="38.76" href="#P"/><use x="87.55" y="38.76" href="#Q"/><use x="90.53" y="38.76" href="#R"/><path d="m123.83 36.96-1.4-1.08 2.91-1.08 1.41 1.08Zm-.65.24-1.4-1.08-2.93 1.08 1.4 1.09Zm.96 0 1.4 1.09 2.93-1.09-1.4-1.08Zm-.64.25 1.4 1.08-2.92 1.08-1.41-1.08Zm0 0"/><use x="145.69" y="38.76" href="#S"/><use x="152.61" y="38.76" href="#T"/><use x="159.04" y="38.76" href="#U"/><use x="162.02" y="38.76" href="#V"/><use x="165.82" y="38.76" href="#R"/><use x="183.59" y="38.76" href="#W"/><use x="191.55" y="38.76" href="#R"/><use x="196.05" y="38.76" href="#X"/><use x="200.3" y="38.76" href="#Q"/><path fill="#ececd7" d="m281.82 13.74-32.85 46.93c-1.2 1.72.61 3.11 4.05 3.11h164.71c3.44 0 7.2-1.4 8.41-3.11l32.84-46.93c1.2-1.72-.6-3.11-4.04-3.11H290.22c-3.43 0-7.2 1.4-8.4 3.11m0 0"/><use x="279.83" y="21.04" href="#Y"/><use x="287.79" y="21.04" href="#Z"/><use x="294.01" y="21.04" href="#aa"/><use x="302.57" y="21.04" href="#ab"/><use x="267.21" y="38.76" href="#Y"/><use x="275.17" y="38.76" href="#Z"/><use x="281.4" y="38.76" href="#ac"/><use x="290.39" y="38.76" href="#ad"/><use x="314.62" y="21.04" href="#ae"/><use x="323.44" y="21.04" href="#af"/><use x="329.66" y="21.04" href="#ag"/><use x="339.56" y="21.04" href="#ah"/><path fill="none" stroke="#000" stroke-miterlimit="10" stroke-width=".6" d="M175.18 98.65v9.6" transform="matrix(1.25 0 .437 -.625 102.76 83.27)"/><path fill="none" stroke="#000" stroke-linecap="round" stroke-linejoin="round" stroke-miterlimit="10" stroke-width=".6" d="M-2.31 2.75C-1.9 1.1-.95.32 0 0c-.95-.32-1.89-1.1-2.3-2.75" transform="matrix(.437 -.625 -1.25 0 369.22 15.42)"/><use x="390.57" y="21.04" href="#ai"/><use x="398" y="21.04" href="#ad"/><use x="404.44" y="21.04" href="#aj"/><path fill="none" stroke="#000" stroke-miterlimit="10" stroke-width=".6" d="M150.24 73.7h-9.6" transform="matrix(1.25 0 .437 -.625 102.76 83.27)"/><path fill="none" stroke="#000" stroke-linecap="round" stroke-linejoin="round" stroke-miterlimit="10" stroke-width=".6" d="M-2.3 2.75C-1.9 1.1-.96.32 0 0c-.95-.32-1.89-1.1-2.3-2.75" transform="matrix(-1.25 0 -.437 .625 310.41 37.2)"/><path fill="none" stroke="#000" stroke-miterlimit="10" stroke-width=".6" d="M175.18 77.1v-9.6" transform="matrix(1.25 0 .437 -.625 102.76 83.27)"/><use stroke-linecap="round" stroke-linejoin="round" stroke-miterlimit="10" stroke-width=".6" href="#ak" transform="matrix(-.437 .625 1.25 0 351.13 41.27)"/><path fill="none" stroke="#000" stroke-miterlimit="10" stroke-width=".6" d="M200.13 73.7h9.6" transform="matrix(1.25 0 .437 -.625 102.76 83.27)"/><use stroke-linecap="round" stroke-linejoin="round" stroke-miterlimit="10" stroke-width=".6" href="#ak" transform="matrix(1.25 0 .437 -.625 397.54 37.2)"/><use x="424.17" y="17.91" href="#W"/><use x="432.13" y="17.91" href="#al"/><use x="438.11" y="17.91" href="#ab"/><use x="438.11" y="17.91" href="#ab"/><use x="444.55" y="17.91" href="#am"/><use x="418.94" y="25.39" href="#an"/><use x="430.35" y="25.39" href="#af"/><use x="436.23" y="25.39" href="#X"/><use x="440.49" y="25.39" href="#aj"/><use x="407.22" y="38.76" href="#ac"/><use x="416.21" y="38.76" href="#ah"/><use x="421.74" y="38.76" href="#Q"/><use x="424.72" y="38.76" href="#ah"/><use x="430.25" y="38.76" href="#R"/><use x="434.75" y="38.76" href="#ah"/><g clip-path="url(#ao)"><path fill="none" stroke="#d4d4c8" stroke-miterlimit="10" stroke-width="1.99" d="M-51.6 111.24V36.16a5 5 0 0 1 5-4.98h287.67a5 5 0 0 1 4.98 4.98v75.08a5 5 0 0 1-4.98 4.98H-46.61a5 5 0 0 1-4.98-4.98Zm0 0" transform="matrix(1.25 0 .437 -.625 102.76 83.27)"/></g><path fill="none" stroke="#d4d4c8" stroke-miterlimit="10" stroke-width="1.99" d="M-51.59 87.87H90.14M-51.6 59.53H90.15m-113.39 56.69V31.18M5.1 116.22V31.18m28.35 85.04V31.18m28.35 85.04V31.18m42.52 56.69h141.73M104.32 59.53h141.73m-113.39 56.69V31.18m28.35 85.04V31.18m28.35 85.04V31.18m28.34 85.04V31.18" transform="matrix(1.25 0 .437 -.625 102.76 83.27)"/><g clip-path="url(#ap)"><path fill="none" stroke="#00d3ff" stroke-miterlimit="10" stroke-width="1.99" d="M428.75 118.7h16.27a5 5 0 0 0 4.98-4.98V59.9a5 5 0 0 0-4.98-4.98h-11.9"/></g><path fill="#00d3ff" d="m428.75 54.92 7 3.51-2.62-3.5 2.63-3.52"/><path fill="none" stroke="#000" stroke-miterlimit="10" stroke-width=".4" d="M44.29 125.79h7.09"/><use x="9.45" y="128.28" href="#aq"/><use x="14.85" y="128.28" href="#ar"/><use x="19.36" y="128.28" href="#as"/><use x="23.67" y="128.28" href="#at"/><use x="28.1" y="128.28" href="#au"/><use x="34.83" y="128.28" fill="#ccc" href="#av"/><path fill="none" stroke="#000" stroke-miterlimit="10" stroke-width=".4" d="M44.29 104.53h7.09"/><use x="9.45" y="107.02" href="#aq"/><use x="14.85" y="107.02" href="#ar"/><use x="19.36" y="107.02" href="#as"/><use x="23.67" y="107.02" href="#at"/><use x="28.1" y="107.02" href="#au"/><use x="34.83" y="107.02" fill="#ccc" href="#aw"/><path fill="none" stroke="#000" stroke-miterlimit="10" stroke-width=".4" d="M44.29 83.27h7.09"/><use x="9.45" y="85.76" href="#aq"/><use x="14.85" y="85.76" href="#ar"/><use x="19.36" y="85.76" href="#as"/><use x="23.67" y="85.76" href="#at"/><use x="28.1" y="85.76" href="#au"/><use x="34.83" y="85.76" fill="#ccc" href="#ax"/><path fill="none" stroke="#000" stroke-miterlimit="10" stroke-width=".4" d="M44.29 62h7.09"/><use x="9.45" y="64.5" href="#aq"/><use x="14.85" y="64.5" href="#ar"/><use x="19.36" y="64.5" href="#as"/><use x="23.67" y="64.5" href="#at"/><use x="28.1" y="64.5" href="#au"/><use x="34.83" y="64.5" fill="#ccc" href="#ay"/></svg>