<svg xmlns="http://www.w3.org/2000/svg" width="596.04" height="512.29" viewBox="0 0 447.03 384.22"><style>symbol path{fill:#ccc!important}path[stroke=&quot;#000&quot;]{stroke:#ccc!important}path[fill=&quot;#d2e4f0&quot;]{fill:#514022!important}path[stroke=&quot;#1f77b4&quot;]{stroke:#e7a900!important}g[fill=&quot;#1f77b4&quot;],path[fill=&quot;#1f77b4&quot;]{fill:#e7a900!important}</style><symbol id="a" overflow="visible"><path d="M.86-.28a7 7 0 0 0 2.58.45c2.3 0 3.72-1.19 3.72-2.89q0-.94-.63-1.56c-.67-.66-1.44-.88-2.17-1.19-1.31-.56-2-.92-2-1.87 0-1.05.72-1.74 1.94-1.74q.75 0 1.3.3l.21.25.22 1.36h.73V-9.4a8 8 0 0 0-2.43-.4C2.3-9.8 1-8.67 1-7.06c0 1.4.83 1.93 2.43 2.61 1.56.67 2.4.94 2.4 2.13 0 1-.78 1.72-2.17 1.72q-.97 0-1.6-.33l-.2-.24L1.7-2.8H.86zm0 0"/></symbol><symbol id="b" overflow="visible"><path d="M1.27-6.03v4.62c0 1.02.3 1.46 1.48 1.46q.85 0 1.89-.32V-.8a6 6 0 0 1-1 .11c-1 0-1.19-.47-1.19-1.56v-3.78h2.2v-.69h-2.2v-1.51h-.53l-.6 1.32-.96.43v.45zm0 0"/></symbol><symbol id="c" overflow="visible"><path d="m2.03-7.05-1.65.53v.46h1.01v4.01c0 1.44.69 2.2 1.92 2.2Q4.36.12 5.64-.8V0h2.13v-.52l-.7-.07-.24-.22v-6.24h-.55l-1.65.53v.46h1.01v4.86a4 4 0 0 1-1.67.42q-1.41.01-1.4-1.52v-4.75zm0 0"/></symbol><symbol id="d" overflow="visible"><path d="M5.5-9.6v2.7a6 6 0 0 0-1.28-.16c-2.19 0-3.7 1.54-3.7 3.83C.52-1.22 1.72.13 3.28.13c.8 0 1.49-.29 2.22-.88V0h2.1v-.52l-.68-.07-.23-.22v-9.75h-.55l-1.75.51v.46zm0 8.32q-.8.5-1.56.5c-1.3 0-2.16-1.02-2.16-2.69 0-1.8 1-2.95 2.45-2.95q.52 0 1.27.22zm0 0"/></symbol><symbol id="e" overflow="visible"><path d="M6.42-1.52c-.81.55-1.53.83-2.25.83-1.45 0-2.4-1.1-2.4-2.92v-.16H6.4l.01-.45c0-1.76-1.01-2.83-2.58-2.83-1.91 0-3.3 1.49-3.3 3.65C.53-1.3 1.84.13 3.73.13q1.38 0 2.7-.86zM5.16-4.37H1.84c.08-1.22.9-2.02 1.82-2.02.97 0 1.5.62 1.5 1.78zm0 0"/></symbol><symbol id="f" overflow="visible"><path d="M.44 0h3.14v-.52l-.69-.07-.25-.22v-4.82a3.6 3.6 0 0 1 1.61-.46c1.06 0 1.44.42 1.44 1.46V-.8l-.24.22-.68.07V0H7.9v-.52l-.79-.07-.23-.22v-4.05c0-1.44-.69-2.19-1.94-2.19-.62 0-1.36.33-2.3.86v-.78h-.56l-1.65.52v.43h1.01v5.2l-.25.23-.76.07zm0 0"/></symbol><symbol id="g" overflow="visible"><path d="M4.94-6.73a4 4 0 0 0-1.69-.32C1.63-7.05.72-6.3.72-5.03c0 .95.62 1.42 1.84 1.97.96.42 1.47.69 1.47 1.42 0 .67-.51 1.17-1.34 1.17q-.63 0-1.22-.34L1.3-2.03H.6v1.86q.75.3 1.87.3c1.69 0 2.69-.82 2.69-2.14q-.01-.82-.55-1.24c-.48-.39-1.03-.6-1.53-.84-.8-.38-1.22-.69-1.22-1.3 0-.64.44-1.03 1.2-1.03q.52 0 1.05.3l.12 1.01h.7zm0 0"/></symbol><symbol id="A" overflow="visible"><path d="M.47 0h3.62v-.6L3.06-.65l-.23-.2v-2.83q.66.08 1.08.08c2.3 0 3.7-1.25 3.7-3.1 0-2.17-1.22-2.92-3.98-2.92H.36v.58l.94.08.23.2v7.91l-.23.2-.83.06zm2.36-4.37v-4.57q.38-.04.75-.03c1.83 0 2.7.7 2.7 2.24 0 1.57-.87 2.43-2.51 2.43q-.32 0-.94-.07m0 0"/></symbol><symbol id="B" overflow="visible"><path d="M.44 0h3.45v-.52l-1-.07-.25-.22v-4.11q.89-1.04 1.56-1.05.45 0 .74.35h.45v-1.24a2 2 0 0 0-.86-.19q-.18 0-.36.03-.78.63-1.53 1.4v-1.35h-.55l-1.65.52v.43h1.01v5.2l-.26.23-.75.07zm0 0"/></symbol><symbol id="C" overflow="visible"><path d="M3.86-7.05C1.92-7.05.53-5.59.53-3.45.53-1.33 1.93.13 3.86.13S7.2-1.33 7.2-3.45s-1.4-3.6-3.34-3.6m0 .63c1.16 0 2 1.1 2 2.97s-.84 2.97-2 2.97c-1.14 0-1.99-1.13-1.99-2.97 0-1.88.83-2.97 1.99-2.97m0 0"/></symbol><symbol id="D" overflow="visible"><path d="M5.3-6.64a4 4 0 0 0-1.63-.4C1.98-7.05.9-6.07.9-4.68c0 1.08.67 1.92 1.78 2.15q-.7.82-.69 1.38 0 .33.14.64C1.14-.33.58.36.58 1.28c0 1.14.94 1.85 2.6 1.85a4.5 4.5 0 0 0 2.84-.94c.54-.47.86-1.08.86-1.61 0-1.06-.75-1.52-2.44-1.77L3.06-1.4l-.03-.34q0-.34.16-.64h.23c1.67 0 2.75-.97 2.75-2.25 0-.5-.14-.9-.4-1.33h1.57v-.67zm-1.77.16c.83 0 1.4.67 1.4 1.76s-.57 1.77-1.4 1.77-1.4-.7-1.4-1.77c0-1.11.57-1.76 1.4-1.76M2.95-.44l1.4.27C5.34.02 5.8.17 5.8.95c0 .8-.86 1.52-2.14 1.52-1.17 0-1.95-.66-1.95-1.5 0-.63.45-1.16 1.23-1.4zm0 0"/></symbol><symbol id="E" overflow="visible"><path d="m4.8-.83.18.83H7v-.52l-.77-.07-.25-.22v-4.17c0-1.44-.64-2.07-2.14-2.07-1.8 0-2.89.75-2.89 1.63 0 .34.11.44.44.44h.98v-1.2q.58-.24 1.1-.23c1.03 0 1.33.47 1.33 1.6v.47C1.92-3.66.6-3.24.6-1.74.62-.66 1.32.1 2.45.1q1.01 0 2.36-.92m0-.48a4 4 0 0 1-1.78.64c-.72 0-1.16-.47-1.16-1.17 0-1.05.9-1.44 2.94-2zm0 0"/></symbol><symbol id="F" overflow="visible"><path d="M6.52-6.08a1.7 1.7 0 0 0-1.58-.97 5 5 0 0 0-2.3.86v-.78H2.1l-1.65.52v.43h1.01v5.2l-.25.23-.76.07V0h3.14v-.52L2.9-.59l-.25-.22v-4.82a4 4 0 0 1 1.64-.46q1.27-.02 1.25 1.46V-.8l-.24.2-.7.07V0h3.06v-.52l-.68-.07-.25-.22v-4.82q.92-.45 1.61-.46c.9 0 1.3.46 1.3 1.46V-.8l-.26.22-.68.07V0h3.13v-.52l-.75-.07-.25-.22v-4.05c0-1.42-.72-2.19-1.85-2.19q-.86 0-2.46.97m0 0"/></symbol><symbol id="H" overflow="visible"><path d="M.42 0h3.35v-.52l-.9-.07-.25-.22v-5.22h2.02v-.69h-2v-1.05q0-1.79.94-2.23l1.3.86c.37-.1.59-.37.59-.72 0-.45-.47-.81-1.13-.81-1.68 0-2.9 1.42-2.9 3.8v.15l-.92.22v.47h.92v5.22l-.27.22-.75.07zm0 0"/></symbol><symbol id="I" overflow="visible"><path d="M2.2-10.16c-.45 0-.83.36-.83.83s.38.83.83.83c.47 0 .85-.36.85-.83a.84.84 0 0 0-.85-.83m-.04 3.19L.5-6.45v.43h1v5.2l-.23.23-.77.07V0h3.23v-.52l-.78-.07-.25-.22v-6.16zm0 0"/></symbol><symbol id="J" overflow="visible"><path d="M.4 0h3.37v-.52l-.83-.07-.25-.22v-9.75h-.55l-1.75.51v.46h1.1v8.78l-.24.22-.84.07zm0 0"/></symbol><symbol id="K" overflow="visible"><path d="M-.02-6.9v.53l.88.09 2.4 6.22A6 6 0 0 1 2.12 2.1L.73 1.55q-.37.34-.37.78c0 .47.39.8.98.8.94 0 1.63-.79 2.3-2.41l2.88-6.97.82-.12v-.54H4.8v.54l.76.06.13.23-1.8 4.46-1.72-4.46.17-.23.75-.07v-.53zm0 0"/></symbol><symbol id="L" overflow="visible"><path d="M.33 3.13H3.7V2.6l-.92-.08-.25-.22V-.1q.8.14 1.35.14C6 .05 7.4-1.42 7.4-3.7c0-2-1.2-3.36-2.77-3.36-.67 0-1.34.3-2.1.86v-.78H2l-1.67.52v.44h1.01V2.3l-.23.22-.78.08zm2.2-3.96v-4.83a3 3 0 0 1 1.52-.48c1.25 0 2.1.98 2.1 2.64 0 1.77-1 2.89-2.38 2.89q-.52.01-1.24-.22m0 0"/></symbol><symbol id="h" overflow="visible"><path d="M4.95-4.62a1.3 1.3 0 0 0-1.2-.74q-.67.02-1.75.66v-.6h-.4l-1.27.4v.34h.76v3.93l-.17.18-.6.06V0h2.4v-.39l-.53-.06L2-.62v-3.66q.71-.36 1.25-.36.97-.01.95 1.12v2.9l-.17.17-.53.06V0h2.33v-.39L5.3-.45l-.2-.17v-3.66q.71-.34 1.23-.36c.7 0 .99.36.99 1.12v2.9l-.2.17-.5.06V0H9v-.39l-.58-.06-.19-.17V-3.7c0-1.08-.54-1.66-1.4-1.66a4 4 0 0 0-1.88.74m0 0"/></symbol><symbol id="i" overflow="visible"><path d="M4.89-1.16q-.91.64-1.72.63c-1.1 0-1.83-.83-1.83-2.22v-.12h3.53l.02-.33c0-1.35-.78-2.16-1.97-2.16C1.47-5.36.41-4.23.41-2.58.4-.98 1.39.09 2.83.09q1.05 0 2.06-.65zm-.97-2.17H1.4c.08-.92.69-1.53 1.39-1.53.73 0 1.14.47 1.14 1.36zm0 0"/></symbol><symbol id="j" overflow="visible"><path d="m3.64-.62.14.62h1.55v-.39l-.58-.06-.2-.18v-3.15c0-1.11-.49-1.58-1.63-1.58-1.37 0-2.2.58-2.2 1.23 0 .27.1.35.34.35h.75v-.92a2 2 0 0 1 .83-.18c.78 0 1 .36 1 1.22v.36c-2.17.52-3.19.85-3.19 2C.45-.5 1 .08 1.86.08q.77 0 1.78-.7m0-.38q-.81.47-1.34.48c-.55 0-.88-.35-.88-.89 0-.8.69-1.09 2.22-1.51zm0 0"/></symbol><symbol id="k" overflow="visible"><path d="M.33 0h2.39v-.39l-.53-.06L2-.62v-3.66q.7-.36 1.23-.36c.8 0 1.1.33 1.1 1.12v2.9l-.19.17-.51.06V0h2.39v-.39l-.6-.06-.19-.17V-3.7c0-1.08-.51-1.66-1.46-1.66-.47 0-1.04.25-1.77.66v-.6h-.4l-1.27.4v.34h.76v3.93l-.17.18-.6.06zm0 0"/></symbol><symbol id="l" overflow="visible"><path d="M1.73-5.25c-.37 0-.68.3-.68.69s.3.7.68.7.7-.31.7-.7-.32-.69-.7-.69m0 3.97c-.37 0-.68.3-.68.69s.3.68.68.68.7-.3.7-.68-.32-.7-.7-.7m0 0"/></symbol><symbol id="o" overflow="visible"><path d="M-.02-5.25v.4l.66.07L2.1 0h.68l1.48-4.14L5.56 0h.67L7.8-4.75l.6-.1v-.4H6.49v.4l.58.05.1.17-1.12 3.55-1.29-4.17H4.1L2.63-1.08l-.99-3.55.13-.17.57-.04v-.41zm0 0"/></symbol><symbol id="p" overflow="visible"><path d="M.25 2.38h2.56v-.4l-.7-.04-.17-.19V-.06q.59.1 1 .1c1.62 0 2.68-1.12 2.68-2.84 0-1.53-.89-2.56-2.09-2.56-.51 0-1.01.22-1.6.66v-.6h-.41l-1.27.4v.34h.78v6.31l-.19.19-.59.04zm1.69-3V-4.3q.59-.36 1.14-.37c.95 0 1.6.75 1.6 2.01 0 1.35-.76 2.2-1.82 2.2q-.4 0-.92-.17m0 0"/></symbol><symbol id="m" overflow="visible"><path d="M3.16-3.84c.9-.3 1.53-1.05 1.53-1.93 0-.89-.96-1.5-2-1.5-1.11 0-1.94.66-1.94 1.49 0 .36.25.56.56.56a.53.53 0 0 0 .55-.55c0-.54-.5-.54-.67-.54.34-.53 1.06-.67 1.45-.67.45 0 1.05.23 1.05 1.22 0 .12-.02.76-.31 1.23-.33.53-.7.56-.97.58l-.43.03q-.14-.01-.15.12c0 .13.06.13.25.13h.48c.9 0 1.3.73 1.3 1.81 0 1.49-.75 1.8-1.23 1.8-.47 0-1.29-.19-1.68-.83.4.05.72-.19.72-.6s-.28-.62-.6-.62a.6.6 0 0 0-.62.64c0 .99 1.02 1.7 2.2 1.7 1.33 0 2.33-.98 2.33-2.09 0-.9-.68-1.75-1.82-1.98m0 0"/></symbol><symbol id="n" overflow="visible"><path d="M3.2-1.8v.96c0 .39-.01.5-.83.5h-.21V0c.43-.03 1-.03 1.47-.03.45 0 1.03 0 1.48.03v-.34h-.24c-.8 0-.82-.11-.82-.5v-.96h1.09v-.34h-1.1V-7.1c0-.22 0-.3-.17-.3-.09 0-.14 0-.21.14L.3-2.14v.34zm.07-.34H.6L3.27-6.2zm0 0"/></symbol><symbol id="G" overflow="visible"><path d="M4.89-2.19c0-1.3-.89-2.39-2.06-2.39q-.8-.01-1.4.55v-2.13c.23.08.59.14.93.14 1.34 0 2.1-.98 2.1-1.12 0-.06-.02-.13-.1-.13l-.08.04c-.22.1-.76.3-1.48.3a3.4 3.4 0 0 1-1.46-.29c-.09-.03-.1-.03-.14-.03-.1 0-.1.08-.1.27v3.21c0 .2 0 .29.15.29q.1 0 .14-.1c.13-.17.53-.76 1.4-.76.58 0 .85.5.94.7.18.4.2.83.2 1.37 0 .38 0 1.04-.26 1.49S3-.06 2.5-.06c-.8 0-1.42-.58-1.61-1.22l.19.01c.36 0 .54-.26.54-.53s-.18-.53-.54-.53c-.16 0-.53.08-.53.58C.55-.81 1.3.23 2.52.23a2.4 2.4 0 0 0 2.37-2.42m0 0"/></symbol><symbol id="M" overflow="visible"><path d="m1.39-.84 1.16-1.13c1.7-1.5 2.34-2.1 2.34-3.17 0-1.25-.97-2.12-2.31-2.12-1.22 0-2.03 1-2.03 1.97 0 .62.54.62.57.62.2 0 .57-.14.57-.58 0-.3-.2-.58-.58-.58q-.1 0-.14.02c.25-.7.84-1.11 1.47-1.11 1 0 1.46.87 1.46 1.78 0 .86-.54 1.73-1.14 2.4L.67-.4C.55-.28.55-.27.55 0h4.04l.3-1.89h-.27c-.06.31-.12.8-.23.97-.08.08-.8.08-1.05.08zm0 0"/></symbol><symbol id="q" overflow="visible"><path d="M3.89-2.55a4 4 0 0 0-.34-1.87c-.35-.7-1-.88-1.44-.88-1 0-1.38.75-1.48.97-.29.58-.3 1.38-.3 1.78 0 .53.01 1.33.4 1.97.36.6.96.75 1.38.75a1.6 1.6 0 0 0 1.47-.9c.3-.58.31-1.3.31-1.82M2.11-.06c-.27 0-.81-.13-.98-.96-.1-.45-.1-1.2-.1-1.62 0-.55 0-1.11.1-1.55.17-.81.78-.89.98-.89a1 1 0 0 1 .98.86c.1.44.1 1.05.1 1.58 0 .47 0 1.19-.1 1.64-.17.83-.71.94-.98.94m0 0"/></symbol><symbol id="r" overflow="visible"><path d="M2.5-5.08c0-.22-.02-.22-.23-.22-.33.32-.75.5-1.5.5v.27c.21 0 .64 0 1.1-.2v4.07c0 .3-.03.4-.78.4H.81V0c.33-.03 1.02-.03 1.38-.03s1.04 0 1.37.03v-.27h-.28c-.75 0-.78-.09-.78-.39zm0 0"/></symbol><symbol id="s" overflow="visible"><path d="m2.25-1.62.6-.5c.48-.46.95-.9.95-1.61C3.8-4.7 3-5.3 2.02-5.3c-.97 0-1.6.72-1.6 1.44 0 .4.31.44.42.44.18 0 .43-.11.43-.42 0-.41-.41-.41-.5-.41.23-.6.76-.78 1.15-.78.74 0 1.13.62 1.13 1.3 0 .82-.58 1.43-1.53 2.39L.52-.3c-.1.08-.1.1-.1.3h3.14l.24-1.42h-.25c-.02.15-.08.55-.17.7-.05.06-.66.06-.79.06H1.17zm0 0"/></symbol><symbol id="t" overflow="visible"><path d="M2.02-2.66c.62 0 1.03.46 1.03 1.3 0 1-.57 1.28-.99 1.28S1.02-.23.73-.66c.3 0 .5-.18.5-.43 0-.27-.18-.44-.45-.44-.2 0-.44.12-.44.45 0 .75.82 1.25 1.74 1.25 1.05 0 1.8-.73 1.8-1.53 0-.67-.54-1.26-1.35-1.45.63-.22 1.11-.75 1.11-1.4S2.92-5.3 2.1-5.3c-.86 0-1.5.46-1.5 1.07 0 .3.2.42.41.42.25 0 .4-.17.4-.4 0-.3-.26-.42-.43-.42.34-.43.95-.46 1.1-.46.2 0 .8.06.8.89 0 .54-.23.89-.34 1.01-.23.25-.42.27-.9.3-.16 0-.22.01-.22.12s.07.11.22.11zm0 0"/></symbol><symbol id="u" overflow="visible"><path d="M3.14-5.16c0-.15 0-.21-.17-.21-.1 0-.11 0-.19.1L.23-1.56v.26h2.25v.67c0 .3-.01.37-.64.37h-.17V0c.67-.03.69-.03 1.14-.03s.47 0 1.14.03v-.27h-.17c-.62 0-.64-.07-.64-.37v-.67h.84v-.25h-.84zm-.6.64v2.96H.53zm0 0"/></symbol><symbol id="v" overflow="visible"><path d="M1.11-4.48c.1.03.42.12.77.12 1 0 1.59-.7 1.59-.83 0-.1-.05-.1-.1-.1l-.09.02a3 3 0 0 1-1.1.22q-.73-.02-1.12-.22l-.1-.03c-.1 0-.1.08-.1.24v2.33c0 .14 0 .23.12.23.07 0 .08-.03.13-.1.1-.1.39-.5 1.08-.5.44 0 .65.35.73.5.13.29.14.66.14.96s0 .73-.22 1.08c-.15.25-.48.48-.9.48a1.3 1.3 0 0 1-1.2-.84l.07.01c.22 0 .4-.14.4-.39 0-.3-.23-.4-.38-.4s-.4.07-.4.42c0 .72.62 1.45 1.52 1.45 1 0 1.85-.78 1.85-1.76 0-.93-.68-1.75-1.61-1.75q-.6-.01-1.08.4zm0 0"/></symbol><symbol id="w" overflow="visible"><path d="M1.1-2.64c0-.66.06-1.24.34-1.72.25-.4.65-.73 1.15-.73.16 0 .52.03.7.3-.35.02-.38.29-.38.37 0 .25.18.37.37.37.14 0 .38-.08.38-.39 0-.47-.36-.86-1.08-.86C1.47-5.3.34-4.25.34-2.53.34-.36 1.36.17 2.13.17c.39 0 .8-.1 1.15-.45.33-.31.6-.64.6-1.34 0-1.04-.8-1.77-1.68-1.77-.58 0-.92.36-1.1.75M2.11-.08a.9.9 0 0 1-.8-.52c-.18-.36-.2-.89-.2-1.2 0-.78.43-1.37 1.05-1.37.4 0 .64.2.78.48.17.3.17.66.17 1.06s0 .75-.15 1.05q-.32.52-.85.5m0 0"/></symbol><symbol id="x" overflow="visible"><path d="M4.03-4.86c.08-.08.08-.1.08-.26H2.08l-.64-.04c-.42-.03-.42-.1-.45-.23H.74L.47-3.7h.25c.02-.13.11-.67.22-.74.08-.04.69-.04.8-.04h1.68l-.81 1.1A5.4 5.4 0 0 0 1.5-.27c0 .08 0 .45.38.45s.37-.36.37-.45v-.4c0-1.13.2-2.07.6-2.6zm0 0"/></symbol><symbol id="y" overflow="visible"><path d="M2.64-2.87c.45-.22 1-.61 1-1.24 0-.76-.78-1.19-1.51-1.19-.85 0-1.54.58-1.54 1.33q0 .45.3.8c.14.17.17.19.66.5-.99.44-1.2 1.01-1.2 1.45 0 .9.88 1.4 1.76 1.4.97 0 1.77-.68 1.77-1.52 0-.5-.27-.83-.41-.97a4 4 0 0 0-.83-.57m-1.23-.75C1.17-3.76.98-4 .98-4.26c0-.5.55-.83 1.13-.83.6 0 1.12.42 1.12.98 0 .45-.35.84-.82 1.08zm.39 1.09 1.08.66c.12.07.54.32.54.8 0 .62-.65 1-1.3 1-.71 0-1.3-.5-1.3-1.15 0-.6.43-1.06.98-1.31m0 0"/></symbol><symbol id="z" overflow="visible"><path d="M3.13-2.34c0 1.93-.93 2.26-1.4 2.26-.17 0-.57-.01-.8-.26.37-.03.38-.3.38-.38a.37.37 0 0 0-.37-.37.37.37 0 0 0-.38.39c0 .54.46.87 1.19.87 1.1 0 2.13-1.1 2.13-2.8 0-2.06-.93-2.67-1.74-2.67-.95 0-1.8.74-1.8 1.78 0 1.02.79 1.77 1.7 1.77.55 0 .9-.36 1.09-.77zm-1.07.37c-.37 0-.6-.17-.78-.47-.19-.28-.19-.67-.19-1.08 0-.46 0-.8.22-1.12q.29-.45.83-.45c.53 0 .77.53.8.56.15.39.17 1.01.17 1.17 0 .64-.34 1.4-1.05 1.4zm0 0"/></symbol><use x="12.26" y="69.28" href="#a"/><use x="20.24" y="69.28" href="#b"/><use x="25.03" y="69.28" href="#c"/><use x="33.19" y="69.28" href="#d"/><use x="41.3" y="69.28" href="#e"/><use x="48.34" y="69.28" href="#f"/><use x="56.49" y="69.28" href="#b"/><use x="61.28" y="69.28" href="#g"/><path fill="#d2e4f0" stroke="#1f77b4" stroke-miterlimit="10" stroke-width="1.2" d="M183.12 108.2V91.42h26.93V43.5h26.93V29.8h26.93v37.33h26.93V92.3h26.93V106h26.93v.65h26.93v1.55"/><path fill="none" stroke="#1f77b4" stroke-miterlimit="10" stroke-width="1.2" d="M247.75 108.2V8.83"/><g fill="#1f77b4"><use x="252.33" y="24.26" href="#h"/><use x="261.53" y="24.26" href="#i"/><use x="266.89" y="24.26" href="#j"/><use x="272.42" y="24.26" href="#k"/><use x="278.61" y="24.26" href="#l"/></g><g fill="#1f77b4"><use x="285.86" y="24.26" href="#m"/><use x="291.31" y="24.26" href="#n"/></g><path fill="none" stroke="#000" stroke-miterlimit="10" stroke-width=".4" d="M156.2 108.2h269.29"/><use x="279.03" y="132.04" href="#o"/><use x="287.44" y="132.04" href="#p"/><use x="293.45" y="132.04" href="#h"/><path fill="none" stroke="#000" stroke-miterlimit="10" stroke-width=".4" d="M156.2 108.2v2.2"/><use x="154.07" y="119.73" href="#q"/><path fill="none" stroke="#000" stroke-miterlimit="10" stroke-width=".4" d="M183.12 108.2v2.2"/><use x="178.89" y="119.73" href="#r"/><use x="183.12" y="119.73" href="#q"/><path fill="none" stroke="#000" stroke-miterlimit="10" stroke-width=".4" d="M210.05 108.2v2.2"/><use x="205.82" y="119.73" href="#s"/><use x="210.05" y="119.73" href="#q"/><path fill="none" stroke="#000" stroke-miterlimit="10" stroke-width=".4" d="M236.98 108.2v2.2"/><use x="232.75" y="119.73" href="#t"/><use x="236.98" y="119.73" href="#q"/><path fill="none" stroke="#000" stroke-miterlimit="10" stroke-width=".4" d="M263.91 108.2v2.2"/><use x="259.68" y="119.73" href="#u"/><use x="263.91" y="119.73" href="#q"/><path fill="none" stroke="#000" stroke-miterlimit="10" stroke-width=".4" d="M290.84 108.2v2.2"/><use x="286.6" y="119.73" href="#v"/><use x="290.84" y="119.73" href="#q"/><path fill="none" stroke="#000" stroke-miterlimit="10" stroke-width=".4" d="M317.77 108.2v2.2"/><use x="313.53" y="119.73" href="#w"/><use x="317.77" y="119.73" href="#q"/><path fill="none" stroke="#000" stroke-miterlimit="10" stroke-width=".4" d="M344.7 108.2v2.2"/><use x="340.46" y="119.73" href="#x"/><use x="344.7" y="119.73" href="#q"/><path fill="none" stroke="#000" stroke-miterlimit="10" stroke-width=".4" d="M371.63 108.2v2.2"/><use x="367.39" y="119.73" href="#y"/><use x="371.63" y="119.73" href="#q"/><path fill="none" stroke="#000" stroke-miterlimit="10" stroke-width=".4" d="M398.56 108.2v2.2"/><use x="394.32" y="119.73" href="#z"/><use x="398.56" y="119.73" href="#q"/><path fill="none" stroke="#000" stroke-miterlimit="10" stroke-width=".4" d="M425.49 108.2v2.2"/><use x="419.13" y="119.73" href="#r"/><use x="423.37" y="119.73" href="#q"/><use x="427.6" y="119.73" href="#q"/><use x="12.26" y="188.75" href="#A"/><use x="20.27" y="188.75" href="#B"/><use x="25.75" y="188.75" href="#C"/><use x="33.48" y="188.75" href="#D"/><use x="40.98" y="188.75" href="#B"/><use x="46.46" y="188.75" href="#E"/><use x="53.74" y="188.75" href="#F"/><use x="65.83" y="188.75" href="#F"/><use x="77.93" y="188.75" href="#e"/><use x="84.97" y="188.75" href="#B"/><use x="90.45" y="188.75" href="#g"/><path fill="#d2e4f0" stroke="#1f77b4" stroke-miterlimit="10" stroke-width="1.2" d="M183.12 229.65v-2.2h26.93v-3.32h26.93v-24.95h26.93v-11.93h26.93V166.5h26.93v6.62h26.93v39.08h26.93v14.14h26.93v3.3"/><path fill="none" stroke="#1f77b4" stroke-miterlimit="10" stroke-width="1.2" d="M301.61 229.65v-83.91"/><g fill="#1f77b4"><use x="306.19" y="161.16" href="#h"/><use x="315.39" y="161.16" href="#i"/><use x="320.75" y="161.16" href="#j"/><use x="326.28" y="161.16" href="#k"/><use x="332.47" y="161.16" href="#l"/></g><g fill="#1f77b4"><use x="339.72" y="161.16" href="#G"/><use x="345.17" y="161.16" href="#n"/></g><path fill="none" stroke="#000" stroke-miterlimit="10" stroke-width=".4" d="M156.2 229.65h269.29"/><use x="279.03" y="253.49" href="#o"/><use x="287.44" y="253.49" href="#p"/><use x="293.45" y="253.49" href="#h"/><path fill="none" stroke="#000" stroke-miterlimit="10" stroke-width=".4" d="M156.2 229.65v2.2"/><use x="154.07" y="241.18" href="#q"/><path fill="none" stroke="#000" stroke-miterlimit="10" stroke-width=".4" d="M183.12 229.65v2.2"/><use x="178.89" y="241.18" href="#r"/><use x="183.12" y="241.18" href="#q"/><path fill="none" stroke="#000" stroke-miterlimit="10" stroke-width=".4" d="M210.05 229.65v2.2"/><use x="205.82" y="241.18" href="#s"/><use x="210.05" y="241.18" href="#q"/><path fill="none" stroke="#000" stroke-miterlimit="10" stroke-width=".4" d="M236.98 229.65v2.2"/><use x="232.75" y="241.18" href="#t"/><use x="236.98" y="241.18" href="#q"/><path fill="none" stroke="#000" stroke-miterlimit="10" stroke-width=".4" d="M263.91 229.65v2.2"/><use x="259.68" y="241.18" href="#u"/><use x="263.91" y="241.18" href="#q"/><path fill="none" stroke="#000" stroke-miterlimit="10" stroke-width=".4" d="M290.84 229.65v2.2"/><use x="286.6" y="241.18" href="#v"/><use x="290.84" y="241.18" href="#q"/><path fill="none" stroke="#000" stroke-miterlimit="10" stroke-width=".4" d="M317.77 229.65v2.2"/><use x="313.53" y="241.18" href="#w"/><use x="317.77" y="241.18" href="#q"/><path fill="none" stroke="#000" stroke-miterlimit="10" stroke-width=".4" d="M344.7 229.65v2.2"/><use x="340.46" y="241.18" href="#x"/><use x="344.7" y="241.18" href="#q"/><path fill="none" stroke="#000" stroke-miterlimit="10" stroke-width=".4" d="M371.63 229.65v2.2"/><use x="367.39" y="241.18" href="#y"/><use x="371.63" y="241.18" href="#q"/><path fill="none" stroke="#000" stroke-miterlimit="10" stroke-width=".4" d="M398.56 229.65v2.2"/><use x="394.32" y="241.18" href="#z"/><use x="398.56" y="241.18" href="#q"/><path fill="none" stroke="#000" stroke-miterlimit="10" stroke-width=".4" d="M425.49 229.65v2.2"/><use x="419.13" y="241.18" href="#r"/><use x="423.37" y="241.18" href="#q"/><use x="427.6" y="241.18" href="#q"/><use x="12.26" y="310.68" href="#A"/><use x="20.27" y="310.68" href="#B"/><use x="25.75" y="310.68" href="#C"/><use x="33.48" y="310.68" href="#H"/><use x="38.09" y="310.68" href="#e"/><use x="45.13" y="310.68" href="#g"/><use x="50.87" y="310.68" href="#g"/><use x="56.61" y="310.68" href="#I"/><use x="60.62" y="310.68" href="#C"/><use x="68.36" y="310.68" href="#f"/><use x="76.5" y="310.68" href="#E"/><use x="83.78" y="310.68" href="#J"/><use x="91.81" y="310.68" href="#b"/><use x="96.6" y="310.68" href="#K"/><use x="103.71" y="310.68" href="#L"/><use x="111.61" y="310.68" href="#I"/><use x="115.63" y="310.68" href="#g"/><use x="121.37" y="310.68" href="#b"/><use x="126.16" y="310.68" href="#g"/><path fill="#d2e4f0" stroke="#1f77b4" stroke-miterlimit="10" stroke-width="1.2" d="M210.05 351.1v-8.39h26.93V328.8h26.93v-43.28h26.93v-8.61h26.93v41.07h26.93v21.64h26.93v7.73h26.93v2.2h26.93v1.55"/><path fill="none" stroke="#1f77b4" stroke-miterlimit="10" stroke-width="1.2" d="M296.23 351.1v-93.85"/><g fill="#1f77b4"><use x="300.81" y="272.68" href="#h"/><use x="310" y="272.68" href="#i"/><use x="315.36" y="272.68" href="#j"/><use x="320.89" y="272.68" href="#k"/><use x="327.09" y="272.68" href="#l"/></g><g fill="#1f77b4"><use x="334.33" y="272.68" href="#G"/><use x="339.79" y="272.68" href="#M"/></g><path fill="none" stroke="#000" stroke-miterlimit="10" stroke-width=".4" d="M156.2 351.1h269.29"/><use x="279.03" y="374.94" href="#o"/><use x="287.44" y="374.94" href="#p"/><use x="293.45" y="374.94" href="#h"/><path fill="none" stroke="#000" stroke-miterlimit="10" stroke-width=".4" d="M156.2 351.1v2.2"/><use x="154.07" y="362.63" href="#q"/><path fill="none" stroke="#000" stroke-miterlimit="10" stroke-width=".4" d="M183.12 351.1v2.2"/><use x="178.89" y="362.63" href="#r"/><use x="183.12" y="362.63" href="#q"/><path fill="none" stroke="#000" stroke-miterlimit="10" stroke-width=".4" d="M210.05 351.1v2.2"/><use x="205.82" y="362.63" href="#s"/><use x="210.05" y="362.63" href="#q"/><path fill="none" stroke="#000" stroke-miterlimit="10" stroke-width=".4" d="M236.98 351.1v2.2"/><use x="232.75" y="362.63" href="#t"/><use x="236.98" y="362.63" href="#q"/><path fill="none" stroke="#000" stroke-miterlimit="10" stroke-width=".4" d="M263.91 351.1v2.2"/><use x="259.68" y="362.63" href="#u"/><use x="263.91" y="362.63" href="#q"/><path fill="none" stroke="#000" stroke-miterlimit="10" stroke-width=".4" d="M290.84 351.1v2.2"/><use x="286.6" y="362.63" href="#v"/><use x="290.84" y="362.63" href="#q"/><path fill="none" stroke="#000" stroke-miterlimit="10" stroke-width=".4" d="M317.77 351.1v2.2"/><use x="313.53" y="362.63" href="#w"/><use x="317.77" y="362.63" href="#q"/><path fill="none" stroke="#000" stroke-miterlimit="10" stroke-width=".4" d="M344.7 351.1v2.2"/><use x="340.46" y="362.63" href="#x"/><use x="344.7" y="362.63" href="#q"/><path fill="none" stroke="#000" stroke-miterlimit="10" stroke-width=".4" d="M371.63 351.1v2.2"/><use x="367.39" y="362.63" href="#y"/><use x="371.63" y="362.63" href="#q"/><path fill="none" stroke="#000" stroke-miterlimit="10" stroke-width=".4" d="M398.56 351.1v2.2"/><use x="394.32" y="362.63" href="#z"/><use x="398.56" y="362.63" href="#q"/><path fill="none" stroke="#000" stroke-miterlimit="10" stroke-width=".4" d="M425.49 351.1v2.2"/><use x="419.13" y="362.63" href="#r"/><use x="423.37" y="362.63" href="#q"/><use x="427.6" y="362.63" href="#q"/></svg>