<svg xmlns="http://www.w3.org/2000/svg" width="396.85" height="333.35" viewBox="0 0 141.73 158.74"><clipPath id="r"><path d="M2 127h52v31.74H2zm0 0"/></clipPath><clipPath id="s"><path d="M55 127h32v31.74H55zm0 0"/></clipPath><symbol id="a" overflow="visible"><path d="M4.28-5.02 7.41-8.3H6.28L2.1-3.9v-4.4h-1V0h1v-2.7l1.55-1.63L6.45 0h1.1zm0 0"/></symbol><symbol id="b" overflow="visible"><path d="M4.86-2.69c0-.51-.05-1.25-.42-1.87a1.9 1.9 0 0 0-1.67-.92c-1.3 0-2.38 1.23-2.38 2.8S1.55.11 2.92.11c.56 0 1.22-.15 1.88-.63l-.05-.44-.03-.33c-.7.6-1.4.69-1.77.69-.92 0-1.7-.83-1.73-2.1zM1.3-3.33c.2-.81.76-1.44 1.47-1.44.36 0 1.18.16 1.39 1.44zm0 0"/></symbol><symbol id="c" overflow="visible"><path d="M5.17-5.31h-.89C3.73-3.9 2.81-1.55 2.77-.7h-.02c-.06-.72-.69-2.28-.8-2.53l-.84-2.1H.17L2.4 0l-.42 1.1c-.27.59-.44.65-.66.65-.17 0-.55-.05-.92-.19l.08.78a5 5 0 0 0 .84.1c.3 0 .84 0 1.36-1.31zm0 0"/></symbol><symbol id="d" overflow="visible"><path d="M4.02-5.11a4 4 0 0 0-1.7-.37c-.26 0-1.93 0-1.93 1.54 0 .53.3.9.47 1.07.44.36.73.42 1.44.56.39.1 1.08.23 1.08.86 0 .82-.93.82-1.1.82a3 3 0 0 1-1.81-.59L.33-.4c.05.03.86.53 1.97.53C3.85.12 4.2-.8 4.2-1.5c0-.62-.36-1-.4-1.05-.46-.47-.82-.53-1.53-.67-.44-.1-1.05-.2-1.05-.82 0-.73.84-.73 1-.73a3 3 0 0 1 1.66.44zm0 0"/></symbol><symbol id="e" overflow="visible"><path d="M4.5-7.5h1.06l.42.02h1.57v-.75H.42v.75H2l.42-.02h1.06V0H4.5zm0 0"/></symbol><symbol id="f" overflow="visible"><path d="M1.84-.53c.41.36.91.66 1.55.66 1.16 0 2.17-1.18 2.17-2.8 0-1.44-.75-2.75-1.87-2.75-.49 0-1.25.15-1.88.67v-.56H.94V2.3h.9zm0-3.49a1.5 1.5 0 0 1 1.22-.67c.88 0 1.6.9 1.6 2.03 0 1.2-.82 2.07-1.7 2.07a1.2 1.2 0 0 1-.79-.3c-.3-.25-.33-.47-.33-.66zm0 0"/></symbol><symbol id="i" overflow="visible"><path d="M5.44-7.95c-.49-.27-1.1-.6-2.16-.6C1.68-8.55.64-7.4.64-6.2c0 .84.52 1.39.58 1.45.6.61 1 .7 1.75.9 1.03.26 1.19.3 1.58.7.2.21.37.59.37 1 0 .84-.67 1.6-1.7 1.6a3.8 3.8 0 0 1-2.52-1l-.17.97a5 5 0 0 0 2.69.83 2.56 2.56 0 0 0 2.62-2.52c0-.76-.37-1.32-.62-1.62-.56-.6-1-.72-1.8-.92-.81-.2-1.1-.27-1.37-.52-.16-.17-.49-.47-.49-1 0-.73.66-1.44 1.72-1.44 1.02 0 1.55.4 1.99.77zm0 0"/></symbol><symbol id="j" overflow="visible"><path d="M5.06-3.6c0-.73-.15-1.82-1.6-1.82-.82 0-1.37.47-1.65.81V-8.3H.92V0h.9v-2.97c0-.75.29-1.73 1.2-1.73 1.1 0 1.13.76 1.13 1.18V0h.91zm0 0"/></symbol><symbol id="k" overflow="visible"><path d="M1.89-8.11H.86v1.02h1.03zm-.08 2.8H.94V0h.87zm0 0"/></symbol><symbol id="l" overflow="visible"><path d="M2.06-4.61h1.28v-.7h-1.3v-1.42c0-.82.68-.97 1.09-.97s.78.14.92.2v-.8c-.08-.01-.47-.12-.92-.12-1.13 0-1.94.87-1.94 2.03v1.08H.3v.7h.88V0h.87zm0 0"/></symbol><symbol id="m" overflow="visible"><path d="M2.05-4.61h1.64v-.7H2.05v-1.52h-.83v1.52h-1v.7h.97v3.2c0 .7.15 1.53.98 1.53.8 0 1.36-.28 1.72-.46l-.17-.7a1.6 1.6 0 0 1-1.08.41c-.53 0-.6-.56-.6-.98zm0 0"/></symbol><symbol id="g" overflow="visible"><path d="M2.64-5.5a.7.7 0 0 0-.69-.69.7.7 0 0 0-.7.69.7.7 0 1 0 1.39 0m0 4.8a.7.7 0 0 0-.69-.7.7.7 0 0 0-.7.7.7.7 0 1 0 1.39 0m0 0"/></symbol><symbol id="h" overflow="visible"><path d="M3.42-8.03a.83.83 0 0 0-.84-.85c-.4 0-.85.33-.85.85s.41.84.85.84a.84.84 0 0 0 .84-.84m0 7.19a.83.83 0 0 0-.84-.85c-.4 0-.85.33-.85.85s.41.84.85.84a.84.84 0 0 0 .84-.84m0 0"/></symbol><symbol id="o" overflow="visible"><path d="M3.42-8.03a.83.83 0 0 0-.84-.85c-.4 0-.85.33-.85.85s.41.84.85.84a.84.84 0 0 0 .84-.84M3.16.23c0 1.32-.41 2.4-1.11 3.38-.13.16-.13.19-.13.22q.02.16.17.17c.15.01 1.4-1.42 1.4-3.81 0-.82-.07-1.88-.91-1.88-.46 0-.85.3-.85.85 0 .53.4.84.85.84.2 0 .44-.06.58-.2zm0 0"/></symbol><symbol id="t" overflow="visible"><path d="M8.67-6.62c0-1.27-.01-3.41-.89-5.07a3.4 3.4 0 0 0-3.05-1.97c-1 0-2.25.46-3.04 1.94-.81 1.56-.91 3.49-.91 5.1 0 1.17.03 2.96.67 4.53C2.33.05 3.92.33 4.73.33c.96 0 2.4-.4 3.24-2.36.62-1.42.7-3.1.7-4.6M4.73 0c-1.32 0-2.1-1.14-2.4-2.7-.22-1.22-.22-3-.22-4.16 0-1.6 0-2.9.27-4.17.39-1.75 1.54-2.3 2.36-2.3.84 0 1.93.56 2.32 2.25.27 1.19.3 2.56.3 4.22 0 1.34 0 3-.25 4.22C6.67-.4 5.45 0 4.73 0m0 0"/></symbol><symbol id="n" overflow="visible"><path d="M4.45-2.52H7.5c.16 0 .36 0 .36-.2 0-.22-.2-.22-.36-.22H4.45V-6c0-.16 0-.36-.2-.36-.22 0-.22.2-.22.36v3.06H.97c-.16 0-.36 0-.36.22 0 .2.2.2.36.2h3.06V.55c0 .15 0 .36.22.36.2 0 .2-.2.2-.36zm0 0"/></symbol><symbol id="p" overflow="visible"><path d="M3.94-6.12c.01-.2.01-.55-.36-.55-.22 0-.4.19-.36.37v.2l.19 2.2-1.83-1.32c-.13-.08-.16-.1-.27-.1-.18 0-.37.2-.37.4 0 .23.14.28.28.36l2.03.98-1.97.95c-.23.11-.34.18-.34.4s.19.39.37.39c.11 0 .14 0 .5-.27l1.6-1.16-.2 2.41c0 .3.24.38.37.38.17 0 .37-.11.37-.38l-.2-2.4 1.83 1.32c.12.08.15.1.26.1.2 0 .38-.2.38-.4s-.13-.3-.3-.37c-.86-.44-.89-.44-2.01-.97l1.97-.95c.23-.11.34-.17.34-.4s-.19-.4-.38-.4c-.1 0-.14 0-.5.28L3.75-3.89zm0 0"/></symbol><symbol id="q" overflow="visible"><path d="M5.69-8.81c.01-.3.01-.8-.52-.8-.34 0-.6.27-.55.55v.26l.3 3.2-2.65-1.92c-.18-.1-.22-.14-.36-.14a.6.6 0 0 0-.57.58c0 .33.2.4.41.52l2.94 1.39-2.85 1.39c-.32.17-.5.25-.5.56s.27.58.57.58c.14 0 .18 0 .7-.4L4.92-4.7l-.31 3.47c0 .42.37.53.53.53.25 0 .56-.14.56-.53L5.4-4.7l2.63 1.92c.19.1.24.14.38.14.3 0 .56-.3.56-.58 0-.31-.19-.42-.44-.54-1.23-.61-1.28-.61-2.9-1.38l2.84-1.39c.33-.16.5-.25.5-.55a.6.6 0 0 0-.57-.57c-.14 0-.18 0-.7.39L5.4-5.6zm0 0"/></symbol><use x="8.29" y="17.16" fill="#fff" href="#a"/><use x="16.35" y="17.16" fill="#fff" href="#b"/><use x="21.55" y="17.16" fill="#fff" href="#c"/><use x="26.91" y="17.16" fill="#fff" href="#d"/><use x="103.31" y="17.16" fill="#fff" href="#e"/><use x="110.32" y="17.16" fill="#fff" href="#c"/><use x="115.67" y="17.16" fill="#fff" href="#f"/><use x="122.01" y="17.16" fill="#fff" href="#b"/><use x="127.21" y="17.16" fill="#fff" href="#d"/><path fill="none" stroke="#fff" stroke-miterlimit="10" stroke-width=".4" d="M4.25 25.51h130.4"/><path fill="#d4d4c8" stroke="#585858" stroke-miterlimit="10" stroke-width=".4" d="M8.5 56.11V42.25a3 3 0 0 1 3-3h13.85a3 3 0 0 1 3 3v13.86a3 3 0 0 1-3 3H11.5a3 3 0 0 1-2.99-3zm0 0"/><path fill="#ececd7" d="M11.34 53.28V43.1a2 2 0 0 1 2-1.99h10.18a2 2 0 0 1 2 2v10.18a2 2 0 0 1-2 2H13.33a2 2 0 0 1-2-2m0 0"/><use x="16.47" y="51.28" href="#g"/><use x="115.02" y="52.64" fill="#fff" href="#h"/><path fill="#d4d4c8" stroke="#585858" stroke-miterlimit="10" stroke-width=".4" d="M8.5 84.46V70.6a3 3 0 0 1 3-3h33.7a3 3 0 0 1 2.99 3v13.86a3 3 0 0 1-2.99 2.99H11.5a3 3 0 0 1-3-2.99zm0 0"/><path fill="#ececd7" d="M11.34 81.63V71.44a2 2 0 0 1 2-2h30.02a2 2 0 0 1 2 2v10.19a2 2 0 0 1-2 2H13.33a2 2 0 0 1-2-2m0 0"/><use x="16.81" y="80.69" href="#i"/><use x="23.32" y="80.69" href="#j"/><use x="29.32" y="80.69" href="#k"/><use x="32.08" y="80.69" href="#l"/><use x="35.65" y="80.69" href="#m"/><path fill="#d4d4c8" stroke="#585858" stroke-miterlimit="10" stroke-width=".4" d="M60.95 84.46V70.6a3 3 0 0 1 2.98-3H77.8a3 3 0 0 1 2.99 3v13.86a3 3 0 0 1-2.99 2.99H63.93a3 3 0 0 1-2.99-2.99zm0 0"/><path fill="#ececd7" d="M63.78 81.63V71.44a2 2 0 0 1 2-2h10.18a2 2 0 0 1 2 2v10.19a2 2 0 0 1-2 2H65.77a2 2 0 0 1-1.99-2m0 0"/><use x="68.92" y="79.62" href="#g"/><use x="50.32" y="79.26" href="#n"/><use x="115.02" y="78.97" fill="#fff" href="#o"/><path fill="#d4d4c8" stroke="#585858" stroke-miterlimit="10" stroke-width=".4" d="M8.5 121.31v-13.86a3 3 0 0 1 3-3h13.85a3 3 0 0 1 3 3v13.86a3 3 0 0 1-3 3H11.5a3 3 0 0 1-2.99-3zm0 0"/><path fill="#ececd7" d="M11.34 118.48v-10.19a2 2 0 0 1 2-1.99h10.18a2 2 0 0 1 2 2v10.18a2 2 0 0 1-2 2H13.33a2 2 0 0 1-2-2m0 0"/><use x="14.84" y="116.72" href="#p"/><use x="115.02" y="118.19" fill="#fff" href="#q"/><path fill="#d4d4c8" d="M8.5 149.66v-13.87a3 3 0 0 1 3-2.98h33.7a3 3 0 0 1 2.99 2.98v13.87a3 3 0 0 1-2.99 2.99H11.5a3 3 0 0 1-3-2.99m0 0"/><g clip-path="url(#r)"><path fill="none" stroke="#585858" stroke-miterlimit="10" stroke-width=".4" d="M8.5 149.66v-13.87a3 3 0 0 1 3-2.98h33.7a3 3 0 0 1 2.99 2.98v13.87a3 3 0 0 1-2.99 2.99H11.5a3 3 0 0 1-3-2.99zm0 0"/></g><path fill="#ececd7" d="M11.34 146.83v-10.19a2 2 0 0 1 2-2h30.02a2 2 0 0 1 2 2v10.19a2 2 0 0 1-2 1.99H13.33a2 2 0 0 1-2-2m0 0"/><use x="16.81" y="145.88" href="#i"/><use x="23.32" y="145.88" href="#j"/><use x="29.32" y="145.88" href="#k"/><use x="32.08" y="145.88" href="#l"/><use x="35.65" y="145.88" href="#m"/><path fill="#d4d4c8" d="M60.95 149.66v-13.87a3 3 0 0 1 2.98-2.98H77.8a3 3 0 0 1 2.99 2.98v13.87a3 3 0 0 1-2.99 2.99H63.93a3 3 0 0 1-2.99-2.99m0 0"/><g clip-path="url(#s)"><path fill="none" stroke="#585858" stroke-miterlimit="10" stroke-width=".4" d="M60.95 149.66v-13.87a3 3 0 0 1 2.98-2.98H77.8a3 3 0 0 1 2.99 2.98v13.87a3 3 0 0 1-2.99 2.99H63.93a3 3 0 0 1-2.99-2.99zm0 0"/></g><path fill="#ececd7" d="M63.78 146.83v-10.19a2 2 0 0 1 2-2h10.18a2 2 0 0 1 2 2v10.19a2 2 0 0 1-2 1.99H65.77a2 2 0 0 1-1.99-2m0 0"/><use x="67.28" y="145.07" href="#p"/><use x="50.32" y="144.46" href="#n"/><use x="115.02" y="148.39" fill="#fff" href="#t"/></svg>