<svg height="758.4" stroke-linejoin="round" viewBox="0 0 568.8 568.8" width="758.4" xmlns="http://www.w3.org/2000/svg" xmlns:xlink="http://www.w3.org/1999/xlink"><defs><path id="x" d="M9.422 54.688h8.984V0H9.422zm0 21.296h8.984v-11.39H9.422z" stroke-linejoin="round"/><path id="V" d="M9.813 72.906h13.28l32.329-60.984v60.984h9.562V0h-13.28L19.39 60.984V0H9.813z" stroke-linejoin="round"/><path id="b" d="M0 0v3.5" stroke="#000" stroke-linejoin="round" stroke-width=".8"/><path id="c" d="M9.813 72.906h14.703l18.593-49.61 18.703 49.61h14.704V0H66.89v64.016l-18.797-50h-9.907l-18.796 50V0H9.813z" stroke-linejoin="round"/><path id="d" d="M34.281 27.484q-10.89 0-15.093-2.484-4.204-2.484-4.204-8.5 0-4.781 3.157-7.594 3.156-2.797 8.562-2.797 7.485 0 12 5.297 4.516 5.297 4.516 14.078v2zm17.922 3.72V0H43.22v8.297Q40.14 3.328 35.547.953q-4.594-2.375-11.234-2.375-8.391 0-13.36 4.719Q6 8.016 6 15.922q0 9.219 6.172 13.906 6.187 4.688 18.437 4.688h12.61v.89q0 6.203-4.078 9.594-4.078 3.39-11.453 3.39-4.688 0-9.141-1.124-4.438-1.125-8.531-3.375v8.312q4.921 1.906 9.562 2.844 4.64.953 9.031.953 11.875 0 17.735-6.156 5.86-6.14 5.86-18.64z" stroke-linejoin="round"/><path id="e" d="M41.11 46.297q-1.516.875-3.297 1.281Q36.03 48 33.89 48q-7.625 0-11.703-4.953-4.079-4.953-4.079-14.234V0H9.08v54.688h9.03v-8.5q2.844 4.984 7.375 7.39Q30.031 56 36.531 56q.922 0 2.047-.125 1.125-.11 2.484-.36z" stroke-linejoin="round"/><path id="f" d="M19.188 8.297h34.421V0H7.33v8.297q5.609 5.812 15.296 15.594 9.703 9.797 12.188 12.64 4.734 5.313 6.609 9 1.89 3.688 1.89 7.25 0 5.813-4.078 9.469-4.078 3.672-10.625 3.672-4.64 0-9.797-1.61-5.14-1.609-11-4.89v9.969Q13.767 71.78 18.938 73q5.188 1.219 9.485 1.219 11.328 0 18.062-5.672 6.735-5.656 6.735-15.125 0-4.5-1.688-8.531-1.672-4.016-6.125-9.485-1.218-1.422-7.765-8.187-6.532-6.766-18.453-18.922z" stroke-linejoin="round"/><path id="g" d="M31.781 66.406q-7.61 0-11.453-7.5Q16.5 51.422 16.5 36.375q0-14.984 3.828-22.484 3.844-7.5 11.453-7.5 7.672 0 11.5 7.5 3.844 7.5 3.844 22.484 0 15.047-3.844 22.531-3.828 7.5-11.5 7.5zm0 7.813q12.266 0 18.735-9.703 6.468-9.688 6.468-28.141 0-18.406-6.468-28.11-6.47-9.687-18.735-9.687-12.25 0-18.718 9.688-6.47 9.703-6.47 28.109 0 18.453 6.47 28.14Q19.53 74.22 31.78 74.22z" stroke-linejoin="round"/><path id="h" d="M34.188 63.188L20.797 26.906h26.812zm-5.579 9.718h11.188L67.578 0h-10.25l-6.64 18.703h-32.86L11.188 0H.78z" stroke-linejoin="round"/><path id="i" d="M18.11 8.203v-29H9.077v75.484h9.031v-8.296q2.844 4.875 7.157 7.234Q29.594 56 35.594 56q9.968 0 16.187-7.906 6.235-7.907 6.235-20.797T51.78 6.484q-6.218-7.906-16.187-7.906-6 0-10.328 2.375-4.313 2.375-7.157 7.25zm30.578 19.094q0 9.906-4.079 15.547-4.078 5.64-11.203 5.64-7.14 0-11.218-5.64-4.079-5.64-4.079-15.547 0-9.906 4.078-15.547 4.079-5.64 11.22-5.64 7.124 0 11.202 5.64t4.078 15.547z" stroke-linejoin="round"/><path id="j" d="M32.172-5.078q-3.797-9.766-7.422-12.735-3.61-2.984-9.656-2.984H7.906v7.516h5.282q3.703 0 5.75 1.765Q21-9.766 23.483-3.219l1.61 4.094-22.11 53.813H12.5l17.094-42.766 17.093 42.766h9.516z" stroke-linejoin="round"/><path id="k" d="M0 0v2" stroke="#000" stroke-linejoin="round" stroke-width=".6"/><path id="l" d="M10.984 1.516V10.5q3.72-1.766 7.516-2.688 3.813-.921 7.484-.921 9.766 0 14.907 6.562 5.156 6.563 5.89 19.953-2.828-4.203-7.187-6.453-4.344-2.25-9.61-2.25-10.937 0-17.312 6.61-6.375 6.625-6.375 18.109 0 11.219 6.64 18 6.641 6.797 17.672 6.797 12.657 0 19.313-9.703 6.672-9.688 6.672-28.141 0-17.234-8.188-27.516Q40.234-1.42 26.422-1.42q-3.719 0-7.531.734-3.797.734-7.907 2.203zM30.61 32.422q6.641 0 10.516 4.531 3.89 4.547 3.89 12.469 0 7.86-3.89 12.422-3.875 4.562-10.516 4.562-6.64 0-10.515-4.562-3.875-4.563-3.875-12.422 0-7.922 3.875-12.469 3.875-4.531 10.515-4.531z" stroke-linejoin="round"/><path id="m" d="M12.406 8.297h16.11v55.625l-17.532-3.516v8.985l17.438 3.515h9.86V8.296H54.39V0H12.406z" stroke-linejoin="round"/><path id="n" d="M33.016 40.375q-6.641 0-10.532-4.547-3.875-4.531-3.875-12.437 0-7.86 3.875-12.438 3.891-4.562 10.532-4.562 6.64 0 10.515 4.562 3.875 4.578 3.875 12.438 0 7.906-3.875 12.437-3.875 4.547-10.515 4.547zm19.578 30.922v-8.984q-3.719 1.75-7.5 2.671-3.782.938-7.5.938-9.766 0-14.922-6.594-5.14-6.594-5.875-19.922 2.875 4.25 7.219 6.516 4.359 2.266 9.578 2.266 10.984 0 17.36-6.672 6.374-6.657 6.374-18.125 0-11.235-6.64-18.032-6.641-6.78-17.672-6.78-12.657 0-19.344 9.687-6.688 9.703-6.688 28.109 0 17.281 8.204 27.563 8.203 10.28 22.015 10.28 3.719 0 7.5-.734t7.89-2.187z" stroke-linejoin="round"/><path id="o" d="M40.578 39.313Q47.656 37.797 51.625 33q3.984-4.781 3.984-11.813 0-10.78-7.422-16.703-7.421-5.906-21.093-5.906-4.578 0-9.438.906-4.86.907-10.031 2.72v9.515q4.094-2.39 8.969-3.61 4.89-1.218 10.218-1.218 9.266 0 14.125 3.656 4.86 3.656 4.86 10.64 0 6.454-4.516 10.079-4.515 3.64-12.562 3.64h-8.5v8.11h8.89q7.266 0 11.125 2.906 3.86 2.906 3.86 8.375 0 5.61-3.985 8.61-3.968 3.015-11.39 3.015-4.063 0-8.703-.89-4.641-.876-10.203-2.72v8.782q5.624 1.562 10.53 2.344 4.907.78 9.25.78 11.235 0 17.766-5.109 6.547-5.093 6.547-13.78 0-6.063-3.468-10.235-3.47-4.172-9.86-5.782z" stroke-linejoin="round"/><path id="p" d="M8.203 72.906h46.875v-4.203L28.61 0H18.312L43.22 64.594H8.203z" stroke-linejoin="round"/><path id="q" d="M0 0h-3.5" stroke="#000" stroke-linejoin="round" stroke-width=".8"/><path id="r" d="M37.797 64.313L12.89 25.39h24.906zm-2.594 8.593H47.61V25.391h10.407v-8.203H47.609V0h-9.812v17.188H4.89v9.515z" stroke-linejoin="round"/><path id="s" d="M31.781 34.625q-7.031 0-11.062-3.766-4.016-3.765-4.016-10.343 0-6.594 4.016-10.36Q24.75 6.391 31.78 6.391q7.032 0 11.078 3.78 4.063 3.798 4.063 10.345 0 6.578-4.031 10.343-4.016 3.766-11.11 3.766zm-9.86 4.188q-6.343 1.562-9.89 5.906Q8.5 49.079 8.5 55.329q0 8.733 6.219 13.812 6.234 5.078 17.062 5.078 10.89 0 17.094-5.078 6.203-5.079 6.203-13.813 0-6.25-3.547-10.61-3.531-4.343-9.828-5.906 7.125-1.656 11.094-6.5 3.984-4.828 3.984-11.796 0-10.61-6.468-16.282-6.47-5.656-18.532-5.656-12.047 0-18.531 5.656-6.469 5.672-6.469 16.282 0 6.968 4 11.797 4.016 4.843 11.14 6.5zM18.314 54.39q0-5.657 3.53-8.828 3.548-3.172 9.938-3.172 6.36 0 9.938 3.172 3.593 3.171 3.593 8.828 0 5.672-3.593 8.843-3.578 3.172-9.938 3.172-6.39 0-9.937-3.172-3.532-3.172-3.532-8.843z" stroke-linejoin="round"/><path id="t" d="M30.61 48.39q-7.22 0-11.422-5.64-4.204-5.64-4.204-15.453 0-9.813 4.172-15.453 4.188-5.64 11.453-5.64 7.188 0 11.375 5.655 4.203 5.672 4.203 15.438 0 9.719-4.203 15.406-4.187 5.688-11.375 5.688zm0 7.61q11.718 0 18.406-7.625 6.703-7.61 6.703-21.078 0-13.422-6.703-21.078-6.688-7.64-18.407-7.64-11.765 0-18.437 7.64-6.656 7.656-6.656 21.078 0 13.469 6.656 21.078Q18.844 56 30.609 56z" stroke-linejoin="round"/><path id="u" d="M9.422 75.984h8.984V0H9.422z" stroke-linejoin="round"/><path id="v" d="M45.406 46.39v29.594h8.985V0h-8.985v8.203Q42.578 3.328 38.25.953q-4.313-2.375-10.375-2.375-9.906 0-16.14 7.906-6.22 7.922-6.22 20.813 0 12.89 6.22 20.797Q17.968 56 27.874 56q6.063 0 10.375-2.375 4.328-2.36 7.156-7.234zm-30.61-19.093q0-9.906 4.079-15.547 4.078-5.64 11.203-5.64 7.125 0 11.219 5.64 4.11 5.64 4.11 15.547 0 9.906-4.11 15.547-4.094 5.64-11.219 5.64-7.125 0-11.203-5.64-4.078-5.64-4.078-15.547z" stroke-linejoin="round"/><path id="w" d="M4.203 54.688h8.985l11.234-42.672 11.172 42.672h10.593l11.235-42.672 11.187 42.672h8.985L63.28 0H52.688L40.922 44.828 29.109 0H18.5z" stroke-linejoin="round"/><path id="U" d="M10.797 72.906h38.719v-8.312H19.828v-17.86q2.14.735 4.281 1.094 2.157.36 4.313.36 12.203 0 19.328-6.688 7.14-6.688 7.14-18.11 0-11.765-7.328-18.296-7.328-6.516-20.656-6.516-4.593 0-9.36.781-4.75.782-9.827 2.344v9.922q4.39-2.39 9.078-3.563 4.687-1.171 9.906-1.171 8.453 0 13.375 4.437 4.938 4.438 4.938 12.063 0 7.609-4.938 12.047-4.922 4.453-13.375 4.453-3.953 0-7.89-.875-3.922-.875-8.016-2.735z" stroke-linejoin="round"/><path id="y" d="M56.203 29.594v-4.39H14.891q.593-9.282 5.593-14.142 5-4.859 13.938-4.859 5.172 0 10.031 1.266 4.86 1.265 9.656 3.812v-8.5Q49.266.734 44.187-.344 39.11-1.422 33.892-1.422q-13.094 0-20.735 7.61-7.64 7.625-7.64 20.625 0 13.421 7.25 21.296Q20.016 56 32.328 56q11.031 0 17.453-7.11 6.422-7.093 6.422-19.296zm-8.984 2.64q-.094 7.36-4.125 11.75-4.032 4.407-10.672 4.407-7.516 0-12.031-4.25-4.516-4.25-5.203-11.97z" stroke-linejoin="round"/><path id="z" d="M-3 0h6M0 3v-6" stroke="#1f77b4" stroke-linejoin="round"/><path id="A" d="M0 1.5a1.5 1.5 0 100-3 1.5 1.5 0 000 3z" stroke="#ff7f0e" stroke-linejoin="round"/><path id="B" d="M-3 0h6M0 3v-6" stroke="#d62728" stroke-linejoin="round"/><path id="C" d="M0 1.5a1.5 1.5 0 100-3 1.5 1.5 0 000 3z" stroke="#9467bd" stroke-linejoin="round"/><path id="D" d="M48.781 52.594v-8.407q-3.812 2.11-7.64 3.157-3.828 1.047-7.735 1.047-8.75 0-13.593-5.547-4.829-5.532-4.829-15.547 0-10.016 4.829-15.563 4.843-5.53 13.593-5.53 3.907 0 7.735 1.046 3.828 1.047 7.64 3.156V2.094Q45.016.344 40.984-.531q-4.015-.89-8.562-.89-12.36 0-19.64 7.765-7.266 7.765-7.266 20.953 0 13.375 7.343 21.031Q20.22 56 33.016 56q4.14 0 8.093-.86 3.953-.843 7.672-2.546z" stroke-linejoin="round"/><path id="E" d="M18.313 70.219V54.688h18.5v-6.985h-18.5V18.016q0-6.688 1.828-8.594 1.828-1.906 7.453-1.906h9.218V0h-9.218q-10.407 0-14.36 3.875-3.953 3.89-3.953 14.14v29.688H2.687v6.984h6.594V70.22z" stroke-linejoin="round"/><path id="F" d="M2.984 54.688H12.5L29.594 8.797l17.093 45.89h9.516L35.687 0H23.485z" stroke-linejoin="round"/><path id="G" d="M64.406 67.281v-10.39q-4.984 4.64-10.625 6.922-5.64 2.296-11.984 2.296-12.5 0-19.14-7.64-6.641-7.64-6.641-22.094 0-14.406 6.64-22.047 6.64-7.64 19.14-7.64 6.345 0 11.985 2.296 5.64 2.297 10.625 6.938V5.609Q59.234 2.094 53.437.33q-5.78-1.75-12.218-1.75-16.563 0-26.094 10.124-9.516 10.14-9.516 27.672 0 17.578 9.516 27.703 9.531 10.14 26.094 10.14 6.531 0 12.312-1.734 5.797-1.734 10.875-5.203z" stroke-linejoin="round"/><path id="H" d="M9.813 72.906h9.859V0h-9.86z" stroke-linejoin="round"/><path id="I" d="M4.89 31.39h26.313v-8H4.891z" stroke-linejoin="round"/><path id="J" d="M44.281 53.078v-8.5q-3.797 1.953-7.906 2.922-4.094.984-8.5.984-6.688 0-10.031-2.047-3.344-2.046-3.344-6.156 0-3.125 2.39-4.906 2.391-1.781 9.626-3.39l3.078-.688q9.562-2.047 13.593-5.781 4.032-3.735 4.032-10.422 0-7.625-6.032-12.078-6.03-4.438-16.578-4.438-4.39 0-9.156.86Q10.688.296 5.422 2v9.281q4.984-2.594 9.812-3.89 4.829-1.282 9.579-1.282 6.343 0 9.75 2.172 3.421 2.172 3.421 6.125 0 3.656-2.468 5.61-2.453 1.953-10.813 3.765l-3.125.735q-8.344 1.75-12.062 5.39-3.704 3.64-3.704 9.985 0 7.718 5.47 11.906Q16.75 56 26.811 56q4.97 0 9.36-.734 4.406-.72 8.11-2.188z" stroke-linejoin="round"/><path id="K" d="M37.11 75.984V68.5h-8.594q-4.828 0-6.72-1.953-1.874-1.953-1.874-7.031v-4.828h14.797v-6.985H19.922V0H10.89v47.703H2.297v6.984h8.594V58.5q0 9.125 4.25 13.297 4.25 4.187 13.468 4.187z" stroke-linejoin="round"/><path id="L" d="M8.688 72.906h9.921V28.61q0-11.718 4.235-16.875 4.25-5.14 13.781-5.14 9.469 0 13.719 5.14 4.25 5.157 4.25 16.875v44.297H64.5V27.391q0-14.25-7.063-21.532-7.046-7.28-20.812-7.28-13.828 0-20.89 7.28-7.047 7.282-7.047 21.532z" stroke-linejoin="round"/><path id="M" d="M53.516 70.516V60.89q-5.61 2.687-10.594 4-4.984 1.328-9.625 1.328-8.047 0-12.422-3.125t-4.375-8.89q0-4.845 2.906-7.313 2.907-2.453 11.016-3.97l5.953-1.218q11.031-2.11 16.281-7.406 5.25-5.297 5.25-14.172 0-10.61-7.11-16.078-7.093-5.469-20.812-5.469-5.172 0-11.015 1.172Q13.14.922 6.89 3.219v10.156q6-3.36 11.765-5.078 5.766-1.703 11.328-1.703 8.438 0 13.032 3.312 4.593 3.328 4.593 9.485 0 5.359-3.297 8.39-3.296 3.032-10.812 4.547L27.484 33.5q-11.03 2.188-15.968 6.875-4.922 4.688-4.922 13.047 0 9.672 6.812 15.234 6.813 5.563 18.766 5.563 5.14 0 10.453-.938 5.328-.922 10.89-2.765z" stroke-linejoin="round"/><path id="N" d="M31 75.875q-6.531-11.219-9.719-22.219-3.172-10.984-3.172-22.265 0-11.266 3.203-22.328Q24.517-2 31-13.188h-7.813Q15.875-1.704 12.235 9.375q-3.64 11.078-3.64 22.016 0 10.89 3.61 21.922 3.624 11.046 10.983 22.562z" stroke-linejoin="round"/><path id="O" d="M8.5 21.578v33.11h8.984V21.922q0-7.766 3.016-11.656 3.031-3.875 9.094-3.875 7.265 0 11.484 4.64 4.234 4.64 4.234 12.656v31h8.985V0h-8.984v8.406Q42.047 3.422 37.718 1q-4.313-2.422-10.032-2.422-9.421 0-14.312 5.86Q8.5 10.296 8.5 21.578z" stroke-linejoin="round"/><path id="P" d="M48.688 27.297q0 9.906-4.079 15.547-4.078 5.64-11.203 5.64-7.14 0-11.218-5.64-4.079-5.64-4.079-15.547 0-9.906 4.078-15.547 4.079-5.64 11.22-5.64 7.124 0 11.202 5.64t4.078 15.547zM18.108 46.39q2.844 4.875 7.157 7.234Q29.594 56 35.594 56q9.968 0 16.187-7.906 6.235-7.907 6.235-20.797T51.78 6.484q-6.218-7.906-16.187-7.906-6 0-10.328 2.375-4.313 2.375-7.157 7.25V0H9.08v75.984h9.03z" stroke-linejoin="round"/><path id="Q" d="M54.89 33.016V0h-8.984v32.719q0 7.765-3.031 11.61-3.031 3.858-9.078 3.858-7.281 0-11.484-4.64-4.204-4.625-4.204-12.64V0H9.08v54.688h9.03v-8.5q3.235 4.937 7.594 7.374Q30.078 56 35.797 56q9.422 0 14.25-5.828 4.844-5.828 4.844-17.156z" stroke-linejoin="round"/><path id="R" d="M10.688 12.406H21V0H10.687z" stroke-linejoin="round"/><path id="S" d="M8.016 75.875h7.812q7.313-11.516 10.953-22.563 3.64-11.03 3.64-21.921 0-10.938-3.64-22.016-3.64-11.078-10.953-22.563H8.016Q14.5-2 17.703 9.063q3.203 11.063 3.203 22.329 0 11.28-3.203 22.265-3.203 11-9.687 22.219z" stroke-linejoin="round"/><clipPath id="T" stroke-linejoin="round"><path d="M70.22 298.613h484.495v207.315H70.22z"/></clipPath><clipPath id="a" stroke-linejoin="round"><path d="M70.22 25.44h484.495v207.315H70.22z"/></clipPath></defs><path d="M0 568.8h568.8V0H0z" fill="#fff"/><path d="M70.22 232.755h484.495V25.44H70.22z" fill="#fff"/><path clip-path="url(#a)" d="M70.22 232.755V25.44" fill="none" stroke="#b0b0b0" stroke-linecap="square" stroke-width=".8"/><use stroke="#000" stroke-width=".8" x="70.22" xlink:href="#b" y="232.755"/><g transform="matrix(.1 0 0 -.1 60.786 269.75)"><use xlink:href="#c"/><use x="86.279" xlink:href="#d"/><use x="147.559" xlink:href="#e"/></g><g transform="matrix(.1 0 0 -.1 57.495 280.947)"><use xlink:href="#f"/><use x="63.623" xlink:href="#g"/><use x="127.246" xlink:href="#f"/><use x="190.869" xlink:href="#g"/></g><path clip-path="url(#a)" d="M312.467 232.755V25.44" fill="none" stroke="#b0b0b0" stroke-linecap="square" stroke-width=".8"/><use stroke="#000" stroke-width=".8" x="312.467" xlink:href="#b" y="232.755"/><g transform="matrix(.1 0 0 -.1 303.817 269.75)"><use xlink:href="#h"/><use x="68.408" xlink:href="#i"/><use x="131.885" xlink:href="#e"/></g><path clip-path="url(#a)" d="M546.9 232.755V25.44" fill="none" stroke="#b0b0b0" stroke-linecap="square" stroke-width=".8"/><use stroke="#000" stroke-width=".8" x="546.901" xlink:href="#b" y="232.755"/><g transform="matrix(.1 0 0 -.1 536.563 269.75)"><use xlink:href="#c"/><use x="86.279" xlink:href="#d"/><use x="147.559" xlink:href="#j"/></g><g stroke-width=".8"><path clip-path="url(#a)" d="M554.715 232.755V25.44" fill="none" stroke="#b0b0b0" stroke-linecap="square"/><use stroke="#000" x="554.715" xlink:href="#b" y="232.755"/></g><use stroke="#000" stroke-width=".6" x="78.034" xlink:href="#k" y="232.755"/><g transform="matrix(.1 0 0 -.1 71.672 245.754)"><use xlink:href="#g"/><use x="63.623" xlink:href="#f"/></g><g stroke="#000" stroke-width=".6"><use x="85.849" xlink:href="#k" y="232.755"/><use x="93.663" xlink:href="#k" y="232.755"/><use x="101.478" xlink:href="#k" y="232.755"/><use x="109.292" xlink:href="#k" y="232.755"/><use x="117.107" xlink:href="#k" y="232.755"/><use x="124.921" xlink:href="#k" y="232.755"/></g><use stroke="#000" stroke-width=".6" x="132.735" xlink:href="#k" y="232.755"/><g transform="matrix(.1 0 0 -.1 126.373 245.754)"><use xlink:href="#g"/><use x="63.623" xlink:href="#l"/></g><use stroke="#000" stroke-width=".6" x="140.55" xlink:href="#k" y="232.755"/><use stroke="#000" stroke-width=".6" x="148.364" xlink:href="#k" y="232.755"/><use stroke="#000" stroke-width=".6" x="156.179" xlink:href="#k" y="232.755"/><use stroke="#000" stroke-width=".6" x="163.993" xlink:href="#k" y="232.755"/><use stroke="#000" stroke-width=".6" x="171.808" xlink:href="#k" y="232.755"/><use stroke="#000" stroke-width=".6" x="179.622" xlink:href="#k" y="232.755"/><use stroke="#000" stroke-width=".6" x="187.437" xlink:href="#k" y="232.755"/><g transform="matrix(.1 0 0 -.1 181.074 245.754)"><use xlink:href="#m"/><use x="63.623" xlink:href="#n"/></g><use stroke="#000" stroke-width=".6" x="195.251" xlink:href="#k" y="232.755"/><use stroke="#000" stroke-width=".6" x="203.065" xlink:href="#k" y="232.755"/><use stroke="#000" stroke-width=".6" x="210.88" xlink:href="#k" y="232.755"/><use stroke="#000" stroke-width=".6" x="218.694" xlink:href="#k" y="232.755"/><use stroke="#000" stroke-width=".6" x="226.509" xlink:href="#k" y="232.755"/><use stroke="#000" stroke-width=".6" x="234.323" xlink:href="#k" y="232.755"/><use stroke="#000" stroke-width=".6" x="242.138" xlink:href="#k" y="232.755"/><g transform="matrix(.1 0 0 -.1 235.775 245.754)"><use xlink:href="#f"/><use x="63.623" xlink:href="#o"/></g><use stroke="#000" stroke-width=".6" x="249.952" xlink:href="#k" y="232.755"/><use stroke="#000" stroke-width=".6" x="257.766" xlink:href="#k" y="232.755"/><use stroke="#000" stroke-width=".6" x="265.581" xlink:href="#k" y="232.755"/><use stroke="#000" stroke-width=".6" x="273.395" xlink:href="#k" y="232.755"/><use stroke="#000" stroke-width=".6" x="281.21" xlink:href="#k" y="232.755"/><use stroke="#000" stroke-width=".6" x="289.024" xlink:href="#k" y="232.755"/><use stroke="#000" stroke-width=".6" x="296.839" xlink:href="#k" y="232.755"/><g transform="matrix(.1 0 0 -.1 290.476 245.754)"><use xlink:href="#o"/><use x="63.623" xlink:href="#g"/></g><use stroke="#000" stroke-width=".6" x="304.653" xlink:href="#k" y="232.755"/><use stroke="#000" stroke-width=".6" x="320.282" xlink:href="#k" y="232.755"/><use stroke="#000" stroke-width=".6" x="328.096" xlink:href="#k" y="232.755"/><use stroke="#000" stroke-width=".6" x="335.911" xlink:href="#k" y="232.755"/><use stroke="#000" stroke-width=".6" x="343.725" xlink:href="#k" y="232.755"/><use stroke="#000" stroke-width=".6" x="351.54" xlink:href="#k" y="232.755"/><g transform="matrix(.1 0 0 -.1 345.177 245.754)"><use xlink:href="#g"/><use x="63.623" xlink:href="#n"/></g><use stroke="#000" stroke-width=".6" x="359.354" xlink:href="#k" y="232.755"/><use stroke="#000" stroke-width=".6" x="367.169" xlink:href="#k" y="232.755"/><use stroke="#000" stroke-width=".6" x="374.983" xlink:href="#k" y="232.755"/><use stroke="#000" stroke-width=".6" x="382.797" xlink:href="#k" y="232.755"/><use stroke="#000" stroke-width=".6" x="390.612" xlink:href="#k" y="232.755"/><use stroke="#000" stroke-width=".6" x="398.426" xlink:href="#k" y="232.755"/><use stroke="#000" stroke-width=".6" x="406.241" xlink:href="#k" y="232.755"/><g transform="matrix(.1 0 0 -.1 399.878 245.754)"><use xlink:href="#m"/><use x="63.623" xlink:href="#o"/></g><use stroke="#000" stroke-width=".6" x="414.055" xlink:href="#k" y="232.755"/><use stroke="#000" stroke-width=".6" x="421.87" xlink:href="#k" y="232.755"/><use stroke="#000" stroke-width=".6" x="429.684" xlink:href="#k" y="232.755"/><use stroke="#000" stroke-width=".6" x="437.498" xlink:href="#k" y="232.755"/><use stroke="#000" stroke-width=".6" x="445.313" xlink:href="#k" y="232.755"/><use stroke="#000" stroke-width=".6" x="453.127" xlink:href="#k" y="232.755"/><g><use stroke="#000" stroke-width=".6" x="460.942" xlink:href="#k" y="232.755"/><g transform="matrix(.1 0 0 -.1 454.58 245.754)"><use xlink:href="#f"/><use x="63.623" xlink:href="#g"/></g></g><use stroke="#000" stroke-width=".6" x="468.756" xlink:href="#k" y="232.755"/><use stroke="#000" stroke-width=".6" x="476.571" xlink:href="#k" y="232.755"/><use stroke="#000" stroke-width=".6" x="484.385" xlink:href="#k" y="232.755"/><use stroke="#000" stroke-width=".6" x="492.2" xlink:href="#k" y="232.755"/><use stroke="#000" stroke-width=".6" x="500.014" xlink:href="#k" y="232.755"/><use stroke="#000" stroke-width=".6" x="507.828" xlink:href="#k" y="232.755"/><g><use stroke="#000" stroke-width=".6" x="515.643" xlink:href="#k" y="232.755"/><g transform="matrix(.1 0 0 -.1 509.28 245.754)"><use xlink:href="#f"/><use x="63.623" xlink:href="#p"/></g></g><use stroke="#000" stroke-width=".6" x="523.457" xlink:href="#k" y="232.755"/><use stroke="#000" stroke-width=".6" x="531.272" xlink:href="#k" y="232.755"/><use stroke="#000" stroke-width=".6" x="539.086" xlink:href="#k" y="232.755"/><g><path clip-path="url(#a)" d="M70.22 189.697h484.495" fill="none" stroke="#b0b0b0" stroke-linecap="square" stroke-width=".8"/><use stroke="#000" stroke-width=".8" x="70.22" xlink:href="#q" y="189.697"/><g transform="matrix(.1 0 0 -.1 25.045 193.497)"><use xlink:href="#f"/><use x="63.623" xlink:href="#g"/><use x="127.246" xlink:href="#g"/><use x="190.869" xlink:href="#g"/><use x="254.492" xlink:href="#g"/><use x="318.115" xlink:href="#g"/></g><path clip-path="url(#a)" d="M70.22 146.637h484.495" fill="none" stroke="#b0b0b0" stroke-linecap="square" stroke-width=".8"/><use stroke="#000" stroke-width=".8" x="70.22" xlink:href="#q" y="146.637"/><g transform="matrix(.1 0 0 -.1 25.045 150.436)"><use xlink:href="#r"/><use x="63.623" xlink:href="#g"/><use x="127.246" xlink:href="#g"/><use x="190.869" xlink:href="#g"/><use x="254.492" xlink:href="#g"/><use x="318.115" xlink:href="#g"/></g><g><path clip-path="url(#a)" d="M70.22 103.577h484.495" fill="none" stroke="#b0b0b0" stroke-linecap="square" stroke-width=".8"/><use stroke="#000" stroke-width=".8" x="70.22" xlink:href="#q" y="103.577"/><g transform="matrix(.1 0 0 -.1 25.045 107.376)"><use xlink:href="#n"/><use x="63.623" xlink:href="#g"/><use x="127.246" xlink:href="#g"/><use x="190.869" xlink:href="#g"/><use x="254.492" xlink:href="#g"/><use x="318.115" xlink:href="#g"/></g></g><g><path clip-path="url(#a)" d="M70.22 60.517h484.495" fill="none" stroke="#b0b0b0" stroke-linecap="square" stroke-width=".8"/><use stroke="#000" stroke-width=".8" x="70.22" xlink:href="#q" y="60.517"/><g transform="matrix(.1 0 0 -.1 25.045 64.316)"><use xlink:href="#s"/><use x="63.623" xlink:href="#g"/><use x="127.246" xlink:href="#g"/><use x="190.869" xlink:href="#g"/><use x="254.492" xlink:href="#g"/><use x="318.115" xlink:href="#g"/></g></g><g transform="matrix(0 -.1 -.1 0 18.965 155.445)"><path d="M3.328 72.906h9.953L28.61 11.281l15.282 61.625h11.093l15.328-61.625 15.282 61.625h10.015L77.297 0H64.89L49.516 63.281 33.984 0H21.578z"/><use x="98.799" xlink:href="#t"/><use x="159.98" xlink:href="#e"/><use x="201.094" xlink:href="#u"/><use x="228.877" xlink:href="#v"/><use x="292.354" xlink:href="#w"/><use x="374.141" xlink:href="#x"/><use x="401.924" xlink:href="#v"/><use x="465.4" xlink:href="#y"/></g></g><g stroke="#1f77b4"><path clip-path="url(#a)" d="M-1 232.752h16.519l7.814-.005H38.962l7.815-.001h7.814l7.815-.002 7.814-.001 7.814-.004 7.815-.004 7.814-.006 7.815-.015 7.814-.011 7.815-.03 7.814-.025 7.814-.014 7.815-.075 7.814-.068 7.815-.08 7.814-.11 7.815-.116 7.814-.165 7.815-.238 7.814-.38 7.814-.272 7.815-1.251 7.814-1.15 7.815-1.362 7.814-1.805 7.815-2.086 7.814-2.06 7.814-2.54 7.815-3.761 7.814-3.717 7.815-4.125 7.814-3.748 7.815-3.753 7.814-5.182 7.815-4.923 7.814-6.143 7.814-6.485 7.815-5.813 7.814-5.213 7.815-5.662 7.814-5.476 7.815-6.257 7.814-6.19 7.814-6.375 7.815-5.491 7.814-5.52 7.815-2.865 7.814-4.407 7.815-4.705 7.814-5.221 7.814-5.212 7.815-5.233 7.814-4.176 7.815-4.696 7.814-4.805 7.815-5.17 7.814-4.905 7.815-3.292 7.814-6.4 7.814-4.281 7.815-3.574 7.814-3.828 7.815-4.29" fill="none" stroke-linecap="square" stroke-width="1.5"/><g clip-path="url(#a)" fill="#1f77b4"><use x="-1" xlink:href="#z" y="232.752"/><use x="-.11" xlink:href="#z" y="232.751"/><use x="7.705" xlink:href="#z" y="232.751"/><use x="15.519" xlink:href="#z" y="232.751"/><use x="23.333" xlink:href="#z" y="232.747"/><use x="31.148" xlink:href="#z" y="232.748"/><use x="38.962" xlink:href="#z" y="232.746"/><use x="46.777" xlink:href="#z" y="232.746"/><use x="54.591" xlink:href="#z" y="232.746"/><use x="62.406" xlink:href="#z" y="232.744"/><use x="70.22" xlink:href="#z" y="232.743"/><use x="78.034" xlink:href="#z" y="232.739"/><use x="85.849" xlink:href="#z" y="232.735"/><use x="93.663" xlink:href="#z" y="232.729"/><use x="101.478" xlink:href="#z" y="232.714"/><use x="109.292" xlink:href="#z" y="232.703"/><use x="117.107" xlink:href="#z" y="232.673"/><use x="124.921" xlink:href="#z" y="232.648"/><use x="132.735" xlink:href="#z" y="232.634"/><use x="140.55" xlink:href="#z" y="232.559"/><use x="148.364" xlink:href="#z" y="232.491"/><use x="156.179" xlink:href="#z" y="232.411"/><use x="163.993" xlink:href="#z" y="232.301"/><use x="171.808" xlink:href="#z" y="232.185"/><use x="179.622" xlink:href="#z" y="232.02"/><use x="187.437" xlink:href="#z" y="231.782"/><use x="195.251" xlink:href="#z" y="231.402"/><use x="203.065" xlink:href="#z" y="231.13"/><use x="210.88" xlink:href="#z" y="229.879"/><use x="218.694" xlink:href="#z" y="228.729"/><use x="226.509" xlink:href="#z" y="227.367"/><use x="234.323" xlink:href="#z" y="225.562"/><use x="242.138" xlink:href="#z" y="223.476"/><use x="249.952" xlink:href="#z" y="221.415"/><use x="257.766" xlink:href="#z" y="218.876"/><use x="265.581" xlink:href="#z" y="215.115"/><use x="273.395" xlink:href="#z" y="211.398"/><use x="281.21" xlink:href="#z" y="207.273"/><use x="289.024" xlink:href="#z" y="203.525"/><use x="296.839" xlink:href="#z" y="199.772"/><use x="304.653" xlink:href="#z" y="194.59"/><use x="312.467" xlink:href="#z" y="189.667"/><use x="320.282" xlink:href="#z" y="183.524"/><use x="328.096" xlink:href="#z" y="177.039"/><use x="335.911" xlink:href="#z" y="171.226"/><use x="343.725" xlink:href="#z" y="166.013"/><use x="351.54" xlink:href="#z" y="160.351"/><use x="359.354" xlink:href="#z" y="154.875"/><use x="367.169" xlink:href="#z" y="148.618"/><use x="374.983" xlink:href="#z" y="142.428"/><use x="382.797" xlink:href="#z" y="136.053"/><use x="390.612" xlink:href="#z" y="130.562"/><use x="398.426" xlink:href="#z" y="125.041"/><use x="406.241" xlink:href="#z" y="122.177"/><use x="414.055" xlink:href="#z" y="117.77"/><use x="421.87" xlink:href="#z" y="113.065"/><use x="429.684" xlink:href="#z" y="107.844"/><use x="437.498" xlink:href="#z" y="102.632"/><use x="445.313" xlink:href="#z" y="97.399"/><use x="453.127" xlink:href="#z" y="93.223"/><use x="460.942" xlink:href="#z" y="88.527"/><use x="468.756" xlink:href="#z" y="83.722"/><use x="476.571" xlink:href="#z" y="78.552"/><use x="484.385" xlink:href="#z" y="73.647"/><use x="492.2" xlink:href="#z" y="70.355"/><use x="500.014" xlink:href="#z" y="63.956"/><use x="507.828" xlink:href="#z" y="59.674"/><use x="515.643" xlink:href="#z" y="56.1"/><use x="523.457" xlink:href="#z" y="52.272"/><use x="531.272" xlink:href="#z" y="47.981"/></g></g><g stroke="#ff7f0e"><path clip-path="url(#a)" d="M-1 232.757H46.777l7.814-.002h7.815l7.814-.003 7.814-.001 7.815-.003 7.814-.007 7.815-.006 7.814-.01 7.815-.007 7.814-.015 7.814-.01 7.815-.012 7.814-.016h7.815l7.814-.074 7.815-.07 7.814-.001 7.815-.08 7.814-.08 7.814-.141 7.815-.002 7.814-.27 7.815-.215 7.814-.13 7.815-.19 7.814-.29 7.814-.31 7.815-.44 7.814-.593 7.815-.496 7.814-.486 7.815-.533 7.814-.568 7.815-.822 7.814-.803 7.814-.82 7.815-.662 7.814-1.146 7.815-.72 7.814-.613 7.815-.983 7.814-.754 7.814-1.62 7.815-.929 7.814-.988 7.815-.854 7.814-.964 7.815-.824 7.814-.816 7.814-1.024 7.815-.998 7.814-1.128 7.815-.908 7.814-.71 7.815-.785 7.814-.848 7.815-.992 7.814-.875 7.814-.872 7.815-.844 7.814-.734 7.815.08" fill="none" stroke-linecap="square" stroke-width="1.5"/><g clip-path="url(#a)" fill="#ff7f0e"><use x="-1" xlink:href="#A" y="232.757"/><use x="-.11" xlink:href="#A" y="232.757"/><use x="7.705" xlink:href="#A" y="232.757"/><use x="15.519" xlink:href="#A" y="232.757"/><use x="23.333" xlink:href="#A" y="232.757"/><use x="31.148" xlink:href="#A" y="232.757"/><use x="38.962" xlink:href="#A" y="232.757"/><use x="46.777" xlink:href="#A" y="232.756"/><use x="54.591" xlink:href="#A" y="232.755"/><use x="62.406" xlink:href="#A" y="232.754"/><use x="70.22" xlink:href="#A" y="232.752"/><use x="78.034" xlink:href="#A" y="232.751"/><use x="85.849" xlink:href="#A" y="232.748"/><use x="93.663" xlink:href="#A" y="232.741"/><use x="101.478" xlink:href="#A" y="232.735"/><use x="109.292" xlink:href="#A" y="232.725"/><use x="117.107" xlink:href="#A" y="232.718"/><use x="124.921" xlink:href="#A" y="232.703"/><use x="132.735" xlink:href="#A" y="232.693"/><use x="140.55" xlink:href="#A" y="232.681"/><use x="148.364" xlink:href="#A" y="232.665"/><use x="156.179" xlink:href="#A" y="232.665"/><use x="163.993" xlink:href="#A" y="232.591"/><use x="171.808" xlink:href="#A" y="232.52"/><use x="179.622" xlink:href="#A" y="232.52"/><use x="187.437" xlink:href="#A" y="232.44"/><use x="195.251" xlink:href="#A" y="232.359"/><use x="203.065" xlink:href="#A" y="232.219"/><use x="210.88" xlink:href="#A" y="232.217"/><use x="218.694" xlink:href="#A" y="231.946"/><use x="226.509" xlink:href="#A" y="231.732"/><use x="234.323" xlink:href="#A" y="231.603"/><use x="242.138" xlink:href="#A" y="231.412"/><use x="249.952" xlink:href="#A" y="231.121"/><use x="257.766" xlink:href="#A" y="230.813"/><use x="265.581" xlink:href="#A" y="230.372"/><use x="273.395" xlink:href="#A" y="229.779"/><use x="281.21" xlink:href="#A" y="229.283"/><use x="289.024" xlink:href="#A" y="228.797"/><use x="296.839" xlink:href="#A" y="228.264"/><use x="304.653" xlink:href="#A" y="227.696"/><use x="312.467" xlink:href="#A" y="226.874"/><use x="320.282" xlink:href="#A" y="226.071"/><use x="328.096" xlink:href="#A" y="225.25"/><use x="335.911" xlink:href="#A" y="224.589"/><use x="343.725" xlink:href="#A" y="223.443"/><use x="351.54" xlink:href="#A" y="222.723"/><use x="359.354" xlink:href="#A" y="222.11"/><use x="367.169" xlink:href="#A" y="221.127"/><use x="374.983" xlink:href="#A" y="220.373"/><use x="382.797" xlink:href="#A" y="218.754"/><use x="390.612" xlink:href="#A" y="217.824"/><use x="398.426" xlink:href="#A" y="216.836"/><use x="406.241" xlink:href="#A" y="215.982"/><use x="414.055" xlink:href="#A" y="215.018"/><use x="421.87" xlink:href="#A" y="214.194"/><use x="429.684" xlink:href="#A" y="213.378"/><use x="437.498" xlink:href="#A" y="212.354"/><use x="445.313" xlink:href="#A" y="211.356"/><use x="453.127" xlink:href="#A" y="210.228"/><use x="460.942" xlink:href="#A" y="209.32"/><use x="468.756" xlink:href="#A" y="208.61"/><use x="476.571" xlink:href="#A" y="207.825"/><use x="484.385" xlink:href="#A" y="206.977"/><use x="492.2" xlink:href="#A" y="205.985"/><use x="500.014" xlink:href="#A" y="205.11"/><use x="507.828" xlink:href="#A" y="204.238"/><use x="515.643" xlink:href="#A" y="203.394"/><use x="523.457" xlink:href="#A" y="202.66"/><use x="531.272" xlink:href="#A" y="202.741"/></g></g><path clip-path="url(#a)" d="M-1 232.754h.89l7.815-.01 7.814-.019 7.814-.015 7.815-.02 7.814-.027 7.815-.033 7.814-.05 7.815-.05 7.814-.112 7.814-.055 7.815-.093 7.814-.095 7.815-.127 7.814-.133 7.815-.247 7.814-.286 7.814-.344 7.815-.174 7.814-.386h7.815l7.814-.94 7.815-.602 7.814-.614 7.815-.532 7.814-.644 7.814-.57 7.815-.964 7.814-1.154 7.815-.89 7.814-.852 7.815-.813 7.814-.778 7.814-.752 7.815-.967 7.814-.947 7.815-.786 7.814-.822 7.815-.355 7.814-.453 7.815-.633 7.814-.533 7.814-.504 7.815-.62 7.814-.64 7.815-.419 7.814-.19 7.815-.256 7.814-.348 7.814-.3 7.815-.43 7.814-.428 7.815-.293 7.814-.145 7.815-.243 7.814-.256 7.814-.076 7.815-.175 7.814-.104 7.815.004 7.814.114 7.815.002 7.814.183 7.815.07 7.814.146 7.814-.055 7.815.062 7.814.13 7.815.119" fill="none" stroke="#2ca02c" stroke-linecap="square" stroke-width="1.5"/><g stroke="#d62728"><path clip-path="url(#a)" d="M-1 232.756h24.333l7.815.001h7.814l7.815-.005 7.814-.004 7.815-.009 7.814-.006 7.814-.013 7.815-.003 7.814-.017 7.815-.02 7.814-.058 7.815-.064 7.814-.036 7.814-.018 7.815-.12 7.814-.105h7.815l7.814-.291 7.815-.173 7.814-.007 7.815-.448 7.814-.222 7.814-.295 7.815-.374 7.814-.332 7.815-.336 7.814.085 7.815-.8 7.814-.254 7.814-.458 7.815-.546 7.814-.603 7.815-.94 7.814-.174 7.815-.712 7.814-1.206 7.815-.619 7.814.145 7.814-.552 7.815-4.986 7.814-.35 7.815-.706 7.814-1.634 7.815-.306 7.814-.328 7.814-.943 7.815-.58 7.814-.339 7.815-.667 7.814 1.803 7.815.127 7.814-2.131 7.814.086 7.815.475 7.814-.851 7.815-.212 7.814-.107 7.815.91 7.814-.083 7.815.303 7.814-.048 7.814-.005 7.815-.58 7.814-.267 7.815.921" fill="none" stroke-linecap="square" stroke-width="1.5"/><g clip-path="url(#a)" fill="#d62728"><use x="-1" xlink:href="#B" y="232.756"/><use x="-.11" xlink:href="#B" y="232.756"/><use x="7.705" xlink:href="#B" y="232.756"/><use x="15.519" xlink:href="#B" y="232.756"/><use x="23.333" xlink:href="#B" y="232.756"/><use x="31.148" xlink:href="#B" y="232.757"/><use x="38.962" xlink:href="#B" y="232.757"/><use x="46.777" xlink:href="#B" y="232.752"/><use x="54.591" xlink:href="#B" y="232.748"/><use x="62.406" xlink:href="#B" y="232.739"/><use x="70.22" xlink:href="#B" y="232.733"/><use x="78.034" xlink:href="#B" y="232.72"/><use x="85.849" xlink:href="#B" y="232.717"/><use x="93.663" xlink:href="#B" y="232.7"/><use x="101.478" xlink:href="#B" y="232.68"/><use x="109.292" xlink:href="#B" y="232.622"/><use x="117.107" xlink:href="#B" y="232.558"/><use x="124.921" xlink:href="#B" y="232.522"/><use x="132.735" xlink:href="#B" y="232.504"/><use x="140.55" xlink:href="#B" y="232.383"/><use x="148.364" xlink:href="#B" y="232.279"/><use x="156.179" xlink:href="#B" y="232.279"/><use x="163.993" xlink:href="#B" y="231.988"/><use x="171.808" xlink:href="#B" y="231.815"/><use x="179.622" xlink:href="#B" y="231.808"/><use x="187.437" xlink:href="#B" y="231.36"/><use x="195.251" xlink:href="#B" y="231.138"/><use x="203.065" xlink:href="#B" y="230.843"/><use x="210.88" xlink:href="#B" y="230.469"/><use x="218.694" xlink:href="#B" y="230.137"/><use x="226.509" xlink:href="#B" y="229.801"/><use x="234.323" xlink:href="#B" y="229.886"/><use x="242.138" xlink:href="#B" y="229.086"/><use x="249.952" xlink:href="#B" y="228.832"/><use x="257.766" xlink:href="#B" y="228.374"/><use x="265.581" xlink:href="#B" y="227.828"/><use x="273.395" xlink:href="#B" y="227.225"/><use x="281.21" xlink:href="#B" y="226.285"/><use x="289.024" xlink:href="#B" y="226.111"/><use x="296.839" xlink:href="#B" y="225.399"/><use x="304.653" xlink:href="#B" y="224.193"/><use x="312.467" xlink:href="#B" y="223.574"/><use x="320.282" xlink:href="#B" y="223.719"/><use x="328.096" xlink:href="#B" y="223.167"/><use x="335.911" xlink:href="#B" y="218.181"/><use x="343.725" xlink:href="#B" y="217.831"/><use x="351.54" xlink:href="#B" y="217.125"/><use x="359.354" xlink:href="#B" y="215.491"/><use x="367.169" xlink:href="#B" y="215.185"/><use x="374.983" xlink:href="#B" y="214.857"/><use x="382.797" xlink:href="#B" y="213.914"/><use x="390.612" xlink:href="#B" y="213.335"/><use x="398.426" xlink:href="#B" y="212.995"/><use x="406.241" xlink:href="#B" y="212.328"/><use x="414.055" xlink:href="#B" y="214.131"/><use x="421.87" xlink:href="#B" y="214.258"/><use x="429.684" xlink:href="#B" y="212.127"/><use x="437.498" xlink:href="#B" y="212.213"/><use x="445.313" xlink:href="#B" y="212.688"/><use x="453.127" xlink:href="#B" y="211.837"/><use x="460.942" xlink:href="#B" y="211.625"/><use x="468.756" xlink:href="#B" y="211.518"/><use x="476.571" xlink:href="#B" y="212.428"/><use x="484.385" xlink:href="#B" y="212.345"/><use x="492.2" xlink:href="#B" y="212.648"/><use x="500.014" xlink:href="#B" y="212.6"/><use x="507.828" xlink:href="#B" y="212.595"/><use x="515.643" xlink:href="#B" y="212.015"/><use x="523.457" xlink:href="#B" y="211.748"/><use x="531.272" xlink:href="#B" y="212.669"/></g></g><g stroke="#9467bd"><path clip-path="url(#a)" d="M-1 232.758h24.333l7.815-.001 7.814-.002h7.815l7.814-.004 7.815-.003 7.814-.008 7.814-.008 7.815-.01 7.814-.011 7.815-.008 7.814-.03 7.815-.014 7.814-.036 7.814-.083 7.815-.133 7.814-.089h7.815l7.814-.617 7.815-.166 7.814-.283 7.815-.447 7.814-.24 7.814-.435 7.815-.823 7.814-.377 7.815-.882 7.814-.613 7.815-1.022 7.814-.821 7.814-1.554 7.815-1.272 7.814-1.037 7.815-.806 7.814-.782 7.815-1.046 7.814-1.02 7.815-.837 7.814-.622 7.814-.542 7.815-.54 7.814-.2 7.815-.424 7.814-.386 7.815-.155 7.814-.043 7.814-.197 7.815-.17 7.814.018 7.815-.083 7.814.136 7.815-.237 7.814-.592 7.814-1.12 7.815-.183 7.814-.857 7.815.451 7.814-.347 7.815-.08 7.814-.186 7.815-.703 7.814-.057 7.814 4.185 7.815.138 7.814.144 7.815 1.013" fill="none" stroke-linecap="square" stroke-width="1.5"/><g clip-path="url(#a)" fill="#9467bd"><use x="-1" xlink:href="#C" y="232.758"/><use x="-.11" xlink:href="#C" y="232.758"/><use x="7.705" xlink:href="#C" y="232.758"/><use x="15.519" xlink:href="#C" y="232.758"/><use x="23.333" xlink:href="#C" y="232.758"/><use x="31.148" xlink:href="#C" y="232.757"/><use x="38.962" xlink:href="#C" y="232.755"/><use x="46.777" xlink:href="#C" y="232.755"/><use x="54.591" xlink:href="#C" y="232.751"/><use x="62.406" xlink:href="#C" y="232.748"/><use x="70.22" xlink:href="#C" y="232.74"/><use x="78.034" xlink:href="#C" y="232.732"/><use x="85.849" xlink:href="#C" y="232.723"/><use x="93.663" xlink:href="#C" y="232.711"/><use x="101.478" xlink:href="#C" y="232.703"/><use x="109.292" xlink:href="#C" y="232.673"/><use x="117.107" xlink:href="#C" y="232.659"/><use x="124.921" xlink:href="#C" y="232.623"/><use x="132.735" xlink:href="#C" y="232.54"/><use x="140.55" xlink:href="#C" y="232.407"/><use x="148.364" xlink:href="#C" y="232.318"/><use x="156.179" xlink:href="#C" y="232.319"/><use x="163.993" xlink:href="#C" y="231.701"/><use x="171.808" xlink:href="#C" y="231.535"/><use x="179.622" xlink:href="#C" y="231.252"/><use x="187.437" xlink:href="#C" y="230.805"/><use x="195.251" xlink:href="#C" y="230.564"/><use x="203.065" xlink:href="#C" y="230.13"/><use x="210.88" xlink:href="#C" y="229.307"/><use x="218.694" xlink:href="#C" y="228.93"/><use x="226.509" xlink:href="#C" y="228.048"/><use x="234.323" xlink:href="#C" y="227.435"/><use x="242.138" xlink:href="#C" y="226.413"/><use x="249.952" xlink:href="#C" y="225.592"/><use x="257.766" xlink:href="#C" y="224.038"/><use x="265.581" xlink:href="#C" y="222.766"/><use x="273.395" xlink:href="#C" y="221.729"/><use x="281.21" xlink:href="#C" y="220.923"/><use x="289.024" xlink:href="#C" y="220.141"/><use x="296.839" xlink:href="#C" y="219.095"/><use x="304.653" xlink:href="#C" y="218.074"/><use x="312.467" xlink:href="#C" y="217.238"/><use x="320.282" xlink:href="#C" y="216.616"/><use x="328.096" xlink:href="#C" y="216.074"/><use x="335.911" xlink:href="#C" y="215.533"/><use x="343.725" xlink:href="#C" y="215.334"/><use x="351.54" xlink:href="#C" y="214.91"/><use x="359.354" xlink:href="#C" y="214.524"/><use x="367.169" xlink:href="#C" y="214.369"/><use x="374.983" xlink:href="#C" y="214.326"/><use x="382.797" xlink:href="#C" y="214.129"/><use x="390.612" xlink:href="#C" y="213.959"/><use x="398.426" xlink:href="#C" y="213.977"/><use x="406.241" xlink:href="#C" y="213.894"/><use x="414.055" xlink:href="#C" y="214.03"/><use x="421.87" xlink:href="#C" y="213.793"/><use x="429.684" xlink:href="#C" y="213.201"/><use x="437.498" xlink:href="#C" y="212.08"/><use x="445.313" xlink:href="#C" y="211.898"/><use x="453.127" xlink:href="#C" y="211.041"/><use x="460.942" xlink:href="#C" y="211.492"/><use x="468.756" xlink:href="#C" y="211.145"/><use x="476.571" xlink:href="#C" y="211.065"/><use x="484.385" xlink:href="#C" y="210.879"/><use x="492.2" xlink:href="#C" y="210.176"/><use x="500.014" xlink:href="#C" y="210.119"/><use x="507.828" xlink:href="#C" y="214.304"/><use x="515.643" xlink:href="#C" y="214.442"/><use x="523.457" xlink:href="#C" y="214.586"/><use x="531.272" xlink:href="#C" y="215.599"/></g></g><path clip-path="url(#a)" d="M531.272 47.981l7.814-4.13 7.815-4.222 7.814-4.317" fill="none" stroke="#1f77b4" stroke-dasharray="1.5 2.475" stroke-width="1.5"/><path clip-path="url(#a)" d="M531.272 202.74l7.814-.42 7.815-.426 7.814-.433" fill="none" stroke="#ff7f0e" stroke-dasharray="1.5 2.475" stroke-width="1.5"/><path clip-path="url(#a)" d="M531.272 210.225l7.814.11 7.815.109 7.814.108" fill="none" stroke="#2ca02c" stroke-dasharray="1.5 2.475" stroke-width="1.5"/><path clip-path="url(#a)" d="M531.272 212.67l7.814.17 7.815.17 7.814.17" fill="none" stroke="#d62728" stroke-dasharray="1.5 2.475" stroke-width="1.5"/><path clip-path="url(#a)" d="M531.272 215.6l7.814.49 7.815.477 7.814.463" fill="none" stroke="#9467bd" stroke-dasharray="1.5 2.475" stroke-width="1.5"/><path d="M70.22 232.755V25.44M554.715 232.755V25.44M70.22 232.755h484.495M70.22 25.44h484.495" fill="none" stroke="#000" stroke-linecap="square" stroke-linejoin="miter" stroke-width=".8"/><g transform="matrix(.12 0 0 -.12 190.688 19.44)"><use xlink:href="#h"/><use x="68.393" xlink:href="#D"/><use x="123.373" xlink:href="#E"/><use x="162.582" xlink:href="#x"/><use x="190.365" xlink:href="#F"/><use x="249.545" xlink:href="#y"/><use x="342.855" xlink:href="#G"/><path d="M452.086 66.219q-10.75 0-17.078-8.016-6.313-8-6.313-21.828 0-13.766 6.313-21.781 6.328-8 17.078-8 10.734 0 17.016 8 6.28 8.015 6.28 21.781 0 13.828-6.28 21.828-6.282 8.016-17.016 8.016zm0 8q15.328 0 24.5-10.281 9.187-10.282 9.187-27.563 0-17.234-9.187-27.516-9.172-10.28-24.5-10.28-15.375 0-24.594 10.25-9.203 10.265-9.203 27.546t9.203 27.563q9.219 10.28 24.594 10.28zM519.984 0l-27.828 72.906h10.297l23.11-61.375 23.14 61.375h10.25L531.172 0z"/><use x="559.783" xlink:href="#H"/><path d="M608.947 64.797V8.109h11.922q15.094 0 22.094 6.829 7 6.843 7 21.593 0 14.64-7 21.453-7 6.813-22.094 6.813zm-9.86 8.11h20.267q21.187 0 31.093-8.813 9.922-8.813 9.922-27.563 0-18.86-9.969-27.703Q640.447 0 619.354 0h-20.266z"/><use x="666.277" xlink:href="#I"/><use x="702.361" xlink:href="#m"/><use x="765.984" xlink:href="#l"/><use x="861.395" xlink:href="#D"/><use x="916.375" xlink:href="#d"/><use x="977.654" xlink:href="#J"/><use x="1029.754" xlink:href="#y"/><use x="1091.277" xlink:href="#J"/><use x="1175.164" xlink:href="#d"/><use x="1236.443" xlink:href="#J"/><use x="1320.33" xlink:href="#t"/><use x="1381.512" xlink:href="#K"/><use x="1448.504" xlink:href="#f"/><use x="1512.127" xlink:href="#g"/><use x="1575.75" xlink:href="#f"/><use x="1639.373" xlink:href="#g"/><use x="1702.996" xlink:href="#I"/><use x="1739.08" xlink:href="#g"/><use x="1802.703" xlink:href="#r"/><use x="1866.326" xlink:href="#I"/><use x="1902.41" xlink:href="#f"/><use x="1966.033" xlink:href="#l"/></g><g><path d="M77.22 106.83h227.06q2 0 2-2V32.44q0-2-2-2H77.22q-2 0-2 2v72.39q0 2 2 2z" fill="#fff" opacity=".8" stroke="#ccc" stroke-linejoin="miter"/><path d="M79.22 38.538h20" fill="none" stroke="#1f77b4" stroke-linecap="square" stroke-width="1.5"/><use fill="#1f77b4" stroke="#1f77b4" x="89.22" xlink:href="#z" y="38.538"/><g transform="matrix(.1 0 0 -.1 107.22 42.038)"><use xlink:href="#L"/><use x="73.193" xlink:href="#M"/><use x="168.457" xlink:href="#N"/><use x="207.471" xlink:href="#v"/><use x="270.947" xlink:href="#t"/><use x="332.129" xlink:href="#O"/><use x="395.508" xlink:href="#P"/><use x="458.984" xlink:href="#u"/><use x="486.768" xlink:href="#y"/><use x="548.291" xlink:href="#J"/><use x="632.178" xlink:href="#x"/><use x="659.961" xlink:href="#Q"/><use x="755.127" xlink:href="#o"/><use x="818.75" xlink:href="#m"/><use x="882.373" xlink:href="#R"/><use x="914.16" xlink:href="#r"/><use x="1009.57" xlink:href="#v"/><use x="1073.047" xlink:href="#d"/><use x="1134.326" xlink:href="#j"/><use x="1193.506" xlink:href="#J"/><use x="1245.605" xlink:href="#S"/></g><path d="M79.22 53.217h20" fill="none" stroke="#ff7f0e" stroke-linecap="square" stroke-width="1.5"/><use fill="#ff7f0e" stroke="#ff7f0e" x="89.22" xlink:href="#A" y="53.217"/><g transform="matrix(.1 0 0 -.1 107.22 56.717)"><use xlink:href="#L"/><use x="73.193" xlink:href="#Q"/><use x="136.572" xlink:href="#x"/><use x="164.355" xlink:href="#E"/><use x="203.564" xlink:href="#y"/><use x="265.088" xlink:href="#v"/><path d="M370.164 72.906h9.86V42.094l32.718 30.812h12.703l-36.187-33.984L428.023 0H415.04l-35.016 35.11V0h-9.859z"/><use x="425.928" xlink:href="#x"/><use x="453.711" xlink:href="#Q"/><path d="M562.496 27.984q0 9.766-4.031 15.125-4.016 5.375-11.297 5.375-7.219 0-11.25-5.375-4.031-5.359-4.031-15.125 0-9.718 4.031-15.093t11.25-5.375q7.281 0 11.297 5.375 4.031 5.375 4.031 15.093zm8.984-21.203q0-13.953-6.203-20.765-6.187-6.813-18.984-6.813-4.734 0-8.938.703-4.203.703-8.156 2.172v8.735q3.953-2.141 7.813-3.157 3.86-1.031 7.86-1.031 8.843 0 13.233 4.61 4.391 4.609 4.391 13.937v4.453q-2.781-4.844-7.125-7.234Q551.027 0 544.965 0q-10.047 0-16.203 7.656-6.157 7.672-6.157 20.328 0 12.688 6.157 20.344Q534.918 56 544.965 56q6.062 0 10.406-2.39 4.344-2.391 7.125-7.22v8.297h8.984z"/><use x="580.566" xlink:href="#v"/><use x="644.043" xlink:href="#t"/><path d="M757.225 44.188q3.375 6.062 8.062 8.937Q769.975 56 776.318 56q8.547 0 13.188-5.984 4.64-5.97 4.64-17V0h-9.03v32.719q0 7.86-2.798 11.656-2.78 3.813-8.484 3.813-6.984 0-11.047-4.641-4.047-4.625-4.047-12.64V0h-9.031v32.719q0 7.906-2.781 11.687-2.782 3.782-8.594 3.782-6.89 0-10.953-4.657-4.047-4.656-4.047-12.625V0h-9.031v54.688h9.031v-8.5q3.078 5.03 7.375 7.421Q735.006 56 740.912 56q5.969 0 10.14-3.031 4.173-3.016 6.173-8.782z"/><use x="834.424" xlink:href="#N"/><use x="873.438" xlink:href="#v"/><use x="936.914" xlink:href="#t"/><use x="998.096" xlink:href="#O"/><use x="1061.475" xlink:href="#P"/><use x="1124.951" xlink:href="#u"/><use x="1152.734" xlink:href="#y"/><use x="1214.258" xlink:href="#J"/><use x="1298.145" xlink:href="#x"/><use x="1325.928" xlink:href="#Q"/><use x="1421.094" xlink:href="#r"/><use x="1484.717" xlink:href="#l"/><use x="1548.34" xlink:href="#R"/><use x="1580.127" xlink:href="#s"/><use x="1675.537" xlink:href="#v"/><use x="1739.014" xlink:href="#d"/><use x="1800.293" xlink:href="#j"/><use x="1859.473" xlink:href="#J"/><use x="1911.572" xlink:href="#S"/></g><path d="M79.22 67.895h20" fill="none" stroke="#2ca02c" stroke-linecap="square" stroke-width="1.5"/><g transform="matrix(.1 0 0 -.1 107.22 71.395)"><use xlink:href="#H"/><use x="29.492" xlink:href="#E"/><use x="68.701" xlink:href="#d"/><use x="129.98" xlink:href="#u"/><use x="157.764" xlink:href="#j"/></g><path d="M79.22 82.573h20" fill="none" stroke="#d62728" stroke-linecap="square" stroke-width="1.5"/><use fill="#d62728" stroke="#d62728" x="89.22" xlink:href="#B" y="82.573"/><g transform="matrix(.1 0 0 -.1 107.22 86.073)"><path d="M9.813 72.906h41.89v-8.312H19.672V43.109h28.906v-8.297H19.672V0h-9.86z"/><use x="57.41" xlink:href="#e"/><use x="98.523" xlink:href="#d"/><use x="159.803" xlink:href="#Q"/><use x="223.182" xlink:href="#D"/><use x="278.162" xlink:href="#y"/></g><path d="M79.22 97.25h20" fill="none" stroke="#9467bd" stroke-linecap="square" stroke-width="1.5"/><use fill="#9467bd" stroke="#9467bd" x="89.22" xlink:href="#C" y="97.251"/><g transform="matrix(.1 0 0 -.1 107.22 100.75)"><use xlink:href="#M"/><use x="63.477" xlink:href="#i"/><use x="126.953" xlink:href="#d"/><use x="188.232" xlink:href="#x"/><use x="216.016" xlink:href="#Q"/></g></g><g><path d="M70.22 505.928h484.495V298.613H70.22z" fill="#fff"/><path clip-path="url(#T)" d="M70.22 505.928V298.613" fill="none" stroke="#b0b0b0" stroke-linecap="square" stroke-width=".8"/><use stroke="#000" stroke-width=".8" x="70.22" xlink:href="#b" y="505.928"/><g transform="matrix(.1 0 0 -.1 60.786 542.922)"><use xlink:href="#c"/><use x="86.279" xlink:href="#d"/><use x="147.559" xlink:href="#e"/></g><g transform="matrix(.1 0 0 -.1 57.495 554.12)"><use xlink:href="#f"/><use x="63.623" xlink:href="#g"/><use x="127.246" xlink:href="#f"/><use x="190.869" xlink:href="#g"/></g><path clip-path="url(#T)" d="M312.467 505.928V298.613" fill="none" stroke="#b0b0b0" stroke-linecap="square" stroke-width=".8"/><use stroke="#000" stroke-width=".8" x="312.467" xlink:href="#b" y="505.928"/><g transform="matrix(.1 0 0 -.1 303.817 542.922)"><use xlink:href="#h"/><use x="68.408" xlink:href="#i"/><use x="131.885" xlink:href="#e"/></g><path clip-path="url(#T)" d="M546.9 505.928V298.613" fill="none" stroke="#b0b0b0" stroke-linecap="square" stroke-width=".8"/><use stroke="#000" stroke-width=".8" x="546.901" xlink:href="#b" y="505.928"/><g transform="matrix(.1 0 0 -.1 536.563 542.922)"><use xlink:href="#c"/><use x="86.279" xlink:href="#d"/><use x="147.559" xlink:href="#j"/></g><g stroke-width=".8"><path clip-path="url(#T)" d="M554.715 505.928V298.613" fill="none" stroke="#b0b0b0" stroke-linecap="square"/><use stroke="#000" x="554.715" xlink:href="#b" y="505.928"/></g><use stroke="#000" stroke-width=".6" x="78.034" xlink:href="#k" y="505.928"/><g transform="matrix(.1 0 0 -.1 71.672 518.926)"><use xlink:href="#g"/><use x="63.623" xlink:href="#f"/></g><g stroke="#000" stroke-width=".6"><use x="85.849" xlink:href="#k" y="505.928"/><use x="93.663" xlink:href="#k" y="505.928"/><use x="101.478" xlink:href="#k" y="505.928"/><use x="109.292" xlink:href="#k" y="505.928"/><use x="117.107" xlink:href="#k" y="505.928"/><use x="124.921" xlink:href="#k" y="505.928"/></g><use stroke="#000" stroke-width=".6" x="132.735" xlink:href="#k" y="505.928"/><g transform="matrix(.1 0 0 -.1 126.373 518.926)"><use xlink:href="#g"/><use x="63.623" xlink:href="#l"/></g><use stroke="#000" stroke-width=".6" x="140.55" xlink:href="#k" y="505.928"/><use stroke="#000" stroke-width=".6" x="148.364" xlink:href="#k" y="505.928"/><use stroke="#000" stroke-width=".6" x="156.179" xlink:href="#k" y="505.928"/><use stroke="#000" stroke-width=".6" x="163.993" xlink:href="#k" y="505.928"/><use stroke="#000" stroke-width=".6" x="171.808" xlink:href="#k" y="505.928"/><use stroke="#000" stroke-width=".6" x="179.622" xlink:href="#k" y="505.928"/><use stroke="#000" stroke-width=".6" x="187.437" xlink:href="#k" y="505.928"/><g transform="matrix(.1 0 0 -.1 181.074 518.926)"><use xlink:href="#m"/><use x="63.623" xlink:href="#n"/></g><use stroke="#000" stroke-width=".6" x="195.251" xlink:href="#k" y="505.928"/><use stroke="#000" stroke-width=".6" x="203.065" xlink:href="#k" y="505.928"/><use stroke="#000" stroke-width=".6" x="210.88" xlink:href="#k" y="505.928"/><use stroke="#000" stroke-width=".6" x="218.694" xlink:href="#k" y="505.928"/><use stroke="#000" stroke-width=".6" x="226.509" xlink:href="#k" y="505.928"/><use stroke="#000" stroke-width=".6" x="234.323" xlink:href="#k" y="505.928"/><use stroke="#000" stroke-width=".6" x="242.138" xlink:href="#k" y="505.928"/><g transform="matrix(.1 0 0 -.1 235.775 518.926)"><use xlink:href="#f"/><use x="63.623" xlink:href="#o"/></g><use stroke="#000" stroke-width=".6" x="249.952" xlink:href="#k" y="505.928"/><use stroke="#000" stroke-width=".6" x="257.766" xlink:href="#k" y="505.928"/><use stroke="#000" stroke-width=".6" x="265.581" xlink:href="#k" y="505.928"/><use stroke="#000" stroke-width=".6" x="273.395" xlink:href="#k" y="505.928"/><use stroke="#000" stroke-width=".6" x="281.21" xlink:href="#k" y="505.928"/><use stroke="#000" stroke-width=".6" x="289.024" xlink:href="#k" y="505.928"/><use stroke="#000" stroke-width=".6" x="296.839" xlink:href="#k" y="505.928"/><g transform="matrix(.1 0 0 -.1 290.476 518.926)"><use xlink:href="#o"/><use x="63.623" xlink:href="#g"/></g><use stroke="#000" stroke-width=".6" x="304.653" xlink:href="#k" y="505.928"/><use stroke="#000" stroke-width=".6" x="320.282" xlink:href="#k" y="505.928"/><use stroke="#000" stroke-width=".6" x="328.096" xlink:href="#k" y="505.928"/><use stroke="#000" stroke-width=".6" x="335.911" xlink:href="#k" y="505.928"/><use stroke="#000" stroke-width=".6" x="343.725" xlink:href="#k" y="505.928"/><use stroke="#000" stroke-width=".6" x="351.54" xlink:href="#k" y="505.928"/><g transform="matrix(.1 0 0 -.1 345.177 518.926)"><use xlink:href="#g"/><use x="63.623" xlink:href="#n"/></g><use stroke="#000" stroke-width=".6" x="359.354" xlink:href="#k" y="505.928"/><use stroke="#000" stroke-width=".6" x="367.169" xlink:href="#k" y="505.928"/><use stroke="#000" stroke-width=".6" x="374.983" xlink:href="#k" y="505.928"/><use stroke="#000" stroke-width=".6" x="382.797" xlink:href="#k" y="505.928"/><use stroke="#000" stroke-width=".6" x="390.612" xlink:href="#k" y="505.928"/><use stroke="#000" stroke-width=".6" x="398.426" xlink:href="#k" y="505.928"/><use stroke="#000" stroke-width=".6" x="406.241" xlink:href="#k" y="505.928"/><g transform="matrix(.1 0 0 -.1 399.878 518.926)"><use xlink:href="#m"/><use x="63.623" xlink:href="#o"/></g><use stroke="#000" stroke-width=".6" x="414.055" xlink:href="#k" y="505.928"/><use stroke="#000" stroke-width=".6" x="421.87" xlink:href="#k" y="505.928"/><use stroke="#000" stroke-width=".6" x="429.684" xlink:href="#k" y="505.928"/><use stroke="#000" stroke-width=".6" x="437.498" xlink:href="#k" y="505.928"/><use stroke="#000" stroke-width=".6" x="445.313" xlink:href="#k" y="505.928"/><use stroke="#000" stroke-width=".6" x="453.127" xlink:href="#k" y="505.928"/><g><use stroke="#000" stroke-width=".6" x="460.942" xlink:href="#k" y="505.928"/><g transform="matrix(.1 0 0 -.1 454.58 518.926)"><use xlink:href="#f"/><use x="63.623" xlink:href="#g"/></g></g><use stroke="#000" stroke-width=".6" x="468.756" xlink:href="#k" y="505.928"/><use stroke="#000" stroke-width=".6" x="476.571" xlink:href="#k" y="505.928"/><use stroke="#000" stroke-width=".6" x="484.385" xlink:href="#k" y="505.928"/><use stroke="#000" stroke-width=".6" x="492.2" xlink:href="#k" y="505.928"/><use stroke="#000" stroke-width=".6" x="500.014" xlink:href="#k" y="505.928"/><use stroke="#000" stroke-width=".6" x="507.828" xlink:href="#k" y="505.928"/><g><use stroke="#000" stroke-width=".6" x="515.643" xlink:href="#k" y="505.928"/><g transform="matrix(.1 0 0 -.1 509.28 518.926)"><use xlink:href="#f"/><use x="63.623" xlink:href="#p"/></g></g><use stroke="#000" stroke-width=".6" x="523.457" xlink:href="#k" y="505.928"/><use stroke="#000" stroke-width=".6" x="531.272" xlink:href="#k" y="505.928"/><use stroke="#000" stroke-width=".6" x="539.086" xlink:href="#k" y="505.928"/><g><path clip-path="url(#T)" d="M70.22 471.55h484.495" fill="none" stroke="#b0b0b0" stroke-linecap="square" stroke-width=".8"/><use stroke="#000" stroke-width=".8" x="70.22" xlink:href="#q" y="471.55"/><g transform="matrix(.1 0 0 -.1 31.407 475.35)"><use xlink:href="#U"/><use x="63.623" xlink:href="#g"/><use x="127.246" xlink:href="#g"/><use x="190.869" xlink:href="#g"/><use x="254.492" xlink:href="#g"/></g><path clip-path="url(#T)" d="M70.22 437.166h484.495" fill="none" stroke="#b0b0b0" stroke-linecap="square" stroke-width=".8"/><use stroke="#000" stroke-width=".8" x="70.22" xlink:href="#q" y="437.166"/><g transform="matrix(.1 0 0 -.1 25.045 440.965)"><use xlink:href="#m"/><use x="63.623" xlink:href="#g"/><use x="127.246" xlink:href="#g"/><use x="190.869" xlink:href="#g"/><use x="254.492" xlink:href="#g"/><use x="318.115" xlink:href="#g"/></g><path clip-path="url(#T)" d="M70.22 402.781h484.495" fill="none" stroke="#b0b0b0" stroke-linecap="square" stroke-width=".8"/><use stroke="#000" stroke-width=".8" x="70.22" xlink:href="#q" y="402.781"/><g transform="matrix(.1 0 0 -.1 25.045 406.58)"><use xlink:href="#m"/><use x="63.623" xlink:href="#U"/><use x="127.246" xlink:href="#g"/><use x="190.869" xlink:href="#g"/><use x="254.492" xlink:href="#g"/><use x="318.115" xlink:href="#g"/></g><g><path clip-path="url(#T)" d="M70.22 368.397h484.495" fill="none" stroke="#b0b0b0" stroke-linecap="square" stroke-width=".8"/><use stroke="#000" stroke-width=".8" x="70.22" xlink:href="#q" y="368.397"/><g transform="matrix(.1 0 0 -.1 25.045 372.196)"><use xlink:href="#f"/><use x="63.623" xlink:href="#g"/><use x="127.246" xlink:href="#g"/><use x="190.869" xlink:href="#g"/><use x="254.492" xlink:href="#g"/><use x="318.115" xlink:href="#g"/></g></g><g><path clip-path="url(#T)" d="M70.22 334.012h484.495" fill="none" stroke="#b0b0b0" stroke-linecap="square" stroke-width=".8"/><use stroke="#000" stroke-width=".8" x="70.22" xlink:href="#q" y="334.012"/><g transform="matrix(.1 0 0 -.1 25.045 337.812)"><use xlink:href="#f"/><use x="63.623" xlink:href="#U"/><use x="127.246" xlink:href="#g"/><use x="190.869" xlink:href="#g"/><use x="254.492" xlink:href="#g"/><use x="318.115" xlink:href="#g"/></g></g><g><path clip-path="url(#T)" d="M70.22 299.628h484.495" fill="none" stroke="#b0b0b0" stroke-linecap="square" stroke-width=".8"/><use stroke="#000" stroke-width=".8" x="70.22" xlink:href="#q" y="299.628"/><g transform="matrix(.1 0 0 -.1 25.045 303.427)"><use xlink:href="#o"/><use x="63.623" xlink:href="#g"/><use x="127.246" xlink:href="#g"/><use x="190.869" xlink:href="#g"/><use x="254.492" xlink:href="#g"/><use x="318.115" xlink:href="#g"/></g></g><g transform="matrix(0 -.1 -.1 0 18.965 409.104)"><use xlink:href="#L"/><use x="73.193" xlink:href="#M"/></g></g><g stroke="#1f77b4"><path clip-path="url(#T)" d="M-1 505.935H78.034l7.815-.001 7.814-.007 7.815-.008 7.814-.009 7.815-.027 7.814-.021 7.814-.025 7.815-.021 7.814-.032 7.815-.075 7.814-.064 7.815-.07 7.814-.141 7.815-.157 7.814-.506 7.814-.54 7.815-1.962 7.814-2.02 7.815-2.326 7.814-2.773 7.815-3.468 7.814-3.263 7.814-3.497 7.815-4.77 7.814-4.715 7.815-5.043 7.814-4.815 7.815-4.65 7.814-6.078 7.815-5.312 7.814-5.588 7.814-6.82 7.815-7.026 7.814-6.006 7.815-5.581 7.814-5 7.815-7.156 7.814-6.821 7.814-6.718 7.815-5.445 7.814-4.985 7.815-4.156 7.814-4.461 7.815-7.33 7.814-4.141 7.814-3.169 7.815-7.272 7.814-3.766 7.815-3.391 7.814-3.307 7.815-3.178 7.814.957 7.815-5.29 7.814-6.846 7.814-3.88 7.815-2.442 7.814-1.971 7.815-2.765" fill="none" stroke-linecap="square" stroke-width="1.5"/><g clip-path="url(#T)" fill="#1f77b4"><use x="-1" xlink:href="#z" y="505.935"/><use x="-.11" xlink:href="#z" y="505.935"/><use x="7.705" xlink:href="#z" y="505.935"/><use x="15.519" xlink:href="#z" y="505.935"/><use x="23.333" xlink:href="#z" y="505.935"/><use x="31.148" xlink:href="#z" y="505.935"/><use x="38.962" xlink:href="#z" y="505.935"/><use x="46.777" xlink:href="#z" y="505.935"/><use x="54.591" xlink:href="#z" y="505.935"/><use x="62.406" xlink:href="#z" y="505.935"/><use x="70.22" xlink:href="#z" y="505.935"/><use x="78.034" xlink:href="#z" y="505.934"/><use x="85.849" xlink:href="#z" y="505.934"/><use x="93.663" xlink:href="#z" y="505.927"/><use x="101.478" xlink:href="#z" y="505.919"/><use x="109.292" xlink:href="#z" y="505.91"/><use x="117.107" xlink:href="#z" y="505.883"/><use x="124.921" xlink:href="#z" y="505.862"/><use x="132.735" xlink:href="#z" y="505.837"/><use x="140.55" xlink:href="#z" y="505.816"/><use x="148.364" xlink:href="#z" y="505.784"/><use x="156.179" xlink:href="#z" y="505.709"/><use x="163.993" xlink:href="#z" y="505.645"/><use x="171.808" xlink:href="#z" y="505.575"/><use x="179.622" xlink:href="#z" y="505.434"/><use x="187.437" xlink:href="#z" y="505.277"/><use x="195.251" xlink:href="#z" y="504.771"/><use x="203.065" xlink:href="#z" y="504.23"/><use x="210.88" xlink:href="#z" y="502.269"/><use x="218.694" xlink:href="#z" y="500.249"/><use x="226.509" xlink:href="#z" y="497.923"/><use x="234.323" xlink:href="#z" y="495.15"/><use x="242.138" xlink:href="#z" y="491.682"/><use x="249.952" xlink:href="#z" y="488.419"/><use x="257.766" xlink:href="#z" y="484.922"/><use x="265.581" xlink:href="#z" y="480.152"/><use x="273.395" xlink:href="#z" y="475.437"/><use x="281.21" xlink:href="#z" y="470.394"/><use x="289.024" xlink:href="#z" y="465.579"/><use x="296.839" xlink:href="#z" y="460.929"/><use x="304.653" xlink:href="#z" y="454.851"/><use x="312.467" xlink:href="#z" y="449.539"/><use x="320.282" xlink:href="#z" y="443.951"/><use x="328.096" xlink:href="#z" y="437.13"/><use x="335.911" xlink:href="#z" y="430.105"/><use x="343.725" xlink:href="#z" y="424.099"/><use x="351.54" xlink:href="#z" y="418.518"/><use x="359.354" xlink:href="#z" y="413.519"/><use x="367.169" xlink:href="#z" y="406.362"/><use x="374.983" xlink:href="#z" y="399.541"/><use x="382.797" xlink:href="#z" y="392.823"/><use x="390.612" xlink:href="#z" y="387.378"/><use x="398.426" xlink:href="#z" y="382.393"/><use x="406.241" xlink:href="#z" y="378.237"/><use x="414.055" xlink:href="#z" y="373.776"/><use x="421.87" xlink:href="#z" y="366.446"/><use x="429.684" xlink:href="#z" y="362.305"/><use x="437.498" xlink:href="#z" y="359.136"/><use x="445.313" xlink:href="#z" y="351.864"/><use x="453.127" xlink:href="#z" y="348.098"/><use x="460.942" xlink:href="#z" y="344.707"/><use x="468.756" xlink:href="#z" y="341.4"/><use x="476.571" xlink:href="#z" y="338.222"/><use x="484.385" xlink:href="#z" y="339.179"/><use x="492.2" xlink:href="#z" y="333.889"/><use x="500.014" xlink:href="#z" y="327.043"/><use x="507.828" xlink:href="#z" y="323.163"/><use x="515.643" xlink:href="#z" y="320.721"/><use x="523.457" xlink:href="#z" y="318.75"/><use x="531.272" xlink:href="#z" y="315.985"/></g></g><g stroke="#ff7f0e"><path clip-path="url(#T)" d="M-1 505.935H93.663l7.815-.001h7.814l7.815-.002h15.628l7.815-.007 7.814-.005 7.815-.004h7.814l7.815-.028 7.814-.02 7.815-.053 7.814-.061h7.814l7.815-.323 7.814-.1 7.815-.298 7.814-.4 7.815-.635 7.814-.56 7.814-.488 7.815-1.688 7.814-1.322 7.815-1.559 7.814-1.54 7.815-2.21 7.814-1.37 7.815-2.387 7.814-2.168 7.814-2.885 7.815-2.771 7.814-2.276 7.815-2.407 7.814-2.13 7.815-1.89 7.814-2.328 7.814-2.295 7.815-2.278 7.814-2.429 7.815-1.816 7.814-2.667 7.815-1.275 7.814-2.7 7.814-1.944 7.815-1.873 7.814-2.468 7.815-2.26 7.814-2.344 7.815-2.153 7.814-2.637 7.815-1.316 7.814-2.112 7.814-2.418 7.815-1.406 7.814-1.56 7.815-1.5" fill="none" stroke-linecap="square" stroke-width="1.5"/><g clip-path="url(#T)" fill="#ff7f0e"><use x="-1" xlink:href="#A" y="505.935"/><use x="-.11" xlink:href="#A" y="505.935"/><use x="7.705" xlink:href="#A" y="505.935"/><use x="15.519" xlink:href="#A" y="505.935"/><use x="23.333" xlink:href="#A" y="505.935"/><use x="31.148" xlink:href="#A" y="505.935"/><use x="38.962" xlink:href="#A" y="505.935"/><use x="46.777" xlink:href="#A" y="505.935"/><use x="54.591" xlink:href="#A" y="505.935"/><use x="62.406" xlink:href="#A" y="505.935"/><use x="70.22" xlink:href="#A" y="505.935"/><use x="78.034" xlink:href="#A" y="505.935"/><use x="85.849" xlink:href="#A" y="505.935"/><use x="93.663" xlink:href="#A" y="505.935"/><use x="101.478" xlink:href="#A" y="505.934"/><use x="109.292" xlink:href="#A" y="505.934"/><use x="117.107" xlink:href="#A" y="505.932"/><use x="124.921" xlink:href="#A" y="505.931"/><use x="132.735" xlink:href="#A" y="505.931"/><use x="140.55" xlink:href="#A" y="505.925"/><use x="148.364" xlink:href="#A" y="505.92"/><use x="156.179" xlink:href="#A" y="505.916"/><use x="163.993" xlink:href="#A" y="505.916"/><use x="171.808" xlink:href="#A" y="505.888"/><use x="179.622" xlink:href="#A" y="505.869"/><use x="187.437" xlink:href="#A" y="505.815"/><use x="195.251" xlink:href="#A" y="505.754"/><use x="203.065" xlink:href="#A" y="505.753"/><use x="210.88" xlink:href="#A" y="505.431"/><use x="218.694" xlink:href="#A" y="505.33"/><use x="226.509" xlink:href="#A" y="505.033"/><use x="234.323" xlink:href="#A" y="504.632"/><use x="242.138" xlink:href="#A" y="503.998"/><use x="249.952" xlink:href="#A" y="503.438"/><use x="257.766" xlink:href="#A" y="502.95"/><use x="265.581" xlink:href="#A" y="501.262"/><use x="273.395" xlink:href="#A" y="499.94"/><use x="281.21" xlink:href="#A" y="498.381"/><use x="289.024" xlink:href="#A" y="496.84"/><use x="296.839" xlink:href="#A" y="494.631"/><use x="304.653" xlink:href="#A" y="493.261"/><use x="312.467" xlink:href="#A" y="490.874"/><use x="320.282" xlink:href="#A" y="488.706"/><use x="328.096" xlink:href="#A" y="485.821"/><use x="335.911" xlink:href="#A" y="483.05"/><use x="343.725" xlink:href="#A" y="480.774"/><use x="351.54" xlink:href="#A" y="478.367"/><use x="359.354" xlink:href="#A" y="476.238"/><use x="367.169" xlink:href="#A" y="474.347"/><use x="374.983" xlink:href="#A" y="472.019"/><use x="382.797" xlink:href="#A" y="469.724"/><use x="390.612" xlink:href="#A" y="467.446"/><use x="398.426" xlink:href="#A" y="465.017"/><use x="406.241" xlink:href="#A" y="463.201"/><use x="414.055" xlink:href="#A" y="460.534"/><use x="421.87" xlink:href="#A" y="459.259"/><use x="429.684" xlink:href="#A" y="456.559"/><use x="437.498" xlink:href="#A" y="454.615"/><use x="445.313" xlink:href="#A" y="452.742"/><use x="453.127" xlink:href="#A" y="450.274"/><use x="460.942" xlink:href="#A" y="448.013"/><use x="468.756" xlink:href="#A" y="445.67"/><use x="476.571" xlink:href="#A" y="443.517"/><use x="484.385" xlink:href="#A" y="440.88"/><use x="492.2" xlink:href="#A" y="439.564"/><use x="500.014" xlink:href="#A" y="437.452"/><use x="507.828" xlink:href="#A" y="435.034"/><use x="515.643" xlink:href="#A" y="433.628"/><use x="523.457" xlink:href="#A" y="432.067"/><use x="531.272" xlink:href="#A" y="430.568"/></g></g><path clip-path="url(#T)" d="M-1 505.934H101.478l7.814-.003h7.815l7.814-.012h7.814l7.815-.047 7.814-.002 7.815-.009 7.814-.01 7.815-.01 7.814-.018 7.815-.023 7.814-.014 7.814-.001 7.815-.076 7.814-.057 7.815-.077 7.814-.08 7.815-.088 7.814-.262 7.814-.464 7.815-.391 7.814-.56 7.815-.692 7.814-.478 7.815-.542 7.814-.574 7.815-.747 7.814-.822 7.814-.961 7.815-.901 7.814-.515 7.815-.9 7.814-.873 7.815-1.039 7.814-1.43 7.814-1.333 7.815-1.237 7.814-1.75 7.815-.897 7.814-.892 7.815-1.024 7.814-1.557 7.814-1.433 7.815-1.245 7.814-.965h7.815l7.814-1.972 7.815-1.048 7.814-1.995 7.815-3.266 7.814-1.517 7.814-.977 7.815-.976 7.814-1.163 7.815-1.176" fill="none" stroke="#2ca02c" stroke-linecap="square" stroke-width="1.5"/><g stroke="#d62728"><path clip-path="url(#T)" d="M-1 505.926h16.519l7.814.003H54.591l7.815-.001h7.814l7.814-.006 7.815-.003 7.814-.006 7.815-.011 7.814-.006 7.815-.015 7.814-.011 7.814-.005 7.815-.026 7.814-.022 7.815-.027 7.814-.042 7.815-.04 7.814-.058 7.815-.09 7.814-.093 7.814-.04 7.815-.134 7.814-.152 7.815-.128 7.814-.19 7.815-.311 7.814-.288 7.814-.306 7.815-.609 7.814-.512 7.815-.29 7.814-.511 7.815-.87 7.814-.718 7.815-.8 7.814-.918 7.814-.828 7.815-.556 7.814-1.47 7.815-.656 7.814-.88 7.815-1.02 7.814-.525 7.814-.916 7.815-.416 7.814-.724 7.815-.73 7.814-.944 7.815-.85 7.814-.616 7.814-.962 7.815-.847 7.814-.62 7.815-1.518 7.814-1.184 7.815-1.197 7.814-1.448 7.815-1.173 7.814-.65 7.814-.793 7.815-.931 7.814-.766 7.815-1.72" fill="none" stroke-linecap="square" stroke-width="1.5"/><g clip-path="url(#T)" fill="#d62728"><use x="-1" xlink:href="#B" y="505.926"/><use x="-.11" xlink:href="#B" y="505.926"/><use x="7.705" xlink:href="#B" y="505.926"/><use x="15.519" xlink:href="#B" y="505.926"/><use x="23.333" xlink:href="#B" y="505.929"/><use x="31.148" xlink:href="#B" y="505.929"/><use x="38.962" xlink:href="#B" y="505.929"/><use x="46.777" xlink:href="#B" y="505.929"/><use x="54.591" xlink:href="#B" y="505.929"/><use x="62.406" xlink:href="#B" y="505.928"/><use x="70.22" xlink:href="#B" y="505.928"/><use x="78.034" xlink:href="#B" y="505.922"/><use x="85.849" xlink:href="#B" y="505.919"/><use x="93.663" xlink:href="#B" y="505.913"/><use x="101.478" xlink:href="#B" y="505.902"/><use x="109.292" xlink:href="#B" y="505.896"/><use x="117.107" xlink:href="#B" y="505.881"/><use x="124.921" xlink:href="#B" y="505.87"/><use x="132.735" xlink:href="#B" y="505.865"/><use x="140.55" xlink:href="#B" y="505.839"/><use x="148.364" xlink:href="#B" y="505.817"/><use x="156.179" xlink:href="#B" y="505.79"/><use x="163.993" xlink:href="#B" y="505.748"/><use x="171.808" xlink:href="#B" y="505.709"/><use x="179.622" xlink:href="#B" y="505.65"/><use x="187.437" xlink:href="#B" y="505.561"/><use x="195.251" xlink:href="#B" y="505.467"/><use x="203.065" xlink:href="#B" y="505.427"/><use x="210.88" xlink:href="#B" y="505.293"/><use x="218.694" xlink:href="#B" y="505.141"/><use x="226.509" xlink:href="#B" y="505.013"/><use x="234.323" xlink:href="#B" y="504.824"/><use x="242.138" xlink:href="#B" y="504.512"/><use x="249.952" xlink:href="#B" y="504.224"/><use x="257.766" xlink:href="#B" y="503.918"/><use x="265.581" xlink:href="#B" y="503.309"/><use x="273.395" xlink:href="#B" y="502.797"/><use x="281.21" xlink:href="#B" y="502.507"/><use x="289.024" xlink:href="#B" y="501.996"/><use x="296.839" xlink:href="#B" y="501.127"/><use x="304.653" xlink:href="#B" y="500.408"/><use x="312.467" xlink:href="#B" y="499.608"/><use x="320.282" xlink:href="#B" y="498.69"/><use x="328.096" xlink:href="#B" y="497.862"/><use x="335.911" xlink:href="#B" y="497.306"/><use x="343.725" xlink:href="#B" y="495.835"/><use x="351.54" xlink:href="#B" y="495.18"/><use x="359.354" xlink:href="#B" y="494.3"/><use x="367.169" xlink:href="#B" y="493.28"/><use x="374.983" xlink:href="#B" y="492.755"/><use x="382.797" xlink:href="#B" y="491.839"/><use x="390.612" xlink:href="#B" y="491.423"/><use x="398.426" xlink:href="#B" y="490.699"/><use x="406.241" xlink:href="#B" y="489.969"/><use x="414.055" xlink:href="#B" y="489.025"/><use x="421.87" xlink:href="#B" y="488.175"/><use x="429.684" xlink:href="#B" y="487.559"/><use x="437.498" xlink:href="#B" y="486.597"/><use x="445.313" xlink:href="#B" y="485.75"/><use x="453.127" xlink:href="#B" y="485.129"/><use x="460.942" xlink:href="#B" y="483.612"/><use x="468.756" xlink:href="#B" y="482.428"/><use x="476.571" xlink:href="#B" y="481.231"/><use x="484.385" xlink:href="#B" y="479.783"/><use x="492.2" xlink:href="#B" y="478.61"/><use x="500.014" xlink:href="#B" y="477.96"/><use x="507.828" xlink:href="#B" y="477.167"/><use x="515.643" xlink:href="#B" y="476.236"/><use x="523.457" xlink:href="#B" y="475.47"/><use x="531.272" xlink:href="#B" y="473.75"/></g></g><g stroke="#9467bd"><path clip-path="url(#T)" d="M-1 505.935H101.478l7.814-.001h7.815l7.814-.003h7.814l7.815-.004 7.814-.003 7.815-.004 7.814-.013 7.815-.004 7.814-.014 7.815-.007 7.814-.024 7.814-.028 7.815-.036 7.814-.067 7.815-.063 7.814-.076 7.815-.129 7.814-.17 7.814-.21 7.815-.366 7.814-.376 7.815-.335 7.814-.4 7.815-.49 7.814-.547 7.815-.712 7.814-.854 7.814-.887 7.815-1.266 7.814-.777 7.815-1.038 7.814-1.14 7.815-1.174 7.814-1.13 7.814-1.154 7.815-1.088 7.814-.801 7.815-.91 7.814-.736 7.815-.825 7.814-.993 7.814-1.065 7.815-1.13 7.814-.699 7.815-.646 7.814-.736 7.815-.532 7.814-1.544 7.815-1.242 7.814-.619 7.814-.99 7.815-.6 7.814-.975 7.815-.594" fill="none" stroke-linecap="square" stroke-width="1.5"/><g clip-path="url(#T)" fill="#9467bd"><use x="-1" xlink:href="#C" y="505.935"/><use x="-.11" xlink:href="#C" y="505.935"/><use x="7.705" xlink:href="#C" y="505.935"/><use x="15.519" xlink:href="#C" y="505.935"/><use x="23.333" xlink:href="#C" y="505.935"/><use x="31.148" xlink:href="#C" y="505.935"/><use x="38.962" xlink:href="#C" y="505.935"/><use x="46.777" xlink:href="#C" y="505.935"/><use x="54.591" xlink:href="#C" y="505.935"/><use x="62.406" xlink:href="#C" y="505.935"/><use x="70.22" xlink:href="#C" y="505.935"/><use x="78.034" xlink:href="#C" y="505.935"/><use x="85.849" xlink:href="#C" y="505.935"/><use x="93.663" xlink:href="#C" y="505.935"/><use x="101.478" xlink:href="#C" y="505.935"/><use x="109.292" xlink:href="#C" y="505.934"/><use x="117.107" xlink:href="#C" y="505.934"/><use x="124.921" xlink:href="#C" y="505.931"/><use x="132.735" xlink:href="#C" y="505.93"/><use x="140.55" xlink:href="#C" y="505.927"/><use x="148.364" xlink:href="#C" y="505.924"/><use x="156.179" xlink:href="#C" y="505.92"/><use x="163.993" xlink:href="#C" y="505.907"/><use x="171.808" xlink:href="#C" y="505.903"/><use x="179.622" xlink:href="#C" y="505.889"/><use x="187.437" xlink:href="#C" y="505.882"/><use x="195.251" xlink:href="#C" y="505.858"/><use x="203.065" xlink:href="#C" y="505.83"/><use x="210.88" xlink:href="#C" y="505.794"/><use x="218.694" xlink:href="#C" y="505.727"/><use x="226.509" xlink:href="#C" y="505.664"/><use x="234.323" xlink:href="#C" y="505.588"/><use x="242.138" xlink:href="#C" y="505.459"/><use x="249.952" xlink:href="#C" y="505.29"/><use x="257.766" xlink:href="#C" y="505.079"/><use x="265.581" xlink:href="#C" y="504.713"/><use x="273.395" xlink:href="#C" y="504.337"/><use x="281.21" xlink:href="#C" y="504.002"/><use x="289.024" xlink:href="#C" y="503.603"/><use x="296.839" xlink:href="#C" y="503.112"/><use x="304.653" xlink:href="#C" y="502.565"/><use x="312.467" xlink:href="#C" y="501.853"/><use x="320.282" xlink:href="#C" y="500.999"/><use x="328.096" xlink:href="#C" y="500.112"/><use x="335.911" xlink:href="#C" y="498.846"/><use x="343.725" xlink:href="#C" y="498.069"/><use x="351.54" xlink:href="#C" y="497.031"/><use x="359.354" xlink:href="#C" y="495.89"/><use x="367.169" xlink:href="#C" y="494.717"/><use x="374.983" xlink:href="#C" y="493.587"/><use x="382.797" xlink:href="#C" y="492.433"/><use x="390.612" xlink:href="#C" y="491.345"/><use x="398.426" xlink:href="#C" y="490.544"/><use x="406.241" xlink:href="#C" y="489.635"/><use x="414.055" xlink:href="#C" y="488.898"/><use x="421.87" xlink:href="#C" y="488.073"/><use x="429.684" xlink:href="#C" y="487.08"/><use x="437.498" xlink:href="#C" y="486.015"/><use x="445.313" xlink:href="#C" y="484.885"/><use x="453.127" xlink:href="#C" y="484.186"/><use x="460.942" xlink:href="#C" y="483.54"/><use x="468.756" xlink:href="#C" y="482.804"/><use x="476.571" xlink:href="#C" y="482.272"/><use x="484.385" xlink:href="#C" y="480.728"/><use x="492.2" xlink:href="#C" y="479.486"/><use x="500.014" xlink:href="#C" y="478.867"/><use x="507.828" xlink:href="#C" y="477.877"/><use x="515.643" xlink:href="#C" y="477.277"/><use x="523.457" xlink:href="#C" y="476.302"/><use x="531.272" xlink:href="#C" y="475.708"/></g></g><path clip-path="url(#T)" d="M531.272 315.985l7.814-2.468 7.815-2.5 7.814-2.532" fill="none" stroke="#1f77b4" stroke-dasharray="1.5 2.475" stroke-width="1.5"/><path clip-path="url(#T)" d="M531.272 430.568l7.814-1.557 7.815-1.589 7.814-1.621" fill="none" stroke="#ff7f0e" stroke-dasharray="1.5 2.475" stroke-width="1.5"/><path clip-path="url(#T)" d="M531.272 466.833l7.814-1.19 7.815-1.226 7.814-1.264" fill="none" stroke="#2ca02c" stroke-dasharray="1.5 2.475" stroke-width="1.5"/><path clip-path="url(#T)" d="M531.272 473.75l7.814-1.295 7.815-1.347 7.814-1.401" fill="none" stroke="#d62728" stroke-dasharray="1.5 2.475" stroke-width="1.5"/><path clip-path="url(#T)" d="M531.272 475.708l7.814-.765 7.815-.784 7.814-.804" fill="none" stroke="#9467bd" stroke-dasharray="1.5 2.475" stroke-width="1.5"/><path d="M70.22 505.928V298.613M554.715 505.928V298.613M70.22 505.928h484.495M70.22 298.613h484.495" fill="none" stroke="#000" stroke-linecap="square" stroke-linejoin="miter" stroke-width=".8"/><g><path d="M77.22 380.003h220.684q2 0 2-2v-72.39q0-2-2-2H77.22q-2 0-2 2v72.39q0 2 2 2z" fill="#fff" opacity=".8" stroke="#ccc" stroke-linejoin="miter"/><path d="M79.22 311.711h20" fill="none" stroke="#1f77b4" stroke-linecap="square" stroke-width="1.5"/><use fill="#1f77b4" stroke="#1f77b4" x="89.22" xlink:href="#z" y="311.711"/><g transform="matrix(.1 0 0 -.1 107.22 315.211)"><use xlink:href="#V"/><use x="74.805" xlink:href="#y"/><use x="136.328" xlink:href="#w"/><path d="M249.7 72.906h10.609l20.203-29.984 20.078 29.984h10.594L285.402 34.72V0h-9.906v34.719z"/><use x="310.783" xlink:href="#t"/><use x="371.965" xlink:href="#e"/><path d="M422.156 75.984h9.031V31.11L458 54.687h11.469l-29-25.578L470.703 0h-11.719l-27.796 26.703V0h-9.032z"/><use x="502.775" xlink:href="#N"/><use x="541.789" xlink:href="#v"/><use x="605.266" xlink:href="#t"/><use x="666.447" xlink:href="#O"/><use x="729.826" xlink:href="#P"/><use x="793.303" xlink:href="#u"/><use x="821.086" xlink:href="#y"/><use x="882.609" xlink:href="#J"/><use x="966.496" xlink:href="#x"/><use x="994.279" xlink:href="#Q"/><use x="1089.445" xlink:href="#U"/><use x="1153.068" xlink:href="#o"/><use x="1216.691" xlink:href="#R"/><use x="1248.479" xlink:href="#p"/><use x="1343.889" xlink:href="#v"/><use x="1407.365" xlink:href="#d"/><use x="1468.645" xlink:href="#j"/><use x="1527.824" xlink:href="#J"/><use x="1579.924" xlink:href="#S"/></g><path d="M79.22 326.39h20" fill="none" stroke="#ff7f0e" stroke-linecap="square" stroke-width="1.5"/><use fill="#ff7f0e" stroke="#ff7f0e" x="89.22" xlink:href="#A" y="326.389"/><g transform="matrix(.1 0 0 -.1 107.22 329.89)"><use xlink:href="#V"/><use x="74.805" xlink:href="#y"/><use x="136.328" xlink:href="#w"/><path d="M259.715 72.906h9.86V5.078q0-13.187-5-19.14-5-5.954-16.095-5.954h-3.75v8.297h3.079q6.53 0 9.218 3.672 2.688 3.656 2.688 13.125z"/><use x="279.395" xlink:href="#y"/><use x="340.918" xlink:href="#e"/><use x="382.031" xlink:href="#J"/><use x="434.131" xlink:href="#y"/><use x="495.654" xlink:href="#j"/><use x="586.621" xlink:href="#N"/><use x="625.635" xlink:href="#v"/><use x="689.111" xlink:href="#t"/><use x="750.293" xlink:href="#O"/><use x="813.672" xlink:href="#P"/><use x="877.148" xlink:href="#u"/><use x="904.932" xlink:href="#y"/><use x="966.455" xlink:href="#J"/><use x="1050.342" xlink:href="#x"/><use x="1078.125" xlink:href="#Q"/><use x="1173.291" xlink:href="#o"/><use x="1236.914" xlink:href="#o"/><use x="1300.537" xlink:href="#R"/><use x="1332.324" xlink:href="#l"/><use x="1427.734" xlink:href="#v"/><use x="1491.211" xlink:href="#d"/><use x="1552.49" xlink:href="#j"/><use x="1611.67" xlink:href="#J"/><use x="1663.77" xlink:href="#S"/></g><path d="M79.22 341.067h20" fill="none" stroke="#2ca02c" stroke-linecap="square" stroke-width="1.5"/><g transform="matrix(.1 0 0 -.1 107.22 344.567)"><use xlink:href="#c"/><use x="86.279" xlink:href="#d"/><use x="147.559" xlink:href="#J"/><use x="199.658" xlink:href="#J"/><use x="251.758" xlink:href="#d"/><use x="313.037" xlink:href="#D"/><path d="M422.908 33.016V0h-8.984v32.719q0 7.765-3.031 11.61-3.032 3.858-9.079 3.858-7.28 0-11.484-4.64-4.203-4.625-4.203-12.64V0h-9.031v75.984h9.031V46.188q3.234 4.937 7.594 7.374Q398.096 56 403.814 56q9.422 0 14.25-5.828 4.844-5.828 4.844-17.156z"/><use x="431.396" xlink:href="#O"/><use x="494.775" xlink:href="#J"/><use x="546.875" xlink:href="#y"/><use x="608.398" xlink:href="#E"/><use x="647.607" xlink:href="#E"/><use x="686.816" xlink:href="#J"/><use x="770.703" xlink:href="#N"/><use x="809.717" xlink:href="#v"/><use x="873.193" xlink:href="#t"/><use x="934.375" xlink:href="#O"/><use x="997.754" xlink:href="#P"/><use x="1061.23" xlink:href="#u"/><use x="1089.014" xlink:href="#y"/><use x="1150.537" xlink:href="#J"/><use x="1234.424" xlink:href="#x"/><use x="1262.207" xlink:href="#Q"/><use x="1357.373" xlink:href="#f"/><use x="1420.996" xlink:href="#o"/><use x="1484.619" xlink:href="#R"/><use x="1516.406" xlink:href="#m"/><use x="1611.816" xlink:href="#v"/><use x="1675.293" xlink:href="#d"/><use x="1736.572" xlink:href="#j"/><use x="1795.752" xlink:href="#J"/><use x="1847.852" xlink:href="#S"/></g><path d="M79.22 355.745h20" fill="none" stroke="#d62728" stroke-linecap="square" stroke-width="1.5"/><use fill="#d62728" stroke="#d62728" x="89.22" xlink:href="#B" y="355.745"/><g transform="matrix(.1 0 0 -.1 107.22 359.245)"><use xlink:href="#G"/><use x="69.824" xlink:href="#d"/><use x="131.104" xlink:href="#u"/><use x="158.887" xlink:href="#x"/><use x="186.67" xlink:href="#K"/><use x="221.875" xlink:href="#t"/><use x="283.057" xlink:href="#e"/><use x="324.154" xlink:href="#Q"/><use x="387.533" xlink:href="#x"/><use x="415.316" xlink:href="#d"/><use x="508.383" xlink:href="#N"/><use x="547.396" xlink:href="#v"/><use x="610.873" xlink:href="#t"/><use x="672.055" xlink:href="#O"/><use x="735.434" xlink:href="#P"/><use x="798.91" xlink:href="#u"/><use x="826.693" xlink:href="#y"/><use x="888.217" xlink:href="#J"/><use x="972.104" xlink:href="#x"/><use x="999.887" xlink:href="#Q"/><use x="1095.053" xlink:href="#m"/><use x="1158.676" xlink:href="#p"/><use x="1222.299" xlink:href="#R"/><use x="1254.086" xlink:href="#n"/><use x="1349.496" xlink:href="#v"/><use x="1412.973" xlink:href="#d"/><use x="1474.252" xlink:href="#j"/><use x="1533.432" xlink:href="#J"/><use x="1585.531" xlink:href="#S"/></g><path d="M79.22 370.423h20" fill="none" stroke="#9467bd" stroke-linecap="square" stroke-width="1.5"/><use fill="#9467bd" stroke="#9467bd" x="89.22" xlink:href="#C" y="370.423"/><g transform="matrix(.1 0 0 -.1 107.22 373.923)"><path d="M19.672 64.797v-27.39h12.406q6.89 0 10.64 3.562 3.766 3.562 3.766 10.156 0 6.547-3.765 10.11-3.75 3.562-10.64 3.562zm-9.86 8.11h22.266q12.266 0 18.531-5.548 6.282-5.546 6.282-16.234 0-10.797-6.282-16.313-6.265-5.515-18.53-5.515H19.671V0h-9.86z"/><use x="60.256" xlink:href="#y"/><use x="121.779" xlink:href="#Q"/><use x="185.158" xlink:href="#Q"/><use x="248.537" xlink:href="#J"/><use x="300.637" xlink:href="#j"/><use x="359.816" xlink:href="#u"/><use x="387.6" xlink:href="#F"/><use x="446.779" xlink:href="#d"/><use x="508.059" xlink:href="#Q"/><use x="571.438" xlink:href="#x"/><use x="599.221" xlink:href="#d"/><use x="692.287" xlink:href="#N"/><use x="731.301" xlink:href="#v"/><use x="794.777" xlink:href="#t"/><use x="855.959" xlink:href="#O"/><use x="919.338" xlink:href="#P"/><use x="982.814" xlink:href="#u"/><use x="1010.598" xlink:href="#y"/><use x="1072.121" xlink:href="#J"/><use x="1156.008" xlink:href="#x"/><use x="1183.791" xlink:href="#Q"/><use x="1278.957" xlink:href="#f"/><use x="1342.58" xlink:href="#p"/><use x="1406.203" xlink:href="#R"/><use x="1437.99" xlink:href="#p"/><use x="1533.4" xlink:href="#v"/><use x="1596.877" xlink:href="#d"/><use x="1658.156" xlink:href="#j"/><use x="1717.336" xlink:href="#J"/><use x="1769.436" xlink:href="#S"/></g></g></g></svg>