<svg height="758.4" stroke-linejoin="round" viewBox="0 0 568.8 568.8" width="758.4" xmlns="http://www.w3.org/2000/svg" xmlns:xlink="http://www.w3.org/1999/xlink"><defs><path id="w" d="M0 1.5a1.5 1.5 0 100-3 1.5 1.5 0 000 3z" stroke="#ff7f0e" stroke-linejoin="round"/><path id="T" d="M9.813 72.906h13.28l32.329-60.984v60.984h9.562V0h-13.28L19.39 60.984V0H9.813z" stroke-linejoin="round"/><path id="b" d="M0 0v3.5" stroke="#000" stroke-linejoin="round" stroke-width=".8"/><path id="c" d="M31.781 66.406q-7.61 0-11.453-7.5Q16.5 51.422 16.5 36.375q0-14.984 3.828-22.484 3.844-7.5 11.453-7.5 7.672 0 11.5 7.5 3.844 7.5 3.844 22.484 0 15.047-3.844 22.531-3.828 7.5-11.5 7.5zm0 7.813q12.266 0 18.735-9.703 6.468-9.688 6.468-28.141 0-18.406-6.468-28.11-6.47-9.687-18.735-9.687-12.25 0-18.718 9.688-6.47 9.703-6.47 28.109 0 18.453 6.47 28.14Q19.53 74.22 31.78 74.22z" stroke-linejoin="round"/><path id="d" d="M10.984 1.516V10.5q3.72-1.766 7.516-2.688 3.813-.921 7.484-.921 9.766 0 14.907 6.562 5.156 6.563 5.89 19.953-2.828-4.203-7.187-6.453-4.344-2.25-9.61-2.25-10.937 0-17.312 6.61-6.375 6.625-6.375 18.109 0 11.219 6.64 18 6.641 6.797 17.672 6.797 12.657 0 19.313-9.703 6.672-9.688 6.672-28.141 0-17.234-8.188-27.516Q40.234-1.42 26.422-1.42q-3.719 0-7.531.734-3.797.734-7.907 2.203zM30.61 32.422q6.641 0 10.516 4.531 3.89 4.547 3.89 12.469 0 7.86-3.89 12.422-3.875 4.562-10.516 4.562-6.64 0-10.515-4.562-3.875-4.563-3.875-12.422 0-7.922 3.875-12.469 3.875-4.531 10.515-4.531z" stroke-linejoin="round"/><path id="e" d="M34.188 63.188L20.797 26.906h26.812zm-5.579 9.718h11.188L67.578 0h-10.25l-6.64 18.703h-32.86L11.188 0H.78z" stroke-linejoin="round"/><path id="f" d="M18.11 8.203v-29H9.077v75.484h9.031v-8.296q2.844 4.875 7.157 7.234Q29.594 56 35.594 56q9.968 0 16.187-7.906 6.235-7.907 6.235-20.797T51.78 6.484q-6.218-7.906-16.187-7.906-6 0-10.328 2.375-4.313 2.375-7.157 7.25zm30.578 19.094q0 9.906-4.079 15.547-4.078 5.64-11.203 5.64-7.14 0-11.218-5.64-4.079-5.64-4.079-15.547 0-9.906 4.078-15.547 4.079-5.64 11.22-5.64 7.124 0 11.202 5.64t4.078 15.547z" stroke-linejoin="round"/><path id="g" d="M41.11 46.297q-1.516.875-3.297 1.281Q36.03 48 33.89 48q-7.625 0-11.703-4.953-4.079-4.953-4.079-14.234V0H9.08v54.688h9.03v-8.5q2.844 4.984 7.375 7.39Q30.031 56 36.531 56q.922 0 2.047-.125 1.125-.11 2.484-.36z" stroke-linejoin="round"/><path id="h" d="M19.188 8.297h34.421V0H7.33v8.297q5.609 5.812 15.296 15.594 9.703 9.797 12.188 12.64 4.734 5.313 6.609 9 1.89 3.688 1.89 7.25 0 5.813-4.078 9.469-4.078 3.672-10.625 3.672-4.64 0-9.797-1.61-5.14-1.609-11-4.89v9.969Q13.767 71.78 18.938 73q5.188 1.219 9.485 1.219 11.328 0 18.062-5.672 6.735-5.656 6.735-15.125 0-4.5-1.688-8.531-1.672-4.016-6.125-9.485-1.218-1.422-7.765-8.187-6.532-6.766-18.453-18.922z" stroke-linejoin="round"/><path id="i" d="M0 0v2" stroke="#000" stroke-linejoin="round" stroke-width=".6"/><path id="j" d="M12.406 8.297h16.11v55.625l-17.532-3.516v8.985l17.438 3.515h9.86V8.296H54.39V0H12.406z" stroke-linejoin="round"/><path id="k" d="M33.016 40.375q-6.641 0-10.532-4.547-3.875-4.531-3.875-12.437 0-7.86 3.875-12.438 3.891-4.562 10.532-4.562 6.64 0 10.515 4.562 3.875 4.578 3.875 12.438 0 7.906-3.875 12.437-3.875 4.547-10.515 4.547zm19.578 30.922v-8.984q-3.719 1.75-7.5 2.671-3.782.938-7.5.938-9.766 0-14.922-6.594-5.14-6.594-5.875-19.922 2.875 4.25 7.219 6.516 4.359 2.266 9.578 2.266 10.984 0 17.36-6.672 6.374-6.657 6.374-18.125 0-11.235-6.64-18.032-6.641-6.78-17.672-6.78-12.657 0-19.344 9.687-6.688 9.703-6.688 28.109 0 17.281 8.204 27.563 8.203 10.28 22.015 10.28 3.719 0 7.5-.734t7.89-2.187z" stroke-linejoin="round"/><path id="l" d="M40.578 39.313Q47.656 37.797 51.625 33q3.984-4.781 3.984-11.813 0-10.78-7.422-16.703-7.421-5.906-21.093-5.906-4.578 0-9.438.906-4.86.907-10.031 2.72v9.515q4.094-2.39 8.969-3.61 4.89-1.218 10.218-1.218 9.266 0 14.125 3.656 4.86 3.656 4.86 10.64 0 6.454-4.516 10.079-4.515 3.64-12.562 3.64h-8.5v8.11h8.89q7.266 0 11.125 2.906 3.86 2.906 3.86 8.375 0 5.61-3.985 8.61-3.968 3.015-11.39 3.015-4.063 0-8.703-.89-4.641-.876-10.203-2.72v8.782q5.624 1.562 10.53 2.344 4.907.78 9.25.78 11.235 0 17.766-5.109 6.547-5.093 6.547-13.78 0-6.063-3.468-10.235-3.47-4.172-9.86-5.782z" stroke-linejoin="round"/><path id="m" d="M0 0h-3.5" stroke="#000" stroke-linejoin="round" stroke-width=".8"/><path id="n" d="M37.797 64.313L12.89 25.39h24.906zm-2.594 8.593H47.61V25.391h10.407v-8.203H47.609V0h-9.812v17.188H4.89v9.515z" stroke-linejoin="round"/><path id="o" d="M10.797 72.906h38.719v-8.312H19.828v-17.86q2.14.735 4.281 1.094 2.157.36 4.313.36 12.203 0 19.328-6.688 7.14-6.688 7.14-18.11 0-11.765-7.328-18.296-7.328-6.516-20.656-6.516-4.593 0-9.36.781-4.75.782-9.827 2.344v9.922q4.39-2.39 9.078-3.563 4.687-1.171 9.906-1.171 8.453 0 13.375 4.437 4.938 4.438 4.938 12.063 0 7.609-4.938 12.047-4.922 4.453-13.375 4.453-3.953 0-7.89-.875-3.922-.875-8.016-2.735z" stroke-linejoin="round"/><path id="p" d="M30.61 48.39q-7.22 0-11.422-5.64-4.204-5.64-4.204-15.453 0-9.813 4.172-15.453 4.188-5.64 11.453-5.64 7.188 0 11.375 5.655 4.203 5.672 4.203 15.438 0 9.719-4.203 15.406-4.187 5.688-11.375 5.688zm0 7.61q11.718 0 18.406-7.625 6.703-7.61 6.703-21.078 0-13.422-6.703-21.078-6.688-7.64-18.407-7.64-11.765 0-18.437 7.64-6.656 7.656-6.656 21.078 0 13.469 6.656 21.078Q18.844 56 30.609 56z" stroke-linejoin="round"/><path id="q" d="M9.422 75.984h8.984V0H9.422z" stroke-linejoin="round"/><path id="r" d="M45.406 46.39v29.594h8.985V0h-8.985v8.203Q42.578 3.328 38.25.953q-4.313-2.375-10.375-2.375-9.906 0-16.14 7.906-6.22 7.922-6.22 20.813 0 12.89 6.22 20.797Q17.968 56 27.874 56q6.063 0 10.375-2.375 4.328-2.36 7.156-7.234zm-30.61-19.093q0-9.906 4.079-15.547 4.078-5.64 11.203-5.64 7.125 0 11.219 5.64 4.11 5.64 4.11 15.547 0 9.906-4.11 15.547-4.094 5.64-11.219 5.64-7.125 0-11.203-5.64-4.078-5.64-4.078-15.547z" stroke-linejoin="round"/><path id="s" d="M4.203 54.688h8.985l11.234-42.672 11.172 42.672h10.593l11.235-42.672 11.187 42.672h8.985L63.28 0H52.688L40.922 44.828 29.109 0H18.5z" stroke-linejoin="round"/><path id="t" d="M9.422 54.688h8.984V0H9.422zm0 21.296h8.984v-11.39H9.422z" stroke-linejoin="round"/><path id="u" d="M56.203 29.594v-4.39H14.891q.593-9.282 5.593-14.142 5-4.859 13.938-4.859 5.172 0 10.031 1.266 4.86 1.265 9.656 3.812v-8.5Q49.266.734 44.187-.344 39.11-1.422 33.892-1.422q-13.094 0-20.735 7.61-7.64 7.625-7.64 20.625 0 13.421 7.25 21.296Q20.016 56 32.328 56q11.031 0 17.453-7.11 6.422-7.093 6.422-19.296zm-8.984 2.64q-.094 7.36-4.125 11.75-4.032 4.407-10.672 4.407-7.516 0-12.031-4.25-4.516-4.25-5.203-11.97z" stroke-linejoin="round"/><path id="v" d="M-3 0h6M0 3v-6" stroke="#1f77b4" stroke-linejoin="round"/><path id="S" d="M8.203 72.906h46.875v-4.203L28.61 0H18.312L43.22 64.594H8.203z" stroke-linejoin="round"/><path id="x" d="M-3 0h6M0 3v-6" stroke="#d62728" stroke-linejoin="round"/><path id="y" d="M0 1.5a1.5 1.5 0 100-3 1.5 1.5 0 000 3z" stroke="#9467bd" stroke-linejoin="round"/><path id="z" d="M48.781 52.594v-8.407q-3.812 2.11-7.64 3.157-3.828 1.047-7.735 1.047-8.75 0-13.593-5.547-4.829-5.532-4.829-15.547 0-10.016 4.829-15.563 4.843-5.53 13.593-5.53 3.907 0 7.735 1.046 3.828 1.047 7.64 3.156V2.094Q45.016.344 40.984-.531q-4.015-.89-8.562-.89-12.36 0-19.64 7.765-7.266 7.765-7.266 20.953 0 13.375 7.343 21.031Q20.22 56 33.016 56q4.14 0 8.093-.86 3.953-.843 7.672-2.546z" stroke-linejoin="round"/><path id="A" d="M18.313 70.219V54.688h18.5v-6.985h-18.5V18.016q0-6.688 1.828-8.594 1.828-1.906 7.453-1.906h9.218V0h-9.218q-10.407 0-14.36 3.875-3.953 3.89-3.953 14.14v29.688H2.687v6.984h6.594V70.22z" stroke-linejoin="round"/><path id="B" d="M64.406 67.281v-10.39q-4.984 4.64-10.625 6.922-5.64 2.296-11.984 2.296-12.5 0-19.14-7.64-6.641-7.64-6.641-22.094 0-14.406 6.64-22.047 6.64-7.64 19.14-7.64 6.345 0 11.985 2.296 5.64 2.297 10.625 6.938V5.609Q59.234 2.094 53.437.33q-5.78-1.75-12.218-1.75-16.563 0-26.094 10.124-9.516 10.14-9.516 27.672 0 17.578 9.516 27.703 9.531 10.14 26.094 10.14 6.531 0 12.312-1.734 5.797-1.734 10.875-5.203z" stroke-linejoin="round"/><path id="C" d="M9.813 72.906h9.859V0h-9.86z" stroke-linejoin="round"/><path id="D" d="M4.89 31.39h26.313v-8H4.891z" stroke-linejoin="round"/><path id="E" d="M34.281 27.484q-10.89 0-15.093-2.484-4.204-2.484-4.204-8.5 0-4.781 3.157-7.594 3.156-2.797 8.562-2.797 7.485 0 12 5.297 4.516 5.297 4.516 14.078v2zm17.922 3.72V0H43.22v8.297Q40.14 3.328 35.547.953q-4.594-2.375-11.234-2.375-8.391 0-13.36 4.719Q6 8.016 6 15.922q0 9.219 6.172 13.906 6.187 4.688 18.437 4.688h12.61v.89q0 6.203-4.078 9.594-4.078 3.39-11.453 3.39-4.688 0-9.141-1.124-4.438-1.125-8.531-3.375v8.312q4.921 1.906 9.562 2.844 4.64.953 9.031.953 11.875 0 17.735-6.156 5.86-6.14 5.86-18.64z" stroke-linejoin="round"/><path id="F" d="M44.281 53.078v-8.5q-3.797 1.953-7.906 2.922-4.094.984-8.5.984-6.688 0-10.031-2.047-3.344-2.046-3.344-6.156 0-3.125 2.39-4.906 2.391-1.781 9.626-3.39l3.078-.688q9.562-2.047 13.593-5.781 4.032-3.735 4.032-10.422 0-7.625-6.032-12.078-6.03-4.438-16.578-4.438-4.39 0-9.156.86Q10.688.296 5.422 2v9.281q4.984-2.594 9.812-3.89 4.829-1.282 9.579-1.282 6.343 0 9.75 2.172 3.421 2.172 3.421 6.125 0 3.656-2.468 5.61-2.453 1.953-10.813 3.765l-3.125.735q-8.344 1.75-12.062 5.39-3.704 3.64-3.704 9.985 0 7.718 5.47 11.906Q16.75 56 26.811 56q4.97 0 9.36-.734 4.406-.72 8.11-2.188z" stroke-linejoin="round"/><path id="G" d="M37.11 75.984V68.5h-8.594q-4.828 0-6.72-1.953-1.874-1.953-1.874-7.031v-4.828h14.797v-6.985H19.922V0H10.89v47.703H2.297v6.984h8.594V58.5q0 9.125 4.25 13.297 4.25 4.187 13.468 4.187z" stroke-linejoin="round"/><path id="H" d="M31.781 34.625q-7.031 0-11.062-3.766-4.016-3.765-4.016-10.343 0-6.594 4.016-10.36Q24.75 6.391 31.78 6.391q7.032 0 11.078 3.78 4.063 3.798 4.063 10.345 0 6.578-4.031 10.343-4.016 3.766-11.11 3.766zm-9.86 4.188q-6.343 1.562-9.89 5.906Q8.5 49.079 8.5 55.329q0 8.733 6.219 13.812 6.234 5.078 17.062 5.078 10.89 0 17.094-5.078 6.203-5.079 6.203-13.813 0-6.25-3.547-10.61-3.531-4.343-9.828-5.906 7.125-1.656 11.094-6.5 3.984-4.828 3.984-11.796 0-10.61-6.468-16.282-6.47-5.656-18.532-5.656-12.047 0-18.531 5.656-6.469 5.672-6.469 16.282 0 6.968 4 11.797 4.016 4.843 11.14 6.5zM18.314 54.39q0-5.657 3.53-8.828 3.548-3.172 9.938-3.172 6.36 0 9.938 3.172 3.593 3.171 3.593 8.828 0 5.672-3.593 8.843-3.578 3.172-9.938 3.172-6.39 0-9.937-3.172-3.532-3.172-3.532-8.843z" stroke-linejoin="round"/><path id="I" d="M8.688 72.906h9.921V28.61q0-11.718 4.235-16.875 4.25-5.14 13.781-5.14 9.469 0 13.719 5.14 4.25 5.157 4.25 16.875v44.297H64.5V27.391q0-14.25-7.063-21.532-7.046-7.28-20.812-7.28-13.828 0-20.89 7.28-7.047 7.282-7.047 21.532z" stroke-linejoin="round"/><path id="J" d="M53.516 70.516V60.89q-5.61 2.687-10.594 4-4.984 1.328-9.625 1.328-8.047 0-12.422-3.125t-4.375-8.89q0-4.845 2.906-7.313 2.907-2.453 11.016-3.97l5.953-1.218q11.031-2.11 16.281-7.406 5.25-5.297 5.25-14.172 0-10.61-7.11-16.078-7.093-5.469-20.812-5.469-5.172 0-11.015 1.172Q13.14.922 6.89 3.219v10.156q6-3.36 11.765-5.078 5.766-1.703 11.328-1.703 8.438 0 13.032 3.312 4.593 3.328 4.593 9.485 0 5.359-3.297 8.39-3.296 3.032-10.812 4.547L27.484 33.5q-11.03 2.188-15.968 6.875-4.922 4.688-4.922 13.047 0 9.672 6.812 15.234 6.813 5.563 18.766 5.563 5.14 0 10.453-.938 5.328-.922 10.89-2.765z" stroke-linejoin="round"/><path id="K" d="M31 75.875q-6.531-11.219-9.719-22.219-3.172-10.984-3.172-22.265 0-11.266 3.203-22.328Q24.517-2 31-13.188h-7.813Q15.875-1.704 12.235 9.375q-3.64 11.078-3.64 22.016 0 10.89 3.61 21.922 3.624 11.046 10.983 22.562z" stroke-linejoin="round"/><path id="L" d="M8.5 21.578v33.11h8.984V21.922q0-7.766 3.016-11.656 3.031-3.875 9.094-3.875 7.265 0 11.484 4.64 4.234 4.64 4.234 12.656v31h8.985V0h-8.984v8.406Q42.047 3.422 37.718 1q-4.313-2.422-10.032-2.422-9.421 0-14.312 5.86Q8.5 10.296 8.5 21.578z" stroke-linejoin="round"/><path id="M" d="M48.688 27.297q0 9.906-4.079 15.547-4.078 5.64-11.203 5.64-7.14 0-11.218-5.64-4.079-5.64-4.079-15.547 0-9.906 4.078-15.547 4.079-5.64 11.22-5.64 7.124 0 11.202 5.64t4.078 15.547zM18.108 46.39q2.844 4.875 7.157 7.234Q29.594 56 35.594 56q9.968 0 16.187-7.906 6.235-7.907 6.235-20.797T51.78 6.484q-6.218-7.906-16.187-7.906-6 0-10.328 2.375-4.313 2.375-7.157 7.25V0H9.08v75.984h9.03z" stroke-linejoin="round"/><path id="N" d="M54.89 33.016V0h-8.984v32.719q0 7.765-3.031 11.61-3.031 3.858-9.078 3.858-7.281 0-11.484-4.64-4.204-4.625-4.204-12.64V0H9.08v54.688h9.03v-8.5q3.235 4.937 7.594 7.374Q30.078 56 35.797 56q9.422 0 14.25-5.828 4.844-5.828 4.844-17.156z" stroke-linejoin="round"/><path id="O" d="M10.688 12.406H21V0H10.687z" stroke-linejoin="round"/><path id="P" d="M32.172-5.078q-3.797-9.766-7.422-12.735-3.61-2.984-9.656-2.984H7.906v7.516h5.282q3.703 0 5.75 1.765Q21-9.766 23.483-3.219l1.61 4.094-22.11 53.813H12.5l17.094-42.766 17.093 42.766h9.516z" stroke-linejoin="round"/><path id="Q" d="M8.016 75.875h7.812q7.313-11.516 10.953-22.563 3.64-11.03 3.64-21.921 0-10.938-3.64-22.016-3.64-11.078-10.953-22.563H8.016Q14.5-2 17.703 9.063q3.203 11.063 3.203 22.329 0 11.28-3.203 22.265-3.203 11-9.687 22.219z" stroke-linejoin="round"/><clipPath id="R" stroke-linejoin="round"><path d="M70.22 297.12H558v208.808H70.22z"/></clipPath><clipPath id="a" stroke-linejoin="round"><path d="M70.22 25.44H558v208.808H70.22z"/></clipPath></defs><path d="M0 568.8h568.8V0H0z" fill="#fff"/><path d="M70.22 234.248H558V25.44H70.22z" fill="#fff"/><path clip-path="url(#a)" d="M70.22 234.248V25.44" fill="none" stroke="#b0b0b0" stroke-linecap="square" stroke-width=".8"/><use stroke="#000" stroke-width=".8" x="70.22" xlink:href="#b" y="234.248"/><g transform="matrix(.1 0 0 -.1 63.858 248.846)"><use xlink:href="#c"/><use x="63.623" xlink:href="#d"/></g><path clip-path="url(#a)" d="M410.188 234.248V25.44" fill="none" stroke="#b0b0b0" stroke-linecap="square" stroke-width=".8"/><use stroke="#000" stroke-width=".8" x="410.188" xlink:href="#b" y="234.248"/><g transform="matrix(.1 0 0 -.1 401.538 271.242)"><use xlink:href="#e"/><use x="68.408" xlink:href="#f"/><use x="131.885" xlink:href="#g"/></g><g transform="matrix(.1 0 0 -.1 397.463 282.44)"><use xlink:href="#h"/><use x="63.623" xlink:href="#c"/><use x="127.246" xlink:href="#h"/><use x="190.869" xlink:href="#c"/></g><g stroke-width=".8"><path clip-path="url(#a)" d="M558 234.248V25.44" fill="none" stroke="#b0b0b0" stroke-linecap="square"/><use stroke="#000" x="558" xlink:href="#b" y="234.248"/></g><g stroke="#000" stroke-width=".6"><use x="85.001" xlink:href="#i" y="234.248"/><use x="99.782" xlink:href="#i" y="234.248"/><use x="114.564" xlink:href="#i" y="234.248"/><use x="129.345" xlink:href="#i" y="234.248"/><use x="144.126" xlink:href="#i" y="234.248"/><use x="158.907" xlink:href="#i" y="234.248"/></g><use stroke="#000" stroke-width=".6" x="173.688" xlink:href="#i" y="234.248"/><g transform="matrix(.1 0 0 -.1 167.326 247.246)"><use xlink:href="#j"/><use x="63.623" xlink:href="#k"/></g><use stroke="#000" stroke-width=".6" x="188.47" xlink:href="#i" y="234.248"/><use stroke="#000" stroke-width=".6" x="203.251" xlink:href="#i" y="234.248"/><use stroke="#000" stroke-width=".6" x="218.032" xlink:href="#i" y="234.248"/><use stroke="#000" stroke-width=".6" x="232.813" xlink:href="#i" y="234.248"/><use stroke="#000" stroke-width=".6" x="247.595" xlink:href="#i" y="234.248"/><use stroke="#000" stroke-width=".6" x="262.376" xlink:href="#i" y="234.248"/><use stroke="#000" stroke-width=".6" x="277.157" xlink:href="#i" y="234.248"/><g transform="matrix(.1 0 0 -.1 270.794 247.246)"><use xlink:href="#h"/><use x="63.623" xlink:href="#l"/></g><use stroke="#000" stroke-width=".6" x="291.938" xlink:href="#i" y="234.248"/><use stroke="#000" stroke-width=".6" x="306.719" xlink:href="#i" y="234.248"/><use stroke="#000" stroke-width=".6" x="321.501" xlink:href="#i" y="234.248"/><use stroke="#000" stroke-width=".6" x="336.282" xlink:href="#i" y="234.248"/><use stroke="#000" stroke-width=".6" x="351.063" xlink:href="#i" y="234.248"/><use stroke="#000" stroke-width=".6" x="365.844" xlink:href="#i" y="234.248"/><use stroke="#000" stroke-width=".6" x="380.625" xlink:href="#i" y="234.248"/><g transform="matrix(.1 0 0 -.1 374.263 247.246)"><use xlink:href="#l"/><use x="63.623" xlink:href="#c"/></g><use stroke="#000" stroke-width=".6" x="395.407" xlink:href="#i" y="234.248"/><use stroke="#000" stroke-width=".6" x="424.969" xlink:href="#i" y="234.248"/><use stroke="#000" stroke-width=".6" x="439.75" xlink:href="#i" y="234.248"/><use stroke="#000" stroke-width=".6" x="454.532" xlink:href="#i" y="234.248"/><use stroke="#000" stroke-width=".6" x="469.313" xlink:href="#i" y="234.248"/><g><use stroke="#000" stroke-width=".6" x="484.094" xlink:href="#i" y="234.248"/><g transform="matrix(.1 0 0 -.1 477.731 247.246)"><use xlink:href="#c"/><use x="63.623" xlink:href="#k"/></g></g><use stroke="#000" stroke-width=".6" x="498.875" xlink:href="#i" y="234.248"/><use stroke="#000" stroke-width=".6" x="513.656" xlink:href="#i" y="234.248"/><use stroke="#000" stroke-width=".6" x="528.438" xlink:href="#i" y="234.248"/><use stroke="#000" stroke-width=".6" x="543.219" xlink:href="#i" y="234.248"/><g><path clip-path="url(#a)" d="M70.22 193.812H558" fill="none" stroke="#b0b0b0" stroke-linecap="square" stroke-width=".8"/><use stroke="#000" stroke-width=".8" x="70.22" xlink:href="#m" y="193.812"/><g transform="matrix(.1 0 0 -.1 25.045 197.611)"><use xlink:href="#j"/><use x="63.623" xlink:href="#c"/><use x="127.246" xlink:href="#c"/><use x="190.869" xlink:href="#c"/><use x="254.492" xlink:href="#c"/><use x="318.115" xlink:href="#c"/></g><path clip-path="url(#a)" d="M70.22 153.372H558" fill="none" stroke="#b0b0b0" stroke-linecap="square" stroke-width=".8"/><use stroke="#000" stroke-width=".8" x="70.22" xlink:href="#m" y="153.372"/><g transform="matrix(.1 0 0 -.1 25.045 157.172)"><use xlink:href="#h"/><use x="63.623" xlink:href="#c"/><use x="127.246" xlink:href="#c"/><use x="190.869" xlink:href="#c"/><use x="254.492" xlink:href="#c"/><use x="318.115" xlink:href="#c"/></g><g><path clip-path="url(#a)" d="M70.22 112.932H558" fill="none" stroke="#b0b0b0" stroke-linecap="square" stroke-width=".8"/><use stroke="#000" stroke-width=".8" x="70.22" xlink:href="#m" y="112.932"/><g transform="matrix(.1 0 0 -.1 25.045 116.732)"><use xlink:href="#l"/><use x="63.623" xlink:href="#c"/><use x="127.246" xlink:href="#c"/><use x="190.869" xlink:href="#c"/><use x="254.492" xlink:href="#c"/><use x="318.115" xlink:href="#c"/></g></g><g><path clip-path="url(#a)" d="M70.22 72.493H558" fill="none" stroke="#b0b0b0" stroke-linecap="square" stroke-width=".8"/><use stroke="#000" stroke-width=".8" x="70.22" xlink:href="#m" y="72.493"/><g transform="matrix(.1 0 0 -.1 25.045 76.292)"><use xlink:href="#n"/><use x="63.623" xlink:href="#c"/><use x="127.246" xlink:href="#c"/><use x="190.869" xlink:href="#c"/><use x="254.492" xlink:href="#c"/><use x="318.115" xlink:href="#c"/></g></g><g><path clip-path="url(#a)" d="M70.22 32.053H558" fill="none" stroke="#b0b0b0" stroke-linecap="square" stroke-width=".8"/><use stroke="#000" stroke-width=".8" x="70.22" xlink:href="#m" y="32.053"/><g transform="matrix(.1 0 0 -.1 25.045 35.852)"><use xlink:href="#o"/><use x="63.623" xlink:href="#c"/><use x="127.246" xlink:href="#c"/><use x="190.869" xlink:href="#c"/><use x="254.492" xlink:href="#c"/><use x="318.115" xlink:href="#c"/></g></g><g transform="matrix(0 -.1 -.1 0 18.965 156.19)"><path d="M3.328 72.906h9.953L28.61 11.281l15.282 61.625h11.093l15.328-61.625 15.282 61.625h10.015L77.297 0H64.89L49.516 63.281 33.984 0H21.578z"/><use x="98.799" xlink:href="#p"/><use x="159.98" xlink:href="#g"/><use x="201.094" xlink:href="#q"/><use x="228.877" xlink:href="#r"/><use x="292.354" xlink:href="#s"/><use x="374.141" xlink:href="#t"/><use x="401.924" xlink:href="#r"/><use x="465.4" xlink:href="#u"/></g></g><g stroke="#1f77b4"><path clip-path="url(#a)" d="M-1 234.193l12.095-.022 14.781-.022 14.782-.055 14.78-.047 14.782-.027 14.781-.141 14.781-.127 14.782-.151 14.78-.206 14.782-.219 14.781-.309 14.781-.447 14.782-.714 14.78-.512 14.782-2.35 14.781-2.158 14.782-2.558 14.78-3.391 14.782-3.92 14.781-3.871 14.781-4.768 14.782-7.065 14.78-6.98 14.782-7.754 14.781-7.035 14.781-7.052 14.782-9.73 14.78-9.247 14.782-11.479 14.781-12.24 14.782-10.917 14.78-9.793 14.782-10.634 14.781-10.286 14.781-11.752" fill="none" stroke-linecap="square" stroke-width="1.5"/><g clip-path="url(#a)" fill="#1f77b4"><use x="-1" xlink:href="#v" y="234.193"/><use x="11.095" xlink:href="#v" y="234.171"/><use x="25.876" xlink:href="#v" y="234.149"/><use x="40.658" xlink:href="#v" y="234.094"/><use x="55.439" xlink:href="#v" y="234.047"/><use x="70.22" xlink:href="#v" y="234.02"/><use x="85.001" xlink:href="#v" y="233.879"/><use x="99.782" xlink:href="#v" y="233.752"/><use x="114.564" xlink:href="#v" y="233.601"/><use x="129.345" xlink:href="#v" y="233.395"/><use x="144.126" xlink:href="#v" y="233.176"/><use x="158.907" xlink:href="#v" y="232.867"/><use x="173.688" xlink:href="#v" y="232.42"/><use x="188.47" xlink:href="#v" y="231.706"/><use x="203.251" xlink:href="#v" y="231.194"/><use x="218.032" xlink:href="#v" y="228.844"/><use x="232.813" xlink:href="#v" y="226.686"/><use x="247.595" xlink:href="#v" y="224.128"/><use x="262.376" xlink:href="#v" y="220.737"/><use x="277.157" xlink:href="#v" y="216.816"/><use x="291.938" xlink:href="#v" y="212.946"/><use x="306.719" xlink:href="#v" y="208.178"/><use x="321.501" xlink:href="#v" y="201.113"/><use x="336.282" xlink:href="#v" y="194.133"/><use x="351.063" xlink:href="#v" y="186.379"/><use x="365.844" xlink:href="#v" y="179.344"/><use x="380.625" xlink:href="#v" y="172.292"/><use x="395.407" xlink:href="#v" y="162.562"/><use x="410.188" xlink:href="#v" y="153.315"/><use x="424.969" xlink:href="#v" y="141.836"/><use x="439.75" xlink:href="#v" y="129.597"/><use x="454.532" xlink:href="#v" y="118.679"/><use x="469.313" xlink:href="#v" y="108.886"/><use x="484.094" xlink:href="#v" y="98.252"/><use x="498.875" xlink:href="#v" y="87.966"/><use x="513.656" xlink:href="#v" y="76.214"/></g></g><g stroke="#ff7f0e"><path clip-path="url(#a)" d="M-1 233.114l12.095-.195 14.781-.25 14.782-.464 14.78-.536 14.782-.646 14.781-.327 14.781-.727h14.782l14.78-1.765 14.782-1.13 14.781-1.154 14.781-.999 14.782-1.208 14.78-1.071 14.782-1.812 14.781-2.167 14.782-1.671 14.78-1.6 14.782-1.529 14.781-1.46 14.781-1.412 14.782-1.817 14.78-1.78 14.782-1.476 14.781-1.543 14.781-.666 14.782-.852 14.78-1.188 14.782-1.002 14.781-.946 14.782-1.167 14.78-1.202 14.782-.785 14.781-.356 14.781-.483" fill="none" stroke-linecap="square" stroke-width="1.5"/><g clip-path="url(#a)" fill="#ff7f0e"><use x="-1" xlink:href="#w" y="233.114"/><use x="11.095" xlink:href="#w" y="232.919"/><use x="25.876" xlink:href="#w" y="232.668"/><use x="40.658" xlink:href="#w" y="232.205"/><use x="55.439" xlink:href="#w" y="231.669"/><use x="70.22" xlink:href="#w" y="231.023"/><use x="85.001" xlink:href="#w" y="230.696"/><use x="99.782" xlink:href="#w" y="229.969"/><use x="114.564" xlink:href="#w" y="229.969"/><use x="129.345" xlink:href="#w" y="228.204"/><use x="144.126" xlink:href="#w" y="227.074"/><use x="158.907" xlink:href="#w" y="225.92"/><use x="173.688" xlink:href="#w" y="224.921"/><use x="188.47" xlink:href="#w" y="223.713"/><use x="203.251" xlink:href="#w" y="222.642"/><use x="218.032" xlink:href="#w" y="220.83"/><use x="232.813" xlink:href="#w" y="218.663"/><use x="247.595" xlink:href="#w" y="216.992"/><use x="262.376" xlink:href="#w" y="215.392"/><use x="277.157" xlink:href="#w" y="213.863"/><use x="291.938" xlink:href="#w" y="212.402"/><use x="306.719" xlink:href="#w" y="210.991"/><use x="321.501" xlink:href="#w" y="209.174"/><use x="336.282" xlink:href="#w" y="207.394"/><use x="351.063" xlink:href="#w" y="205.918"/><use x="365.844" xlink:href="#w" y="204.375"/><use x="380.625" xlink:href="#w" y="203.709"/><use x="395.407" xlink:href="#w" y="202.857"/><use x="410.188" xlink:href="#w" y="201.669"/><use x="424.969" xlink:href="#w" y="200.667"/><use x="439.75" xlink:href="#w" y="199.721"/><use x="454.532" xlink:href="#w" y="198.554"/><use x="469.313" xlink:href="#w" y="197.352"/><use x="484.094" xlink:href="#w" y="196.567"/><use x="498.875" xlink:href="#w" y="196.211"/><use x="513.656" xlink:href="#w" y="195.728"/></g></g><path clip-path="url(#a)" d="M-1 234.161l12.095-.012 14.781-.056 14.782-.027 14.78-.067 14.782-.157 14.781-.248 14.781-.167h14.782l14.78-1.159 14.782-.313 14.781-.53 14.781-.84 14.782-.453 14.78-.816 14.782-1.545 14.781-.709 14.782-1.656 14.78-1.152 14.782-1.92 14.781-1.542 14.781-2.919 14.782-2.387 14.78-1.949 14.782-1.514 14.781-1.468 14.781-1.966 14.782-1.917 14.78-1.57 14.782-1.17 14.781-1.016 14.782-1.017 14.78-.373 14.782-.797 14.781-.725 14.781-.29" fill="none" stroke="#2ca02c" stroke-linecap="square" stroke-width="1.5"/><g stroke="#d62728"><path clip-path="url(#a)" d="M-1 234.137l12.095-.03 14.781-.11 14.782-.12 14.78-.068 14.782-.033 14.781-.227 14.781-.196h14.782l14.78-.547 14.782-.324 14.781-.013 14.781-.842 14.782-.417 14.78-.554 14.782-.703 14.781-.622 14.782-.633 14.78.16 14.782-1.503 14.781-.476 14.781-.86 14.782-1.027 14.78-1.132 14.782-1.766 14.781-.326 14.781-1.337 14.782-2.267 14.78-1.16 14.782.27 14.781-1.037 14.782-9.364 14.78-.658 14.782-1.326 14.781-3.07 14.781-.574" fill="none" stroke-linecap="square" stroke-width="1.5"/><g clip-path="url(#a)" fill="#d62728"><use x="-1" xlink:href="#x" y="234.137"/><use x="11.095" xlink:href="#x" y="234.107"/><use x="25.876" xlink:href="#x" y="233.996"/><use x="40.658" xlink:href="#x" y="233.878"/><use x="55.439" xlink:href="#x" y="233.809"/><use x="70.22" xlink:href="#x" y="233.776"/><use x="85.001" xlink:href="#x" y="233.549"/><use x="99.782" xlink:href="#x" y="233.353"/><use x="114.564" xlink:href="#x" y="233.353"/><use x="129.345" xlink:href="#x" y="232.806"/><use x="144.126" xlink:href="#x" y="232.482"/><use x="158.907" xlink:href="#x" y="232.469"/><use x="173.688" xlink:href="#x" y="231.627"/><use x="188.47" xlink:href="#x" y="231.21"/><use x="203.251" xlink:href="#x" y="230.656"/><use x="218.032" xlink:href="#x" y="229.953"/><use x="232.813" xlink:href="#x" y="229.331"/><use x="247.595" xlink:href="#x" y="228.698"/><use x="262.376" xlink:href="#x" y="228.859"/><use x="277.157" xlink:href="#x" y="227.355"/><use x="291.938" xlink:href="#x" y="226.879"/><use x="306.719" xlink:href="#x" y="226.018"/><use x="321.501" xlink:href="#x" y="224.992"/><use x="336.282" xlink:href="#x" y="223.86"/><use x="351.063" xlink:href="#x" y="222.094"/><use x="365.844" xlink:href="#x" y="221.768"/><use x="380.625" xlink:href="#x" y="220.431"/><use x="395.407" xlink:href="#x" y="218.164"/><use x="410.188" xlink:href="#x" y="217.003"/><use x="424.969" xlink:href="#x" y="217.274"/><use x="439.75" xlink:href="#x" y="216.237"/><use x="454.532" xlink:href="#x" y="206.873"/><use x="469.313" xlink:href="#x" y="206.215"/><use x="484.094" xlink:href="#x" y="204.889"/><use x="498.875" xlink:href="#x" y="201.82"/><use x="513.656" xlink:href="#x" y="201.245"/></g></g><g stroke="#9467bd"><path clip-path="url(#a)" d="M-1 234.136l12.095-.072 14.781-.076 14.782-.052 14.78-.097 14.782-.054 14.781-.114 14.781-.18 14.782-.068 14.78-.636 14.782-.367 14.781-.488 14.781-.587 14.782-.8 14.78-1.224 14.782-1.2 14.781-1.796 14.782-.928 14.78-1.058 14.782-1.604 14.781-.447 14.781-1.612 14.782-1.79 14.78-2.375 14.782-1.986 14.781-1.444 14.781-.157 14.782-.887 14.78-1.342 14.782-1.211 14.781-1.643 14.782-1.188 14.78-.644 14.782-1.223 14.781 1.334 14.781 1.989" fill="none" stroke-linecap="square" stroke-width="1.5"/><g clip-path="url(#a)" fill="#9467bd"><use x="-1" xlink:href="#y" y="234.136"/><use x="11.095" xlink:href="#y" y="234.064"/><use x="25.876" xlink:href="#y" y="233.988"/><use x="40.658" xlink:href="#y" y="233.936"/><use x="55.439" xlink:href="#y" y="233.839"/><use x="70.22" xlink:href="#y" y="233.785"/><use x="85.001" xlink:href="#y" y="233.671"/><use x="99.782" xlink:href="#y" y="233.492"/><use x="114.564" xlink:href="#y" y="233.423"/><use x="129.345" xlink:href="#y" y="232.787"/><use x="144.126" xlink:href="#y" y="232.42"/><use x="158.907" xlink:href="#y" y="231.932"/><use x="173.688" xlink:href="#y" y="231.345"/><use x="188.47" xlink:href="#y" y="230.545"/><use x="203.251" xlink:href="#y" y="229.321"/><use x="218.032" xlink:href="#y" y="228.12"/><use x="232.813" xlink:href="#y" y="226.325"/><use x="247.595" xlink:href="#y" y="225.397"/><use x="262.376" xlink:href="#y" y="224.339"/><use x="277.157" xlink:href="#y" y="222.735"/><use x="291.938" xlink:href="#y" y="222.288"/><use x="306.719" xlink:href="#y" y="220.676"/><use x="321.501" xlink:href="#y" y="218.886"/><use x="336.282" xlink:href="#y" y="216.511"/><use x="351.063" xlink:href="#y" y="214.525"/><use x="365.844" xlink:href="#y" y="213.081"/><use x="380.625" xlink:href="#y" y="212.924"/><use x="395.407" xlink:href="#y" y="212.037"/><use x="410.188" xlink:href="#y" y="210.695"/><use x="424.969" xlink:href="#y" y="209.484"/><use x="439.75" xlink:href="#y" y="207.841"/><use x="454.532" xlink:href="#y" y="206.653"/><use x="469.313" xlink:href="#y" y="206.009"/><use x="484.094" xlink:href="#y" y="204.786"/><use x="498.875" xlink:href="#y" y="206.12"/><use x="513.656" xlink:href="#y" y="208.109"/></g></g><path clip-path="url(#a)" d="M513.656 76.214l14.782-12.582 14.78-13.584L558 35.383" fill="none" stroke="#1f77b4" stroke-dasharray="1.5 2.475" stroke-width="1.5"/><path clip-path="url(#a)" d="M513.656 195.728l14.782-.515 14.78-.521 14.782-.53" fill="none" stroke="#ff7f0e" stroke-dasharray="1.5 2.475" stroke-width="1.5"/><path clip-path="url(#a)" d="M513.656 199.714l14.782-.572 14.78-.581 14.782-.59" fill="none" stroke="#2ca02c" stroke-dasharray="1.5 2.475" stroke-width="1.5"/><path clip-path="url(#a)" d="M513.656 201.245l14.782-1.794 14.78-1.892L558 195.564" fill="none" stroke="#d62728" stroke-dasharray="1.5 2.475" stroke-width="1.5"/><path clip-path="url(#a)" d="M513.656 208.109l14.782.997 14.78.959 14.782.922" fill="none" stroke="#9467bd" stroke-dasharray="1.5 2.475" stroke-width="1.5"/><path d="M70.22 234.248V25.44M558 234.248V25.44M70.22 234.248H558M70.22 25.44H558" fill="none" stroke="#000" stroke-linecap="square" stroke-linejoin="miter" stroke-width=".8"/><g transform="matrix(.12 0 0 -.12 192.33 19.44)"><use xlink:href="#e"/><use x="68.393" xlink:href="#z"/><use x="123.373" xlink:href="#A"/><use x="162.582" xlink:href="#t"/><path d="M193.35 54.688h9.515L219.96 8.797l17.094 45.89h9.515L226.053 0H213.85z"/><use x="249.545" xlink:href="#u"/><use x="342.855" xlink:href="#B"/><path d="M452.086 66.219q-10.75 0-17.078-8.016-6.313-8-6.313-21.828 0-13.766 6.313-21.781 6.328-8 17.078-8 10.734 0 17.016 8 6.28 8.015 6.28 21.781 0 13.828-6.28 21.828-6.282 8.016-17.016 8.016zm0 8q15.328 0 24.5-10.281 9.187-10.282 9.187-27.563 0-17.234-9.187-27.516-9.172-10.28-24.5-10.28-15.375 0-24.594 10.25-9.203 10.265-9.203 27.546t9.203 27.563q9.219 10.28 24.594 10.28zM519.984 0l-27.828 72.906h10.297l23.11-61.375 23.14 61.375h10.25L531.172 0z"/><use x="559.783" xlink:href="#C"/><path d="M608.947 64.797V8.109h11.922q15.094 0 22.094 6.829 7 6.843 7 21.593 0 14.64-7 21.453-7 6.813-22.094 6.813zm-9.86 8.11h20.267q21.187 0 31.093-8.813 9.922-8.813 9.922-27.563 0-18.86-9.969-27.703Q640.447 0 619.354 0h-20.266z"/><use x="666.277" xlink:href="#D"/><use x="702.361" xlink:href="#j"/><use x="765.984" xlink:href="#d"/><use x="861.395" xlink:href="#z"/><use x="916.375" xlink:href="#E"/><use x="977.654" xlink:href="#F"/><use x="1029.754" xlink:href="#u"/><use x="1091.277" xlink:href="#F"/><use x="1175.164" xlink:href="#E"/><use x="1236.443" xlink:href="#F"/><use x="1320.33" xlink:href="#p"/><use x="1381.512" xlink:href="#G"/><use x="1448.504" xlink:href="#h"/><use x="1512.127" xlink:href="#c"/><use x="1575.75" xlink:href="#h"/><use x="1639.373" xlink:href="#c"/><use x="1702.996" xlink:href="#D"/><use x="1739.08" xlink:href="#c"/><use x="1802.703" xlink:href="#n"/><use x="1866.326" xlink:href="#D"/><use x="1902.41" xlink:href="#c"/><use x="1966.033" xlink:href="#H"/></g><g><path d="M77.22 106.83h180.764q2 0 2-2V32.44q0-2-2-2H77.22q-2 0-2 2v72.39q0 2 2 2z" fill="#fff" opacity=".8" stroke="#ccc" stroke-linejoin="miter"/><path d="M79.22 38.538h20" fill="none" stroke="#1f77b4" stroke-linecap="square" stroke-width="1.5"/><use fill="#1f77b4" stroke="#1f77b4" x="89.22" xlink:href="#v" y="38.538"/><g transform="matrix(.1 0 0 -.1 107.22 42.038)"><use xlink:href="#I"/><use x="73.193" xlink:href="#J"/><use x="168.457" xlink:href="#K"/><use x="207.471" xlink:href="#r"/><use x="270.947" xlink:href="#p"/><use x="332.129" xlink:href="#L"/><use x="395.508" xlink:href="#M"/><use x="458.984" xlink:href="#q"/><use x="486.768" xlink:href="#u"/><use x="548.291" xlink:href="#F"/><use x="632.178" xlink:href="#t"/><use x="659.961" xlink:href="#N"/><use x="755.127" xlink:href="#d"/><use x="818.75" xlink:href="#O"/><use x="850.537" xlink:href="#c"/><use x="945.947" xlink:href="#r"/><use x="1009.424" xlink:href="#E"/><use x="1070.703" xlink:href="#P"/><use x="1129.883" xlink:href="#F"/><use x="1181.982" xlink:href="#Q"/></g><path d="M79.22 53.217h20" fill="none" stroke="#ff7f0e" stroke-linecap="square" stroke-width="1.5"/><use fill="#ff7f0e" stroke="#ff7f0e" x="89.22" xlink:href="#w" y="53.217"/><g transform="matrix(.1 0 0 -.1 107.22 56.717)"><use xlink:href="#C"/><use x="29.492" xlink:href="#A"/><use x="68.701" xlink:href="#E"/><use x="129.98" xlink:href="#q"/><use x="157.764" xlink:href="#P"/><use x="248.73" xlink:href="#K"/><use x="287.744" xlink:href="#r"/><use x="351.221" xlink:href="#p"/><use x="412.402" xlink:href="#L"/><use x="475.781" xlink:href="#M"/><use x="539.258" xlink:href="#q"/><use x="567.041" xlink:href="#u"/><use x="628.564" xlink:href="#F"/><use x="712.451" xlink:href="#t"/><use x="740.234" xlink:href="#N"/><use x="835.4" xlink:href="#o"/><use x="899.023" xlink:href="#h"/><use x="962.646" xlink:href="#O"/><use x="994.434" xlink:href="#h"/><use x="1089.844" xlink:href="#r"/><use x="1153.32" xlink:href="#E"/><use x="1214.6" xlink:href="#P"/><use x="1273.779" xlink:href="#F"/><use x="1325.879" xlink:href="#Q"/></g><path d="M79.22 67.895h20" fill="none" stroke="#2ca02c" stroke-linecap="square" stroke-width="1.5"/><g transform="matrix(.1 0 0 -.1 107.22 71.395)"><use xlink:href="#J"/><use x="63.477" xlink:href="#f"/><use x="126.953" xlink:href="#E"/><use x="188.232" xlink:href="#t"/><use x="216.016" xlink:href="#N"/><use x="311.182" xlink:href="#K"/><use x="350.195" xlink:href="#r"/><use x="413.672" xlink:href="#p"/><use x="474.854" xlink:href="#L"/><use x="538.232" xlink:href="#M"/><use x="601.709" xlink:href="#q"/><use x="629.492" xlink:href="#u"/><use x="691.016" xlink:href="#F"/><use x="774.902" xlink:href="#t"/><use x="802.686" xlink:href="#N"/><use x="897.852" xlink:href="#n"/><use x="961.475" xlink:href="#h"/><use x="1025.098" xlink:href="#O"/><use x="1056.885" xlink:href="#h"/><use x="1152.295" xlink:href="#r"/><use x="1215.771" xlink:href="#E"/><use x="1277.051" xlink:href="#P"/><use x="1336.23" xlink:href="#F"/><use x="1388.33" xlink:href="#Q"/></g><path d="M79.22 82.573h20" fill="none" stroke="#d62728" stroke-linecap="square" stroke-width="1.5"/><use fill="#d62728" stroke="#d62728" x="89.22" xlink:href="#x" y="82.573"/><g transform="matrix(.1 0 0 -.1 107.22 86.073)"><path d="M9.813 72.906h41.89v-8.312H19.672V43.109h28.906v-8.297H19.672V0h-9.86z"/><use x="57.41" xlink:href="#g"/><use x="98.523" xlink:href="#E"/><use x="159.803" xlink:href="#N"/><use x="223.182" xlink:href="#z"/><use x="278.162" xlink:href="#u"/><use x="371.473" xlink:href="#K"/><use x="410.486" xlink:href="#r"/><use x="473.963" xlink:href="#p"/><use x="535.145" xlink:href="#L"/><use x="598.523" xlink:href="#M"/><use x="662" xlink:href="#q"/><use x="689.783" xlink:href="#u"/><use x="751.307" xlink:href="#F"/><use x="835.193" xlink:href="#t"/><use x="862.977" xlink:href="#N"/><use x="958.143" xlink:href="#j"/><use x="1021.766" xlink:href="#l"/><use x="1085.389" xlink:href="#O"/><use x="1117.176" xlink:href="#j"/><use x="1212.586" xlink:href="#r"/><use x="1276.063" xlink:href="#E"/><use x="1337.342" xlink:href="#P"/><use x="1396.521" xlink:href="#F"/><use x="1448.621" xlink:href="#Q"/></g><path d="M79.22 97.25h20" fill="none" stroke="#9467bd" stroke-linecap="square" stroke-width="1.5"/><use fill="#9467bd" stroke="#9467bd" x="89.22" xlink:href="#y" y="97.251"/><g transform="matrix(.1 0 0 -.1 107.22 100.75)"><path d="M59.516 10.406v19.578h-16.11v8.11h25.875V6.78Q63.578 2.734 56.687.656 49.813-1.422 42-1.422q-17.094 0-26.75 9.985-9.64 10-9.64 27.812 0 17.875 9.64 27.86 9.656 9.984 26.75 9.984 7.125 0 13.547-1.766 6.422-1.75 11.844-5.172v-10.5q-5.47 4.64-11.625 6.985-6.157 2.343-12.938 2.343-13.39 0-20.11-7.468-6.702-7.47-6.702-22.266 0-14.75 6.703-22.219 6.718-7.469 20.11-7.469 5.218 0 9.312.907 4.109.906 7.375 2.812z"/><use x="77.49" xlink:href="#u"/><use x="139.014" xlink:href="#g"/><path d="M232.111 44.188q3.375 6.062 8.063 8.937Q244.86 56 251.205 56q8.547 0 13.188-5.984 4.64-5.97 4.64-17V0h-9.031v32.719q0 7.86-2.797 11.656-2.781 3.813-8.484 3.813-6.985 0-11.047-4.641-4.047-4.625-4.047-12.64V0h-9.031v32.719q0 7.906-2.782 11.687-2.78 3.782-8.593 3.782-6.89 0-10.953-4.657-4.047-4.656-4.047-12.625V0h-9.032v54.688h9.032v-8.5q3.078 5.03 7.375 7.421Q209.893 56 215.799 56q5.969 0 10.14-3.031 4.172-3.016 6.172-8.782z"/><use x="277.523" xlink:href="#E"/><use x="338.803" xlink:href="#N"/><use x="402.182" xlink:href="#P"/></g></g><g><path d="M70.22 505.928H558V297.12H70.22z" fill="#fff"/><path clip-path="url(#R)" d="M70.22 505.928V297.12" fill="none" stroke="#b0b0b0" stroke-linecap="square" stroke-width=".8"/><use stroke="#000" stroke-width=".8" x="70.22" xlink:href="#b" y="505.928"/><g transform="matrix(.1 0 0 -.1 63.858 520.526)"><use xlink:href="#c"/><use x="63.623" xlink:href="#d"/></g><path clip-path="url(#R)" d="M410.188 505.928V297.12" fill="none" stroke="#b0b0b0" stroke-linecap="square" stroke-width=".8"/><use stroke="#000" stroke-width=".8" x="410.188" xlink:href="#b" y="505.928"/><g transform="matrix(.1 0 0 -.1 401.538 542.922)"><use xlink:href="#e"/><use x="68.408" xlink:href="#f"/><use x="131.885" xlink:href="#g"/></g><g transform="matrix(.1 0 0 -.1 397.463 554.12)"><use xlink:href="#h"/><use x="63.623" xlink:href="#c"/><use x="127.246" xlink:href="#h"/><use x="190.869" xlink:href="#c"/></g><g stroke-width=".8"><path clip-path="url(#R)" d="M558 505.928V297.12" fill="none" stroke="#b0b0b0" stroke-linecap="square"/><use stroke="#000" x="558" xlink:href="#b" y="505.928"/></g><g stroke="#000" stroke-width=".6"><use x="85.001" xlink:href="#i" y="505.928"/><use x="99.782" xlink:href="#i" y="505.928"/><use x="114.564" xlink:href="#i" y="505.928"/><use x="129.345" xlink:href="#i" y="505.928"/><use x="144.126" xlink:href="#i" y="505.928"/><use x="158.907" xlink:href="#i" y="505.928"/></g><use stroke="#000" stroke-width=".6" x="173.688" xlink:href="#i" y="505.928"/><g transform="matrix(.1 0 0 -.1 167.326 518.926)"><use xlink:href="#j"/><use x="63.623" xlink:href="#k"/></g><use stroke="#000" stroke-width=".6" x="188.47" xlink:href="#i" y="505.928"/><use stroke="#000" stroke-width=".6" x="203.251" xlink:href="#i" y="505.928"/><use stroke="#000" stroke-width=".6" x="218.032" xlink:href="#i" y="505.928"/><use stroke="#000" stroke-width=".6" x="232.813" xlink:href="#i" y="505.928"/><use stroke="#000" stroke-width=".6" x="247.595" xlink:href="#i" y="505.928"/><use stroke="#000" stroke-width=".6" x="262.376" xlink:href="#i" y="505.928"/><use stroke="#000" stroke-width=".6" x="277.157" xlink:href="#i" y="505.928"/><g transform="matrix(.1 0 0 -.1 270.794 518.926)"><use xlink:href="#h"/><use x="63.623" xlink:href="#l"/></g><use stroke="#000" stroke-width=".6" x="291.938" xlink:href="#i" y="505.928"/><use stroke="#000" stroke-width=".6" x="306.719" xlink:href="#i" y="505.928"/><use stroke="#000" stroke-width=".6" x="321.501" xlink:href="#i" y="505.928"/><use stroke="#000" stroke-width=".6" x="336.282" xlink:href="#i" y="505.928"/><use stroke="#000" stroke-width=".6" x="351.063" xlink:href="#i" y="505.928"/><use stroke="#000" stroke-width=".6" x="365.844" xlink:href="#i" y="505.928"/><use stroke="#000" stroke-width=".6" x="380.625" xlink:href="#i" y="505.928"/><g transform="matrix(.1 0 0 -.1 374.263 518.926)"><use xlink:href="#l"/><use x="63.623" xlink:href="#c"/></g><use stroke="#000" stroke-width=".6" x="395.407" xlink:href="#i" y="505.928"/><use stroke="#000" stroke-width=".6" x="424.969" xlink:href="#i" y="505.928"/><use stroke="#000" stroke-width=".6" x="439.75" xlink:href="#i" y="505.928"/><use stroke="#000" stroke-width=".6" x="454.532" xlink:href="#i" y="505.928"/><use stroke="#000" stroke-width=".6" x="469.313" xlink:href="#i" y="505.928"/><g><use stroke="#000" stroke-width=".6" x="484.094" xlink:href="#i" y="505.928"/><g transform="matrix(.1 0 0 -.1 477.731 518.926)"><use xlink:href="#c"/><use x="63.623" xlink:href="#k"/></g></g><use stroke="#000" stroke-width=".6" x="498.875" xlink:href="#i" y="505.928"/><use stroke="#000" stroke-width=".6" x="513.656" xlink:href="#i" y="505.928"/><use stroke="#000" stroke-width=".6" x="528.438" xlink:href="#i" y="505.928"/><use stroke="#000" stroke-width=".6" x="543.219" xlink:href="#i" y="505.928"/><g><path clip-path="url(#R)" d="M70.22 477.766H558" fill="none" stroke="#b0b0b0" stroke-linecap="square" stroke-width=".8"/><use stroke="#000" stroke-width=".8" x="70.22" xlink:href="#m" y="477.766"/><g transform="matrix(.1 0 0 -.1 31.407 481.566)"><use xlink:href="#h"/><use x="63.623" xlink:href="#o"/><use x="127.246" xlink:href="#c"/><use x="190.869" xlink:href="#c"/><use x="254.492" xlink:href="#c"/></g><path clip-path="url(#R)" d="M70.22 449.594H558" fill="none" stroke="#b0b0b0" stroke-linecap="square" stroke-width=".8"/><use stroke="#000" stroke-width=".8" x="70.22" xlink:href="#m" y="449.594"/><g transform="matrix(.1 0 0 -.1 31.407 453.393)"><use xlink:href="#o"/><use x="63.623" xlink:href="#c"/><use x="127.246" xlink:href="#c"/><use x="190.869" xlink:href="#c"/><use x="254.492" xlink:href="#c"/></g><path clip-path="url(#R)" d="M70.22 421.42H558" fill="none" stroke="#b0b0b0" stroke-linecap="square" stroke-width=".8"/><use stroke="#000" stroke-width=".8" x="70.22" xlink:href="#m" y="421.421"/><g transform="matrix(.1 0 0 -.1 31.407 425.22)"><use xlink:href="#S"/><use x="63.623" xlink:href="#o"/><use x="127.246" xlink:href="#c"/><use x="190.869" xlink:href="#c"/><use x="254.492" xlink:href="#c"/></g><g><path clip-path="url(#R)" d="M70.22 393.248H558" fill="none" stroke="#b0b0b0" stroke-linecap="square" stroke-width=".8"/><use stroke="#000" stroke-width=".8" x="70.22" xlink:href="#m" y="393.248"/><g transform="matrix(.1 0 0 -.1 25.045 397.047)"><use xlink:href="#j"/><use x="63.623" xlink:href="#c"/><use x="127.246" xlink:href="#c"/><use x="190.869" xlink:href="#c"/><use x="254.492" xlink:href="#c"/><use x="318.115" xlink:href="#c"/></g></g><g><path clip-path="url(#R)" d="M70.22 365.075H558" fill="none" stroke="#b0b0b0" stroke-linecap="square" stroke-width=".8"/><use stroke="#000" stroke-width=".8" x="70.22" xlink:href="#m" y="365.075"/><g transform="matrix(.1 0 0 -.1 25.045 368.875)"><use xlink:href="#j"/><use x="63.623" xlink:href="#h"/><use x="127.246" xlink:href="#o"/><use x="190.869" xlink:href="#c"/><use x="254.492" xlink:href="#c"/><use x="318.115" xlink:href="#c"/></g></g><g><path clip-path="url(#R)" d="M70.22 336.903H558" fill="none" stroke="#b0b0b0" stroke-linecap="square" stroke-width=".8"/><use stroke="#000" stroke-width=".8" x="70.22" xlink:href="#m" y="336.903"/><g transform="matrix(.1 0 0 -.1 25.045 340.702)"><use xlink:href="#j"/><use x="63.623" xlink:href="#o"/><use x="127.246" xlink:href="#c"/><use x="190.869" xlink:href="#c"/><use x="254.492" xlink:href="#c"/><use x="318.115" xlink:href="#c"/></g></g><g><path clip-path="url(#R)" d="M70.22 308.73H558" fill="none" stroke="#b0b0b0" stroke-linecap="square" stroke-width=".8"/><use stroke="#000" stroke-width=".8" x="70.22" xlink:href="#m" y="308.73"/><g transform="matrix(.1 0 0 -.1 25.045 312.529)"><use xlink:href="#j"/><use x="63.623" xlink:href="#S"/><use x="127.246" xlink:href="#o"/><use x="190.869" xlink:href="#c"/><use x="254.492" xlink:href="#c"/><use x="318.115" xlink:href="#c"/></g></g><g transform="matrix(0 -.1 -.1 0 18.965 408.358)"><use xlink:href="#I"/><use x="73.193" xlink:href="#J"/></g></g><g stroke="#1f77b4"><path clip-path="url(#R)" d="M-1 505.924l12.095-.01 14.781-.015 14.782-.045 14.78-.034 14.782-.04 14.781-.036 14.781-.053 14.782-.121 14.78-.105 14.782-.115 14.781-.232 14.781-.257 14.782-.83 14.78-.885 14.782-3.214 14.781-3.31 14.782-3.811 14.78-4.545 14.782-5.683 14.781-5.347 14.781-5.73 14.782-7.817 14.78-7.727 14.782-8.264 14.781-7.89 14.781-7.62 14.782-9.96 14.78-8.703 14.782-9.158 14.781-11.177 14.782-11.513 14.78-9.841 14.782-9.146 14.781-8.192 14.781-11.728" fill="none" stroke-linecap="square" stroke-width="1.5"/><g clip-path="url(#R)" fill="#1f77b4"><use x="-1" xlink:href="#v" y="505.924"/><use x="11.095" xlink:href="#v" y="505.913"/><use x="25.876" xlink:href="#v" y="505.899"/><use x="40.658" xlink:href="#v" y="505.854"/><use x="55.439" xlink:href="#v" y="505.82"/><use x="70.22" xlink:href="#v" y="505.779"/><use x="85.001" xlink:href="#v" y="505.744"/><use x="99.782" xlink:href="#v" y="505.691"/><use x="114.564" xlink:href="#v" y="505.57"/><use x="129.345" xlink:href="#v" y="505.465"/><use x="144.126" xlink:href="#v" y="505.35"/><use x="158.907" xlink:href="#v" y="505.118"/><use x="173.688" xlink:href="#v" y="504.861"/><use x="188.47" xlink:href="#v" y="504.031"/><use x="203.251" xlink:href="#v" y="503.146"/><use x="218.032" xlink:href="#v" y="499.932"/><use x="232.813" xlink:href="#v" y="496.622"/><use x="247.595" xlink:href="#v" y="492.811"/><use x="262.376" xlink:href="#v" y="488.266"/><use x="277.157" xlink:href="#v" y="482.583"/><use x="291.938" xlink:href="#v" y="477.236"/><use x="306.719" xlink:href="#v" y="471.505"/><use x="321.501" xlink:href="#v" y="463.689"/><use x="336.282" xlink:href="#v" y="455.962"/><use x="351.063" xlink:href="#v" y="447.698"/><use x="365.844" xlink:href="#v" y="439.809"/><use x="380.625" xlink:href="#v" y="432.189"/><use x="395.407" xlink:href="#v" y="422.229"/><use x="410.188" xlink:href="#v" y="413.525"/><use x="424.969" xlink:href="#v" y="404.367"/><use x="439.75" xlink:href="#v" y="393.19"/><use x="454.532" xlink:href="#v" y="381.677"/><use x="469.313" xlink:href="#v" y="371.836"/><use x="484.094" xlink:href="#v" y="362.69"/><use x="498.875" xlink:href="#v" y="354.498"/><use x="513.656" xlink:href="#v" y="342.77"/></g></g><g stroke="#ff7f0e"><path clip-path="url(#R)" d="M-1 505.939l12.095-.002h14.781l14.782-.002 14.78-.001H70.22l14.781-.01 14.781-.01 14.782-.006h14.78l14.782-.045 14.781-.032 14.781-.089 14.782-.1h14.78l14.782-.529 14.781-.164 14.782-.487 14.78-.657 14.782-1.04 14.781-.918 14.781-.799 14.782-2.766 14.78-2.166 14.782-2.555 14.781-2.525 14.781-3.62 14.782-2.245 14.78-3.911 14.782-3.553 14.781-4.729 14.782-4.54 14.78-3.73 14.782-3.943 14.781-3.49 14.781-3.098" fill="none" stroke-linecap="square" stroke-width="1.5"/><g clip-path="url(#R)" fill="#ff7f0e"><use x="-1" xlink:href="#w" y="505.939"/><use x="11.095" xlink:href="#w" y="505.937"/><use x="25.876" xlink:href="#w" y="505.937"/><use x="40.658" xlink:href="#w" y="505.935"/><use x="55.439" xlink:href="#w" y="505.934"/><use x="70.22" xlink:href="#w" y="505.934"/><use x="85.001" xlink:href="#w" y="505.923"/><use x="99.782" xlink:href="#w" y="505.914"/><use x="114.564" xlink:href="#w" y="505.908"/><use x="129.345" xlink:href="#w" y="505.908"/><use x="144.126" xlink:href="#w" y="505.863"/><use x="158.907" xlink:href="#w" y="505.831"/><use x="173.688" xlink:href="#w" y="505.742"/><use x="188.47" xlink:href="#w" y="505.643"/><use x="203.251" xlink:href="#w" y="505.642"/><use x="218.032" xlink:href="#w" y="505.113"/><use x="232.813" xlink:href="#w" y="504.949"/><use x="247.595" xlink:href="#w" y="504.462"/><use x="262.376" xlink:href="#w" y="503.805"/><use x="277.157" xlink:href="#w" y="502.765"/><use x="291.938" xlink:href="#w" y="501.847"/><use x="306.719" xlink:href="#w" y="501.048"/><use x="321.501" xlink:href="#w" y="498.282"/><use x="336.282" xlink:href="#w" y="496.116"/><use x="351.063" xlink:href="#w" y="493.561"/><use x="365.844" xlink:href="#w" y="491.036"/><use x="380.625" xlink:href="#w" y="487.415"/><use x="395.407" xlink:href="#w" y="485.171"/><use x="410.188" xlink:href="#w" y="481.26"/><use x="424.969" xlink:href="#w" y="477.707"/><use x="439.75" xlink:href="#w" y="472.978"/><use x="454.532" xlink:href="#w" y="468.438"/><use x="469.313" xlink:href="#w" y="464.708"/><use x="484.094" xlink:href="#w" y="460.765"/><use x="498.875" xlink:href="#w" y="457.275"/><use x="513.656" xlink:href="#w" y="454.177"/></g></g><path clip-path="url(#R)" d="M-1 505.94h86.001l14.781-.003h14.782l14.78-.016 14.782-.01 14.781-.009 14.781-.022 14.782-.014 14.78-.02 14.782-.28 14.781-.245 14.782-.264 14.78-.274 14.782-.324 14.781-.513 14.781-.546 14.782-.598 14.78-.854 14.782-1.124 14.781-.92 14.781-1.08 14.782-1.174 14.78-1.83 14.782-1.571 14.781-2.131 14.782-1.6 14.78-1.596 14.782-1.57 14.781-1.838 14.781-1.422" fill="none" stroke="#2ca02c" stroke-linecap="square" stroke-width="1.5"/><g stroke="#d62728"><path clip-path="url(#R)" d="M-1 505.9l12.095-.015 14.781-.009 14.782-.026 14.78-.018 14.782-.007 14.781-.043 14.781-.037 14.782-.044 14.78-.068 14.782-.064 14.781-.096 14.781-.147 14.782-.153 14.78-.065 14.782-.221 14.781-.248 14.782-.21 14.78-.31 14.782-.511 14.781-.472 14.781-.502 14.782-.997 14.78-.84 14.782-.475 14.781-.838 14.781-1.424 14.782-1.178 14.78-1.31 14.782-1.505 14.781-1.357 14.782-.911 14.78-2.41 14.782-1.073 14.781-1.443 14.781-1.671" fill="none" stroke-linecap="square" stroke-width="1.5"/><g clip-path="url(#R)" fill="#d62728"><use x="-1" xlink:href="#x" y="505.9"/><use x="11.095" xlink:href="#x" y="505.885"/><use x="25.876" xlink:href="#x" y="505.876"/><use x="40.658" xlink:href="#x" y="505.85"/><use x="55.439" xlink:href="#x" y="505.832"/><use x="70.22" xlink:href="#x" y="505.825"/><use x="85.001" xlink:href="#x" y="505.782"/><use x="99.782" xlink:href="#x" y="505.745"/><use x="114.564" xlink:href="#x" y="505.701"/><use x="129.345" xlink:href="#x" y="505.633"/><use x="144.126" xlink:href="#x" y="505.569"/><use x="158.907" xlink:href="#x" y="505.473"/><use x="173.688" xlink:href="#x" y="505.326"/><use x="188.47" xlink:href="#x" y="505.173"/><use x="203.251" xlink:href="#x" y="505.108"/><use x="218.032" xlink:href="#x" y="504.887"/><use x="232.813" xlink:href="#x" y="504.639"/><use x="247.595" xlink:href="#x" y="504.429"/><use x="262.376" xlink:href="#x" y="504.118"/><use x="277.157" xlink:href="#x" y="503.608"/><use x="291.938" xlink:href="#x" y="503.136"/><use x="306.719" xlink:href="#x" y="502.634"/><use x="321.501" xlink:href="#x" y="501.637"/><use x="336.282" xlink:href="#x" y="500.797"/><use x="351.063" xlink:href="#x" y="500.322"/><use x="365.844" xlink:href="#x" y="499.484"/><use x="380.625" xlink:href="#x" y="498.06"/><use x="395.407" xlink:href="#x" y="496.882"/><use x="410.188" xlink:href="#x" y="495.572"/><use x="424.969" xlink:href="#x" y="494.067"/><use x="439.75" xlink:href="#x" y="492.71"/><use x="454.532" xlink:href="#x" y="491.799"/><use x="469.313" xlink:href="#x" y="489.389"/><use x="484.094" xlink:href="#x" y="488.316"/><use x="498.875" xlink:href="#x" y="486.873"/><use x="513.656" xlink:href="#x" y="485.202"/></g></g><g stroke="#9467bd"><path clip-path="url(#R)" d="M-1 505.94h56.438l14.782-.002h14.781l14.781-.005 14.782-.015 14.78-.02 14.782-.044 14.781-.015 14.781-.05 14.782-.066 14.78-.069 14.782-.145 14.781-.16 14.782-.05 14.78-.28 14.782-.361 14.781-.231 14.781-.437 14.782-.554 14.78-.455 14.782-.623 14.781-.238 14.781-.508 14.782-1.305 14.78-1.3 14.782-3.04 14.781-1.215 14.782-2.434 14.78-.502 14.782-2.054 14.781-1.517 14.781-.762" fill="none" stroke-linecap="square" stroke-width="1.5"/><g clip-path="url(#R)" fill="#9467bd"><use x="-1" xlink:href="#y" y="505.939"/><use x="11.095" xlink:href="#y" y="505.939"/><use x="25.876" xlink:href="#y" y="505.939"/><use x="40.658" xlink:href="#y" y="505.939"/><use x="55.439" xlink:href="#y" y="505.939"/><use x="70.22" xlink:href="#y" y="505.938"/><use x="85.001" xlink:href="#y" y="505.938"/><use x="99.782" xlink:href="#y" y="505.933"/><use x="114.564" xlink:href="#y" y="505.918"/><use x="129.345" xlink:href="#y" y="505.899"/><use x="144.126" xlink:href="#y" y="505.854"/><use x="158.907" xlink:href="#y" y="505.839"/><use x="173.688" xlink:href="#y" y="505.789"/><use x="188.47" xlink:href="#y" y="505.723"/><use x="203.251" xlink:href="#y" y="505.654"/><use x="218.032" xlink:href="#y" y="505.509"/><use x="232.813" xlink:href="#y" y="505.349"/><use x="247.595" xlink:href="#y" y="505.298"/><use x="262.376" xlink:href="#y" y="505.019"/><use x="277.157" xlink:href="#y" y="504.658"/><use x="291.938" xlink:href="#y" y="504.427"/><use x="306.719" xlink:href="#y" y="503.99"/><use x="321.501" xlink:href="#y" y="503.436"/><use x="336.282" xlink:href="#y" y="502.981"/><use x="351.063" xlink:href="#y" y="502.358"/><use x="365.844" xlink:href="#y" y="502.12"/><use x="380.625" xlink:href="#y" y="501.612"/><use x="395.407" xlink:href="#y" y="500.307"/><use x="410.188" xlink:href="#y" y="499.008"/><use x="424.969" xlink:href="#y" y="495.967"/><use x="439.75" xlink:href="#y" y="494.752"/><use x="454.532" xlink:href="#y" y="492.318"/><use x="469.313" xlink:href="#y" y="491.816"/><use x="484.094" xlink:href="#y" y="489.762"/><use x="498.875" xlink:href="#y" y="488.245"/><use x="513.656" xlink:href="#y" y="487.483"/></g></g><path clip-path="url(#R)" d="M513.656 342.77l14.782-11.126 14.78-11.885L558 307.064" fill="none" stroke="#1f77b4" stroke-dasharray="1.5 2.475" stroke-width="1.5"/><path clip-path="url(#R)" d="M513.656 454.177l14.782-3.898 14.78-4.19L558 441.581" fill="none" stroke="#ff7f0e" stroke-dasharray="1.5 2.475" stroke-width="1.5"/><path clip-path="url(#R)" d="M513.656 484.092l14.782-1.854 14.78-2.01L558 478.046" fill="none" stroke="#2ca02c" stroke-dasharray="1.5 2.475" stroke-width="1.5"/><path clip-path="url(#R)" d="M513.656 485.202l14.782-1.673 14.78-1.808L558 479.768" fill="none" stroke="#d62728" stroke-dasharray="1.5 2.475" stroke-width="1.5"/><path clip-path="url(#R)" d="M513.656 487.483l14.782-1.521 14.78-1.646L558 482.534" fill="none" stroke="#9467bd" stroke-dasharray="1.5 2.475" stroke-width="1.5"/><path d="M70.22 505.928V297.12M558 505.928V297.12M70.22 505.928H558M70.22 297.12H558" fill="none" stroke="#000" stroke-linecap="square" stroke-linejoin="miter" stroke-width=".8"/><g><path d="M77.22 378.51h195.919q2 0 2-2v-72.39q0-2-2-2H77.22q-2 0-2 2v72.39q0 2 2 2z" fill="#fff" opacity=".8" stroke="#ccc" stroke-linejoin="miter"/><path d="M79.22 310.218h20" fill="none" stroke="#1f77b4" stroke-linecap="square" stroke-width="1.5"/><use fill="#1f77b4" stroke="#1f77b4" x="89.22" xlink:href="#v" y="310.218"/><g transform="matrix(.1 0 0 -.1 107.22 313.718)"><use xlink:href="#T"/><use x="74.805" xlink:href="#u"/><use x="136.328" xlink:href="#s"/><path d="M249.7 72.906h10.609l20.203-29.984 20.078 29.984h10.594L285.402 34.72V0h-9.906v34.719z"/><use x="310.783" xlink:href="#p"/><use x="371.965" xlink:href="#g"/><path d="M422.156 75.984h9.031V31.11L458 54.687h11.469l-29-25.578L470.703 0h-11.719l-27.796 26.703V0h-9.032z"/><use x="502.775" xlink:href="#K"/><use x="541.789" xlink:href="#r"/><use x="605.266" xlink:href="#p"/><use x="666.447" xlink:href="#L"/><use x="729.826" xlink:href="#M"/><use x="793.303" xlink:href="#q"/><use x="821.086" xlink:href="#u"/><use x="882.609" xlink:href="#F"/><use x="966.496" xlink:href="#t"/><use x="994.279" xlink:href="#N"/><use x="1089.445" xlink:href="#j"/><use x="1153.068" xlink:href="#c"/><use x="1216.691" xlink:href="#O"/><use x="1248.479" xlink:href="#o"/><use x="1343.889" xlink:href="#r"/><use x="1407.365" xlink:href="#E"/><use x="1468.645" xlink:href="#P"/><use x="1527.824" xlink:href="#F"/><use x="1579.924" xlink:href="#Q"/></g><path d="M79.22 324.897h20" fill="none" stroke="#ff7f0e" stroke-linecap="square" stroke-width="1.5"/><use fill="#ff7f0e" stroke="#ff7f0e" x="89.22" xlink:href="#w" y="324.897"/><g transform="matrix(.1 0 0 -.1 107.22 328.397)"><use xlink:href="#T"/><use x="74.805" xlink:href="#u"/><use x="136.328" xlink:href="#s"/><path d="M259.715 72.906h9.86V5.078q0-13.187-5-19.14-5-5.954-16.095-5.954h-3.75v8.297h3.079q6.53 0 9.218 3.672 2.688 3.656 2.688 13.125z"/><use x="279.395" xlink:href="#u"/><use x="340.918" xlink:href="#g"/><use x="382.031" xlink:href="#F"/><use x="434.131" xlink:href="#u"/><use x="495.654" xlink:href="#P"/><use x="586.621" xlink:href="#K"/><use x="625.635" xlink:href="#r"/><use x="689.111" xlink:href="#p"/><use x="750.293" xlink:href="#L"/><use x="813.672" xlink:href="#M"/><use x="877.148" xlink:href="#q"/><use x="904.932" xlink:href="#u"/><use x="966.455" xlink:href="#F"/><use x="1050.342" xlink:href="#t"/><use x="1078.125" xlink:href="#N"/><use x="1173.291" xlink:href="#d"/><use x="1236.914" xlink:href="#O"/><use x="1268.701" xlink:href="#o"/><use x="1364.111" xlink:href="#r"/><use x="1427.588" xlink:href="#E"/><use x="1488.867" xlink:href="#P"/><use x="1548.047" xlink:href="#F"/><use x="1600.146" xlink:href="#Q"/></g><path d="M79.22 339.575h20" fill="none" stroke="#2ca02c" stroke-linecap="square" stroke-width="1.5"/><g transform="matrix(.1 0 0 -.1 107.22 343.075)"><path d="M9.813 72.906h14.703l18.593-49.61 18.703 49.61h14.704V0H66.89v64.016l-18.797-50h-9.907l-18.796 50V0H9.813z"/><use x="86.279" xlink:href="#t"/><use x="114.063" xlink:href="#z"/><path d="M223.934 33.016V0h-8.985v32.719q0 7.765-3.031 11.61-3.031 3.858-9.078 3.858-7.281 0-11.485-4.64-4.203-4.625-4.203-12.64V0h-9.03v75.984h9.03V46.188q3.235 4.937 7.594 7.374Q199.121 56 204.84 56q9.422 0 14.25-5.828 4.844-5.828 4.844-17.156z"/><use x="232.422" xlink:href="#t"/><path d="M305.611 27.984q0 9.766-4.03 15.125-4.017 5.375-11.298 5.375-7.219 0-11.25-5.375-4.031-5.359-4.031-15.125 0-9.718 4.031-15.093t11.25-5.375q7.281 0 11.297 5.375 4.031 5.375 4.031 15.093zm8.985-21.203q0-13.953-6.203-20.765-6.188-6.813-18.985-6.813-4.734 0-8.937.703-4.203.703-8.157 2.172v8.735q3.954-2.141 7.813-3.157 3.86-1.031 7.86-1.031 8.843 0 13.234 4.61 4.39 4.609 4.39 13.937v4.453q-2.78-4.844-7.125-7.234Q294.143 0 288.08 0q-10.047 0-16.203 7.656-6.156 7.672-6.156 20.328 0 12.688 6.156 20.344Q278.033 56 288.08 56q6.063 0 10.406-2.39 4.344-2.391 7.125-7.22v8.297h8.985z"/><use x="323.682" xlink:href="#E"/><use x="384.961" xlink:href="#N"/><use x="480.127" xlink:href="#K"/><use x="519.141" xlink:href="#r"/><use x="582.617" xlink:href="#p"/><use x="643.799" xlink:href="#L"/><use x="707.178" xlink:href="#M"/><use x="770.654" xlink:href="#q"/><use x="798.438" xlink:href="#u"/><use x="859.961" xlink:href="#F"/><use x="943.848" xlink:href="#t"/><use x="971.631" xlink:href="#N"/><use x="1066.797" xlink:href="#H"/><use x="1130.42" xlink:href="#O"/><use x="1162.207" xlink:href="#o"/><use x="1257.617" xlink:href="#r"/><use x="1321.094" xlink:href="#E"/><use x="1382.373" xlink:href="#P"/><use x="1441.553" xlink:href="#F"/><use x="1493.652" xlink:href="#Q"/></g><path d="M79.22 354.253h20" fill="none" stroke="#d62728" stroke-linecap="square" stroke-width="1.5"/><use fill="#d62728" stroke="#d62728" x="89.22" xlink:href="#x" y="354.253"/><g transform="matrix(.1 0 0 -.1 107.22 357.753)"><use xlink:href="#B"/><use x="69.824" xlink:href="#E"/><use x="131.104" xlink:href="#q"/><use x="158.887" xlink:href="#t"/><use x="186.67" xlink:href="#G"/><use x="221.875" xlink:href="#p"/><use x="283.057" xlink:href="#g"/><use x="324.154" xlink:href="#N"/><use x="387.533" xlink:href="#t"/><use x="415.316" xlink:href="#E"/><use x="508.383" xlink:href="#K"/><use x="547.396" xlink:href="#r"/><use x="610.873" xlink:href="#p"/><use x="672.055" xlink:href="#L"/><use x="735.434" xlink:href="#M"/><use x="798.91" xlink:href="#q"/><use x="826.693" xlink:href="#u"/><use x="888.217" xlink:href="#F"/><use x="972.104" xlink:href="#t"/><use x="999.887" xlink:href="#N"/><use x="1095.053" xlink:href="#H"/><use x="1158.676" xlink:href="#O"/><use x="1190.463" xlink:href="#d"/><use x="1285.873" xlink:href="#r"/><use x="1349.35" xlink:href="#E"/><use x="1410.629" xlink:href="#P"/><use x="1469.809" xlink:href="#F"/><use x="1521.908" xlink:href="#Q"/></g><path d="M79.22 368.93h20" fill="none" stroke="#9467bd" stroke-linecap="square" stroke-width="1.5"/><use fill="#9467bd" stroke="#9467bd" x="89.22" xlink:href="#y" y="368.931"/><g transform="matrix(.1 0 0 -.1 107.22 372.43)"><path d="M9.813 72.906h9.859V8.296h35.5V0H9.812z"/><use x="55.697" xlink:href="#p"/><use x="116.879" xlink:href="#L"/><use x="180.258" xlink:href="#t"/><use x="208.041" xlink:href="#F"/><use x="260.141" xlink:href="#t"/><use x="287.924" xlink:href="#E"/><use x="349.203" xlink:href="#N"/><use x="412.582" xlink:href="#E"/><use x="505.648" xlink:href="#K"/><use x="544.662" xlink:href="#r"/><use x="608.139" xlink:href="#p"/><use x="669.32" xlink:href="#L"/><use x="732.699" xlink:href="#M"/><use x="796.176" xlink:href="#q"/><use x="823.959" xlink:href="#u"/><use x="885.482" xlink:href="#F"/><use x="969.369" xlink:href="#t"/><use x="997.152" xlink:href="#N"/><use x="1092.318" xlink:href="#H"/><use x="1155.941" xlink:href="#O"/><use x="1187.729" xlink:href="#H"/><use x="1283.139" xlink:href="#r"/><use x="1346.615" xlink:href="#E"/><use x="1407.895" xlink:href="#P"/><use x="1467.074" xlink:href="#F"/><use x="1519.174" xlink:href="#Q"/></g></g></g></svg>