<svg height="758.4" stroke-linejoin="round" viewBox="0 0 568.8 568.8" width="758.4" xmlns="http://www.w3.org/2000/svg" xmlns:xlink="http://www.w3.org/1999/xlink"><defs><path id="x" d="M-3 0h6M0 3v-6" stroke="#d62728" stroke-linejoin="round"/><path id="V" d="M54.89 33.016V0h-8.984v32.719q0 7.765-3.031 11.61-3.031 3.858-9.078 3.858-7.281 0-11.484-4.64-4.204-4.625-4.204-12.64V0H9.08v75.984h9.03V46.188q3.235 4.937 7.594 7.374Q30.078 56 35.797 56q9.422 0 14.25-5.828 4.844-5.828 4.844-17.156z" stroke-linejoin="round"/><path id="b" d="M0 0v3.5" stroke="#000" stroke-linejoin="round" stroke-width=".8"/><path id="c" d="M34.188 63.188L20.797 26.906h26.812zm-5.579 9.718h11.188L67.578 0h-10.25l-6.64 18.703h-32.86L11.188 0H.78z" stroke-linejoin="round"/><path id="d" d="M18.11 8.203v-29H9.077v75.484h9.031v-8.296q2.844 4.875 7.157 7.234Q29.594 56 35.594 56q9.968 0 16.187-7.906 6.235-7.907 6.235-20.797T51.78 6.484q-6.218-7.906-16.187-7.906-6 0-10.328 2.375-4.313 2.375-7.157 7.25zm30.578 19.094q0 9.906-4.079 15.547-4.078 5.64-11.203 5.64-7.14 0-11.218-5.64-4.079-5.64-4.079-15.547 0-9.906 4.078-15.547 4.079-5.64 11.22-5.64 7.124 0 11.202 5.64t4.078 15.547z" stroke-linejoin="round"/><path id="e" d="M41.11 46.297q-1.516.875-3.297 1.281Q36.03 48 33.89 48q-7.625 0-11.703-4.953-4.079-4.953-4.079-14.234V0H9.08v54.688h9.03v-8.5q2.844 4.984 7.375 7.39Q30.031 56 36.531 56q.922 0 2.047-.125 1.125-.11 2.484-.36z" stroke-linejoin="round"/><path id="f" d="M19.188 8.297h34.421V0H7.33v8.297q5.609 5.812 15.296 15.594 9.703 9.797 12.188 12.64 4.734 5.313 6.609 9 1.89 3.688 1.89 7.25 0 5.813-4.078 9.469-4.078 3.672-10.625 3.672-4.64 0-9.797-1.61-5.14-1.609-11-4.89v9.969Q13.767 71.78 18.938 73q5.188 1.219 9.485 1.219 11.328 0 18.062-5.672 6.735-5.656 6.735-15.125 0-4.5-1.688-8.531-1.672-4.016-6.125-9.485-1.218-1.422-7.765-8.187-6.532-6.766-18.453-18.922z" stroke-linejoin="round"/><path id="g" d="M31.781 66.406q-7.61 0-11.453-7.5Q16.5 51.422 16.5 36.375q0-14.984 3.828-22.484 3.844-7.5 11.453-7.5 7.672 0 11.5 7.5 3.844 7.5 3.844 22.484 0 15.047-3.844 22.531-3.828 7.5-11.5 7.5zm0 7.813q12.266 0 18.735-9.703 6.468-9.688 6.468-28.141 0-18.406-6.468-28.11-6.47-9.687-18.735-9.687-12.25 0-18.718 9.688-6.47 9.703-6.47 28.109 0 18.453 6.47 28.14Q19.53 74.22 31.78 74.22z" stroke-linejoin="round"/><path id="h" d="M12.406 8.297h16.11v55.625l-17.532-3.516v8.985l17.438 3.515h9.86V8.296H54.39V0H12.406z" stroke-linejoin="round"/><path id="i" d="M40.578 39.313Q47.656 37.797 51.625 33q3.984-4.781 3.984-11.813 0-10.78-7.422-16.703-7.421-5.906-21.093-5.906-4.578 0-9.438.906-4.86.907-10.031 2.72v9.515q4.094-2.39 8.969-3.61 4.89-1.218 10.218-1.218 9.266 0 14.125 3.656 4.86 3.656 4.86 10.64 0 6.454-4.516 10.079-4.515 3.64-12.562 3.64h-8.5v8.11h8.89q7.266 0 11.125 2.906 3.86 2.906 3.86 8.375 0 5.61-3.985 8.61-3.968 3.015-11.39 3.015-4.063 0-8.703-.89-4.641-.876-10.203-2.72v8.782q5.624 1.562 10.53 2.344 4.907.78 9.25.78 11.235 0 17.766-5.109 6.547-5.093 6.547-13.78 0-6.063-3.468-10.235-3.47-4.172-9.86-5.782z" stroke-linejoin="round"/><path id="j" d="M0 0v2" stroke="#000" stroke-linejoin="round" stroke-width=".6"/><path id="k" d="M33.016 40.375q-6.641 0-10.532-4.547-3.875-4.531-3.875-12.437 0-7.86 3.875-12.438 3.891-4.562 10.532-4.562 6.64 0 10.515 4.562 3.875 4.578 3.875 12.438 0 7.906-3.875 12.437-3.875 4.547-10.515 4.547zm19.578 30.922v-8.984q-3.719 1.75-7.5 2.671-3.782.938-7.5.938-9.766 0-14.922-6.594-5.14-6.594-5.875-19.922 2.875 4.25 7.219 6.516 4.359 2.266 9.578 2.266 10.984 0 17.36-6.672 6.374-6.657 6.374-18.125 0-11.235-6.64-18.032-6.641-6.78-17.672-6.78-12.657 0-19.344 9.687-6.688 9.703-6.688 28.109 0 17.281 8.204 27.563 8.203 10.28 22.015 10.28 3.719 0 7.5-.734t7.89-2.187z" stroke-linejoin="round"/><path id="l" d="M0 0h-3.5" stroke="#000" stroke-linejoin="round" stroke-width=".8"/><path id="m" d="M37.797 64.313L12.89 25.39h24.906zm-2.594 8.593H47.61V25.391h10.407v-8.203H47.609V0h-9.812v17.188H4.89v9.515z" stroke-linejoin="round"/><path id="n" d="M10.797 72.906h38.719v-8.312H19.828v-17.86q2.14.735 4.281 1.094 2.157.36 4.313.36 12.203 0 19.328-6.688 7.14-6.688 7.14-18.11 0-11.765-7.328-18.296-7.328-6.516-20.656-6.516-4.593 0-9.36.781-4.75.782-9.827 2.344v9.922q4.39-2.39 9.078-3.563 4.687-1.171 9.906-1.171 8.453 0 13.375 4.437 4.938 4.438 4.938 12.063 0 7.609-4.938 12.047-4.922 4.453-13.375 4.453-3.953 0-7.89-.875-3.922-.875-8.016-2.735z" stroke-linejoin="round"/><path id="o" d="M0 0h-2" stroke="#000" stroke-linejoin="round" stroke-width=".6"/><path id="p" d="M30.61 48.39q-7.22 0-11.422-5.64-4.204-5.64-4.204-15.453 0-9.813 4.172-15.453 4.188-5.64 11.453-5.64 7.188 0 11.375 5.655 4.203 5.672 4.203 15.438 0 9.719-4.203 15.406-4.187 5.688-11.375 5.688zm0 7.61q11.718 0 18.406-7.625 6.703-7.61 6.703-21.078 0-13.422-6.703-21.078-6.688-7.64-18.407-7.64-11.765 0-18.437 7.64-6.656 7.656-6.656 21.078 0 13.469 6.656 21.078Q18.844 56 30.609 56z" stroke-linejoin="round"/><path id="q" d="M9.422 75.984h8.984V0H9.422z" stroke-linejoin="round"/><path id="r" d="M45.406 46.39v29.594h8.985V0h-8.985v8.203Q42.578 3.328 38.25.953q-4.313-2.375-10.375-2.375-9.906 0-16.14 7.906-6.22 7.922-6.22 20.813 0 12.89 6.22 20.797Q17.968 56 27.874 56q6.063 0 10.375-2.375 4.328-2.36 7.156-7.234zm-30.61-19.093q0-9.906 4.079-15.547 4.078-5.64 11.203-5.64 7.125 0 11.219 5.64 4.11 5.64 4.11 15.547 0 9.906-4.11 15.547-4.094 5.64-11.219 5.64-7.125 0-11.203-5.64-4.078-5.64-4.078-15.547z" stroke-linejoin="round"/><path id="s" d="M4.203 54.688h8.985l11.234-42.672 11.172 42.672h10.593l11.235-42.672 11.187 42.672h8.985L63.28 0H52.688L40.922 44.828 29.109 0H18.5z" stroke-linejoin="round"/><path id="t" d="M9.422 54.688h8.984V0H9.422zm0 21.296h8.984v-11.39H9.422z" stroke-linejoin="round"/><path id="u" d="M56.203 29.594v-4.39H14.891q.593-9.282 5.593-14.142 5-4.859 13.938-4.859 5.172 0 10.031 1.266 4.86 1.265 9.656 3.812v-8.5Q49.266.734 44.187-.344 39.11-1.422 33.892-1.422q-13.094 0-20.735 7.61-7.64 7.625-7.64 20.625 0 13.421 7.25 21.296Q20.016 56 32.328 56q11.031 0 17.453-7.11 6.422-7.093 6.422-19.296zm-8.984 2.64q-.094 7.36-4.125 11.75-4.032 4.407-10.672 4.407-7.516 0-12.031-4.25-4.516-4.25-5.203-11.97z" stroke-linejoin="round"/><path id="v" d="M-3 0h6M0 3v-6" stroke="#1f77b4" stroke-linejoin="round"/><path id="w" d="M0 1.5a1.5 1.5 0 100-3 1.5 1.5 0 000 3z" stroke="#ff7f0e" stroke-linejoin="round"/><path id="U" d="M9.813 72.906h14.703l18.593-49.61 18.703 49.61h14.704V0H66.89v64.016l-18.797-50h-9.907l-18.796 50V0H9.813z" stroke-linejoin="round"/><path id="y" d="M0 1.5a1.5 1.5 0 100-3 1.5 1.5 0 000 3z" stroke="#9467bd" stroke-linejoin="round"/><path id="z" d="M48.781 52.594v-8.407q-3.812 2.11-7.64 3.157-3.828 1.047-7.735 1.047-8.75 0-13.593-5.547-4.829-5.532-4.829-15.547 0-10.016 4.829-15.563 4.843-5.53 13.593-5.53 3.907 0 7.735 1.046 3.828 1.047 7.64 3.156V2.094Q45.016.344 40.984-.531q-4.015-.89-8.562-.89-12.36 0-19.64 7.765-7.266 7.765-7.266 20.953 0 13.375 7.343 21.031Q20.22 56 33.016 56q4.14 0 8.093-.86 3.953-.843 7.672-2.546z" stroke-linejoin="round"/><path id="A" d="M18.313 70.219V54.688h18.5v-6.985h-18.5V18.016q0-6.688 1.828-8.594 1.828-1.906 7.453-1.906h9.218V0h-9.218q-10.407 0-14.36 3.875-3.953 3.89-3.953 14.14v29.688H2.687v6.984h6.594V70.22z" stroke-linejoin="round"/><path id="B" d="M64.406 67.281v-10.39q-4.984 4.64-10.625 6.922-5.64 2.296-11.984 2.296-12.5 0-19.14-7.64-6.641-7.64-6.641-22.094 0-14.406 6.64-22.047 6.64-7.64 19.14-7.64 6.345 0 11.985 2.296 5.64 2.297 10.625 6.938V5.609Q59.234 2.094 53.437.33q-5.78-1.75-12.218-1.75-16.563 0-26.094 10.124-9.516 10.14-9.516 27.672 0 17.578 9.516 27.703 9.531 10.14 26.094 10.14 6.531 0 12.312-1.734 5.797-1.734 10.875-5.203z" stroke-linejoin="round"/><path id="C" d="M9.813 72.906h9.859V0h-9.86z" stroke-linejoin="round"/><path id="D" d="M4.89 31.39h26.313v-8H4.891z" stroke-linejoin="round"/><path id="E" d="M10.984 1.516V10.5q3.72-1.766 7.516-2.688 3.813-.921 7.484-.921 9.766 0 14.907 6.562 5.156 6.563 5.89 19.953-2.828-4.203-7.187-6.453-4.344-2.25-9.61-2.25-10.937 0-17.312 6.61-6.375 6.625-6.375 18.109 0 11.219 6.64 18 6.641 6.797 17.672 6.797 12.657 0 19.313-9.703 6.672-9.688 6.672-28.141 0-17.234-8.188-27.516Q40.234-1.42 26.422-1.42q-3.719 0-7.531.734-3.797.734-7.907 2.203zM30.61 32.422q6.641 0 10.516 4.531 3.89 4.547 3.89 12.469 0 7.86-3.89 12.422-3.875 4.562-10.516 4.562-6.64 0-10.515-4.562-3.875-4.563-3.875-12.422 0-7.922 3.875-12.469 3.875-4.531 10.515-4.531z" stroke-linejoin="round"/><path id="F" d="M34.281 27.484q-10.89 0-15.093-2.484-4.204-2.484-4.204-8.5 0-4.781 3.157-7.594 3.156-2.797 8.562-2.797 7.485 0 12 5.297 4.516 5.297 4.516 14.078v2zm17.922 3.72V0H43.22v8.297Q40.14 3.328 35.547.953q-4.594-2.375-11.234-2.375-8.391 0-13.36 4.719Q6 8.016 6 15.922q0 9.219 6.172 13.906 6.187 4.688 18.437 4.688h12.61v.89q0 6.203-4.078 9.594-4.078 3.39-11.453 3.39-4.688 0-9.141-1.124-4.438-1.125-8.531-3.375v8.312q4.921 1.906 9.562 2.844 4.64.953 9.031.953 11.875 0 17.735-6.156 5.86-6.14 5.86-18.64z" stroke-linejoin="round"/><path id="G" d="M44.281 53.078v-8.5q-3.797 1.953-7.906 2.922-4.094.984-8.5.984-6.688 0-10.031-2.047-3.344-2.046-3.344-6.156 0-3.125 2.39-4.906 2.391-1.781 9.626-3.39l3.078-.688q9.562-2.047 13.593-5.781 4.032-3.735 4.032-10.422 0-7.625-6.032-12.078-6.03-4.438-16.578-4.438-4.39 0-9.156.86Q10.688.296 5.422 2v9.281q4.984-2.594 9.812-3.89 4.829-1.282 9.579-1.282 6.343 0 9.75 2.172 3.421 2.172 3.421 6.125 0 3.656-2.468 5.61-2.453 1.953-10.813 3.765l-3.125.735q-8.344 1.75-12.062 5.39-3.704 3.64-3.704 9.985 0 7.718 5.47 11.906Q16.75 56 26.811 56q4.97 0 9.36-.734 4.406-.72 8.11-2.188z" stroke-linejoin="round"/><path id="H" d="M37.11 75.984V68.5h-8.594q-4.828 0-6.72-1.953-1.874-1.953-1.874-7.031v-4.828h14.797v-6.985H19.922V0H10.89v47.703H2.297v6.984h8.594V58.5q0 9.125 4.25 13.297 4.25 4.187 13.468 4.187z" stroke-linejoin="round"/><path id="I" d="M8.688 72.906h9.921V28.61q0-11.718 4.235-16.875 4.25-5.14 13.781-5.14 9.469 0 13.719 5.14 4.25 5.157 4.25 16.875v44.297H64.5V27.391q0-14.25-7.063-21.532-7.046-7.28-20.812-7.28-13.828 0-20.89 7.28-7.047 7.282-7.047 21.532z" stroke-linejoin="round"/><path id="J" d="M53.516 70.516V60.89q-5.61 2.687-10.594 4-4.984 1.328-9.625 1.328-8.047 0-12.422-3.125t-4.375-8.89q0-4.845 2.906-7.313 2.907-2.453 11.016-3.97l5.953-1.218q11.031-2.11 16.281-7.406 5.25-5.297 5.25-14.172 0-10.61-7.11-16.078-7.093-5.469-20.812-5.469-5.172 0-11.015 1.172Q13.14.922 6.89 3.219v10.156q6-3.36 11.765-5.078 5.766-1.703 11.328-1.703 8.438 0 13.032 3.312 4.593 3.328 4.593 9.485 0 5.359-3.297 8.39-3.296 3.032-10.812 4.547L27.484 33.5q-11.03 2.188-15.968 6.875-4.922 4.688-4.922 13.047 0 9.672 6.812 15.234 6.813 5.563 18.766 5.563 5.14 0 10.453-.938 5.328-.922 10.89-2.765z" stroke-linejoin="round"/><path id="K" d="M31 75.875q-6.531-11.219-9.719-22.219-3.172-10.984-3.172-22.265 0-11.266 3.203-22.328Q24.517-2 31-13.188h-7.813Q15.875-1.704 12.235 9.375q-3.64 11.078-3.64 22.016 0 10.89 3.61 21.922 3.624 11.046 10.983 22.562z" stroke-linejoin="round"/><path id="L" d="M8.5 21.578v33.11h8.984V21.922q0-7.766 3.016-11.656 3.031-3.875 9.094-3.875 7.265 0 11.484 4.64 4.234 4.64 4.234 12.656v31h8.985V0h-8.984v8.406Q42.047 3.422 37.718 1q-4.313-2.422-10.032-2.422-9.421 0-14.312 5.86Q8.5 10.296 8.5 21.578z" stroke-linejoin="round"/><path id="M" d="M48.688 27.297q0 9.906-4.079 15.547-4.078 5.64-11.203 5.64-7.14 0-11.218-5.64-4.079-5.64-4.079-15.547 0-9.906 4.078-15.547 4.079-5.64 11.22-5.64 7.124 0 11.202 5.64t4.078 15.547zM18.108 46.39q2.844 4.875 7.157 7.234Q29.594 56 35.594 56q9.968 0 16.187-7.906 6.235-7.907 6.235-20.797T51.78 6.484q-6.218-7.906-16.187-7.906-6 0-10.328 2.375-4.313 2.375-7.157 7.25V0H9.08v75.984h9.03z" stroke-linejoin="round"/><path id="N" d="M54.89 33.016V0h-8.984v32.719q0 7.765-3.031 11.61-3.031 3.858-9.078 3.858-7.281 0-11.484-4.64-4.204-4.625-4.204-12.64V0H9.08v54.688h9.03v-8.5q3.235 4.937 7.594 7.374Q30.078 56 35.797 56q9.422 0 14.25-5.828 4.844-5.828 4.844-17.156z" stroke-linejoin="round"/><path id="O" d="M10.688 12.406H21V0H10.687z" stroke-linejoin="round"/><path id="P" d="M8.203 72.906h46.875v-4.203L28.61 0H18.312L43.22 64.594H8.203z" stroke-linejoin="round"/><path id="Q" d="M32.172-5.078q-3.797-9.766-7.422-12.735-3.61-2.984-9.656-2.984H7.906v7.516h5.282q3.703 0 5.75 1.765Q21-9.766 23.483-3.219l1.61 4.094-22.11 53.813H12.5l17.094-42.766 17.093 42.766h9.516z" stroke-linejoin="round"/><path id="R" d="M8.016 75.875h7.812q7.313-11.516 10.953-22.563 3.64-11.03 3.64-21.921 0-10.938-3.64-22.016-3.64-11.078-10.953-22.563H8.016Q14.5-2 17.703 9.063q3.203 11.063 3.203 22.329 0 11.28-3.203 22.265-3.203 11-9.687 22.219z" stroke-linejoin="round"/><path id="T" d="M9.813 72.906h13.28l32.329-60.984v60.984h9.562V0h-13.28L19.39 60.984V0H9.813z" stroke-linejoin="round"/><clipPath id="S" stroke-linejoin="round"><path d="M50.15 297.12h501.46v208.808H50.15z"/></clipPath><clipPath id="a" stroke-linejoin="round"><path d="M50.15 25.44h501.46v208.808H50.15z"/></clipPath></defs><path d="M0 568.8h568.8V0H0z" fill="#fff"/><path d="M50.15 234.248h501.46V25.44H50.15z" fill="#fff"/><g stroke-width=".8"><path clip-path="url(#a)" d="M50.15 234.248V25.44" fill="none" stroke="#b0b0b0" stroke-linecap="square"/><use stroke="#000" x="50.15" xlink:href="#b" y="234.248"/></g><path clip-path="url(#a)" d="M369.261 234.248V25.44" fill="none" stroke="#b0b0b0" stroke-linecap="square" stroke-width=".8"/><use stroke="#000" stroke-width=".8" x="369.261" xlink:href="#b" y="234.248"/><g transform="matrix(.1 0 0 -.1 360.611 271.242)"><use xlink:href="#c"/><use x="68.408" xlink:href="#d"/><use x="131.885" xlink:href="#e"/></g><g transform="matrix(.1 0 0 -.1 356.536 282.44)"><use xlink:href="#f"/><use x="63.623" xlink:href="#g"/><use x="127.246" xlink:href="#f"/><use x="190.869" xlink:href="#g"/></g><path clip-path="url(#a)" d="M551.61 234.248V25.44" fill="none" stroke="#b0b0b0" stroke-linecap="square" stroke-width=".8"/><use stroke="#000" stroke-width=".8" x="551.61" xlink:href="#b" y="234.248"/><g transform="matrix(.1 0 0 -.1 545.247 248.846)"><use xlink:href="#h"/><use x="63.623" xlink:href="#i"/></g><use stroke="#000" stroke-width=".6" x="65.346" xlink:href="#j" y="234.248"/><use stroke="#000" stroke-width=".6" x="80.542" xlink:href="#j" y="234.248"/><use stroke="#000" stroke-width=".6" x="95.737" xlink:href="#j" y="234.248"/><use stroke="#000" stroke-width=".6" x="110.933" xlink:href="#j" y="234.248"/><use stroke="#000" stroke-width=".6" x="126.129" xlink:href="#j" y="234.248"/><g transform="matrix(.1 0 0 -.1 119.766 247.246)"><use xlink:href="#h"/><use x="63.623" xlink:href="#k"/></g><g stroke="#000" stroke-width=".6"><use x="141.325" xlink:href="#j" y="234.248"/><use x="156.52" xlink:href="#j" y="234.248"/><use x="171.716" xlink:href="#j" y="234.248"/><use x="186.912" xlink:href="#j" y="234.248"/><use x="202.108" xlink:href="#j" y="234.248"/><use x="217.303" xlink:href="#j" y="234.248"/></g><use stroke="#000" stroke-width=".6" x="232.499" xlink:href="#j" y="234.248"/><g transform="matrix(.1 0 0 -.1 226.137 247.246)"><use xlink:href="#f"/><use x="63.623" xlink:href="#i"/></g><use stroke="#000" stroke-width=".6" x="247.695" xlink:href="#j" y="234.248"/><use stroke="#000" stroke-width=".6" x="262.891" xlink:href="#j" y="234.248"/><use stroke="#000" stroke-width=".6" x="278.086" xlink:href="#j" y="234.248"/><use stroke="#000" stroke-width=".6" x="293.282" xlink:href="#j" y="234.248"/><use stroke="#000" stroke-width=".6" x="308.478" xlink:href="#j" y="234.248"/><use stroke="#000" stroke-width=".6" x="323.674" xlink:href="#j" y="234.248"/><use stroke="#000" stroke-width=".6" x="338.869" xlink:href="#j" y="234.248"/><g transform="matrix(.1 0 0 -.1 332.507 247.246)"><use xlink:href="#i"/><use x="63.623" xlink:href="#g"/></g><use stroke="#000" stroke-width=".6" x="354.065" xlink:href="#j" y="234.248"/><use stroke="#000" stroke-width=".6" x="384.457" xlink:href="#j" y="234.248"/><use stroke="#000" stroke-width=".6" x="399.652" xlink:href="#j" y="234.248"/><use stroke="#000" stroke-width=".6" x="414.848" xlink:href="#j" y="234.248"/><use stroke="#000" stroke-width=".6" x="430.044" xlink:href="#j" y="234.248"/><g><use stroke="#000" stroke-width=".6" x="445.24" xlink:href="#j" y="234.248"/><g transform="matrix(.1 0 0 -.1 438.877 247.246)"><use xlink:href="#g"/><use x="63.623" xlink:href="#k"/></g></g><use stroke="#000" stroke-width=".6" x="460.435" xlink:href="#j" y="234.248"/><use stroke="#000" stroke-width=".6" x="475.631" xlink:href="#j" y="234.248"/><use stroke="#000" stroke-width=".6" x="490.827" xlink:href="#j" y="234.248"/><use stroke="#000" stroke-width=".6" x="506.023" xlink:href="#j" y="234.248"/><use stroke="#000" stroke-width=".6" x="521.218" xlink:href="#j" y="234.248"/><use stroke="#000" stroke-width=".6" x="536.414" xlink:href="#j" y="234.248"/><g><path clip-path="url(#a)" d="M50.15 234.248h501.46" fill="none" stroke="#b0b0b0" stroke-linecap="square" stroke-width=".8"/><use stroke="#000" stroke-width=".8" x="50.15" xlink:href="#l" y="234.248"/><g transform="matrix(.1 0 0 -.1 25.55 238.047)"><use transform="translate(0 .766)" xlink:href="#h"/><use transform="translate(63.623 .766)" xlink:href="#g"/><use transform="matrix(.7 0 0 .7 128.203 39.047)" xlink:href="#f"/></g><path clip-path="url(#a)" d="M50.15 182.465h501.46" fill="none" stroke="#b0b0b0" stroke-linecap="square" stroke-width=".8"/><use stroke="#000" stroke-width=".8" x="50.15" xlink:href="#l" y="182.465"/><g transform="matrix(.1 0 0 -.1 25.55 186.264)"><use transform="translate(0 .766)" xlink:href="#h"/><use transform="translate(63.623 .766)" xlink:href="#g"/><use transform="matrix(.7 0 0 .7 128.203 39.047)" xlink:href="#i"/></g><path clip-path="url(#a)" d="M50.15 130.681h501.46" fill="none" stroke="#b0b0b0" stroke-linecap="square" stroke-width=".8"/><use stroke="#000" stroke-width=".8" x="50.15" xlink:href="#l" y="130.681"/><g transform="matrix(.1 0 0 -.1 25.55 134.48)"><use transform="translate(0 .684)" xlink:href="#h"/><use transform="translate(63.623 .684)" xlink:href="#g"/><use transform="matrix(.7 0 0 .7 128.203 38.966)" xlink:href="#m"/></g><g><path clip-path="url(#a)" d="M50.15 78.898h501.46" fill="none" stroke="#b0b0b0" stroke-linecap="square" stroke-width=".8"/><use stroke="#000" stroke-width=".8" x="50.15" xlink:href="#l" y="78.898"/><g transform="matrix(.1 0 0 -.1 25.55 82.697)"><use transform="translate(0 .684)" xlink:href="#h"/><use transform="translate(63.623 .684)" xlink:href="#g"/><use transform="matrix(.7 0 0 .7 128.203 38.966)" xlink:href="#n"/></g></g><g><path clip-path="url(#a)" d="M50.15 27.115h501.46" fill="none" stroke="#b0b0b0" stroke-linecap="square" stroke-width=".8"/><use stroke="#000" stroke-width=".8" x="50.15" xlink:href="#l" y="27.115"/><g transform="matrix(.1 0 0 -.1 25.55 30.914)"><use transform="translate(0 .766)" xlink:href="#h"/><use transform="translate(63.623 .766)" xlink:href="#g"/><use transform="matrix(.7 0 0 .7 128.203 39.047)" xlink:href="#k"/></g></g><g stroke="#000" stroke-width=".6"><use x="50.15" xlink:href="#o" y="218.66"/><use x="50.15" xlink:href="#o" y="209.541"/><use x="50.15" xlink:href="#o" y="203.071"/><use x="50.15" xlink:href="#o" y="198.053"/><use x="50.15" xlink:href="#o" y="193.953"/><use x="50.15" xlink:href="#o" y="190.486"/><use x="50.15" xlink:href="#o" y="187.483"/><use x="50.15" xlink:href="#o" y="184.834"/><use x="50.15" xlink:href="#o" y="166.876"/><use x="50.15" xlink:href="#o" y="157.758"/><use x="50.15" xlink:href="#o" y="151.288"/><use x="50.15" xlink:href="#o" y="146.27"/><use x="50.15" xlink:href="#o" y="142.169"/><use x="50.15" xlink:href="#o" y="138.703"/><use x="50.15" xlink:href="#o" y="135.7"/><use x="50.15" xlink:href="#o" y="133.051"/><use x="50.15" xlink:href="#o" y="115.093"/><use x="50.15" xlink:href="#o" y="105.974"/><use x="50.15" xlink:href="#o" y="99.505"/><use x="50.15" xlink:href="#o" y="94.486"/><use x="50.15" xlink:href="#o" y="90.386"/><use x="50.15" xlink:href="#o" y="86.919"/><use x="50.15" xlink:href="#o" y="83.916"/><use x="50.15" xlink:href="#o" y="81.267"/><use x="50.15" xlink:href="#o" y="63.31"/><use x="50.15" xlink:href="#o" y="54.191"/><use x="50.15" xlink:href="#o" y="47.721"/><use x="50.15" xlink:href="#o" y="42.703"/><use x="50.15" xlink:href="#o" y="38.603"/><use x="50.15" xlink:href="#o" y="35.136"/><use x="50.15" xlink:href="#o" y="32.133"/><use x="50.15" xlink:href="#o" y="29.484"/></g><g transform="matrix(0 -.1 -.1 0 19.47 156.19)"><path d="M3.328 72.906h9.953L28.61 11.281l15.282 61.625h11.093l15.328-61.625 15.282 61.625h10.015L77.297 0H64.89L49.516 63.281 33.984 0H21.578z"/><use x="98.799" xlink:href="#p"/><use x="159.98" xlink:href="#e"/><use x="201.094" xlink:href="#q"/><use x="228.877" xlink:href="#r"/><use x="292.354" xlink:href="#s"/><use x="374.141" xlink:href="#t"/><use x="401.924" xlink:href="#r"/><use x="465.4" xlink:href="#u"/></g></g><g stroke="#1f77b4"><path clip-path="url(#a)" d="M-1 199.83l5.563-2.134 15.196-2.786 15.195-10.643 15.196-6.586 15.196-5.94 15.196-6.175 15.195-5.103 15.196-5.678 15.196-6.295 15.196-7.404 15.195-4.12 15.196-12.82 15.196-7.554 15.196-6.55 15.195-6.496 15.196-5.728 15.196-4.508 15.196-4.542 15.195-5.392 15.196-4.299 15.196-3.971 15.196-3.086 15.195-2.717 15.196-3.28 15.196-2.73 15.196-2.996 15.195-2.783 15.196-2.232 15.196-1.829 15.196-1.83 15.195-1.64 15.196-1.738 15.196-1.597 15.196-1.533" fill="none" stroke-linecap="square" stroke-width="1.5"/><g clip-path="url(#a)" fill="#1f77b4"><use x="-1" xlink:href="#v" y="199.83"/><use x="4.563" xlink:href="#v" y="197.696"/><use x="19.759" xlink:href="#v" y="194.91"/><use x="34.954" xlink:href="#v" y="184.267"/><use x="50.15" xlink:href="#v" y="177.681"/><use x="65.346" xlink:href="#v" y="171.741"/><use x="80.542" xlink:href="#v" y="165.566"/><use x="95.737" xlink:href="#v" y="160.463"/><use x="110.933" xlink:href="#v" y="154.785"/><use x="126.129" xlink:href="#v" y="148.49"/><use x="141.325" xlink:href="#v" y="141.086"/><use x="156.52" xlink:href="#v" y="136.966"/><use x="171.716" xlink:href="#v" y="124.146"/><use x="186.912" xlink:href="#v" y="116.592"/><use x="202.108" xlink:href="#v" y="110.042"/><use x="217.303" xlink:href="#v" y="103.546"/><use x="232.499" xlink:href="#v" y="97.818"/><use x="247.695" xlink:href="#v" y="93.31"/><use x="262.891" xlink:href="#v" y="88.768"/><use x="278.086" xlink:href="#v" y="83.376"/><use x="293.282" xlink:href="#v" y="79.077"/><use x="308.478" xlink:href="#v" y="75.106"/><use x="323.674" xlink:href="#v" y="72.02"/><use x="338.869" xlink:href="#v" y="69.303"/><use x="354.065" xlink:href="#v" y="66.022"/><use x="369.261" xlink:href="#v" y="63.294"/><use x="384.457" xlink:href="#v" y="60.297"/><use x="399.652" xlink:href="#v" y="57.514"/><use x="414.848" xlink:href="#v" y="55.282"/><use x="430.044" xlink:href="#v" y="53.453"/><use x="445.24" xlink:href="#v" y="51.622"/><use x="460.435" xlink:href="#v" y="49.982"/><use x="475.631" xlink:href="#v" y="48.245"/><use x="490.827" xlink:href="#v" y="46.648"/><use x="506.023" xlink:href="#v" y="45.115"/></g></g><g stroke="#ff7f0e"><path clip-path="url(#a)" d="M-1 142.68l5.563-1.916 15.196-5.022 15.195-2.17 15.196-4.18h15.196l15.196-7.762 15.195-3.853 15.196-3.352 15.196-2.546 15.196-2.74 15.195-2.176 15.196-3.261 15.196-3.366 15.196-2.29 15.195-1.994 15.196-1.753 15.196-1.556 15.196-1.408 15.195-1.691 15.196-1.542 15.196-1.204 15.196-1.192 15.195-.496 15.196-.619 15.196-.835 15.196-.68 15.195-.626 15.196-.747 15.196-.745 15.196-.473 15.195-.212 15.196-.283 15.196-.378 15.196-.322" fill="none" stroke-linecap="square" stroke-width="1.5"/><g clip-path="url(#a)" fill="#ff7f0e"><use x="-1" xlink:href="#w" y="142.68"/><use x="4.563" xlink:href="#w" y="140.764"/><use x="19.759" xlink:href="#w" y="135.742"/><use x="34.954" xlink:href="#w" y="133.572"/><use x="50.15" xlink:href="#w" y="129.392"/><use x="65.346" xlink:href="#w" y="129.392"/><use x="80.542" xlink:href="#w" y="121.63"/><use x="95.737" xlink:href="#w" y="117.777"/><use x="110.933" xlink:href="#w" y="114.425"/><use x="126.129" xlink:href="#w" y="111.879"/><use x="141.325" xlink:href="#w" y="109.139"/><use x="156.52" xlink:href="#w" y="106.963"/><use x="171.716" xlink:href="#w" y="103.702"/><use x="186.912" xlink:href="#w" y="100.336"/><use x="202.108" xlink:href="#w" y="98.046"/><use x="217.303" xlink:href="#w" y="96.052"/><use x="232.499" xlink:href="#w" y="94.299"/><use x="247.695" xlink:href="#w" y="92.743"/><use x="262.891" xlink:href="#w" y="91.335"/><use x="278.086" xlink:href="#w" y="89.644"/><use x="293.282" xlink:href="#w" y="88.102"/><use x="308.478" xlink:href="#w" y="86.898"/><use x="323.674" xlink:href="#w" y="85.706"/><use x="338.869" xlink:href="#w" y="85.21"/><use x="354.065" xlink:href="#w" y="84.591"/><use x="369.261" xlink:href="#w" y="83.756"/><use x="384.457" xlink:href="#w" y="83.075"/><use x="399.652" xlink:href="#w" y="82.45"/><use x="414.848" xlink:href="#w" y="81.703"/><use x="430.044" xlink:href="#w" y="80.958"/><use x="445.24" xlink:href="#w" y="80.485"/><use x="460.435" xlink:href="#w" y="80.273"/><use x="475.631" xlink:href="#w" y="79.99"/><use x="490.827" xlink:href="#w" y="79.612"/><use x="506.023" xlink:href="#w" y="79.29"/></g></g><path clip-path="url(#a)" d="M-1 181.804l5.563-1.38 15.196-1.643 15.195-8.76 15.196-5.532h15.196l15.196-10.681 15.195-4.546 15.196-.169 15.196-8.69 15.196-3.32 15.195-3.76 15.196-4.018 15.196-3.04 15.196-2.72 15.195.66 15.196-5.528 15.196-1.503 15.196-2.482 15.195-2.642 15.196-2.595 15.196-3.529 15.196-.595 15.195-2.288 15.196-3.415 15.196-1.568 15.196.357 15.195-1.334 15.196-9.413 15.196-.535 15.196-1.039 15.195-2.236 15.196-.395 15.196-.415 15.196-1.154" fill="none" stroke="#2ca02c" stroke-linecap="square" stroke-width="1.5"/><g stroke="#d62728"><path clip-path="url(#a)" d="M-1 195.536l5.563-2.537 15.196-10.825 15.195-10.67 15.196-5.073 15.196.011 15.196-19.746 15.195-3.29 15.196-4.678 15.196-5.851 15.196-2.612 15.195-4.067 15.196-6.123 15.196-2.335 15.196-4.661 15.195-2.753 15.196-3.95 15.196-2.737 15.196-4.414 15.195-3.061 15.196-2.222 15.196-1.586 15.196-1.438 15.195-1.793 15.196-1.62 15.196-1.245 15.196-.884 15.195-.742 15.196-.718 15.196-.258 15.196-.542 15.195-.48 15.196-.19 15.196-.054 15.196-.239" fill="none" stroke-linecap="square" stroke-width="1.5"/><g clip-path="url(#a)" fill="#d62728"><use x="-1" xlink:href="#x" y="195.536"/><use x="4.563" xlink:href="#x" y="192.999"/><use x="19.759" xlink:href="#x" y="182.174"/><use x="34.954" xlink:href="#x" y="171.504"/><use x="50.15" xlink:href="#x" y="166.431"/><use x="65.346" xlink:href="#x" y="166.442"/><use x="80.542" xlink:href="#x" y="146.696"/><use x="95.737" xlink:href="#x" y="143.406"/><use x="110.933" xlink:href="#x" y="138.728"/><use x="126.129" xlink:href="#x" y="132.877"/><use x="141.325" xlink:href="#x" y="130.265"/><use x="156.52" xlink:href="#x" y="126.198"/><use x="171.716" xlink:href="#x" y="120.075"/><use x="186.912" xlink:href="#x" y="117.74"/><use x="202.108" xlink:href="#x" y="113.079"/><use x="217.303" xlink:href="#x" y="110.326"/><use x="232.499" xlink:href="#x" y="106.375"/><use x="247.695" xlink:href="#x" y="103.639"/><use x="262.891" xlink:href="#x" y="99.225"/><use x="278.086" xlink:href="#x" y="96.164"/><use x="293.282" xlink:href="#x" y="93.942"/><use x="308.478" xlink:href="#x" y="92.356"/><use x="323.674" xlink:href="#x" y="90.918"/><use x="338.869" xlink:href="#x" y="89.125"/><use x="354.065" xlink:href="#x" y="87.505"/><use x="369.261" xlink:href="#x" y="86.26"/><use x="384.457" xlink:href="#x" y="85.376"/><use x="399.652" xlink:href="#x" y="84.634"/><use x="414.848" xlink:href="#x" y="83.916"/><use x="430.044" xlink:href="#x" y="83.658"/><use x="445.24" xlink:href="#x" y="83.116"/><use x="460.435" xlink:href="#x" y="82.635"/><use x="475.631" xlink:href="#x" y="82.445"/><use x="490.827" xlink:href="#x" y="82.392"/><use x="506.023" xlink:href="#x" y="82.153"/></g></g><g stroke="#9467bd"><path clip-path="url(#a)" d="M-1 184.19l5.563-2.215 15.196-2.77 15.195-4.894 15.196-6.043 15.196-1.947 15.196-12.8 15.195-5.031 15.196-5.316 15.196-5.067 15.196-5.467 15.195-6.42 15.196-4.9 15.196-5.774 15.196-2.49 15.195-2.539 15.196-3.373 15.196-.857 15.196-2.841 15.195-2.787 15.196-3.232 15.196-2.386 15.196-1.588 15.195-.167 15.196-.916 15.196-1.319 15.196-1.128 15.195-1.444 15.196-.99 15.196-.518 15.196-.953 15.195 1.041 15.196 1.65 15.196.52 15.196-.812" fill="none" stroke-linecap="square" stroke-width="1.5"/><g clip-path="url(#a)" fill="#9467bd"><use x="-1" xlink:href="#y" y="184.189"/><use x="4.563" xlink:href="#y" y="181.975"/><use x="19.759" xlink:href="#y" y="179.204"/><use x="34.954" xlink:href="#y" y="174.311"/><use x="50.15" xlink:href="#y" y="168.268"/><use x="65.346" xlink:href="#y" y="166.321"/><use x="80.542" xlink:href="#y" y="153.52"/><use x="95.737" xlink:href="#y" y="148.49"/><use x="110.933" xlink:href="#y" y="143.174"/><use x="126.129" xlink:href="#y" y="138.107"/><use x="141.325" xlink:href="#y" y="132.64"/><use x="156.52" xlink:href="#y" y="126.22"/><use x="171.716" xlink:href="#y" y="121.32"/><use x="186.912" xlink:href="#y" y="115.546"/><use x="202.108" xlink:href="#y" y="113.056"/><use x="217.303" xlink:href="#y" y="110.517"/><use x="232.499" xlink:href="#y" y="107.144"/><use x="247.695" xlink:href="#y" y="106.287"/><use x="262.891" xlink:href="#y" y="103.446"/><use x="278.086" xlink:href="#y" y="100.659"/><use x="293.282" xlink:href="#y" y="97.427"/><use x="308.478" xlink:href="#y" y="95.041"/><use x="323.674" xlink:href="#y" y="93.453"/><use x="338.869" xlink:href="#y" y="93.286"/><use x="354.065" xlink:href="#y" y="92.37"/><use x="369.261" xlink:href="#y" y="91.051"/><use x="384.457" xlink:href="#y" y="89.923"/><use x="399.652" xlink:href="#y" y="88.479"/><use x="414.848" xlink:href="#y" y="87.489"/><use x="430.044" xlink:href="#y" y="86.971"/><use x="445.24" xlink:href="#y" y="86.018"/><use x="460.435" xlink:href="#y" y="87.059"/><use x="475.631" xlink:href="#y" y="88.708"/><use x="490.827" xlink:href="#y" y="89.229"/><use x="506.023" xlink:href="#y" y="88.417"/></g></g><path clip-path="url(#a)" d="M506.023 45.115l15.195-1.6 15.196-1.6 15.196-1.6" fill="none" stroke="#1f77b4" stroke-dasharray="1.5 2.475" stroke-width="1.5"/><path clip-path="url(#a)" d="M506.023 79.29l15.195-.334 15.196-.334 15.196-.333" fill="none" stroke="#ff7f0e" stroke-dasharray="1.5 2.475" stroke-width="1.5"/><path clip-path="url(#a)" d="M506.023 81.896l15.195-.728 15.196-.728 15.196-.728" fill="none" stroke="#2ca02c" stroke-dasharray="1.5 2.475" stroke-width="1.5"/><path clip-path="url(#a)" d="M506.023 82.153l15.195-.162 15.196-.162 15.196-.162" fill="none" stroke="#d62728" stroke-dasharray="1.5 2.475" stroke-width="1.5"/><path clip-path="url(#a)" d="M506.023 88.417l15.195.19 15.196.192 15.196.191" fill="none" stroke="#9467bd" stroke-dasharray="1.5 2.475" stroke-width="1.5"/><path d="M50.15 234.248V25.44M551.61 234.248V25.44M50.15 234.248h501.46M50.15 25.44h501.46" fill="none" stroke="#000" stroke-linecap="square" stroke-linejoin="miter" stroke-width=".8"/><g transform="matrix(.12 0 0 -.12 179.1 19.44)"><use xlink:href="#c"/><use x="68.393" xlink:href="#z"/><use x="123.373" xlink:href="#A"/><use x="162.582" xlink:href="#t"/><path d="M193.35 54.688h9.515L219.96 8.797l17.094 45.89h9.515L226.053 0H213.85z"/><use x="249.545" xlink:href="#u"/><use x="342.855" xlink:href="#B"/><path d="M452.086 66.219q-10.75 0-17.078-8.016-6.313-8-6.313-21.828 0-13.766 6.313-21.781 6.328-8 17.078-8 10.734 0 17.016 8 6.28 8.015 6.28 21.781 0 13.828-6.28 21.828-6.282 8.016-17.016 8.016zm0 8q15.328 0 24.5-10.281 9.187-10.282 9.187-27.563 0-17.234-9.187-27.516-9.172-10.28-24.5-10.28-15.375 0-24.594 10.25-9.203 10.265-9.203 27.546t9.203 27.563q9.219 10.28 24.594 10.28zM519.984 0l-27.828 72.906h10.297l23.11-61.375 23.14 61.375h10.25L531.172 0z"/><use x="559.783" xlink:href="#C"/><path d="M608.947 64.797V8.109h11.922q15.094 0 22.094 6.829 7 6.843 7 21.593 0 14.64-7 21.453-7 6.813-22.094 6.813zm-9.86 8.11h20.267q21.187 0 31.093-8.813 9.922-8.813 9.922-27.563 0-18.86-9.969-27.703Q640.447 0 619.354 0h-20.266z"/><use x="666.277" xlink:href="#D"/><use x="702.361" xlink:href="#h"/><use x="765.984" xlink:href="#E"/><use x="861.395" xlink:href="#z"/><use x="916.375" xlink:href="#F"/><use x="977.654" xlink:href="#G"/><use x="1029.754" xlink:href="#u"/><use x="1091.277" xlink:href="#G"/><use x="1175.164" xlink:href="#F"/><use x="1236.443" xlink:href="#G"/><use x="1320.33" xlink:href="#p"/><use x="1381.512" xlink:href="#H"/><use x="1448.504" xlink:href="#f"/><use x="1512.127" xlink:href="#g"/><use x="1575.75" xlink:href="#f"/><use x="1639.373" xlink:href="#g"/><use x="1702.996" xlink:href="#D"/><use x="1739.08" xlink:href="#g"/><use x="1802.703" xlink:href="#m"/><use x="1866.326" xlink:href="#D"/><use x="1902.41" xlink:href="#h"/><use x="1966.033" xlink:href="#g"/></g><g><path d="M363.846 229.248H544.61q2 0 2-2v-72.39q0-2-2-2H363.846q-2 0-2 2v72.39q0 2 2 2z" fill="#fff" opacity=".8" stroke="#ccc" stroke-linejoin="miter"/><path d="M365.846 160.956h20" fill="none" stroke="#1f77b4" stroke-linecap="square" stroke-width="1.5"/><use fill="#1f77b4" stroke="#1f77b4" x="375.846" xlink:href="#v" y="160.956"/><g transform="matrix(.1 0 0 -.1 393.846 164.456)"><use xlink:href="#I"/><use x="73.193" xlink:href="#J"/><use x="168.457" xlink:href="#K"/><use x="207.471" xlink:href="#r"/><use x="270.947" xlink:href="#p"/><use x="332.129" xlink:href="#L"/><use x="395.508" xlink:href="#M"/><use x="458.984" xlink:href="#q"/><use x="486.768" xlink:href="#u"/><use x="548.291" xlink:href="#G"/><use x="632.178" xlink:href="#t"/><use x="659.961" xlink:href="#N"/><use x="755.127" xlink:href="#E"/><use x="818.75" xlink:href="#O"/><use x="850.537" xlink:href="#P"/><use x="945.947" xlink:href="#r"/><use x="1009.424" xlink:href="#F"/><use x="1070.703" xlink:href="#Q"/><use x="1129.883" xlink:href="#G"/><use x="1181.982" xlink:href="#R"/></g><path d="M365.846 175.634h20" fill="none" stroke="#ff7f0e" stroke-linecap="square" stroke-width="1.5"/><use fill="#ff7f0e" stroke="#ff7f0e" x="375.846" xlink:href="#w" y="175.634"/><g transform="matrix(.1 0 0 -.1 393.846 179.134)"><use xlink:href="#C"/><use x="29.492" xlink:href="#A"/><use x="68.701" xlink:href="#F"/><use x="129.98" xlink:href="#q"/><use x="157.764" xlink:href="#Q"/><use x="248.73" xlink:href="#K"/><use x="287.744" xlink:href="#r"/><use x="351.221" xlink:href="#p"/><use x="412.402" xlink:href="#L"/><use x="475.781" xlink:href="#M"/><use x="539.258" xlink:href="#q"/><use x="567.041" xlink:href="#u"/><use x="628.564" xlink:href="#G"/><use x="712.451" xlink:href="#t"/><use x="740.234" xlink:href="#N"/><use x="835.4" xlink:href="#m"/><use x="899.023" xlink:href="#k"/><use x="962.646" xlink:href="#O"/><use x="994.434" xlink:href="#P"/><use x="1089.844" xlink:href="#r"/><use x="1153.32" xlink:href="#F"/><use x="1214.6" xlink:href="#Q"/><use x="1273.779" xlink:href="#G"/><use x="1325.879" xlink:href="#R"/></g><path d="M365.846 190.312h20" fill="none" stroke="#2ca02c" stroke-linecap="square" stroke-width="1.5"/><g transform="matrix(.1 0 0 -.1 393.846 193.812)"><path d="M9.813 72.906h41.89v-8.312H19.672V43.109h28.906v-8.297H19.672V0h-9.86z"/><use x="57.41" xlink:href="#e"/><use x="98.523" xlink:href="#F"/><use x="159.803" xlink:href="#N"/><use x="223.182" xlink:href="#z"/><use x="278.162" xlink:href="#u"/><use x="371.473" xlink:href="#K"/><use x="410.486" xlink:href="#r"/><use x="473.963" xlink:href="#p"/><use x="535.145" xlink:href="#L"/><use x="598.523" xlink:href="#M"/><use x="662" xlink:href="#q"/><use x="689.783" xlink:href="#u"/><use x="751.307" xlink:href="#G"/><use x="835.193" xlink:href="#t"/><use x="862.977" xlink:href="#N"/><use x="958.143" xlink:href="#f"/><use x="1021.766" xlink:href="#h"/><use x="1085.389" xlink:href="#O"/><use x="1117.176" xlink:href="#m"/><use x="1212.586" xlink:href="#r"/><use x="1276.063" xlink:href="#F"/><use x="1337.342" xlink:href="#Q"/><use x="1396.521" xlink:href="#G"/><use x="1448.621" xlink:href="#R"/></g><path d="M365.846 204.99h20" fill="none" stroke="#d62728" stroke-linecap="square" stroke-width="1.5"/><use fill="#d62728" stroke="#d62728" x="375.846" xlink:href="#x" y="204.99"/><g transform="matrix(.1 0 0 -.1 393.846 208.49)"><use xlink:href="#J"/><use x="63.477" xlink:href="#d"/><use x="126.953" xlink:href="#F"/><use x="188.232" xlink:href="#t"/><use x="216.016" xlink:href="#N"/></g><path d="M365.846 219.668h20" fill="none" stroke="#9467bd" stroke-linecap="square" stroke-width="1.5"/><use fill="#9467bd" stroke="#9467bd" x="375.846" xlink:href="#y" y="219.668"/><g transform="matrix(.1 0 0 -.1 393.846 223.168)"><path d="M59.516 10.406v19.578h-16.11v8.11h25.875V6.78Q63.578 2.734 56.687.656 49.813-1.422 42-1.422q-17.094 0-26.75 9.985-9.64 10-9.64 27.812 0 17.875 9.64 27.86 9.656 9.984 26.75 9.984 7.125 0 13.547-1.766 6.422-1.75 11.844-5.172v-10.5q-5.47 4.64-11.625 6.985-6.157 2.343-12.938 2.343-13.39 0-20.11-7.468-6.702-7.47-6.702-22.266 0-14.75 6.703-22.219 6.718-7.469 20.11-7.469 5.218 0 9.312.907 4.109.906 7.375 2.812z"/><use x="77.49" xlink:href="#u"/><use x="139.014" xlink:href="#e"/><path d="M232.111 44.188q3.375 6.062 8.063 8.937Q244.86 56 251.205 56q8.547 0 13.188-5.984 4.64-5.97 4.64-17V0h-9.031v32.719q0 7.86-2.797 11.656-2.781 3.813-8.484 3.813-6.985 0-11.047-4.641-4.047-4.625-4.047-12.64V0h-9.031v32.719q0 7.906-2.782 11.687-2.78 3.782-8.593 3.782-6.89 0-10.953-4.657-4.047-4.656-4.047-12.625V0h-9.032v54.688h9.032v-8.5q3.078 5.03 7.375 7.421Q209.893 56 215.799 56q5.969 0 10.14-3.031 4.172-3.016 6.172-8.782z"/><use x="277.523" xlink:href="#F"/><use x="338.803" xlink:href="#N"/><use x="402.182" xlink:href="#Q"/></g></g><g><path d="M50.15 505.928h501.46V297.12H50.15z" fill="#fff"/><g stroke-width=".8"><path clip-path="url(#S)" d="M50.15 505.928V297.12" fill="none" stroke="#b0b0b0" stroke-linecap="square"/><use stroke="#000" x="50.15" xlink:href="#b" y="505.928"/></g><path clip-path="url(#S)" d="M369.261 505.928V297.12" fill="none" stroke="#b0b0b0" stroke-linecap="square" stroke-width=".8"/><use stroke="#000" stroke-width=".8" x="369.261" xlink:href="#b" y="505.928"/><g transform="matrix(.1 0 0 -.1 360.611 542.922)"><use xlink:href="#c"/><use x="68.408" xlink:href="#d"/><use x="131.885" xlink:href="#e"/></g><g transform="matrix(.1 0 0 -.1 356.536 554.12)"><use xlink:href="#f"/><use x="63.623" xlink:href="#g"/><use x="127.246" xlink:href="#f"/><use x="190.869" xlink:href="#g"/></g><path clip-path="url(#S)" d="M551.61 505.928V297.12" fill="none" stroke="#b0b0b0" stroke-linecap="square" stroke-width=".8"/><use stroke="#000" stroke-width=".8" x="551.61" xlink:href="#b" y="505.928"/><g transform="matrix(.1 0 0 -.1 545.247 520.526)"><use xlink:href="#h"/><use x="63.623" xlink:href="#i"/></g><use stroke="#000" stroke-width=".6" x="65.346" xlink:href="#j" y="505.928"/><use stroke="#000" stroke-width=".6" x="80.542" xlink:href="#j" y="505.928"/><use stroke="#000" stroke-width=".6" x="95.737" xlink:href="#j" y="505.928"/><use stroke="#000" stroke-width=".6" x="110.933" xlink:href="#j" y="505.928"/><use stroke="#000" stroke-width=".6" x="126.129" xlink:href="#j" y="505.928"/><g transform="matrix(.1 0 0 -.1 119.766 518.926)"><use xlink:href="#h"/><use x="63.623" xlink:href="#k"/></g><g stroke="#000" stroke-width=".6"><use x="141.325" xlink:href="#j" y="505.928"/><use x="156.52" xlink:href="#j" y="505.928"/><use x="171.716" xlink:href="#j" y="505.928"/><use x="186.912" xlink:href="#j" y="505.928"/><use x="202.108" xlink:href="#j" y="505.928"/><use x="217.303" xlink:href="#j" y="505.928"/></g><use stroke="#000" stroke-width=".6" x="232.499" xlink:href="#j" y="505.928"/><g transform="matrix(.1 0 0 -.1 226.137 518.926)"><use xlink:href="#f"/><use x="63.623" xlink:href="#i"/></g><use stroke="#000" stroke-width=".6" x="247.695" xlink:href="#j" y="505.928"/><use stroke="#000" stroke-width=".6" x="262.891" xlink:href="#j" y="505.928"/><use stroke="#000" stroke-width=".6" x="278.086" xlink:href="#j" y="505.928"/><use stroke="#000" stroke-width=".6" x="293.282" xlink:href="#j" y="505.928"/><use stroke="#000" stroke-width=".6" x="308.478" xlink:href="#j" y="505.928"/><use stroke="#000" stroke-width=".6" x="323.674" xlink:href="#j" y="505.928"/><use stroke="#000" stroke-width=".6" x="338.869" xlink:href="#j" y="505.928"/><g transform="matrix(.1 0 0 -.1 332.507 518.926)"><use xlink:href="#i"/><use x="63.623" xlink:href="#g"/></g><use stroke="#000" stroke-width=".6" x="354.065" xlink:href="#j" y="505.928"/><use stroke="#000" stroke-width=".6" x="384.457" xlink:href="#j" y="505.928"/><use stroke="#000" stroke-width=".6" x="399.652" xlink:href="#j" y="505.928"/><use stroke="#000" stroke-width=".6" x="414.848" xlink:href="#j" y="505.928"/><use stroke="#000" stroke-width=".6" x="430.044" xlink:href="#j" y="505.928"/><g><use stroke="#000" stroke-width=".6" x="445.24" xlink:href="#j" y="505.928"/><g transform="matrix(.1 0 0 -.1 438.877 518.926)"><use xlink:href="#g"/><use x="63.623" xlink:href="#k"/></g></g><use stroke="#000" stroke-width=".6" x="460.435" xlink:href="#j" y="505.928"/><use stroke="#000" stroke-width=".6" x="475.631" xlink:href="#j" y="505.928"/><use stroke="#000" stroke-width=".6" x="490.827" xlink:href="#j" y="505.928"/><use stroke="#000" stroke-width=".6" x="506.023" xlink:href="#j" y="505.928"/><use stroke="#000" stroke-width=".6" x="521.218" xlink:href="#j" y="505.928"/><use stroke="#000" stroke-width=".6" x="536.414" xlink:href="#j" y="505.928"/><g><path clip-path="url(#S)" d="M50.15 505.928h501.46" fill="none" stroke="#b0b0b0" stroke-linecap="square" stroke-width=".8"/><use stroke="#000" stroke-width=".8" x="50.15" xlink:href="#l" y="505.928"/><g transform="matrix(.1 0 0 -.1 25.55 509.727)"><use transform="translate(0 .766)" xlink:href="#h"/><use transform="translate(63.623 .766)" xlink:href="#g"/><use transform="matrix(.7 0 0 .7 128.203 39.047)" xlink:href="#f"/></g><path clip-path="url(#S)" d="M50.15 447.39h501.46" fill="none" stroke="#b0b0b0" stroke-linecap="square" stroke-width=".8"/><use stroke="#000" stroke-width=".8" x="50.15" xlink:href="#l" y="447.39"/><g transform="matrix(.1 0 0 -.1 25.55 451.19)"><use transform="translate(0 .766)" xlink:href="#h"/><use transform="translate(63.623 .766)" xlink:href="#g"/><use transform="matrix(.7 0 0 .7 128.203 39.047)" xlink:href="#i"/></g><g><path clip-path="url(#S)" d="M50.15 388.852h501.46" fill="none" stroke="#b0b0b0" stroke-linecap="square" stroke-width=".8"/><use stroke="#000" stroke-width=".8" x="50.15" xlink:href="#l" y="388.852"/><g transform="matrix(.1 0 0 -.1 25.55 392.652)"><use transform="translate(0 .684)" xlink:href="#h"/><use transform="translate(63.623 .684)" xlink:href="#g"/><use transform="matrix(.7 0 0 .7 128.203 38.966)" xlink:href="#m"/></g></g><g><path clip-path="url(#S)" d="M50.15 330.314h501.46" fill="none" stroke="#b0b0b0" stroke-linecap="square" stroke-width=".8"/><use stroke="#000" stroke-width=".8" x="50.15" xlink:href="#l" y="330.314"/><g transform="matrix(.1 0 0 -.1 25.55 334.114)"><use transform="translate(0 .684)" xlink:href="#h"/><use transform="translate(63.623 .684)" xlink:href="#g"/><use transform="matrix(.7 0 0 .7 128.203 38.966)" xlink:href="#n"/></g></g><g stroke="#000" stroke-width=".6"><use x="50.15" xlink:href="#o" y="488.306"/><use x="50.15" xlink:href="#o" y="477.998"/><use x="50.15" xlink:href="#o" y="470.685"/><use x="50.15" xlink:href="#o" y="465.012"/><use x="50.15" xlink:href="#o" y="460.377"/><use x="50.15" xlink:href="#o" y="456.458"/><use x="50.15" xlink:href="#o" y="453.063"/><use x="50.15" xlink:href="#o" y="450.069"/><use x="50.15" xlink:href="#o" y="429.768"/><use x="50.15" xlink:href="#o" y="419.46"/><use x="50.15" xlink:href="#o" y="412.147"/><use x="50.15" xlink:href="#o" y="406.474"/><use x="50.15" xlink:href="#o" y="401.839"/><use x="50.15" xlink:href="#o" y="397.92"/><use x="50.15" xlink:href="#o" y="394.525"/><use x="50.15" xlink:href="#o" y="391.531"/><use x="50.15" xlink:href="#o" y="371.231"/><use x="50.15" xlink:href="#o" y="360.923"/><use x="50.15" xlink:href="#o" y="353.609"/><use x="50.15" xlink:href="#o" y="347.936"/><use x="50.15" xlink:href="#o" y="343.301"/><use x="50.15" xlink:href="#o" y="339.382"/><use x="50.15" xlink:href="#o" y="335.987"/><use x="50.15" xlink:href="#o" y="332.993"/><use x="50.15" xlink:href="#o" y="312.693"/><use x="50.15" xlink:href="#o" y="302.385"/></g><g transform="matrix(0 -.1 -.1 0 19.47 408.358)"><use xlink:href="#I"/><use x="73.193" xlink:href="#J"/></g></g><g stroke="#1f77b4"><path clip-path="url(#S)" d="M-1 507.543l5.563-3.096 15.196-7.434 15.195-5.02 15.196-6.11 15.196-10.153 15.196-6.346 15.195-5.516 15.196-8.442 15.196-6.918 15.196-14.503 15.195-9.695 15.196-19.466 15.196-11.157 15.196-8.717 15.195-7.558 15.196-7.088 15.196-5.24 15.196-4.628 15.195-5.2 15.196-4.27 15.196-3.891 15.196-3.23 15.195-2.772 15.196-3.22 15.196-2.516 15.196-2.402 15.195-2.654 15.196-2.471 15.196-1.938 15.196-1.677 15.195-1.414 15.196-1.896 15.196-1.685 15.196-1.557" fill="none" stroke-linecap="square" stroke-width="1.5"/><g clip-path="url(#S)" fill="#1f77b4"><use x="-1" xlink:href="#v" y="507.543"/><use x="4.563" xlink:href="#v" y="504.447"/><use x="19.759" xlink:href="#v" y="497.013"/><use x="34.954" xlink:href="#v" y="491.993"/><use x="50.15" xlink:href="#v" y="485.883"/><use x="65.346" xlink:href="#v" y="475.73"/><use x="80.542" xlink:href="#v" y="469.384"/><use x="95.737" xlink:href="#v" y="463.868"/><use x="110.933" xlink:href="#v" y="455.426"/><use x="126.129" xlink:href="#v" y="448.508"/><use x="141.325" xlink:href="#v" y="434.005"/><use x="156.52" xlink:href="#v" y="424.31"/><use x="171.716" xlink:href="#v" y="404.844"/><use x="186.912" xlink:href="#v" y="393.687"/><use x="202.108" xlink:href="#v" y="384.97"/><use x="217.303" xlink:href="#v" y="377.412"/><use x="232.499" xlink:href="#v" y="370.324"/><use x="247.695" xlink:href="#v" y="365.083"/><use x="262.891" xlink:href="#v" y="360.456"/><use x="278.086" xlink:href="#v" y="355.255"/><use x="293.282" xlink:href="#v" y="350.985"/><use x="308.478" xlink:href="#v" y="347.095"/><use x="323.674" xlink:href="#v" y="343.865"/><use x="338.869" xlink:href="#v" y="341.093"/><use x="354.065" xlink:href="#v" y="337.872"/><use x="369.261" xlink:href="#v" y="335.357"/><use x="384.457" xlink:href="#v" y="332.955"/><use x="399.652" xlink:href="#v" y="330.301"/><use x="414.848" xlink:href="#v" y="327.83"/><use x="430.044" xlink:href="#v" y="325.892"/><use x="445.24" xlink:href="#v" y="324.215"/><use x="460.435" xlink:href="#v" y="322.801"/><use x="475.631" xlink:href="#v" y="320.905"/><use x="490.827" xlink:href="#v" y="319.22"/><use x="506.023" xlink:href="#v" y="317.663"/></g></g><g stroke="#ff7f0e"><path clip-path="url(#S)" d="M26.892 569.8l8.062-13.888 15.196-11.49 15.196-6.132h15.196l15.195-22.557 15.196-8.767L126.13 491.7l15.196-10.356 15.195-.097 15.196-25.961 15.196-4.618 15.196-10.163 15.195-9.353L232.5 421.06l15.196-6.454 15.196-4.534 15.195-11.397 15.196-6.333 15.196-5.877 15.196-4.72 15.195-5.529 15.196-2.907 15.196-4.387 15.196-3.42 15.195-3.936 15.196-3.28 15.196-2.411 15.196-2.322 15.195-1.892 15.196-1.57 15.196-1.807 15.196-1.665" fill="none" stroke-linecap="square" stroke-width="1.5"/><g clip-path="url(#S)" fill="#ff7f0e"><use x="-1" xlink:href="#w" y="584.164"/><use x="4.563" xlink:href="#w" y="582.088"/><use x="19.759" xlink:href="#w" y="582.088"/><use x="34.954" xlink:href="#w" y="555.912"/><use x="50.15" xlink:href="#w" y="544.421"/><use x="65.346" xlink:href="#w" y="538.29"/><use x="80.542" xlink:href="#w" y="538.29"/><use x="95.737" xlink:href="#w" y="515.733"/><use x="110.933" xlink:href="#w" y="506.966"/><use x="126.129" xlink:href="#w" y="491.701"/><use x="141.325" xlink:href="#w" y="481.345"/><use x="156.52" xlink:href="#w" y="481.248"/><use x="171.716" xlink:href="#w" y="455.287"/><use x="186.912" xlink:href="#w" y="450.669"/><use x="202.108" xlink:href="#w" y="440.506"/><use x="217.303" xlink:href="#w" y="431.153"/><use x="232.499" xlink:href="#w" y="421.061"/><use x="247.695" xlink:href="#w" y="414.607"/><use x="262.891" xlink:href="#w" y="410.073"/><use x="278.086" xlink:href="#w" y="398.676"/><use x="293.282" xlink:href="#w" y="392.343"/><use x="308.478" xlink:href="#w" y="386.466"/><use x="323.674" xlink:href="#w" y="381.746"/><use x="338.869" xlink:href="#w" y="376.217"/><use x="354.065" xlink:href="#w" y="373.31"/><use x="369.261" xlink:href="#w" y="368.923"/><use x="384.457" xlink:href="#w" y="365.504"/><use x="399.652" xlink:href="#w" y="361.567"/><use x="414.848" xlink:href="#w" y="358.286"/><use x="430.044" xlink:href="#w" y="355.876"/><use x="445.24" xlink:href="#w" y="353.554"/><use x="460.435" xlink:href="#w" y="351.662"/><use x="475.631" xlink:href="#w" y="350.093"/><use x="490.827" xlink:href="#w" y="348.285"/><use x="506.023" xlink:href="#w" y="346.62"/></g></g><path clip-path="url(#S)" d="M75.574 569.8l4.968-17.283 15.195-11.346 15.196-7.058 15.196-12.045 15.196-5.188 15.195-6.215 15.196-35.167 15.196-12.863 15.196-9.026 15.195-6.871 15.196-6.29 15.196-7.56 15.196-6.148 15.195-5.38 15.196-6.122 15.196-6.305 15.196-4.208 15.195-4.183 15.196-3.883 15.196-5.072 15.196-3.668 15.195-4.257 15.196-2.785 15.196-2.503 15.196-2.244 15.195-2.397 15.196-1.711 15.196-1.33 15.196-.892" fill="none" stroke="#2ca02c" stroke-linecap="square" stroke-width="1.5"/><g stroke="#d62728"><path clip-path="url(#S)" d="M-1 508.948l5.563-1.716 15.196-1.557 15.195-8.301 15.196-5.233 15.196-5.196 15.196-6.456 15.195-4.837 15.196-5.842 15.196-6.942 15.196-5.673 15.195-2.081 15.196-5.988 15.196-5.377 15.196-3.8 15.195-4.76 15.196-6.283 15.196-4.688 15.196-4.183 15.195-6.704 15.196-4.532 15.196-2.249 15.196-3.532 15.195-5.069 15.196-3.541 15.196-3.436 15.196-3.445 15.195-2.75 15.196-1.695 15.196-4 15.196-1.598 15.195-2 15.196-2.136 15.196-1.034 15.196-1.709" fill="none" stroke-linecap="square" stroke-width="1.5"/><g clip-path="url(#S)" fill="#d62728"><use x="-1" xlink:href="#x" y="508.948"/><use x="4.563" xlink:href="#x" y="507.232"/><use x="19.759" xlink:href="#x" y="505.675"/><use x="34.954" xlink:href="#x" y="497.374"/><use x="50.15" xlink:href="#x" y="492.141"/><use x="65.346" xlink:href="#x" y="486.945"/><use x="80.542" xlink:href="#x" y="480.489"/><use x="95.737" xlink:href="#x" y="475.652"/><use x="110.933" xlink:href="#x" y="469.81"/><use x="126.129" xlink:href="#x" y="462.868"/><use x="141.325" xlink:href="#x" y="457.195"/><use x="156.52" xlink:href="#x" y="455.114"/><use x="171.716" xlink:href="#x" y="449.126"/><use x="186.912" xlink:href="#x" y="443.749"/><use x="202.108" xlink:href="#x" y="439.95"/><use x="217.303" xlink:href="#x" y="435.188"/><use x="232.499" xlink:href="#x" y="428.906"/><use x="247.695" xlink:href="#x" y="424.218"/><use x="262.891" xlink:href="#x" y="420.035"/><use x="278.086" xlink:href="#x" y="413.331"/><use x="293.282" xlink:href="#x" y="408.799"/><use x="308.478" xlink:href="#x" y="406.55"/><use x="323.674" xlink:href="#x" y="403.018"/><use x="338.869" xlink:href="#x" y="397.949"/><use x="354.065" xlink:href="#x" y="394.408"/><use x="369.261" xlink:href="#x" y="390.972"/><use x="384.457" xlink:href="#x" y="387.527"/><use x="399.652" xlink:href="#x" y="384.776"/><use x="414.848" xlink:href="#x" y="383.082"/><use x="430.044" xlink:href="#x" y="379.082"/><use x="445.24" xlink:href="#x" y="377.484"/><use x="460.435" xlink:href="#x" y="375.484"/><use x="475.631" xlink:href="#x" y="373.348"/><use x="490.827" xlink:href="#x" y="372.314"/><use x="506.023" xlink:href="#x" y="370.605"/></g></g><g stroke="#9467bd"><path clip-path="url(#S)" d="M-1 555.797l5.563-12.506h15.196l15.195-34.965 15.196-.825 15.196-3.293 15.196-3.335 15.195-2.948 15.196-4.418 15.196-4.687 15.196-2.588 15.195-.117 15.196-10.385 15.196-5.797 15.196-6.113 15.195-5.124 15.196-4.595 15.196-10.22 15.196-11.757 15.195-6.906 15.196-7.438 15.196-6.952 15.196-3.877 15.195-3.79 15.196-3.478 15.196-3.907 15.196-3.708 15.195-3.744 15.196-3.069 15.196-1.601 15.196-2.576 15.195-2.271 15.196-2.464 15.196-3.045 15.196-2.54" fill="none" stroke-linecap="square" stroke-width="1.5"/><g clip-path="url(#S)" fill="#9467bd"><use x="-1" xlink:href="#y" y="555.797"/><use x="4.563" xlink:href="#y" y="543.291"/><use x="19.759" xlink:href="#y" y="543.291"/><use x="34.954" xlink:href="#y" y="508.326"/><use x="50.15" xlink:href="#y" y="507.501"/><use x="65.346" xlink:href="#y" y="504.208"/><use x="80.542" xlink:href="#y" y="500.873"/><use x="95.737" xlink:href="#y" y="497.925"/><use x="110.933" xlink:href="#y" y="493.507"/><use x="126.129" xlink:href="#y" y="488.82"/><use x="141.325" xlink:href="#y" y="486.232"/><use x="156.52" xlink:href="#y" y="486.115"/><use x="171.716" xlink:href="#y" y="475.73"/><use x="186.912" xlink:href="#y" y="469.933"/><use x="202.108" xlink:href="#y" y="463.82"/><use x="217.303" xlink:href="#y" y="458.696"/><use x="232.499" xlink:href="#y" y="454.101"/><use x="247.695" xlink:href="#y" y="443.881"/><use x="262.891" xlink:href="#y" y="432.124"/><use x="278.086" xlink:href="#y" y="425.218"/><use x="293.282" xlink:href="#y" y="417.78"/><use x="308.478" xlink:href="#y" y="410.828"/><use x="323.674" xlink:href="#y" y="406.951"/><use x="338.869" xlink:href="#y" y="403.161"/><use x="354.065" xlink:href="#y" y="399.683"/><use x="369.261" xlink:href="#y" y="395.776"/><use x="384.457" xlink:href="#y" y="392.068"/><use x="399.652" xlink:href="#y" y="388.324"/><use x="414.848" xlink:href="#y" y="385.255"/><use x="430.044" xlink:href="#y" y="383.654"/><use x="445.24" xlink:href="#y" y="381.078"/><use x="460.435" xlink:href="#y" y="378.807"/><use x="475.631" xlink:href="#y" y="376.343"/><use x="490.827" xlink:href="#y" y="373.298"/><use x="506.023" xlink:href="#y" y="370.758"/></g></g><path clip-path="url(#S)" d="M506.023 317.663l15.195-1.675 15.196-1.675 15.196-1.675" fill="none" stroke="#1f77b4" stroke-dasharray="1.5 2.475" stroke-width="1.5"/><path clip-path="url(#S)" d="M506.023 346.62l15.195-1.695 15.196-1.695 15.196-1.696" fill="none" stroke="#ff7f0e" stroke-dasharray="1.5 2.475" stroke-width="1.5"/><path clip-path="url(#S)" d="M506.023 369.8l15.195-1.224 15.196-1.225 15.196-1.224" fill="none" stroke="#2ca02c" stroke-dasharray="1.5 2.475" stroke-width="1.5"/><path clip-path="url(#S)" d="M506.023 370.605l15.195-1.559 15.196-1.559 15.196-1.559" fill="none" stroke="#d62728" stroke-dasharray="1.5 2.475" stroke-width="1.5"/><path clip-path="url(#S)" d="M506.023 370.758l15.195-2.703 15.196-2.704 15.196-2.704" fill="none" stroke="#9467bd" stroke-dasharray="1.5 2.475" stroke-width="1.5"/><path d="M50.15 505.928V297.12M551.61 505.928V297.12M50.15 505.928h501.46M50.15 297.12h501.46" fill="none" stroke="#000" stroke-linecap="square" stroke-linejoin="miter" stroke-width=".8"/><g><path d="M330.288 500.928H544.61q2 0 2-2v-72.39q0-2-2-2H330.288q-2 0-2 2v72.39q0 2 2 2z" fill="#fff" opacity=".8" stroke="#ccc" stroke-linejoin="miter"/><path d="M332.288 432.636h20" fill="none" stroke="#1f77b4" stroke-linecap="square" stroke-width="1.5"/><use fill="#1f77b4" stroke="#1f77b4" x="342.288" xlink:href="#v" y="432.636"/><g transform="matrix(.1 0 0 -.1 360.288 436.136)"><use xlink:href="#T"/><use x="74.805" xlink:href="#u"/><use x="136.328" xlink:href="#s"/><path d="M249.7 72.906h10.609l20.203-29.984 20.078 29.984h10.594L285.402 34.72V0h-9.906v34.719z"/><use x="310.783" xlink:href="#p"/><use x="371.965" xlink:href="#e"/><path d="M422.156 75.984h9.031V31.11L458 54.687h11.469l-29-25.578L470.703 0h-11.719l-27.796 26.703V0h-9.032z"/><use x="502.775" xlink:href="#K"/><use x="541.789" xlink:href="#r"/><use x="605.266" xlink:href="#p"/><use x="666.447" xlink:href="#L"/><use x="729.826" xlink:href="#M"/><use x="793.303" xlink:href="#q"/><use x="821.086" xlink:href="#u"/><use x="882.609" xlink:href="#G"/><use x="966.496" xlink:href="#t"/><use x="994.279" xlink:href="#N"/><use x="1089.445" xlink:href="#h"/><use x="1153.068" xlink:href="#g"/><use x="1216.691" xlink:href="#O"/><use x="1248.479" xlink:href="#n"/><use x="1343.889" xlink:href="#r"/><use x="1407.365" xlink:href="#F"/><use x="1468.645" xlink:href="#Q"/><use x="1527.824" xlink:href="#G"/><use x="1579.924" xlink:href="#R"/></g><path d="M332.288 447.314h20" fill="none" stroke="#ff7f0e" stroke-linecap="square" stroke-width="1.5"/><use fill="#ff7f0e" stroke="#ff7f0e" x="342.288" xlink:href="#w" y="447.314"/><g transform="matrix(.1 0 0 -.1 360.288 450.814)"><use xlink:href="#T"/><use x="74.805" xlink:href="#u"/><use x="136.328" xlink:href="#s"/><path d="M259.715 72.906h9.86V5.078q0-13.187-5-19.14-5-5.954-16.095-5.954h-3.75v8.297h3.079q6.53 0 9.218 3.672 2.688 3.656 2.688 13.125z"/><use x="279.395" xlink:href="#u"/><use x="340.918" xlink:href="#e"/><use x="382.031" xlink:href="#G"/><use x="434.131" xlink:href="#u"/><use x="495.654" xlink:href="#Q"/><use x="586.621" xlink:href="#K"/><use x="625.635" xlink:href="#r"/><use x="689.111" xlink:href="#p"/><use x="750.293" xlink:href="#L"/><use x="813.672" xlink:href="#M"/><use x="877.148" xlink:href="#q"/><use x="904.932" xlink:href="#u"/><use x="966.455" xlink:href="#G"/><use x="1050.342" xlink:href="#t"/><use x="1078.125" xlink:href="#N"/><use x="1173.291" xlink:href="#h"/><use x="1236.914" xlink:href="#g"/><use x="1300.537" xlink:href="#O"/><use x="1332.324" xlink:href="#m"/><use x="1427.734" xlink:href="#r"/><use x="1491.211" xlink:href="#F"/><use x="1552.49" xlink:href="#Q"/><use x="1611.67" xlink:href="#G"/><use x="1663.77" xlink:href="#R"/></g><path d="M332.288 461.992h20" fill="none" stroke="#2ca02c" stroke-linecap="square" stroke-width="1.5"/><g transform="matrix(.1 0 0 -.1 360.288 465.492)"><use xlink:href="#U"/><use x="86.279" xlink:href="#t"/><use x="114.063" xlink:href="#z"/><use x="169.043" xlink:href="#V"/><use x="232.422" xlink:href="#t"/><path d="M305.611 27.984q0 9.766-4.03 15.125-4.017 5.375-11.298 5.375-7.219 0-11.25-5.375-4.031-5.359-4.031-15.125 0-9.718 4.031-15.093t11.25-5.375q7.281 0 11.297 5.375 4.031 5.375 4.031 15.093zm8.985-21.203q0-13.953-6.203-20.765-6.188-6.813-18.985-6.813-4.734 0-8.937.703-4.203.703-8.157 2.172v8.735q3.954-2.141 7.813-3.157 3.86-1.031 7.86-1.031 8.843 0 13.234 4.61 4.39 4.609 4.39 13.937v4.453q-2.78-4.844-7.125-7.234Q294.143 0 288.08 0q-10.047 0-16.203 7.656-6.156 7.672-6.156 20.328 0 12.688 6.156 20.344Q278.033 56 288.08 56q6.063 0 10.406-2.39 4.344-2.391 7.125-7.22v8.297h8.985z"/><use x="323.682" xlink:href="#F"/><use x="384.961" xlink:href="#N"/><use x="480.127" xlink:href="#K"/><use x="519.141" xlink:href="#r"/><use x="582.617" xlink:href="#p"/><use x="643.799" xlink:href="#L"/><use x="707.178" xlink:href="#M"/><use x="770.654" xlink:href="#q"/><use x="798.438" xlink:href="#u"/><use x="859.961" xlink:href="#G"/><use x="943.848" xlink:href="#t"/><use x="971.631" xlink:href="#N"/><use x="1066.797" xlink:href="#h"/><use x="1130.42" xlink:href="#m"/><use x="1194.043" xlink:href="#O"/><use x="1225.83" xlink:href="#m"/><use x="1321.24" xlink:href="#r"/><use x="1384.717" xlink:href="#F"/><use x="1445.996" xlink:href="#Q"/><use x="1505.176" xlink:href="#G"/><use x="1557.275" xlink:href="#R"/></g><path d="M332.288 476.67h20" fill="none" stroke="#d62728" stroke-linecap="square" stroke-width="1.5"/><use fill="#d62728" stroke="#d62728" x="342.288" xlink:href="#x" y="476.67"/><g transform="matrix(.1 0 0 -.1 360.288 480.17)"><use xlink:href="#B"/><use x="69.824" xlink:href="#F"/><use x="131.104" xlink:href="#q"/><use x="158.887" xlink:href="#t"/><use x="186.67" xlink:href="#H"/><use x="221.875" xlink:href="#p"/><use x="283.057" xlink:href="#e"/><use x="324.154" xlink:href="#N"/><use x="387.533" xlink:href="#t"/><use x="415.316" xlink:href="#F"/><use x="508.383" xlink:href="#K"/><use x="547.396" xlink:href="#r"/><use x="610.873" xlink:href="#p"/><use x="672.055" xlink:href="#L"/><use x="735.434" xlink:href="#M"/><use x="798.91" xlink:href="#q"/><use x="826.693" xlink:href="#u"/><use x="888.217" xlink:href="#G"/><use x="972.104" xlink:href="#t"/><use x="999.887" xlink:href="#N"/><use x="1095.053" xlink:href="#h"/><use x="1158.676" xlink:href="#h"/><use x="1222.299" xlink:href="#O"/><use x="1254.086" xlink:href="#i"/><use x="1349.496" xlink:href="#r"/><use x="1412.973" xlink:href="#F"/><use x="1474.252" xlink:href="#Q"/><use x="1533.432" xlink:href="#G"/><use x="1585.531" xlink:href="#R"/></g><path d="M332.288 491.348h20" fill="none" stroke="#9467bd" stroke-linecap="square" stroke-width="1.5"/><use fill="#9467bd" stroke="#9467bd" x="342.288" xlink:href="#y" y="491.348"/><g transform="matrix(.1 0 0 -.1 360.288 494.848)"><use xlink:href="#U"/><use x="86.279" xlink:href="#F"/><use x="147.559" xlink:href="#G"/><use x="199.658" xlink:href="#G"/><use x="251.758" xlink:href="#F"/><use x="313.037" xlink:href="#z"/><use x="368.018" xlink:href="#V"/><use x="431.396" xlink:href="#L"/><use x="494.775" xlink:href="#G"/><use x="546.875" xlink:href="#u"/><use x="608.398" xlink:href="#A"/><use x="647.607" xlink:href="#A"/><use x="686.816" xlink:href="#G"/><use x="770.703" xlink:href="#K"/><use x="809.717" xlink:href="#r"/><use x="873.193" xlink:href="#p"/><use x="934.375" xlink:href="#L"/><use x="997.754" xlink:href="#M"/><use x="1061.23" xlink:href="#q"/><use x="1089.014" xlink:href="#u"/><use x="1150.537" xlink:href="#G"/><use x="1234.424" xlink:href="#t"/><use x="1262.207" xlink:href="#N"/><use x="1357.373" xlink:href="#k"/><use x="1420.996" xlink:href="#O"/><use x="1452.783" xlink:href="#n"/><use x="1548.193" xlink:href="#r"/><use x="1611.67" xlink:href="#F"/><use x="1672.949" xlink:href="#Q"/><use x="1732.129" xlink:href="#G"/><use x="1784.229" xlink:href="#R"/></g></g></g></svg>