<svg height="758.4" stroke-linejoin="round" viewBox="0 0 568.8 568.8" width="758.4" xmlns="http://www.w3.org/2000/svg" xmlns:xlink="http://www.w3.org/1999/xlink"><defs><path id="s" d="M3.328 72.906h9.953L28.61 11.281l15.282 61.625h11.093l15.328-61.625 15.282 61.625h10.015L77.297 0H64.89L49.516 63.281 33.984 0H21.578z" stroke-linejoin="round"/><path id="N" d="M9.813 72.906h13.28l32.329-60.984v60.984h9.562V0h-13.28L19.39 60.984V0H9.813z" stroke-linejoin="round"/><path id="a" d="M0 0v3.5" stroke="#000" stroke-linejoin="round" stroke-width=".8"/><path id="b" d="M9.813 72.906h41.89v-8.312H19.672V43.109h28.906v-8.297H19.672V0h-9.86z" stroke-linejoin="round"/><path id="c" d="M56.203 29.594v-4.39H14.891q.593-9.282 5.593-14.142 5-4.859 13.938-4.859 5.172 0 10.031 1.266 4.86 1.265 9.656 3.812v-8.5Q49.266.734 44.187-.344 39.11-1.422 33.892-1.422q-13.094 0-20.735 7.61-7.64 7.625-7.64 20.625 0 13.421 7.25 21.296Q20.016 56 32.328 56q11.031 0 17.453-7.11 6.422-7.093 6.422-19.296zm-8.984 2.64q-.094 7.36-4.125 11.75-4.032 4.407-10.672 4.407-7.516 0-12.031-4.25-4.516-4.25-5.203-11.97z" stroke-linejoin="round"/><path id="d" d="M48.688 27.297q0 9.906-4.079 15.547-4.078 5.64-11.203 5.64-7.14 0-11.218-5.64-4.079-5.64-4.079-15.547 0-9.906 4.078-15.547 4.079-5.64 11.22-5.64 7.124 0 11.202 5.64t4.078 15.547zM18.108 46.39q2.844 4.875 7.157 7.234Q29.594 56 35.594 56q9.968 0 16.187-7.906 6.235-7.907 6.235-20.797T51.78 6.484q-6.218-7.906-16.187-7.906-6 0-10.328 2.375-4.313 2.375-7.157 7.25V0H9.08v75.984h9.03z" stroke-linejoin="round"/><path id="e" d="M19.188 8.297h34.421V0H7.33v8.297q5.609 5.812 15.296 15.594 9.703 9.797 12.188 12.64 4.734 5.313 6.609 9 1.89 3.688 1.89 7.25 0 5.813-4.078 9.469-4.078 3.672-10.625 3.672-4.64 0-9.797-1.61-5.14-1.609-11-4.89v9.969Q13.767 71.78 18.938 73q5.188 1.219 9.485 1.219 11.328 0 18.062-5.672 6.735-5.656 6.735-15.125 0-4.5-1.688-8.531-1.672-4.016-6.125-9.485-1.218-1.422-7.765-8.187-6.532-6.766-18.453-18.922z" stroke-linejoin="round"/><path id="f" d="M31.781 66.406q-7.61 0-11.453-7.5Q16.5 51.422 16.5 36.375q0-14.984 3.828-22.484 3.844-7.5 11.453-7.5 7.672 0 11.5 7.5 3.844 7.5 3.844 22.484 0 15.047-3.844 22.531-3.828 7.5-11.5 7.5zm0 7.813q12.266 0 18.735-9.703 6.468-9.688 6.468-28.141 0-18.406-6.468-28.11-6.47-9.687-18.735-9.687-12.25 0-18.718 9.688-6.47 9.703-6.47 28.109 0 18.453 6.47 28.14Q19.53 74.22 31.78 74.22z" stroke-linejoin="round"/><path id="g" d="M9.813 72.906h14.703l18.593-49.61 18.703 49.61h14.704V0H66.89v64.016l-18.797-50h-9.907l-18.796 50V0H9.813z" stroke-linejoin="round"/><path id="h" d="M34.281 27.484q-10.89 0-15.093-2.484-4.204-2.484-4.204-8.5 0-4.781 3.157-7.594 3.156-2.797 8.562-2.797 7.485 0 12 5.297 4.516 5.297 4.516 14.078v2zm17.922 3.72V0H43.22v8.297Q40.14 3.328 35.547.953q-4.594-2.375-11.234-2.375-8.391 0-13.36 4.719Q6 8.016 6 15.922q0 9.219 6.172 13.906 6.187 4.688 18.437 4.688h12.61v.89q0 6.203-4.078 9.594-4.078 3.39-11.453 3.39-4.688 0-9.141-1.124-4.438-1.125-8.531-3.375v8.312q4.921 1.906 9.562 2.844 4.64.953 9.031.953 11.875 0 17.735-6.156 5.86-6.14 5.86-18.64z" stroke-linejoin="round"/><path id="i" d="M41.11 46.297q-1.516.875-3.297 1.281Q36.03 48 33.89 48q-7.625 0-11.703-4.953-4.079-4.953-4.079-14.234V0H9.08v54.688h9.03v-8.5q2.844 4.984 7.375 7.39Q30.031 56 36.531 56q.922 0 2.047-.125 1.125-.11 2.484-.36z" stroke-linejoin="round"/><path id="j" d="M0 0v2" stroke="#000" stroke-linejoin="round" stroke-width=".6"/><path id="k" d="M8.203 72.906h46.875v-4.203L28.61 0H18.312L43.22 64.594H8.203z" stroke-linejoin="round"/><path id="l" d="M40.578 39.313Q47.656 37.797 51.625 33q3.984-4.781 3.984-11.813 0-10.78-7.422-16.703-7.421-5.906-21.093-5.906-4.578 0-9.438.906-4.86.907-10.031 2.72v9.515q4.094-2.39 8.969-3.61 4.89-1.218 10.218-1.218 9.266 0 14.125 3.656 4.86 3.656 4.86 10.64 0 6.454-4.516 10.079-4.515 3.64-12.562 3.64h-8.5v8.11h8.89q7.266 0 11.125 2.906 3.86 2.906 3.86 8.375 0 5.61-3.985 8.61-3.968 3.015-11.39 3.015-4.063 0-8.703-.89-4.641-.876-10.203-2.72v8.782q5.624 1.562 10.53 2.344 4.907.78 9.25.78 11.235 0 17.766-5.109 6.547-5.093 6.547-13.78 0-6.063-3.468-10.235-3.47-4.172-9.86-5.782z" stroke-linejoin="round"/><path id="m" d="M12.406 8.297h16.11v55.625l-17.532-3.516v8.985l17.438 3.515h9.86V8.296H54.39V0H12.406z" stroke-linejoin="round"/><path id="n" d="M37.797 64.313L12.89 25.39h24.906zm-2.594 8.593H47.61V25.391h10.407v-8.203H47.609V0h-9.812v17.188H4.89v9.515z" stroke-linejoin="round"/><path id="o" d="M10.984 1.516V10.5q3.72-1.766 7.516-2.688 3.813-.921 7.484-.921 9.766 0 14.907 6.562 5.156 6.563 5.89 19.953-2.828-4.203-7.187-6.453-4.344-2.25-9.61-2.25-10.937 0-17.312 6.61-6.375 6.625-6.375 18.109 0 11.219 6.64 18 6.641 6.797 17.672 6.797 12.657 0 19.313-9.703 6.672-9.688 6.672-28.141 0-17.234-8.188-27.516Q40.234-1.42 26.422-1.42q-3.719 0-7.531.734-3.797.734-7.907 2.203zM30.61 32.422q6.641 0 10.516 4.531 3.89 4.547 3.89 12.469 0 7.86-3.89 12.422-3.875 4.562-10.516 4.562-6.64 0-10.515-4.562-3.875-4.563-3.875-12.422 0-7.922 3.875-12.469 3.875-4.531 10.515-4.531z" stroke-linejoin="round"/><path id="p" d="M33.016 40.375q-6.641 0-10.532-4.547-3.875-4.531-3.875-12.437 0-7.86 3.875-12.438 3.891-4.562 10.532-4.562 6.64 0 10.515 4.562 3.875 4.578 3.875 12.438 0 7.906-3.875 12.437-3.875 4.547-10.515 4.547zm19.578 30.922v-8.984q-3.719 1.75-7.5 2.671-3.782.938-7.5.938-9.766 0-14.922-6.594-5.14-6.594-5.875-19.922 2.875 4.25 7.219 6.516 4.359 2.266 9.578 2.266 10.984 0 17.36-6.672 6.374-6.657 6.374-18.125 0-11.235-6.64-18.032-6.641-6.78-17.672-6.78-12.657 0-19.344 9.687-6.688 9.703-6.688 28.109 0 17.281 8.204 27.563 8.203 10.28 22.015 10.28 3.719 0 7.5-.734t7.89-2.187z" stroke-linejoin="round"/><path id="q" d="M0 0h-3.5" stroke="#000" stroke-linejoin="round" stroke-width=".8"/><path id="r" d="M0 0h-2" stroke="#000" stroke-linejoin="round" stroke-width=".6"/><path id="L" d="M8.688 72.906h9.921V28.61q0-11.718 4.235-16.875 4.25-5.14 13.781-5.14 9.469 0 13.719 5.14 4.25 5.157 4.25 16.875v44.297H64.5V27.391q0-14.25-7.063-21.532-7.046-7.28-20.812-7.28-13.828 0-20.89 7.28-7.047 7.282-7.047 21.532z" stroke-linejoin="round"/><path id="t" d="M30.61 48.39q-7.22 0-11.422-5.64-4.204-5.64-4.204-15.453 0-9.813 4.172-15.453 4.188-5.64 11.453-5.64 7.188 0 11.375 5.655 4.203 5.672 4.203 15.438 0 9.719-4.203 15.406-4.187 5.688-11.375 5.688zm0 7.61q11.718 0 18.406-7.625 6.703-7.61 6.703-21.078 0-13.422-6.703-21.078-6.688-7.64-18.407-7.64-11.765 0-18.437 7.64-6.656 7.656-6.656 21.078 0 13.469 6.656 21.078Q18.844 56 30.609 56z" stroke-linejoin="round"/><path id="u" d="M9.422 75.984h8.984V0H9.422z" stroke-linejoin="round"/><path id="v" d="M45.406 46.39v29.594h8.985V0h-8.985v8.203Q42.578 3.328 38.25.953q-4.313-2.375-10.375-2.375-9.906 0-16.14 7.906-6.22 7.922-6.22 20.813 0 12.89 6.22 20.797Q17.968 56 27.874 56q6.063 0 10.375-2.375 4.328-2.36 7.156-7.234zm-30.61-19.093q0-9.906 4.079-15.547 4.078-5.64 11.203-5.64 7.125 0 11.219 5.64 4.11 5.64 4.11 15.547 0 9.906-4.11 15.547-4.094 5.64-11.219 5.64-7.125 0-11.203-5.64-4.078-5.64-4.078-15.547z" stroke-linejoin="round"/><path id="w" d="M4.203 54.688h8.985l11.234-42.672 11.172 42.672h10.593l11.235-42.672 11.187 42.672h8.985L63.28 0H52.688L40.922 44.828 29.109 0H18.5z" stroke-linejoin="round"/><path id="x" d="M9.422 54.688h8.984V0H9.422zm0 21.296h8.984v-11.39H9.422z" stroke-linejoin="round"/><path id="z" d="M48.781 52.594v-8.407q-3.812 2.11-7.64 3.157-3.828 1.047-7.735 1.047-8.75 0-13.593-5.547-4.829-5.532-4.829-15.547 0-10.016 4.829-15.563 4.843-5.53 13.593-5.53 3.907 0 7.735 1.046 3.828 1.047 7.64 3.156V2.094Q45.016.344 40.984-.531q-4.015-.89-8.562-.89-12.36 0-19.64 7.765-7.266 7.765-7.266 20.953 0 13.375 7.343 21.031Q20.22 56 33.016 56q4.14 0 8.093-.86 3.953-.843 7.672-2.546z" stroke-linejoin="round"/><path id="A" d="M18.313 70.219V54.688h18.5v-6.985h-18.5V18.016q0-6.688 1.828-8.594 1.828-1.906 7.453-1.906h9.218V0h-9.218q-10.407 0-14.36 3.875-3.953 3.89-3.953 14.14v29.688H2.687v6.984h6.594V70.22z" stroke-linejoin="round"/><path id="B" d="M64.406 67.281v-10.39q-4.984 4.64-10.625 6.922-5.64 2.296-11.984 2.296-12.5 0-19.14-7.64-6.641-7.64-6.641-22.094 0-14.406 6.64-22.047 6.64-7.64 19.14-7.64 6.345 0 11.985 2.296 5.64 2.297 10.625 6.938V5.609Q59.234 2.094 53.437.33q-5.78-1.75-12.218-1.75-16.563 0-26.094 10.124-9.516 10.14-9.516 27.672 0 17.578 9.516 27.703 9.531 10.14 26.094 10.14 6.531 0 12.312-1.734 5.797-1.734 10.875-5.203z" stroke-linejoin="round"/><path id="C" d="M9.813 72.906h9.859V0h-9.86z" stroke-linejoin="round"/><path id="D" d="M19.672 64.797V8.109h11.922q15.093 0 22.093 6.829 7 6.843 7 21.593 0 14.64-7 21.453-7 6.813-22.093 6.813zm-9.86 8.11h20.266q21.188 0 31.094-8.813 9.922-8.813 9.922-27.563 0-18.86-9.969-27.703Q51.172 0 30.078 0H9.813z" stroke-linejoin="round"/><path id="E" d="M4.89 31.39h26.313v-8H4.891z" stroke-linejoin="round"/><path id="F" d="M44.281 53.078v-8.5q-3.797 1.953-7.906 2.922-4.094.984-8.5.984-6.688 0-10.031-2.047-3.344-2.046-3.344-6.156 0-3.125 2.39-4.906 2.391-1.781 9.626-3.39l3.078-.688q9.562-2.047 13.593-5.781 4.032-3.735 4.032-10.422 0-7.625-6.032-12.078-6.03-4.438-16.578-4.438-4.39 0-9.156.86Q10.688.296 5.422 2v9.281q4.984-2.594 9.812-3.89 4.829-1.282 9.579-1.282 6.343 0 9.75 2.172 3.421 2.172 3.421 6.125 0 3.656-2.468 5.61-2.453 1.953-10.813 3.765l-3.125.735q-8.344 1.75-12.062 5.39-3.704 3.64-3.704 9.985 0 7.718 5.47 11.906Q16.75 56 26.811 56q4.97 0 9.36-.734 4.406-.72 8.11-2.188z" stroke-linejoin="round"/><path id="G" d="M37.11 75.984V68.5h-8.594q-4.828 0-6.72-1.953-1.874-1.953-1.874-7.031v-4.828h14.797v-6.985H19.922V0H10.89v47.703H2.297v6.984h8.594V58.5q0 9.125 4.25 13.297 4.25 4.187 13.468 4.187z" stroke-linejoin="round"/><path id="H" d="M54.89 33.016V0h-8.984v32.719q0 7.765-3.031 11.61-3.031 3.858-9.078 3.858-7.281 0-11.484-4.64-4.204-4.625-4.204-12.64V0H9.08v75.984h9.03V46.188q3.235 4.937 7.594 7.374Q30.078 56 35.797 56q9.422 0 14.25-5.828 4.844-5.828 4.844-17.156z" stroke-linejoin="round"/><path id="I" d="M54.89 33.016V0h-8.984v32.719q0 7.765-3.031 11.61-3.031 3.858-9.078 3.858-7.281 0-11.484-4.64-4.204-4.625-4.204-12.64V0H9.08v54.688h9.03v-8.5q3.235 4.937 7.594 7.374Q30.078 56 35.797 56q9.422 0 14.25-5.828 4.844-5.828 4.844-17.156z" stroke-linejoin="round"/><path id="J" d="M53.516 70.516V60.89q-5.61 2.687-10.594 4-4.984 1.328-9.625 1.328-8.047 0-12.422-3.125t-4.375-8.89q0-4.845 2.906-7.313 2.907-2.453 11.016-3.97l5.953-1.218q11.031-2.11 16.281-7.406 5.25-5.297 5.25-14.172 0-10.61-7.11-16.078-7.093-5.469-20.812-5.469-5.172 0-11.015 1.172Q13.14.922 6.89 3.219v10.156q6-3.36 11.765-5.078 5.766-1.703 11.328-1.703 8.438 0 13.032 3.312 4.593 3.328 4.593 9.485 0 5.359-3.297 8.39-3.296 3.032-10.812 4.547L27.484 33.5q-11.03 2.188-15.968 6.875-4.922 4.688-4.922 13.047 0 9.672 6.812 15.234 6.813 5.563 18.766 5.563 5.14 0 10.453-.938 5.328-.922 10.89-2.765z" stroke-linejoin="round"/><path id="K" d="M32.172-5.078q-3.797-9.766-7.422-12.735-3.61-2.984-9.656-2.984H7.906v7.516h5.282q3.703 0 5.75 1.765Q21-9.766 23.483-3.219l1.61 4.094-22.11 53.813H12.5l17.094-42.766 17.093 42.766h9.516z" stroke-linejoin="round"/><clipPath id="M" stroke-linejoin="round"><path d="M63.83 291.34h491.65v200.508H63.83z"/></clipPath><clipPath id="y" stroke-linejoin="round"><path d="M63.83 25.44h491.65v200.508H63.83z"/></clipPath></defs><path d="M0 568.8h568.8V0H0z" fill="#fff"/><path d="M63.83 225.948h491.65V25.44H63.83z" fill="#fff"/><use stroke="#000" stroke-width=".8" x="163.239" xlink:href="#a" y="225.948"/><g transform="matrix(.1 0 0 -.1 154.116 262.942)"><use xlink:href="#b"/><use x="57.441" xlink:href="#c"/><use x="118.965" xlink:href="#d"/></g><g transform="matrix(.1 0 0 -.1 150.514 274.14)"><use xlink:href="#e"/><use x="63.623" xlink:href="#f"/><use x="127.246" xlink:href="#e"/><use x="190.869" xlink:href="#f"/></g><use stroke="#000" stroke-width=".8" x="386.716" xlink:href="#a" y="225.948"/><g transform="matrix(.1 0 0 -.1 377.283 262.942)"><use xlink:href="#g"/><use x="86.279" xlink:href="#h"/><use x="147.559" xlink:href="#i"/></g><use stroke="#000" stroke-width=".8" x="548.544" xlink:href="#a" y="225.948"/><use stroke="#000" stroke-width=".6" x="70.766" xlink:href="#j" y="225.948"/><g transform="matrix(.1 0 0 -.1 64.403 238.946)"><use xlink:href="#e"/><use x="63.623" xlink:href="#f"/></g><g stroke="#000" stroke-width=".6"><use x="78.472" xlink:href="#j" y="225.948"/><use x="86.178" xlink:href="#j" y="225.948"/><use x="93.884" xlink:href="#j" y="225.948"/><use x="101.59" xlink:href="#j" y="225.948"/><use x="109.296" xlink:href="#j" y="225.948"/><use x="117.002" xlink:href="#j" y="225.948"/></g><use stroke="#000" stroke-width=".6" x="124.708" xlink:href="#j" y="225.948"/><g transform="matrix(.1 0 0 -.1 118.346 238.946)"><use xlink:href="#e"/><use x="63.623" xlink:href="#k"/></g><use stroke="#000" stroke-width=".6" x="132.414" xlink:href="#j" y="225.948"/><use stroke="#000" stroke-width=".6" x="140.121" xlink:href="#j" y="225.948"/><use stroke="#000" stroke-width=".6" x="147.827" xlink:href="#j" y="225.948"/><use stroke="#000" stroke-width=".6" x="155.533" xlink:href="#j" y="225.948"/><use stroke="#000" stroke-width=".6" x="163.239" xlink:href="#j" y="225.948"/><use stroke="#000" stroke-width=".6" x="170.945" xlink:href="#j" y="225.948"/><use stroke="#000" stroke-width=".6" x="178.651" xlink:href="#j" y="225.948"/><g transform="matrix(.1 0 0 -.1 172.289 238.946)"><use xlink:href="#f"/><use x="63.623" xlink:href="#l"/></g><use stroke="#000" stroke-width=".6" x="186.357" xlink:href="#j" y="225.948"/><use stroke="#000" stroke-width=".6" x="194.063" xlink:href="#j" y="225.948"/><use stroke="#000" stroke-width=".6" x="201.769" xlink:href="#j" y="225.948"/><use stroke="#000" stroke-width=".6" x="209.476" xlink:href="#j" y="225.948"/><use stroke="#000" stroke-width=".6" x="217.182" xlink:href="#j" y="225.948"/><use stroke="#000" stroke-width=".6" x="224.888" xlink:href="#j" y="225.948"/><use stroke="#000" stroke-width=".6" x="232.594" xlink:href="#j" y="225.948"/><g transform="matrix(.1 0 0 -.1 226.231 238.946)"><use xlink:href="#m"/><use x="63.623" xlink:href="#f"/></g><use stroke="#000" stroke-width=".6" x="240.3" xlink:href="#j" y="225.948"/><use stroke="#000" stroke-width=".6" x="248.006" xlink:href="#j" y="225.948"/><use stroke="#000" stroke-width=".6" x="255.712" xlink:href="#j" y="225.948"/><use stroke="#000" stroke-width=".6" x="263.418" xlink:href="#j" y="225.948"/><use stroke="#000" stroke-width=".6" x="271.124" xlink:href="#j" y="225.948"/><use stroke="#000" stroke-width=".6" x="278.831" xlink:href="#j" y="225.948"/><use stroke="#000" stroke-width=".6" x="286.537" xlink:href="#j" y="225.948"/><g transform="matrix(.1 0 0 -.1 280.174 238.946)"><use xlink:href="#m"/><use x="63.623" xlink:href="#k"/></g><use stroke="#000" stroke-width=".6" x="294.243" xlink:href="#j" y="225.948"/><use stroke="#000" stroke-width=".6" x="301.949" xlink:href="#j" y="225.948"/><use stroke="#000" stroke-width=".6" x="309.655" xlink:href="#j" y="225.948"/><use stroke="#000" stroke-width=".6" x="317.361" xlink:href="#j" y="225.948"/><use stroke="#000" stroke-width=".6" x="325.067" xlink:href="#j" y="225.948"/><use stroke="#000" stroke-width=".6" x="332.773" xlink:href="#j" y="225.948"/><use stroke="#000" stroke-width=".6" x="340.479" xlink:href="#j" y="225.948"/><g transform="matrix(.1 0 0 -.1 334.117 238.946)"><use xlink:href="#e"/><use x="63.623" xlink:href="#n"/></g><use stroke="#000" stroke-width=".6" x="348.186" xlink:href="#j" y="225.948"/><use stroke="#000" stroke-width=".6" x="355.892" xlink:href="#j" y="225.948"/><use stroke="#000" stroke-width=".6" x="363.598" xlink:href="#j" y="225.948"/><use stroke="#000" stroke-width=".6" x="371.304" xlink:href="#j" y="225.948"/><use stroke="#000" stroke-width=".6" x="379.01" xlink:href="#j" y="225.948"/><use stroke="#000" stroke-width=".6" x="386.716" xlink:href="#j" y="225.948"/><use stroke="#000" stroke-width=".6" x="394.422" xlink:href="#j" y="225.948"/><g transform="matrix(.1 0 0 -.1 388.06 238.946)"><use xlink:href="#f"/><use x="63.623" xlink:href="#e"/></g><use stroke="#000" stroke-width=".6" x="402.128" xlink:href="#j" y="225.948"/><use stroke="#000" stroke-width=".6" x="409.834" xlink:href="#j" y="225.948"/><use stroke="#000" stroke-width=".6" x="417.541" xlink:href="#j" y="225.948"/><use stroke="#000" stroke-width=".6" x="425.247" xlink:href="#j" y="225.948"/><use stroke="#000" stroke-width=".6" x="432.953" xlink:href="#j" y="225.948"/><use stroke="#000" stroke-width=".6" x="440.659" xlink:href="#j" y="225.948"/><use stroke="#000" stroke-width=".6" x="448.365" xlink:href="#j" y="225.948"/><g transform="matrix(.1 0 0 -.1 442.003 238.946)"><use xlink:href="#f"/><use x="63.623" xlink:href="#o"/></g><use stroke="#000" stroke-width=".6" x="456.071" xlink:href="#j" y="225.948"/><use stroke="#000" stroke-width=".6" x="463.777" xlink:href="#j" y="225.948"/><use stroke="#000" stroke-width=".6" x="471.483" xlink:href="#j" y="225.948"/><use stroke="#000" stroke-width=".6" x="479.189" xlink:href="#j" y="225.948"/><use stroke="#000" stroke-width=".6" x="486.896" xlink:href="#j" y="225.948"/><use stroke="#000" stroke-width=".6" x="494.602" xlink:href="#j" y="225.948"/><g><use stroke="#000" stroke-width=".6" x="502.308" xlink:href="#j" y="225.948"/><g transform="matrix(.1 0 0 -.1 495.945 238.946)"><use xlink:href="#m"/><use x="63.623" xlink:href="#p"/></g></g><use stroke="#000" stroke-width=".6" x="510.014" xlink:href="#j" y="225.948"/><use stroke="#000" stroke-width=".6" x="517.72" xlink:href="#j" y="225.948"/><use stroke="#000" stroke-width=".6" x="525.426" xlink:href="#j" y="225.948"/><use stroke="#000" stroke-width=".6" x="533.132" xlink:href="#j" y="225.948"/><use stroke="#000" stroke-width=".6" x="540.838" xlink:href="#j" y="225.948"/><use stroke="#000" stroke-width=".6" x="548.544" xlink:href="#j" y="225.948"/><g><use stroke="#000" stroke-width=".8" x="63.83" xlink:href="#q" y="216.834"/><g transform="matrix(.1 0 0 -.1 39.23 220.633)"><use transform="translate(0 .766)" xlink:href="#m"/><use transform="translate(63.623 .766)" xlink:href="#f"/><use transform="matrix(.7 0 0 .7 128.203 39.047)" xlink:href="#f"/></g><use stroke="#000" stroke-width=".8" x="63.83" xlink:href="#q" y="178.57"/><g transform="matrix(.1 0 0 -.1 39.23 182.37)"><use transform="translate(0 .684)" xlink:href="#m"/><use transform="translate(63.623 .684)" xlink:href="#f"/><use transform="matrix(.7 0 0 .7 128.203 38.966)" xlink:href="#m"/></g><use stroke="#000" stroke-width=".8" x="63.83" xlink:href="#q" y="140.306"/><g transform="matrix(.1 0 0 -.1 39.23 144.106)"><use transform="translate(0 .766)" xlink:href="#m"/><use transform="translate(63.623 .766)" xlink:href="#f"/><use transform="matrix(.7 0 0 .7 128.203 39.047)" xlink:href="#e"/></g><use stroke="#000" stroke-width=".8" x="63.83" xlink:href="#q" y="102.043"/><g transform="matrix(.1 0 0 -.1 39.23 105.842)"><use transform="translate(0 .766)" xlink:href="#m"/><use transform="translate(63.623 .766)" xlink:href="#f"/><use transform="matrix(.7 0 0 .7 128.203 39.047)" xlink:href="#l"/></g><g><use stroke="#000" stroke-width=".8" x="63.83" xlink:href="#q" y="63.779"/><g transform="matrix(.1 0 0 -.1 39.23 67.578)"><use transform="translate(0 .684)" xlink:href="#m"/><use transform="translate(63.623 .684)" xlink:href="#f"/><use transform="matrix(.7 0 0 .7 128.203 38.966)" xlink:href="#n"/></g></g><g><use stroke="#000" stroke-width=".8" x="63.83" xlink:href="#q" y="25.515"/><g transform="matrix(.1 0 0 -.1 39.23 29.314)"><use transform="translate(0 .684)" xlink:href="#m"/><use transform="translate(63.623 .684)" xlink:href="#f"/><path d="M135.76 90h27.104v-5.819h-20.781V71.68q1.498.514 2.997.765 1.51.252 3.018.252 8.543 0 13.53-4.681 4.999-4.682 4.999-12.677 0-8.236-5.13-12.808-5.13-4.56-14.46-4.56-3.215 0-6.551.546-3.325.547-6.88 1.64v6.946q3.074-1.673 6.355-2.494 3.281-.82 6.934-.82 5.918 0 9.363 3.106 3.456 3.107 3.456 8.444 0 5.327-3.456 8.433-3.445 3.117-9.363 3.117-2.767 0-5.523-.612-2.745-.613-5.611-1.915z"/></g></g><g stroke="#000" stroke-width=".6"><use x="63.83" xlink:href="#r" y="225.323"/><use x="63.83" xlink:href="#r" y="222.761"/><use x="63.83" xlink:href="#r" y="220.542"/><use x="63.83" xlink:href="#r" y="218.585"/><use x="63.83" xlink:href="#r" y="205.315"/><use x="63.83" xlink:href="#r" y="198.578"/><use x="63.83" xlink:href="#r" y="193.797"/><use x="63.83" xlink:href="#r" y="190.089"/><use x="63.83" xlink:href="#r" y="187.059"/><use x="63.83" xlink:href="#r" y="184.497"/><use x="63.83" xlink:href="#r" y="182.278"/><use x="63.83" xlink:href="#r" y="180.321"/><use x="63.83" xlink:href="#r" y="167.052"/><use x="63.83" xlink:href="#r" y="160.314"/><use x="63.83" xlink:href="#r" y="155.533"/><use x="63.83" xlink:href="#r" y="151.825"/><use x="63.83" xlink:href="#r" y="148.795"/><use x="63.83" xlink:href="#r" y="146.234"/><use x="63.83" xlink:href="#r" y="144.015"/><use x="63.83" xlink:href="#r" y="142.057"/><use x="63.83" xlink:href="#r" y="128.788"/><use x="63.83" xlink:href="#r" y="122.05"/><use x="63.83" xlink:href="#r" y="117.269"/><use x="63.83" xlink:href="#r" y="113.561"/><use x="63.83" xlink:href="#r" y="110.531"/><use x="63.83" xlink:href="#r" y="107.97"/><use x="63.83" xlink:href="#r" y="105.751"/><use x="63.83" xlink:href="#r" y="103.793"/><use x="63.83" xlink:href="#r" y="90.524"/><use x="63.83" xlink:href="#r" y="83.786"/><use x="63.83" xlink:href="#r" y="79.006"/><use x="63.83" xlink:href="#r" y="75.297"/><use x="63.83" xlink:href="#r" y="72.268"/><use x="63.83" xlink:href="#r" y="69.706"/><use x="63.83" xlink:href="#r" y="67.487"/><use x="63.83" xlink:href="#r" y="65.53"/><use x="63.83" xlink:href="#r" y="52.26"/><use x="63.83" xlink:href="#r" y="45.522"/><use x="63.83" xlink:href="#r" y="40.742"/><use x="63.83" xlink:href="#r" y="37.034"/><use x="63.83" xlink:href="#r" y="34.004"/><use x="63.83" xlink:href="#r" y="31.442"/><use x="63.83" xlink:href="#r" y="29.223"/><use x="63.83" xlink:href="#r" y="27.266"/></g><g transform="matrix(0 -.1 -.1 0 33.15 152.04)"><use xlink:href="#s"/><use x="98.799" xlink:href="#t"/><use x="159.98" xlink:href="#i"/><use x="201.094" xlink:href="#u"/><use x="228.877" xlink:href="#v"/><use x="292.354" xlink:href="#w"/><use x="374.141" xlink:href="#x"/><use x="401.924" xlink:href="#v"/><use x="465.4" xlink:href="#c"/></g></g><g fill="none"><path clip-path="url(#y)" d="M86.178 113.495l7.706-2.712 7.706-6.118 7.706-7.21 7.706-6.57 7.706-5.489 7.706-10.947 7.707-1.667 7.706-4.913 7.706-2.984 7.706-3.191 7.706-5.499 7.706-2.777 7.706-3.002 7.706-2.343 7.706-1.666 7.707-1.621 7.706-1.037 7.706-1.102 7.706-.779 7.706-.526 7.706.033 7.706-5.073 7.706-1.387 7.706-.172 7.707-.157 7.706-.032 7.706.03 7.706.424 7.706.514 7.706.066 7.706.86 7.706.15 7.706.58 7.707.762 7.706.735 7.706.92 7.706 1.253 7.706 1.128 7.706 1.062 7.706 1.255 7.706 1.34 7.706 1.435 7.707 1.372 7.706 1.04 7.706 1.118 7.706 1.43 7.706 1.19 7.706 1.247 7.706 1.383 7.706 1.35 7.706 1.509 7.707 1.871 7.706 1.948 7.706 1.41 7.706 1.538" stroke="#1f77b4" stroke-linecap="square" stroke-width="1.5"/><path clip-path="url(#y)" d="M510.014 65.557l7.706 1.649 7.706 1.649 7.706 1.649" stroke="#1f77b4" stroke-dasharray="1.5 2.475" stroke-width="1.5"/><path clip-path="url(#y)" d="M86.178 216.834h7.706l7.706-11.519h7.706l7.706-6.737 7.706-4.781h23.119l7.706-16.81 7.706-1.447 7.706-3.708h7.706l7.706-1.072 7.706-2.856 7.706-3.175h15.413l7.706.739 7.706-1.446 7.706-.678 7.706 2.897h15.412l7.706 1.663 7.707-.852h7.706l7.706.852h7.706l7.706-25.283 7.706-12.627 7.706-13.336 7.706-5.506 7.706-5.546 7.707-2.623 7.706-4.34 7.706-5.719 7.706-4.737 7.706-4.983 7.706-2.853 7.706-2.458 7.706-3.016 7.706-1.299 7.707-1.344 7.706-1.08 7.706-1.117 7.706-.674 7.706-.37 15.412-.226 7.706-.14 7.706.149 7.707-.225 7.706-.161 7.706 1.26 7.706.46" stroke="#ff7f0e" stroke-linecap="square" stroke-width="1.5"/><path clip-path="url(#y)" d="M510.014 69.59l7.706.204 7.706.203 7.706.203" stroke="#ff7f0e" stroke-dasharray="1.5 2.475" stroke-width="1.5"/><path clip-path="url(#y)" d="M155.533 205.315H201.769l7.707-6.737H309.655l7.706-30.674 7.706-18.83 7.706-15.506 7.706-6.44 7.707-5.676 7.706-5.69 7.706-5.036 7.706-5.406 7.706-4.136 7.706-6.711 7.706-2.518 7.706-3.484 7.706-2.97 7.707-3.279 7.706-2.864 7.706-4.262 7.706-3.867 7.706-3.71 7.706-1.605 7.706-3.088h7.706l7.706-5.735 7.707-2.847 7.706-2.477 7.706-1.882 7.706-2.024" stroke="#2ca02c" stroke-linecap="square" stroke-width="1.5"/><path clip-path="url(#y)" d="M510.014 47.06l7.706-2.718 7.706-2.718 7.706-2.718" stroke="#2ca02c" stroke-dasharray="1.5 2.475" stroke-width="1.5"/><path clip-path="url(#y)" d="M86.178 216.834h7.706l7.706-11.519h7.706l7.706-15.226h30.825l7.706-3.03 7.706-4.78h7.706l7.706-5.293h7.706l7.706-1.446h23.119l7.706 4.781h7.706l7.706-1.75h7.706l7.706-3.03H309.655l7.706-15.227h15.412l7.706-7.81 7.707.35 7.706-1.997 7.706-.311 7.706-.305 7.706-1.99 7.706-1.536 7.706-4.284 7.706-3.249 7.706-3.74 7.707-6.737 7.706-4.02 7.706-7.08 7.706-4.308 7.706-2.058 7.706-7.865 7.706-4.866 7.706-4.39 7.706-4.562 7.707-3.771 7.706-4.196 7.706-4.651 7.706-5.47" stroke="#d62728" stroke-linecap="square" stroke-width="1.5"/><path clip-path="url(#y)" d="M510.014 72.196l7.706-4.409 7.706-4.409 7.706-4.408" stroke="#d62728" stroke-dasharray="1.5 2.475" stroke-width="1.5"/><path d="M63.83 225.948V25.44M555.48 225.948V25.44M63.83 225.948h491.65M63.83 25.44h491.65" stroke="#000" stroke-linecap="square" stroke-linejoin="miter" stroke-width=".8"/></g><g transform="matrix(.12 0 0 -.12 187.876 19.44)"><path d="M34.188 63.188L20.797 26.906h26.812zm-5.579 9.718h11.188L67.578 0h-10.25l-6.64 18.703h-32.86L11.188 0H.78z"/><use x="68.393" xlink:href="#z"/><use x="123.373" xlink:href="#A"/><use x="162.582" xlink:href="#x"/><path d="M193.35 54.688h9.515L219.96 8.797l17.094 45.89h9.515L226.053 0H213.85z"/><use x="249.545" xlink:href="#c"/><use x="342.855" xlink:href="#B"/><path d="M452.086 66.219q-10.75 0-17.078-8.016-6.313-8-6.313-21.828 0-13.766 6.313-21.781 6.328-8 17.078-8 10.734 0 17.016 8 6.28 8.015 6.28 21.781 0 13.828-6.28 21.828-6.282 8.016-17.016 8.016zm0 8q15.328 0 24.5-10.281 9.187-10.282 9.187-27.563 0-17.234-9.187-27.516-9.172-10.28-24.5-10.28-15.375 0-24.594 10.25-9.203 10.265-9.203 27.546t9.203 27.563q9.219 10.28 24.594 10.28zM519.984 0l-27.828 72.906h10.297l23.11-61.375 23.14 61.375h10.25L531.172 0z"/><use x="559.783" xlink:href="#C"/><use x="589.275" xlink:href="#D"/><use x="666.277" xlink:href="#E"/><use x="702.361" xlink:href="#m"/><use x="765.984" xlink:href="#o"/><use x="861.395" xlink:href="#z"/><use x="916.375" xlink:href="#h"/><use x="977.654" xlink:href="#F"/><use x="1029.754" xlink:href="#c"/><use x="1091.277" xlink:href="#F"/><use x="1175.164" xlink:href="#h"/><use x="1236.443" xlink:href="#F"/><use x="1320.33" xlink:href="#t"/><use x="1381.512" xlink:href="#G"/><use x="1448.504" xlink:href="#e"/><use x="1512.127" xlink:href="#f"/><use x="1575.75" xlink:href="#e"/><use x="1639.373" xlink:href="#f"/><use x="1702.996" xlink:href="#E"/><use x="1739.08" xlink:href="#f"/><use x="1802.703" xlink:href="#l"/><use x="1866.326" xlink:href="#E"/><use x="1902.41" xlink:href="#m"/><use x="1966.033" xlink:href="#k"/></g><g><path d="M455.182 220.948h93.298q2 0 2-2v-57.712q0-2-2-2h-93.298q-2 0-2 2v57.712q0 2 2 2z" fill="#fff" opacity=".8" stroke="#ccc" stroke-linejoin="miter"/><path d="M457.182 167.334h20" fill="none" stroke="#1f77b4" stroke-linecap="square" stroke-width="1.5"/><g transform="matrix(.1 0 0 -.1 485.182 170.834)"><use xlink:href="#B"/><use x="69.824" xlink:href="#H"/><use x="133.203" xlink:href="#x"/><use x="160.986" xlink:href="#I"/><use x="224.365" xlink:href="#h"/></g><path d="M457.182 182.012h20" fill="none" stroke="#ff7f0e" stroke-linecap="square" stroke-width="1.5"/><g transform="matrix(.1 0 0 -.1 485.182 185.512)"><use xlink:href="#J"/><use x="63.477" xlink:href="#t"/><path d="M133.158 21.578v33.11h8.985V21.922q0-7.766 3.015-11.656 3.031-3.875 9.094-3.875 7.266 0 11.484 4.64 4.235 4.64 4.235 12.656v31h8.984V0h-8.984v8.406Q166.705 3.422 162.377 1q-4.313-2.422-10.031-2.422-9.422 0-14.313 5.86-4.875 5.859-4.875 17.14z"/><use x="188.037" xlink:href="#A"/><use x="227.246" xlink:href="#H"/><path d="M332.225 72.906h9.859V42.094l32.719 30.812h12.703l-36.188-33.984L390.084 0H377.1l-35.016 35.11V0h-9.86z"/><use x="387.91" xlink:href="#t"/><use x="449.092" xlink:href="#i"/><use x="490.174" xlink:href="#c"/><use x="551.697" xlink:href="#h"/></g><path d="M457.182 196.69h20" fill="none" stroke="#2ca02c" stroke-linecap="square" stroke-width="1.5"/><g transform="matrix(.1 0 0 -.1 485.182 200.19)"><use xlink:href="#C"/><use x="29.492" xlink:href="#A"/><use x="68.701" xlink:href="#h"/><use x="129.98" xlink:href="#u"/><use x="157.764" xlink:href="#K"/></g><path d="M457.182 211.368h20" fill="none" stroke="#d62728" stroke-linecap="square" stroke-width="1.5"/><g transform="matrix(.1 0 0 -.1 485.182 214.868)"><use xlink:href="#L"/><use x="73.193" xlink:href="#J"/></g></g><g><path d="M63.83 491.848h491.65V291.34H63.83z" fill="#fff"/><use stroke="#000" stroke-width=".8" x="163.239" xlink:href="#a" y="491.848"/><g transform="matrix(.1 0 0 -.1 154.116 528.842)"><use xlink:href="#b"/><use x="57.441" xlink:href="#c"/><use x="118.965" xlink:href="#d"/></g><g transform="matrix(.1 0 0 -.1 150.514 540.04)"><use xlink:href="#e"/><use x="63.623" xlink:href="#f"/><use x="127.246" xlink:href="#e"/><use x="190.869" xlink:href="#f"/></g><use stroke="#000" stroke-width=".8" x="386.716" xlink:href="#a" y="491.848"/><g transform="matrix(.1 0 0 -.1 377.283 528.842)"><use xlink:href="#g"/><use x="86.279" xlink:href="#h"/><use x="147.559" xlink:href="#i"/></g><use stroke="#000" stroke-width=".8" x="548.544" xlink:href="#a" y="491.848"/><use stroke="#000" stroke-width=".6" x="70.766" xlink:href="#j" y="491.848"/><g transform="matrix(.1 0 0 -.1 64.403 504.846)"><use xlink:href="#e"/><use x="63.623" xlink:href="#f"/></g><g stroke="#000" stroke-width=".6"><use x="78.472" xlink:href="#j" y="491.848"/><use x="86.178" xlink:href="#j" y="491.848"/><use x="93.884" xlink:href="#j" y="491.848"/><use x="101.59" xlink:href="#j" y="491.848"/><use x="109.296" xlink:href="#j" y="491.848"/><use x="117.002" xlink:href="#j" y="491.848"/></g><use stroke="#000" stroke-width=".6" x="124.708" xlink:href="#j" y="491.848"/><g transform="matrix(.1 0 0 -.1 118.346 504.846)"><use xlink:href="#e"/><use x="63.623" xlink:href="#k"/></g><use stroke="#000" stroke-width=".6" x="132.414" xlink:href="#j" y="491.848"/><use stroke="#000" stroke-width=".6" x="140.121" xlink:href="#j" y="491.848"/><use stroke="#000" stroke-width=".6" x="147.827" xlink:href="#j" y="491.848"/><use stroke="#000" stroke-width=".6" x="155.533" xlink:href="#j" y="491.848"/><use stroke="#000" stroke-width=".6" x="163.239" xlink:href="#j" y="491.848"/><use stroke="#000" stroke-width=".6" x="170.945" xlink:href="#j" y="491.848"/><use stroke="#000" stroke-width=".6" x="178.651" xlink:href="#j" y="491.848"/><g transform="matrix(.1 0 0 -.1 172.289 504.846)"><use xlink:href="#f"/><use x="63.623" xlink:href="#l"/></g><use stroke="#000" stroke-width=".6" x="186.357" xlink:href="#j" y="491.848"/><use stroke="#000" stroke-width=".6" x="194.063" xlink:href="#j" y="491.848"/><use stroke="#000" stroke-width=".6" x="201.769" xlink:href="#j" y="491.848"/><use stroke="#000" stroke-width=".6" x="209.476" xlink:href="#j" y="491.848"/><use stroke="#000" stroke-width=".6" x="217.182" xlink:href="#j" y="491.848"/><use stroke="#000" stroke-width=".6" x="224.888" xlink:href="#j" y="491.848"/><use stroke="#000" stroke-width=".6" x="232.594" xlink:href="#j" y="491.848"/><g transform="matrix(.1 0 0 -.1 226.231 504.846)"><use xlink:href="#m"/><use x="63.623" xlink:href="#f"/></g><use stroke="#000" stroke-width=".6" x="240.3" xlink:href="#j" y="491.848"/><use stroke="#000" stroke-width=".6" x="248.006" xlink:href="#j" y="491.848"/><use stroke="#000" stroke-width=".6" x="255.712" xlink:href="#j" y="491.848"/><use stroke="#000" stroke-width=".6" x="263.418" xlink:href="#j" y="491.848"/><use stroke="#000" stroke-width=".6" x="271.124" xlink:href="#j" y="491.848"/><use stroke="#000" stroke-width=".6" x="278.831" xlink:href="#j" y="491.848"/><use stroke="#000" stroke-width=".6" x="286.537" xlink:href="#j" y="491.848"/><g transform="matrix(.1 0 0 -.1 280.174 504.846)"><use xlink:href="#m"/><use x="63.623" xlink:href="#k"/></g><use stroke="#000" stroke-width=".6" x="294.243" xlink:href="#j" y="491.848"/><use stroke="#000" stroke-width=".6" x="301.949" xlink:href="#j" y="491.848"/><use stroke="#000" stroke-width=".6" x="309.655" xlink:href="#j" y="491.848"/><use stroke="#000" stroke-width=".6" x="317.361" xlink:href="#j" y="491.848"/><use stroke="#000" stroke-width=".6" x="325.067" xlink:href="#j" y="491.848"/><use stroke="#000" stroke-width=".6" x="332.773" xlink:href="#j" y="491.848"/><use stroke="#000" stroke-width=".6" x="340.479" xlink:href="#j" y="491.848"/><g transform="matrix(.1 0 0 -.1 334.117 504.846)"><use xlink:href="#e"/><use x="63.623" xlink:href="#n"/></g><use stroke="#000" stroke-width=".6" x="348.186" xlink:href="#j" y="491.848"/><use stroke="#000" stroke-width=".6" x="355.892" xlink:href="#j" y="491.848"/><use stroke="#000" stroke-width=".6" x="363.598" xlink:href="#j" y="491.848"/><use stroke="#000" stroke-width=".6" x="371.304" xlink:href="#j" y="491.848"/><use stroke="#000" stroke-width=".6" x="379.01" xlink:href="#j" y="491.848"/><use stroke="#000" stroke-width=".6" x="386.716" xlink:href="#j" y="491.848"/><use stroke="#000" stroke-width=".6" x="394.422" xlink:href="#j" y="491.848"/><g transform="matrix(.1 0 0 -.1 388.06 504.846)"><use xlink:href="#f"/><use x="63.623" xlink:href="#e"/></g><use stroke="#000" stroke-width=".6" x="402.128" xlink:href="#j" y="491.848"/><use stroke="#000" stroke-width=".6" x="409.834" xlink:href="#j" y="491.848"/><use stroke="#000" stroke-width=".6" x="417.541" xlink:href="#j" y="491.848"/><use stroke="#000" stroke-width=".6" x="425.247" xlink:href="#j" y="491.848"/><use stroke="#000" stroke-width=".6" x="432.953" xlink:href="#j" y="491.848"/><use stroke="#000" stroke-width=".6" x="440.659" xlink:href="#j" y="491.848"/><use stroke="#000" stroke-width=".6" x="448.365" xlink:href="#j" y="491.848"/><g transform="matrix(.1 0 0 -.1 442.003 504.846)"><use xlink:href="#f"/><use x="63.623" xlink:href="#o"/></g><use stroke="#000" stroke-width=".6" x="456.071" xlink:href="#j" y="491.848"/><use stroke="#000" stroke-width=".6" x="463.777" xlink:href="#j" y="491.848"/><use stroke="#000" stroke-width=".6" x="471.483" xlink:href="#j" y="491.848"/><use stroke="#000" stroke-width=".6" x="479.189" xlink:href="#j" y="491.848"/><use stroke="#000" stroke-width=".6" x="486.896" xlink:href="#j" y="491.848"/><use stroke="#000" stroke-width=".6" x="494.602" xlink:href="#j" y="491.848"/><g><use stroke="#000" stroke-width=".6" x="502.308" xlink:href="#j" y="491.848"/><g transform="matrix(.1 0 0 -.1 495.945 504.846)"><use xlink:href="#m"/><use x="63.623" xlink:href="#p"/></g></g><use stroke="#000" stroke-width=".6" x="510.014" xlink:href="#j" y="491.848"/><use stroke="#000" stroke-width=".6" x="517.72" xlink:href="#j" y="491.848"/><use stroke="#000" stroke-width=".6" x="525.426" xlink:href="#j" y="491.848"/><use stroke="#000" stroke-width=".6" x="533.132" xlink:href="#j" y="491.848"/><use stroke="#000" stroke-width=".6" x="540.838" xlink:href="#j" y="491.848"/><use stroke="#000" stroke-width=".6" x="548.544" xlink:href="#j" y="491.848"/><g transform="matrix(.1 0 0 -.1 297.704 553.718)"><use xlink:href="#D"/><use x="77.002" xlink:href="#h"/><use x="138.281" xlink:href="#A"/><use x="177.49" xlink:href="#c"/></g><g><use stroke="#000" stroke-width=".8" x="63.83" xlink:href="#q" y="482.734"/><g transform="matrix(.1 0 0 -.1 39.23 486.533)"><use transform="translate(0 .766)" xlink:href="#m"/><use transform="translate(63.623 .766)" xlink:href="#f"/><use transform="matrix(.7 0 0 .7 128.203 39.047)" xlink:href="#f"/></g><use stroke="#000" stroke-width=".8" x="63.83" xlink:href="#q" y="431.725"/><g transform="matrix(.1 0 0 -.1 39.23 435.524)"><use transform="translate(0 .684)" xlink:href="#m"/><use transform="translate(63.623 .684)" xlink:href="#f"/><use transform="matrix(.7 0 0 .7 128.203 38.966)" xlink:href="#m"/></g><use stroke="#000" stroke-width=".8" x="63.83" xlink:href="#q" y="380.715"/><g transform="matrix(.1 0 0 -.1 39.23 384.514)"><use transform="translate(0 .766)" xlink:href="#m"/><use transform="translate(63.623 .766)" xlink:href="#f"/><use transform="matrix(.7 0 0 .7 128.203 39.047)" xlink:href="#e"/></g><g><use stroke="#000" stroke-width=".8" x="63.83" xlink:href="#q" y="329.706"/><g transform="matrix(.1 0 0 -.1 39.23 333.505)"><use transform="translate(0 .766)" xlink:href="#m"/><use transform="translate(63.623 .766)" xlink:href="#f"/><use transform="matrix(.7 0 0 .7 128.203 39.047)" xlink:href="#l"/></g></g><g stroke="#000" stroke-width=".6"><use x="63.83" xlink:href="#r" y="490.635"/><use x="63.83" xlink:href="#r" y="487.677"/><use x="63.83" xlink:href="#r" y="485.068"/><use x="63.83" xlink:href="#r" y="467.379"/><use x="63.83" xlink:href="#r" y="458.396"/><use x="63.83" xlink:href="#r" y="452.023"/><use x="63.83" xlink:href="#r" y="447.08"/><use x="63.83" xlink:href="#r" y="443.041"/><use x="63.83" xlink:href="#r" y="439.626"/><use x="63.83" xlink:href="#r" y="436.668"/><use x="63.83" xlink:href="#r" y="434.059"/><use x="63.83" xlink:href="#r" y="416.369"/><use x="63.83" xlink:href="#r" y="407.387"/><use x="63.83" xlink:href="#r" y="401.014"/><use x="63.83" xlink:href="#r" y="396.071"/><use x="63.83" xlink:href="#r" y="392.032"/><use x="63.83" xlink:href="#r" y="388.617"/><use x="63.83" xlink:href="#r" y="385.659"/><use x="63.83" xlink:href="#r" y="383.049"/><use x="63.83" xlink:href="#r" y="365.36"/><use x="63.83" xlink:href="#r" y="356.378"/><use x="63.83" xlink:href="#r" y="350.004"/><use x="63.83" xlink:href="#r" y="345.061"/><use x="63.83" xlink:href="#r" y="341.022"/><use x="63.83" xlink:href="#r" y="337.607"/><use x="63.83" xlink:href="#r" y="334.649"/><use x="63.83" xlink:href="#r" y="332.04"/><use x="63.83" xlink:href="#r" y="314.35"/><use x="63.83" xlink:href="#r" y="305.368"/><use x="63.83" xlink:href="#r" y="298.995"/><use x="63.83" xlink:href="#r" y="294.052"/></g><g transform="matrix(0 -.1 -.1 0 33.15 398.428)"><use xlink:href="#L"/><use x="73.193" xlink:href="#J"/></g></g><g fill="none"><path clip-path="url(#M)" d="M394.422 482.734l7.706-15.355 7.706-37.766 7.707-16.34 7.706-9.925 7.706-16.553 7.706-7.37 7.706-6.478 7.706-4.374 7.706-5.325 7.706-8.847 7.706-5.53 7.707-4.806 7.706-7.357 7.706-6.029 7.706-12.637" stroke="#1f77b4" stroke-linecap="square" stroke-width="1.5"/><path clip-path="url(#M)" d="M510.014 321.37l7.706-6.971 7.706-6.973 7.706-6.972" stroke="#1f77b4" stroke-dasharray="1.5 2.475" stroke-width="1.5"/><path clip-path="url(#M)" d="M86.178 482.734H217.182l.013 87.066m161.796 0l.019-122.72 7.706-13.021 7.706-4.446 7.706-14.325 7.706-7.901 7.707-15.355 7.706-3.73 7.706-5.98 7.706-5.46 7.706.187 7.706-16.003 7.706-7.179 7.706-4.41 7.706-5.687 7.707-.166 7.706-2.656 7.706-7.772 7.706-3.909" stroke="#ff7f0e" stroke-linecap="square" stroke-width="1.5"/><path clip-path="url(#M)" d="M510.014 330.315l7.706-3.9 7.706-3.9 7.706-3.899" stroke="#ff7f0e" stroke-dasharray="1.5 2.475" stroke-width="1.5"/><path clip-path="url(#M)" d="M117.002 467.379h38.531l7.706-8.983h7.706l7.706-15.355H232.594l7.706-3.415h7.706l7.706-2.958H309.655l7.706-10.756h15.412l7.706 10.756h15.413l7.706-2.61h7.706l7.706-2.333h7.706l7.706-14.22 7.706-4.232 7.706-7.316 7.707-8.982 7.706-3.415 7.706-7.623 7.706-4.085 7.706-1.357 7.706-7.234 7.706-4.56 7.706-4.527 7.706-5.626 7.707-4.215 7.706-5.09 7.706-6.05 7.706-4.944" stroke="#2ca02c" stroke-linecap="square" stroke-width="1.5"/><path clip-path="url(#M)" d="M510.014 338.496l7.706-5.093 7.706-5.094 7.706-5.094" stroke="#2ca02c" stroke-dasharray="1.5 2.475" stroke-width="1.5"/><path clip-path="url(#M)" d="M417.54 467.379h7.707l7.706-15.356 7.706-4.943h7.706l7.706-22.81 7.706-10.012 7.706-5.343h7.706l7.707-19.656 7.706-7.64 7.706-13.301 7.706-9.024" stroke="#d62728" stroke-linecap="square" stroke-width="1.5"/><path clip-path="url(#M)" d="M510.014 360.792l7.706-9.764 7.706-9.764 7.706-9.764" stroke="#d62728" stroke-dasharray="1.5 2.475" stroke-width="1.5"/><path d="M63.83 491.848V291.34M555.48 491.848V291.34M63.83 491.848h491.65M63.83 291.34h491.65" stroke="#000" stroke-linecap="square" stroke-linejoin="miter" stroke-width=".8"/></g><g><path d="M70.83 358.053h91.394q2 0 2-2V298.34q0-2-2-2H70.83q-2 0-2 2v57.713q0 2 2 2z" fill="#fff" opacity=".8" stroke="#ccc" stroke-linejoin="miter"/><path d="M72.83 304.438h20" fill="none" stroke="#1f77b4" stroke-linecap="square" stroke-width="1.5"/><g transform="matrix(.1 0 0 -.1 100.83 307.938)"><use xlink:href="#N"/><use x="74.805" xlink:href="#c"/><use x="136.328" xlink:href="#w"/><path d="M249.7 72.906h10.609l20.203-29.984 20.078 29.984h10.594L285.402 34.72V0h-9.906v34.719z"/><use x="310.783" xlink:href="#t"/><use x="371.965" xlink:href="#i"/><path d="M422.156 75.984h9.031V31.11L458 54.687h11.469l-29-25.578L470.703 0h-11.719l-27.796 26.703V0h-9.032z"/></g><path d="M72.83 319.117h20" fill="none" stroke="#ff7f0e" stroke-linecap="square" stroke-width="1.5"/><g transform="matrix(.1 0 0 -.1 100.83 322.617)"><use xlink:href="#s"/><use x="98.783" xlink:href="#h"/><use x="160.063" xlink:href="#F"/><use x="212.162" xlink:href="#H"/><use x="275.541" xlink:href="#x"/><use x="303.324" xlink:href="#I"/><path d="M412.11 27.984q0 9.766-4.032 15.125-4.015 5.375-11.297 5.375-7.219 0-11.25-5.375-4.031-5.359-4.031-15.125 0-9.718 4.031-15.093t11.25-5.375q7.281 0 11.297 5.375 4.031 5.375 4.031 15.093zm8.984-21.203q0-13.953-6.203-20.765-6.188-6.813-18.985-6.813-4.734 0-8.937.703-4.203.703-8.156 2.172v8.735q3.953-2.141 7.812-3.157 3.86-1.031 7.86-1.031 8.843 0 13.234 4.61 4.39 4.609 4.39 13.937v4.453q-2.78-4.844-7.125-7.234Q400.641 0 394.578 0q-10.047 0-16.203 7.656-6.156 7.672-6.156 20.328 0 12.688 6.156 20.344Q384.531 56 394.578 56q6.063 0 10.406-2.39 4.344-2.391 7.125-7.22v8.297h8.985z"/><use x="430.18" xlink:href="#A"/><use x="469.389" xlink:href="#t"/><use x="530.57" xlink:href="#I"/></g><path d="M72.83 333.795h20" fill="none" stroke="#2ca02c" stroke-linecap="square" stroke-width="1.5"/><g transform="matrix(.1 0 0 -.1 100.83 337.295)"><use xlink:href="#B"/><use x="69.824" xlink:href="#h"/><use x="131.104" xlink:href="#u"/><use x="158.887" xlink:href="#x"/><use x="186.67" xlink:href="#G"/><use x="221.875" xlink:href="#t"/><use x="283.057" xlink:href="#i"/><use x="324.154" xlink:href="#I"/><use x="387.533" xlink:href="#x"/><use x="415.316" xlink:href="#h"/></g><path d="M72.83 348.473h20" fill="none" stroke="#d62728" stroke-linecap="square" stroke-width="1.5"/><g transform="matrix(.1 0 0 -.1 100.83 351.973)"><use xlink:href="#N"/><use x="74.805" xlink:href="#c"/><use x="136.328" xlink:href="#w"/><path d="M259.715 72.906h9.86V5.078q0-13.187-5-19.14-5-5.954-16.095-5.954h-3.75v8.297h3.079q6.53 0 9.218 3.672 2.688 3.656 2.688 13.125z"/><use x="279.395" xlink:href="#c"/><use x="340.918" xlink:href="#i"/><use x="382.031" xlink:href="#F"/><use x="434.131" xlink:href="#c"/><use x="495.654" xlink:href="#K"/></g></g></g></svg>