<svg height="758.4" stroke-linejoin="round" viewBox="0 0 568.8 568.8" width="758.4" xmlns="http://www.w3.org/2000/svg" xmlns:xlink="http://www.w3.org/1999/xlink"><defs><path id="v" d="M-3 0h6M0 3v-6" stroke="#1f77b4" stroke-linejoin="round"/><path id="S" d="M8.203 72.906h46.875v-4.203L28.61 0H18.312L43.22 64.594H8.203z" stroke-linejoin="round"/><path id="b" d="M0 0v3.5" stroke="#000" stroke-linejoin="round" stroke-width=".8"/><path id="c" d="M34.188 63.188L20.797 26.906h26.812zm-5.579 9.718h11.188L67.578 0h-10.25l-6.64 18.703h-32.86L11.188 0H.78z" stroke-linejoin="round"/><path id="d" d="M18.11 8.203v-29H9.077v75.484h9.031v-8.296q2.844 4.875 7.157 7.234Q29.594 56 35.594 56q9.968 0 16.187-7.906 6.235-7.907 6.235-20.797T51.78 6.484q-6.218-7.906-16.187-7.906-6 0-10.328 2.375-4.313 2.375-7.157 7.25zm30.578 19.094q0 9.906-4.079 15.547-4.078 5.64-11.203 5.64-7.14 0-11.218-5.64-4.079-5.64-4.079-15.547 0-9.906 4.078-15.547 4.079-5.64 11.22-5.64 7.124 0 11.202 5.64t4.078 15.547z" stroke-linejoin="round"/><path id="e" d="M41.11 46.297q-1.516.875-3.297 1.281Q36.03 48 33.89 48q-7.625 0-11.703-4.953-4.079-4.953-4.079-14.234V0H9.08v54.688h9.03v-8.5q2.844 4.984 7.375 7.39Q30.031 56 36.531 56q.922 0 2.047-.125 1.125-.11 2.484-.36z" stroke-linejoin="round"/><path id="f" d="M19.188 8.297h34.421V0H7.33v8.297q5.609 5.812 15.296 15.594 9.703 9.797 12.188 12.64 4.734 5.313 6.609 9 1.89 3.688 1.89 7.25 0 5.813-4.078 9.469-4.078 3.672-10.625 3.672-4.64 0-9.797-1.61-5.14-1.609-11-4.89v9.969Q13.767 71.78 18.938 73q5.188 1.219 9.485 1.219 11.328 0 18.062-5.672 6.735-5.656 6.735-15.125 0-4.5-1.688-8.531-1.672-4.016-6.125-9.485-1.218-1.422-7.765-8.187-6.532-6.766-18.453-18.922z" stroke-linejoin="round"/><path id="g" d="M31.781 66.406q-7.61 0-11.453-7.5Q16.5 51.422 16.5 36.375q0-14.984 3.828-22.484 3.844-7.5 11.453-7.5 7.672 0 11.5 7.5 3.844 7.5 3.844 22.484 0 15.047-3.844 22.531-3.828 7.5-11.5 7.5zm0 7.813q12.266 0 18.735-9.703 6.468-9.688 6.468-28.141 0-18.406-6.468-28.11-6.47-9.687-18.735-9.687-12.25 0-18.718 9.688-6.47 9.703-6.47 28.109 0 18.453 6.47 28.14Q19.53 74.22 31.78 74.22z" stroke-linejoin="round"/><path id="h" d="M0 0v2" stroke="#000" stroke-linejoin="round" stroke-width=".6"/><path id="i" d="M10.984 1.516V10.5q3.72-1.766 7.516-2.688 3.813-.921 7.484-.921 9.766 0 14.907 6.562 5.156 6.563 5.89 19.953-2.828-4.203-7.187-6.453-4.344-2.25-9.61-2.25-10.937 0-17.312 6.61-6.375 6.625-6.375 18.109 0 11.219 6.64 18 6.641 6.797 17.672 6.797 12.657 0 19.313-9.703 6.672-9.688 6.672-28.141 0-17.234-8.188-27.516Q40.234-1.42 26.422-1.42q-3.719 0-7.531.734-3.797.734-7.907 2.203zM30.61 32.422q6.641 0 10.516 4.531 3.89 4.547 3.89 12.469 0 7.86-3.89 12.422-3.875 4.562-10.516 4.562-6.64 0-10.515-4.562-3.875-4.563-3.875-12.422 0-7.922 3.875-12.469 3.875-4.531 10.515-4.531z" stroke-linejoin="round"/><path id="j" d="M12.406 8.297h16.11v55.625l-17.532-3.516v8.985l17.438 3.515h9.86V8.296H54.39V0H12.406z" stroke-linejoin="round"/><path id="k" d="M33.016 40.375q-6.641 0-10.532-4.547-3.875-4.531-3.875-12.437 0-7.86 3.875-12.438 3.891-4.562 10.532-4.562 6.64 0 10.515 4.562 3.875 4.578 3.875 12.438 0 7.906-3.875 12.437-3.875 4.547-10.515 4.547zm19.578 30.922v-8.984q-3.719 1.75-7.5 2.671-3.782.938-7.5.938-9.766 0-14.922-6.594-5.14-6.594-5.875-19.922 2.875 4.25 7.219 6.516 4.359 2.266 9.578 2.266 10.984 0 17.36-6.672 6.374-6.657 6.374-18.125 0-11.235-6.64-18.032-6.641-6.78-17.672-6.78-12.657 0-19.344 9.687-6.688 9.703-6.688 28.109 0 17.281 8.204 27.563 8.203 10.28 22.015 10.28 3.719 0 7.5-.734t7.89-2.187z" stroke-linejoin="round"/><path id="l" d="M40.578 39.313Q47.656 37.797 51.625 33q3.984-4.781 3.984-11.813 0-10.78-7.422-16.703-7.421-5.906-21.093-5.906-4.578 0-9.438.906-4.86.907-10.031 2.72v9.515q4.094-2.39 8.969-3.61 4.89-1.218 10.218-1.218 9.266 0 14.125 3.656 4.86 3.656 4.86 10.64 0 6.454-4.516 10.079-4.515 3.64-12.562 3.64h-8.5v8.11h8.89q7.266 0 11.125 2.906 3.86 2.906 3.86 8.375 0 5.61-3.985 8.61-3.968 3.015-11.39 3.015-4.063 0-8.703-.89-4.641-.876-10.203-2.72v8.782q5.624 1.562 10.53 2.344 4.907.78 9.25.78 11.235 0 17.766-5.109 6.547-5.093 6.547-13.78 0-6.063-3.468-10.235-3.47-4.172-9.86-5.782z" stroke-linejoin="round"/><path id="m" d="M0 0h-3.5" stroke="#000" stroke-linejoin="round" stroke-width=".8"/><path id="n" d="M10.797 72.906h38.719v-8.312H19.828v-17.86q2.14.735 4.281 1.094 2.157.36 4.313.36 12.203 0 19.328-6.688 7.14-6.688 7.14-18.11 0-11.765-7.328-18.296-7.328-6.516-20.656-6.516-4.593 0-9.36.781-4.75.782-9.827 2.344v9.922q4.39-2.39 9.078-3.563 4.687-1.171 9.906-1.171 8.453 0 13.375 4.437 4.938 4.438 4.938 12.063 0 7.609-4.938 12.047-4.922 4.453-13.375 4.453-3.953 0-7.89-.875-3.922-.875-8.016-2.735z" stroke-linejoin="round"/><path id="o" d="M37.797 64.313L12.89 25.39h24.906zm-2.594 8.593H47.61V25.391h10.407v-8.203H47.609V0h-9.812v17.188H4.89v9.515z" stroke-linejoin="round"/><path id="p" d="M30.61 48.39q-7.22 0-11.422-5.64-4.204-5.64-4.204-15.453 0-9.813 4.172-15.453 4.188-5.64 11.453-5.64 7.188 0 11.375 5.655 4.203 5.672 4.203 15.438 0 9.719-4.203 15.406-4.187 5.688-11.375 5.688zm0 7.61q11.718 0 18.406-7.625 6.703-7.61 6.703-21.078 0-13.422-6.703-21.078-6.688-7.64-18.407-7.64-11.765 0-18.437 7.64-6.656 7.656-6.656 21.078 0 13.469 6.656 21.078Q18.844 56 30.609 56z" stroke-linejoin="round"/><path id="q" d="M9.422 75.984h8.984V0H9.422z" stroke-linejoin="round"/><path id="r" d="M45.406 46.39v29.594h8.985V0h-8.985v8.203Q42.578 3.328 38.25.953q-4.313-2.375-10.375-2.375-9.906 0-16.14 7.906-6.22 7.922-6.22 20.813 0 12.89 6.22 20.797Q17.968 56 27.874 56q6.063 0 10.375-2.375 4.328-2.36 7.156-7.234zm-30.61-19.093q0-9.906 4.079-15.547 4.078-5.64 11.203-5.64 7.125 0 11.219 5.64 4.11 5.64 4.11 15.547 0 9.906-4.11 15.547-4.094 5.64-11.219 5.64-7.125 0-11.203-5.64-4.078-5.64-4.078-15.547z" stroke-linejoin="round"/><path id="s" d="M4.203 54.688h8.985l11.234-42.672 11.172 42.672h10.593l11.235-42.672 11.187 42.672h8.985L63.28 0H52.688L40.922 44.828 29.109 0H18.5z" stroke-linejoin="round"/><path id="t" d="M9.422 54.688h8.984V0H9.422zm0 21.296h8.984v-11.39H9.422z" stroke-linejoin="round"/><path id="u" d="M56.203 29.594v-4.39H14.891q.593-9.282 5.593-14.142 5-4.859 13.938-4.859 5.172 0 10.031 1.266 4.86 1.265 9.656 3.812v-8.5Q49.266.734 44.187-.344 39.11-1.422 33.892-1.422q-13.094 0-20.735 7.61-7.64 7.625-7.64 20.625 0 13.421 7.25 21.296Q20.016 56 32.328 56q11.031 0 17.453-7.11 6.422-7.093 6.422-19.296zm-8.984 2.64q-.094 7.36-4.125 11.75-4.032 4.407-10.672 4.407-7.516 0-12.031-4.25-4.516-4.25-5.203-11.97z" stroke-linejoin="round"/><path id="R" d="M9.813 72.906h13.28l32.329-60.984v60.984h9.562V0h-13.28L19.39 60.984V0H9.813z" stroke-linejoin="round"/><path id="w" d="M0 1.5a1.5 1.5 0 100-3 1.5 1.5 0 000 3z" stroke="#ff7f0e" stroke-linejoin="round"/><path id="x" d="M-3 0h6M0 3v-6" stroke="#d62728" stroke-linejoin="round"/><path id="y" d="M0 1.5a1.5 1.5 0 100-3 1.5 1.5 0 000 3z" stroke="#9467bd" stroke-linejoin="round"/><path id="z" d="M48.781 52.594v-8.407q-3.812 2.11-7.64 3.157-3.828 1.047-7.735 1.047-8.75 0-13.593-5.547-4.829-5.532-4.829-15.547 0-10.016 4.829-15.563 4.843-5.53 13.593-5.53 3.907 0 7.735 1.046 3.828 1.047 7.64 3.156V2.094Q45.016.344 40.984-.531q-4.015-.89-8.562-.89-12.36 0-19.64 7.765-7.266 7.765-7.266 20.953 0 13.375 7.343 21.031Q20.22 56 33.016 56q4.14 0 8.093-.86 3.953-.843 7.672-2.546z" stroke-linejoin="round"/><path id="A" d="M18.313 70.219V54.688h18.5v-6.985h-18.5V18.016q0-6.688 1.828-8.594 1.828-1.906 7.453-1.906h9.218V0h-9.218q-10.407 0-14.36 3.875-3.953 3.89-3.953 14.14v29.688H2.687v6.984h6.594V70.22z" stroke-linejoin="round"/><path id="B" d="M64.406 67.281v-10.39q-4.984 4.64-10.625 6.922-5.64 2.296-11.984 2.296-12.5 0-19.14-7.64-6.641-7.64-6.641-22.094 0-14.406 6.64-22.047 6.64-7.64 19.14-7.64 6.345 0 11.985 2.296 5.64 2.297 10.625 6.938V5.609Q59.234 2.094 53.437.33q-5.78-1.75-12.218-1.75-16.563 0-26.094 10.124-9.516 10.14-9.516 27.672 0 17.578 9.516 27.703 9.531 10.14 26.094 10.14 6.531 0 12.312-1.734 5.797-1.734 10.875-5.203z" stroke-linejoin="round"/><path id="C" d="M9.813 72.906h9.859V0h-9.86z" stroke-linejoin="round"/><path id="D" d="M4.89 31.39h26.313v-8H4.891z" stroke-linejoin="round"/><path id="E" d="M34.281 27.484q-10.89 0-15.093-2.484-4.204-2.484-4.204-8.5 0-4.781 3.157-7.594 3.156-2.797 8.562-2.797 7.485 0 12 5.297 4.516 5.297 4.516 14.078v2zm17.922 3.72V0H43.22v8.297Q40.14 3.328 35.547.953q-4.594-2.375-11.234-2.375-8.391 0-13.36 4.719Q6 8.016 6 15.922q0 9.219 6.172 13.906 6.187 4.688 18.437 4.688h12.61v.89q0 6.203-4.078 9.594-4.078 3.39-11.453 3.39-4.688 0-9.141-1.124-4.438-1.125-8.531-3.375v8.312q4.921 1.906 9.562 2.844 4.64.953 9.031.953 11.875 0 17.735-6.156 5.86-6.14 5.86-18.64z" stroke-linejoin="round"/><path id="F" d="M44.281 53.078v-8.5q-3.797 1.953-7.906 2.922-4.094.984-8.5.984-6.688 0-10.031-2.047-3.344-2.046-3.344-6.156 0-3.125 2.39-4.906 2.391-1.781 9.626-3.39l3.078-.688q9.562-2.047 13.593-5.781 4.032-3.735 4.032-10.422 0-7.625-6.032-12.078-6.03-4.438-16.578-4.438-4.39 0-9.156.86Q10.688.296 5.422 2v9.281q4.984-2.594 9.812-3.89 4.829-1.282 9.579-1.282 6.343 0 9.75 2.172 3.421 2.172 3.421 6.125 0 3.656-2.468 5.61-2.453 1.953-10.813 3.765l-3.125.735q-8.344 1.75-12.062 5.39-3.704 3.64-3.704 9.985 0 7.718 5.47 11.906Q16.75 56 26.811 56q4.97 0 9.36-.734 4.406-.72 8.11-2.188z" stroke-linejoin="round"/><path id="G" d="M37.11 75.984V68.5h-8.594q-4.828 0-6.72-1.953-1.874-1.953-1.874-7.031v-4.828h14.797v-6.985H19.922V0H10.89v47.703H2.297v6.984h8.594V58.5q0 9.125 4.25 13.297 4.25 4.187 13.468 4.187z" stroke-linejoin="round"/><path id="H" d="M8.688 72.906h9.921V28.61q0-11.718 4.235-16.875 4.25-5.14 13.781-5.14 9.469 0 13.719 5.14 4.25 5.157 4.25 16.875v44.297H64.5V27.391q0-14.25-7.063-21.532-7.046-7.28-20.812-7.28-13.828 0-20.89 7.28-7.047 7.282-7.047 21.532z" stroke-linejoin="round"/><path id="I" d="M53.516 70.516V60.89q-5.61 2.687-10.594 4-4.984 1.328-9.625 1.328-8.047 0-12.422-3.125t-4.375-8.89q0-4.845 2.906-7.313 2.907-2.453 11.016-3.97l5.953-1.218q11.031-2.11 16.281-7.406 5.25-5.297 5.25-14.172 0-10.61-7.11-16.078-7.093-5.469-20.812-5.469-5.172 0-11.015 1.172Q13.14.922 6.89 3.219v10.156q6-3.36 11.765-5.078 5.766-1.703 11.328-1.703 8.438 0 13.032 3.312 4.593 3.328 4.593 9.485 0 5.359-3.297 8.39-3.296 3.032-10.812 4.547L27.484 33.5q-11.03 2.188-15.968 6.875-4.922 4.688-4.922 13.047 0 9.672 6.812 15.234 6.813 5.563 18.766 5.563 5.14 0 10.453-.938 5.328-.922 10.89-2.765z" stroke-linejoin="round"/><path id="J" d="M31 75.875q-6.531-11.219-9.719-22.219-3.172-10.984-3.172-22.265 0-11.266 3.203-22.328Q24.517-2 31-13.188h-7.813Q15.875-1.704 12.235 9.375q-3.64 11.078-3.64 22.016 0 10.89 3.61 21.922 3.624 11.046 10.983 22.562z" stroke-linejoin="round"/><path id="K" d="M8.5 21.578v33.11h8.984V21.922q0-7.766 3.016-11.656 3.031-3.875 9.094-3.875 7.265 0 11.484 4.64 4.234 4.64 4.234 12.656v31h8.985V0h-8.984v8.406Q42.047 3.422 37.718 1q-4.313-2.422-10.032-2.422-9.421 0-14.312 5.86Q8.5 10.296 8.5 21.578z" stroke-linejoin="round"/><path id="L" d="M48.688 27.297q0 9.906-4.079 15.547-4.078 5.64-11.203 5.64-7.14 0-11.218-5.64-4.079-5.64-4.079-15.547 0-9.906 4.078-15.547 4.079-5.64 11.22-5.64 7.124 0 11.202 5.64t4.078 15.547zM18.108 46.39q2.844 4.875 7.157 7.234Q29.594 56 35.594 56q9.968 0 16.187-7.906 6.235-7.907 6.235-20.797T51.78 6.484q-6.218-7.906-16.187-7.906-6 0-10.328 2.375-4.313 2.375-7.157 7.25V0H9.08v75.984h9.03z" stroke-linejoin="round"/><path id="M" d="M54.89 33.016V0h-8.984v32.719q0 7.765-3.031 11.61-3.031 3.858-9.078 3.858-7.281 0-11.484-4.64-4.204-4.625-4.204-12.64V0H9.08v54.688h9.03v-8.5q3.235 4.937 7.594 7.374Q30.078 56 35.797 56q9.422 0 14.25-5.828 4.844-5.828 4.844-17.156z" stroke-linejoin="round"/><path id="N" d="M10.688 12.406H21V0H10.687z" stroke-linejoin="round"/><path id="O" d="M32.172-5.078q-3.797-9.766-7.422-12.735-3.61-2.984-9.656-2.984H7.906v7.516h5.282q3.703 0 5.75 1.765Q21-9.766 23.483-3.219l1.61 4.094-22.11 53.813H12.5l17.094-42.766 17.093 42.766h9.516z" stroke-linejoin="round"/><path id="P" d="M8.016 75.875h7.812q7.313-11.516 10.953-22.563 3.64-11.03 3.64-21.921 0-10.938-3.64-22.016-3.64-11.078-10.953-22.563H8.016Q14.5-2 17.703 9.063q3.203 11.063 3.203 22.329 0 11.28-3.203 22.265-3.203 11-9.687 22.219z" stroke-linejoin="round"/><clipPath id="Q" stroke-linejoin="round"><path d="M70.22 297.12H558v208.808H70.22z"/></clipPath><clipPath id="a" stroke-linejoin="round"><path d="M70.22 25.44H558v208.808H70.22z"/></clipPath></defs><path d="M0 568.8h568.8V0H0z" fill="#fff"/><path d="M70.22 234.248H558V25.44H70.22z" fill="#fff"/><g stroke-width=".8"><path clip-path="url(#a)" d="M70.22 234.248V25.44" fill="none" stroke="#b0b0b0" stroke-linecap="square"/><use stroke="#000" x="70.22" xlink:href="#b" y="234.248"/></g><path clip-path="url(#a)" d="M469.313 234.248V25.44" fill="none" stroke="#b0b0b0" stroke-linecap="square" stroke-width=".8"/><use stroke="#000" stroke-width=".8" x="469.313" xlink:href="#b" y="234.248"/><g transform="matrix(.1 0 0 -.1 460.663 271.242)"><use xlink:href="#c"/><use x="68.408" xlink:href="#d"/><use x="131.885" xlink:href="#e"/></g><g transform="matrix(.1 0 0 -.1 456.588 282.44)"><use xlink:href="#f"/><use x="63.623" xlink:href="#g"/><use x="127.246" xlink:href="#f"/><use x="190.869" xlink:href="#g"/></g><g stroke-width=".8"><path clip-path="url(#a)" d="M558 234.248V25.44" fill="none" stroke="#b0b0b0" stroke-linecap="square"/><use stroke="#000" x="558" xlink:href="#b" y="234.248"/></g><use stroke="#000" stroke-width=".6" x="85.001" xlink:href="#h" y="234.248"/><use stroke="#000" stroke-width=".6" x="99.782" xlink:href="#h" y="234.248"/><use stroke="#000" stroke-width=".6" x="114.564" xlink:href="#h" y="234.248"/><use stroke="#000" stroke-width=".6" x="129.345" xlink:href="#h" y="234.248"/><g transform="matrix(.1 0 0 -.1 122.982 247.246)"><use xlink:href="#g"/><use x="63.623" xlink:href="#i"/></g><g stroke="#000" stroke-width=".6"><use x="144.126" xlink:href="#h" y="234.248"/><use x="158.907" xlink:href="#h" y="234.248"/><use x="173.688" xlink:href="#h" y="234.248"/><use x="188.47" xlink:href="#h" y="234.248"/><use x="203.251" xlink:href="#h" y="234.248"/><use x="218.032" xlink:href="#h" y="234.248"/></g><use stroke="#000" stroke-width=".6" x="232.813" xlink:href="#h" y="234.248"/><g transform="matrix(.1 0 0 -.1 226.45 247.246)"><use xlink:href="#j"/><use x="63.623" xlink:href="#k"/></g><use stroke="#000" stroke-width=".6" x="247.595" xlink:href="#h" y="234.248"/><use stroke="#000" stroke-width=".6" x="262.376" xlink:href="#h" y="234.248"/><use stroke="#000" stroke-width=".6" x="277.157" xlink:href="#h" y="234.248"/><use stroke="#000" stroke-width=".6" x="291.938" xlink:href="#h" y="234.248"/><use stroke="#000" stroke-width=".6" x="306.719" xlink:href="#h" y="234.248"/><use stroke="#000" stroke-width=".6" x="321.501" xlink:href="#h" y="234.248"/><use stroke="#000" stroke-width=".6" x="336.282" xlink:href="#h" y="234.248"/><g transform="matrix(.1 0 0 -.1 329.92 247.246)"><use xlink:href="#f"/><use x="63.623" xlink:href="#l"/></g><use stroke="#000" stroke-width=".6" x="351.063" xlink:href="#h" y="234.248"/><use stroke="#000" stroke-width=".6" x="365.844" xlink:href="#h" y="234.248"/><use stroke="#000" stroke-width=".6" x="380.625" xlink:href="#h" y="234.248"/><use stroke="#000" stroke-width=".6" x="395.407" xlink:href="#h" y="234.248"/><use stroke="#000" stroke-width=".6" x="410.188" xlink:href="#h" y="234.248"/><use stroke="#000" stroke-width=".6" x="424.969" xlink:href="#h" y="234.248"/><use stroke="#000" stroke-width=".6" x="439.75" xlink:href="#h" y="234.248"/><g transform="matrix(.1 0 0 -.1 433.388 247.246)"><use xlink:href="#l"/><use x="63.623" xlink:href="#g"/></g><use stroke="#000" stroke-width=".6" x="454.532" xlink:href="#h" y="234.248"/><use stroke="#000" stroke-width=".6" x="484.094" xlink:href="#h" y="234.248"/><use stroke="#000" stroke-width=".6" x="498.875" xlink:href="#h" y="234.248"/><use stroke="#000" stroke-width=".6" x="513.656" xlink:href="#h" y="234.248"/><use stroke="#000" stroke-width=".6" x="528.438" xlink:href="#h" y="234.248"/><g><use stroke="#000" stroke-width=".6" x="543.219" xlink:href="#h" y="234.248"/><g transform="matrix(.1 0 0 -.1 536.856 247.246)"><use xlink:href="#g"/><use x="63.623" xlink:href="#k"/></g></g><g><path clip-path="url(#a)" d="M70.22 209.64H558" fill="none" stroke="#b0b0b0" stroke-linecap="square" stroke-width=".8"/><use stroke="#000" stroke-width=".8" x="70.22" xlink:href="#m" y="209.639"/><g transform="matrix(.1 0 0 -.1 31.407 213.438)"><use xlink:href="#n"/><use x="63.623" xlink:href="#g"/><use x="127.246" xlink:href="#g"/><use x="190.869" xlink:href="#g"/><use x="254.492" xlink:href="#g"/></g><path clip-path="url(#a)" d="M70.22 185.026H558" fill="none" stroke="#b0b0b0" stroke-linecap="square" stroke-width=".8"/><use stroke="#000" stroke-width=".8" x="70.22" xlink:href="#m" y="185.026"/><g transform="matrix(.1 0 0 -.1 25.045 188.825)"><use xlink:href="#j"/><use x="63.623" xlink:href="#g"/><use x="127.246" xlink:href="#g"/><use x="190.869" xlink:href="#g"/><use x="254.492" xlink:href="#g"/><use x="318.115" xlink:href="#g"/></g><path clip-path="url(#a)" d="M70.22 160.412H558" fill="none" stroke="#b0b0b0" stroke-linecap="square" stroke-width=".8"/><use stroke="#000" stroke-width=".8" x="70.22" xlink:href="#m" y="160.412"/><g transform="matrix(.1 0 0 -.1 25.045 164.211)"><use xlink:href="#j"/><use x="63.623" xlink:href="#n"/><use x="127.246" xlink:href="#g"/><use x="190.869" xlink:href="#g"/><use x="254.492" xlink:href="#g"/><use x="318.115" xlink:href="#g"/></g><g><path clip-path="url(#a)" d="M70.22 135.798H558" fill="none" stroke="#b0b0b0" stroke-linecap="square" stroke-width=".8"/><use stroke="#000" stroke-width=".8" x="70.22" xlink:href="#m" y="135.798"/><g transform="matrix(.1 0 0 -.1 25.045 139.597)"><use xlink:href="#f"/><use x="63.623" xlink:href="#g"/><use x="127.246" xlink:href="#g"/><use x="190.869" xlink:href="#g"/><use x="254.492" xlink:href="#g"/><use x="318.115" xlink:href="#g"/></g></g><g><path clip-path="url(#a)" d="M70.22 111.185H558" fill="none" stroke="#b0b0b0" stroke-linecap="square" stroke-width=".8"/><use stroke="#000" stroke-width=".8" x="70.22" xlink:href="#m" y="111.185"/><g transform="matrix(.1 0 0 -.1 25.045 114.984)"><use xlink:href="#f"/><use x="63.623" xlink:href="#n"/><use x="127.246" xlink:href="#g"/><use x="190.869" xlink:href="#g"/><use x="254.492" xlink:href="#g"/><use x="318.115" xlink:href="#g"/></g></g><g><path clip-path="url(#a)" d="M70.22 86.57H558" fill="none" stroke="#b0b0b0" stroke-linecap="square" stroke-width=".8"/><use stroke="#000" stroke-width=".8" x="70.22" xlink:href="#m" y="86.571"/><g transform="matrix(.1 0 0 -.1 25.045 90.37)"><use xlink:href="#l"/><use x="63.623" xlink:href="#g"/><use x="127.246" xlink:href="#g"/><use x="190.869" xlink:href="#g"/><use x="254.492" xlink:href="#g"/><use x="318.115" xlink:href="#g"/></g></g><g><path clip-path="url(#a)" d="M70.22 61.957H558" fill="none" stroke="#b0b0b0" stroke-linecap="square" stroke-width=".8"/><use stroke="#000" stroke-width=".8" x="70.22" xlink:href="#m" y="61.957"/><g transform="matrix(.1 0 0 -.1 25.045 65.756)"><use xlink:href="#l"/><use x="63.623" xlink:href="#n"/><use x="127.246" xlink:href="#g"/><use x="190.869" xlink:href="#g"/><use x="254.492" xlink:href="#g"/><use x="318.115" xlink:href="#g"/></g></g><g><path clip-path="url(#a)" d="M70.22 37.344H558" fill="none" stroke="#b0b0b0" stroke-linecap="square" stroke-width=".8"/><use stroke="#000" stroke-width=".8" x="70.22" xlink:href="#m" y="37.344"/><g transform="matrix(.1 0 0 -.1 25.045 41.143)"><use xlink:href="#o"/><use x="63.623" xlink:href="#g"/><use x="127.246" xlink:href="#g"/><use x="190.869" xlink:href="#g"/><use x="254.492" xlink:href="#g"/><use x="318.115" xlink:href="#g"/></g></g><g transform="matrix(0 -.1 -.1 0 18.965 156.19)"><path d="M3.328 72.906h9.953L28.61 11.281l15.282 61.625h11.093l15.328-61.625 15.282 61.625h10.015L77.297 0H64.89L49.516 63.281 33.984 0H21.578z"/><use x="98.799" xlink:href="#p"/><use x="159.98" xlink:href="#e"/><use x="201.094" xlink:href="#q"/><use x="228.877" xlink:href="#r"/><use x="292.354" xlink:href="#s"/><use x="374.141" xlink:href="#t"/><use x="401.924" xlink:href="#r"/><use x="465.4" xlink:href="#u"/></g></g><g stroke="#1f77b4"><path clip-path="url(#a)" d="M-1 234.222l12.095-.003 14.781-.01 14.782-.009 14.78-.013 14.782-.033 14.781-.027 14.781-.067 14.782-.057 14.78-.033 14.782-.171 14.781-.155 14.781-.184 14.782-.25 14.78-.267 14.782-.376 14.781-.544 14.782-.87 14.78-.623 14.782-2.86 14.781-2.628 14.781-3.103 14.782-4.088 14.78-4.822 14.782-4.712 14.781-5.803 14.781-8.6 14.782-8.498 14.78-9.438 14.782-8.553 14.781-8.581 14.782-11.859 14.78-11.256 14.782-13.973 14.781-14.9 14.781-13.29" fill="none" stroke-linecap="square" stroke-width="1.5"/><g clip-path="url(#a)" fill="#1f77b4"><use x="-1" xlink:href="#v" y="234.222"/><use x="11.095" xlink:href="#v" y="234.219"/><use x="25.876" xlink:href="#v" y="234.21"/><use x="40.658" xlink:href="#v" y="234.2"/><use x="55.439" xlink:href="#v" y="234.187"/><use x="70.22" xlink:href="#v" y="234.154"/><use x="85.001" xlink:href="#v" y="234.127"/><use x="99.782" xlink:href="#v" y="234.06"/><use x="114.564" xlink:href="#v" y="234.003"/><use x="129.345" xlink:href="#v" y="233.97"/><use x="144.126" xlink:href="#v" y="233.799"/><use x="158.907" xlink:href="#v" y="233.644"/><use x="173.688" xlink:href="#v" y="233.46"/><use x="188.47" xlink:href="#v" y="233.209"/><use x="203.251" xlink:href="#v" y="232.943"/><use x="218.032" xlink:href="#v" y="232.567"/><use x="232.813" xlink:href="#v" y="232.023"/><use x="247.595" xlink:href="#v" y="231.154"/><use x="262.376" xlink:href="#v" y="230.53"/><use x="277.157" xlink:href="#v" y="227.67"/><use x="291.938" xlink:href="#v" y="225.042"/><use x="306.719" xlink:href="#v" y="221.939"/><use x="321.501" xlink:href="#v" y="217.851"/><use x="336.282" xlink:href="#v" y="213.029"/><use x="351.063" xlink:href="#v" y="208.317"/><use x="365.844" xlink:href="#v" y="202.514"/><use x="380.625" xlink:href="#v" y="193.913"/><use x="395.407" xlink:href="#v" y="185.416"/><use x="410.188" xlink:href="#v" y="175.978"/><use x="424.969" xlink:href="#v" y="167.425"/><use x="439.75" xlink:href="#v" y="158.844"/><use x="454.532" xlink:href="#v" y="146.985"/><use x="469.313" xlink:href="#v" y="135.729"/><use x="484.094" xlink:href="#v" y="121.756"/><use x="498.875" xlink:href="#v" y="106.856"/><use x="513.656" xlink:href="#v" y="93.566"/></g></g><g stroke="#ff7f0e"><path clip-path="url(#a)" d="M-1 233.688l12.095-.211 14.781-.127 14.782-.211 14.78-.218 14.782-.29 14.781-.306 14.781-.563 14.782-.653 14.78-.787 14.782-.398 14.781-.884h14.781l14.782-2.149 14.78-1.376 14.782-1.404 14.781-1.216 14.782-1.472 14.78-1.303 14.782-2.206 14.781-2.638 14.781-2.034 14.782-1.948 14.78-1.86 14.782-1.779 14.781-1.718 14.781-2.211 14.782-2.167 14.78-1.797 14.782-1.878 14.781-.812 14.782-1.037 14.78-1.446 14.782-1.219 14.781-1.151 14.781-1.421" fill="none" stroke-linecap="square" stroke-width="1.5"/><g clip-path="url(#a)" fill="#ff7f0e"><use x="-1" xlink:href="#w" y="233.688"/><use x="11.095" xlink:href="#w" y="233.477"/><use x="25.876" xlink:href="#w" y="233.35"/><use x="40.658" xlink:href="#w" y="233.139"/><use x="55.439" xlink:href="#w" y="232.921"/><use x="70.22" xlink:href="#w" y="232.63"/><use x="85.001" xlink:href="#w" y="232.325"/><use x="99.782" xlink:href="#w" y="231.762"/><use x="114.564" xlink:href="#w" y="231.109"/><use x="129.345" xlink:href="#w" y="230.322"/><use x="144.126" xlink:href="#w" y="229.924"/><use x="158.907" xlink:href="#w" y="229.04"/><use x="173.688" xlink:href="#w" y="229.04"/><use x="188.47" xlink:href="#w" y="226.891"/><use x="203.251" xlink:href="#w" y="225.515"/><use x="218.032" xlink:href="#w" y="224.111"/><use x="232.813" xlink:href="#w" y="222.895"/><use x="247.595" xlink:href="#w" y="221.423"/><use x="262.376" xlink:href="#w" y="220.12"/><use x="277.157" xlink:href="#w" y="217.914"/><use x="291.938" xlink:href="#w" y="215.276"/><use x="306.719" xlink:href="#w" y="213.242"/><use x="321.501" xlink:href="#w" y="211.294"/><use x="336.282" xlink:href="#w" y="209.433"/><use x="351.063" xlink:href="#w" y="207.655"/><use x="365.844" xlink:href="#w" y="205.937"/><use x="380.625" xlink:href="#w" y="203.726"/><use x="395.407" xlink:href="#w" y="201.559"/><use x="410.188" xlink:href="#w" y="199.762"/><use x="424.969" xlink:href="#w" y="197.884"/><use x="439.75" xlink:href="#w" y="197.072"/><use x="454.532" xlink:href="#w" y="196.035"/><use x="469.313" xlink:href="#w" y="194.589"/><use x="484.094" xlink:href="#w" y="193.37"/><use x="498.875" xlink:href="#w" y="192.219"/><use x="513.656" xlink:href="#w" y="190.798"/></g></g><path clip-path="url(#a)" d="M-1 234.228l12.095-.015 14.781-.018 14.782-.022 14.78-.027 14.782-.018 14.781-.069 14.781-.033 14.782-.081 14.78-.19 14.782-.303 14.781-.203h14.781l14.782-1.411 14.78-.38 14.782-.647 14.781-1.023 14.782-.55 14.78-.994 14.782-1.88 14.781-.863 14.781-2.016 14.782-1.402 14.78-2.337 14.782-1.877 14.781-3.554 14.781-2.907 14.782-2.371 14.78-1.843 14.782-1.787 14.781-2.394 14.782-2.333 14.78-1.912 14.782-1.423 14.781-1.237 14.781-1.238" fill="none" stroke="#2ca02c" stroke-linecap="square" stroke-width="1.5"/><g stroke="#d62728"><path clip-path="url(#a)" d="M-1 234.217l12.095-.02 14.781-.014 14.782-.019 14.78-.032 14.782-.108 14.781-.093 14.781-.063 14.782-.118 14.78-.066 14.782-.138 14.781-.219 14.781-.083 14.782-.774 14.78-.447 14.782-.595 14.781-.714 14.782-.973 14.78-1.49 14.782-1.462 14.781-2.185 14.781-1.13 14.782-1.288 14.78-1.953 14.782-.544 14.781-1.962 14.781-2.18 14.782-2.89 14.78-2.418 14.782-1.757 14.781-.192 14.782-1.08 14.78-1.633 14.782-1.474 14.781-2 14.781-1.447" fill="none" stroke-linecap="square" stroke-width="1.5"/><g clip-path="url(#a)" fill="#d62728"><use x="-1" xlink:href="#x" y="234.217"/><use x="11.095" xlink:href="#x" y="234.197"/><use x="25.876" xlink:href="#x" y="234.183"/><use x="40.658" xlink:href="#x" y="234.164"/><use x="55.439" xlink:href="#x" y="234.132"/><use x="70.22" xlink:href="#x" y="234.024"/><use x="85.001" xlink:href="#x" y="233.931"/><use x="99.782" xlink:href="#x" y="233.868"/><use x="114.564" xlink:href="#x" y="233.75"/><use x="129.345" xlink:href="#x" y="233.684"/><use x="144.126" xlink:href="#x" y="233.546"/><use x="158.907" xlink:href="#x" y="233.327"/><use x="173.688" xlink:href="#x" y="233.244"/><use x="188.47" xlink:href="#x" y="232.47"/><use x="203.251" xlink:href="#x" y="232.023"/><use x="218.032" xlink:href="#x" y="231.428"/><use x="232.813" xlink:href="#x" y="230.714"/><use x="247.595" xlink:href="#x" y="229.741"/><use x="262.376" xlink:href="#x" y="228.25"/><use x="277.157" xlink:href="#x" y="226.789"/><use x="291.938" xlink:href="#x" y="224.604"/><use x="306.719" xlink:href="#x" y="223.474"/><use x="321.501" xlink:href="#x" y="222.186"/><use x="336.282" xlink:href="#x" y="220.233"/><use x="351.063" xlink:href="#x" y="219.689"/><use x="365.844" xlink:href="#x" y="217.727"/><use x="380.625" xlink:href="#x" y="215.548"/><use x="395.407" xlink:href="#x" y="212.656"/><use x="410.188" xlink:href="#x" y="210.239"/><use x="424.969" xlink:href="#x" y="208.482"/><use x="439.75" xlink:href="#x" y="208.29"/><use x="454.532" xlink:href="#x" y="207.211"/><use x="469.313" xlink:href="#x" y="205.577"/><use x="484.094" xlink:href="#x" y="204.103"/><use x="498.875" xlink:href="#x" y="202.103"/><use x="513.656" xlink:href="#x" y="200.656"/></g></g><g stroke="#9467bd"><path clip-path="url(#a)" d="M-1 234.208l12.095-.012 14.781-.03 14.782-.006 14.78-.04 14.782-.044 14.781-.134 14.781-.145 14.782-.083 14.78-.041 14.782-.276 14.781-.239h14.781l14.782-.665 14.78-.395 14.782-.016 14.781-1.024 14.782-.508 14.78-.674 14.782-.856 14.781-.758 14.781-.77 14.782.195 14.78-1.83 14.782-.58 14.781-1.047 14.781-1.25 14.782-1.378 14.78-2.149 14.782-.397 14.781-1.627 14.782-2.76 14.78-1.413 14.782.33 14.781-1.262 14.781-11.399" fill="none" stroke-linecap="square" stroke-width="1.5"/><g clip-path="url(#a)" fill="#9467bd"><use x="-1" xlink:href="#y" y="234.208"/><use x="11.095" xlink:href="#y" y="234.196"/><use x="25.876" xlink:href="#y" y="234.166"/><use x="40.658" xlink:href="#y" y="234.16"/><use x="55.439" xlink:href="#y" y="234.121"/><use x="70.22" xlink:href="#y" y="234.076"/><use x="85.001" xlink:href="#y" y="233.942"/><use x="99.782" xlink:href="#y" y="233.797"/><use x="114.564" xlink:href="#y" y="233.714"/><use x="129.345" xlink:href="#y" y="233.673"/><use x="144.126" xlink:href="#y" y="233.397"/><use x="158.907" xlink:href="#y" y="233.158"/><use x="173.688" xlink:href="#y" y="233.158"/><use x="188.47" xlink:href="#y" y="232.493"/><use x="203.251" xlink:href="#y" y="232.098"/><use x="218.032" xlink:href="#y" y="232.082"/><use x="232.813" xlink:href="#y" y="231.058"/><use x="247.595" xlink:href="#y" y="230.55"/><use x="262.376" xlink:href="#y" y="229.876"/><use x="277.157" xlink:href="#y" y="229.02"/><use x="291.938" xlink:href="#y" y="228.262"/><use x="306.719" xlink:href="#y" y="227.492"/><use x="321.501" xlink:href="#y" y="227.687"/><use x="336.282" xlink:href="#y" y="225.858"/><use x="351.063" xlink:href="#y" y="225.278"/><use x="365.844" xlink:href="#y" y="224.23"/><use x="380.625" xlink:href="#y" y="222.981"/><use x="395.407" xlink:href="#y" y="221.602"/><use x="410.188" xlink:href="#y" y="219.453"/><use x="424.969" xlink:href="#y" y="219.056"/><use x="439.75" xlink:href="#y" y="217.429"/><use x="454.532" xlink:href="#y" y="214.669"/><use x="469.313" xlink:href="#y" y="213.256"/><use x="484.094" xlink:href="#y" y="213.586"/><use x="498.875" xlink:href="#y" y="212.324"/><use x="513.656" xlink:href="#y" y="200.925"/></g></g><path clip-path="url(#a)" d="M513.656 93.566l14.782-17.205 14.78-19.308L558 35.383" fill="none" stroke="#1f77b4" stroke-dasharray="1.5 2.475" stroke-width="1.5"/><path clip-path="url(#a)" d="M513.656 190.798l14.782-1.353 14.78-1.395L558 186.612" fill="none" stroke="#ff7f0e" stroke-dasharray="1.5 2.475" stroke-width="1.5"/><path clip-path="url(#a)" d="M513.656 194.87l14.782-1.357 14.78-1.405L558 190.656" fill="none" stroke="#2ca02c" stroke-dasharray="1.5 2.475" stroke-width="1.5"/><path clip-path="url(#a)" d="M513.656 200.656l14.782-1.812 14.78-1.91L558 194.92" fill="none" stroke="#d62728" stroke-dasharray="1.5 2.475" stroke-width="1.5"/><path clip-path="url(#a)" d="M513.656 200.925l14.782-7.264 14.78-8.846L558 174.04" fill="none" stroke="#9467bd" stroke-dasharray="1.5 2.475" stroke-width="1.5"/><path d="M70.22 234.248V25.44M558 234.248V25.44M70.22 234.248H558M70.22 25.44H558" fill="none" stroke="#000" stroke-linecap="square" stroke-linejoin="miter" stroke-width=".8"/><g transform="matrix(.12 0 0 -.12 192.33 19.44)"><use xlink:href="#c"/><use x="68.393" xlink:href="#z"/><use x="123.373" xlink:href="#A"/><use x="162.582" xlink:href="#t"/><path d="M193.35 54.688h9.515L219.96 8.797l17.094 45.89h9.515L226.053 0H213.85z"/><use x="249.545" xlink:href="#u"/><use x="342.855" xlink:href="#B"/><path d="M452.086 66.219q-10.75 0-17.078-8.016-6.313-8-6.313-21.828 0-13.766 6.313-21.781 6.328-8 17.078-8 10.734 0 17.016 8 6.28 8.015 6.28 21.781 0 13.828-6.28 21.828-6.282 8.016-17.016 8.016zm0 8q15.328 0 24.5-10.281 9.187-10.282 9.187-27.563 0-17.234-9.187-27.516-9.172-10.28-24.5-10.28-15.375 0-24.594 10.25-9.203 10.265-9.203 27.546t9.203 27.563q9.219 10.28 24.594 10.28zM519.984 0l-27.828 72.906h10.297l23.11-61.375 23.14 61.375h10.25L531.172 0z"/><use x="559.783" xlink:href="#C"/><path d="M608.947 64.797V8.109h11.922q15.094 0 22.094 6.829 7 6.843 7 21.593 0 14.64-7 21.453-7 6.813-22.094 6.813zm-9.86 8.11h20.267q21.187 0 31.093-8.813 9.922-8.813 9.922-27.563 0-18.86-9.969-27.703Q640.447 0 619.354 0h-20.266z"/><use x="666.277" xlink:href="#D"/><use x="702.361" xlink:href="#j"/><use x="765.984" xlink:href="#i"/><use x="861.395" xlink:href="#z"/><use x="916.375" xlink:href="#E"/><use x="977.654" xlink:href="#F"/><use x="1029.754" xlink:href="#u"/><use x="1091.277" xlink:href="#F"/><use x="1175.164" xlink:href="#E"/><use x="1236.443" xlink:href="#F"/><use x="1320.33" xlink:href="#p"/><use x="1381.512" xlink:href="#G"/><use x="1448.504" xlink:href="#f"/><use x="1512.127" xlink:href="#g"/><use x="1575.75" xlink:href="#f"/><use x="1639.373" xlink:href="#g"/><use x="1702.996" xlink:href="#D"/><use x="1739.08" xlink:href="#g"/><use x="1802.703" xlink:href="#o"/><use x="1866.326" xlink:href="#D"/><use x="1902.41" xlink:href="#g"/><use x="1966.033" xlink:href="#o"/></g><g><path d="M77.22 106.83h192.931q2 0 2-2V32.44q0-2-2-2H77.22q-2 0-2 2v72.39q0 2 2 2z" fill="#fff" opacity=".8" stroke="#ccc" stroke-linejoin="miter"/><path d="M79.22 38.538h20" fill="none" stroke="#1f77b4" stroke-linecap="square" stroke-width="1.5"/><use fill="#1f77b4" stroke="#1f77b4" x="89.22" xlink:href="#v" y="38.538"/><g transform="matrix(.1 0 0 -.1 107.22 42.038)"><use xlink:href="#H"/><use x="73.193" xlink:href="#I"/><use x="168.457" xlink:href="#J"/><use x="207.471" xlink:href="#r"/><use x="270.947" xlink:href="#p"/><use x="332.129" xlink:href="#K"/><use x="395.508" xlink:href="#L"/><use x="458.984" xlink:href="#q"/><use x="486.768" xlink:href="#u"/><use x="548.291" xlink:href="#F"/><use x="632.178" xlink:href="#t"/><use x="659.961" xlink:href="#M"/><use x="755.127" xlink:href="#k"/><use x="818.75" xlink:href="#N"/><use x="850.537" xlink:href="#g"/><use x="945.947" xlink:href="#r"/><use x="1009.424" xlink:href="#E"/><use x="1070.703" xlink:href="#O"/><use x="1129.883" xlink:href="#F"/><use x="1181.982" xlink:href="#P"/></g><path d="M79.22 53.217h20" fill="none" stroke="#ff7f0e" stroke-linecap="square" stroke-width="1.5"/><use fill="#ff7f0e" stroke="#ff7f0e" x="89.22" xlink:href="#w" y="53.217"/><g transform="matrix(.1 0 0 -.1 107.22 56.717)"><use xlink:href="#C"/><use x="29.492" xlink:href="#A"/><use x="68.701" xlink:href="#E"/><use x="129.98" xlink:href="#q"/><use x="157.764" xlink:href="#O"/><use x="248.73" xlink:href="#J"/><use x="287.744" xlink:href="#r"/><use x="351.221" xlink:href="#p"/><use x="412.402" xlink:href="#K"/><use x="475.781" xlink:href="#L"/><use x="539.258" xlink:href="#q"/><use x="567.041" xlink:href="#u"/><use x="628.564" xlink:href="#F"/><use x="712.451" xlink:href="#t"/><use x="740.234" xlink:href="#M"/><use x="835.4" xlink:href="#f"/><use x="899.023" xlink:href="#f"/><use x="962.646" xlink:href="#N"/><use x="994.434" xlink:href="#k"/><use x="1089.844" xlink:href="#r"/><use x="1153.32" xlink:href="#E"/><use x="1214.6" xlink:href="#O"/><use x="1273.779" xlink:href="#F"/><use x="1325.879" xlink:href="#P"/></g><path d="M79.22 67.895h20" fill="none" stroke="#2ca02c" stroke-linecap="square" stroke-width="1.5"/><g transform="matrix(.1 0 0 -.1 107.22 71.395)"><use xlink:href="#I"/><use x="63.477" xlink:href="#d"/><use x="126.953" xlink:href="#E"/><use x="188.232" xlink:href="#t"/><use x="216.016" xlink:href="#M"/><use x="311.182" xlink:href="#J"/><use x="350.195" xlink:href="#r"/><use x="413.672" xlink:href="#p"/><use x="474.854" xlink:href="#K"/><use x="538.232" xlink:href="#L"/><use x="601.709" xlink:href="#q"/><use x="629.492" xlink:href="#u"/><use x="691.016" xlink:href="#F"/><use x="774.902" xlink:href="#t"/><use x="802.686" xlink:href="#M"/><use x="897.852" xlink:href="#f"/><use x="961.475" xlink:href="#g"/><use x="1025.098" xlink:href="#N"/><use x="1056.885" xlink:href="#n"/><use x="1152.295" xlink:href="#r"/><use x="1215.771" xlink:href="#E"/><use x="1277.051" xlink:href="#O"/><use x="1336.23" xlink:href="#F"/><use x="1388.33" xlink:href="#P"/></g><path d="M79.22 82.573h20" fill="none" stroke="#d62728" stroke-linecap="square" stroke-width="1.5"/><use fill="#d62728" stroke="#d62728" x="89.22" xlink:href="#x" y="82.573"/><g transform="matrix(.1 0 0 -.1 107.22 86.073)"><path d="M59.516 10.406v19.578h-16.11v8.11h25.875V6.78Q63.578 2.734 56.687.656 49.813-1.422 42-1.422q-17.094 0-26.75 9.985-9.64 10-9.64 27.812 0 17.875 9.64 27.86 9.656 9.984 26.75 9.984 7.125 0 13.547-1.766 6.422-1.75 11.844-5.172v-10.5q-5.47 4.64-11.625 6.985-6.157 2.343-12.938 2.343-13.39 0-20.11-7.468-6.702-7.47-6.702-22.266 0-14.75 6.703-22.219 6.718-7.469 20.11-7.469 5.218 0 9.312.907 4.109.906 7.375 2.812z"/><use x="77.49" xlink:href="#u"/><use x="139.014" xlink:href="#e"/><path d="M232.111 44.188q3.375 6.062 8.063 8.937Q244.86 56 251.205 56q8.547 0 13.188-5.984 4.64-5.97 4.64-17V0h-9.031v32.719q0 7.86-2.797 11.656-2.781 3.813-8.484 3.813-6.985 0-11.047-4.641-4.047-4.625-4.047-12.64V0h-9.031v32.719q0 7.906-2.782 11.687-2.78 3.782-8.593 3.782-6.89 0-10.953-4.657-4.047-4.656-4.047-12.625V0h-9.032v54.688h9.032v-8.5q3.078 5.03 7.375 7.421Q209.893 56 215.799 56q5.969 0 10.14-3.031 4.172-3.016 6.172-8.782z"/><use x="277.523" xlink:href="#E"/><use x="338.803" xlink:href="#M"/><use x="402.182" xlink:href="#O"/><use x="493.148" xlink:href="#J"/><use x="532.162" xlink:href="#r"/><use x="595.639" xlink:href="#p"/><use x="656.82" xlink:href="#K"/><use x="720.199" xlink:href="#L"/><use x="783.676" xlink:href="#q"/><use x="811.459" xlink:href="#u"/><use x="872.982" xlink:href="#F"/><use x="956.869" xlink:href="#t"/><use x="984.652" xlink:href="#M"/><use x="1079.818" xlink:href="#j"/><use x="1143.441" xlink:href="#l"/><use x="1207.064" xlink:href="#N"/><use x="1238.852" xlink:href="#f"/><use x="1334.262" xlink:href="#r"/><use x="1397.738" xlink:href="#E"/><use x="1459.018" xlink:href="#O"/><use x="1518.197" xlink:href="#F"/><use x="1570.297" xlink:href="#P"/></g><path d="M79.22 97.25h20" fill="none" stroke="#9467bd" stroke-linecap="square" stroke-width="1.5"/><use fill="#9467bd" stroke="#9467bd" x="89.22" xlink:href="#y" y="97.251"/><g transform="matrix(.1 0 0 -.1 107.22 100.75)"><path d="M9.813 72.906h41.89v-8.312H19.672V43.109h28.906v-8.297H19.672V0h-9.86z"/><use x="57.41" xlink:href="#e"/><use x="98.523" xlink:href="#E"/><use x="159.803" xlink:href="#M"/><use x="223.182" xlink:href="#z"/><use x="278.162" xlink:href="#u"/><use x="371.473" xlink:href="#J"/><use x="410.486" xlink:href="#r"/><use x="473.963" xlink:href="#p"/><use x="535.145" xlink:href="#K"/><use x="598.523" xlink:href="#L"/><use x="662" xlink:href="#q"/><use x="689.783" xlink:href="#u"/><use x="751.307" xlink:href="#F"/><use x="835.193" xlink:href="#t"/><use x="862.977" xlink:href="#M"/><use x="958.143" xlink:href="#l"/><use x="1021.766" xlink:href="#N"/><use x="1053.553" xlink:href="#n"/><use x="1148.963" xlink:href="#r"/><use x="1212.439" xlink:href="#E"/><use x="1273.719" xlink:href="#O"/><use x="1332.898" xlink:href="#F"/><use x="1384.998" xlink:href="#P"/></g></g><g><path d="M70.22 505.928H558V297.12H70.22z" fill="#fff"/><g stroke-width=".8"><path clip-path="url(#Q)" d="M70.22 505.928V297.12" fill="none" stroke="#b0b0b0" stroke-linecap="square"/><use stroke="#000" x="70.22" xlink:href="#b" y="505.928"/></g><path clip-path="url(#Q)" d="M469.313 505.928V297.12" fill="none" stroke="#b0b0b0" stroke-linecap="square" stroke-width=".8"/><use stroke="#000" stroke-width=".8" x="469.313" xlink:href="#b" y="505.928"/><g transform="matrix(.1 0 0 -.1 460.663 542.922)"><use xlink:href="#c"/><use x="68.408" xlink:href="#d"/><use x="131.885" xlink:href="#e"/></g><g transform="matrix(.1 0 0 -.1 456.588 554.12)"><use xlink:href="#f"/><use x="63.623" xlink:href="#g"/><use x="127.246" xlink:href="#f"/><use x="190.869" xlink:href="#g"/></g><g stroke-width=".8"><path clip-path="url(#Q)" d="M558 505.928V297.12" fill="none" stroke="#b0b0b0" stroke-linecap="square"/><use stroke="#000" x="558" xlink:href="#b" y="505.928"/></g><use stroke="#000" stroke-width=".6" x="85.001" xlink:href="#h" y="505.928"/><use stroke="#000" stroke-width=".6" x="99.782" xlink:href="#h" y="505.928"/><use stroke="#000" stroke-width=".6" x="114.564" xlink:href="#h" y="505.928"/><use stroke="#000" stroke-width=".6" x="129.345" xlink:href="#h" y="505.928"/><g transform="matrix(.1 0 0 -.1 122.982 518.926)"><use xlink:href="#g"/><use x="63.623" xlink:href="#i"/></g><g stroke="#000" stroke-width=".6"><use x="144.126" xlink:href="#h" y="505.928"/><use x="158.907" xlink:href="#h" y="505.928"/><use x="173.688" xlink:href="#h" y="505.928"/><use x="188.47" xlink:href="#h" y="505.928"/><use x="203.251" xlink:href="#h" y="505.928"/><use x="218.032" xlink:href="#h" y="505.928"/></g><use stroke="#000" stroke-width=".6" x="232.813" xlink:href="#h" y="505.928"/><g transform="matrix(.1 0 0 -.1 226.45 518.926)"><use xlink:href="#j"/><use x="63.623" xlink:href="#k"/></g><use stroke="#000" stroke-width=".6" x="247.595" xlink:href="#h" y="505.928"/><use stroke="#000" stroke-width=".6" x="262.376" xlink:href="#h" y="505.928"/><use stroke="#000" stroke-width=".6" x="277.157" xlink:href="#h" y="505.928"/><use stroke="#000" stroke-width=".6" x="291.938" xlink:href="#h" y="505.928"/><use stroke="#000" stroke-width=".6" x="306.719" xlink:href="#h" y="505.928"/><use stroke="#000" stroke-width=".6" x="321.501" xlink:href="#h" y="505.928"/><use stroke="#000" stroke-width=".6" x="336.282" xlink:href="#h" y="505.928"/><g transform="matrix(.1 0 0 -.1 329.92 518.926)"><use xlink:href="#f"/><use x="63.623" xlink:href="#l"/></g><use stroke="#000" stroke-width=".6" x="351.063" xlink:href="#h" y="505.928"/><use stroke="#000" stroke-width=".6" x="365.844" xlink:href="#h" y="505.928"/><use stroke="#000" stroke-width=".6" x="380.625" xlink:href="#h" y="505.928"/><use stroke="#000" stroke-width=".6" x="395.407" xlink:href="#h" y="505.928"/><use stroke="#000" stroke-width=".6" x="410.188" xlink:href="#h" y="505.928"/><use stroke="#000" stroke-width=".6" x="424.969" xlink:href="#h" y="505.928"/><use stroke="#000" stroke-width=".6" x="439.75" xlink:href="#h" y="505.928"/><g transform="matrix(.1 0 0 -.1 433.388 518.926)"><use xlink:href="#l"/><use x="63.623" xlink:href="#g"/></g><use stroke="#000" stroke-width=".6" x="454.532" xlink:href="#h" y="505.928"/><use stroke="#000" stroke-width=".6" x="484.094" xlink:href="#h" y="505.928"/><use stroke="#000" stroke-width=".6" x="498.875" xlink:href="#h" y="505.928"/><use stroke="#000" stroke-width=".6" x="513.656" xlink:href="#h" y="505.928"/><use stroke="#000" stroke-width=".6" x="528.438" xlink:href="#h" y="505.928"/><g><use stroke="#000" stroke-width=".6" x="543.219" xlink:href="#h" y="505.928"/><g transform="matrix(.1 0 0 -.1 536.856 518.926)"><use xlink:href="#g"/><use x="63.623" xlink:href="#k"/></g></g><g><path clip-path="url(#Q)" d="M70.22 479.155H558" fill="none" stroke="#b0b0b0" stroke-linecap="square" stroke-width=".8"/><use stroke="#000" stroke-width=".8" x="70.22" xlink:href="#m" y="479.155"/><g transform="matrix(.1 0 0 -.1 31.407 482.954)"><use xlink:href="#f"/><use x="63.623" xlink:href="#g"/><use x="127.246" xlink:href="#g"/><use x="190.869" xlink:href="#g"/><use x="254.492" xlink:href="#g"/></g><path clip-path="url(#Q)" d="M70.22 452.368H558" fill="none" stroke="#b0b0b0" stroke-linecap="square" stroke-width=".8"/><use stroke="#000" stroke-width=".8" x="70.22" xlink:href="#m" y="452.368"/><g transform="matrix(.1 0 0 -.1 31.407 456.167)"><use xlink:href="#o"/><use x="63.623" xlink:href="#g"/><use x="127.246" xlink:href="#g"/><use x="190.869" xlink:href="#g"/><use x="254.492" xlink:href="#g"/></g><path clip-path="url(#Q)" d="M70.22 425.581H558" fill="none" stroke="#b0b0b0" stroke-linecap="square" stroke-width=".8"/><use stroke="#000" stroke-width=".8" x="70.22" xlink:href="#m" y="425.581"/><g transform="matrix(.1 0 0 -.1 31.407 429.38)"><use xlink:href="#k"/><use x="63.623" xlink:href="#g"/><use x="127.246" xlink:href="#g"/><use x="190.869" xlink:href="#g"/><use x="254.492" xlink:href="#g"/></g><g><path clip-path="url(#Q)" d="M70.22 398.795H558" fill="none" stroke="#b0b0b0" stroke-linecap="square" stroke-width=".8"/><use stroke="#000" stroke-width=".8" x="70.22" xlink:href="#m" y="398.795"/><g transform="matrix(.1 0 0 -.1 31.407 402.594)"><path d="M31.781 34.625q-7.031 0-11.062-3.766-4.016-3.765-4.016-10.343 0-6.594 4.016-10.36Q24.75 6.391 31.78 6.391q7.032 0 11.078 3.78 4.063 3.798 4.063 10.345 0 6.578-4.031 10.343-4.016 3.766-11.11 3.766zm-9.86 4.188q-6.343 1.562-9.89 5.906Q8.5 49.079 8.5 55.329q0 8.733 6.219 13.812 6.234 5.078 17.062 5.078 10.89 0 17.094-5.078 6.203-5.079 6.203-13.813 0-6.25-3.547-10.61-3.531-4.343-9.828-5.906 7.125-1.656 11.094-6.5 3.984-4.828 3.984-11.796 0-10.61-6.468-16.282-6.47-5.656-18.532-5.656-12.047 0-18.531 5.656-6.469 5.672-6.469 16.282 0 6.968 4 11.797 4.016 4.843 11.14 6.5zM18.314 54.39q0-5.657 3.53-8.828 3.548-3.172 9.938-3.172 6.36 0 9.938 3.172 3.593 3.171 3.593 8.828 0 5.672-3.593 8.843-3.578 3.172-9.938 3.172-6.39 0-9.937-3.172-3.532-3.172-3.532-8.843z"/><use x="63.623" xlink:href="#g"/><use x="127.246" xlink:href="#g"/><use x="190.869" xlink:href="#g"/><use x="254.492" xlink:href="#g"/></g></g><g><path clip-path="url(#Q)" d="M70.22 372.008H558" fill="none" stroke="#b0b0b0" stroke-linecap="square" stroke-width=".8"/><use stroke="#000" stroke-width=".8" x="70.22" xlink:href="#m" y="372.008"/><g transform="matrix(.1 0 0 -.1 25.045 375.807)"><use xlink:href="#j"/><use x="63.623" xlink:href="#g"/><use x="127.246" xlink:href="#g"/><use x="190.869" xlink:href="#g"/><use x="254.492" xlink:href="#g"/><use x="318.115" xlink:href="#g"/></g></g><g><path clip-path="url(#Q)" d="M70.22 345.221H558" fill="none" stroke="#b0b0b0" stroke-linecap="square" stroke-width=".8"/><use stroke="#000" stroke-width=".8" x="70.22" xlink:href="#m" y="345.221"/><g transform="matrix(.1 0 0 -.1 25.045 349.02)"><use xlink:href="#j"/><use x="63.623" xlink:href="#f"/><use x="127.246" xlink:href="#g"/><use x="190.869" xlink:href="#g"/><use x="254.492" xlink:href="#g"/><use x="318.115" xlink:href="#g"/></g></g><g><path clip-path="url(#Q)" d="M70.22 318.434H558" fill="none" stroke="#b0b0b0" stroke-linecap="square" stroke-width=".8"/><use stroke="#000" stroke-width=".8" x="70.22" xlink:href="#m" y="318.434"/><g transform="matrix(.1 0 0 -.1 25.045 322.234)"><use xlink:href="#j"/><use x="63.623" xlink:href="#o"/><use x="127.246" xlink:href="#g"/><use x="190.869" xlink:href="#g"/><use x="254.492" xlink:href="#g"/><use x="318.115" xlink:href="#g"/></g></g><g transform="matrix(0 -.1 -.1 0 18.965 408.358)"><use xlink:href="#H"/><use x="73.193" xlink:href="#I"/></g></g><g stroke="#1f77b4"><path clip-path="url(#Q)" d="M-1 505.941h26.876l14.782-.002 14.78-.012 14.782-.016 14.781-.018 14.781-.053 14.782-.04 14.78-.049 14.782-.041 14.781-.063 14.781-.145 14.782-.124 14.78-.137 14.782-.276 14.781-.305 14.782-.986 14.78-1.053 14.782-3.82 14.781-3.933 14.781-4.53 14.782-5.401 14.78-6.755 14.782-6.355 14.781-6.81 14.781-9.29 14.782-9.184 14.78-9.821 14.782-9.377 14.781-9.056 14.782-11.838 14.78-10.345 14.782-10.883 14.781-13.285 14.781-13.683" fill="none" stroke-linecap="square" stroke-width="1.5"/><g clip-path="url(#Q)" fill="#1f77b4"><use x="-1" xlink:href="#v" y="505.941"/><use x="11.095" xlink:href="#v" y="505.941"/><use x="25.876" xlink:href="#v" y="505.94"/><use x="40.658" xlink:href="#v" y="505.939"/><use x="55.439" xlink:href="#v" y="505.927"/><use x="70.22" xlink:href="#v" y="505.911"/><use x="85.001" xlink:href="#v" y="505.893"/><use x="99.782" xlink:href="#v" y="505.84"/><use x="114.564" xlink:href="#v" y="505.799"/><use x="129.345" xlink:href="#v" y="505.751"/><use x="144.126" xlink:href="#v" y="505.71"/><use x="158.907" xlink:href="#v" y="505.647"/><use x="173.688" xlink:href="#v" y="505.502"/><use x="188.47" xlink:href="#v" y="505.378"/><use x="203.251" xlink:href="#v" y="505.241"/><use x="218.032" xlink:href="#v" y="504.965"/><use x="232.813" xlink:href="#v" y="504.66"/><use x="247.595" xlink:href="#v" y="503.674"/><use x="262.376" xlink:href="#v" y="502.621"/><use x="277.157" xlink:href="#v" y="498.801"/><use x="291.938" xlink:href="#v" y="494.868"/><use x="306.719" xlink:href="#v" y="490.338"/><use x="321.501" xlink:href="#v" y="484.937"/><use x="336.282" xlink:href="#v" y="478.182"/><use x="351.063" xlink:href="#v" y="471.827"/><use x="365.844" xlink:href="#v" y="465.017"/><use x="380.625" xlink:href="#v" y="455.727"/><use x="395.407" xlink:href="#v" y="446.543"/><use x="410.188" xlink:href="#v" y="436.722"/><use x="424.969" xlink:href="#v" y="427.345"/><use x="439.75" xlink:href="#v" y="418.289"/><use x="454.532" xlink:href="#v" y="406.451"/><use x="469.313" xlink:href="#v" y="396.106"/><use x="484.094" xlink:href="#v" y="385.223"/><use x="498.875" xlink:href="#v" y="371.938"/><use x="513.656" xlink:href="#v" y="358.255"/></g></g><g stroke="#ff7f0e"><path clip-path="url(#Q)" d="M-1 505.941h56.438l14.782-.002h14.781l14.781-.003 14.782-.001h14.78l14.782-.012 14.781-.011 14.781-.008h14.782l14.78-.054 14.782-.037 14.781-.106 14.782-.118 14.78-.001 14.782-.628 14.781-.196 14.781-.578 14.782-.781 14.78-1.237 14.782-1.09 14.781-.95 14.781-3.287 14.782-2.575 14.78-3.036 14.782-3.001 14.781-4.304 14.782-2.666 14.78-4.65 14.782-4.222 14.781-5.62 14.781-5.396" fill="none" stroke-linecap="square" stroke-width="1.5"/><g clip-path="url(#Q)" fill="#ff7f0e"><use x="-1" xlink:href="#w" y="505.941"/><use x="11.095" xlink:href="#w" y="505.941"/><use x="25.876" xlink:href="#w" y="505.941"/><use x="40.658" xlink:href="#w" y="505.941"/><use x="55.439" xlink:href="#w" y="505.941"/><use x="70.22" xlink:href="#w" y="505.939"/><use x="85.001" xlink:href="#w" y="505.939"/><use x="99.782" xlink:href="#w" y="505.936"/><use x="114.564" xlink:href="#w" y="505.935"/><use x="129.345" xlink:href="#w" y="505.935"/><use x="144.126" xlink:href="#w" y="505.923"/><use x="158.907" xlink:href="#w" y="505.912"/><use x="173.688" xlink:href="#w" y="505.904"/><use x="188.47" xlink:href="#w" y="505.904"/><use x="203.251" xlink:href="#w" y="505.85"/><use x="218.032" xlink:href="#w" y="505.813"/><use x="232.813" xlink:href="#w" y="505.707"/><use x="247.595" xlink:href="#w" y="505.589"/><use x="262.376" xlink:href="#w" y="505.588"/><use x="277.157" xlink:href="#w" y="504.96"/><use x="291.938" xlink:href="#w" y="504.764"/><use x="306.719" xlink:href="#w" y="504.186"/><use x="321.501" xlink:href="#w" y="503.405"/><use x="336.282" xlink:href="#w" y="502.168"/><use x="351.063" xlink:href="#w" y="501.078"/><use x="365.844" xlink:href="#w" y="500.129"/><use x="380.625" xlink:href="#w" y="496.841"/><use x="395.407" xlink:href="#w" y="494.266"/><use x="410.188" xlink:href="#w" y="491.23"/><use x="424.969" xlink:href="#w" y="488.229"/><use x="439.75" xlink:href="#w" y="483.925"/><use x="454.532" xlink:href="#w" y="481.259"/><use x="469.313" xlink:href="#w" y="476.61"/><use x="484.094" xlink:href="#w" y="472.387"/><use x="498.875" xlink:href="#w" y="466.767"/><use x="513.656" xlink:href="#w" y="461.371"/></g></g><path clip-path="url(#Q)" d="M-1 505.941h145.126l14.781-.002h14.781l14.782-.019 14.78-.012 14.782-.01 14.781-.028 14.782-.016 14.78-.024 14.782-.332 14.781-.292 14.781-.313 14.782-.326 14.78-.385 14.782-.61 14.781-.648 14.781-.711 14.782-1.016 14.78-1.335 14.782-1.094 14.781-1.283 14.782-1.396 14.78-2.175 14.782-1.867 14.781-2.533 14.781-1.901" fill="none" stroke="#2ca02c" stroke-linecap="square" stroke-width="1.5"/><g stroke="#d62728"><path clip-path="url(#Q)" d="M-1 505.928h12.095l14.781-.012 14.782-.005 14.78-.012 14.782-.022 14.781-.01 14.781-.031 14.782-.022 14.78-.008 14.782-.052 14.781-.043 14.781-.052 14.782-.082 14.78-.076 14.782-.114 14.781-.174 14.782-.182 14.78-.078 14.782-.263 14.781-.294 14.781-.25 14.782-.369 14.78-.607 14.782-.56 14.781-.597 14.781-1.185 14.782-.998 14.78-.565 14.782-.995 14.781-1.693 14.782-1.4 14.78-1.557 14.782-1.789 14.781-1.612 14.781-1.084" fill="none" stroke-linecap="square" stroke-width="1.5"/><g clip-path="url(#Q)" fill="#d62728"><use x="-1" xlink:href="#x" y="505.928"/><use x="11.095" xlink:href="#x" y="505.928"/><use x="25.876" xlink:href="#x" y="505.916"/><use x="40.658" xlink:href="#x" y="505.911"/><use x="55.439" xlink:href="#x" y="505.899"/><use x="70.22" xlink:href="#x" y="505.877"/><use x="85.001" xlink:href="#x" y="505.866"/><use x="99.782" xlink:href="#x" y="505.836"/><use x="114.564" xlink:href="#x" y="505.814"/><use x="129.345" xlink:href="#x" y="505.806"/><use x="144.126" xlink:href="#x" y="505.754"/><use x="158.907" xlink:href="#x" y="505.711"/><use x="173.688" xlink:href="#x" y="505.659"/><use x="188.47" xlink:href="#x" y="505.577"/><use x="203.251" xlink:href="#x" y="505.501"/><use x="218.032" xlink:href="#x" y="505.387"/><use x="232.813" xlink:href="#x" y="505.213"/><use x="247.595" xlink:href="#x" y="505.031"/><use x="262.376" xlink:href="#x" y="504.953"/><use x="277.157" xlink:href="#x" y="504.69"/><use x="291.938" xlink:href="#x" y="504.396"/><use x="306.719" xlink:href="#x" y="504.147"/><use x="321.501" xlink:href="#x" y="503.777"/><use x="336.282" xlink:href="#x" y="503.17"/><use x="351.063" xlink:href="#x" y="502.609"/><use x="365.844" xlink:href="#x" y="502.013"/><use x="380.625" xlink:href="#x" y="500.828"/><use x="395.407" xlink:href="#x" y="499.83"/><use x="410.188" xlink:href="#x" y="499.265"/><use x="424.969" xlink:href="#x" y="498.27"/><use x="439.75" xlink:href="#x" y="496.577"/><use x="454.532" xlink:href="#x" y="495.177"/><use x="469.313" xlink:href="#x" y="493.62"/><use x="484.094" xlink:href="#x" y="491.831"/><use x="498.875" xlink:href="#x" y="490.219"/><use x="513.656" xlink:href="#x" y="489.135"/></g></g><g stroke="#9467bd"><path clip-path="url(#Q)" d="M-1 505.941h145.126l14.781-.008 14.781-.017 14.782-.023 14.78-.053 14.782-.018 14.781-.059 14.782-.079 14.78-.081 14.782-.173 14.781-.19 14.781-.06 14.782-.333 14.78-.428 14.782-.275 14.781-.52 14.781-.657 14.782-.541 14.78-.741 14.782-.283 14.781-.604 14.782-1.55 14.78-1.545 14.782-3.613 14.781-1.444 14.781-2.893" fill="none" stroke-linecap="square" stroke-width="1.5"/><g clip-path="url(#Q)" fill="#9467bd"><use x="-1" xlink:href="#y" y="505.941"/><use x="11.095" xlink:href="#y" y="505.941"/><use x="25.876" xlink:href="#y" y="505.941"/><use x="40.658" xlink:href="#y" y="505.941"/><use x="55.439" xlink:href="#y" y="505.941"/><use x="70.22" xlink:href="#y" y="505.941"/><use x="85.001" xlink:href="#y" y="505.941"/><use x="99.782" xlink:href="#y" y="505.941"/><use x="114.564" xlink:href="#y" y="505.941"/><use x="129.345" xlink:href="#y" y="505.94"/><use x="144.126" xlink:href="#y" y="505.94"/><use x="158.907" xlink:href="#y" y="505.933"/><use x="173.688" xlink:href="#y" y="505.916"/><use x="188.47" xlink:href="#y" y="505.893"/><use x="203.251" xlink:href="#y" y="505.84"/><use x="218.032" xlink:href="#y" y="505.822"/><use x="232.813" xlink:href="#y" y="505.763"/><use x="247.595" xlink:href="#y" y="505.684"/><use x="262.376" xlink:href="#y" y="505.603"/><use x="277.157" xlink:href="#y" y="505.43"/><use x="291.938" xlink:href="#y" y="505.24"/><use x="306.719" xlink:href="#y" y="505.179"/><use x="321.501" xlink:href="#y" y="504.847"/><use x="336.282" xlink:href="#y" y="504.419"/><use x="351.063" xlink:href="#y" y="504.144"/><use x="365.844" xlink:href="#y" y="503.624"/><use x="380.625" xlink:href="#y" y="502.967"/><use x="395.407" xlink:href="#y" y="502.426"/><use x="410.188" xlink:href="#y" y="501.685"/><use x="424.969" xlink:href="#y" y="501.402"/><use x="439.75" xlink:href="#y" y="500.798"/><use x="454.532" xlink:href="#y" y="499.247"/><use x="469.313" xlink:href="#y" y="497.703"/><use x="484.094" xlink:href="#y" y="494.09"/><use x="498.875" xlink:href="#y" y="492.646"/><use x="513.656" xlink:href="#y" y="489.753"/></g></g><path clip-path="url(#Q)" d="M513.656 358.255l14.782-15.401 14.78-17.008L558 307.064" fill="none" stroke="#1f77b4" stroke-dasharray="1.5 2.475" stroke-width="1.5"/><path clip-path="url(#Q)" d="M513.656 461.371l14.782-6.669 14.78-7.666L558 438.222" fill="none" stroke="#ff7f0e" stroke-dasharray="1.5 2.475" stroke-width="1.5"/><path clip-path="url(#Q)" d="M513.656 487.613l14.782-2.706 14.78-3.104L558 478.24" fill="none" stroke="#2ca02c" stroke-dasharray="1.5 2.475" stroke-width="1.5"/><path clip-path="url(#Q)" d="M513.656 489.135l14.782-1.697 14.78-1.87L558 483.51" fill="none" stroke="#d62728" stroke-dasharray="1.5 2.475" stroke-width="1.5"/><path clip-path="url(#Q)" d="M513.656 489.753l14.782-3.65 14.78-4.475L558 476.145" fill="none" stroke="#9467bd" stroke-dasharray="1.5 2.475" stroke-width="1.5"/><path d="M70.22 505.928V297.12M558 505.928V297.12M70.22 505.928H558M70.22 297.12H558" fill="none" stroke="#000" stroke-linecap="square" stroke-linejoin="miter" stroke-width=".8"/><g><path d="M77.22 378.51h195.919q2 0 2-2v-72.39q0-2-2-2H77.22q-2 0-2 2v72.39q0 2 2 2z" fill="#fff" opacity=".8" stroke="#ccc" stroke-linejoin="miter"/><path d="M79.22 310.218h20" fill="none" stroke="#1f77b4" stroke-linecap="square" stroke-width="1.5"/><use fill="#1f77b4" stroke="#1f77b4" x="89.22" xlink:href="#v" y="310.218"/><g transform="matrix(.1 0 0 -.1 107.22 313.718)"><use xlink:href="#R"/><use x="74.805" xlink:href="#u"/><use x="136.328" xlink:href="#s"/><path d="M249.7 72.906h10.609l20.203-29.984 20.078 29.984h10.594L285.402 34.72V0h-9.906v34.719z"/><use x="310.783" xlink:href="#p"/><use x="371.965" xlink:href="#e"/><path d="M422.156 75.984h9.031V31.11L458 54.687h11.469l-29-25.578L470.703 0h-11.719l-27.796 26.703V0h-9.032z"/><use x="502.775" xlink:href="#J"/><use x="541.789" xlink:href="#r"/><use x="605.266" xlink:href="#p"/><use x="666.447" xlink:href="#K"/><use x="729.826" xlink:href="#L"/><use x="793.303" xlink:href="#q"/><use x="821.086" xlink:href="#u"/><use x="882.609" xlink:href="#F"/><use x="966.496" xlink:href="#t"/><use x="994.279" xlink:href="#M"/><use x="1089.445" xlink:href="#S"/><use x="1153.068" xlink:href="#N"/><use x="1184.855" xlink:href="#g"/><use x="1280.266" xlink:href="#r"/><use x="1343.742" xlink:href="#E"/><use x="1405.021" xlink:href="#O"/><use x="1464.201" xlink:href="#F"/><use x="1516.301" xlink:href="#P"/></g><path d="M79.22 324.897h20" fill="none" stroke="#ff7f0e" stroke-linecap="square" stroke-width="1.5"/><use fill="#ff7f0e" stroke="#ff7f0e" x="89.22" xlink:href="#w" y="324.897"/><g transform="matrix(.1 0 0 -.1 107.22 328.397)"><use xlink:href="#R"/><use x="74.805" xlink:href="#u"/><use x="136.328" xlink:href="#s"/><path d="M259.715 72.906h9.86V5.078q0-13.187-5-19.14-5-5.954-16.095-5.954h-3.75v8.297h3.079q6.53 0 9.218 3.672 2.688 3.656 2.688 13.125z"/><use x="279.395" xlink:href="#u"/><use x="340.918" xlink:href="#e"/><use x="382.031" xlink:href="#F"/><use x="434.131" xlink:href="#u"/><use x="495.654" xlink:href="#O"/><use x="586.621" xlink:href="#J"/><use x="625.635" xlink:href="#r"/><use x="689.111" xlink:href="#p"/><use x="750.293" xlink:href="#K"/><use x="813.672" xlink:href="#L"/><use x="877.148" xlink:href="#q"/><use x="904.932" xlink:href="#u"/><use x="966.455" xlink:href="#F"/><use x="1050.342" xlink:href="#t"/><use x="1078.125" xlink:href="#M"/><use x="1173.291" xlink:href="#n"/><use x="1236.914" xlink:href="#N"/><use x="1268.701" xlink:href="#g"/><use x="1364.111" xlink:href="#r"/><use x="1427.588" xlink:href="#E"/><use x="1488.867" xlink:href="#O"/><use x="1548.047" xlink:href="#F"/><use x="1600.146" xlink:href="#P"/></g><path d="M79.22 339.575h20" fill="none" stroke="#2ca02c" stroke-linecap="square" stroke-width="1.5"/><g transform="matrix(.1 0 0 -.1 107.22 343.075)"><path d="M9.813 72.906h14.703l18.593-49.61 18.703 49.61h14.704V0H66.89v64.016l-18.797-50h-9.907l-18.796 50V0H9.813z"/><use x="86.279" xlink:href="#t"/><use x="114.063" xlink:href="#z"/><path d="M223.934 33.016V0h-8.985v32.719q0 7.765-3.031 11.61-3.031 3.858-9.078 3.858-7.281 0-11.485-4.64-4.203-4.625-4.203-12.64V0h-9.03v75.984h9.03V46.188q3.235 4.937 7.594 7.374Q199.121 56 204.84 56q9.422 0 14.25-5.828 4.844-5.828 4.844-17.156z"/><use x="232.422" xlink:href="#t"/><path d="M305.611 27.984q0 9.766-4.03 15.125-4.017 5.375-11.298 5.375-7.219 0-11.25-5.375-4.031-5.359-4.031-15.125 0-9.718 4.031-15.093t11.25-5.375q7.281 0 11.297 5.375 4.031 5.375 4.031 15.093zm8.985-21.203q0-13.953-6.203-20.765-6.188-6.813-18.985-6.813-4.734 0-8.937.703-4.203.703-8.157 2.172v8.735q3.954-2.141 7.813-3.157 3.86-1.031 7.86-1.031 8.843 0 13.234 4.61 4.39 4.609 4.39 13.937v4.453q-2.78-4.844-7.125-7.234Q294.143 0 288.08 0q-10.047 0-16.203 7.656-6.156 7.672-6.156 20.328 0 12.688 6.156 20.344Q278.033 56 288.08 56q6.063 0 10.406-2.39 4.344-2.391 7.125-7.22v8.297h8.985z"/><use x="323.682" xlink:href="#E"/><use x="384.961" xlink:href="#M"/><use x="480.127" xlink:href="#J"/><use x="519.141" xlink:href="#r"/><use x="582.617" xlink:href="#p"/><use x="643.799" xlink:href="#K"/><use x="707.178" xlink:href="#L"/><use x="770.654" xlink:href="#q"/><use x="798.438" xlink:href="#u"/><use x="859.961" xlink:href="#F"/><use x="943.848" xlink:href="#t"/><use x="971.631" xlink:href="#M"/><use x="1066.797" xlink:href="#n"/><use x="1130.42" xlink:href="#N"/><use x="1162.207" xlink:href="#g"/><use x="1257.617" xlink:href="#r"/><use x="1321.094" xlink:href="#E"/><use x="1382.373" xlink:href="#O"/><use x="1441.553" xlink:href="#F"/><use x="1493.652" xlink:href="#P"/></g><path d="M79.22 354.253h20" fill="none" stroke="#d62728" stroke-linecap="square" stroke-width="1.5"/><use fill="#d62728" stroke="#d62728" x="89.22" xlink:href="#x" y="354.253"/><g transform="matrix(.1 0 0 -.1 107.22 357.753)"><use xlink:href="#B"/><use x="69.824" xlink:href="#E"/><use x="131.104" xlink:href="#q"/><use x="158.887" xlink:href="#t"/><use x="186.67" xlink:href="#G"/><use x="221.875" xlink:href="#p"/><use x="283.057" xlink:href="#e"/><use x="324.154" xlink:href="#M"/><use x="387.533" xlink:href="#t"/><use x="415.316" xlink:href="#E"/><use x="508.383" xlink:href="#J"/><use x="547.396" xlink:href="#r"/><use x="610.873" xlink:href="#p"/><use x="672.055" xlink:href="#K"/><use x="735.434" xlink:href="#L"/><use x="798.91" xlink:href="#q"/><use x="826.693" xlink:href="#u"/><use x="888.217" xlink:href="#F"/><use x="972.104" xlink:href="#t"/><use x="999.887" xlink:href="#M"/><use x="1095.053" xlink:href="#S"/><use x="1158.676" xlink:href="#N"/><use x="1190.463" xlink:href="#f"/><use x="1285.873" xlink:href="#r"/><use x="1349.35" xlink:href="#E"/><use x="1410.629" xlink:href="#O"/><use x="1469.809" xlink:href="#F"/><use x="1521.908" xlink:href="#P"/></g><path d="M79.22 368.93h20" fill="none" stroke="#9467bd" stroke-linecap="square" stroke-width="1.5"/><use fill="#9467bd" stroke="#9467bd" x="89.22" xlink:href="#y" y="368.931"/><g transform="matrix(.1 0 0 -.1 107.22 372.43)"><path d="M9.813 72.906h9.859V8.296h35.5V0H9.812z"/><use x="55.697" xlink:href="#p"/><use x="116.879" xlink:href="#K"/><use x="180.258" xlink:href="#t"/><use x="208.041" xlink:href="#F"/><use x="260.141" xlink:href="#t"/><use x="287.924" xlink:href="#E"/><use x="349.203" xlink:href="#M"/><use x="412.582" xlink:href="#E"/><use x="505.648" xlink:href="#J"/><use x="544.662" xlink:href="#r"/><use x="608.139" xlink:href="#p"/><use x="669.32" xlink:href="#K"/><use x="732.699" xlink:href="#L"/><use x="796.176" xlink:href="#q"/><use x="823.959" xlink:href="#u"/><use x="885.482" xlink:href="#F"/><use x="969.369" xlink:href="#t"/><use x="997.152" xlink:href="#M"/><use x="1092.318" xlink:href="#l"/><use x="1155.941" xlink:href="#N"/><use x="1187.729" xlink:href="#o"/><use x="1283.139" xlink:href="#r"/><use x="1346.615" xlink:href="#E"/><use x="1407.895" xlink:href="#O"/><use x="1467.074" xlink:href="#F"/><use x="1519.174" xlink:href="#P"/></g></g></g></svg>