<svg height="758.4" stroke-linejoin="round" viewBox="0 0 568.8 568.8" width="758.4" xmlns="http://www.w3.org/2000/svg" xmlns:xlink="http://www.w3.org/1999/xlink"><defs><path id="x" d="M56.203 29.594v-4.39H14.891q.593-9.282 5.593-14.142 5-4.859 13.938-4.859 5.172 0 10.031 1.266 4.86 1.265 9.656 3.812v-8.5Q49.266.734 44.187-.344 39.11-1.422 33.892-1.422q-13.094 0-20.735 7.61-7.64 7.625-7.64 20.625 0 13.421 7.25 21.296Q20.016 56 32.328 56q11.031 0 17.453-7.11 6.422-7.093 6.422-19.296zm-8.984 2.64q-.094 7.36-4.125 11.75-4.032 4.407-10.672 4.407-7.516 0-12.031-4.25-4.516-4.25-5.203-11.97z" stroke-linejoin="round"/><path id="V" d="M54.89 33.016V0h-8.984v32.719q0 7.765-3.031 11.61-3.031 3.858-9.078 3.858-7.281 0-11.484-4.64-4.204-4.625-4.204-12.64V0H9.08v75.984h9.03V46.188q3.235 4.937 7.594 7.374Q30.078 56 35.797 56q9.422 0 14.25-5.828 4.844-5.828 4.844-17.156z" stroke-linejoin="round"/><path id="b" d="M0 0v3.5" stroke="#000" stroke-linejoin="round" stroke-width=".8"/><path id="c" d="M9.813 72.906h14.703l18.593-49.61 18.703 49.61h14.704V0H66.89v64.016l-18.797-50h-9.907l-18.796 50V0H9.813z" stroke-linejoin="round"/><path id="d" d="M34.281 27.484q-10.89 0-15.093-2.484-4.204-2.484-4.204-8.5 0-4.781 3.157-7.594 3.156-2.797 8.562-2.797 7.485 0 12 5.297 4.516 5.297 4.516 14.078v2zm17.922 3.72V0H43.22v8.297Q40.14 3.328 35.547.953q-4.594-2.375-11.234-2.375-8.391 0-13.36 4.719Q6 8.016 6 15.922q0 9.219 6.172 13.906 6.187 4.688 18.437 4.688h12.61v.89q0 6.203-4.078 9.594-4.078 3.39-11.453 3.39-4.688 0-9.141-1.124-4.438-1.125-8.531-3.375v8.312q4.921 1.906 9.562 2.844 4.64.953 9.031.953 11.875 0 17.735-6.156 5.86-6.14 5.86-18.64z" stroke-linejoin="round"/><path id="e" d="M41.11 46.297q-1.516.875-3.297 1.281Q36.03 48 33.89 48q-7.625 0-11.703-4.953-4.079-4.953-4.079-14.234V0H9.08v54.688h9.03v-8.5q2.844 4.984 7.375 7.39Q30.031 56 36.531 56q.922 0 2.047-.125 1.125-.11 2.484-.36z" stroke-linejoin="round"/><path id="f" d="M19.188 8.297h34.421V0H7.33v8.297q5.609 5.812 15.296 15.594 9.703 9.797 12.188 12.64 4.734 5.313 6.609 9 1.89 3.688 1.89 7.25 0 5.813-4.078 9.469-4.078 3.672-10.625 3.672-4.64 0-9.797-1.61-5.14-1.609-11-4.89v9.969Q13.767 71.78 18.938 73q5.188 1.219 9.485 1.219 11.328 0 18.062-5.672 6.735-5.656 6.735-15.125 0-4.5-1.688-8.531-1.672-4.016-6.125-9.485-1.218-1.422-7.765-8.187-6.532-6.766-18.453-18.922z" stroke-linejoin="round"/><path id="g" d="M31.781 66.406q-7.61 0-11.453-7.5Q16.5 51.422 16.5 36.375q0-14.984 3.828-22.484 3.844-7.5 11.453-7.5 7.672 0 11.5 7.5 3.844 7.5 3.844 22.484 0 15.047-3.844 22.531-3.828 7.5-11.5 7.5zm0 7.813q12.266 0 18.735-9.703 6.468-9.688 6.468-28.141 0-18.406-6.468-28.11-6.47-9.687-18.735-9.687-12.25 0-18.718 9.688-6.47 9.703-6.47 28.109 0 18.453 6.47 28.14Q19.53 74.22 31.78 74.22z" stroke-linejoin="round"/><path id="h" d="M34.188 63.188L20.797 26.906h26.812zm-5.579 9.718h11.188L67.578 0h-10.25l-6.64 18.703h-32.86L11.188 0H.78z" stroke-linejoin="round"/><path id="i" d="M18.11 8.203v-29H9.077v75.484h9.031v-8.296q2.844 4.875 7.157 7.234Q29.594 56 35.594 56q9.968 0 16.187-7.906 6.235-7.907 6.235-20.797T51.78 6.484q-6.218-7.906-16.187-7.906-6 0-10.328 2.375-4.313 2.375-7.157 7.25zm30.578 19.094q0 9.906-4.079 15.547-4.078 5.64-11.203 5.64-7.14 0-11.218-5.64-4.079-5.64-4.079-15.547 0-9.906 4.078-15.547 4.079-5.64 11.22-5.64 7.124 0 11.202 5.64t4.078 15.547z" stroke-linejoin="round"/><path id="j" d="M0 0v2" stroke="#000" stroke-linejoin="round" stroke-width=".6"/><path id="k" d="M10.984 1.516V10.5q3.72-1.766 7.516-2.688 3.813-.921 7.484-.921 9.766 0 14.907 6.562 5.156 6.563 5.89 19.953-2.828-4.203-7.187-6.453-4.344-2.25-9.61-2.25-10.937 0-17.312 6.61-6.375 6.625-6.375 18.109 0 11.219 6.64 18 6.641 6.797 17.672 6.797 12.657 0 19.313-9.703 6.672-9.688 6.672-28.141 0-17.234-8.188-27.516Q40.234-1.42 26.422-1.42q-3.719 0-7.531.734-3.797.734-7.907 2.203zM30.61 32.422q6.641 0 10.516 4.531 3.89 4.547 3.89 12.469 0 7.86-3.89 12.422-3.875 4.562-10.516 4.562-6.64 0-10.515-4.562-3.875-4.563-3.875-12.422 0-7.922 3.875-12.469 3.875-4.531 10.515-4.531z" stroke-linejoin="round"/><path id="l" d="M12.406 8.297h16.11v55.625l-17.532-3.516v8.985l17.438 3.515h9.86V8.296H54.39V0H12.406z" stroke-linejoin="round"/><path id="m" d="M33.016 40.375q-6.641 0-10.532-4.547-3.875-4.531-3.875-12.437 0-7.86 3.875-12.438 3.891-4.562 10.532-4.562 6.64 0 10.515 4.562 3.875 4.578 3.875 12.438 0 7.906-3.875 12.437-3.875 4.547-10.515 4.547zm19.578 30.922v-8.984q-3.719 1.75-7.5 2.671-3.782.938-7.5.938-9.766 0-14.922-6.594-5.14-6.594-5.875-19.922 2.875 4.25 7.219 6.516 4.359 2.266 9.578 2.266 10.984 0 17.36-6.672 6.374-6.657 6.374-18.125 0-11.235-6.64-18.032-6.641-6.78-17.672-6.78-12.657 0-19.344 9.687-6.688 9.703-6.688 28.109 0 17.281 8.204 27.563 8.203 10.28 22.015 10.28 3.719 0 7.5-.734t7.89-2.187z" stroke-linejoin="round"/><path id="n" d="M40.578 39.313Q47.656 37.797 51.625 33q3.984-4.781 3.984-11.813 0-10.78-7.422-16.703-7.421-5.906-21.093-5.906-4.578 0-9.438.906-4.86.907-10.031 2.72v9.515q4.094-2.39 8.969-3.61 4.89-1.218 10.218-1.218 9.266 0 14.125 3.656 4.86 3.656 4.86 10.64 0 6.454-4.516 10.079-4.515 3.64-12.562 3.64h-8.5v8.11h8.89q7.266 0 11.125 2.906 3.86 2.906 3.86 8.375 0 5.61-3.985 8.61-3.968 3.015-11.39 3.015-4.063 0-8.703-.89-4.641-.876-10.203-2.72v8.782q5.624 1.562 10.53 2.344 4.907.78 9.25.78 11.235 0 17.766-5.109 6.547-5.093 6.547-13.78 0-6.063-3.468-10.235-3.47-4.172-9.86-5.782z" stroke-linejoin="round"/><path id="o" d="M0 0h-3.5" stroke="#000" stroke-linejoin="round" stroke-width=".8"/><path id="p" d="M37.797 64.313L12.89 25.39h24.906zm-2.594 8.593H47.61V25.391h10.407v-8.203H47.609V0h-9.812v17.188H4.89v9.515z" stroke-linejoin="round"/><path id="q" d="M10.797 72.906h38.719v-8.312H19.828v-17.86q2.14.735 4.281 1.094 2.157.36 4.313.36 12.203 0 19.328-6.688 7.14-6.688 7.14-18.11 0-11.765-7.328-18.296-7.328-6.516-20.656-6.516-4.593 0-9.36.781-4.75.782-9.827 2.344v9.922q4.39-2.39 9.078-3.563 4.687-1.171 9.906-1.171 8.453 0 13.375 4.437 4.938 4.438 4.938 12.063 0 7.609-4.938 12.047-4.922 4.453-13.375 4.453-3.953 0-7.89-.875-3.922-.875-8.016-2.735z" stroke-linejoin="round"/><path id="r" d="M0 0h-2" stroke="#000" stroke-linejoin="round" stroke-width=".6"/><path id="s" d="M30.61 48.39q-7.22 0-11.422-5.64-4.204-5.64-4.204-15.453 0-9.813 4.172-15.453 4.188-5.64 11.453-5.64 7.188 0 11.375 5.655 4.203 5.672 4.203 15.438 0 9.719-4.203 15.406-4.187 5.688-11.375 5.688zm0 7.61q11.718 0 18.406-7.625 6.703-7.61 6.703-21.078 0-13.422-6.703-21.078-6.688-7.64-18.407-7.64-11.765 0-18.437 7.64-6.656 7.656-6.656 21.078 0 13.469 6.656 21.078Q18.844 56 30.609 56z" stroke-linejoin="round"/><path id="t" d="M9.422 75.984h8.984V0H9.422z" stroke-linejoin="round"/><path id="u" d="M45.406 46.39v29.594h8.985V0h-8.985v8.203Q42.578 3.328 38.25.953q-4.313-2.375-10.375-2.375-9.906 0-16.14 7.906-6.22 7.922-6.22 20.813 0 12.89 6.22 20.797Q17.968 56 27.874 56q6.063 0 10.375-2.375 4.328-2.36 7.156-7.234zm-30.61-19.093q0-9.906 4.079-15.547 4.078-5.64 11.203-5.64 7.125 0 11.219 5.64 4.11 5.64 4.11 15.547 0 9.906-4.11 15.547-4.094 5.64-11.219 5.64-7.125 0-11.203-5.64-4.078-5.64-4.078-15.547z" stroke-linejoin="round"/><path id="v" d="M4.203 54.688h8.985l11.234-42.672 11.172 42.672h10.593l11.235-42.672 11.187 42.672h8.985L63.28 0H52.688L40.922 44.828 29.109 0H18.5z" stroke-linejoin="round"/><path id="w" d="M9.422 54.688h8.984V0H9.422zm0 21.296h8.984v-11.39H9.422z" stroke-linejoin="round"/><path id="U" d="M9.813 72.906h13.28l32.329-60.984v60.984h9.562V0h-13.28L19.39 60.984V0H9.813z" stroke-linejoin="round"/><path id="y" d="M-3 0h6M0 3v-6" stroke="#1f77b4" stroke-linejoin="round"/><path id="z" d="M0 1.5a1.5 1.5 0 100-3 1.5 1.5 0 000 3z" stroke="#ff7f0e" stroke-linejoin="round"/><path id="A" d="M-3 0h6M0 3v-6" stroke="#d62728" stroke-linejoin="round"/><path id="B" d="M0 1.5a1.5 1.5 0 100-3 1.5 1.5 0 000 3z" stroke="#9467bd" stroke-linejoin="round"/><path id="C" d="M48.781 52.594v-8.407q-3.812 2.11-7.64 3.157-3.828 1.047-7.735 1.047-8.75 0-13.593-5.547-4.829-5.532-4.829-15.547 0-10.016 4.829-15.563 4.843-5.53 13.593-5.53 3.907 0 7.735 1.046 3.828 1.047 7.64 3.156V2.094Q45.016.344 40.984-.531q-4.015-.89-8.562-.89-12.36 0-19.64 7.765-7.266 7.765-7.266 20.953 0 13.375 7.343 21.031Q20.22 56 33.016 56q4.14 0 8.093-.86 3.953-.843 7.672-2.546z" stroke-linejoin="round"/><path id="D" d="M18.313 70.219V54.688h18.5v-6.985h-18.5V18.016q0-6.688 1.828-8.594 1.828-1.906 7.453-1.906h9.218V0h-9.218q-10.407 0-14.36 3.875-3.953 3.89-3.953 14.14v29.688H2.687v6.984h6.594V70.22z" stroke-linejoin="round"/><path id="E" d="M64.406 67.281v-10.39q-4.984 4.64-10.625 6.922-5.64 2.296-11.984 2.296-12.5 0-19.14-7.64-6.641-7.64-6.641-22.094 0-14.406 6.64-22.047 6.64-7.64 19.14-7.64 6.345 0 11.985 2.296 5.64 2.297 10.625 6.938V5.609Q59.234 2.094 53.437.33q-5.78-1.75-12.218-1.75-16.563 0-26.094 10.124-9.516 10.14-9.516 27.672 0 17.578 9.516 27.703 9.531 10.14 26.094 10.14 6.531 0 12.312-1.734 5.797-1.734 10.875-5.203z" stroke-linejoin="round"/><path id="F" d="M9.813 72.906h9.859V0h-9.86z" stroke-linejoin="round"/><path id="G" d="M4.89 31.39h26.313v-8H4.891z" stroke-linejoin="round"/><path id="H" d="M44.281 53.078v-8.5q-3.797 1.953-7.906 2.922-4.094.984-8.5.984-6.688 0-10.031-2.047-3.344-2.046-3.344-6.156 0-3.125 2.39-4.906 2.391-1.781 9.626-3.39l3.078-.688q9.562-2.047 13.593-5.781 4.032-3.735 4.032-10.422 0-7.625-6.032-12.078-6.03-4.438-16.578-4.438-4.39 0-9.156.86Q10.688.296 5.422 2v9.281q4.984-2.594 9.812-3.89 4.829-1.282 9.579-1.282 6.343 0 9.75 2.172 3.421 2.172 3.421 6.125 0 3.656-2.468 5.61-2.453 1.953-10.813 3.765l-3.125.735q-8.344 1.75-12.062 5.39-3.704 3.64-3.704 9.985 0 7.718 5.47 11.906Q16.75 56 26.811 56q4.97 0 9.36-.734 4.406-.72 8.11-2.188z" stroke-linejoin="round"/><path id="I" d="M37.11 75.984V68.5h-8.594q-4.828 0-6.72-1.953-1.874-1.953-1.874-7.031v-4.828h14.797v-6.985H19.922V0H10.89v47.703H2.297v6.984h8.594V58.5q0 9.125 4.25 13.297 4.25 4.187 13.468 4.187z" stroke-linejoin="round"/><path id="J" d="M8.688 72.906h9.921V28.61q0-11.718 4.235-16.875 4.25-5.14 13.781-5.14 9.469 0 13.719 5.14 4.25 5.157 4.25 16.875v44.297H64.5V27.391q0-14.25-7.063-21.532-7.046-7.28-20.812-7.28-13.828 0-20.89 7.28-7.047 7.282-7.047 21.532z" stroke-linejoin="round"/><path id="K" d="M53.516 70.516V60.89q-5.61 2.687-10.594 4-4.984 1.328-9.625 1.328-8.047 0-12.422-3.125t-4.375-8.89q0-4.845 2.906-7.313 2.907-2.453 11.016-3.97l5.953-1.218q11.031-2.11 16.281-7.406 5.25-5.297 5.25-14.172 0-10.61-7.11-16.078-7.093-5.469-20.812-5.469-5.172 0-11.015 1.172Q13.14.922 6.89 3.219v10.156q6-3.36 11.765-5.078 5.766-1.703 11.328-1.703 8.438 0 13.032 3.312 4.593 3.328 4.593 9.485 0 5.359-3.297 8.39-3.296 3.032-10.812 4.547L27.484 33.5q-11.03 2.188-15.968 6.875-4.922 4.688-4.922 13.047 0 9.672 6.812 15.234 6.813 5.563 18.766 5.563 5.14 0 10.453-.938 5.328-.922 10.89-2.765z" stroke-linejoin="round"/><path id="L" d="M31 75.875q-6.531-11.219-9.719-22.219-3.172-10.984-3.172-22.265 0-11.266 3.203-22.328Q24.517-2 31-13.188h-7.813Q15.875-1.704 12.235 9.375q-3.64 11.078-3.64 22.016 0 10.89 3.61 21.922 3.624 11.046 10.983 22.562z" stroke-linejoin="round"/><path id="M" d="M8.5 21.578v33.11h8.984V21.922q0-7.766 3.016-11.656 3.031-3.875 9.094-3.875 7.265 0 11.484 4.64 4.234 4.64 4.234 12.656v31h8.985V0h-8.984v8.406Q42.047 3.422 37.718 1q-4.313-2.422-10.032-2.422-9.421 0-14.312 5.86Q8.5 10.296 8.5 21.578z" stroke-linejoin="round"/><path id="N" d="M48.688 27.297q0 9.906-4.079 15.547-4.078 5.64-11.203 5.64-7.14 0-11.218-5.64-4.079-5.64-4.079-15.547 0-9.906 4.078-15.547 4.079-5.64 11.22-5.64 7.124 0 11.202 5.64t4.078 15.547zM18.108 46.39q2.844 4.875 7.157 7.234Q29.594 56 35.594 56q9.968 0 16.187-7.906 6.235-7.907 6.235-20.797T51.78 6.484q-6.218-7.906-16.187-7.906-6 0-10.328 2.375-4.313 2.375-7.157 7.25V0H9.08v75.984h9.03z" stroke-linejoin="round"/><path id="O" d="M54.89 33.016V0h-8.984v32.719q0 7.765-3.031 11.61-3.031 3.858-9.078 3.858-7.281 0-11.484-4.64-4.204-4.625-4.204-12.64V0H9.08v54.688h9.03v-8.5q3.235 4.937 7.594 7.374Q30.078 56 35.797 56q9.422 0 14.25-5.828 4.844-5.828 4.844-17.156z" stroke-linejoin="round"/><path id="P" d="M10.688 12.406H21V0H10.687z" stroke-linejoin="round"/><path id="Q" d="M32.172-5.078q-3.797-9.766-7.422-12.735-3.61-2.984-9.656-2.984H7.906v7.516h5.282q3.703 0 5.75 1.765Q21-9.766 23.483-3.219l1.61 4.094-22.11 53.813H12.5l17.094-42.766 17.093 42.766h9.516z" stroke-linejoin="round"/><path id="R" d="M8.016 75.875h7.812q7.313-11.516 10.953-22.563 3.64-11.03 3.64-21.921 0-10.938-3.64-22.016-3.64-11.078-10.953-22.563H8.016Q14.5-2 17.703 9.063q3.203 11.063 3.203 22.329 0 11.28-3.203 22.265-3.203 11-9.687 22.219z" stroke-linejoin="round"/><path id="S" d="M8.203 72.906h46.875v-4.203L28.61 0H18.312L43.22 64.594H8.203z" stroke-linejoin="round"/><clipPath id="T" stroke-linejoin="round"><path d="M50.15 298.38h499.165v207.548H50.15z"/></clipPath><clipPath id="a" stroke-linejoin="round"><path d="M50.15 25.44h499.165v207.548H50.15z"/></clipPath></defs><path d="M0 568.8h568.8V0H0z" fill="#fff"/><path d="M50.15 232.988h499.165V25.44H50.15z" fill="#fff"/><path clip-path="url(#a)" d="M50.15 232.988V25.44" fill="none" stroke="#b0b0b0" stroke-linecap="square" stroke-width=".8"/><use stroke="#000" stroke-width=".8" x="50.15" xlink:href="#b" y="232.988"/><g transform="matrix(.1 0 0 -.1 40.717 269.982)"><use xlink:href="#c"/><use x="86.279" xlink:href="#d"/><use x="147.559" xlink:href="#e"/></g><g transform="matrix(.1 0 0 -.1 37.425 281.18)"><use xlink:href="#f"/><use x="63.623" xlink:href="#g"/><use x="127.246" xlink:href="#f"/><use x="190.869" xlink:href="#g"/></g><path clip-path="url(#a)" d="M549.315 232.988V25.44" fill="none" stroke="#b0b0b0" stroke-linecap="square" stroke-width=".8"/><use stroke="#000" stroke-width=".8" x="549.315" xlink:href="#b" y="232.988"/><g transform="matrix(.1 0 0 -.1 540.665 269.982)"><use xlink:href="#h"/><use x="68.408" xlink:href="#i"/><use x="131.885" xlink:href="#e"/></g><use stroke="#000" stroke-width=".6" x="50.15" xlink:href="#j" y="232.988"/><use stroke="#000" stroke-width=".6" x="66.252" xlink:href="#j" y="232.988"/><g transform="matrix(.1 0 0 -.1 59.89 245.986)"><use xlink:href="#g"/><use x="63.623" xlink:href="#f"/></g><g stroke="#000" stroke-width=".6"><use x="82.354" xlink:href="#j" y="232.988"/><use x="98.456" xlink:href="#j" y="232.988"/><use x="114.559" xlink:href="#j" y="232.988"/><use x="130.661" xlink:href="#j" y="232.988"/><use x="146.763" xlink:href="#j" y="232.988"/><use x="162.865" xlink:href="#j" y="232.988"/></g><use stroke="#000" stroke-width=".6" x="178.967" xlink:href="#j" y="232.988"/><g transform="matrix(.1 0 0 -.1 172.604 245.986)"><use xlink:href="#g"/><use x="63.623" xlink:href="#k"/></g><use stroke="#000" stroke-width=".6" x="195.069" xlink:href="#j" y="232.988"/><use stroke="#000" stroke-width=".6" x="211.171" xlink:href="#j" y="232.988"/><use stroke="#000" stroke-width=".6" x="227.273" xlink:href="#j" y="232.988"/><use stroke="#000" stroke-width=".6" x="243.375" xlink:href="#j" y="232.988"/><use stroke="#000" stroke-width=".6" x="259.477" xlink:href="#j" y="232.988"/><use stroke="#000" stroke-width=".6" x="275.579" xlink:href="#j" y="232.988"/><use stroke="#000" stroke-width=".6" x="291.682" xlink:href="#j" y="232.988"/><g transform="matrix(.1 0 0 -.1 285.32 245.986)"><use xlink:href="#l"/><use x="63.623" xlink:href="#m"/></g><use stroke="#000" stroke-width=".6" x="307.784" xlink:href="#j" y="232.988"/><use stroke="#000" stroke-width=".6" x="323.886" xlink:href="#j" y="232.988"/><use stroke="#000" stroke-width=".6" x="339.988" xlink:href="#j" y="232.988"/><use stroke="#000" stroke-width=".6" x="356.09" xlink:href="#j" y="232.988"/><use stroke="#000" stroke-width=".6" x="372.192" xlink:href="#j" y="232.988"/><use stroke="#000" stroke-width=".6" x="388.294" xlink:href="#j" y="232.988"/><use stroke="#000" stroke-width=".6" x="404.396" xlink:href="#j" y="232.988"/><g transform="matrix(.1 0 0 -.1 398.034 245.986)"><use xlink:href="#f"/><use x="63.623" xlink:href="#n"/></g><use stroke="#000" stroke-width=".6" x="420.498" xlink:href="#j" y="232.988"/><use stroke="#000" stroke-width=".6" x="436.6" xlink:href="#j" y="232.988"/><use stroke="#000" stroke-width=".6" x="452.702" xlink:href="#j" y="232.988"/><use stroke="#000" stroke-width=".6" x="468.805" xlink:href="#j" y="232.988"/><use stroke="#000" stroke-width=".6" x="484.907" xlink:href="#j" y="232.988"/><use stroke="#000" stroke-width=".6" x="501.009" xlink:href="#j" y="232.988"/><g><use stroke="#000" stroke-width=".6" x="517.111" xlink:href="#j" y="232.988"/><g transform="matrix(.1 0 0 -.1 510.748 245.986)"><use xlink:href="#n"/><use x="63.623" xlink:href="#g"/></g></g><use stroke="#000" stroke-width=".6" x="533.213" xlink:href="#j" y="232.988"/><use stroke="#000" stroke-width=".6" x="549.315" xlink:href="#j" y="232.988"/><g><path clip-path="url(#a)" d="M50.15 232.988h499.165" fill="none" stroke="#b0b0b0" stroke-linecap="square" stroke-width=".8"/><use stroke="#000" stroke-width=".8" x="50.15" xlink:href="#o" y="232.988"/><g transform="matrix(.1 0 0 -.1 25.55 236.787)"><use transform="translate(0 .684)" xlink:href="#l"/><use transform="translate(63.623 .684)" xlink:href="#g"/><use transform="matrix(.7 0 0 .7 128.203 38.966)" xlink:href="#l"/></g><path clip-path="url(#a)" d="M50.15 187.987h499.165" fill="none" stroke="#b0b0b0" stroke-linecap="square" stroke-width=".8"/><use stroke="#000" stroke-width=".8" x="50.15" xlink:href="#o" y="187.987"/><g transform="matrix(.1 0 0 -.1 25.55 191.786)"><use transform="translate(0 .766)" xlink:href="#l"/><use transform="translate(63.623 .766)" xlink:href="#g"/><use transform="matrix(.7 0 0 .7 128.203 39.047)" xlink:href="#f"/></g><path clip-path="url(#a)" d="M50.15 142.985h499.165" fill="none" stroke="#b0b0b0" stroke-linecap="square" stroke-width=".8"/><use stroke="#000" stroke-width=".8" x="50.15" xlink:href="#o" y="142.985"/><g transform="matrix(.1 0 0 -.1 25.55 146.785)"><use transform="translate(0 .766)" xlink:href="#l"/><use transform="translate(63.623 .766)" xlink:href="#g"/><use transform="matrix(.7 0 0 .7 128.203 39.047)" xlink:href="#n"/></g><g><path clip-path="url(#a)" d="M50.15 97.984h499.165" fill="none" stroke="#b0b0b0" stroke-linecap="square" stroke-width=".8"/><use stroke="#000" stroke-width=".8" x="50.15" xlink:href="#o" y="97.984"/><g transform="matrix(.1 0 0 -.1 25.55 101.783)"><use transform="translate(0 .684)" xlink:href="#l"/><use transform="translate(63.623 .684)" xlink:href="#g"/><use transform="matrix(.7 0 0 .7 128.203 38.966)" xlink:href="#p"/></g></g><g><path clip-path="url(#a)" d="M50.15 52.983h499.165" fill="none" stroke="#b0b0b0" stroke-linecap="square" stroke-width=".8"/><use stroke="#000" stroke-width=".8" x="50.15" xlink:href="#o" y="52.983"/><g transform="matrix(.1 0 0 -.1 25.55 56.782)"><use transform="translate(0 .684)" xlink:href="#l"/><use transform="translate(63.623 .684)" xlink:href="#g"/><use transform="matrix(.7 0 0 .7 128.203 38.966)" xlink:href="#q"/></g></g><g stroke="#000" stroke-width=".6"><use x="50.15" xlink:href="#r" y="219.441"/><use x="50.15" xlink:href="#r" y="211.517"/><use x="50.15" xlink:href="#r" y="205.895"/><use x="50.15" xlink:href="#r" y="201.533"/><use x="50.15" xlink:href="#r" y="197.97"/><use x="50.15" xlink:href="#r" y="194.957"/><use x="50.15" xlink:href="#r" y="192.348"/><use x="50.15" xlink:href="#r" y="190.046"/><use x="50.15" xlink:href="#r" y="174.44"/><use x="50.15" xlink:href="#r" y="166.516"/><use x="50.15" xlink:href="#r" y="160.893"/><use x="50.15" xlink:href="#r" y="156.532"/><use x="50.15" xlink:href="#r" y="152.969"/><use x="50.15" xlink:href="#r" y="149.956"/><use x="50.15" xlink:href="#r" y="147.346"/><use x="50.15" xlink:href="#r" y="145.045"/><use x="50.15" xlink:href="#r" y="129.439"/><use x="50.15" xlink:href="#r" y="121.514"/><use x="50.15" xlink:href="#r" y="115.892"/><use x="50.15" xlink:href="#r" y="111.531"/><use x="50.15" xlink:href="#r" y="107.968"/><use x="50.15" xlink:href="#r" y="104.955"/><use x="50.15" xlink:href="#r" y="102.345"/><use x="50.15" xlink:href="#r" y="100.043"/><use x="50.15" xlink:href="#r" y="84.437"/><use x="50.15" xlink:href="#r" y="76.513"/><use x="50.15" xlink:href="#r" y="70.891"/><use x="50.15" xlink:href="#r" y="66.53"/><use x="50.15" xlink:href="#r" y="62.966"/><use x="50.15" xlink:href="#r" y="59.954"/><use x="50.15" xlink:href="#r" y="57.344"/><use x="50.15" xlink:href="#r" y="55.042"/><use x="50.15" xlink:href="#r" y="39.436"/><use x="50.15" xlink:href="#r" y="31.512"/><use x="50.15" xlink:href="#r" y="25.889"/></g><g transform="matrix(0 -.1 -.1 0 19.47 155.56)"><path d="M3.328 72.906h9.953L28.61 11.281l15.282 61.625h11.093l15.328-61.625 15.282 61.625h10.015L77.297 0H64.89L49.516 63.281 33.984 0H21.578z"/><use x="98.799" xlink:href="#s"/><use x="159.98" xlink:href="#e"/><use x="201.094" xlink:href="#t"/><use x="228.877" xlink:href="#u"/><use x="292.354" xlink:href="#v"/><use x="374.141" xlink:href="#w"/><use x="401.924" xlink:href="#u"/><use x="465.4" xlink:href="#x"/></g></g><g stroke="#1f77b4"><path clip-path="url(#a)" d="M-1 200.094l2.844-.065 16.102-.358 16.102-2.342 16.102-1.805 16.102-5.039 16.102-3.82 16.102-4.398 16.103-7.925 16.102-4.727 16.102-8.327 16.102-5.066 16.102-2.421 16.102-9.25 16.102-5.722 16.102-5.163 16.102-5.366 16.102-4.435 16.102-4.934 16.103-5.47 16.102-6.435 16.102-3.58 16.102-11.14 16.102-6.566 16.102-5.675 16.102-5.603 16.102-5.037 16.102-3.918L436.6 61.56l16.102-4.686 16.103-3.736 16.102-3.453 16.102-2.676" fill="none" stroke-linecap="square" stroke-width="1.5"/><g clip-path="url(#a)" fill="#1f77b4"><use x="-1" xlink:href="#y" y="200.094"/><use x="1.844" xlink:href="#y" y="200.029"/><use x="17.946" xlink:href="#y" y="199.671"/><use x="34.048" xlink:href="#y" y="197.329"/><use x="50.15" xlink:href="#y" y="195.524"/><use x="66.252" xlink:href="#y" y="190.485"/><use x="82.354" xlink:href="#y" y="186.664"/><use x="98.456" xlink:href="#y" y="182.267"/><use x="114.559" xlink:href="#y" y="174.342"/><use x="130.661" xlink:href="#y" y="169.615"/><use x="146.763" xlink:href="#y" y="161.288"/><use x="162.865" xlink:href="#y" y="156.222"/><use x="178.967" xlink:href="#y" y="153.801"/><use x="195.069" xlink:href="#y" y="144.551"/><use x="211.171" xlink:href="#y" y="138.829"/><use x="227.273" xlink:href="#y" y="133.666"/><use x="243.375" xlink:href="#y" y="128.3"/><use x="259.477" xlink:href="#y" y="123.865"/><use x="275.579" xlink:href="#y" y="118.931"/><use x="291.682" xlink:href="#y" y="113.46"/><use x="307.784" xlink:href="#y" y="107.026"/><use x="323.886" xlink:href="#y" y="103.446"/><use x="339.988" xlink:href="#y" y="92.305"/><use x="356.09" xlink:href="#y" y="85.74"/><use x="372.192" xlink:href="#y" y="80.065"/><use x="388.294" xlink:href="#y" y="74.462"/><use x="404.396" xlink:href="#y" y="69.425"/><use x="420.498" xlink:href="#y" y="65.507"/><use x="436.6" xlink:href="#y" y="61.56"/><use x="452.702" xlink:href="#y" y="56.874"/><use x="468.805" xlink:href="#y" y="53.138"/><use x="484.907" xlink:href="#y" y="49.685"/><use x="501.009" xlink:href="#y" y="47.009"/></g></g><g stroke="#ff7f0e"><path clip-path="url(#a)" d="M-1 154.244l2.844-1.046 16.102-6.358 16.102-4.864 16.102-7.893 16.102-2.962 16.102-4.097 16.102-3.494 16.103-3.855 16.102-3.368 16.102-5.013 16.102-4.548 16.102-4.364 16.102-1.886 16.102-3.632h16.102l16.102-6.746 16.102-3.348 16.102-2.913 16.103-2.213 16.102-2.38 16.102-1.892 16.102-2.834 16.102-2.925 16.102-1.99 16.102-1.733 16.102-1.523 16.102-1.352L436.6 63.79l16.102-1.47 16.103-1.34 16.102-1.046 16.102-1.036" fill="none" stroke-linecap="square" stroke-width="1.5"/><g clip-path="url(#a)" fill="#ff7f0e"><use x="-1" xlink:href="#z" y="154.244"/><use x="1.844" xlink:href="#z" y="153.198"/><use x="17.946" xlink:href="#z" y="146.84"/><use x="34.048" xlink:href="#z" y="141.976"/><use x="50.15" xlink:href="#z" y="134.083"/><use x="66.252" xlink:href="#z" y="131.121"/><use x="82.354" xlink:href="#z" y="127.024"/><use x="98.456" xlink:href="#z" y="123.53"/><use x="114.559" xlink:href="#z" y="119.675"/><use x="130.661" xlink:href="#z" y="116.307"/><use x="146.763" xlink:href="#z" y="111.294"/><use x="162.865" xlink:href="#z" y="106.746"/><use x="178.967" xlink:href="#z" y="102.382"/><use x="195.069" xlink:href="#z" y="100.496"/><use x="211.171" xlink:href="#z" y="96.864"/><use x="227.273" xlink:href="#z" y="96.864"/><use x="243.375" xlink:href="#z" y="90.118"/><use x="259.477" xlink:href="#z" y="86.77"/><use x="275.579" xlink:href="#z" y="83.857"/><use x="291.682" xlink:href="#z" y="81.644"/><use x="307.784" xlink:href="#z" y="79.263"/><use x="323.886" xlink:href="#z" y="77.372"/><use x="339.988" xlink:href="#z" y="74.538"/><use x="356.09" xlink:href="#z" y="71.613"/><use x="372.192" xlink:href="#z" y="69.623"/><use x="388.294" xlink:href="#z" y="67.89"/><use x="404.396" xlink:href="#z" y="66.367"/><use x="420.498" xlink:href="#z" y="65.015"/><use x="436.6" xlink:href="#z" y="63.791"/><use x="452.702" xlink:href="#z" y="62.321"/><use x="468.805" xlink:href="#z" y="60.981"/><use x="484.907" xlink:href="#z" y="59.935"/><use x="501.009" xlink:href="#z" y="58.899"/></g></g><path clip-path="url(#a)" d="M-1 228.437l2.844-.577 16.102-16.343 16.102-7.036 16.102-12.616 16.102-7.113 16.102-6.194 16.102-5.802 16.103-2.987 16.102-8.53 16.102-3.077 16.102-6.022 16.102-9.407 16.102-9.272 16.102-4.41 16.102.01 16.102-17.16 16.102-2.859 16.102-4.065 16.103-5.085 16.102-2.27 16.102-3.534 16.102-5.321 16.102-2.03 16.102-4.05 16.102-2.392 16.102-3.434 16.102-2.378 16.102-3.836 16.102-2.66 16.103-1.93 16.102-1.379 16.102-1.25" fill="none" stroke="#2ca02c" stroke-linecap="square" stroke-width="1.5"/><g stroke="#d62728"><path clip-path="url(#a)" d="M-1 214.68l2.844-3.163 16.102-1.261 16.102-13.24 16.102-11.59 16.102-4.43 16.102-4.497 16.102-6.105 16.103-12.486 16.102-6.593 16.102-3.499 16.102-5.256 16.102-2.408 16.102-4.252 16.102-5.252 16.102-1.692 16.102-11.124 16.102-4.372 16.102-4.62 16.103-4.403 16.102-4.751 16.102-5.579 16.102-4.259 16.102-5.017 16.102-2.164 16.102-2.206 16.102-2.932 16.102-.744 16.102-2.47 16.102-2.42 16.103-2.81 16.102-2.073 16.102-1.38" fill="none" stroke-linecap="square" stroke-width="1.5"/><g clip-path="url(#a)" fill="#d62728"><use x="-1" xlink:href="#A" y="214.68"/><use x="1.844" xlink:href="#A" y="211.517"/><use x="17.946" xlink:href="#A" y="210.256"/><use x="34.048" xlink:href="#A" y="197.017"/><use x="50.15" xlink:href="#A" y="185.426"/><use x="66.252" xlink:href="#A" y="180.996"/><use x="82.354" xlink:href="#A" y="176.499"/><use x="98.456" xlink:href="#A" y="170.394"/><use x="114.559" xlink:href="#A" y="157.908"/><use x="130.661" xlink:href="#A" y="151.315"/><use x="146.763" xlink:href="#A" y="147.816"/><use x="162.865" xlink:href="#A" y="142.56"/><use x="178.967" xlink:href="#A" y="140.152"/><use x="195.069" xlink:href="#A" y="135.9"/><use x="211.171" xlink:href="#A" y="130.648"/><use x="227.273" xlink:href="#A" y="128.956"/><use x="243.375" xlink:href="#A" y="117.832"/><use x="259.477" xlink:href="#A" y="113.46"/><use x="275.579" xlink:href="#A" y="108.84"/><use x="291.682" xlink:href="#A" y="104.437"/><use x="307.784" xlink:href="#A" y="99.686"/><use x="323.886" xlink:href="#A" y="94.107"/><use x="339.988" xlink:href="#A" y="89.848"/><use x="356.09" xlink:href="#A" y="84.831"/><use x="372.192" xlink:href="#A" y="82.667"/><use x="388.294" xlink:href="#A" y="80.461"/><use x="404.396" xlink:href="#A" y="77.529"/><use x="420.498" xlink:href="#A" y="76.785"/><use x="436.6" xlink:href="#A" y="74.316"/><use x="452.702" xlink:href="#A" y="71.894"/><use x="468.805" xlink:href="#A" y="69.085"/><use x="484.907" xlink:href="#A" y="67.012"/><use x="501.009" xlink:href="#A" y="65.632"/></g></g><g stroke="#9467bd"><path clip-path="url(#a)" d="M-1 220.636l2.844-5.556 16.102-11.048 16.102-13.098 16.102-5.848 16.102-8.148 16.102-1.289 16.102-7.002 16.103-5.64 16.102-11.054 16.102-7.465 16.102-3.276 16.102-1.428 16.102-7.612 16.102-4.808h16.102l16.102-9.282 16.102-3.95 16.102-.147 16.103-7.552 16.102-2.886 16.102-3.268 16.102-3.49 16.102-2.643 16.102-2.363 16.102.573 16.102-4.804 16.102-1.306L436.6 84.09l16.102-2.296 16.103-2.255 16.102-3.067 16.102-.517" fill="none" stroke-linecap="square" stroke-width="1.5"/><g clip-path="url(#a)" fill="#9467bd"><use x="-1" xlink:href="#B" y="220.636"/><use x="1.844" xlink:href="#B" y="215.08"/><use x="17.946" xlink:href="#B" y="204.032"/><use x="34.048" xlink:href="#B" y="190.934"/><use x="50.15" xlink:href="#B" y="185.086"/><use x="66.252" xlink:href="#B" y="176.938"/><use x="82.354" xlink:href="#B" y="175.649"/><use x="98.456" xlink:href="#B" y="168.647"/><use x="114.559" xlink:href="#B" y="163.007"/><use x="130.661" xlink:href="#B" y="151.953"/><use x="146.763" xlink:href="#B" y="144.488"/><use x="162.865" xlink:href="#B" y="141.212"/><use x="178.967" xlink:href="#B" y="139.784"/><use x="195.069" xlink:href="#B" y="132.172"/><use x="211.171" xlink:href="#B" y="127.364"/><use x="227.273" xlink:href="#B" y="127.364"/><use x="243.375" xlink:href="#B" y="118.082"/><use x="259.477" xlink:href="#B" y="114.132"/><use x="275.579" xlink:href="#B" y="113.985"/><use x="291.682" xlink:href="#B" y="106.433"/><use x="307.784" xlink:href="#B" y="103.547"/><use x="323.886" xlink:href="#B" y="100.279"/><use x="339.988" xlink:href="#B" y="96.788"/><use x="356.09" xlink:href="#B" y="94.146"/><use x="372.192" xlink:href="#B" y="91.783"/><use x="388.294" xlink:href="#B" y="92.356"/><use x="404.396" xlink:href="#B" y="87.552"/><use x="420.498" xlink:href="#B" y="86.246"/><use x="436.6" xlink:href="#B" y="84.089"/><use x="452.702" xlink:href="#B" y="81.793"/><use x="468.805" xlink:href="#B" y="79.538"/><use x="484.907" xlink:href="#B" y="76.471"/><use x="501.009" xlink:href="#B" y="75.954"/></g></g><path clip-path="url(#a)" d="M501.009 47.009l16.102-3.181 16.102-3.181 16.102-3.18" fill="none" stroke="#1f77b4" stroke-dasharray="1.5 2.475" stroke-width="1.5"/><path clip-path="url(#a)" d="M501.009 58.9l16.102-1.106 16.102-1.104 16.102-1.105" fill="none" stroke="#ff7f0e" stroke-dasharray="1.5 2.475" stroke-width="1.5"/><path clip-path="url(#a)" d="M501.009 63.428l16.102-1.441 16.102-1.442 16.102-1.442" fill="none" stroke="#2ca02c" stroke-dasharray="1.5 2.475" stroke-width="1.5"/><path clip-path="url(#a)" d="M501.009 65.632l16.102-1.934 16.102-1.934 16.102-1.934" fill="none" stroke="#d62728" stroke-dasharray="1.5 2.475" stroke-width="1.5"/><path clip-path="url(#a)" d="M501.009 75.954l16.102-1.8 16.102-1.8 16.102-1.801" fill="none" stroke="#9467bd" stroke-dasharray="1.5 2.475" stroke-width="1.5"/><path d="M50.15 232.988V25.44M549.315 232.988V25.44M50.15 232.988h499.165M50.15 25.44h499.165" fill="none" stroke="#000" stroke-linecap="square" stroke-linejoin="miter" stroke-width=".8"/><g transform="matrix(.12 0 0 -.12 177.953 19.44)"><use xlink:href="#h"/><use x="68.393" xlink:href="#C"/><use x="123.373" xlink:href="#D"/><use x="162.582" xlink:href="#w"/><path d="M193.35 54.688h9.515L219.96 8.797l17.094 45.89h9.515L226.053 0H213.85z"/><use x="249.545" xlink:href="#x"/><use x="342.855" xlink:href="#E"/><path d="M452.086 66.219q-10.75 0-17.078-8.016-6.313-8-6.313-21.828 0-13.766 6.313-21.781 6.328-8 17.078-8 10.734 0 17.016 8 6.28 8.015 6.28 21.781 0 13.828-6.28 21.828-6.282 8.016-17.016 8.016zm0 8q15.328 0 24.5-10.281 9.187-10.282 9.187-27.563 0-17.234-9.187-27.516-9.172-10.28-24.5-10.28-15.375 0-24.594 10.25-9.203 10.265-9.203 27.546t9.203 27.563q9.219 10.28 24.594 10.28zM519.984 0l-27.828 72.906h10.297l23.11-61.375 23.14 61.375h10.25L531.172 0z"/><use x="559.783" xlink:href="#F"/><path d="M608.947 64.797V8.109h11.922q15.094 0 22.094 6.829 7 6.843 7 21.593 0 14.64-7 21.453-7 6.813-22.094 6.813zm-9.86 8.11h20.267q21.187 0 31.093-8.813 9.922-8.813 9.922-27.563 0-18.86-9.969-27.703Q640.447 0 619.354 0h-20.266z"/><use x="666.277" xlink:href="#G"/><use x="702.361" xlink:href="#l"/><use x="765.984" xlink:href="#k"/><use x="861.395" xlink:href="#C"/><use x="916.375" xlink:href="#d"/><use x="977.654" xlink:href="#H"/><use x="1029.754" xlink:href="#x"/><use x="1091.277" xlink:href="#H"/><use x="1175.164" xlink:href="#d"/><use x="1236.443" xlink:href="#H"/><use x="1320.33" xlink:href="#s"/><use x="1381.512" xlink:href="#I"/><use x="1448.504" xlink:href="#f"/><use x="1512.127" xlink:href="#g"/><use x="1575.75" xlink:href="#f"/><use x="1639.373" xlink:href="#g"/><use x="1702.996" xlink:href="#G"/><use x="1739.08" xlink:href="#g"/><use x="1802.703" xlink:href="#n"/><use x="1866.326" xlink:href="#G"/><use x="1902.41" xlink:href="#f"/><use x="1966.033" xlink:href="#k"/></g><g><path d="M355.746 227.988h186.569q2 0 2-2v-72.39q0-2-2-2H355.746q-2 0-2 2v72.39q0 2 2 2z" fill="#fff" opacity=".8" stroke="#ccc" stroke-linejoin="miter"/><path d="M357.746 159.696h20" fill="none" stroke="#1f77b4" stroke-linecap="square" stroke-width="1.5"/><use fill="#1f77b4" stroke="#1f77b4" x="367.746" xlink:href="#y" y="159.696"/><g transform="matrix(.1 0 0 -.1 385.746 163.196)"><use xlink:href="#J"/><use x="73.193" xlink:href="#K"/><use x="168.457" xlink:href="#L"/><use x="207.471" xlink:href="#u"/><use x="270.947" xlink:href="#s"/><use x="332.129" xlink:href="#M"/><use x="395.508" xlink:href="#N"/><use x="458.984" xlink:href="#t"/><use x="486.768" xlink:href="#x"/><use x="548.291" xlink:href="#H"/><use x="632.178" xlink:href="#w"/><use x="659.961" xlink:href="#O"/><use x="755.127" xlink:href="#p"/><use x="818.75" xlink:href="#P"/><use x="850.537" xlink:href="#n"/><use x="945.947" xlink:href="#u"/><use x="1009.424" xlink:href="#d"/><use x="1070.703" xlink:href="#Q"/><use x="1129.883" xlink:href="#H"/><use x="1181.982" xlink:href="#R"/></g><path d="M357.746 174.374h20" fill="none" stroke="#ff7f0e" stroke-linecap="square" stroke-width="1.5"/><use fill="#ff7f0e" stroke="#ff7f0e" x="367.746" xlink:href="#z" y="174.374"/><g transform="matrix(.1 0 0 -.1 385.746 177.874)"><use xlink:href="#F"/><use x="29.492" xlink:href="#D"/><use x="68.701" xlink:href="#d"/><use x="129.98" xlink:href="#t"/><use x="157.764" xlink:href="#Q"/><use x="248.73" xlink:href="#L"/><use x="287.744" xlink:href="#u"/><use x="351.221" xlink:href="#s"/><use x="412.402" xlink:href="#M"/><use x="475.781" xlink:href="#N"/><use x="539.258" xlink:href="#t"/><use x="567.041" xlink:href="#x"/><use x="628.564" xlink:href="#H"/><use x="712.451" xlink:href="#w"/><use x="740.234" xlink:href="#O"/><use x="835.4" xlink:href="#l"/><use x="899.023" xlink:href="#f"/><use x="962.646" xlink:href="#P"/><use x="994.434" xlink:href="#n"/><use x="1089.844" xlink:href="#u"/><use x="1153.32" xlink:href="#d"/><use x="1214.6" xlink:href="#Q"/><use x="1273.779" xlink:href="#H"/><use x="1325.879" xlink:href="#R"/></g><path d="M357.746 189.052h20" fill="none" stroke="#2ca02c" stroke-linecap="square" stroke-width="1.5"/><g transform="matrix(.1 0 0 -.1 385.746 192.552)"><use xlink:href="#K"/><use x="63.477" xlink:href="#i"/><use x="126.953" xlink:href="#d"/><use x="188.232" xlink:href="#w"/><use x="216.016" xlink:href="#O"/><use x="311.182" xlink:href="#L"/><use x="350.195" xlink:href="#u"/><use x="413.672" xlink:href="#s"/><use x="474.854" xlink:href="#M"/><use x="538.232" xlink:href="#N"/><use x="601.709" xlink:href="#t"/><use x="629.492" xlink:href="#x"/><use x="691.016" xlink:href="#H"/><use x="774.902" xlink:href="#w"/><use x="802.686" xlink:href="#O"/><use x="897.852" xlink:href="#k"/><use x="961.475" xlink:href="#P"/><use x="993.262" xlink:href="#p"/><use x="1088.672" xlink:href="#u"/><use x="1152.148" xlink:href="#d"/><use x="1213.428" xlink:href="#Q"/><use x="1272.607" xlink:href="#H"/><use x="1324.707" xlink:href="#R"/></g><path d="M357.746 203.73h20" fill="none" stroke="#d62728" stroke-linecap="square" stroke-width="1.5"/><use fill="#d62728" stroke="#d62728" x="367.746" xlink:href="#A" y="203.73"/><g transform="matrix(.1 0 0 -.1 385.746 207.23)"><path d="M59.516 10.406v19.578h-16.11v8.11h25.875V6.78Q63.578 2.734 56.687.656 49.813-1.422 42-1.422q-17.094 0-26.75 9.985-9.64 10-9.64 27.812 0 17.875 9.64 27.86 9.656 9.984 26.75 9.984 7.125 0 13.547-1.766 6.422-1.75 11.844-5.172v-10.5q-5.47 4.64-11.625 6.985-6.157 2.343-12.938 2.343-13.39 0-20.11-7.468-6.702-7.47-6.702-22.266 0-14.75 6.703-22.219 6.718-7.469 20.11-7.469 5.218 0 9.312.907 4.109.906 7.375 2.812z"/><use x="77.49" xlink:href="#x"/><use x="139.014" xlink:href="#e"/><path d="M232.111 44.188q3.375 6.062 8.063 8.937Q244.86 56 251.205 56q8.547 0 13.188-5.984 4.64-5.97 4.64-17V0h-9.031v32.719q0 7.86-2.797 11.656-2.781 3.813-8.484 3.813-6.985 0-11.047-4.641-4.047-4.625-4.047-12.64V0h-9.031v32.719q0 7.906-2.782 11.687-2.78 3.782-8.593 3.782-6.89 0-10.953-4.657-4.047-4.656-4.047-12.625V0h-9.032v54.688h9.032v-8.5q3.078 5.03 7.375 7.421Q209.893 56 215.799 56q5.969 0 10.14-3.031 4.172-3.016 6.172-8.782z"/><use x="277.523" xlink:href="#d"/><use x="338.803" xlink:href="#O"/><use x="402.182" xlink:href="#Q"/><use x="493.148" xlink:href="#L"/><use x="532.162" xlink:href="#u"/><use x="595.639" xlink:href="#s"/><use x="656.82" xlink:href="#M"/><use x="720.199" xlink:href="#N"/><use x="783.676" xlink:href="#t"/><use x="811.459" xlink:href="#x"/><use x="872.982" xlink:href="#H"/><use x="956.869" xlink:href="#w"/><use x="984.652" xlink:href="#O"/><use x="1079.818" xlink:href="#S"/><use x="1143.441" xlink:href="#P"/><use x="1175.229" xlink:href="#g"/><use x="1270.639" xlink:href="#u"/><use x="1334.115" xlink:href="#d"/><use x="1395.395" xlink:href="#Q"/><use x="1454.574" xlink:href="#H"/><use x="1506.674" xlink:href="#R"/></g><path d="M357.746 218.408h20" fill="none" stroke="#9467bd" stroke-linecap="square" stroke-width="1.5"/><use fill="#9467bd" stroke="#9467bd" x="367.746" xlink:href="#B" y="218.408"/><g transform="matrix(.1 0 0 -.1 385.746 221.908)"><path d="M9.813 72.906h41.89v-8.312H19.672V43.109h28.906v-8.297H19.672V0h-9.86z"/><use x="57.41" xlink:href="#e"/><use x="98.523" xlink:href="#d"/><use x="159.803" xlink:href="#O"/><use x="223.182" xlink:href="#C"/><use x="278.162" xlink:href="#x"/><use x="371.473" xlink:href="#L"/><use x="410.486" xlink:href="#u"/><use x="473.963" xlink:href="#s"/><use x="535.145" xlink:href="#M"/><use x="598.523" xlink:href="#N"/><use x="662" xlink:href="#t"/><use x="689.783" xlink:href="#x"/><use x="751.307" xlink:href="#H"/><use x="835.193" xlink:href="#w"/><use x="862.977" xlink:href="#O"/><use x="958.143" xlink:href="#S"/><use x="1021.766" xlink:href="#P"/><use x="1053.553" xlink:href="#q"/><use x="1148.963" xlink:href="#u"/><use x="1212.439" xlink:href="#d"/><use x="1273.719" xlink:href="#Q"/><use x="1332.898" xlink:href="#H"/><use x="1384.998" xlink:href="#R"/></g></g><g><path d="M50.15 505.928h499.165V298.38H50.15z" fill="#fff"/><path clip-path="url(#T)" d="M50.15 505.928V298.38" fill="none" stroke="#b0b0b0" stroke-linecap="square" stroke-width=".8"/><use stroke="#000" stroke-width=".8" x="50.15" xlink:href="#b" y="505.928"/><g transform="matrix(.1 0 0 -.1 40.717 542.922)"><use xlink:href="#c"/><use x="86.279" xlink:href="#d"/><use x="147.559" xlink:href="#e"/></g><g transform="matrix(.1 0 0 -.1 37.425 554.12)"><use xlink:href="#f"/><use x="63.623" xlink:href="#g"/><use x="127.246" xlink:href="#f"/><use x="190.869" xlink:href="#g"/></g><path clip-path="url(#T)" d="M549.315 505.928V298.38" fill="none" stroke="#b0b0b0" stroke-linecap="square" stroke-width=".8"/><use stroke="#000" stroke-width=".8" x="549.315" xlink:href="#b" y="505.928"/><g transform="matrix(.1 0 0 -.1 540.665 542.922)"><use xlink:href="#h"/><use x="68.408" xlink:href="#i"/><use x="131.885" xlink:href="#e"/></g><use stroke="#000" stroke-width=".6" x="50.15" xlink:href="#j" y="505.928"/><use stroke="#000" stroke-width=".6" x="66.252" xlink:href="#j" y="505.928"/><g transform="matrix(.1 0 0 -.1 59.89 518.926)"><use xlink:href="#g"/><use x="63.623" xlink:href="#f"/></g><g stroke="#000" stroke-width=".6"><use x="82.354" xlink:href="#j" y="505.928"/><use x="98.456" xlink:href="#j" y="505.928"/><use x="114.559" xlink:href="#j" y="505.928"/><use x="130.661" xlink:href="#j" y="505.928"/><use x="146.763" xlink:href="#j" y="505.928"/><use x="162.865" xlink:href="#j" y="505.928"/></g><use stroke="#000" stroke-width=".6" x="178.967" xlink:href="#j" y="505.928"/><g transform="matrix(.1 0 0 -.1 172.604 518.926)"><use xlink:href="#g"/><use x="63.623" xlink:href="#k"/></g><use stroke="#000" stroke-width=".6" x="195.069" xlink:href="#j" y="505.928"/><use stroke="#000" stroke-width=".6" x="211.171" xlink:href="#j" y="505.928"/><use stroke="#000" stroke-width=".6" x="227.273" xlink:href="#j" y="505.928"/><use stroke="#000" stroke-width=".6" x="243.375" xlink:href="#j" y="505.928"/><use stroke="#000" stroke-width=".6" x="259.477" xlink:href="#j" y="505.928"/><use stroke="#000" stroke-width=".6" x="275.579" xlink:href="#j" y="505.928"/><use stroke="#000" stroke-width=".6" x="291.682" xlink:href="#j" y="505.928"/><g transform="matrix(.1 0 0 -.1 285.32 518.926)"><use xlink:href="#l"/><use x="63.623" xlink:href="#m"/></g><use stroke="#000" stroke-width=".6" x="307.784" xlink:href="#j" y="505.928"/><use stroke="#000" stroke-width=".6" x="323.886" xlink:href="#j" y="505.928"/><use stroke="#000" stroke-width=".6" x="339.988" xlink:href="#j" y="505.928"/><use stroke="#000" stroke-width=".6" x="356.09" xlink:href="#j" y="505.928"/><use stroke="#000" stroke-width=".6" x="372.192" xlink:href="#j" y="505.928"/><use stroke="#000" stroke-width=".6" x="388.294" xlink:href="#j" y="505.928"/><use stroke="#000" stroke-width=".6" x="404.396" xlink:href="#j" y="505.928"/><g transform="matrix(.1 0 0 -.1 398.034 518.926)"><use xlink:href="#f"/><use x="63.623" xlink:href="#n"/></g><use stroke="#000" stroke-width=".6" x="420.498" xlink:href="#j" y="505.928"/><use stroke="#000" stroke-width=".6" x="436.6" xlink:href="#j" y="505.928"/><use stroke="#000" stroke-width=".6" x="452.702" xlink:href="#j" y="505.928"/><use stroke="#000" stroke-width=".6" x="468.805" xlink:href="#j" y="505.928"/><use stroke="#000" stroke-width=".6" x="484.907" xlink:href="#j" y="505.928"/><use stroke="#000" stroke-width=".6" x="501.009" xlink:href="#j" y="505.928"/><g><use stroke="#000" stroke-width=".6" x="517.111" xlink:href="#j" y="505.928"/><g transform="matrix(.1 0 0 -.1 510.748 518.926)"><use xlink:href="#n"/><use x="63.623" xlink:href="#g"/></g></g><use stroke="#000" stroke-width=".6" x="533.213" xlink:href="#j" y="505.928"/><use stroke="#000" stroke-width=".6" x="549.315" xlink:href="#j" y="505.928"/><g><path clip-path="url(#T)" d="M50.15 505.928h499.165" fill="none" stroke="#b0b0b0" stroke-linecap="square" stroke-width=".8"/><use stroke="#000" stroke-width=".8" x="50.15" xlink:href="#o" y="505.928"/><g transform="matrix(.1 0 0 -.1 25.55 509.727)"><use transform="translate(0 .684)" xlink:href="#l"/><use transform="translate(63.623 .684)" xlink:href="#g"/><use transform="matrix(.7 0 0 .7 128.203 38.966)" xlink:href="#l"/></g><path clip-path="url(#T)" d="M50.15 456.576h499.165" fill="none" stroke="#b0b0b0" stroke-linecap="square" stroke-width=".8"/><use stroke="#000" stroke-width=".8" x="50.15" xlink:href="#o" y="456.576"/><g transform="matrix(.1 0 0 -.1 25.55 460.375)"><use transform="translate(0 .766)" xlink:href="#l"/><use transform="translate(63.623 .766)" xlink:href="#g"/><use transform="matrix(.7 0 0 .7 128.203 39.047)" xlink:href="#f"/></g><path clip-path="url(#T)" d="M50.15 407.223h499.165" fill="none" stroke="#b0b0b0" stroke-linecap="square" stroke-width=".8"/><use stroke="#000" stroke-width=".8" x="50.15" xlink:href="#o" y="407.223"/><g transform="matrix(.1 0 0 -.1 25.55 411.022)"><use transform="translate(0 .766)" xlink:href="#l"/><use transform="translate(63.623 .766)" xlink:href="#g"/><use transform="matrix(.7 0 0 .7 128.203 39.047)" xlink:href="#n"/></g><g><path clip-path="url(#T)" d="M50.15 357.87h499.165" fill="none" stroke="#b0b0b0" stroke-linecap="square" stroke-width=".8"/><use stroke="#000" stroke-width=".8" x="50.15" xlink:href="#o" y="357.871"/><g transform="matrix(.1 0 0 -.1 25.55 361.67)"><use transform="translate(0 .684)" xlink:href="#l"/><use transform="translate(63.623 .684)" xlink:href="#g"/><use transform="matrix(.7 0 0 .7 128.203 38.966)" xlink:href="#p"/></g></g><g><path clip-path="url(#T)" d="M50.15 308.518h499.165" fill="none" stroke="#b0b0b0" stroke-linecap="square" stroke-width=".8"/><use stroke="#000" stroke-width=".8" x="50.15" xlink:href="#o" y="308.518"/><g transform="matrix(.1 0 0 -.1 25.55 312.317)"><use transform="translate(0 .684)" xlink:href="#l"/><use transform="translate(63.623 .684)" xlink:href="#g"/><use transform="matrix(.7 0 0 .7 128.203 38.966)" xlink:href="#q"/></g></g><g stroke="#000" stroke-width=".6"><use x="50.15" xlink:href="#r" y="491.071"/><use x="50.15" xlink:href="#r" y="482.381"/><use x="50.15" xlink:href="#r" y="476.215"/><use x="50.15" xlink:href="#r" y="471.432"/><use x="50.15" xlink:href="#r" y="467.524"/><use x="50.15" xlink:href="#r" y="464.22"/><use x="50.15" xlink:href="#r" y="461.358"/><use x="50.15" xlink:href="#r" y="458.834"/><use x="50.15" xlink:href="#r" y="441.719"/><use x="50.15" xlink:href="#r" y="433.028"/><use x="50.15" xlink:href="#r" y="426.862"/><use x="50.15" xlink:href="#r" y="422.08"/><use x="50.15" xlink:href="#r" y="418.172"/><use x="50.15" xlink:href="#r" y="414.868"/><use x="50.15" xlink:href="#r" y="412.006"/><use x="50.15" xlink:href="#r" y="409.481"/><use x="50.15" xlink:href="#r" y="392.366"/><use x="50.15" xlink:href="#r" y="383.676"/><use x="50.15" xlink:href="#r" y="377.51"/><use x="50.15" xlink:href="#r" y="372.727"/><use x="50.15" xlink:href="#r" y="368.819"/><use x="50.15" xlink:href="#r" y="365.515"/><use x="50.15" xlink:href="#r" y="362.653"/><use x="50.15" xlink:href="#r" y="360.129"/><use x="50.15" xlink:href="#r" y="343.014"/><use x="50.15" xlink:href="#r" y="334.323"/><use x="50.15" xlink:href="#r" y="328.157"/><use x="50.15" xlink:href="#r" y="323.375"/><use x="50.15" xlink:href="#r" y="319.467"/><use x="50.15" xlink:href="#r" y="316.163"/><use x="50.15" xlink:href="#r" y="313.301"/><use x="50.15" xlink:href="#r" y="310.776"/></g><g transform="matrix(0 -.1 -.1 0 19.47 408.988)"><use xlink:href="#J"/><use x="73.193" xlink:href="#K"/></g></g><g stroke="#1f77b4"><path clip-path="url(#T)" d="M66.248 569.8l.004-14.52 16.102-14.856 16.102-36.539 16.103-15.81 16.102-9.602 16.102-16.015 16.102-7.131 16.102-6.267 16.102-4.233 16.102-5.15 16.102-8.561 16.102-5.35 16.102-4.65 16.102-7.118 16.103-5.833 16.102-12.227 16.102-8.173 16.102-16.412 16.102-9.406 16.102-7.35 16.102-6.371 16.102-5.976 16.102-4.419 16.102-3.901 16.102-4.385 16.103-3.6 16.102-3.28 16.102-2.722" fill="none" stroke-linecap="square" stroke-width="1.5"/><g clip-path="url(#T)" fill="#1f77b4"><use x="53.071" xlink:href="#y" y="40954.6"/><use x="66.252" xlink:href="#y" y="555.28"/><use x="82.354" xlink:href="#y" y="540.424"/><use x="98.456" xlink:href="#y" y="503.885"/><use x="114.559" xlink:href="#y" y="488.076"/><use x="130.661" xlink:href="#y" y="478.473"/><use x="146.763" xlink:href="#y" y="462.458"/><use x="162.865" xlink:href="#y" y="455.327"/><use x="178.967" xlink:href="#y" y="449.06"/><use x="195.069" xlink:href="#y" y="444.827"/><use x="211.171" xlink:href="#y" y="439.676"/><use x="227.273" xlink:href="#y" y="431.116"/><use x="243.375" xlink:href="#y" y="425.766"/><use x="259.477" xlink:href="#y" y="421.116"/><use x="275.579" xlink:href="#y" y="413.998"/><use x="291.682" xlink:href="#y" y="408.165"/><use x="307.784" xlink:href="#y" y="395.938"/><use x="323.886" xlink:href="#y" y="387.765"/><use x="339.988" xlink:href="#y" y="371.353"/><use x="356.09" xlink:href="#y" y="361.947"/><use x="372.192" xlink:href="#y" y="354.597"/><use x="388.294" xlink:href="#y" y="348.226"/><use x="404.396" xlink:href="#y" y="342.25"/><use x="420.498" xlink:href="#y" y="337.831"/><use x="436.6" xlink:href="#y" y="333.93"/><use x="452.702" xlink:href="#y" y="329.545"/><use x="468.805" xlink:href="#y" y="325.945"/><use x="484.907" xlink:href="#y" y="322.665"/><use x="501.009" xlink:href="#y" y="319.943"/></g></g><g stroke="#ff7f0e"><path clip-path="url(#T)" d="M114.549 569.8l.01-29.376h16.102l16.102-14.857 16.102-4.782h16.102l16.102-22.069 16.102-9.687 16.102-5.17h16.102l16.102-19.017 16.102-7.392 16.103-12.869 16.102-8.731 16.102-.082 16.102-21.888 16.102-3.893 16.102-8.568 16.102-7.885 16.102-8.51 16.102-5.44 16.102-3.823 16.102-9.609 16.103-5.338 16.102-4.955 16.102-3.98" fill="none" stroke-linecap="square" stroke-width="1.5"/><g clip-path="url(#T)" fill="#ff7f0e"><use x="101.377" xlink:href="#z" y="40954.6"/><use x="114.559" xlink:href="#z" y="540.424"/><use x="130.661" xlink:href="#z" y="540.424"/><use x="146.763" xlink:href="#z" y="525.567"/><use x="162.865" xlink:href="#z" y="520.785"/><use x="178.967" xlink:href="#z" y="520.785"/><use x="195.069" xlink:href="#z" y="498.716"/><use x="211.171" xlink:href="#z" y="489.029"/><use x="227.273" xlink:href="#z" y="483.86"/><use x="243.375" xlink:href="#z" y="483.86"/><use x="259.477" xlink:href="#z" y="464.842"/><use x="275.579" xlink:href="#z" y="457.45"/><use x="291.682" xlink:href="#z" y="444.581"/><use x="307.784" xlink:href="#z" y="435.85"/><use x="323.886" xlink:href="#z" y="435.768"/><use x="339.988" xlink:href="#z" y="413.88"/><use x="356.09" xlink:href="#z" y="409.987"/><use x="372.192" xlink:href="#z" y="401.419"/><use x="388.294" xlink:href="#z" y="393.534"/><use x="404.396" xlink:href="#z" y="385.025"/><use x="420.498" xlink:href="#z" y="379.584"/><use x="436.6" xlink:href="#z" y="375.761"/><use x="452.702" xlink:href="#z" y="366.152"/><use x="468.805" xlink:href="#z" y="360.814"/><use x="484.907" xlink:href="#z" y="355.859"/><use x="501.009" xlink:href="#z" y="351.879"/></g></g><path clip-path="url(#T)" d="M-1 508.632l2.844-.446h16.102l16.102-2.258H50.15l16.102-13.757 16.102-4.095 16.102-7.078 16.103-8.69 16.102-3.305 16.102-7.375 16.102-3.953 16.102-1.313 16.102-6.998 16.102-4.412 16.102-4.38 16.102-5.444 16.102-4.077 16.102-4.926 16.103-5.853 16.102-4.783 16.102-1.754 16.102-5.049 16.102-4.533 16.102-3.203 16.102-4.014 16.102-5.297 16.102-3.952 16.102-3.527 16.102-5.652 16.103-3.82 16.102-1.896 16.102-2.978" fill="none" stroke="#2ca02c" stroke-linecap="square" stroke-width="1.5"/><g stroke="#d62728"><path clip-path="url(#T)" d="M211.162 569.8l.01-29.376h16.101l16.102-44.57 16.102-9.565 16.102-5.95 16.103-10.156 16.102-4.374 16.102-5.24 16.102-29.648 16.102-10.845 16.102-7.61 16.102-5.793 16.102-5.303 16.102-6.373 16.102-5.184 16.102-4.535 16.103-5.162 16.102-5.316 16.102-3.547" fill="none" stroke-linecap="square" stroke-width="1.5"/><g clip-path="url(#T)" fill="#d62728"><use x="197.989" xlink:href="#A" y="40954.6"/><use x="211.171" xlink:href="#A" y="540.424"/><use x="227.273" xlink:href="#A" y="540.424"/><use x="243.375" xlink:href="#A" y="495.854"/><use x="259.477" xlink:href="#A" y="486.289"/><use x="275.579" xlink:href="#A" y="480.338"/><use x="291.682" xlink:href="#A" y="470.183"/><use x="307.784" xlink:href="#A" y="465.809"/><use x="323.886" xlink:href="#A" y="460.569"/><use x="339.988" xlink:href="#A" y="430.921"/><use x="356.09" xlink:href="#A" y="420.076"/><use x="372.192" xlink:href="#A" y="412.466"/><use x="388.294" xlink:href="#A" y="406.673"/><use x="404.396" xlink:href="#A" y="401.37"/><use x="420.498" xlink:href="#A" y="394.997"/><use x="436.6" xlink:href="#A" y="389.813"/><use x="452.702" xlink:href="#A" y="385.278"/><use x="468.805" xlink:href="#A" y="380.116"/><use x="484.907" xlink:href="#A" y="374.8"/><use x="501.009" xlink:href="#A" y="371.253"/></g></g><g stroke="#9467bd"><path clip-path="url(#T)" d="M-1 555.28h2.844l.005 14.52m80.5 0l.005-14.52h32.205l16.102-38.403h16.102l16.102-28.801h16.102l16.102-29.48 16.102-.694 16.102-2.777 16.102-2.812 16.102-2.485 16.102-3.724 16.103-3.952 16.102-2.182 16.102-.098 16.102-8.756 16.102-4.887 16.102-5.154 16.102-4.32 16.102-3.874 16.102-8.616 16.102-9.912 16.102-5.823 16.103-6.27 16.102-5.862 16.102-3.268" fill="none" stroke-linecap="square" stroke-width="1.5"/><g clip-path="url(#T)" fill="#9467bd"><use x="-1" xlink:href="#B" y="555.28"/><use x="1.844" xlink:href="#B" y="555.28"/><use x="15.025" xlink:href="#B" y="40954.6"/><use x="69.173" xlink:href="#B" y="40954.6"/><use x="82.354" xlink:href="#B" y="555.28"/><use x="98.456" xlink:href="#B" y="555.28"/><use x="114.559" xlink:href="#B" y="555.28"/><use x="130.661" xlink:href="#B" y="516.877"/><use x="146.763" xlink:href="#B" y="516.877"/><use x="162.865" xlink:href="#B" y="488.076"/><use x="178.967" xlink:href="#B" y="488.076"/><use x="195.069" xlink:href="#B" y="458.597"/><use x="211.171" xlink:href="#B" y="457.902"/><use x="227.273" xlink:href="#B" y="455.125"/><use x="243.375" xlink:href="#B" y="452.313"/><use x="259.477" xlink:href="#B" y="449.828"/><use x="275.579" xlink:href="#B" y="446.104"/><use x="291.682" xlink:href="#B" y="442.152"/><use x="307.784" xlink:href="#B" y="439.97"/><use x="323.886" xlink:href="#B" y="439.872"/><use x="339.988" xlink:href="#B" y="431.116"/><use x="356.09" xlink:href="#B" y="426.229"/><use x="372.192" xlink:href="#B" y="421.075"/><use x="388.294" xlink:href="#B" y="416.755"/><use x="404.396" xlink:href="#B" y="412.881"/><use x="420.498" xlink:href="#B" y="404.265"/><use x="436.6" xlink:href="#B" y="394.353"/><use x="452.702" xlink:href="#B" y="388.53"/><use x="468.805" xlink:href="#B" y="382.259"/><use x="484.907" xlink:href="#B" y="376.398"/><use x="501.009" xlink:href="#B" y="373.13"/></g></g><path clip-path="url(#T)" d="M501.009 319.943l16.102-3.11 16.102-3.11 16.102-3.11" fill="none" stroke="#1f77b4" stroke-dasharray="1.5 2.475" stroke-width="1.5"/><path clip-path="url(#T)" d="M501.009 351.88l16.102-4.62 16.102-4.619 16.102-4.619" fill="none" stroke="#ff7f0e" stroke-dasharray="1.5 2.475" stroke-width="1.5"/><path clip-path="url(#T)" d="M501.009 369.814l16.102-2.772 16.102-2.772 16.102-2.772" fill="none" stroke="#2ca02c" stroke-dasharray="1.5 2.475" stroke-width="1.5"/><path clip-path="url(#T)" d="M501.009 371.253l16.102-4.525 16.102-4.525 16.102-4.525" fill="none" stroke="#d62728" stroke-dasharray="1.5 2.475" stroke-width="1.5"/><path clip-path="url(#T)" d="M501.009 373.13l16.102-4.838 16.102-4.838 16.102-4.838" fill="none" stroke="#9467bd" stroke-dasharray="1.5 2.475" stroke-width="1.5"/><path d="M50.15 505.928V298.38M549.315 505.928V298.38M50.15 505.928h499.165M50.15 298.38h499.165" fill="none" stroke="#000" stroke-linecap="square" stroke-linejoin="miter" stroke-width=".8"/><g><path d="M57.15 379.77h214.322q2 0 2-2v-72.39q0-2-2-2H57.15q-2 0-2 2v72.39q0 2 2 2z" fill="#fff" opacity=".8" stroke="#ccc" stroke-linejoin="miter"/><path d="M59.15 311.478h20" fill="none" stroke="#1f77b4" stroke-linecap="square" stroke-width="1.5"/><use fill="#1f77b4" stroke="#1f77b4" x="69.15" xlink:href="#y" y="311.478"/><g transform="matrix(.1 0 0 -.1 87.15 314.978)"><use xlink:href="#U"/><use x="74.805" xlink:href="#x"/><use x="136.328" xlink:href="#v"/><path d="M249.7 72.906h10.609l20.203-29.984 20.078 29.984h10.594L285.402 34.72V0h-9.906v34.719z"/><use x="310.783" xlink:href="#s"/><use x="371.965" xlink:href="#e"/><path d="M422.156 75.984h9.031V31.11L458 54.687h11.469l-29-25.578L470.703 0h-11.719l-27.796 26.703V0h-9.032z"/><use x="502.775" xlink:href="#L"/><use x="541.789" xlink:href="#u"/><use x="605.266" xlink:href="#s"/><use x="666.447" xlink:href="#M"/><use x="729.826" xlink:href="#N"/><use x="793.303" xlink:href="#t"/><use x="821.086" xlink:href="#x"/><use x="882.609" xlink:href="#H"/><use x="966.496" xlink:href="#w"/><use x="994.279" xlink:href="#O"/><use x="1089.445" xlink:href="#p"/><use x="1153.068" xlink:href="#P"/><path d="M1216.637 34.625q-7.032 0-11.063-3.766-4.015-3.765-4.015-10.343 0-6.594 4.015-10.36 4.031-3.765 11.063-3.765 7.031 0 11.078 3.78 4.062 3.798 4.062 10.345 0 6.578-4.03 10.343-4.017 3.766-11.11 3.766zm-9.86 4.188q-6.343 1.562-9.89 5.906-3.532 4.36-3.532 10.61 0 8.733 6.22 13.812 6.234 5.078 17.062 5.078 10.89 0 17.093-5.078 6.204-5.079 6.204-13.813 0-6.25-3.547-10.61-3.532-4.343-9.828-5.906 7.125-1.656 11.093-6.5 3.985-4.828 3.985-11.796 0-10.61-6.469-16.282-6.469-5.656-18.531-5.656-12.047 0-18.532 5.656-6.468 5.672-6.468 16.282 0 6.968 4 11.797 4.015 4.843 11.14 6.5zm-3.609 15.578q0-5.657 3.531-8.828 3.547-3.172 9.938-3.172 6.36 0 9.937 3.172 3.594 3.171 3.594 8.828 0 5.672-3.594 8.843-3.578 3.172-9.937 3.172-6.39 0-9.938-3.172-3.531-3.172-3.531-8.843z"/><use x="1280.266" xlink:href="#u"/><use x="1343.742" xlink:href="#d"/><use x="1405.021" xlink:href="#Q"/><use x="1464.201" xlink:href="#H"/><use x="1516.301" xlink:href="#R"/></g><path d="M59.15 326.157h20" fill="none" stroke="#ff7f0e" stroke-linecap="square" stroke-width="1.5"/><use fill="#ff7f0e" stroke="#ff7f0e" x="69.15" xlink:href="#z" y="326.157"/><g transform="matrix(.1 0 0 -.1 87.15 329.657)"><use xlink:href="#U"/><use x="74.805" xlink:href="#x"/><use x="136.328" xlink:href="#v"/><path d="M259.715 72.906h9.86V5.078q0-13.187-5-19.14-5-5.954-16.095-5.954h-3.75v8.297h3.079q6.53 0 9.218 3.672 2.688 3.656 2.688 13.125z"/><use x="279.395" xlink:href="#x"/><use x="340.918" xlink:href="#e"/><use x="382.031" xlink:href="#H"/><use x="434.131" xlink:href="#x"/><use x="495.654" xlink:href="#Q"/><use x="586.621" xlink:href="#L"/><use x="625.635" xlink:href="#u"/><use x="689.111" xlink:href="#s"/><use x="750.293" xlink:href="#M"/><use x="813.672" xlink:href="#N"/><use x="877.148" xlink:href="#t"/><use x="904.932" xlink:href="#x"/><use x="966.455" xlink:href="#H"/><use x="1050.342" xlink:href="#w"/><use x="1078.125" xlink:href="#O"/><use x="1173.291" xlink:href="#n"/><use x="1236.914" xlink:href="#P"/><use x="1268.701" xlink:href="#f"/><use x="1364.111" xlink:href="#u"/><use x="1427.588" xlink:href="#d"/><use x="1488.867" xlink:href="#Q"/><use x="1548.047" xlink:href="#H"/><use x="1600.146" xlink:href="#R"/></g><path d="M59.15 340.835h20" fill="none" stroke="#2ca02c" stroke-linecap="square" stroke-width="1.5"/><g transform="matrix(.1 0 0 -.1 87.15 344.335)"><use xlink:href="#E"/><use x="69.824" xlink:href="#d"/><use x="131.104" xlink:href="#t"/><use x="158.887" xlink:href="#w"/><use x="186.67" xlink:href="#I"/><use x="221.875" xlink:href="#s"/><use x="283.057" xlink:href="#e"/><use x="324.154" xlink:href="#O"/><use x="387.533" xlink:href="#w"/><use x="415.316" xlink:href="#d"/><use x="508.383" xlink:href="#L"/><use x="547.396" xlink:href="#u"/><use x="610.873" xlink:href="#s"/><use x="672.055" xlink:href="#M"/><use x="735.434" xlink:href="#N"/><use x="798.91" xlink:href="#t"/><use x="826.693" xlink:href="#x"/><use x="888.217" xlink:href="#H"/><use x="972.104" xlink:href="#w"/><use x="999.887" xlink:href="#O"/><use x="1095.053" xlink:href="#q"/><use x="1158.676" xlink:href="#P"/><use x="1190.463" xlink:href="#p"/><use x="1285.873" xlink:href="#u"/><use x="1349.35" xlink:href="#d"/><use x="1410.629" xlink:href="#Q"/><use x="1469.809" xlink:href="#H"/><use x="1521.908" xlink:href="#R"/></g><path d="M59.15 355.513h20" fill="none" stroke="#d62728" stroke-linecap="square" stroke-width="1.5"/><use fill="#d62728" stroke="#d62728" x="69.15" xlink:href="#A" y="355.513"/><g transform="matrix(.1 0 0 -.1 87.15 359.013)"><use xlink:href="#c"/><use x="86.279" xlink:href="#w"/><use x="114.063" xlink:href="#C"/><use x="169.043" xlink:href="#V"/><use x="232.422" xlink:href="#w"/><path d="M305.611 27.984q0 9.766-4.03 15.125-4.017 5.375-11.298 5.375-7.219 0-11.25-5.375-4.031-5.359-4.031-15.125 0-9.718 4.031-15.093t11.25-5.375q7.281 0 11.297 5.375 4.031 5.375 4.031 15.093zm8.985-21.203q0-13.953-6.203-20.765-6.188-6.813-18.985-6.813-4.734 0-8.937.703-4.203.703-8.157 2.172v8.735q3.954-2.141 7.813-3.157 3.86-1.031 7.86-1.031 8.843 0 13.234 4.61 4.39 4.609 4.39 13.937v4.453q-2.78-4.844-7.125-7.234Q294.143 0 288.08 0q-10.047 0-16.203 7.656-6.156 7.672-6.156 20.328 0 12.688 6.156 20.344Q278.033 56 288.08 56q6.063 0 10.406-2.39 4.344-2.391 7.125-7.22v8.297h8.985z"/><use x="323.682" xlink:href="#d"/><use x="384.961" xlink:href="#O"/><use x="480.127" xlink:href="#L"/><use x="519.141" xlink:href="#u"/><use x="582.617" xlink:href="#s"/><use x="643.799" xlink:href="#M"/><use x="707.178" xlink:href="#N"/><use x="770.654" xlink:href="#t"/><use x="798.438" xlink:href="#x"/><use x="859.961" xlink:href="#H"/><use x="943.848" xlink:href="#w"/><use x="971.631" xlink:href="#O"/><use x="1066.797" xlink:href="#n"/><use x="1130.42" xlink:href="#P"/><use x="1162.207" xlink:href="#n"/><use x="1257.617" xlink:href="#u"/><use x="1321.094" xlink:href="#d"/><use x="1382.373" xlink:href="#Q"/><use x="1441.553" xlink:href="#H"/><use x="1493.652" xlink:href="#R"/></g><path d="M59.15 370.19h20" fill="none" stroke="#9467bd" stroke-linecap="square" stroke-width="1.5"/><use fill="#9467bd" stroke="#9467bd" x="69.15" xlink:href="#B" y="370.191"/><g transform="matrix(.1 0 0 -.1 87.15 373.69)"><use xlink:href="#c"/><use x="86.279" xlink:href="#d"/><use x="147.559" xlink:href="#H"/><use x="199.658" xlink:href="#H"/><use x="251.758" xlink:href="#d"/><use x="313.037" xlink:href="#C"/><use x="368.018" xlink:href="#V"/><use x="431.396" xlink:href="#M"/><use x="494.775" xlink:href="#H"/><use x="546.875" xlink:href="#x"/><use x="608.398" xlink:href="#D"/><use x="647.607" xlink:href="#D"/><use x="686.816" xlink:href="#H"/><use x="770.703" xlink:href="#L"/><use x="809.717" xlink:href="#u"/><use x="873.193" xlink:href="#s"/><use x="934.375" xlink:href="#M"/><use x="997.754" xlink:href="#N"/><use x="1061.23" xlink:href="#t"/><use x="1089.014" xlink:href="#x"/><use x="1150.537" xlink:href="#H"/><use x="1234.424" xlink:href="#w"/><use x="1262.207" xlink:href="#O"/><use x="1357.373" xlink:href="#n"/><use x="1420.996" xlink:href="#P"/><use x="1452.783" xlink:href="#l"/><use x="1548.193" xlink:href="#u"/><use x="1611.67" xlink:href="#d"/><use x="1672.949" xlink:href="#Q"/><use x="1732.129" xlink:href="#H"/><use x="1784.229" xlink:href="#R"/></g></g></g></svg>