<svg height="758.4" stroke-linejoin="round" viewBox="0 0 568.8 568.8" width="758.4" xmlns="http://www.w3.org/2000/svg" xmlns:xlink="http://www.w3.org/1999/xlink"><defs><path id="y" d="M0 1.5a1.5 1.5 0 100-3 1.5 1.5 0 000 3z" stroke="#9467bd" stroke-linejoin="round"/><path id="X" d="M54.89 33.016V0h-8.984v32.719q0 7.765-3.031 11.61-3.031 3.858-9.078 3.858-7.281 0-11.484-4.64-4.204-4.625-4.204-12.64V0H9.08v75.984h9.03V46.188q3.235 4.937 7.594 7.374Q30.078 56 35.797 56q9.422 0 14.25-5.828 4.844-5.828 4.844-17.156z" stroke-linejoin="round"/><path id="b" d="M0 0v3.5" stroke="#000" stroke-linejoin="round" stroke-width=".8"/><path id="c" d="M34.188 63.188L20.797 26.906h26.812zm-5.579 9.718h11.188L67.578 0h-10.25l-6.64 18.703h-32.86L11.188 0H.78z" stroke-linejoin="round"/><path id="d" d="M18.11 8.203v-29H9.077v75.484h9.031v-8.296q2.844 4.875 7.157 7.234Q29.594 56 35.594 56q9.968 0 16.187-7.906 6.235-7.907 6.235-20.797T51.78 6.484q-6.218-7.906-16.187-7.906-6 0-10.328 2.375-4.313 2.375-7.157 7.25zm30.578 19.094q0 9.906-4.079 15.547-4.078 5.64-11.203 5.64-7.14 0-11.218-5.64-4.079-5.64-4.079-15.547 0-9.906 4.078-15.547 4.079-5.64 11.22-5.64 7.124 0 11.202 5.64t4.078 15.547z" stroke-linejoin="round"/><path id="e" d="M41.11 46.297q-1.516.875-3.297 1.281Q36.03 48 33.89 48q-7.625 0-11.703-4.953-4.079-4.953-4.079-14.234V0H9.08v54.688h9.03v-8.5q2.844 4.984 7.375 7.39Q30.031 56 36.531 56q.922 0 2.047-.125 1.125-.11 2.484-.36z" stroke-linejoin="round"/><path id="f" d="M19.188 8.297h34.421V0H7.33v8.297q5.609 5.812 15.296 15.594 9.703 9.797 12.188 12.64 4.734 5.313 6.609 9 1.89 3.688 1.89 7.25 0 5.813-4.078 9.469-4.078 3.672-10.625 3.672-4.64 0-9.797-1.61-5.14-1.609-11-4.89v9.969Q13.767 71.78 18.938 73q5.188 1.219 9.485 1.219 11.328 0 18.062-5.672 6.735-5.656 6.735-15.125 0-4.5-1.688-8.531-1.672-4.016-6.125-9.485-1.218-1.422-7.765-8.187-6.532-6.766-18.453-18.922z" stroke-linejoin="round"/><path id="g" d="M31.781 66.406q-7.61 0-11.453-7.5Q16.5 51.422 16.5 36.375q0-14.984 3.828-22.484 3.844-7.5 11.453-7.5 7.672 0 11.5 7.5 3.844 7.5 3.844 22.484 0 15.047-3.844 22.531-3.828 7.5-11.5 7.5zm0 7.813q12.266 0 18.735-9.703 6.468-9.688 6.468-28.141 0-18.406-6.468-28.11-6.47-9.687-18.735-9.687-12.25 0-18.718 9.688-6.47 9.703-6.47 28.109 0 18.453 6.47 28.14Q19.53 74.22 31.78 74.22z" stroke-linejoin="round"/><path id="h" d="M0 0v2" stroke="#000" stroke-linejoin="round" stroke-width=".6"/><path id="i" d="M12.406 8.297h16.11v55.625l-17.532-3.516v8.985l17.438 3.515h9.86V8.296H54.39V0H12.406z" stroke-linejoin="round"/><path id="j" d="M33.016 40.375q-6.641 0-10.532-4.547-3.875-4.531-3.875-12.437 0-7.86 3.875-12.438 3.891-4.562 10.532-4.562 6.64 0 10.515 4.562 3.875 4.578 3.875 12.438 0 7.906-3.875 12.437-3.875 4.547-10.515 4.547zm19.578 30.922v-8.984q-3.719 1.75-7.5 2.671-3.782.938-7.5.938-9.766 0-14.922-6.594-5.14-6.594-5.875-19.922 2.875 4.25 7.219 6.516 4.359 2.266 9.578 2.266 10.984 0 17.36-6.672 6.374-6.657 6.374-18.125 0-11.235-6.64-18.032-6.641-6.78-17.672-6.78-12.657 0-19.344 9.687-6.688 9.703-6.688 28.109 0 17.281 8.204 27.563 8.203 10.28 22.015 10.28 3.719 0 7.5-.734t7.89-2.187z" stroke-linejoin="round"/><path id="k" d="M40.578 39.313Q47.656 37.797 51.625 33q3.984-4.781 3.984-11.813 0-10.78-7.422-16.703-7.421-5.906-21.093-5.906-4.578 0-9.438.906-4.86.907-10.031 2.72v9.515q4.094-2.39 8.969-3.61 4.89-1.218 10.218-1.218 9.266 0 14.125 3.656 4.86 3.656 4.86 10.64 0 6.454-4.516 10.079-4.515 3.64-12.562 3.64h-8.5v8.11h8.89q7.266 0 11.125 2.906 3.86 2.906 3.86 8.375 0 5.61-3.985 8.61-3.968 3.015-11.39 3.015-4.063 0-8.703-.89-4.641-.876-10.203-2.72v8.782q5.624 1.562 10.53 2.344 4.907.78 9.25.78 11.235 0 17.766-5.109 6.547-5.093 6.547-13.78 0-6.063-3.468-10.235-3.47-4.172-9.86-5.782z" stroke-linejoin="round"/><path id="l" d="M0 0h-3.5" stroke="#000" stroke-linejoin="round" stroke-width=".8"/><path id="m" d="M37.797 64.313L12.89 25.39h24.906zm-2.594 8.593H47.61V25.391h10.407v-8.203H47.609V0h-9.812v17.188H4.89v9.515z" stroke-linejoin="round"/><path id="n" d="M10.797 72.906h38.719v-8.312H19.828v-17.86q2.14.735 4.281 1.094 2.157.36 4.313.36 12.203 0 19.328-6.688 7.14-6.688 7.14-18.11 0-11.765-7.328-18.296-7.328-6.516-20.656-6.516-4.593 0-9.36.781-4.75.782-9.827 2.344v9.922q4.39-2.39 9.078-3.563 4.687-1.171 9.906-1.171 8.453 0 13.375 4.437 4.938 4.438 4.938 12.063 0 7.609-4.938 12.047-4.922 4.453-13.375 4.453-3.953 0-7.89-.875-3.922-.875-8.016-2.735z" stroke-linejoin="round"/><path id="o" d="M0 0h-2" stroke="#000" stroke-linejoin="round" stroke-width=".6"/><path id="p" d="M30.61 48.39q-7.22 0-11.422-5.64-4.204-5.64-4.204-15.453 0-9.813 4.172-15.453 4.188-5.64 11.453-5.64 7.188 0 11.375 5.655 4.203 5.672 4.203 15.438 0 9.719-4.203 15.406-4.187 5.688-11.375 5.688zm0 7.61q11.718 0 18.406-7.625 6.703-7.61 6.703-21.078 0-13.422-6.703-21.078-6.688-7.64-18.407-7.64-11.765 0-18.437 7.64-6.656 7.656-6.656 21.078 0 13.469 6.656 21.078Q18.844 56 30.609 56z" stroke-linejoin="round"/><path id="q" d="M9.422 75.984h8.984V0H9.422z" stroke-linejoin="round"/><path id="r" d="M45.406 46.39v29.594h8.985V0h-8.985v8.203Q42.578 3.328 38.25.953q-4.313-2.375-10.375-2.375-9.906 0-16.14 7.906-6.22 7.922-6.22 20.813 0 12.89 6.22 20.797Q17.968 56 27.874 56q6.063 0 10.375-2.375 4.328-2.36 7.156-7.234zm-30.61-19.093q0-9.906 4.079-15.547 4.078-5.64 11.203-5.64 7.125 0 11.219 5.64 4.11 5.64 4.11 15.547 0 9.906-4.11 15.547-4.094 5.64-11.219 5.64-7.125 0-11.203-5.64-4.078-5.64-4.078-15.547z" stroke-linejoin="round"/><path id="s" d="M4.203 54.688h8.985l11.234-42.672 11.172 42.672h10.593l11.235-42.672 11.187 42.672h8.985L63.28 0H52.688L40.922 44.828 29.109 0H18.5z" stroke-linejoin="round"/><path id="t" d="M9.422 54.688h8.984V0H9.422zm0 21.296h8.984v-11.39H9.422z" stroke-linejoin="round"/><path id="u" d="M56.203 29.594v-4.39H14.891q.593-9.282 5.593-14.142 5-4.859 13.938-4.859 5.172 0 10.031 1.266 4.86 1.265 9.656 3.812v-8.5Q49.266.734 44.187-.344 39.11-1.422 33.892-1.422q-13.094 0-20.735 7.61-7.64 7.625-7.64 20.625 0 13.421 7.25 21.296Q20.016 56 32.328 56q11.031 0 17.453-7.11 6.422-7.093 6.422-19.296zm-8.984 2.64q-.094 7.36-4.125 11.75-4.032 4.407-10.672 4.407-7.516 0-12.031-4.25-4.516-4.25-5.203-11.97z" stroke-linejoin="round"/><path id="v" d="M-3 0h6M0 3v-6" stroke="#1f77b4" stroke-linejoin="round"/><path id="w" d="M0 1.5a1.5 1.5 0 100-3 1.5 1.5 0 000 3z" stroke="#ff7f0e" stroke-linejoin="round"/><path id="x" d="M-3 0h6M0 3v-6" stroke="#d62728" stroke-linejoin="round"/><path id="W" d="M9.813 72.906h14.703l18.593-49.61 18.703 49.61h14.704V0H66.89v64.016l-18.797-50h-9.907l-18.796 50V0H9.813z" stroke-linejoin="round"/><path id="z" d="M48.781 52.594v-8.407q-3.812 2.11-7.64 3.157-3.828 1.047-7.735 1.047-8.75 0-13.593-5.547-4.829-5.532-4.829-15.547 0-10.016 4.829-15.563 4.843-5.53 13.593-5.53 3.907 0 7.735 1.046 3.828 1.047 7.64 3.156V2.094Q45.016.344 40.984-.531q-4.015-.89-8.562-.89-12.36 0-19.64 7.765-7.266 7.765-7.266 20.953 0 13.375 7.343 21.031Q20.22 56 33.016 56q4.14 0 8.093-.86 3.953-.843 7.672-2.546z" stroke-linejoin="round"/><path id="A" d="M18.313 70.219V54.688h18.5v-6.985h-18.5V18.016q0-6.688 1.828-8.594 1.828-1.906 7.453-1.906h9.218V0h-9.218q-10.407 0-14.36 3.875-3.953 3.89-3.953 14.14v29.688H2.687v6.984h6.594V70.22z" stroke-linejoin="round"/><path id="B" d="M64.406 67.281v-10.39q-4.984 4.64-10.625 6.922-5.64 2.296-11.984 2.296-12.5 0-19.14-7.64-6.641-7.64-6.641-22.094 0-14.406 6.64-22.047 6.64-7.64 19.14-7.64 6.345 0 11.985 2.296 5.64 2.297 10.625 6.938V5.609Q59.234 2.094 53.437.33q-5.78-1.75-12.218-1.75-16.563 0-26.094 10.124-9.516 10.14-9.516 27.672 0 17.578 9.516 27.703 9.531 10.14 26.094 10.14 6.531 0 12.312-1.734 5.797-1.734 10.875-5.203z" stroke-linejoin="round"/><path id="C" d="M9.813 72.906h9.859V0h-9.86z" stroke-linejoin="round"/><path id="D" d="M4.89 31.39h26.313v-8H4.891z" stroke-linejoin="round"/><path id="E" d="M10.984 1.516V10.5q3.72-1.766 7.516-2.688 3.813-.921 7.484-.921 9.766 0 14.907 6.562 5.156 6.563 5.89 19.953-2.828-4.203-7.187-6.453-4.344-2.25-9.61-2.25-10.937 0-17.312 6.61-6.375 6.625-6.375 18.109 0 11.219 6.64 18 6.641 6.797 17.672 6.797 12.657 0 19.313-9.703 6.672-9.688 6.672-28.141 0-17.234-8.188-27.516Q40.234-1.42 26.422-1.42q-3.719 0-7.531.734-3.797.734-7.907 2.203zM30.61 32.422q6.641 0 10.516 4.531 3.89 4.547 3.89 12.469 0 7.86-3.89 12.422-3.875 4.562-10.516 4.562-6.64 0-10.515-4.562-3.875-4.563-3.875-12.422 0-7.922 3.875-12.469 3.875-4.531 10.515-4.531z" stroke-linejoin="round"/><path id="F" d="M34.281 27.484q-10.89 0-15.093-2.484-4.204-2.484-4.204-8.5 0-4.781 3.157-7.594 3.156-2.797 8.562-2.797 7.485 0 12 5.297 4.516 5.297 4.516 14.078v2zm17.922 3.72V0H43.22v8.297Q40.14 3.328 35.547.953q-4.594-2.375-11.234-2.375-8.391 0-13.36 4.719Q6 8.016 6 15.922q0 9.219 6.172 13.906 6.187 4.688 18.437 4.688h12.61v.89q0 6.203-4.078 9.594-4.078 3.39-11.453 3.39-4.688 0-9.141-1.124-4.438-1.125-8.531-3.375v8.312q4.921 1.906 9.562 2.844 4.64.953 9.031.953 11.875 0 17.735-6.156 5.86-6.14 5.86-18.64z" stroke-linejoin="round"/><path id="G" d="M44.281 53.078v-8.5q-3.797 1.953-7.906 2.922-4.094.984-8.5.984-6.688 0-10.031-2.047-3.344-2.046-3.344-6.156 0-3.125 2.39-4.906 2.391-1.781 9.626-3.39l3.078-.688q9.562-2.047 13.593-5.781 4.032-3.735 4.032-10.422 0-7.625-6.032-12.078-6.03-4.438-16.578-4.438-4.39 0-9.156.86Q10.688.296 5.422 2v9.281q4.984-2.594 9.812-3.89 4.829-1.282 9.579-1.282 6.343 0 9.75 2.172 3.421 2.172 3.421 6.125 0 3.656-2.468 5.61-2.453 1.953-10.813 3.765l-3.125.735q-8.344 1.75-12.062 5.39-3.704 3.64-3.704 9.985 0 7.718 5.47 11.906Q16.75 56 26.811 56q4.97 0 9.36-.734 4.406-.72 8.11-2.188z" stroke-linejoin="round"/><path id="H" d="M37.11 75.984V68.5h-8.594q-4.828 0-6.72-1.953-1.874-1.953-1.874-7.031v-4.828h14.797v-6.985H19.922V0H10.89v47.703H2.297v6.984h8.594V58.5q0 9.125 4.25 13.297 4.25 4.187 13.468 4.187z" stroke-linejoin="round"/><path id="I" d="M8.688 72.906h9.921V28.61q0-11.718 4.235-16.875 4.25-5.14 13.781-5.14 9.469 0 13.719 5.14 4.25 5.157 4.25 16.875v44.297H64.5V27.391q0-14.25-7.063-21.532-7.046-7.28-20.812-7.28-13.828 0-20.89 7.28-7.047 7.282-7.047 21.532z" stroke-linejoin="round"/><path id="J" d="M53.516 70.516V60.89q-5.61 2.687-10.594 4-4.984 1.328-9.625 1.328-8.047 0-12.422-3.125t-4.375-8.89q0-4.845 2.906-7.313 2.907-2.453 11.016-3.97l5.953-1.218q11.031-2.11 16.281-7.406 5.25-5.297 5.25-14.172 0-10.61-7.11-16.078-7.093-5.469-20.812-5.469-5.172 0-11.015 1.172Q13.14.922 6.89 3.219v10.156q6-3.36 11.765-5.078 5.766-1.703 11.328-1.703 8.438 0 13.032 3.312 4.593 3.328 4.593 9.485 0 5.359-3.297 8.39-3.296 3.032-10.812 4.547L27.484 33.5q-11.03 2.188-15.968 6.875-4.922 4.688-4.922 13.047 0 9.672 6.812 15.234 6.813 5.563 18.766 5.563 5.14 0 10.453-.938 5.328-.922 10.89-2.765z" stroke-linejoin="round"/><path id="K" d="M31 75.875q-6.531-11.219-9.719-22.219-3.172-10.984-3.172-22.265 0-11.266 3.203-22.328Q24.517-2 31-13.188h-7.813Q15.875-1.704 12.235 9.375q-3.64 11.078-3.64 22.016 0 10.89 3.61 21.922 3.624 11.046 10.983 22.562z" stroke-linejoin="round"/><path id="L" d="M8.5 21.578v33.11h8.984V21.922q0-7.766 3.016-11.656 3.031-3.875 9.094-3.875 7.265 0 11.484 4.64 4.234 4.64 4.234 12.656v31h8.985V0h-8.984v8.406Q42.047 3.422 37.718 1q-4.313-2.422-10.032-2.422-9.421 0-14.312 5.86Q8.5 10.296 8.5 21.578z" stroke-linejoin="round"/><path id="M" d="M48.688 27.297q0 9.906-4.079 15.547-4.078 5.64-11.203 5.64-7.14 0-11.218-5.64-4.079-5.64-4.079-15.547 0-9.906 4.078-15.547 4.079-5.64 11.22-5.64 7.124 0 11.202 5.64t4.078 15.547zM18.108 46.39q2.844 4.875 7.157 7.234Q29.594 56 35.594 56q9.968 0 16.187-7.906 6.235-7.907 6.235-20.797T51.78 6.484q-6.218-7.906-16.187-7.906-6 0-10.328 2.375-4.313 2.375-7.157 7.25V0H9.08v75.984h9.03z" stroke-linejoin="round"/><path id="N" d="M54.89 33.016V0h-8.984v32.719q0 7.765-3.031 11.61-3.031 3.858-9.078 3.858-7.281 0-11.484-4.64-4.204-4.625-4.204-12.64V0H9.08v54.688h9.03v-8.5q3.235 4.937 7.594 7.374Q30.078 56 35.797 56q9.422 0 14.25-5.828 4.844-5.828 4.844-17.156z" stroke-linejoin="round"/><path id="O" d="M10.688 12.406H21V0H10.687z" stroke-linejoin="round"/><path id="P" d="M32.172-5.078q-3.797-9.766-7.422-12.735-3.61-2.984-9.656-2.984H7.906v7.516h5.282q3.703 0 5.75 1.765Q21-9.766 23.483-3.219l1.61 4.094-22.11 53.813H12.5l17.094-42.766 17.093 42.766h9.516z" stroke-linejoin="round"/><path id="Q" d="M8.016 75.875h7.812q7.313-11.516 10.953-22.563 3.64-11.03 3.64-21.921 0-10.938-3.64-22.016-3.64-11.078-10.953-22.563H8.016Q14.5-2 17.703 9.063q3.203 11.063 3.203 22.329 0 11.28-3.203 22.265-3.203 11-9.687 22.219z" stroke-linejoin="round"/><path id="R" d="M31.781 34.625q-7.031 0-11.062-3.766-4.016-3.765-4.016-10.343 0-6.594 4.016-10.36Q24.75 6.391 31.78 6.391q7.032 0 11.078 3.78 4.063 3.798 4.063 10.345 0 6.578-4.031 10.343-4.016 3.766-11.11 3.766zm-9.86 4.188q-6.343 1.562-9.89 5.906Q8.5 49.079 8.5 55.329q0 8.733 6.219 13.812 6.234 5.078 17.062 5.078 10.89 0 17.094-5.078 6.203-5.079 6.203-13.813 0-6.25-3.547-10.61-3.531-4.343-9.828-5.906 7.125-1.656 11.094-6.5 3.984-4.828 3.984-11.796 0-10.61-6.468-16.282-6.47-5.656-18.532-5.656-12.047 0-18.531 5.656-6.469 5.672-6.469 16.282 0 6.968 4 11.797 4.016 4.843 11.14 6.5zM18.314 54.39q0-5.657 3.53-8.828 3.548-3.172 9.938-3.172 6.36 0 9.938 3.172 3.593 3.171 3.593 8.828 0 5.672-3.593 8.843-3.578 3.172-9.938 3.172-6.39 0-9.937-3.172-3.532-3.172-3.532-8.843z" stroke-linejoin="round"/><path id="S" d="M45.406 27.984q0 9.766-4.031 15.125-4.016 5.375-11.297 5.375-7.219 0-11.25-5.375-4.031-5.359-4.031-15.125 0-9.718 4.031-15.093t11.25-5.375q7.281 0 11.297 5.375 4.031 5.375 4.031 15.093zm8.985-21.203q0-13.953-6.203-20.765Q42-20.797 29.203-20.797q-4.734 0-8.937.703-4.203.703-8.157 2.172v8.735q3.954-2.141 7.813-3.157 3.86-1.031 7.86-1.031 8.843 0 13.234 4.61 4.39 4.609 4.39 13.937v4.453q-2.781-4.844-7.125-7.234Q33.938 0 27.875 0 17.828 0 11.672 7.656q-6.156 7.672-6.156 20.328 0 12.688 6.156 20.344Q17.828 56 27.875 56q6.063 0 10.406-2.39 4.344-2.391 7.125-7.22v8.297h8.985z" stroke-linejoin="round"/><path id="T" d="M8.203 72.906h46.875v-4.203L28.61 0H18.312L43.22 64.594H8.203z" stroke-linejoin="round"/><path id="V" d="M9.813 72.906h13.28l32.329-60.984v60.984h9.562V0h-13.28L19.39 60.984V0H9.813z" stroke-linejoin="round"/><clipPath id="U" stroke-linejoin="round"><path d="M50.15 297.12H558v208.808H50.15z"/></clipPath><clipPath id="a" stroke-linejoin="round"><path d="M50.15 25.44H558v208.808H50.15z"/></clipPath></defs><path d="M0 568.8h568.8V0H0z" fill="#fff"/><path d="M50.15 234.248H558V25.44H50.15z" fill="#fff"/><g stroke-width=".8"><path clip-path="url(#a)" d="M50.15 234.248V25.44" fill="none" stroke="#b0b0b0" stroke-linecap="square"/><use stroke="#000" x="50.15" xlink:href="#b" y="234.248"/></g><path clip-path="url(#a)" d="M327.16 234.248V25.44" fill="none" stroke="#b0b0b0" stroke-linecap="square" stroke-width=".8"/><use stroke="#000" stroke-width=".8" x="327.159" xlink:href="#b" y="234.248"/><g transform="matrix(.1 0 0 -.1 318.51 271.242)"><use xlink:href="#c"/><use x="68.408" xlink:href="#d"/><use x="131.885" xlink:href="#e"/></g><g transform="matrix(.1 0 0 -.1 314.434 282.44)"><use xlink:href="#f"/><use x="63.623" xlink:href="#g"/><use x="127.246" xlink:href="#f"/><use x="190.869" xlink:href="#g"/></g><g stroke-width=".8"><path clip-path="url(#a)" d="M558 234.248V25.44" fill="none" stroke="#b0b0b0" stroke-linecap="square"/><use stroke="#000" x="558" xlink:href="#b" y="234.248"/></g><use stroke="#000" stroke-width=".6" x="65.54" xlink:href="#h" y="234.248"/><use stroke="#000" stroke-width=".6" x="80.929" xlink:href="#h" y="234.248"/><g transform="matrix(.1 0 0 -.1 74.566 247.246)"><use xlink:href="#i"/><use x="63.623" xlink:href="#j"/></g><g stroke="#000" stroke-width=".6"><use x="96.318" xlink:href="#h" y="234.248"/><use x="111.708" xlink:href="#h" y="234.248"/><use x="127.097" xlink:href="#h" y="234.248"/><use x="142.487" xlink:href="#h" y="234.248"/><use x="157.876" xlink:href="#h" y="234.248"/><use x="173.265" xlink:href="#h" y="234.248"/></g><use stroke="#000" stroke-width=".6" x="188.655" xlink:href="#h" y="234.248"/><g transform="matrix(.1 0 0 -.1 182.292 247.246)"><use xlink:href="#f"/><use x="63.623" xlink:href="#k"/></g><use stroke="#000" stroke-width=".6" x="204.044" xlink:href="#h" y="234.248"/><use stroke="#000" stroke-width=".6" x="219.433" xlink:href="#h" y="234.248"/><use stroke="#000" stroke-width=".6" x="234.823" xlink:href="#h" y="234.248"/><use stroke="#000" stroke-width=".6" x="250.212" xlink:href="#h" y="234.248"/><use stroke="#000" stroke-width=".6" x="265.602" xlink:href="#h" y="234.248"/><use stroke="#000" stroke-width=".6" x="280.991" xlink:href="#h" y="234.248"/><use stroke="#000" stroke-width=".6" x="296.38" xlink:href="#h" y="234.248"/><g transform="matrix(.1 0 0 -.1 290.018 247.246)"><use xlink:href="#k"/><use x="63.623" xlink:href="#g"/></g><use stroke="#000" stroke-width=".6" x="311.77" xlink:href="#h" y="234.248"/><use stroke="#000" stroke-width=".6" x="342.549" xlink:href="#h" y="234.248"/><use stroke="#000" stroke-width=".6" x="357.938" xlink:href="#h" y="234.248"/><use stroke="#000" stroke-width=".6" x="373.327" xlink:href="#h" y="234.248"/><use stroke="#000" stroke-width=".6" x="388.717" xlink:href="#h" y="234.248"/><use stroke="#000" stroke-width=".6" x="404.106" xlink:href="#h" y="234.248"/><g transform="matrix(.1 0 0 -.1 397.744 247.246)"><use xlink:href="#g"/><use x="63.623" xlink:href="#j"/></g><use stroke="#000" stroke-width=".6" x="419.496" xlink:href="#h" y="234.248"/><use stroke="#000" stroke-width=".6" x="434.885" xlink:href="#h" y="234.248"/><use stroke="#000" stroke-width=".6" x="450.274" xlink:href="#h" y="234.248"/><use stroke="#000" stroke-width=".6" x="465.664" xlink:href="#h" y="234.248"/><use stroke="#000" stroke-width=".6" x="481.053" xlink:href="#h" y="234.248"/><use stroke="#000" stroke-width=".6" x="496.442" xlink:href="#h" y="234.248"/><g><use stroke="#000" stroke-width=".6" x="511.832" xlink:href="#h" y="234.248"/><g transform="matrix(.1 0 0 -.1 505.47 247.246)"><use xlink:href="#i"/><use x="63.623" xlink:href="#k"/></g></g><use stroke="#000" stroke-width=".6" x="527.221" xlink:href="#h" y="234.248"/><use stroke="#000" stroke-width=".6" x="542.611" xlink:href="#h" y="234.248"/><g><path clip-path="url(#a)" d="M50.15 234.248H558" fill="none" stroke="#b0b0b0" stroke-linecap="square" stroke-width=".8"/><use stroke="#000" stroke-width=".8" x="50.15" xlink:href="#l" y="234.248"/><g transform="matrix(.1 0 0 -.1 25.55 238.047)"><use transform="translate(0 .766)" xlink:href="#i"/><use transform="translate(63.623 .766)" xlink:href="#g"/><use transform="matrix(.7 0 0 .7 128.203 39.047)" xlink:href="#f"/></g><path clip-path="url(#a)" d="M50.15 182.734H558" fill="none" stroke="#b0b0b0" stroke-linecap="square" stroke-width=".8"/><use stroke="#000" stroke-width=".8" x="50.15" xlink:href="#l" y="182.734"/><g transform="matrix(.1 0 0 -.1 25.55 186.534)"><use transform="translate(0 .766)" xlink:href="#i"/><use transform="translate(63.623 .766)" xlink:href="#g"/><use transform="matrix(.7 0 0 .7 128.203 39.047)" xlink:href="#k"/></g><path clip-path="url(#a)" d="M50.15 131.22H558" fill="none" stroke="#b0b0b0" stroke-linecap="square" stroke-width=".8"/><use stroke="#000" stroke-width=".8" x="50.15" xlink:href="#l" y="131.221"/><g transform="matrix(.1 0 0 -.1 25.55 135.02)"><use transform="translate(0 .684)" xlink:href="#i"/><use transform="translate(63.623 .684)" xlink:href="#g"/><use transform="matrix(.7 0 0 .7 128.203 38.966)" xlink:href="#m"/></g><g><path clip-path="url(#a)" d="M50.15 79.707H558" fill="none" stroke="#b0b0b0" stroke-linecap="square" stroke-width=".8"/><use stroke="#000" stroke-width=".8" x="50.15" xlink:href="#l" y="79.707"/><g transform="matrix(.1 0 0 -.1 25.55 83.506)"><use transform="translate(0 .684)" xlink:href="#i"/><use transform="translate(63.623 .684)" xlink:href="#g"/><use transform="matrix(.7 0 0 .7 128.203 38.966)" xlink:href="#n"/></g></g><g><path clip-path="url(#a)" d="M50.15 28.193H558" fill="none" stroke="#b0b0b0" stroke-linecap="square" stroke-width=".8"/><use stroke="#000" stroke-width=".8" x="50.15" xlink:href="#l" y="28.193"/><g transform="matrix(.1 0 0 -.1 25.55 31.992)"><use transform="translate(0 .766)" xlink:href="#i"/><use transform="translate(63.623 .766)" xlink:href="#g"/><use transform="matrix(.7 0 0 .7 128.203 39.047)" xlink:href="#j"/></g></g><g stroke="#000" stroke-width=".6"><use x="50.15" xlink:href="#o" y="218.741"/><use x="50.15" xlink:href="#o" y="209.67"/><use x="50.15" xlink:href="#o" y="203.234"/><use x="50.15" xlink:href="#o" y="198.241"/><use x="50.15" xlink:href="#o" y="194.163"/><use x="50.15" xlink:href="#o" y="190.714"/><use x="50.15" xlink:href="#o" y="187.726"/><use x="50.15" xlink:href="#o" y="185.091"/><use x="50.15" xlink:href="#o" y="167.227"/><use x="50.15" xlink:href="#o" y="158.156"/><use x="50.15" xlink:href="#o" y="151.72"/><use x="50.15" xlink:href="#o" y="146.728"/><use x="50.15" xlink:href="#o" y="142.649"/><use x="50.15" xlink:href="#o" y="139.2"/><use x="50.15" xlink:href="#o" y="136.213"/><use x="50.15" xlink:href="#o" y="133.578"/><use x="50.15" xlink:href="#o" y="115.713"/><use x="50.15" xlink:href="#o" y="106.642"/><use x="50.15" xlink:href="#o" y="100.206"/><use x="50.15" xlink:href="#o" y="95.214"/><use x="50.15" xlink:href="#o" y="91.135"/><use x="50.15" xlink:href="#o" y="87.686"/><use x="50.15" xlink:href="#o" y="84.699"/><use x="50.15" xlink:href="#o" y="82.064"/><use x="50.15" xlink:href="#o" y="64.2"/><use x="50.15" xlink:href="#o" y="55.129"/><use x="50.15" xlink:href="#o" y="48.693"/><use x="50.15" xlink:href="#o" y="43.7"/><use x="50.15" xlink:href="#o" y="39.621"/><use x="50.15" xlink:href="#o" y="36.173"/><use x="50.15" xlink:href="#o" y="33.185"/><use x="50.15" xlink:href="#o" y="30.55"/></g><g transform="matrix(0 -.1 -.1 0 19.47 156.19)"><path d="M3.328 72.906h9.953L28.61 11.281l15.282 61.625h11.093l15.328-61.625 15.282 61.625h10.015L77.297 0H64.89L49.516 63.281 33.984 0H21.578z"/><use x="98.799" xlink:href="#p"/><use x="159.98" xlink:href="#e"/><use x="201.094" xlink:href="#q"/><use x="228.877" xlink:href="#r"/><use x="292.354" xlink:href="#s"/><use x="374.141" xlink:href="#t"/><use x="401.924" xlink:href="#r"/><use x="465.4" xlink:href="#u"/></g></g><g stroke="#1f77b4"><path clip-path="url(#a)" d="M-1 180.097l4.982-2.121 15.39-5.91 15.389-6.142 15.39-5.077 15.389-5.649 15.389-6.262 15.39-7.365 15.389-4.099 15.39-12.752 15.389-7.515 15.389-6.516 15.39-6.463 15.389-5.697 15.39-4.486 15.388-4.517 15.39-5.365 15.39-4.276 15.389-3.95 15.389-3.07 15.39-2.703 15.389-3.264 15.39-2.714 15.389-2.982 15.389-2.768 15.39-2.22 15.389-1.82 15.39-1.821 15.389-1.631 15.389-1.729 15.39-1.588 15.389-1.526 15.39-1.235 15.388-1.177 15.39-.587" fill="none" stroke-linecap="square" stroke-width="1.5"/><g clip-path="url(#a)" fill="#1f77b4"><use x="-1" xlink:href="#v" y="180.097"/><use x="3.982" xlink:href="#v" y="177.976"/><use x="19.371" xlink:href="#v" y="172.066"/><use x="34.761" xlink:href="#v" y="165.924"/><use x="50.15" xlink:href="#v" y="160.847"/><use x="65.54" xlink:href="#v" y="155.198"/><use x="80.929" xlink:href="#v" y="148.936"/><use x="96.318" xlink:href="#v" y="141.571"/><use x="111.708" xlink:href="#v" y="137.472"/><use x="127.097" xlink:href="#v" y="124.72"/><use x="142.487" xlink:href="#v" y="117.205"/><use x="157.876" xlink:href="#v" y="110.689"/><use x="173.265" xlink:href="#v" y="104.226"/><use x="188.655" xlink:href="#v" y="98.529"/><use x="204.044" xlink:href="#v" y="94.043"/><use x="219.433" xlink:href="#v" y="89.526"/><use x="234.823" xlink:href="#v" y="84.161"/><use x="250.212" xlink:href="#v" y="79.885"/><use x="265.602" xlink:href="#v" y="75.934"/><use x="280.991" xlink:href="#v" y="72.864"/><use x="296.38" xlink:href="#v" y="70.162"/><use x="311.77" xlink:href="#v" y="66.898"/><use x="327.159" xlink:href="#v" y="64.184"/><use x="342.549" xlink:href="#v" y="61.202"/><use x="357.938" xlink:href="#v" y="58.434"/><use x="373.327" xlink:href="#v" y="56.214"/><use x="388.717" xlink:href="#v" y="54.395"/><use x="404.106" xlink:href="#v" y="52.573"/><use x="419.496" xlink:href="#v" y="50.942"/><use x="434.885" xlink:href="#v" y="49.213"/><use x="450.274" xlink:href="#v" y="47.625"/><use x="465.664" xlink:href="#v" y="46.099"/><use x="481.053" xlink:href="#v" y="44.864"/><use x="496.442" xlink:href="#v" y="43.687"/><use x="511.832" xlink:href="#v" y="43.1"/></g></g><g stroke="#ff7f0e"><path clip-path="url(#a)" d="M-1 131.284l4.982-1.346h15.39l15.389-7.721 15.39-3.834 15.389-3.334 15.389-2.533 15.39-2.726 15.389-2.164 15.39-3.244 15.389-3.35 15.389-2.277 15.39-1.984 15.389-1.743 15.39-1.548 15.388-1.4 15.39-1.683 15.39-1.534 15.389-1.197 15.389-1.186 15.39-.494 15.389-.616 15.39-.83 15.389-.678 15.389-.621 15.39-.744 15.389-.74 15.39-.472 15.389-.21 15.389-.282 15.39-.376 15.389-.32 15.39-.45 15.388-.439 15.39-.296" fill="none" stroke-linecap="square" stroke-width="1.5"/><g clip-path="url(#a)" fill="#ff7f0e"><use x="-1" xlink:href="#w" y="131.284"/><use x="3.982" xlink:href="#w" y="129.938"/><use x="19.371" xlink:href="#w" y="129.938"/><use x="34.761" xlink:href="#w" y="122.217"/><use x="50.15" xlink:href="#w" y="118.383"/><use x="65.54" xlink:href="#w" y="115.049"/><use x="80.929" xlink:href="#w" y="112.516"/><use x="96.318" xlink:href="#w" y="109.79"/><use x="111.708" xlink:href="#w" y="107.626"/><use x="127.097" xlink:href="#w" y="104.382"/><use x="142.487" xlink:href="#w" y="101.033"/><use x="157.876" xlink:href="#w" y="98.755"/><use x="173.265" xlink:href="#w" y="96.771"/><use x="188.655" xlink:href="#w" y="95.028"/><use x="204.044" xlink:href="#w" y="93.48"/><use x="219.433" xlink:href="#w" y="92.079"/><use x="234.823" xlink:href="#w" y="90.397"/><use x="250.212" xlink:href="#w" y="88.863"/><use x="265.602" xlink:href="#w" y="87.666"/><use x="280.991" xlink:href="#w" y="86.48"/><use x="296.38" xlink:href="#w" y="85.986"/><use x="311.77" xlink:href="#w" y="85.37"/><use x="327.159" xlink:href="#w" y="84.54"/><use x="342.549" xlink:href="#w" y="83.862"/><use x="357.938" xlink:href="#w" y="83.241"/><use x="373.327" xlink:href="#w" y="82.497"/><use x="388.717" xlink:href="#w" y="81.756"/><use x="404.106" xlink:href="#w" y="81.285"/><use x="419.496" xlink:href="#w" y="81.075"/><use x="434.885" xlink:href="#w" y="80.793"/><use x="450.274" xlink:href="#w" y="80.417"/><use x="465.664" xlink:href="#w" y="80.097"/><use x="481.053" xlink:href="#w" y="79.647"/><use x="496.442" xlink:href="#w" y="79.208"/><use x="511.832" xlink:href="#w" y="78.912"/></g></g><path clip-path="url(#a)" d="M-1 166.634l4.982-1.782h15.39l15.389-10.625 15.39-4.522 15.389-.168 15.389-8.644 15.39-3.305 15.389-3.74 15.39-3.996 15.389-3.025 15.389-2.705 15.39.656 15.389-5.5 15.39-1.494 15.388-2.47 15.39-2.628 15.39-2.58 15.389-3.511 15.389-.593 15.39-2.275 15.389-3.399 15.39-1.558 15.389.354 15.389-1.326 15.39-9.365 15.389-.532 15.39-1.033 15.389-2.225 15.389-.392 15.39-.413 15.389-1.15 15.39-.677 15.388-.387 15.39-.743" fill="none" stroke="#2ca02c" stroke-linecap="square" stroke-width="1.5"/><g stroke="#d62728"><path clip-path="url(#a)" d="M-1 168.418l4.982-1.634 15.39.011 15.389-19.643 15.39-3.273 15.389-4.653 15.389-5.822 15.39-2.598 15.389-4.045 15.39-6.092 15.389-2.322 15.389-4.637 15.39-2.739 15.389-3.93 15.39-2.722 15.388-4.391 15.39-3.045 15.39-2.21 15.389-1.578 15.389-1.43 15.39-1.784 15.389-1.612 15.39-1.239 15.389-.88 15.389-.737 15.39-.715 15.389-.256 15.39-.539 15.389-.478 15.389-.19 15.39-.052 15.389-.238 15.39-.203 15.388.021 15.39-.098" fill="none" stroke-linecap="square" stroke-width="1.5"/><g clip-path="url(#a)" fill="#d62728"><use x="-1" xlink:href="#x" y="168.418"/><use x="3.982" xlink:href="#x" y="166.784"/><use x="19.371" xlink:href="#x" y="166.795"/><use x="34.761" xlink:href="#x" y="147.152"/><use x="50.15" xlink:href="#x" y="143.879"/><use x="65.54" xlink:href="#x" y="139.226"/><use x="80.929" xlink:href="#x" y="133.404"/><use x="96.318" xlink:href="#x" y="130.806"/><use x="111.708" xlink:href="#x" y="126.761"/><use x="127.097" xlink:href="#x" y="120.669"/><use x="142.487" xlink:href="#x" y="118.347"/><use x="157.876" xlink:href="#x" y="113.71"/><use x="173.265" xlink:href="#x" y="110.971"/><use x="188.655" xlink:href="#x" y="107.041"/><use x="204.044" xlink:href="#x" y="104.319"/><use x="219.433" xlink:href="#x" y="99.928"/><use x="234.823" xlink:href="#x" y="96.883"/><use x="250.212" xlink:href="#x" y="94.673"/><use x="265.602" xlink:href="#x" y="93.095"/><use x="280.991" xlink:href="#x" y="91.664"/><use x="296.38" xlink:href="#x" y="89.881"/><use x="311.77" xlink:href="#x" y="88.269"/><use x="327.159" xlink:href="#x" y="87.03"/><use x="342.549" xlink:href="#x" y="86.151"/><use x="357.938" xlink:href="#x" y="85.413"/><use x="373.327" xlink:href="#x" y="84.698"/><use x="388.717" xlink:href="#x" y="84.442"/><use x="404.106" xlink:href="#x" y="83.903"/><use x="419.496" xlink:href="#x" y="83.425"/><use x="434.885" xlink:href="#x" y="83.236"/><use x="450.274" xlink:href="#x" y="83.183"/><use x="465.664" xlink:href="#x" y="82.945"/><use x="481.053" xlink:href="#x" y="82.742"/><use x="496.442" xlink:href="#x" y="82.763"/><use x="511.832" xlink:href="#x" y="82.665"/></g></g><g stroke="#9467bd"><path clip-path="url(#a)" d="M-1 202.873l4.982-1.361h15.39l15.389-13.046 15.39-7.925 15.389-.02 15.389-6.467 15.39-5.095 15.389-6.75 15.39-.072 15.389-9.086 15.389-5.25 15.39-2.645 15.389-3.42 15.39-4.379 15.388-3.864 15.39-4.57 15.39-4.962 15.389-3.45 15.389-2.93 15.39-2.821 15.389-2.663 15.39-3.369 15.389-2.859 15.389-2.592 15.39-1.89 15.389-2.936 15.39-1.665 15.389-1.326 15.389-1.975 15.39-1.406 15.389-2.75 15.39-1.437 15.388-1.434 15.39-1.17" fill="none" stroke-linecap="square" stroke-width="1.5"/><g clip-path="url(#a)" fill="#9467bd"><use x="-1" xlink:href="#y" y="202.873"/><use x="3.982" xlink:href="#y" y="201.512"/><use x="19.371" xlink:href="#y" y="201.512"/><use x="34.761" xlink:href="#y" y="188.466"/><use x="50.15" xlink:href="#y" y="180.541"/><use x="65.54" xlink:href="#y" y="180.521"/><use x="80.929" xlink:href="#y" y="174.054"/><use x="96.318" xlink:href="#y" y="168.959"/><use x="111.708" xlink:href="#y" y="162.208"/><use x="127.097" xlink:href="#y" y="162.137"/><use x="142.487" xlink:href="#y" y="153.051"/><use x="157.876" xlink:href="#y" y="147.8"/><use x="173.265" xlink:href="#y" y="145.156"/><use x="188.655" xlink:href="#y" y="141.736"/><use x="204.044" xlink:href="#y" y="137.357"/><use x="219.433" xlink:href="#y" y="133.493"/><use x="234.823" xlink:href="#y" y="128.922"/><use x="250.212" xlink:href="#y" y="123.961"/><use x="265.602" xlink:href="#y" y="120.511"/><use x="280.991" xlink:href="#y" y="117.581"/><use x="296.38" xlink:href="#y" y="114.76"/><use x="311.77" xlink:href="#y" y="112.097"/><use x="327.159" xlink:href="#y" y="108.728"/><use x="342.549" xlink:href="#y" y="105.869"/><use x="357.938" xlink:href="#y" y="103.277"/><use x="373.327" xlink:href="#y" y="101.388"/><use x="388.717" xlink:href="#y" y="98.451"/><use x="404.106" xlink:href="#y" y="96.786"/><use x="419.496" xlink:href="#y" y="95.46"/><use x="434.885" xlink:href="#y" y="93.485"/><use x="450.274" xlink:href="#y" y="92.079"/><use x="465.664" xlink:href="#y" y="89.33"/><use x="481.053" xlink:href="#y" y="87.892"/><use x="496.442" xlink:href="#y" y="86.458"/><use x="511.832" xlink:href="#y" y="85.289"/></g></g><path clip-path="url(#a)" d="M511.832 43.1l15.39-.937 15.389-.937L558 40.29" fill="none" stroke="#1f77b4" stroke-dasharray="1.5 2.475" stroke-width="1.5"/><path clip-path="url(#a)" d="M511.832 78.912l15.39-.38 15.389-.38 15.389-.38" fill="none" stroke="#ff7f0e" stroke-dasharray="1.5 2.475" stroke-width="1.5"/><path clip-path="url(#a)" d="M511.832 80.88l15.39-.601 15.389-.602L558 79.075" fill="none" stroke="#2ca02c" stroke-dasharray="1.5 2.475" stroke-width="1.5"/><path clip-path="url(#a)" d="M511.832 82.665l15.39-.079 15.389-.078L558 82.43" fill="none" stroke="#d62728" stroke-dasharray="1.5 2.475" stroke-width="1.5"/><path clip-path="url(#a)" d="M511.832 85.289l15.39-1.322 15.389-1.32L558 81.324" fill="none" stroke="#9467bd" stroke-dasharray="1.5 2.475" stroke-width="1.5"/><path d="M50.15 234.248V25.44M558 234.248V25.44M50.15 234.248H558M50.15 25.44H558" fill="none" stroke="#000" stroke-linecap="square" stroke-linejoin="miter" stroke-width=".8"/><g transform="matrix(.12 0 0 -.12 182.296 19.44)"><use xlink:href="#c"/><use x="68.393" xlink:href="#z"/><use x="123.373" xlink:href="#A"/><use x="162.582" xlink:href="#t"/><path d="M193.35 54.688h9.515L219.96 8.797l17.094 45.89h9.515L226.053 0H213.85z"/><use x="249.545" xlink:href="#u"/><use x="342.855" xlink:href="#B"/><path d="M452.086 66.219q-10.75 0-17.078-8.016-6.313-8-6.313-21.828 0-13.766 6.313-21.781 6.328-8 17.078-8 10.734 0 17.016 8 6.28 8.015 6.28 21.781 0 13.828-6.28 21.828-6.282 8.016-17.016 8.016zm0 8q15.328 0 24.5-10.281 9.187-10.282 9.187-27.563 0-17.234-9.187-27.516-9.172-10.28-24.5-10.28-15.375 0-24.594 10.25-9.203 10.265-9.203 27.546t9.203 27.563q9.219 10.28 24.594 10.28zM519.984 0l-27.828 72.906h10.297l23.11-61.375 23.14 61.375h10.25L531.172 0z"/><use x="559.783" xlink:href="#C"/><path d="M608.947 64.797V8.109h11.922q15.094 0 22.094 6.829 7 6.843 7 21.593 0 14.64-7 21.453-7 6.813-22.094 6.813zm-9.86 8.11h20.267q21.187 0 31.093-8.813 9.922-8.813 9.922-27.563 0-18.86-9.969-27.703Q640.447 0 619.354 0h-20.266z"/><use x="666.277" xlink:href="#D"/><use x="702.361" xlink:href="#i"/><use x="765.984" xlink:href="#E"/><use x="861.395" xlink:href="#z"/><use x="916.375" xlink:href="#F"/><use x="977.654" xlink:href="#G"/><use x="1029.754" xlink:href="#u"/><use x="1091.277" xlink:href="#G"/><use x="1175.164" xlink:href="#F"/><use x="1236.443" xlink:href="#G"/><use x="1320.33" xlink:href="#p"/><use x="1381.512" xlink:href="#H"/><use x="1448.504" xlink:href="#f"/><use x="1512.127" xlink:href="#g"/><use x="1575.75" xlink:href="#f"/><use x="1639.373" xlink:href="#g"/><use x="1702.996" xlink:href="#D"/><use x="1739.08" xlink:href="#g"/><use x="1802.703" xlink:href="#m"/><use x="1866.326" xlink:href="#D"/><use x="1902.41" xlink:href="#i"/><use x="1966.033" xlink:href="#k"/></g><g><path d="M323.94 229.248H551q2 0 2-2v-72.39q0-2-2-2H323.94q-2 0-2 2v72.39q0 2 2 2z" fill="#fff" opacity=".8" stroke="#ccc" stroke-linejoin="miter"/><path d="M325.94 160.956h20" fill="none" stroke="#1f77b4" stroke-linecap="square" stroke-width="1.5"/><use fill="#1f77b4" stroke="#1f77b4" x="335.941" xlink:href="#v" y="160.956"/><g transform="matrix(.1 0 0 -.1 353.94 164.456)"><use xlink:href="#I"/><use x="73.193" xlink:href="#J"/><use x="168.457" xlink:href="#K"/><use x="207.471" xlink:href="#r"/><use x="270.947" xlink:href="#p"/><use x="332.129" xlink:href="#L"/><use x="395.508" xlink:href="#M"/><use x="458.984" xlink:href="#q"/><use x="486.768" xlink:href="#u"/><use x="548.291" xlink:href="#G"/><use x="632.178" xlink:href="#t"/><use x="659.961" xlink:href="#N"/><use x="755.127" xlink:href="#i"/><use x="818.75" xlink:href="#j"/><use x="882.373" xlink:href="#O"/><use x="914.16" xlink:href="#j"/><use x="1009.57" xlink:href="#r"/><use x="1073.047" xlink:href="#F"/><use x="1134.326" xlink:href="#P"/><use x="1193.506" xlink:href="#G"/><use x="1245.605" xlink:href="#Q"/></g><path d="M325.94 175.634h20" fill="none" stroke="#ff7f0e" stroke-linecap="square" stroke-width="1.5"/><use fill="#ff7f0e" stroke="#ff7f0e" x="335.941" xlink:href="#w" y="175.634"/><g transform="matrix(.1 0 0 -.1 353.94 179.134)"><use xlink:href="#C"/><use x="29.492" xlink:href="#A"/><use x="68.701" xlink:href="#F"/><use x="129.98" xlink:href="#q"/><use x="157.764" xlink:href="#P"/><use x="248.73" xlink:href="#K"/><use x="287.744" xlink:href="#r"/><use x="351.221" xlink:href="#p"/><use x="412.402" xlink:href="#L"/><use x="475.781" xlink:href="#M"/><use x="539.258" xlink:href="#q"/><use x="567.041" xlink:href="#u"/><use x="628.564" xlink:href="#G"/><use x="712.451" xlink:href="#t"/><use x="740.234" xlink:href="#N"/><use x="835.4" xlink:href="#m"/><use x="899.023" xlink:href="#g"/><use x="962.646" xlink:href="#O"/><use x="994.434" xlink:href="#R"/><use x="1089.844" xlink:href="#r"/><use x="1153.32" xlink:href="#F"/><use x="1214.6" xlink:href="#P"/><use x="1273.779" xlink:href="#G"/><use x="1325.879" xlink:href="#Q"/></g><path d="M325.94 190.312h20" fill="none" stroke="#2ca02c" stroke-linecap="square" stroke-width="1.5"/><g transform="matrix(.1 0 0 -.1 353.94 193.812)"><path d="M9.813 72.906h41.89v-8.312H19.672V43.109h28.906v-8.297H19.672V0h-9.86z"/><use x="57.41" xlink:href="#e"/><use x="98.523" xlink:href="#F"/><use x="159.803" xlink:href="#N"/><use x="223.182" xlink:href="#z"/><use x="278.162" xlink:href="#u"/><use x="371.473" xlink:href="#K"/><use x="410.486" xlink:href="#r"/><use x="473.963" xlink:href="#p"/><use x="535.145" xlink:href="#L"/><use x="598.523" xlink:href="#M"/><use x="662" xlink:href="#q"/><use x="689.783" xlink:href="#u"/><use x="751.307" xlink:href="#G"/><use x="835.193" xlink:href="#t"/><use x="862.977" xlink:href="#N"/><use x="958.143" xlink:href="#f"/><use x="1021.766" xlink:href="#n"/><use x="1085.389" xlink:href="#O"/><use x="1117.176" xlink:href="#R"/><use x="1212.586" xlink:href="#r"/><use x="1276.063" xlink:href="#F"/><use x="1337.342" xlink:href="#P"/><use x="1396.521" xlink:href="#G"/><use x="1448.621" xlink:href="#Q"/></g><path d="M325.94 204.99h20" fill="none" stroke="#d62728" stroke-linecap="square" stroke-width="1.5"/><use fill="#d62728" stroke="#d62728" x="335.941" xlink:href="#x" y="204.99"/><g transform="matrix(.1 0 0 -.1 353.94 208.49)"><use xlink:href="#J"/><use x="63.477" xlink:href="#d"/><use x="126.953" xlink:href="#F"/><use x="188.232" xlink:href="#t"/><use x="216.016" xlink:href="#N"/></g><path d="M325.94 219.668h20" fill="none" stroke="#9467bd" stroke-linecap="square" stroke-width="1.5"/><use fill="#9467bd" stroke="#9467bd" x="335.941" xlink:href="#y" y="219.668"/><g transform="matrix(.1 0 0 -.1 353.94 223.168)"><use xlink:href="#I"/><use x="73.193" xlink:href="#N"/><use x="136.572" xlink:href="#t"/><use x="164.355" xlink:href="#A"/><use x="203.564" xlink:href="#u"/><use x="265.088" xlink:href="#r"/><path d="M370.164 72.906h9.86V42.094l32.718 30.812h12.703l-36.187-33.984L428.023 0H415.04l-35.016 35.11V0h-9.859z"/><use x="425.928" xlink:href="#t"/><use x="453.711" xlink:href="#N"/><use x="517.09" xlink:href="#S"/><use x="580.566" xlink:href="#r"/><use x="644.043" xlink:href="#p"/><path d="M757.225 44.188q3.375 6.062 8.062 8.937Q769.975 56 776.318 56q8.547 0 13.188-5.984 4.64-5.97 4.64-17V0h-9.03v32.719q0 7.86-2.798 11.656-2.78 3.813-8.484 3.813-6.984 0-11.047-4.641-4.047-4.625-4.047-12.64V0h-9.031v32.719q0 7.906-2.781 11.687-2.782 3.782-8.594 3.782-6.89 0-10.953-4.657-4.047-4.656-4.047-12.625V0h-9.031v54.688h9.031v-8.5q3.078 5.03 7.375 7.421Q735.006 56 740.912 56q5.969 0 10.14-3.031 4.173-3.016 6.173-8.782z"/><use x="834.424" xlink:href="#K"/><use x="873.438" xlink:href="#r"/><use x="936.914" xlink:href="#p"/><use x="998.096" xlink:href="#L"/><use x="1061.475" xlink:href="#M"/><use x="1124.951" xlink:href="#q"/><use x="1152.734" xlink:href="#u"/><use x="1214.258" xlink:href="#G"/><use x="1298.145" xlink:href="#t"/><use x="1325.928" xlink:href="#N"/><use x="1421.094" xlink:href="#i"/><use x="1484.717" xlink:href="#i"/><use x="1548.34" xlink:href="#O"/><use x="1580.127" xlink:href="#T"/><use x="1675.537" xlink:href="#r"/><use x="1739.014" xlink:href="#F"/><use x="1800.293" xlink:href="#P"/><use x="1859.473" xlink:href="#G"/><use x="1911.572" xlink:href="#Q"/></g></g><g><path d="M50.15 505.928H558V297.12H50.15z" fill="#fff"/><g stroke-width=".8"><path clip-path="url(#U)" d="M50.15 505.928V297.12" fill="none" stroke="#b0b0b0" stroke-linecap="square"/><use stroke="#000" x="50.15" xlink:href="#b" y="505.928"/></g><path clip-path="url(#U)" d="M327.16 505.928V297.12" fill="none" stroke="#b0b0b0" stroke-linecap="square" stroke-width=".8"/><use stroke="#000" stroke-width=".8" x="327.159" xlink:href="#b" y="505.928"/><g transform="matrix(.1 0 0 -.1 318.51 542.922)"><use xlink:href="#c"/><use x="68.408" xlink:href="#d"/><use x="131.885" xlink:href="#e"/></g><g transform="matrix(.1 0 0 -.1 314.434 554.12)"><use xlink:href="#f"/><use x="63.623" xlink:href="#g"/><use x="127.246" xlink:href="#f"/><use x="190.869" xlink:href="#g"/></g><g stroke-width=".8"><path clip-path="url(#U)" d="M558 505.928V297.12" fill="none" stroke="#b0b0b0" stroke-linecap="square"/><use stroke="#000" x="558" xlink:href="#b" y="505.928"/></g><use stroke="#000" stroke-width=".6" x="65.54" xlink:href="#h" y="505.928"/><use stroke="#000" stroke-width=".6" x="80.929" xlink:href="#h" y="505.928"/><g transform="matrix(.1 0 0 -.1 74.566 518.926)"><use xlink:href="#i"/><use x="63.623" xlink:href="#j"/></g><g stroke="#000" stroke-width=".6"><use x="96.318" xlink:href="#h" y="505.928"/><use x="111.708" xlink:href="#h" y="505.928"/><use x="127.097" xlink:href="#h" y="505.928"/><use x="142.487" xlink:href="#h" y="505.928"/><use x="157.876" xlink:href="#h" y="505.928"/><use x="173.265" xlink:href="#h" y="505.928"/></g><use stroke="#000" stroke-width=".6" x="188.655" xlink:href="#h" y="505.928"/><g transform="matrix(.1 0 0 -.1 182.292 518.926)"><use xlink:href="#f"/><use x="63.623" xlink:href="#k"/></g><use stroke="#000" stroke-width=".6" x="204.044" xlink:href="#h" y="505.928"/><use stroke="#000" stroke-width=".6" x="219.433" xlink:href="#h" y="505.928"/><use stroke="#000" stroke-width=".6" x="234.823" xlink:href="#h" y="505.928"/><use stroke="#000" stroke-width=".6" x="250.212" xlink:href="#h" y="505.928"/><use stroke="#000" stroke-width=".6" x="265.602" xlink:href="#h" y="505.928"/><use stroke="#000" stroke-width=".6" x="280.991" xlink:href="#h" y="505.928"/><use stroke="#000" stroke-width=".6" x="296.38" xlink:href="#h" y="505.928"/><g transform="matrix(.1 0 0 -.1 290.018 518.926)"><use xlink:href="#k"/><use x="63.623" xlink:href="#g"/></g><use stroke="#000" stroke-width=".6" x="311.77" xlink:href="#h" y="505.928"/><use stroke="#000" stroke-width=".6" x="342.549" xlink:href="#h" y="505.928"/><use stroke="#000" stroke-width=".6" x="357.938" xlink:href="#h" y="505.928"/><use stroke="#000" stroke-width=".6" x="373.327" xlink:href="#h" y="505.928"/><use stroke="#000" stroke-width=".6" x="388.717" xlink:href="#h" y="505.928"/><use stroke="#000" stroke-width=".6" x="404.106" xlink:href="#h" y="505.928"/><g transform="matrix(.1 0 0 -.1 397.744 518.926)"><use xlink:href="#g"/><use x="63.623" xlink:href="#j"/></g><use stroke="#000" stroke-width=".6" x="419.496" xlink:href="#h" y="505.928"/><use stroke="#000" stroke-width=".6" x="434.885" xlink:href="#h" y="505.928"/><use stroke="#000" stroke-width=".6" x="450.274" xlink:href="#h" y="505.928"/><use stroke="#000" stroke-width=".6" x="465.664" xlink:href="#h" y="505.928"/><use stroke="#000" stroke-width=".6" x="481.053" xlink:href="#h" y="505.928"/><use stroke="#000" stroke-width=".6" x="496.442" xlink:href="#h" y="505.928"/><g><use stroke="#000" stroke-width=".6" x="511.832" xlink:href="#h" y="505.928"/><g transform="matrix(.1 0 0 -.1 505.47 518.926)"><use xlink:href="#i"/><use x="63.623" xlink:href="#k"/></g></g><use stroke="#000" stroke-width=".6" x="527.221" xlink:href="#h" y="505.928"/><use stroke="#000" stroke-width=".6" x="542.611" xlink:href="#h" y="505.928"/><g><path clip-path="url(#U)" d="M50.15 505.928H558" fill="none" stroke="#b0b0b0" stroke-linecap="square" stroke-width=".8"/><use stroke="#000" stroke-width=".8" x="50.15" xlink:href="#l" y="505.928"/><g transform="matrix(.1 0 0 -.1 25.55 509.727)"><use transform="translate(0 .766)" xlink:href="#i"/><use transform="translate(63.623 .766)" xlink:href="#g"/><use transform="matrix(.7 0 0 .7 128.203 39.047)" xlink:href="#f"/></g><path clip-path="url(#U)" d="M50.15 447.692H558" fill="none" stroke="#b0b0b0" stroke-linecap="square" stroke-width=".8"/><use stroke="#000" stroke-width=".8" x="50.15" xlink:href="#l" y="447.692"/><g transform="matrix(.1 0 0 -.1 25.55 451.491)"><use transform="translate(0 .766)" xlink:href="#i"/><use transform="translate(63.623 .766)" xlink:href="#g"/><use transform="matrix(.7 0 0 .7 128.203 39.047)" xlink:href="#k"/></g><g><path clip-path="url(#U)" d="M50.15 389.456H558" fill="none" stroke="#b0b0b0" stroke-linecap="square" stroke-width=".8"/><use stroke="#000" stroke-width=".8" x="50.15" xlink:href="#l" y="389.456"/><g transform="matrix(.1 0 0 -.1 25.55 393.255)"><use transform="translate(0 .684)" xlink:href="#i"/><use transform="translate(63.623 .684)" xlink:href="#g"/><use transform="matrix(.7 0 0 .7 128.203 38.966)" xlink:href="#m"/></g></g><g><path clip-path="url(#U)" d="M50.15 331.22H558" fill="none" stroke="#b0b0b0" stroke-linecap="square" stroke-width=".8"/><use stroke="#000" stroke-width=".8" x="50.15" xlink:href="#l" y="331.219"/><g transform="matrix(.1 0 0 -.1 25.55 335.019)"><use transform="translate(0 .684)" xlink:href="#i"/><use transform="translate(63.623 .684)" xlink:href="#g"/><use transform="matrix(.7 0 0 .7 128.203 38.966)" xlink:href="#n"/></g></g><g stroke="#000" stroke-width=".6"><use x="50.15" xlink:href="#o" y="488.397"/><use x="50.15" xlink:href="#o" y="478.142"/><use x="50.15" xlink:href="#o" y="470.866"/><use x="50.15" xlink:href="#o" y="465.223"/><use x="50.15" xlink:href="#o" y="460.611"/><use x="50.15" xlink:href="#o" y="456.713"/><use x="50.15" xlink:href="#o" y="453.335"/><use x="50.15" xlink:href="#o" y="450.357"/><use x="50.15" xlink:href="#o" y="430.161"/><use x="50.15" xlink:href="#o" y="419.906"/><use x="50.15" xlink:href="#o" y="412.63"/><use x="50.15" xlink:href="#o" y="406.986"/><use x="50.15" xlink:href="#o" y="402.375"/><use x="50.15" xlink:href="#o" y="398.476"/><use x="50.15" xlink:href="#o" y="395.099"/><use x="50.15" xlink:href="#o" y="392.12"/><use x="50.15" xlink:href="#o" y="371.925"/><use x="50.15" xlink:href="#o" y="361.67"/><use x="50.15" xlink:href="#o" y="354.394"/><use x="50.15" xlink:href="#o" y="348.75"/><use x="50.15" xlink:href="#o" y="344.139"/><use x="50.15" xlink:href="#o" y="340.24"/><use x="50.15" xlink:href="#o" y="336.863"/><use x="50.15" xlink:href="#o" y="333.884"/><use x="50.15" xlink:href="#o" y="313.688"/><use x="50.15" xlink:href="#o" y="303.434"/></g><g transform="matrix(0 -.1 -.1 0 19.47 408.358)"><use xlink:href="#I"/><use x="73.193" xlink:href="#J"/></g></g><g stroke="#1f77b4"><path clip-path="url(#U)" d="M-1 487.954l4.982-1.967 15.39-10.102 15.389-6.313 15.39-5.487 15.389-8.399 15.389-6.883 15.39-14.427 15.389-9.645 15.39-19.366 15.389-11.1 15.389-8.672 15.39-7.519 15.389-7.051 15.39-5.214 15.388-4.604 15.39-5.173 15.39-4.249 15.389-3.87 15.389-3.213 15.39-2.758 15.389-3.204 15.39-2.502 15.389-2.39 15.389-2.64 15.39-2.459 15.389-1.927 15.39-1.67 15.389-1.406 15.389-1.886 15.39-1.676 15.389-1.548 15.39-1.19 15.388-1.041 15.39-.837" fill="none" stroke-linecap="square" stroke-width="1.5"/><g clip-path="url(#U)" fill="#1f77b4"><use x="-1" xlink:href="#v" y="487.954"/><use x="3.982" xlink:href="#v" y="485.987"/><use x="19.371" xlink:href="#v" y="475.885"/><use x="34.761" xlink:href="#v" y="469.572"/><use x="50.15" xlink:href="#v" y="464.085"/><use x="65.54" xlink:href="#v" y="455.686"/><use x="80.929" xlink:href="#v" y="448.803"/><use x="96.318" xlink:href="#v" y="434.376"/><use x="111.708" xlink:href="#v" y="424.731"/><use x="127.097" xlink:href="#v" y="405.365"/><use x="142.487" xlink:href="#v" y="394.266"/><use x="157.876" xlink:href="#v" y="385.593"/><use x="173.265" xlink:href="#v" y="378.074"/><use x="188.655" xlink:href="#v" y="371.023"/><use x="204.044" xlink:href="#v" y="365.809"/><use x="219.433" xlink:href="#v" y="361.205"/><use x="234.823" xlink:href="#v" y="356.032"/><use x="250.212" xlink:href="#v" y="351.783"/><use x="265.602" xlink:href="#v" y="347.913"/><use x="280.991" xlink:href="#v" y="344.7"/><use x="296.38" xlink:href="#v" y="341.942"/><use x="311.77" xlink:href="#v" y="338.738"/><use x="327.159" xlink:href="#v" y="336.236"/><use x="342.549" xlink:href="#v" y="333.847"/><use x="357.938" xlink:href="#v" y="331.206"/><use x="373.327" xlink:href="#v" y="328.747"/><use x="388.717" xlink:href="#v" y="326.82"/><use x="404.106" xlink:href="#v" y="325.151"/><use x="419.496" xlink:href="#v" y="323.744"/><use x="434.885" xlink:href="#v" y="321.858"/><use x="450.274" xlink:href="#v" y="320.182"/><use x="465.664" xlink:href="#v" y="318.634"/><use x="481.053" xlink:href="#v" y="317.444"/><use x="496.442" xlink:href="#v" y="316.403"/><use x="511.832" xlink:href="#v" y="315.566"/></g></g><g stroke="#ff7f0e"><path clip-path="url(#U)" d="M-1 547.924l4.982-3.701 15.39-6.1H34.76l15.39-22.441 15.389-8.722 15.389-15.186 15.39-10.303 15.389-.096 15.39-25.827 15.389-4.594 15.389-10.111 15.39-9.305 15.389-10.04 15.39-6.42 15.388-4.511 15.39-11.339 15.39-6.3 15.389-5.846 15.389-4.696 15.39-5.5 15.389-2.892 15.39-4.365 15.389-3.402 15.389-3.916 15.39-3.264 15.389-2.398 15.39-2.31 15.389-1.882 15.389-1.561 15.39-1.798 15.389-1.657 15.39-1.543 15.388-1.547 15.39-1.099" fill="none" stroke-linecap="square" stroke-width="1.5"/><g clip-path="url(#U)" fill="#ff7f0e"><use x="-1" xlink:href="#w" y="547.924"/><use x="3.982" xlink:href="#w" y="544.223"/><use x="19.371" xlink:href="#w" y="538.123"/><use x="34.761" xlink:href="#w" y="538.123"/><use x="50.15" xlink:href="#w" y="515.682"/><use x="65.54" xlink:href="#w" y="506.96"/><use x="80.929" xlink:href="#w" y="491.774"/><use x="96.318" xlink:href="#w" y="481.471"/><use x="111.708" xlink:href="#w" y="481.375"/><use x="127.097" xlink:href="#w" y="455.548"/><use x="142.487" xlink:href="#w" y="450.954"/><use x="157.876" xlink:href="#w" y="440.843"/><use x="173.265" xlink:href="#w" y="431.538"/><use x="188.655" xlink:href="#w" y="421.498"/><use x="204.044" xlink:href="#w" y="415.078"/><use x="219.433" xlink:href="#w" y="410.567"/><use x="234.823" xlink:href="#w" y="399.228"/><use x="250.212" xlink:href="#w" y="392.928"/><use x="265.602" xlink:href="#w" y="387.082"/><use x="280.991" xlink:href="#w" y="382.386"/><use x="296.38" xlink:href="#w" y="376.885"/><use x="311.77" xlink:href="#w" y="373.994"/><use x="327.159" xlink:href="#w" y="369.629"/><use x="342.549" xlink:href="#w" y="366.227"/><use x="357.938" xlink:href="#w" y="362.311"/><use x="373.327" xlink:href="#w" y="359.047"/><use x="388.717" xlink:href="#w" y="356.649"/><use x="404.106" xlink:href="#w" y="354.339"/><use x="419.496" xlink:href="#w" y="352.457"/><use x="434.885" xlink:href="#w" y="350.896"/><use x="450.274" xlink:href="#w" y="349.098"/><use x="465.664" xlink:href="#w" y="347.441"/><use x="481.053" xlink:href="#w" y="345.898"/><use x="496.442" xlink:href="#w" y="344.351"/><use x="511.832" xlink:href="#w" y="343.252"/></g></g><path clip-path="url(#U)" d="M-1 507.759l4.982-.266 15.39-3.276 15.389-3.318 15.39-2.933 15.389-4.395 15.389-4.663 15.39-2.574 15.389-.116 15.39-10.333 15.389-5.766 15.389-6.082 15.39-5.097 15.389-4.572 15.39-10.167 15.388-11.696 15.39-6.87 15.39-7.4 15.389-6.917 15.389-3.857 15.39-3.77 15.389-3.46 15.39-3.888 15.389-3.689 15.389-3.724 15.39-3.053 15.389-1.593 15.39-2.562 15.389-2.26 15.389-2.452 15.39-3.029 15.389-2.526 15.39-2.14 15.388-2.748 15.39-1.3" fill="none" stroke="#2ca02c" stroke-linecap="square" stroke-width="1.5"/><g stroke="#d62728"><path clip-path="url(#U)" d="M29.633 569.8l5.128-17.523 15.39-11.287 15.389-7.022 15.389-11.983 15.39-5.162 15.389-6.182 15.39-34.986 15.389-12.797 15.389-8.98 15.39-6.835 15.389-6.258 15.39-7.52 15.388-6.117 15.39-5.352 15.39-6.09 15.389-6.273 15.389-4.186 15.39-4.162 15.389-3.863 15.39-5.045 15.389-3.65 15.389-4.235 15.39-2.77 15.389-2.491 15.39-2.232 15.389-2.385 15.389-1.702 15.39-1.323 15.389-.888 15.39-1.24 15.388-.611 15.39-1.371" fill="none" stroke-linecap="square" stroke-width="1.5"/><g clip-path="url(#U)" fill="#d62728"><use x="-1" xlink:href="#x" y="19463.511"/><use x="3.982" xlink:href="#x" y="604.87"/><use x="19.371" xlink:href="#x" y="604.87"/><use x="34.761" xlink:href="#x" y="552.277"/><use x="50.15" xlink:href="#x" y="540.99"/><use x="65.54" xlink:href="#x" y="533.968"/><use x="80.929" xlink:href="#x" y="521.985"/><use x="96.318" xlink:href="#x" y="516.823"/><use x="111.708" xlink:href="#x" y="510.641"/><use x="127.097" xlink:href="#x" y="475.655"/><use x="142.487" xlink:href="#x" y="462.858"/><use x="157.876" xlink:href="#x" y="453.879"/><use x="173.265" xlink:href="#x" y="447.043"/><use x="188.655" xlink:href="#x" y="440.785"/><use x="204.044" xlink:href="#x" y="433.265"/><use x="219.433" xlink:href="#x" y="427.148"/><use x="234.823" xlink:href="#x" y="421.796"/><use x="250.212" xlink:href="#x" y="415.706"/><use x="265.602" xlink:href="#x" y="409.433"/><use x="280.991" xlink:href="#x" y="405.247"/><use x="296.38" xlink:href="#x" y="401.085"/><use x="311.77" xlink:href="#x" y="397.222"/><use x="327.159" xlink:href="#x" y="392.177"/><use x="342.549" xlink:href="#x" y="388.527"/><use x="357.938" xlink:href="#x" y="384.292"/><use x="373.327" xlink:href="#x" y="381.521"/><use x="388.717" xlink:href="#x" y="379.031"/><use x="404.106" xlink:href="#x" y="376.799"/><use x="419.496" xlink:href="#x" y="374.414"/><use x="434.885" xlink:href="#x" y="372.712"/><use x="450.274" xlink:href="#x" y="371.389"/><use x="465.664" xlink:href="#x" y="370.501"/><use x="481.053" xlink:href="#x" y="369.261"/><use x="496.442" xlink:href="#x" y="368.65"/><use x="511.832" xlink:href="#x" y="367.279"/></g></g><g stroke="#9467bd"><path clip-path="url(#U)" d="M-1 493.897l4.982-1.685 15.39-5.169 15.389-6.423 15.39-4.812 15.389-5.812 15.389-6.907 15.39-5.643 15.389-2.07 15.39-5.957 15.389-5.35 15.389-3.78 15.39-4.736 15.389-6.25 15.39-4.664 15.388-4.162 15.39-6.67 15.39-4.507 15.389-2.238 15.389-3.513 15.39-5.044 15.389-3.522 15.39-3.419 15.389-3.427 15.389-2.737 15.39-1.685 15.389-3.98 15.39-1.59 15.389-1.99 15.389-2.124 15.39-1.029 15.389-1.7 15.39-.733 15.388-1.231 15.39-1.185" fill="none" stroke-linecap="square" stroke-width="1.5"/><g clip-path="url(#U)" fill="#9467bd"><use x="-1" xlink:href="#y" y="493.897"/><use x="3.982" xlink:href="#y" y="492.212"/><use x="19.371" xlink:href="#y" y="487.043"/><use x="34.761" xlink:href="#y" y="480.62"/><use x="50.15" xlink:href="#y" y="475.808"/><use x="65.54" xlink:href="#y" y="469.996"/><use x="80.929" xlink:href="#y" y="463.089"/><use x="96.318" xlink:href="#y" y="457.446"/><use x="111.708" xlink:href="#y" y="455.376"/><use x="127.097" xlink:href="#y" y="449.419"/><use x="142.487" xlink:href="#y" y="444.069"/><use x="157.876" xlink:href="#y" y="440.29"/><use x="173.265" xlink:href="#y" y="435.553"/><use x="188.655" xlink:href="#y" y="429.303"/><use x="204.044" xlink:href="#y" y="424.639"/><use x="219.433" xlink:href="#y" y="420.477"/><use x="234.823" xlink:href="#y" y="413.808"/><use x="250.212" xlink:href="#y" y="409.3"/><use x="265.602" xlink:href="#y" y="407.062"/><use x="280.991" xlink:href="#y" y="403.549"/><use x="296.38" xlink:href="#y" y="398.505"/><use x="311.77" xlink:href="#y" y="394.983"/><use x="327.159" xlink:href="#y" y="391.564"/><use x="342.549" xlink:href="#y" y="388.137"/><use x="357.938" xlink:href="#y" y="385.4"/><use x="373.327" xlink:href="#y" y="383.715"/><use x="388.717" xlink:href="#y" y="379.736"/><use x="404.106" xlink:href="#y" y="378.146"/><use x="419.496" xlink:href="#y" y="376.156"/><use x="434.885" xlink:href="#y" y="374.031"/><use x="450.274" xlink:href="#y" y="373.002"/><use x="465.664" xlink:href="#y" y="371.303"/><use x="481.053" xlink:href="#y" y="370.569"/><use x="496.442" xlink:href="#y" y="369.338"/><use x="511.832" xlink:href="#y" y="368.153"/></g></g><path clip-path="url(#U)" d="M511.832 315.566l15.39-.986 15.389-.985L558 312.61" fill="none" stroke="#1f77b4" stroke-dasharray="1.5 2.475" stroke-width="1.5"/><path clip-path="url(#U)" d="M511.832 343.252l15.39-1.354 15.389-1.354L558 339.19" fill="none" stroke="#ff7f0e" stroke-dasharray="1.5 2.475" stroke-width="1.5"/><path clip-path="url(#U)" d="M511.832 365.267l15.39-1.998 15.389-1.997L558 359.275" fill="none" stroke="#2ca02c" stroke-dasharray="1.5 2.475" stroke-width="1.5"/><path clip-path="url(#U)" d="M511.832 367.279l15.39-1.072 15.389-1.072L558 364.064" fill="none" stroke="#d62728" stroke-dasharray="1.5 2.475" stroke-width="1.5"/><path clip-path="url(#U)" d="M511.832 368.153l15.39-1.104 15.389-1.105L558 364.84" fill="none" stroke="#9467bd" stroke-dasharray="1.5 2.475" stroke-width="1.5"/><path d="M50.15 505.928V297.12M558 505.928V297.12M50.15 505.928H558M50.15 297.12H558" fill="none" stroke="#000" stroke-linecap="square" stroke-linejoin="miter" stroke-width=".8"/><g><path d="M336.678 500.928H551q2 0 2-2v-72.39q0-2-2-2H336.678q-2 0-2 2v72.39q0 2 2 2z" fill="#fff" opacity=".8" stroke="#ccc" stroke-linejoin="miter"/><path d="M338.678 432.636h20" fill="none" stroke="#1f77b4" stroke-linecap="square" stroke-width="1.5"/><use fill="#1f77b4" stroke="#1f77b4" x="348.678" xlink:href="#v" y="432.636"/><g transform="matrix(.1 0 0 -.1 366.678 436.136)"><use xlink:href="#V"/><use x="74.805" xlink:href="#u"/><use x="136.328" xlink:href="#s"/><path d="M249.7 72.906h10.609l20.203-29.984 20.078 29.984h10.594L285.402 34.72V0h-9.906v34.719z"/><use x="310.783" xlink:href="#p"/><use x="371.965" xlink:href="#e"/><path d="M422.156 75.984h9.031V31.11L458 54.687h11.469l-29-25.578L470.703 0h-11.719l-27.796 26.703V0h-9.032z"/><use x="502.775" xlink:href="#K"/><use x="541.789" xlink:href="#r"/><use x="605.266" xlink:href="#p"/><use x="666.447" xlink:href="#L"/><use x="729.826" xlink:href="#M"/><use x="793.303" xlink:href="#q"/><use x="821.086" xlink:href="#u"/><use x="882.609" xlink:href="#G"/><use x="966.496" xlink:href="#t"/><use x="994.279" xlink:href="#N"/><use x="1089.445" xlink:href="#i"/><use x="1153.068" xlink:href="#T"/><use x="1216.691" xlink:href="#O"/><use x="1248.479" xlink:href="#R"/><use x="1343.889" xlink:href="#r"/><use x="1407.365" xlink:href="#F"/><use x="1468.645" xlink:href="#P"/><use x="1527.824" xlink:href="#G"/><use x="1579.924" xlink:href="#Q"/></g><path d="M338.678 447.314h20" fill="none" stroke="#ff7f0e" stroke-linecap="square" stroke-width="1.5"/><use fill="#ff7f0e" stroke="#ff7f0e" x="348.678" xlink:href="#w" y="447.314"/><g transform="matrix(.1 0 0 -.1 366.678 450.814)"><use xlink:href="#V"/><use x="74.805" xlink:href="#u"/><use x="136.328" xlink:href="#s"/><path d="M259.715 72.906h9.86V5.078q0-13.187-5-19.14-5-5.954-16.095-5.954h-3.75v8.297h3.079q6.53 0 9.218 3.672 2.688 3.656 2.688 13.125z"/><use x="279.395" xlink:href="#u"/><use x="340.918" xlink:href="#e"/><use x="382.031" xlink:href="#G"/><use x="434.131" xlink:href="#u"/><use x="495.654" xlink:href="#P"/><use x="586.621" xlink:href="#K"/><use x="625.635" xlink:href="#r"/><use x="689.111" xlink:href="#p"/><use x="750.293" xlink:href="#L"/><use x="813.672" xlink:href="#M"/><use x="877.148" xlink:href="#q"/><use x="904.932" xlink:href="#u"/><use x="966.455" xlink:href="#G"/><use x="1050.342" xlink:href="#t"/><use x="1078.125" xlink:href="#N"/><use x="1173.291" xlink:href="#i"/><use x="1236.914" xlink:href="#f"/><use x="1300.537" xlink:href="#O"/><use x="1332.324" xlink:href="#E"/><use x="1427.734" xlink:href="#r"/><use x="1491.211" xlink:href="#F"/><use x="1552.49" xlink:href="#P"/><use x="1611.67" xlink:href="#G"/><use x="1663.77" xlink:href="#Q"/></g><path d="M338.678 461.992h20" fill="none" stroke="#2ca02c" stroke-linecap="square" stroke-width="1.5"/><g transform="matrix(.1 0 0 -.1 366.678 465.492)"><use xlink:href="#W"/><use x="86.279" xlink:href="#F"/><use x="147.559" xlink:href="#G"/><use x="199.658" xlink:href="#G"/><use x="251.758" xlink:href="#F"/><use x="313.037" xlink:href="#z"/><use x="368.018" xlink:href="#X"/><use x="431.396" xlink:href="#L"/><use x="494.775" xlink:href="#G"/><use x="546.875" xlink:href="#u"/><use x="608.398" xlink:href="#A"/><use x="647.607" xlink:href="#A"/><use x="686.816" xlink:href="#G"/><use x="770.703" xlink:href="#K"/><use x="809.717" xlink:href="#r"/><use x="873.193" xlink:href="#p"/><use x="934.375" xlink:href="#L"/><use x="997.754" xlink:href="#M"/><use x="1061.23" xlink:href="#q"/><use x="1089.014" xlink:href="#u"/><use x="1150.537" xlink:href="#G"/><use x="1234.424" xlink:href="#t"/><use x="1262.207" xlink:href="#N"/><use x="1357.373" xlink:href="#R"/><use x="1420.996" xlink:href="#O"/><use x="1452.783" xlink:href="#R"/><use x="1548.193" xlink:href="#r"/><use x="1611.67" xlink:href="#F"/><use x="1672.949" xlink:href="#P"/><use x="1732.129" xlink:href="#G"/><use x="1784.229" xlink:href="#Q"/></g><path d="M338.678 476.67h20" fill="none" stroke="#d62728" stroke-linecap="square" stroke-width="1.5"/><use fill="#d62728" stroke="#d62728" x="348.678" xlink:href="#x" y="476.67"/><g transform="matrix(.1 0 0 -.1 366.678 480.17)"><use xlink:href="#W"/><use x="86.279" xlink:href="#t"/><use x="114.063" xlink:href="#z"/><use x="169.043" xlink:href="#X"/><use x="232.422" xlink:href="#t"/><use x="260.205" xlink:href="#S"/><use x="323.682" xlink:href="#F"/><use x="384.961" xlink:href="#N"/><use x="480.127" xlink:href="#K"/><use x="519.141" xlink:href="#r"/><use x="582.617" xlink:href="#p"/><use x="643.799" xlink:href="#L"/><use x="707.178" xlink:href="#M"/><use x="770.654" xlink:href="#q"/><use x="798.438" xlink:href="#u"/><use x="859.961" xlink:href="#G"/><use x="943.848" xlink:href="#t"/><use x="971.631" xlink:href="#N"/><use x="1066.797" xlink:href="#i"/><use x="1130.42" xlink:href="#j"/><use x="1194.043" xlink:href="#O"/><use x="1225.83" xlink:href="#m"/><use x="1321.24" xlink:href="#r"/><use x="1384.717" xlink:href="#F"/><use x="1445.996" xlink:href="#P"/><use x="1505.176" xlink:href="#G"/><use x="1557.275" xlink:href="#Q"/></g><path d="M338.678 491.348h20" fill="none" stroke="#9467bd" stroke-linecap="square" stroke-width="1.5"/><use fill="#9467bd" stroke="#9467bd" x="348.678" xlink:href="#y" y="491.348"/><g transform="matrix(.1 0 0 -.1 366.678 494.848)"><use xlink:href="#B"/><use x="69.824" xlink:href="#F"/><use x="131.104" xlink:href="#q"/><use x="158.887" xlink:href="#t"/><use x="186.67" xlink:href="#H"/><use x="221.875" xlink:href="#p"/><use x="283.057" xlink:href="#e"/><use x="324.154" xlink:href="#N"/><use x="387.533" xlink:href="#t"/><use x="415.316" xlink:href="#F"/><use x="508.383" xlink:href="#K"/><use x="547.396" xlink:href="#r"/><use x="610.873" xlink:href="#p"/><use x="672.055" xlink:href="#L"/><use x="735.434" xlink:href="#M"/><use x="798.91" xlink:href="#q"/><use x="826.693" xlink:href="#u"/><use x="888.217" xlink:href="#G"/><use x="972.104" xlink:href="#t"/><use x="999.887" xlink:href="#N"/><use x="1095.053" xlink:href="#i"/><use x="1158.676" xlink:href="#n"/><use x="1222.299" xlink:href="#O"/><use x="1254.086" xlink:href="#E"/><use x="1349.496" xlink:href="#r"/><use x="1412.973" xlink:href="#F"/><use x="1474.252" xlink:href="#P"/><use x="1533.432" xlink:href="#G"/><use x="1585.531" xlink:href="#Q"/></g></g></g></svg>