<svg height="758.4" stroke-linejoin="round" viewBox="0 0 568.8 568.8" width="758.4" xmlns="http://www.w3.org/2000/svg" xmlns:xlink="http://www.w3.org/1999/xlink"><defs><path id="w" d="M9.422 54.688h8.984V0H9.422zm0 21.296h8.984v-11.39H9.422z" stroke-linejoin="round"/><path id="T" d="M9.813 72.906h13.28l32.329-60.984v60.984h9.562V0h-13.28L19.39 60.984V0H9.813z" stroke-linejoin="round"/><path id="b" d="M0 0v3.5" stroke="#000" stroke-linejoin="round" stroke-width=".8"/><path id="c" d="M9.813 72.906h14.703l18.593-49.61 18.703 49.61h14.704V0H66.89v64.016l-18.797-50h-9.907l-18.796 50V0H9.813z" stroke-linejoin="round"/><path id="d" d="M34.281 27.484q-10.89 0-15.093-2.484-4.204-2.484-4.204-8.5 0-4.781 3.157-7.594 3.156-2.797 8.562-2.797 7.485 0 12 5.297 4.516 5.297 4.516 14.078v2zm17.922 3.72V0H43.22v8.297Q40.14 3.328 35.547.953q-4.594-2.375-11.234-2.375-8.391 0-13.36 4.719Q6 8.016 6 15.922q0 9.219 6.172 13.906 6.187 4.688 18.437 4.688h12.61v.89q0 6.203-4.078 9.594-4.078 3.39-11.453 3.39-4.688 0-9.141-1.124-4.438-1.125-8.531-3.375v8.312q4.921 1.906 9.562 2.844 4.64.953 9.031.953 11.875 0 17.735-6.156 5.86-6.14 5.86-18.64z" stroke-linejoin="round"/><path id="e" d="M41.11 46.297q-1.516.875-3.297 1.281Q36.03 48 33.89 48q-7.625 0-11.703-4.953-4.079-4.953-4.079-14.234V0H9.08v54.688h9.03v-8.5q2.844 4.984 7.375 7.39Q30.031 56 36.531 56q.922 0 2.047-.125 1.125-.11 2.484-.36z" stroke-linejoin="round"/><path id="f" d="M19.188 8.297h34.421V0H7.33v8.297q5.609 5.812 15.296 15.594 9.703 9.797 12.188 12.64 4.734 5.313 6.609 9 1.89 3.688 1.89 7.25 0 5.813-4.078 9.469-4.078 3.672-10.625 3.672-4.64 0-9.797-1.61-5.14-1.609-11-4.89v9.969Q13.767 71.78 18.938 73q5.188 1.219 9.485 1.219 11.328 0 18.062-5.672 6.735-5.656 6.735-15.125 0-4.5-1.688-8.531-1.672-4.016-6.125-9.485-1.218-1.422-7.765-8.187-6.532-6.766-18.453-18.922z" stroke-linejoin="round"/><path id="g" d="M31.781 66.406q-7.61 0-11.453-7.5Q16.5 51.422 16.5 36.375q0-14.984 3.828-22.484 3.844-7.5 11.453-7.5 7.672 0 11.5 7.5 3.844 7.5 3.844 22.484 0 15.047-3.844 22.531-3.828 7.5-11.5 7.5zm0 7.813q12.266 0 18.735-9.703 6.468-9.688 6.468-28.141 0-18.406-6.468-28.11-6.47-9.687-18.735-9.687-12.25 0-18.718 9.688-6.47 9.703-6.47 28.109 0 18.453 6.47 28.14Q19.53 74.22 31.78 74.22z" stroke-linejoin="round"/><path id="h" d="M34.188 63.188L20.797 26.906h26.812zm-5.579 9.718h11.188L67.578 0h-10.25l-6.64 18.703h-32.86L11.188 0H.78z" stroke-linejoin="round"/><path id="i" d="M18.11 8.203v-29H9.077v75.484h9.031v-8.296q2.844 4.875 7.157 7.234Q29.594 56 35.594 56q9.968 0 16.187-7.906 6.235-7.907 6.235-20.797T51.78 6.484q-6.218-7.906-16.187-7.906-6 0-10.328 2.375-4.313 2.375-7.157 7.25zm30.578 19.094q0 9.906-4.079 15.547-4.078 5.64-11.203 5.64-7.14 0-11.218-5.64-4.079-5.64-4.079-15.547 0-9.906 4.078-15.547 4.079-5.64 11.22-5.64 7.124 0 11.202 5.64t4.078 15.547z" stroke-linejoin="round"/><path id="j" d="M32.172-5.078q-3.797-9.766-7.422-12.735-3.61-2.984-9.656-2.984H7.906v7.516h5.282q3.703 0 5.75 1.765Q21-9.766 23.483-3.219l1.61 4.094-22.11 53.813H12.5l17.094-42.766 17.093 42.766h9.516z" stroke-linejoin="round"/><path id="k" d="M0 0v2" stroke="#000" stroke-linejoin="round" stroke-width=".6"/><path id="l" d="M10.984 1.516V10.5q3.72-1.766 7.516-2.688 3.813-.921 7.484-.921 9.766 0 14.907 6.562 5.156 6.563 5.89 19.953-2.828-4.203-7.187-6.453-4.344-2.25-9.61-2.25-10.937 0-17.312 6.61-6.375 6.625-6.375 18.109 0 11.219 6.64 18 6.641 6.797 17.672 6.797 12.657 0 19.313-9.703 6.672-9.688 6.672-28.141 0-17.234-8.188-27.516Q40.234-1.42 26.422-1.42q-3.719 0-7.531.734-3.797.734-7.907 2.203zM30.61 32.422q6.641 0 10.516 4.531 3.89 4.547 3.89 12.469 0 7.86-3.89 12.422-3.875 4.562-10.516 4.562-6.64 0-10.515-4.562-3.875-4.563-3.875-12.422 0-7.922 3.875-12.469 3.875-4.531 10.515-4.531z" stroke-linejoin="round"/><path id="m" d="M12.406 8.297h16.11v55.625l-17.532-3.516v8.985l17.438 3.515h9.86V8.296H54.39V0H12.406z" stroke-linejoin="round"/><path id="n" d="M33.016 40.375q-6.641 0-10.532-4.547-3.875-4.531-3.875-12.437 0-7.86 3.875-12.438 3.891-4.562 10.532-4.562 6.64 0 10.515 4.562 3.875 4.578 3.875 12.438 0 7.906-3.875 12.437-3.875 4.547-10.515 4.547zm19.578 30.922v-8.984q-3.719 1.75-7.5 2.671-3.782.938-7.5.938-9.766 0-14.922-6.594-5.14-6.594-5.875-19.922 2.875 4.25 7.219 6.516 4.359 2.266 9.578 2.266 10.984 0 17.36-6.672 6.374-6.657 6.374-18.125 0-11.235-6.64-18.032-6.641-6.78-17.672-6.78-12.657 0-19.344 9.687-6.688 9.703-6.688 28.109 0 17.281 8.204 27.563 8.203 10.28 22.015 10.28 3.719 0 7.5-.734t7.89-2.187z" stroke-linejoin="round"/><path id="o" d="M40.578 39.313Q47.656 37.797 51.625 33q3.984-4.781 3.984-11.813 0-10.78-7.422-16.703-7.421-5.906-21.093-5.906-4.578 0-9.438.906-4.86.907-10.031 2.72v9.515q4.094-2.39 8.969-3.61 4.89-1.218 10.218-1.218 9.266 0 14.125 3.656 4.86 3.656 4.86 10.64 0 6.454-4.516 10.079-4.515 3.64-12.562 3.64h-8.5v8.11h8.89q7.266 0 11.125 2.906 3.86 2.906 3.86 8.375 0 5.61-3.985 8.61-3.968 3.015-11.39 3.015-4.063 0-8.703-.89-4.641-.876-10.203-2.72v8.782q5.624 1.562 10.53 2.344 4.907.78 9.25.78 11.235 0 17.766-5.109 6.547-5.093 6.547-13.78 0-6.063-3.468-10.235-3.47-4.172-9.86-5.782z" stroke-linejoin="round"/><path id="p" d="M8.203 72.906h46.875v-4.203L28.61 0H18.312L43.22 64.594H8.203z" stroke-linejoin="round"/><path id="q" d="M37.797 64.313L12.89 25.39h24.906zm-2.594 8.593H47.61V25.391h10.407v-8.203H47.609V0h-9.812v17.188H4.89v9.515z" stroke-linejoin="round"/><path id="r" d="M0 0h-3.5" stroke="#000" stroke-linejoin="round" stroke-width=".8"/><path id="s" d="M30.61 48.39q-7.22 0-11.422-5.64-4.204-5.64-4.204-15.453 0-9.813 4.172-15.453 4.188-5.64 11.453-5.64 7.188 0 11.375 5.655 4.203 5.672 4.203 15.438 0 9.719-4.203 15.406-4.187 5.688-11.375 5.688zm0 7.61q11.718 0 18.406-7.625 6.703-7.61 6.703-21.078 0-13.422-6.703-21.078-6.688-7.64-18.407-7.64-11.765 0-18.437 7.64-6.656 7.656-6.656 21.078 0 13.469 6.656 21.078Q18.844 56 30.609 56z" stroke-linejoin="round"/><path id="t" d="M9.422 75.984h8.984V0H9.422z" stroke-linejoin="round"/><path id="u" d="M45.406 46.39v29.594h8.985V0h-8.985v8.203Q42.578 3.328 38.25.953q-4.313-2.375-10.375-2.375-9.906 0-16.14 7.906-6.22 7.922-6.22 20.813 0 12.89 6.22 20.797Q17.968 56 27.874 56q6.063 0 10.375-2.375 4.328-2.36 7.156-7.234zm-30.61-19.093q0-9.906 4.079-15.547 4.078-5.64 11.203-5.64 7.125 0 11.219 5.64 4.11 5.64 4.11 15.547 0 9.906-4.11 15.547-4.094 5.64-11.219 5.64-7.125 0-11.203-5.64-4.078-5.64-4.078-15.547z" stroke-linejoin="round"/><path id="v" d="M4.203 54.688h8.985l11.234-42.672 11.172 42.672h10.593l11.235-42.672 11.187 42.672h8.985L63.28 0H52.688L40.922 44.828 29.109 0H18.5z" stroke-linejoin="round"/><path id="R" d="M8.016 75.875h7.812q7.313-11.516 10.953-22.563 3.64-11.03 3.64-21.921 0-10.938-3.64-22.016-3.64-11.078-10.953-22.563H8.016Q14.5-2 17.703 9.063q3.203 11.063 3.203 22.329 0 11.28-3.203 22.265-3.203 11-9.687 22.219z" stroke-linejoin="round"/><path id="x" d="M56.203 29.594v-4.39H14.891q.593-9.282 5.593-14.142 5-4.859 13.938-4.859 5.172 0 10.031 1.266 4.86 1.265 9.656 3.812v-8.5Q49.266.734 44.187-.344 39.11-1.422 33.892-1.422q-13.094 0-20.735 7.61-7.64 7.625-7.64 20.625 0 13.421 7.25 21.296Q20.016 56 32.328 56q11.031 0 17.453-7.11 6.422-7.093 6.422-19.296zm-8.984 2.64q-.094 7.36-4.125 11.75-4.032 4.407-10.672 4.407-7.516 0-12.031-4.25-4.516-4.25-5.203-11.97z" stroke-linejoin="round"/><path id="y" d="M-3 0h6M0 3v-6" stroke="#1f77b4" stroke-linejoin="round"/><path id="z" d="M0 1.5a1.5 1.5 0 100-3 1.5 1.5 0 000 3z" stroke="#ff7f0e" stroke-linejoin="round"/><path id="A" d="M-3 0h6M0 3v-6" stroke="#d62728" stroke-linejoin="round"/><path id="B" d="M0 1.5a1.5 1.5 0 100-3 1.5 1.5 0 000 3z" stroke="#9467bd" stroke-linejoin="round"/><path id="C" d="M48.781 52.594v-8.407q-3.812 2.11-7.64 3.157-3.828 1.047-7.735 1.047-8.75 0-13.593-5.547-4.829-5.532-4.829-15.547 0-10.016 4.829-15.563 4.843-5.53 13.593-5.53 3.907 0 7.735 1.046 3.828 1.047 7.64 3.156V2.094Q45.016.344 40.984-.531q-4.015-.89-8.562-.89-12.36 0-19.64 7.765-7.266 7.765-7.266 20.953 0 13.375 7.343 21.031Q20.22 56 33.016 56q4.14 0 8.093-.86 3.953-.843 7.672-2.546z" stroke-linejoin="round"/><path id="D" d="M18.313 70.219V54.688h18.5v-6.985h-18.5V18.016q0-6.688 1.828-8.594 1.828-1.906 7.453-1.906h9.218V0h-9.218q-10.407 0-14.36 3.875-3.953 3.89-3.953 14.14v29.688H2.687v6.984h6.594V70.22z" stroke-linejoin="round"/><path id="E" d="M64.406 67.281v-10.39q-4.984 4.64-10.625 6.922-5.64 2.296-11.984 2.296-12.5 0-19.14-7.64-6.641-7.64-6.641-22.094 0-14.406 6.64-22.047 6.64-7.64 19.14-7.64 6.345 0 11.985 2.296 5.64 2.297 10.625 6.938V5.609Q59.234 2.094 53.437.33q-5.78-1.75-12.218-1.75-16.563 0-26.094 10.124-9.516 10.14-9.516 27.672 0 17.578 9.516 27.703 9.531 10.14 26.094 10.14 6.531 0 12.312-1.734 5.797-1.734 10.875-5.203z" stroke-linejoin="round"/><path id="F" d="M9.813 72.906h9.859V0h-9.86z" stroke-linejoin="round"/><path id="G" d="M4.89 31.39h26.313v-8H4.891z" stroke-linejoin="round"/><path id="H" d="M44.281 53.078v-8.5q-3.797 1.953-7.906 2.922-4.094.984-8.5.984-6.688 0-10.031-2.047-3.344-2.046-3.344-6.156 0-3.125 2.39-4.906 2.391-1.781 9.626-3.39l3.078-.688q9.562-2.047 13.593-5.781 4.032-3.735 4.032-10.422 0-7.625-6.032-12.078-6.03-4.438-16.578-4.438-4.39 0-9.156.86Q10.688.296 5.422 2v9.281q4.984-2.594 9.812-3.89 4.829-1.282 9.579-1.282 6.343 0 9.75 2.172 3.421 2.172 3.421 6.125 0 3.656-2.468 5.61-2.453 1.953-10.813 3.765l-3.125.735q-8.344 1.75-12.062 5.39-3.704 3.64-3.704 9.985 0 7.718 5.47 11.906Q16.75 56 26.811 56q4.97 0 9.36-.734 4.406-.72 8.11-2.188z" stroke-linejoin="round"/><path id="I" d="M37.11 75.984V68.5h-8.594q-4.828 0-6.72-1.953-1.874-1.953-1.874-7.031v-4.828h14.797v-6.985H19.922V0H10.89v47.703H2.297v6.984h8.594V58.5q0 9.125 4.25 13.297 4.25 4.187 13.468 4.187z" stroke-linejoin="round"/><path id="J" d="M10.797 72.906h38.719v-8.312H19.828v-17.86q2.14.735 4.281 1.094 2.157.36 4.313.36 12.203 0 19.328-6.688 7.14-6.688 7.14-18.11 0-11.765-7.328-18.296-7.328-6.516-20.656-6.516-4.593 0-9.36.781-4.75.782-9.827 2.344v9.922q4.39-2.39 9.078-3.563 4.687-1.171 9.906-1.171 8.453 0 13.375 4.437 4.938 4.438 4.938 12.063 0 7.609-4.938 12.047-4.922 4.453-13.375 4.453-3.953 0-7.89-.875-3.922-.875-8.016-2.735z" stroke-linejoin="round"/><path id="K" d="M8.688 72.906h9.921V28.61q0-11.718 4.235-16.875 4.25-5.14 13.781-5.14 9.469 0 13.719 5.14 4.25 5.157 4.25 16.875v44.297H64.5V27.391q0-14.25-7.063-21.532-7.046-7.28-20.812-7.28-13.828 0-20.89 7.28-7.047 7.282-7.047 21.532z" stroke-linejoin="round"/><path id="L" d="M53.516 70.516V60.89q-5.61 2.687-10.594 4-4.984 1.328-9.625 1.328-8.047 0-12.422-3.125t-4.375-8.89q0-4.845 2.906-7.313 2.907-2.453 11.016-3.97l5.953-1.218q11.031-2.11 16.281-7.406 5.25-5.297 5.25-14.172 0-10.61-7.11-16.078-7.093-5.469-20.812-5.469-5.172 0-11.015 1.172Q13.14.922 6.89 3.219v10.156q6-3.36 11.765-5.078 5.766-1.703 11.328-1.703 8.438 0 13.032 3.312 4.593 3.328 4.593 9.485 0 5.359-3.297 8.39-3.296 3.032-10.812 4.547L27.484 33.5q-11.03 2.188-15.968 6.875-4.922 4.688-4.922 13.047 0 9.672 6.812 15.234 6.813 5.563 18.766 5.563 5.14 0 10.453-.938 5.328-.922 10.89-2.765z" stroke-linejoin="round"/><path id="M" d="M31 75.875q-6.531-11.219-9.719-22.219-3.172-10.984-3.172-22.265 0-11.266 3.203-22.328Q24.517-2 31-13.188h-7.813Q15.875-1.704 12.235 9.375q-3.64 11.078-3.64 22.016 0 10.89 3.61 21.922 3.624 11.046 10.983 22.562z" stroke-linejoin="round"/><path id="N" d="M8.5 21.578v33.11h8.984V21.922q0-7.766 3.016-11.656 3.031-3.875 9.094-3.875 7.265 0 11.484 4.64 4.234 4.64 4.234 12.656v31h8.985V0h-8.984v8.406Q42.047 3.422 37.718 1q-4.313-2.422-10.032-2.422-9.421 0-14.312 5.86Q8.5 10.296 8.5 21.578z" stroke-linejoin="round"/><path id="O" d="M48.688 27.297q0 9.906-4.079 15.547-4.078 5.64-11.203 5.64-7.14 0-11.218-5.64-4.079-5.64-4.079-15.547 0-9.906 4.078-15.547 4.079-5.64 11.22-5.64 7.124 0 11.202 5.64t4.078 15.547zM18.108 46.39q2.844 4.875 7.157 7.234Q29.594 56 35.594 56q9.968 0 16.187-7.906 6.235-7.907 6.235-20.797T51.78 6.484q-6.218-7.906-16.187-7.906-6 0-10.328 2.375-4.313 2.375-7.157 7.25V0H9.08v75.984h9.03z" stroke-linejoin="round"/><path id="P" d="M54.89 33.016V0h-8.984v32.719q0 7.765-3.031 11.61-3.031 3.858-9.078 3.858-7.281 0-11.484-4.64-4.204-4.625-4.204-12.64V0H9.08v54.688h9.03v-8.5q3.235 4.937 7.594 7.374Q30.078 56 35.797 56q9.422 0 14.25-5.828 4.844-5.828 4.844-17.156z" stroke-linejoin="round"/><path id="Q" d="M10.688 12.406H21V0H10.687z" stroke-linejoin="round"/><clipPath id="S" stroke-linejoin="round"><path d="M70.22 297.12H558v208.808H70.22z"/></clipPath><clipPath id="a" stroke-linejoin="round"><path d="M70.22 25.44H558v208.808H70.22z"/></clipPath></defs><path d="M0 568.8h568.8V0H0z" fill="#fff"/><path d="M70.22 234.248H558V25.44H70.22z" fill="#fff"/><path clip-path="url(#a)" d="M70.22 234.248V25.44" fill="none" stroke="#b0b0b0" stroke-linecap="square" stroke-width=".8"/><use stroke="#000" stroke-width=".8" x="70.22" xlink:href="#b" y="234.248"/><g transform="matrix(.1 0 0 -.1 60.786 271.242)"><use xlink:href="#c"/><use x="86.279" xlink:href="#d"/><use x="147.559" xlink:href="#e"/></g><g transform="matrix(.1 0 0 -.1 57.495 282.44)"><use xlink:href="#f"/><use x="63.623" xlink:href="#g"/><use x="127.246" xlink:href="#f"/><use x="190.869" xlink:href="#g"/></g><path clip-path="url(#a)" d="M302.854 234.248V25.44" fill="none" stroke="#b0b0b0" stroke-linecap="square" stroke-width=".8"/><use stroke="#000" stroke-width=".8" x="302.854" xlink:href="#b" y="234.248"/><g transform="matrix(.1 0 0 -.1 294.204 271.242)"><use xlink:href="#h"/><use x="68.408" xlink:href="#i"/><use x="131.885" xlink:href="#e"/></g><path clip-path="url(#a)" d="M527.983 234.248V25.44" fill="none" stroke="#b0b0b0" stroke-linecap="square" stroke-width=".8"/><use stroke="#000" stroke-width=".8" x="527.983" xlink:href="#b" y="234.248"/><g transform="matrix(.1 0 0 -.1 517.645 271.242)"><use xlink:href="#c"/><use x="86.279" xlink:href="#d"/><use x="147.559" xlink:href="#j"/></g><g stroke-width=".8"><path clip-path="url(#a)" d="M558 234.248V25.44" fill="none" stroke="#b0b0b0" stroke-linecap="square"/><use stroke="#000" x="558" xlink:href="#b" y="234.248"/></g><use stroke="#000" stroke-width=".6" x="77.724" xlink:href="#k" y="234.248"/><g transform="matrix(.1 0 0 -.1 71.362 247.246)"><use xlink:href="#g"/><use x="63.623" xlink:href="#f"/></g><g stroke="#000" stroke-width=".6"><use x="85.229" xlink:href="#k" y="234.248"/><use x="92.733" xlink:href="#k" y="234.248"/><use x="100.237" xlink:href="#k" y="234.248"/><use x="107.742" xlink:href="#k" y="234.248"/><use x="115.246" xlink:href="#k" y="234.248"/><use x="122.75" xlink:href="#k" y="234.248"/></g><use stroke="#000" stroke-width=".6" x="130.254" xlink:href="#k" y="234.248"/><g transform="matrix(.1 0 0 -.1 123.892 247.246)"><use xlink:href="#g"/><use x="63.623" xlink:href="#l"/></g><g stroke="#000" stroke-width=".6"><use x="137.759" xlink:href="#k" y="234.248"/><use x="145.263" xlink:href="#k" y="234.248"/><use x="152.767" xlink:href="#k" y="234.248"/><use x="160.272" xlink:href="#k" y="234.248"/><use x="167.776" xlink:href="#k" y="234.248"/><use x="175.28" xlink:href="#k" y="234.248"/><use x="182.785" xlink:href="#k" y="234.248"/></g><g transform="matrix(.1 0 0 -.1 176.422 247.246)"><use xlink:href="#m"/><use x="63.623" xlink:href="#n"/></g><g stroke="#000" stroke-width=".6"><use x="190.289" xlink:href="#k" y="234.248"/><use x="197.793" xlink:href="#k" y="234.248"/><use x="205.298" xlink:href="#k" y="234.248"/><use x="212.802" xlink:href="#k" y="234.248"/><use x="220.306" xlink:href="#k" y="234.248"/><use x="227.81" xlink:href="#k" y="234.248"/><use x="235.315" xlink:href="#k" y="234.248"/></g><g transform="matrix(.1 0 0 -.1 228.952 247.246)"><use xlink:href="#f"/><use x="63.623" xlink:href="#o"/></g><g stroke="#000" stroke-width=".6"><use x="242.819" xlink:href="#k" y="234.248"/><use x="250.323" xlink:href="#k" y="234.248"/><use x="257.828" xlink:href="#k" y="234.248"/><use x="265.332" xlink:href="#k" y="234.248"/><use x="272.836" xlink:href="#k" y="234.248"/><use x="280.341" xlink:href="#k" y="234.248"/><use x="287.845" xlink:href="#k" y="234.248"/></g><g transform="matrix(.1 0 0 -.1 281.482 247.246)"><use xlink:href="#o"/><use x="63.623" xlink:href="#g"/></g><g stroke="#000" stroke-width=".6"><use x="295.349" xlink:href="#k" y="234.248"/><use x="310.358" xlink:href="#k" y="234.248"/><use x="317.862" xlink:href="#k" y="234.248"/><use x="325.366" xlink:href="#k" y="234.248"/><use x="332.871" xlink:href="#k" y="234.248"/><use x="340.375" xlink:href="#k" y="234.248"/></g><g transform="matrix(.1 0 0 -.1 334.013 247.246)"><use xlink:href="#g"/><use x="63.623" xlink:href="#n"/></g><g stroke="#000" stroke-width=".6"><use x="347.879" xlink:href="#k" y="234.248"/><use x="355.384" xlink:href="#k" y="234.248"/><use x="362.888" xlink:href="#k" y="234.248"/><use x="370.392" xlink:href="#k" y="234.248"/><use x="377.897" xlink:href="#k" y="234.248"/><use x="385.401" xlink:href="#k" y="234.248"/><use x="392.905" xlink:href="#k" y="234.248"/></g><g transform="matrix(.1 0 0 -.1 386.543 247.246)"><use xlink:href="#m"/><use x="63.623" xlink:href="#o"/></g><g stroke="#000" stroke-width=".6"><use x="400.41" xlink:href="#k" y="234.248"/><use x="407.914" xlink:href="#k" y="234.248"/><use x="415.418" xlink:href="#k" y="234.248"/><use x="422.922" xlink:href="#k" y="234.248"/><use x="430.427" xlink:href="#k" y="234.248"/><use x="437.931" xlink:href="#k" y="234.248"/><use x="445.435" xlink:href="#k" y="234.248"/></g><g transform="matrix(.1 0 0 -.1 439.073 247.246)"><use xlink:href="#f"/><use x="63.623" xlink:href="#g"/></g><g stroke="#000" stroke-width=".6"><use x="452.94" xlink:href="#k" y="234.248"/><use x="460.444" xlink:href="#k" y="234.248"/><use x="467.948" xlink:href="#k" y="234.248"/><use x="475.453" xlink:href="#k" y="234.248"/><use x="482.957" xlink:href="#k" y="234.248"/><use x="490.461" xlink:href="#k" y="234.248"/><use x="497.966" xlink:href="#k" y="234.248"/></g><g transform="matrix(.1 0 0 -.1 491.603 247.246)"><use xlink:href="#f"/><use x="63.623" xlink:href="#p"/></g><g stroke="#000" stroke-width=".6"><use x="505.47" xlink:href="#k" y="234.248"/><use x="512.974" xlink:href="#k" y="234.248"/><use x="520.478" xlink:href="#k" y="234.248"/><use x="535.487" xlink:href="#k" y="234.248"/><use x="542.991" xlink:href="#k" y="234.248"/><use x="550.496" xlink:href="#k" y="234.248"/></g><g transform="matrix(.1 0 0 -.1 544.133 247.246)"><use xlink:href="#g"/><use x="63.623" xlink:href="#q"/></g><path clip-path="url(#a)" d="M70.22 191.64H558" fill="none" stroke="#b0b0b0" stroke-linecap="square" stroke-width=".8"/><use stroke="#000" stroke-width=".8" x="70.22" xlink:href="#r" y="191.639"/><g transform="matrix(.1 0 0 -.1 25.045 195.438)"><use xlink:href="#f"/><use x="63.623" xlink:href="#g"/><use x="127.246" xlink:href="#g"/><use x="190.869" xlink:href="#g"/><use x="254.492" xlink:href="#g"/><use x="318.115" xlink:href="#g"/></g><path clip-path="url(#a)" d="M70.22 149.028H558" fill="none" stroke="#b0b0b0" stroke-linecap="square" stroke-width=".8"/><use stroke="#000" stroke-width=".8" x="70.22" xlink:href="#r" y="149.028"/><g transform="matrix(.1 0 0 -.1 25.045 152.827)"><use xlink:href="#q"/><use x="63.623" xlink:href="#g"/><use x="127.246" xlink:href="#g"/><use x="190.869" xlink:href="#g"/><use x="254.492" xlink:href="#g"/><use x="318.115" xlink:href="#g"/></g><path clip-path="url(#a)" d="M70.22 106.417H558" fill="none" stroke="#b0b0b0" stroke-linecap="square" stroke-width=".8"/><use stroke="#000" stroke-width=".8" x="70.22" xlink:href="#r" y="106.417"/><g transform="matrix(.1 0 0 -.1 25.045 110.216)"><use xlink:href="#n"/><use x="63.623" xlink:href="#g"/><use x="127.246" xlink:href="#g"/><use x="190.869" xlink:href="#g"/><use x="254.492" xlink:href="#g"/><use x="318.115" xlink:href="#g"/></g><path clip-path="url(#a)" d="M70.22 63.806H558" fill="none" stroke="#b0b0b0" stroke-linecap="square" stroke-width=".8"/><use stroke="#000" stroke-width=".8" x="70.22" xlink:href="#r" y="63.806"/><g transform="matrix(.1 0 0 -.1 25.045 67.605)"><path d="M31.781 34.625q-7.031 0-11.062-3.766-4.016-3.765-4.016-10.343 0-6.594 4.016-10.36Q24.75 6.391 31.78 6.391q7.032 0 11.078 3.78 4.063 3.798 4.063 10.345 0 6.578-4.031 10.343-4.016 3.766-11.11 3.766zm-9.86 4.188q-6.343 1.562-9.89 5.906Q8.5 49.079 8.5 55.329q0 8.733 6.219 13.812 6.234 5.078 17.062 5.078 10.89 0 17.094-5.078 6.203-5.079 6.203-13.813 0-6.25-3.547-10.61-3.531-4.343-9.828-5.906 7.125-1.656 11.094-6.5 3.984-4.828 3.984-11.796 0-10.61-6.468-16.282-6.47-5.656-18.532-5.656-12.047 0-18.531 5.656-6.469 5.672-6.469 16.282 0 6.968 4 11.797 4.016 4.843 11.14 6.5zM18.314 54.39q0-5.657 3.53-8.828 3.548-3.172 9.938-3.172 6.36 0 9.938 3.172 3.593 3.171 3.593 8.828 0 5.672-3.593 8.843-3.578 3.172-9.938 3.172-6.39 0-9.937-3.172-3.532-3.172-3.532-8.843z"/><use x="63.623" xlink:href="#g"/><use x="127.246" xlink:href="#g"/><use x="190.869" xlink:href="#g"/><use x="254.492" xlink:href="#g"/><use x="318.115" xlink:href="#g"/></g><g transform="matrix(0 -.1 -.1 0 18.965 156.19)"><path d="M3.328 72.906h9.953L28.61 11.281l15.282 61.625h11.093l15.328-61.625 15.282 61.625h10.015L77.297 0H64.89L49.516 63.281 33.984 0H21.578z"/><use x="98.799" xlink:href="#s"/><use x="159.98" xlink:href="#e"/><use x="201.094" xlink:href="#t"/><use x="228.877" xlink:href="#u"/><use x="292.354" xlink:href="#v"/><use x="374.141" xlink:href="#w"/><use x="401.924" xlink:href="#u"/><use x="465.4" xlink:href="#x"/></g><g stroke="#1f77b4"><path clip-path="url(#a)" d="M-1 234.246l3.681-.002H17.69l7.504-.004h7.504l7.505-.001H55.21l7.505-.002 7.504-.001 7.504-.005 7.505-.004 7.504-.005 7.504-.015 7.505-.011 7.504-.03 7.504-.024 7.504-.014 7.505-.075 7.504-.066 7.504-.08 7.505-.109 7.504-.115 7.504-.162 7.505-.236 7.504-.376 7.504-.27 7.505-1.238 7.504-1.137 7.504-1.348 7.504-1.786 7.505-2.065 7.504-2.039 7.504-2.513 7.505-3.722 7.504-3.677 7.504-4.083 7.505-3.709 7.504-3.714 7.504-5.127 7.505-4.872 7.504-6.079 7.504-6.417 7.504-5.753 7.505-5.158 7.504-5.603 7.504-5.419 7.505-6.191 7.504-6.126 7.504-6.308 7.505-5.434 7.504-5.464 7.504-2.834 7.505-4.36 7.504-4.656 7.504-5.167 7.504-5.158 7.505-5.178 7.504-4.132 7.504-4.648 7.505-4.754 7.504-5.117 7.504-4.853 7.505-3.258 7.504-6.333 7.504-4.237 7.505-3.536 7.504-3.788 7.504-4.246 7.504 1.223 7.505-4.692 7.504-3.47" fill="none" stroke-linecap="square" stroke-width="1.5"/><g clip-path="url(#a)" fill="#1f77b4"><use x="-1" xlink:href="#y" y="234.246"/><use x="2.681" xlink:href="#y" y="234.244"/><use x="10.186" xlink:href="#y" y="234.244"/><use x="17.69" xlink:href="#y" y="234.244"/><use x="25.194" xlink:href="#y" y="234.24"/><use x="32.698" xlink:href="#y" y="234.24"/><use x="40.203" xlink:href="#y" y="234.239"/><use x="47.707" xlink:href="#y" y="234.239"/><use x="55.211" xlink:href="#y" y="234.238"/><use x="62.716" xlink:href="#y" y="234.237"/><use x="70.22" xlink:href="#y" y="234.236"/><use x="77.724" xlink:href="#y" y="234.231"/><use x="85.229" xlink:href="#y" y="234.227"/><use x="92.733" xlink:href="#y" y="234.222"/><use x="100.237" xlink:href="#y" y="234.207"/><use x="107.742" xlink:href="#y" y="234.196"/><use x="115.246" xlink:href="#y" y="234.167"/><use x="122.75" xlink:href="#y" y="234.142"/><use x="130.254" xlink:href="#y" y="234.128"/><use x="137.759" xlink:href="#y" y="234.053"/><use x="145.263" xlink:href="#y" y="233.987"/><use x="152.767" xlink:href="#y" y="233.907"/><use x="160.272" xlink:href="#y" y="233.798"/><use x="167.776" xlink:href="#y" y="233.683"/><use x="175.28" xlink:href="#y" y="233.521"/><use x="182.785" xlink:href="#y" y="233.285"/><use x="190.289" xlink:href="#y" y="232.909"/><use x="197.793" xlink:href="#y" y="232.639"/><use x="205.298" xlink:href="#y" y="231.401"/><use x="212.802" xlink:href="#y" y="230.264"/><use x="220.306" xlink:href="#y" y="228.916"/><use x="227.81" xlink:href="#y" y="227.13"/><use x="235.315" xlink:href="#y" y="225.065"/><use x="242.819" xlink:href="#y" y="223.026"/><use x="250.323" xlink:href="#y" y="220.513"/><use x="257.828" xlink:href="#y" y="216.791"/><use x="265.332" xlink:href="#y" y="213.114"/><use x="272.836" xlink:href="#y" y="209.031"/><use x="280.341" xlink:href="#y" y="205.322"/><use x="287.845" xlink:href="#y" y="201.608"/><use x="295.349" xlink:href="#y" y="196.481"/><use x="302.854" xlink:href="#y" y="191.609"/><use x="310.358" xlink:href="#y" y="185.53"/><use x="317.862" xlink:href="#y" y="179.113"/><use x="325.366" xlink:href="#y" y="173.36"/><use x="332.871" xlink:href="#y" y="168.202"/><use x="340.375" xlink:href="#y" y="162.599"/><use x="347.879" xlink:href="#y" y="157.18"/><use x="355.384" xlink:href="#y" y="150.989"/><use x="362.888" xlink:href="#y" y="144.863"/><use x="370.392" xlink:href="#y" y="138.555"/><use x="377.897" xlink:href="#y" y="133.121"/><use x="385.401" xlink:href="#y" y="127.657"/><use x="392.905" xlink:href="#y" y="124.823"/><use x="400.41" xlink:href="#y" y="120.463"/><use x="407.914" xlink:href="#y" y="115.807"/><use x="415.418" xlink:href="#y" y="110.64"/><use x="422.922" xlink:href="#y" y="105.482"/><use x="430.427" xlink:href="#y" y="100.304"/><use x="437.931" xlink:href="#y" y="96.172"/><use x="445.435" xlink:href="#y" y="91.524"/><use x="452.94" xlink:href="#y" y="86.77"/><use x="460.444" xlink:href="#y" y="81.653"/><use x="467.948" xlink:href="#y" y="76.8"/><use x="475.453" xlink:href="#y" y="73.542"/><use x="482.957" xlink:href="#y" y="67.209"/><use x="490.461" xlink:href="#y" y="62.972"/><use x="497.966" xlink:href="#y" y="59.436"/><use x="505.47" xlink:href="#y" y="55.648"/><use x="512.974" xlink:href="#y" y="51.402"/><use x="520.478" xlink:href="#y" y="52.625"/><use x="527.983" xlink:href="#y" y="47.933"/><use x="535.487" xlink:href="#y" y="44.463"/></g></g><g stroke="#ff7f0e"><path clip-path="url(#a)" d="M-1 234.25H40.203l7.504-.001 7.504-.001 7.505-.001 7.504-.003h7.504l7.505-.003 7.504-.007 7.504-.006 7.505-.01 7.504-.007 7.504-.015 7.504-.01 7.505-.012 7.504-.016h7.504l7.505-.073 7.504-.07h7.504l7.505-.079 7.504-.08 7.504-.14h7.505l7.504-.269 7.504-.212 7.504-.128 7.505-.188 7.504-.288 7.504-.306 7.505-.436 7.504-.586 7.504-.492 7.505-.48 7.504-.528 7.504-.562 7.505-.813 7.504-.794 7.504-.813 7.504-.655 7.505-1.133 7.504-.713 7.504-.606 7.505-.973 7.504-.746 7.504-1.603 7.505-.92 7.504-.977 7.504-.846 7.505-.953 7.504-.816 7.504-.807 7.504-1.014 7.505-.987 7.504-1.116 7.504-.899 7.505-.702 7.504-.777 7.504-.84 7.505-.981 7.504-.866 7.504-.863 7.505-.835 7.504-.726 7.504.08 7.504-1.143 7.505-1.157 7.504-.892" fill="none" stroke-linecap="square" stroke-width="1.5"/><g clip-path="url(#a)" fill="#ff7f0e"><use x="-1" xlink:href="#z" y="234.25"/><use x="2.681" xlink:href="#z" y="234.25"/><use x="10.186" xlink:href="#z" y="234.25"/><use x="17.69" xlink:href="#z" y="234.25"/><use x="25.194" xlink:href="#z" y="234.249"/><use x="32.698" xlink:href="#z" y="234.249"/><use x="40.203" xlink:href="#z" y="234.249"/><use x="47.707" xlink:href="#z" y="234.249"/><use x="55.211" xlink:href="#z" y="234.248"/><use x="62.716" xlink:href="#z" y="234.247"/><use x="70.22" xlink:href="#z" y="234.244"/><use x="77.724" xlink:href="#z" y="234.243"/><use x="85.229" xlink:href="#z" y="234.241"/><use x="92.733" xlink:href="#z" y="234.234"/><use x="100.237" xlink:href="#z" y="234.228"/><use x="107.742" xlink:href="#z" y="234.218"/><use x="115.246" xlink:href="#z" y="234.211"/><use x="122.75" xlink:href="#z" y="234.196"/><use x="130.254" xlink:href="#z" y="234.186"/><use x="137.759" xlink:href="#z" y="234.174"/><use x="145.263" xlink:href="#z" y="234.158"/><use x="152.767" xlink:href="#z" y="234.158"/><use x="160.272" xlink:href="#z" y="234.085"/><use x="167.776" xlink:href="#z" y="234.015"/><use x="175.28" xlink:href="#z" y="234.015"/><use x="182.785" xlink:href="#z" y="233.936"/><use x="190.289" xlink:href="#z" y="233.856"/><use x="197.793" xlink:href="#z" y="233.717"/><use x="205.298" xlink:href="#z" y="233.715"/><use x="212.802" xlink:href="#z" y="233.447"/><use x="220.306" xlink:href="#z" y="233.235"/><use x="227.81" xlink:href="#z" y="233.107"/><use x="235.315" xlink:href="#z" y="232.919"/><use x="242.819" xlink:href="#z" y="232.631"/><use x="250.323" xlink:href="#z" y="232.325"/><use x="257.828" xlink:href="#z" y="231.889"/><use x="265.332" xlink:href="#z" y="231.303"/><use x="272.836" xlink:href="#z" y="230.811"/><use x="280.341" xlink:href="#z" y="230.33"/><use x="287.845" xlink:href="#z" y="229.803"/><use x="295.349" xlink:href="#z" y="229.241"/><use x="302.854" xlink:href="#z" y="228.428"/><use x="310.358" xlink:href="#z" y="227.634"/><use x="317.862" xlink:href="#z" y="226.821"/><use x="325.366" xlink:href="#z" y="226.166"/><use x="332.871" xlink:href="#z" y="225.033"/><use x="340.375" xlink:href="#z" y="224.32"/><use x="347.879" xlink:href="#z" y="223.714"/><use x="355.384" xlink:href="#z" y="222.741"/><use x="362.888" xlink:href="#z" y="221.995"/><use x="370.392" xlink:href="#z" y="220.392"/><use x="377.897" xlink:href="#z" y="219.473"/><use x="385.401" xlink:href="#z" y="218.495"/><use x="392.905" xlink:href="#z" y="217.649"/><use x="400.41" xlink:href="#z" y="216.696"/><use x="407.914" xlink:href="#z" y="215.88"/><use x="415.418" xlink:href="#z" y="215.073"/><use x="422.922" xlink:href="#z" y="214.059"/><use x="430.427" xlink:href="#z" y="213.072"/><use x="437.931" xlink:href="#z" y="211.956"/><use x="445.435" xlink:href="#z" y="211.057"/><use x="452.94" xlink:href="#z" y="210.355"/><use x="460.444" xlink:href="#z" y="209.578"/><use x="467.948" xlink:href="#z" y="208.738"/><use x="475.453" xlink:href="#z" y="207.757"/><use x="482.957" xlink:href="#z" y="206.891"/><use x="490.461" xlink:href="#z" y="206.028"/><use x="497.966" xlink:href="#z" y="205.193"/><use x="505.47" xlink:href="#z" y="204.467"/><use x="512.974" xlink:href="#z" y="204.546"/><use x="520.478" xlink:href="#z" y="203.404"/><use x="527.983" xlink:href="#z" y="202.247"/><use x="535.487" xlink:href="#z" y="201.355"/></g></g><path clip-path="url(#a)" d="M-1 234.248l3.681-.002 7.505-.008 7.504-.02 7.504-.015 7.504-.02 7.505-.026 7.504-.033 7.504-.049 7.505-.05 7.504-.11 7.504-.056 7.505-.091 7.504-.094 7.504-.126 7.505-.132 7.504-.244 7.504-.283 7.504-.34 7.505-.172 7.504-.383h7.504l7.505-.93 7.504-.596 7.504-.607 7.505-.527 7.504-.637 7.504-.564 7.505-.954 7.504-1.142 7.504-.88 7.504-.843 7.505-.806 7.504-.77 7.504-.743 7.505-.957 7.504-.938 7.504-.778 7.505-.812 7.504-.351 7.504-.45 7.505-.625 7.504-.528 7.504-.498 7.504-.615 7.505-.633 7.504-.414 7.504-.187 7.505-.255 7.504-.344 7.504-.297 7.505-.426 7.504-.422 7.504-.29 7.505-.145 7.504-.24 7.504-.253 7.504-.076 7.505-.172 7.504-.104 7.504.005 7.505.112 7.504.002 7.504.182 7.505.068 7.504.145 7.504-.055 7.505.062 7.504.13 7.504.116 7.504.662 7.505.13 7.504.05" fill="none" stroke="#2ca02c" stroke-linecap="square" stroke-width="1.5"/><g stroke="#d62728"><path clip-path="url(#a)" d="M-1 234.249H40.203l7.504-.004 7.504-.004 7.505-.01 7.504-.006 7.504-.012 7.505-.003 7.504-.017 7.504-.02 7.505-.058 7.504-.062 7.504-.036 7.504-.018 7.505-.12 7.504-.103h7.504l7.505-.288 7.504-.17 7.504-.007 7.505-.444 7.504-.22 7.504-.291 7.505-.37 7.504-.329 7.504-.333 7.504.085 7.505-.792 7.504-.251 7.504-.454 7.505-.54 7.504-.597 7.504-.93 7.505-.172 7.504-.704 7.504-1.195 7.505-.611 7.504.142 7.504-.546 7.504-4.933 7.505-.347 7.504-.699 7.504-1.617 7.505-.302 7.504-.324 7.504-.934 7.505-.573 7.504-.336 7.504-.66 7.505 1.784 7.504.126 7.504-2.11 7.504.086 7.505.47 7.504-.842 7.504-.21 7.505-.106 7.504.9 7.504-.081 7.505.3 7.504-.048 7.504-.005 7.505-.574 7.504-.265 7.504.912 7.504.17 7.505.203 7.504-.328" fill="none" stroke-linecap="square" stroke-width="1.5"/><g clip-path="url(#a)" fill="#d62728"><use x="-1" xlink:href="#A" y="234.249"/><use x="2.681" xlink:href="#A" y="234.249"/><use x="10.186" xlink:href="#A" y="234.249"/><use x="17.69" xlink:href="#A" y="234.249"/><use x="25.194" xlink:href="#A" y="234.249"/><use x="32.698" xlink:href="#A" y="234.25"/><use x="40.203" xlink:href="#A" y="234.249"/><use x="47.707" xlink:href="#A" y="234.245"/><use x="55.211" xlink:href="#A" y="234.241"/><use x="62.716" xlink:href="#A" y="234.232"/><use x="70.22" xlink:href="#A" y="234.225"/><use x="77.724" xlink:href="#A" y="234.213"/><use x="85.229" xlink:href="#A" y="234.21"/><use x="92.733" xlink:href="#A" y="234.193"/><use x="100.237" xlink:href="#A" y="234.174"/><use x="107.742" xlink:href="#A" y="234.115"/><use x="115.246" xlink:href="#A" y="234.053"/><use x="122.75" xlink:href="#A" y="234.017"/><use x="130.254" xlink:href="#A" y="233.999"/><use x="137.759" xlink:href="#A" y="233.88"/><use x="145.263" xlink:href="#A" y="233.776"/><use x="152.767" xlink:href="#A" y="233.776"/><use x="160.272" xlink:href="#A" y="233.488"/><use x="167.776" xlink:href="#A" y="233.318"/><use x="175.28" xlink:href="#A" y="233.311"/><use x="182.785" xlink:href="#A" y="232.867"/><use x="190.289" xlink:href="#A" y="232.647"/><use x="197.793" xlink:href="#A" y="232.356"/><use x="205.298" xlink:href="#A" y="231.985"/><use x="212.802" xlink:href="#A" y="231.657"/><use x="220.306" xlink:href="#A" y="231.324"/><use x="227.81" xlink:href="#A" y="231.409"/><use x="235.315" xlink:href="#A" y="230.617"/><use x="242.819" xlink:href="#A" y="230.366"/><use x="250.323" xlink:href="#A" y="229.912"/><use x="257.828" xlink:href="#A" y="229.372"/><use x="265.332" xlink:href="#A" y="228.775"/><use x="272.836" xlink:href="#A" y="227.845"/><use x="280.341" xlink:href="#A" y="227.673"/><use x="287.845" xlink:href="#A" y="226.969"/><use x="295.349" xlink:href="#A" y="225.774"/><use x="302.854" xlink:href="#A" y="225.163"/><use x="310.358" xlink:href="#A" y="225.305"/><use x="317.862" xlink:href="#A" y="224.759"/><use x="325.366" xlink:href="#A" y="219.826"/><use x="332.871" xlink:href="#A" y="219.479"/><use x="340.375" xlink:href="#A" y="218.78"/><use x="347.879" xlink:href="#A" y="217.163"/><use x="355.384" xlink:href="#A" y="216.861"/><use x="362.888" xlink:href="#A" y="216.537"/><use x="370.392" xlink:href="#A" y="215.603"/><use x="377.897" xlink:href="#A" y="215.03"/><use x="385.401" xlink:href="#A" y="214.694"/><use x="392.905" xlink:href="#A" y="214.034"/><use x="400.41" xlink:href="#A" y="215.818"/><use x="407.914" xlink:href="#A" y="215.944"/><use x="415.418" xlink:href="#A" y="213.835"/><use x="422.922" xlink:href="#A" y="213.92"/><use x="430.427" xlink:href="#A" y="214.39"/><use x="437.931" xlink:href="#A" y="213.548"/><use x="445.435" xlink:href="#A" y="213.338"/><use x="452.94" xlink:href="#A" y="213.232"/><use x="460.444" xlink:href="#A" y="214.132"/><use x="467.948" xlink:href="#A" y="214.051"/><use x="475.453" xlink:href="#A" y="214.35"/><use x="482.957" xlink:href="#A" y="214.303"/><use x="490.461" xlink:href="#A" y="214.298"/><use x="497.966" xlink:href="#A" y="213.724"/><use x="505.47" xlink:href="#A" y="213.459"/><use x="512.974" xlink:href="#A" y="214.371"/><use x="520.478" xlink:href="#A" y="214.541"/><use x="527.983" xlink:href="#A" y="214.744"/><use x="535.487" xlink:href="#A" y="214.416"/></g></g><g stroke="#9467bd"><path clip-path="url(#a)" d="M-1 234.25H32.698l7.505-.002h7.504l7.504-.004 7.505-.003 7.504-.008 7.504-.008 7.505-.01 7.504-.011 7.504-.008 7.505-.03 7.504-.014 7.504-.035 7.504-.083 7.505-.13 7.504-.089h7.504l7.505-.61 7.504-.165 7.504-.28 7.505-.442 7.504-.238 7.504-.43 7.505-.814 7.504-.374 7.504-.872 7.504-.607 7.505-1.012 7.504-.812 7.504-1.538 7.505-1.258 7.504-1.026 7.504-.798 7.505-.773 7.504-1.036 7.504-1.01 7.505-.828 7.504-.615 7.504-.536 7.504-.536 7.505-.196 7.504-.42 7.504-.382 7.505-.153 7.504-.043 7.504-.195 7.505-.168 7.504.017 7.504-.082 7.505.135 7.504-.234 7.504-.587 7.504-1.109 7.505-.18 7.504-.847 7.504.445 7.505-.343 7.504-.08 7.504-.183 7.505-.696 7.504-.056 7.504 4.14 7.505.138 7.504.142 7.504 1.003 7.504.608h7.505l7.504.555" fill="none" stroke-linecap="square" stroke-width="1.5"/><g clip-path="url(#a)" fill="#9467bd"><use x="-1" xlink:href="#B" y="234.25"/><use x="2.681" xlink:href="#B" y="234.25"/><use x="10.186" xlink:href="#B" y="234.25"/><use x="17.69" xlink:href="#B" y="234.25"/><use x="25.194" xlink:href="#B" y="234.25"/><use x="32.698" xlink:href="#B" y="234.249"/><use x="40.203" xlink:href="#B" y="234.248"/><use x="47.707" xlink:href="#B" y="234.247"/><use x="55.211" xlink:href="#B" y="234.244"/><use x="62.716" xlink:href="#B" y="234.241"/><use x="70.22" xlink:href="#B" y="234.233"/><use x="77.724" xlink:href="#B" y="234.225"/><use x="85.229" xlink:href="#B" y="234.216"/><use x="92.733" xlink:href="#B" y="234.204"/><use x="100.237" xlink:href="#B" y="234.196"/><use x="107.742" xlink:href="#B" y="234.166"/><use x="115.246" xlink:href="#B" y="234.152"/><use x="122.75" xlink:href="#B" y="234.117"/><use x="130.254" xlink:href="#B" y="234.034"/><use x="137.759" xlink:href="#B" y="233.903"/><use x="145.263" xlink:href="#B" y="233.815"/><use x="152.767" xlink:href="#B" y="233.816"/><use x="160.272" xlink:href="#B" y="233.205"/><use x="167.776" xlink:href="#B" y="233.04"/><use x="175.28" xlink:href="#B" y="232.76"/><use x="182.785" xlink:href="#B" y="232.318"/><use x="190.289" xlink:href="#B" y="232.08"/><use x="197.793" xlink:href="#B" y="231.65"/><use x="205.298" xlink:href="#B" y="230.836"/><use x="212.802" xlink:href="#B" y="230.462"/><use x="220.306" xlink:href="#B" y="229.59"/><use x="227.81" xlink:href="#B" y="228.983"/><use x="235.315" xlink:href="#B" y="227.971"/><use x="242.819" xlink:href="#B" y="227.159"/><use x="250.323" xlink:href="#B" y="225.621"/><use x="257.828" xlink:href="#B" y="224.363"/><use x="265.332" xlink:href="#B" y="223.337"/><use x="272.836" xlink:href="#B" y="222.539"/><use x="280.341" xlink:href="#B" y="221.766"/><use x="287.845" xlink:href="#B" y="220.73"/><use x="295.349" xlink:href="#B" y="219.72"/><use x="302.854" xlink:href="#B" y="218.892"/><use x="310.358" xlink:href="#B" y="218.277"/><use x="317.862" xlink:href="#B" y="217.741"/><use x="325.366" xlink:href="#B" y="217.205"/><use x="332.871" xlink:href="#B" y="217.009"/><use x="340.375" xlink:href="#B" y="216.589"/><use x="347.879" xlink:href="#B" y="216.207"/><use x="355.384" xlink:href="#B" y="216.054"/><use x="362.888" xlink:href="#B" y="216.011"/><use x="370.392" xlink:href="#B" y="215.816"/><use x="377.897" xlink:href="#B" y="215.648"/><use x="385.401" xlink:href="#B" y="215.665"/><use x="392.905" xlink:href="#B" y="215.583"/><use x="400.41" xlink:href="#B" y="215.718"/><use x="407.914" xlink:href="#B" y="215.484"/><use x="415.418" xlink:href="#B" y="214.897"/><use x="422.922" xlink:href="#B" y="213.788"/><use x="430.427" xlink:href="#B" y="213.608"/><use x="437.931" xlink:href="#B" y="212.761"/><use x="445.435" xlink:href="#B" y="213.206"/><use x="452.94" xlink:href="#B" y="212.863"/><use x="460.444" xlink:href="#B" y="212.783"/><use x="467.948" xlink:href="#B" y="212.6"/><use x="475.453" xlink:href="#B" y="211.904"/><use x="482.957" xlink:href="#B" y="211.848"/><use x="490.461" xlink:href="#B" y="215.989"/><use x="497.966" xlink:href="#B" y="216.126"/><use x="505.47" xlink:href="#B" y="216.268"/><use x="512.974" xlink:href="#B" y="217.271"/><use x="520.478" xlink:href="#B" y="217.879"/><use x="527.983" xlink:href="#B" y="217.879"/><use x="535.487" xlink:href="#B" y="218.434"/></g></g><g fill="none" stroke-dasharray="1.5 2.475" stroke-width="1.5"><path clip-path="url(#a)" d="M535.487 44.463l7.504-2.98 7.505-3.026L558 35.383" stroke="#1f77b4"/><path clip-path="url(#a)" d="M535.487 201.355l7.504-1.105 7.505-1.141 7.504-1.18" stroke="#ff7f0e"/><path clip-path="url(#a)" d="M535.487 212.795l7.504.205 7.505.203 7.504.202" stroke="#2ca02c"/><path clip-path="url(#a)" d="M535.487 214.416l7.504-.031 7.505-.032 7.504-.032" stroke="#d62728"/><path clip-path="url(#a)" d="M535.487 218.434l7.504.354 7.505.345 7.504.338" stroke="#9467bd"/></g><g fill="none" stroke="#000" stroke-linecap="square" stroke-linejoin="miter" stroke-width=".8"><path d="M70.22 234.248V25.44M558 234.248V25.44M70.22 234.248H558M70.22 25.44H558"/></g><g><g transform="matrix(.12 0 0 -.12 192.33 19.44)"><use xlink:href="#h"/><use x="68.393" xlink:href="#C"/><use x="123.373" xlink:href="#D"/><use x="162.582" xlink:href="#w"/><path d="M193.35 54.688h9.515L219.96 8.797l17.094 45.89h9.515L226.053 0H213.85z"/><use x="249.545" xlink:href="#x"/><use x="342.855" xlink:href="#E"/><path d="M452.086 66.219q-10.75 0-17.078-8.016-6.313-8-6.313-21.828 0-13.766 6.313-21.781 6.328-8 17.078-8 10.734 0 17.016 8 6.28 8.015 6.28 21.781 0 13.828-6.28 21.828-6.282 8.016-17.016 8.016zm0 8q15.328 0 24.5-10.281 9.187-10.282 9.187-27.563 0-17.234-9.187-27.516-9.172-10.28-24.5-10.28-15.375 0-24.594 10.25-9.203 10.265-9.203 27.546t9.203 27.563q9.219 10.28 24.594 10.28zM519.984 0l-27.828 72.906h10.297l23.11-61.375 23.14 61.375h10.25L531.172 0z"/><use x="559.783" xlink:href="#F"/><path d="M608.947 64.797V8.109h11.922q15.094 0 22.094 6.829 7 6.843 7 21.593 0 14.64-7 21.453-7 6.813-22.094 6.813zm-9.86 8.11h20.267q21.187 0 31.093-8.813 9.922-8.813 9.922-27.563 0-18.86-9.969-27.703Q640.447 0 619.354 0h-20.266z"/><use x="666.277" xlink:href="#G"/><use x="702.361" xlink:href="#m"/><use x="765.984" xlink:href="#l"/><use x="861.395" xlink:href="#C"/><use x="916.375" xlink:href="#d"/><use x="977.654" xlink:href="#H"/><use x="1029.754" xlink:href="#x"/><use x="1091.277" xlink:href="#H"/><use x="1175.164" xlink:href="#d"/><use x="1236.443" xlink:href="#H"/><use x="1320.33" xlink:href="#s"/><use x="1381.512" xlink:href="#I"/><use x="1448.504" xlink:href="#f"/><use x="1512.127" xlink:href="#g"/><use x="1575.75" xlink:href="#f"/><use x="1639.373" xlink:href="#g"/><use x="1702.996" xlink:href="#G"/><use x="1739.08" xlink:href="#g"/><use x="1802.703" xlink:href="#J"/><use x="1866.326" xlink:href="#G"/><use x="1902.41" xlink:href="#g"/><use x="1966.033" xlink:href="#f"/></g><path d="M77.22 106.83h227.06q2 0 2-2V32.44q0-2-2-2H77.22q-2 0-2 2v72.39q0 2 2 2z" fill="#fff" opacity=".8" stroke="#ccc" stroke-linejoin="miter"/><path d="M79.22 38.538h20" fill="none" stroke="#1f77b4" stroke-linecap="square" stroke-width="1.5"/><use fill="#1f77b4" stroke="#1f77b4" x="89.22" xlink:href="#y" y="38.538"/><g transform="matrix(.1 0 0 -.1 107.22 42.038)"><use xlink:href="#K"/><use x="73.193" xlink:href="#L"/><use x="168.457" xlink:href="#M"/><use x="207.471" xlink:href="#u"/><use x="270.947" xlink:href="#s"/><use x="332.129" xlink:href="#N"/><use x="395.508" xlink:href="#O"/><use x="458.984" xlink:href="#t"/><use x="486.768" xlink:href="#x"/><use x="548.291" xlink:href="#H"/><use x="632.178" xlink:href="#w"/><use x="659.961" xlink:href="#P"/><use x="755.127" xlink:href="#q"/><use x="818.75" xlink:href="#q"/><use x="882.373" xlink:href="#Q"/><use x="914.16" xlink:href="#J"/><use x="1009.57" xlink:href="#u"/><use x="1073.047" xlink:href="#d"/><use x="1134.326" xlink:href="#j"/><use x="1193.506" xlink:href="#H"/><use x="1245.605" xlink:href="#R"/></g><path d="M79.22 53.217h20" fill="none" stroke="#ff7f0e" stroke-linecap="square" stroke-width="1.5"/><use fill="#ff7f0e" stroke="#ff7f0e" x="89.22" xlink:href="#z" y="53.217"/><g transform="matrix(.1 0 0 -.1 107.22 56.717)"><use xlink:href="#K"/><use x="73.193" xlink:href="#P"/><use x="136.572" xlink:href="#w"/><use x="164.355" xlink:href="#D"/><use x="203.564" xlink:href="#x"/><use x="265.088" xlink:href="#u"/><path d="M370.164 72.906h9.86V42.094l32.718 30.812h12.703l-36.187-33.984L428.023 0H415.04l-35.016 35.11V0h-9.859z"/><use x="425.928" xlink:href="#w"/><use x="453.711" xlink:href="#P"/><path d="M562.496 27.984q0 9.766-4.031 15.125-4.016 5.375-11.297 5.375-7.219 0-11.25-5.375-4.031-5.359-4.031-15.125 0-9.718 4.031-15.093t11.25-5.375q7.281 0 11.297 5.375 4.031 5.375 4.031 15.093zm8.984-21.203q0-13.953-6.203-20.765-6.187-6.813-18.984-6.813-4.734 0-8.938.703-4.203.703-8.156 2.172v8.735q3.953-2.141 7.813-3.157 3.86-1.031 7.86-1.031 8.843 0 13.233 4.61 4.391 4.609 4.391 13.937v4.453q-2.781-4.844-7.125-7.234Q551.027 0 544.965 0q-10.047 0-16.203 7.656-6.157 7.672-6.157 20.328 0 12.688 6.157 20.344Q534.918 56 544.965 56q6.062 0 10.406-2.39 4.344-2.391 7.125-7.22v8.297h8.984z"/><use x="580.566" xlink:href="#u"/><use x="644.043" xlink:href="#s"/><path d="M757.225 44.188q3.375 6.062 8.062 8.937Q769.975 56 776.318 56q8.547 0 13.188-5.984 4.64-5.97 4.64-17V0h-9.03v32.719q0 7.86-2.798 11.656-2.78 3.813-8.484 3.813-6.984 0-11.047-4.641-4.047-4.625-4.047-12.64V0h-9.031v32.719q0 7.906-2.781 11.687-2.782 3.782-8.594 3.782-6.89 0-10.953-4.657-4.047-4.656-4.047-12.625V0h-9.031v54.688h9.031v-8.5q3.078 5.03 7.375 7.421Q735.006 56 740.912 56q5.969 0 10.14-3.031 4.173-3.016 6.173-8.782z"/><use x="834.424" xlink:href="#M"/><use x="873.438" xlink:href="#u"/><use x="936.914" xlink:href="#s"/><use x="998.096" xlink:href="#N"/><use x="1061.475" xlink:href="#O"/><use x="1124.951" xlink:href="#t"/><use x="1152.734" xlink:href="#x"/><use x="1214.258" xlink:href="#H"/><use x="1298.145" xlink:href="#w"/><use x="1325.928" xlink:href="#P"/><use x="1421.094" xlink:href="#f"/><use x="1484.717" xlink:href="#m"/><use x="1548.34" xlink:href="#Q"/><use x="1580.127" xlink:href="#g"/><use x="1675.537" xlink:href="#u"/><use x="1739.014" xlink:href="#d"/><use x="1800.293" xlink:href="#j"/><use x="1859.473" xlink:href="#H"/><use x="1911.572" xlink:href="#R"/></g><path d="M79.22 67.895h20" fill="none" stroke="#2ca02c" stroke-linecap="square" stroke-width="1.5"/><g transform="matrix(.1 0 0 -.1 107.22 71.395)"><use xlink:href="#F"/><use x="29.492" xlink:href="#D"/><use x="68.701" xlink:href="#d"/><use x="129.98" xlink:href="#t"/><use x="157.764" xlink:href="#j"/></g><path d="M79.22 82.573h20" fill="none" stroke="#d62728" stroke-linecap="square" stroke-width="1.5"/><use fill="#d62728" stroke="#d62728" x="89.22" xlink:href="#A" y="82.573"/><g transform="matrix(.1 0 0 -.1 107.22 86.073)"><path d="M9.813 72.906h41.89v-8.312H19.672V43.109h28.906v-8.297H19.672V0h-9.86z"/><use x="57.41" xlink:href="#e"/><use x="98.523" xlink:href="#d"/><use x="159.803" xlink:href="#P"/><use x="223.182" xlink:href="#C"/><use x="278.162" xlink:href="#x"/></g><path d="M79.22 97.25h20" fill="none" stroke="#9467bd" stroke-linecap="square" stroke-width="1.5"/><use fill="#9467bd" stroke="#9467bd" x="89.22" xlink:href="#B" y="97.251"/><g transform="matrix(.1 0 0 -.1 107.22 100.75)"><use xlink:href="#L"/><use x="63.477" xlink:href="#i"/><use x="126.953" xlink:href="#d"/><use x="188.232" xlink:href="#w"/><use x="216.016" xlink:href="#P"/></g><path d="M70.22 505.928H558V297.12H70.22z" fill="#fff"/><path clip-path="url(#S)" d="M70.22 505.928V297.12" fill="none" stroke="#b0b0b0" stroke-linecap="square" stroke-width=".8"/><use stroke="#000" stroke-width=".8" x="70.22" xlink:href="#b" y="505.928"/><g transform="matrix(.1 0 0 -.1 60.786 542.922)"><use xlink:href="#c"/><use x="86.279" xlink:href="#d"/><use x="147.559" xlink:href="#e"/></g><g transform="matrix(.1 0 0 -.1 57.495 554.12)"><use xlink:href="#f"/><use x="63.623" xlink:href="#g"/><use x="127.246" xlink:href="#f"/><use x="190.869" xlink:href="#g"/></g><path clip-path="url(#S)" d="M302.854 505.928V297.12" fill="none" stroke="#b0b0b0" stroke-linecap="square" stroke-width=".8"/><use stroke="#000" stroke-width=".8" x="302.854" xlink:href="#b" y="505.928"/><g transform="matrix(.1 0 0 -.1 294.204 542.922)"><use xlink:href="#h"/><use x="68.408" xlink:href="#i"/><use x="131.885" xlink:href="#e"/></g><path clip-path="url(#S)" d="M527.983 505.928V297.12" fill="none" stroke="#b0b0b0" stroke-linecap="square" stroke-width=".8"/><use stroke="#000" stroke-width=".8" x="527.983" xlink:href="#b" y="505.928"/><g transform="matrix(.1 0 0 -.1 517.645 542.922)"><use xlink:href="#c"/><use x="86.279" xlink:href="#d"/><use x="147.559" xlink:href="#j"/></g><g stroke-width=".8"><path clip-path="url(#S)" d="M558 505.928V297.12" fill="none" stroke="#b0b0b0" stroke-linecap="square"/><use stroke="#000" x="558" xlink:href="#b" y="505.928"/></g><use stroke="#000" stroke-width=".6" x="77.724" xlink:href="#k" y="505.928"/><g transform="matrix(.1 0 0 -.1 71.362 518.926)"><use xlink:href="#g"/><use x="63.623" xlink:href="#f"/></g><g stroke="#000" stroke-width=".6"><use x="85.229" xlink:href="#k" y="505.928"/><use x="92.733" xlink:href="#k" y="505.928"/><use x="100.237" xlink:href="#k" y="505.928"/><use x="107.742" xlink:href="#k" y="505.928"/><use x="115.246" xlink:href="#k" y="505.928"/><use x="122.75" xlink:href="#k" y="505.928"/></g><use stroke="#000" stroke-width=".6" x="130.254" xlink:href="#k" y="505.928"/><g transform="matrix(.1 0 0 -.1 123.892 518.926)"><use xlink:href="#g"/><use x="63.623" xlink:href="#l"/></g><g stroke="#000" stroke-width=".6"><use x="137.759" xlink:href="#k" y="505.928"/><use x="145.263" xlink:href="#k" y="505.928"/><use x="152.767" xlink:href="#k" y="505.928"/><use x="160.272" xlink:href="#k" y="505.928"/><use x="167.776" xlink:href="#k" y="505.928"/><use x="175.28" xlink:href="#k" y="505.928"/><use x="182.785" xlink:href="#k" y="505.928"/></g><g transform="matrix(.1 0 0 -.1 176.422 518.926)"><use xlink:href="#m"/><use x="63.623" xlink:href="#n"/></g><g stroke="#000" stroke-width=".6"><use x="190.289" xlink:href="#k" y="505.928"/><use x="197.793" xlink:href="#k" y="505.928"/><use x="205.298" xlink:href="#k" y="505.928"/><use x="212.802" xlink:href="#k" y="505.928"/><use x="220.306" xlink:href="#k" y="505.928"/><use x="227.81" xlink:href="#k" y="505.928"/><use x="235.315" xlink:href="#k" y="505.928"/></g><g transform="matrix(.1 0 0 -.1 228.952 518.926)"><use xlink:href="#f"/><use x="63.623" xlink:href="#o"/></g><g stroke="#000" stroke-width=".6"><use x="242.819" xlink:href="#k" y="505.928"/><use x="250.323" xlink:href="#k" y="505.928"/><use x="257.828" xlink:href="#k" y="505.928"/><use x="265.332" xlink:href="#k" y="505.928"/><use x="272.836" xlink:href="#k" y="505.928"/><use x="280.341" xlink:href="#k" y="505.928"/><use x="287.845" xlink:href="#k" y="505.928"/></g><g transform="matrix(.1 0 0 -.1 281.482 518.926)"><use xlink:href="#o"/><use x="63.623" xlink:href="#g"/></g><g stroke="#000" stroke-width=".6"><use x="295.349" xlink:href="#k" y="505.928"/><use x="310.358" xlink:href="#k" y="505.928"/><use x="317.862" xlink:href="#k" y="505.928"/><use x="325.366" xlink:href="#k" y="505.928"/><use x="332.871" xlink:href="#k" y="505.928"/><use x="340.375" xlink:href="#k" y="505.928"/></g><g transform="matrix(.1 0 0 -.1 334.013 518.926)"><use xlink:href="#g"/><use x="63.623" xlink:href="#n"/></g><g stroke="#000" stroke-width=".6"><use x="347.879" xlink:href="#k" y="505.928"/><use x="355.384" xlink:href="#k" y="505.928"/><use x="362.888" xlink:href="#k" y="505.928"/><use x="370.392" xlink:href="#k" y="505.928"/><use x="377.897" xlink:href="#k" y="505.928"/><use x="385.401" xlink:href="#k" y="505.928"/><use x="392.905" xlink:href="#k" y="505.928"/></g><g transform="matrix(.1 0 0 -.1 386.543 518.926)"><use xlink:href="#m"/><use x="63.623" xlink:href="#o"/></g><g stroke="#000" stroke-width=".6"><use x="400.41" xlink:href="#k" y="505.928"/><use x="407.914" xlink:href="#k" y="505.928"/><use x="415.418" xlink:href="#k" y="505.928"/><use x="422.922" xlink:href="#k" y="505.928"/><use x="430.427" xlink:href="#k" y="505.928"/><use x="437.931" xlink:href="#k" y="505.928"/><use x="445.435" xlink:href="#k" y="505.928"/></g><g transform="matrix(.1 0 0 -.1 439.073 518.926)"><use xlink:href="#f"/><use x="63.623" xlink:href="#g"/></g><g stroke="#000" stroke-width=".6"><use x="452.94" xlink:href="#k" y="505.928"/><use x="460.444" xlink:href="#k" y="505.928"/><use x="467.948" xlink:href="#k" y="505.928"/><use x="475.453" xlink:href="#k" y="505.928"/><use x="482.957" xlink:href="#k" y="505.928"/><use x="490.461" xlink:href="#k" y="505.928"/><use x="497.966" xlink:href="#k" y="505.928"/></g><g transform="matrix(.1 0 0 -.1 491.603 518.926)"><use xlink:href="#f"/><use x="63.623" xlink:href="#p"/></g><g stroke="#000" stroke-width=".6"><use x="505.47" xlink:href="#k" y="505.928"/><use x="512.974" xlink:href="#k" y="505.928"/><use x="520.478" xlink:href="#k" y="505.928"/><use x="535.487" xlink:href="#k" y="505.928"/><use x="542.991" xlink:href="#k" y="505.928"/><use x="550.496" xlink:href="#k" y="505.928"/></g><g transform="matrix(.1 0 0 -.1 544.133 518.926)"><use xlink:href="#g"/><use x="63.623" xlink:href="#q"/></g><path clip-path="url(#S)" d="M70.22 472.984H558" fill="none" stroke="#b0b0b0" stroke-linecap="square" stroke-width=".8"/><use stroke="#000" stroke-width=".8" x="70.22" xlink:href="#r" y="472.984"/><g transform="matrix(.1 0 0 -.1 31.407 476.783)"><use xlink:href="#J"/><use x="63.623" xlink:href="#g"/><use x="127.246" xlink:href="#g"/><use x="190.869" xlink:href="#g"/><use x="254.492" xlink:href="#g"/></g><path clip-path="url(#S)" d="M70.22 440.033H558" fill="none" stroke="#b0b0b0" stroke-linecap="square" stroke-width=".8"/><use stroke="#000" stroke-width=".8" x="70.22" xlink:href="#r" y="440.033"/><g transform="matrix(.1 0 0 -.1 25.045 443.832)"><use xlink:href="#m"/><use x="63.623" xlink:href="#g"/><use x="127.246" xlink:href="#g"/><use x="190.869" xlink:href="#g"/><use x="254.492" xlink:href="#g"/><use x="318.115" xlink:href="#g"/></g><path clip-path="url(#S)" d="M70.22 407.082H558" fill="none" stroke="#b0b0b0" stroke-linecap="square" stroke-width=".8"/><use stroke="#000" stroke-width=".8" x="70.22" xlink:href="#r" y="407.082"/><g transform="matrix(.1 0 0 -.1 25.045 410.88)"><use xlink:href="#m"/><use x="63.623" xlink:href="#J"/><use x="127.246" xlink:href="#g"/><use x="190.869" xlink:href="#g"/><use x="254.492" xlink:href="#g"/><use x="318.115" xlink:href="#g"/></g><path clip-path="url(#S)" d="M70.22 374.13H558" fill="none" stroke="#b0b0b0" stroke-linecap="square" stroke-width=".8"/><use stroke="#000" stroke-width=".8" x="70.22" xlink:href="#r" y="374.131"/><g transform="matrix(.1 0 0 -.1 25.045 377.93)"><use xlink:href="#f"/><use x="63.623" xlink:href="#g"/><use x="127.246" xlink:href="#g"/><use x="190.869" xlink:href="#g"/><use x="254.492" xlink:href="#g"/><use x="318.115" xlink:href="#g"/></g><path clip-path="url(#S)" d="M70.22 341.18H558" fill="none" stroke="#b0b0b0" stroke-linecap="square" stroke-width=".8"/><use stroke="#000" stroke-width=".8" x="70.22" xlink:href="#r" y="341.18"/><g transform="matrix(.1 0 0 -.1 25.045 344.979)"><use xlink:href="#f"/><use x="63.623" xlink:href="#J"/><use x="127.246" xlink:href="#g"/><use x="190.869" xlink:href="#g"/><use x="254.492" xlink:href="#g"/><use x="318.115" xlink:href="#g"/></g><path clip-path="url(#S)" d="M70.22 308.229H558" fill="none" stroke="#b0b0b0" stroke-linecap="square" stroke-width=".8"/><use stroke="#000" stroke-width=".8" x="70.22" xlink:href="#r" y="308.229"/><g transform="matrix(.1 0 0 -.1 25.045 312.028)"><use xlink:href="#o"/><use x="63.623" xlink:href="#g"/><use x="127.246" xlink:href="#g"/><use x="190.869" xlink:href="#g"/><use x="254.492" xlink:href="#g"/><use x="318.115" xlink:href="#g"/></g><g transform="matrix(0 -.1 -.1 0 18.965 408.358)"><use xlink:href="#K"/><use x="73.193" xlink:href="#L"/></g><g stroke="#1f77b4"><path clip-path="url(#S)" d="M-1 505.935h71.22l7.504-.001h7.505l7.504-.007 7.504-.008 7.505-.008 7.504-.026 7.504-.02 7.504-.024 7.505-.02 7.504-.031 7.504-.072 7.505-.06 7.504-.068 7.504-.136 7.505-.15 7.504-.485 7.504-.518 7.505-1.88 7.504-1.935 7.504-2.229 7.504-2.658 7.505-3.323 7.504-3.127 7.504-3.351 7.505-4.571 7.504-4.52 7.504-4.832 7.505-4.614 7.504-4.456 7.504-5.824 7.505-5.09 7.504-5.356 7.504-6.537 7.504-6.732 7.505-5.755 7.504-5.349 7.504-4.79 7.505-6.859 7.504-6.537 7.504-6.438 7.505-5.218 7.504-4.777 7.504-3.982 7.505-4.275 7.504-7.025 7.504-3.968 7.504-3.037 7.505-6.969 7.504-3.609 7.504-3.25 7.505-3.168 7.504-3.046 7.504.917 7.505-5.07 7.504-6.56 7.504-3.718 7.505-2.34 7.504-1.89 7.504-2.649 7.504-3.012 7.505-2.3 7.504-2.968" fill="none" stroke-linecap="square" stroke-width="1.5"/><g clip-path="url(#S)" fill="#1f77b4"><use x="-1" xlink:href="#y" y="505.935"/><use x="2.681" xlink:href="#y" y="505.935"/><use x="10.186" xlink:href="#y" y="505.935"/><use x="17.69" xlink:href="#y" y="505.935"/><use x="25.194" xlink:href="#y" y="505.935"/><use x="32.698" xlink:href="#y" y="505.935"/><use x="40.203" xlink:href="#y" y="505.935"/><use x="47.707" xlink:href="#y" y="505.935"/><use x="55.211" xlink:href="#y" y="505.935"/><use x="62.716" xlink:href="#y" y="505.935"/><use x="70.22" xlink:href="#y" y="505.935"/><use x="77.724" xlink:href="#y" y="505.934"/><use x="85.229" xlink:href="#y" y="505.933"/><use x="92.733" xlink:href="#y" y="505.927"/><use x="100.237" xlink:href="#y" y="505.919"/><use x="107.742" xlink:href="#y" y="505.911"/><use x="115.246" xlink:href="#y" y="505.885"/><use x="122.75" xlink:href="#y" y="505.865"/><use x="130.254" xlink:href="#y" y="505.841"/><use x="137.759" xlink:href="#y" y="505.821"/><use x="145.263" xlink:href="#y" y="505.79"/><use x="152.767" xlink:href="#y" y="505.718"/><use x="160.272" xlink:href="#y" y="505.657"/><use x="167.776" xlink:href="#y" y="505.59"/><use x="175.28" xlink:href="#y" y="505.454"/><use x="182.785" xlink:href="#y" y="505.304"/><use x="190.289" xlink:href="#y" y="504.819"/><use x="197.793" xlink:href="#y" y="504.301"/><use x="205.298" xlink:href="#y" y="502.421"/><use x="212.802" xlink:href="#y" y="500.486"/><use x="220.306" xlink:href="#y" y="498.257"/><use x="227.81" xlink:href="#y" y="495.599"/><use x="235.315" xlink:href="#y" y="492.276"/><use x="242.819" xlink:href="#y" y="489.149"/><use x="250.323" xlink:href="#y" y="485.798"/><use x="257.828" xlink:href="#y" y="481.227"/><use x="265.332" xlink:href="#y" y="476.708"/><use x="272.836" xlink:href="#y" y="471.875"/><use x="280.341" xlink:href="#y" y="467.261"/><use x="287.845" xlink:href="#y" y="462.805"/><use x="295.349" xlink:href="#y" y="456.981"/><use x="302.854" xlink:href="#y" y="451.89"/><use x="310.358" xlink:href="#y" y="446.535"/><use x="317.862" xlink:href="#y" y="439.998"/><use x="325.366" xlink:href="#y" y="433.266"/><use x="332.871" xlink:href="#y" y="427.511"/><use x="340.375" xlink:href="#y" y="422.162"/><use x="347.879" xlink:href="#y" y="417.372"/><use x="355.384" xlink:href="#y" y="410.513"/><use x="362.888" xlink:href="#y" y="403.976"/><use x="370.392" xlink:href="#y" y="397.538"/><use x="377.897" xlink:href="#y" y="392.32"/><use x="385.401" xlink:href="#y" y="387.543"/><use x="392.905" xlink:href="#y" y="383.561"/><use x="400.41" xlink:href="#y" y="379.286"/><use x="407.914" xlink:href="#y" y="372.261"/><use x="415.418" xlink:href="#y" y="368.293"/><use x="422.922" xlink:href="#y" y="365.256"/><use x="430.427" xlink:href="#y" y="358.287"/><use x="437.931" xlink:href="#y" y="354.678"/><use x="445.435" xlink:href="#y" y="351.428"/><use x="452.94" xlink:href="#y" y="348.26"/><use x="460.444" xlink:href="#y" y="345.214"/><use x="467.948" xlink:href="#y" y="346.131"/><use x="475.453" xlink:href="#y" y="341.062"/><use x="482.957" xlink:href="#y" y="334.501"/><use x="490.461" xlink:href="#y" y="330.783"/><use x="497.966" xlink:href="#y" y="328.442"/><use x="505.47" xlink:href="#y" y="326.554"/><use x="512.974" xlink:href="#y" y="323.904"/><use x="520.478" xlink:href="#y" y="320.892"/><use x="527.983" xlink:href="#y" y="318.592"/><use x="535.487" xlink:href="#y" y="315.624"/></g></g><g stroke="#ff7f0e"><path clip-path="url(#S)" d="M-1 505.935h93.733l7.504-.002h7.505l7.504-.001h15.008l7.505-.007 7.504-.005 7.504-.004h7.505l7.504-.026 7.504-.019 7.505-.052 7.504-.058h7.504l7.505-.31 7.504-.096 7.504-.284 7.504-.385 7.505-.608 7.504-.536 7.504-.468 7.505-1.617 7.504-1.267 7.504-1.494 7.505-1.477 7.504-2.117 7.504-1.312 7.505-2.288 7.504-2.078 7.504-2.765 7.504-2.655 7.505-2.182 7.504-2.306 7.504-2.04 7.505-1.812 7.504-2.23 7.504-2.2 7.505-2.183 7.504-2.328 7.504-1.74 7.505-2.556 7.504-1.223 7.504-2.586 7.504-1.864 7.505-1.795 7.504-2.365 7.504-2.166 7.505-2.246 7.504-2.063 7.504-2.527 7.505-1.261 7.504-2.024 7.504-2.317 7.505-1.347 7.504-1.496 7.504-1.437 7.504-1.206 7.505-1.468 7.504-1.531" fill="none" stroke-linecap="square" stroke-width="1.5"/><g clip-path="url(#S)" fill="#ff7f0e"><use x="-1" xlink:href="#z" y="505.935"/><use x="2.681" xlink:href="#z" y="505.935"/><use x="10.186" xlink:href="#z" y="505.935"/><use x="17.69" xlink:href="#z" y="505.935"/><use x="25.194" xlink:href="#z" y="505.935"/><use x="32.698" xlink:href="#z" y="505.935"/><use x="40.203" xlink:href="#z" y="505.935"/><use x="47.707" xlink:href="#z" y="505.935"/><use x="55.211" xlink:href="#z" y="505.935"/><use x="62.716" xlink:href="#z" y="505.935"/><use x="70.22" xlink:href="#z" y="505.935"/><use x="77.724" xlink:href="#z" y="505.935"/><use x="85.229" xlink:href="#z" y="505.935"/><use x="92.733" xlink:href="#z" y="505.935"/><use x="100.237" xlink:href="#z" y="505.933"/><use x="107.742" xlink:href="#z" y="505.933"/><use x="115.246" xlink:href="#z" y="505.932"/><use x="122.75" xlink:href="#z" y="505.931"/><use x="130.254" xlink:href="#z" y="505.931"/><use x="137.759" xlink:href="#z" y="505.925"/><use x="145.263" xlink:href="#z" y="505.92"/><use x="152.767" xlink:href="#z" y="505.916"/><use x="160.272" xlink:href="#z" y="505.916"/><use x="167.776" xlink:href="#z" y="505.89"/><use x="175.28" xlink:href="#z" y="505.871"/><use x="182.785" xlink:href="#z" y="505.819"/><use x="190.289" xlink:href="#z" y="505.761"/><use x="197.793" xlink:href="#z" y="505.761"/><use x="205.298" xlink:href="#z" y="505.452"/><use x="212.802" xlink:href="#z" y="505.355"/><use x="220.306" xlink:href="#z" y="505.071"/><use x="227.81" xlink:href="#z" y="504.686"/><use x="235.315" xlink:href="#z" y="504.078"/><use x="242.819" xlink:href="#z" y="503.542"/><use x="250.323" xlink:href="#z" y="503.074"/><use x="257.828" xlink:href="#z" y="501.457"/><use x="265.332" xlink:href="#z" y="500.19"/><use x="272.836" xlink:href="#z" y="498.696"/><use x="280.341" xlink:href="#z" y="497.219"/><use x="287.845" xlink:href="#z" y="495.102"/><use x="295.349" xlink:href="#z" y="493.79"/><use x="302.854" xlink:href="#z" y="491.502"/><use x="310.358" xlink:href="#z" y="489.424"/><use x="317.862" xlink:href="#z" y="486.659"/><use x="325.366" xlink:href="#z" y="484.004"/><use x="332.871" xlink:href="#z" y="481.822"/><use x="340.375" xlink:href="#z" y="479.516"/><use x="347.879" xlink:href="#z" y="477.476"/><use x="355.384" xlink:href="#z" y="475.664"/><use x="362.888" xlink:href="#z" y="473.433"/><use x="370.392" xlink:href="#z" y="471.233"/><use x="377.897" xlink:href="#z" y="469.051"/><use x="385.401" xlink:href="#z" y="466.723"/><use x="392.905" xlink:href="#z" y="464.982"/><use x="400.41" xlink:href="#z" y="462.427"/><use x="407.914" xlink:href="#z" y="461.204"/><use x="415.418" xlink:href="#z" y="458.618"/><use x="422.922" xlink:href="#z" y="456.754"/><use x="430.427" xlink:href="#z" y="454.959"/><use x="437.931" xlink:href="#z" y="452.594"/><use x="445.435" xlink:href="#z" y="450.428"/><use x="452.94" xlink:href="#z" y="448.182"/><use x="460.444" xlink:href="#z" y="446.119"/><use x="467.948" xlink:href="#z" y="443.592"/><use x="475.453" xlink:href="#z" y="442.331"/><use x="482.957" xlink:href="#z" y="440.307"/><use x="490.461" xlink:href="#z" y="437.99"/><use x="497.966" xlink:href="#z" y="436.643"/><use x="505.47" xlink:href="#z" y="435.147"/><use x="512.974" xlink:href="#z" y="433.71"/><use x="520.478" xlink:href="#z" y="432.504"/><use x="527.983" xlink:href="#z" y="431.036"/><use x="535.487" xlink:href="#z" y="429.505"/></g></g><path clip-path="url(#S)" d="M-1 505.934H100.237l7.505-.003h7.504l7.504-.012h7.504l7.505-.044 7.504-.002 7.504-.009 7.505-.01 7.504-.01 7.504-.017 7.505-.022 7.504-.013 7.504-.001 7.505-.073 7.504-.055 7.504-.074 7.504-.077 7.505-.084 7.504-.25 7.504-.445 7.505-.375 7.504-.536 7.504-.664 7.505-.457 7.504-.52 7.504-.55 7.505-.715 7.504-.789 7.504-.921 7.504-.863 7.505-.494 7.504-.862 7.504-.836 7.505-.996 7.504-1.371 7.504-1.277 7.505-1.186 7.504-1.677 7.504-.86 7.505-.854 7.504-.982 7.504-1.491 7.504-1.374 7.505-1.193 7.504-.925h7.504l7.505-1.889 7.504-1.004 7.504-1.912 7.505-3.13 7.504-1.454 7.504-.936 7.505-.936 7.504-1.114 7.504-1.127 7.504-1.175 7.505-1.287 7.504-1.2" fill="none" stroke="#2ca02c" stroke-linecap="square" stroke-width="1.5"/><g stroke="#d62728"><path clip-path="url(#S)" d="M-1 505.935H62.716l7.504-.001H92.733l7.504-.001h7.505l7.504-.001h15.008l7.505-.004 7.504-.009 7.504-.004 7.505-.01 7.504-.011 7.504-.02 7.505-.007 7.504-.037 7.504-.002 7.505-.169 7.504-.107 7.504-.11 7.504-.193 7.505-.153 7.504-.164 7.504-.214 7.505-.439 7.504-.315 7.504-.3 7.505-.715 7.504-.298 7.504-.601 7.505-.622 7.504-.457 7.504-.766 7.504-.935 7.505-.575 7.504-.639 7.504-.005 7.505-1.749h7.504l7.504-1.762 7.505-.8 7.504-1.073 7.504-.721 7.505-.76 7.504-.833 7.504-.671 7.504-1.176 7.505-.959 7.504-.768 7.504-.723 7.505-.94 7.504-1.286 7.504-1.125 7.505-1.723 7.504-1.344 7.504-1.362 7.505-1.272 7.504-1.37 7.504-1.427 7.504-1.594 7.505-2 7.504-1.548" fill="none" stroke-linecap="square" stroke-width="1.5"/><g clip-path="url(#S)" fill="#d62728"><use x="-1" xlink:href="#A" y="505.935"/><use x="2.681" xlink:href="#A" y="505.935"/><use x="10.186" xlink:href="#A" y="505.935"/><use x="17.69" xlink:href="#A" y="505.935"/><use x="25.194" xlink:href="#A" y="505.935"/><use x="32.698" xlink:href="#A" y="505.935"/><use x="40.203" xlink:href="#A" y="505.935"/><use x="47.707" xlink:href="#A" y="505.935"/><use x="55.211" xlink:href="#A" y="505.935"/><use x="62.716" xlink:href="#A" y="505.935"/><use x="70.22" xlink:href="#A" y="505.934"/><use x="77.724" xlink:href="#A" y="505.933"/><use x="85.229" xlink:href="#A" y="505.933"/><use x="92.733" xlink:href="#A" y="505.933"/><use x="100.237" xlink:href="#A" y="505.933"/><use x="107.742" xlink:href="#A" y="505.933"/><use x="115.246" xlink:href="#A" y="505.932"/><use x="122.75" xlink:href="#A" y="505.931"/><use x="130.254" xlink:href="#A" y="505.931"/><use x="137.759" xlink:href="#A" y="505.928"/><use x="145.263" xlink:href="#A" y="505.919"/><use x="152.767" xlink:href="#A" y="505.915"/><use x="160.272" xlink:href="#A" y="505.906"/><use x="167.776" xlink:href="#A" y="505.894"/><use x="175.28" xlink:href="#A" y="505.875"/><use x="182.785" xlink:href="#A" y="505.867"/><use x="190.289" xlink:href="#A" y="505.83"/><use x="197.793" xlink:href="#A" y="505.828"/><use x="205.298" xlink:href="#A" y="505.659"/><use x="212.802" xlink:href="#A" y="505.552"/><use x="220.306" xlink:href="#A" y="505.442"/><use x="227.81" xlink:href="#A" y="505.249"/><use x="235.315" xlink:href="#A" y="505.096"/><use x="242.819" xlink:href="#A" y="504.932"/><use x="250.323" xlink:href="#A" y="504.718"/><use x="257.828" xlink:href="#A" y="504.279"/><use x="265.332" xlink:href="#A" y="503.964"/><use x="272.836" xlink:href="#A" y="503.665"/><use x="280.341" xlink:href="#A" y="502.949"/><use x="287.845" xlink:href="#A" y="502.651"/><use x="295.349" xlink:href="#A" y="502.05"/><use x="302.854" xlink:href="#A" y="501.428"/><use x="310.358" xlink:href="#A" y="500.971"/><use x="317.862" xlink:href="#A" y="500.205"/><use x="325.366" xlink:href="#A" y="499.27"/><use x="332.871" xlink:href="#A" y="498.695"/><use x="340.375" xlink:href="#A" y="498.056"/><use x="347.879" xlink:href="#A" y="498.051"/><use x="355.384" xlink:href="#A" y="496.302"/><use x="362.888" xlink:href="#A" y="496.302"/><use x="370.392" xlink:href="#A" y="494.54"/><use x="377.897" xlink:href="#A" y="493.741"/><use x="385.401" xlink:href="#A" y="492.667"/><use x="392.905" xlink:href="#A" y="491.946"/><use x="400.41" xlink:href="#A" y="491.186"/><use x="407.914" xlink:href="#A" y="490.353"/><use x="415.418" xlink:href="#A" y="489.682"/><use x="422.922" xlink:href="#A" y="488.506"/><use x="430.427" xlink:href="#A" y="487.547"/><use x="437.931" xlink:href="#A" y="486.779"/><use x="445.435" xlink:href="#A" y="486.056"/><use x="452.94" xlink:href="#A" y="485.116"/><use x="460.444" xlink:href="#A" y="483.83"/><use x="467.948" xlink:href="#A" y="482.705"/><use x="475.453" xlink:href="#A" y="480.982"/><use x="482.957" xlink:href="#A" y="479.638"/><use x="490.461" xlink:href="#A" y="478.276"/><use x="497.966" xlink:href="#A" y="477.004"/><use x="505.47" xlink:href="#A" y="475.635"/><use x="512.974" xlink:href="#A" y="474.207"/><use x="520.478" xlink:href="#A" y="472.613"/><use x="527.983" xlink:href="#A" y="470.612"/><use x="535.487" xlink:href="#A" y="469.065"/></g></g><g stroke="#9467bd"><path clip-path="url(#S)" d="M-1 505.928l3.681-.002H17.69l7.504.003H55.211l7.505-.001h7.504l7.504-.006 7.505-.003 7.504-.005 7.504-.011 7.505-.005 7.504-.015 7.504-.011 7.504-.004 7.505-.026 7.504-.02 7.504-.026 7.505-.04 7.504-.038 7.504-.056 7.505-.086 7.504-.09 7.504-.038 7.505-.129 7.504-.145 7.504-.122 7.504-.182 7.505-.299 7.504-.276 7.504-.293 7.505-.584 7.504-.49 7.504-.279 7.505-.49 7.504-.832 7.504-.689 7.505-.766 7.504-.88 7.504-.794 7.504-.533 7.505-1.409 7.504-.628 7.504-.843 7.505-.978 7.504-.503 7.504-.878 7.505-.398 7.504-.694 7.504-.7 7.505-.904 7.504-.815 7.504-.59 7.504-.922 7.505-.811 7.504-.595 7.504-1.455 7.505-1.135 7.504-1.146 7.504-1.388 7.505-1.124 7.504-.623 7.504-.76 7.505-.892 7.504-.734 7.504-1.648 7.504-.856 7.505-1.186 7.504-.835" fill="none" stroke-linecap="square" stroke-width="1.5"/><g clip-path="url(#S)" fill="#9467bd"><use x="-1" xlink:href="#B" y="505.928"/><use x="2.681" xlink:href="#B" y="505.926"/><use x="10.186" xlink:href="#B" y="505.926"/><use x="17.69" xlink:href="#B" y="505.926"/><use x="25.194" xlink:href="#B" y="505.929"/><use x="32.698" xlink:href="#B" y="505.929"/><use x="40.203" xlink:href="#B" y="505.929"/><use x="47.707" xlink:href="#B" y="505.929"/><use x="55.211" xlink:href="#B" y="505.929"/><use x="62.716" xlink:href="#B" y="505.928"/><use x="70.22" xlink:href="#B" y="505.928"/><use x="77.724" xlink:href="#B" y="505.922"/><use x="85.229" xlink:href="#B" y="505.919"/><use x="92.733" xlink:href="#B" y="505.914"/><use x="100.237" xlink:href="#B" y="505.903"/><use x="107.742" xlink:href="#B" y="505.898"/><use x="115.246" xlink:href="#B" y="505.883"/><use x="122.75" xlink:href="#B" y="505.872"/><use x="130.254" xlink:href="#B" y="505.868"/><use x="137.759" xlink:href="#B" y="505.842"/><use x="145.263" xlink:href="#B" y="505.821"/><use x="152.767" xlink:href="#B" y="505.796"/><use x="160.272" xlink:href="#B" y="505.755"/><use x="167.776" xlink:href="#B" y="505.718"/><use x="175.28" xlink:href="#B" y="505.662"/><use x="182.785" xlink:href="#B" y="505.576"/><use x="190.289" xlink:href="#B" y="505.486"/><use x="197.793" xlink:href="#B" y="505.448"/><use x="205.298" xlink:href="#B" y="505.319"/><use x="212.802" xlink:href="#B" y="505.174"/><use x="220.306" xlink:href="#B" y="505.052"/><use x="227.81" xlink:href="#B" y="504.87"/><use x="235.315" xlink:href="#B" y="504.571"/><use x="242.819" xlink:href="#B" y="504.295"/><use x="250.323" xlink:href="#B" y="504.002"/><use x="257.828" xlink:href="#B" y="503.418"/><use x="265.332" xlink:href="#B" y="502.927"/><use x="272.836" xlink:href="#B" y="502.649"/><use x="280.341" xlink:href="#B" y="502.16"/><use x="287.845" xlink:href="#B" y="501.327"/><use x="295.349" xlink:href="#B" y="500.638"/><use x="302.854" xlink:href="#B" y="499.872"/><use x="310.358" xlink:href="#B" y="498.992"/><use x="317.862" xlink:href="#B" y="498.198"/><use x="325.366" xlink:href="#B" y="497.665"/><use x="332.871" xlink:href="#B" y="496.256"/><use x="340.375" xlink:href="#B" y="495.628"/><use x="347.879" xlink:href="#B" y="494.785"/><use x="355.384" xlink:href="#B" y="493.807"/><use x="362.888" xlink:href="#B" y="493.304"/><use x="370.392" xlink:href="#B" y="492.426"/><use x="377.897" xlink:href="#B" y="492.028"/><use x="385.401" xlink:href="#B" y="491.334"/><use x="392.905" xlink:href="#B" y="490.634"/><use x="400.41" xlink:href="#B" y="489.73"/><use x="407.914" xlink:href="#B" y="488.915"/><use x="415.418" xlink:href="#B" y="488.325"/><use x="422.922" xlink:href="#B" y="487.403"/><use x="430.427" xlink:href="#B" y="486.592"/><use x="437.931" xlink:href="#B" y="485.997"/><use x="445.435" xlink:href="#B" y="484.542"/><use x="452.94" xlink:href="#B" y="483.407"/><use x="460.444" xlink:href="#B" y="482.261"/><use x="467.948" xlink:href="#B" y="480.873"/><use x="475.453" xlink:href="#B" y="479.749"/><use x="482.957" xlink:href="#B" y="479.126"/><use x="490.461" xlink:href="#B" y="478.366"/><use x="497.966" xlink:href="#B" y="477.474"/><use x="505.47" xlink:href="#B" y="476.74"/><use x="512.974" xlink:href="#B" y="475.092"/><use x="520.478" xlink:href="#B" y="474.236"/><use x="527.983" xlink:href="#B" y="473.05"/><use x="535.487" xlink:href="#B" y="472.215"/></g></g><g fill="none" stroke-dasharray="1.5 2.475" stroke-width="1.5"><path clip-path="url(#S)" d="M535.487 315.624l7.504-2.812 7.505-2.853 7.504-2.895" stroke="#1f77b4"/><path clip-path="url(#S)" d="M535.487 429.505l7.504-1.489 7.505-1.518 7.504-1.547" stroke="#ff7f0e"/><path clip-path="url(#S)" d="M535.487 464.8l7.504-1.295 7.505-1.336L558 460.79" stroke="#2ca02c"/><path clip-path="url(#S)" d="M535.487 469.065l7.504-1.879 7.505-1.974 7.504-2.075" stroke="#d62728"/><path clip-path="url(#S)" d="M535.487 472.215l7.504-1.018 7.505-1.049 7.504-1.08" stroke="#9467bd"/></g></g><g fill="none" stroke="#000" stroke-linecap="square" stroke-linejoin="miter" stroke-width=".8"><path d="M70.22 505.928V297.12M558 505.928V297.12M70.22 505.928H558M70.22 297.12H558"/></g><g><path d="M77.22 378.51h220.684q2 0 2-2v-72.39q0-2-2-2H77.22q-2 0-2 2v72.39q0 2 2 2z" fill="#fff" opacity=".8" stroke="#ccc" stroke-linejoin="miter"/><path d="M79.22 310.218h20" fill="none" stroke="#1f77b4" stroke-linecap="square" stroke-width="1.5"/><use fill="#1f77b4" stroke="#1f77b4" x="89.22" xlink:href="#y" y="310.218"/><g transform="matrix(.1 0 0 -.1 107.22 313.718)"><use xlink:href="#T"/><use x="74.805" xlink:href="#x"/><use x="136.328" xlink:href="#v"/><path d="M249.7 72.906h10.609l20.203-29.984 20.078 29.984h10.594L285.402 34.72V0h-9.906v34.719z"/><use x="310.783" xlink:href="#s"/><use x="371.965" xlink:href="#e"/><path d="M422.156 75.984h9.031V31.11L458 54.687h11.469l-29-25.578L470.703 0h-11.719l-27.796 26.703V0h-9.032z"/><use x="502.775" xlink:href="#M"/><use x="541.789" xlink:href="#u"/><use x="605.266" xlink:href="#s"/><use x="666.447" xlink:href="#N"/><use x="729.826" xlink:href="#O"/><use x="793.303" xlink:href="#t"/><use x="821.086" xlink:href="#x"/><use x="882.609" xlink:href="#H"/><use x="966.496" xlink:href="#w"/><use x="994.279" xlink:href="#P"/><use x="1089.445" xlink:href="#q"/><use x="1153.068" xlink:href="#p"/><use x="1216.691" xlink:href="#Q"/><use x="1248.479" xlink:href="#o"/><use x="1343.889" xlink:href="#u"/><use x="1407.365" xlink:href="#d"/><use x="1468.645" xlink:href="#j"/><use x="1527.824" xlink:href="#H"/><use x="1579.924" xlink:href="#R"/></g><path d="M79.22 324.897h20" fill="none" stroke="#ff7f0e" stroke-linecap="square" stroke-width="1.5"/><use fill="#ff7f0e" stroke="#ff7f0e" x="89.22" xlink:href="#z" y="324.897"/><g transform="matrix(.1 0 0 -.1 107.22 328.397)"><use xlink:href="#T"/><use x="74.805" xlink:href="#x"/><use x="136.328" xlink:href="#v"/><path d="M259.715 72.906h9.86V5.078q0-13.187-5-19.14-5-5.954-16.095-5.954h-3.75v8.297h3.079q6.53 0 9.218 3.672 2.688 3.656 2.688 13.125z"/><use x="279.395" xlink:href="#x"/><use x="340.918" xlink:href="#e"/><use x="382.031" xlink:href="#H"/><use x="434.131" xlink:href="#x"/><use x="495.654" xlink:href="#j"/><use x="586.621" xlink:href="#M"/><use x="625.635" xlink:href="#u"/><use x="689.111" xlink:href="#s"/><use x="750.293" xlink:href="#N"/><use x="813.672" xlink:href="#O"/><use x="877.148" xlink:href="#t"/><use x="904.932" xlink:href="#x"/><use x="966.455" xlink:href="#H"/><use x="1050.342" xlink:href="#w"/><use x="1078.125" xlink:href="#P"/><use x="1173.291" xlink:href="#o"/><use x="1236.914" xlink:href="#J"/><use x="1300.537" xlink:href="#Q"/><use x="1332.324" xlink:href="#l"/><use x="1427.734" xlink:href="#u"/><use x="1491.211" xlink:href="#d"/><use x="1552.49" xlink:href="#j"/><use x="1611.67" xlink:href="#H"/><use x="1663.77" xlink:href="#R"/></g><path d="M79.22 339.575h20" fill="none" stroke="#2ca02c" stroke-linecap="square" stroke-width="1.5"/><g transform="matrix(.1 0 0 -.1 107.22 343.075)"><use xlink:href="#c"/><use x="86.279" xlink:href="#d"/><use x="147.559" xlink:href="#H"/><use x="199.658" xlink:href="#H"/><use x="251.758" xlink:href="#d"/><use x="313.037" xlink:href="#C"/><path d="M422.908 33.016V0h-8.984v32.719q0 7.765-3.031 11.61-3.032 3.858-9.079 3.858-7.28 0-11.484-4.64-4.203-4.625-4.203-12.64V0h-9.031v75.984h9.031V46.188q3.234 4.937 7.594 7.374Q398.096 56 403.814 56q9.422 0 14.25-5.828 4.844-5.828 4.844-17.156z"/><use x="431.396" xlink:href="#N"/><use x="494.775" xlink:href="#H"/><use x="546.875" xlink:href="#x"/><use x="608.398" xlink:href="#D"/><use x="647.607" xlink:href="#D"/><use x="686.816" xlink:href="#H"/><use x="770.703" xlink:href="#M"/><use x="809.717" xlink:href="#u"/><use x="873.193" xlink:href="#s"/><use x="934.375" xlink:href="#N"/><use x="997.754" xlink:href="#O"/><use x="1061.23" xlink:href="#t"/><use x="1089.014" xlink:href="#x"/><use x="1150.537" xlink:href="#H"/><use x="1234.424" xlink:href="#w"/><use x="1262.207" xlink:href="#P"/><use x="1357.373" xlink:href="#f"/><use x="1420.996" xlink:href="#f"/><use x="1484.619" xlink:href="#Q"/><use x="1516.406" xlink:href="#q"/><use x="1611.816" xlink:href="#u"/><use x="1675.293" xlink:href="#d"/><use x="1736.572" xlink:href="#j"/><use x="1795.752" xlink:href="#H"/><use x="1847.852" xlink:href="#R"/></g><path d="M79.22 354.253h20" fill="none" stroke="#d62728" stroke-linecap="square" stroke-width="1.5"/><use fill="#d62728" stroke="#d62728" x="89.22" xlink:href="#A" y="354.253"/><g transform="matrix(.1 0 0 -.1 107.22 357.753)"><use xlink:href="#F"/><use x="29.492" xlink:href="#t"/><use x="57.275" xlink:href="#t"/><use x="85.059" xlink:href="#w"/><use x="112.842" xlink:href="#P"/><use x="176.221" xlink:href="#s"/><use x="237.402" xlink:href="#w"/><use x="265.186" xlink:href="#H"/><use x="349.072" xlink:href="#M"/><use x="388.086" xlink:href="#u"/><use x="451.563" xlink:href="#s"/><use x="512.744" xlink:href="#N"/><use x="576.123" xlink:href="#O"/><use x="639.6" xlink:href="#t"/><use x="667.383" xlink:href="#x"/><use x="728.906" xlink:href="#H"/><use x="812.793" xlink:href="#w"/><use x="840.576" xlink:href="#P"/><use x="935.742" xlink:href="#m"/><use x="999.365" xlink:href="#o"/><use x="1062.988" xlink:href="#Q"/><use x="1094.775" xlink:href="#l"/><use x="1190.186" xlink:href="#u"/><use x="1253.662" xlink:href="#d"/><use x="1314.941" xlink:href="#j"/><use x="1374.121" xlink:href="#H"/><use x="1426.221" xlink:href="#R"/></g><path d="M79.22 368.93h20" fill="none" stroke="#9467bd" stroke-linecap="square" stroke-width="1.5"/><use fill="#9467bd" stroke="#9467bd" x="89.22" xlink:href="#B" y="368.931"/><g transform="matrix(.1 0 0 -.1 107.22 372.43)"><use xlink:href="#E"/><use x="69.824" xlink:href="#d"/><use x="131.104" xlink:href="#t"/><use x="158.887" xlink:href="#w"/><use x="186.67" xlink:href="#I"/><use x="221.875" xlink:href="#s"/><use x="283.057" xlink:href="#e"/><use x="324.154" xlink:href="#P"/><use x="387.533" xlink:href="#w"/><use x="415.316" xlink:href="#d"/><use x="508.383" xlink:href="#M"/><use x="547.396" xlink:href="#u"/><use x="610.873" xlink:href="#s"/><use x="672.055" xlink:href="#N"/><use x="735.434" xlink:href="#O"/><use x="798.91" xlink:href="#t"/><use x="826.693" xlink:href="#x"/><use x="888.217" xlink:href="#H"/><use x="972.104" xlink:href="#w"/><use x="999.887" xlink:href="#P"/><use x="1095.053" xlink:href="#f"/><use x="1158.676" xlink:href="#o"/><use x="1222.299" xlink:href="#Q"/><use x="1254.086" xlink:href="#o"/><use x="1349.496" xlink:href="#u"/><use x="1412.973" xlink:href="#d"/><use x="1474.252" xlink:href="#j"/><use x="1533.432" xlink:href="#H"/><use x="1585.531" xlink:href="#R"/></g></g></svg>