<svg height="758.4" stroke-linejoin="round" viewBox="0 0 568.8 568.8" width="758.4" xmlns="http://www.w3.org/2000/svg" xmlns:xlink="http://www.w3.org/1999/xlink"><defs><path id="w" d="M4.203 54.688h8.985l11.234-42.672 11.172 42.672h10.593l11.235-42.672 11.187 42.672h8.985L63.28 0H52.688L40.922 44.828 29.109 0H18.5z" stroke-linejoin="round"/><path id="U" d="M9.813 72.906h13.28l32.329-60.984v60.984h9.562V0h-13.28L19.39 60.984V0H9.813z" stroke-linejoin="round"/><path id="b" d="M0 0v3.5" stroke="#000" stroke-linejoin="round" stroke-width=".8"/><path id="c" d="M9.813 72.906h14.703l18.593-49.61 18.703 49.61h14.704V0H66.89v64.016l-18.797-50h-9.907l-18.796 50V0H9.813z" stroke-linejoin="round"/><path id="d" d="M34.281 27.484q-10.89 0-15.093-2.484-4.204-2.484-4.204-8.5 0-4.781 3.157-7.594 3.156-2.797 8.562-2.797 7.485 0 12 5.297 4.516 5.297 4.516 14.078v2zm17.922 3.72V0H43.22v8.297Q40.14 3.328 35.547.953q-4.594-2.375-11.234-2.375-8.391 0-13.36 4.719Q6 8.016 6 15.922q0 9.219 6.172 13.906 6.187 4.688 18.437 4.688h12.61v.89q0 6.203-4.078 9.594-4.078 3.39-11.453 3.39-4.688 0-9.141-1.124-4.438-1.125-8.531-3.375v8.312q4.921 1.906 9.562 2.844 4.64.953 9.031.953 11.875 0 17.735-6.156 5.86-6.14 5.86-18.64z" stroke-linejoin="round"/><path id="e" d="M41.11 46.297q-1.516.875-3.297 1.281Q36.03 48 33.89 48q-7.625 0-11.703-4.953-4.079-4.953-4.079-14.234V0H9.08v54.688h9.03v-8.5q2.844 4.984 7.375 7.39Q30.031 56 36.531 56q.922 0 2.047-.125 1.125-.11 2.484-.36z" stroke-linejoin="round"/><path id="f" d="M19.188 8.297h34.421V0H7.33v8.297q5.609 5.812 15.296 15.594 9.703 9.797 12.188 12.64 4.734 5.313 6.609 9 1.89 3.688 1.89 7.25 0 5.813-4.078 9.469-4.078 3.672-10.625 3.672-4.64 0-9.797-1.61-5.14-1.609-11-4.89v9.969Q13.767 71.78 18.938 73q5.188 1.219 9.485 1.219 11.328 0 18.062-5.672 6.735-5.656 6.735-15.125 0-4.5-1.688-8.531-1.672-4.016-6.125-9.485-1.218-1.422-7.765-8.187-6.532-6.766-18.453-18.922z" stroke-linejoin="round"/><path id="g" d="M31.781 66.406q-7.61 0-11.453-7.5Q16.5 51.422 16.5 36.375q0-14.984 3.828-22.484 3.844-7.5 11.453-7.5 7.672 0 11.5 7.5 3.844 7.5 3.844 22.484 0 15.047-3.844 22.531-3.828 7.5-11.5 7.5zm0 7.813q12.266 0 18.735-9.703 6.468-9.688 6.468-28.141 0-18.406-6.468-28.11-6.47-9.687-18.735-9.687-12.25 0-18.718 9.688-6.47 9.703-6.47 28.109 0 18.453 6.47 28.14Q19.53 74.22 31.78 74.22z" stroke-linejoin="round"/><path id="h" d="M34.188 63.188L20.797 26.906h26.812zm-5.579 9.718h11.188L67.578 0h-10.25l-6.64 18.703h-32.86L11.188 0H.78z" stroke-linejoin="round"/><path id="i" d="M18.11 8.203v-29H9.077v75.484h9.031v-8.296q2.844 4.875 7.157 7.234Q29.594 56 35.594 56q9.968 0 16.187-7.906 6.235-7.907 6.235-20.797T51.78 6.484q-6.218-7.906-16.187-7.906-6 0-10.328 2.375-4.313 2.375-7.157 7.25zm30.578 19.094q0 9.906-4.079 15.547-4.078 5.64-11.203 5.64-7.14 0-11.218-5.64-4.079-5.64-4.079-15.547 0-9.906 4.078-15.547 4.079-5.64 11.22-5.64 7.124 0 11.202 5.64t4.078 15.547z" stroke-linejoin="round"/><path id="j" d="M32.172-5.078q-3.797-9.766-7.422-12.735-3.61-2.984-9.656-2.984H7.906v7.516h5.282q3.703 0 5.75 1.765Q21-9.766 23.483-3.219l1.61 4.094-22.11 53.813H12.5l17.094-42.766 17.093 42.766h9.516z" stroke-linejoin="round"/><path id="k" d="M0 0v2" stroke="#000" stroke-linejoin="round" stroke-width=".6"/><path id="l" d="M10.984 1.516V10.5q3.72-1.766 7.516-2.688 3.813-.921 7.484-.921 9.766 0 14.907 6.562 5.156 6.563 5.89 19.953-2.828-4.203-7.187-6.453-4.344-2.25-9.61-2.25-10.937 0-17.312 6.61-6.375 6.625-6.375 18.109 0 11.219 6.64 18 6.641 6.797 17.672 6.797 12.657 0 19.313-9.703 6.672-9.688 6.672-28.141 0-17.234-8.188-27.516Q40.234-1.42 26.422-1.42q-3.719 0-7.531.734-3.797.734-7.907 2.203zM30.61 32.422q6.641 0 10.516 4.531 3.89 4.547 3.89 12.469 0 7.86-3.89 12.422-3.875 4.562-10.516 4.562-6.64 0-10.515-4.562-3.875-4.563-3.875-12.422 0-7.922 3.875-12.469 3.875-4.531 10.515-4.531z" stroke-linejoin="round"/><path id="m" d="M12.406 8.297h16.11v55.625l-17.532-3.516v8.985l17.438 3.515h9.86V8.296H54.39V0H12.406z" stroke-linejoin="round"/><path id="n" d="M33.016 40.375q-6.641 0-10.532-4.547-3.875-4.531-3.875-12.437 0-7.86 3.875-12.438 3.891-4.562 10.532-4.562 6.64 0 10.515 4.562 3.875 4.578 3.875 12.438 0 7.906-3.875 12.437-3.875 4.547-10.515 4.547zm19.578 30.922v-8.984q-3.719 1.75-7.5 2.671-3.782.938-7.5.938-9.766 0-14.922-6.594-5.14-6.594-5.875-19.922 2.875 4.25 7.219 6.516 4.359 2.266 9.578 2.266 10.984 0 17.36-6.672 6.374-6.657 6.374-18.125 0-11.235-6.64-18.032-6.641-6.78-17.672-6.78-12.657 0-19.344 9.687-6.688 9.703-6.688 28.109 0 17.281 8.204 27.563 8.203 10.28 22.015 10.28 3.719 0 7.5-.734t7.89-2.187z" stroke-linejoin="round"/><path id="o" d="M40.578 39.313Q47.656 37.797 51.625 33q3.984-4.781 3.984-11.813 0-10.78-7.422-16.703-7.421-5.906-21.093-5.906-4.578 0-9.438.906-4.86.907-10.031 2.72v9.515q4.094-2.39 8.969-3.61 4.89-1.218 10.218-1.218 9.266 0 14.125 3.656 4.86 3.656 4.86 10.64 0 6.454-4.516 10.079-4.515 3.64-12.562 3.64h-8.5v8.11h8.89q7.266 0 11.125 2.906 3.86 2.906 3.86 8.375 0 5.61-3.985 8.61-3.968 3.015-11.39 3.015-4.063 0-8.703-.89-4.641-.876-10.203-2.72v8.782q5.624 1.562 10.53 2.344 4.907.78 9.25.78 11.235 0 17.766-5.109 6.547-5.093 6.547-13.78 0-6.063-3.468-10.235-3.47-4.172-9.86-5.782z" stroke-linejoin="round"/><path id="p" d="M8.203 72.906h46.875v-4.203L28.61 0H18.312L43.22 64.594H8.203z" stroke-linejoin="round"/><path id="q" d="M37.797 64.313L12.89 25.39h24.906zm-2.594 8.593H47.61V25.391h10.407v-8.203H47.609V0h-9.812v17.188H4.89v9.515z" stroke-linejoin="round"/><path id="r" d="M0 0h-3.5" stroke="#000" stroke-linejoin="round" stroke-width=".8"/><path id="s" d="M31.781 34.625q-7.031 0-11.062-3.766-4.016-3.765-4.016-10.343 0-6.594 4.016-10.36Q24.75 6.391 31.78 6.391q7.032 0 11.078 3.78 4.063 3.798 4.063 10.345 0 6.578-4.031 10.343-4.016 3.766-11.11 3.766zm-9.86 4.188q-6.343 1.562-9.89 5.906Q8.5 49.079 8.5 55.329q0 8.733 6.219 13.812 6.234 5.078 17.062 5.078 10.89 0 17.094-5.078 6.203-5.079 6.203-13.813 0-6.25-3.547-10.61-3.531-4.343-9.828-5.906 7.125-1.656 11.094-6.5 3.984-4.828 3.984-11.796 0-10.61-6.468-16.282-6.47-5.656-18.532-5.656-12.047 0-18.531 5.656-6.469 5.672-6.469 16.282 0 6.968 4 11.797 4.016 4.843 11.14 6.5zM18.314 54.39q0-5.657 3.53-8.828 3.548-3.172 9.938-3.172 6.36 0 9.938 3.172 3.593 3.171 3.593 8.828 0 5.672-3.593 8.843-3.578 3.172-9.938 3.172-6.39 0-9.937-3.172-3.532-3.172-3.532-8.843z" stroke-linejoin="round"/><path id="t" d="M30.61 48.39q-7.22 0-11.422-5.64-4.204-5.64-4.204-15.453 0-9.813 4.172-15.453 4.188-5.64 11.453-5.64 7.188 0 11.375 5.655 4.203 5.672 4.203 15.438 0 9.719-4.203 15.406-4.187 5.688-11.375 5.688zm0 7.61q11.718 0 18.406-7.625 6.703-7.61 6.703-21.078 0-13.422-6.703-21.078-6.688-7.64-18.407-7.64-11.765 0-18.437 7.64-6.656 7.656-6.656 21.078 0 13.469 6.656 21.078Q18.844 56 30.609 56z" stroke-linejoin="round"/><path id="u" d="M9.422 75.984h8.984V0H9.422z" stroke-linejoin="round"/><path id="v" d="M45.406 46.39v29.594h8.985V0h-8.985v8.203Q42.578 3.328 38.25.953q-4.313-2.375-10.375-2.375-9.906 0-16.14 7.906-6.22 7.922-6.22 20.813 0 12.89 6.22 20.797Q17.968 56 27.874 56q6.063 0 10.375-2.375 4.328-2.36 7.156-7.234zm-30.61-19.093q0-9.906 4.079-15.547 4.078-5.64 11.203-5.64 7.125 0 11.219 5.64 4.11 5.64 4.11 15.547 0 9.906-4.11 15.547-4.094 5.64-11.219 5.64-7.125 0-11.203-5.64-4.078-5.64-4.078-15.547z" stroke-linejoin="round"/><path id="S" d="M8.016 75.875h7.812q7.313-11.516 10.953-22.563 3.64-11.03 3.64-21.921 0-10.938-3.64-22.016-3.64-11.078-10.953-22.563H8.016Q14.5-2 17.703 9.063q3.203 11.063 3.203 22.329 0 11.28-3.203 22.265-3.203 11-9.687 22.219z" stroke-linejoin="round"/><path id="x" d="M9.422 54.688h8.984V0H9.422zm0 21.296h8.984v-11.39H9.422z" stroke-linejoin="round"/><path id="y" d="M56.203 29.594v-4.39H14.891q.593-9.282 5.593-14.142 5-4.859 13.938-4.859 5.172 0 10.031 1.266 4.86 1.265 9.656 3.812v-8.5Q49.266.734 44.187-.344 39.11-1.422 33.892-1.422q-13.094 0-20.735 7.61-7.64 7.625-7.64 20.625 0 13.421 7.25 21.296Q20.016 56 32.328 56q11.031 0 17.453-7.11 6.422-7.093 6.422-19.296zm-8.984 2.64q-.094 7.36-4.125 11.75-4.032 4.407-10.672 4.407-7.516 0-12.031-4.25-4.516-4.25-5.203-11.97z" stroke-linejoin="round"/><path id="z" d="M-3 0h6M0 3v-6" stroke="#1f77b4" stroke-linejoin="round"/><path id="A" d="M0 1.5a1.5 1.5 0 100-3 1.5 1.5 0 000 3z" stroke="#ff7f0e" stroke-linejoin="round"/><path id="B" d="M-3 0h6M0 3v-6" stroke="#d62728" stroke-linejoin="round"/><path id="C" d="M0 1.5a1.5 1.5 0 100-3 1.5 1.5 0 000 3z" stroke="#9467bd" stroke-linejoin="round"/><path id="D" d="M48.781 52.594v-8.407q-3.812 2.11-7.64 3.157-3.828 1.047-7.735 1.047-8.75 0-13.593-5.547-4.829-5.532-4.829-15.547 0-10.016 4.829-15.563 4.843-5.53 13.593-5.53 3.907 0 7.735 1.046 3.828 1.047 7.64 3.156V2.094Q45.016.344 40.984-.531q-4.015-.89-8.562-.89-12.36 0-19.64 7.765-7.266 7.765-7.266 20.953 0 13.375 7.343 21.031Q20.22 56 33.016 56q4.14 0 8.093-.86 3.953-.843 7.672-2.546z" stroke-linejoin="round"/><path id="E" d="M18.313 70.219V54.688h18.5v-6.985h-18.5V18.016q0-6.688 1.828-8.594 1.828-1.906 7.453-1.906h9.218V0h-9.218q-10.407 0-14.36 3.875-3.953 3.89-3.953 14.14v29.688H2.687v6.984h6.594V70.22z" stroke-linejoin="round"/><path id="F" d="M64.406 67.281v-10.39q-4.984 4.64-10.625 6.922-5.64 2.296-11.984 2.296-12.5 0-19.14-7.64-6.641-7.64-6.641-22.094 0-14.406 6.64-22.047 6.64-7.64 19.14-7.64 6.345 0 11.985 2.296 5.64 2.297 10.625 6.938V5.609Q59.234 2.094 53.437.33q-5.78-1.75-12.218-1.75-16.563 0-26.094 10.124-9.516 10.14-9.516 27.672 0 17.578 9.516 27.703 9.531 10.14 26.094 10.14 6.531 0 12.312-1.734 5.797-1.734 10.875-5.203z" stroke-linejoin="round"/><path id="G" d="M9.813 72.906h9.859V0h-9.86z" stroke-linejoin="round"/><path id="H" d="M4.89 31.39h26.313v-8H4.891z" stroke-linejoin="round"/><path id="I" d="M44.281 53.078v-8.5q-3.797 1.953-7.906 2.922-4.094.984-8.5.984-6.688 0-10.031-2.047-3.344-2.046-3.344-6.156 0-3.125 2.39-4.906 2.391-1.781 9.626-3.39l3.078-.688q9.562-2.047 13.593-5.781 4.032-3.735 4.032-10.422 0-7.625-6.032-12.078-6.03-4.438-16.578-4.438-4.39 0-9.156.86Q10.688.296 5.422 2v9.281q4.984-2.594 9.812-3.89 4.829-1.282 9.579-1.282 6.343 0 9.75 2.172 3.421 2.172 3.421 6.125 0 3.656-2.468 5.61-2.453 1.953-10.813 3.765l-3.125.735q-8.344 1.75-12.062 5.39-3.704 3.64-3.704 9.985 0 7.718 5.47 11.906Q16.75 56 26.811 56q4.97 0 9.36-.734 4.406-.72 8.11-2.188z" stroke-linejoin="round"/><path id="J" d="M37.11 75.984V68.5h-8.594q-4.828 0-6.72-1.953-1.874-1.953-1.874-7.031v-4.828h14.797v-6.985H19.922V0H10.89v47.703H2.297v6.984h8.594V58.5q0 9.125 4.25 13.297 4.25 4.187 13.468 4.187z" stroke-linejoin="round"/><path id="K" d="M10.797 72.906h38.719v-8.312H19.828v-17.86q2.14.735 4.281 1.094 2.157.36 4.313.36 12.203 0 19.328-6.688 7.14-6.688 7.14-18.11 0-11.765-7.328-18.296-7.328-6.516-20.656-6.516-4.593 0-9.36.781-4.75.782-9.827 2.344v9.922q4.39-2.39 9.078-3.563 4.687-1.171 9.906-1.171 8.453 0 13.375 4.437 4.938 4.438 4.938 12.063 0 7.609-4.938 12.047-4.922 4.453-13.375 4.453-3.953 0-7.89-.875-3.922-.875-8.016-2.735z" stroke-linejoin="round"/><path id="L" d="M8.688 72.906h9.921V28.61q0-11.718 4.235-16.875 4.25-5.14 13.781-5.14 9.469 0 13.719 5.14 4.25 5.157 4.25 16.875v44.297H64.5V27.391q0-14.25-7.063-21.532-7.046-7.28-20.812-7.28-13.828 0-20.89 7.28-7.047 7.282-7.047 21.532z" stroke-linejoin="round"/><path id="M" d="M53.516 70.516V60.89q-5.61 2.687-10.594 4-4.984 1.328-9.625 1.328-8.047 0-12.422-3.125t-4.375-8.89q0-4.845 2.906-7.313 2.907-2.453 11.016-3.97l5.953-1.218q11.031-2.11 16.281-7.406 5.25-5.297 5.25-14.172 0-10.61-7.11-16.078-7.093-5.469-20.812-5.469-5.172 0-11.015 1.172Q13.14.922 6.89 3.219v10.156q6-3.36 11.765-5.078 5.766-1.703 11.328-1.703 8.438 0 13.032 3.312 4.593 3.328 4.593 9.485 0 5.359-3.297 8.39-3.296 3.032-10.812 4.547L27.484 33.5q-11.03 2.188-15.968 6.875-4.922 4.688-4.922 13.047 0 9.672 6.812 15.234 6.813 5.563 18.766 5.563 5.14 0 10.453-.938 5.328-.922 10.89-2.765z" stroke-linejoin="round"/><path id="N" d="M31 75.875q-6.531-11.219-9.719-22.219-3.172-10.984-3.172-22.265 0-11.266 3.203-22.328Q24.517-2 31-13.188h-7.813Q15.875-1.704 12.235 9.375q-3.64 11.078-3.64 22.016 0 10.89 3.61 21.922 3.624 11.046 10.983 22.562z" stroke-linejoin="round"/><path id="O" d="M8.5 21.578v33.11h8.984V21.922q0-7.766 3.016-11.656 3.031-3.875 9.094-3.875 7.265 0 11.484 4.64 4.234 4.64 4.234 12.656v31h8.985V0h-8.984v8.406Q42.047 3.422 37.718 1q-4.313-2.422-10.032-2.422-9.421 0-14.312 5.86Q8.5 10.296 8.5 21.578z" stroke-linejoin="round"/><path id="P" d="M48.688 27.297q0 9.906-4.079 15.547-4.078 5.64-11.203 5.64-7.14 0-11.218-5.64-4.079-5.64-4.079-15.547 0-9.906 4.078-15.547 4.079-5.64 11.22-5.64 7.124 0 11.202 5.64t4.078 15.547zM18.108 46.39q2.844 4.875 7.157 7.234Q29.594 56 35.594 56q9.968 0 16.187-7.906 6.235-7.907 6.235-20.797T51.78 6.484q-6.218-7.906-16.187-7.906-6 0-10.328 2.375-4.313 2.375-7.157 7.25V0H9.08v75.984h9.03z" stroke-linejoin="round"/><path id="Q" d="M54.89 33.016V0h-8.984v32.719q0 7.765-3.031 11.61-3.031 3.858-9.078 3.858-7.281 0-11.484-4.64-4.204-4.625-4.204-12.64V0H9.08v54.688h9.03v-8.5q3.235 4.937 7.594 7.374Q30.078 56 35.797 56q9.422 0 14.25-5.828 4.844-5.828 4.844-17.156z" stroke-linejoin="round"/><path id="R" d="M10.688 12.406H21V0H10.687z" stroke-linejoin="round"/><clipPath id="T" stroke-linejoin="round"><path d="M76.61 297.12H558v208.808H76.61z"/></clipPath><clipPath id="a" stroke-linejoin="round"><path d="M76.61 25.44H558v208.808H76.61z"/></clipPath></defs><path d="M0 568.8h568.8V0H0z" fill="#fff"/><path d="M76.61 234.248H558V25.44H76.61z" fill="#fff"/><path clip-path="url(#a)" d="M76.61 234.248V25.44" fill="none" stroke="#b0b0b0" stroke-linecap="square" stroke-width=".8"/><use stroke="#000" stroke-width=".8" x="76.61" xlink:href="#b" y="234.248"/><g transform="matrix(.1 0 0 -.1 67.176 271.242)"><use xlink:href="#c"/><use x="86.279" xlink:href="#d"/><use x="147.559" xlink:href="#e"/></g><g transform="matrix(.1 0 0 -.1 63.885 282.44)"><use xlink:href="#f"/><use x="63.623" xlink:href="#g"/><use x="127.246" xlink:href="#f"/><use x="190.869" xlink:href="#g"/></g><path clip-path="url(#a)" d="M296.067 234.248V25.44" fill="none" stroke="#b0b0b0" stroke-linecap="square" stroke-width=".8"/><use stroke="#000" stroke-width=".8" x="296.067" xlink:href="#b" y="234.248"/><g transform="matrix(.1 0 0 -.1 287.417 271.242)"><use xlink:href="#h"/><use x="68.408" xlink:href="#i"/><use x="131.885" xlink:href="#e"/></g><path clip-path="url(#a)" d="M508.445 234.248V25.44" fill="none" stroke="#b0b0b0" stroke-linecap="square" stroke-width=".8"/><use stroke="#000" stroke-width=".8" x="508.445" xlink:href="#b" y="234.248"/><g transform="matrix(.1 0 0 -.1 498.108 271.242)"><use xlink:href="#c"/><use x="86.279" xlink:href="#d"/><use x="147.559" xlink:href="#j"/></g><g stroke-width=".8"><path clip-path="url(#a)" d="M558 234.248V25.44" fill="none" stroke="#b0b0b0" stroke-linecap="square"/><use stroke="#000" x="558" xlink:href="#b" y="234.248"/></g><use stroke="#000" stroke-width=".6" x="83.689" xlink:href="#k" y="234.248"/><g transform="matrix(.1 0 0 -.1 77.327 247.246)"><use xlink:href="#g"/><use x="63.623" xlink:href="#f"/></g><g stroke="#000" stroke-width=".6"><use x="90.769" xlink:href="#k" y="234.248"/><use x="97.848" xlink:href="#k" y="234.248"/><use x="104.927" xlink:href="#k" y="234.248"/><use x="112.006" xlink:href="#k" y="234.248"/><use x="119.086" xlink:href="#k" y="234.248"/><use x="126.165" xlink:href="#k" y="234.248"/></g><use stroke="#000" stroke-width=".6" x="133.244" xlink:href="#k" y="234.248"/><g transform="matrix(.1 0 0 -.1 126.882 247.246)"><use xlink:href="#g"/><use x="63.623" xlink:href="#l"/></g><g stroke="#000" stroke-width=".6"><use x="140.323" xlink:href="#k" y="234.248"/><use x="147.403" xlink:href="#k" y="234.248"/><use x="154.482" xlink:href="#k" y="234.248"/><use x="161.561" xlink:href="#k" y="234.248"/><use x="168.64" xlink:href="#k" y="234.248"/><use x="175.72" xlink:href="#k" y="234.248"/><use x="182.799" xlink:href="#k" y="234.248"/></g><g transform="matrix(.1 0 0 -.1 176.436 247.246)"><use xlink:href="#m"/><use x="63.623" xlink:href="#n"/></g><g stroke="#000" stroke-width=".6"><use x="189.878" xlink:href="#k" y="234.248"/><use x="196.958" xlink:href="#k" y="234.248"/><use x="204.037" xlink:href="#k" y="234.248"/><use x="211.116" xlink:href="#k" y="234.248"/><use x="218.195" xlink:href="#k" y="234.248"/><use x="225.275" xlink:href="#k" y="234.248"/><use x="232.354" xlink:href="#k" y="234.248"/></g><g transform="matrix(.1 0 0 -.1 225.991 247.246)"><use xlink:href="#f"/><use x="63.623" xlink:href="#o"/></g><g stroke="#000" stroke-width=".6"><use x="239.433" xlink:href="#k" y="234.248"/><use x="246.512" xlink:href="#k" y="234.248"/><use x="253.592" xlink:href="#k" y="234.248"/><use x="260.671" xlink:href="#k" y="234.248"/><use x="267.75" xlink:href="#k" y="234.248"/><use x="274.829" xlink:href="#k" y="234.248"/><use x="281.909" xlink:href="#k" y="234.248"/></g><g transform="matrix(.1 0 0 -.1 275.546 247.246)"><use xlink:href="#o"/><use x="63.623" xlink:href="#g"/></g><g stroke="#000" stroke-width=".6"><use x="288.988" xlink:href="#k" y="234.248"/><use x="303.146" xlink:href="#k" y="234.248"/><use x="310.226" xlink:href="#k" y="234.248"/><use x="317.305" xlink:href="#k" y="234.248"/><use x="324.384" xlink:href="#k" y="234.248"/><use x="331.464" xlink:href="#k" y="234.248"/></g><g transform="matrix(.1 0 0 -.1 325.101 247.246)"><use xlink:href="#g"/><use x="63.623" xlink:href="#n"/></g><g stroke="#000" stroke-width=".6"><use x="338.543" xlink:href="#k" y="234.248"/><use x="345.622" xlink:href="#k" y="234.248"/><use x="352.701" xlink:href="#k" y="234.248"/><use x="359.781" xlink:href="#k" y="234.248"/><use x="366.86" xlink:href="#k" y="234.248"/><use x="373.939" xlink:href="#k" y="234.248"/><use x="381.018" xlink:href="#k" y="234.248"/></g><g transform="matrix(.1 0 0 -.1 374.656 247.246)"><use xlink:href="#m"/><use x="63.623" xlink:href="#o"/></g><g stroke="#000" stroke-width=".6"><use x="388.098" xlink:href="#k" y="234.248"/><use x="395.177" xlink:href="#k" y="234.248"/><use x="402.256" xlink:href="#k" y="234.248"/><use x="409.335" xlink:href="#k" y="234.248"/><use x="416.415" xlink:href="#k" y="234.248"/><use x="423.494" xlink:href="#k" y="234.248"/><use x="430.573" xlink:href="#k" y="234.248"/></g><g transform="matrix(.1 0 0 -.1 424.21 247.246)"><use xlink:href="#f"/><use x="63.623" xlink:href="#g"/></g><g stroke="#000" stroke-width=".6"><use x="437.652" xlink:href="#k" y="234.248"/><use x="444.732" xlink:href="#k" y="234.248"/><use x="451.811" xlink:href="#k" y="234.248"/><use x="458.89" xlink:href="#k" y="234.248"/><use x="465.97" xlink:href="#k" y="234.248"/><use x="473.049" xlink:href="#k" y="234.248"/><use x="480.128" xlink:href="#k" y="234.248"/></g><g transform="matrix(.1 0 0 -.1 473.766 247.246)"><use xlink:href="#f"/><use x="63.623" xlink:href="#p"/></g><g stroke="#000" stroke-width=".6"><use x="487.207" xlink:href="#k" y="234.248"/><use x="494.287" xlink:href="#k" y="234.248"/><use x="501.366" xlink:href="#k" y="234.248"/><use x="515.524" xlink:href="#k" y="234.248"/><use x="522.604" xlink:href="#k" y="234.248"/><use x="529.683" xlink:href="#k" y="234.248"/></g><g transform="matrix(.1 0 0 -.1 523.32 247.246)"><use xlink:href="#g"/><use x="63.623" xlink:href="#q"/></g><g stroke="#000" stroke-width=".6"><use x="536.762" xlink:href="#k" y="234.248"/><use x="543.841" xlink:href="#k" y="234.248"/><use x="550.921" xlink:href="#k" y="234.248"/></g><path clip-path="url(#a)" d="M76.61 194.42H558" fill="none" stroke="#b0b0b0" stroke-linecap="square" stroke-width=".8"/><use stroke="#000" stroke-width=".8" x="76.61" xlink:href="#r" y="194.421"/><g transform="matrix(.1 0 0 -.1 31.435 198.22)"><use xlink:href="#f"/><use x="63.623" xlink:href="#g"/><use x="127.246" xlink:href="#g"/><use x="190.869" xlink:href="#g"/><use x="254.492" xlink:href="#g"/><use x="318.115" xlink:href="#g"/></g><path clip-path="url(#a)" d="M76.61 154.592H558" fill="none" stroke="#b0b0b0" stroke-linecap="square" stroke-width=".8"/><use stroke="#000" stroke-width=".8" x="76.61" xlink:href="#r" y="154.592"/><g transform="matrix(.1 0 0 -.1 31.435 158.39)"><use xlink:href="#q"/><use x="63.623" xlink:href="#g"/><use x="127.246" xlink:href="#g"/><use x="190.869" xlink:href="#g"/><use x="254.492" xlink:href="#g"/><use x="318.115" xlink:href="#g"/></g><path clip-path="url(#a)" d="M76.61 114.763H558" fill="none" stroke="#b0b0b0" stroke-linecap="square" stroke-width=".8"/><use stroke="#000" stroke-width=".8" x="76.61" xlink:href="#r" y="114.763"/><g transform="matrix(.1 0 0 -.1 31.435 118.562)"><use xlink:href="#n"/><use x="63.623" xlink:href="#g"/><use x="127.246" xlink:href="#g"/><use x="190.869" xlink:href="#g"/><use x="254.492" xlink:href="#g"/><use x="318.115" xlink:href="#g"/></g><path clip-path="url(#a)" d="M76.61 74.933H558" fill="none" stroke="#b0b0b0" stroke-linecap="square" stroke-width=".8"/><use stroke="#000" stroke-width=".8" x="76.61" xlink:href="#r" y="74.933"/><g transform="matrix(.1 0 0 -.1 31.435 78.733)"><use xlink:href="#s"/><use x="63.623" xlink:href="#g"/><use x="127.246" xlink:href="#g"/><use x="190.869" xlink:href="#g"/><use x="254.492" xlink:href="#g"/><use x="318.115" xlink:href="#g"/></g><path clip-path="url(#a)" d="M76.61 35.104H558" fill="none" stroke="#b0b0b0" stroke-linecap="square" stroke-width=".8"/><use stroke="#000" stroke-width=".8" x="76.61" xlink:href="#r" y="35.104"/><g transform="matrix(.1 0 0 -.1 25.073 38.903)"><use xlink:href="#m"/><use x="63.623" xlink:href="#g"/><use x="127.246" xlink:href="#g"/><use x="190.869" xlink:href="#g"/><use x="254.492" xlink:href="#g"/><use x="318.115" xlink:href="#g"/><use x="381.738" xlink:href="#g"/></g><g transform="matrix(0 -.1 -.1 0 18.993 156.19)"><path d="M3.328 72.906h9.953L28.61 11.281l15.282 61.625h11.093l15.328-61.625 15.282 61.625h10.015L77.297 0H64.89L49.516 63.281 33.984 0H21.578z"/><use x="98.799" xlink:href="#t"/><use x="159.98" xlink:href="#e"/><use x="201.094" xlink:href="#u"/><use x="228.877" xlink:href="#v"/><use x="292.354" xlink:href="#w"/><use x="374.141" xlink:href="#x"/><use x="401.924" xlink:href="#v"/><use x="465.4" xlink:href="#y"/></g><g stroke="#1f77b4"><path clip-path="url(#a)" d="M-1 234.248h6.817l7.08-.004H27.056l7.078-.004H55.373l7.078-.001 7.08-.001 7.079-.002 7.08-.004 7.079-.003 7.079-.006 7.08-.013 7.078-.011 7.08-.027 7.079-.023 7.08-.014 7.078-.069 7.08-.062 7.079-.075 7.08-.101 7.078-.108 7.08-.152 7.079-.22 7.08-.352 7.078-.252 7.08-1.157 7.079-1.063 7.08-1.26 7.079-1.67 7.079-1.93 7.08-1.905 7.078-2.349 7.08-3.48 7.079-3.437 7.08-3.815 7.078-3.467 7.08-3.472 7.079-4.793 7.08-4.553 7.078-5.682 7.08-5.998 7.079-5.378 7.08-4.821 7.079-5.237 7.079-5.066 7.08-5.787 7.078-5.725 7.08-5.897 7.079-5.08 7.08-5.106 7.078-2.649 7.08-4.076 7.079-4.352 7.08-4.83 7.078-4.82 7.08-4.84 7.079-3.863 7.08-4.344 7.079-4.444 7.079-4.783 7.079-4.536 7.08-3.046 7.079-5.919 7.079-3.96 7.08-3.306 7.078-3.54 7.08-3.97 7.079 1.144 7.08-4.386 7.078-3.243 7.08-3.867 7.079-2.801 7.08-3.828" fill="none" stroke-linecap="square" stroke-width="1.5"/><g clip-path="url(#a)" fill="#1f77b4"><use x="-1" xlink:href="#z" y="234.248"/><use x="5.817" xlink:href="#z" y="234.248"/><use x="12.897" xlink:href="#z" y="234.244"/><use x="19.976" xlink:href="#z" y="234.244"/><use x="27.055" xlink:href="#z" y="234.244"/><use x="34.134" xlink:href="#z" y="234.24"/><use x="41.214" xlink:href="#z" y="234.241"/><use x="48.293" xlink:href="#z" y="234.239"/><use x="55.372" xlink:href="#z" y="234.239"/><use x="62.451" xlink:href="#z" y="234.239"/><use x="69.531" xlink:href="#z" y="234.238"/><use x="76.61" xlink:href="#z" y="234.236"/><use x="83.689" xlink:href="#z" y="234.232"/><use x="90.769" xlink:href="#z" y="234.229"/><use x="97.848" xlink:href="#z" y="234.223"/><use x="104.927" xlink:href="#z" y="234.21"/><use x="112.006" xlink:href="#z" y="234.199"/><use x="119.086" xlink:href="#z" y="234.172"/><use x="126.165" xlink:href="#z" y="234.149"/><use x="133.244" xlink:href="#z" y="234.135"/><use x="140.323" xlink:href="#z" y="234.066"/><use x="147.403" xlink:href="#z" y="234.004"/><use x="154.482" xlink:href="#z" y="233.929"/><use x="161.561" xlink:href="#z" y="233.828"/><use x="168.64" xlink:href="#z" y="233.72"/><use x="175.72" xlink:href="#z" y="233.568"/><use x="182.799" xlink:href="#z" y="233.348"/><use x="189.878" xlink:href="#z" y="232.996"/><use x="196.958" xlink:href="#z" y="232.744"/><use x="204.037" xlink:href="#z" y="231.587"/><use x="211.116" xlink:href="#z" y="230.524"/><use x="218.195" xlink:href="#z" y="229.264"/><use x="225.275" xlink:href="#z" y="227.594"/><use x="232.354" xlink:href="#z" y="225.665"/><use x="239.433" xlink:href="#z" y="223.759"/><use x="246.512" xlink:href="#z" y="221.41"/><use x="253.592" xlink:href="#z" y="217.931"/><use x="260.671" xlink:href="#z" y="214.493"/><use x="267.75" xlink:href="#z" y="210.678"/><use x="274.829" xlink:href="#z" y="207.211"/><use x="281.909" xlink:href="#z" y="203.739"/><use x="288.988" xlink:href="#z" y="198.946"/><use x="296.067" xlink:href="#z" y="194.393"/><use x="303.146" xlink:href="#z" y="188.711"/><use x="310.226" xlink:href="#z" y="182.713"/><use x="317.305" xlink:href="#z" y="177.335"/><use x="324.384" xlink:href="#z" y="172.514"/><use x="331.464" xlink:href="#z" y="167.277"/><use x="338.543" xlink:href="#z" y="162.211"/><use x="345.622" xlink:href="#z" y="156.424"/><use x="352.701" xlink:href="#z" y="150.699"/><use x="359.781" xlink:href="#z" y="144.802"/><use x="366.86" xlink:href="#z" y="139.723"/><use x="373.939" xlink:href="#z" y="134.616"/><use x="381.018" xlink:href="#z" y="131.967"/><use x="388.098" xlink:href="#z" y="127.891"/><use x="395.177" xlink:href="#z" y="123.539"/><use x="402.256" xlink:href="#z" y="118.709"/><use x="409.335" xlink:href="#z" y="113.889"/><use x="416.415" xlink:href="#z" y="109.048"/><use x="423.494" xlink:href="#z" y="105.186"/><use x="430.573" xlink:href="#z" y="100.842"/><use x="437.652" xlink:href="#z" y="96.398"/><use x="444.732" xlink:href="#z" y="91.615"/><use x="451.811" xlink:href="#z" y="87.079"/><use x="458.89" xlink:href="#z" y="84.033"/><use x="465.97" xlink:href="#z" y="78.114"/><use x="473.049" xlink:href="#z" y="74.154"/><use x="480.128" xlink:href="#z" y="70.848"/><use x="487.207" xlink:href="#z" y="67.308"/><use x="494.287" xlink:href="#z" y="63.339"/><use x="501.366" xlink:href="#z" y="64.482"/><use x="508.445" xlink:href="#z" y="60.096"/><use x="515.524" xlink:href="#z" y="56.853"/><use x="522.604" xlink:href="#z" y="52.986"/><use x="529.683" xlink:href="#z" y="50.185"/><use x="536.762" xlink:href="#z" y="46.357"/></g></g><g stroke="#ff7f0e"><path clip-path="url(#a)" d="M-1 234.25H27.056l7.078-.001H55.373l7.078-.001 7.08-.001 7.079-.003h7.08l7.079-.003 7.079-.006 7.08-.006 7.078-.01 7.08-.006 7.079-.013 7.08-.01 7.078-.011 7.08-.015h7.079l7.08-.068 7.078-.066h7.08l7.079-.074 7.08-.075 7.078-.13 7.08-.001 7.079-.25 7.08-.2 7.079-.118 7.079-.177 7.08-.269 7.078-.285 7.08-.408 7.079-.548 7.08-.46 7.078-.449 7.08-.492 7.079-.526 7.08-.76 7.078-.742 7.08-.76 7.079-.612 7.08-1.06 7.079-.666 7.079-.566 7.08-.91 7.078-.697 7.08-1.498 7.079-.86 7.08-.914 7.078-.79 7.08-.891 7.079-.763 7.08-.754 7.078-.948 7.08-.922 7.079-1.044 7.08-.84 7.079-.656 7.079-.727 7.079-.784 7.08-.918 7.079-.81 7.079-.806 7.08-.78 7.078-.679 7.08.074 7.079-1.067 7.08-1.082 7.078-.834 7.08-.8 7.079-.736 7.08-.738" fill="none" stroke-linecap="square" stroke-width="1.5"/><g clip-path="url(#a)" fill="#ff7f0e"><use x="-1" xlink:href="#A" y="234.25"/><use x="5.817" xlink:href="#A" y="234.25"/><use x="12.897" xlink:href="#A" y="234.25"/><use x="19.976" xlink:href="#A" y="234.25"/><use x="27.055" xlink:href="#A" y="234.25"/><use x="34.134" xlink:href="#A" y="234.249"/><use x="41.214" xlink:href="#A" y="234.249"/><use x="48.293" xlink:href="#A" y="234.249"/><use x="55.372" xlink:href="#A" y="234.249"/><use x="62.451" xlink:href="#A" y="234.248"/><use x="69.531" xlink:href="#A" y="234.247"/><use x="76.61" xlink:href="#A" y="234.244"/><use x="83.689" xlink:href="#A" y="234.244"/><use x="90.769" xlink:href="#A" y="234.241"/><use x="97.848" xlink:href="#A" y="234.235"/><use x="104.927" xlink:href="#A" y="234.229"/><use x="112.006" xlink:href="#A" y="234.22"/><use x="119.086" xlink:href="#A" y="234.213"/><use x="126.165" xlink:href="#A" y="234.2"/><use x="133.244" xlink:href="#A" y="234.19"/><use x="140.323" xlink:href="#A" y="234.179"/><use x="147.403" xlink:href="#A" y="234.164"/><use x="154.482" xlink:href="#A" y="234.164"/><use x="161.561" xlink:href="#A" y="234.096"/><use x="168.64" xlink:href="#A" y="234.03"/><use x="175.72" xlink:href="#A" y="234.03"/><use x="182.799" xlink:href="#A" y="233.956"/><use x="189.878" xlink:href="#A" y="233.881"/><use x="196.958" xlink:href="#A" y="233.752"/><use x="204.037" xlink:href="#A" y="233.75"/><use x="211.116" xlink:href="#A" y="233.499"/><use x="218.195" xlink:href="#A" y="233.301"/><use x="225.275" xlink:href="#A" y="233.182"/><use x="232.354" xlink:href="#A" y="233.005"/><use x="239.433" xlink:href="#A" y="232.736"/><use x="246.512" xlink:href="#A" y="232.451"/><use x="253.592" xlink:href="#A" y="232.043"/><use x="260.671" xlink:href="#A" y="231.495"/><use x="267.75" xlink:href="#A" y="231.036"/><use x="274.829" xlink:href="#A" y="230.586"/><use x="281.909" xlink:href="#A" y="230.094"/><use x="288.988" xlink:href="#A" y="229.568"/><use x="296.067" xlink:href="#A" y="228.808"/><use x="303.146" xlink:href="#A" y="228.066"/><use x="310.226" xlink:href="#A" y="227.306"/><use x="317.305" xlink:href="#A" y="226.694"/><use x="324.384" xlink:href="#A" y="225.634"/><use x="331.464" xlink:href="#A" y="224.968"/><use x="338.543" xlink:href="#A" y="224.402"/><use x="345.622" xlink:href="#A" y="223.493"/><use x="352.701" xlink:href="#A" y="222.795"/><use x="359.781" xlink:href="#A" y="221.297"/><use x="366.86" xlink:href="#A" y="220.437"/><use x="373.939" xlink:href="#A" y="219.523"/><use x="381.018" xlink:href="#A" y="218.733"/><use x="388.098" xlink:href="#A" y="217.842"/><use x="395.177" xlink:href="#A" y="217.079"/><use x="402.256" xlink:href="#A" y="216.325"/><use x="409.335" xlink:href="#A" y="215.377"/><use x="416.415" xlink:href="#A" y="214.455"/><use x="423.494" xlink:href="#A" y="213.411"/><use x="430.573" xlink:href="#A" y="212.571"/><use x="437.652" xlink:href="#A" y="211.915"/><use x="444.732" xlink:href="#A" y="211.188"/><use x="451.811" xlink:href="#A" y="210.404"/><use x="458.89" xlink:href="#A" y="209.486"/><use x="465.97" xlink:href="#A" y="208.677"/><use x="473.049" xlink:href="#A" y="207.87"/><use x="480.128" xlink:href="#A" y="207.09"/><use x="487.207" xlink:href="#A" y="206.411"/><use x="494.287" xlink:href="#A" y="206.485"/><use x="501.366" xlink:href="#A" y="205.418"/><use x="508.445" xlink:href="#A" y="204.336"/><use x="515.524" xlink:href="#A" y="203.502"/><use x="522.604" xlink:href="#A" y="202.701"/><use x="529.683" xlink:href="#A" y="201.966"/><use x="536.762" xlink:href="#A" y="201.228"/></g></g><path clip-path="url(#a)" d="M-1 234.25h6.817l7.08-.004 7.079-.008 7.08-.018 7.078-.014 7.08-.018 7.079-.025 7.08-.031 7.078-.046 7.08-.046 7.079-.104 7.08-.051 7.079-.086 7.079-.088 7.08-.117 7.078-.124 7.08-.228 7.079-.264 7.08-.318 7.078-.161 7.08-.358h7.079l7.08-.87 7.078-.556 7.08-.568 7.079-.492 7.08-.595 7.078-.527 7.08-.893 7.079-1.067 7.08-.823 7.079-.788 7.079-.753 7.08-.719 7.078-.695 7.08-.895 7.079-.876 7.08-.727 7.078-.76 7.08-.328 7.079-.42 7.08-.585 7.078-.493 7.08-.466 7.079-.574 7.08-.592 7.079-.387 7.079-.175 7.08-.238 7.078-.322 7.08-.278 7.079-.397 7.08-.395 7.078-.272 7.08-.134 7.079-.225 7.08-.236 7.078-.071 7.08-.161 7.079-.097 7.08.004 7.079.105 7.079.002 7.079.17 7.08.064 7.079.135 7.079-.051 7.08.058 7.078.12 7.08.11 7.079.619 7.08.12 7.078.048 7.08.105 7.079.04 7.08.3" fill="none" stroke="#2ca02c" stroke-linecap="square" stroke-width="1.5"/><g stroke="#d62728"><path clip-path="url(#a)" d="M-1 234.249h49.293l7.08-.004 7.078-.004 7.08-.008 7.079-.006 7.08-.012 7.079-.002 7.079-.017 7.08-.018 7.078-.054 7.08-.058 7.079-.034 7.08-.017 7.078-.111 7.08-.097h7.079l7.08-.27 7.078-.159 7.08-.006 7.079-.414 7.08-.206 7.078-.273 7.08-.346 7.079-.307 7.08-.311 7.079.079 7.079-.74 7.08-.235 7.078-.424 7.08-.505 7.079-.558 7.08-.87 7.078-.16 7.08-.658 7.079-1.116 7.08-.572 7.078.133 7.08-.51 7.079-4.612 7.08-.324 7.079-.653 7.079-1.511 7.08-.283 7.078-.303 7.08-.872 7.079-.537 7.08-.313 7.078-.618 7.08 1.668 7.079.118 7.08-1.972 7.078.08 7.08.44 7.079-.788 7.08-.196 7.079-.099 7.079.841 7.079-.076 7.08.28 7.079-.044 7.079-.005 7.08-.536 7.078-.247 7.08.852 7.079.158 7.08.19 7.078-.306 7.08-.01 7.079.048 7.08.118" fill="none" stroke-linecap="square" stroke-width="1.5"/><g clip-path="url(#a)" fill="#d62728"><use x="-1" xlink:href="#B" y="234.249"/><use x="5.817" xlink:href="#B" y="234.249"/><use x="12.897" xlink:href="#B" y="234.249"/><use x="19.976" xlink:href="#B" y="234.249"/><use x="27.055" xlink:href="#B" y="234.249"/><use x="34.134" xlink:href="#B" y="234.249"/><use x="41.214" xlink:href="#B" y="234.25"/><use x="48.293" xlink:href="#B" y="234.249"/><use x="55.372" xlink:href="#B" y="234.245"/><use x="62.451" xlink:href="#B" y="234.241"/><use x="69.531" xlink:href="#B" y="234.233"/><use x="76.61" xlink:href="#B" y="234.227"/><use x="83.689" xlink:href="#B" y="234.215"/><use x="90.769" xlink:href="#B" y="234.213"/><use x="97.848" xlink:href="#B" y="234.196"/><use x="104.927" xlink:href="#B" y="234.178"/><use x="112.006" xlink:href="#B" y="234.124"/><use x="119.086" xlink:href="#B" y="234.066"/><use x="126.165" xlink:href="#B" y="234.032"/><use x="133.244" xlink:href="#B" y="234.015"/><use x="140.323" xlink:href="#B" y="233.904"/><use x="147.403" xlink:href="#B" y="233.807"/><use x="154.482" xlink:href="#B" y="233.807"/><use x="161.561" xlink:href="#B" y="233.538"/><use x="168.64" xlink:href="#B" y="233.378"/><use x="175.72" xlink:href="#B" y="233.372"/><use x="182.799" xlink:href="#B" y="232.958"/><use x="189.878" xlink:href="#B" y="232.752"/><use x="196.958" xlink:href="#B" y="232.479"/><use x="204.037" xlink:href="#B" y="232.133"/><use x="211.116" xlink:href="#B" y="231.826"/><use x="218.195" xlink:href="#B" y="231.515"/><use x="225.275" xlink:href="#B" y="231.594"/><use x="232.354" xlink:href="#B" y="230.854"/><use x="239.433" xlink:href="#B" y="230.619"/><use x="246.512" xlink:href="#B" y="230.195"/><use x="253.592" xlink:href="#B" y="229.69"/><use x="260.671" xlink:href="#B" y="229.132"/><use x="267.75" xlink:href="#B" y="228.263"/><use x="274.829" xlink:href="#B" y="228.102"/><use x="281.909" xlink:href="#B" y="227.444"/><use x="288.988" xlink:href="#B" y="226.328"/><use x="296.067" xlink:href="#B" y="225.756"/><use x="303.146" xlink:href="#B" y="225.889"/><use x="310.226" xlink:href="#B" y="225.379"/><use x="317.305" xlink:href="#B" y="220.767"/><use x="324.384" xlink:href="#B" y="220.443"/><use x="331.464" xlink:href="#B" y="219.79"/><use x="338.543" xlink:href="#B" y="218.279"/><use x="345.622" xlink:href="#B" y="217.996"/><use x="352.701" xlink:href="#B" y="217.693"/><use x="359.781" xlink:href="#B" y="216.821"/><use x="366.86" xlink:href="#B" y="216.284"/><use x="373.939" xlink:href="#B" y="215.971"/><use x="381.018" xlink:href="#B" y="215.353"/><use x="388.098" xlink:href="#B" y="217.021"/><use x="395.177" xlink:href="#B" y="217.139"/><use x="402.256" xlink:href="#B" y="215.167"/><use x="409.335" xlink:href="#B" y="215.247"/><use x="416.415" xlink:href="#B" y="215.686"/><use x="423.494" xlink:href="#B" y="214.899"/><use x="430.573" xlink:href="#B" y="214.703"/><use x="437.652" xlink:href="#B" y="214.604"/><use x="444.732" xlink:href="#B" y="215.445"/><use x="451.811" xlink:href="#B" y="215.369"/><use x="458.89" xlink:href="#B" y="215.649"/><use x="465.97" xlink:href="#B" y="215.605"/><use x="473.049" xlink:href="#B" y="215.6"/><use x="480.128" xlink:href="#B" y="215.064"/><use x="487.207" xlink:href="#B" y="214.817"/><use x="494.287" xlink:href="#B" y="215.669"/><use x="501.366" xlink:href="#B" y="215.827"/><use x="508.445" xlink:href="#B" y="216.018"/><use x="515.524" xlink:href="#B" y="215.711"/><use x="522.604" xlink:href="#B" y="215.702"/><use x="529.683" xlink:href="#B" y="215.749"/><use x="536.762" xlink:href="#B" y="215.867"/></g></g><g stroke="#9467bd"><path clip-path="url(#a)" d="M-1 234.25h42.214l7.079-.002h7.08l7.078-.004 7.08-.003 7.079-.007 7.08-.008 7.079-.008 7.079-.011 7.08-.008 7.078-.027 7.08-.014 7.079-.033 7.08-.077 7.078-.122 7.08-.082h7.079l7.08-.571 7.078-.154 7.08-.261 7.079-.414 7.08-.223 7.078-.402 7.08-.76 7.079-.35 7.08-.815 7.079-.567 7.079-.946 7.08-.76 7.078-1.437 7.08-1.176 7.079-.959 7.08-.746 7.078-.723 7.08-.968 7.079-.944 7.08-.773 7.078-.576 7.08-.5 7.079-.501 7.08-.184 7.079-.393 7.079-.356 7.08-.143 7.078-.04 7.08-.183 7.079-.157 7.08.016 7.078-.076 7.08.126 7.079-.22 7.08-.548 7.078-1.036 7.08-.168 7.079-.793 7.08.417 7.079-.32 7.079-.075 7.079-.172 7.08-.65 7.079-.053 7.079 3.87 7.08.129 7.078.132 7.08.938 7.079.568h7.08l7.078.52 7.08.186 7.079.41 7.08.201" fill="none" stroke-linecap="square" stroke-width="1.5"/><g clip-path="url(#a)" fill="#9467bd"><use x="-1" xlink:href="#C" y="234.25"/><use x="5.817" xlink:href="#C" y="234.25"/><use x="12.897" xlink:href="#C" y="234.25"/><use x="19.976" xlink:href="#C" y="234.25"/><use x="27.055" xlink:href="#C" y="234.25"/><use x="34.134" xlink:href="#C" y="234.25"/><use x="41.214" xlink:href="#C" y="234.249"/><use x="48.293" xlink:href="#C" y="234.248"/><use x="55.372" xlink:href="#C" y="234.247"/><use x="62.451" xlink:href="#C" y="234.244"/><use x="69.531" xlink:href="#C" y="234.241"/><use x="76.61" xlink:href="#C" y="234.234"/><use x="83.689" xlink:href="#C" y="234.226"/><use x="90.769" xlink:href="#C" y="234.218"/><use x="97.848" xlink:href="#C" y="234.207"/><use x="104.927" xlink:href="#C" y="234.199"/><use x="112.006" xlink:href="#C" y="234.172"/><use x="119.086" xlink:href="#C" y="234.158"/><use x="126.165" xlink:href="#C" y="234.125"/><use x="133.244" xlink:href="#C" y="234.048"/><use x="140.323" xlink:href="#C" y="233.926"/><use x="147.403" xlink:href="#C" y="233.844"/><use x="154.482" xlink:href="#C" y="233.844"/><use x="161.561" xlink:href="#C" y="233.273"/><use x="168.64" xlink:href="#C" y="233.119"/><use x="175.72" xlink:href="#C" y="232.858"/><use x="182.799" xlink:href="#C" y="232.444"/><use x="189.878" xlink:href="#C" y="232.221"/><use x="196.958" xlink:href="#C" y="231.819"/><use x="204.037" xlink:href="#C" y="231.058"/><use x="211.116" xlink:href="#C" y="230.709"/><use x="218.195" xlink:href="#C" y="229.894"/><use x="225.275" xlink:href="#C" y="229.327"/><use x="232.354" xlink:href="#C" y="228.381"/><use x="239.433" xlink:href="#C" y="227.622"/><use x="246.512" xlink:href="#C" y="226.184"/><use x="253.592" xlink:href="#C" y="225.008"/><use x="260.671" xlink:href="#C" y="224.049"/><use x="267.75" xlink:href="#C" y="223.303"/><use x="274.829" xlink:href="#C" y="222.58"/><use x="281.909" xlink:href="#C" y="221.612"/><use x="288.988" xlink:href="#C" y="220.668"/><use x="296.067" xlink:href="#C" y="219.895"/><use x="303.146" xlink:href="#C" y="219.319"/><use x="310.226" xlink:href="#C" y="218.819"/><use x="317.305" xlink:href="#C" y="218.318"/><use x="324.384" xlink:href="#C" y="218.134"/><use x="331.464" xlink:href="#C" y="217.741"/><use x="338.543" xlink:href="#C" y="217.385"/><use x="345.622" xlink:href="#C" y="217.242"/><use x="352.701" xlink:href="#C" y="217.201"/><use x="359.781" xlink:href="#C" y="217.019"/><use x="366.86" xlink:href="#C" y="216.862"/><use x="373.939" xlink:href="#C" y="216.878"/><use x="381.018" xlink:href="#C" y="216.802"/><use x="388.098" xlink:href="#C" y="216.928"/><use x="395.177" xlink:href="#C" y="216.709"/><use x="402.256" xlink:href="#C" y="216.16"/><use x="409.335" xlink:href="#C" y="215.124"/><use x="416.415" xlink:href="#C" y="214.956"/><use x="423.494" xlink:href="#C" y="214.163"/><use x="430.573" xlink:href="#C" y="214.58"/><use x="437.652" xlink:href="#C" y="214.259"/><use x="444.732" xlink:href="#C" y="214.185"/><use x="451.811" xlink:href="#C" y="214.013"/><use x="458.89" xlink:href="#C" y="213.363"/><use x="465.97" xlink:href="#C" y="213.31"/><use x="473.049" xlink:href="#C" y="217.181"/><use x="480.128" xlink:href="#C" y="217.309"/><use x="487.207" xlink:href="#C" y="217.441"/><use x="494.287" xlink:href="#C" y="218.379"/><use x="501.366" xlink:href="#C" y="218.947"/><use x="508.445" xlink:href="#C" y="218.947"/><use x="515.524" xlink:href="#C" y="219.467"/><use x="522.604" xlink:href="#C" y="219.653"/><use x="529.683" xlink:href="#C" y="220.063"/><use x="536.762" xlink:href="#C" y="220.264"/></g></g><g fill="none" stroke-dasharray="1.5 2.475" stroke-width="1.5"><path clip-path="url(#a)" d="M536.762 46.357l7.08-3.589 7.079-3.657L558 35.383" stroke="#1f77b4"/><path clip-path="url(#a)" d="M536.762 201.228l7.08-.782 7.079-.8 7.079-.82" stroke="#ff7f0e"/><path clip-path="url(#a)" d="M536.762 214.64l7.08.164 7.079.162 7.079.16" stroke="#2ca02c"/><path clip-path="url(#a)" d="M536.762 215.867l7.08.065 7.079.065 7.079.065" stroke="#d62728"/><path clip-path="url(#a)" d="M536.762 220.264l7.08.263 7.079.259 7.079.253" stroke="#9467bd"/></g><g fill="none" stroke="#000" stroke-linecap="square" stroke-linejoin="miter" stroke-width=".8"><path d="M76.61 234.248V25.44M558 234.248V25.44M76.61 234.248H558M76.61 25.44H558"/></g><g><g transform="matrix(.12 0 0 -.12 195.526 19.44)"><use xlink:href="#h"/><use x="68.393" xlink:href="#D"/><use x="123.373" xlink:href="#E"/><use x="162.582" xlink:href="#x"/><path d="M193.35 54.688h9.515L219.96 8.797l17.094 45.89h9.515L226.053 0H213.85z"/><use x="249.545" xlink:href="#y"/><use x="342.855" xlink:href="#F"/><path d="M452.086 66.219q-10.75 0-17.078-8.016-6.313-8-6.313-21.828 0-13.766 6.313-21.781 6.328-8 17.078-8 10.734 0 17.016 8 6.28 8.015 6.28 21.781 0 13.828-6.28 21.828-6.282 8.016-17.016 8.016zm0 8q15.328 0 24.5-10.281 9.187-10.282 9.187-27.563 0-17.234-9.187-27.516-9.172-10.28-24.5-10.28-15.375 0-24.594 10.25-9.203 10.265-9.203 27.546t9.203 27.563q9.219 10.28 24.594 10.28zM519.984 0l-27.828 72.906h10.297l23.11-61.375 23.14 61.375h10.25L531.172 0z"/><use x="559.783" xlink:href="#G"/><path d="M608.947 64.797V8.109h11.922q15.094 0 22.094 6.829 7 6.843 7 21.593 0 14.64-7 21.453-7 6.813-22.094 6.813zm-9.86 8.11h20.267q21.187 0 31.093-8.813 9.922-8.813 9.922-27.563 0-18.86-9.969-27.703Q640.447 0 619.354 0h-20.266z"/><use x="666.277" xlink:href="#H"/><use x="702.361" xlink:href="#m"/><use x="765.984" xlink:href="#l"/><use x="861.395" xlink:href="#D"/><use x="916.375" xlink:href="#d"/><use x="977.654" xlink:href="#I"/><use x="1029.754" xlink:href="#y"/><use x="1091.277" xlink:href="#I"/><use x="1175.164" xlink:href="#d"/><use x="1236.443" xlink:href="#I"/><use x="1320.33" xlink:href="#t"/><use x="1381.512" xlink:href="#J"/><use x="1448.504" xlink:href="#f"/><use x="1512.127" xlink:href="#g"/><use x="1575.75" xlink:href="#f"/><use x="1639.373" xlink:href="#g"/><use x="1702.996" xlink:href="#H"/><use x="1739.08" xlink:href="#g"/><use x="1802.703" xlink:href="#K"/><use x="1866.326" xlink:href="#H"/><use x="1902.41" xlink:href="#g"/><use x="1966.033" xlink:href="#K"/></g><path d="M83.61 106.83h227.06q2 0 2-2V32.44q0-2-2-2H83.61q-2 0-2 2v72.39q0 2 2 2z" fill="#fff" opacity=".8" stroke="#ccc" stroke-linejoin="miter"/><path d="M85.61 38.538h20" fill="none" stroke="#1f77b4" stroke-linecap="square" stroke-width="1.5"/><use fill="#1f77b4" stroke="#1f77b4" x="95.61" xlink:href="#z" y="38.538"/><g transform="matrix(.1 0 0 -.1 113.61 42.038)"><use xlink:href="#L"/><use x="73.193" xlink:href="#M"/><use x="168.457" xlink:href="#N"/><use x="207.471" xlink:href="#v"/><use x="270.947" xlink:href="#t"/><use x="332.129" xlink:href="#O"/><use x="395.508" xlink:href="#P"/><use x="458.984" xlink:href="#u"/><use x="486.768" xlink:href="#y"/><use x="548.291" xlink:href="#I"/><use x="632.178" xlink:href="#x"/><use x="659.961" xlink:href="#Q"/><use x="755.127" xlink:href="#o"/><use x="818.75" xlink:href="#n"/><use x="882.373" xlink:href="#R"/><use x="914.16" xlink:href="#n"/><use x="1009.57" xlink:href="#v"/><use x="1073.047" xlink:href="#d"/><use x="1134.326" xlink:href="#j"/><use x="1193.506" xlink:href="#I"/><use x="1245.605" xlink:href="#S"/></g><path d="M85.61 53.217h20" fill="none" stroke="#ff7f0e" stroke-linecap="square" stroke-width="1.5"/><use fill="#ff7f0e" stroke="#ff7f0e" x="95.61" xlink:href="#A" y="53.217"/><g transform="matrix(.1 0 0 -.1 113.61 56.717)"><use xlink:href="#L"/><use x="73.193" xlink:href="#Q"/><use x="136.572" xlink:href="#x"/><use x="164.355" xlink:href="#E"/><use x="203.564" xlink:href="#y"/><use x="265.088" xlink:href="#v"/><path d="M370.164 72.906h9.86V42.094l32.718 30.812h12.703l-36.187-33.984L428.023 0H415.04l-35.016 35.11V0h-9.859z"/><use x="425.928" xlink:href="#x"/><use x="453.711" xlink:href="#Q"/><path d="M562.496 27.984q0 9.766-4.031 15.125-4.016 5.375-11.297 5.375-7.219 0-11.25-5.375-4.031-5.359-4.031-15.125 0-9.718 4.031-15.093t11.25-5.375q7.281 0 11.297 5.375 4.031 5.375 4.031 15.093zm8.984-21.203q0-13.953-6.203-20.765-6.187-6.813-18.984-6.813-4.734 0-8.938.703-4.203.703-8.156 2.172v8.735q3.953-2.141 7.813-3.157 3.86-1.031 7.86-1.031 8.843 0 13.233 4.61 4.391 4.609 4.391 13.937v4.453q-2.781-4.844-7.125-7.234Q551.027 0 544.965 0q-10.047 0-16.203 7.656-6.157 7.672-6.157 20.328 0 12.688 6.157 20.344Q534.918 56 544.965 56q6.062 0 10.406-2.39 4.344-2.391 7.125-7.22v8.297h8.984z"/><use x="580.566" xlink:href="#v"/><use x="644.043" xlink:href="#t"/><path d="M757.225 44.188q3.375 6.062 8.062 8.937Q769.975 56 776.318 56q8.547 0 13.188-5.984 4.64-5.97 4.64-17V0h-9.03v32.719q0 7.86-2.798 11.656-2.78 3.813-8.484 3.813-6.984 0-11.047-4.641-4.047-4.625-4.047-12.64V0h-9.031v32.719q0 7.906-2.781 11.687-2.782 3.782-8.594 3.782-6.89 0-10.953-4.657-4.047-4.656-4.047-12.625V0h-9.031v54.688h9.031v-8.5q3.078 5.03 7.375 7.421Q735.006 56 740.912 56q5.969 0 10.14-3.031 4.173-3.016 6.173-8.782z"/><use x="834.424" xlink:href="#N"/><use x="873.438" xlink:href="#v"/><use x="936.914" xlink:href="#t"/><use x="998.096" xlink:href="#O"/><use x="1061.475" xlink:href="#P"/><use x="1124.951" xlink:href="#u"/><use x="1152.734" xlink:href="#y"/><use x="1214.258" xlink:href="#I"/><use x="1298.145" xlink:href="#x"/><use x="1325.928" xlink:href="#Q"/><use x="1421.094" xlink:href="#f"/><use x="1484.717" xlink:href="#l"/><use x="1548.34" xlink:href="#R"/><use x="1580.127" xlink:href="#n"/><use x="1675.537" xlink:href="#v"/><use x="1739.014" xlink:href="#d"/><use x="1800.293" xlink:href="#j"/><use x="1859.473" xlink:href="#I"/><use x="1911.572" xlink:href="#S"/></g><path d="M85.61 67.895h20" fill="none" stroke="#2ca02c" stroke-linecap="square" stroke-width="1.5"/><g transform="matrix(.1 0 0 -.1 113.61 71.395)"><use xlink:href="#G"/><use x="29.492" xlink:href="#E"/><use x="68.701" xlink:href="#d"/><use x="129.98" xlink:href="#u"/><use x="157.764" xlink:href="#j"/></g><path d="M85.61 82.573h20" fill="none" stroke="#d62728" stroke-linecap="square" stroke-width="1.5"/><use fill="#d62728" stroke="#d62728" x="95.61" xlink:href="#B" y="82.573"/><g transform="matrix(.1 0 0 -.1 113.61 86.073)"><path d="M9.813 72.906h41.89v-8.312H19.672V43.109h28.906v-8.297H19.672V0h-9.86z"/><use x="57.41" xlink:href="#e"/><use x="98.523" xlink:href="#d"/><use x="159.803" xlink:href="#Q"/><use x="223.182" xlink:href="#D"/><use x="278.162" xlink:href="#y"/></g><path d="M85.61 97.25h20" fill="none" stroke="#9467bd" stroke-linecap="square" stroke-width="1.5"/><use fill="#9467bd" stroke="#9467bd" x="95.61" xlink:href="#C" y="97.251"/><g transform="matrix(.1 0 0 -.1 113.61 100.75)"><use xlink:href="#M"/><use x="63.477" xlink:href="#i"/><use x="126.953" xlink:href="#d"/><use x="188.232" xlink:href="#x"/><use x="216.016" xlink:href="#Q"/></g><path d="M76.61 505.928H558V297.12H76.61z" fill="#fff"/><path clip-path="url(#T)" d="M76.61 505.928V297.12" fill="none" stroke="#b0b0b0" stroke-linecap="square" stroke-width=".8"/><use stroke="#000" stroke-width=".8" x="76.61" xlink:href="#b" y="505.928"/><g transform="matrix(.1 0 0 -.1 67.176 542.922)"><use xlink:href="#c"/><use x="86.279" xlink:href="#d"/><use x="147.559" xlink:href="#e"/></g><g transform="matrix(.1 0 0 -.1 63.885 554.12)"><use xlink:href="#f"/><use x="63.623" xlink:href="#g"/><use x="127.246" xlink:href="#f"/><use x="190.869" xlink:href="#g"/></g><path clip-path="url(#T)" d="M296.067 505.928V297.12" fill="none" stroke="#b0b0b0" stroke-linecap="square" stroke-width=".8"/><use stroke="#000" stroke-width=".8" x="296.067" xlink:href="#b" y="505.928"/><g transform="matrix(.1 0 0 -.1 287.417 542.922)"><use xlink:href="#h"/><use x="68.408" xlink:href="#i"/><use x="131.885" xlink:href="#e"/></g><path clip-path="url(#T)" d="M508.445 505.928V297.12" fill="none" stroke="#b0b0b0" stroke-linecap="square" stroke-width=".8"/><use stroke="#000" stroke-width=".8" x="508.445" xlink:href="#b" y="505.928"/><g transform="matrix(.1 0 0 -.1 498.108 542.922)"><use xlink:href="#c"/><use x="86.279" xlink:href="#d"/><use x="147.559" xlink:href="#j"/></g><g stroke-width=".8"><path clip-path="url(#T)" d="M558 505.928V297.12" fill="none" stroke="#b0b0b0" stroke-linecap="square"/><use stroke="#000" x="558" xlink:href="#b" y="505.928"/></g><use stroke="#000" stroke-width=".6" x="83.689" xlink:href="#k" y="505.928"/><g transform="matrix(.1 0 0 -.1 77.327 518.926)"><use xlink:href="#g"/><use x="63.623" xlink:href="#f"/></g><g stroke="#000" stroke-width=".6"><use x="90.769" xlink:href="#k" y="505.928"/><use x="97.848" xlink:href="#k" y="505.928"/><use x="104.927" xlink:href="#k" y="505.928"/><use x="112.006" xlink:href="#k" y="505.928"/><use x="119.086" xlink:href="#k" y="505.928"/><use x="126.165" xlink:href="#k" y="505.928"/></g><use stroke="#000" stroke-width=".6" x="133.244" xlink:href="#k" y="505.928"/><g transform="matrix(.1 0 0 -.1 126.882 518.926)"><use xlink:href="#g"/><use x="63.623" xlink:href="#l"/></g><g stroke="#000" stroke-width=".6"><use x="140.323" xlink:href="#k" y="505.928"/><use x="147.403" xlink:href="#k" y="505.928"/><use x="154.482" xlink:href="#k" y="505.928"/><use x="161.561" xlink:href="#k" y="505.928"/><use x="168.64" xlink:href="#k" y="505.928"/><use x="175.72" xlink:href="#k" y="505.928"/><use x="182.799" xlink:href="#k" y="505.928"/></g><g transform="matrix(.1 0 0 -.1 176.436 518.926)"><use xlink:href="#m"/><use x="63.623" xlink:href="#n"/></g><g stroke="#000" stroke-width=".6"><use x="189.878" xlink:href="#k" y="505.928"/><use x="196.958" xlink:href="#k" y="505.928"/><use x="204.037" xlink:href="#k" y="505.928"/><use x="211.116" xlink:href="#k" y="505.928"/><use x="218.195" xlink:href="#k" y="505.928"/><use x="225.275" xlink:href="#k" y="505.928"/><use x="232.354" xlink:href="#k" y="505.928"/></g><g transform="matrix(.1 0 0 -.1 225.991 518.926)"><use xlink:href="#f"/><use x="63.623" xlink:href="#o"/></g><g stroke="#000" stroke-width=".6"><use x="239.433" xlink:href="#k" y="505.928"/><use x="246.512" xlink:href="#k" y="505.928"/><use x="253.592" xlink:href="#k" y="505.928"/><use x="260.671" xlink:href="#k" y="505.928"/><use x="267.75" xlink:href="#k" y="505.928"/><use x="274.829" xlink:href="#k" y="505.928"/><use x="281.909" xlink:href="#k" y="505.928"/></g><g transform="matrix(.1 0 0 -.1 275.546 518.926)"><use xlink:href="#o"/><use x="63.623" xlink:href="#g"/></g><g stroke="#000" stroke-width=".6"><use x="288.988" xlink:href="#k" y="505.928"/><use x="303.146" xlink:href="#k" y="505.928"/><use x="310.226" xlink:href="#k" y="505.928"/><use x="317.305" xlink:href="#k" y="505.928"/><use x="324.384" xlink:href="#k" y="505.928"/><use x="331.464" xlink:href="#k" y="505.928"/></g><g transform="matrix(.1 0 0 -.1 325.101 518.926)"><use xlink:href="#g"/><use x="63.623" xlink:href="#n"/></g><g stroke="#000" stroke-width=".6"><use x="338.543" xlink:href="#k" y="505.928"/><use x="345.622" xlink:href="#k" y="505.928"/><use x="352.701" xlink:href="#k" y="505.928"/><use x="359.781" xlink:href="#k" y="505.928"/><use x="366.86" xlink:href="#k" y="505.928"/><use x="373.939" xlink:href="#k" y="505.928"/><use x="381.018" xlink:href="#k" y="505.928"/></g><g transform="matrix(.1 0 0 -.1 374.656 518.926)"><use xlink:href="#m"/><use x="63.623" xlink:href="#o"/></g><g stroke="#000" stroke-width=".6"><use x="388.098" xlink:href="#k" y="505.928"/><use x="395.177" xlink:href="#k" y="505.928"/><use x="402.256" xlink:href="#k" y="505.928"/><use x="409.335" xlink:href="#k" y="505.928"/><use x="416.415" xlink:href="#k" y="505.928"/><use x="423.494" xlink:href="#k" y="505.928"/><use x="430.573" xlink:href="#k" y="505.928"/></g><g transform="matrix(.1 0 0 -.1 424.21 518.926)"><use xlink:href="#f"/><use x="63.623" xlink:href="#g"/></g><g stroke="#000" stroke-width=".6"><use x="437.652" xlink:href="#k" y="505.928"/><use x="444.732" xlink:href="#k" y="505.928"/><use x="451.811" xlink:href="#k" y="505.928"/><use x="458.89" xlink:href="#k" y="505.928"/><use x="465.97" xlink:href="#k" y="505.928"/><use x="473.049" xlink:href="#k" y="505.928"/><use x="480.128" xlink:href="#k" y="505.928"/></g><g transform="matrix(.1 0 0 -.1 473.766 518.926)"><use xlink:href="#f"/><use x="63.623" xlink:href="#p"/></g><g stroke="#000" stroke-width=".6"><use x="487.207" xlink:href="#k" y="505.928"/><use x="494.287" xlink:href="#k" y="505.928"/><use x="501.366" xlink:href="#k" y="505.928"/><use x="515.524" xlink:href="#k" y="505.928"/><use x="522.604" xlink:href="#k" y="505.928"/><use x="529.683" xlink:href="#k" y="505.928"/></g><g transform="matrix(.1 0 0 -.1 523.32 518.926)"><use xlink:href="#g"/><use x="63.623" xlink:href="#q"/></g><g stroke="#000" stroke-width=".6"><use x="536.762" xlink:href="#k" y="505.928"/><use x="543.841" xlink:href="#k" y="505.928"/><use x="550.921" xlink:href="#k" y="505.928"/></g><path clip-path="url(#T)" d="M76.61 473.143H558" fill="none" stroke="#b0b0b0" stroke-linecap="square" stroke-width=".8"/><use stroke="#000" stroke-width=".8" x="76.61" xlink:href="#r" y="473.143"/><g transform="matrix(.1 0 0 -.1 37.797 476.942)"><use xlink:href="#K"/><use x="63.623" xlink:href="#g"/><use x="127.246" xlink:href="#g"/><use x="190.869" xlink:href="#g"/><use x="254.492" xlink:href="#g"/></g><path clip-path="url(#T)" d="M76.61 440.351H558" fill="none" stroke="#b0b0b0" stroke-linecap="square" stroke-width=".8"/><use stroke="#000" stroke-width=".8" x="76.61" xlink:href="#r" y="440.351"/><g transform="matrix(.1 0 0 -.1 31.435 444.15)"><use xlink:href="#m"/><use x="63.623" xlink:href="#g"/><use x="127.246" xlink:href="#g"/><use x="190.869" xlink:href="#g"/><use x="254.492" xlink:href="#g"/><use x="318.115" xlink:href="#g"/></g><path clip-path="url(#T)" d="M76.61 407.56H558" fill="none" stroke="#b0b0b0" stroke-linecap="square" stroke-width=".8"/><use stroke="#000" stroke-width=".8" x="76.61" xlink:href="#r" y="407.56"/><g transform="matrix(.1 0 0 -.1 31.435 411.36)"><use xlink:href="#m"/><use x="63.623" xlink:href="#K"/><use x="127.246" xlink:href="#g"/><use x="190.869" xlink:href="#g"/><use x="254.492" xlink:href="#g"/><use x="318.115" xlink:href="#g"/></g><path clip-path="url(#T)" d="M76.61 374.768H558" fill="none" stroke="#b0b0b0" stroke-linecap="square" stroke-width=".8"/><use stroke="#000" stroke-width=".8" x="76.61" xlink:href="#r" y="374.768"/><g transform="matrix(.1 0 0 -.1 31.435 378.568)"><use xlink:href="#f"/><use x="63.623" xlink:href="#g"/><use x="127.246" xlink:href="#g"/><use x="190.869" xlink:href="#g"/><use x="254.492" xlink:href="#g"/><use x="318.115" xlink:href="#g"/></g><path clip-path="url(#T)" d="M76.61 341.977H558" fill="none" stroke="#b0b0b0" stroke-linecap="square" stroke-width=".8"/><use stroke="#000" stroke-width=".8" x="76.61" xlink:href="#r" y="341.977"/><g transform="matrix(.1 0 0 -.1 31.435 345.776)"><use xlink:href="#f"/><use x="63.623" xlink:href="#K"/><use x="127.246" xlink:href="#g"/><use x="190.869" xlink:href="#g"/><use x="254.492" xlink:href="#g"/><use x="318.115" xlink:href="#g"/></g><path clip-path="url(#T)" d="M76.61 309.185H558" fill="none" stroke="#b0b0b0" stroke-linecap="square" stroke-width=".8"/><use stroke="#000" stroke-width=".8" x="76.61" xlink:href="#r" y="309.185"/><g transform="matrix(.1 0 0 -.1 31.435 312.985)"><use xlink:href="#o"/><use x="63.623" xlink:href="#g"/><use x="127.246" xlink:href="#g"/><use x="190.869" xlink:href="#g"/><use x="254.492" xlink:href="#g"/><use x="318.115" xlink:href="#g"/></g><g transform="matrix(0 -.1 -.1 0 25.355 408.358)"><use xlink:href="#L"/><use x="73.193" xlink:href="#M"/></g><g stroke="#1f77b4"><path clip-path="url(#T)" d="M-1 505.935h77.61l7.08-.001h7.079l7.079-.007 7.08-.008 7.078-.008 7.08-.026 7.079-.02 7.08-.024 7.078-.02 7.08-.03 7.079-.072 7.08-.06 7.078-.067 7.08-.136 7.079-.15 7.08-.482 7.078-.515 7.08-1.87 7.079-1.927 7.08-2.218 7.079-2.645 7.079-3.307 7.08-3.112 7.078-3.335 7.08-4.549 7.079-4.497 7.08-4.81 7.078-4.59 7.08-4.435 7.079-5.797 7.08-5.065 7.078-5.33 7.08-6.505 7.079-6.7 7.08-5.727 7.079-5.323 7.079-4.767 7.08-6.825 7.078-6.505 7.08-6.407 7.079-5.193 7.08-4.754 7.078-3.963 7.08-4.255 7.079-6.99 7.08-3.95 7.078-3.021 7.08-6.935 7.079-3.592 7.08-3.234 7.079-3.153 7.079-3.032 7.079.913 7.08-5.044 7.079-6.53 7.079-3.7 7.08-2.329 7.078-1.88 7.08-2.636 7.079-2.998 7.08-2.289 7.078-2.954 7.08-1.92 7.079-1.473 7.08-1.387" fill="none" stroke-linecap="square" stroke-width="1.5"/><g clip-path="url(#T)" fill="#1f77b4"><use x="-1" xlink:href="#z" y="505.935"/><use x="5.817" xlink:href="#z" y="505.935"/><use x="12.897" xlink:href="#z" y="505.935"/><use x="19.976" xlink:href="#z" y="505.935"/><use x="27.055" xlink:href="#z" y="505.935"/><use x="34.134" xlink:href="#z" y="505.935"/><use x="41.214" xlink:href="#z" y="505.935"/><use x="48.293" xlink:href="#z" y="505.935"/><use x="55.372" xlink:href="#z" y="505.935"/><use x="62.451" xlink:href="#z" y="505.935"/><use x="69.531" xlink:href="#z" y="505.935"/><use x="76.61" xlink:href="#z" y="505.935"/><use x="83.689" xlink:href="#z" y="505.934"/><use x="90.769" xlink:href="#z" y="505.933"/><use x="97.848" xlink:href="#z" y="505.927"/><use x="104.927" xlink:href="#z" y="505.919"/><use x="112.006" xlink:href="#z" y="505.911"/><use x="119.086" xlink:href="#z" y="505.885"/><use x="126.165" xlink:href="#z" y="505.865"/><use x="133.244" xlink:href="#z" y="505.841"/><use x="140.323" xlink:href="#z" y="505.821"/><use x="147.403" xlink:href="#z" y="505.79"/><use x="154.482" xlink:href="#z" y="505.719"/><use x="161.561" xlink:href="#z" y="505.658"/><use x="168.64" xlink:href="#z" y="505.592"/><use x="175.72" xlink:href="#z" y="505.456"/><use x="182.799" xlink:href="#z" y="505.307"/><use x="189.878" xlink:href="#z" y="504.824"/><use x="196.958" xlink:href="#z" y="504.309"/><use x="204.037" xlink:href="#z" y="502.438"/><use x="211.116" xlink:href="#z" y="500.512"/><use x="218.195" xlink:href="#z" y="498.294"/><use x="225.275" xlink:href="#z" y="495.649"/><use x="232.354" xlink:href="#z" y="492.342"/><use x="239.433" xlink:href="#z" y="489.23"/><use x="246.512" xlink:href="#z" y="485.895"/><use x="253.592" xlink:href="#z" y="481.346"/><use x="260.671" xlink:href="#z" y="476.849"/><use x="267.75" xlink:href="#z" y="472.04"/><use x="274.829" xlink:href="#z" y="467.448"/><use x="281.909" xlink:href="#z" y="463.014"/><use x="288.988" xlink:href="#z" y="457.217"/><use x="296.067" xlink:href="#z" y="452.152"/><use x="303.146" xlink:href="#z" y="446.823"/><use x="310.226" xlink:href="#z" y="440.317"/><use x="317.305" xlink:href="#z" y="433.617"/><use x="324.384" xlink:href="#z" y="427.89"/><use x="331.464" xlink:href="#z" y="422.567"/><use x="338.543" xlink:href="#z" y="417.8"/><use x="345.622" xlink:href="#z" y="410.975"/><use x="352.701" xlink:href="#z" y="404.47"/><use x="359.781" xlink:href="#z" y="398.063"/><use x="366.86" xlink:href="#z" y="392.87"/><use x="373.939" xlink:href="#z" y="388.116"/><use x="381.018" xlink:href="#z" y="384.153"/><use x="388.098" xlink:href="#z" y="379.898"/><use x="395.177" xlink:href="#z" y="372.908"/><use x="402.256" xlink:href="#z" y="368.958"/><use x="409.335" xlink:href="#z" y="365.937"/><use x="416.415" xlink:href="#z" y="359.002"/><use x="423.494" xlink:href="#z" y="355.41"/><use x="430.573" xlink:href="#z" y="352.176"/><use x="437.652" xlink:href="#z" y="349.023"/><use x="444.732" xlink:href="#z" y="345.991"/><use x="451.811" xlink:href="#z" y="346.904"/><use x="458.89" xlink:href="#z" y="341.86"/><use x="465.97" xlink:href="#z" y="335.331"/><use x="473.049" xlink:href="#z" y="331.631"/><use x="480.128" xlink:href="#z" y="329.301"/><use x="487.207" xlink:href="#z" y="327.421"/><use x="494.287" xlink:href="#z" y="324.785"/><use x="501.366" xlink:href="#z" y="321.787"/><use x="508.445" xlink:href="#z" y="319.498"/><use x="515.524" xlink:href="#z" y="316.544"/><use x="522.604" xlink:href="#z" y="314.624"/><use x="529.683" xlink:href="#z" y="313.151"/><use x="536.762" xlink:href="#z" y="311.764"/></g></g><g stroke="#ff7f0e"><path clip-path="url(#T)" d="M-1 505.935H97.848l7.08-.002h7.078l7.08-.001H133.245l7.078-.007 7.08-.005 7.079-.004h7.08l7.078-.026 7.08-.018 7.079-.052 7.08-.058h7.078l7.08-.308 7.079-.096 7.08-.283 7.079-.383 7.079-.605 7.08-.534 7.078-.465 7.08-1.61 7.079-1.26 7.08-1.487 7.078-1.47 7.08-2.107 7.079-1.306 7.08-2.276 7.078-2.068 7.08-2.752 7.079-2.642 7.08-2.171 7.079-2.295 7.079-2.03 7.08-1.804 7.078-2.22 7.08-2.189 7.079-2.172 7.08-2.316 7.078-1.732 7.08-2.544 7.079-1.216 7.08-2.574 7.078-1.855 7.08-1.786 7.079-2.354 7.08-2.155 7.079-2.235 7.079-2.053 7.079-2.515 7.08-1.256 7.079-2.014 7.079-2.306 7.08-1.34 7.078-1.489 7.08-1.43 7.079-1.2 7.08-1.46 7.078-1.524 7.08-1.901 7.079-.975 7.08-1.305" fill="none" stroke-linecap="square" stroke-width="1.5"/><g clip-path="url(#T)" fill="#ff7f0e"><use x="-1" xlink:href="#A" y="505.935"/><use x="5.817" xlink:href="#A" y="505.935"/><use x="12.897" xlink:href="#A" y="505.935"/><use x="19.976" xlink:href="#A" y="505.935"/><use x="27.055" xlink:href="#A" y="505.935"/><use x="34.134" xlink:href="#A" y="505.935"/><use x="41.214" xlink:href="#A" y="505.935"/><use x="48.293" xlink:href="#A" y="505.935"/><use x="55.372" xlink:href="#A" y="505.935"/><use x="62.451" xlink:href="#A" y="505.935"/><use x="69.531" xlink:href="#A" y="505.935"/><use x="76.61" xlink:href="#A" y="505.935"/><use x="83.689" xlink:href="#A" y="505.935"/><use x="90.769" xlink:href="#A" y="505.935"/><use x="97.848" xlink:href="#A" y="505.935"/><use x="104.927" xlink:href="#A" y="505.933"/><use x="112.006" xlink:href="#A" y="505.933"/><use x="119.086" xlink:href="#A" y="505.932"/><use x="126.165" xlink:href="#A" y="505.931"/><use x="133.244" xlink:href="#A" y="505.931"/><use x="140.323" xlink:href="#A" y="505.925"/><use x="147.403" xlink:href="#A" y="505.92"/><use x="154.482" xlink:href="#A" y="505.916"/><use x="161.561" xlink:href="#A" y="505.916"/><use x="168.64" xlink:href="#A" y="505.89"/><use x="175.72" xlink:href="#A" y="505.872"/><use x="182.799" xlink:href="#A" y="505.82"/><use x="189.878" xlink:href="#A" y="505.762"/><use x="196.958" xlink:href="#A" y="505.761"/><use x="204.037" xlink:href="#A" y="505.454"/><use x="211.116" xlink:href="#A" y="505.358"/><use x="218.195" xlink:href="#A" y="505.075"/><use x="225.275" xlink:href="#A" y="504.692"/><use x="232.354" xlink:href="#A" y="504.087"/><use x="239.433" xlink:href="#A" y="503.553"/><use x="246.512" xlink:href="#A" y="503.088"/><use x="253.592" xlink:href="#A" y="501.478"/><use x="260.671" xlink:href="#A" y="500.218"/><use x="267.75" xlink:href="#A" y="498.731"/><use x="274.829" xlink:href="#A" y="497.261"/><use x="281.909" xlink:href="#A" y="495.154"/><use x="288.988" xlink:href="#A" y="493.848"/><use x="296.067" xlink:href="#A" y="491.572"/><use x="303.146" xlink:href="#A" y="489.504"/><use x="310.226" xlink:href="#A" y="486.752"/><use x="317.305" xlink:href="#A" y="484.11"/><use x="324.384" xlink:href="#A" y="481.939"/><use x="331.464" xlink:href="#A" y="479.644"/><use x="338.543" xlink:href="#A" y="477.613"/><use x="345.622" xlink:href="#A" y="475.81"/><use x="352.701" xlink:href="#A" y="473.59"/><use x="359.781" xlink:href="#A" y="471.401"/><use x="366.86" xlink:href="#A" y="469.229"/><use x="373.939" xlink:href="#A" y="466.913"/><use x="381.018" xlink:href="#A" y="465.181"/><use x="388.098" xlink:href="#A" y="462.637"/><use x="395.177" xlink:href="#A" y="461.421"/><use x="402.256" xlink:href="#A" y="458.847"/><use x="409.335" xlink:href="#A" y="456.992"/><use x="416.415" xlink:href="#A" y="455.206"/><use x="423.494" xlink:href="#A" y="452.852"/><use x="430.573" xlink:href="#A" y="450.697"/><use x="437.652" xlink:href="#A" y="448.462"/><use x="444.732" xlink:href="#A" y="446.409"/><use x="451.811" xlink:href="#A" y="443.894"/><use x="458.89" xlink:href="#A" y="442.638"/><use x="465.97" xlink:href="#A" y="440.624"/><use x="473.049" xlink:href="#A" y="438.318"/><use x="480.128" xlink:href="#A" y="436.978"/><use x="487.207" xlink:href="#A" y="435.489"/><use x="494.287" xlink:href="#A" y="434.059"/><use x="501.366" xlink:href="#A" y="432.859"/><use x="508.445" xlink:href="#A" y="431.398"/><use x="515.524" xlink:href="#A" y="429.875"/><use x="522.604" xlink:href="#A" y="427.974"/><use x="529.683" xlink:href="#A" y="426.999"/><use x="536.762" xlink:href="#A" y="425.694"/></g></g><path clip-path="url(#T)" d="M-1 505.934H104.928l7.078-.003h7.08l7.079-.012h7.08l7.078-.044 7.08-.002 7.079-.009 7.08-.01 7.078-.01 7.08-.016 7.079-.022 7.08-.014h7.078l7.08-.073 7.079-.055 7.08-.073 7.079-.077 7.079-.083 7.08-.25 7.078-.442 7.08-.373 7.079-.533 7.08-.661 7.078-.456 7.08-.517 7.079-.548 7.08-.711 7.078-.785 7.08-.916 7.079-.86 7.08-.49 7.079-.859 7.079-.832 7.08-.99 7.078-1.366 7.08-1.27 7.079-1.18 7.08-1.669 7.078-.855 7.08-.85 7.079-.978 7.08-1.484 7.078-1.367 7.08-1.188 7.079-.92h7.08l7.079-1.88 7.079-1 7.079-1.902 7.08-3.115 7.079-1.446 7.079-.932 7.08-.931 7.078-1.109 7.08-1.122 7.079-1.17 7.08-1.28 7.078-1.194 7.08-1.093 7.079-.6 7.08-.696" fill="none" stroke="#2ca02c" stroke-linecap="square" stroke-width="1.5"/><g stroke="#d62728"><path clip-path="url(#T)" d="M-1 505.935h70.531l7.079-.001h21.238l7.08-.001h7.078l7.08-.001H133.245l7.078-.004 7.08-.009 7.079-.004 7.08-.01 7.078-.011 7.08-.02 7.079-.007 7.08-.036 7.078-.002 7.08-.169 7.079-.106 7.08-.11 7.079-.192 7.079-.152 7.08-.163 7.078-.213 7.08-.437 7.079-.313 7.08-.298 7.078-.712 7.08-.297 7.079-.599 7.08-.619 7.078-.454 7.08-.762 7.079-.93 7.08-.573 7.079-.636 7.079-.005 7.08-1.74h7.078l7.08-1.754 7.079-.795 7.08-1.069 7.078-.718 7.08-.756 7.079-.829 7.08-.668 7.078-1.17 7.08-.954 7.079-.764 7.08-.72 7.079-.936 7.079-1.28 7.079-1.119 7.08-1.714 7.079-1.337 7.079-1.357 7.08-1.265 7.078-1.363 7.08-1.42 7.079-1.587 7.08-1.99 7.078-1.54 7.08-1.925 7.079-1.467 7.08-1.27" fill="none" stroke-linecap="square" stroke-width="1.5"/><g clip-path="url(#T)" fill="#d62728"><use x="-1" xlink:href="#B" y="505.935"/><use x="5.817" xlink:href="#B" y="505.935"/><use x="12.897" xlink:href="#B" y="505.935"/><use x="19.976" xlink:href="#B" y="505.935"/><use x="27.055" xlink:href="#B" y="505.935"/><use x="34.134" xlink:href="#B" y="505.935"/><use x="41.214" xlink:href="#B" y="505.935"/><use x="48.293" xlink:href="#B" y="505.935"/><use x="55.372" xlink:href="#B" y="505.935"/><use x="62.451" xlink:href="#B" y="505.935"/><use x="69.531" xlink:href="#B" y="505.935"/><use x="76.61" xlink:href="#B" y="505.934"/><use x="83.689" xlink:href="#B" y="505.933"/><use x="90.769" xlink:href="#B" y="505.933"/><use x="97.848" xlink:href="#B" y="505.933"/><use x="104.927" xlink:href="#B" y="505.933"/><use x="112.006" xlink:href="#B" y="505.933"/><use x="119.086" xlink:href="#B" y="505.932"/><use x="126.165" xlink:href="#B" y="505.931"/><use x="133.244" xlink:href="#B" y="505.931"/><use x="140.323" xlink:href="#B" y="505.928"/><use x="147.403" xlink:href="#B" y="505.919"/><use x="154.482" xlink:href="#B" y="505.915"/><use x="161.561" xlink:href="#B" y="505.906"/><use x="168.64" xlink:href="#B" y="505.894"/><use x="175.72" xlink:href="#B" y="505.875"/><use x="182.799" xlink:href="#B" y="505.867"/><use x="189.878" xlink:href="#B" y="505.831"/><use x="196.958" xlink:href="#B" y="505.829"/><use x="204.037" xlink:href="#B" y="505.66"/><use x="211.116" xlink:href="#B" y="505.554"/><use x="218.195" xlink:href="#B" y="505.445"/><use x="225.275" xlink:href="#B" y="505.252"/><use x="232.354" xlink:href="#B" y="505.1"/><use x="239.433" xlink:href="#B" y="504.937"/><use x="246.512" xlink:href="#B" y="504.724"/><use x="253.592" xlink:href="#B" y="504.287"/><use x="260.671" xlink:href="#B" y="503.974"/><use x="267.75" xlink:href="#B" y="503.676"/><use x="274.829" xlink:href="#B" y="502.964"/><use x="281.909" xlink:href="#B" y="502.667"/><use x="288.988" xlink:href="#B" y="502.068"/><use x="296.067" xlink:href="#B" y="501.449"/><use x="303.146" xlink:href="#B" y="500.995"/><use x="310.226" xlink:href="#B" y="500.233"/><use x="317.305" xlink:href="#B" y="499.302"/><use x="324.384" xlink:href="#B" y="498.73"/><use x="331.464" xlink:href="#B" y="498.094"/><use x="338.543" xlink:href="#B" y="498.089"/><use x="345.622" xlink:href="#B" y="496.349"/><use x="352.701" xlink:href="#B" y="496.348"/><use x="359.781" xlink:href="#B" y="494.595"/><use x="366.86" xlink:href="#B" y="493.8"/><use x="373.939" xlink:href="#B" y="492.731"/><use x="381.018" xlink:href="#B" y="492.013"/><use x="388.098" xlink:href="#B" y="491.257"/><use x="395.177" xlink:href="#B" y="490.428"/><use x="402.256" xlink:href="#B" y="489.76"/><use x="409.335" xlink:href="#B" y="488.59"/><use x="416.415" xlink:href="#B" y="487.636"/><use x="423.494" xlink:href="#B" y="486.872"/><use x="430.573" xlink:href="#B" y="486.152"/><use x="437.652" xlink:href="#B" y="485.216"/><use x="444.732" xlink:href="#B" y="483.937"/><use x="451.811" xlink:href="#B" y="482.817"/><use x="458.89" xlink:href="#B" y="481.103"/><use x="465.97" xlink:href="#B" y="479.766"/><use x="473.049" xlink:href="#B" y="478.409"/><use x="480.128" xlink:href="#B" y="477.144"/><use x="487.207" xlink:href="#B" y="475.781"/><use x="494.287" xlink:href="#B" y="474.361"/><use x="501.366" xlink:href="#B" y="472.774"/><use x="508.445" xlink:href="#B" y="470.783"/><use x="515.524" xlink:href="#B" y="469.243"/><use x="522.604" xlink:href="#B" y="467.319"/><use x="529.683" xlink:href="#B" y="465.852"/><use x="536.762" xlink:href="#B" y="464.581"/></g></g><g stroke="#9467bd"><path clip-path="url(#T)" d="M-1 505.93h6.817l7.08-.004H27.056l7.078.003H62.451l7.08-.001h7.079l7.08-.006 7.079-.003 7.079-.005 7.08-.01 7.078-.006 7.08-.015 7.079-.01 7.08-.005 7.078-.025 7.08-.021 7.079-.026 7.08-.04 7.078-.037 7.08-.056 7.079-.085 7.08-.09 7.078-.037 7.08-.129 7.079-.144 7.08-.122 7.079-.181 7.079-.297 7.08-.275 7.078-.292 7.08-.58 7.079-.489 7.08-.277 7.078-.487 7.08-.829 7.079-.685 7.08-.763 7.078-.876 7.08-.79 7.079-.53 7.08-1.402 7.079-.625 7.079-.84 7.08-.972 7.078-.501 7.08-.874 7.079-.396 7.08-.69 7.078-.697 7.08-.9 7.079-.81 7.08-.588 7.078-.917 7.08-.808 7.079-.592 7.08-1.447 7.079-1.13 7.079-1.14 7.079-1.381 7.08-1.12 7.079-.619 7.079-.757 7.08-.888 7.078-.73 7.08-1.64 7.079-.851 7.08-1.181 7.078-.831 7.08-.997 7.079-.603 7.08-1.62" fill="none" stroke-linecap="square" stroke-width="1.5"/><g clip-path="url(#T)" fill="#9467bd"><use x="-1" xlink:href="#C" y="505.929"/><use x="5.817" xlink:href="#C" y="505.929"/><use x="12.897" xlink:href="#C" y="505.926"/><use x="19.976" xlink:href="#C" y="505.926"/><use x="27.055" xlink:href="#C" y="505.926"/><use x="34.134" xlink:href="#C" y="505.929"/><use x="41.214" xlink:href="#C" y="505.929"/><use x="48.293" xlink:href="#C" y="505.929"/><use x="55.372" xlink:href="#C" y="505.929"/><use x="62.451" xlink:href="#C" y="505.929"/><use x="69.531" xlink:href="#C" y="505.928"/><use x="76.61" xlink:href="#C" y="505.928"/><use x="83.689" xlink:href="#C" y="505.922"/><use x="90.769" xlink:href="#C" y="505.919"/><use x="97.848" xlink:href="#C" y="505.914"/><use x="104.927" xlink:href="#C" y="505.903"/><use x="112.006" xlink:href="#C" y="505.898"/><use x="119.086" xlink:href="#C" y="505.883"/><use x="126.165" xlink:href="#C" y="505.872"/><use x="133.244" xlink:href="#C" y="505.868"/><use x="140.323" xlink:href="#C" y="505.843"/><use x="147.403" xlink:href="#C" y="505.822"/><use x="154.482" xlink:href="#C" y="505.796"/><use x="161.561" xlink:href="#C" y="505.756"/><use x="168.64" xlink:href="#C" y="505.719"/><use x="175.72" xlink:href="#C" y="505.663"/><use x="182.799" xlink:href="#C" y="505.578"/><use x="189.878" xlink:href="#C" y="505.489"/><use x="196.958" xlink:href="#C" y="505.451"/><use x="204.037" xlink:href="#C" y="505.322"/><use x="211.116" xlink:href="#C" y="505.178"/><use x="218.195" xlink:href="#C" y="505.056"/><use x="225.275" xlink:href="#C" y="504.875"/><use x="232.354" xlink:href="#C" y="504.578"/><use x="239.433" xlink:href="#C" y="504.303"/><use x="246.512" xlink:href="#C" y="504.011"/><use x="253.592" xlink:href="#C" y="503.431"/><use x="260.671" xlink:href="#C" y="502.942"/><use x="267.75" xlink:href="#C" y="502.665"/><use x="274.829" xlink:href="#C" y="502.178"/><use x="281.909" xlink:href="#C" y="501.349"/><use x="288.988" xlink:href="#C" y="500.664"/><use x="296.067" xlink:href="#C" y="499.901"/><use x="303.146" xlink:href="#C" y="499.025"/><use x="310.226" xlink:href="#C" y="498.236"/><use x="317.305" xlink:href="#C" y="497.705"/><use x="324.384" xlink:href="#C" y="496.303"/><use x="331.464" xlink:href="#C" y="495.678"/><use x="338.543" xlink:href="#C" y="494.839"/><use x="345.622" xlink:href="#C" y="493.866"/><use x="352.701" xlink:href="#C" y="493.365"/><use x="359.781" xlink:href="#C" y="492.491"/><use x="366.86" xlink:href="#C" y="492.095"/><use x="373.939" xlink:href="#C" y="491.405"/><use x="381.018" xlink:href="#C" y="490.708"/><use x="388.098" xlink:href="#C" y="489.808"/><use x="395.177" xlink:href="#C" y="488.997"/><use x="402.256" xlink:href="#C" y="488.41"/><use x="409.335" xlink:href="#C" y="487.493"/><use x="416.415" xlink:href="#C" y="486.685"/><use x="423.494" xlink:href="#C" y="486.093"/><use x="430.573" xlink:href="#C" y="484.646"/><use x="437.652" xlink:href="#C" y="483.516"/><use x="444.732" xlink:href="#C" y="482.375"/><use x="451.811" xlink:href="#C" y="480.995"/><use x="458.89" xlink:href="#C" y="479.876"/><use x="465.97" xlink:href="#C" y="479.256"/><use x="473.049" xlink:href="#C" y="478.499"/><use x="480.128" xlink:href="#C" y="477.611"/><use x="487.207" xlink:href="#C" y="476.881"/><use x="494.287" xlink:href="#C" y="475.241"/><use x="501.366" xlink:href="#C" y="474.39"/><use x="508.445" xlink:href="#C" y="473.209"/><use x="515.524" xlink:href="#C" y="472.378"/><use x="522.604" xlink:href="#C" y="471.381"/><use x="529.683" xlink:href="#C" y="470.778"/><use x="536.762" xlink:href="#C" y="469.159"/></g></g><g fill="none" stroke-dasharray="1.5 2.475" stroke-width="1.5"><path clip-path="url(#T)" d="M536.762 311.764l7.08-1.554 7.079-1.567 7.079-1.58" stroke="#1f77b4"/><path clip-path="url(#T)" d="M536.762 425.694l7.08-1.355 7.079-1.379 7.079-1.402" stroke="#ff7f0e"/><path clip-path="url(#T)" d="M536.762 462.611l7.08-.771 7.079-.785 7.079-.8" stroke="#2ca02c"/><path clip-path="url(#T)" d="M536.762 464.581l7.08-1.586 7.079-1.648 7.079-1.71" stroke="#d62728"/><path clip-path="url(#T)" d="M536.762 469.159l7.08-1.186 7.079-1.225 7.079-1.264" stroke="#9467bd"/></g></g><g fill="none" stroke="#000" stroke-linecap="square" stroke-linejoin="miter" stroke-width=".8"><path d="M76.61 505.928V297.12M558 505.928V297.12M76.61 505.928H558M76.61 297.12H558"/></g><g><path d="M83.61 378.51h220.684q2 0 2-2v-72.39q0-2-2-2H83.61q-2 0-2 2v72.39q0 2 2 2z" fill="#fff" opacity=".8" stroke="#ccc" stroke-linejoin="miter"/><path d="M85.61 310.218h20" fill="none" stroke="#1f77b4" stroke-linecap="square" stroke-width="1.5"/><use fill="#1f77b4" stroke="#1f77b4" x="95.61" xlink:href="#z" y="310.218"/><g transform="matrix(.1 0 0 -.1 113.61 313.718)"><use xlink:href="#U"/><use x="74.805" xlink:href="#y"/><use x="136.328" xlink:href="#w"/><path d="M249.7 72.906h10.609l20.203-29.984 20.078 29.984h10.594L285.402 34.72V0h-9.906v34.719z"/><use x="310.783" xlink:href="#t"/><use x="371.965" xlink:href="#e"/><path d="M422.156 75.984h9.031V31.11L458 54.687h11.469l-29-25.578L470.703 0h-11.719l-27.796 26.703V0h-9.032z"/></g><path d="M85.61 324.897h20" fill="none" stroke="#ff7f0e" stroke-linecap="square" stroke-width="1.5"/><use fill="#ff7f0e" stroke="#ff7f0e" x="95.61" xlink:href="#A" y="324.897"/><g transform="matrix(.1 0 0 -.1 113.61 328.397)"><use xlink:href="#U"/><use x="74.805" xlink:href="#y"/><use x="136.328" xlink:href="#w"/><path d="M259.715 72.906h9.86V5.078q0-13.187-5-19.14-5-5.954-16.095-5.954h-3.75v8.297h3.079q6.53 0 9.218 3.672 2.688 3.656 2.688 13.125z"/><use x="279.395" xlink:href="#y"/><use x="340.918" xlink:href="#e"/><use x="382.031" xlink:href="#I"/><use x="434.131" xlink:href="#y"/><use x="495.654" xlink:href="#j"/></g><path d="M85.61 339.575h20" fill="none" stroke="#2ca02c" stroke-linecap="square" stroke-width="1.5"/><g transform="matrix(.1 0 0 -.1 113.61 343.075)"><use xlink:href="#c"/><use x="86.279" xlink:href="#d"/><use x="147.559" xlink:href="#I"/><use x="199.658" xlink:href="#I"/><use x="251.758" xlink:href="#d"/><use x="313.037" xlink:href="#D"/><path d="M422.908 33.016V0h-8.984v32.719q0 7.765-3.031 11.61-3.032 3.858-9.079 3.858-7.28 0-11.484-4.64-4.203-4.625-4.203-12.64V0h-9.031v75.984h9.031V46.188q3.234 4.937 7.594 7.374Q398.096 56 403.814 56q9.422 0 14.25-5.828 4.844-5.828 4.844-17.156z"/><use x="431.396" xlink:href="#O"/><use x="494.775" xlink:href="#I"/><use x="546.875" xlink:href="#y"/><use x="608.398" xlink:href="#E"/><use x="647.607" xlink:href="#E"/><use x="686.816" xlink:href="#I"/><use x="770.703" xlink:href="#N"/><use x="809.717" xlink:href="#v"/><use x="873.193" xlink:href="#t"/><use x="934.375" xlink:href="#O"/><use x="997.754" xlink:href="#P"/><use x="1061.23" xlink:href="#u"/><use x="1089.014" xlink:href="#y"/><use x="1150.537" xlink:href="#I"/><use x="1234.424" xlink:href="#x"/><use x="1262.207" xlink:href="#Q"/><use x="1357.373" xlink:href="#o"/><use x="1420.996" xlink:href="#l"/><use x="1484.619" xlink:href="#R"/><use x="1516.406" xlink:href="#o"/><use x="1611.816" xlink:href="#v"/><use x="1675.293" xlink:href="#d"/><use x="1736.572" xlink:href="#j"/><use x="1795.752" xlink:href="#I"/><use x="1847.852" xlink:href="#S"/></g><path d="M85.61 354.253h20" fill="none" stroke="#d62728" stroke-linecap="square" stroke-width="1.5"/><use fill="#d62728" stroke="#d62728" x="95.61" xlink:href="#B" y="354.253"/><g transform="matrix(.1 0 0 -.1 113.61 357.753)"><use xlink:href="#G"/><use x="29.492" xlink:href="#u"/><use x="57.275" xlink:href="#u"/><use x="85.059" xlink:href="#x"/><use x="112.842" xlink:href="#Q"/><use x="176.221" xlink:href="#t"/><use x="237.402" xlink:href="#x"/><use x="265.186" xlink:href="#I"/><use x="349.072" xlink:href="#N"/><use x="388.086" xlink:href="#v"/><use x="451.563" xlink:href="#t"/><use x="512.744" xlink:href="#O"/><use x="576.123" xlink:href="#P"/><use x="639.6" xlink:href="#u"/><use x="667.383" xlink:href="#y"/><use x="728.906" xlink:href="#I"/><use x="812.793" xlink:href="#x"/><use x="840.576" xlink:href="#Q"/><use x="935.742" xlink:href="#m"/><use x="999.365" xlink:href="#s"/><use x="1062.988" xlink:href="#R"/><use x="1094.775" xlink:href="#q"/><use x="1190.186" xlink:href="#v"/><use x="1253.662" xlink:href="#d"/><use x="1314.941" xlink:href="#j"/><use x="1374.121" xlink:href="#I"/><use x="1426.221" xlink:href="#S"/></g><path d="M85.61 368.93h20" fill="none" stroke="#9467bd" stroke-linecap="square" stroke-width="1.5"/><use fill="#9467bd" stroke="#9467bd" x="95.61" xlink:href="#C" y="368.931"/><g transform="matrix(.1 0 0 -.1 113.61 372.43)"><use xlink:href="#F"/><use x="69.824" xlink:href="#d"/><use x="131.104" xlink:href="#u"/><use x="158.887" xlink:href="#x"/><use x="186.67" xlink:href="#J"/><use x="221.875" xlink:href="#t"/><use x="283.057" xlink:href="#e"/><use x="324.154" xlink:href="#Q"/><use x="387.533" xlink:href="#x"/><use x="415.316" xlink:href="#d"/><use x="508.383" xlink:href="#N"/><use x="547.396" xlink:href="#v"/><use x="610.873" xlink:href="#t"/><use x="672.055" xlink:href="#O"/><use x="735.434" xlink:href="#P"/><use x="798.91" xlink:href="#u"/><use x="826.693" xlink:href="#y"/><use x="888.217" xlink:href="#I"/><use x="972.104" xlink:href="#x"/><use x="999.887" xlink:href="#Q"/><use x="1095.053" xlink:href="#f"/><use x="1158.676" xlink:href="#m"/><use x="1222.299" xlink:href="#R"/><use x="1254.086" xlink:href="#s"/><use x="1349.496" xlink:href="#v"/><use x="1412.973" xlink:href="#d"/><use x="1474.252" xlink:href="#j"/><use x="1533.432" xlink:href="#I"/><use x="1585.531" xlink:href="#S"/></g></g></svg>