<svg height="758.4" stroke-linejoin="round" viewBox="0 0 568.8 568.8" width="758.4" xmlns="http://www.w3.org/2000/svg" xmlns:xlink="http://www.w3.org/1999/xlink"><defs><path id="x" d="M0 1.5a1.5 1.5 0 100-3 1.5 1.5 0 000 3z" stroke="#9467bd" stroke-linejoin="round"/><path id="V" d="M54.89 33.016V0h-8.984v32.719q0 7.765-3.031 11.61-3.031 3.858-9.078 3.858-7.281 0-11.484-4.64-4.204-4.625-4.204-12.64V0H9.08v75.984h9.03V46.188q3.235 4.937 7.594 7.374Q30.078 56 35.797 56q9.422 0 14.25-5.828 4.844-5.828 4.844-17.156z" stroke-linejoin="round"/><path id="b" d="M0 0v3.5" stroke="#000" stroke-linejoin="round" stroke-width=".8"/><path id="c" d="M12.406 8.297h16.11v55.625l-17.532-3.516v8.985l17.438 3.515h9.86V8.296H54.39V0H12.406z" stroke-linejoin="round"/><path id="d" d="M33.016 40.375q-6.641 0-10.532-4.547-3.875-4.531-3.875-12.437 0-7.86 3.875-12.438 3.891-4.562 10.532-4.562 6.64 0 10.515 4.562 3.875 4.578 3.875 12.438 0 7.906-3.875 12.437-3.875 4.547-10.515 4.547zm19.578 30.922v-8.984q-3.719 1.75-7.5 2.671-3.782.938-7.5.938-9.766 0-14.922-6.594-5.14-6.594-5.875-19.922 2.875 4.25 7.219 6.516 4.359 2.266 9.578 2.266 10.984 0 17.36-6.672 6.374-6.657 6.374-18.125 0-11.235-6.64-18.032-6.641-6.78-17.672-6.78-12.657 0-19.344 9.687-6.688 9.703-6.688 28.109 0 17.281 8.204 27.563 8.203 10.28 22.015 10.28 3.719 0 7.5-.734t7.89-2.187z" stroke-linejoin="round"/><path id="e" d="M34.188 63.188L20.797 26.906h26.812zm-5.579 9.718h11.188L67.578 0h-10.25l-6.64 18.703h-32.86L11.188 0H.78z" stroke-linejoin="round"/><path id="f" d="M18.11 8.203v-29H9.077v75.484h9.031v-8.296q2.844 4.875 7.157 7.234Q29.594 56 35.594 56q9.968 0 16.187-7.906 6.235-7.907 6.235-20.797T51.78 6.484q-6.218-7.906-16.187-7.906-6 0-10.328 2.375-4.313 2.375-7.157 7.25zm30.578 19.094q0 9.906-4.079 15.547-4.078 5.64-11.203 5.64-7.14 0-11.218-5.64-4.079-5.64-4.079-15.547 0-9.906 4.078-15.547 4.079-5.64 11.22-5.64 7.124 0 11.202 5.64t4.078 15.547z" stroke-linejoin="round"/><path id="g" d="M41.11 46.297q-1.516.875-3.297 1.281Q36.03 48 33.89 48q-7.625 0-11.703-4.953-4.079-4.953-4.079-14.234V0H9.08v54.688h9.03v-8.5q2.844 4.984 7.375 7.39Q30.031 56 36.531 56q.922 0 2.047-.125 1.125-.11 2.484-.36z" stroke-linejoin="round"/><path id="h" d="M19.188 8.297h34.421V0H7.33v8.297q5.609 5.812 15.296 15.594 9.703 9.797 12.188 12.64 4.734 5.313 6.609 9 1.89 3.688 1.89 7.25 0 5.813-4.078 9.469-4.078 3.672-10.625 3.672-4.64 0-9.797-1.61-5.14-1.609-11-4.89v9.969Q13.767 71.78 18.938 73q5.188 1.219 9.485 1.219 11.328 0 18.062-5.672 6.735-5.656 6.735-15.125 0-4.5-1.688-8.531-1.672-4.016-6.125-9.485-1.218-1.422-7.765-8.187-6.532-6.766-18.453-18.922z" stroke-linejoin="round"/><path id="i" d="M31.781 66.406q-7.61 0-11.453-7.5Q16.5 51.422 16.5 36.375q0-14.984 3.828-22.484 3.844-7.5 11.453-7.5 7.672 0 11.5 7.5 3.844 7.5 3.844 22.484 0 15.047-3.844 22.531-3.828 7.5-11.5 7.5zm0 7.813q12.266 0 18.735-9.703 6.468-9.688 6.468-28.141 0-18.406-6.468-28.11-6.47-9.687-18.735-9.687-12.25 0-18.718 9.688-6.47 9.703-6.47 28.109 0 18.453 6.47 28.14Q19.53 74.22 31.78 74.22z" stroke-linejoin="round"/><path id="j" d="M0 0v2" stroke="#000" stroke-linejoin="round" stroke-width=".6"/><path id="k" d="M40.578 39.313Q47.656 37.797 51.625 33q3.984-4.781 3.984-11.813 0-10.78-7.422-16.703-7.421-5.906-21.093-5.906-4.578 0-9.438.906-4.86.907-10.031 2.72v9.515q4.094-2.39 8.969-3.61 4.89-1.218 10.218-1.218 9.266 0 14.125 3.656 4.86 3.656 4.86 10.64 0 6.454-4.516 10.079-4.515 3.64-12.562 3.64h-8.5v8.11h8.89q7.266 0 11.125 2.906 3.86 2.906 3.86 8.375 0 5.61-3.985 8.61-3.968 3.015-11.39 3.015-4.063 0-8.703-.89-4.641-.876-10.203-2.72v8.782q5.624 1.562 10.53 2.344 4.907.78 9.25.78 11.235 0 17.766-5.109 6.547-5.093 6.547-13.78 0-6.063-3.468-10.235-3.47-4.172-9.86-5.782z" stroke-linejoin="round"/><path id="l" d="M0 0h-3.5" stroke="#000" stroke-linejoin="round" stroke-width=".8"/><path id="m" d="M37.797 64.313L12.89 25.39h24.906zm-2.594 8.593H47.61V25.391h10.407v-8.203H47.609V0h-9.812v17.188H4.89v9.515z" stroke-linejoin="round"/><path id="n" d="M10.797 72.906h38.719v-8.312H19.828v-17.86q2.14.735 4.281 1.094 2.157.36 4.313.36 12.203 0 19.328-6.688 7.14-6.688 7.14-18.11 0-11.765-7.328-18.296-7.328-6.516-20.656-6.516-4.593 0-9.36.781-4.75.782-9.827 2.344v9.922q4.39-2.39 9.078-3.563 4.687-1.171 9.906-1.171 8.453 0 13.375 4.437 4.938 4.438 4.938 12.063 0 7.609-4.938 12.047-4.922 4.453-13.375 4.453-3.953 0-7.89-.875-3.922-.875-8.016-2.735z" stroke-linejoin="round"/><path id="o" d="M30.61 48.39q-7.22 0-11.422-5.64-4.204-5.64-4.204-15.453 0-9.813 4.172-15.453 4.188-5.64 11.453-5.64 7.188 0 11.375 5.655 4.203 5.672 4.203 15.438 0 9.719-4.203 15.406-4.187 5.688-11.375 5.688zm0 7.61q11.718 0 18.406-7.625 6.703-7.61 6.703-21.078 0-13.422-6.703-21.078-6.688-7.64-18.407-7.64-11.765 0-18.437 7.64-6.656 7.656-6.656 21.078 0 13.469 6.656 21.078Q18.844 56 30.609 56z" stroke-linejoin="round"/><path id="p" d="M9.422 75.984h8.984V0H9.422z" stroke-linejoin="round"/><path id="q" d="M45.406 46.39v29.594h8.985V0h-8.985v8.203Q42.578 3.328 38.25.953q-4.313-2.375-10.375-2.375-9.906 0-16.14 7.906-6.22 7.922-6.22 20.813 0 12.89 6.22 20.797Q17.968 56 27.874 56q6.063 0 10.375-2.375 4.328-2.36 7.156-7.234zm-30.61-19.093q0-9.906 4.079-15.547 4.078-5.64 11.203-5.64 7.125 0 11.219 5.64 4.11 5.64 4.11 15.547 0 9.906-4.11 15.547-4.094 5.64-11.219 5.64-7.125 0-11.203-5.64-4.078-5.64-4.078-15.547z" stroke-linejoin="round"/><path id="r" d="M4.203 54.688h8.985l11.234-42.672 11.172 42.672h10.593l11.235-42.672 11.187 42.672h8.985L63.28 0H52.688L40.922 44.828 29.109 0H18.5z" stroke-linejoin="round"/><path id="s" d="M9.422 54.688h8.984V0H9.422zm0 21.296h8.984v-11.39H9.422z" stroke-linejoin="round"/><path id="t" d="M56.203 29.594v-4.39H14.891q.593-9.282 5.593-14.142 5-4.859 13.938-4.859 5.172 0 10.031 1.266 4.86 1.265 9.656 3.812v-8.5Q49.266.734 44.187-.344 39.11-1.422 33.892-1.422q-13.094 0-20.735 7.61-7.64 7.625-7.64 20.625 0 13.421 7.25 21.296Q20.016 56 32.328 56q11.031 0 17.453-7.11 6.422-7.093 6.422-19.296zm-8.984 2.64q-.094 7.36-4.125 11.75-4.032 4.407-10.672 4.407-7.516 0-12.031-4.25-4.516-4.25-5.203-11.97z" stroke-linejoin="round"/><path id="u" d="M-3 0h6M0 3v-6" stroke="#1f77b4" stroke-linejoin="round"/><path id="v" d="M0 1.5a1.5 1.5 0 100-3 1.5 1.5 0 000 3z" stroke="#ff7f0e" stroke-linejoin="round"/><path id="w" d="M-3 0h6M0 3v-6" stroke="#d62728" stroke-linejoin="round"/><path id="U" d="M9.813 72.906h14.703l18.593-49.61 18.703 49.61h14.704V0H66.89v64.016l-18.797-50h-9.907l-18.796 50V0H9.813z" stroke-linejoin="round"/><path id="y" d="M48.781 52.594v-8.407q-3.812 2.11-7.64 3.157-3.828 1.047-7.735 1.047-8.75 0-13.593-5.547-4.829-5.532-4.829-15.547 0-10.016 4.829-15.563 4.843-5.53 13.593-5.53 3.907 0 7.735 1.046 3.828 1.047 7.64 3.156V2.094Q45.016.344 40.984-.531q-4.015-.89-8.562-.89-12.36 0-19.64 7.765-7.266 7.765-7.266 20.953 0 13.375 7.343 21.031Q20.22 56 33.016 56q4.14 0 8.093-.86 3.953-.843 7.672-2.546z" stroke-linejoin="round"/><path id="z" d="M18.313 70.219V54.688h18.5v-6.985h-18.5V18.016q0-6.688 1.828-8.594 1.828-1.906 7.453-1.906h9.218V0h-9.218q-10.407 0-14.36 3.875-3.953 3.89-3.953 14.14v29.688H2.687v6.984h6.594V70.22z" stroke-linejoin="round"/><path id="A" d="M64.406 67.281v-10.39q-4.984 4.64-10.625 6.922-5.64 2.296-11.984 2.296-12.5 0-19.14-7.64-6.641-7.64-6.641-22.094 0-14.406 6.64-22.047 6.64-7.64 19.14-7.64 6.345 0 11.985 2.296 5.64 2.297 10.625 6.938V5.609Q59.234 2.094 53.437.33q-5.78-1.75-12.218-1.75-16.563 0-26.094 10.124-9.516 10.14-9.516 27.672 0 17.578 9.516 27.703 9.531 10.14 26.094 10.14 6.531 0 12.312-1.734 5.797-1.734 10.875-5.203z" stroke-linejoin="round"/><path id="B" d="M9.813 72.906h9.859V0h-9.86z" stroke-linejoin="round"/><path id="C" d="M4.89 31.39h26.313v-8H4.891z" stroke-linejoin="round"/><path id="D" d="M10.984 1.516V10.5q3.72-1.766 7.516-2.688 3.813-.921 7.484-.921 9.766 0 14.907 6.562 5.156 6.563 5.89 19.953-2.828-4.203-7.187-6.453-4.344-2.25-9.61-2.25-10.937 0-17.312 6.61-6.375 6.625-6.375 18.109 0 11.219 6.64 18 6.641 6.797 17.672 6.797 12.657 0 19.313-9.703 6.672-9.688 6.672-28.141 0-17.234-8.188-27.516Q40.234-1.42 26.422-1.42q-3.719 0-7.531.734-3.797.734-7.907 2.203zM30.61 32.422q6.641 0 10.516 4.531 3.89 4.547 3.89 12.469 0 7.86-3.89 12.422-3.875 4.562-10.516 4.562-6.64 0-10.515-4.562-3.875-4.563-3.875-12.422 0-7.922 3.875-12.469 3.875-4.531 10.515-4.531z" stroke-linejoin="round"/><path id="E" d="M34.281 27.484q-10.89 0-15.093-2.484-4.204-2.484-4.204-8.5 0-4.781 3.157-7.594 3.156-2.797 8.562-2.797 7.485 0 12 5.297 4.516 5.297 4.516 14.078v2zm17.922 3.72V0H43.22v8.297Q40.14 3.328 35.547.953q-4.594-2.375-11.234-2.375-8.391 0-13.36 4.719Q6 8.016 6 15.922q0 9.219 6.172 13.906 6.187 4.688 18.437 4.688h12.61v.89q0 6.203-4.078 9.594-4.078 3.39-11.453 3.39-4.688 0-9.141-1.124-4.438-1.125-8.531-3.375v8.312q4.921 1.906 9.562 2.844 4.64.953 9.031.953 11.875 0 17.735-6.156 5.86-6.14 5.86-18.64z" stroke-linejoin="round"/><path id="F" d="M44.281 53.078v-8.5q-3.797 1.953-7.906 2.922-4.094.984-8.5.984-6.688 0-10.031-2.047-3.344-2.046-3.344-6.156 0-3.125 2.39-4.906 2.391-1.781 9.626-3.39l3.078-.688q9.562-2.047 13.593-5.781 4.032-3.735 4.032-10.422 0-7.625-6.032-12.078-6.03-4.438-16.578-4.438-4.39 0-9.156.86Q10.688.296 5.422 2v9.281q4.984-2.594 9.812-3.89 4.829-1.282 9.579-1.282 6.343 0 9.75 2.172 3.421 2.172 3.421 6.125 0 3.656-2.468 5.61-2.453 1.953-10.813 3.765l-3.125.735q-8.344 1.75-12.062 5.39-3.704 3.64-3.704 9.985 0 7.718 5.47 11.906Q16.75 56 26.811 56q4.97 0 9.36-.734 4.406-.72 8.11-2.188z" stroke-linejoin="round"/><path id="G" d="M37.11 75.984V68.5h-8.594q-4.828 0-6.72-1.953-1.874-1.953-1.874-7.031v-4.828h14.797v-6.985H19.922V0H10.89v47.703H2.297v6.984h8.594V58.5q0 9.125 4.25 13.297 4.25 4.187 13.468 4.187z" stroke-linejoin="round"/><path id="H" d="M8.688 72.906h9.921V28.61q0-11.718 4.235-16.875 4.25-5.14 13.781-5.14 9.469 0 13.719 5.14 4.25 5.157 4.25 16.875v44.297H64.5V27.391q0-14.25-7.063-21.532-7.046-7.28-20.812-7.28-13.828 0-20.89 7.28-7.047 7.282-7.047 21.532z" stroke-linejoin="round"/><path id="I" d="M53.516 70.516V60.89q-5.61 2.687-10.594 4-4.984 1.328-9.625 1.328-8.047 0-12.422-3.125t-4.375-8.89q0-4.845 2.906-7.313 2.907-2.453 11.016-3.97l5.953-1.218q11.031-2.11 16.281-7.406 5.25-5.297 5.25-14.172 0-10.61-7.11-16.078-7.093-5.469-20.812-5.469-5.172 0-11.015 1.172Q13.14.922 6.89 3.219v10.156q6-3.36 11.765-5.078 5.766-1.703 11.328-1.703 8.438 0 13.032 3.312 4.593 3.328 4.593 9.485 0 5.359-3.297 8.39-3.296 3.032-10.812 4.547L27.484 33.5q-11.03 2.188-15.968 6.875-4.922 4.688-4.922 13.047 0 9.672 6.812 15.234 6.813 5.563 18.766 5.563 5.14 0 10.453-.938 5.328-.922 10.89-2.765z" stroke-linejoin="round"/><path id="J" d="M31 75.875q-6.531-11.219-9.719-22.219-3.172-10.984-3.172-22.265 0-11.266 3.203-22.328Q24.517-2 31-13.188h-7.813Q15.875-1.704 12.235 9.375q-3.64 11.078-3.64 22.016 0 10.89 3.61 21.922 3.624 11.046 10.983 22.562z" stroke-linejoin="round"/><path id="K" d="M8.5 21.578v33.11h8.984V21.922q0-7.766 3.016-11.656 3.031-3.875 9.094-3.875 7.265 0 11.484 4.64 4.234 4.64 4.234 12.656v31h8.985V0h-8.984v8.406Q42.047 3.422 37.718 1q-4.313-2.422-10.032-2.422-9.421 0-14.312 5.86Q8.5 10.296 8.5 21.578z" stroke-linejoin="round"/><path id="L" d="M48.688 27.297q0 9.906-4.079 15.547-4.078 5.64-11.203 5.64-7.14 0-11.218-5.64-4.079-5.64-4.079-15.547 0-9.906 4.078-15.547 4.079-5.64 11.22-5.64 7.124 0 11.202 5.64t4.078 15.547zM18.108 46.39q2.844 4.875 7.157 7.234Q29.594 56 35.594 56q9.968 0 16.187-7.906 6.235-7.907 6.235-20.797T51.78 6.484q-6.218-7.906-16.187-7.906-6 0-10.328 2.375-4.313 2.375-7.157 7.25V0H9.08v75.984h9.03z" stroke-linejoin="round"/><path id="M" d="M54.89 33.016V0h-8.984v32.719q0 7.765-3.031 11.61-3.031 3.858-9.078 3.858-7.281 0-11.484-4.64-4.204-4.625-4.204-12.64V0H9.08v54.688h9.03v-8.5q3.235 4.937 7.594 7.374Q30.078 56 35.797 56q9.422 0 14.25-5.828 4.844-5.828 4.844-17.156z" stroke-linejoin="round"/><path id="N" d="M10.688 12.406H21V0H10.687z" stroke-linejoin="round"/><path id="O" d="M32.172-5.078q-3.797-9.766-7.422-12.735-3.61-2.984-9.656-2.984H7.906v7.516h5.282q3.703 0 5.75 1.765Q21-9.766 23.483-3.219l1.61 4.094-22.11 53.813H12.5l17.094-42.766 17.093 42.766h9.516z" stroke-linejoin="round"/><path id="P" d="M8.016 75.875h7.812q7.313-11.516 10.953-22.563 3.64-11.03 3.64-21.921 0-10.938-3.64-22.016-3.64-11.078-10.953-22.563H8.016Q14.5-2 17.703 9.063q3.203 11.063 3.203 22.329 0 11.28-3.203 22.265-3.203 11-9.687 22.219z" stroke-linejoin="round"/><path id="Q" d="M45.406 27.984q0 9.766-4.031 15.125-4.016 5.375-11.297 5.375-7.219 0-11.25-5.375-4.031-5.359-4.031-15.125 0-9.718 4.031-15.093t11.25-5.375q7.281 0 11.297 5.375 4.031 5.375 4.031 15.093zm8.985-21.203q0-13.953-6.203-20.765Q42-20.797 29.203-20.797q-4.734 0-8.937.703-4.203.703-8.157 2.172v8.735q3.954-2.141 7.813-3.157 3.86-1.031 7.86-1.031 8.843 0 13.234 4.61 4.39 4.609 4.39 13.937v4.453q-2.781-4.844-7.125-7.234Q33.938 0 27.875 0 17.828 0 11.672 7.656q-6.156 7.672-6.156 20.328 0 12.688 6.156 20.344Q17.828 56 27.875 56q6.063 0 10.406-2.39 4.344-2.391 7.125-7.22v8.297h8.985z" stroke-linejoin="round"/><path id="R" d="M8.203 72.906h46.875v-4.203L28.61 0H18.312L43.22 64.594H8.203z" stroke-linejoin="round"/><path id="T" d="M9.813 72.906h13.28l32.329-60.984v60.984h9.562V0h-13.28L19.39 60.984V0H9.813z" stroke-linejoin="round"/><clipPath id="S" stroke-linejoin="round"><path d="M70.22 297.12H558v208.808H70.22z"/></clipPath><clipPath id="a" stroke-linejoin="round"><path d="M70.22 25.44H558v208.808H70.22z"/></clipPath></defs><path d="M0 568.8h568.8V0H0z" fill="#fff"/><path d="M70.22 234.248H558V25.44H70.22z" fill="#fff"/><path clip-path="url(#a)" d="M70.22 234.248V25.44" fill="none" stroke="#b0b0b0" stroke-linecap="square" stroke-width=".8"/><use stroke="#000" stroke-width=".8" x="70.22" xlink:href="#b" y="234.248"/><g transform="matrix(.1 0 0 -.1 63.858 248.846)"><use xlink:href="#c"/><use x="63.623" xlink:href="#d"/></g><path clip-path="url(#a)" d="M306.72 234.248V25.44" fill="none" stroke="#b0b0b0" stroke-linecap="square" stroke-width=".8"/><use stroke="#000" stroke-width=".8" x="306.719" xlink:href="#b" y="234.248"/><g transform="matrix(.1 0 0 -.1 298.07 271.242)"><use xlink:href="#e"/><use x="68.408" xlink:href="#f"/><use x="131.885" xlink:href="#g"/></g><g transform="matrix(.1 0 0 -.1 293.994 282.44)"><use xlink:href="#h"/><use x="63.623" xlink:href="#i"/><use x="127.246" xlink:href="#h"/><use x="190.869" xlink:href="#i"/></g><g stroke-width=".8"><path clip-path="url(#a)" d="M558 234.248V25.44" fill="none" stroke="#b0b0b0" stroke-linecap="square"/><use stroke="#000" x="558" xlink:href="#b" y="234.248"/></g><g stroke="#000" stroke-width=".6"><use x="85.001" xlink:href="#j" y="234.248"/><use x="99.782" xlink:href="#j" y="234.248"/><use x="114.564" xlink:href="#j" y="234.248"/><use x="129.345" xlink:href="#j" y="234.248"/><use x="144.126" xlink:href="#j" y="234.248"/><use x="158.907" xlink:href="#j" y="234.248"/></g><use stroke="#000" stroke-width=".6" x="173.688" xlink:href="#j" y="234.248"/><g transform="matrix(.1 0 0 -.1 167.326 247.246)"><use xlink:href="#h"/><use x="63.623" xlink:href="#k"/></g><use stroke="#000" stroke-width=".6" x="188.47" xlink:href="#j" y="234.248"/><use stroke="#000" stroke-width=".6" x="203.251" xlink:href="#j" y="234.248"/><use stroke="#000" stroke-width=".6" x="218.032" xlink:href="#j" y="234.248"/><use stroke="#000" stroke-width=".6" x="232.813" xlink:href="#j" y="234.248"/><use stroke="#000" stroke-width=".6" x="247.595" xlink:href="#j" y="234.248"/><use stroke="#000" stroke-width=".6" x="262.376" xlink:href="#j" y="234.248"/><use stroke="#000" stroke-width=".6" x="277.157" xlink:href="#j" y="234.248"/><g transform="matrix(.1 0 0 -.1 270.794 247.246)"><use xlink:href="#k"/><use x="63.623" xlink:href="#i"/></g><use stroke="#000" stroke-width=".6" x="291.938" xlink:href="#j" y="234.248"/><use stroke="#000" stroke-width=".6" x="321.501" xlink:href="#j" y="234.248"/><use stroke="#000" stroke-width=".6" x="336.282" xlink:href="#j" y="234.248"/><use stroke="#000" stroke-width=".6" x="351.063" xlink:href="#j" y="234.248"/><use stroke="#000" stroke-width=".6" x="365.844" xlink:href="#j" y="234.248"/><use stroke="#000" stroke-width=".6" x="380.625" xlink:href="#j" y="234.248"/><g transform="matrix(.1 0 0 -.1 374.263 247.246)"><use xlink:href="#i"/><use x="63.623" xlink:href="#d"/></g><use stroke="#000" stroke-width=".6" x="395.407" xlink:href="#j" y="234.248"/><use stroke="#000" stroke-width=".6" x="410.188" xlink:href="#j" y="234.248"/><use stroke="#000" stroke-width=".6" x="424.969" xlink:href="#j" y="234.248"/><use stroke="#000" stroke-width=".6" x="439.75" xlink:href="#j" y="234.248"/><use stroke="#000" stroke-width=".6" x="454.532" xlink:href="#j" y="234.248"/><use stroke="#000" stroke-width=".6" x="469.313" xlink:href="#j" y="234.248"/><g><use stroke="#000" stroke-width=".6" x="484.094" xlink:href="#j" y="234.248"/><g transform="matrix(.1 0 0 -.1 477.731 247.246)"><use xlink:href="#c"/><use x="63.623" xlink:href="#k"/></g></g><use stroke="#000" stroke-width=".6" x="498.875" xlink:href="#j" y="234.248"/><use stroke="#000" stroke-width=".6" x="513.656" xlink:href="#j" y="234.248"/><use stroke="#000" stroke-width=".6" x="528.438" xlink:href="#j" y="234.248"/><use stroke="#000" stroke-width=".6" x="543.219" xlink:href="#j" y="234.248"/><g><path clip-path="url(#a)" d="M70.22 202.24H558" fill="none" stroke="#b0b0b0" stroke-linecap="square" stroke-width=".8"/><use stroke="#000" stroke-width=".8" x="70.22" xlink:href="#l" y="202.239"/><g transform="matrix(.1 0 0 -.1 25.045 206.038)"><use xlink:href="#c"/><use x="63.623" xlink:href="#i"/><use x="127.246" xlink:href="#i"/><use x="190.869" xlink:href="#i"/><use x="254.492" xlink:href="#i"/><use x="318.115" xlink:href="#i"/></g><path clip-path="url(#a)" d="M70.22 170.198H558" fill="none" stroke="#b0b0b0" stroke-linecap="square" stroke-width=".8"/><use stroke="#000" stroke-width=".8" x="70.22" xlink:href="#l" y="170.198"/><g transform="matrix(.1 0 0 -.1 25.045 173.998)"><use xlink:href="#h"/><use x="63.623" xlink:href="#i"/><use x="127.246" xlink:href="#i"/><use x="190.869" xlink:href="#i"/><use x="254.492" xlink:href="#i"/><use x="318.115" xlink:href="#i"/></g><path clip-path="url(#a)" d="M70.22 138.157H558" fill="none" stroke="#b0b0b0" stroke-linecap="square" stroke-width=".8"/><use stroke="#000" stroke-width=".8" x="70.22" xlink:href="#l" y="138.157"/><g transform="matrix(.1 0 0 -.1 25.045 141.957)"><use xlink:href="#k"/><use x="63.623" xlink:href="#i"/><use x="127.246" xlink:href="#i"/><use x="190.869" xlink:href="#i"/><use x="254.492" xlink:href="#i"/><use x="318.115" xlink:href="#i"/></g><g><path clip-path="url(#a)" d="M70.22 106.117H558" fill="none" stroke="#b0b0b0" stroke-linecap="square" stroke-width=".8"/><use stroke="#000" stroke-width=".8" x="70.22" xlink:href="#l" y="106.117"/><g transform="matrix(.1 0 0 -.1 25.045 109.916)"><use xlink:href="#m"/><use x="63.623" xlink:href="#i"/><use x="127.246" xlink:href="#i"/><use x="190.869" xlink:href="#i"/><use x="254.492" xlink:href="#i"/><use x="318.115" xlink:href="#i"/></g></g><g><path clip-path="url(#a)" d="M70.22 74.076H558" fill="none" stroke="#b0b0b0" stroke-linecap="square" stroke-width=".8"/><use stroke="#000" stroke-width=".8" x="70.22" xlink:href="#l" y="74.076"/><g transform="matrix(.1 0 0 -.1 25.045 77.875)"><use xlink:href="#n"/><use x="63.623" xlink:href="#i"/><use x="127.246" xlink:href="#i"/><use x="190.869" xlink:href="#i"/><use x="254.492" xlink:href="#i"/><use x="318.115" xlink:href="#i"/></g></g><g><path clip-path="url(#a)" d="M70.22 42.035H558" fill="none" stroke="#b0b0b0" stroke-linecap="square" stroke-width=".8"/><use stroke="#000" stroke-width=".8" x="70.22" xlink:href="#l" y="42.035"/><g transform="matrix(.1 0 0 -.1 25.045 45.834)"><use xlink:href="#d"/><use x="63.623" xlink:href="#i"/><use x="127.246" xlink:href="#i"/><use x="190.869" xlink:href="#i"/><use x="254.492" xlink:href="#i"/><use x="318.115" xlink:href="#i"/></g></g><g transform="matrix(0 -.1 -.1 0 18.965 156.19)"><path d="M3.328 72.906h9.953L28.61 11.281l15.282 61.625h11.093l15.328-61.625 15.282 61.625h10.015L77.297 0H64.89L49.516 63.281 33.984 0H21.578z"/><use x="98.799" xlink:href="#o"/><use x="159.98" xlink:href="#g"/><use x="201.094" xlink:href="#p"/><use x="228.877" xlink:href="#q"/><use x="292.354" xlink:href="#r"/><use x="374.141" xlink:href="#s"/><use x="401.924" xlink:href="#q"/><use x="465.4" xlink:href="#t"/></g></g><g stroke="#1f77b4"><path clip-path="url(#a)" d="M-1 233.862l12.095-.098 14.781-.163 14.782-.173 14.78-.245 14.782-.354 14.781-.566 14.781-.406 14.782-1.861 14.78-1.71 14.782-2.028 14.781-2.686 14.781-3.106 14.782-3.067 14.78-3.777 14.782-5.598 14.781-5.53 14.782-6.14 14.78-5.578 14.782-5.585 14.781-7.711 14.781-7.327 14.782-9.141 14.78-9.651 14.782-8.652 14.781-7.757 14.781-8.426 14.782-8.15 14.78-9.311 14.782-9.212 14.781-9.487 14.782-8.172 14.78-8.216 14.782-4.262 14.781-6.558 14.781-7.002" fill="none" stroke-linecap="square" stroke-width="1.5"/><g clip-path="url(#a)" fill="#1f77b4"><use x="-1" xlink:href="#u" y="233.862"/><use x="11.095" xlink:href="#u" y="233.764"/><use x="25.876" xlink:href="#u" y="233.601"/><use x="40.658" xlink:href="#u" y="233.428"/><use x="55.439" xlink:href="#u" y="233.183"/><use x="70.22" xlink:href="#u" y="232.829"/><use x="85.001" xlink:href="#u" y="232.263"/><use x="99.782" xlink:href="#u" y="231.857"/><use x="114.564" xlink:href="#u" y="229.996"/><use x="129.345" xlink:href="#u" y="228.285"/><use x="144.126" xlink:href="#u" y="226.258"/><use x="158.907" xlink:href="#u" y="223.572"/><use x="173.688" xlink:href="#u" y="220.466"/><use x="188.47" xlink:href="#u" y="217.399"/><use x="203.251" xlink:href="#u" y="213.622"/><use x="218.032" xlink:href="#u" y="208.024"/><use x="232.813" xlink:href="#u" y="202.493"/><use x="247.595" xlink:href="#u" y="196.354"/><use x="262.376" xlink:href="#u" y="190.776"/><use x="277.157" xlink:href="#u" y="185.191"/><use x="291.938" xlink:href="#u" y="177.48"/><use x="306.719" xlink:href="#u" y="170.153"/><use x="321.501" xlink:href="#u" y="161.012"/><use x="336.282" xlink:href="#u" y="151.361"/><use x="351.063" xlink:href="#u" y="142.709"/><use x="365.844" xlink:href="#u" y="134.952"/><use x="380.625" xlink:href="#u" y="126.526"/><use x="395.407" xlink:href="#u" y="118.376"/><use x="410.188" xlink:href="#u" y="109.065"/><use x="424.969" xlink:href="#u" y="99.853"/><use x="439.75" xlink:href="#u" y="90.366"/><use x="454.532" xlink:href="#u" y="82.194"/><use x="469.313" xlink:href="#u" y="73.978"/><use x="484.094" xlink:href="#u" y="69.716"/><use x="498.875" xlink:href="#u" y="63.158"/><use x="513.656" xlink:href="#u" y="56.156"/></g></g><g stroke="#ff7f0e"><path clip-path="url(#a)" d="M-1 230.887h12.095l14.781-1.399 14.782-.895 14.78-.914 14.782-.792 14.781-.957 14.781-.849 14.782-1.435 14.78-1.717 14.782-1.324 14.781-1.268 14.781-1.211 14.782-1.158 14.78-1.118 14.782-1.44 14.781-1.41 14.782-1.17 14.78-1.222 14.782-.528 14.781-.675 14.781-.94 14.782-.795 14.78-.749 14.782-.925 14.781-.952 14.781-.622 14.782-.282 14.78-.383 14.782-.517 14.781-.447 14.782-.64 14.78-.636 14.782-.436 14.781-.217 14.781-.36" fill="none" stroke-linecap="square" stroke-width="1.5"/><g clip-path="url(#a)" fill="#ff7f0e"><use x="-1" xlink:href="#v" y="230.887"/><use x="11.095" xlink:href="#v" y="230.887"/><use x="25.876" xlink:href="#v" y="229.488"/><use x="40.658" xlink:href="#v" y="228.593"/><use x="55.439" xlink:href="#v" y="227.679"/><use x="70.22" xlink:href="#v" y="226.887"/><use x="85.001" xlink:href="#v" y="225.93"/><use x="99.782" xlink:href="#v" y="225.081"/><use x="114.564" xlink:href="#v" y="223.646"/><use x="129.345" xlink:href="#v" y="221.929"/><use x="144.126" xlink:href="#v" y="220.605"/><use x="158.907" xlink:href="#v" y="219.337"/><use x="173.688" xlink:href="#v" y="218.126"/><use x="188.47" xlink:href="#v" y="216.968"/><use x="203.251" xlink:href="#v" y="215.85"/><use x="218.032" xlink:href="#v" y="214.411"/><use x="232.813" xlink:href="#v" y="213"/><use x="247.595" xlink:href="#v" y="211.831"/><use x="262.376" xlink:href="#v" y="210.608"/><use x="277.157" xlink:href="#v" y="210.08"/><use x="291.938" xlink:href="#v" y="209.405"/><use x="306.719" xlink:href="#v" y="208.464"/><use x="321.501" xlink:href="#v" y="207.67"/><use x="336.282" xlink:href="#v" y="206.921"/><use x="351.063" xlink:href="#v" y="205.996"/><use x="365.844" xlink:href="#v" y="205.044"/><use x="380.625" xlink:href="#v" y="204.422"/><use x="395.407" xlink:href="#v" y="204.14"/><use x="410.188" xlink:href="#v" y="203.757"/><use x="424.969" xlink:href="#v" y="203.24"/><use x="439.75" xlink:href="#v" y="202.793"/><use x="454.532" xlink:href="#v" y="202.153"/><use x="469.313" xlink:href="#v" y="201.517"/><use x="484.094" xlink:href="#v" y="201.081"/><use x="498.875" xlink:href="#v" y="200.864"/><use x="513.656" xlink:href="#v" y="200.503"/></g></g><path clip-path="url(#a)" d="M-1 233.626h12.095l14.781-.918 14.782-.248 14.78-.42 14.782-.666 14.781-.358 14.781-.647 14.782-1.224 14.78-.562 14.782-1.312 14.781-.912 14.781-1.521 14.782-1.222 14.78-2.313 14.782-1.892 14.781-1.544 14.782-1.2 14.78-1.162 14.782-1.558 14.781-1.519 14.781-1.244 14.782-.926 14.78-.806 14.782-.805 14.781-.296 14.781-.632 14.782-.574 14.78-.23 14.782-.065 14.781-.293 14.782-.252 14.78.025 14.782-.123 14.781.204 14.781-.354" fill="none" stroke="#2ca02c" stroke-linecap="square" stroke-width="1.5"/><g stroke="#d62728"><path clip-path="url(#a)" d="M-1 234.142h12.095l14.781-.11 14.782-.105h14.78l14.782-.12 14.781-.12 14.781-.209 14.782-.003 14.78-.403 14.782-.319 14.781-.192 14.781-.284 14.782-.432 14.78-.46 14.782-.656 14.781-.881 14.782-.74 14.78-.723 14.782-.792 14.781-.845 14.781-1.224 14.782-1.194 14.78-1.223 14.782-.984 14.781-1.705 14.781-1.071 14.782-.912 14.78-1.463 14.782-1.122 14.781-2.41 14.782-1.384 14.78-1.47 14.782-1.272 14.781-1.433 14.781-1.227" fill="none" stroke-linecap="square" stroke-width="1.5"/><g clip-path="url(#a)" fill="#d62728"><use x="-1" xlink:href="#w" y="234.142"/><use x="11.095" xlink:href="#w" y="234.142"/><use x="25.876" xlink:href="#w" y="234.032"/><use x="40.658" xlink:href="#w" y="233.927"/><use x="55.439" xlink:href="#w" y="233.926"/><use x="70.22" xlink:href="#w" y="233.808"/><use x="85.001" xlink:href="#w" y="233.687"/><use x="99.782" xlink:href="#w" y="233.478"/><use x="114.564" xlink:href="#w" y="233.475"/><use x="129.345" xlink:href="#w" y="233.072"/><use x="144.126" xlink:href="#w" y="232.753"/><use x="158.907" xlink:href="#w" y="232.561"/><use x="173.688" xlink:href="#w" y="232.277"/><use x="188.47" xlink:href="#w" y="231.845"/><use x="203.251" xlink:href="#w" y="231.385"/><use x="218.032" xlink:href="#w" y="230.729"/><use x="232.813" xlink:href="#w" y="229.848"/><use x="247.595" xlink:href="#w" y="229.109"/><use x="262.376" xlink:href="#w" y="228.385"/><use x="277.157" xlink:href="#w" y="227.593"/><use x="291.938" xlink:href="#w" y="226.748"/><use x="306.719" xlink:href="#w" y="225.524"/><use x="321.501" xlink:href="#w" y="224.33"/><use x="336.282" xlink:href="#w" y="223.107"/><use x="351.063" xlink:href="#w" y="222.123"/><use x="365.844" xlink:href="#w" y="220.418"/><use x="380.625" xlink:href="#w" y="219.347"/><use x="395.407" xlink:href="#w" y="218.435"/><use x="410.188" xlink:href="#w" y="216.972"/><use x="424.969" xlink:href="#w" y="215.85"/><use x="439.75" xlink:href="#w" y="213.44"/><use x="454.532" xlink:href="#w" y="212.056"/><use x="469.313" xlink:href="#w" y="210.585"/><use x="484.094" xlink:href="#w" y="209.314"/><use x="498.875" xlink:href="#w" y="207.881"/><use x="513.656" xlink:href="#w" y="206.654"/></g></g><g stroke="#9467bd"><path clip-path="url(#a)" d="M-1 233.567h12.095l14.781-.433 14.782-.256 14.78-.011 14.782-.666 14.781-.331 14.781-.439 14.782-.557 14.78-.493 14.782-.501 14.781.127 14.781-1.191 14.782-.378 14.78-.681 14.782-.814 14.781-.897 14.782-1.399 14.78-.258 14.782-1.06 14.781-1.795 14.781-.92 14.782.214 14.78-.821 14.782-7.42 14.781-.521 14.781-1.05 14.782-2.432 14.78-.456 14.782-.487 14.781-1.403 14.782-.863 14.78-.505 14.782-.993 14.781 2.683 14.781.19" fill="none" stroke-linecap="square" stroke-width="1.5"/><g clip-path="url(#a)" fill="#9467bd"><use x="-1" xlink:href="#x" y="233.567"/><use x="11.095" xlink:href="#x" y="233.567"/><use x="25.876" xlink:href="#x" y="233.134"/><use x="40.658" xlink:href="#x" y="232.878"/><use x="55.439" xlink:href="#x" y="232.867"/><use x="70.22" xlink:href="#x" y="232.201"/><use x="85.001" xlink:href="#x" y="231.87"/><use x="99.782" xlink:href="#x" y="231.431"/><use x="114.564" xlink:href="#x" y="230.874"/><use x="129.345" xlink:href="#x" y="230.381"/><use x="144.126" xlink:href="#x" y="229.88"/><use x="158.907" xlink:href="#x" y="230.007"/><use x="173.688" xlink:href="#x" y="228.816"/><use x="188.47" xlink:href="#x" y="228.438"/><use x="203.251" xlink:href="#x" y="227.757"/><use x="218.032" xlink:href="#x" y="226.943"/><use x="232.813" xlink:href="#x" y="226.046"/><use x="247.595" xlink:href="#x" y="224.647"/><use x="262.376" xlink:href="#x" y="224.389"/><use x="277.157" xlink:href="#x" y="223.33"/><use x="291.938" xlink:href="#x" y="221.534"/><use x="306.719" xlink:href="#x" y="220.614"/><use x="321.501" xlink:href="#x" y="220.828"/><use x="336.282" xlink:href="#x" y="220.007"/><use x="351.063" xlink:href="#x" y="212.588"/><use x="365.844" xlink:href="#x" y="212.066"/><use x="380.625" xlink:href="#x" y="211.015"/><use x="395.407" xlink:href="#x" y="208.584"/><use x="410.188" xlink:href="#x" y="208.128"/><use x="424.969" xlink:href="#x" y="207.641"/><use x="439.75" xlink:href="#x" y="206.238"/><use x="454.532" xlink:href="#x" y="205.375"/><use x="469.313" xlink:href="#x" y="204.87"/><use x="484.094" xlink:href="#x" y="203.877"/><use x="498.875" xlink:href="#x" y="206.56"/><use x="513.656" xlink:href="#x" y="206.749"/></g></g><path clip-path="url(#a)" d="M513.656 56.156l14.782-6.67 14.78-6.921L558 35.385" fill="none" stroke="#1f77b4" stroke-dasharray="1.5 2.475" stroke-width="1.5"/><path clip-path="url(#a)" d="M513.656 200.503l14.782-.331 14.78-.335L558 199.5" fill="none" stroke="#ff7f0e" stroke-dasharray="1.5 2.475" stroke-width="1.5"/><path clip-path="url(#a)" d="M513.656 206.057l14.782-.105 14.78-.107L558 205.74" fill="none" stroke="#2ca02c" stroke-dasharray="1.5 2.475" stroke-width="1.5"/><path clip-path="url(#a)" d="M513.656 206.654l14.782-1.434 14.78-1.508L558 202.125" fill="none" stroke="#d62728" stroke-dasharray="1.5 2.475" stroke-width="1.5"/><path clip-path="url(#a)" d="M513.656 206.75l14.782.781 14.78.76 14.782.738" fill="none" stroke="#9467bd" stroke-dasharray="1.5 2.475" stroke-width="1.5"/><path d="M70.22 234.248V25.44M558 234.248V25.44M70.22 234.248H558M70.22 25.44H558" fill="none" stroke="#000" stroke-linecap="square" stroke-linejoin="miter" stroke-width=".8"/><g transform="matrix(.12 0 0 -.12 192.33 19.44)"><use xlink:href="#e"/><use x="68.393" xlink:href="#y"/><use x="123.373" xlink:href="#z"/><use x="162.582" xlink:href="#s"/><path d="M193.35 54.688h9.515L219.96 8.797l17.094 45.89h9.515L226.053 0H213.85z"/><use x="249.545" xlink:href="#t"/><use x="342.855" xlink:href="#A"/><path d="M452.086 66.219q-10.75 0-17.078-8.016-6.313-8-6.313-21.828 0-13.766 6.313-21.781 6.328-8 17.078-8 10.734 0 17.016 8 6.28 8.015 6.28 21.781 0 13.828-6.28 21.828-6.282 8.016-17.016 8.016zm0 8q15.328 0 24.5-10.281 9.187-10.282 9.187-27.563 0-17.234-9.187-27.516-9.172-10.28-24.5-10.28-15.375 0-24.594 10.25-9.203 10.265-9.203 27.546t9.203 27.563q9.219 10.28 24.594 10.28zM519.984 0l-27.828 72.906h10.297l23.11-61.375 23.14 61.375h10.25L531.172 0z"/><use x="559.783" xlink:href="#B"/><path d="M608.947 64.797V8.109h11.922q15.094 0 22.094 6.829 7 6.843 7 21.593 0 14.64-7 21.453-7 6.813-22.094 6.813zm-9.86 8.11h20.267q21.187 0 31.093-8.813 9.922-8.813 9.922-27.563 0-18.86-9.969-27.703Q640.447 0 619.354 0h-20.266z"/><use x="666.277" xlink:href="#C"/><use x="702.361" xlink:href="#c"/><use x="765.984" xlink:href="#D"/><use x="861.395" xlink:href="#y"/><use x="916.375" xlink:href="#E"/><use x="977.654" xlink:href="#F"/><use x="1029.754" xlink:href="#t"/><use x="1091.277" xlink:href="#F"/><use x="1175.164" xlink:href="#E"/><use x="1236.443" xlink:href="#F"/><use x="1320.33" xlink:href="#o"/><use x="1381.512" xlink:href="#G"/><use x="1448.504" xlink:href="#h"/><use x="1512.127" xlink:href="#i"/><use x="1575.75" xlink:href="#h"/><use x="1639.373" xlink:href="#i"/><use x="1702.996" xlink:href="#C"/><use x="1739.08" xlink:href="#i"/><use x="1802.703" xlink:href="#m"/><use x="1866.326" xlink:href="#C"/><use x="1902.41" xlink:href="#c"/><use x="1966.033" xlink:href="#n"/></g><g><path d="M77.22 106.83h227.06q2 0 2-2V32.44q0-2-2-2H77.22q-2 0-2 2v72.39q0 2 2 2z" fill="#fff" opacity=".8" stroke="#ccc" stroke-linejoin="miter"/><path d="M79.22 38.538h20" fill="none" stroke="#1f77b4" stroke-linecap="square" stroke-width="1.5"/><use fill="#1f77b4" stroke="#1f77b4" x="89.22" xlink:href="#u" y="38.538"/><g transform="matrix(.1 0 0 -.1 107.22 42.038)"><use xlink:href="#H"/><use x="73.193" xlink:href="#I"/><use x="168.457" xlink:href="#J"/><use x="207.471" xlink:href="#q"/><use x="270.947" xlink:href="#o"/><use x="332.129" xlink:href="#K"/><use x="395.508" xlink:href="#L"/><use x="458.984" xlink:href="#p"/><use x="486.768" xlink:href="#t"/><use x="548.291" xlink:href="#F"/><use x="632.178" xlink:href="#s"/><use x="659.961" xlink:href="#M"/><use x="755.127" xlink:href="#c"/><path d="M850.531 34.625q-7.031 0-11.062-3.766-4.016-3.765-4.016-10.343 0-6.594 4.016-10.36 4.031-3.765 11.062-3.765 7.032 0 11.078 3.78 4.063 3.798 4.063 10.345 0 6.578-4.031 10.343-4.016 3.766-11.11 3.766zm-9.86 4.188q-6.343 1.562-9.89 5.906-3.531 4.36-3.531 10.61 0 8.733 6.219 13.812 6.234 5.078 17.062 5.078 10.89 0 17.094-5.078 6.203-5.079 6.203-13.813 0-6.25-3.547-10.61-3.531-4.343-9.828-5.906 7.125-1.656 11.094-6.5 3.984-4.828 3.984-11.796 0-10.61-6.468-16.282-6.47-5.656-18.532-5.656-12.047 0-18.531 5.656-6.469 5.672-6.469 16.282 0 6.968 4 11.797 4.016 4.843 11.14 6.5zm-3.609 15.578q0-5.657 3.532-8.828 3.547-3.172 9.937-3.172 6.36 0 9.938 3.172 3.593 3.171 3.593 8.828 0 5.672-3.593 8.843-3.578 3.172-9.938 3.172-6.39 0-9.937-3.172-3.532-3.172-3.532-8.843z"/><use x="882.373" xlink:href="#N"/><use x="914.16" xlink:href="#D"/><use x="1009.57" xlink:href="#q"/><use x="1073.047" xlink:href="#E"/><use x="1134.326" xlink:href="#O"/><use x="1193.506" xlink:href="#F"/><use x="1245.605" xlink:href="#P"/></g><path d="M79.22 53.217h20" fill="none" stroke="#ff7f0e" stroke-linecap="square" stroke-width="1.5"/><use fill="#ff7f0e" stroke="#ff7f0e" x="89.22" xlink:href="#v" y="53.217"/><g transform="matrix(.1 0 0 -.1 107.22 56.717)"><use xlink:href="#B"/><use x="29.492" xlink:href="#z"/><use x="68.701" xlink:href="#E"/><use x="129.98" xlink:href="#p"/><use x="157.764" xlink:href="#O"/></g><path d="M79.22 67.895h20" fill="none" stroke="#2ca02c" stroke-linecap="square" stroke-width="1.5"/><g transform="matrix(.1 0 0 -.1 107.22 71.395)"><use xlink:href="#I"/><use x="63.477" xlink:href="#f"/><use x="126.953" xlink:href="#E"/><use x="188.232" xlink:href="#s"/><use x="216.016" xlink:href="#M"/></g><path d="M79.22 82.573h20" fill="none" stroke="#d62728" stroke-linecap="square" stroke-width="1.5"/><use fill="#d62728" stroke="#d62728" x="89.22" xlink:href="#w" y="82.573"/><g transform="matrix(.1 0 0 -.1 107.22 86.073)"><use xlink:href="#H"/><use x="73.193" xlink:href="#M"/><use x="136.572" xlink:href="#s"/><use x="164.355" xlink:href="#z"/><use x="203.564" xlink:href="#t"/><use x="265.088" xlink:href="#q"/><path d="M370.164 72.906h9.86V42.094l32.718 30.812h12.703l-36.187-33.984L428.023 0H415.04l-35.016 35.11V0h-9.859z"/><use x="425.928" xlink:href="#s"/><use x="453.711" xlink:href="#M"/><use x="517.09" xlink:href="#Q"/><use x="580.566" xlink:href="#q"/><use x="644.043" xlink:href="#o"/><path d="M757.225 44.188q3.375 6.062 8.062 8.937Q769.975 56 776.318 56q8.547 0 13.188-5.984 4.64-5.97 4.64-17V0h-9.03v32.719q0 7.86-2.798 11.656-2.78 3.813-8.484 3.813-6.984 0-11.047-4.641-4.047-4.625-4.047-12.64V0h-9.031v32.719q0 7.906-2.781 11.687-2.782 3.782-8.594 3.782-6.89 0-10.953-4.657-4.047-4.656-4.047-12.625V0h-9.031v54.688h9.031v-8.5q3.078 5.03 7.375 7.421Q735.006 56 740.912 56q5.969 0 10.14-3.031 4.173-3.016 6.173-8.782z"/><use x="834.424" xlink:href="#J"/><use x="873.438" xlink:href="#q"/><use x="936.914" xlink:href="#o"/><use x="998.096" xlink:href="#K"/><use x="1061.475" xlink:href="#L"/><use x="1124.951" xlink:href="#p"/><use x="1152.734" xlink:href="#t"/><use x="1214.258" xlink:href="#F"/><use x="1298.145" xlink:href="#s"/><use x="1325.928" xlink:href="#M"/><use x="1421.094" xlink:href="#c"/><use x="1484.717" xlink:href="#k"/><use x="1548.34" xlink:href="#N"/><use x="1580.127" xlink:href="#R"/><use x="1675.537" xlink:href="#q"/><use x="1739.014" xlink:href="#E"/><use x="1800.293" xlink:href="#O"/><use x="1859.473" xlink:href="#F"/><use x="1911.572" xlink:href="#P"/></g><path d="M79.22 97.25h20" fill="none" stroke="#9467bd" stroke-linecap="square" stroke-width="1.5"/><use fill="#9467bd" stroke="#9467bd" x="89.22" xlink:href="#x" y="97.251"/><g transform="matrix(.1 0 0 -.1 107.22 100.75)"><path d="M9.813 72.906h41.89v-8.312H19.672V43.109h28.906v-8.297H19.672V0h-9.86z"/><use x="57.41" xlink:href="#g"/><use x="98.523" xlink:href="#E"/><use x="159.803" xlink:href="#M"/><use x="223.182" xlink:href="#y"/><use x="278.162" xlink:href="#t"/></g></g><g><path d="M70.22 505.928H558V297.12H70.22z" fill="#fff"/><path clip-path="url(#S)" d="M70.22 505.928V297.12" fill="none" stroke="#b0b0b0" stroke-linecap="square" stroke-width=".8"/><use stroke="#000" stroke-width=".8" x="70.22" xlink:href="#b" y="505.928"/><g transform="matrix(.1 0 0 -.1 63.858 520.526)"><use xlink:href="#c"/><use x="63.623" xlink:href="#d"/></g><path clip-path="url(#S)" d="M306.72 505.928V297.12" fill="none" stroke="#b0b0b0" stroke-linecap="square" stroke-width=".8"/><use stroke="#000" stroke-width=".8" x="306.719" xlink:href="#b" y="505.928"/><g transform="matrix(.1 0 0 -.1 298.07 542.922)"><use xlink:href="#e"/><use x="68.408" xlink:href="#f"/><use x="131.885" xlink:href="#g"/></g><g transform="matrix(.1 0 0 -.1 293.994 554.12)"><use xlink:href="#h"/><use x="63.623" xlink:href="#i"/><use x="127.246" xlink:href="#h"/><use x="190.869" xlink:href="#i"/></g><g stroke-width=".8"><path clip-path="url(#S)" d="M558 505.928V297.12" fill="none" stroke="#b0b0b0" stroke-linecap="square"/><use stroke="#000" x="558" xlink:href="#b" y="505.928"/></g><g stroke="#000" stroke-width=".6"><use x="85.001" xlink:href="#j" y="505.928"/><use x="99.782" xlink:href="#j" y="505.928"/><use x="114.564" xlink:href="#j" y="505.928"/><use x="129.345" xlink:href="#j" y="505.928"/><use x="144.126" xlink:href="#j" y="505.928"/><use x="158.907" xlink:href="#j" y="505.928"/></g><use stroke="#000" stroke-width=".6" x="173.688" xlink:href="#j" y="505.928"/><g transform="matrix(.1 0 0 -.1 167.326 518.926)"><use xlink:href="#h"/><use x="63.623" xlink:href="#k"/></g><use stroke="#000" stroke-width=".6" x="188.47" xlink:href="#j" y="505.928"/><use stroke="#000" stroke-width=".6" x="203.251" xlink:href="#j" y="505.928"/><use stroke="#000" stroke-width=".6" x="218.032" xlink:href="#j" y="505.928"/><use stroke="#000" stroke-width=".6" x="232.813" xlink:href="#j" y="505.928"/><use stroke="#000" stroke-width=".6" x="247.595" xlink:href="#j" y="505.928"/><use stroke="#000" stroke-width=".6" x="262.376" xlink:href="#j" y="505.928"/><use stroke="#000" stroke-width=".6" x="277.157" xlink:href="#j" y="505.928"/><g transform="matrix(.1 0 0 -.1 270.794 518.926)"><use xlink:href="#k"/><use x="63.623" xlink:href="#i"/></g><use stroke="#000" stroke-width=".6" x="291.938" xlink:href="#j" y="505.928"/><use stroke="#000" stroke-width=".6" x="321.501" xlink:href="#j" y="505.928"/><use stroke="#000" stroke-width=".6" x="336.282" xlink:href="#j" y="505.928"/><use stroke="#000" stroke-width=".6" x="351.063" xlink:href="#j" y="505.928"/><use stroke="#000" stroke-width=".6" x="365.844" xlink:href="#j" y="505.928"/><use stroke="#000" stroke-width=".6" x="380.625" xlink:href="#j" y="505.928"/><g transform="matrix(.1 0 0 -.1 374.263 518.926)"><use xlink:href="#i"/><use x="63.623" xlink:href="#d"/></g><use stroke="#000" stroke-width=".6" x="395.407" xlink:href="#j" y="505.928"/><use stroke="#000" stroke-width=".6" x="410.188" xlink:href="#j" y="505.928"/><use stroke="#000" stroke-width=".6" x="424.969" xlink:href="#j" y="505.928"/><use stroke="#000" stroke-width=".6" x="439.75" xlink:href="#j" y="505.928"/><use stroke="#000" stroke-width=".6" x="454.532" xlink:href="#j" y="505.928"/><use stroke="#000" stroke-width=".6" x="469.313" xlink:href="#j" y="505.928"/><g><use stroke="#000" stroke-width=".6" x="484.094" xlink:href="#j" y="505.928"/><g transform="matrix(.1 0 0 -.1 477.731 518.926)"><use xlink:href="#c"/><use x="63.623" xlink:href="#k"/></g></g><use stroke="#000" stroke-width=".6" x="498.875" xlink:href="#j" y="505.928"/><use stroke="#000" stroke-width=".6" x="513.656" xlink:href="#j" y="505.928"/><use stroke="#000" stroke-width=".6" x="528.438" xlink:href="#j" y="505.928"/><use stroke="#000" stroke-width=".6" x="543.219" xlink:href="#j" y="505.928"/><g><path clip-path="url(#S)" d="M70.22 462.842H558" fill="none" stroke="#b0b0b0" stroke-linecap="square" stroke-width=".8"/><use stroke="#000" stroke-width=".8" x="70.22" xlink:href="#l" y="462.842"/><g transform="matrix(.1 0 0 -.1 31.407 466.641)"><use xlink:href="#n"/><use x="63.623" xlink:href="#i"/><use x="127.246" xlink:href="#i"/><use x="190.869" xlink:href="#i"/><use x="254.492" xlink:href="#i"/></g><path clip-path="url(#S)" d="M70.22 419.67H558" fill="none" stroke="#b0b0b0" stroke-linecap="square" stroke-width=".8"/><use stroke="#000" stroke-width=".8" x="70.22" xlink:href="#l" y="419.67"/><g transform="matrix(.1 0 0 -.1 25.045 423.47)"><use xlink:href="#c"/><use x="63.623" xlink:href="#i"/><use x="127.246" xlink:href="#i"/><use x="190.869" xlink:href="#i"/><use x="254.492" xlink:href="#i"/><use x="318.115" xlink:href="#i"/></g><g><path clip-path="url(#S)" d="M70.22 376.498H558" fill="none" stroke="#b0b0b0" stroke-linecap="square" stroke-width=".8"/><use stroke="#000" stroke-width=".8" x="70.22" xlink:href="#l" y="376.498"/><g transform="matrix(.1 0 0 -.1 25.045 380.297)"><use xlink:href="#c"/><use x="63.623" xlink:href="#n"/><use x="127.246" xlink:href="#i"/><use x="190.869" xlink:href="#i"/><use x="254.492" xlink:href="#i"/><use x="318.115" xlink:href="#i"/></g></g><g><path clip-path="url(#S)" d="M70.22 333.326H558" fill="none" stroke="#b0b0b0" stroke-linecap="square" stroke-width=".8"/><use stroke="#000" stroke-width=".8" x="70.22" xlink:href="#l" y="333.326"/><g transform="matrix(.1 0 0 -.1 25.045 337.125)"><use xlink:href="#h"/><use x="63.623" xlink:href="#i"/><use x="127.246" xlink:href="#i"/><use x="190.869" xlink:href="#i"/><use x="254.492" xlink:href="#i"/><use x="318.115" xlink:href="#i"/></g></g><g transform="matrix(0 -.1 -.1 0 18.965 408.358)"><use xlink:href="#H"/><use x="73.193" xlink:href="#I"/></g></g><g stroke="#1f77b4"><path clip-path="url(#S)" d="M-1 505.807l12.095-.076 14.781-.08 14.782-.088 14.78-.178 14.782-.197 14.781-.635 14.781-.68 14.782-2.462 14.78-2.536 14.782-2.92 14.781-3.482 14.781-4.354 14.782-4.097 14.78-4.391 14.782-5.989 14.781-5.92 14.782-6.332 14.78-6.045 14.782-5.839 14.781-7.63 14.781-6.67 14.782-7.016 14.78-8.565 14.782-8.82 14.781-7.541 14.781-7.008 14.782-6.276 14.78-8.986 14.782-8.565 14.781-8.435 14.782-6.836 14.78-6.26 14.782-5.217 14.781-5.601 14.781-9.204" fill="none" stroke-linecap="square" stroke-width="1.5"/><g clip-path="url(#S)" fill="#1f77b4"><use x="-1" xlink:href="#u" y="505.807"/><use x="11.095" xlink:href="#u" y="505.731"/><use x="25.876" xlink:href="#u" y="505.651"/><use x="40.658" xlink:href="#u" y="505.563"/><use x="55.439" xlink:href="#u" y="505.385"/><use x="70.22" xlink:href="#u" y="505.188"/><use x="85.001" xlink:href="#u" y="504.553"/><use x="99.782" xlink:href="#u" y="503.874"/><use x="114.564" xlink:href="#u" y="501.411"/><use x="129.345" xlink:href="#u" y="498.875"/><use x="144.126" xlink:href="#u" y="495.955"/><use x="158.907" xlink:href="#u" y="492.473"/><use x="173.688" xlink:href="#u" y="488.119"/><use x="188.47" xlink:href="#u" y="484.022"/><use x="203.251" xlink:href="#u" y="479.631"/><use x="218.032" xlink:href="#u" y="473.642"/><use x="232.813" xlink:href="#u" y="467.722"/><use x="247.595" xlink:href="#u" y="461.39"/><use x="262.376" xlink:href="#u" y="455.345"/><use x="277.157" xlink:href="#u" y="449.506"/><use x="291.938" xlink:href="#u" y="441.875"/><use x="306.719" xlink:href="#u" y="435.206"/><use x="321.501" xlink:href="#u" y="428.19"/><use x="336.282" xlink:href="#u" y="419.625"/><use x="351.063" xlink:href="#u" y="410.804"/><use x="365.844" xlink:href="#u" y="403.264"/><use x="380.625" xlink:href="#u" y="396.256"/><use x="395.407" xlink:href="#u" y="389.98"/><use x="410.188" xlink:href="#u" y="380.994"/><use x="424.969" xlink:href="#u" y="372.429"/><use x="439.75" xlink:href="#u" y="363.994"/><use x="454.532" xlink:href="#u" y="357.158"/><use x="469.313" xlink:href="#u" y="350.899"/><use x="484.094" xlink:href="#u" y="345.681"/><use x="498.875" xlink:href="#u" y="340.08"/><use x="513.656" xlink:href="#u" y="330.876"/></g></g><g stroke="#ff7f0e"><path clip-path="url(#S)" d="M-1 505.994l12.095-.004h14.781l14.782-.034 14.78-.025 14.782-.068 14.781-.076h14.781l14.782-.406 14.78-.126 14.782-.373 14.781-.503 14.781-.797 14.782-.703 14.78-.612 14.782-2.12 14.781-1.66 14.782-1.957 14.78-1.935 14.782-2.774 14.781-1.719 14.781-2.997 14.782-2.722 14.78-3.623 14.782-3.48 14.781-2.857 14.781-3.021 14.782-2.675 14.78-2.373 14.782-2.923 14.781-2.882 14.782-2.86 14.78-3.05 14.782-2.28 14.781-3.348 14.781-1.602" fill="none" stroke-linecap="square" stroke-width="1.5"/><g clip-path="url(#S)" fill="#ff7f0e"><use x="-1" xlink:href="#v" y="505.994"/><use x="11.095" xlink:href="#v" y="505.99"/><use x="25.876" xlink:href="#v" y="505.99"/><use x="40.658" xlink:href="#v" y="505.956"/><use x="55.439" xlink:href="#v" y="505.931"/><use x="70.22" xlink:href="#v" y="505.863"/><use x="85.001" xlink:href="#v" y="505.787"/><use x="99.782" xlink:href="#v" y="505.786"/><use x="114.564" xlink:href="#v" y="505.381"/><use x="129.345" xlink:href="#v" y="505.255"/><use x="144.126" xlink:href="#v" y="504.882"/><use x="158.907" xlink:href="#v" y="504.379"/><use x="173.688" xlink:href="#v" y="503.582"/><use x="188.47" xlink:href="#v" y="502.879"/><use x="203.251" xlink:href="#v" y="502.267"/><use x="218.032" xlink:href="#v" y="500.147"/><use x="232.813" xlink:href="#v" y="498.488"/><use x="247.595" xlink:href="#v" y="496.53"/><use x="262.376" xlink:href="#v" y="494.595"/><use x="277.157" xlink:href="#v" y="491.821"/><use x="291.938" xlink:href="#v" y="490.102"/><use x="306.719" xlink:href="#v" y="487.105"/><use x="321.501" xlink:href="#v" y="484.383"/><use x="336.282" xlink:href="#v" y="480.76"/><use x="351.063" xlink:href="#v" y="477.281"/><use x="365.844" xlink:href="#v" y="474.423"/><use x="380.625" xlink:href="#v" y="471.402"/><use x="395.407" xlink:href="#v" y="468.727"/><use x="410.188" xlink:href="#v" y="466.354"/><use x="424.969" xlink:href="#v" y="463.431"/><use x="439.75" xlink:href="#v" y="460.549"/><use x="454.532" xlink:href="#v" y="457.689"/><use x="469.313" xlink:href="#v" y="454.639"/><use x="484.094" xlink:href="#v" y="452.359"/><use x="498.875" xlink:href="#v" y="449.011"/><use x="513.656" xlink:href="#v" y="447.409"/></g></g><path clip-path="url(#S)" d="M-1 505.931l12.095-.009 14.781-.013 14.782-.013 14.78-.022 14.782-.029 14.781-.018h14.781l14.782-.096 14.78-.072 14.782-.097 14.781-.101 14.781-.11 14.782-.328 14.78-.583 14.782-.491 14.781-.702 14.782-.87 14.78-.6 14.782-.68 14.781-.722 14.781-.937 14.782-1.032 14.78-1.207 14.782-1.132 14.781-.646 14.781-1.13 14.782-1.095 14.78-1.305 14.782-1.797 14.781-1.672 14.782-1.554 14.78-2.197 14.782-1.126 14.781-1.12 14.781-1.286" fill="none" stroke="#2ca02c" stroke-linecap="square" stroke-width="1.5"/><g stroke="#d62728"><path clip-path="url(#S)" d="M-1 506.013h12.095L25.876 506l14.782-.008 14.78-.007 14.782-.017 14.781-.01 14.781-.016 14.782-.214 14.78-.189 14.782-.202 14.781-.21 14.781-.248 14.782-.393 14.78-.418 14.782-.458 14.781-.655 14.782-.86 14.78-.706 14.782-.827 14.781-.9 14.781-1.402 14.782-1.204 14.78-1.633 14.782-1.226 14.781-1.223 14.781-1.202 14.782-1.409 14.78-1.09 14.782-.898 14.781-.63 14.782-.918 14.78-.47 14.782-1.095 14.781-1.036 14.781-.781" fill="none" stroke-linecap="square" stroke-width="1.5"/><g clip-path="url(#S)" fill="#d62728"><use x="-1" xlink:href="#w" y="506.013"/><use x="11.095" xlink:href="#w" y="506.013"/><use x="25.876" xlink:href="#w" y="506.001"/><use x="40.658" xlink:href="#w" y="505.993"/><use x="55.439" xlink:href="#w" y="505.986"/><use x="70.22" xlink:href="#w" y="505.969"/><use x="85.001" xlink:href="#w" y="505.958"/><use x="99.782" xlink:href="#w" y="505.943"/><use x="114.564" xlink:href="#w" y="505.729"/><use x="129.345" xlink:href="#w" y="505.54"/><use x="144.126" xlink:href="#w" y="505.338"/><use x="158.907" xlink:href="#w" y="505.128"/><use x="173.688" xlink:href="#w" y="504.88"/><use x="188.47" xlink:href="#w" y="504.487"/><use x="203.251" xlink:href="#w" y="504.069"/><use x="218.032" xlink:href="#w" y="503.611"/><use x="232.813" xlink:href="#w" y="502.956"/><use x="247.595" xlink:href="#w" y="502.095"/><use x="262.376" xlink:href="#w" y="501.39"/><use x="277.157" xlink:href="#w" y="500.563"/><use x="291.938" xlink:href="#w" y="499.663"/><use x="306.719" xlink:href="#w" y="498.261"/><use x="321.501" xlink:href="#w" y="497.057"/><use x="336.282" xlink:href="#w" y="495.424"/><use x="351.063" xlink:href="#w" y="494.198"/><use x="365.844" xlink:href="#w" y="492.975"/><use x="380.625" xlink:href="#w" y="491.773"/><use x="395.407" xlink:href="#w" y="490.364"/><use x="410.188" xlink:href="#w" y="489.275"/><use x="424.969" xlink:href="#w" y="488.376"/><use x="439.75" xlink:href="#w" y="487.746"/><use x="454.532" xlink:href="#w" y="486.828"/><use x="469.313" xlink:href="#w" y="486.358"/><use x="484.094" xlink:href="#w" y="485.263"/><use x="498.875" xlink:href="#w" y="484.227"/><use x="513.656" xlink:href="#w" y="483.446"/></g></g><g stroke="#9467bd"><path clip-path="url(#S)" d="M-1 505.86l12.095-.028 14.781-.053 14.782-.049 14.78-.073 14.782-.112 14.781-.118 14.781-.05 14.782-.17 14.78-.19 14.782-.16 14.781-.238 14.781-.391 14.782-.362 14.78-.384 14.782-.764 14.781-.644 14.782-.364 14.78-.641 14.782-1.092 14.781-.902 14.781-1.004 14.782-1.153 14.78-1.04 14.782-.698 14.781-1.846 14.781-.823 14.782-1.105 14.78-1.28 14.782-.66 14.781-1.15 14.782-.521 14.78-.91 14.782-.916 14.781-1.185 14.781-1.068" fill="none" stroke-linecap="square" stroke-width="1.5"/><g clip-path="url(#S)" fill="#9467bd"><use x="-1" xlink:href="#x" y="505.86"/><use x="11.095" xlink:href="#x" y="505.832"/><use x="25.876" xlink:href="#x" y="505.779"/><use x="40.658" xlink:href="#x" y="505.73"/><use x="55.439" xlink:href="#x" y="505.657"/><use x="70.22" xlink:href="#x" y="505.545"/><use x="85.001" xlink:href="#x" y="505.427"/><use x="99.782" xlink:href="#x" y="505.377"/><use x="114.564" xlink:href="#x" y="505.208"/><use x="129.345" xlink:href="#x" y="505.018"/><use x="144.126" xlink:href="#x" y="504.857"/><use x="158.907" xlink:href="#x" y="504.619"/><use x="173.688" xlink:href="#x" y="504.228"/><use x="188.47" xlink:href="#x" y="503.866"/><use x="203.251" xlink:href="#x" y="503.482"/><use x="218.032" xlink:href="#x" y="502.718"/><use x="232.813" xlink:href="#x" y="502.074"/><use x="247.595" xlink:href="#x" y="501.71"/><use x="262.376" xlink:href="#x" y="501.069"/><use x="277.157" xlink:href="#x" y="499.977"/><use x="291.938" xlink:href="#x" y="499.075"/><use x="306.719" xlink:href="#x" y="498.071"/><use x="321.501" xlink:href="#x" y="496.918"/><use x="336.282" xlink:href="#x" y="495.878"/><use x="351.063" xlink:href="#x" y="495.18"/><use x="365.844" xlink:href="#x" y="493.334"/><use x="380.625" xlink:href="#x" y="492.511"/><use x="395.407" xlink:href="#x" y="491.406"/><use x="410.188" xlink:href="#x" y="490.125"/><use x="424.969" xlink:href="#x" y="489.466"/><use x="439.75" xlink:href="#x" y="488.315"/><use x="454.532" xlink:href="#x" y="487.795"/><use x="469.313" xlink:href="#x" y="486.886"/><use x="484.094" xlink:href="#x" y="485.969"/><use x="498.875" xlink:href="#x" y="484.784"/><use x="513.656" xlink:href="#x" y="483.716"/></g></g><path clip-path="url(#S)" d="M513.656 330.876l14.782-7.601 14.78-7.932L558 307.067" fill="none" stroke="#1f77b4" stroke-dasharray="1.5 2.475" stroke-width="1.5"/><path clip-path="url(#S)" d="M513.656 447.409l14.782-2.563 14.78-2.675L558 439.38" fill="none" stroke="#ff7f0e" stroke-dasharray="1.5 2.475" stroke-width="1.5"/><path clip-path="url(#S)" d="M513.656 481.139l14.782-1.306 14.78-1.374L558 477.013" fill="none" stroke="#2ca02c" stroke-dasharray="1.5 2.475" stroke-width="1.5"/><path clip-path="url(#S)" d="M513.656 483.446l14.782-1.018 14.78-1.064L558 480.252" fill="none" stroke="#d62728" stroke-dasharray="1.5 2.475" stroke-width="1.5"/><path clip-path="url(#S)" d="M513.656 483.716l14.782-1.18 14.78-1.243L558 479.985" fill="none" stroke="#9467bd" stroke-dasharray="1.5 2.475" stroke-width="1.5"/><path d="M70.22 505.928V297.12M558 505.928V297.12M70.22 505.928H558M70.22 297.12H558" fill="none" stroke="#000" stroke-linecap="square" stroke-linejoin="miter" stroke-width=".8"/><g><path d="M77.22 378.51h220.684q2 0 2-2v-72.39q0-2-2-2H77.22q-2 0-2 2v72.39q0 2 2 2z" fill="#fff" opacity=".8" stroke="#ccc" stroke-linejoin="miter"/><path d="M79.22 310.218h20" fill="none" stroke="#1f77b4" stroke-linecap="square" stroke-width="1.5"/><use fill="#1f77b4" stroke="#1f77b4" x="89.22" xlink:href="#u" y="310.218"/><g transform="matrix(.1 0 0 -.1 107.22 313.718)"><use xlink:href="#T"/><use x="74.805" xlink:href="#t"/><use x="136.328" xlink:href="#r"/><path d="M249.7 72.906h10.609l20.203-29.984 20.078 29.984h10.594L285.402 34.72V0h-9.906v34.719z"/><use x="310.783" xlink:href="#o"/><use x="371.965" xlink:href="#g"/><path d="M422.156 75.984h9.031V31.11L458 54.687h11.469l-29-25.578L470.703 0h-11.719l-27.796 26.703V0h-9.032z"/><use x="502.775" xlink:href="#J"/><use x="541.789" xlink:href="#q"/><use x="605.266" xlink:href="#o"/><use x="666.447" xlink:href="#K"/><use x="729.826" xlink:href="#L"/><use x="793.303" xlink:href="#p"/><use x="821.086" xlink:href="#t"/><use x="882.609" xlink:href="#F"/><use x="966.496" xlink:href="#s"/><use x="994.279" xlink:href="#M"/><use x="1089.445" xlink:href="#c"/><use x="1153.068" xlink:href="#d"/><use x="1216.691" xlink:href="#N"/><use x="1248.479" xlink:href="#k"/><use x="1343.889" xlink:href="#q"/><use x="1407.365" xlink:href="#E"/><use x="1468.645" xlink:href="#O"/><use x="1527.824" xlink:href="#F"/><use x="1579.924" xlink:href="#P"/></g><path d="M79.22 324.897h20" fill="none" stroke="#ff7f0e" stroke-linecap="square" stroke-width="1.5"/><use fill="#ff7f0e" stroke="#ff7f0e" x="89.22" xlink:href="#v" y="324.897"/><g transform="matrix(.1 0 0 -.1 107.22 328.397)"><use xlink:href="#T"/><use x="74.805" xlink:href="#t"/><use x="136.328" xlink:href="#r"/><path d="M259.715 72.906h9.86V5.078q0-13.187-5-19.14-5-5.954-16.095-5.954h-3.75v8.297h3.079q6.53 0 9.218 3.672 2.688 3.656 2.688 13.125z"/><use x="279.395" xlink:href="#t"/><use x="340.918" xlink:href="#g"/><use x="382.031" xlink:href="#F"/><use x="434.131" xlink:href="#t"/><use x="495.654" xlink:href="#O"/><use x="586.621" xlink:href="#J"/><use x="625.635" xlink:href="#q"/><use x="689.111" xlink:href="#o"/><use x="750.293" xlink:href="#K"/><use x="813.672" xlink:href="#L"/><use x="877.148" xlink:href="#p"/><use x="904.932" xlink:href="#t"/><use x="966.455" xlink:href="#F"/><use x="1050.342" xlink:href="#s"/><use x="1078.125" xlink:href="#M"/><use x="1173.291" xlink:href="#c"/><use x="1236.914" xlink:href="#d"/><use x="1300.537" xlink:href="#N"/><use x="1332.324" xlink:href="#h"/><use x="1427.734" xlink:href="#q"/><use x="1491.211" xlink:href="#E"/><use x="1552.49" xlink:href="#O"/><use x="1611.67" xlink:href="#F"/><use x="1663.77" xlink:href="#P"/></g><path d="M79.22 339.575h20" fill="none" stroke="#2ca02c" stroke-linecap="square" stroke-width="1.5"/><g transform="matrix(.1 0 0 -.1 107.22 343.075)"><use xlink:href="#U"/><use x="86.279" xlink:href="#E"/><use x="147.559" xlink:href="#F"/><use x="199.658" xlink:href="#F"/><use x="251.758" xlink:href="#E"/><use x="313.037" xlink:href="#y"/><use x="368.018" xlink:href="#V"/><use x="431.396" xlink:href="#K"/><use x="494.775" xlink:href="#F"/><use x="546.875" xlink:href="#t"/><use x="608.398" xlink:href="#z"/><use x="647.607" xlink:href="#z"/><use x="686.816" xlink:href="#F"/><use x="770.703" xlink:href="#J"/><use x="809.717" xlink:href="#q"/><use x="873.193" xlink:href="#o"/><use x="934.375" xlink:href="#K"/><use x="997.754" xlink:href="#L"/><use x="1061.23" xlink:href="#p"/><use x="1089.014" xlink:href="#t"/><use x="1150.537" xlink:href="#F"/><use x="1234.424" xlink:href="#s"/><use x="1262.207" xlink:href="#M"/><use x="1357.373" xlink:href="#c"/><use x="1420.996" xlink:href="#k"/><use x="1484.619" xlink:href="#N"/><use x="1516.406" xlink:href="#d"/><use x="1611.816" xlink:href="#q"/><use x="1675.293" xlink:href="#E"/><use x="1736.572" xlink:href="#O"/><use x="1795.752" xlink:href="#F"/><use x="1847.852" xlink:href="#P"/></g><path d="M79.22 354.253h20" fill="none" stroke="#d62728" stroke-linecap="square" stroke-width="1.5"/><use fill="#d62728" stroke="#d62728" x="89.22" xlink:href="#w" y="354.253"/><g transform="matrix(.1 0 0 -.1 107.22 357.753)"><use xlink:href="#U"/><use x="86.279" xlink:href="#s"/><use x="114.063" xlink:href="#y"/><use x="169.043" xlink:href="#V"/><use x="232.422" xlink:href="#s"/><use x="260.205" xlink:href="#Q"/><use x="323.682" xlink:href="#E"/><use x="384.961" xlink:href="#M"/><use x="480.127" xlink:href="#J"/><use x="519.141" xlink:href="#q"/><use x="582.617" xlink:href="#o"/><use x="643.799" xlink:href="#K"/><use x="707.178" xlink:href="#L"/><use x="770.654" xlink:href="#p"/><use x="798.438" xlink:href="#t"/><use x="859.961" xlink:href="#F"/><use x="943.848" xlink:href="#s"/><use x="971.631" xlink:href="#M"/><use x="1066.797" xlink:href="#c"/><use x="1130.42" xlink:href="#n"/><use x="1194.043" xlink:href="#N"/><use x="1225.83" xlink:href="#R"/><use x="1321.24" xlink:href="#q"/><use x="1384.717" xlink:href="#E"/><use x="1445.996" xlink:href="#O"/><use x="1505.176" xlink:href="#F"/><use x="1557.275" xlink:href="#P"/></g><path d="M79.22 368.93h20" fill="none" stroke="#9467bd" stroke-linecap="square" stroke-width="1.5"/><use fill="#9467bd" stroke="#9467bd" x="89.22" xlink:href="#x" y="368.931"/><g transform="matrix(.1 0 0 -.1 107.22 372.43)"><use xlink:href="#A"/><use x="69.824" xlink:href="#E"/><use x="131.104" xlink:href="#p"/><use x="158.887" xlink:href="#s"/><use x="186.67" xlink:href="#G"/><use x="221.875" xlink:href="#o"/><use x="283.057" xlink:href="#g"/><use x="324.154" xlink:href="#M"/><use x="387.533" xlink:href="#s"/><use x="415.316" xlink:href="#E"/><use x="508.383" xlink:href="#J"/><use x="547.396" xlink:href="#q"/><use x="610.873" xlink:href="#o"/><use x="672.055" xlink:href="#K"/><use x="735.434" xlink:href="#L"/><use x="798.91" xlink:href="#p"/><use x="826.693" xlink:href="#t"/><use x="888.217" xlink:href="#F"/><use x="972.104" xlink:href="#s"/><use x="999.887" xlink:href="#M"/><use x="1095.053" xlink:href="#c"/><use x="1158.676" xlink:href="#k"/><use x="1222.299" xlink:href="#N"/><use x="1254.086" xlink:href="#m"/><use x="1349.496" xlink:href="#q"/><use x="1412.973" xlink:href="#E"/><use x="1474.252" xlink:href="#O"/><use x="1533.432" xlink:href="#F"/><use x="1585.531" xlink:href="#P"/></g></g></g></svg>