<svg height="758.4" stroke-linejoin="round" viewBox="0 0 568.8 568.8" width="758.4" xmlns="http://www.w3.org/2000/svg" xmlns:xlink="http://www.w3.org/1999/xlink"><defs><path id="w" d="M56.203 29.594v-4.39H14.891q.593-9.282 5.593-14.142 5-4.859 13.938-4.859 5.172 0 10.031 1.266 4.86 1.265 9.656 3.812v-8.5Q49.266.734 44.187-.344 39.11-1.422 33.892-1.422q-13.094 0-20.735 7.61-7.64 7.625-7.64 20.625 0 13.421 7.25 21.296Q20.016 56 32.328 56q11.031 0 17.453-7.11 6.422-7.093 6.422-19.296zm-8.984 2.64q-.094 7.36-4.125 11.75-4.032 4.407-10.672 4.407-7.516 0-12.031-4.25-4.516-4.25-5.203-11.97z" stroke-linejoin="round"/><path id="U" d="M45.406 27.984q0 9.766-4.031 15.125-4.016 5.375-11.297 5.375-7.219 0-11.25-5.375-4.031-5.359-4.031-15.125 0-9.718 4.031-15.093t11.25-5.375q7.281 0 11.297 5.375 4.031 5.375 4.031 15.093zm8.985-21.203q0-13.953-6.203-20.765Q42-20.797 29.203-20.797q-4.734 0-8.937.703-4.203.703-8.157 2.172v8.735q3.954-2.141 7.813-3.157 3.86-1.031 7.86-1.031 8.843 0 13.234 4.61 4.39 4.609 4.39 13.937v4.453q-2.781-4.844-7.125-7.234Q33.938 0 27.875 0 17.828 0 11.672 7.656q-6.156 7.672-6.156 20.328 0 12.688 6.156 20.344Q17.828 56 27.875 56q6.063 0 10.406-2.39 4.344-2.391 7.125-7.22v8.297h8.985z" stroke-linejoin="round"/><path id="b" d="M0 0v3.5" stroke="#000" stroke-linejoin="round" stroke-width=".8"/><path id="c" d="M9.813 72.906h14.703l18.593-49.61 18.703 49.61h14.704V0H66.89v64.016l-18.797-50h-9.907l-18.796 50V0H9.813z" stroke-linejoin="round"/><path id="d" d="M34.281 27.484q-10.89 0-15.093-2.484-4.204-2.484-4.204-8.5 0-4.781 3.157-7.594 3.156-2.797 8.562-2.797 7.485 0 12 5.297 4.516 5.297 4.516 14.078v2zm17.922 3.72V0H43.22v8.297Q40.14 3.328 35.547.953q-4.594-2.375-11.234-2.375-8.391 0-13.36 4.719Q6 8.016 6 15.922q0 9.219 6.172 13.906 6.187 4.688 18.437 4.688h12.61v.89q0 6.203-4.078 9.594-4.078 3.39-11.453 3.39-4.688 0-9.141-1.124-4.438-1.125-8.531-3.375v8.312q4.921 1.906 9.562 2.844 4.64.953 9.031.953 11.875 0 17.735-6.156 5.86-6.14 5.86-18.64z" stroke-linejoin="round"/><path id="e" d="M41.11 46.297q-1.516.875-3.297 1.281Q36.03 48 33.89 48q-7.625 0-11.703-4.953-4.079-4.953-4.079-14.234V0H9.08v54.688h9.03v-8.5q2.844 4.984 7.375 7.39Q30.031 56 36.531 56q.922 0 2.047-.125 1.125-.11 2.484-.36z" stroke-linejoin="round"/><path id="f" d="M19.188 8.297h34.421V0H7.33v8.297q5.609 5.812 15.296 15.594 9.703 9.797 12.188 12.64 4.734 5.313 6.609 9 1.89 3.688 1.89 7.25 0 5.813-4.078 9.469-4.078 3.672-10.625 3.672-4.64 0-9.797-1.61-5.14-1.609-11-4.89v9.969Q13.767 71.78 18.938 73q5.188 1.219 9.485 1.219 11.328 0 18.062-5.672 6.735-5.656 6.735-15.125 0-4.5-1.688-8.531-1.672-4.016-6.125-9.485-1.218-1.422-7.765-8.187-6.532-6.766-18.453-18.922z" stroke-linejoin="round"/><path id="g" d="M31.781 66.406q-7.61 0-11.453-7.5Q16.5 51.422 16.5 36.375q0-14.984 3.828-22.484 3.844-7.5 11.453-7.5 7.672 0 11.5 7.5 3.844 7.5 3.844 22.484 0 15.047-3.844 22.531-3.828 7.5-11.5 7.5zm0 7.813q12.266 0 18.735-9.703 6.468-9.688 6.468-28.141 0-18.406-6.468-28.11-6.47-9.687-18.735-9.687-12.25 0-18.718 9.688-6.47 9.703-6.47 28.109 0 18.453 6.47 28.14Q19.53 74.22 31.78 74.22z" stroke-linejoin="round"/><path id="h" d="M0 0v2" stroke="#000" stroke-linejoin="round" stroke-width=".6"/><path id="i" d="M10.984 1.516V10.5q3.72-1.766 7.516-2.688 3.813-.921 7.484-.921 9.766 0 14.907 6.562 5.156 6.563 5.89 19.953-2.828-4.203-7.187-6.453-4.344-2.25-9.61-2.25-10.937 0-17.312 6.61-6.375 6.625-6.375 18.109 0 11.219 6.64 18 6.641 6.797 17.672 6.797 12.657 0 19.313-9.703 6.672-9.688 6.672-28.141 0-17.234-8.188-27.516Q40.234-1.42 26.422-1.42q-3.719 0-7.531.734-3.797.734-7.907 2.203zM30.61 32.422q6.641 0 10.516 4.531 3.89 4.547 3.89 12.469 0 7.86-3.89 12.422-3.875 4.562-10.516 4.562-6.64 0-10.515-4.562-3.875-4.563-3.875-12.422 0-7.922 3.875-12.469 3.875-4.531 10.515-4.531z" stroke-linejoin="round"/><path id="j" d="M12.406 8.297h16.11v55.625l-17.532-3.516v8.985l17.438 3.515h9.86V8.296H54.39V0H12.406z" stroke-linejoin="round"/><path id="k" d="M33.016 40.375q-6.641 0-10.532-4.547-3.875-4.531-3.875-12.437 0-7.86 3.875-12.438 3.891-4.562 10.532-4.562 6.64 0 10.515 4.562 3.875 4.578 3.875 12.438 0 7.906-3.875 12.437-3.875 4.547-10.515 4.547zm19.578 30.922v-8.984q-3.719 1.75-7.5 2.671-3.782.938-7.5.938-9.766 0-14.922-6.594-5.14-6.594-5.875-19.922 2.875 4.25 7.219 6.516 4.359 2.266 9.578 2.266 10.984 0 17.36-6.672 6.374-6.657 6.374-18.125 0-11.235-6.64-18.032-6.641-6.78-17.672-6.78-12.657 0-19.344 9.687-6.688 9.703-6.688 28.109 0 17.281 8.204 27.563 8.203 10.28 22.015 10.28 3.719 0 7.5-.734t7.89-2.187z" stroke-linejoin="round"/><path id="l" d="M40.578 39.313Q47.656 37.797 51.625 33q3.984-4.781 3.984-11.813 0-10.78-7.422-16.703-7.421-5.906-21.093-5.906-4.578 0-9.438.906-4.86.907-10.031 2.72v9.515q4.094-2.39 8.969-3.61 4.89-1.218 10.218-1.218 9.266 0 14.125 3.656 4.86 3.656 4.86 10.64 0 6.454-4.516 10.079-4.515 3.64-12.562 3.64h-8.5v8.11h8.89q7.266 0 11.125 2.906 3.86 2.906 3.86 8.375 0 5.61-3.985 8.61-3.968 3.015-11.39 3.015-4.063 0-8.703-.89-4.641-.876-10.203-2.72v8.782q5.624 1.562 10.53 2.344 4.907.78 9.25.78 11.235 0 17.766-5.109 6.547-5.093 6.547-13.78 0-6.063-3.468-10.235-3.47-4.172-9.86-5.782z" stroke-linejoin="round"/><path id="m" d="M0 0h-3.5" stroke="#000" stroke-linejoin="round" stroke-width=".8"/><path id="n" d="M37.797 64.313L12.89 25.39h24.906zm-2.594 8.593H47.61V25.391h10.407v-8.203H47.609V0h-9.812v17.188H4.89v9.515z" stroke-linejoin="round"/><path id="o" d="M10.797 72.906h38.719v-8.312H19.828v-17.86q2.14.735 4.281 1.094 2.157.36 4.313.36 12.203 0 19.328-6.688 7.14-6.688 7.14-18.11 0-11.765-7.328-18.296-7.328-6.516-20.656-6.516-4.593 0-9.36.781-4.75.782-9.827 2.344v9.922q4.39-2.39 9.078-3.563 4.687-1.171 9.906-1.171 8.453 0 13.375 4.437 4.938 4.438 4.938 12.063 0 7.609-4.938 12.047-4.922 4.453-13.375 4.453-3.953 0-7.89-.875-3.922-.875-8.016-2.735z" stroke-linejoin="round"/><path id="p" d="M0 0h-2" stroke="#000" stroke-linejoin="round" stroke-width=".6"/><path id="q" d="M3.328 72.906h9.953L28.61 11.281l15.282 61.625h11.093l15.328-61.625 15.282 61.625h10.015L77.297 0H64.89L49.516 63.281 33.984 0H21.578z" stroke-linejoin="round"/><path id="r" d="M30.61 48.39q-7.22 0-11.422-5.64-4.204-5.64-4.204-15.453 0-9.813 4.172-15.453 4.188-5.64 11.453-5.64 7.188 0 11.375 5.655 4.203 5.672 4.203 15.438 0 9.719-4.203 15.406-4.187 5.688-11.375 5.688zm0 7.61q11.718 0 18.406-7.625 6.703-7.61 6.703-21.078 0-13.422-6.703-21.078-6.688-7.64-18.407-7.64-11.765 0-18.437 7.64-6.656 7.656-6.656 21.078 0 13.469 6.656 21.078Q18.844 56 30.609 56z" stroke-linejoin="round"/><path id="s" d="M9.422 75.984h8.984V0H9.422z" stroke-linejoin="round"/><path id="t" d="M45.406 46.39v29.594h8.985V0h-8.985v8.203Q42.578 3.328 38.25.953q-4.313-2.375-10.375-2.375-9.906 0-16.14 7.906-6.22 7.922-6.22 20.813 0 12.89 6.22 20.797Q17.968 56 27.874 56q6.063 0 10.375-2.375 4.328-2.36 7.156-7.234zm-30.61-19.093q0-9.906 4.079-15.547 4.078-5.64 11.203-5.64 7.125 0 11.219 5.64 4.11 5.64 4.11 15.547 0 9.906-4.11 15.547-4.094 5.64-11.219 5.64-7.125 0-11.203-5.64-4.078-5.64-4.078-15.547z" stroke-linejoin="round"/><path id="u" d="M4.203 54.688h8.985l11.234-42.672 11.172 42.672h10.593l11.235-42.672 11.187 42.672h8.985L63.28 0H52.688L40.922 44.828 29.109 0H18.5z" stroke-linejoin="round"/><path id="v" d="M9.422 54.688h8.984V0H9.422zm0 21.296h8.984v-11.39H9.422z" stroke-linejoin="round"/><path id="T" d="M54.89 33.016V0h-8.984v32.719q0 7.765-3.031 11.61-3.031 3.858-9.078 3.858-7.281 0-11.484-4.64-4.204-4.625-4.204-12.64V0H9.08v75.984h9.03V46.188q3.235 4.937 7.594 7.374Q30.078 56 35.797 56q9.422 0 14.25-5.828 4.844-5.828 4.844-17.156z" stroke-linejoin="round"/><path id="x" d="M-3 0h6M0 3v-6" stroke="#1f77b4" stroke-linejoin="round"/><path id="y" d="M0 1.5a1.5 1.5 0 100-3 1.5 1.5 0 000 3z" stroke="#ff7f0e" stroke-linejoin="round"/><path id="z" d="M-3 0h6M0 3v-6" stroke="#d62728" stroke-linejoin="round"/><path id="A" d="M0 1.5a1.5 1.5 0 100-3 1.5 1.5 0 000 3z" stroke="#9467bd" stroke-linejoin="round"/><path id="B" d="M48.781 52.594v-8.407q-3.812 2.11-7.64 3.157-3.828 1.047-7.735 1.047-8.75 0-13.593-5.547-4.829-5.532-4.829-15.547 0-10.016 4.829-15.563 4.843-5.53 13.593-5.53 3.907 0 7.735 1.046 3.828 1.047 7.64 3.156V2.094Q45.016.344 40.984-.531q-4.015-.89-8.562-.89-12.36 0-19.64 7.765-7.266 7.765-7.266 20.953 0 13.375 7.343 21.031Q20.22 56 33.016 56q4.14 0 8.093-.86 3.953-.843 7.672-2.546z" stroke-linejoin="round"/><path id="C" d="M18.313 70.219V54.688h18.5v-6.985h-18.5V18.016q0-6.688 1.828-8.594 1.828-1.906 7.453-1.906h9.218V0h-9.218q-10.407 0-14.36 3.875-3.953 3.89-3.953 14.14v29.688H2.687v6.984h6.594V70.22z" stroke-linejoin="round"/><path id="D" d="M64.406 67.281v-10.39q-4.984 4.64-10.625 6.922-5.64 2.296-11.984 2.296-12.5 0-19.14-7.64-6.641-7.64-6.641-22.094 0-14.406 6.64-22.047 6.64-7.64 19.14-7.64 6.345 0 11.985 2.296 5.64 2.297 10.625 6.938V5.609Q59.234 2.094 53.437.33q-5.78-1.75-12.218-1.75-16.563 0-26.094 10.124-9.516 10.14-9.516 27.672 0 17.578 9.516 27.703 9.531 10.14 26.094 10.14 6.531 0 12.312-1.734 5.797-1.734 10.875-5.203z" stroke-linejoin="round"/><path id="E" d="M9.813 72.906h9.859V0h-9.86z" stroke-linejoin="round"/><path id="F" d="M4.89 31.39h26.313v-8H4.891z" stroke-linejoin="round"/><path id="G" d="M44.281 53.078v-8.5q-3.797 1.953-7.906 2.922-4.094.984-8.5.984-6.688 0-10.031-2.047-3.344-2.046-3.344-6.156 0-3.125 2.39-4.906 2.391-1.781 9.626-3.39l3.078-.688q9.562-2.047 13.593-5.781 4.032-3.735 4.032-10.422 0-7.625-6.032-12.078-6.03-4.438-16.578-4.438-4.39 0-9.156.86Q10.688.296 5.422 2v9.281q4.984-2.594 9.812-3.89 4.829-1.282 9.579-1.282 6.343 0 9.75 2.172 3.421 2.172 3.421 6.125 0 3.656-2.468 5.61-2.453 1.953-10.813 3.765l-3.125.735q-8.344 1.75-12.062 5.39-3.704 3.64-3.704 9.985 0 7.718 5.47 11.906Q16.75 56 26.811 56q4.97 0 9.36-.734 4.406-.72 8.11-2.188z" stroke-linejoin="round"/><path id="H" d="M37.11 75.984V68.5h-8.594q-4.828 0-6.72-1.953-1.874-1.953-1.874-7.031v-4.828h14.797v-6.985H19.922V0H10.89v47.703H2.297v6.984h8.594V58.5q0 9.125 4.25 13.297 4.25 4.187 13.468 4.187z" stroke-linejoin="round"/><path id="I" d="M8.688 72.906h9.921V28.61q0-11.718 4.235-16.875 4.25-5.14 13.781-5.14 9.469 0 13.719 5.14 4.25 5.157 4.25 16.875v44.297H64.5V27.391q0-14.25-7.063-21.532-7.046-7.28-20.812-7.28-13.828 0-20.89 7.28-7.047 7.282-7.047 21.532z" stroke-linejoin="round"/><path id="J" d="M53.516 70.516V60.89q-5.61 2.687-10.594 4-4.984 1.328-9.625 1.328-8.047 0-12.422-3.125t-4.375-8.89q0-4.845 2.906-7.313 2.907-2.453 11.016-3.97l5.953-1.218q11.031-2.11 16.281-7.406 5.25-5.297 5.25-14.172 0-10.61-7.11-16.078-7.093-5.469-20.812-5.469-5.172 0-11.015 1.172Q13.14.922 6.89 3.219v10.156q6-3.36 11.765-5.078 5.766-1.703 11.328-1.703 8.438 0 13.032 3.312 4.593 3.328 4.593 9.485 0 5.359-3.297 8.39-3.296 3.032-10.812 4.547L27.484 33.5q-11.03 2.188-15.968 6.875-4.922 4.688-4.922 13.047 0 9.672 6.812 15.234 6.813 5.563 18.766 5.563 5.14 0 10.453-.938 5.328-.922 10.89-2.765z" stroke-linejoin="round"/><path id="K" d="M31 75.875q-6.531-11.219-9.719-22.219-3.172-10.984-3.172-22.265 0-11.266 3.203-22.328Q24.517-2 31-13.188h-7.813Q15.875-1.704 12.235 9.375q-3.64 11.078-3.64 22.016 0 10.89 3.61 21.922 3.624 11.046 10.983 22.562z" stroke-linejoin="round"/><path id="L" d="M8.5 21.578v33.11h8.984V21.922q0-7.766 3.016-11.656 3.031-3.875 9.094-3.875 7.265 0 11.484 4.64 4.234 4.64 4.234 12.656v31h8.985V0h-8.984v8.406Q42.047 3.422 37.718 1q-4.313-2.422-10.032-2.422-9.421 0-14.312 5.86Q8.5 10.296 8.5 21.578z" stroke-linejoin="round"/><path id="M" d="M48.688 27.297q0 9.906-4.079 15.547-4.078 5.64-11.203 5.64-7.14 0-11.218-5.64-4.079-5.64-4.079-15.547 0-9.906 4.078-15.547 4.079-5.64 11.22-5.64 7.124 0 11.202 5.64t4.078 15.547zM18.108 46.39q2.844 4.875 7.157 7.234Q29.594 56 35.594 56q9.968 0 16.187-7.906 6.235-7.907 6.235-20.797T51.78 6.484q-6.218-7.906-16.187-7.906-6 0-10.328 2.375-4.313 2.375-7.157 7.25V0H9.08v75.984h9.03z" stroke-linejoin="round"/><path id="N" d="M54.89 33.016V0h-8.984v32.719q0 7.765-3.031 11.61-3.031 3.858-9.078 3.858-7.281 0-11.484-4.64-4.204-4.625-4.204-12.64V0H9.08v54.688h9.03v-8.5q3.235 4.937 7.594 7.374Q30.078 56 35.797 56q9.422 0 14.25-5.828 4.844-5.828 4.844-17.156z" stroke-linejoin="round"/><path id="O" d="M10.688 12.406H21V0H10.687z" stroke-linejoin="round"/><path id="P" d="M32.172-5.078q-3.797-9.766-7.422-12.735-3.61-2.984-9.656-2.984H7.906v7.516h5.282q3.703 0 5.75 1.765Q21-9.766 23.483-3.219l1.61 4.094-22.11 53.813H12.5l17.094-42.766 17.093 42.766h9.516z" stroke-linejoin="round"/><path id="Q" d="M8.016 75.875h7.812q7.313-11.516 10.953-22.563 3.64-11.03 3.64-21.921 0-10.938-3.64-22.016-3.64-11.078-10.953-22.563H8.016Q14.5-2 17.703 9.063q3.203 11.063 3.203 22.329 0 11.28-3.203 22.265-3.203 11-9.687 22.219z" stroke-linejoin="round"/><path id="S" d="M9.813 72.906h13.28l32.329-60.984v60.984h9.562V0h-13.28L19.39 60.984V0H9.813z" stroke-linejoin="round"/><clipPath id="R" stroke-linejoin="round"><path d="M71.1 307.152h440.82v199.08H71.1z"/></clipPath><clipPath id="a" stroke-linejoin="round"><path d="M71.1 68.256h440.82v199.08H71.1z"/></clipPath></defs><path d="M0 568.8h568.8V0H0z" fill="#fff"/><path d="M71.1 267.336h440.82V68.256H71.1z" fill="#fff"/><path clip-path="url(#a)" d="M71.1 267.336V68.256" fill="none" stroke="#b0b0b0" stroke-linecap="square" stroke-width=".8"/><use stroke="#000" stroke-width=".8" x="71.1" xlink:href="#b" y="267.336"/><g transform="matrix(.1 0 0 -.1 61.666 304.33)"><use xlink:href="#c"/><use x="86.279" xlink:href="#d"/><use x="147.559" xlink:href="#e"/></g><g transform="matrix(.1 0 0 -.1 58.375 315.528)"><use xlink:href="#f"/><use x="63.623" xlink:href="#g"/><use x="127.246" xlink:href="#f"/><use x="190.869" xlink:href="#g"/></g><g stroke-width=".8"><path clip-path="url(#a)" d="M511.92 267.336V68.256" fill="none" stroke="#b0b0b0" stroke-linecap="square"/><use stroke="#000" x="511.92" xlink:href="#b" y="267.336"/></g><use stroke="#000" stroke-width=".6" x="71.1" xlink:href="#h" y="267.336"/><use stroke="#000" stroke-width=".6" x="86.844" xlink:href="#h" y="267.336"/><g transform="matrix(.1 0 0 -.1 80.481 280.334)"><use xlink:href="#g"/><use x="63.623" xlink:href="#f"/></g><g stroke="#000" stroke-width=".6"><use x="102.587" xlink:href="#h" y="267.336"/><use x="118.331" xlink:href="#h" y="267.336"/><use x="134.074" xlink:href="#h" y="267.336"/><use x="149.818" xlink:href="#h" y="267.336"/><use x="165.561" xlink:href="#h" y="267.336"/><use x="181.305" xlink:href="#h" y="267.336"/></g><use stroke="#000" stroke-width=".6" x="197.049" xlink:href="#h" y="267.336"/><g transform="matrix(.1 0 0 -.1 190.686 280.334)"><use xlink:href="#g"/><use x="63.623" xlink:href="#i"/></g><use stroke="#000" stroke-width=".6" x="212.792" xlink:href="#h" y="267.336"/><use stroke="#000" stroke-width=".6" x="228.536" xlink:href="#h" y="267.336"/><use stroke="#000" stroke-width=".6" x="244.279" xlink:href="#h" y="267.336"/><use stroke="#000" stroke-width=".6" x="260.023" xlink:href="#h" y="267.336"/><use stroke="#000" stroke-width=".6" x="275.766" xlink:href="#h" y="267.336"/><use stroke="#000" stroke-width=".6" x="291.51" xlink:href="#h" y="267.336"/><use stroke="#000" stroke-width=".6" x="307.254" xlink:href="#h" y="267.336"/><g transform="matrix(.1 0 0 -.1 300.891 280.334)"><use xlink:href="#j"/><use x="63.623" xlink:href="#k"/></g><use stroke="#000" stroke-width=".6" x="322.997" xlink:href="#h" y="267.336"/><use stroke="#000" stroke-width=".6" x="338.741" xlink:href="#h" y="267.336"/><use stroke="#000" stroke-width=".6" x="354.484" xlink:href="#h" y="267.336"/><use stroke="#000" stroke-width=".6" x="370.228" xlink:href="#h" y="267.336"/><use stroke="#000" stroke-width=".6" x="385.971" xlink:href="#h" y="267.336"/><use stroke="#000" stroke-width=".6" x="401.715" xlink:href="#h" y="267.336"/><use stroke="#000" stroke-width=".6" x="417.459" xlink:href="#h" y="267.336"/><g transform="matrix(.1 0 0 -.1 411.096 280.334)"><use xlink:href="#f"/><use x="63.623" xlink:href="#l"/></g><use stroke="#000" stroke-width=".6" x="433.202" xlink:href="#h" y="267.336"/><use stroke="#000" stroke-width=".6" x="448.946" xlink:href="#h" y="267.336"/><use stroke="#000" stroke-width=".6" x="464.689" xlink:href="#h" y="267.336"/><use stroke="#000" stroke-width=".6" x="480.433" xlink:href="#h" y="267.336"/><use stroke="#000" stroke-width=".6" x="496.176" xlink:href="#h" y="267.336"/><use stroke="#000" stroke-width=".6" x="511.92" xlink:href="#h" y="267.336"/><g><path clip-path="url(#a)" d="M71.1 267.336h440.82" fill="none" stroke="#b0b0b0" stroke-linecap="square" stroke-width=".8"/><use stroke="#000" stroke-width=".8" x="71.1" xlink:href="#m" y="267.336"/><g transform="matrix(.1 0 0 -.1 46.5 271.135)"><use transform="translate(0 .684)" xlink:href="#j"/><use transform="translate(63.623 .684)" xlink:href="#g"/><use transform="matrix(.7 0 0 .7 128.203 38.966)" xlink:href="#j"/></g><path clip-path="url(#a)" d="M71.1 222.671h440.82" fill="none" stroke="#b0b0b0" stroke-linecap="square" stroke-width=".8"/><use stroke="#000" stroke-width=".8" x="71.1" xlink:href="#m" y="222.671"/><g transform="matrix(.1 0 0 -.1 46.5 226.47)"><use transform="translate(0 .766)" xlink:href="#j"/><use transform="translate(63.623 .766)" xlink:href="#g"/><use transform="matrix(.7 0 0 .7 128.203 39.047)" xlink:href="#f"/></g><path clip-path="url(#a)" d="M71.1 178.007h440.82" fill="none" stroke="#b0b0b0" stroke-linecap="square" stroke-width=".8"/><use stroke="#000" stroke-width=".8" x="71.1" xlink:href="#m" y="178.007"/><g transform="matrix(.1 0 0 -.1 46.5 181.806)"><use transform="translate(0 .766)" xlink:href="#j"/><use transform="translate(63.623 .766)" xlink:href="#g"/><use transform="matrix(.7 0 0 .7 128.203 39.047)" xlink:href="#l"/></g><g><path clip-path="url(#a)" d="M71.1 133.342h440.82" fill="none" stroke="#b0b0b0" stroke-linecap="square" stroke-width=".8"/><use stroke="#000" stroke-width=".8" x="71.1" xlink:href="#m" y="133.342"/><g transform="matrix(.1 0 0 -.1 46.5 137.141)"><use transform="translate(0 .684)" xlink:href="#j"/><use transform="translate(63.623 .684)" xlink:href="#g"/><use transform="matrix(.7 0 0 .7 128.203 38.966)" xlink:href="#n"/></g></g><g><path clip-path="url(#a)" d="M71.1 88.677h440.82" fill="none" stroke="#b0b0b0" stroke-linecap="square" stroke-width=".8"/><use stroke="#000" stroke-width=".8" x="71.1" xlink:href="#m" y="88.677"/><g transform="matrix(.1 0 0 -.1 46.5 92.477)"><use transform="translate(0 .684)" xlink:href="#j"/><use transform="translate(63.623 .684)" xlink:href="#g"/><use transform="matrix(.7 0 0 .7 128.203 38.966)" xlink:href="#o"/></g></g><g stroke="#000" stroke-width=".6"><use x="71.1" xlink:href="#p" y="253.891"/><use x="71.1" xlink:href="#p" y="246.026"/><use x="71.1" xlink:href="#p" y="240.445"/><use x="71.1" xlink:href="#p" y="236.117"/><use x="71.1" xlink:href="#p" y="232.58"/><use x="71.1" xlink:href="#p" y="229.59"/><use x="71.1" xlink:href="#p" y="227"/><use x="71.1" xlink:href="#p" y="224.715"/><use x="71.1" xlink:href="#p" y="209.226"/><use x="71.1" xlink:href="#p" y="201.361"/><use x="71.1" xlink:href="#p" y="195.781"/><use x="71.1" xlink:href="#p" y="191.452"/><use x="71.1" xlink:href="#p" y="187.916"/><use x="71.1" xlink:href="#p" y="184.925"/><use x="71.1" xlink:href="#p" y="182.335"/><use x="71.1" xlink:href="#p" y="180.05"/><use x="71.1" xlink:href="#p" y="164.561"/><use x="71.1" xlink:href="#p" y="156.696"/><use x="71.1" xlink:href="#p" y="151.116"/><use x="71.1" xlink:href="#p" y="146.787"/><use x="71.1" xlink:href="#p" y="143.251"/><use x="71.1" xlink:href="#p" y="140.261"/><use x="71.1" xlink:href="#p" y="137.671"/><use x="71.1" xlink:href="#p" y="135.386"/><use x="71.1" xlink:href="#p" y="119.897"/><use x="71.1" xlink:href="#p" y="112.032"/><use x="71.1" xlink:href="#p" y="106.451"/><use x="71.1" xlink:href="#p" y="102.123"/><use x="71.1" xlink:href="#p" y="98.586"/><use x="71.1" xlink:href="#p" y="95.596"/><use x="71.1" xlink:href="#p" y="93.006"/><use x="71.1" xlink:href="#p" y="90.721"/><use x="71.1" xlink:href="#p" y="75.232"/></g><g transform="matrix(0 -.1 -.1 0 40.42 194.143)"><use xlink:href="#q"/><use x="98.799" xlink:href="#r"/><use x="159.98" xlink:href="#e"/><use x="201.094" xlink:href="#s"/><use x="228.877" xlink:href="#t"/><use x="292.354" xlink:href="#u"/><use x="374.141" xlink:href="#v"/><use x="401.924" xlink:href="#t"/><use x="465.4" xlink:href="#w"/></g></g><g stroke="#1f77b4"><path clip-path="url(#a)" d="M-1 236.337l9.126-1.35 15.743-.363 15.744-.356 15.743-2.324 15.744-1.792 15.744-5.001 15.743-3.792 15.744-4.365 15.743-7.865 15.744-4.692 15.743-8.265 15.744-5.028 15.744-2.403 15.743-9.18 15.744-5.68 15.743-5.124 15.744-5.326 15.743-4.401 15.744-4.898 15.744-5.43 15.743-6.385 15.744-3.554 15.743-11.057 15.744-6.516 15.743-5.633 15.744-5.56 15.744-5 15.743-3.89 15.744-3.916 15.743-4.651" fill="none" stroke-linecap="square" stroke-width="1.5"/><g clip-path="url(#a)" fill="#1f77b4"><use x="-1" xlink:href="#x" y="236.337"/><use x="8.126" xlink:href="#x" y="234.986"/><use x="23.869" xlink:href="#x" y="234.624"/><use x="39.613" xlink:href="#x" y="234.268"/><use x="55.356" xlink:href="#x" y="231.944"/><use x="71.1" xlink:href="#x" y="230.152"/><use x="86.844" xlink:href="#x" y="225.151"/><use x="102.587" xlink:href="#x" y="221.359"/><use x="118.331" xlink:href="#x" y="216.994"/><use x="134.074" xlink:href="#x" y="209.129"/><use x="149.818" xlink:href="#x" y="204.437"/><use x="165.561" xlink:href="#x" y="196.172"/><use x="181.305" xlink:href="#x" y="191.144"/><use x="197.049" xlink:href="#x" y="188.741"/><use x="212.792" xlink:href="#x" y="179.561"/><use x="228.536" xlink:href="#x" y="173.881"/><use x="244.279" xlink:href="#x" y="168.757"/><use x="260.023" xlink:href="#x" y="163.431"/><use x="275.766" xlink:href="#x" y="159.03"/><use x="291.51" xlink:href="#x" y="154.132"/><use x="307.254" xlink:href="#x" y="148.702"/><use x="322.997" xlink:href="#x" y="142.317"/><use x="338.741" xlink:href="#x" y="138.763"/><use x="354.484" xlink:href="#x" y="127.706"/><use x="370.228" xlink:href="#x" y="121.19"/><use x="385.971" xlink:href="#x" y="115.557"/><use x="401.715" xlink:href="#x" y="109.996"/><use x="417.459" xlink:href="#x" y="104.997"/><use x="433.202" xlink:href="#x" y="101.108"/><use x="448.946" xlink:href="#x" y="97.191"/><use x="464.689" xlink:href="#x" y="92.54"/></g></g><g stroke="#ff7f0e"><path clip-path="url(#a)" d="M-1 197.87l9.126-3.85 15.743-5.877 15.744-6.31 15.743-4.828 15.744-7.834 15.744-2.94 15.743-4.066 15.744-3.468 15.743-3.826 15.744-3.343 15.743-4.976 15.744-4.514 15.744-4.331 15.743-1.872 15.744-3.605h15.743l15.744-6.695 15.743-3.323 15.744-2.892 15.744-2.196 15.743-2.363 15.744-1.877 15.743-2.813 15.744-2.903 15.743-1.975 15.744-1.72 15.744-1.512 15.743-1.342 15.744-1.214 15.743-1.459" fill="none" stroke-linecap="square" stroke-width="1.5"/><g clip-path="url(#a)" fill="#ff7f0e"><use x="-1" xlink:href="#y" y="197.87"/><use x="8.126" xlink:href="#y" y="194.02"/><use x="23.869" xlink:href="#y" y="188.143"/><use x="39.613" xlink:href="#y" y="181.833"/><use x="55.356" xlink:href="#y" y="177.005"/><use x="71.1" xlink:href="#y" y="169.171"/><use x="86.844" xlink:href="#y" y="166.231"/><use x="102.587" xlink:href="#y" y="162.165"/><use x="118.331" xlink:href="#y" y="158.697"/><use x="134.074" xlink:href="#y" y="154.871"/><use x="149.818" xlink:href="#y" y="151.528"/><use x="165.561" xlink:href="#y" y="146.552"/><use x="181.305" xlink:href="#y" y="142.038"/><use x="197.049" xlink:href="#y" y="137.707"/><use x="212.792" xlink:href="#y" y="135.835"/><use x="228.536" xlink:href="#y" y="132.23"/><use x="244.279" xlink:href="#y" y="132.23"/><use x="260.023" xlink:href="#y" y="125.535"/><use x="275.766" xlink:href="#y" y="122.212"/><use x="291.51" xlink:href="#y" y="119.32"/><use x="307.254" xlink:href="#y" y="117.124"/><use x="322.997" xlink:href="#y" y="114.761"/><use x="338.741" xlink:href="#y" y="112.884"/><use x="354.484" xlink:href="#y" y="110.071"/><use x="370.228" xlink:href="#y" y="107.168"/><use x="385.971" xlink:href="#y" y="105.193"/><use x="401.715" xlink:href="#y" y="103.473"/><use x="417.459" xlink:href="#y" y="101.961"/><use x="433.202" xlink:href="#y" y="100.619"/><use x="448.946" xlink:href="#y" y="99.405"/><use x="464.689" xlink:href="#y" y="97.946"/></g></g><path clip-path="url(#a)" d="M-1 276.861l9.126-11.374 15.743-3.24 15.744-16.221 15.743-6.984L71.1 226.521l15.744-7.06 15.743-6.148 15.744-5.759 15.743-2.964 15.744-8.467 15.743-3.053 15.744-5.977 15.744-9.337 15.743-9.203 15.744-4.376 15.743.01 15.744-17.031 15.743-2.839 15.744-4.034 15.744-5.047 15.743-2.253 15.744-3.508 15.743-5.281 15.744-2.014 15.743-4.02 15.744-2.375 15.744-3.408 15.743-2.36 15.744-3.807 15.743-2.64" fill="none" stroke="#2ca02c" stroke-linecap="square" stroke-width="1.5"/><g stroke="#d62728"><path clip-path="url(#a)" d="M-1 279.387l9.126-15.588 15.743-17.773 15.744-1.252 15.743-13.14L71.1 220.13l15.744-4.397 15.743-4.463 15.744-6.06 15.743-12.392 15.744-6.544 15.743-3.473 15.744-5.216 15.744-2.39 15.743-4.221 15.744-5.212 15.743-1.68 15.744-11.04 15.743-4.34 15.744-4.585 15.744-4.37 15.743-4.716 15.744-5.537 15.743-4.227 15.744-4.98 15.743-2.147 15.744-2.19 15.744-2.91 15.743-.739 15.744-2.45 15.743-2.404" fill="none" stroke-linecap="square" stroke-width="1.5"/><g clip-path="url(#a)" fill="#d62728"><use x="-1" xlink:href="#z" y="279.387"/><use x="8.126" xlink:href="#z" y="263.799"/><use x="23.869" xlink:href="#z" y="246.026"/><use x="39.613" xlink:href="#z" y="244.774"/><use x="55.356" xlink:href="#z" y="231.634"/><use x="71.1" xlink:href="#z" y="220.13"/><use x="86.844" xlink:href="#z" y="215.733"/><use x="102.587" xlink:href="#z" y="211.27"/><use x="118.331" xlink:href="#z" y="205.21"/><use x="134.074" xlink:href="#z" y="192.818"/><use x="149.818" xlink:href="#z" y="186.274"/><use x="165.561" xlink:href="#z" y="182.801"/><use x="181.305" xlink:href="#z" y="177.585"/><use x="197.049" xlink:href="#z" y="175.195"/><use x="212.792" xlink:href="#z" y="170.974"/><use x="228.536" xlink:href="#z" y="165.762"/><use x="244.279" xlink:href="#z" y="164.082"/><use x="260.023" xlink:href="#z" y="153.041"/><use x="275.766" xlink:href="#z" y="148.702"/><use x="291.51" xlink:href="#z" y="144.117"/><use x="307.254" xlink:href="#z" y="139.747"/><use x="322.997" xlink:href="#z" y="135.031"/><use x="338.741" xlink:href="#z" y="129.494"/><use x="354.484" xlink:href="#z" y="125.267"/><use x="370.228" xlink:href="#z" y="120.288"/><use x="385.971" xlink:href="#z" y="118.14"/><use x="401.715" xlink:href="#z" y="115.95"/><use x="417.459" xlink:href="#z" y="113.04"/><use x="433.202" xlink:href="#z" y="112.301"/><use x="448.946" xlink:href="#z" y="109.851"/><use x="464.689" xlink:href="#z" y="107.447"/></g></g><g stroke="#9467bd"><path clip-path="url(#a)" d="M-1 291.084l9.126-10.303 15.743-31.219 15.744-10.966 15.743-12.999 15.744-5.805 15.744-8.086 15.743-1.28 15.744-6.95 15.743-5.598 15.744-10.97 15.743-7.41 15.744-3.252 15.744-1.417 15.743-7.555 15.744-4.772h15.743l15.744-9.213 15.743-3.92 15.744-.146 15.744-7.495 15.743-2.865 15.744-3.243 15.743-3.465 15.744-2.622 15.743-2.346 15.744.57 15.744-4.77 15.743-1.295 15.744-2.141 15.743-2.28" fill="none" stroke-linecap="square" stroke-width="1.5"/><g clip-path="url(#a)" fill="#9467bd"><use x="-1" xlink:href="#A" y="291.084"/><use x="8.126" xlink:href="#A" y="280.781"/><use x="23.869" xlink:href="#A" y="249.562"/><use x="39.613" xlink:href="#A" y="238.596"/><use x="55.356" xlink:href="#A" y="225.597"/><use x="71.1" xlink:href="#A" y="219.792"/><use x="86.844" xlink:href="#A" y="211.706"/><use x="102.587" xlink:href="#A" y="210.426"/><use x="118.331" xlink:href="#A" y="203.477"/><use x="134.074" xlink:href="#A" y="197.878"/><use x="149.818" xlink:href="#A" y="186.908"/><use x="165.561" xlink:href="#A" y="179.498"/><use x="181.305" xlink:href="#A" y="176.246"/><use x="197.049" xlink:href="#A" y="174.829"/><use x="212.792" xlink:href="#A" y="167.274"/><use x="228.536" xlink:href="#A" y="162.502"/><use x="244.279" xlink:href="#A" y="162.502"/><use x="260.023" xlink:href="#A" y="153.289"/><use x="275.766" xlink:href="#A" y="149.369"/><use x="291.51" xlink:href="#A" y="149.223"/><use x="307.254" xlink:href="#A" y="141.728"/><use x="322.997" xlink:href="#A" y="138.863"/><use x="338.741" xlink:href="#A" y="135.62"/><use x="354.484" xlink:href="#A" y="132.155"/><use x="370.228" xlink:href="#A" y="129.533"/><use x="385.971" xlink:href="#A" y="127.187"/><use x="401.715" xlink:href="#A" y="127.756"/><use x="417.459" xlink:href="#A" y="122.988"/><use x="433.202" xlink:href="#A" y="121.692"/><use x="448.946" xlink:href="#A" y="119.551"/><use x="464.689" xlink:href="#A" y="117.272"/></g></g><path clip-path="url(#a)" d="M464.69 92.54l15.743-4.226 15.743-4.226 15.744-4.225" fill="none" stroke="#1f77b4" stroke-dasharray="1.5 2.475" stroke-width="1.5"/><path clip-path="url(#a)" d="M464.69 97.946l15.743-1.346 15.743-1.347 15.744-1.346" fill="none" stroke="#ff7f0e" stroke-dasharray="1.5 2.475" stroke-width="1.5"/><path clip-path="url(#a)" d="M464.69 103.57l15.743-2.997 15.743-2.997 15.744-2.997" fill="none" stroke="#2ca02c" stroke-dasharray="1.5 2.475" stroke-width="1.5"/><path clip-path="url(#a)" d="M464.69 107.447l15.743-2.063 15.743-2.064 15.744-2.063" fill="none" stroke="#d62728" stroke-dasharray="1.5 2.475" stroke-width="1.5"/><path clip-path="url(#a)" d="M464.69 117.272l15.743-2.02 15.743-2.018 15.744-2.02" fill="none" stroke="#9467bd" stroke-dasharray="1.5 2.475" stroke-width="1.5"/><path d="M71.1 267.336V68.256M511.92 267.336V68.256M71.1 267.336h440.82M71.1 68.256h440.82" fill="none" stroke="#000" stroke-linecap="square" stroke-linejoin="miter" stroke-width=".8"/><g transform="matrix(.12 0 0 -.12 169.73 62.256)"><path d="M34.188 63.188L20.797 26.906h26.812zm-5.579 9.718h11.188L67.578 0h-10.25l-6.64 18.703h-32.86L11.188 0H.78z"/><use x="68.393" xlink:href="#B"/><use x="123.373" xlink:href="#C"/><use x="162.582" xlink:href="#v"/><path d="M193.35 54.688h9.515L219.96 8.797l17.094 45.89h9.515L226.053 0H213.85z"/><use x="249.545" xlink:href="#w"/><use x="342.855" xlink:href="#D"/><path d="M452.086 66.219q-10.75 0-17.078-8.016-6.313-8-6.313-21.828 0-13.766 6.313-21.781 6.328-8 17.078-8 10.734 0 17.016 8 6.28 8.015 6.28 21.781 0 13.828-6.28 21.828-6.282 8.016-17.016 8.016zm0 8q15.328 0 24.5-10.281 9.187-10.282 9.187-27.563 0-17.234-9.187-27.516-9.172-10.28-24.5-10.28-15.375 0-24.594 10.25-9.203 10.265-9.203 27.546t9.203 27.563q9.219 10.28 24.594 10.28zM519.984 0l-27.828 72.906h10.297l23.11-61.375 23.14 61.375h10.25L531.172 0z"/><use x="559.783" xlink:href="#E"/><path d="M608.947 64.797V8.109h11.922q15.094 0 22.094 6.829 7 6.843 7 21.593 0 14.64-7 21.453-7 6.813-22.094 6.813zm-9.86 8.11h20.267q21.187 0 31.093-8.813 9.922-8.813 9.922-27.563 0-18.86-9.969-27.703Q640.447 0 619.354 0h-20.266z"/><use x="666.277" xlink:href="#F"/><use x="702.361" xlink:href="#j"/><use x="765.984" xlink:href="#i"/><use x="861.395" xlink:href="#B"/><use x="916.375" xlink:href="#d"/><use x="977.654" xlink:href="#G"/><use x="1029.754" xlink:href="#w"/><use x="1091.277" xlink:href="#G"/><use x="1175.164" xlink:href="#d"/><use x="1236.443" xlink:href="#G"/><use x="1320.33" xlink:href="#r"/><use x="1381.512" xlink:href="#H"/><use x="1448.504" xlink:href="#f"/><use x="1512.127" xlink:href="#g"/><use x="1575.75" xlink:href="#f"/><use x="1639.373" xlink:href="#g"/><use x="1702.996" xlink:href="#F"/><use x="1739.08" xlink:href="#g"/><use x="1802.703" xlink:href="#l"/><use x="1866.326" xlink:href="#F"/><use x="1902.41" xlink:href="#f"/><use x="1966.033" xlink:href="#k"/></g><g><path d="M318.351 262.336H504.92q2 0 2-2v-72.39q0-2-2-2H318.351q-2 0-2 2v72.39q0 2 2 2z" fill="#fff" opacity=".8" stroke="#ccc" stroke-linejoin="miter"/><path d="M320.351 194.044h20" fill="none" stroke="#1f77b4" stroke-linecap="square" stroke-width="1.5"/><use fill="#1f77b4" stroke="#1f77b4" x="330.351" xlink:href="#x" y="194.044"/><g transform="matrix(.1 0 0 -.1 348.351 197.544)"><use xlink:href="#I"/><use x="73.193" xlink:href="#J"/><use x="168.457" xlink:href="#K"/><use x="207.471" xlink:href="#t"/><use x="270.947" xlink:href="#r"/><use x="332.129" xlink:href="#L"/><use x="395.508" xlink:href="#M"/><use x="458.984" xlink:href="#s"/><use x="486.768" xlink:href="#w"/><use x="548.291" xlink:href="#G"/><use x="632.178" xlink:href="#v"/><use x="659.961" xlink:href="#N"/><use x="755.127" xlink:href="#l"/><use x="818.75" xlink:href="#O"/><use x="850.537" xlink:href="#f"/><use x="945.947" xlink:href="#t"/><use x="1009.424" xlink:href="#d"/><use x="1070.703" xlink:href="#P"/><use x="1129.883" xlink:href="#G"/><use x="1181.982" xlink:href="#Q"/></g><path d="M320.351 208.722h20" fill="none" stroke="#ff7f0e" stroke-linecap="square" stroke-width="1.5"/><use fill="#ff7f0e" stroke="#ff7f0e" x="330.351" xlink:href="#y" y="208.722"/><g transform="matrix(.1 0 0 -.1 348.351 212.222)"><use xlink:href="#E"/><use x="29.492" xlink:href="#C"/><use x="68.701" xlink:href="#d"/><use x="129.98" xlink:href="#s"/><use x="157.764" xlink:href="#P"/><use x="248.73" xlink:href="#K"/><use x="287.744" xlink:href="#t"/><use x="351.221" xlink:href="#r"/><use x="412.402" xlink:href="#L"/><use x="475.781" xlink:href="#M"/><use x="539.258" xlink:href="#s"/><use x="567.041" xlink:href="#w"/><use x="628.564" xlink:href="#G"/><use x="712.451" xlink:href="#v"/><use x="740.234" xlink:href="#N"/><use x="835.4" xlink:href="#j"/><use x="899.023" xlink:href="#g"/><use x="962.646" xlink:href="#O"/><use x="994.434" xlink:href="#g"/><use x="1089.844" xlink:href="#t"/><use x="1153.32" xlink:href="#d"/><use x="1214.6" xlink:href="#P"/><use x="1273.779" xlink:href="#G"/><use x="1325.879" xlink:href="#Q"/></g><path d="M320.351 223.4h20" fill="none" stroke="#2ca02c" stroke-linecap="square" stroke-width="1.5"/><g transform="matrix(.1 0 0 -.1 348.351 226.9)"><use xlink:href="#J"/><path d="M81.586 8.203v-29h-9.031v75.484h9.03v-8.296q2.845 4.875 7.157 7.234Q93.07 56 99.07 56q9.97 0 16.188-7.906 6.234-7.907 6.234-20.797t-6.234-20.813q-6.219-7.906-16.188-7.906-6 0-10.328 2.375-4.312 2.375-7.156 7.25zm30.578 19.094q0 9.906-4.078 15.547-4.078 5.64-11.203 5.64-7.14 0-11.219-5.64-4.078-5.64-4.078-15.547 0-9.906 4.078-15.547 4.078-5.64 11.219-5.64 7.125 0 11.203 5.64 4.078 5.64 4.078 15.547z"/><use x="126.953" xlink:href="#d"/><use x="188.232" xlink:href="#v"/><use x="216.016" xlink:href="#N"/><use x="311.182" xlink:href="#K"/><use x="350.195" xlink:href="#t"/><use x="413.672" xlink:href="#r"/><use x="474.854" xlink:href="#L"/><use x="538.232" xlink:href="#M"/><use x="601.709" xlink:href="#s"/><use x="629.492" xlink:href="#w"/><use x="691.016" xlink:href="#G"/><use x="774.902" xlink:href="#v"/><use x="802.686" xlink:href="#N"/><use x="897.852" xlink:href="#n"/><use x="961.475" xlink:href="#O"/><use x="993.262" xlink:href="#o"/><use x="1088.672" xlink:href="#t"/><use x="1152.148" xlink:href="#d"/><use x="1213.428" xlink:href="#P"/><use x="1272.607" xlink:href="#G"/><use x="1324.707" xlink:href="#Q"/></g><path d="M320.351 238.078h20" fill="none" stroke="#d62728" stroke-linecap="square" stroke-width="1.5"/><use fill="#d62728" stroke="#d62728" x="330.351" xlink:href="#z" y="238.078"/><g transform="matrix(.1 0 0 -.1 348.351 241.578)"><path d="M59.516 10.406v19.578h-16.11v8.11h25.875V6.78Q63.578 2.734 56.687.656 49.813-1.422 42-1.422q-17.094 0-26.75 9.985-9.64 10-9.64 27.812 0 17.875 9.64 27.86 9.656 9.984 26.75 9.984 7.125 0 13.547-1.766 6.422-1.75 11.844-5.172v-10.5q-5.47 4.64-11.625 6.985-6.157 2.343-12.938 2.343-13.39 0-20.11-7.468-6.702-7.47-6.702-22.266 0-14.75 6.703-22.219 6.718-7.469 20.11-7.469 5.218 0 9.312.907 4.109.906 7.375 2.812z"/><use x="77.49" xlink:href="#w"/><use x="139.014" xlink:href="#e"/><path d="M232.111 44.188q3.375 6.062 8.063 8.937Q244.86 56 251.205 56q8.547 0 13.188-5.984 4.64-5.97 4.64-17V0h-9.031v32.719q0 7.86-2.797 11.656-2.781 3.813-8.484 3.813-6.985 0-11.047-4.641-4.047-4.625-4.047-12.64V0h-9.031v32.719q0 7.906-2.782 11.687-2.78 3.782-8.593 3.782-6.89 0-10.953-4.657-4.047-4.656-4.047-12.625V0h-9.032v54.688h9.032v-8.5q3.078 5.03 7.375 7.421Q209.893 56 215.799 56q5.969 0 10.14-3.031 4.172-3.016 6.172-8.782z"/><use x="277.523" xlink:href="#d"/><use x="338.803" xlink:href="#N"/><use x="402.182" xlink:href="#P"/><use x="493.148" xlink:href="#K"/><use x="532.162" xlink:href="#t"/><use x="595.639" xlink:href="#r"/><use x="656.82" xlink:href="#L"/><use x="720.199" xlink:href="#M"/><use x="783.676" xlink:href="#s"/><use x="811.459" xlink:href="#w"/><use x="872.982" xlink:href="#G"/><use x="956.869" xlink:href="#v"/><use x="984.652" xlink:href="#N"/><use x="1079.818" xlink:href="#k"/><use x="1143.441" xlink:href="#O"/><use x="1175.229" xlink:href="#o"/><use x="1270.639" xlink:href="#t"/><use x="1334.115" xlink:href="#d"/><use x="1395.395" xlink:href="#P"/><use x="1454.574" xlink:href="#G"/><use x="1506.674" xlink:href="#Q"/></g><path d="M320.351 252.756h20" fill="none" stroke="#9467bd" stroke-linecap="square" stroke-width="1.5"/><use fill="#9467bd" stroke="#9467bd" x="330.351" xlink:href="#A" y="252.756"/><g transform="matrix(.1 0 0 -.1 348.351 256.256)"><path d="M9.813 72.906h41.89v-8.312H19.672V43.109h28.906v-8.297H19.672V0h-9.86z"/><use x="57.41" xlink:href="#e"/><use x="98.523" xlink:href="#d"/><use x="159.803" xlink:href="#N"/><use x="223.182" xlink:href="#B"/><use x="278.162" xlink:href="#w"/><use x="371.473" xlink:href="#K"/><use x="410.486" xlink:href="#t"/><use x="473.963" xlink:href="#r"/><use x="535.145" xlink:href="#L"/><use x="598.523" xlink:href="#M"/><use x="662" xlink:href="#s"/><use x="689.783" xlink:href="#w"/><use x="751.307" xlink:href="#G"/><use x="835.193" xlink:href="#v"/><use x="862.977" xlink:href="#N"/><use x="958.143" xlink:href="#k"/><use x="1021.766" xlink:href="#O"/><path d="M1061.756 72.906h46.875v-4.203L1082.162 0h-10.297l24.906 64.594h-35.015z"/><use x="1148.963" xlink:href="#t"/><use x="1212.439" xlink:href="#d"/><use x="1273.719" xlink:href="#P"/><use x="1332.898" xlink:href="#G"/><use x="1384.998" xlink:href="#Q"/></g></g><g><path d="M71.1 506.232h440.82v-199.08H71.1z" fill="#fff"/><path clip-path="url(#R)" d="M71.1 506.232v-199.08" fill="none" stroke="#b0b0b0" stroke-linecap="square" stroke-width=".8"/><use stroke="#000" stroke-width=".8" x="71.1" xlink:href="#b" y="506.232"/><g transform="matrix(.1 0 0 -.1 61.666 543.226)"><use xlink:href="#c"/><use x="86.279" xlink:href="#d"/><use x="147.559" xlink:href="#e"/></g><g transform="matrix(.1 0 0 -.1 58.375 554.424)"><use xlink:href="#f"/><use x="63.623" xlink:href="#g"/><use x="127.246" xlink:href="#f"/><use x="190.869" xlink:href="#g"/></g><g stroke-width=".8"><path clip-path="url(#R)" d="M511.92 506.232v-199.08" fill="none" stroke="#b0b0b0" stroke-linecap="square"/><use stroke="#000" x="511.92" xlink:href="#b" y="506.232"/></g><use stroke="#000" stroke-width=".6" x="71.1" xlink:href="#h" y="506.232"/><use stroke="#000" stroke-width=".6" x="86.844" xlink:href="#h" y="506.232"/><g transform="matrix(.1 0 0 -.1 80.481 519.23)"><use xlink:href="#g"/><use x="63.623" xlink:href="#f"/></g><g stroke="#000" stroke-width=".6"><use x="102.587" xlink:href="#h" y="506.232"/><use x="118.331" xlink:href="#h" y="506.232"/><use x="134.074" xlink:href="#h" y="506.232"/><use x="149.818" xlink:href="#h" y="506.232"/><use x="165.561" xlink:href="#h" y="506.232"/><use x="181.305" xlink:href="#h" y="506.232"/></g><use stroke="#000" stroke-width=".6" x="197.049" xlink:href="#h" y="506.232"/><g transform="matrix(.1 0 0 -.1 190.686 519.23)"><use xlink:href="#g"/><use x="63.623" xlink:href="#i"/></g><use stroke="#000" stroke-width=".6" x="212.792" xlink:href="#h" y="506.232"/><use stroke="#000" stroke-width=".6" x="228.536" xlink:href="#h" y="506.232"/><use stroke="#000" stroke-width=".6" x="244.279" xlink:href="#h" y="506.232"/><use stroke="#000" stroke-width=".6" x="260.023" xlink:href="#h" y="506.232"/><use stroke="#000" stroke-width=".6" x="275.766" xlink:href="#h" y="506.232"/><use stroke="#000" stroke-width=".6" x="291.51" xlink:href="#h" y="506.232"/><use stroke="#000" stroke-width=".6" x="307.254" xlink:href="#h" y="506.232"/><g transform="matrix(.1 0 0 -.1 300.891 519.23)"><use xlink:href="#j"/><use x="63.623" xlink:href="#k"/></g><use stroke="#000" stroke-width=".6" x="322.997" xlink:href="#h" y="506.232"/><use stroke="#000" stroke-width=".6" x="338.741" xlink:href="#h" y="506.232"/><use stroke="#000" stroke-width=".6" x="354.484" xlink:href="#h" y="506.232"/><use stroke="#000" stroke-width=".6" x="370.228" xlink:href="#h" y="506.232"/><use stroke="#000" stroke-width=".6" x="385.971" xlink:href="#h" y="506.232"/><use stroke="#000" stroke-width=".6" x="401.715" xlink:href="#h" y="506.232"/><use stroke="#000" stroke-width=".6" x="417.459" xlink:href="#h" y="506.232"/><g transform="matrix(.1 0 0 -.1 411.096 519.23)"><use xlink:href="#f"/><use x="63.623" xlink:href="#l"/></g><use stroke="#000" stroke-width=".6" x="433.202" xlink:href="#h" y="506.232"/><use stroke="#000" stroke-width=".6" x="448.946" xlink:href="#h" y="506.232"/><use stroke="#000" stroke-width=".6" x="464.689" xlink:href="#h" y="506.232"/><use stroke="#000" stroke-width=".6" x="480.433" xlink:href="#h" y="506.232"/><use stroke="#000" stroke-width=".6" x="496.176" xlink:href="#h" y="506.232"/><use stroke="#000" stroke-width=".6" x="511.92" xlink:href="#h" y="506.232"/><g><path clip-path="url(#R)" d="M71.1 506.232h440.82" fill="none" stroke="#b0b0b0" stroke-linecap="square" stroke-width=".8"/><use stroke="#000" stroke-width=".8" x="71.1" xlink:href="#m" y="506.232"/><g transform="matrix(.1 0 0 -.1 46.5 510.031)"><use transform="translate(0 .684)" xlink:href="#j"/><use transform="translate(63.623 .684)" xlink:href="#g"/><use transform="matrix(.7 0 0 .7 128.203 38.966)" xlink:href="#j"/></g><path clip-path="url(#R)" d="M71.1 457.341h440.82" fill="none" stroke="#b0b0b0" stroke-linecap="square" stroke-width=".8"/><use stroke="#000" stroke-width=".8" x="71.1" xlink:href="#m" y="457.341"/><g transform="matrix(.1 0 0 -.1 46.5 461.14)"><use transform="translate(0 .766)" xlink:href="#j"/><use transform="translate(63.623 .766)" xlink:href="#g"/><use transform="matrix(.7 0 0 .7 128.203 39.047)" xlink:href="#f"/></g><path clip-path="url(#R)" d="M71.1 408.45h440.82" fill="none" stroke="#b0b0b0" stroke-linecap="square" stroke-width=".8"/><use stroke="#000" stroke-width=".8" x="71.1" xlink:href="#m" y="408.451"/><g transform="matrix(.1 0 0 -.1 46.5 412.25)"><use transform="translate(0 .766)" xlink:href="#j"/><use transform="translate(63.623 .766)" xlink:href="#g"/><use transform="matrix(.7 0 0 .7 128.203 39.047)" xlink:href="#l"/></g><g><path clip-path="url(#R)" d="M71.1 359.56h440.82" fill="none" stroke="#b0b0b0" stroke-linecap="square" stroke-width=".8"/><use stroke="#000" stroke-width=".8" x="71.1" xlink:href="#m" y="359.56"/><g transform="matrix(.1 0 0 -.1 46.5 363.359)"><use transform="translate(0 .684)" xlink:href="#j"/><use transform="translate(63.623 .684)" xlink:href="#g"/><use transform="matrix(.7 0 0 .7 128.203 38.966)" xlink:href="#n"/></g></g><g><path clip-path="url(#R)" d="M71.1 310.67h440.82" fill="none" stroke="#b0b0b0" stroke-linecap="square" stroke-width=".8"/><use stroke="#000" stroke-width=".8" x="71.1" xlink:href="#m" y="310.669"/><g transform="matrix(.1 0 0 -.1 46.5 314.468)"><use transform="translate(0 .684)" xlink:href="#j"/><use transform="translate(63.623 .684)" xlink:href="#g"/><use transform="matrix(.7 0 0 .7 128.203 38.966)" xlink:href="#o"/></g></g><g stroke="#000" stroke-width=".6"><use x="71.1" xlink:href="#p" y="491.514"/><use x="71.1" xlink:href="#p" y="482.905"/><use x="71.1" xlink:href="#p" y="476.797"/><use x="71.1" xlink:href="#p" y="472.059"/><use x="71.1" xlink:href="#p" y="468.188"/><use x="71.1" xlink:href="#p" y="464.915"/><use x="71.1" xlink:href="#p" y="462.079"/><use x="71.1" xlink:href="#p" y="459.578"/><use x="71.1" xlink:href="#p" y="442.624"/><use x="71.1" xlink:href="#p" y="434.014"/><use x="71.1" xlink:href="#p" y="427.906"/><use x="71.1" xlink:href="#p" y="423.168"/><use x="71.1" xlink:href="#p" y="419.297"/><use x="71.1" xlink:href="#p" y="416.024"/><use x="71.1" xlink:href="#p" y="413.189"/><use x="71.1" xlink:href="#p" y="410.688"/><use x="71.1" xlink:href="#p" y="393.733"/><use x="71.1" xlink:href="#p" y="385.124"/><use x="71.1" xlink:href="#p" y="379.015"/><use x="71.1" xlink:href="#p" y="374.277"/><use x="71.1" xlink:href="#p" y="370.406"/><use x="71.1" xlink:href="#p" y="367.133"/><use x="71.1" xlink:href="#p" y="364.298"/><use x="71.1" xlink:href="#p" y="361.797"/><use x="71.1" xlink:href="#p" y="344.842"/><use x="71.1" xlink:href="#p" y="336.233"/><use x="71.1" xlink:href="#p" y="330.125"/><use x="71.1" xlink:href="#p" y="325.387"/><use x="71.1" xlink:href="#p" y="321.515"/><use x="71.1" xlink:href="#p" y="318.242"/><use x="71.1" xlink:href="#p" y="315.407"/><use x="71.1" xlink:href="#p" y="312.906"/></g><g transform="matrix(0 -.1 -.1 0 40.42 413.526)"><use xlink:href="#I"/><use x="73.193" xlink:href="#J"/></g></g><g stroke="#1f77b4"><path clip-path="url(#R)" d="M86.839 569.8l.005-14.677 15.743-14.718 15.744-36.197 15.743-15.661 15.744-9.513 15.743-15.866 15.744-7.064 15.744-6.208 15.743-4.193 15.744-5.103 15.743-8.48 15.744-5.3 15.743-4.607 15.744-7.051 15.744-5.778 15.743-12.113 15.744-8.097 15.743-16.258 15.744-9.318 15.743-7.28 15.744-6.313 15.744-5.92 15.743-4.377 15.744-3.865 15.743-4.343" fill="none" stroke-linecap="square" stroke-width="1.5"/><g clip-path="url(#R)" fill="#1f77b4"><use x="73.834" xlink:href="#x" y="40954.6"/><use x="86.844" xlink:href="#x" y="555.123"/><use x="102.587" xlink:href="#x" y="540.405"/><use x="118.331" xlink:href="#x" y="504.208"/><use x="134.074" xlink:href="#x" y="488.547"/><use x="149.818" xlink:href="#x" y="479.034"/><use x="165.561" xlink:href="#x" y="463.168"/><use x="181.305" xlink:href="#x" y="456.104"/><use x="197.049" xlink:href="#x" y="449.896"/><use x="212.792" xlink:href="#x" y="445.703"/><use x="228.536" xlink:href="#x" y="440.6"/><use x="244.279" xlink:href="#x" y="432.12"/><use x="260.023" xlink:href="#x" y="426.82"/><use x="275.766" xlink:href="#x" y="422.213"/><use x="291.51" xlink:href="#x" y="415.162"/><use x="307.254" xlink:href="#x" y="409.384"/><use x="322.997" xlink:href="#x" y="397.271"/><use x="338.741" xlink:href="#x" y="389.174"/><use x="354.484" xlink:href="#x" y="372.916"/><use x="370.228" xlink:href="#x" y="363.598"/><use x="385.971" xlink:href="#x" y="356.317"/><use x="401.715" xlink:href="#x" y="350.005"/><use x="417.459" xlink:href="#x" y="344.085"/><use x="433.202" xlink:href="#x" y="339.708"/><use x="448.946" xlink:href="#x" y="335.843"/><use x="464.689" xlink:href="#x" y="331.5"/></g></g><g stroke="#ff7f0e"><path clip-path="url(#R)" d="M134.065 569.8l.01-29.395h15.743l15.743-14.717 15.744-4.738h15.744l15.743-21.862 15.744-9.597 15.743-5.12h15.744l15.743-18.841 15.744-7.322 15.744-12.749 15.743-8.65 15.744-.08 15.743-21.683 15.744-3.857 15.743-8.488 15.744-7.812 15.744-8.429 15.743-5.39 15.744-3.787 15.743-9.519" fill="none" stroke-linecap="square" stroke-width="1.5"/><g clip-path="url(#R)" fill="#ff7f0e"><use x="121.064" xlink:href="#y" y="40954.6"/><use x="134.074" xlink:href="#y" y="540.405"/><use x="149.818" xlink:href="#y" y="540.405"/><use x="165.561" xlink:href="#y" y="525.688"/><use x="181.305" xlink:href="#y" y="520.95"/><use x="197.049" xlink:href="#y" y="520.95"/><use x="212.792" xlink:href="#y" y="499.088"/><use x="228.536" xlink:href="#y" y="489.491"/><use x="244.279" xlink:href="#y" y="484.37"/><use x="260.023" xlink:href="#y" y="484.37"/><use x="275.766" xlink:href="#y" y="465.53"/><use x="291.51" xlink:href="#y" y="458.208"/><use x="307.254" xlink:href="#y" y="445.459"/><use x="322.997" xlink:href="#y" y="436.809"/><use x="338.741" xlink:href="#y" y="436.729"/><use x="354.484" xlink:href="#y" y="415.046"/><use x="370.228" xlink:href="#y" y="411.189"/><use x="385.971" xlink:href="#y" y="402.701"/><use x="401.715" xlink:href="#y" y="394.889"/><use x="417.459" xlink:href="#y" y="386.46"/><use x="433.202" xlink:href="#y" y="381.07"/><use x="448.946" xlink:href="#y" y="377.283"/><use x="464.689" xlink:href="#y" y="367.764"/></g></g><path clip-path="url(#R)" d="M-1 510.97h9.126l15.743-2.5h15.744l15.743-2.238H71.1l15.744-13.628 15.743-4.057 15.744-7.012 15.743-8.61 15.744-3.272 15.743-7.307 15.744-3.916 15.744-1.3 15.743-6.933 15.744-4.37 15.743-4.34 15.744-5.392 15.743-4.04 15.744-4.88 15.744-5.798 15.743-4.738 15.744-1.738 15.743-5 15.744-4.492 15.743-3.173 15.744-3.976 15.744-5.247 15.743-3.916 15.744-3.494 15.743-5.599" fill="none" stroke="#2ca02c" stroke-linecap="square" stroke-width="1.5"/><g stroke="#d62728"><path clip-path="url(#R)" d="M55.34 569.8l.016-48.85L71.1 508.47l15.744-4.262 15.743-11.604 15.744-8.234 15.743-15.463 15.744-3.687 15.743-5.642 15.744-4.067 15.744.196 15.743-17.218 15.744-6.88 15.743-4.227 15.744-5.451 15.743-.16 15.744-2.545 15.744-7.45 15.743-3.746 15.744 1.31 15.743-6.493 15.744-2.154 15.743-3.497 15.744-2.374 15.744-2.246 15.743-.982 15.744-2.24 15.743-4.63" fill="none" stroke-linecap="square" stroke-width="1.5"/><g clip-path="url(#R)" fill="#d62728"><use x="42.345" xlink:href="#z" y="40954.6"/><use x="55.356" xlink:href="#z" y="520.95"/><use x="71.1" xlink:href="#z" y="508.469"/><use x="86.844" xlink:href="#z" y="504.208"/><use x="102.587" xlink:href="#z" y="492.604"/><use x="118.331" xlink:href="#z" y="484.37"/><use x="134.074" xlink:href="#z" y="468.907"/><use x="149.818" xlink:href="#z" y="465.22"/><use x="165.561" xlink:href="#z" y="459.578"/><use x="181.305" xlink:href="#z" y="455.511"/><use x="197.049" xlink:href="#z" y="455.707"/><use x="212.792" xlink:href="#z" y="438.489"/><use x="228.536" xlink:href="#z" y="431.608"/><use x="244.279" xlink:href="#z" y="427.382"/><use x="260.023" xlink:href="#z" y="421.931"/><use x="275.766" xlink:href="#z" y="421.771"/><use x="291.51" xlink:href="#z" y="419.226"/><use x="307.254" xlink:href="#z" y="411.777"/><use x="322.997" xlink:href="#z" y="408.03"/><use x="338.741" xlink:href="#z" y="409.339"/><use x="354.484" xlink:href="#z" y="402.847"/><use x="370.228" xlink:href="#z" y="400.693"/><use x="385.971" xlink:href="#z" y="397.196"/><use x="401.715" xlink:href="#z" y="394.822"/><use x="417.459" xlink:href="#z" y="392.576"/><use x="433.202" xlink:href="#z" y="391.594"/><use x="448.946" xlink:href="#z" y="389.355"/><use x="464.689" xlink:href="#z" y="384.724"/></g></g><g stroke="#9467bd"><path clip-path="url(#R)" d="M228.526 569.8l.01-29.395h15.743l15.744-44.153 15.743-9.476 15.744-5.895 15.744-10.06 15.743-4.333 15.744-5.19 15.743-29.372 15.744-10.743 15.743-7.538 15.744-5.74 15.744-5.253 15.743-6.313 15.744-5.135 15.743-4.494" fill="none" stroke-linecap="square" stroke-width="1.5"/><g clip-path="url(#R)" fill="#9467bd"><use x="215.526" xlink:href="#A" y="40954.6"/><use x="228.536" xlink:href="#A" y="540.405"/><use x="244.279" xlink:href="#A" y="540.405"/><use x="260.023" xlink:href="#A" y="496.252"/><use x="275.766" xlink:href="#A" y="486.776"/><use x="291.51" xlink:href="#A" y="480.881"/><use x="307.254" xlink:href="#A" y="470.822"/><use x="322.997" xlink:href="#A" y="466.488"/><use x="338.741" xlink:href="#A" y="461.298"/><use x="354.484" xlink:href="#A" y="431.926"/><use x="370.228" xlink:href="#A" y="421.183"/><use x="385.971" xlink:href="#A" y="413.645"/><use x="401.715" xlink:href="#A" y="407.906"/><use x="417.459" xlink:href="#A" y="402.652"/><use x="433.202" xlink:href="#A" y="396.339"/><use x="448.946" xlink:href="#A" y="391.204"/><use x="464.689" xlink:href="#A" y="386.71"/></g></g><path clip-path="url(#R)" d="M464.69 331.5l15.743-4.18 15.743-4.18 15.744-4.18" fill="none" stroke="#1f77b4" stroke-dasharray="1.5 2.475" stroke-width="1.5"/><path clip-path="url(#R)" d="M464.69 367.764l15.743-6.587 15.743-6.587 15.744-6.587" fill="none" stroke="#ff7f0e" stroke-dasharray="1.5 2.475" stroke-width="1.5"/><path clip-path="url(#R)" d="M464.69 380.004l15.743-4.486 15.743-4.487 15.744-4.486" fill="none" stroke="#2ca02c" stroke-dasharray="1.5 2.475" stroke-width="1.5"/><path clip-path="url(#R)" d="M464.69 384.724l15.743-2.995 15.743-2.994 15.744-2.995" fill="none" stroke="#d62728" stroke-dasharray="1.5 2.475" stroke-width="1.5"/><path clip-path="url(#R)" d="M464.69 386.71l15.743-5.112 15.743-5.113 15.744-5.113" fill="none" stroke="#9467bd" stroke-dasharray="1.5 2.475" stroke-width="1.5"/><path d="M71.1 506.232v-199.08M511.92 506.232v-199.08M71.1 506.232h440.82M71.1 307.152h440.82" fill="none" stroke="#000" stroke-linecap="square" stroke-linejoin="miter" stroke-width=".8"/><g><path d="M78.1 388.543h199.827q2 0 2-2v-72.391q0-2-2-2H78.1q-2 0-2 2v72.39q0 2 2 2z" fill="#fff" opacity=".8" stroke="#ccc" stroke-linejoin="miter"/><path d="M80.1 320.25h20" fill="none" stroke="#1f77b4" stroke-linecap="square" stroke-width="1.5"/><use fill="#1f77b4" stroke="#1f77b4" x="90.1" xlink:href="#x" y="320.25"/><g transform="matrix(.1 0 0 -.1 108.1 323.75)"><use xlink:href="#S"/><use x="74.805" xlink:href="#w"/><use x="136.328" xlink:href="#u"/><path d="M249.7 72.906h10.609l20.203-29.984 20.078 29.984h10.594L285.402 34.72V0h-9.906v34.719z"/><use x="310.783" xlink:href="#r"/><use x="371.965" xlink:href="#e"/><path d="M422.156 75.984h9.031V31.11L458 54.687h11.469l-29-25.578L470.703 0h-11.719l-27.796 26.703V0h-9.032z"/><use x="502.775" xlink:href="#K"/><use x="541.789" xlink:href="#t"/><use x="605.266" xlink:href="#r"/><use x="666.447" xlink:href="#L"/><use x="729.826" xlink:href="#M"/><use x="793.303" xlink:href="#s"/><use x="821.086" xlink:href="#w"/><use x="882.609" xlink:href="#G"/><use x="966.496" xlink:href="#v"/><use x="994.279" xlink:href="#N"/><use x="1089.445" xlink:href="#l"/><use x="1153.068" xlink:href="#O"/><use x="1184.855" xlink:href="#o"/><use x="1280.266" xlink:href="#t"/><use x="1343.742" xlink:href="#d"/><use x="1405.021" xlink:href="#P"/><use x="1464.201" xlink:href="#G"/><use x="1516.301" xlink:href="#Q"/></g><path d="M80.1 334.929h20" fill="none" stroke="#ff7f0e" stroke-linecap="square" stroke-width="1.5"/><use fill="#ff7f0e" stroke="#ff7f0e" x="90.1" xlink:href="#y" y="334.929"/><g transform="matrix(.1 0 0 -.1 108.1 338.429)"><use xlink:href="#S"/><use x="74.805" xlink:href="#w"/><use x="136.328" xlink:href="#u"/><path d="M259.715 72.906h9.86V5.078q0-13.187-5-19.14-5-5.954-16.095-5.954h-3.75v8.297h3.079q6.53 0 9.218 3.672 2.688 3.656 2.688 13.125z"/><use x="279.395" xlink:href="#w"/><use x="340.918" xlink:href="#e"/><use x="382.031" xlink:href="#G"/><use x="434.131" xlink:href="#w"/><use x="495.654" xlink:href="#P"/><use x="586.621" xlink:href="#K"/><use x="625.635" xlink:href="#t"/><use x="689.111" xlink:href="#r"/><use x="750.293" xlink:href="#L"/><use x="813.672" xlink:href="#M"/><use x="877.148" xlink:href="#s"/><use x="904.932" xlink:href="#w"/><use x="966.455" xlink:href="#G"/><use x="1050.342" xlink:href="#v"/><use x="1078.125" xlink:href="#N"/><use x="1173.291" xlink:href="#f"/><use x="1236.914" xlink:href="#O"/><use x="1268.701" xlink:href="#f"/><use x="1364.111" xlink:href="#t"/><use x="1427.588" xlink:href="#d"/><use x="1488.867" xlink:href="#P"/><use x="1548.047" xlink:href="#G"/><use x="1600.146" xlink:href="#Q"/></g><path d="M80.1 349.607h20" fill="none" stroke="#2ca02c" stroke-linecap="square" stroke-width="1.5"/><g transform="matrix(.1 0 0 -.1 108.1 353.107)"><use xlink:href="#D"/><use x="69.824" xlink:href="#d"/><use x="131.104" xlink:href="#s"/><use x="158.887" xlink:href="#v"/><use x="186.67" xlink:href="#H"/><use x="221.875" xlink:href="#r"/><use x="283.057" xlink:href="#e"/><use x="324.154" xlink:href="#N"/><use x="387.533" xlink:href="#v"/><use x="415.316" xlink:href="#d"/><use x="508.383" xlink:href="#K"/><use x="547.396" xlink:href="#t"/><use x="610.873" xlink:href="#r"/><use x="672.055" xlink:href="#L"/><use x="735.434" xlink:href="#M"/><use x="798.91" xlink:href="#s"/><use x="826.693" xlink:href="#w"/><use x="888.217" xlink:href="#G"/><use x="972.104" xlink:href="#v"/><use x="999.887" xlink:href="#N"/><use x="1095.053" xlink:href="#l"/><use x="1158.676" xlink:href="#O"/><use x="1190.463" xlink:href="#l"/><use x="1285.873" xlink:href="#t"/><use x="1349.35" xlink:href="#d"/><use x="1410.629" xlink:href="#P"/><use x="1469.809" xlink:href="#G"/><use x="1521.908" xlink:href="#Q"/></g><path d="M80.1 364.285h20" fill="none" stroke="#d62728" stroke-linecap="square" stroke-width="1.5"/><use fill="#d62728" stroke="#d62728" x="90.1" xlink:href="#z" y="364.285"/><g transform="matrix(.1 0 0 -.1 108.1 367.785)"><use xlink:href="#q"/><use x="98.783" xlink:href="#d"/><use x="160.063" xlink:href="#G"/><use x="212.162" xlink:href="#T"/><use x="275.541" xlink:href="#v"/><use x="303.324" xlink:href="#N"/><use x="366.703" xlink:href="#U"/><use x="430.18" xlink:href="#C"/><use x="469.389" xlink:href="#r"/><use x="530.57" xlink:href="#N"/><use x="625.736" xlink:href="#K"/><use x="664.75" xlink:href="#t"/><use x="728.227" xlink:href="#r"/><use x="789.408" xlink:href="#L"/><use x="852.787" xlink:href="#M"/><use x="916.264" xlink:href="#s"/><use x="944.047" xlink:href="#w"/><use x="1005.57" xlink:href="#G"/><use x="1089.457" xlink:href="#v"/><use x="1117.24" xlink:href="#N"/><use x="1212.406" xlink:href="#n"/><use x="1276.029" xlink:href="#O"/><use x="1307.816" xlink:href="#i"/><use x="1403.227" xlink:href="#t"/><use x="1466.703" xlink:href="#d"/><use x="1527.982" xlink:href="#P"/><use x="1587.162" xlink:href="#G"/><use x="1639.262" xlink:href="#Q"/></g><path d="M80.1 378.963h20" fill="none" stroke="#9467bd" stroke-linecap="square" stroke-width="1.5"/><use fill="#9467bd" stroke="#9467bd" x="90.1" xlink:href="#A" y="378.963"/><g transform="matrix(.1 0 0 -.1 108.1 382.463)"><use xlink:href="#c"/><use x="86.279" xlink:href="#v"/><use x="114.063" xlink:href="#B"/><use x="169.043" xlink:href="#T"/><use x="232.422" xlink:href="#v"/><use x="260.205" xlink:href="#U"/><use x="323.682" xlink:href="#d"/><use x="384.961" xlink:href="#N"/><use x="480.127" xlink:href="#K"/><use x="519.141" xlink:href="#t"/><use x="582.617" xlink:href="#r"/><use x="643.799" xlink:href="#L"/><use x="707.178" xlink:href="#M"/><use x="770.654" xlink:href="#s"/><use x="798.438" xlink:href="#w"/><use x="859.961" xlink:href="#G"/><use x="943.848" xlink:href="#v"/><use x="971.631" xlink:href="#N"/><use x="1066.797" xlink:href="#f"/><use x="1130.42" xlink:href="#O"/><use x="1162.207" xlink:href="#i"/><use x="1257.617" xlink:href="#t"/><use x="1321.094" xlink:href="#d"/><use x="1382.373" xlink:href="#P"/><use x="1441.553" xlink:href="#G"/><use x="1493.652" xlink:href="#Q"/></g></g></g></svg>