<svg height="758.4" stroke-linejoin="round" viewBox="0 0 568.8 568.8" width="758.4" xmlns="http://www.w3.org/2000/svg" xmlns:xlink="http://www.w3.org/1999/xlink"><defs><path id="w" d="M-3 0h6M0 3v-6" stroke="#1f77b4" stroke-linejoin="round"/><path id="U" d="M54.89 33.016V0h-8.984v32.719q0 7.765-3.031 11.61-3.031 3.858-9.078 3.858-7.281 0-11.484-4.64-4.204-4.625-4.204-12.64V0H9.08v75.984h9.03V46.188q3.235 4.937 7.594 7.374Q30.078 56 35.797 56q9.422 0 14.25-5.828 4.844-5.828 4.844-17.156z" stroke-linejoin="round"/><path id="b" d="M0 0v3.5" stroke="#000" stroke-linejoin="round" stroke-width=".8"/><path id="c" d="M9.813 72.906h14.703l18.593-49.61 18.703 49.61h14.704V0H66.89v64.016l-18.797-50h-9.907l-18.796 50V0H9.813z" stroke-linejoin="round"/><path id="d" d="M34.281 27.484q-10.89 0-15.093-2.484-4.204-2.484-4.204-8.5 0-4.781 3.157-7.594 3.156-2.797 8.562-2.797 7.485 0 12 5.297 4.516 5.297 4.516 14.078v2zm17.922 3.72V0H43.22v8.297Q40.14 3.328 35.547.953q-4.594-2.375-11.234-2.375-8.391 0-13.36 4.719Q6 8.016 6 15.922q0 9.219 6.172 13.906 6.187 4.688 18.437 4.688h12.61v.89q0 6.203-4.078 9.594-4.078 3.39-11.453 3.39-4.688 0-9.141-1.124-4.438-1.125-8.531-3.375v8.312q4.921 1.906 9.562 2.844 4.64.953 9.031.953 11.875 0 17.735-6.156 5.86-6.14 5.86-18.64z" stroke-linejoin="round"/><path id="e" d="M41.11 46.297q-1.516.875-3.297 1.281Q36.03 48 33.89 48q-7.625 0-11.703-4.953-4.079-4.953-4.079-14.234V0H9.08v54.688h9.03v-8.5q2.844 4.984 7.375 7.39Q30.031 56 36.531 56q.922 0 2.047-.125 1.125-.11 2.484-.36z" stroke-linejoin="round"/><path id="f" d="M19.188 8.297h34.421V0H7.33v8.297q5.609 5.812 15.296 15.594 9.703 9.797 12.188 12.64 4.734 5.313 6.609 9 1.89 3.688 1.89 7.25 0 5.813-4.078 9.469-4.078 3.672-10.625 3.672-4.64 0-9.797-1.61-5.14-1.609-11-4.89v9.969Q13.767 71.78 18.938 73q5.188 1.219 9.485 1.219 11.328 0 18.062-5.672 6.735-5.656 6.735-15.125 0-4.5-1.688-8.531-1.672-4.016-6.125-9.485-1.218-1.422-7.765-8.187-6.532-6.766-18.453-18.922z" stroke-linejoin="round"/><path id="g" d="M31.781 66.406q-7.61 0-11.453-7.5Q16.5 51.422 16.5 36.375q0-14.984 3.828-22.484 3.844-7.5 11.453-7.5 7.672 0 11.5 7.5 3.844 7.5 3.844 22.484 0 15.047-3.844 22.531-3.828 7.5-11.5 7.5zm0 7.813q12.266 0 18.735-9.703 6.468-9.688 6.468-28.141 0-18.406-6.468-28.11-6.47-9.687-18.735-9.687-12.25 0-18.718 9.688-6.47 9.703-6.47 28.109 0 18.453 6.47 28.14Q19.53 74.22 31.78 74.22z" stroke-linejoin="round"/><path id="h" d="M34.188 63.188L20.797 26.906h26.812zm-5.579 9.718h11.188L67.578 0h-10.25l-6.64 18.703h-32.86L11.188 0H.78z" stroke-linejoin="round"/><path id="i" d="M18.11 8.203v-29H9.077v75.484h9.031v-8.296q2.844 4.875 7.157 7.234Q29.594 56 35.594 56q9.968 0 16.187-7.906 6.235-7.907 6.235-20.797T51.78 6.484q-6.218-7.906-16.187-7.906-6 0-10.328 2.375-4.313 2.375-7.157 7.25zm30.578 19.094q0 9.906-4.079 15.547-4.078 5.64-11.203 5.64-7.14 0-11.218-5.64-4.079-5.64-4.079-15.547 0-9.906 4.078-15.547 4.079-5.64 11.22-5.64 7.124 0 11.202 5.64t4.078 15.547z" stroke-linejoin="round"/><path id="j" d="M0 0v2" stroke="#000" stroke-linejoin="round" stroke-width=".6"/><path id="k" d="M10.984 1.516V10.5q3.72-1.766 7.516-2.688 3.813-.921 7.484-.921 9.766 0 14.907 6.562 5.156 6.563 5.89 19.953-2.828-4.203-7.187-6.453-4.344-2.25-9.61-2.25-10.937 0-17.312 6.61-6.375 6.625-6.375 18.109 0 11.219 6.64 18 6.641 6.797 17.672 6.797 12.657 0 19.313-9.703 6.672-9.688 6.672-28.141 0-17.234-8.188-27.516Q40.234-1.42 26.422-1.42q-3.719 0-7.531.734-3.797.734-7.907 2.203zM30.61 32.422q6.641 0 10.516 4.531 3.89 4.547 3.89 12.469 0 7.86-3.89 12.422-3.875 4.562-10.516 4.562-6.64 0-10.515-4.562-3.875-4.563-3.875-12.422 0-7.922 3.875-12.469 3.875-4.531 10.515-4.531z" stroke-linejoin="round"/><path id="l" d="M12.406 8.297h16.11v55.625l-17.532-3.516v8.985l17.438 3.515h9.86V8.296H54.39V0H12.406z" stroke-linejoin="round"/><path id="m" d="M33.016 40.375q-6.641 0-10.532-4.547-3.875-4.531-3.875-12.437 0-7.86 3.875-12.438 3.891-4.562 10.532-4.562 6.64 0 10.515 4.562 3.875 4.578 3.875 12.438 0 7.906-3.875 12.437-3.875 4.547-10.515 4.547zm19.578 30.922v-8.984q-3.719 1.75-7.5 2.671-3.782.938-7.5.938-9.766 0-14.922-6.594-5.14-6.594-5.875-19.922 2.875 4.25 7.219 6.516 4.359 2.266 9.578 2.266 10.984 0 17.36-6.672 6.374-6.657 6.374-18.125 0-11.235-6.64-18.032-6.641-6.78-17.672-6.78-12.657 0-19.344 9.687-6.688 9.703-6.688 28.109 0 17.281 8.204 27.563 8.203 10.28 22.015 10.28 3.719 0 7.5-.734t7.89-2.187z" stroke-linejoin="round"/><path id="n" d="M40.578 39.313Q47.656 37.797 51.625 33q3.984-4.781 3.984-11.813 0-10.78-7.422-16.703-7.421-5.906-21.093-5.906-4.578 0-9.438.906-4.86.907-10.031 2.72v9.515q4.094-2.39 8.969-3.61 4.89-1.218 10.218-1.218 9.266 0 14.125 3.656 4.86 3.656 4.86 10.64 0 6.454-4.516 10.079-4.515 3.64-12.562 3.64h-8.5v8.11h8.89q7.266 0 11.125 2.906 3.86 2.906 3.86 8.375 0 5.61-3.985 8.61-3.968 3.015-11.39 3.015-4.063 0-8.703-.89-4.641-.876-10.203-2.72v8.782q5.624 1.562 10.53 2.344 4.907.78 9.25.78 11.235 0 17.766-5.109 6.547-5.093 6.547-13.78 0-6.063-3.468-10.235-3.47-4.172-9.86-5.782z" stroke-linejoin="round"/><path id="o" d="M0 0h-3.5" stroke="#000" stroke-linejoin="round" stroke-width=".8"/><path id="p" d="M10.797 72.906h38.719v-8.312H19.828v-17.86q2.14.735 4.281 1.094 2.157.36 4.313.36 12.203 0 19.328-6.688 7.14-6.688 7.14-18.11 0-11.765-7.328-18.296-7.328-6.516-20.656-6.516-4.593 0-9.36.781-4.75.782-9.827 2.344v9.922q4.39-2.39 9.078-3.563 4.687-1.171 9.906-1.171 8.453 0 13.375 4.437 4.938 4.438 4.938 12.063 0 7.609-4.938 12.047-4.922 4.453-13.375 4.453-3.953 0-7.89-.875-3.922-.875-8.016-2.735z" stroke-linejoin="round"/><path id="q" d="M30.61 48.39q-7.22 0-11.422-5.64-4.204-5.64-4.204-15.453 0-9.813 4.172-15.453 4.188-5.64 11.453-5.64 7.188 0 11.375 5.655 4.203 5.672 4.203 15.438 0 9.719-4.203 15.406-4.187 5.688-11.375 5.688zm0 7.61q11.718 0 18.406-7.625 6.703-7.61 6.703-21.078 0-13.422-6.703-21.078-6.688-7.64-18.407-7.64-11.765 0-18.437 7.64-6.656 7.656-6.656 21.078 0 13.469 6.656 21.078Q18.844 56 30.609 56z" stroke-linejoin="round"/><path id="r" d="M9.422 75.984h8.984V0H9.422z" stroke-linejoin="round"/><path id="s" d="M45.406 46.39v29.594h8.985V0h-8.985v8.203Q42.578 3.328 38.25.953q-4.313-2.375-10.375-2.375-9.906 0-16.14 7.906-6.22 7.922-6.22 20.813 0 12.89 6.22 20.797Q17.968 56 27.874 56q6.063 0 10.375-2.375 4.328-2.36 7.156-7.234zm-30.61-19.093q0-9.906 4.079-15.547 4.078-5.64 11.203-5.64 7.125 0 11.219 5.64 4.11 5.64 4.11 15.547 0 9.906-4.11 15.547-4.094 5.64-11.219 5.64-7.125 0-11.203-5.64-4.078-5.64-4.078-15.547z" stroke-linejoin="round"/><path id="t" d="M4.203 54.688h8.985l11.234-42.672 11.172 42.672h10.593l11.235-42.672 11.187 42.672h8.985L63.28 0H52.688L40.922 44.828 29.109 0H18.5z" stroke-linejoin="round"/><path id="u" d="M9.422 54.688h8.984V0H9.422zm0 21.296h8.984v-11.39H9.422z" stroke-linejoin="round"/><path id="v" d="M56.203 29.594v-4.39H14.891q.593-9.282 5.593-14.142 5-4.859 13.938-4.859 5.172 0 10.031 1.266 4.86 1.265 9.656 3.812v-8.5Q49.266.734 44.187-.344 39.11-1.422 33.892-1.422q-13.094 0-20.735 7.61-7.64 7.625-7.64 20.625 0 13.421 7.25 21.296Q20.016 56 32.328 56q11.031 0 17.453-7.11 6.422-7.093 6.422-19.296zm-8.984 2.64q-.094 7.36-4.125 11.75-4.032 4.407-10.672 4.407-7.516 0-12.031-4.25-4.516-4.25-5.203-11.97z" stroke-linejoin="round"/><path id="T" d="M9.813 72.906h13.28l32.329-60.984v60.984h9.562V0h-13.28L19.39 60.984V0H9.813z" stroke-linejoin="round"/><path id="x" d="M0 1.5a1.5 1.5 0 100-3 1.5 1.5 0 000 3z" stroke="#ff7f0e" stroke-linejoin="round"/><path id="y" d="M-3 0h6M0 3v-6" stroke="#d62728" stroke-linejoin="round"/><path id="z" d="M0 1.5a1.5 1.5 0 100-3 1.5 1.5 0 000 3z" stroke="#9467bd" stroke-linejoin="round"/><path id="A" d="M48.781 52.594v-8.407q-3.812 2.11-7.64 3.157-3.828 1.047-7.735 1.047-8.75 0-13.593-5.547-4.829-5.532-4.829-15.547 0-10.016 4.829-15.563 4.843-5.53 13.593-5.53 3.907 0 7.735 1.046 3.828 1.047 7.64 3.156V2.094Q45.016.344 40.984-.531q-4.015-.89-8.562-.89-12.36 0-19.64 7.765-7.266 7.765-7.266 20.953 0 13.375 7.343 21.031Q20.22 56 33.016 56q4.14 0 8.093-.86 3.953-.843 7.672-2.546z" stroke-linejoin="round"/><path id="B" d="M18.313 70.219V54.688h18.5v-6.985h-18.5V18.016q0-6.688 1.828-8.594 1.828-1.906 7.453-1.906h9.218V0h-9.218q-10.407 0-14.36 3.875-3.953 3.89-3.953 14.14v29.688H2.687v6.984h6.594V70.22z" stroke-linejoin="round"/><path id="C" d="M64.406 67.281v-10.39q-4.984 4.64-10.625 6.922-5.64 2.296-11.984 2.296-12.5 0-19.14-7.64-6.641-7.64-6.641-22.094 0-14.406 6.64-22.047 6.64-7.64 19.14-7.64 6.345 0 11.985 2.296 5.64 2.297 10.625 6.938V5.609Q59.234 2.094 53.437.33q-5.78-1.75-12.218-1.75-16.563 0-26.094 10.124-9.516 10.14-9.516 27.672 0 17.578 9.516 27.703 9.531 10.14 26.094 10.14 6.531 0 12.312-1.734 5.797-1.734 10.875-5.203z" stroke-linejoin="round"/><path id="D" d="M9.813 72.906h9.859V0h-9.86z" stroke-linejoin="round"/><path id="E" d="M4.89 31.39h26.313v-8H4.891z" stroke-linejoin="round"/><path id="F" d="M44.281 53.078v-8.5q-3.797 1.953-7.906 2.922-4.094.984-8.5.984-6.688 0-10.031-2.047-3.344-2.046-3.344-6.156 0-3.125 2.39-4.906 2.391-1.781 9.626-3.39l3.078-.688q9.562-2.047 13.593-5.781 4.032-3.735 4.032-10.422 0-7.625-6.032-12.078-6.03-4.438-16.578-4.438-4.39 0-9.156.86Q10.688.296 5.422 2v9.281q4.984-2.594 9.812-3.89 4.829-1.282 9.579-1.282 6.343 0 9.75 2.172 3.421 2.172 3.421 6.125 0 3.656-2.468 5.61-2.453 1.953-10.813 3.765l-3.125.735q-8.344 1.75-12.062 5.39-3.704 3.64-3.704 9.985 0 7.718 5.47 11.906Q16.75 56 26.811 56q4.97 0 9.36-.734 4.406-.72 8.11-2.188z" stroke-linejoin="round"/><path id="G" d="M37.11 75.984V68.5h-8.594q-4.828 0-6.72-1.953-1.874-1.953-1.874-7.031v-4.828h14.797v-6.985H19.922V0H10.89v47.703H2.297v6.984h8.594V58.5q0 9.125 4.25 13.297 4.25 4.187 13.468 4.187z" stroke-linejoin="round"/><path id="H" d="M8.688 72.906h9.921V28.61q0-11.718 4.235-16.875 4.25-5.14 13.781-5.14 9.469 0 13.719 5.14 4.25 5.157 4.25 16.875v44.297H64.5V27.391q0-14.25-7.063-21.532-7.046-7.28-20.812-7.28-13.828 0-20.89 7.28-7.047 7.282-7.047 21.532z" stroke-linejoin="round"/><path id="I" d="M53.516 70.516V60.89q-5.61 2.687-10.594 4-4.984 1.328-9.625 1.328-8.047 0-12.422-3.125t-4.375-8.89q0-4.845 2.906-7.313 2.907-2.453 11.016-3.97l5.953-1.218q11.031-2.11 16.281-7.406 5.25-5.297 5.25-14.172 0-10.61-7.11-16.078-7.093-5.469-20.812-5.469-5.172 0-11.015 1.172Q13.14.922 6.89 3.219v10.156q6-3.36 11.765-5.078 5.766-1.703 11.328-1.703 8.438 0 13.032 3.312 4.593 3.328 4.593 9.485 0 5.359-3.297 8.39-3.296 3.032-10.812 4.547L27.484 33.5q-11.03 2.188-15.968 6.875-4.922 4.688-4.922 13.047 0 9.672 6.812 15.234 6.813 5.563 18.766 5.563 5.14 0 10.453-.938 5.328-.922 10.89-2.765z" stroke-linejoin="round"/><path id="J" d="M31 75.875q-6.531-11.219-9.719-22.219-3.172-10.984-3.172-22.265 0-11.266 3.203-22.328Q24.517-2 31-13.188h-7.813Q15.875-1.704 12.235 9.375q-3.64 11.078-3.64 22.016 0 10.89 3.61 21.922 3.624 11.046 10.983 22.562z" stroke-linejoin="round"/><path id="K" d="M8.5 21.578v33.11h8.984V21.922q0-7.766 3.016-11.656 3.031-3.875 9.094-3.875 7.265 0 11.484 4.64 4.234 4.64 4.234 12.656v31h8.985V0h-8.984v8.406Q42.047 3.422 37.718 1q-4.313-2.422-10.032-2.422-9.421 0-14.312 5.86Q8.5 10.296 8.5 21.578z" stroke-linejoin="round"/><path id="L" d="M48.688 27.297q0 9.906-4.079 15.547-4.078 5.64-11.203 5.64-7.14 0-11.218-5.64-4.079-5.64-4.079-15.547 0-9.906 4.078-15.547 4.079-5.64 11.22-5.64 7.124 0 11.202 5.64t4.078 15.547zM18.108 46.39q2.844 4.875 7.157 7.234Q29.594 56 35.594 56q9.968 0 16.187-7.906 6.235-7.907 6.235-20.797T51.78 6.484q-6.218-7.906-16.187-7.906-6 0-10.328 2.375-4.313 2.375-7.157 7.25V0H9.08v75.984h9.03z" stroke-linejoin="round"/><path id="M" d="M54.89 33.016V0h-8.984v32.719q0 7.765-3.031 11.61-3.031 3.858-9.078 3.858-7.281 0-11.484-4.64-4.204-4.625-4.204-12.64V0H9.08v54.688h9.03v-8.5q3.235 4.937 7.594 7.374Q30.078 56 35.797 56q9.422 0 14.25-5.828 4.844-5.828 4.844-17.156z" stroke-linejoin="round"/><path id="N" d="M10.688 12.406H21V0H10.687z" stroke-linejoin="round"/><path id="O" d="M32.172-5.078q-3.797-9.766-7.422-12.735-3.61-2.984-9.656-2.984H7.906v7.516h5.282q3.703 0 5.75 1.765Q21-9.766 23.483-3.219l1.61 4.094-22.11 53.813H12.5l17.094-42.766 17.093 42.766h9.516z" stroke-linejoin="round"/><path id="P" d="M8.016 75.875h7.812q7.313-11.516 10.953-22.563 3.64-11.03 3.64-21.921 0-10.938-3.64-22.016-3.64-11.078-10.953-22.563H8.016Q14.5-2 17.703 9.063q3.203 11.063 3.203 22.329 0 11.28-3.203 22.265-3.203 11-9.687 22.219z" stroke-linejoin="round"/><path id="R" d="M37.797 64.313L12.89 25.39h24.906zm-2.594 8.593H47.61V25.391h10.407v-8.203H47.609V0h-9.812v17.188H4.89v9.515z" stroke-linejoin="round"/><path id="S" d="M31.781 34.625q-7.031 0-11.062-3.766-4.016-3.765-4.016-10.343 0-6.594 4.016-10.36Q24.75 6.391 31.78 6.391q7.032 0 11.078 3.78 4.063 3.798 4.063 10.345 0 6.578-4.031 10.343-4.016 3.766-11.11 3.766zm-9.86 4.188q-6.343 1.562-9.89 5.906Q8.5 49.079 8.5 55.329q0 8.733 6.219 13.812 6.234 5.078 17.062 5.078 10.89 0 17.094-5.078 6.203-5.079 6.203-13.813 0-6.25-3.547-10.61-3.531-4.343-9.828-5.906 7.125-1.656 11.094-6.5 3.984-4.828 3.984-11.796 0-10.61-6.468-16.282-6.47-5.656-18.532-5.656-12.047 0-18.531 5.656-6.469 5.672-6.469 16.282 0 6.968 4 11.797 4.016 4.843 11.14 6.5zM18.314 54.39q0-5.657 3.53-8.828 3.548-3.172 9.938-3.172 6.36 0 9.938 3.172 3.593 3.171 3.593 8.828 0 5.672-3.593 8.843-3.578 3.172-9.938 3.172-6.39 0-9.937-3.172-3.532-3.172-3.532-8.843z" stroke-linejoin="round"/><clipPath id="Q" stroke-linejoin="round"><path d="M70.22 297.12H558v208.808H70.22z"/></clipPath><clipPath id="a" stroke-linejoin="round"><path d="M70.22 25.44H558v208.808H70.22z"/></clipPath></defs><path d="M0 568.8h568.8V0H0z" fill="#fff"/><path d="M70.22 234.248H558V25.44H70.22z" fill="#fff"/><path clip-path="url(#a)" d="M70.22 234.248V25.44" fill="none" stroke="#b0b0b0" stroke-linecap="square" stroke-width=".8"/><use stroke="#000" stroke-width=".8" x="70.22" xlink:href="#b" y="234.248"/><g transform="matrix(.1 0 0 -.1 60.786 271.242)"><use xlink:href="#c"/><use x="86.279" xlink:href="#d"/><use x="147.559" xlink:href="#e"/></g><g transform="matrix(.1 0 0 -.1 57.495 282.44)"><use xlink:href="#f"/><use x="63.623" xlink:href="#g"/><use x="127.246" xlink:href="#f"/><use x="190.869" xlink:href="#g"/></g><path clip-path="url(#a)" d="M528.438 234.248V25.44" fill="none" stroke="#b0b0b0" stroke-linecap="square" stroke-width=".8"/><use stroke="#000" stroke-width=".8" x="528.438" xlink:href="#b" y="234.248"/><g transform="matrix(.1 0 0 -.1 519.788 271.242)"><use xlink:href="#h"/><use x="68.408" xlink:href="#i"/><use x="131.885" xlink:href="#e"/></g><g stroke-width=".8"><path clip-path="url(#a)" d="M558 234.248V25.44" fill="none" stroke="#b0b0b0" stroke-linecap="square"/><use stroke="#000" x="558" xlink:href="#b" y="234.248"/></g><use stroke="#000" stroke-width=".6" x="85.001" xlink:href="#j" y="234.248"/><g transform="matrix(.1 0 0 -.1 78.639 247.246)"><use xlink:href="#g"/><use x="63.623" xlink:href="#f"/></g><g stroke="#000" stroke-width=".6"><use x="99.782" xlink:href="#j" y="234.248"/><use x="114.564" xlink:href="#j" y="234.248"/><use x="129.345" xlink:href="#j" y="234.248"/><use x="144.126" xlink:href="#j" y="234.248"/><use x="158.907" xlink:href="#j" y="234.248"/><use x="173.688" xlink:href="#j" y="234.248"/></g><use stroke="#000" stroke-width=".6" x="188.47" xlink:href="#j" y="234.248"/><g transform="matrix(.1 0 0 -.1 182.107 247.246)"><use xlink:href="#g"/><use x="63.623" xlink:href="#k"/></g><use stroke="#000" stroke-width=".6" x="203.251" xlink:href="#j" y="234.248"/><use stroke="#000" stroke-width=".6" x="218.032" xlink:href="#j" y="234.248"/><use stroke="#000" stroke-width=".6" x="232.813" xlink:href="#j" y="234.248"/><use stroke="#000" stroke-width=".6" x="247.595" xlink:href="#j" y="234.248"/><use stroke="#000" stroke-width=".6" x="262.376" xlink:href="#j" y="234.248"/><use stroke="#000" stroke-width=".6" x="277.157" xlink:href="#j" y="234.248"/><use stroke="#000" stroke-width=".6" x="291.938" xlink:href="#j" y="234.248"/><g transform="matrix(.1 0 0 -.1 285.576 247.246)"><use xlink:href="#l"/><use x="63.623" xlink:href="#m"/></g><use stroke="#000" stroke-width=".6" x="306.719" xlink:href="#j" y="234.248"/><use stroke="#000" stroke-width=".6" x="321.501" xlink:href="#j" y="234.248"/><use stroke="#000" stroke-width=".6" x="336.282" xlink:href="#j" y="234.248"/><use stroke="#000" stroke-width=".6" x="351.063" xlink:href="#j" y="234.248"/><use stroke="#000" stroke-width=".6" x="365.844" xlink:href="#j" y="234.248"/><use stroke="#000" stroke-width=".6" x="380.625" xlink:href="#j" y="234.248"/><use stroke="#000" stroke-width=".6" x="395.407" xlink:href="#j" y="234.248"/><g transform="matrix(.1 0 0 -.1 389.044 247.246)"><use xlink:href="#f"/><use x="63.623" xlink:href="#n"/></g><use stroke="#000" stroke-width=".6" x="410.188" xlink:href="#j" y="234.248"/><use stroke="#000" stroke-width=".6" x="424.969" xlink:href="#j" y="234.248"/><use stroke="#000" stroke-width=".6" x="439.75" xlink:href="#j" y="234.248"/><use stroke="#000" stroke-width=".6" x="454.532" xlink:href="#j" y="234.248"/><use stroke="#000" stroke-width=".6" x="469.313" xlink:href="#j" y="234.248"/><use stroke="#000" stroke-width=".6" x="484.094" xlink:href="#j" y="234.248"/><g><use stroke="#000" stroke-width=".6" x="498.875" xlink:href="#j" y="234.248"/><g transform="matrix(.1 0 0 -.1 492.513 247.246)"><use xlink:href="#n"/><use x="63.623" xlink:href="#g"/></g></g><use stroke="#000" stroke-width=".6" x="513.656" xlink:href="#j" y="234.248"/><use stroke="#000" stroke-width=".6" x="543.219" xlink:href="#j" y="234.248"/><g><path clip-path="url(#a)" d="M70.22 196.853H558" fill="none" stroke="#b0b0b0" stroke-linecap="square" stroke-width=".8"/><use stroke="#000" stroke-width=".8" x="70.22" xlink:href="#o" y="196.853"/><g transform="matrix(.1 0 0 -.1 31.407 200.653)"><use xlink:href="#p"/><use x="63.623" xlink:href="#g"/><use x="127.246" xlink:href="#g"/><use x="190.869" xlink:href="#g"/><use x="254.492" xlink:href="#g"/></g><path clip-path="url(#a)" d="M70.22 159.451H558" fill="none" stroke="#b0b0b0" stroke-linecap="square" stroke-width=".8"/><use stroke="#000" stroke-width=".8" x="70.22" xlink:href="#o" y="159.451"/><g transform="matrix(.1 0 0 -.1 25.045 163.25)"><use xlink:href="#l"/><use x="63.623" xlink:href="#g"/><use x="127.246" xlink:href="#g"/><use x="190.869" xlink:href="#g"/><use x="254.492" xlink:href="#g"/><use x="318.115" xlink:href="#g"/></g><g><path clip-path="url(#a)" d="M70.22 122.049H558" fill="none" stroke="#b0b0b0" stroke-linecap="square" stroke-width=".8"/><use stroke="#000" stroke-width=".8" x="70.22" xlink:href="#o" y="122.049"/><g transform="matrix(.1 0 0 -.1 25.045 125.848)"><use xlink:href="#l"/><use x="63.623" xlink:href="#p"/><use x="127.246" xlink:href="#g"/><use x="190.869" xlink:href="#g"/><use x="254.492" xlink:href="#g"/><use x="318.115" xlink:href="#g"/></g></g><g><path clip-path="url(#a)" d="M70.22 84.647H558" fill="none" stroke="#b0b0b0" stroke-linecap="square" stroke-width=".8"/><use stroke="#000" stroke-width=".8" x="70.22" xlink:href="#o" y="84.647"/><g transform="matrix(.1 0 0 -.1 25.045 88.446)"><use xlink:href="#f"/><use x="63.623" xlink:href="#g"/><use x="127.246" xlink:href="#g"/><use x="190.869" xlink:href="#g"/><use x="254.492" xlink:href="#g"/><use x="318.115" xlink:href="#g"/></g></g><g><path clip-path="url(#a)" d="M70.22 47.245H558" fill="none" stroke="#b0b0b0" stroke-linecap="square" stroke-width=".8"/><use stroke="#000" stroke-width=".8" x="70.22" xlink:href="#o" y="47.245"/><g transform="matrix(.1 0 0 -.1 25.045 51.044)"><use xlink:href="#f"/><use x="63.623" xlink:href="#p"/><use x="127.246" xlink:href="#g"/><use x="190.869" xlink:href="#g"/><use x="254.492" xlink:href="#g"/><use x="318.115" xlink:href="#g"/></g></g><g transform="matrix(0 -.1 -.1 0 18.965 156.19)"><path d="M3.328 72.906h9.953L28.61 11.281l15.282 61.625h11.093l15.328-61.625 15.282 61.625h10.015L77.297 0H64.89L49.516 63.281 33.984 0H21.578z"/><use x="98.799" xlink:href="#q"/><use x="159.98" xlink:href="#e"/><use x="201.094" xlink:href="#r"/><use x="228.877" xlink:href="#s"/><use x="292.354" xlink:href="#t"/><use x="374.141" xlink:href="#u"/><use x="401.924" xlink:href="#s"/><use x="465.4" xlink:href="#v"/></g></g><g stroke="#1f77b4"><path clip-path="url(#a)" d="M-1 234.22l12.095-.004h14.781l14.782-.002 14.78-.005 14.782-.004 14.781-.015 14.781-.015 14.782-.02 14.78-.05 14.782-.041 14.781-.102 14.781-.087 14.782-.05 14.78-.26 14.782-.235 14.781-.28 14.782-.38 14.78-.404 14.782-.572 14.781-.827 14.781-1.321 14.782-.947 14.78-4.346 14.782-3.993 14.781-4.717 14.781-6.212 14.782-7.327 14.78-7.16 14.782-8.819 14.781-13.069 14.782-12.912 14.78-14.342 14.782-12.996 14.781-13.04 14.781-18.02" fill="none" stroke-linecap="square" stroke-width="1.5"/><g clip-path="url(#a)" fill="#1f77b4"><use x="-1" xlink:href="#w" y="234.22"/><use x="11.095" xlink:href="#w" y="234.216"/><use x="25.876" xlink:href="#w" y="234.215"/><use x="40.658" xlink:href="#w" y="234.214"/><use x="55.439" xlink:href="#w" y="234.209"/><use x="70.22" xlink:href="#w" y="234.205"/><use x="85.001" xlink:href="#w" y="234.19"/><use x="99.782" xlink:href="#w" y="234.175"/><use x="114.564" xlink:href="#w" y="234.155"/><use x="129.345" xlink:href="#w" y="234.105"/><use x="144.126" xlink:href="#w" y="234.064"/><use x="158.907" xlink:href="#w" y="233.962"/><use x="173.688" xlink:href="#w" y="233.875"/><use x="188.47" xlink:href="#w" y="233.825"/><use x="203.251" xlink:href="#w" y="233.565"/><use x="218.032" xlink:href="#w" y="233.33"/><use x="232.813" xlink:href="#w" y="233.05"/><use x="247.595" xlink:href="#w" y="232.67"/><use x="262.376" xlink:href="#w" y="232.266"/><use x="277.157" xlink:href="#w" y="231.694"/><use x="291.938" xlink:href="#w" y="230.867"/><use x="306.719" xlink:href="#w" y="229.546"/><use x="321.501" xlink:href="#w" y="228.599"/><use x="336.282" xlink:href="#w" y="224.253"/><use x="351.063" xlink:href="#w" y="220.26"/><use x="365.844" xlink:href="#w" y="215.543"/><use x="380.625" xlink:href="#w" y="209.331"/><use x="395.407" xlink:href="#w" y="202.004"/><use x="410.188" xlink:href="#w" y="194.844"/><use x="424.969" xlink:href="#w" y="186.025"/><use x="439.75" xlink:href="#w" y="172.956"/><use x="454.532" xlink:href="#w" y="160.044"/><use x="469.313" xlink:href="#w" y="145.702"/><use x="484.094" xlink:href="#w" y="132.706"/><use x="498.875" xlink:href="#w" y="119.666"/><use x="513.656" xlink:href="#w" y="101.646"/></g></g><g stroke="#ff7f0e"><path clip-path="url(#a)" d="M-1 234.006l12.095-.078 14.781-.116 14.782-.17 14.78-.174 14.782-.392 14.781-.193 14.781-.32 14.782-.332 14.78-.441 14.782-.464 14.781-.856 14.781-.992 14.782-1.196 14.78-.605 14.782-1.343h14.781l14.782-3.266 14.78-2.09 14.782-2.134 14.781-1.848 14.781-2.236 14.782-1.98 14.78-3.352 14.782-4.009 14.781-3.09 14.781-2.96 14.782-2.828 14.78-2.702 14.782-2.612 14.781-3.36 14.782-3.292 14.78-2.731 14.782-2.854 14.781-1.233 14.781-1.576" fill="none" stroke-linecap="square" stroke-width="1.5"/><g clip-path="url(#a)" fill="#ff7f0e"><use x="-1" xlink:href="#x" y="234.006"/><use x="11.095" xlink:href="#x" y="233.928"/><use x="25.876" xlink:href="#x" y="233.812"/><use x="40.658" xlink:href="#x" y="233.641"/><use x="55.439" xlink:href="#x" y="233.468"/><use x="70.22" xlink:href="#x" y="233.076"/><use x="85.001" xlink:href="#x" y="232.883"/><use x="99.782" xlink:href="#x" y="232.563"/><use x="114.564" xlink:href="#x" y="232.231"/><use x="129.345" xlink:href="#x" y="231.79"/><use x="144.126" xlink:href="#x" y="231.326"/><use x="158.907" xlink:href="#x" y="230.47"/><use x="173.688" xlink:href="#x" y="229.478"/><use x="188.47" xlink:href="#x" y="228.282"/><use x="203.251" xlink:href="#x" y="227.677"/><use x="218.032" xlink:href="#x" y="226.334"/><use x="232.813" xlink:href="#x" y="226.334"/><use x="247.595" xlink:href="#x" y="223.068"/><use x="262.376" xlink:href="#x" y="220.978"/><use x="277.157" xlink:href="#x" y="218.844"/><use x="291.938" xlink:href="#x" y="216.996"/><use x="306.719" xlink:href="#x" y="214.76"/><use x="321.501" xlink:href="#x" y="212.779"/><use x="336.282" xlink:href="#x" y="209.428"/><use x="351.063" xlink:href="#x" y="205.419"/><use x="365.844" xlink:href="#x" y="202.328"/><use x="380.625" xlink:href="#x" y="199.368"/><use x="395.407" xlink:href="#x" y="196.541"/><use x="410.188" xlink:href="#x" y="193.839"/><use x="424.969" xlink:href="#x" y="191.227"/><use x="439.75" xlink:href="#x" y="187.867"/><use x="454.532" xlink:href="#x" y="184.575"/><use x="469.313" xlink:href="#x" y="181.844"/><use x="484.094" xlink:href="#x" y="178.99"/><use x="498.875" xlink:href="#x" y="177.757"/><use x="513.656" xlink:href="#x" y="176.181"/></g></g><path clip-path="url(#a)" d="M-1 234.252l12.095-.005 14.781-.001 14.782-.013 14.78-.01 14.782-.029 14.781-.027 14.781-.033 14.782-.042 14.78-.027 14.782-.104 14.781-.05 14.781-.124 14.782-.29 14.78-.46 14.782-.308 14.781.001 14.782-2.144 14.78-.579 14.782-.982 14.781-1.554 14.781-.836 14.782-1.51 14.78-2.858 14.782-1.311 14.781-3.063 14.781-2.13 14.782-3.552 14.78-2.853 14.782-5.399 14.781-4.417 14.782-3.604 14.78-2.801 14.782-2.715 14.781-3.637 14.781-3.546" fill="none" stroke="#2ca02c" stroke-linecap="square" stroke-width="1.5"/><g stroke="#d62728"><path clip-path="url(#a)" d="M-1 234.252l12.095-.005 14.781-.014 14.782-.001 14.78-.024 14.782-.038 14.781-.021 14.781-.028 14.782-.05 14.78-.164 14.782-.14 14.781-.096 14.781-.18 14.782-.1 14.78-.21 14.782-.332 14.781-.127 14.782-1.176 14.78-.68 14.782-.903 14.781-1.084 14.781-1.48 14.782-2.265 14.78-2.221 14.782-3.32 14.781-1.717 14.781-1.957 14.782-2.968 14.78-.827 14.782-2.98 14.781-3.313 14.782-4.393 14.78-3.673 14.782-2.67 14.781-.291 14.781-1.64" fill="none" stroke-linecap="square" stroke-width="1.5"/><g clip-path="url(#a)" fill="#d62728"><use x="-1" xlink:href="#y" y="234.252"/><use x="11.095" xlink:href="#y" y="234.247"/><use x="25.876" xlink:href="#y" y="234.233"/><use x="40.658" xlink:href="#y" y="234.232"/><use x="55.439" xlink:href="#y" y="234.208"/><use x="70.22" xlink:href="#y" y="234.17"/><use x="85.001" xlink:href="#y" y="234.149"/><use x="99.782" xlink:href="#y" y="234.121"/><use x="114.564" xlink:href="#y" y="234.071"/><use x="129.345" xlink:href="#y" y="233.907"/><use x="144.126" xlink:href="#y" y="233.767"/><use x="158.907" xlink:href="#y" y="233.671"/><use x="173.688" xlink:href="#y" y="233.491"/><use x="188.47" xlink:href="#y" y="233.391"/><use x="203.251" xlink:href="#y" y="233.181"/><use x="218.032" xlink:href="#y" y="232.849"/><use x="232.813" xlink:href="#y" y="232.722"/><use x="247.595" xlink:href="#y" y="231.546"/><use x="262.376" xlink:href="#y" y="230.867"/><use x="277.157" xlink:href="#y" y="229.963"/><use x="291.938" xlink:href="#y" y="228.879"/><use x="306.719" xlink:href="#y" y="227.399"/><use x="321.501" xlink:href="#y" y="225.134"/><use x="336.282" xlink:href="#y" y="222.913"/><use x="351.063" xlink:href="#y" y="219.593"/><use x="365.844" xlink:href="#y" y="217.876"/><use x="380.625" xlink:href="#y" y="215.919"/><use x="395.407" xlink:href="#y" y="212.951"/><use x="410.188" xlink:href="#y" y="212.124"/><use x="424.969" xlink:href="#y" y="209.144"/><use x="439.75" xlink:href="#y" y="205.831"/><use x="454.532" xlink:href="#y" y="201.438"/><use x="469.313" xlink:href="#y" y="197.765"/><use x="484.094" xlink:href="#y" y="195.095"/><use x="498.875" xlink:href="#y" y="194.804"/><use x="513.656" xlink:href="#y" y="193.163"/></g></g><g stroke="#9467bd"><path clip-path="url(#a)" d="M-1 234.254l12.095-.002 14.781-.015 14.782-.014 14.78-.032 14.782-.022 14.781-.045 14.781-.01 14.782-.06 14.78-.067 14.782-.204 14.781-.22 14.781-.127 14.782-.062 14.78-.42 14.782-.362h14.781l14.782-1.012 14.78-.599 14.782-.024 14.781-1.556 14.781-.773 14.782-1.024 14.78-1.301 14.782-1.151 14.781-1.17 14.781.297 14.782-2.78 14.78-.882 14.782-1.592 14.781-1.898 14.782-2.095 14.78-3.266 14.782-.603 14.781-2.473 14.781-4.193" fill="none" stroke-linecap="square" stroke-width="1.5"/><g clip-path="url(#a)" fill="#9467bd"><use x="-1" xlink:href="#z" y="234.254"/><use x="11.095" xlink:href="#z" y="234.252"/><use x="25.876" xlink:href="#z" y="234.237"/><use x="40.658" xlink:href="#z" y="234.223"/><use x="55.439" xlink:href="#z" y="234.191"/><use x="70.22" xlink:href="#z" y="234.169"/><use x="85.001" xlink:href="#z" y="234.124"/><use x="99.782" xlink:href="#z" y="234.115"/><use x="114.564" xlink:href="#z" y="234.054"/><use x="129.345" xlink:href="#z" y="233.987"/><use x="144.126" xlink:href="#z" y="233.783"/><use x="158.907" xlink:href="#z" y="233.563"/><use x="173.688" xlink:href="#z" y="233.436"/><use x="188.47" xlink:href="#z" y="233.374"/><use x="203.251" xlink:href="#z" y="232.955"/><use x="218.032" xlink:href="#z" y="232.592"/><use x="232.813" xlink:href="#z" y="232.592"/><use x="247.595" xlink:href="#z" y="231.58"/><use x="262.376" xlink:href="#z" y="230.981"/><use x="277.157" xlink:href="#z" y="230.957"/><use x="291.938" xlink:href="#z" y="229.401"/><use x="306.719" xlink:href="#z" y="228.628"/><use x="321.501" xlink:href="#z" y="227.604"/><use x="336.282" xlink:href="#z" y="226.303"/><use x="351.063" xlink:href="#z" y="225.152"/><use x="365.844" xlink:href="#z" y="223.982"/><use x="380.625" xlink:href="#z" y="224.279"/><use x="395.407" xlink:href="#z" y="221.498"/><use x="410.188" xlink:href="#z" y="220.617"/><use x="424.969" xlink:href="#z" y="219.025"/><use x="439.75" xlink:href="#z" y="217.127"/><use x="454.532" xlink:href="#z" y="215.032"/><use x="469.313" xlink:href="#z" y="211.766"/><use x="484.094" xlink:href="#z" y="211.163"/><use x="498.875" xlink:href="#z" y="208.69"/><use x="513.656" xlink:href="#z" y="204.497"/></g></g><path clip-path="url(#a)" d="M513.656 101.646l14.782-19.18 14.78-21.953L558 35.383" fill="none" stroke="#1f77b4" stroke-dasharray="1.5 2.475" stroke-width="1.5"/><path clip-path="url(#a)" d="M513.656 176.181l14.782-1.83 14.78-1.888L558 170.515" fill="none" stroke="#ff7f0e" stroke-dasharray="1.5 2.475" stroke-width="1.5"/><path clip-path="url(#a)" d="M513.656 183.239l14.782-3.866 14.78-4.159L558 170.74" fill="none" stroke="#2ca02c" stroke-dasharray="1.5 2.475" stroke-width="1.5"/><path clip-path="url(#a)" d="M513.656 193.163l14.782-1.474 14.78-1.526L558 188.58" fill="none" stroke="#d62728" stroke-dasharray="1.5 2.475" stroke-width="1.5"/><path clip-path="url(#a)" d="M513.656 204.497l14.782-3.364 14.78-3.744L558 193.22" fill="none" stroke="#9467bd" stroke-dasharray="1.5 2.475" stroke-width="1.5"/><path d="M70.22 234.248V25.44M558 234.248V25.44M70.22 234.248H558M70.22 25.44H558" fill="none" stroke="#000" stroke-linecap="square" stroke-linejoin="miter" stroke-width=".8"/><g transform="matrix(.12 0 0 -.12 192.33 19.44)"><use xlink:href="#h"/><use x="68.393" xlink:href="#A"/><use x="123.373" xlink:href="#B"/><use x="162.582" xlink:href="#u"/><path d="M193.35 54.688h9.515L219.96 8.797l17.094 45.89h9.515L226.053 0H213.85z"/><use x="249.545" xlink:href="#v"/><use x="342.855" xlink:href="#C"/><path d="M452.086 66.219q-10.75 0-17.078-8.016-6.313-8-6.313-21.828 0-13.766 6.313-21.781 6.328-8 17.078-8 10.734 0 17.016 8 6.28 8.015 6.28 21.781 0 13.828-6.28 21.828-6.282 8.016-17.016 8.016zm0 8q15.328 0 24.5-10.281 9.187-10.282 9.187-27.563 0-17.234-9.187-27.516-9.172-10.28-24.5-10.28-15.375 0-24.594 10.25-9.203 10.265-9.203 27.546t9.203 27.563q9.219 10.28 24.594 10.28zM519.984 0l-27.828 72.906h10.297l23.11-61.375 23.14 61.375h10.25L531.172 0z"/><use x="559.783" xlink:href="#D"/><path d="M608.947 64.797V8.109h11.922q15.094 0 22.094 6.829 7 6.843 7 21.593 0 14.64-7 21.453-7 6.813-22.094 6.813zm-9.86 8.11h20.267q21.187 0 31.093-8.813 9.922-8.813 9.922-27.563 0-18.86-9.969-27.703Q640.447 0 619.354 0h-20.266z"/><use x="666.277" xlink:href="#E"/><use x="702.361" xlink:href="#l"/><use x="765.984" xlink:href="#k"/><use x="861.395" xlink:href="#A"/><use x="916.375" xlink:href="#d"/><use x="977.654" xlink:href="#F"/><use x="1029.754" xlink:href="#v"/><use x="1091.277" xlink:href="#F"/><use x="1175.164" xlink:href="#d"/><use x="1236.443" xlink:href="#F"/><use x="1320.33" xlink:href="#q"/><use x="1381.512" xlink:href="#G"/><use x="1448.504" xlink:href="#f"/><use x="1512.127" xlink:href="#g"/><use x="1575.75" xlink:href="#f"/><use x="1639.373" xlink:href="#g"/><use x="1702.996" xlink:href="#E"/><use x="1739.08" xlink:href="#g"/><use x="1802.703" xlink:href="#n"/><use x="1866.326" xlink:href="#E"/><use x="1902.41" xlink:href="#n"/><use x="1966.033" xlink:href="#l"/></g><g><path d="M77.22 106.83h192.931q2 0 2-2V32.44q0-2-2-2H77.22q-2 0-2 2v72.39q0 2 2 2z" fill="#fff" opacity=".8" stroke="#ccc" stroke-linejoin="miter"/><path d="M79.22 38.538h20" fill="none" stroke="#1f77b4" stroke-linecap="square" stroke-width="1.5"/><use fill="#1f77b4" stroke="#1f77b4" x="89.22" xlink:href="#w" y="38.538"/><g transform="matrix(.1 0 0 -.1 107.22 42.038)"><use xlink:href="#H"/><use x="73.193" xlink:href="#I"/><use x="168.457" xlink:href="#J"/><use x="207.471" xlink:href="#s"/><use x="270.947" xlink:href="#q"/><use x="332.129" xlink:href="#K"/><use x="395.508" xlink:href="#L"/><use x="458.984" xlink:href="#r"/><use x="486.768" xlink:href="#v"/><use x="548.291" xlink:href="#F"/><use x="632.178" xlink:href="#u"/><use x="659.961" xlink:href="#M"/><use x="755.127" xlink:href="#p"/><use x="818.75" xlink:href="#N"/><use x="850.537" xlink:href="#l"/><use x="945.947" xlink:href="#s"/><use x="1009.424" xlink:href="#d"/><use x="1070.703" xlink:href="#O"/><use x="1129.883" xlink:href="#F"/><use x="1181.982" xlink:href="#P"/></g><path d="M79.22 53.217h20" fill="none" stroke="#ff7f0e" stroke-linecap="square" stroke-width="1.5"/><use fill="#ff7f0e" stroke="#ff7f0e" x="89.22" xlink:href="#x" y="53.217"/><g transform="matrix(.1 0 0 -.1 107.22 56.717)"><use xlink:href="#D"/><use x="29.492" xlink:href="#B"/><use x="68.701" xlink:href="#d"/><use x="129.98" xlink:href="#r"/><use x="157.764" xlink:href="#O"/><use x="248.73" xlink:href="#J"/><use x="287.744" xlink:href="#s"/><use x="351.221" xlink:href="#q"/><use x="412.402" xlink:href="#K"/><use x="475.781" xlink:href="#L"/><use x="539.258" xlink:href="#r"/><use x="567.041" xlink:href="#v"/><use x="628.564" xlink:href="#F"/><use x="712.451" xlink:href="#u"/><use x="740.234" xlink:href="#M"/><use x="835.4" xlink:href="#f"/><use x="899.023" xlink:href="#f"/><use x="962.646" xlink:href="#N"/><use x="994.434" xlink:href="#n"/><use x="1089.844" xlink:href="#s"/><use x="1153.32" xlink:href="#d"/><use x="1214.6" xlink:href="#O"/><use x="1273.779" xlink:href="#F"/><use x="1325.879" xlink:href="#P"/></g><path d="M79.22 67.895h20" fill="none" stroke="#2ca02c" stroke-linecap="square" stroke-width="1.5"/><g transform="matrix(.1 0 0 -.1 107.22 71.395)"><use xlink:href="#I"/><use x="63.477" xlink:href="#i"/><use x="126.953" xlink:href="#d"/><use x="188.232" xlink:href="#u"/><use x="216.016" xlink:href="#M"/><use x="311.182" xlink:href="#J"/><use x="350.195" xlink:href="#s"/><use x="413.672" xlink:href="#q"/><use x="474.854" xlink:href="#K"/><use x="538.232" xlink:href="#L"/><use x="601.709" xlink:href="#r"/><use x="629.492" xlink:href="#v"/><use x="691.016" xlink:href="#F"/><use x="774.902" xlink:href="#u"/><use x="802.686" xlink:href="#M"/><use x="897.852" xlink:href="#k"/><use x="961.475" xlink:href="#N"/><use x="993.262" xlink:href="#p"/><use x="1088.672" xlink:href="#s"/><use x="1152.148" xlink:href="#d"/><use x="1213.428" xlink:href="#O"/><use x="1272.607" xlink:href="#F"/><use x="1324.707" xlink:href="#P"/></g><path d="M79.22 82.573h20" fill="none" stroke="#d62728" stroke-linecap="square" stroke-width="1.5"/><use fill="#d62728" stroke="#d62728" x="89.22" xlink:href="#y" y="82.573"/><g transform="matrix(.1 0 0 -.1 107.22 86.073)"><path d="M59.516 10.406v19.578h-16.11v8.11h25.875V6.78Q63.578 2.734 56.687.656 49.813-1.422 42-1.422q-17.094 0-26.75 9.985-9.64 10-9.64 27.812 0 17.875 9.64 27.86 9.656 9.984 26.75 9.984 7.125 0 13.547-1.766 6.422-1.75 11.844-5.172v-10.5q-5.47 4.64-11.625 6.985-6.157 2.343-12.938 2.343-13.39 0-20.11-7.468-6.702-7.47-6.702-22.266 0-14.75 6.703-22.219 6.718-7.469 20.11-7.469 5.218 0 9.312.907 4.109.906 7.375 2.812z"/><use x="77.49" xlink:href="#v"/><use x="139.014" xlink:href="#e"/><path d="M232.111 44.188q3.375 6.062 8.063 8.937Q244.86 56 251.205 56q8.547 0 13.188-5.984 4.64-5.97 4.64-17V0h-9.031v32.719q0 7.86-2.797 11.656-2.781 3.813-8.484 3.813-6.985 0-11.047-4.641-4.047-4.625-4.047-12.64V0h-9.031v32.719q0 7.906-2.782 11.687-2.78 3.782-8.593 3.782-6.89 0-10.953-4.657-4.047-4.656-4.047-12.625V0h-9.032v54.688h9.032v-8.5q3.078 5.03 7.375 7.421Q209.893 56 215.799 56q5.969 0 10.14-3.031 4.172-3.016 6.172-8.782z"/><use x="277.523" xlink:href="#d"/><use x="338.803" xlink:href="#M"/><use x="402.182" xlink:href="#O"/><use x="493.148" xlink:href="#J"/><use x="532.162" xlink:href="#s"/><use x="595.639" xlink:href="#q"/><use x="656.82" xlink:href="#K"/><use x="720.199" xlink:href="#L"/><use x="783.676" xlink:href="#r"/><use x="811.459" xlink:href="#v"/><use x="872.982" xlink:href="#F"/><use x="956.869" xlink:href="#u"/><use x="984.652" xlink:href="#M"/><use x="1079.818" xlink:href="#l"/><use x="1143.441" xlink:href="#k"/><use x="1207.064" xlink:href="#N"/><path d="M1247.055 72.906h46.875v-4.203L1267.46 0h-10.296l24.906 64.594h-35.015z"/><use x="1334.262" xlink:href="#s"/><use x="1397.738" xlink:href="#d"/><use x="1459.018" xlink:href="#O"/><use x="1518.197" xlink:href="#F"/><use x="1570.297" xlink:href="#P"/></g><path d="M79.22 97.25h20" fill="none" stroke="#9467bd" stroke-linecap="square" stroke-width="1.5"/><use fill="#9467bd" stroke="#9467bd" x="89.22" xlink:href="#z" y="97.251"/><g transform="matrix(.1 0 0 -.1 107.22 100.75)"><path d="M9.813 72.906h41.89v-8.312H19.672V43.109h28.906v-8.297H19.672V0h-9.86z"/><use x="57.41" xlink:href="#e"/><use x="98.523" xlink:href="#d"/><use x="159.803" xlink:href="#M"/><use x="223.182" xlink:href="#A"/><use x="278.162" xlink:href="#v"/><use x="371.473" xlink:href="#J"/><use x="410.486" xlink:href="#s"/><use x="473.963" xlink:href="#q"/><use x="535.145" xlink:href="#K"/><use x="598.523" xlink:href="#L"/><use x="662" xlink:href="#r"/><use x="689.783" xlink:href="#v"/><use x="751.307" xlink:href="#F"/><use x="835.193" xlink:href="#u"/><use x="862.977" xlink:href="#M"/><use x="958.143" xlink:href="#m"/><use x="1021.766" xlink:href="#N"/><use x="1053.553" xlink:href="#p"/><use x="1148.963" xlink:href="#s"/><use x="1212.439" xlink:href="#d"/><use x="1273.719" xlink:href="#O"/><use x="1332.898" xlink:href="#F"/><use x="1384.998" xlink:href="#P"/></g></g><g><path d="M70.22 505.928H558V297.12H70.22z" fill="#fff"/><path clip-path="url(#Q)" d="M70.22 505.928V297.12" fill="none" stroke="#b0b0b0" stroke-linecap="square" stroke-width=".8"/><use stroke="#000" stroke-width=".8" x="70.22" xlink:href="#b" y="505.928"/><g transform="matrix(.1 0 0 -.1 60.786 542.922)"><use xlink:href="#c"/><use x="86.279" xlink:href="#d"/><use x="147.559" xlink:href="#e"/></g><g transform="matrix(.1 0 0 -.1 57.495 554.12)"><use xlink:href="#f"/><use x="63.623" xlink:href="#g"/><use x="127.246" xlink:href="#f"/><use x="190.869" xlink:href="#g"/></g><path clip-path="url(#Q)" d="M528.438 505.928V297.12" fill="none" stroke="#b0b0b0" stroke-linecap="square" stroke-width=".8"/><use stroke="#000" stroke-width=".8" x="528.438" xlink:href="#b" y="505.928"/><g transform="matrix(.1 0 0 -.1 519.788 542.922)"><use xlink:href="#h"/><use x="68.408" xlink:href="#i"/><use x="131.885" xlink:href="#e"/></g><g stroke-width=".8"><path clip-path="url(#Q)" d="M558 505.928V297.12" fill="none" stroke="#b0b0b0" stroke-linecap="square"/><use stroke="#000" x="558" xlink:href="#b" y="505.928"/></g><use stroke="#000" stroke-width=".6" x="85.001" xlink:href="#j" y="505.928"/><g transform="matrix(.1 0 0 -.1 78.639 518.926)"><use xlink:href="#g"/><use x="63.623" xlink:href="#f"/></g><g stroke="#000" stroke-width=".6"><use x="99.782" xlink:href="#j" y="505.928"/><use x="114.564" xlink:href="#j" y="505.928"/><use x="129.345" xlink:href="#j" y="505.928"/><use x="144.126" xlink:href="#j" y="505.928"/><use x="158.907" xlink:href="#j" y="505.928"/><use x="173.688" xlink:href="#j" y="505.928"/></g><use stroke="#000" stroke-width=".6" x="188.47" xlink:href="#j" y="505.928"/><g transform="matrix(.1 0 0 -.1 182.107 518.926)"><use xlink:href="#g"/><use x="63.623" xlink:href="#k"/></g><use stroke="#000" stroke-width=".6" x="203.251" xlink:href="#j" y="505.928"/><use stroke="#000" stroke-width=".6" x="218.032" xlink:href="#j" y="505.928"/><use stroke="#000" stroke-width=".6" x="232.813" xlink:href="#j" y="505.928"/><use stroke="#000" stroke-width=".6" x="247.595" xlink:href="#j" y="505.928"/><use stroke="#000" stroke-width=".6" x="262.376" xlink:href="#j" y="505.928"/><use stroke="#000" stroke-width=".6" x="277.157" xlink:href="#j" y="505.928"/><use stroke="#000" stroke-width=".6" x="291.938" xlink:href="#j" y="505.928"/><g transform="matrix(.1 0 0 -.1 285.576 518.926)"><use xlink:href="#l"/><use x="63.623" xlink:href="#m"/></g><use stroke="#000" stroke-width=".6" x="306.719" xlink:href="#j" y="505.928"/><use stroke="#000" stroke-width=".6" x="321.501" xlink:href="#j" y="505.928"/><use stroke="#000" stroke-width=".6" x="336.282" xlink:href="#j" y="505.928"/><use stroke="#000" stroke-width=".6" x="351.063" xlink:href="#j" y="505.928"/><use stroke="#000" stroke-width=".6" x="365.844" xlink:href="#j" y="505.928"/><use stroke="#000" stroke-width=".6" x="380.625" xlink:href="#j" y="505.928"/><use stroke="#000" stroke-width=".6" x="395.407" xlink:href="#j" y="505.928"/><g transform="matrix(.1 0 0 -.1 389.044 518.926)"><use xlink:href="#f"/><use x="63.623" xlink:href="#n"/></g><use stroke="#000" stroke-width=".6" x="410.188" xlink:href="#j" y="505.928"/><use stroke="#000" stroke-width=".6" x="424.969" xlink:href="#j" y="505.928"/><use stroke="#000" stroke-width=".6" x="439.75" xlink:href="#j" y="505.928"/><use stroke="#000" stroke-width=".6" x="454.532" xlink:href="#j" y="505.928"/><use stroke="#000" stroke-width=".6" x="469.313" xlink:href="#j" y="505.928"/><use stroke="#000" stroke-width=".6" x="484.094" xlink:href="#j" y="505.928"/><g><use stroke="#000" stroke-width=".6" x="498.875" xlink:href="#j" y="505.928"/><g transform="matrix(.1 0 0 -.1 492.513 518.926)"><use xlink:href="#n"/><use x="63.623" xlink:href="#g"/></g></g><use stroke="#000" stroke-width=".6" x="513.656" xlink:href="#j" y="505.928"/><use stroke="#000" stroke-width=".6" x="543.219" xlink:href="#j" y="505.928"/><g><path clip-path="url(#Q)" d="M70.22 468.64H558" fill="none" stroke="#b0b0b0" stroke-linecap="square" stroke-width=".8"/><use stroke="#000" stroke-width=".8" x="70.22" xlink:href="#o" y="468.64"/><g transform="matrix(.1 0 0 -.1 31.407 472.439)"><use xlink:href="#f"/><use x="63.623" xlink:href="#g"/><use x="127.246" xlink:href="#g"/><use x="190.869" xlink:href="#g"/><use x="254.492" xlink:href="#g"/></g><path clip-path="url(#Q)" d="M70.22 431.333H558" fill="none" stroke="#b0b0b0" stroke-linecap="square" stroke-width=".8"/><use stroke="#000" stroke-width=".8" x="70.22" xlink:href="#o" y="431.333"/><g transform="matrix(.1 0 0 -.1 31.407 435.132)"><use xlink:href="#R"/><use x="63.623" xlink:href="#g"/><use x="127.246" xlink:href="#g"/><use x="190.869" xlink:href="#g"/><use x="254.492" xlink:href="#g"/></g><g><path clip-path="url(#Q)" d="M70.22 394.026H558" fill="none" stroke="#b0b0b0" stroke-linecap="square" stroke-width=".8"/><use stroke="#000" stroke-width=".8" x="70.22" xlink:href="#o" y="394.026"/><g transform="matrix(.1 0 0 -.1 31.407 397.825)"><use xlink:href="#m"/><use x="63.623" xlink:href="#g"/><use x="127.246" xlink:href="#g"/><use x="190.869" xlink:href="#g"/><use x="254.492" xlink:href="#g"/></g></g><g><path clip-path="url(#Q)" d="M70.22 356.719H558" fill="none" stroke="#b0b0b0" stroke-linecap="square" stroke-width=".8"/><use stroke="#000" stroke-width=".8" x="70.22" xlink:href="#o" y="356.719"/><g transform="matrix(.1 0 0 -.1 31.407 360.518)"><use xlink:href="#S"/><use x="63.623" xlink:href="#g"/><use x="127.246" xlink:href="#g"/><use x="190.869" xlink:href="#g"/><use x="254.492" xlink:href="#g"/></g></g><g><path clip-path="url(#Q)" d="M70.22 319.412H558" fill="none" stroke="#b0b0b0" stroke-linecap="square" stroke-width=".8"/><use stroke="#000" stroke-width=".8" x="70.22" xlink:href="#o" y="319.412"/><g transform="matrix(.1 0 0 -.1 25.045 323.21)"><use xlink:href="#l"/><use x="63.623" xlink:href="#g"/><use x="127.246" xlink:href="#g"/><use x="190.869" xlink:href="#g"/><use x="254.492" xlink:href="#g"/><use x="318.115" xlink:href="#g"/></g></g><g transform="matrix(0 -.1 -.1 0 18.965 408.358)"><use xlink:href="#H"/><use x="73.193" xlink:href="#I"/></g></g><g stroke="#1f77b4"><path clip-path="url(#Q)" d="M-1 505.947h71.22l14.781-.002 14.781-.002 14.782-.017 14.78-.022 14.782-.024 14.781-.075 14.781-.056 14.782-.067 14.78-.058 14.782-.088 14.781-.201 14.782-.174 14.78-.19 14.782-.384 14.781-.425 14.781-1.373 14.782-1.467 14.78-5.32 14.782-5.478 14.781-6.309 14.781-7.523 14.782-9.407 14.78-8.85 14.782-9.486 14.781-12.938 14.782-12.79 14.78-13.68 14.782-13.059 14.781-12.613 14.781-16.486" fill="none" stroke-linecap="square" stroke-width="1.5"/><g clip-path="url(#Q)" fill="#1f77b4"><use x="-1" xlink:href="#w" y="505.947"/><use x="11.095" xlink:href="#w" y="505.947"/><use x="25.876" xlink:href="#w" y="505.947"/><use x="40.658" xlink:href="#w" y="505.947"/><use x="55.439" xlink:href="#w" y="505.947"/><use x="70.22" xlink:href="#w" y="505.947"/><use x="85.001" xlink:href="#w" y="505.945"/><use x="99.782" xlink:href="#w" y="505.943"/><use x="114.564" xlink:href="#w" y="505.926"/><use x="129.345" xlink:href="#w" y="505.904"/><use x="144.126" xlink:href="#w" y="505.88"/><use x="158.907" xlink:href="#w" y="505.805"/><use x="173.688" xlink:href="#w" y="505.749"/><use x="188.47" xlink:href="#w" y="505.682"/><use x="203.251" xlink:href="#w" y="505.624"/><use x="218.032" xlink:href="#w" y="505.536"/><use x="232.813" xlink:href="#w" y="505.335"/><use x="247.595" xlink:href="#w" y="505.161"/><use x="262.376" xlink:href="#w" y="504.971"/><use x="277.157" xlink:href="#w" y="504.587"/><use x="291.938" xlink:href="#w" y="504.162"/><use x="306.719" xlink:href="#w" y="502.789"/><use x="321.501" xlink:href="#w" y="501.322"/><use x="336.282" xlink:href="#w" y="496.002"/><use x="351.063" xlink:href="#w" y="490.524"/><use x="365.844" xlink:href="#w" y="484.215"/><use x="380.625" xlink:href="#w" y="476.692"/><use x="395.407" xlink:href="#w" y="467.285"/><use x="410.188" xlink:href="#w" y="458.434"/><use x="424.969" xlink:href="#w" y="448.949"/><use x="439.75" xlink:href="#w" y="436.011"/><use x="454.532" xlink:href="#w" y="423.22"/><use x="469.313" xlink:href="#w" y="409.542"/><use x="484.094" xlink:href="#w" y="396.482"/><use x="498.875" xlink:href="#w" y="383.869"/><use x="513.656" xlink:href="#w" y="367.383"/></g></g><g stroke="#ff7f0e"><path clip-path="url(#Q)" d="M-1 505.947H114.564l14.78-.004h14.782l14.781-.004 14.781-.002h14.782l14.78-.016 14.782-.015 14.781-.012h14.782l14.78-.074 14.782-.052 14.781-.148 14.781-.164 14.782-.002 14.78-.875 14.782-.272 14.781-.806 14.781-1.087 14.782-1.722 14.78-1.518 14.782-1.323 14.781-4.58 14.782-3.585 14.78-4.228 14.782-4.18 14.781-5.994 14.781-3.714" fill="none" stroke-linecap="square" stroke-width="1.5"/><g clip-path="url(#Q)" fill="#ff7f0e"><use x="-1" xlink:href="#x" y="505.947"/><use x="11.095" xlink:href="#x" y="505.947"/><use x="25.876" xlink:href="#x" y="505.947"/><use x="40.658" xlink:href="#x" y="505.947"/><use x="55.439" xlink:href="#x" y="505.947"/><use x="70.22" xlink:href="#x" y="505.947"/><use x="85.001" xlink:href="#x" y="505.947"/><use x="99.782" xlink:href="#x" y="505.947"/><use x="114.564" xlink:href="#x" y="505.947"/><use x="129.345" xlink:href="#x" y="505.943"/><use x="144.126" xlink:href="#x" y="505.943"/><use x="158.907" xlink:href="#x" y="505.939"/><use x="173.688" xlink:href="#x" y="505.937"/><use x="188.47" xlink:href="#x" y="505.937"/><use x="203.251" xlink:href="#x" y="505.921"/><use x="218.032" xlink:href="#x" y="505.906"/><use x="232.813" xlink:href="#x" y="505.894"/><use x="247.595" xlink:href="#x" y="505.894"/><use x="262.376" xlink:href="#x" y="505.82"/><use x="277.157" xlink:href="#x" y="505.768"/><use x="291.938" xlink:href="#x" y="505.62"/><use x="306.719" xlink:href="#x" y="505.456"/><use x="321.501" xlink:href="#x" y="505.454"/><use x="336.282" xlink:href="#x" y="504.579"/><use x="351.063" xlink:href="#x" y="504.307"/><use x="365.844" xlink:href="#x" y="503.501"/><use x="380.625" xlink:href="#x" y="502.414"/><use x="395.407" xlink:href="#x" y="500.692"/><use x="410.188" xlink:href="#x" y="499.174"/><use x="424.969" xlink:href="#x" y="497.851"/><use x="439.75" xlink:href="#x" y="493.272"/><use x="454.532" xlink:href="#x" y="489.686"/><use x="469.313" xlink:href="#x" y="485.458"/><use x="484.094" xlink:href="#x" y="481.277"/><use x="498.875" xlink:href="#x" y="475.284"/><use x="513.656" xlink:href="#x" y="471.57"/></g></g><path clip-path="url(#Q)" d="M-1 505.932h12.095l14.781-.002h14.782l14.78-.002H70.22l14.781-.017 14.781-.007 14.782-.017 14.78-.03 14.782-.015 14.781-.043 14.781-.03 14.782-.01 14.78-.073 14.782-.06 14.781-.073 14.782-.114 14.78-.106 14.782-.159 14.781-.242 14.781-.254 14.782-.108 14.78-.366 14.782-.41 14.781-.347 14.781-.515 14.782-.845 14.78-.781 14.782-.83 14.781-1.651 14.782-1.39 14.78-.787 14.782-1.386 14.781-2.358 14.781-1.95" fill="none" stroke="#2ca02c" stroke-linecap="square" stroke-width="1.5"/><g stroke="#d62728"><path clip-path="url(#Q)" d="M-1 505.947H203.25l14.782-.004h14.781l14.782-.026 14.78-.017 14.782-.015 14.781-.037 14.781-.023 14.782-.033 14.78-.463 14.782-.406 14.781-.437 14.781-.453 14.782-.537 14.78-.85 14.782-.902 14.781-.99 14.782-1.414 14.78-1.86 14.782-1.524 14.781-1.787 14.781-1.944" fill="none" stroke-linecap="square" stroke-width="1.5"/><g clip-path="url(#Q)" fill="#d62728"><use x="-1" xlink:href="#y" y="505.947"/><use x="11.095" xlink:href="#y" y="505.947"/><use x="25.876" xlink:href="#y" y="505.947"/><use x="40.658" xlink:href="#y" y="505.947"/><use x="55.439" xlink:href="#y" y="505.947"/><use x="70.22" xlink:href="#y" y="505.947"/><use x="85.001" xlink:href="#y" y="505.947"/><use x="99.782" xlink:href="#y" y="505.947"/><use x="114.564" xlink:href="#y" y="505.947"/><use x="129.345" xlink:href="#y" y="505.947"/><use x="144.126" xlink:href="#y" y="505.947"/><use x="158.907" xlink:href="#y" y="505.947"/><use x="173.688" xlink:href="#y" y="505.947"/><use x="188.47" xlink:href="#y" y="505.947"/><use x="203.251" xlink:href="#y" y="505.947"/><use x="218.032" xlink:href="#y" y="505.943"/><use x="232.813" xlink:href="#y" y="505.943"/><use x="247.595" xlink:href="#y" y="505.917"/><use x="262.376" xlink:href="#y" y="505.9"/><use x="277.157" xlink:href="#y" y="505.885"/><use x="291.938" xlink:href="#y" y="505.848"/><use x="306.719" xlink:href="#y" y="505.825"/><use x="321.501" xlink:href="#y" y="505.792"/><use x="336.282" xlink:href="#y" y="505.329"/><use x="351.063" xlink:href="#y" y="504.923"/><use x="365.844" xlink:href="#y" y="504.486"/><use x="380.625" xlink:href="#y" y="504.033"/><use x="395.407" xlink:href="#y" y="503.496"/><use x="410.188" xlink:href="#y" y="502.647"/><use x="424.969" xlink:href="#y" y="501.744"/><use x="439.75" xlink:href="#y" y="500.754"/><use x="454.532" xlink:href="#y" y="499.34"/><use x="469.313" xlink:href="#y" y="497.48"/><use x="484.094" xlink:href="#y" y="495.956"/><use x="498.875" xlink:href="#y" y="494.169"/><use x="513.656" xlink:href="#y" y="492.225"/></g></g><g stroke="#9467bd"><path clip-path="url(#Q)" d="M-1 505.945h26.876l14.782.002H85l14.781-.002H129.344l14.782-.01h14.781l14.781-.031h14.782l14.78-.127 14.782-.006 14.781-.024 14.782-.028 14.78-.028 14.782-.048 14.781-.062 14.781-.04 14.782-.001 14.78-.205 14.782-.157 14.781-.209 14.781-.218 14.782-.237 14.78-.709 14.782-1.259 14.781-1.061 14.782-1.517 14.78-1.88 14.782-1.295 14.781-1.471 14.781-1.558" fill="none" stroke-linecap="square" stroke-width="1.5"/><g clip-path="url(#Q)" fill="#9467bd"><use x="-1" xlink:href="#z" y="505.945"/><use x="11.095" xlink:href="#z" y="505.945"/><use x="25.876" xlink:href="#z" y="505.945"/><use x="40.658" xlink:href="#z" y="505.947"/><use x="55.439" xlink:href="#z" y="505.947"/><use x="70.22" xlink:href="#z" y="505.947"/><use x="85.001" xlink:href="#z" y="505.947"/><use x="99.782" xlink:href="#z" y="505.945"/><use x="114.564" xlink:href="#z" y="505.945"/><use x="129.345" xlink:href="#z" y="505.945"/><use x="144.126" xlink:href="#z" y="505.935"/><use x="158.907" xlink:href="#z" y="505.935"/><use x="173.688" xlink:href="#z" y="505.904"/><use x="188.47" xlink:href="#z" y="505.904"/><use x="203.251" xlink:href="#z" y="505.777"/><use x="218.032" xlink:href="#z" y="505.771"/><use x="232.813" xlink:href="#z" y="505.747"/><use x="247.595" xlink:href="#z" y="505.719"/><use x="262.376" xlink:href="#z" y="505.691"/><use x="277.157" xlink:href="#z" y="505.643"/><use x="291.938" xlink:href="#z" y="505.581"/><use x="306.719" xlink:href="#z" y="505.542"/><use x="321.501" xlink:href="#z" y="505.54"/><use x="336.282" xlink:href="#z" y="505.335"/><use x="351.063" xlink:href="#z" y="505.178"/><use x="365.844" xlink:href="#z" y="504.969"/><use x="380.625" xlink:href="#z" y="504.751"/><use x="395.407" xlink:href="#z" y="504.514"/><use x="410.188" xlink:href="#z" y="503.805"/><use x="424.969" xlink:href="#z" y="502.546"/><use x="439.75" xlink:href="#z" y="501.485"/><use x="454.532" xlink:href="#z" y="499.968"/><use x="469.313" xlink:href="#z" y="498.088"/><use x="484.094" xlink:href="#z" y="496.793"/><use x="498.875" xlink:href="#z" y="495.322"/><use x="513.656" xlink:href="#z" y="493.764"/></g></g><path clip-path="url(#Q)" d="M513.656 367.383l14.782-17.739 14.78-20.009L558 307.065" fill="none" stroke="#1f77b4" stroke-dasharray="1.5 2.475" stroke-width="1.5"/><path clip-path="url(#Q)" d="M513.656 471.57l14.782-6.226 14.78-7.354L558 449.305" fill="none" stroke="#ff7f0e" stroke-dasharray="1.5 2.475" stroke-width="1.5"/><path clip-path="url(#Q)" d="M513.656 490.955l14.782-2.613 14.78-3.07L558 481.67" fill="none" stroke="#2ca02c" stroke-dasharray="1.5 2.475" stroke-width="1.5"/><path clip-path="url(#Q)" d="M513.656 492.225l14.782-2.376 14.78-2.787 14.782-3.27" fill="none" stroke="#d62728" stroke-dasharray="1.5 2.475" stroke-width="1.5"/><path clip-path="url(#Q)" d="M513.656 493.764l14.782-1.895 14.78-2.189L558 487.15" fill="none" stroke="#9467bd" stroke-dasharray="1.5 2.475" stroke-width="1.5"/><path d="M70.22 505.928V297.12M558 505.928V297.12M70.22 505.928H558M70.22 297.12H558" fill="none" stroke="#000" stroke-linecap="square" stroke-linejoin="miter" stroke-width=".8"/><g><path d="M77.22 378.51h214.322q2 0 2-2v-72.39q0-2-2-2H77.22q-2 0-2 2v72.39q0 2 2 2z" fill="#fff" opacity=".8" stroke="#ccc" stroke-linejoin="miter"/><path d="M79.22 310.218h20" fill="none" stroke="#1f77b4" stroke-linecap="square" stroke-width="1.5"/><use fill="#1f77b4" stroke="#1f77b4" x="89.22" xlink:href="#w" y="310.218"/><g transform="matrix(.1 0 0 -.1 107.22 313.718)"><use xlink:href="#T"/><use x="74.805" xlink:href="#v"/><use x="136.328" xlink:href="#t"/><path d="M249.7 72.906h10.609l20.203-29.984 20.078 29.984h10.594L285.402 34.72V0h-9.906v34.719z"/><use x="310.783" xlink:href="#q"/><use x="371.965" xlink:href="#e"/><path d="M422.156 75.984h9.031V31.11L458 54.687h11.469l-29-25.578L470.703 0h-11.719l-27.796 26.703V0h-9.032z"/><use x="502.775" xlink:href="#J"/><use x="541.789" xlink:href="#s"/><use x="605.266" xlink:href="#q"/><use x="666.447" xlink:href="#K"/><use x="729.826" xlink:href="#L"/><use x="793.303" xlink:href="#r"/><use x="821.086" xlink:href="#v"/><use x="882.609" xlink:href="#F"/><use x="966.496" xlink:href="#u"/><use x="994.279" xlink:href="#M"/><use x="1089.445" xlink:href="#p"/><use x="1153.068" xlink:href="#N"/><use x="1184.855" xlink:href="#S"/><use x="1280.266" xlink:href="#s"/><use x="1343.742" xlink:href="#d"/><use x="1405.021" xlink:href="#O"/><use x="1464.201" xlink:href="#F"/><use x="1516.301" xlink:href="#P"/></g><path d="M79.22 324.897h20" fill="none" stroke="#ff7f0e" stroke-linecap="square" stroke-width="1.5"/><use fill="#ff7f0e" stroke="#ff7f0e" x="89.22" xlink:href="#x" y="324.897"/><g transform="matrix(.1 0 0 -.1 107.22 328.397)"><use xlink:href="#T"/><use x="74.805" xlink:href="#v"/><use x="136.328" xlink:href="#t"/><path d="M259.715 72.906h9.86V5.078q0-13.187-5-19.14-5-5.954-16.095-5.954h-3.75v8.297h3.079q6.53 0 9.218 3.672 2.688 3.656 2.688 13.125z"/><use x="279.395" xlink:href="#v"/><use x="340.918" xlink:href="#e"/><use x="382.031" xlink:href="#F"/><use x="434.131" xlink:href="#v"/><use x="495.654" xlink:href="#O"/><use x="586.621" xlink:href="#J"/><use x="625.635" xlink:href="#s"/><use x="689.111" xlink:href="#q"/><use x="750.293" xlink:href="#K"/><use x="813.672" xlink:href="#L"/><use x="877.148" xlink:href="#r"/><use x="904.932" xlink:href="#v"/><use x="966.455" xlink:href="#F"/><use x="1050.342" xlink:href="#u"/><use x="1078.125" xlink:href="#M"/><use x="1173.291" xlink:href="#R"/><use x="1236.914" xlink:href="#N"/><use x="1268.701" xlink:href="#f"/><use x="1364.111" xlink:href="#s"/><use x="1427.588" xlink:href="#d"/><use x="1488.867" xlink:href="#O"/><use x="1548.047" xlink:href="#F"/><use x="1600.146" xlink:href="#P"/></g><path d="M79.22 339.575h20" fill="none" stroke="#2ca02c" stroke-linecap="square" stroke-width="1.5"/><g transform="matrix(.1 0 0 -.1 107.22 343.075)"><use xlink:href="#C"/><use x="69.824" xlink:href="#d"/><use x="131.104" xlink:href="#r"/><use x="158.887" xlink:href="#u"/><use x="186.67" xlink:href="#G"/><use x="221.875" xlink:href="#q"/><use x="283.057" xlink:href="#e"/><use x="324.154" xlink:href="#M"/><use x="387.533" xlink:href="#u"/><use x="415.316" xlink:href="#d"/><use x="508.383" xlink:href="#J"/><use x="547.396" xlink:href="#s"/><use x="610.873" xlink:href="#q"/><use x="672.055" xlink:href="#K"/><use x="735.434" xlink:href="#L"/><use x="798.91" xlink:href="#r"/><use x="826.693" xlink:href="#v"/><use x="888.217" xlink:href="#F"/><use x="972.104" xlink:href="#u"/><use x="999.887" xlink:href="#M"/><use x="1095.053" xlink:href="#R"/><use x="1158.676" xlink:href="#N"/><use x="1190.463" xlink:href="#n"/><use x="1285.873" xlink:href="#s"/><use x="1349.35" xlink:href="#d"/><use x="1410.629" xlink:href="#O"/><use x="1469.809" xlink:href="#F"/><use x="1521.908" xlink:href="#P"/></g><path d="M79.22 354.253h20" fill="none" stroke="#d62728" stroke-linecap="square" stroke-width="1.5"/><use fill="#d62728" stroke="#d62728" x="89.22" xlink:href="#y" y="354.253"/><g transform="matrix(.1 0 0 -.1 107.22 357.753)"><use xlink:href="#c"/><use x="86.279" xlink:href="#u"/><use x="114.063" xlink:href="#A"/><use x="169.043" xlink:href="#U"/><use x="232.422" xlink:href="#u"/><path d="M305.611 27.984q0 9.766-4.03 15.125-4.017 5.375-11.298 5.375-7.219 0-11.25-5.375-4.031-5.359-4.031-15.125 0-9.718 4.031-15.093t11.25-5.375q7.281 0 11.297 5.375 4.031 5.375 4.031 15.093zm8.985-21.203q0-13.953-6.203-20.765-6.188-6.813-18.985-6.813-4.734 0-8.937.703-4.203.703-8.157 2.172v8.735q3.954-2.141 7.813-3.157 3.86-1.031 7.86-1.031 8.843 0 13.234 4.61 4.39 4.609 4.39 13.937v4.453q-2.78-4.844-7.125-7.234Q294.143 0 288.08 0q-10.047 0-16.203 7.656-6.156 7.672-6.156 20.328 0 12.688 6.156 20.344Q278.033 56 288.08 56q6.063 0 10.406-2.39 4.344-2.391 7.125-7.22v8.297h8.985z"/><use x="323.682" xlink:href="#d"/><use x="384.961" xlink:href="#M"/><use x="480.127" xlink:href="#J"/><use x="519.141" xlink:href="#s"/><use x="582.617" xlink:href="#q"/><use x="643.799" xlink:href="#K"/><use x="707.178" xlink:href="#L"/><use x="770.654" xlink:href="#r"/><use x="798.438" xlink:href="#v"/><use x="859.961" xlink:href="#F"/><use x="943.848" xlink:href="#u"/><use x="971.631" xlink:href="#M"/><use x="1066.797" xlink:href="#R"/><use x="1130.42" xlink:href="#N"/><use x="1162.207" xlink:href="#n"/><use x="1257.617" xlink:href="#s"/><use x="1321.094" xlink:href="#d"/><use x="1382.373" xlink:href="#O"/><use x="1441.553" xlink:href="#F"/><use x="1493.652" xlink:href="#P"/></g><path d="M79.22 368.93h20" fill="none" stroke="#9467bd" stroke-linecap="square" stroke-width="1.5"/><use fill="#9467bd" stroke="#9467bd" x="89.22" xlink:href="#z" y="368.931"/><g transform="matrix(.1 0 0 -.1 107.22 372.43)"><use xlink:href="#c"/><use x="86.279" xlink:href="#d"/><use x="147.559" xlink:href="#F"/><use x="199.658" xlink:href="#F"/><use x="251.758" xlink:href="#d"/><use x="313.037" xlink:href="#A"/><use x="368.018" xlink:href="#U"/><use x="431.396" xlink:href="#K"/><use x="494.775" xlink:href="#F"/><use x="546.875" xlink:href="#v"/><use x="608.398" xlink:href="#B"/><use x="647.607" xlink:href="#B"/><use x="686.816" xlink:href="#F"/><use x="770.703" xlink:href="#J"/><use x="809.717" xlink:href="#s"/><use x="873.193" xlink:href="#q"/><use x="934.375" xlink:href="#K"/><use x="997.754" xlink:href="#L"/><use x="1061.23" xlink:href="#r"/><use x="1089.014" xlink:href="#v"/><use x="1150.537" xlink:href="#F"/><use x="1234.424" xlink:href="#u"/><use x="1262.207" xlink:href="#M"/><use x="1357.373" xlink:href="#R"/><use x="1420.996" xlink:href="#N"/><use x="1452.783" xlink:href="#S"/><use x="1548.193" xlink:href="#s"/><use x="1611.67" xlink:href="#d"/><use x="1672.949" xlink:href="#O"/><use x="1732.129" xlink:href="#F"/><use x="1784.229" xlink:href="#P"/></g></g></g></svg>