<svg height="758.4" stroke-linejoin="round" viewBox="0 0 568.8 568.8" width="758.4" xmlns="http://www.w3.org/2000/svg" xmlns:xlink="http://www.w3.org/1999/xlink"><defs><path id="w" d="M9.422 54.688h8.984V0H9.422zm0 21.296h8.984v-11.39H9.422z" stroke-linejoin="round"/><path id="U" d="M9.813 72.906h13.28l32.329-60.984v60.984h9.562V0h-13.28L19.39 60.984V0H9.813z" stroke-linejoin="round"/><path id="b" d="M0 0v3.5" stroke="#000" stroke-linejoin="round" stroke-width=".8"/><path id="c" d="M9.813 72.906h14.703l18.593-49.61 18.703 49.61h14.704V0H66.89v64.016l-18.797-50h-9.907l-18.796 50V0H9.813z" stroke-linejoin="round"/><path id="d" d="M34.281 27.484q-10.89 0-15.093-2.484-4.204-2.484-4.204-8.5 0-4.781 3.157-7.594 3.156-2.797 8.562-2.797 7.485 0 12 5.297 4.516 5.297 4.516 14.078v2zm17.922 3.72V0H43.22v8.297Q40.14 3.328 35.547.953q-4.594-2.375-11.234-2.375-8.391 0-13.36 4.719Q6 8.016 6 15.922q0 9.219 6.172 13.906 6.187 4.688 18.437 4.688h12.61v.89q0 6.203-4.078 9.594-4.078 3.39-11.453 3.39-4.688 0-9.141-1.124-4.438-1.125-8.531-3.375v8.312q4.921 1.906 9.562 2.844 4.64.953 9.031.953 11.875 0 17.735-6.156 5.86-6.14 5.86-18.64z" stroke-linejoin="round"/><path id="e" d="M41.11 46.297q-1.516.875-3.297 1.281Q36.03 48 33.89 48q-7.625 0-11.703-4.953-4.079-4.953-4.079-14.234V0H9.08v54.688h9.03v-8.5q2.844 4.984 7.375 7.39Q30.031 56 36.531 56q.922 0 2.047-.125 1.125-.11 2.484-.36z" stroke-linejoin="round"/><path id="f" d="M19.188 8.297h34.421V0H7.33v8.297q5.609 5.812 15.296 15.594 9.703 9.797 12.188 12.64 4.734 5.313 6.609 9 1.89 3.688 1.89 7.25 0 5.813-4.078 9.469-4.078 3.672-10.625 3.672-4.64 0-9.797-1.61-5.14-1.609-11-4.89v9.969Q13.767 71.78 18.938 73q5.188 1.219 9.485 1.219 11.328 0 18.062-5.672 6.735-5.656 6.735-15.125 0-4.5-1.688-8.531-1.672-4.016-6.125-9.485-1.218-1.422-7.765-8.187-6.532-6.766-18.453-18.922z" stroke-linejoin="round"/><path id="g" d="M31.781 66.406q-7.61 0-11.453-7.5Q16.5 51.422 16.5 36.375q0-14.984 3.828-22.484 3.844-7.5 11.453-7.5 7.672 0 11.5 7.5 3.844 7.5 3.844 22.484 0 15.047-3.844 22.531-3.828 7.5-11.5 7.5zm0 7.813q12.266 0 18.735-9.703 6.468-9.688 6.468-28.141 0-18.406-6.468-28.11-6.47-9.687-18.735-9.687-12.25 0-18.718 9.688-6.47 9.703-6.47 28.109 0 18.453 6.47 28.14Q19.53 74.22 31.78 74.22z" stroke-linejoin="round"/><path id="h" d="M34.188 63.188L20.797 26.906h26.812zm-5.579 9.718h11.188L67.578 0h-10.25l-6.64 18.703h-32.86L11.188 0H.78z" stroke-linejoin="round"/><path id="i" d="M18.11 8.203v-29H9.077v75.484h9.031v-8.296q2.844 4.875 7.157 7.234Q29.594 56 35.594 56q9.968 0 16.187-7.906 6.235-7.907 6.235-20.797T51.78 6.484q-6.218-7.906-16.187-7.906-6 0-10.328 2.375-4.313 2.375-7.157 7.25zm30.578 19.094q0 9.906-4.079 15.547-4.078 5.64-11.203 5.64-7.14 0-11.218-5.64-4.079-5.64-4.079-15.547 0-9.906 4.078-15.547 4.079-5.64 11.22-5.64 7.124 0 11.202 5.64t4.078 15.547z" stroke-linejoin="round"/><path id="j" d="M0 0v2" stroke="#000" stroke-linejoin="round" stroke-width=".6"/><path id="k" d="M10.984 1.516V10.5q3.72-1.766 7.516-2.688 3.813-.921 7.484-.921 9.766 0 14.907 6.562 5.156 6.563 5.89 19.953-2.828-4.203-7.187-6.453-4.344-2.25-9.61-2.25-10.937 0-17.312 6.61-6.375 6.625-6.375 18.109 0 11.219 6.64 18 6.641 6.797 17.672 6.797 12.657 0 19.313-9.703 6.672-9.688 6.672-28.141 0-17.234-8.188-27.516Q40.234-1.42 26.422-1.42q-3.719 0-7.531.734-3.797.734-7.907 2.203zM30.61 32.422q6.641 0 10.516 4.531 3.89 4.547 3.89 12.469 0 7.86-3.89 12.422-3.875 4.562-10.516 4.562-6.64 0-10.515-4.562-3.875-4.563-3.875-12.422 0-7.922 3.875-12.469 3.875-4.531 10.515-4.531z" stroke-linejoin="round"/><path id="l" d="M12.406 8.297h16.11v55.625l-17.532-3.516v8.985l17.438 3.515h9.86V8.296H54.39V0H12.406z" stroke-linejoin="round"/><path id="m" d="M33.016 40.375q-6.641 0-10.532-4.547-3.875-4.531-3.875-12.437 0-7.86 3.875-12.438 3.891-4.562 10.532-4.562 6.64 0 10.515 4.562 3.875 4.578 3.875 12.438 0 7.906-3.875 12.437-3.875 4.547-10.515 4.547zm19.578 30.922v-8.984q-3.719 1.75-7.5 2.671-3.782.938-7.5.938-9.766 0-14.922-6.594-5.14-6.594-5.875-19.922 2.875 4.25 7.219 6.516 4.359 2.266 9.578 2.266 10.984 0 17.36-6.672 6.374-6.657 6.374-18.125 0-11.235-6.64-18.032-6.641-6.78-17.672-6.78-12.657 0-19.344 9.687-6.688 9.703-6.688 28.109 0 17.281 8.204 27.563 8.203 10.28 22.015 10.28 3.719 0 7.5-.734t7.89-2.187z" stroke-linejoin="round"/><path id="n" d="M40.578 39.313Q47.656 37.797 51.625 33q3.984-4.781 3.984-11.813 0-10.78-7.422-16.703-7.421-5.906-21.093-5.906-4.578 0-9.438.906-4.86.907-10.031 2.72v9.515q4.094-2.39 8.969-3.61 4.89-1.218 10.218-1.218 9.266 0 14.125 3.656 4.86 3.656 4.86 10.64 0 6.454-4.516 10.079-4.515 3.64-12.562 3.64h-8.5v8.11h8.89q7.266 0 11.125 2.906 3.86 2.906 3.86 8.375 0 5.61-3.985 8.61-3.968 3.015-11.39 3.015-4.063 0-8.703-.89-4.641-.876-10.203-2.72v8.782q5.624 1.562 10.53 2.344 4.907.78 9.25.78 11.235 0 17.766-5.109 6.547-5.093 6.547-13.78 0-6.063-3.468-10.235-3.47-4.172-9.86-5.782z" stroke-linejoin="round"/><path id="o" d="M0 0h-3.5" stroke="#000" stroke-linejoin="round" stroke-width=".8"/><path id="p" d="M37.797 64.313L12.89 25.39h24.906zm-2.594 8.593H47.61V25.391h10.407v-8.203H47.609V0h-9.812v17.188H4.89v9.515z" stroke-linejoin="round"/><path id="q" d="M10.797 72.906h38.719v-8.312H19.828v-17.86q2.14.735 4.281 1.094 2.157.36 4.313.36 12.203 0 19.328-6.688 7.14-6.688 7.14-18.11 0-11.765-7.328-18.296-7.328-6.516-20.656-6.516-4.593 0-9.36.781-4.75.782-9.827 2.344v9.922q4.39-2.39 9.078-3.563 4.687-1.171 9.906-1.171 8.453 0 13.375 4.437 4.938 4.438 4.938 12.063 0 7.609-4.938 12.047-4.922 4.453-13.375 4.453-3.953 0-7.89-.875-3.922-.875-8.016-2.735z" stroke-linejoin="round"/><path id="r" d="M31.781 34.625q-7.031 0-11.062-3.766-4.016-3.765-4.016-10.343 0-6.594 4.016-10.36Q24.75 6.391 31.78 6.391q7.032 0 11.078 3.78 4.063 3.798 4.063 10.345 0 6.578-4.031 10.343-4.016 3.766-11.11 3.766zm-9.86 4.188q-6.343 1.562-9.89 5.906Q8.5 49.079 8.5 55.329q0 8.733 6.219 13.812 6.234 5.078 17.062 5.078 10.89 0 17.094-5.078 6.203-5.079 6.203-13.813 0-6.25-3.547-10.61-3.531-4.343-9.828-5.906 7.125-1.656 11.094-6.5 3.984-4.828 3.984-11.796 0-10.61-6.468-16.282-6.47-5.656-18.532-5.656-12.047 0-18.531 5.656-6.469 5.672-6.469 16.282 0 6.968 4 11.797 4.016 4.843 11.14 6.5zM18.314 54.39q0-5.657 3.53-8.828 3.548-3.172 9.938-3.172 6.36 0 9.938 3.172 3.593 3.171 3.593 8.828 0 5.672-3.593 8.843-3.578 3.172-9.938 3.172-6.39 0-9.937-3.172-3.532-3.172-3.532-8.843z" stroke-linejoin="round"/><path id="s" d="M30.61 48.39q-7.22 0-11.422-5.64-4.204-5.64-4.204-15.453 0-9.813 4.172-15.453 4.188-5.64 11.453-5.64 7.188 0 11.375 5.655 4.203 5.672 4.203 15.438 0 9.719-4.203 15.406-4.187 5.688-11.375 5.688zm0 7.61q11.718 0 18.406-7.625 6.703-7.61 6.703-21.078 0-13.422-6.703-21.078-6.688-7.64-18.407-7.64-11.765 0-18.437 7.64-6.656 7.656-6.656 21.078 0 13.469 6.656 21.078Q18.844 56 30.609 56z" stroke-linejoin="round"/><path id="t" d="M9.422 75.984h8.984V0H9.422z" stroke-linejoin="round"/><path id="u" d="M45.406 46.39v29.594h8.985V0h-8.985v8.203Q42.578 3.328 38.25.953q-4.313-2.375-10.375-2.375-9.906 0-16.14 7.906-6.22 7.922-6.22 20.813 0 12.89 6.22 20.797Q17.968 56 27.874 56q6.063 0 10.375-2.375 4.328-2.36 7.156-7.234zm-30.61-19.093q0-9.906 4.079-15.547 4.078-5.64 11.203-5.64 7.125 0 11.219 5.64 4.11 5.64 4.11 15.547 0 9.906-4.11 15.547-4.094 5.64-11.219 5.64-7.125 0-11.203-5.64-4.078-5.64-4.078-15.547z" stroke-linejoin="round"/><path id="v" d="M4.203 54.688h8.985l11.234-42.672 11.172 42.672h10.593l11.235-42.672 11.187 42.672h8.985L63.28 0H52.688L40.922 44.828 29.109 0H18.5z" stroke-linejoin="round"/><path id="S" d="M8.016 75.875h7.812q7.313-11.516 10.953-22.563 3.64-11.03 3.64-21.921 0-10.938-3.64-22.016-3.64-11.078-10.953-22.563H8.016Q14.5-2 17.703 9.063q3.203 11.063 3.203 22.329 0 11.28-3.203 22.265-3.203 11-9.687 22.219z" stroke-linejoin="round"/><path id="x" d="M56.203 29.594v-4.39H14.891q.593-9.282 5.593-14.142 5-4.859 13.938-4.859 5.172 0 10.031 1.266 4.86 1.265 9.656 3.812v-8.5Q49.266.734 44.187-.344 39.11-1.422 33.892-1.422q-13.094 0-20.735 7.61-7.64 7.625-7.64 20.625 0 13.421 7.25 21.296Q20.016 56 32.328 56q11.031 0 17.453-7.11 6.422-7.093 6.422-19.296zm-8.984 2.64q-.094 7.36-4.125 11.75-4.032 4.407-10.672 4.407-7.516 0-12.031-4.25-4.516-4.25-5.203-11.97z" stroke-linejoin="round"/><path id="y" d="M-3 0h6M0 3v-6" stroke="#1f77b4" stroke-linejoin="round"/><path id="z" d="M0 1.5a1.5 1.5 0 100-3 1.5 1.5 0 000 3z" stroke="#ff7f0e" stroke-linejoin="round"/><path id="A" d="M-3 0h6M0 3v-6" stroke="#d62728" stroke-linejoin="round"/><path id="B" d="M0 1.5a1.5 1.5 0 100-3 1.5 1.5 0 000 3z" stroke="#9467bd" stroke-linejoin="round"/><path id="C" d="M48.781 52.594v-8.407q-3.812 2.11-7.64 3.157-3.828 1.047-7.735 1.047-8.75 0-13.593-5.547-4.829-5.532-4.829-15.547 0-10.016 4.829-15.563 4.843-5.53 13.593-5.53 3.907 0 7.735 1.046 3.828 1.047 7.64 3.156V2.094Q45.016.344 40.984-.531q-4.015-.89-8.562-.89-12.36 0-19.64 7.765-7.266 7.765-7.266 20.953 0 13.375 7.343 21.031Q20.22 56 33.016 56q4.14 0 8.093-.86 3.953-.843 7.672-2.546z" stroke-linejoin="round"/><path id="D" d="M18.313 70.219V54.688h18.5v-6.985h-18.5V18.016q0-6.688 1.828-8.594 1.828-1.906 7.453-1.906h9.218V0h-9.218q-10.407 0-14.36 3.875-3.953 3.89-3.953 14.14v29.688H2.687v6.984h6.594V70.22z" stroke-linejoin="round"/><path id="E" d="M2.984 54.688H12.5L29.594 8.797l17.093 45.89h9.516L35.687 0H23.485z" stroke-linejoin="round"/><path id="F" d="M64.406 67.281v-10.39q-4.984 4.64-10.625 6.922-5.64 2.296-11.984 2.296-12.5 0-19.14-7.64-6.641-7.64-6.641-22.094 0-14.406 6.64-22.047 6.64-7.64 19.14-7.64 6.345 0 11.985 2.296 5.64 2.297 10.625 6.938V5.609Q59.234 2.094 53.437.33q-5.78-1.75-12.218-1.75-16.563 0-26.094 10.124-9.516 10.14-9.516 27.672 0 17.578 9.516 27.703 9.531 10.14 26.094 10.14 6.531 0 12.312-1.734 5.797-1.734 10.875-5.203z" stroke-linejoin="round"/><path id="G" d="M9.813 72.906h9.859V0h-9.86z" stroke-linejoin="round"/><path id="H" d="M4.89 31.39h26.313v-8H4.891z" stroke-linejoin="round"/><path id="I" d="M44.281 53.078v-8.5q-3.797 1.953-7.906 2.922-4.094.984-8.5.984-6.688 0-10.031-2.047-3.344-2.046-3.344-6.156 0-3.125 2.39-4.906 2.391-1.781 9.626-3.39l3.078-.688q9.562-2.047 13.593-5.781 4.032-3.735 4.032-10.422 0-7.625-6.032-12.078-6.03-4.438-16.578-4.438-4.39 0-9.156.86Q10.688.296 5.422 2v9.281q4.984-2.594 9.812-3.89 4.829-1.282 9.579-1.282 6.343 0 9.75 2.172 3.421 2.172 3.421 6.125 0 3.656-2.468 5.61-2.453 1.953-10.813 3.765l-3.125.735q-8.344 1.75-12.062 5.39-3.704 3.64-3.704 9.985 0 7.718 5.47 11.906Q16.75 56 26.811 56q4.97 0 9.36-.734 4.406-.72 8.11-2.188z" stroke-linejoin="round"/><path id="J" d="M37.11 75.984V68.5h-8.594q-4.828 0-6.72-1.953-1.874-1.953-1.874-7.031v-4.828h14.797v-6.985H19.922V0H10.89v47.703H2.297v6.984h8.594V58.5q0 9.125 4.25 13.297 4.25 4.187 13.468 4.187z" stroke-linejoin="round"/><path id="K" d="M8.688 72.906h9.921V28.61q0-11.718 4.235-16.875 4.25-5.14 13.781-5.14 9.469 0 13.719 5.14 4.25 5.157 4.25 16.875v44.297H64.5V27.391q0-14.25-7.063-21.532-7.046-7.28-20.812-7.28-13.828 0-20.89 7.28-7.047 7.282-7.047 21.532z" stroke-linejoin="round"/><path id="L" d="M53.516 70.516V60.89q-5.61 2.687-10.594 4-4.984 1.328-9.625 1.328-8.047 0-12.422-3.125t-4.375-8.89q0-4.845 2.906-7.313 2.907-2.453 11.016-3.97l5.953-1.218q11.031-2.11 16.281-7.406 5.25-5.297 5.25-14.172 0-10.61-7.11-16.078-7.093-5.469-20.812-5.469-5.172 0-11.015 1.172Q13.14.922 6.89 3.219v10.156q6-3.36 11.765-5.078 5.766-1.703 11.328-1.703 8.438 0 13.032 3.312 4.593 3.328 4.593 9.485 0 5.359-3.297 8.39-3.296 3.032-10.812 4.547L27.484 33.5q-11.03 2.188-15.968 6.875-4.922 4.688-4.922 13.047 0 9.672 6.812 15.234 6.813 5.563 18.766 5.563 5.14 0 10.453-.938 5.328-.922 10.89-2.765z" stroke-linejoin="round"/><path id="M" d="M31 75.875q-6.531-11.219-9.719-22.219-3.172-10.984-3.172-22.265 0-11.266 3.203-22.328Q24.517-2 31-13.188h-7.813Q15.875-1.704 12.235 9.375q-3.64 11.078-3.64 22.016 0 10.89 3.61 21.922 3.624 11.046 10.983 22.562z" stroke-linejoin="round"/><path id="N" d="M8.5 21.578v33.11h8.984V21.922q0-7.766 3.016-11.656 3.031-3.875 9.094-3.875 7.265 0 11.484 4.64 4.234 4.64 4.234 12.656v31h8.985V0h-8.984v8.406Q42.047 3.422 37.718 1q-4.313-2.422-10.032-2.422-9.421 0-14.312 5.86Q8.5 10.296 8.5 21.578z" stroke-linejoin="round"/><path id="O" d="M48.688 27.297q0 9.906-4.079 15.547-4.078 5.64-11.203 5.64-7.14 0-11.218-5.64-4.079-5.64-4.079-15.547 0-9.906 4.078-15.547 4.079-5.64 11.22-5.64 7.124 0 11.202 5.64t4.078 15.547zM18.108 46.39q2.844 4.875 7.157 7.234Q29.594 56 35.594 56q9.968 0 16.187-7.906 6.235-7.907 6.235-20.797T51.78 6.484q-6.218-7.906-16.187-7.906-6 0-10.328 2.375-4.313 2.375-7.157 7.25V0H9.08v75.984h9.03z" stroke-linejoin="round"/><path id="P" d="M54.89 33.016V0h-8.984v32.719q0 7.765-3.031 11.61-3.031 3.858-9.078 3.858-7.281 0-11.484-4.64-4.204-4.625-4.204-12.64V0H9.08v54.688h9.03v-8.5q3.235 4.937 7.594 7.374Q30.078 56 35.797 56q9.422 0 14.25-5.828 4.844-5.828 4.844-17.156z" stroke-linejoin="round"/><path id="Q" d="M10.688 12.406H21V0H10.687z" stroke-linejoin="round"/><path id="R" d="M32.172-5.078q-3.797-9.766-7.422-12.735-3.61-2.984-9.656-2.984H7.906v7.516h5.282q3.703 0 5.75 1.765Q21-9.766 23.483-3.219l1.61 4.094-22.11 53.813H12.5l17.094-42.766 17.093 42.766h9.516z" stroke-linejoin="round"/><clipPath id="T" stroke-linejoin="round"><path d="M70.22 297.12H558v208.808H70.22z"/></clipPath><clipPath id="a" stroke-linejoin="round"><path d="M70.22 25.44H558v208.808H70.22z"/></clipPath></defs><path d="M0 568.8h568.8V0H0z" fill="#fff"/><path d="M70.22 234.248H558V25.44H70.22z" fill="#fff"/><path clip-path="url(#a)" d="M70.22 234.248V25.44" fill="none" stroke="#b0b0b0" stroke-linecap="square" stroke-width=".8"/><use stroke="#000" stroke-width=".8" x="70.22" xlink:href="#b" y="234.248"/><g transform="matrix(.1 0 0 -.1 60.786 271.242)"><use xlink:href="#c"/><use x="86.279" xlink:href="#d"/><use x="147.559" xlink:href="#e"/></g><g transform="matrix(.1 0 0 -.1 57.495 282.44)"><use xlink:href="#f"/><use x="63.623" xlink:href="#g"/><use x="127.246" xlink:href="#f"/><use x="190.869" xlink:href="#g"/></g><path clip-path="url(#a)" d="M345.15 234.248V25.44" fill="none" stroke="#b0b0b0" stroke-linecap="square" stroke-width=".8"/><use stroke="#000" stroke-width=".8" x="345.151" xlink:href="#b" y="234.248"/><g transform="matrix(.1 0 0 -.1 336.5 271.242)"><use xlink:href="#h"/><use x="68.408" xlink:href="#i"/><use x="131.885" xlink:href="#e"/></g><g stroke-width=".8"><path clip-path="url(#a)" d="M558 234.248V25.44" fill="none" stroke="#b0b0b0" stroke-linecap="square"/><use stroke="#000" x="558" xlink:href="#b" y="234.248"/></g><use stroke="#000" stroke-width=".6" x="79.089" xlink:href="#j" y="234.248"/><g transform="matrix(.1 0 0 -.1 72.726 247.246)"><use xlink:href="#g"/><use x="63.623" xlink:href="#f"/></g><g stroke="#000" stroke-width=".6"><use x="87.957" xlink:href="#j" y="234.248"/><use x="96.826" xlink:href="#j" y="234.248"/><use x="105.695" xlink:href="#j" y="234.248"/><use x="114.564" xlink:href="#j" y="234.248"/><use x="123.432" xlink:href="#j" y="234.248"/><use x="132.301" xlink:href="#j" y="234.248"/></g><use stroke="#000" stroke-width=".6" x="141.17" xlink:href="#j" y="234.248"/><g transform="matrix(.1 0 0 -.1 134.807 247.246)"><use xlink:href="#g"/><use x="63.623" xlink:href="#k"/></g><use stroke="#000" stroke-width=".6" x="150.039" xlink:href="#j" y="234.248"/><use stroke="#000" stroke-width=".6" x="158.907" xlink:href="#j" y="234.248"/><use stroke="#000" stroke-width=".6" x="167.776" xlink:href="#j" y="234.248"/><use stroke="#000" stroke-width=".6" x="176.645" xlink:href="#j" y="234.248"/><use stroke="#000" stroke-width=".6" x="185.513" xlink:href="#j" y="234.248"/><use stroke="#000" stroke-width=".6" x="194.382" xlink:href="#j" y="234.248"/><use stroke="#000" stroke-width=".6" x="203.251" xlink:href="#j" y="234.248"/><g transform="matrix(.1 0 0 -.1 196.888 247.246)"><use xlink:href="#l"/><use x="63.623" xlink:href="#m"/></g><use stroke="#000" stroke-width=".6" x="212.12" xlink:href="#j" y="234.248"/><use stroke="#000" stroke-width=".6" x="220.988" xlink:href="#j" y="234.248"/><use stroke="#000" stroke-width=".6" x="229.857" xlink:href="#j" y="234.248"/><use stroke="#000" stroke-width=".6" x="238.726" xlink:href="#j" y="234.248"/><use stroke="#000" stroke-width=".6" x="247.595" xlink:href="#j" y="234.248"/><use stroke="#000" stroke-width=".6" x="256.463" xlink:href="#j" y="234.248"/><use stroke="#000" stroke-width=".6" x="265.332" xlink:href="#j" y="234.248"/><g transform="matrix(.1 0 0 -.1 258.97 247.246)"><use xlink:href="#f"/><use x="63.623" xlink:href="#n"/></g><use stroke="#000" stroke-width=".6" x="274.201" xlink:href="#j" y="234.248"/><use stroke="#000" stroke-width=".6" x="283.069" xlink:href="#j" y="234.248"/><use stroke="#000" stroke-width=".6" x="291.938" xlink:href="#j" y="234.248"/><use stroke="#000" stroke-width=".6" x="300.807" xlink:href="#j" y="234.248"/><use stroke="#000" stroke-width=".6" x="309.676" xlink:href="#j" y="234.248"/><use stroke="#000" stroke-width=".6" x="318.544" xlink:href="#j" y="234.248"/><use stroke="#000" stroke-width=".6" x="327.413" xlink:href="#j" y="234.248"/><g transform="matrix(.1 0 0 -.1 321.05 247.246)"><use xlink:href="#n"/><use x="63.623" xlink:href="#g"/></g><use stroke="#000" stroke-width=".6" x="336.282" xlink:href="#j" y="234.248"/><use stroke="#000" stroke-width=".6" x="354.019" xlink:href="#j" y="234.248"/><use stroke="#000" stroke-width=".6" x="362.888" xlink:href="#j" y="234.248"/><use stroke="#000" stroke-width=".6" x="371.757" xlink:href="#j" y="234.248"/><use stroke="#000" stroke-width=".6" x="380.625" xlink:href="#j" y="234.248"/><use stroke="#000" stroke-width=".6" x="389.494" xlink:href="#j" y="234.248"/><g transform="matrix(.1 0 0 -.1 383.132 247.246)"><use xlink:href="#g"/><use x="63.623" xlink:href="#m"/></g><use stroke="#000" stroke-width=".6" x="398.363" xlink:href="#j" y="234.248"/><use stroke="#000" stroke-width=".6" x="407.232" xlink:href="#j" y="234.248"/><use stroke="#000" stroke-width=".6" x="416.1" xlink:href="#j" y="234.248"/><use stroke="#000" stroke-width=".6" x="424.969" xlink:href="#j" y="234.248"/><use stroke="#000" stroke-width=".6" x="433.838" xlink:href="#j" y="234.248"/><use stroke="#000" stroke-width=".6" x="442.707" xlink:href="#j" y="234.248"/><use stroke="#000" stroke-width=".6" x="451.575" xlink:href="#j" y="234.248"/><g transform="matrix(.1 0 0 -.1 445.213 247.246)"><use xlink:href="#l"/><use x="63.623" xlink:href="#n"/></g><use stroke="#000" stroke-width=".6" x="460.444" xlink:href="#j" y="234.248"/><use stroke="#000" stroke-width=".6" x="469.313" xlink:href="#j" y="234.248"/><use stroke="#000" stroke-width=".6" x="478.181" xlink:href="#j" y="234.248"/><use stroke="#000" stroke-width=".6" x="487.05" xlink:href="#j" y="234.248"/><use stroke="#000" stroke-width=".6" x="495.919" xlink:href="#j" y="234.248"/><use stroke="#000" stroke-width=".6" x="504.788" xlink:href="#j" y="234.248"/><g><use stroke="#000" stroke-width=".6" x="513.656" xlink:href="#j" y="234.248"/><g transform="matrix(.1 0 0 -.1 507.294 247.246)"><use xlink:href="#f"/><use x="63.623" xlink:href="#g"/></g></g><use stroke="#000" stroke-width=".6" x="522.525" xlink:href="#j" y="234.248"/><use stroke="#000" stroke-width=".6" x="531.394" xlink:href="#j" y="234.248"/><use stroke="#000" stroke-width=".6" x="540.263" xlink:href="#j" y="234.248"/><use stroke="#000" stroke-width=".6" x="549.131" xlink:href="#j" y="234.248"/><g><path clip-path="url(#a)" d="M70.22 209.091H558" fill="none" stroke="#b0b0b0" stroke-linecap="square" stroke-width=".8"/><use stroke="#000" stroke-width=".8" x="70.22" xlink:href="#o" y="209.091"/><g transform="matrix(.1 0 0 -.1 25.045 212.89)"><use xlink:href="#l"/><use x="63.623" xlink:href="#g"/><use x="127.246" xlink:href="#g"/><use x="190.869" xlink:href="#g"/><use x="254.492" xlink:href="#g"/><use x="318.115" xlink:href="#g"/></g><path clip-path="url(#a)" d="M70.22 183.932H558" fill="none" stroke="#b0b0b0" stroke-linecap="square" stroke-width=".8"/><use stroke="#000" stroke-width=".8" x="70.22" xlink:href="#o" y="183.932"/><g transform="matrix(.1 0 0 -.1 25.045 187.73)"><use xlink:href="#f"/><use x="63.623" xlink:href="#g"/><use x="127.246" xlink:href="#g"/><use x="190.869" xlink:href="#g"/><use x="254.492" xlink:href="#g"/><use x="318.115" xlink:href="#g"/></g><path clip-path="url(#a)" d="M70.22 158.772H558" fill="none" stroke="#b0b0b0" stroke-linecap="square" stroke-width=".8"/><use stroke="#000" stroke-width=".8" x="70.22" xlink:href="#o" y="158.772"/><g transform="matrix(.1 0 0 -.1 25.045 162.571)"><use xlink:href="#n"/><use x="63.623" xlink:href="#g"/><use x="127.246" xlink:href="#g"/><use x="190.869" xlink:href="#g"/><use x="254.492" xlink:href="#g"/><use x="318.115" xlink:href="#g"/></g><g><path clip-path="url(#a)" d="M70.22 133.613H558" fill="none" stroke="#b0b0b0" stroke-linecap="square" stroke-width=".8"/><use stroke="#000" stroke-width=".8" x="70.22" xlink:href="#o" y="133.613"/><g transform="matrix(.1 0 0 -.1 25.045 137.412)"><use xlink:href="#p"/><use x="63.623" xlink:href="#g"/><use x="127.246" xlink:href="#g"/><use x="190.869" xlink:href="#g"/><use x="254.492" xlink:href="#g"/><use x="318.115" xlink:href="#g"/></g></g><g><path clip-path="url(#a)" d="M70.22 108.453H558" fill="none" stroke="#b0b0b0" stroke-linecap="square" stroke-width=".8"/><use stroke="#000" stroke-width=".8" x="70.22" xlink:href="#o" y="108.453"/><g transform="matrix(.1 0 0 -.1 25.045 112.253)"><use xlink:href="#q"/><use x="63.623" xlink:href="#g"/><use x="127.246" xlink:href="#g"/><use x="190.869" xlink:href="#g"/><use x="254.492" xlink:href="#g"/><use x="318.115" xlink:href="#g"/></g></g><g><path clip-path="url(#a)" d="M70.22 83.294H558" fill="none" stroke="#b0b0b0" stroke-linecap="square" stroke-width=".8"/><use stroke="#000" stroke-width=".8" x="70.22" xlink:href="#o" y="83.294"/><g transform="matrix(.1 0 0 -.1 25.045 87.093)"><use xlink:href="#m"/><use x="63.623" xlink:href="#g"/><use x="127.246" xlink:href="#g"/><use x="190.869" xlink:href="#g"/><use x="254.492" xlink:href="#g"/><use x="318.115" xlink:href="#g"/></g></g><g><path clip-path="url(#a)" d="M70.22 58.134H558" fill="none" stroke="#b0b0b0" stroke-linecap="square" stroke-width=".8"/><use stroke="#000" stroke-width=".8" x="70.22" xlink:href="#o" y="58.134"/><g transform="matrix(.1 0 0 -.1 25.045 61.934)"><path d="M8.203 72.906h46.875v-4.203L28.61 0H18.312L43.22 64.594H8.203z"/><use x="63.623" xlink:href="#g"/><use x="127.246" xlink:href="#g"/><use x="190.869" xlink:href="#g"/><use x="254.492" xlink:href="#g"/><use x="318.115" xlink:href="#g"/></g></g><g><path clip-path="url(#a)" d="M70.22 32.975H558" fill="none" stroke="#b0b0b0" stroke-linecap="square" stroke-width=".8"/><use stroke="#000" stroke-width=".8" x="70.22" xlink:href="#o" y="32.975"/><g transform="matrix(.1 0 0 -.1 25.045 36.774)"><use xlink:href="#r"/><use x="63.623" xlink:href="#g"/><use x="127.246" xlink:href="#g"/><use x="190.869" xlink:href="#g"/><use x="254.492" xlink:href="#g"/><use x="318.115" xlink:href="#g"/></g></g><g transform="matrix(0 -.1 -.1 0 18.965 156.19)"><path d="M3.328 72.906h9.953L28.61 11.281l15.282 61.625h11.093l15.328-61.625 15.282 61.625h10.015L77.297 0H64.89L49.516 63.281 33.984 0H21.578z"/><use x="98.799" xlink:href="#s"/><use x="159.98" xlink:href="#e"/><use x="201.094" xlink:href="#t"/><use x="228.877" xlink:href="#u"/><use x="292.354" xlink:href="#v"/><use x="374.141" xlink:href="#w"/><use x="401.924" xlink:href="#u"/><use x="465.4" xlink:href="#x"/></g></g><g stroke="#1f77b4"><path clip-path="url(#a)" d="M-1 234.243h9.139l8.869-.005h17.738l8.868-.001h8.869l8.868-.002 8.869-.002 8.869-.005 8.868-.004 8.87-.007 8.868-.017 8.869-.014 8.868-.034 8.87-.03 8.868-.016 8.869-.088 8.868-.079 8.869-.094 8.869-.128 8.868-.136 8.87-.192 8.868-.278 8.869-.445 8.868-.318 8.87-1.462 8.868-1.343 8.869-1.591 8.868-2.11 8.869-2.438 8.869-2.408 8.868-2.967 8.87-4.396 8.868-4.342 8.869-4.82 8.868-4.381 8.87-4.386 8.868-6.055 8.869-5.753 8.868-7.178 8.869-7.578 8.869-6.794 8.868-6.091 8.87-6.616 8.868-6.4 8.869-7.311 8.868-7.234 8.87-7.45 8.868-6.416 8.869-6.452 8.868-3.347 8.869-5.149 8.869-5.498 8.868-6.102 8.87-6.09 8.868-6.115 8.869-4.88 8.868-5.488 8.87-5.657 8.868-5.872" fill="none" stroke-linecap="square" stroke-width="1.5"/><g clip-path="url(#a)" fill="#1f77b4"><use x="-1" xlink:href="#y" y="234.243"/><use x="-.73" xlink:href="#y" y="234.243"/><use x="8.139" xlink:href="#y" y="234.243"/><use x="17.008" xlink:href="#y" y="234.238"/><use x="25.876" xlink:href="#y" y="234.239"/><use x="34.745" xlink:href="#y" y="234.237"/><use x="43.614" xlink:href="#y" y="234.237"/><use x="52.483" xlink:href="#y" y="234.237"/><use x="61.351" xlink:href="#y" y="234.235"/><use x="70.22" xlink:href="#y" y="234.233"/><use x="79.089" xlink:href="#y" y="234.228"/><use x="87.957" xlink:href="#y" y="234.224"/><use x="96.826" xlink:href="#y" y="234.217"/><use x="105.695" xlink:href="#y" y="234.2"/><use x="114.564" xlink:href="#y" y="234.186"/><use x="123.432" xlink:href="#y" y="234.152"/><use x="132.301" xlink:href="#y" y="234.123"/><use x="141.17" xlink:href="#y" y="234.106"/><use x="150.039" xlink:href="#y" y="234.018"/><use x="158.907" xlink:href="#y" y="233.939"/><use x="167.776" xlink:href="#y" y="233.845"/><use x="176.645" xlink:href="#y" y="233.717"/><use x="185.513" xlink:href="#y" y="233.581"/><use x="194.382" xlink:href="#y" y="233.389"/><use x="203.251" xlink:href="#y" y="233.111"/><use x="212.12" xlink:href="#y" y="232.666"/><use x="220.988" xlink:href="#y" y="232.348"/><use x="229.857" xlink:href="#y" y="230.886"/><use x="238.726" xlink:href="#y" y="229.543"/><use x="247.595" xlink:href="#y" y="227.952"/><use x="256.463" xlink:href="#y" y="225.842"/><use x="265.332" xlink:href="#y" y="223.404"/><use x="274.201" xlink:href="#y" y="220.996"/><use x="283.069" xlink:href="#y" y="218.029"/><use x="291.938" xlink:href="#y" y="213.633"/><use x="300.807" xlink:href="#y" y="209.291"/><use x="309.676" xlink:href="#y" y="204.47"/><use x="318.544" xlink:href="#y" y="200.09"/><use x="327.413" xlink:href="#y" y="195.704"/><use x="336.282" xlink:href="#y" y="189.649"/><use x="345.151" xlink:href="#y" y="183.896"/><use x="354.019" xlink:href="#y" y="176.718"/><use x="362.888" xlink:href="#y" y="169.14"/><use x="371.757" xlink:href="#y" y="162.346"/><use x="380.625" xlink:href="#y" y="156.255"/><use x="389.494" xlink:href="#y" y="149.639"/><use x="398.363" xlink:href="#y" y="143.239"/><use x="407.232" xlink:href="#y" y="135.928"/><use x="416.1" xlink:href="#y" y="128.694"/><use x="424.969" xlink:href="#y" y="121.245"/><use x="433.838" xlink:href="#y" y="114.828"/><use x="442.707" xlink:href="#y" y="108.376"/><use x="451.575" xlink:href="#y" y="105.029"/><use x="460.444" xlink:href="#y" y="99.88"/><use x="469.313" xlink:href="#y" y="94.382"/><use x="478.181" xlink:href="#y" y="88.28"/><use x="487.05" xlink:href="#y" y="82.19"/><use x="495.919" xlink:href="#y" y="76.075"/><use x="504.788" xlink:href="#y" y="71.195"/><use x="513.656" xlink:href="#y" y="65.707"/><use x="522.525" xlink:href="#y" y="60.05"/><use x="531.394" xlink:href="#y" y="54.178"/></g></g><g stroke="#ff7f0e"><path clip-path="url(#a)" d="M-1 234.25H34.746l8.868-.001 8.869-.002h8.868l8.869-.004h8.869l8.868-.003 8.87-.009 8.868-.007 8.869-.012 8.868-.008 8.87-.017 8.868-.012 8.869-.015 8.868-.018h8.869l8.869-.086 8.868-.083h8.87l8.868-.093 8.869-.095 8.868-.164 8.87-.002 8.868-.317 8.869-.25 8.868-.151 8.869-.223 8.869-.34 8.868-.36 8.87-.516 8.868-.692 8.869-.58 8.868-.568 8.87-.623 8.868-.663 8.869-.961 8.868-.938 8.869-.96 8.869-.772 8.868-1.34 8.87-.84 8.868-.717 8.869-1.148 8.868-.881 8.87-1.893 8.868-1.086 8.869-1.155 8.868-.998 8.869-1.126 8.869-.963 8.868-.954 8.87-1.197 8.868-1.165 8.869-1.319 8.868-1.061 8.87-.83 8.868-.917" fill="none" stroke-linecap="square" stroke-width="1.5"/><g clip-path="url(#a)" fill="#ff7f0e"><use x="-1" xlink:href="#z" y="234.25"/><use x="-.73" xlink:href="#z" y="234.25"/><use x="8.139" xlink:href="#z" y="234.25"/><use x="17.008" xlink:href="#z" y="234.249"/><use x="25.876" xlink:href="#z" y="234.249"/><use x="34.745" xlink:href="#z" y="234.249"/><use x="43.614" xlink:href="#z" y="234.249"/><use x="52.483" xlink:href="#z" y="234.247"/><use x="61.351" xlink:href="#z" y="234.247"/><use x="70.22" xlink:href="#z" y="234.243"/><use x="79.089" xlink:href="#z" y="234.242"/><use x="87.957" xlink:href="#z" y="234.24"/><use x="96.826" xlink:href="#z" y="234.231"/><use x="105.695" xlink:href="#z" y="234.224"/><use x="114.564" xlink:href="#z" y="234.212"/><use x="123.432" xlink:href="#z" y="234.204"/><use x="132.301" xlink:href="#z" y="234.187"/><use x="141.17" xlink:href="#z" y="234.175"/><use x="150.039" xlink:href="#z" y="234.16"/><use x="158.907" xlink:href="#z" y="234.142"/><use x="167.776" xlink:href="#z" y="234.142"/><use x="176.645" xlink:href="#z" y="234.056"/><use x="185.513" xlink:href="#z" y="233.973"/><use x="194.382" xlink:href="#z" y="233.973"/><use x="203.251" xlink:href="#z" y="233.88"/><use x="212.12" xlink:href="#z" y="233.785"/><use x="220.988" xlink:href="#z" y="233.621"/><use x="229.857" xlink:href="#z" y="233.619"/><use x="238.726" xlink:href="#z" y="233.302"/><use x="247.595" xlink:href="#z" y="233.051"/><use x="256.463" xlink:href="#z" y="232.901"/><use x="265.332" xlink:href="#z" y="232.678"/><use x="274.201" xlink:href="#z" y="232.338"/><use x="283.069" xlink:href="#z" y="231.978"/><use x="291.938" xlink:href="#z" y="231.462"/><use x="300.807" xlink:href="#z" y="230.77"/><use x="309.676" xlink:href="#z" y="230.19"/><use x="318.544" xlink:href="#z" y="229.622"/><use x="327.413" xlink:href="#z" y="228.999"/><use x="336.282" xlink:href="#z" y="228.336"/><use x="345.151" xlink:href="#z" y="227.375"/><use x="354.019" xlink:href="#z" y="226.437"/><use x="362.888" xlink:href="#z" y="225.477"/><use x="371.757" xlink:href="#z" y="224.705"/><use x="380.625" xlink:href="#z" y="223.366"/><use x="389.494" xlink:href="#z" y="222.524"/><use x="398.363" xlink:href="#z" y="221.808"/><use x="407.232" xlink:href="#z" y="220.66"/><use x="416.1" xlink:href="#z" y="219.779"/><use x="424.969" xlink:href="#z" y="217.886"/><use x="433.838" xlink:href="#z" y="216.8"/><use x="442.707" xlink:href="#z" y="215.645"/><use x="451.575" xlink:href="#z" y="214.647"/><use x="460.444" xlink:href="#z" y="213.521"/><use x="469.313" xlink:href="#z" y="212.558"/><use x="478.181" xlink:href="#z" y="211.604"/><use x="487.05" xlink:href="#z" y="210.407"/><use x="495.919" xlink:href="#z" y="209.242"/><use x="504.788" xlink:href="#z" y="207.923"/><use x="513.656" xlink:href="#z" y="206.862"/><use x="522.525" xlink:href="#z" y="206.033"/><use x="531.394" xlink:href="#z" y="205.115"/></g></g><path clip-path="url(#a)" d="M-1 234.236h.27l8.869-.023 8.869-.018 8.868-.023 8.87-.032 8.868-.039 8.869-.057 8.868-.058 8.869-.132 8.869-.065 8.868-.108 8.87-.111 8.868-.149 8.869-.156 8.868-.288 8.87-.333 8.868-.402 8.869-.204 8.868-.452h8.869l8.869-1.098 8.868-.703 8.87-.718 8.868-.622 8.869-.752 8.868-.666 8.87-1.127 8.868-1.348 8.869-1.04 8.868-.995 8.869-.951 8.869-.91 8.868-.877 8.87-1.13 8.868-1.108 8.869-.918 8.868-.96 8.87-.415 8.868-.53 8.869-.739 8.868-.623 8.869-.589 8.869-.726 8.868-.747 8.87-.489 8.868-.221 8.869-.3 8.868-.407 8.87-.351 8.868-.503 8.869-.499 8.868-.343 8.869-.17 8.869-.283 8.868-.3 8.87-.089 8.868-.203 8.869-.122 8.868.005 8.87.133 8.868.002" fill="none" stroke="#2ca02c" stroke-linecap="square" stroke-width="1.5"/><g stroke="#d62728"><path clip-path="url(#a)" d="M-1 234.25H25.876l8.87-.002h8.868l8.869-.005 8.868-.003 8.869-.01 8.869-.01 8.868-.01 8.87-.014 8.868-.01 8.869-.034 8.868-.017 8.87-.042 8.868-.097 8.869-.155 8.868-.104h8.869l8.869-.72 8.868-.195 8.87-.33 8.868-.523 8.869-.281 8.868-.508 8.87-.962 8.868-.44 8.869-1.03 8.868-.717 8.869-1.195 8.869-.96 8.868-1.815 8.87-1.486 8.868-1.212 8.869-.942 8.868-.913 8.87-1.224 8.868-1.192 8.869-.977 8.868-.728 8.869-.632 8.869-.633 8.868-.232 8.87-.496 8.868-.45 8.869-.181 8.868-.051 8.87-.23 8.868-.199 8.869.02 8.868-.096 8.869.16 8.869-.278 8.868-.692 8.87-1.31 8.868-.212 8.869-1.001 8.868.526 8.87-.405 8.868-.094" fill="none" stroke-linecap="square" stroke-width="1.5"/><g clip-path="url(#a)" fill="#d62728"><use x="-1" xlink:href="#A" y="234.251"/><use x="-.73" xlink:href="#A" y="234.251"/><use x="8.139" xlink:href="#A" y="234.251"/><use x="17.008" xlink:href="#A" y="234.251"/><use x="25.876" xlink:href="#A" y="234.25"/><use x="34.745" xlink:href="#A" y="234.248"/><use x="43.614" xlink:href="#A" y="234.247"/><use x="52.483" xlink:href="#A" y="234.243"/><use x="61.351" xlink:href="#A" y="234.24"/><use x="70.22" xlink:href="#A" y="234.23"/><use x="79.089" xlink:href="#A" y="234.221"/><use x="87.957" xlink:href="#A" y="234.21"/><use x="96.826" xlink:href="#A" y="234.196"/><use x="105.695" xlink:href="#A" y="234.187"/><use x="114.564" xlink:href="#A" y="234.152"/><use x="123.432" xlink:href="#A" y="234.135"/><use x="132.301" xlink:href="#A" y="234.093"/><use x="141.17" xlink:href="#A" y="233.996"/><use x="150.039" xlink:href="#A" y="233.841"/><use x="158.907" xlink:href="#A" y="233.737"/><use x="167.776" xlink:href="#A" y="233.738"/><use x="176.645" xlink:href="#A" y="233.016"/><use x="185.513" xlink:href="#A" y="232.822"/><use x="194.382" xlink:href="#A" y="232.491"/><use x="203.251" xlink:href="#A" y="231.969"/><use x="212.12" xlink:href="#A" y="231.688"/><use x="220.988" xlink:href="#A" y="231.18"/><use x="229.857" xlink:href="#A" y="230.218"/><use x="238.726" xlink:href="#A" y="229.777"/><use x="247.595" xlink:href="#A" y="228.747"/><use x="256.463" xlink:href="#A" y="228.031"/><use x="265.332" xlink:href="#A" y="226.836"/><use x="274.201" xlink:href="#A" y="225.877"/><use x="283.069" xlink:href="#A" y="224.061"/><use x="291.938" xlink:href="#A" y="222.575"/><use x="300.807" xlink:href="#A" y="221.363"/><use x="309.676" xlink:href="#A" y="220.421"/><use x="318.544" xlink:href="#A" y="219.508"/><use x="327.413" xlink:href="#A" y="218.284"/><use x="336.282" xlink:href="#A" y="217.092"/><use x="345.151" xlink:href="#A" y="216.115"/><use x="354.019" xlink:href="#A" y="215.387"/><use x="362.888" xlink:href="#A" y="214.755"/><use x="371.757" xlink:href="#A" y="214.122"/><use x="380.625" xlink:href="#A" y="213.89"/><use x="389.494" xlink:href="#A" y="213.394"/><use x="398.363" xlink:href="#A" y="212.943"/><use x="407.232" xlink:href="#A" y="212.763"/><use x="416.1" xlink:href="#A" y="212.712"/><use x="424.969" xlink:href="#A" y="212.482"/><use x="433.838" xlink:href="#A" y="212.283"/><use x="442.707" xlink:href="#A" y="212.304"/><use x="451.575" xlink:href="#A" y="212.207"/><use x="460.444" xlink:href="#A" y="212.367"/><use x="469.313" xlink:href="#A" y="212.089"/><use x="478.181" xlink:href="#A" y="211.397"/><use x="487.05" xlink:href="#A" y="210.087"/><use x="495.919" xlink:href="#A" y="209.875"/><use x="504.788" xlink:href="#A" y="208.874"/><use x="513.656" xlink:href="#A" y="209.4"/><use x="522.525" xlink:href="#A" y="208.995"/><use x="531.394" xlink:href="#A" y="208.901"/></g></g><g stroke="#9467bd"><path clip-path="url(#a)" d="M-1 234.249h18.008l8.868.001h8.87l8.868-.006 8.869-.005 8.868-.01 8.869-.008 8.869-.015 8.868-.003 8.87-.02 8.868-.023 8.869-.068 8.868-.074 8.87-.043 8.868-.02 8.869-.142 8.868-.122h8.869l8.869-.34 8.868-.202 8.87-.008 8.868-.523 8.869-.26 8.868-.345 8.87-.437 8.868-.387 8.869-.394 8.868.1 8.869-.935 8.869-.297 8.868-.535 8.87-.638 8.868-.705 8.869-1.098 8.868-.203 8.87-.832 8.868-1.41 8.869-.723 8.868.169 8.869-.645 8.869-5.826 8.868-.41 8.87-.824 8.868-1.91 8.869-.358 8.868-.382 8.87-1.102 8.868-.678 8.869-.396 8.868-.78 8.869 2.107 8.869.149 8.868-2.491 8.87.101 8.868.555 8.869-.995 8.868-.247 8.87-.125 8.868 1.062" fill="none" stroke-linecap="square" stroke-width="1.5"/><g clip-path="url(#a)" fill="#9467bd"><use x="-1" xlink:href="#B" y="234.249"/><use x="-.73" xlink:href="#B" y="234.249"/><use x="8.139" xlink:href="#B" y="234.249"/><use x="17.008" xlink:href="#B" y="234.249"/><use x="25.876" xlink:href="#B" y="234.25"/><use x="34.745" xlink:href="#B" y="234.249"/><use x="43.614" xlink:href="#B" y="234.244"/><use x="52.483" xlink:href="#B" y="234.239"/><use x="61.351" xlink:href="#B" y="234.229"/><use x="70.22" xlink:href="#B" y="234.221"/><use x="79.089" xlink:href="#B" y="234.206"/><use x="87.957" xlink:href="#B" y="234.203"/><use x="96.826" xlink:href="#B" y="234.183"/><use x="105.695" xlink:href="#B" y="234.16"/><use x="114.564" xlink:href="#B" y="234.092"/><use x="123.432" xlink:href="#B" y="234.018"/><use x="132.301" xlink:href="#B" y="233.975"/><use x="141.17" xlink:href="#B" y="233.954"/><use x="150.039" xlink:href="#B" y="233.813"/><use x="158.907" xlink:href="#B" y="233.691"/><use x="167.776" xlink:href="#B" y="233.691"/><use x="176.645" xlink:href="#B" y="233.351"/><use x="185.513" xlink:href="#B" y="233.149"/><use x="194.382" xlink:href="#B" y="233.141"/><use x="203.251" xlink:href="#B" y="232.618"/><use x="212.12" xlink:href="#B" y="232.358"/><use x="220.988" xlink:href="#B" y="232.013"/><use x="229.857" xlink:href="#B" y="231.576"/><use x="238.726" xlink:href="#B" y="231.189"/><use x="247.595" xlink:href="#B" y="230.795"/><use x="256.463" xlink:href="#B" y="230.895"/><use x="265.332" xlink:href="#B" y="229.96"/><use x="274.201" xlink:href="#B" y="229.663"/><use x="283.069" xlink:href="#B" y="229.128"/><use x="291.938" xlink:href="#B" y="228.49"/><use x="300.807" xlink:href="#B" y="227.785"/><use x="309.676" xlink:href="#B" y="226.687"/><use x="318.544" xlink:href="#B" y="226.484"/><use x="327.413" xlink:href="#B" y="225.652"/><use x="336.282" xlink:href="#B" y="224.242"/><use x="345.151" xlink:href="#B" y="223.519"/><use x="354.019" xlink:href="#B" y="223.688"/><use x="362.888" xlink:href="#B" y="223.043"/><use x="371.757" xlink:href="#B" y="217.217"/><use x="380.625" xlink:href="#B" y="216.807"/><use x="389.494" xlink:href="#B" y="215.983"/><use x="398.363" xlink:href="#B" y="214.073"/><use x="407.232" xlink:href="#B" y="213.715"/><use x="416.1" xlink:href="#B" y="213.333"/><use x="424.969" xlink:href="#B" y="212.231"/><use x="433.838" xlink:href="#B" y="211.553"/><use x="442.707" xlink:href="#B" y="211.157"/><use x="451.575" xlink:href="#B" y="210.377"/><use x="460.444" xlink:href="#B" y="212.484"/><use x="469.313" xlink:href="#B" y="212.633"/><use x="478.181" xlink:href="#B" y="210.142"/><use x="487.05" xlink:href="#B" y="210.243"/><use x="495.919" xlink:href="#B" y="210.798"/><use x="504.788" xlink:href="#B" y="209.803"/><use x="513.656" xlink:href="#B" y="209.556"/><use x="522.525" xlink:href="#B" y="209.431"/><use x="531.394" xlink:href="#B" y="210.493"/></g></g><path clip-path="url(#a)" d="M531.394 54.178l8.869-6.059 8.868-6.262L558 35.383" fill="none" stroke="#1f77b4" stroke-dasharray="1.5 2.475" stroke-width="1.5"/><path clip-path="url(#a)" d="M531.394 205.115l8.869-.973 8.868-1.005 8.869-1.039" fill="none" stroke="#ff7f0e" stroke-dasharray="1.5 2.475" stroke-width="1.5"/><path clip-path="url(#a)" d="M531.394 207.154l8.869.05 8.868.049 8.869.05" fill="none" stroke="#2ca02c" stroke-dasharray="1.5 2.475" stroke-width="1.5"/><path clip-path="url(#a)" d="M531.394 208.9l8.869-.073 8.868-.073 8.869-.074" fill="none" stroke="#d62728" stroke-dasharray="1.5 2.475" stroke-width="1.5"/><path clip-path="url(#a)" d="M531.394 210.493l8.869.35 8.868.343 8.869.339" fill="none" stroke="#9467bd" stroke-dasharray="1.5 2.475" stroke-width="1.5"/><path d="M70.22 234.248V25.44M558 234.248V25.44M70.22 234.248H558M70.22 25.44H558" fill="none" stroke="#000" stroke-linecap="square" stroke-linejoin="miter" stroke-width=".8"/><g transform="matrix(.12 0 0 -.12 192.33 19.44)"><use xlink:href="#h"/><use x="68.393" xlink:href="#C"/><use x="123.373" xlink:href="#D"/><use x="162.582" xlink:href="#w"/><use x="190.365" xlink:href="#E"/><use x="249.545" xlink:href="#x"/><use x="342.855" xlink:href="#F"/><path d="M452.086 66.219q-10.75 0-17.078-8.016-6.313-8-6.313-21.828 0-13.766 6.313-21.781 6.328-8 17.078-8 10.734 0 17.016 8 6.28 8.015 6.28 21.781 0 13.828-6.28 21.828-6.282 8.016-17.016 8.016zm0 8q15.328 0 24.5-10.281 9.187-10.282 9.187-27.563 0-17.234-9.187-27.516-9.172-10.28-24.5-10.28-15.375 0-24.594 10.25-9.203 10.265-9.203 27.546t9.203 27.563q9.219 10.28 24.594 10.28zM519.984 0l-27.828 72.906h10.297l23.11-61.375 23.14 61.375h10.25L531.172 0z"/><use x="559.783" xlink:href="#G"/><path d="M608.947 64.797V8.109h11.922q15.094 0 22.094 6.829 7 6.843 7 21.593 0 14.64-7 21.453-7 6.813-22.094 6.813zm-9.86 8.11h20.267q21.187 0 31.093-8.813 9.922-8.813 9.922-27.563 0-18.86-9.969-27.703Q640.447 0 619.354 0h-20.266z"/><use x="666.277" xlink:href="#H"/><use x="702.361" xlink:href="#l"/><use x="765.984" xlink:href="#k"/><use x="861.395" xlink:href="#C"/><use x="916.375" xlink:href="#d"/><use x="977.654" xlink:href="#I"/><use x="1029.754" xlink:href="#x"/><use x="1091.277" xlink:href="#I"/><use x="1175.164" xlink:href="#d"/><use x="1236.443" xlink:href="#I"/><use x="1320.33" xlink:href="#s"/><use x="1381.512" xlink:href="#J"/><use x="1448.504" xlink:href="#f"/><use x="1512.127" xlink:href="#g"/><use x="1575.75" xlink:href="#f"/><use x="1639.373" xlink:href="#g"/><use x="1702.996" xlink:href="#H"/><use x="1739.08" xlink:href="#g"/><use x="1802.703" xlink:href="#p"/><use x="1866.326" xlink:href="#H"/><use x="1902.41" xlink:href="#f"/><use x="1966.033" xlink:href="#f"/></g><g><path d="M77.22 106.83h227.06q2 0 2-2V32.44q0-2-2-2H77.22q-2 0-2 2v72.39q0 2 2 2z" fill="#fff" opacity=".8" stroke="#ccc" stroke-linejoin="miter"/><path d="M79.22 38.538h20" fill="none" stroke="#1f77b4" stroke-linecap="square" stroke-width="1.5"/><use fill="#1f77b4" stroke="#1f77b4" x="89.22" xlink:href="#y" y="38.538"/><g transform="matrix(.1 0 0 -.1 107.22 42.038)"><use xlink:href="#K"/><use x="73.193" xlink:href="#L"/><use x="168.457" xlink:href="#M"/><use x="207.471" xlink:href="#u"/><use x="270.947" xlink:href="#s"/><use x="332.129" xlink:href="#N"/><use x="395.508" xlink:href="#O"/><use x="458.984" xlink:href="#t"/><use x="486.768" xlink:href="#x"/><use x="548.291" xlink:href="#I"/><use x="632.178" xlink:href="#w"/><use x="659.961" xlink:href="#P"/><use x="755.127" xlink:href="#f"/><use x="818.75" xlink:href="#g"/><use x="882.373" xlink:href="#Q"/><use x="914.16" xlink:href="#k"/><use x="1009.57" xlink:href="#u"/><use x="1073.047" xlink:href="#d"/><use x="1134.326" xlink:href="#R"/><use x="1193.506" xlink:href="#I"/><use x="1245.605" xlink:href="#S"/></g><path d="M79.22 53.217h20" fill="none" stroke="#ff7f0e" stroke-linecap="square" stroke-width="1.5"/><use fill="#ff7f0e" stroke="#ff7f0e" x="89.22" xlink:href="#z" y="53.217"/><g transform="matrix(.1 0 0 -.1 107.22 56.717)"><use xlink:href="#K"/><use x="73.193" xlink:href="#P"/><use x="136.572" xlink:href="#w"/><use x="164.355" xlink:href="#D"/><use x="203.564" xlink:href="#x"/><use x="265.088" xlink:href="#u"/><path d="M370.164 72.906h9.86V42.094l32.718 30.812h12.703l-36.187-33.984L428.023 0H415.04l-35.016 35.11V0h-9.859z"/><use x="425.928" xlink:href="#w"/><use x="453.711" xlink:href="#P"/><path d="M562.496 27.984q0 9.766-4.031 15.125-4.016 5.375-11.297 5.375-7.219 0-11.25-5.375-4.031-5.359-4.031-15.125 0-9.718 4.031-15.093t11.25-5.375q7.281 0 11.297 5.375 4.031 5.375 4.031 15.093zm8.984-21.203q0-13.953-6.203-20.765-6.187-6.813-18.984-6.813-4.734 0-8.938.703-4.203.703-8.156 2.172v8.735q3.953-2.141 7.813-3.157 3.86-1.031 7.86-1.031 8.843 0 13.233 4.61 4.391 4.609 4.391 13.937v4.453q-2.781-4.844-7.125-7.234Q551.027 0 544.965 0q-10.047 0-16.203 7.656-6.157 7.672-6.157 20.328 0 12.688 6.157 20.344Q534.918 56 544.965 56q6.062 0 10.406-2.39 4.344-2.391 7.125-7.22v8.297h8.984z"/><use x="580.566" xlink:href="#u"/><use x="644.043" xlink:href="#s"/><path d="M757.225 44.188q3.375 6.062 8.062 8.937Q769.975 56 776.318 56q8.547 0 13.188-5.984 4.64-5.97 4.64-17V0h-9.03v32.719q0 7.86-2.798 11.656-2.78 3.813-8.484 3.813-6.984 0-11.047-4.641-4.047-4.625-4.047-12.64V0h-9.031v32.719q0 7.906-2.781 11.687-2.782 3.782-8.594 3.782-6.89 0-10.953-4.657-4.047-4.656-4.047-12.625V0h-9.031v54.688h9.031v-8.5q3.078 5.03 7.375 7.421Q735.006 56 740.912 56q5.969 0 10.14-3.031 4.173-3.016 6.173-8.782z"/><use x="834.424" xlink:href="#M"/><use x="873.438" xlink:href="#u"/><use x="936.914" xlink:href="#s"/><use x="998.096" xlink:href="#N"/><use x="1061.475" xlink:href="#O"/><use x="1124.951" xlink:href="#t"/><use x="1152.734" xlink:href="#x"/><use x="1214.258" xlink:href="#I"/><use x="1298.145" xlink:href="#w"/><use x="1325.928" xlink:href="#P"/><use x="1421.094" xlink:href="#f"/><use x="1484.717" xlink:href="#l"/><use x="1548.34" xlink:href="#Q"/><use x="1580.127" xlink:href="#l"/><use x="1675.537" xlink:href="#u"/><use x="1739.014" xlink:href="#d"/><use x="1800.293" xlink:href="#R"/><use x="1859.473" xlink:href="#I"/><use x="1911.572" xlink:href="#S"/></g><path d="M79.22 67.895h20" fill="none" stroke="#2ca02c" stroke-linecap="square" stroke-width="1.5"/><g transform="matrix(.1 0 0 -.1 107.22 71.395)"><use xlink:href="#G"/><use x="29.492" xlink:href="#D"/><use x="68.701" xlink:href="#d"/><use x="129.98" xlink:href="#t"/><use x="157.764" xlink:href="#R"/></g><path d="M79.22 82.573h20" fill="none" stroke="#d62728" stroke-linecap="square" stroke-width="1.5"/><use fill="#d62728" stroke="#d62728" x="89.22" xlink:href="#A" y="82.573"/><g transform="matrix(.1 0 0 -.1 107.22 86.073)"><use xlink:href="#L"/><use x="63.477" xlink:href="#i"/><use x="126.953" xlink:href="#d"/><use x="188.232" xlink:href="#w"/><use x="216.016" xlink:href="#P"/></g><path d="M79.22 97.25h20" fill="none" stroke="#9467bd" stroke-linecap="square" stroke-width="1.5"/><use fill="#9467bd" stroke="#9467bd" x="89.22" xlink:href="#B" y="97.251"/><g transform="matrix(.1 0 0 -.1 107.22 100.75)"><path d="M9.813 72.906h41.89v-8.312H19.672V43.109h28.906v-8.297H19.672V0h-9.86z"/><use x="57.41" xlink:href="#e"/><use x="98.523" xlink:href="#d"/><use x="159.803" xlink:href="#P"/><use x="223.182" xlink:href="#C"/><use x="278.162" xlink:href="#x"/></g></g><g><path d="M70.22 505.928H558V297.12H70.22z" fill="#fff"/><path clip-path="url(#T)" d="M70.22 505.928V297.12" fill="none" stroke="#b0b0b0" stroke-linecap="square" stroke-width=".8"/><use stroke="#000" stroke-width=".8" x="70.22" xlink:href="#b" y="505.928"/><g transform="matrix(.1 0 0 -.1 60.786 542.922)"><use xlink:href="#c"/><use x="86.279" xlink:href="#d"/><use x="147.559" xlink:href="#e"/></g><g transform="matrix(.1 0 0 -.1 57.495 554.12)"><use xlink:href="#f"/><use x="63.623" xlink:href="#g"/><use x="127.246" xlink:href="#f"/><use x="190.869" xlink:href="#g"/></g><path clip-path="url(#T)" d="M345.15 505.928V297.12" fill="none" stroke="#b0b0b0" stroke-linecap="square" stroke-width=".8"/><use stroke="#000" stroke-width=".8" x="345.151" xlink:href="#b" y="505.928"/><g transform="matrix(.1 0 0 -.1 336.5 542.922)"><use xlink:href="#h"/><use x="68.408" xlink:href="#i"/><use x="131.885" xlink:href="#e"/></g><g stroke-width=".8"><path clip-path="url(#T)" d="M558 505.928V297.12" fill="none" stroke="#b0b0b0" stroke-linecap="square"/><use stroke="#000" x="558" xlink:href="#b" y="505.928"/></g><use stroke="#000" stroke-width=".6" x="79.089" xlink:href="#j" y="505.928"/><g transform="matrix(.1 0 0 -.1 72.726 518.926)"><use xlink:href="#g"/><use x="63.623" xlink:href="#f"/></g><g stroke="#000" stroke-width=".6"><use x="87.957" xlink:href="#j" y="505.928"/><use x="96.826" xlink:href="#j" y="505.928"/><use x="105.695" xlink:href="#j" y="505.928"/><use x="114.564" xlink:href="#j" y="505.928"/><use x="123.432" xlink:href="#j" y="505.928"/><use x="132.301" xlink:href="#j" y="505.928"/></g><use stroke="#000" stroke-width=".6" x="141.17" xlink:href="#j" y="505.928"/><g transform="matrix(.1 0 0 -.1 134.807 518.926)"><use xlink:href="#g"/><use x="63.623" xlink:href="#k"/></g><use stroke="#000" stroke-width=".6" x="150.039" xlink:href="#j" y="505.928"/><use stroke="#000" stroke-width=".6" x="158.907" xlink:href="#j" y="505.928"/><use stroke="#000" stroke-width=".6" x="167.776" xlink:href="#j" y="505.928"/><use stroke="#000" stroke-width=".6" x="176.645" xlink:href="#j" y="505.928"/><use stroke="#000" stroke-width=".6" x="185.513" xlink:href="#j" y="505.928"/><use stroke="#000" stroke-width=".6" x="194.382" xlink:href="#j" y="505.928"/><use stroke="#000" stroke-width=".6" x="203.251" xlink:href="#j" y="505.928"/><g transform="matrix(.1 0 0 -.1 196.888 518.926)"><use xlink:href="#l"/><use x="63.623" xlink:href="#m"/></g><use stroke="#000" stroke-width=".6" x="212.12" xlink:href="#j" y="505.928"/><use stroke="#000" stroke-width=".6" x="220.988" xlink:href="#j" y="505.928"/><use stroke="#000" stroke-width=".6" x="229.857" xlink:href="#j" y="505.928"/><use stroke="#000" stroke-width=".6" x="238.726" xlink:href="#j" y="505.928"/><use stroke="#000" stroke-width=".6" x="247.595" xlink:href="#j" y="505.928"/><use stroke="#000" stroke-width=".6" x="256.463" xlink:href="#j" y="505.928"/><use stroke="#000" stroke-width=".6" x="265.332" xlink:href="#j" y="505.928"/><g transform="matrix(.1 0 0 -.1 258.97 518.926)"><use xlink:href="#f"/><use x="63.623" xlink:href="#n"/></g><use stroke="#000" stroke-width=".6" x="274.201" xlink:href="#j" y="505.928"/><use stroke="#000" stroke-width=".6" x="283.069" xlink:href="#j" y="505.928"/><use stroke="#000" stroke-width=".6" x="291.938" xlink:href="#j" y="505.928"/><use stroke="#000" stroke-width=".6" x="300.807" xlink:href="#j" y="505.928"/><use stroke="#000" stroke-width=".6" x="309.676" xlink:href="#j" y="505.928"/><use stroke="#000" stroke-width=".6" x="318.544" xlink:href="#j" y="505.928"/><use stroke="#000" stroke-width=".6" x="327.413" xlink:href="#j" y="505.928"/><g transform="matrix(.1 0 0 -.1 321.05 518.926)"><use xlink:href="#n"/><use x="63.623" xlink:href="#g"/></g><use stroke="#000" stroke-width=".6" x="336.282" xlink:href="#j" y="505.928"/><use stroke="#000" stroke-width=".6" x="354.019" xlink:href="#j" y="505.928"/><use stroke="#000" stroke-width=".6" x="362.888" xlink:href="#j" y="505.928"/><use stroke="#000" stroke-width=".6" x="371.757" xlink:href="#j" y="505.928"/><use stroke="#000" stroke-width=".6" x="380.625" xlink:href="#j" y="505.928"/><use stroke="#000" stroke-width=".6" x="389.494" xlink:href="#j" y="505.928"/><g transform="matrix(.1 0 0 -.1 383.132 518.926)"><use xlink:href="#g"/><use x="63.623" xlink:href="#m"/></g><use stroke="#000" stroke-width=".6" x="398.363" xlink:href="#j" y="505.928"/><use stroke="#000" stroke-width=".6" x="407.232" xlink:href="#j" y="505.928"/><use stroke="#000" stroke-width=".6" x="416.1" xlink:href="#j" y="505.928"/><use stroke="#000" stroke-width=".6" x="424.969" xlink:href="#j" y="505.928"/><use stroke="#000" stroke-width=".6" x="433.838" xlink:href="#j" y="505.928"/><use stroke="#000" stroke-width=".6" x="442.707" xlink:href="#j" y="505.928"/><use stroke="#000" stroke-width=".6" x="451.575" xlink:href="#j" y="505.928"/><g transform="matrix(.1 0 0 -.1 445.213 518.926)"><use xlink:href="#l"/><use x="63.623" xlink:href="#n"/></g><use stroke="#000" stroke-width=".6" x="460.444" xlink:href="#j" y="505.928"/><use stroke="#000" stroke-width=".6" x="469.313" xlink:href="#j" y="505.928"/><use stroke="#000" stroke-width=".6" x="478.181" xlink:href="#j" y="505.928"/><use stroke="#000" stroke-width=".6" x="487.05" xlink:href="#j" y="505.928"/><use stroke="#000" stroke-width=".6" x="495.919" xlink:href="#j" y="505.928"/><use stroke="#000" stroke-width=".6" x="504.788" xlink:href="#j" y="505.928"/><g><use stroke="#000" stroke-width=".6" x="513.656" xlink:href="#j" y="505.928"/><g transform="matrix(.1 0 0 -.1 507.294 518.926)"><use xlink:href="#f"/><use x="63.623" xlink:href="#g"/></g></g><use stroke="#000" stroke-width=".6" x="522.525" xlink:href="#j" y="505.928"/><use stroke="#000" stroke-width=".6" x="531.394" xlink:href="#j" y="505.928"/><use stroke="#000" stroke-width=".6" x="540.263" xlink:href="#j" y="505.928"/><use stroke="#000" stroke-width=".6" x="549.131" xlink:href="#j" y="505.928"/><g><path clip-path="url(#T)" d="M70.22 467.538H558" fill="none" stroke="#b0b0b0" stroke-linecap="square" stroke-width=".8"/><use stroke="#000" stroke-width=".8" x="70.22" xlink:href="#o" y="467.538"/><g transform="matrix(.1 0 0 -.1 31.407 471.337)"><use xlink:href="#q"/><use x="63.623" xlink:href="#g"/><use x="127.246" xlink:href="#g"/><use x="190.869" xlink:href="#g"/><use x="254.492" xlink:href="#g"/></g><path clip-path="url(#T)" d="M70.22 429.14H558" fill="none" stroke="#b0b0b0" stroke-linecap="square" stroke-width=".8"/><use stroke="#000" stroke-width=".8" x="70.22" xlink:href="#o" y="429.141"/><g transform="matrix(.1 0 0 -.1 25.045 432.94)"><use xlink:href="#l"/><use x="63.623" xlink:href="#g"/><use x="127.246" xlink:href="#g"/><use x="190.869" xlink:href="#g"/><use x="254.492" xlink:href="#g"/><use x="318.115" xlink:href="#g"/></g><g><path clip-path="url(#T)" d="M70.22 390.743H558" fill="none" stroke="#b0b0b0" stroke-linecap="square" stroke-width=".8"/><use stroke="#000" stroke-width=".8" x="70.22" xlink:href="#o" y="390.743"/><g transform="matrix(.1 0 0 -.1 25.045 394.542)"><use xlink:href="#l"/><use x="63.623" xlink:href="#q"/><use x="127.246" xlink:href="#g"/><use x="190.869" xlink:href="#g"/><use x="254.492" xlink:href="#g"/><use x="318.115" xlink:href="#g"/></g></g><g><path clip-path="url(#T)" d="M70.22 352.345H558" fill="none" stroke="#b0b0b0" stroke-linecap="square" stroke-width=".8"/><use stroke="#000" stroke-width=".8" x="70.22" xlink:href="#o" y="352.345"/><g transform="matrix(.1 0 0 -.1 25.045 356.145)"><use xlink:href="#f"/><use x="63.623" xlink:href="#g"/><use x="127.246" xlink:href="#g"/><use x="190.869" xlink:href="#g"/><use x="254.492" xlink:href="#g"/><use x="318.115" xlink:href="#g"/></g></g><g><path clip-path="url(#T)" d="M70.22 313.948H558" fill="none" stroke="#b0b0b0" stroke-linecap="square" stroke-width=".8"/><use stroke="#000" stroke-width=".8" x="70.22" xlink:href="#o" y="313.948"/><g transform="matrix(.1 0 0 -.1 25.045 317.747)"><use xlink:href="#f"/><use x="63.623" xlink:href="#q"/><use x="127.246" xlink:href="#g"/><use x="190.869" xlink:href="#g"/><use x="254.492" xlink:href="#g"/><use x="318.115" xlink:href="#g"/></g></g><g transform="matrix(0 -.1 -.1 0 18.965 408.358)"><use xlink:href="#K"/><use x="73.193" xlink:href="#L"/></g></g><g stroke="#1f77b4"><path clip-path="url(#T)" d="M-1 505.936h71.22l8.869-.001h8.868l8.87-.008 8.868-.009 8.869-.01 8.868-.03 8.87-.024 8.868-.027 8.869-.024 8.868-.036 8.869-.083 8.869-.072 8.868-.078 8.87-.158 8.868-.175 8.869-.565 8.868-.604 8.87-2.19 8.868-2.256 8.869-2.597 8.868-3.097 8.869-3.873 8.869-3.644 8.868-3.905 8.87-5.326 8.868-5.266 8.869-5.632 8.868-5.376 8.87-5.193 8.868-6.787 8.869-5.932 8.868-6.24 8.869-7.617 8.869-7.846 8.868-6.706 8.87-6.233 8.868-5.582 8.869-7.992 8.868-7.618 8.87-7.502 8.868-6.08 8.869-5.567 8.868-4.64 8.869-4.983 8.869-8.185 8.868-4.625 8.87-3.538 8.868-8.12 8.869-4.206 8.868-3.788 8.87-3.692 8.868-3.55" fill="none" stroke-linecap="square" stroke-width="1.5"/><g clip-path="url(#T)" fill="#1f77b4"><use x="-1" xlink:href="#y" y="505.936"/><use x="-.73" xlink:href="#y" y="505.936"/><use x="8.139" xlink:href="#y" y="505.936"/><use x="17.008" xlink:href="#y" y="505.936"/><use x="25.876" xlink:href="#y" y="505.936"/><use x="34.745" xlink:href="#y" y="505.936"/><use x="43.614" xlink:href="#y" y="505.936"/><use x="52.483" xlink:href="#y" y="505.936"/><use x="61.351" xlink:href="#y" y="505.936"/><use x="70.22" xlink:href="#y" y="505.936"/><use x="79.089" xlink:href="#y" y="505.935"/><use x="87.957" xlink:href="#y" y="505.934"/><use x="96.826" xlink:href="#y" y="505.927"/><use x="105.695" xlink:href="#y" y="505.918"/><use x="114.564" xlink:href="#y" y="505.908"/><use x="123.432" xlink:href="#y" y="505.877"/><use x="132.301" xlink:href="#y" y="505.854"/><use x="141.17" xlink:href="#y" y="505.827"/><use x="150.039" xlink:href="#y" y="505.803"/><use x="158.907" xlink:href="#y" y="505.767"/><use x="167.776" xlink:href="#y" y="505.684"/><use x="176.645" xlink:href="#y" y="505.612"/><use x="185.513" xlink:href="#y" y="505.534"/><use x="194.382" xlink:href="#y" y="505.376"/><use x="203.251" xlink:href="#y" y="505.201"/><use x="212.12" xlink:href="#y" y="504.636"/><use x="220.988" xlink:href="#y" y="504.032"/><use x="229.857" xlink:href="#y" y="501.842"/><use x="238.726" xlink:href="#y" y="499.586"/><use x="247.595" xlink:href="#y" y="496.989"/><use x="256.463" xlink:href="#y" y="493.892"/><use x="265.332" xlink:href="#y" y="490.019"/><use x="274.201" xlink:href="#y" y="486.375"/><use x="283.069" xlink:href="#y" y="482.47"/><use x="291.938" xlink:href="#y" y="477.144"/><use x="300.807" xlink:href="#y" y="471.878"/><use x="309.676" xlink:href="#y" y="466.246"/><use x="318.544" xlink:href="#y" y="460.87"/><use x="327.413" xlink:href="#y" y="455.677"/><use x="336.282" xlink:href="#y" y="448.89"/><use x="345.151" xlink:href="#y" y="442.958"/><use x="354.019" xlink:href="#y" y="436.718"/><use x="362.888" xlink:href="#y" y="429.101"/><use x="371.757" xlink:href="#y" y="421.255"/><use x="380.625" xlink:href="#y" y="414.549"/><use x="389.494" xlink:href="#y" y="408.316"/><use x="398.363" xlink:href="#y" y="402.734"/><use x="407.232" xlink:href="#y" y="394.742"/><use x="416.1" xlink:href="#y" y="387.124"/><use x="424.969" xlink:href="#y" y="379.622"/><use x="433.838" xlink:href="#y" y="373.542"/><use x="442.707" xlink:href="#y" y="367.975"/><use x="451.575" xlink:href="#y" y="363.334"/><use x="460.444" xlink:href="#y" y="358.352"/><use x="469.313" xlink:href="#y" y="350.167"/><use x="478.181" xlink:href="#y" y="345.542"/><use x="487.05" xlink:href="#y" y="342.004"/><use x="495.919" xlink:href="#y" y="333.883"/><use x="504.788" xlink:href="#y" y="329.678"/><use x="513.656" xlink:href="#y" y="325.89"/><use x="522.525" xlink:href="#y" y="322.198"/><use x="531.394" xlink:href="#y" y="318.649"/></g></g><g stroke="#ff7f0e"><path clip-path="url(#T)" d="M-1 505.936h97.827l8.868-.002h8.869l8.868-.001 8.87-.001h8.868l8.869-.007 8.868-.006 8.869-.005h8.869l8.868-.03 8.87-.022 8.868-.06 8.869-.068 8.868-.001 8.87-.36 8.868-.112 8.869-.332 8.868-.448 8.869-.709 8.869-.625 8.868-.544 8.87-1.886 8.868-1.476 8.869-1.74 8.868-1.721 8.87-2.468 8.868-1.529 8.869-2.665 8.868-2.422 8.869-3.222 8.869-3.094 8.868-2.542 8.87-2.687 8.868-2.379 8.869-2.11 8.868-2.6 8.87-2.564 8.868-2.543 8.869-2.712 8.868-2.029 8.869-2.978 8.869-1.424 8.868-3.014 8.87-2.172 8.868-2.091 8.869-2.757 8.868-2.524 8.87-2.617 8.868-2.404" fill="none" stroke-linecap="square" stroke-width="1.5"/><g clip-path="url(#T)" fill="#ff7f0e"><use x="-1" xlink:href="#z" y="505.936"/><use x="-.73" xlink:href="#z" y="505.936"/><use x="8.139" xlink:href="#z" y="505.936"/><use x="17.008" xlink:href="#z" y="505.936"/><use x="25.876" xlink:href="#z" y="505.936"/><use x="34.745" xlink:href="#z" y="505.936"/><use x="43.614" xlink:href="#z" y="505.936"/><use x="52.483" xlink:href="#z" y="505.936"/><use x="61.351" xlink:href="#z" y="505.936"/><use x="70.22" xlink:href="#z" y="505.936"/><use x="79.089" xlink:href="#z" y="505.936"/><use x="87.957" xlink:href="#z" y="505.936"/><use x="96.826" xlink:href="#z" y="505.936"/><use x="105.695" xlink:href="#z" y="505.934"/><use x="114.564" xlink:href="#z" y="505.934"/><use x="123.432" xlink:href="#z" y="505.933"/><use x="132.301" xlink:href="#z" y="505.932"/><use x="141.17" xlink:href="#z" y="505.932"/><use x="150.039" xlink:href="#z" y="505.925"/><use x="158.907" xlink:href="#z" y="505.919"/><use x="167.776" xlink:href="#z" y="505.914"/><use x="176.645" xlink:href="#z" y="505.914"/><use x="185.513" xlink:href="#z" y="505.883"/><use x="194.382" xlink:href="#z" y="505.862"/><use x="203.251" xlink:href="#z" y="505.801"/><use x="212.12" xlink:href="#z" y="505.734"/><use x="220.988" xlink:href="#z" y="505.733"/><use x="229.857" xlink:href="#z" y="505.373"/><use x="238.726" xlink:href="#z" y="505.261"/><use x="247.595" xlink:href="#z" y="504.929"/><use x="256.463" xlink:href="#z" y="504.481"/><use x="265.332" xlink:href="#z" y="503.772"/><use x="274.201" xlink:href="#z" y="503.147"/><use x="283.069" xlink:href="#z" y="502.603"/><use x="291.938" xlink:href="#z" y="500.717"/><use x="300.807" xlink:href="#z" y="499.241"/><use x="309.676" xlink:href="#z" y="497.501"/><use x="318.544" xlink:href="#z" y="495.78"/><use x="327.413" xlink:href="#z" y="493.312"/><use x="336.282" xlink:href="#z" y="491.783"/><use x="345.151" xlink:href="#z" y="489.118"/><use x="354.019" xlink:href="#z" y="486.696"/><use x="362.888" xlink:href="#z" y="483.474"/><use x="371.757" xlink:href="#z" y="480.38"/><use x="380.625" xlink:href="#z" y="477.838"/><use x="389.494" xlink:href="#z" y="475.151"/><use x="398.363" xlink:href="#z" y="472.772"/><use x="407.232" xlink:href="#z" y="470.661"/><use x="416.1" xlink:href="#z" y="468.062"/><use x="424.969" xlink:href="#z" y="465.498"/><use x="433.838" xlink:href="#z" y="462.955"/><use x="442.707" xlink:href="#z" y="460.243"/><use x="451.575" xlink:href="#z" y="458.214"/><use x="460.444" xlink:href="#z" y="455.236"/><use x="469.313" xlink:href="#z" y="453.812"/><use x="478.181" xlink:href="#z" y="450.798"/><use x="487.05" xlink:href="#z" y="448.626"/><use x="495.919" xlink:href="#z" y="446.535"/><use x="504.788" xlink:href="#z" y="443.778"/><use x="513.656" xlink:href="#z" y="441.254"/><use x="522.525" xlink:href="#z" y="438.637"/><use x="531.394" xlink:href="#z" y="436.233"/></g></g><path clip-path="url(#T)" d="M-1 505.935h106.695l8.869-.004h8.868l8.87-.013h8.868l8.869-.052 8.868-.003 8.869-.01 8.869-.011 8.868-.012 8.87-.02 8.868-.025 8.869-.016h8.868l8.87-.085 8.868-.065 8.869-.086 8.868-.09 8.869-.097 8.869-.292 8.868-.518 8.87-.437 8.868-.625 8.869-.774 8.868-.533 8.87-.606 8.868-.64 8.869-.834 8.868-.919 8.869-1.073 8.869-1.006 8.868-.575 8.87-1.005 8.868-.974 8.869-1.16 8.868-1.599 8.87-1.487 8.868-1.382 8.869-1.954 8.868-1.002 8.869-.996 8.869-1.144 8.868-1.738 8.87-1.6 8.868-1.391 8.869-1.077h8.868l8.87-2.202 8.868-1.17" fill="none" stroke="#2ca02c" stroke-linecap="square" stroke-width="1.5"/><g stroke="#d62728"><path clip-path="url(#T)" d="M-1 505.926h9.139l8.869.004h17.738l8.868-.001h8.869l8.868-.001h8.869l8.869-.007 8.868-.003 8.87-.007 8.868-.012 8.869-.006 8.868-.018 8.87-.012 8.868-.005 8.869-.03 8.868-.024 8.869-.03 8.869-.047 8.868-.044 8.87-.065 8.868-.1 8.869-.105 8.868-.044 8.87-.15 8.868-.17 8.869-.142 8.868-.212 8.869-.348 8.869-.322 8.868-.342 8.87-.68 8.868-.571 8.869-.325 8.868-.57 8.87-.97 8.868-.803 8.869-.893 8.868-1.026 8.869-.924 8.869-.622 8.868-1.641 8.87-.732 8.868-.983 8.869-1.14 8.868-.586 8.87-1.023 8.868-.464 8.869-.808 8.868-.816 8.869-1.053 8.869-.95 8.868-.688 8.87-1.074 8.868-.945 8.869-.694 8.868-1.695 8.87-1.322 8.868-1.336" fill="none" stroke-linecap="square" stroke-width="1.5"/><g clip-path="url(#T)" fill="#d62728"><use x="-1" xlink:href="#A" y="505.926"/><use x="-.73" xlink:href="#A" y="505.926"/><use x="8.139" xlink:href="#A" y="505.926"/><use x="17.008" xlink:href="#A" y="505.93"/><use x="25.876" xlink:href="#A" y="505.93"/><use x="34.745" xlink:href="#A" y="505.93"/><use x="43.614" xlink:href="#A" y="505.929"/><use x="52.483" xlink:href="#A" y="505.929"/><use x="61.351" xlink:href="#A" y="505.928"/><use x="70.22" xlink:href="#A" y="505.928"/><use x="79.089" xlink:href="#A" y="505.921"/><use x="87.957" xlink:href="#A" y="505.918"/><use x="96.826" xlink:href="#A" y="505.911"/><use x="105.695" xlink:href="#A" y="505.899"/><use x="114.564" xlink:href="#A" y="505.893"/><use x="123.432" xlink:href="#A" y="505.875"/><use x="132.301" xlink:href="#A" y="505.863"/><use x="141.17" xlink:href="#A" y="505.858"/><use x="150.039" xlink:href="#A" y="505.828"/><use x="158.907" xlink:href="#A" y="505.804"/><use x="167.776" xlink:href="#A" y="505.774"/><use x="176.645" xlink:href="#A" y="505.727"/><use x="185.513" xlink:href="#A" y="505.683"/><use x="194.382" xlink:href="#A" y="505.618"/><use x="203.251" xlink:href="#A" y="505.518"/><use x="212.12" xlink:href="#A" y="505.413"/><use x="220.988" xlink:href="#A" y="505.369"/><use x="229.857" xlink:href="#A" y="505.218"/><use x="238.726" xlink:href="#A" y="505.049"/><use x="247.595" xlink:href="#A" y="504.907"/><use x="256.463" xlink:href="#A" y="504.695"/><use x="265.332" xlink:href="#A" y="504.347"/><use x="274.201" xlink:href="#A" y="504.025"/><use x="283.069" xlink:href="#A" y="503.683"/><use x="291.938" xlink:href="#A" y="503.004"/><use x="300.807" xlink:href="#A" y="502.432"/><use x="309.676" xlink:href="#A" y="502.107"/><use x="318.544" xlink:href="#A" y="501.537"/><use x="327.413" xlink:href="#A" y="500.566"/><use x="336.282" xlink:href="#A" y="499.764"/><use x="345.151" xlink:href="#A" y="498.871"/><use x="354.019" xlink:href="#A" y="497.845"/><use x="362.888" xlink:href="#A" y="496.921"/><use x="371.757" xlink:href="#A" y="496.299"/><use x="380.625" xlink:href="#A" y="494.658"/><use x="389.494" xlink:href="#A" y="493.926"/><use x="398.363" xlink:href="#A" y="492.943"/><use x="407.232" xlink:href="#A" y="491.804"/><use x="416.1" xlink:href="#A" y="491.217"/><use x="424.969" xlink:href="#A" y="490.194"/><use x="433.838" xlink:href="#A" y="489.73"/><use x="442.707" xlink:href="#A" y="488.922"/><use x="451.575" xlink:href="#A" y="488.106"/><use x="460.444" xlink:href="#A" y="487.053"/><use x="469.313" xlink:href="#A" y="486.103"/><use x="478.181" xlink:href="#A" y="485.415"/><use x="487.05" xlink:href="#A" y="484.341"/><use x="495.919" xlink:href="#A" y="483.396"/><use x="504.788" xlink:href="#A" y="482.702"/><use x="513.656" xlink:href="#A" y="481.007"/><use x="522.525" xlink:href="#A" y="479.685"/><use x="531.394" xlink:href="#A" y="478.349"/></g></g><g stroke="#9467bd"><path clip-path="url(#T)" d="M-1 505.936h106.695l8.869-.002h8.868l8.87-.003h8.868l8.869-.005 8.868-.003 8.869-.004 8.869-.015 8.868-.004 8.87-.015 8.868-.008 8.869-.027 8.868-.031 8.87-.04 8.868-.075 8.869-.07 8.868-.086 8.869-.144 8.869-.189 8.868-.235 8.87-.409 8.868-.42 8.869-.374 8.868-.445 8.87-.549 8.868-.61 8.869-.795 8.868-.955 8.869-.99 8.869-1.413 8.868-.868 8.87-1.16 8.868-1.273 8.869-1.31 8.868-1.262 8.87-1.289 8.868-1.215 8.869-.895 8.868-1.015 8.869-.823 8.869-.921 8.868-1.108 8.87-1.19 8.868-1.262 8.869-.78 8.868-.722 8.87-.821 8.868-.595" fill="none" stroke-linecap="square" stroke-width="1.5"/><g clip-path="url(#T)" fill="#9467bd"><use x="-1" xlink:href="#B" y="505.936"/><use x="-.73" xlink:href="#B" y="505.936"/><use x="8.139" xlink:href="#B" y="505.936"/><use x="17.008" xlink:href="#B" y="505.936"/><use x="25.876" xlink:href="#B" y="505.936"/><use x="34.745" xlink:href="#B" y="505.936"/><use x="43.614" xlink:href="#B" y="505.936"/><use x="52.483" xlink:href="#B" y="505.936"/><use x="61.351" xlink:href="#B" y="505.936"/><use x="70.22" xlink:href="#B" y="505.936"/><use x="79.089" xlink:href="#B" y="505.936"/><use x="87.957" xlink:href="#B" y="505.936"/><use x="96.826" xlink:href="#B" y="505.936"/><use x="105.695" xlink:href="#B" y="505.936"/><use x="114.564" xlink:href="#B" y="505.934"/><use x="123.432" xlink:href="#B" y="505.934"/><use x="132.301" xlink:href="#B" y="505.931"/><use x="141.17" xlink:href="#B" y="505.93"/><use x="150.039" xlink:href="#B" y="505.926"/><use x="158.907" xlink:href="#B" y="505.923"/><use x="167.776" xlink:href="#B" y="505.919"/><use x="176.645" xlink:href="#B" y="505.904"/><use x="185.513" xlink:href="#B" y="505.9"/><use x="194.382" xlink:href="#B" y="505.885"/><use x="203.251" xlink:href="#B" y="505.877"/><use x="212.12" xlink:href="#B" y="505.85"/><use x="220.988" xlink:href="#B" y="505.819"/><use x="229.857" xlink:href="#B" y="505.778"/><use x="238.726" xlink:href="#B" y="505.704"/><use x="247.595" xlink:href="#B" y="505.633"/><use x="256.463" xlink:href="#B" y="505.548"/><use x="265.332" xlink:href="#B" y="505.404"/><use x="274.201" xlink:href="#B" y="505.215"/><use x="283.069" xlink:href="#B" y="504.98"/><use x="291.938" xlink:href="#B" y="504.571"/><use x="300.807" xlink:href="#B" y="504.152"/><use x="309.676" xlink:href="#B" y="503.777"/><use x="318.544" xlink:href="#B" y="503.332"/><use x="327.413" xlink:href="#B" y="502.783"/><use x="336.282" xlink:href="#B" y="502.173"/><use x="345.151" xlink:href="#B" y="501.378"/><use x="354.019" xlink:href="#B" y="500.423"/><use x="362.888" xlink:href="#B" y="499.433"/><use x="371.757" xlink:href="#B" y="498.02"/><use x="380.625" xlink:href="#B" y="497.152"/><use x="389.494" xlink:href="#B" y="495.992"/><use x="398.363" xlink:href="#B" y="494.719"/><use x="407.232" xlink:href="#B" y="493.408"/><use x="416.1" xlink:href="#B" y="492.147"/><use x="424.969" xlink:href="#B" y="490.858"/><use x="433.838" xlink:href="#B" y="489.643"/><use x="442.707" xlink:href="#B" y="488.748"/><use x="451.575" xlink:href="#B" y="487.733"/><use x="460.444" xlink:href="#B" y="486.91"/><use x="469.313" xlink:href="#B" y="485.989"/><use x="478.181" xlink:href="#B" y="484.881"/><use x="487.05" xlink:href="#B" y="483.69"/><use x="495.919" xlink:href="#B" y="482.429"/><use x="504.788" xlink:href="#B" y="481.648"/><use x="513.656" xlink:href="#B" y="480.927"/><use x="522.525" xlink:href="#B" y="480.106"/><use x="531.394" xlink:href="#B" y="479.511"/></g></g><path clip-path="url(#T)" d="M531.394 318.649l8.869-3.785 8.868-3.861 8.869-3.94" fill="none" stroke="#1f77b4" stroke-dasharray="1.5 2.475" stroke-width="1.5"/><path clip-path="url(#T)" d="M531.394 436.233l8.869-2.68 8.868-2.784 8.869-2.89" fill="none" stroke="#ff7f0e" stroke-dasharray="1.5 2.475" stroke-width="1.5"/><path clip-path="url(#T)" d="M531.394 474.632l8.869-1.389 8.868-1.451 8.869-1.515" fill="none" stroke="#2ca02c" stroke-dasharray="1.5 2.475" stroke-width="1.5"/><path clip-path="url(#T)" d="M531.394 478.349l8.869-1.555 8.868-1.643 8.869-1.734" fill="none" stroke="#d62728" stroke-dasharray="1.5 2.475" stroke-width="1.5"/><path clip-path="url(#T)" d="M531.394 479.511l8.869-.738 8.868-.76 8.869-.78" fill="none" stroke="#9467bd" stroke-dasharray="1.5 2.475" stroke-width="1.5"/><path d="M70.22 505.928V297.12M558 505.928V297.12M70.22 505.928H558M70.22 297.12H558" fill="none" stroke="#000" stroke-linecap="square" stroke-linejoin="miter" stroke-width=".8"/><g><path d="M77.22 378.51h220.684q2 0 2-2v-72.39q0-2-2-2H77.22q-2 0-2 2v72.39q0 2 2 2z" fill="#fff" opacity=".8" stroke="#ccc" stroke-linejoin="miter"/><path d="M79.22 310.218h20" fill="none" stroke="#1f77b4" stroke-linecap="square" stroke-width="1.5"/><use fill="#1f77b4" stroke="#1f77b4" x="89.22" xlink:href="#y" y="310.218"/><g transform="matrix(.1 0 0 -.1 107.22 313.718)"><use xlink:href="#U"/><use x="74.805" xlink:href="#x"/><use x="136.328" xlink:href="#v"/><path d="M249.7 72.906h10.609l20.203-29.984 20.078 29.984h10.594L285.402 34.72V0h-9.906v34.719z"/><use x="310.783" xlink:href="#s"/><use x="371.965" xlink:href="#e"/><path d="M422.156 75.984h9.031V31.11L458 54.687h11.469l-29-25.578L470.703 0h-11.719l-27.796 26.703V0h-9.032z"/><use x="502.775" xlink:href="#M"/><use x="541.789" xlink:href="#u"/><use x="605.266" xlink:href="#s"/><use x="666.447" xlink:href="#N"/><use x="729.826" xlink:href="#O"/><use x="793.303" xlink:href="#t"/><use x="821.086" xlink:href="#x"/><use x="882.609" xlink:href="#I"/><use x="966.496" xlink:href="#w"/><use x="994.279" xlink:href="#P"/><use x="1089.445" xlink:href="#n"/><use x="1153.068" xlink:href="#p"/><use x="1216.691" xlink:href="#Q"/><use x="1248.479" xlink:href="#m"/><use x="1343.889" xlink:href="#u"/><use x="1407.365" xlink:href="#d"/><use x="1468.645" xlink:href="#R"/><use x="1527.824" xlink:href="#I"/><use x="1579.924" xlink:href="#S"/></g><path d="M79.22 324.897h20" fill="none" stroke="#ff7f0e" stroke-linecap="square" stroke-width="1.5"/><use fill="#ff7f0e" stroke="#ff7f0e" x="89.22" xlink:href="#z" y="324.897"/><g transform="matrix(.1 0 0 -.1 107.22 328.397)"><use xlink:href="#U"/><use x="74.805" xlink:href="#x"/><use x="136.328" xlink:href="#v"/><path d="M259.715 72.906h9.86V5.078q0-13.187-5-19.14-5-5.954-16.095-5.954h-3.75v8.297h3.079q6.53 0 9.218 3.672 2.688 3.656 2.688 13.125z"/><use x="279.395" xlink:href="#x"/><use x="340.918" xlink:href="#e"/><use x="382.031" xlink:href="#I"/><use x="434.131" xlink:href="#x"/><use x="495.654" xlink:href="#R"/><use x="586.621" xlink:href="#M"/><use x="625.635" xlink:href="#u"/><use x="689.111" xlink:href="#s"/><use x="750.293" xlink:href="#N"/><use x="813.672" xlink:href="#O"/><use x="877.148" xlink:href="#t"/><use x="904.932" xlink:href="#x"/><use x="966.455" xlink:href="#I"/><use x="1050.342" xlink:href="#w"/><use x="1078.125" xlink:href="#P"/><use x="1173.291" xlink:href="#l"/><use x="1236.914" xlink:href="#r"/><use x="1300.537" xlink:href="#Q"/><use x="1332.324" xlink:href="#p"/><use x="1427.734" xlink:href="#u"/><use x="1491.211" xlink:href="#d"/><use x="1552.49" xlink:href="#R"/><use x="1611.67" xlink:href="#I"/><use x="1663.77" xlink:href="#S"/></g><path d="M79.22 339.575h20" fill="none" stroke="#2ca02c" stroke-linecap="square" stroke-width="1.5"/><g transform="matrix(.1 0 0 -.1 107.22 343.075)"><use xlink:href="#c"/><use x="86.279" xlink:href="#d"/><use x="147.559" xlink:href="#I"/><use x="199.658" xlink:href="#I"/><use x="251.758" xlink:href="#d"/><use x="313.037" xlink:href="#C"/><path d="M422.908 33.016V0h-8.984v32.719q0 7.765-3.031 11.61-3.032 3.858-9.079 3.858-7.28 0-11.484-4.64-4.203-4.625-4.203-12.64V0h-9.031v75.984h9.031V46.188q3.234 4.937 7.594 7.374Q398.096 56 403.814 56q9.422 0 14.25-5.828 4.844-5.828 4.844-17.156z"/><use x="431.396" xlink:href="#N"/><use x="494.775" xlink:href="#I"/><use x="546.875" xlink:href="#x"/><use x="608.398" xlink:href="#D"/><use x="647.607" xlink:href="#D"/><use x="686.816" xlink:href="#I"/><use x="770.703" xlink:href="#M"/><use x="809.717" xlink:href="#u"/><use x="873.193" xlink:href="#s"/><use x="934.375" xlink:href="#N"/><use x="997.754" xlink:href="#O"/><use x="1061.23" xlink:href="#t"/><use x="1089.014" xlink:href="#x"/><use x="1150.537" xlink:href="#I"/><use x="1234.424" xlink:href="#w"/><use x="1262.207" xlink:href="#P"/><use x="1357.373" xlink:href="#l"/><use x="1420.996" xlink:href="#m"/><use x="1484.619" xlink:href="#Q"/><use x="1516.406" xlink:href="#g"/><use x="1611.816" xlink:href="#u"/><use x="1675.293" xlink:href="#d"/><use x="1736.572" xlink:href="#R"/><use x="1795.752" xlink:href="#I"/><use x="1847.852" xlink:href="#S"/></g><path d="M79.22 354.253h20" fill="none" stroke="#d62728" stroke-linecap="square" stroke-width="1.5"/><use fill="#d62728" stroke="#d62728" x="89.22" xlink:href="#A" y="354.253"/><g transform="matrix(.1 0 0 -.1 107.22 357.753)"><use xlink:href="#F"/><use x="69.824" xlink:href="#d"/><use x="131.104" xlink:href="#t"/><use x="158.887" xlink:href="#w"/><use x="186.67" xlink:href="#J"/><use x="221.875" xlink:href="#s"/><use x="283.057" xlink:href="#e"/><use x="324.154" xlink:href="#P"/><use x="387.533" xlink:href="#w"/><use x="415.316" xlink:href="#d"/><use x="508.383" xlink:href="#M"/><use x="547.396" xlink:href="#u"/><use x="610.873" xlink:href="#s"/><use x="672.055" xlink:href="#N"/><use x="735.434" xlink:href="#O"/><use x="798.91" xlink:href="#t"/><use x="826.693" xlink:href="#x"/><use x="888.217" xlink:href="#I"/><use x="972.104" xlink:href="#w"/><use x="999.887" xlink:href="#P"/><use x="1095.053" xlink:href="#l"/><use x="1158.676" xlink:href="#f"/><use x="1222.299" xlink:href="#Q"/><use x="1254.086" xlink:href="#m"/><use x="1349.496" xlink:href="#u"/><use x="1412.973" xlink:href="#d"/><use x="1474.252" xlink:href="#R"/><use x="1533.432" xlink:href="#I"/><use x="1585.531" xlink:href="#S"/></g><path d="M79.22 368.93h20" fill="none" stroke="#9467bd" stroke-linecap="square" stroke-width="1.5"/><use fill="#9467bd" stroke="#9467bd" x="89.22" xlink:href="#B" y="368.931"/><g transform="matrix(.1 0 0 -.1 107.22 372.43)"><path d="M19.672 64.797v-27.39h12.406q6.89 0 10.64 3.562 3.766 3.562 3.766 10.156 0 6.547-3.765 10.11-3.75 3.562-10.64 3.562zm-9.86 8.11h22.266q12.266 0 18.531-5.548 6.282-5.546 6.282-16.234 0-10.797-6.282-16.313-6.265-5.515-18.53-5.515H19.671V0h-9.86z"/><use x="60.256" xlink:href="#x"/><use x="121.779" xlink:href="#P"/><use x="185.158" xlink:href="#P"/><use x="248.537" xlink:href="#I"/><use x="300.637" xlink:href="#R"/><use x="359.816" xlink:href="#t"/><use x="387.6" xlink:href="#E"/><use x="446.779" xlink:href="#d"/><use x="508.059" xlink:href="#P"/><use x="571.438" xlink:href="#w"/><use x="599.221" xlink:href="#d"/><use x="692.287" xlink:href="#M"/><use x="731.301" xlink:href="#u"/><use x="794.777" xlink:href="#s"/><use x="855.959" xlink:href="#N"/><use x="919.338" xlink:href="#O"/><use x="982.814" xlink:href="#t"/><use x="1010.598" xlink:href="#x"/><use x="1072.121" xlink:href="#I"/><use x="1156.008" xlink:href="#w"/><use x="1183.791" xlink:href="#P"/><use x="1278.957" xlink:href="#f"/><use x="1342.58" xlink:href="#q"/><use x="1406.203" xlink:href="#Q"/><use x="1437.99" xlink:href="#l"/><use x="1533.4" xlink:href="#u"/><use x="1596.877" xlink:href="#d"/><use x="1658.156" xlink:href="#R"/><use x="1717.336" xlink:href="#I"/><use x="1769.436" xlink:href="#S"/></g></g></g></svg>