<svg height="758.4" stroke-linejoin="round" viewBox="0 0 568.8 568.8" width="758.4" xmlns="http://www.w3.org/2000/svg" xmlns:xlink="http://www.w3.org/1999/xlink"><defs><path id="x" d="M4.203 54.688h8.985l11.234-42.672 11.172 42.672h10.593l11.235-42.672 11.187 42.672h8.985L63.28 0H52.688L40.922 44.828 29.109 0H18.5z" stroke-linejoin="round"/><path id="V" d="M9.813 72.906h13.28l32.329-60.984v60.984h9.562V0h-13.28L19.39 60.984V0H9.813z" stroke-linejoin="round"/><path id="b" d="M0 0v3.5" stroke="#000" stroke-linejoin="round" stroke-width=".8"/><path id="c" d="M9.813 72.906h14.703l18.593-49.61 18.703 49.61h14.704V0H66.89v64.016l-18.797-50h-9.907l-18.796 50V0H9.813z" stroke-linejoin="round"/><path id="d" d="M34.281 27.484q-10.89 0-15.093-2.484-4.204-2.484-4.204-8.5 0-4.781 3.157-7.594 3.156-2.797 8.562-2.797 7.485 0 12 5.297 4.516 5.297 4.516 14.078v2zm17.922 3.72V0H43.22v8.297Q40.14 3.328 35.547.953q-4.594-2.375-11.234-2.375-8.391 0-13.36 4.719Q6 8.016 6 15.922q0 9.219 6.172 13.906 6.187 4.688 18.437 4.688h12.61v.89q0 6.203-4.078 9.594-4.078 3.39-11.453 3.39-4.688 0-9.141-1.124-4.438-1.125-8.531-3.375v8.312q4.921 1.906 9.562 2.844 4.64.953 9.031.953 11.875 0 17.735-6.156 5.86-6.14 5.86-18.64z" stroke-linejoin="round"/><path id="e" d="M41.11 46.297q-1.516.875-3.297 1.281Q36.03 48 33.89 48q-7.625 0-11.703-4.953-4.079-4.953-4.079-14.234V0H9.08v54.688h9.03v-8.5q2.844 4.984 7.375 7.39Q30.031 56 36.531 56q.922 0 2.047-.125 1.125-.11 2.484-.36z" stroke-linejoin="round"/><path id="f" d="M19.188 8.297h34.421V0H7.33v8.297q5.609 5.812 15.296 15.594 9.703 9.797 12.188 12.64 4.734 5.313 6.609 9 1.89 3.688 1.89 7.25 0 5.813-4.078 9.469-4.078 3.672-10.625 3.672-4.64 0-9.797-1.61-5.14-1.609-11-4.89v9.969Q13.767 71.78 18.938 73q5.188 1.219 9.485 1.219 11.328 0 18.062-5.672 6.735-5.656 6.735-15.125 0-4.5-1.688-8.531-1.672-4.016-6.125-9.485-1.218-1.422-7.765-8.187-6.532-6.766-18.453-18.922z" stroke-linejoin="round"/><path id="g" d="M31.781 66.406q-7.61 0-11.453-7.5Q16.5 51.422 16.5 36.375q0-14.984 3.828-22.484 3.844-7.5 11.453-7.5 7.672 0 11.5 7.5 3.844 7.5 3.844 22.484 0 15.047-3.844 22.531-3.828 7.5-11.5 7.5zm0 7.813q12.266 0 18.735-9.703 6.468-9.688 6.468-28.141 0-18.406-6.468-28.11-6.47-9.687-18.735-9.687-12.25 0-18.718 9.688-6.47 9.703-6.47 28.109 0 18.453 6.47 28.14Q19.53 74.22 31.78 74.22z" stroke-linejoin="round"/><path id="h" d="M34.188 63.188L20.797 26.906h26.812zm-5.579 9.718h11.188L67.578 0h-10.25l-6.64 18.703h-32.86L11.188 0H.78z" stroke-linejoin="round"/><path id="i" d="M18.11 8.203v-29H9.077v75.484h9.031v-8.296q2.844 4.875 7.157 7.234Q29.594 56 35.594 56q9.968 0 16.187-7.906 6.235-7.907 6.235-20.797T51.78 6.484q-6.218-7.906-16.187-7.906-6 0-10.328 2.375-4.313 2.375-7.157 7.25zm30.578 19.094q0 9.906-4.079 15.547-4.078 5.64-11.203 5.64-7.14 0-11.218-5.64-4.079-5.64-4.079-15.547 0-9.906 4.078-15.547 4.079-5.64 11.22-5.64 7.124 0 11.202 5.64t4.078 15.547z" stroke-linejoin="round"/><path id="j" d="M32.172-5.078q-3.797-9.766-7.422-12.735-3.61-2.984-9.656-2.984H7.906v7.516h5.282q3.703 0 5.75 1.765Q21-9.766 23.483-3.219l1.61 4.094-22.11 53.813H12.5l17.094-42.766 17.093 42.766h9.516z" stroke-linejoin="round"/><path id="k" d="M0 0v2" stroke="#000" stroke-linejoin="round" stroke-width=".6"/><path id="l" d="M10.984 1.516V10.5q3.72-1.766 7.516-2.688 3.813-.921 7.484-.921 9.766 0 14.907 6.562 5.156 6.563 5.89 19.953-2.828-4.203-7.187-6.453-4.344-2.25-9.61-2.25-10.937 0-17.312 6.61-6.375 6.625-6.375 18.109 0 11.219 6.64 18 6.641 6.797 17.672 6.797 12.657 0 19.313-9.703 6.672-9.688 6.672-28.141 0-17.234-8.188-27.516Q40.234-1.42 26.422-1.42q-3.719 0-7.531.734-3.797.734-7.907 2.203zM30.61 32.422q6.641 0 10.516 4.531 3.89 4.547 3.89 12.469 0 7.86-3.89 12.422-3.875 4.562-10.516 4.562-6.64 0-10.515-4.562-3.875-4.563-3.875-12.422 0-7.922 3.875-12.469 3.875-4.531 10.515-4.531z" stroke-linejoin="round"/><path id="m" d="M12.406 8.297h16.11v55.625l-17.532-3.516v8.985l17.438 3.515h9.86V8.296H54.39V0H12.406z" stroke-linejoin="round"/><path id="n" d="M33.016 40.375q-6.641 0-10.532-4.547-3.875-4.531-3.875-12.437 0-7.86 3.875-12.438 3.891-4.562 10.532-4.562 6.64 0 10.515 4.562 3.875 4.578 3.875 12.438 0 7.906-3.875 12.437-3.875 4.547-10.515 4.547zm19.578 30.922v-8.984q-3.719 1.75-7.5 2.671-3.782.938-7.5.938-9.766 0-14.922-6.594-5.14-6.594-5.875-19.922 2.875 4.25 7.219 6.516 4.359 2.266 9.578 2.266 10.984 0 17.36-6.672 6.374-6.657 6.374-18.125 0-11.235-6.64-18.032-6.641-6.78-17.672-6.78-12.657 0-19.344 9.687-6.688 9.703-6.688 28.109 0 17.281 8.204 27.563 8.203 10.28 22.015 10.28 3.719 0 7.5-.734t7.89-2.187z" stroke-linejoin="round"/><path id="o" d="M40.578 39.313Q47.656 37.797 51.625 33q3.984-4.781 3.984-11.813 0-10.78-7.422-16.703-7.421-5.906-21.093-5.906-4.578 0-9.438.906-4.86.907-10.031 2.72v9.515q4.094-2.39 8.969-3.61 4.89-1.218 10.218-1.218 9.266 0 14.125 3.656 4.86 3.656 4.86 10.64 0 6.454-4.516 10.079-4.515 3.64-12.562 3.64h-8.5v8.11h8.89q7.266 0 11.125 2.906 3.86 2.906 3.86 8.375 0 5.61-3.985 8.61-3.968 3.015-11.39 3.015-4.063 0-8.703-.89-4.641-.876-10.203-2.72v8.782q5.624 1.562 10.53 2.344 4.907.78 9.25.78 11.235 0 17.766-5.109 6.547-5.093 6.547-13.78 0-6.063-3.468-10.235-3.47-4.172-9.86-5.782z" stroke-linejoin="round"/><path id="p" d="M8.203 72.906h46.875v-4.203L28.61 0H18.312L43.22 64.594H8.203z" stroke-linejoin="round"/><path id="q" d="M0 0h-3.5" stroke="#000" stroke-linejoin="round" stroke-width=".8"/><path id="r" d="M37.797 64.313L12.89 25.39h24.906zm-2.594 8.593H47.61V25.391h10.407v-8.203H47.609V0h-9.812v17.188H4.89v9.515z" stroke-linejoin="round"/><path id="s" d="M10.797 72.906h38.719v-8.312H19.828v-17.86q2.14.735 4.281 1.094 2.157.36 4.313.36 12.203 0 19.328-6.688 7.14-6.688 7.14-18.11 0-11.765-7.328-18.296-7.328-6.516-20.656-6.516-4.593 0-9.36.781-4.75.782-9.827 2.344v9.922q4.39-2.39 9.078-3.563 4.687-1.171 9.906-1.171 8.453 0 13.375 4.437 4.938 4.438 4.938 12.063 0 7.609-4.938 12.047-4.922 4.453-13.375 4.453-3.953 0-7.89-.875-3.922-.875-8.016-2.735z" stroke-linejoin="round"/><path id="t" d="M0 0h-2" stroke="#000" stroke-linejoin="round" stroke-width=".6"/><path id="u" d="M30.61 48.39q-7.22 0-11.422-5.64-4.204-5.64-4.204-15.453 0-9.813 4.172-15.453 4.188-5.64 11.453-5.64 7.188 0 11.375 5.655 4.203 5.672 4.203 15.438 0 9.719-4.203 15.406-4.187 5.688-11.375 5.688zm0 7.61q11.718 0 18.406-7.625 6.703-7.61 6.703-21.078 0-13.422-6.703-21.078-6.688-7.64-18.407-7.64-11.765 0-18.437 7.64-6.656 7.656-6.656 21.078 0 13.469 6.656 21.078Q18.844 56 30.609 56z" stroke-linejoin="round"/><path id="v" d="M9.422 75.984h8.984V0H9.422z" stroke-linejoin="round"/><path id="w" d="M45.406 46.39v29.594h8.985V0h-8.985v8.203Q42.578 3.328 38.25.953q-4.313-2.375-10.375-2.375-9.906 0-16.14 7.906-6.22 7.922-6.22 20.813 0 12.89 6.22 20.797Q17.968 56 27.874 56q6.063 0 10.375-2.375 4.328-2.36 7.156-7.234zm-30.61-19.093q0-9.906 4.079-15.547 4.078-5.64 11.203-5.64 7.125 0 11.219 5.64 4.11 5.64 4.11 15.547 0 9.906-4.11 15.547-4.094 5.64-11.219 5.64-7.125 0-11.203-5.64-4.078-5.64-4.078-15.547z" stroke-linejoin="round"/><path id="T" d="M8.016 75.875h7.812q7.313-11.516 10.953-22.563 3.64-11.03 3.64-21.921 0-10.938-3.64-22.016-3.64-11.078-10.953-22.563H8.016Q14.5-2 17.703 9.063q3.203 11.063 3.203 22.329 0 11.28-3.203 22.265-3.203 11-9.687 22.219z" stroke-linejoin="round"/><path id="y" d="M9.422 54.688h8.984V0H9.422zm0 21.296h8.984v-11.39H9.422z" stroke-linejoin="round"/><path id="z" d="M56.203 29.594v-4.39H14.891q.593-9.282 5.593-14.142 5-4.859 13.938-4.859 5.172 0 10.031 1.266 4.86 1.265 9.656 3.812v-8.5Q49.266.734 44.187-.344 39.11-1.422 33.892-1.422q-13.094 0-20.735 7.61-7.64 7.625-7.64 20.625 0 13.421 7.25 21.296Q20.016 56 32.328 56q11.031 0 17.453-7.11 6.422-7.093 6.422-19.296zm-8.984 2.64q-.094 7.36-4.125 11.75-4.032 4.407-10.672 4.407-7.516 0-12.031-4.25-4.516-4.25-5.203-11.97z" stroke-linejoin="round"/><path id="A" d="M-3 0h6M0 3v-6" stroke="#1f77b4" stroke-linejoin="round"/><path id="B" d="M0 1.5a1.5 1.5 0 100-3 1.5 1.5 0 000 3z" stroke="#ff7f0e" stroke-linejoin="round"/><path id="C" d="M-3 0h6M0 3v-6" stroke="#d62728" stroke-linejoin="round"/><path id="D" d="M0 1.5a1.5 1.5 0 100-3 1.5 1.5 0 000 3z" stroke="#9467bd" stroke-linejoin="round"/><path id="E" d="M48.781 52.594v-8.407q-3.812 2.11-7.64 3.157-3.828 1.047-7.735 1.047-8.75 0-13.593-5.547-4.829-5.532-4.829-15.547 0-10.016 4.829-15.563 4.843-5.53 13.593-5.53 3.907 0 7.735 1.046 3.828 1.047 7.64 3.156V2.094Q45.016.344 40.984-.531q-4.015-.89-8.562-.89-12.36 0-19.64 7.765-7.266 7.765-7.266 20.953 0 13.375 7.343 21.031Q20.22 56 33.016 56q4.14 0 8.093-.86 3.953-.843 7.672-2.546z" stroke-linejoin="round"/><path id="F" d="M18.313 70.219V54.688h18.5v-6.985h-18.5V18.016q0-6.688 1.828-8.594 1.828-1.906 7.453-1.906h9.218V0h-9.218q-10.407 0-14.36 3.875-3.953 3.89-3.953 14.14v29.688H2.687v6.984h6.594V70.22z" stroke-linejoin="round"/><path id="G" d="M2.984 54.688H12.5L29.594 8.797l17.093 45.89h9.516L35.687 0H23.485z" stroke-linejoin="round"/><path id="H" d="M64.406 67.281v-10.39q-4.984 4.64-10.625 6.922-5.64 2.296-11.984 2.296-12.5 0-19.14-7.64-6.641-7.64-6.641-22.094 0-14.406 6.64-22.047 6.64-7.64 19.14-7.64 6.345 0 11.985 2.296 5.64 2.297 10.625 6.938V5.609Q59.234 2.094 53.437.33q-5.78-1.75-12.218-1.75-16.563 0-26.094 10.124-9.516 10.14-9.516 27.672 0 17.578 9.516 27.703 9.531 10.14 26.094 10.14 6.531 0 12.312-1.734 5.797-1.734 10.875-5.203z" stroke-linejoin="round"/><path id="I" d="M9.813 72.906h9.859V0h-9.86z" stroke-linejoin="round"/><path id="J" d="M4.89 31.39h26.313v-8H4.891z" stroke-linejoin="round"/><path id="K" d="M44.281 53.078v-8.5q-3.797 1.953-7.906 2.922-4.094.984-8.5.984-6.688 0-10.031-2.047-3.344-2.046-3.344-6.156 0-3.125 2.39-4.906 2.391-1.781 9.626-3.39l3.078-.688q9.562-2.047 13.593-5.781 4.032-3.735 4.032-10.422 0-7.625-6.032-12.078-6.03-4.438-16.578-4.438-4.39 0-9.156.86Q10.688.296 5.422 2v9.281q4.984-2.594 9.812-3.89 4.829-1.282 9.579-1.282 6.343 0 9.75 2.172 3.421 2.172 3.421 6.125 0 3.656-2.468 5.61-2.453 1.953-10.813 3.765l-3.125.735q-8.344 1.75-12.062 5.39-3.704 3.64-3.704 9.985 0 7.718 5.47 11.906Q16.75 56 26.811 56q4.97 0 9.36-.734 4.406-.72 8.11-2.188z" stroke-linejoin="round"/><path id="L" d="M37.11 75.984V68.5h-8.594q-4.828 0-6.72-1.953-1.874-1.953-1.874-7.031v-4.828h14.797v-6.985H19.922V0H10.89v47.703H2.297v6.984h8.594V58.5q0 9.125 4.25 13.297 4.25 4.187 13.468 4.187z" stroke-linejoin="round"/><path id="M" d="M8.688 72.906h9.921V28.61q0-11.718 4.235-16.875 4.25-5.14 13.781-5.14 9.469 0 13.719 5.14 4.25 5.157 4.25 16.875v44.297H64.5V27.391q0-14.25-7.063-21.532-7.046-7.28-20.812-7.28-13.828 0-20.89 7.28-7.047 7.282-7.047 21.532z" stroke-linejoin="round"/><path id="N" d="M53.516 70.516V60.89q-5.61 2.687-10.594 4-4.984 1.328-9.625 1.328-8.047 0-12.422-3.125t-4.375-8.89q0-4.845 2.906-7.313 2.907-2.453 11.016-3.97l5.953-1.218q11.031-2.11 16.281-7.406 5.25-5.297 5.25-14.172 0-10.61-7.11-16.078-7.093-5.469-20.812-5.469-5.172 0-11.015 1.172Q13.14.922 6.89 3.219v10.156q6-3.36 11.765-5.078 5.766-1.703 11.328-1.703 8.438 0 13.032 3.312 4.593 3.328 4.593 9.485 0 5.359-3.297 8.39-3.296 3.032-10.812 4.547L27.484 33.5q-11.03 2.188-15.968 6.875-4.922 4.688-4.922 13.047 0 9.672 6.812 15.234 6.813 5.563 18.766 5.563 5.14 0 10.453-.938 5.328-.922 10.89-2.765z" stroke-linejoin="round"/><path id="O" d="M31 75.875q-6.531-11.219-9.719-22.219-3.172-10.984-3.172-22.265 0-11.266 3.203-22.328Q24.517-2 31-13.188h-7.813Q15.875-1.704 12.235 9.375q-3.64 11.078-3.64 22.016 0 10.89 3.61 21.922 3.624 11.046 10.983 22.562z" stroke-linejoin="round"/><path id="P" d="M8.5 21.578v33.11h8.984V21.922q0-7.766 3.016-11.656 3.031-3.875 9.094-3.875 7.265 0 11.484 4.64 4.234 4.64 4.234 12.656v31h8.985V0h-8.984v8.406Q42.047 3.422 37.718 1q-4.313-2.422-10.032-2.422-9.421 0-14.312 5.86Q8.5 10.296 8.5 21.578z" stroke-linejoin="round"/><path id="Q" d="M48.688 27.297q0 9.906-4.079 15.547-4.078 5.64-11.203 5.64-7.14 0-11.218-5.64-4.079-5.64-4.079-15.547 0-9.906 4.078-15.547 4.079-5.64 11.22-5.64 7.124 0 11.202 5.64t4.078 15.547zM18.108 46.39q2.844 4.875 7.157 7.234Q29.594 56 35.594 56q9.968 0 16.187-7.906 6.235-7.907 6.235-20.797T51.78 6.484q-6.218-7.906-16.187-7.906-6 0-10.328 2.375-4.313 2.375-7.157 7.25V0H9.08v75.984h9.03z" stroke-linejoin="round"/><path id="R" d="M54.89 33.016V0h-8.984v32.719q0 7.765-3.031 11.61-3.031 3.858-9.078 3.858-7.281 0-11.484-4.64-4.204-4.625-4.204-12.64V0H9.08v54.688h9.03v-8.5q3.235 4.937 7.594 7.374Q30.078 56 35.797 56q9.422 0 14.25-5.828 4.844-5.828 4.844-17.156z" stroke-linejoin="round"/><path id="S" d="M10.688 12.406H21V0H10.687z" stroke-linejoin="round"/><clipPath id="U" stroke-linejoin="round"><path d="M50.15 297.12h504.565v208.808H50.15z"/></clipPath><clipPath id="a" stroke-linejoin="round"><path d="M50.15 25.44h504.565v208.808H50.15z"/></clipPath></defs><path d="M0 568.8h568.8V0H0z" fill="#fff"/><path d="M50.15 234.248h504.565V25.44H50.15z" fill="#fff"/><path clip-path="url(#a)" d="M50.15 234.248V25.44" fill="none" stroke="#b0b0b0" stroke-linecap="square" stroke-width=".8"/><use stroke="#000" stroke-width=".8" x="50.15" xlink:href="#b" y="234.248"/><g transform="matrix(.1 0 0 -.1 40.717 271.242)"><use xlink:href="#c"/><use x="86.279" xlink:href="#d"/><use x="147.559" xlink:href="#e"/></g><g transform="matrix(.1 0 0 -.1 37.425 282.44)"><use xlink:href="#f"/><use x="63.623" xlink:href="#g"/><use x="127.246" xlink:href="#f"/><use x="190.869" xlink:href="#g"/></g><path clip-path="url(#a)" d="M302.433 234.248V25.44" fill="none" stroke="#b0b0b0" stroke-linecap="square" stroke-width=".8"/><use stroke="#000" stroke-width=".8" x="302.433" xlink:href="#b" y="234.248"/><g transform="matrix(.1 0 0 -.1 293.783 271.242)"><use xlink:href="#h"/><use x="68.408" xlink:href="#i"/><use x="131.885" xlink:href="#e"/></g><path clip-path="url(#a)" d="M546.577 234.248V25.44" fill="none" stroke="#b0b0b0" stroke-linecap="square" stroke-width=".8"/><use stroke="#000" stroke-width=".8" x="546.577" xlink:href="#b" y="234.248"/><g transform="matrix(.1 0 0 -.1 536.24 271.242)"><use xlink:href="#c"/><use x="86.279" xlink:href="#d"/><use x="147.559" xlink:href="#j"/></g><g stroke-width=".8"><path clip-path="url(#a)" d="M554.715 234.248V25.44" fill="none" stroke="#b0b0b0" stroke-linecap="square"/><use stroke="#000" x="554.715" xlink:href="#b" y="234.248"/></g><use stroke="#000" stroke-width=".6" x="58.288" xlink:href="#k" y="234.248"/><g transform="matrix(.1 0 0 -.1 51.926 247.246)"><use xlink:href="#g"/><use x="63.623" xlink:href="#f"/></g><g stroke="#000" stroke-width=".6"><use x="66.426" xlink:href="#k" y="234.248"/><use x="74.565" xlink:href="#k" y="234.248"/><use x="82.703" xlink:href="#k" y="234.248"/><use x="90.841" xlink:href="#k" y="234.248"/><use x="98.979" xlink:href="#k" y="234.248"/><use x="107.117" xlink:href="#k" y="234.248"/></g><use stroke="#000" stroke-width=".6" x="115.255" xlink:href="#k" y="234.248"/><g transform="matrix(.1 0 0 -.1 108.893 247.246)"><use xlink:href="#g"/><use x="63.623" xlink:href="#l"/></g><use stroke="#000" stroke-width=".6" x="123.393" xlink:href="#k" y="234.248"/><use stroke="#000" stroke-width=".6" x="131.532" xlink:href="#k" y="234.248"/><use stroke="#000" stroke-width=".6" x="139.67" xlink:href="#k" y="234.248"/><use stroke="#000" stroke-width=".6" x="147.808" xlink:href="#k" y="234.248"/><use stroke="#000" stroke-width=".6" x="155.946" xlink:href="#k" y="234.248"/><use stroke="#000" stroke-width=".6" x="164.084" xlink:href="#k" y="234.248"/><use stroke="#000" stroke-width=".6" x="172.222" xlink:href="#k" y="234.248"/><g transform="matrix(.1 0 0 -.1 165.86 247.246)"><use xlink:href="#m"/><use x="63.623" xlink:href="#n"/></g><use stroke="#000" stroke-width=".6" x="180.36" xlink:href="#k" y="234.248"/><use stroke="#000" stroke-width=".6" x="188.499" xlink:href="#k" y="234.248"/><use stroke="#000" stroke-width=".6" x="196.637" xlink:href="#k" y="234.248"/><use stroke="#000" stroke-width=".6" x="204.775" xlink:href="#k" y="234.248"/><use stroke="#000" stroke-width=".6" x="212.913" xlink:href="#k" y="234.248"/><use stroke="#000" stroke-width=".6" x="221.051" xlink:href="#k" y="234.248"/><use stroke="#000" stroke-width=".6" x="229.189" xlink:href="#k" y="234.248"/><g transform="matrix(.1 0 0 -.1 222.827 247.246)"><use xlink:href="#f"/><use x="63.623" xlink:href="#o"/></g><use stroke="#000" stroke-width=".6" x="237.327" xlink:href="#k" y="234.248"/><use stroke="#000" stroke-width=".6" x="245.466" xlink:href="#k" y="234.248"/><use stroke="#000" stroke-width=".6" x="253.604" xlink:href="#k" y="234.248"/><use stroke="#000" stroke-width=".6" x="261.742" xlink:href="#k" y="234.248"/><use stroke="#000" stroke-width=".6" x="269.88" xlink:href="#k" y="234.248"/><use stroke="#000" stroke-width=".6" x="278.018" xlink:href="#k" y="234.248"/><use stroke="#000" stroke-width=".6" x="286.156" xlink:href="#k" y="234.248"/><g transform="matrix(.1 0 0 -.1 279.794 247.246)"><use xlink:href="#o"/><use x="63.623" xlink:href="#g"/></g><use stroke="#000" stroke-width=".6" x="294.294" xlink:href="#k" y="234.248"/><use stroke="#000" stroke-width=".6" x="310.571" xlink:href="#k" y="234.248"/><use stroke="#000" stroke-width=".6" x="318.709" xlink:href="#k" y="234.248"/><use stroke="#000" stroke-width=".6" x="326.847" xlink:href="#k" y="234.248"/><use stroke="#000" stroke-width=".6" x="334.985" xlink:href="#k" y="234.248"/><use stroke="#000" stroke-width=".6" x="343.123" xlink:href="#k" y="234.248"/><g transform="matrix(.1 0 0 -.1 336.76 247.246)"><use xlink:href="#g"/><use x="63.623" xlink:href="#n"/></g><use stroke="#000" stroke-width=".6" x="351.261" xlink:href="#k" y="234.248"/><use stroke="#000" stroke-width=".6" x="359.4" xlink:href="#k" y="234.248"/><use stroke="#000" stroke-width=".6" x="367.538" xlink:href="#k" y="234.248"/><use stroke="#000" stroke-width=".6" x="375.676" xlink:href="#k" y="234.248"/><use stroke="#000" stroke-width=".6" x="383.814" xlink:href="#k" y="234.248"/><use stroke="#000" stroke-width=".6" x="391.952" xlink:href="#k" y="234.248"/><use stroke="#000" stroke-width=".6" x="400.09" xlink:href="#k" y="234.248"/><g transform="matrix(.1 0 0 -.1 393.728 247.246)"><use xlink:href="#m"/><use x="63.623" xlink:href="#o"/></g><use stroke="#000" stroke-width=".6" x="408.228" xlink:href="#k" y="234.248"/><use stroke="#000" stroke-width=".6" x="416.367" xlink:href="#k" y="234.248"/><use stroke="#000" stroke-width=".6" x="424.505" xlink:href="#k" y="234.248"/><use stroke="#000" stroke-width=".6" x="432.643" xlink:href="#k" y="234.248"/><use stroke="#000" stroke-width=".6" x="440.781" xlink:href="#k" y="234.248"/><use stroke="#000" stroke-width=".6" x="448.919" xlink:href="#k" y="234.248"/><g><use stroke="#000" stroke-width=".6" x="457.057" xlink:href="#k" y="234.248"/><g transform="matrix(.1 0 0 -.1 450.695 247.246)"><use xlink:href="#f"/><use x="63.623" xlink:href="#g"/></g></g><use stroke="#000" stroke-width=".6" x="465.195" xlink:href="#k" y="234.248"/><use stroke="#000" stroke-width=".6" x="473.334" xlink:href="#k" y="234.248"/><use stroke="#000" stroke-width=".6" x="481.472" xlink:href="#k" y="234.248"/><use stroke="#000" stroke-width=".6" x="489.61" xlink:href="#k" y="234.248"/><use stroke="#000" stroke-width=".6" x="497.748" xlink:href="#k" y="234.248"/><use stroke="#000" stroke-width=".6" x="505.886" xlink:href="#k" y="234.248"/><g><use stroke="#000" stroke-width=".6" x="514.024" xlink:href="#k" y="234.248"/><g transform="matrix(.1 0 0 -.1 507.662 247.246)"><use xlink:href="#f"/><use x="63.623" xlink:href="#p"/></g></g><use stroke="#000" stroke-width=".6" x="522.162" xlink:href="#k" y="234.248"/><use stroke="#000" stroke-width=".6" x="530.301" xlink:href="#k" y="234.248"/><use stroke="#000" stroke-width=".6" x="538.439" xlink:href="#k" y="234.248"/><g><path clip-path="url(#a)" d="M50.15 234.248h504.565" fill="none" stroke="#b0b0b0" stroke-linecap="square" stroke-width=".8"/><use stroke="#000" stroke-width=".8" x="50.15" xlink:href="#q" y="234.248"/><g transform="matrix(.1 0 0 -.1 25.55 238.047)"><use transform="translate(0 .684)" xlink:href="#m"/><use transform="translate(63.623 .684)" xlink:href="#g"/><use transform="matrix(.7 0 0 .7 128.203 38.966)" xlink:href="#m"/></g><path clip-path="url(#a)" d="M50.15 194.555h504.565" fill="none" stroke="#b0b0b0" stroke-linecap="square" stroke-width=".8"/><use stroke="#000" stroke-width=".8" x="50.15" xlink:href="#q" y="194.555"/><g transform="matrix(.1 0 0 -.1 25.55 198.354)"><use transform="translate(0 .766)" xlink:href="#m"/><use transform="translate(63.623 .766)" xlink:href="#g"/><use transform="matrix(.7 0 0 .7 128.203 39.047)" xlink:href="#f"/></g><path clip-path="url(#a)" d="M50.15 154.861h504.565" fill="none" stroke="#b0b0b0" stroke-linecap="square" stroke-width=".8"/><use stroke="#000" stroke-width=".8" x="50.15" xlink:href="#q" y="154.861"/><g transform="matrix(.1 0 0 -.1 25.55 158.66)"><use transform="translate(0 .766)" xlink:href="#m"/><use transform="translate(63.623 .766)" xlink:href="#g"/><use transform="matrix(.7 0 0 .7 128.203 39.047)" xlink:href="#o"/></g><g><path clip-path="url(#a)" d="M50.15 115.168h504.565" fill="none" stroke="#b0b0b0" stroke-linecap="square" stroke-width=".8"/><use stroke="#000" stroke-width=".8" x="50.15" xlink:href="#q" y="115.168"/><g transform="matrix(.1 0 0 -.1 25.55 118.967)"><use transform="translate(0 .684)" xlink:href="#m"/><use transform="translate(63.623 .684)" xlink:href="#g"/><use transform="matrix(.7 0 0 .7 128.203 38.966)" xlink:href="#r"/></g></g><g><path clip-path="url(#a)" d="M50.15 75.474h504.565" fill="none" stroke="#b0b0b0" stroke-linecap="square" stroke-width=".8"/><use stroke="#000" stroke-width=".8" x="50.15" xlink:href="#q" y="75.474"/><g transform="matrix(.1 0 0 -.1 25.55 79.274)"><use transform="translate(0 .684)" xlink:href="#m"/><use transform="translate(63.623 .684)" xlink:href="#g"/><use transform="matrix(.7 0 0 .7 128.203 38.966)" xlink:href="#s"/></g></g><g><path clip-path="url(#a)" d="M50.15 35.78h504.565" fill="none" stroke="#b0b0b0" stroke-linecap="square" stroke-width=".8"/><use stroke="#000" stroke-width=".8" x="50.15" xlink:href="#q" y="35.781"/><g transform="matrix(.1 0 0 -.1 25.55 39.58)"><use transform="translate(0 .766)" xlink:href="#m"/><use transform="translate(63.623 .766)" xlink:href="#g"/><use transform="matrix(.7 0 0 .7 128.203 39.047)" xlink:href="#n"/></g></g><g stroke="#000" stroke-width=".6"><use x="50.15" xlink:href="#t" y="222.299"/><use x="50.15" xlink:href="#t" y="215.309"/><use x="50.15" xlink:href="#t" y="210.35"/><use x="50.15" xlink:href="#t" y="206.503"/><use x="50.15" xlink:href="#t" y="203.361"/><use x="50.15" xlink:href="#t" y="200.703"/><use x="50.15" xlink:href="#t" y="198.401"/><use x="50.15" xlink:href="#t" y="196.371"/><use x="50.15" xlink:href="#t" y="182.606"/><use x="50.15" xlink:href="#t" y="175.616"/><use x="50.15" xlink:href="#t" y="170.657"/><use x="50.15" xlink:href="#t" y="166.81"/><use x="50.15" xlink:href="#t" y="163.667"/><use x="50.15" xlink:href="#t" y="161.01"/><use x="50.15" xlink:href="#t" y="158.708"/><use x="50.15" xlink:href="#t" y="156.677"/><use x="50.15" xlink:href="#t" y="142.912"/><use x="50.15" xlink:href="#t" y="135.923"/><use x="50.15" xlink:href="#t" y="130.963"/><use x="50.15" xlink:href="#t" y="127.117"/><use x="50.15" xlink:href="#t" y="123.974"/><use x="50.15" xlink:href="#t" y="121.316"/><use x="50.15" xlink:href="#t" y="119.014"/><use x="50.15" xlink:href="#t" y="116.984"/><use x="50.15" xlink:href="#t" y="103.219"/><use x="50.15" xlink:href="#t" y="96.229"/><use x="50.15" xlink:href="#t" y="91.27"/><use x="50.15" xlink:href="#t" y="87.423"/><use x="50.15" xlink:href="#t" y="84.28"/><use x="50.15" xlink:href="#t" y="81.623"/><use x="50.15" xlink:href="#t" y="79.321"/><use x="50.15" xlink:href="#t" y="77.291"/><use x="50.15" xlink:href="#t" y="63.525"/><use x="50.15" xlink:href="#t" y="56.536"/><use x="50.15" xlink:href="#t" y="51.577"/><use x="50.15" xlink:href="#t" y="47.73"/><use x="50.15" xlink:href="#t" y="44.587"/><use x="50.15" xlink:href="#t" y="41.93"/><use x="50.15" xlink:href="#t" y="39.628"/><use x="50.15" xlink:href="#t" y="37.597"/></g><g transform="matrix(0 -.1 -.1 0 19.47 156.19)"><path d="M3.328 72.906h9.953L28.61 11.281l15.282 61.625h11.093l15.328-61.625 15.282 61.625h10.015L77.297 0H64.89L49.516 63.281 33.984 0H21.578z"/><use x="98.799" xlink:href="#u"/><use x="159.98" xlink:href="#e"/><use x="201.094" xlink:href="#v"/><use x="228.877" xlink:href="#w"/><use x="292.354" xlink:href="#x"/><use x="374.141" xlink:href="#y"/><use x="401.924" xlink:href="#w"/><use x="465.4" xlink:href="#z"/></g></g><g stroke="#1f77b4"><path clip-path="url(#a)" d="M-1 209.518l2.321-2.31 8.139.362 8.138-2.071 8.138-.322 8.138-.317 8.138-2.065 8.138-1.592 8.138-4.445 8.138-3.37 8.139-3.879 8.138-6.99 8.138-4.169 8.138-7.345 8.138-4.469 8.138-2.135 8.138-8.159 8.139-5.047 8.138-4.554 8.138-4.733 8.138-3.912 8.138-4.352 8.138-4.826 8.138-5.674 8.139-3.159 8.138-9.826 8.138-5.79 8.138-5.022 8.138-4.98 8.138-4.388 8.138-3.456 8.139-3.483 8.138-4.133 8.138-3.295 8.138-3.044 8.138-2.366 8.138-2.082 8.138-2.515 8.139-2.092 8.138-2.297 8.138-2.133 8.138-1.711 8.138-1.402 8.138-1.403 8.138-1.257 8.139-1.332 8.138-1.224 8.138-1.176 8.138-.952 8.138-.907 8.138-.452 8.138-.674 8.139-.691 8.138-.736 8.138-.705 8.138-.68 8.138-.523 8.138-.57 8.138-.566 8.139-.588 8.138-.54 8.138-.352 8.138-.667 8.138-.432 8.138-.352 8.138-.37 8.139-.404" fill="none" stroke-linecap="square" stroke-width="1.5"/><g clip-path="url(#a)" fill="#1f77b4"><use x="-1" xlink:href="#A" y="209.518"/><use x="1.321" xlink:href="#A" y="207.207"/><use x="9.46" xlink:href="#A" y="207.57"/><use x="17.598" xlink:href="#A" y="205.499"/><use x="25.736" xlink:href="#A" y="205.177"/><use x="33.874" xlink:href="#A" y="204.86"/><use x="42.012" xlink:href="#A" y="202.795"/><use x="50.15" xlink:href="#A" y="201.203"/><use x="58.288" xlink:href="#A" y="196.758"/><use x="66.426" xlink:href="#A" y="193.388"/><use x="74.565" xlink:href="#A" y="189.509"/><use x="82.703" xlink:href="#A" y="182.52"/><use x="90.841" xlink:href="#A" y="178.35"/><use x="98.979" xlink:href="#A" y="171.005"/><use x="107.117" xlink:href="#A" y="166.536"/><use x="115.255" xlink:href="#A" y="164.401"/><use x="123.393" xlink:href="#A" y="156.242"/><use x="131.532" xlink:href="#A" y="151.195"/><use x="139.67" xlink:href="#A" y="146.641"/><use x="147.808" xlink:href="#A" y="141.908"/><use x="155.946" xlink:href="#A" y="137.996"/><use x="164.084" xlink:href="#A" y="133.644"/><use x="172.222" xlink:href="#A" y="128.818"/><use x="180.36" xlink:href="#A" y="123.144"/><use x="188.499" xlink:href="#A" y="119.985"/><use x="196.637" xlink:href="#A" y="110.159"/><use x="204.775" xlink:href="#A" y="104.368"/><use x="212.913" xlink:href="#A" y="99.347"/><use x="221.051" xlink:href="#A" y="94.368"/><use x="229.189" xlink:href="#A" y="89.979"/><use x="237.327" xlink:href="#A" y="86.523"/><use x="245.466" xlink:href="#A" y="83.04"/><use x="253.604" xlink:href="#A" y="78.907"/><use x="261.742" xlink:href="#A" y="75.612"/><use x="269.88" xlink:href="#A" y="72.568"/><use x="278.018" xlink:href="#A" y="70.202"/><use x="286.156" xlink:href="#A" y="68.12"/><use x="294.294" xlink:href="#A" y="65.605"/><use x="302.433" xlink:href="#A" y="63.513"/><use x="310.571" xlink:href="#A" y="61.216"/><use x="318.709" xlink:href="#A" y="59.083"/><use x="326.847" xlink:href="#A" y="57.372"/><use x="334.985" xlink:href="#A" y="55.97"/><use x="343.123" xlink:href="#A" y="54.567"/><use x="351.261" xlink:href="#A" y="53.31"/><use x="359.4" xlink:href="#A" y="51.978"/><use x="367.538" xlink:href="#A" y="50.754"/><use x="375.676" xlink:href="#A" y="49.578"/><use x="383.814" xlink:href="#A" y="48.626"/><use x="391.952" xlink:href="#A" y="47.719"/><use x="400.09" xlink:href="#A" y="47.267"/><use x="408.228" xlink:href="#A" y="46.593"/><use x="416.367" xlink:href="#A" y="45.902"/><use x="424.505" xlink:href="#A" y="45.166"/><use x="432.643" xlink:href="#A" y="44.461"/><use x="440.781" xlink:href="#A" y="43.782"/><use x="448.919" xlink:href="#A" y="43.258"/><use x="457.057" xlink:href="#A" y="42.687"/><use x="465.195" xlink:href="#A" y="42.122"/><use x="473.334" xlink:href="#A" y="41.534"/><use x="481.472" xlink:href="#A" y="40.995"/><use x="489.61" xlink:href="#A" y="40.642"/><use x="497.748" xlink:href="#A" y="39.975"/><use x="505.886" xlink:href="#A" y="39.543"/><use x="514.024" xlink:href="#A" y="39.191"/><use x="522.162" xlink:href="#A" y="38.822"/><use x="530.301" xlink:href="#A" y="38.417"/></g></g><g stroke="#ff7f0e"><path clip-path="url(#a)" d="M-1 254.11l2.321-7.913h16.277l8.138-5.8 8.138-9.292 8.138-3.847 8.138-10.76 8.138-2.301 8.138-5.094 8.139-10.043 8.138-5.51 8.138-6.326 8.138-3.367 8.138-5.235 8.138-2.948 8.138-3.105 8.139-3.239h8.138l8.138-10.053 8.138-6.106 8.138-.015 8.138-4.983 8.138-3.926 8.139-5.202 8.138-.055 8.138-7.001 8.138-4.046 8.138-2.038 8.138-2.635 8.138-3.374 8.139-2.977 8.138-3.522 8.138-3.823 8.138-2.659 8.138-2.257 8.138-2.174 8.138-2.052 8.139-2.595 8.138-2.204 8.138-1.997 8.138-1.455 8.138-2.263 8.138-1.283 8.138-1.022 8.139-1.522 8.138-1.083 8.138-2.119 8.138-1.108 8.138-1.105 8.138-.9 8.138-.963 8.139-.783 8.138-.741 8.138-.888 8.138-.823 8.138-.886 8.138-.681 8.138-.514 8.139-.552 8.138-.577 8.138-.65 8.138-.555 8.138-.535 8.138-.503 8.138-.425 8.139.046" fill="none" stroke-linecap="square" stroke-width="1.5"/><g clip-path="url(#a)" fill="#ff7f0e"><use x="-1" xlink:href="#B" y="254.111"/><use x="1.321" xlink:href="#B" y="246.197"/><use x="9.46" xlink:href="#B" y="246.197"/><use x="17.598" xlink:href="#B" y="246.197"/><use x="25.736" xlink:href="#B" y="240.397"/><use x="33.874" xlink:href="#B" y="231.105"/><use x="42.012" xlink:href="#B" y="227.258"/><use x="50.15" xlink:href="#B" y="216.499"/><use x="58.288" xlink:href="#B" y="214.197"/><use x="66.426" xlink:href="#B" y="209.103"/><use x="74.565" xlink:href="#B" y="199.06"/><use x="82.703" xlink:href="#B" y="193.55"/><use x="90.841" xlink:href="#B" y="187.224"/><use x="98.979" xlink:href="#B" y="183.857"/><use x="107.117" xlink:href="#B" y="178.622"/><use x="115.255" xlink:href="#B" y="175.674"/><use x="123.393" xlink:href="#B" y="172.569"/><use x="131.532" xlink:href="#B" y="169.33"/><use x="139.67" xlink:href="#B" y="169.33"/><use x="147.808" xlink:href="#B" y="159.277"/><use x="155.946" xlink:href="#B" y="153.171"/><use x="164.084" xlink:href="#B" y="153.156"/><use x="172.222" xlink:href="#B" y="148.173"/><use x="180.36" xlink:href="#B" y="144.247"/><use x="188.499" xlink:href="#B" y="139.045"/><use x="196.637" xlink:href="#B" y="138.99"/><use x="204.775" xlink:href="#B" y="131.989"/><use x="212.913" xlink:href="#B" y="127.943"/><use x="221.051" xlink:href="#B" y="125.905"/><use x="229.189" xlink:href="#B" y="123.27"/><use x="237.327" xlink:href="#B" y="119.896"/><use x="245.466" xlink:href="#B" y="116.919"/><use x="253.604" xlink:href="#B" y="113.397"/><use x="261.742" xlink:href="#B" y="109.574"/><use x="269.88" xlink:href="#B" y="106.915"/><use x="278.018" xlink:href="#B" y="104.658"/><use x="286.156" xlink:href="#B" y="102.484"/><use x="294.294" xlink:href="#B" y="100.432"/><use x="302.433" xlink:href="#B" y="97.837"/><use x="310.571" xlink:href="#B" y="95.633"/><use x="318.709" xlink:href="#B" y="93.636"/><use x="326.847" xlink:href="#B" y="92.181"/><use x="334.985" xlink:href="#B" y="89.918"/><use x="343.123" xlink:href="#B" y="88.635"/><use x="351.261" xlink:href="#B" y="87.613"/><use x="359.4" xlink:href="#B" y="86.091"/><use x="367.538" xlink:href="#B" y="85.008"/><use x="375.676" xlink:href="#B" y="82.889"/><use x="383.814" xlink:href="#B" y="81.781"/><use x="391.952" xlink:href="#B" y="80.676"/><use x="400.09" xlink:href="#B" y="79.775"/><use x="408.228" xlink:href="#B" y="78.813"/><use x="416.367" xlink:href="#B" y="78.03"/><use x="424.505" xlink:href="#B" y="77.289"/><use x="432.643" xlink:href="#B" y="76.401"/><use x="440.781" xlink:href="#B" y="75.578"/><use x="448.919" xlink:href="#B" y="74.692"/><use x="457.057" xlink:href="#B" y="74.011"/><use x="465.195" xlink:href="#B" y="73.497"/><use x="473.334" xlink:href="#B" y="72.945"/><use x="481.472" xlink:href="#B" y="72.368"/><use x="489.61" xlink:href="#B" y="71.718"/><use x="497.748" xlink:href="#B" y="71.163"/><use x="505.886" xlink:href="#B" y="70.628"/><use x="514.024" xlink:href="#B" y="70.125"/><use x="522.162" xlink:href="#B" y="69.7"/><use x="530.301" xlink:href="#B" y="69.746"/></g></g><path clip-path="url(#a)" d="M-1 182.79l2.321-1.906 8.139-5.889 8.138-5.903 8.138-5.223 8.138-5.608 8.138-4.29 8.138-6.962 8.138-2.612 8.138-3.614 8.139-3.082 8.138-3.4 8.138-2.972 8.138-4.421 8.138-4.012 8.138-3.85 8.138-1.663 8.139-3.203h8.138l8.138-5.95 8.138-2.954 8.138-2.57 8.138-1.951 8.138-2.1 8.139-1.668 8.138-2.5 8.138-2.58 8.138-1.755 8.138-1.529 8.138-1.343 8.138-1.193 8.139-1.08 8.138-1.296 8.138-1.182 8.138-.922 8.138-.914 8.138-.38 8.138-.475 8.139-.64 8.138-.522 8.138-.479 8.138-.573 8.138-.57 8.138-.363 8.138-.162 8.139-.218 8.138-.29 8.138-.246 8.138-.347 8.138-.338 8.138-.228 8.138-.112 8.139-.185 8.138-.194 8.138-.057 8.138-.13 8.138-.077 8.138.003 8.138.084 8.139.002 8.138.137 8.138.051 8.138.11 8.138-.04 8.138.046 8.138.1 8.139.09" fill="none" stroke="#2ca02c" stroke-linecap="square" stroke-width="1.5"/><g stroke="#d62728"><path clip-path="url(#a)" d="M-1 240.397h2.321l8.139 21.596 8.138-15.796 8.138-27.745 8.138-9.745 8.138-11.552 8.138-5.159 8.138-7.187 8.138-1.137 8.139-6.176 8.138-4.975 8.138-9.75 8.138-6.585 8.138-2.89 8.138-1.259 8.138-6.714 8.139-4.24h8.138l8.138-8.188 8.138-3.484 8.138-.13 8.138-6.66 8.138-2.547 8.139-2.882 8.138-3.08 8.138-2.33 8.138-2.084 8.138.506 8.138-4.238 8.138-1.152 8.139-1.903 8.138-2.025 8.138-1.989 8.138-2.705 8.138-.456 8.138-1.753 8.138-2.619 8.139-1.201 8.138.273 8.138-1.022 8.138-7.216 8.138-.41 8.138-.796 8.138-1.714 8.139-.303 8.138-.318 8.138-.885 8.138-.522 8.138-.299 8.138-.572 8.138 1.592 8.139.119 8.138-1.88 8.138.072 8.138.403 8.138-.716 8.138-.173 8.138-.087 8.139.754 8.138-.07 8.138.258 8.138-.04 8.138-.006 8.138-.488 8.138-.221 8.139.773" fill="none" stroke-linecap="square" stroke-width="1.5"/><g clip-path="url(#a)" fill="#d62728"><use x="-1" xlink:href="#C" y="240.397"/><use x="1.321" xlink:href="#C" y="240.397"/><use x="9.46" xlink:href="#C" y="261.993"/><use x="17.598" xlink:href="#C" y="246.197"/><use x="25.736" xlink:href="#C" y="218.452"/><use x="33.874" xlink:href="#C" y="208.707"/><use x="42.012" xlink:href="#C" y="197.155"/><use x="50.15" xlink:href="#C" y="191.996"/><use x="58.288" xlink:href="#C" y="184.809"/><use x="66.426" xlink:href="#C" y="183.672"/><use x="74.565" xlink:href="#C" y="177.496"/><use x="82.703" xlink:href="#C" y="172.521"/><use x="90.841" xlink:href="#C" y="162.771"/><use x="98.979" xlink:href="#C" y="156.186"/><use x="107.117" xlink:href="#C" y="153.297"/><use x="115.255" xlink:href="#C" y="152.037"/><use x="123.393" xlink:href="#C" y="145.323"/><use x="131.532" xlink:href="#C" y="141.082"/><use x="139.67" xlink:href="#C" y="141.082"/><use x="147.808" xlink:href="#C" y="132.895"/><use x="155.946" xlink:href="#C" y="129.411"/><use x="164.084" xlink:href="#C" y="129.281"/><use x="172.222" xlink:href="#C" y="122.62"/><use x="180.36" xlink:href="#C" y="120.074"/><use x="188.499" xlink:href="#C" y="117.192"/><use x="196.637" xlink:href="#C" y="114.113"/><use x="204.775" xlink:href="#C" y="111.782"/><use x="212.913" xlink:href="#C" y="109.698"/><use x="221.051" xlink:href="#C" y="110.204"/><use x="229.189" xlink:href="#C" y="105.966"/><use x="237.327" xlink:href="#C" y="104.814"/><use x="245.466" xlink:href="#C" y="102.911"/><use x="253.604" xlink:href="#C" y="100.886"/><use x="261.742" xlink:href="#C" y="98.897"/><use x="269.88" xlink:href="#C" y="96.192"/><use x="278.018" xlink:href="#C" y="95.736"/><use x="286.156" xlink:href="#C" y="93.983"/><use x="294.294" xlink:href="#C" y="91.364"/><use x="302.433" xlink:href="#C" y="90.163"/><use x="310.571" xlink:href="#C" y="90.436"/><use x="318.709" xlink:href="#C" y="89.414"/><use x="326.847" xlink:href="#C" y="82.198"/><use x="334.985" xlink:href="#C" y="81.788"/><use x="343.123" xlink:href="#C" y="80.992"/><use x="351.261" xlink:href="#C" y="79.278"/><use x="359.4" xlink:href="#C" y="78.975"/><use x="367.538" xlink:href="#C" y="78.657"/><use x="375.676" xlink:href="#C" y="77.772"/><use x="383.814" xlink:href="#C" y="77.25"/><use x="391.952" xlink:href="#C" y="76.951"/><use x="400.09" xlink:href="#C" y="76.379"/><use x="408.228" xlink:href="#C" y="77.971"/><use x="416.367" xlink:href="#C" y="78.09"/><use x="424.505" xlink:href="#C" y="76.21"/><use x="432.643" xlink:href="#C" y="76.282"/><use x="440.781" xlink:href="#C" y="76.685"/><use x="448.919" xlink:href="#C" y="75.969"/><use x="457.057" xlink:href="#C" y="75.796"/><use x="465.195" xlink:href="#C" y="75.709"/><use x="473.334" xlink:href="#C" y="76.463"/><use x="481.472" xlink:href="#C" y="76.393"/><use x="489.61" xlink:href="#C" y="76.651"/><use x="497.748" xlink:href="#C" y="76.61"/><use x="505.886" xlink:href="#C" y="76.605"/><use x="514.024" xlink:href="#C" y="76.117"/><use x="522.162" xlink:href="#C" y="75.896"/><use x="530.301" xlink:href="#C" y="76.669"/></g></g><g stroke="#9467bd"><path clip-path="url(#a)" d="M9.394 569.8l.065-319.756 8.139-17.439 8.138-2.88 8.138-14.416 8.138-6.206 8.138-11.127 8.138-6.275 8.138-5.463 8.139-5.118 8.138-2.635 8.138-7.524 8.138-2.714 8.138-5.311 8.138-8.297 8.138-8.18 8.139-3.888 8.138.008 8.138-15.135 8.138-2.522 8.138-3.586 8.138-4.486 8.138-2.002 8.139-3.117 8.138-4.693 8.138-1.79 8.138-3.573 8.138-2.11 8.138-3.029 8.138-2.097 8.139-3.384 8.138-2.346 8.138-1.703 8.138-1.216 8.138-1.102 8.138-1.374 8.138-1.242 8.139-.955 8.138-.677 8.138-.569 8.138-.55 8.138-.198 8.138-.415 8.138-.369 8.139-.145 8.138-.041 8.138-.183 8.138-.157 8.138.016 8.138-.076 8.138.126 8.139-.217 8.138-.53 8.138-.961 8.138-.151 8.138-.694 8.138.362 8.138-.28 8.139-.064 8.138-.146 8.138-.546 8.138-.043 8.138 3.523 8.138.13 8.138.135 8.139.99" fill="none" stroke-linecap="square" stroke-width="1.5"/><g clip-path="url(#a)" fill="#9467bd"><use x="-1" xlink:href="#D" y="39967.355"/><use x="1.321" xlink:href="#D" y="39967.355"/><use x="9.46" xlink:href="#D" y="250.044"/><use x="17.598" xlink:href="#D" y="232.605"/><use x="25.736" xlink:href="#D" y="229.725"/><use x="33.874" xlink:href="#D" y="215.309"/><use x="42.012" xlink:href="#D" y="209.103"/><use x="50.15" xlink:href="#D" y="197.976"/><use x="58.288" xlink:href="#D" y="191.701"/><use x="66.426" xlink:href="#D" y="186.238"/><use x="74.565" xlink:href="#D" y="181.12"/><use x="82.703" xlink:href="#D" y="178.485"/><use x="90.841" xlink:href="#D" y="170.961"/><use x="98.979" xlink:href="#D" y="168.247"/><use x="107.117" xlink:href="#D" y="162.936"/><use x="115.255" xlink:href="#D" y="154.639"/><use x="123.393" xlink:href="#D" y="146.46"/><use x="131.532" xlink:href="#D" y="142.571"/><use x="139.67" xlink:href="#D" y="142.579"/><use x="147.808" xlink:href="#D" y="127.444"/><use x="155.946" xlink:href="#D" y="124.922"/><use x="164.084" xlink:href="#D" y="121.336"/><use x="172.222" xlink:href="#D" y="116.85"/><use x="180.36" xlink:href="#D" y="114.848"/><use x="188.499" xlink:href="#D" y="111.731"/><use x="196.637" xlink:href="#D" y="107.038"/><use x="204.775" xlink:href="#D" y="105.248"/><use x="212.913" xlink:href="#D" y="101.675"/><use x="221.051" xlink:href="#D" y="99.565"/><use x="229.189" xlink:href="#D" y="96.536"/><use x="237.327" xlink:href="#D" y="94.439"/><use x="245.466" xlink:href="#D" y="91.055"/><use x="253.604" xlink:href="#D" y="88.709"/><use x="261.742" xlink:href="#D" y="87.006"/><use x="269.88" xlink:href="#D" y="85.79"/><use x="278.018" xlink:href="#D" y="84.688"/><use x="286.156" xlink:href="#D" y="83.314"/><use x="294.294" xlink:href="#D" y="82.072"/><use x="302.433" xlink:href="#D" y="81.117"/><use x="310.571" xlink:href="#D" y="80.44"/><use x="318.709" xlink:href="#D" y="79.871"/><use x="326.847" xlink:href="#D" y="79.321"/><use x="334.985" xlink:href="#D" y="79.123"/><use x="343.123" xlink:href="#D" y="78.708"/><use x="351.261" xlink:href="#D" y="78.339"/><use x="359.4" xlink:href="#D" y="78.194"/><use x="367.538" xlink:href="#D" y="78.153"/><use x="375.676" xlink:href="#D" y="77.97"/><use x="383.814" xlink:href="#D" y="77.813"/><use x="391.952" xlink:href="#D" y="77.829"/><use x="400.09" xlink:href="#D" y="77.753"/><use x="408.228" xlink:href="#D" y="77.879"/><use x="416.367" xlink:href="#D" y="77.662"/><use x="424.505" xlink:href="#D" y="77.131"/><use x="432.643" xlink:href="#D" y="76.171"/><use x="440.781" xlink:href="#D" y="76.02"/><use x="448.919" xlink:href="#D" y="75.326"/><use x="457.057" xlink:href="#D" y="75.688"/><use x="465.195" xlink:href="#D" y="75.409"/><use x="473.334" xlink:href="#D" y="75.344"/><use x="481.472" xlink:href="#D" y="75.198"/><use x="489.61" xlink:href="#D" y="74.652"/><use x="497.748" xlink:href="#D" y="74.609"/><use x="505.886" xlink:href="#D" y="78.132"/><use x="514.024" xlink:href="#D" y="78.262"/><use x="522.162" xlink:href="#D" y="78.397"/><use x="530.301" xlink:href="#D" y="79.387"/></g></g><path clip-path="url(#a)" d="M530.3 38.417l8.139-.381 8.138-.382 8.138-.38" fill="none" stroke="#1f77b4" stroke-dasharray="1.5 2.475" stroke-width="1.5"/><path clip-path="url(#a)" d="M530.3 69.746l8.139-.24 8.138-.24 8.138-.24" fill="none" stroke="#ff7f0e" stroke-dasharray="1.5 2.475" stroke-width="1.5"/><path clip-path="url(#a)" d="M530.3 74.69l8.139.084 8.138.084 8.138.084" fill="none" stroke="#2ca02c" stroke-dasharray="1.5 2.475" stroke-width="1.5"/><path clip-path="url(#a)" d="M530.3 76.67l8.139.147 8.138.148 8.138.147" fill="none" stroke="#d62728" stroke-dasharray="1.5 2.475" stroke-width="1.5"/><path clip-path="url(#a)" d="M530.3 79.387l8.139.5 8.138.5 8.138.5" fill="none" stroke="#9467bd" stroke-dasharray="1.5 2.475" stroke-width="1.5"/><path d="M50.15 234.248V25.44M554.715 234.248V25.44M50.15 234.248h504.565M50.15 25.44h504.565" fill="none" stroke="#000" stroke-linecap="square" stroke-linejoin="miter" stroke-width=".8"/><g transform="matrix(.12 0 0 -.12 180.653 19.44)"><use xlink:href="#h"/><use x="68.393" xlink:href="#E"/><use x="123.373" xlink:href="#F"/><use x="162.582" xlink:href="#y"/><use x="190.365" xlink:href="#G"/><use x="249.545" xlink:href="#z"/><use x="342.855" xlink:href="#H"/><path d="M452.086 66.219q-10.75 0-17.078-8.016-6.313-8-6.313-21.828 0-13.766 6.313-21.781 6.328-8 17.078-8 10.734 0 17.016 8 6.28 8.015 6.28 21.781 0 13.828-6.28 21.828-6.282 8.016-17.016 8.016zm0 8q15.328 0 24.5-10.281 9.187-10.282 9.187-27.563 0-17.234-9.187-27.516-9.172-10.28-24.5-10.28-15.375 0-24.594 10.25-9.203 10.265-9.203 27.546t9.203 27.563q9.219 10.28 24.594 10.28zM519.984 0l-27.828 72.906h10.297l23.11-61.375 23.14 61.375h10.25L531.172 0z"/><use x="559.783" xlink:href="#I"/><path d="M608.947 64.797V8.109h11.922q15.094 0 22.094 6.829 7 6.843 7 21.593 0 14.64-7 21.453-7 6.813-22.094 6.813zm-9.86 8.11h20.267q21.187 0 31.093-8.813 9.922-8.813 9.922-27.563 0-18.86-9.969-27.703Q640.447 0 619.354 0h-20.266z"/><use x="666.277" xlink:href="#J"/><use x="702.361" xlink:href="#m"/><use x="765.984" xlink:href="#l"/><use x="861.395" xlink:href="#E"/><use x="916.375" xlink:href="#d"/><use x="977.654" xlink:href="#K"/><use x="1029.754" xlink:href="#z"/><use x="1091.277" xlink:href="#K"/><use x="1175.164" xlink:href="#d"/><use x="1236.443" xlink:href="#K"/><use x="1320.33" xlink:href="#u"/><use x="1381.512" xlink:href="#L"/><use x="1448.504" xlink:href="#f"/><use x="1512.127" xlink:href="#g"/><use x="1575.75" xlink:href="#f"/><use x="1639.373" xlink:href="#g"/><use x="1702.996" xlink:href="#J"/><use x="1739.08" xlink:href="#g"/><use x="1802.703" xlink:href="#r"/><use x="1866.326" xlink:href="#J"/><use x="1902.41" xlink:href="#f"/><use x="1966.033" xlink:href="#l"/></g><g><path d="M320.656 229.248h227.059q2 0 2-2v-72.39q0-2-2-2h-227.06q-2 0-2 2v72.39q0 2 2 2z" fill="#fff" opacity=".8" stroke="#ccc" stroke-linejoin="miter"/><path d="M322.656 160.956h20" fill="none" stroke="#1f77b4" stroke-linecap="square" stroke-width="1.5"/><use fill="#1f77b4" stroke="#1f77b4" x="332.656" xlink:href="#A" y="160.956"/><g transform="matrix(.1 0 0 -.1 350.656 164.456)"><use xlink:href="#M"/><use x="73.193" xlink:href="#N"/><use x="168.457" xlink:href="#O"/><use x="207.471" xlink:href="#w"/><use x="270.947" xlink:href="#u"/><use x="332.129" xlink:href="#P"/><use x="395.508" xlink:href="#Q"/><use x="458.984" xlink:href="#v"/><use x="486.768" xlink:href="#z"/><use x="548.291" xlink:href="#K"/><use x="632.178" xlink:href="#y"/><use x="659.961" xlink:href="#R"/><use x="755.127" xlink:href="#o"/><use x="818.75" xlink:href="#m"/><use x="882.373" xlink:href="#S"/><use x="914.16" xlink:href="#r"/><use x="1009.57" xlink:href="#w"/><use x="1073.047" xlink:href="#d"/><use x="1134.326" xlink:href="#j"/><use x="1193.506" xlink:href="#K"/><use x="1245.605" xlink:href="#T"/></g><path d="M322.656 175.634h20" fill="none" stroke="#ff7f0e" stroke-linecap="square" stroke-width="1.5"/><use fill="#ff7f0e" stroke="#ff7f0e" x="332.656" xlink:href="#B" y="175.634"/><g transform="matrix(.1 0 0 -.1 350.656 179.134)"><use xlink:href="#M"/><use x="73.193" xlink:href="#R"/><use x="136.572" xlink:href="#y"/><use x="164.355" xlink:href="#F"/><use x="203.564" xlink:href="#z"/><use x="265.088" xlink:href="#w"/><path d="M370.164 72.906h9.86V42.094l32.718 30.812h12.703l-36.187-33.984L428.023 0H415.04l-35.016 35.11V0h-9.859z"/><use x="425.928" xlink:href="#y"/><use x="453.711" xlink:href="#R"/><path d="M562.496 27.984q0 9.766-4.031 15.125-4.016 5.375-11.297 5.375-7.219 0-11.25-5.375-4.031-5.359-4.031-15.125 0-9.718 4.031-15.093t11.25-5.375q7.281 0 11.297 5.375 4.031 5.375 4.031 15.093zm8.984-21.203q0-13.953-6.203-20.765-6.187-6.813-18.984-6.813-4.734 0-8.938.703-4.203.703-8.156 2.172v8.735q3.953-2.141 7.813-3.157 3.86-1.031 7.86-1.031 8.843 0 13.233 4.61 4.391 4.609 4.391 13.937v4.453q-2.781-4.844-7.125-7.234Q551.027 0 544.965 0q-10.047 0-16.203 7.656-6.157 7.672-6.157 20.328 0 12.688 6.157 20.344Q534.918 56 544.965 56q6.062 0 10.406-2.39 4.344-2.391 7.125-7.22v8.297h8.984z"/><use x="580.566" xlink:href="#w"/><use x="644.043" xlink:href="#u"/><path d="M757.225 44.188q3.375 6.062 8.062 8.937Q769.975 56 776.318 56q8.547 0 13.188-5.984 4.64-5.97 4.64-17V0h-9.03v32.719q0 7.86-2.798 11.656-2.78 3.813-8.484 3.813-6.984 0-11.047-4.641-4.047-4.625-4.047-12.64V0h-9.031v32.719q0 7.906-2.781 11.687-2.782 3.782-8.594 3.782-6.89 0-10.953-4.657-4.047-4.656-4.047-12.625V0h-9.031v54.688h9.031v-8.5q3.078 5.03 7.375 7.421Q735.006 56 740.912 56q5.969 0 10.14-3.031 4.173-3.016 6.173-8.782z"/><use x="834.424" xlink:href="#O"/><use x="873.438" xlink:href="#w"/><use x="936.914" xlink:href="#u"/><use x="998.096" xlink:href="#P"/><use x="1061.475" xlink:href="#Q"/><use x="1124.951" xlink:href="#v"/><use x="1152.734" xlink:href="#z"/><use x="1214.258" xlink:href="#K"/><use x="1298.145" xlink:href="#y"/><use x="1325.928" xlink:href="#R"/><use x="1421.094" xlink:href="#r"/><use x="1484.717" xlink:href="#l"/><use x="1548.34" xlink:href="#S"/><path d="M1611.908 34.625q-7.031 0-11.062-3.766-4.016-3.765-4.016-10.343 0-6.594 4.016-10.36 4.031-3.765 11.062-3.765t11.078 3.78q4.063 3.798 4.063 10.345 0 6.578-4.031 10.343-4.016 3.766-11.11 3.766zm-9.86 4.188q-6.343 1.562-9.89 5.906-3.531 4.36-3.531 10.61 0 8.733 6.219 13.812 6.234 5.078 17.062 5.078 10.89 0 17.094-5.078 6.203-5.079 6.203-13.813 0-6.25-3.547-10.61-3.531-4.343-9.828-5.906 7.125-1.656 11.094-6.5 3.984-4.828 3.984-11.796 0-10.61-6.469-16.282-6.468-5.656-18.53-5.656-12.048 0-18.532 5.656-6.469 5.672-6.469 16.282 0 6.968 4 11.797 4.016 4.843 11.14 6.5zm-3.609 15.578q0-5.657 3.532-8.828 3.547-3.172 9.937-3.172 6.36 0 9.938 3.172 3.593 3.171 3.593 8.828 0 5.672-3.593 8.843-3.578 3.172-9.938 3.172-6.39 0-9.937-3.172-3.532-3.172-3.532-8.843z"/><use x="1675.537" xlink:href="#w"/><use x="1739.014" xlink:href="#d"/><use x="1800.293" xlink:href="#j"/><use x="1859.473" xlink:href="#K"/><use x="1911.572" xlink:href="#T"/></g><path d="M322.656 190.312h20" fill="none" stroke="#2ca02c" stroke-linecap="square" stroke-width="1.5"/><g transform="matrix(.1 0 0 -.1 350.656 193.812)"><use xlink:href="#I"/><use x="29.492" xlink:href="#F"/><use x="68.701" xlink:href="#d"/><use x="129.98" xlink:href="#v"/><use x="157.764" xlink:href="#j"/></g><path d="M322.656 204.99h20" fill="none" stroke="#d62728" stroke-linecap="square" stroke-width="1.5"/><use fill="#d62728" stroke="#d62728" x="332.656" xlink:href="#C" y="204.99"/><g transform="matrix(.1 0 0 -.1 350.656 208.49)"><path d="M9.813 72.906h41.89v-8.312H19.672V43.109h28.906v-8.297H19.672V0h-9.86z"/><use x="57.41" xlink:href="#e"/><use x="98.523" xlink:href="#d"/><use x="159.803" xlink:href="#R"/><use x="223.182" xlink:href="#E"/><use x="278.162" xlink:href="#z"/></g><path d="M322.656 219.668h20" fill="none" stroke="#9467bd" stroke-linecap="square" stroke-width="1.5"/><use fill="#9467bd" stroke="#9467bd" x="332.656" xlink:href="#D" y="219.668"/><g transform="matrix(.1 0 0 -.1 350.656 223.168)"><use xlink:href="#N"/><use x="63.477" xlink:href="#i"/><use x="126.953" xlink:href="#d"/><use x="188.232" xlink:href="#y"/><use x="216.016" xlink:href="#R"/></g></g><g><path d="M50.15 505.928h504.565V297.12H50.15z" fill="#fff"/><path clip-path="url(#U)" d="M50.15 505.928V297.12" fill="none" stroke="#b0b0b0" stroke-linecap="square" stroke-width=".8"/><use stroke="#000" stroke-width=".8" x="50.15" xlink:href="#b" y="505.928"/><g transform="matrix(.1 0 0 -.1 40.717 542.922)"><use xlink:href="#c"/><use x="86.279" xlink:href="#d"/><use x="147.559" xlink:href="#e"/></g><g transform="matrix(.1 0 0 -.1 37.425 554.12)"><use xlink:href="#f"/><use x="63.623" xlink:href="#g"/><use x="127.246" xlink:href="#f"/><use x="190.869" xlink:href="#g"/></g><path clip-path="url(#U)" d="M302.433 505.928V297.12" fill="none" stroke="#b0b0b0" stroke-linecap="square" stroke-width=".8"/><use stroke="#000" stroke-width=".8" x="302.433" xlink:href="#b" y="505.928"/><g transform="matrix(.1 0 0 -.1 293.783 542.922)"><use xlink:href="#h"/><use x="68.408" xlink:href="#i"/><use x="131.885" xlink:href="#e"/></g><path clip-path="url(#U)" d="M546.577 505.928V297.12" fill="none" stroke="#b0b0b0" stroke-linecap="square" stroke-width=".8"/><use stroke="#000" stroke-width=".8" x="546.577" xlink:href="#b" y="505.928"/><g transform="matrix(.1 0 0 -.1 536.24 542.922)"><use xlink:href="#c"/><use x="86.279" xlink:href="#d"/><use x="147.559" xlink:href="#j"/></g><g stroke-width=".8"><path clip-path="url(#U)" d="M554.715 505.928V297.12" fill="none" stroke="#b0b0b0" stroke-linecap="square"/><use stroke="#000" x="554.715" xlink:href="#b" y="505.928"/></g><use stroke="#000" stroke-width=".6" x="58.288" xlink:href="#k" y="505.928"/><g transform="matrix(.1 0 0 -.1 51.926 518.926)"><use xlink:href="#g"/><use x="63.623" xlink:href="#f"/></g><g stroke="#000" stroke-width=".6"><use x="66.426" xlink:href="#k" y="505.928"/><use x="74.565" xlink:href="#k" y="505.928"/><use x="82.703" xlink:href="#k" y="505.928"/><use x="90.841" xlink:href="#k" y="505.928"/><use x="98.979" xlink:href="#k" y="505.928"/><use x="107.117" xlink:href="#k" y="505.928"/></g><use stroke="#000" stroke-width=".6" x="115.255" xlink:href="#k" y="505.928"/><g transform="matrix(.1 0 0 -.1 108.893 518.926)"><use xlink:href="#g"/><use x="63.623" xlink:href="#l"/></g><use stroke="#000" stroke-width=".6" x="123.393" xlink:href="#k" y="505.928"/><use stroke="#000" stroke-width=".6" x="131.532" xlink:href="#k" y="505.928"/><use stroke="#000" stroke-width=".6" x="139.67" xlink:href="#k" y="505.928"/><use stroke="#000" stroke-width=".6" x="147.808" xlink:href="#k" y="505.928"/><use stroke="#000" stroke-width=".6" x="155.946" xlink:href="#k" y="505.928"/><use stroke="#000" stroke-width=".6" x="164.084" xlink:href="#k" y="505.928"/><use stroke="#000" stroke-width=".6" x="172.222" xlink:href="#k" y="505.928"/><g transform="matrix(.1 0 0 -.1 165.86 518.926)"><use xlink:href="#m"/><use x="63.623" xlink:href="#n"/></g><use stroke="#000" stroke-width=".6" x="180.36" xlink:href="#k" y="505.928"/><use stroke="#000" stroke-width=".6" x="188.499" xlink:href="#k" y="505.928"/><use stroke="#000" stroke-width=".6" x="196.637" xlink:href="#k" y="505.928"/><use stroke="#000" stroke-width=".6" x="204.775" xlink:href="#k" y="505.928"/><use stroke="#000" stroke-width=".6" x="212.913" xlink:href="#k" y="505.928"/><use stroke="#000" stroke-width=".6" x="221.051" xlink:href="#k" y="505.928"/><use stroke="#000" stroke-width=".6" x="229.189" xlink:href="#k" y="505.928"/><g transform="matrix(.1 0 0 -.1 222.827 518.926)"><use xlink:href="#f"/><use x="63.623" xlink:href="#o"/></g><use stroke="#000" stroke-width=".6" x="237.327" xlink:href="#k" y="505.928"/><use stroke="#000" stroke-width=".6" x="245.466" xlink:href="#k" y="505.928"/><use stroke="#000" stroke-width=".6" x="253.604" xlink:href="#k" y="505.928"/><use stroke="#000" stroke-width=".6" x="261.742" xlink:href="#k" y="505.928"/><use stroke="#000" stroke-width=".6" x="269.88" xlink:href="#k" y="505.928"/><use stroke="#000" stroke-width=".6" x="278.018" xlink:href="#k" y="505.928"/><use stroke="#000" stroke-width=".6" x="286.156" xlink:href="#k" y="505.928"/><g transform="matrix(.1 0 0 -.1 279.794 518.926)"><use xlink:href="#o"/><use x="63.623" xlink:href="#g"/></g><use stroke="#000" stroke-width=".6" x="294.294" xlink:href="#k" y="505.928"/><use stroke="#000" stroke-width=".6" x="310.571" xlink:href="#k" y="505.928"/><use stroke="#000" stroke-width=".6" x="318.709" xlink:href="#k" y="505.928"/><use stroke="#000" stroke-width=".6" x="326.847" xlink:href="#k" y="505.928"/><use stroke="#000" stroke-width=".6" x="334.985" xlink:href="#k" y="505.928"/><use stroke="#000" stroke-width=".6" x="343.123" xlink:href="#k" y="505.928"/><g transform="matrix(.1 0 0 -.1 336.76 518.926)"><use xlink:href="#g"/><use x="63.623" xlink:href="#n"/></g><use stroke="#000" stroke-width=".6" x="351.261" xlink:href="#k" y="505.928"/><use stroke="#000" stroke-width=".6" x="359.4" xlink:href="#k" y="505.928"/><use stroke="#000" stroke-width=".6" x="367.538" xlink:href="#k" y="505.928"/><use stroke="#000" stroke-width=".6" x="375.676" xlink:href="#k" y="505.928"/><use stroke="#000" stroke-width=".6" x="383.814" xlink:href="#k" y="505.928"/><use stroke="#000" stroke-width=".6" x="391.952" xlink:href="#k" y="505.928"/><use stroke="#000" stroke-width=".6" x="400.09" xlink:href="#k" y="505.928"/><g transform="matrix(.1 0 0 -.1 393.728 518.926)"><use xlink:href="#m"/><use x="63.623" xlink:href="#o"/></g><use stroke="#000" stroke-width=".6" x="408.228" xlink:href="#k" y="505.928"/><use stroke="#000" stroke-width=".6" x="416.367" xlink:href="#k" y="505.928"/><use stroke="#000" stroke-width=".6" x="424.505" xlink:href="#k" y="505.928"/><use stroke="#000" stroke-width=".6" x="432.643" xlink:href="#k" y="505.928"/><use stroke="#000" stroke-width=".6" x="440.781" xlink:href="#k" y="505.928"/><use stroke="#000" stroke-width=".6" x="448.919" xlink:href="#k" y="505.928"/><g><use stroke="#000" stroke-width=".6" x="457.057" xlink:href="#k" y="505.928"/><g transform="matrix(.1 0 0 -.1 450.695 518.926)"><use xlink:href="#f"/><use x="63.623" xlink:href="#g"/></g></g><use stroke="#000" stroke-width=".6" x="465.195" xlink:href="#k" y="505.928"/><use stroke="#000" stroke-width=".6" x="473.334" xlink:href="#k" y="505.928"/><use stroke="#000" stroke-width=".6" x="481.472" xlink:href="#k" y="505.928"/><use stroke="#000" stroke-width=".6" x="489.61" xlink:href="#k" y="505.928"/><use stroke="#000" stroke-width=".6" x="497.748" xlink:href="#k" y="505.928"/><use stroke="#000" stroke-width=".6" x="505.886" xlink:href="#k" y="505.928"/><g><use stroke="#000" stroke-width=".6" x="514.024" xlink:href="#k" y="505.928"/><g transform="matrix(.1 0 0 -.1 507.662 518.926)"><use xlink:href="#f"/><use x="63.623" xlink:href="#p"/></g></g><use stroke="#000" stroke-width=".6" x="522.162" xlink:href="#k" y="505.928"/><use stroke="#000" stroke-width=".6" x="530.301" xlink:href="#k" y="505.928"/><use stroke="#000" stroke-width=".6" x="538.439" xlink:href="#k" y="505.928"/><g><path clip-path="url(#U)" d="M50.15 505.928h504.565" fill="none" stroke="#b0b0b0" stroke-linecap="square" stroke-width=".8"/><use stroke="#000" stroke-width=".8" x="50.15" xlink:href="#q" y="505.928"/><g transform="matrix(.1 0 0 -.1 25.55 509.727)"><use transform="translate(0 .684)" xlink:href="#m"/><use transform="translate(63.623 .684)" xlink:href="#g"/><use transform="matrix(.7 0 0 .7 128.203 38.966)" xlink:href="#m"/></g><path clip-path="url(#U)" d="M50.15 461.792h504.565" fill="none" stroke="#b0b0b0" stroke-linecap="square" stroke-width=".8"/><use stroke="#000" stroke-width=".8" x="50.15" xlink:href="#q" y="461.792"/><g transform="matrix(.1 0 0 -.1 25.55 465.59)"><use transform="translate(0 .766)" xlink:href="#m"/><use transform="translate(63.623 .766)" xlink:href="#g"/><use transform="matrix(.7 0 0 .7 128.203 39.047)" xlink:href="#f"/></g><path clip-path="url(#U)" d="M50.15 417.655h504.565" fill="none" stroke="#b0b0b0" stroke-linecap="square" stroke-width=".8"/><use stroke="#000" stroke-width=".8" x="50.15" xlink:href="#q" y="417.655"/><g transform="matrix(.1 0 0 -.1 25.55 421.454)"><use transform="translate(0 .766)" xlink:href="#m"/><use transform="translate(63.623 .766)" xlink:href="#g"/><use transform="matrix(.7 0 0 .7 128.203 39.047)" xlink:href="#o"/></g><g><path clip-path="url(#U)" d="M50.15 373.519h504.565" fill="none" stroke="#b0b0b0" stroke-linecap="square" stroke-width=".8"/><use stroke="#000" stroke-width=".8" x="50.15" xlink:href="#q" y="373.519"/><g transform="matrix(.1 0 0 -.1 25.55 377.318)"><use transform="translate(0 .684)" xlink:href="#m"/><use transform="translate(63.623 .684)" xlink:href="#g"/><use transform="matrix(.7 0 0 .7 128.203 38.966)" xlink:href="#r"/></g></g><g><path clip-path="url(#U)" d="M50.15 329.382h504.565" fill="none" stroke="#b0b0b0" stroke-linecap="square" stroke-width=".8"/><use stroke="#000" stroke-width=".8" x="50.15" xlink:href="#q" y="329.382"/><g transform="matrix(.1 0 0 -.1 25.55 333.181)"><use transform="translate(0 .684)" xlink:href="#m"/><use transform="translate(63.623 .684)" xlink:href="#g"/><use transform="matrix(.7 0 0 .7 128.203 38.966)" xlink:href="#s"/></g></g><g stroke="#000" stroke-width=".6"><use x="50.15" xlink:href="#t" y="492.642"/><use x="50.15" xlink:href="#t" y="484.87"/><use x="50.15" xlink:href="#t" y="479.355"/><use x="50.15" xlink:href="#t" y="475.078"/><use x="50.15" xlink:href="#t" y="471.583"/><use x="50.15" xlink:href="#t" y="468.628"/><use x="50.15" xlink:href="#t" y="466.069"/><use x="50.15" xlink:href="#t" y="463.811"/><use x="50.15" xlink:href="#t" y="448.505"/><use x="50.15" xlink:href="#t" y="440.733"/><use x="50.15" xlink:href="#t" y="435.219"/><use x="50.15" xlink:href="#t" y="430.942"/><use x="50.15" xlink:href="#t" y="427.447"/><use x="50.15" xlink:href="#t" y="424.492"/><use x="50.15" xlink:href="#t" y="421.932"/><use x="50.15" xlink:href="#t" y="419.675"/><use x="50.15" xlink:href="#t" y="404.369"/><use x="50.15" xlink:href="#t" y="396.597"/><use x="50.15" xlink:href="#t" y="391.082"/><use x="50.15" xlink:href="#t" y="386.805"/><use x="50.15" xlink:href="#t" y="383.31"/><use x="50.15" xlink:href="#t" y="380.356"/><use x="50.15" xlink:href="#t" y="377.796"/><use x="50.15" xlink:href="#t" y="375.538"/><use x="50.15" xlink:href="#t" y="360.232"/><use x="50.15" xlink:href="#t" y="352.46"/><use x="50.15" xlink:href="#t" y="346.946"/><use x="50.15" xlink:href="#t" y="342.669"/><use x="50.15" xlink:href="#t" y="339.174"/><use x="50.15" xlink:href="#t" y="336.219"/><use x="50.15" xlink:href="#t" y="333.66"/><use x="50.15" xlink:href="#t" y="331.402"/><use x="50.15" xlink:href="#t" y="316.096"/><use x="50.15" xlink:href="#t" y="308.324"/><use x="50.15" xlink:href="#t" y="302.81"/><use x="50.15" xlink:href="#t" y="298.532"/></g><g transform="matrix(0 -.1 -.1 0 19.47 408.358)"><use xlink:href="#M"/><use x="73.193" xlink:href="#N"/></g></g><g stroke="#1f77b4"><path clip-path="url(#U)" d="M58.285 569.8l.003-19.736 8.138-13.286 8.139-32.677 8.138-14.138 8.138-8.588 8.138-14.323 8.138-6.377 8.138-5.605 8.138-3.785 8.139-4.607 8.138-7.655 8.138-4.785 8.138-4.159 8.138-6.365 8.138-5.216 8.138-10.935 8.139-7.31 8.138-14.677 8.138-8.412 8.138-6.573 8.138-5.698 8.138-5.344 8.138-3.952 8.139-3.489 8.138-3.92 8.138-3.22 8.138-2.934 8.138-2.435 8.138-2.09 8.138-2.428 8.139-1.896 8.138-1.811 8.138-2.002 8.138-1.863 8.138-1.461 8.138-1.265 8.138-1.066 8.139-1.43 8.138-1.27 8.138-1.173 8.138-.902 8.138-.789 8.138-.634 8.138-.658 8.139-1.035 8.138-.56 8.138-.42 8.138-.926 8.138-.463 8.138-.407 8.138-.39 8.139-.366 8.138.11 8.138-.6 8.138-.747 8.138-.411 8.138-.255 8.138-.203 8.139-.28" fill="none" stroke-linecap="square" stroke-width="1.5"/><g clip-path="url(#U)" fill="#1f77b4"><use x="50.838" xlink:href="#A" y="40954.6"/><use x="58.288" xlink:href="#A" y="550.064"/><use x="66.426" xlink:href="#A" y="536.778"/><use x="74.565" xlink:href="#A" y="504.101"/><use x="82.703" xlink:href="#A" y="489.963"/><use x="90.841" xlink:href="#A" y="481.375"/><use x="98.979" xlink:href="#A" y="467.052"/><use x="107.117" xlink:href="#A" y="460.675"/><use x="115.255" xlink:href="#A" y="455.07"/><use x="123.393" xlink:href="#A" y="451.285"/><use x="131.532" xlink:href="#A" y="446.678"/><use x="139.67" xlink:href="#A" y="439.023"/><use x="147.808" xlink:href="#A" y="434.238"/><use x="155.946" xlink:href="#A" y="430.079"/><use x="164.084" xlink:href="#A" y="423.714"/><use x="172.222" xlink:href="#A" y="418.498"/><use x="180.36" xlink:href="#A" y="407.563"/><use x="188.499" xlink:href="#A" y="400.253"/><use x="196.637" xlink:href="#A" y="385.576"/><use x="204.775" xlink:href="#A" y="377.164"/><use x="212.913" xlink:href="#A" y="370.591"/><use x="221.051" xlink:href="#A" y="364.893"/><use x="229.189" xlink:href="#A" y="359.549"/><use x="237.327" xlink:href="#A" y="355.597"/><use x="245.466" xlink:href="#A" y="352.108"/><use x="253.604" xlink:href="#A" y="348.187"/><use x="261.742" xlink:href="#A" y="344.968"/><use x="269.88" xlink:href="#A" y="342.034"/><use x="278.018" xlink:href="#A" y="339.599"/><use x="286.156" xlink:href="#A" y="337.509"/><use x="294.294" xlink:href="#A" y="335.081"/><use x="302.433" xlink:href="#A" y="333.185"/><use x="310.571" xlink:href="#A" y="331.374"/><use x="318.709" xlink:href="#A" y="329.372"/><use x="326.847" xlink:href="#A" y="327.509"/><use x="334.985" xlink:href="#A" y="326.048"/><use x="343.123" xlink:href="#A" y="324.783"/><use x="351.261" xlink:href="#A" y="323.717"/><use x="359.4" xlink:href="#A" y="322.287"/><use x="367.538" xlink:href="#A" y="321.017"/><use x="375.676" xlink:href="#A" y="319.844"/><use x="383.814" xlink:href="#A" y="318.942"/><use x="391.952" xlink:href="#A" y="318.153"/><use x="400.09" xlink:href="#A" y="317.519"/><use x="408.228" xlink:href="#A" y="316.861"/><use x="416.367" xlink:href="#A" y="315.826"/><use x="424.505" xlink:href="#A" y="315.265"/><use x="432.643" xlink:href="#A" y="314.847"/><use x="440.781" xlink:href="#A" y="313.92"/><use x="448.919" xlink:href="#A" y="313.457"/><use x="457.057" xlink:href="#A" y="313.05"/><use x="465.195" xlink:href="#A" y="312.661"/><use x="473.334" xlink:href="#A" y="312.294"/><use x="481.472" xlink:href="#A" y="312.404"/><use x="489.61" xlink:href="#A" y="311.805"/><use x="497.748" xlink:href="#A" y="311.057"/><use x="505.886" xlink:href="#A" y="310.646"/><use x="514.024" xlink:href="#A" y="310.391"/><use x="522.162" xlink:href="#A" y="310.188"/><use x="530.301" xlink:href="#A" y="309.907"/></g></g><g stroke="#ff7f0e"><path clip-path="url(#U)" d="M82.697 569.8l.006-33.022h8.138l8.138-13.286 8.138-4.278h8.138l8.138-19.736 8.139-8.663 8.138-4.623h8.138l8.138-17.008 8.138-6.61 8.138-11.51 8.138-7.808 8.139-.073 8.138-19.574 8.138-3.482 8.138-7.662 8.138-7.052 8.138-7.61 8.138-4.865 8.139-3.42 8.138-8.593 8.138-4.774 8.138-4.431 8.138-3.56 8.138-4.168 8.138-2.192 8.139-3.307 8.138-2.579 8.138-2.968 8.138-2.473 8.138-1.818 8.138-1.75 8.138-1.427 8.139-1.183 8.138-1.363 8.138-1.255 8.138-1.17 8.138-1.173 8.138-.832 8.138-1.16 8.139-.532 8.138-1.077 8.138-.74 8.138-.688 8.138-.87 8.138-.762 8.138-.76 8.139-.673 8.138-.793 8.138-.384 8.138-.6 8.138-.666 8.138-.376 8.138-.41 8.139-.385" fill="none" stroke-linecap="square" stroke-width="1.5"/><g clip-path="url(#U)" fill="#ff7f0e"><use x="75.253" xlink:href="#B" y="40954.6"/><use x="82.703" xlink:href="#B" y="536.778"/><use x="90.841" xlink:href="#B" y="536.778"/><use x="98.979" xlink:href="#B" y="523.492"/><use x="107.117" xlink:href="#B" y="519.214"/><use x="115.255" xlink:href="#B" y="519.214"/><use x="123.393" xlink:href="#B" y="499.478"/><use x="131.532" xlink:href="#B" y="490.815"/><use x="139.67" xlink:href="#B" y="486.192"/><use x="147.808" xlink:href="#B" y="486.192"/><use x="155.946" xlink:href="#B" y="469.184"/><use x="164.084" xlink:href="#B" y="462.574"/><use x="172.222" xlink:href="#B" y="451.065"/><use x="180.36" xlink:href="#B" y="443.256"/><use x="188.499" xlink:href="#B" y="443.183"/><use x="196.637" xlink:href="#B" y="423.609"/><use x="204.775" xlink:href="#B" y="420.127"/><use x="212.913" xlink:href="#B" y="412.465"/><use x="221.051" xlink:href="#B" y="405.413"/><use x="229.189" xlink:href="#B" y="397.803"/><use x="237.327" xlink:href="#B" y="392.938"/><use x="245.466" xlink:href="#B" y="389.519"/><use x="253.604" xlink:href="#B" y="380.925"/><use x="261.742" xlink:href="#B" y="376.151"/><use x="269.88" xlink:href="#B" y="371.72"/><use x="278.018" xlink:href="#B" y="368.161"/><use x="286.156" xlink:href="#B" y="363.992"/><use x="294.294" xlink:href="#B" y="361.8"/><use x="302.433" xlink:href="#B" y="358.493"/><use x="310.571" xlink:href="#B" y="355.914"/><use x="318.709" xlink:href="#B" y="352.946"/><use x="326.847" xlink:href="#B" y="350.473"/><use x="334.985" xlink:href="#B" y="348.655"/><use x="343.123" xlink:href="#B" y="346.904"/><use x="351.261" xlink:href="#B" y="345.478"/><use x="359.4" xlink:href="#B" y="344.295"/><use x="367.538" xlink:href="#B" y="342.932"/><use x="375.676" xlink:href="#B" y="341.677"/><use x="383.814" xlink:href="#B" y="340.507"/><use x="391.952" xlink:href="#B" y="339.334"/><use x="400.09" xlink:href="#B" y="338.502"/><use x="408.228" xlink:href="#B" y="337.341"/><use x="416.367" xlink:href="#B" y="336.81"/><use x="424.505" xlink:href="#B" y="335.733"/><use x="432.643" xlink:href="#B" y="334.992"/><use x="440.781" xlink:href="#B" y="334.305"/><use x="448.919" xlink:href="#B" y="333.436"/><use x="457.057" xlink:href="#B" y="332.673"/><use x="465.195" xlink:href="#B" y="331.913"/><use x="473.334" xlink:href="#B" y="331.24"/><use x="481.472" xlink:href="#B" y="330.447"/><use x="489.61" xlink:href="#B" y="330.063"/><use x="497.748" xlink:href="#B" y="329.462"/><use x="505.886" xlink:href="#B" y="328.797"/><use x="514.024" xlink:href="#B" y="328.421"/><use x="522.162" xlink:href="#B" y="328.011"/><use x="530.301" xlink:href="#B" y="327.626"/></g></g><path clip-path="url(#U)" d="M-1 550.064H25.736l.003 19.736m40.684 0l.003-19.736h16.277l8.138-34.344h8.138l8.138-25.757h8.138l8.138-26.364 8.139-.621 8.138-2.483 8.138-2.515 8.138-2.223 8.138-3.33 8.138-3.535 8.138-1.95 8.139-.089 8.138-7.83 8.138-4.37 8.138-4.61 8.138-3.863 8.138-3.465 8.138-7.705 8.139-8.865 8.138-5.207 8.138-5.608 8.138-5.242 8.138-2.923 8.138-2.858 8.138-2.622 8.139-2.946 8.138-2.796 8.138-2.823 8.138-2.314 8.138-1.207 8.138-1.942 8.138-1.713 8.139-1.857 8.138-2.296 8.138-1.915 8.138-1.622 8.138-2.082 8.138-.986 8.138-.932 8.139-1.018 8.138-1.45 8.138-1.244 8.138-1.019 8.138-.754h8.138l8.138-1.454 8.139-.73 8.138-1.319 8.138-1.98 8.138-.853 8.138-.53 8.138-.517 8.138-.596 8.139-.586" fill="none" stroke="#2ca02c" stroke-linecap="square" stroke-width="1.5"/><g stroke="#d62728"><path clip-path="url(#U)" d="M-1 507.55l2.321 2.655h16.277l8.138-2.257h8.138l8.138-2.02h8.138l8.138-12.303 8.138-3.662 8.139-6.33 8.138-7.773 8.138-2.954 8.138-6.596 8.138-3.535 8.138-1.174 8.138-6.259 8.139-3.946 8.138-3.917 8.138-4.868 8.138-3.647 8.138-4.405 8.138-5.234 8.138-4.277 8.139-1.57 8.138-4.514 8.138-4.054 8.138-2.865 8.138-3.59 8.138-4.736 8.138-3.535 8.139-3.154 8.138-5.055 8.138-3.417 8.138-1.695 8.138-2.663 8.138-3.823 8.138-2.67 8.139-2.59 8.138-2.597 8.138-2.075 8.138-1.277 8.138-3.016 8.138-1.205 8.138-1.508 8.139-1.61 8.138-.78 8.138-1.288 8.138-.557 8.138-.933 8.138-.898 8.138-1.1 8.139-.941 8.138-.653 8.138-.978 8.138-.821 8.138-.581 8.138-1.35 8.138-.99 8.139-.952 8.138-1.092 8.138-.841 8.138-.45 8.138-.537 8.138-.61 8.138-.488 8.139-1.053" fill="none" stroke-linecap="square" stroke-width="1.5"/><g clip-path="url(#U)" fill="#d62728"><use x="-1" xlink:href="#C" y="507.551"/><use x="1.321" xlink:href="#C" y="510.205"/><use x="9.46" xlink:href="#C" y="510.205"/><use x="17.598" xlink:href="#C" y="510.205"/><use x="25.736" xlink:href="#C" y="507.948"/><use x="33.874" xlink:href="#C" y="507.948"/><use x="42.012" xlink:href="#C" y="505.928"/><use x="50.15" xlink:href="#C" y="505.928"/><use x="58.288" xlink:href="#C" y="493.625"/><use x="66.426" xlink:href="#C" y="489.963"/><use x="74.565" xlink:href="#C" y="483.632"/><use x="82.703" xlink:href="#C" y="475.86"/><use x="90.841" xlink:href="#C" y="472.906"/><use x="98.979" xlink:href="#C" y="466.31"/><use x="107.117" xlink:href="#C" y="462.775"/><use x="115.255" xlink:href="#C" y="461.601"/><use x="123.393" xlink:href="#C" y="455.342"/><use x="131.532" xlink:href="#C" y="451.396"/><use x="139.67" xlink:href="#C" y="447.479"/><use x="147.808" xlink:href="#C" y="442.611"/><use x="155.946" xlink:href="#C" y="438.964"/><use x="164.084" xlink:href="#C" y="434.559"/><use x="172.222" xlink:href="#C" y="429.325"/><use x="180.36" xlink:href="#C" y="425.048"/><use x="188.499" xlink:href="#C" y="423.479"/><use x="196.637" xlink:href="#C" y="418.964"/><use x="204.775" xlink:href="#C" y="414.91"/><use x="212.913" xlink:href="#C" y="412.045"/><use x="221.051" xlink:href="#C" y="408.455"/><use x="229.189" xlink:href="#C" y="403.719"/><use x="237.327" xlink:href="#C" y="400.184"/><use x="245.466" xlink:href="#C" y="397.03"/><use x="253.604" xlink:href="#C" y="391.975"/><use x="261.742" xlink:href="#C" y="388.558"/><use x="269.88" xlink:href="#C" y="386.863"/><use x="278.018" xlink:href="#C" y="384.2"/><use x="286.156" xlink:href="#C" y="380.377"/><use x="294.294" xlink:href="#C" y="377.708"/><use x="302.433" xlink:href="#C" y="375.117"/><use x="310.571" xlink:href="#C" y="372.52"/><use x="318.709" xlink:href="#C" y="370.445"/><use x="326.847" xlink:href="#C" y="369.168"/><use x="334.985" xlink:href="#C" y="366.152"/><use x="343.123" xlink:href="#C" y="364.947"/><use x="351.261" xlink:href="#C" y="363.439"/><use x="359.4" xlink:href="#C" y="361.829"/><use x="367.538" xlink:href="#C" y="361.049"/><use x="375.676" xlink:href="#C" y="359.761"/><use x="383.814" xlink:href="#C" y="359.204"/><use x="391.952" xlink:href="#C" y="358.271"/><use x="400.09" xlink:href="#C" y="357.373"/><use x="408.228" xlink:href="#C" y="356.273"/><use x="416.367" xlink:href="#C" y="355.332"/><use x="424.505" xlink:href="#C" y="354.679"/><use x="432.643" xlink:href="#C" y="353.701"/><use x="440.781" xlink:href="#C" y="352.88"/><use x="448.919" xlink:href="#C" y="352.299"/><use x="457.057" xlink:href="#C" y="350.949"/><use x="465.195" xlink:href="#C" y="349.958"/><use x="473.334" xlink:href="#C" y="349.007"/><use x="481.472" xlink:href="#C" y="347.915"/><use x="489.61" xlink:href="#C" y="347.074"/><use x="497.748" xlink:href="#C" y="346.623"/><use x="505.886" xlink:href="#C" y="346.087"/><use x="514.024" xlink:href="#C" y="345.476"/><use x="522.162" xlink:href="#C" y="344.989"/><use x="530.301" xlink:href="#C" y="343.936"/></g></g><g stroke="#9467bd"><path clip-path="url(#U)" d="M90.835 569.8l.006-33.022h8.138l8.138-21.058 8.138-2.955 8.138-10.332 8.139-5.514 8.138-6.104 8.138-11.933 8.138-2.618 8.138-6.508 8.138-2.955 8.138-7.182 8.139-5.853 8.138-5.734 8.138-7.426 8.138-5.098 8.138-4.757 8.138-6.039 8.138-5.83 8.139-5.427 8.138-6.82 8.138-5.136 8.138-3.655 8.138-3.596 8.138-3.662 8.138-3.394 8.139-3.673 8.138-3.645 8.138-3.168 8.138-3.769 8.138-1.994 8.138-2.377 8.138-2.31 8.139-2.118 8.138-1.838 8.138-1.713 8.138-1.486 8.138-1.025 8.138-1.1 8.138-.847 8.139-.907 8.138-1.036 8.138-1.054 8.138-1.058 8.138-.625 8.138-.562 8.138-.619 8.139-.436 8.138-1.212 8.138-.922 8.138-.443 8.138-.689 8.138-.405 8.138-.642 8.139-.38" fill="none" stroke-linecap="square" stroke-width="1.5"/><g clip-path="url(#U)" fill="#9467bd"><use x="83.391" xlink:href="#D" y="40954.6"/><use x="90.841" xlink:href="#D" y="536.778"/><use x="98.979" xlink:href="#D" y="536.778"/><use x="107.117" xlink:href="#D" y="515.72"/><use x="115.255" xlink:href="#D" y="512.765"/><use x="123.393" xlink:href="#D" y="502.433"/><use x="131.532" xlink:href="#D" y="496.919"/><use x="139.67" xlink:href="#D" y="490.815"/><use x="147.808" xlink:href="#D" y="478.882"/><use x="155.946" xlink:href="#D" y="476.264"/><use x="164.084" xlink:href="#D" y="469.756"/><use x="172.222" xlink:href="#D" y="466.801"/><use x="180.36" xlink:href="#D" y="459.619"/><use x="188.499" xlink:href="#D" y="453.766"/><use x="196.637" xlink:href="#D" y="448.032"/><use x="204.775" xlink:href="#D" y="440.606"/><use x="212.913" xlink:href="#D" y="435.508"/><use x="221.051" xlink:href="#D" y="430.751"/><use x="229.189" xlink:href="#D" y="424.712"/><use x="237.327" xlink:href="#D" y="418.882"/><use x="245.466" xlink:href="#D" y="413.455"/><use x="253.604" xlink:href="#D" y="406.635"/><use x="261.742" xlink:href="#D" y="401.499"/><use x="269.88" xlink:href="#D" y="397.844"/><use x="278.018" xlink:href="#D" y="394.248"/><use x="286.156" xlink:href="#D" y="390.586"/><use x="294.294" xlink:href="#D" y="387.192"/><use x="302.433" xlink:href="#D" y="383.519"/><use x="310.571" xlink:href="#D" y="379.874"/><use x="318.709" xlink:href="#D" y="376.706"/><use x="326.847" xlink:href="#D" y="372.937"/><use x="334.985" xlink:href="#D" y="370.943"/><use x="343.123" xlink:href="#D" y="368.566"/><use x="351.261" xlink:href="#D" y="366.257"/><use x="359.4" xlink:href="#D" y="364.138"/><use x="367.538" xlink:href="#D" y="362.3"/><use x="375.676" xlink:href="#D" y="360.587"/><use x="383.814" xlink:href="#D" y="359.101"/><use x="391.952" xlink:href="#D" y="358.076"/><use x="400.09" xlink:href="#D" y="356.976"/><use x="408.228" xlink:href="#D" y="356.129"/><use x="416.367" xlink:href="#D" y="355.222"/><use x="424.505" xlink:href="#D" y="354.186"/><use x="432.643" xlink:href="#D" y="353.132"/><use x="440.781" xlink:href="#D" y="352.074"/><use x="448.919" xlink:href="#D" y="351.449"/><use x="457.057" xlink:href="#D" y="350.887"/><use x="465.195" xlink:href="#D" y="350.268"/><use x="473.334" xlink:href="#D" y="349.832"/><use x="481.472" xlink:href="#D" y="348.62"/><use x="489.61" xlink:href="#D" y="347.698"/><use x="497.748" xlink:href="#D" y="347.255"/><use x="505.886" xlink:href="#D" y="346.566"/><use x="514.024" xlink:href="#D" y="346.161"/><use x="522.162" xlink:href="#D" y="345.519"/><use x="530.301" xlink:href="#D" y="345.139"/></g></g><path clip-path="url(#U)" d="M530.3 309.907l8.139-.247 8.138-.248 8.138-.247" fill="none" stroke="#1f77b4" stroke-dasharray="1.5 2.475" stroke-width="1.5"/><path clip-path="url(#U)" d="M530.3 327.626l8.139-.392 8.138-.392 8.138-.392" fill="none" stroke="#ff7f0e" stroke-dasharray="1.5 2.475" stroke-width="1.5"/><path clip-path="url(#U)" d="M530.3 340.204l8.139-.574 8.138-.575 8.138-.575" fill="none" stroke="#2ca02c" stroke-dasharray="1.5 2.475" stroke-width="1.5"/><path clip-path="url(#U)" d="M530.3 343.936l8.139-.756 8.138-.756 8.138-.757" fill="none" stroke="#d62728" stroke-dasharray="1.5 2.475" stroke-width="1.5"/><path clip-path="url(#U)" d="M530.3 345.14l8.139-.48 8.138-.479 8.138-.479" fill="none" stroke="#9467bd" stroke-dasharray="1.5 2.475" stroke-width="1.5"/><path d="M50.15 505.928V297.12M554.715 505.928V297.12M50.15 505.928h504.565M50.15 297.12h504.565" fill="none" stroke="#000" stroke-linecap="square" stroke-linejoin="miter" stroke-width=".8"/><g><path d="M327.03 500.928h220.685q2 0 2-2v-72.39q0-2-2-2H327.031q-2 0-2 2v72.39q0 2 2 2z" fill="#fff" opacity=".8" stroke="#ccc" stroke-linejoin="miter"/><path d="M329.03 432.636h20" fill="none" stroke="#1f77b4" stroke-linecap="square" stroke-width="1.5"/><use fill="#1f77b4" stroke="#1f77b4" x="339.031" xlink:href="#A" y="432.636"/><g transform="matrix(.1 0 0 -.1 357.03 436.136)"><use xlink:href="#V"/><use x="74.805" xlink:href="#z"/><use x="136.328" xlink:href="#x"/><path d="M249.7 72.906h10.609l20.203-29.984 20.078 29.984h10.594L285.402 34.72V0h-9.906v34.719z"/><use x="310.783" xlink:href="#u"/><use x="371.965" xlink:href="#e"/><path d="M422.156 75.984h9.031V31.11L458 54.687h11.469l-29-25.578L470.703 0h-11.719l-27.796 26.703V0h-9.032z"/><use x="502.775" xlink:href="#O"/><use x="541.789" xlink:href="#w"/><use x="605.266" xlink:href="#u"/><use x="666.447" xlink:href="#P"/><use x="729.826" xlink:href="#Q"/><use x="793.303" xlink:href="#v"/><use x="821.086" xlink:href="#z"/><use x="882.609" xlink:href="#K"/><use x="966.496" xlink:href="#y"/><use x="994.279" xlink:href="#R"/><use x="1089.445" xlink:href="#s"/><use x="1153.068" xlink:href="#o"/><use x="1216.691" xlink:href="#S"/><use x="1248.479" xlink:href="#p"/><use x="1343.889" xlink:href="#w"/><use x="1407.365" xlink:href="#d"/><use x="1468.645" xlink:href="#j"/><use x="1527.824" xlink:href="#K"/><use x="1579.924" xlink:href="#T"/></g><path d="M329.03 447.314h20" fill="none" stroke="#ff7f0e" stroke-linecap="square" stroke-width="1.5"/><use fill="#ff7f0e" stroke="#ff7f0e" x="339.031" xlink:href="#B" y="447.314"/><g transform="matrix(.1 0 0 -.1 357.03 450.814)"><use xlink:href="#V"/><use x="74.805" xlink:href="#z"/><use x="136.328" xlink:href="#x"/><path d="M259.715 72.906h9.86V5.078q0-13.187-5-19.14-5-5.954-16.095-5.954h-3.75v8.297h3.079q6.53 0 9.218 3.672 2.688 3.656 2.688 13.125z"/><use x="279.395" xlink:href="#z"/><use x="340.918" xlink:href="#e"/><use x="382.031" xlink:href="#K"/><use x="434.131" xlink:href="#z"/><use x="495.654" xlink:href="#j"/><use x="586.621" xlink:href="#O"/><use x="625.635" xlink:href="#w"/><use x="689.111" xlink:href="#u"/><use x="750.293" xlink:href="#P"/><use x="813.672" xlink:href="#Q"/><use x="877.148" xlink:href="#v"/><use x="904.932" xlink:href="#z"/><use x="966.455" xlink:href="#K"/><use x="1050.342" xlink:href="#y"/><use x="1078.125" xlink:href="#R"/><use x="1173.291" xlink:href="#o"/><use x="1236.914" xlink:href="#o"/><use x="1300.537" xlink:href="#S"/><use x="1332.324" xlink:href="#l"/><use x="1427.734" xlink:href="#w"/><use x="1491.211" xlink:href="#d"/><use x="1552.49" xlink:href="#j"/><use x="1611.67" xlink:href="#K"/><use x="1663.77" xlink:href="#T"/></g><path d="M329.03 461.992h20" fill="none" stroke="#2ca02c" stroke-linecap="square" stroke-width="1.5"/><g transform="matrix(.1 0 0 -.1 357.03 465.492)"><use xlink:href="#c"/><use x="86.279" xlink:href="#d"/><use x="147.559" xlink:href="#K"/><use x="199.658" xlink:href="#K"/><use x="251.758" xlink:href="#d"/><use x="313.037" xlink:href="#E"/><path d="M422.908 33.016V0h-8.984v32.719q0 7.765-3.031 11.61-3.032 3.858-9.079 3.858-7.28 0-11.484-4.64-4.203-4.625-4.203-12.64V0h-9.031v75.984h9.031V46.188q3.234 4.937 7.594 7.374Q398.096 56 403.814 56q9.422 0 14.25-5.828 4.844-5.828 4.844-17.156z"/><use x="431.396" xlink:href="#P"/><use x="494.775" xlink:href="#K"/><use x="546.875" xlink:href="#z"/><use x="608.398" xlink:href="#F"/><use x="647.607" xlink:href="#F"/><use x="686.816" xlink:href="#K"/><use x="770.703" xlink:href="#O"/><use x="809.717" xlink:href="#w"/><use x="873.193" xlink:href="#u"/><use x="934.375" xlink:href="#P"/><use x="997.754" xlink:href="#Q"/><use x="1061.23" xlink:href="#v"/><use x="1089.014" xlink:href="#z"/><use x="1150.537" xlink:href="#K"/><use x="1234.424" xlink:href="#y"/><use x="1262.207" xlink:href="#R"/><use x="1357.373" xlink:href="#f"/><use x="1420.996" xlink:href="#o"/><use x="1484.619" xlink:href="#S"/><use x="1516.406" xlink:href="#m"/><use x="1611.816" xlink:href="#w"/><use x="1675.293" xlink:href="#d"/><use x="1736.572" xlink:href="#j"/><use x="1795.752" xlink:href="#K"/><use x="1847.852" xlink:href="#T"/></g><path d="M329.03 476.67h20" fill="none" stroke="#d62728" stroke-linecap="square" stroke-width="1.5"/><use fill="#d62728" stroke="#d62728" x="339.031" xlink:href="#C" y="476.67"/><g transform="matrix(.1 0 0 -.1 357.03 480.17)"><use xlink:href="#H"/><use x="69.824" xlink:href="#d"/><use x="131.104" xlink:href="#v"/><use x="158.887" xlink:href="#y"/><use x="186.67" xlink:href="#L"/><use x="221.875" xlink:href="#u"/><use x="283.057" xlink:href="#e"/><use x="324.154" xlink:href="#R"/><use x="387.533" xlink:href="#y"/><use x="415.316" xlink:href="#d"/><use x="508.383" xlink:href="#O"/><use x="547.396" xlink:href="#w"/><use x="610.873" xlink:href="#u"/><use x="672.055" xlink:href="#P"/><use x="735.434" xlink:href="#Q"/><use x="798.91" xlink:href="#v"/><use x="826.693" xlink:href="#z"/><use x="888.217" xlink:href="#K"/><use x="972.104" xlink:href="#y"/><use x="999.887" xlink:href="#R"/><use x="1095.053" xlink:href="#m"/><use x="1158.676" xlink:href="#p"/><use x="1222.299" xlink:href="#S"/><use x="1254.086" xlink:href="#n"/><use x="1349.496" xlink:href="#w"/><use x="1412.973" xlink:href="#d"/><use x="1474.252" xlink:href="#j"/><use x="1533.432" xlink:href="#K"/><use x="1585.531" xlink:href="#T"/></g><path d="M329.03 491.348h20" fill="none" stroke="#9467bd" stroke-linecap="square" stroke-width="1.5"/><use fill="#9467bd" stroke="#9467bd" x="339.031" xlink:href="#D" y="491.348"/><g transform="matrix(.1 0 0 -.1 357.03 494.848)"><path d="M19.672 64.797v-27.39h12.406q6.89 0 10.64 3.562 3.766 3.562 3.766 10.156 0 6.547-3.765 10.11-3.75 3.562-10.64 3.562zm-9.86 8.11h22.266q12.266 0 18.531-5.548 6.282-5.546 6.282-16.234 0-10.797-6.282-16.313-6.265-5.515-18.53-5.515H19.671V0h-9.86z"/><use x="60.256" xlink:href="#z"/><use x="121.779" xlink:href="#R"/><use x="185.158" xlink:href="#R"/><use x="248.537" xlink:href="#K"/><use x="300.637" xlink:href="#j"/><use x="359.816" xlink:href="#v"/><use x="387.6" xlink:href="#G"/><use x="446.779" xlink:href="#d"/><use x="508.059" xlink:href="#R"/><use x="571.438" xlink:href="#y"/><use x="599.221" xlink:href="#d"/><use x="692.287" xlink:href="#O"/><use x="731.301" xlink:href="#w"/><use x="794.777" xlink:href="#u"/><use x="855.959" xlink:href="#P"/><use x="919.338" xlink:href="#Q"/><use x="982.814" xlink:href="#v"/><use x="1010.598" xlink:href="#z"/><use x="1072.121" xlink:href="#K"/><use x="1156.008" xlink:href="#y"/><use x="1183.791" xlink:href="#R"/><use x="1278.957" xlink:href="#f"/><use x="1342.58" xlink:href="#p"/><use x="1406.203" xlink:href="#S"/><use x="1437.99" xlink:href="#p"/><use x="1533.4" xlink:href="#w"/><use x="1596.877" xlink:href="#d"/><use x="1658.156" xlink:href="#j"/><use x="1717.336" xlink:href="#K"/><use x="1769.436" xlink:href="#T"/></g></g></g></svg>