<svg height="758.4" stroke-linejoin="round" viewBox="0 0 568.8 568.8" width="758.4" xmlns="http://www.w3.org/2000/svg" xmlns:xlink="http://www.w3.org/1999/xlink"><defs><path id="w" d="M45.406 46.39v29.594h8.985V0h-8.985v8.203Q42.578 3.328 38.25.953q-4.313-2.375-10.375-2.375-9.906 0-16.14 7.906-6.22 7.922-6.22 20.813 0 12.89 6.22 20.797Q17.968 56 27.874 56q6.063 0 10.375-2.375 4.328-2.36 7.156-7.234zm-30.61-19.093q0-9.906 4.079-15.547 4.078-5.64 11.203-5.64 7.125 0 11.219 5.64 4.11 5.64 4.11 15.547 0 9.906-4.11 15.547-4.094 5.64-11.219 5.64-7.125 0-11.203-5.64-4.078-5.64-4.078-15.547z" stroke-linejoin="round"/><path id="U" d="M9.813 72.906h13.28l32.329-60.984v60.984h9.562V0h-13.28L19.39 60.984V0H9.813z" stroke-linejoin="round"/><path id="b" d="M0 0v3.5" stroke="#000" stroke-linejoin="round" stroke-width=".8"/><path id="c" d="M9.813 72.906h14.703l18.593-49.61 18.703 49.61h14.704V0H66.89v64.016l-18.797-50h-9.907l-18.796 50V0H9.813z" stroke-linejoin="round"/><path id="d" d="M34.281 27.484q-10.89 0-15.093-2.484-4.204-2.484-4.204-8.5 0-4.781 3.157-7.594 3.156-2.797 8.562-2.797 7.485 0 12 5.297 4.516 5.297 4.516 14.078v2zm17.922 3.72V0H43.22v8.297Q40.14 3.328 35.547.953q-4.594-2.375-11.234-2.375-8.391 0-13.36 4.719Q6 8.016 6 15.922q0 9.219 6.172 13.906 6.187 4.688 18.437 4.688h12.61v.89q0 6.203-4.078 9.594-4.078 3.39-11.453 3.39-4.688 0-9.141-1.124-4.438-1.125-8.531-3.375v8.312q4.921 1.906 9.562 2.844 4.64.953 9.031.953 11.875 0 17.735-6.156 5.86-6.14 5.86-18.64z" stroke-linejoin="round"/><path id="e" d="M41.11 46.297q-1.516.875-3.297 1.281Q36.03 48 33.89 48q-7.625 0-11.703-4.953-4.079-4.953-4.079-14.234V0H9.08v54.688h9.03v-8.5q2.844 4.984 7.375 7.39Q30.031 56 36.531 56q.922 0 2.047-.125 1.125-.11 2.484-.36z" stroke-linejoin="round"/><path id="f" d="M19.188 8.297h34.421V0H7.33v8.297q5.609 5.812 15.296 15.594 9.703 9.797 12.188 12.64 4.734 5.313 6.609 9 1.89 3.688 1.89 7.25 0 5.813-4.078 9.469-4.078 3.672-10.625 3.672-4.64 0-9.797-1.61-5.14-1.609-11-4.89v9.969Q13.767 71.78 18.938 73q5.188 1.219 9.485 1.219 11.328 0 18.062-5.672 6.735-5.656 6.735-15.125 0-4.5-1.688-8.531-1.672-4.016-6.125-9.485-1.218-1.422-7.765-8.187-6.532-6.766-18.453-18.922z" stroke-linejoin="round"/><path id="g" d="M31.781 66.406q-7.61 0-11.453-7.5Q16.5 51.422 16.5 36.375q0-14.984 3.828-22.484 3.844-7.5 11.453-7.5 7.672 0 11.5 7.5 3.844 7.5 3.844 22.484 0 15.047-3.844 22.531-3.828 7.5-11.5 7.5zm0 7.813q12.266 0 18.735-9.703 6.468-9.688 6.468-28.141 0-18.406-6.468-28.11-6.47-9.687-18.735-9.687-12.25 0-18.718 9.688-6.47 9.703-6.47 28.109 0 18.453 6.47 28.14Q19.53 74.22 31.78 74.22z" stroke-linejoin="round"/><path id="h" d="M34.188 63.188L20.797 26.906h26.812zm-5.579 9.718h11.188L67.578 0h-10.25l-6.64 18.703h-32.86L11.188 0H.78z" stroke-linejoin="round"/><path id="i" d="M18.11 8.203v-29H9.077v75.484h9.031v-8.296q2.844 4.875 7.157 7.234Q29.594 56 35.594 56q9.968 0 16.187-7.906 6.235-7.907 6.235-20.797T51.78 6.484q-6.218-7.906-16.187-7.906-6 0-10.328 2.375-4.313 2.375-7.157 7.25zm30.578 19.094q0 9.906-4.079 15.547-4.078 5.64-11.203 5.64-7.14 0-11.218-5.64-4.079-5.64-4.079-15.547 0-9.906 4.078-15.547 4.079-5.64 11.22-5.64 7.124 0 11.202 5.64t4.078 15.547z" stroke-linejoin="round"/><path id="j" d="M32.172-5.078q-3.797-9.766-7.422-12.735-3.61-2.984-9.656-2.984H7.906v7.516h5.282q3.703 0 5.75 1.765Q21-9.766 23.483-3.219l1.61 4.094-22.11 53.813H12.5l17.094-42.766 17.093 42.766h9.516z" stroke-linejoin="round"/><path id="k" d="M0 0v2" stroke="#000" stroke-linejoin="round" stroke-width=".6"/><path id="l" d="M10.984 1.516V10.5q3.72-1.766 7.516-2.688 3.813-.921 7.484-.921 9.766 0 14.907 6.562 5.156 6.563 5.89 19.953-2.828-4.203-7.187-6.453-4.344-2.25-9.61-2.25-10.937 0-17.312 6.61-6.375 6.625-6.375 18.109 0 11.219 6.64 18 6.641 6.797 17.672 6.797 12.657 0 19.313-9.703 6.672-9.688 6.672-28.141 0-17.234-8.188-27.516Q40.234-1.42 26.422-1.42q-3.719 0-7.531.734-3.797.734-7.907 2.203zM30.61 32.422q6.641 0 10.516 4.531 3.89 4.547 3.89 12.469 0 7.86-3.89 12.422-3.875 4.562-10.516 4.562-6.64 0-10.515-4.562-3.875-4.563-3.875-12.422 0-7.922 3.875-12.469 3.875-4.531 10.515-4.531z" stroke-linejoin="round"/><path id="m" d="M12.406 8.297h16.11v55.625l-17.532-3.516v8.985l17.438 3.515h9.86V8.296H54.39V0H12.406z" stroke-linejoin="round"/><path id="n" d="M33.016 40.375q-6.641 0-10.532-4.547-3.875-4.531-3.875-12.437 0-7.86 3.875-12.438 3.891-4.562 10.532-4.562 6.64 0 10.515 4.562 3.875 4.578 3.875 12.438 0 7.906-3.875 12.437-3.875 4.547-10.515 4.547zm19.578 30.922v-8.984q-3.719 1.75-7.5 2.671-3.782.938-7.5.938-9.766 0-14.922-6.594-5.14-6.594-5.875-19.922 2.875 4.25 7.219 6.516 4.359 2.266 9.578 2.266 10.984 0 17.36-6.672 6.374-6.657 6.374-18.125 0-11.235-6.64-18.032-6.641-6.78-17.672-6.78-12.657 0-19.344 9.687-6.688 9.703-6.688 28.109 0 17.281 8.204 27.563 8.203 10.28 22.015 10.28 3.719 0 7.5-.734t7.89-2.187z" stroke-linejoin="round"/><path id="o" d="M40.578 39.313Q47.656 37.797 51.625 33q3.984-4.781 3.984-11.813 0-10.78-7.422-16.703-7.421-5.906-21.093-5.906-4.578 0-9.438.906-4.86.907-10.031 2.72v9.515q4.094-2.39 8.969-3.61 4.89-1.218 10.218-1.218 9.266 0 14.125 3.656 4.86 3.656 4.86 10.64 0 6.454-4.516 10.079-4.515 3.64-12.562 3.64h-8.5v8.11h8.89q7.266 0 11.125 2.906 3.86 2.906 3.86 8.375 0 5.61-3.985 8.61-3.968 3.015-11.39 3.015-4.063 0-8.703-.89-4.641-.876-10.203-2.72v8.782q5.624 1.562 10.53 2.344 4.907.78 9.25.78 11.235 0 17.766-5.109 6.547-5.093 6.547-13.78 0-6.063-3.468-10.235-3.47-4.172-9.86-5.782z" stroke-linejoin="round"/><path id="p" d="M8.203 72.906h46.875v-4.203L28.61 0H18.312L43.22 64.594H8.203z" stroke-linejoin="round"/><path id="q" d="M37.797 64.313L12.89 25.39h24.906zm-2.594 8.593H47.61V25.391h10.407v-8.203H47.609V0h-9.812v17.188H4.89v9.515z" stroke-linejoin="round"/><path id="r" d="M0 0h-3.5" stroke="#000" stroke-linejoin="round" stroke-width=".8"/><path id="s" d="M10.797 72.906h38.719v-8.312H19.828v-17.86q2.14.735 4.281 1.094 2.157.36 4.313.36 12.203 0 19.328-6.688 7.14-6.688 7.14-18.11 0-11.765-7.328-18.296-7.328-6.516-20.656-6.516-4.593 0-9.36.781-4.75.782-9.827 2.344v9.922q4.39-2.39 9.078-3.563 4.687-1.171 9.906-1.171 8.453 0 13.375 4.437 4.938 4.438 4.938 12.063 0 7.609-4.938 12.047-4.922 4.453-13.375 4.453-3.953 0-7.89-.875-3.922-.875-8.016-2.735z" stroke-linejoin="round"/><path id="t" d="M0 0h-2" stroke="#000" stroke-linejoin="round" stroke-width=".6"/><path id="u" d="M30.61 48.39q-7.22 0-11.422-5.64-4.204-5.64-4.204-15.453 0-9.813 4.172-15.453 4.188-5.64 11.453-5.64 7.188 0 11.375 5.655 4.203 5.672 4.203 15.438 0 9.719-4.203 15.406-4.187 5.688-11.375 5.688zm0 7.61q11.718 0 18.406-7.625 6.703-7.61 6.703-21.078 0-13.422-6.703-21.078-6.688-7.64-18.407-7.64-11.765 0-18.437 7.64-6.656 7.656-6.656 21.078 0 13.469 6.656 21.078Q18.844 56 30.609 56z" stroke-linejoin="round"/><path id="v" d="M9.422 75.984h8.984V0H9.422z" stroke-linejoin="round"/><path id="S" d="M8.016 75.875h7.812q7.313-11.516 10.953-22.563 3.64-11.03 3.64-21.921 0-10.938-3.64-22.016-3.64-11.078-10.953-22.563H8.016Q14.5-2 17.703 9.063q3.203 11.063 3.203 22.329 0 11.28-3.203 22.265-3.203 11-9.687 22.219z" stroke-linejoin="round"/><path id="x" d="M4.203 54.688h8.985l11.234-42.672 11.172 42.672h10.593l11.235-42.672 11.187 42.672h8.985L63.28 0H52.688L40.922 44.828 29.109 0H18.5z" stroke-linejoin="round"/><path id="y" d="M9.422 54.688h8.984V0H9.422zm0 21.296h8.984v-11.39H9.422z" stroke-linejoin="round"/><path id="z" d="M56.203 29.594v-4.39H14.891q.593-9.282 5.593-14.142 5-4.859 13.938-4.859 5.172 0 10.031 1.266 4.86 1.265 9.656 3.812v-8.5Q49.266.734 44.187-.344 39.11-1.422 33.892-1.422q-13.094 0-20.735 7.61-7.64 7.625-7.64 20.625 0 13.421 7.25 21.296Q20.016 56 32.328 56q11.031 0 17.453-7.11 6.422-7.093 6.422-19.296zm-8.984 2.64q-.094 7.36-4.125 11.75-4.032 4.407-10.672 4.407-7.516 0-12.031-4.25-4.516-4.25-5.203-11.97z" stroke-linejoin="round"/><path id="A" d="M-3 0h6M0 3v-6" stroke="#1f77b4" stroke-linejoin="round"/><path id="B" d="M0 1.5a1.5 1.5 0 100-3 1.5 1.5 0 000 3z" stroke="#ff7f0e" stroke-linejoin="round"/><path id="C" d="M-3 0h6M0 3v-6" stroke="#d62728" stroke-linejoin="round"/><path id="D" d="M0 1.5a1.5 1.5 0 100-3 1.5 1.5 0 000 3z" stroke="#9467bd" stroke-linejoin="round"/><path id="E" d="M48.781 52.594v-8.407q-3.812 2.11-7.64 3.157-3.828 1.047-7.735 1.047-8.75 0-13.593-5.547-4.829-5.532-4.829-15.547 0-10.016 4.829-15.563 4.843-5.53 13.593-5.53 3.907 0 7.735 1.046 3.828 1.047 7.64 3.156V2.094Q45.016.344 40.984-.531q-4.015-.89-8.562-.89-12.36 0-19.64 7.765-7.266 7.765-7.266 20.953 0 13.375 7.343 21.031Q20.22 56 33.016 56q4.14 0 8.093-.86 3.953-.843 7.672-2.546z" stroke-linejoin="round"/><path id="F" d="M18.313 70.219V54.688h18.5v-6.985h-18.5V18.016q0-6.688 1.828-8.594 1.828-1.906 7.453-1.906h9.218V0h-9.218q-10.407 0-14.36 3.875-3.953 3.89-3.953 14.14v29.688H2.687v6.984h6.594V70.22z" stroke-linejoin="round"/><path id="G" d="M64.406 67.281v-10.39q-4.984 4.64-10.625 6.922-5.64 2.296-11.984 2.296-12.5 0-19.14-7.64-6.641-7.64-6.641-22.094 0-14.406 6.64-22.047 6.64-7.64 19.14-7.64 6.345 0 11.985 2.296 5.64 2.297 10.625 6.938V5.609Q59.234 2.094 53.437.33q-5.78-1.75-12.218-1.75-16.563 0-26.094 10.124-9.516 10.14-9.516 27.672 0 17.578 9.516 27.703 9.531 10.14 26.094 10.14 6.531 0 12.312-1.734 5.797-1.734 10.875-5.203z" stroke-linejoin="round"/><path id="H" d="M9.813 72.906h9.859V0h-9.86z" stroke-linejoin="round"/><path id="I" d="M4.89 31.39h26.313v-8H4.891z" stroke-linejoin="round"/><path id="J" d="M44.281 53.078v-8.5q-3.797 1.953-7.906 2.922-4.094.984-8.5.984-6.688 0-10.031-2.047-3.344-2.046-3.344-6.156 0-3.125 2.39-4.906 2.391-1.781 9.626-3.39l3.078-.688q9.562-2.047 13.593-5.781 4.032-3.735 4.032-10.422 0-7.625-6.032-12.078-6.03-4.438-16.578-4.438-4.39 0-9.156.86Q10.688.296 5.422 2v9.281q4.984-2.594 9.812-3.89 4.829-1.282 9.579-1.282 6.343 0 9.75 2.172 3.421 2.172 3.421 6.125 0 3.656-2.468 5.61-2.453 1.953-10.813 3.765l-3.125.735q-8.344 1.75-12.062 5.39-3.704 3.64-3.704 9.985 0 7.718 5.47 11.906Q16.75 56 26.811 56q4.97 0 9.36-.734 4.406-.72 8.11-2.188z" stroke-linejoin="round"/><path id="K" d="M37.11 75.984V68.5h-8.594q-4.828 0-6.72-1.953-1.874-1.953-1.874-7.031v-4.828h14.797v-6.985H19.922V0H10.89v47.703H2.297v6.984h8.594V58.5q0 9.125 4.25 13.297 4.25 4.187 13.468 4.187z" stroke-linejoin="round"/><path id="L" d="M8.688 72.906h9.921V28.61q0-11.718 4.235-16.875 4.25-5.14 13.781-5.14 9.469 0 13.719 5.14 4.25 5.157 4.25 16.875v44.297H64.5V27.391q0-14.25-7.063-21.532-7.046-7.28-20.812-7.28-13.828 0-20.89 7.28-7.047 7.282-7.047 21.532z" stroke-linejoin="round"/><path id="M" d="M53.516 70.516V60.89q-5.61 2.687-10.594 4-4.984 1.328-9.625 1.328-8.047 0-12.422-3.125t-4.375-8.89q0-4.845 2.906-7.313 2.907-2.453 11.016-3.97l5.953-1.218q11.031-2.11 16.281-7.406 5.25-5.297 5.25-14.172 0-10.61-7.11-16.078-7.093-5.469-20.812-5.469-5.172 0-11.015 1.172Q13.14.922 6.89 3.219v10.156q6-3.36 11.765-5.078 5.766-1.703 11.328-1.703 8.438 0 13.032 3.312 4.593 3.328 4.593 9.485 0 5.359-3.297 8.39-3.296 3.032-10.812 4.547L27.484 33.5q-11.03 2.188-15.968 6.875-4.922 4.688-4.922 13.047 0 9.672 6.812 15.234 6.813 5.563 18.766 5.563 5.14 0 10.453-.938 5.328-.922 10.89-2.765z" stroke-linejoin="round"/><path id="N" d="M31 75.875q-6.531-11.219-9.719-22.219-3.172-10.984-3.172-22.265 0-11.266 3.203-22.328Q24.517-2 31-13.188h-7.813Q15.875-1.704 12.235 9.375q-3.64 11.078-3.64 22.016 0 10.89 3.61 21.922 3.624 11.046 10.983 22.562z" stroke-linejoin="round"/><path id="O" d="M8.5 21.578v33.11h8.984V21.922q0-7.766 3.016-11.656 3.031-3.875 9.094-3.875 7.265 0 11.484 4.64 4.234 4.64 4.234 12.656v31h8.985V0h-8.984v8.406Q42.047 3.422 37.718 1q-4.313-2.422-10.032-2.422-9.421 0-14.312 5.86Q8.5 10.296 8.5 21.578z" stroke-linejoin="round"/><path id="P" d="M48.688 27.297q0 9.906-4.079 15.547-4.078 5.64-11.203 5.64-7.14 0-11.218-5.64-4.079-5.64-4.079-15.547 0-9.906 4.078-15.547 4.079-5.64 11.22-5.64 7.124 0 11.202 5.64t4.078 15.547zM18.108 46.39q2.844 4.875 7.157 7.234Q29.594 56 35.594 56q9.968 0 16.187-7.906 6.235-7.907 6.235-20.797T51.78 6.484q-6.218-7.906-16.187-7.906-6 0-10.328 2.375-4.313 2.375-7.157 7.25V0H9.08v75.984h9.03z" stroke-linejoin="round"/><path id="Q" d="M54.89 33.016V0h-8.984v32.719q0 7.765-3.031 11.61-3.031 3.858-9.078 3.858-7.281 0-11.484-4.64-4.204-4.625-4.204-12.64V0H9.08v54.688h9.03v-8.5q3.235 4.937 7.594 7.374Q30.078 56 35.797 56q9.422 0 14.25-5.828 4.844-5.828 4.844-17.156z" stroke-linejoin="round"/><path id="R" d="M10.688 12.406H21V0H10.687z" stroke-linejoin="round"/><clipPath id="T" stroke-linejoin="round"><path d="M50.15 297.12H558v208.808H50.15z"/></clipPath><clipPath id="a" stroke-linejoin="round"><path d="M50.15 25.44H558v208.808H50.15z"/></clipPath></defs><path d="M0 568.8h568.8V0H0z" fill="#fff"/><path d="M50.15 234.248H558V25.44H50.15z" fill="#fff"/><path clip-path="url(#a)" d="M50.15 234.248V25.44" fill="none" stroke="#b0b0b0" stroke-linecap="square" stroke-width=".8"/><use stroke="#000" stroke-width=".8" x="50.15" xlink:href="#b" y="234.248"/><g transform="matrix(.1 0 0 -.1 40.717 271.242)"><use xlink:href="#c"/><use x="86.279" xlink:href="#d"/><use x="147.559" xlink:href="#e"/></g><g transform="matrix(.1 0 0 -.1 37.425 282.44)"><use xlink:href="#f"/><use x="63.623" xlink:href="#g"/><use x="127.246" xlink:href="#f"/><use x="190.869" xlink:href="#g"/></g><path clip-path="url(#a)" d="M292.355 234.248V25.44" fill="none" stroke="#b0b0b0" stroke-linecap="square" stroke-width=".8"/><use stroke="#000" stroke-width=".8" x="292.355" xlink:href="#b" y="234.248"/><g transform="matrix(.1 0 0 -.1 283.705 271.242)"><use xlink:href="#h"/><use x="68.408" xlink:href="#i"/><use x="131.885" xlink:href="#e"/></g><path clip-path="url(#a)" d="M526.748 234.248V25.44" fill="none" stroke="#b0b0b0" stroke-linecap="square" stroke-width=".8"/><use stroke="#000" stroke-width=".8" x="526.748" xlink:href="#b" y="234.248"/><g transform="matrix(.1 0 0 -.1 516.41 271.242)"><use xlink:href="#c"/><use x="86.279" xlink:href="#d"/><use x="147.559" xlink:href="#j"/></g><g stroke-width=".8"><path clip-path="url(#a)" d="M558 234.248V25.44" fill="none" stroke="#b0b0b0" stroke-linecap="square"/><use stroke="#000" x="558" xlink:href="#b" y="234.248"/></g><use stroke="#000" stroke-width=".6" x="57.963" xlink:href="#k" y="234.248"/><g transform="matrix(.1 0 0 -.1 51.6 247.246)"><use xlink:href="#g"/><use x="63.623" xlink:href="#f"/></g><g stroke="#000" stroke-width=".6"><use x="65.776" xlink:href="#k" y="234.248"/><use x="73.589" xlink:href="#k" y="234.248"/><use x="81.403" xlink:href="#k" y="234.248"/><use x="89.216" xlink:href="#k" y="234.248"/><use x="97.029" xlink:href="#k" y="234.248"/><use x="104.842" xlink:href="#k" y="234.248"/></g><use stroke="#000" stroke-width=".6" x="112.655" xlink:href="#k" y="234.248"/><g transform="matrix(.1 0 0 -.1 106.292 247.246)"><use xlink:href="#g"/><use x="63.623" xlink:href="#l"/></g><g stroke="#000" stroke-width=".6"><use x="120.468" xlink:href="#k" y="234.248"/><use x="128.281" xlink:href="#k" y="234.248"/><use x="136.094" xlink:href="#k" y="234.248"/><use x="143.907" xlink:href="#k" y="234.248"/><use x="151.72" xlink:href="#k" y="234.248"/><use x="159.533" xlink:href="#k" y="234.248"/><use x="167.346" xlink:href="#k" y="234.248"/></g><g transform="matrix(.1 0 0 -.1 160.984 247.246)"><use xlink:href="#m"/><use x="63.623" xlink:href="#n"/></g><g stroke="#000" stroke-width=".6"><use x="175.159" xlink:href="#k" y="234.248"/><use x="182.972" xlink:href="#k" y="234.248"/><use x="190.786" xlink:href="#k" y="234.248"/><use x="198.599" xlink:href="#k" y="234.248"/><use x="206.412" xlink:href="#k" y="234.248"/><use x="214.225" xlink:href="#k" y="234.248"/><use x="222.038" xlink:href="#k" y="234.248"/></g><g transform="matrix(.1 0 0 -.1 215.675 247.246)"><use xlink:href="#f"/><use x="63.623" xlink:href="#o"/></g><g stroke="#000" stroke-width=".6"><use x="229.851" xlink:href="#k" y="234.248"/><use x="237.664" xlink:href="#k" y="234.248"/><use x="245.477" xlink:href="#k" y="234.248"/><use x="253.29" xlink:href="#k" y="234.248"/><use x="261.103" xlink:href="#k" y="234.248"/><use x="268.916" xlink:href="#k" y="234.248"/><use x="276.729" xlink:href="#k" y="234.248"/></g><g transform="matrix(.1 0 0 -.1 270.367 247.246)"><use xlink:href="#o"/><use x="63.623" xlink:href="#g"/></g><g stroke="#000" stroke-width=".6"><use x="284.542" xlink:href="#k" y="234.248"/><use x="300.169" xlink:href="#k" y="234.248"/><use x="307.982" xlink:href="#k" y="234.248"/><use x="315.795" xlink:href="#k" y="234.248"/><use x="323.608" xlink:href="#k" y="234.248"/><use x="331.421" xlink:href="#k" y="234.248"/></g><g transform="matrix(.1 0 0 -.1 325.058 247.246)"><use xlink:href="#g"/><use x="63.623" xlink:href="#n"/></g><g stroke="#000" stroke-width=".6"><use x="339.234" xlink:href="#k" y="234.248"/><use x="347.047" xlink:href="#k" y="234.248"/><use x="354.86" xlink:href="#k" y="234.248"/><use x="362.673" xlink:href="#k" y="234.248"/><use x="370.486" xlink:href="#k" y="234.248"/><use x="378.299" xlink:href="#k" y="234.248"/><use x="386.112" xlink:href="#k" y="234.248"/></g><g transform="matrix(.1 0 0 -.1 379.75 247.246)"><use xlink:href="#m"/><use x="63.623" xlink:href="#o"/></g><g stroke="#000" stroke-width=".6"><use x="393.925" xlink:href="#k" y="234.248"/><use x="401.739" xlink:href="#k" y="234.248"/><use x="409.552" xlink:href="#k" y="234.248"/><use x="417.365" xlink:href="#k" y="234.248"/><use x="425.178" xlink:href="#k" y="234.248"/><use x="432.991" xlink:href="#k" y="234.248"/><use x="440.804" xlink:href="#k" y="234.248"/></g><g transform="matrix(.1 0 0 -.1 434.441 247.246)"><use xlink:href="#f"/><use x="63.623" xlink:href="#g"/></g><g stroke="#000" stroke-width=".6"><use x="448.617" xlink:href="#k" y="234.248"/><use x="456.43" xlink:href="#k" y="234.248"/><use x="464.243" xlink:href="#k" y="234.248"/><use x="472.056" xlink:href="#k" y="234.248"/><use x="479.869" xlink:href="#k" y="234.248"/><use x="487.682" xlink:href="#k" y="234.248"/><use x="495.495" xlink:href="#k" y="234.248"/></g><g transform="matrix(.1 0 0 -.1 489.133 247.246)"><use xlink:href="#f"/><use x="63.623" xlink:href="#p"/></g><g stroke="#000" stroke-width=".6"><use x="503.308" xlink:href="#k" y="234.248"/><use x="511.122" xlink:href="#k" y="234.248"/><use x="518.935" xlink:href="#k" y="234.248"/><use x="534.561" xlink:href="#k" y="234.248"/><use x="542.374" xlink:href="#k" y="234.248"/><use x="550.187" xlink:href="#k" y="234.248"/></g><g transform="matrix(.1 0 0 -.1 543.824 247.246)"><use xlink:href="#g"/><use x="63.623" xlink:href="#q"/></g><path clip-path="url(#a)" d="M50.15 234.248H558" fill="none" stroke="#b0b0b0" stroke-linecap="square" stroke-width=".8"/><use stroke="#000" stroke-width=".8" x="50.15" xlink:href="#r" y="234.248"/><g transform="matrix(.1 0 0 -.1 25.55 238.047)"><use transform="translate(0 .684)" xlink:href="#m"/><use transform="translate(63.623 .684)" xlink:href="#g"/><use transform="matrix(.7 0 0 .7 128.203 38.966)" xlink:href="#m"/></g><path clip-path="url(#a)" d="M50.15 194.615H558" fill="none" stroke="#b0b0b0" stroke-linecap="square" stroke-width=".8"/><use stroke="#000" stroke-width=".8" x="50.15" xlink:href="#r" y="194.615"/><g transform="matrix(.1 0 0 -.1 25.55 198.414)"><use transform="translate(0 .766)" xlink:href="#m"/><use transform="translate(63.623 .766)" xlink:href="#g"/><use transform="matrix(.7 0 0 .7 128.203 39.047)" xlink:href="#f"/></g><path clip-path="url(#a)" d="M50.15 154.983H558" fill="none" stroke="#b0b0b0" stroke-linecap="square" stroke-width=".8"/><use stroke="#000" stroke-width=".8" x="50.15" xlink:href="#r" y="154.983"/><g transform="matrix(.1 0 0 -.1 25.55 158.782)"><use transform="translate(0 .766)" xlink:href="#m"/><use transform="translate(63.623 .766)" xlink:href="#g"/><use transform="matrix(.7 0 0 .7 128.203 39.047)" xlink:href="#o"/></g><path clip-path="url(#a)" d="M50.15 115.35H558" fill="none" stroke="#b0b0b0" stroke-linecap="square" stroke-width=".8"/><use stroke="#000" stroke-width=".8" x="50.15" xlink:href="#r" y="115.35"/><g transform="matrix(.1 0 0 -.1 25.55 119.149)"><use transform="translate(0 .684)" xlink:href="#m"/><use transform="translate(63.623 .684)" xlink:href="#g"/><use transform="matrix(.7 0 0 .7 128.203 38.966)" xlink:href="#q"/></g><path clip-path="url(#a)" d="M50.15 75.717H558" fill="none" stroke="#b0b0b0" stroke-linecap="square" stroke-width=".8"/><use stroke="#000" stroke-width=".8" x="50.15" xlink:href="#r" y="75.717"/><g transform="matrix(.1 0 0 -.1 25.55 79.516)"><use transform="translate(0 .684)" xlink:href="#m"/><use transform="translate(63.623 .684)" xlink:href="#g"/><use transform="matrix(.7 0 0 .7 128.203 38.966)" xlink:href="#s"/></g><path clip-path="url(#a)" d="M50.15 36.084H558" fill="none" stroke="#b0b0b0" stroke-linecap="square" stroke-width=".8"/><use stroke="#000" stroke-width=".8" x="50.15" xlink:href="#r" y="36.084"/><g transform="matrix(.1 0 0 -.1 25.55 39.884)"><use transform="translate(0 .766)" xlink:href="#m"/><use transform="translate(63.623 .766)" xlink:href="#g"/><use transform="matrix(.7 0 0 .7 128.203 39.047)" xlink:href="#n"/></g><g stroke="#000" stroke-width=".6"><use x="50.15" xlink:href="#t" y="222.317"/><use x="50.15" xlink:href="#t" y="215.338"/><use x="50.15" xlink:href="#t" y="210.387"/><use x="50.15" xlink:href="#t" y="206.546"/><use x="50.15" xlink:href="#t" y="203.408"/><use x="50.15" xlink:href="#t" y="200.754"/><use x="50.15" xlink:href="#t" y="198.456"/><use x="50.15" xlink:href="#t" y="196.429"/><use x="50.15" xlink:href="#t" y="182.685"/><use x="50.15" xlink:href="#t" y="175.706"/><use x="50.15" xlink:href="#t" y="170.754"/><use x="50.15" xlink:href="#t" y="166.913"/><use x="50.15" xlink:href="#t" y="163.775"/><use x="50.15" xlink:href="#t" y="161.122"/><use x="50.15" xlink:href="#t" y="158.823"/><use x="50.15" xlink:href="#t" y="156.796"/><use x="50.15" xlink:href="#t" y="143.052"/><use x="50.15" xlink:href="#t" y="136.073"/><use x="50.15" xlink:href="#t" y="131.121"/><use x="50.15" xlink:href="#t" y="127.28"/><use x="50.15" xlink:href="#t" y="124.142"/><use x="50.15" xlink:href="#t" y="121.489"/><use x="50.15" xlink:href="#t" y="119.191"/><use x="50.15" xlink:href="#t" y="117.163"/><use x="50.15" xlink:href="#t" y="103.419"/><use x="50.15" xlink:href="#t" y="96.44"/><use x="50.15" xlink:href="#t" y="91.489"/><use x="50.15" xlink:href="#t" y="87.648"/><use x="50.15" xlink:href="#t" y="84.51"/><use x="50.15" xlink:href="#t" y="81.856"/><use x="50.15" xlink:href="#t" y="79.558"/><use x="50.15" xlink:href="#t" y="77.531"/><use x="50.15" xlink:href="#t" y="63.786"/><use x="50.15" xlink:href="#t" y="56.807"/><use x="50.15" xlink:href="#t" y="51.856"/><use x="50.15" xlink:href="#t" y="48.015"/><use x="50.15" xlink:href="#t" y="44.877"/><use x="50.15" xlink:href="#t" y="42.224"/><use x="50.15" xlink:href="#t" y="39.925"/><use x="50.15" xlink:href="#t" y="37.898"/></g><g transform="matrix(0 -.1 -.1 0 19.47 156.19)"><path d="M3.328 72.906h9.953L28.61 11.281l15.282 61.625h11.093l15.328-61.625 15.282 61.625h10.015L77.297 0H64.89L49.516 63.281 33.984 0H21.578z"/><use x="98.799" xlink:href="#u"/><use x="159.98" xlink:href="#e"/><use x="201.094" xlink:href="#v"/><use x="228.877" xlink:href="#w"/><use x="292.354" xlink:href="#x"/><use x="374.141" xlink:href="#y"/><use x="401.924" xlink:href="#w"/><use x="465.4" xlink:href="#z"/></g><g stroke="#1f77b4"><path clip-path="url(#a)" d="M-1 211.672l4.272-4.423 7.813.362 7.813-2.068 7.813-.322 7.813-.316 7.813-2.062 7.813-1.59 7.813-4.437 7.813-3.365 7.813-3.873 7.814-6.98 7.813-4.162 7.813-7.334 7.813-4.462 7.813-2.132 7.813-8.146 7.813-5.04 7.813-4.547 7.813-4.726 7.813-3.906 7.813-4.346 7.813-4.817 7.813-5.667 7.813-3.153 7.814-9.812 7.813-5.781 7.813-5.013 7.813-4.973 7.813-4.382 7.813-3.45 7.813-3.478 7.813-4.127 7.813-3.29 7.813-3.04 7.813-2.361 7.813-2.08 7.813-2.51 7.813-2.089 7.814-2.294 7.813-2.13 7.813-1.708 7.813-1.4 7.813-1.4 7.813-1.256 7.813-1.33 7.813-1.222 7.813-1.173 7.813-.951 7.813-.906 7.813-.451 7.813-.673 7.814-.69 7.813-.735 7.813-.704 7.813-.678 7.813-.523 7.813-.57 7.813-.564 7.813-.587 7.813-.539 7.813-.353 7.813-.665 7.813-.43 7.813-.353 7.813-.369 7.814-.404 7.813.115 7.813-.439 7.813-.317" fill="none" stroke-linecap="square" stroke-width="1.5"/><g clip-path="url(#a)" fill="#1f77b4"><use x="-1" xlink:href="#A" y="211.672"/><use x="3.272" xlink:href="#A" y="207.249"/><use x="11.085" xlink:href="#A" y="207.611"/><use x="18.898" xlink:href="#A" y="205.543"/><use x="26.711" xlink:href="#A" y="205.221"/><use x="34.524" xlink:href="#A" y="204.905"/><use x="42.337" xlink:href="#A" y="202.843"/><use x="50.15" xlink:href="#A" y="201.253"/><use x="57.963" xlink:href="#A" y="196.816"/><use x="65.776" xlink:href="#A" y="193.451"/><use x="73.589" xlink:href="#A" y="189.578"/><use x="81.403" xlink:href="#A" y="182.599"/><use x="89.216" xlink:href="#A" y="178.436"/><use x="97.029" xlink:href="#A" y="171.102"/><use x="104.842" xlink:href="#A" y="166.64"/><use x="112.655" xlink:href="#A" y="164.508"/><use x="120.468" xlink:href="#A" y="156.362"/><use x="128.281" xlink:href="#A" y="151.322"/><use x="136.094" xlink:href="#A" y="146.775"/><use x="143.907" xlink:href="#A" y="142.049"/><use x="151.72" xlink:href="#A" y="138.143"/><use x="159.533" xlink:href="#A" y="133.797"/><use x="167.346" xlink:href="#A" y="128.98"/><use x="175.159" xlink:href="#A" y="123.313"/><use x="182.972" xlink:href="#A" y="120.16"/><use x="190.786" xlink:href="#A" y="110.348"/><use x="198.599" xlink:href="#A" y="104.567"/><use x="206.412" xlink:href="#A" y="99.554"/><use x="214.225" xlink:href="#A" y="94.581"/><use x="222.038" xlink:href="#A" y="90.199"/><use x="229.851" xlink:href="#A" y="86.748"/><use x="237.664" xlink:href="#A" y="83.271"/><use x="245.477" xlink:href="#A" y="79.144"/><use x="253.29" xlink:href="#A" y="75.854"/><use x="261.103" xlink:href="#A" y="72.815"/><use x="268.916" xlink:href="#A" y="70.453"/><use x="276.729" xlink:href="#A" y="68.374"/><use x="284.542" xlink:href="#A" y="65.862"/><use x="292.355" xlink:href="#A" y="63.774"/><use x="300.169" xlink:href="#A" y="61.48"/><use x="307.982" xlink:href="#A" y="59.351"/><use x="315.795" xlink:href="#A" y="57.642"/><use x="323.608" xlink:href="#A" y="56.243"/><use x="331.421" xlink:href="#A" y="54.841"/><use x="339.234" xlink:href="#A" y="53.586"/><use x="347.047" xlink:href="#A" y="52.256"/><use x="354.86" xlink:href="#A" y="51.034"/><use x="362.673" xlink:href="#A" y="49.861"/><use x="370.486" xlink:href="#A" y="48.91"/><use x="378.299" xlink:href="#A" y="48.004"/><use x="386.112" xlink:href="#A" y="47.553"/><use x="393.925" xlink:href="#A" y="46.88"/><use x="401.739" xlink:href="#A" y="46.19"/><use x="409.552" xlink:href="#A" y="45.455"/><use x="417.365" xlink:href="#A" y="44.751"/><use x="425.178" xlink:href="#A" y="44.073"/><use x="432.991" xlink:href="#A" y="43.55"/><use x="440.804" xlink:href="#A" y="42.98"/><use x="448.617" xlink:href="#A" y="42.416"/><use x="456.43" xlink:href="#A" y="41.829"/><use x="464.243" xlink:href="#A" y="41.29"/><use x="472.056" xlink:href="#A" y="40.937"/><use x="479.869" xlink:href="#A" y="40.272"/><use x="487.682" xlink:href="#A" y="39.841"/><use x="495.495" xlink:href="#A" y="39.489"/><use x="503.308" xlink:href="#A" y="39.12"/><use x="511.122" xlink:href="#A" y="38.716"/><use x="518.935" xlink:href="#A" y="38.831"/><use x="526.748" xlink:href="#A" y="38.392"/><use x="534.561" xlink:href="#A" y="38.075"/></g></g><g stroke="#ff7f0e"><path clip-path="url(#a)" d="M-1 261.325l4.272-15.146h15.626l7.813-5.792 7.813-9.277 7.813-3.841 7.813-10.743 7.813-2.298 7.813-5.086 7.813-10.028 7.814-5.502 7.813-6.317 7.813-3.361 7.813-5.227 7.813-2.944 7.813-3.1 7.813-3.234h7.813l7.813-10.037 7.813-6.097 7.813-.015 7.813-4.975 7.813-3.92 7.813-5.195 7.814-.054 7.813-6.99 7.813-4.04 7.813-2.035 7.813-2.631 7.813-3.369 7.813-2.973 7.813-3.517 7.813-3.816 7.813-2.655 7.813-2.254 7.813-2.17 7.813-2.05 7.813-2.59 7.814-2.2 7.813-1.995 7.813-1.453 7.813-2.26 7.813-1.28 7.813-1.021 7.813-1.52 7.813-1.08 7.813-2.117 7.813-1.106 7.813-1.103 7.813-.9 7.813-.96 7.814-.782 7.813-.74 7.813-.887 7.813-.822 7.813-.884 7.813-.68 7.813-.514 7.813-.55 7.813-.576 7.813-.65 7.813-.554 7.813-.534 7.813-.502 7.813-.425 7.814.046 7.813-.65 7.813-.633 7.813-.473" fill="none" stroke-linecap="square" stroke-width="1.5"/><g clip-path="url(#a)" fill="#ff7f0e"><use x="-1" xlink:href="#B" y="261.325"/><use x="3.272" xlink:href="#B" y="246.179"/><use x="11.085" xlink:href="#B" y="246.179"/><use x="18.898" xlink:href="#B" y="246.179"/><use x="26.711" xlink:href="#B" y="240.387"/><use x="34.524" xlink:href="#B" y="231.11"/><use x="42.337" xlink:href="#B" y="227.269"/><use x="50.15" xlink:href="#B" y="216.526"/><use x="57.963" xlink:href="#B" y="214.228"/><use x="65.776" xlink:href="#B" y="209.142"/><use x="73.589" xlink:href="#B" y="199.114"/><use x="81.403" xlink:href="#B" y="193.612"/><use x="89.216" xlink:href="#B" y="187.295"/><use x="97.029" xlink:href="#B" y="183.934"/><use x="104.842" xlink:href="#B" y="178.707"/><use x="112.655" xlink:href="#B" y="175.763"/><use x="120.468" xlink:href="#B" y="172.663"/><use x="128.281" xlink:href="#B" y="169.429"/><use x="136.094" xlink:href="#B" y="169.429"/><use x="143.907" xlink:href="#B" y="159.392"/><use x="151.72" xlink:href="#B" y="153.295"/><use x="159.533" xlink:href="#B" y="153.28"/><use x="167.346" xlink:href="#B" y="148.305"/><use x="175.159" xlink:href="#B" y="144.384"/><use x="182.972" xlink:href="#B" y="139.19"/><use x="190.786" xlink:href="#B" y="139.136"/><use x="198.599" xlink:href="#B" y="132.145"/><use x="206.412" xlink:href="#B" y="128.105"/><use x="214.225" xlink:href="#B" y="126.071"/><use x="222.038" xlink:href="#B" y="123.44"/><use x="229.851" xlink:href="#B" y="120.071"/><use x="237.664" xlink:href="#B" y="117.098"/><use x="245.477" xlink:href="#B" y="113.581"/><use x="253.29" xlink:href="#B" y="109.765"/><use x="261.103" xlink:href="#B" y="107.11"/><use x="268.916" xlink:href="#B" y="104.856"/><use x="276.729" xlink:href="#B" y="102.685"/><use x="284.542" xlink:href="#B" y="100.637"/><use x="292.355" xlink:href="#B" y="98.045"/><use x="300.169" xlink:href="#B" y="95.845"/><use x="307.982" xlink:href="#B" y="93.851"/><use x="315.795" xlink:href="#B" y="92.398"/><use x="323.608" xlink:href="#B" y="90.138"/><use x="331.421" xlink:href="#B" y="88.857"/><use x="339.234" xlink:href="#B" y="87.837"/><use x="347.047" xlink:href="#B" y="86.317"/><use x="354.86" xlink:href="#B" y="85.236"/><use x="362.673" xlink:href="#B" y="83.12"/><use x="370.486" xlink:href="#B" y="82.014"/><use x="378.299" xlink:href="#B" y="80.911"/><use x="386.112" xlink:href="#B" y="80.012"/><use x="393.925" xlink:href="#B" y="79.051"/><use x="401.739" xlink:href="#B" y="78.269"/><use x="409.552" xlink:href="#B" y="77.528"/><use x="417.365" xlink:href="#B" y="76.642"/><use x="425.178" xlink:href="#B" y="75.82"/><use x="432.991" xlink:href="#B" y="74.936"/><use x="440.804" xlink:href="#B" y="74.256"/><use x="448.617" xlink:href="#B" y="73.742"/><use x="456.43" xlink:href="#B" y="73.192"/><use x="464.243" xlink:href="#B" y="72.616"/><use x="472.056" xlink:href="#B" y="71.966"/><use x="479.869" xlink:href="#B" y="71.412"/><use x="487.682" xlink:href="#B" y="70.878"/><use x="495.495" xlink:href="#B" y="70.376"/><use x="503.308" xlink:href="#B" y="69.951"/><use x="511.122" xlink:href="#B" y="69.997"/><use x="518.935" xlink:href="#B" y="69.348"/><use x="526.748" xlink:href="#B" y="68.714"/><use x="534.561" xlink:href="#B" y="68.241"/></g></g><path clip-path="url(#a)" d="M-1 184.613l4.272-3.647 7.813-5.88 7.813-5.894 7.813-5.215 7.813-5.6 7.813-4.283 7.813-6.952 7.813-2.608 7.813-3.609 7.813-3.077 7.814-3.395 7.813-2.966 7.813-4.415 7.813-4.006 7.813-3.843 7.813-1.661 7.813-3.199h7.813l7.813-5.94 7.813-2.95 7.813-2.565 7.813-1.949 7.813-2.097 7.813-1.665 7.814-2.496 7.813-2.577 7.813-1.752 7.813-1.526 7.813-1.342 7.813-1.19 7.813-1.078 7.813-1.294 7.813-1.18 7.813-.922 7.813-.912 7.813-.38 7.813-.474 7.813-.639 7.814-.52 7.813-.479 7.813-.572 7.813-.57 7.813-.362 7.813-.162 7.813-.217 7.813-.29 7.813-.246 7.813-.346 7.813-.337 7.813-.228 7.813-.112 7.814-.185 7.813-.193 7.813-.057 7.813-.13 7.813-.078 7.813.004 7.813.084 7.813.001 7.813.137 7.813.052 7.813.11 7.813-.042 7.813.048 7.813.099 7.814.09 7.813.518 7.813.104 7.813.04" fill="none" stroke="#2ca02c" stroke-linecap="square" stroke-width="1.5"/><g stroke="#d62728"><path clip-path="url(#a)" d="M-1 240.387h4.272l7.813 21.563 7.813-15.771 7.813-27.702 7.813-9.73 7.813-11.536 7.813-5.15 7.813-7.176 7.813-1.135 7.813-6.167 7.814-4.968 7.813-9.734 7.813-6.575 7.813-2.886 7.813-1.257 7.813-6.704 7.813-4.234h7.813l7.813-8.175 7.813-3.479 7.813-.13 7.813-6.65 7.813-2.542 7.813-2.878 7.814-3.074 7.813-2.327 7.813-2.081 7.813.504 7.813-4.231 7.813-1.15 7.813-1.9 7.813-2.022 7.813-1.986 7.813-2.7 7.813-.456 7.813-1.751 7.813-2.614 7.813-1.2 7.814.273 7.813-1.02 7.813-7.205 7.813-.41 7.813-.795 7.813-1.71 7.813-.303 7.813-.318 7.813-.884 7.813-.521 7.813-.298 7.813-.572 7.813 1.59 7.814.118 7.813-1.877 7.813.073 7.813.402 7.813-.715 7.813-.173 7.813-.087 7.813.753 7.813-.07 7.813.258 7.813-.04 7.813-.006 7.813-.488 7.813-.22 7.814.772 7.813.147 7.813.18 7.813-.288" fill="none" stroke-linecap="square" stroke-width="1.5"/><g clip-path="url(#a)" fill="#d62728"><use x="-1" xlink:href="#C" y="240.387"/><use x="3.272" xlink:href="#C" y="240.387"/><use x="11.085" xlink:href="#C" y="261.95"/><use x="18.898" xlink:href="#C" y="246.179"/><use x="26.711" xlink:href="#C" y="218.477"/><use x="34.524" xlink:href="#C" y="208.746"/><use x="42.337" xlink:href="#C" y="197.211"/><use x="50.15" xlink:href="#C" y="192.061"/><use x="57.963" xlink:href="#C" y="184.885"/><use x="65.776" xlink:href="#C" y="183.75"/><use x="73.589" xlink:href="#C" y="177.583"/><use x="81.403" xlink:href="#C" y="172.615"/><use x="89.216" xlink:href="#C" y="162.881"/><use x="97.029" xlink:href="#C" y="156.306"/><use x="104.842" xlink:href="#C" y="153.42"/><use x="112.655" xlink:href="#C" y="152.163"/><use x="120.468" xlink:href="#C" y="145.459"/><use x="128.281" xlink:href="#C" y="141.225"/><use x="136.094" xlink:href="#C" y="141.225"/><use x="143.907" xlink:href="#C" y="133.05"/><use x="151.72" xlink:href="#C" y="129.571"/><use x="159.533" xlink:href="#C" y="129.442"/><use x="167.346" xlink:href="#C" y="122.791"/><use x="175.159" xlink:href="#C" y="120.249"/><use x="182.972" xlink:href="#C" y="117.371"/><use x="190.786" xlink:href="#C" y="114.297"/><use x="198.599" xlink:href="#C" y="111.97"/><use x="206.412" xlink:href="#C" y="109.889"/><use x="214.225" xlink:href="#C" y="110.393"/><use x="222.038" xlink:href="#C" y="106.162"/><use x="229.851" xlink:href="#C" y="105.012"/><use x="237.664" xlink:href="#C" y="103.112"/><use x="245.477" xlink:href="#C" y="101.09"/><use x="253.29" xlink:href="#C" y="99.104"/><use x="261.103" xlink:href="#C" y="96.403"/><use x="268.916" xlink:href="#C" y="95.948"/><use x="276.729" xlink:href="#C" y="94.197"/><use x="284.542" xlink:href="#C" y="91.583"/><use x="292.355" xlink:href="#C" y="90.383"/><use x="300.169" xlink:href="#C" y="90.656"/><use x="307.982" xlink:href="#C" y="89.635"/><use x="315.795" xlink:href="#C" y="82.431"/><use x="323.608" xlink:href="#C" y="82.022"/><use x="331.421" xlink:href="#C" y="81.226"/><use x="339.234" xlink:href="#C" y="79.515"/><use x="347.047" xlink:href="#C" y="79.213"/><use x="354.86" xlink:href="#C" y="78.895"/><use x="362.673" xlink:href="#C" y="78.011"/><use x="370.486" xlink:href="#C" y="77.49"/><use x="378.299" xlink:href="#C" y="77.192"/><use x="386.112" xlink:href="#C" y="76.62"/><use x="393.925" xlink:href="#C" y="78.21"/><use x="401.739" xlink:href="#C" y="78.328"/><use x="409.552" xlink:href="#C" y="76.451"/><use x="417.365" xlink:href="#C" y="76.524"/><use x="425.178" xlink:href="#C" y="76.926"/><use x="432.991" xlink:href="#C" y="76.211"/><use x="440.804" xlink:href="#C" y="76.038"/><use x="448.617" xlink:href="#C" y="75.951"/><use x="456.43" xlink:href="#C" y="76.704"/><use x="464.243" xlink:href="#C" y="76.635"/><use x="472.056" xlink:href="#C" y="76.892"/><use x="479.869" xlink:href="#C" y="76.851"/><use x="487.682" xlink:href="#C" y="76.846"/><use x="495.495" xlink:href="#C" y="76.358"/><use x="503.308" xlink:href="#C" y="76.138"/><use x="511.122" xlink:href="#C" y="76.91"/><use x="518.935" xlink:href="#C" y="77.057"/><use x="526.748" xlink:href="#C" y="77.236"/><use x="534.561" xlink:href="#C" y="76.949"/></g></g><g stroke="#9467bd"><path clip-path="url(#a)" d="M11.022 569.8l.063-319.78 7.813-17.413 7.813-2.875 7.813-14.394 7.813-6.196 7.813-11.11 7.813-6.266 7.813-5.454 7.813-5.11 7.814-2.631 7.813-7.513 7.813-2.71 7.813-5.303 7.813-8.285 7.813-8.166 7.813-3.883 7.813.008 7.813-15.112 7.813-2.518 7.813-3.58 7.813-4.48 7.813-1.998 7.813-3.112 7.814-4.687 7.813-1.787 7.813-3.567 7.813-2.107 7.813-3.024 7.813-2.094 7.813-3.379 7.813-2.342 7.813-1.7 7.813-1.215 7.813-1.1 7.813-1.372 7.813-1.24 7.813-.954 7.814-.676 7.813-.568 7.813-.55 7.813-.197 7.813-.414 7.813-.369 7.813-.145 7.813-.04 7.813-.183 7.813-.157 7.813.016 7.813-.075 7.813.125 7.814-.217 7.813-.53 7.813-.958 7.813-.151 7.813-.693 7.813.36 7.813-.278 7.813-.064 7.813-.146 7.813-.545 7.813-.043 7.813 3.518 7.813.13 7.813.135 7.814.988 7.813.627h7.813l7.813.594" fill="none" stroke-linecap="square" stroke-width="1.5"/><g clip-path="url(#a)" fill="#9467bd"><use x="-1" xlink:href="#D" y="39906.614"/><use x="3.272" xlink:href="#D" y="39906.614"/><use x="11.085" xlink:href="#D" y="250.019"/><use x="18.898" xlink:href="#D" y="232.607"/><use x="26.711" xlink:href="#D" y="229.732"/><use x="34.524" xlink:href="#D" y="215.338"/><use x="42.337" xlink:href="#D" y="209.142"/><use x="50.15" xlink:href="#D" y="198.031"/><use x="57.963" xlink:href="#D" y="191.766"/><use x="65.776" xlink:href="#D" y="186.312"/><use x="73.589" xlink:href="#D" y="181.201"/><use x="81.403" xlink:href="#D" y="178.571"/><use x="89.216" xlink:href="#D" y="171.058"/><use x="97.029" xlink:href="#D" y="168.348"/><use x="104.842" xlink:href="#D" y="163.045"/><use x="112.655" xlink:href="#D" y="154.76"/><use x="120.468" xlink:href="#D" y="146.594"/><use x="128.281" xlink:href="#D" y="142.711"/><use x="136.094" xlink:href="#D" y="142.719"/><use x="143.907" xlink:href="#D" y="127.607"/><use x="151.72" xlink:href="#D" y="125.089"/><use x="159.533" xlink:href="#D" y="121.509"/><use x="167.346" xlink:href="#D" y="117.03"/><use x="175.159" xlink:href="#D" y="115.031"/><use x="182.972" xlink:href="#D" y="111.919"/><use x="190.786" xlink:href="#D" y="107.232"/><use x="198.599" xlink:href="#D" y="105.445"/><use x="206.412" xlink:href="#D" y="101.878"/><use x="214.225" xlink:href="#D" y="99.771"/><use x="222.038" xlink:href="#D" y="96.747"/><use x="229.851" xlink:href="#D" y="94.653"/><use x="237.664" xlink:href="#D" y="91.274"/><use x="245.477" xlink:href="#D" y="88.932"/><use x="253.29" xlink:href="#D" y="87.231"/><use x="261.103" xlink:href="#D" y="86.017"/><use x="268.916" xlink:href="#D" y="84.917"/><use x="276.729" xlink:href="#D" y="83.545"/><use x="284.542" xlink:href="#D" y="82.305"/><use x="292.355" xlink:href="#D" y="81.351"/><use x="300.169" xlink:href="#D" y="80.675"/><use x="307.982" xlink:href="#D" y="80.107"/><use x="315.795" xlink:href="#D" y="79.557"/><use x="323.608" xlink:href="#D" y="79.36"/><use x="331.421" xlink:href="#D" y="78.946"/><use x="339.234" xlink:href="#D" y="78.577"/><use x="347.047" xlink:href="#D" y="78.432"/><use x="354.86" xlink:href="#D" y="78.391"/><use x="362.673" xlink:href="#D" y="78.209"/><use x="370.486" xlink:href="#D" y="78.052"/><use x="378.299" xlink:href="#D" y="78.068"/><use x="386.112" xlink:href="#D" y="77.993"/><use x="393.925" xlink:href="#D" y="78.118"/><use x="401.739" xlink:href="#D" y="77.901"/><use x="409.552" xlink:href="#D" y="77.371"/><use x="417.365" xlink:href="#D" y="76.413"/><use x="425.178" xlink:href="#D" y="76.262"/><use x="432.991" xlink:href="#D" y="75.569"/><use x="440.804" xlink:href="#D" y="75.93"/><use x="448.617" xlink:href="#D" y="75.651"/><use x="456.43" xlink:href="#D" y="75.587"/><use x="464.243" xlink:href="#D" y="75.441"/><use x="472.056" xlink:href="#D" y="74.896"/><use x="479.869" xlink:href="#D" y="74.853"/><use x="487.682" xlink:href="#D" y="78.371"/><use x="495.495" xlink:href="#D" y="78.5"/><use x="503.308" xlink:href="#D" y="78.636"/><use x="511.122" xlink:href="#D" y="79.624"/><use x="518.935" xlink:href="#D" y="80.251"/><use x="526.748" xlink:href="#D" y="80.251"/><use x="534.561" xlink:href="#D" y="80.845"/></g></g><g fill="none" stroke-dasharray="1.5 2.475" stroke-width="1.5"><path clip-path="url(#a)" d="M534.56 38.075l7.814-.268 7.813-.268L558 37.27" stroke="#1f77b4"/><path clip-path="url(#a)" d="M534.56 68.24l7.814-.568 7.813-.568 7.813-.569" stroke="#ff7f0e"/><path clip-path="url(#a)" d="M534.56 75.596l7.814.166 7.813.165 7.813.166" stroke="#2ca02c"/><path clip-path="url(#a)" d="M534.56 76.95l7.814-.028 7.813-.028 7.813-.028" stroke="#d62728"/><path clip-path="url(#a)" d="M534.56 80.845l7.814.39 7.813.389 7.813.389" stroke="#9467bd"/></g><g fill="none" stroke="#000" stroke-linecap="square" stroke-linejoin="miter" stroke-width=".8"><path d="M50.15 234.248V25.44M558 234.248V25.44M50.15 234.248H558M50.15 25.44H558"/></g><g><g transform="matrix(.12 0 0 -.12 182.296 19.44)"><use xlink:href="#h"/><use x="68.393" xlink:href="#E"/><use x="123.373" xlink:href="#F"/><use x="162.582" xlink:href="#y"/><path d="M193.35 54.688h9.515L219.96 8.797l17.094 45.89h9.515L226.053 0H213.85z"/><use x="249.545" xlink:href="#z"/><use x="342.855" xlink:href="#G"/><path d="M452.086 66.219q-10.75 0-17.078-8.016-6.313-8-6.313-21.828 0-13.766 6.313-21.781 6.328-8 17.078-8 10.734 0 17.016 8 6.28 8.015 6.28 21.781 0 13.828-6.28 21.828-6.282 8.016-17.016 8.016zm0 8q15.328 0 24.5-10.281 9.187-10.282 9.187-27.563 0-17.234-9.187-27.516-9.172-10.28-24.5-10.28-15.375 0-24.594 10.25-9.203 10.265-9.203 27.546t9.203 27.563q9.219 10.28 24.594 10.28zM519.984 0l-27.828 72.906h10.297l23.11-61.375 23.14 61.375h10.25L531.172 0z"/><use x="559.783" xlink:href="#H"/><path d="M608.947 64.797V8.109h11.922q15.094 0 22.094 6.829 7 6.843 7 21.593 0 14.64-7 21.453-7 6.813-22.094 6.813zm-9.86 8.11h20.267q21.187 0 31.093-8.813 9.922-8.813 9.922-27.563 0-18.86-9.969-27.703Q640.447 0 619.354 0h-20.266z"/><use x="666.277" xlink:href="#I"/><use x="702.361" xlink:href="#m"/><use x="765.984" xlink:href="#l"/><use x="861.395" xlink:href="#E"/><use x="916.375" xlink:href="#d"/><use x="977.654" xlink:href="#J"/><use x="1029.754" xlink:href="#z"/><use x="1091.277" xlink:href="#J"/><use x="1175.164" xlink:href="#d"/><use x="1236.443" xlink:href="#J"/><use x="1320.33" xlink:href="#u"/><use x="1381.512" xlink:href="#K"/><use x="1448.504" xlink:href="#f"/><use x="1512.127" xlink:href="#g"/><use x="1575.75" xlink:href="#f"/><use x="1639.373" xlink:href="#g"/><use x="1702.996" xlink:href="#I"/><use x="1739.08" xlink:href="#g"/><use x="1802.703" xlink:href="#s"/><use x="1866.326" xlink:href="#I"/><use x="1902.41" xlink:href="#g"/><use x="1966.033" xlink:href="#f"/></g><path d="M323.94 229.248H551q2 0 2-2v-72.39q0-2-2-2H323.94q-2 0-2 2v72.39q0 2 2 2z" fill="#fff" opacity=".8" stroke="#ccc" stroke-linejoin="miter"/><path d="M325.94 160.956h20" fill="none" stroke="#1f77b4" stroke-linecap="square" stroke-width="1.5"/><use fill="#1f77b4" stroke="#1f77b4" x="335.941" xlink:href="#A" y="160.956"/><g transform="matrix(.1 0 0 -.1 353.94 164.456)"><use xlink:href="#L"/><use x="73.193" xlink:href="#M"/><use x="168.457" xlink:href="#N"/><use x="207.471" xlink:href="#w"/><use x="270.947" xlink:href="#u"/><use x="332.129" xlink:href="#O"/><use x="395.508" xlink:href="#P"/><use x="458.984" xlink:href="#v"/><use x="486.768" xlink:href="#z"/><use x="548.291" xlink:href="#J"/><use x="632.178" xlink:href="#y"/><use x="659.961" xlink:href="#Q"/><use x="755.127" xlink:href="#q"/><use x="818.75" xlink:href="#q"/><use x="882.373" xlink:href="#R"/><use x="914.16" xlink:href="#s"/><use x="1009.57" xlink:href="#w"/><use x="1073.047" xlink:href="#d"/><use x="1134.326" xlink:href="#j"/><use x="1193.506" xlink:href="#J"/><use x="1245.605" xlink:href="#S"/></g><path d="M325.94 175.634h20" fill="none" stroke="#ff7f0e" stroke-linecap="square" stroke-width="1.5"/><use fill="#ff7f0e" stroke="#ff7f0e" x="335.941" xlink:href="#B" y="175.634"/><g transform="matrix(.1 0 0 -.1 353.94 179.134)"><use xlink:href="#L"/><use x="73.193" xlink:href="#Q"/><use x="136.572" xlink:href="#y"/><use x="164.355" xlink:href="#F"/><use x="203.564" xlink:href="#z"/><use x="265.088" xlink:href="#w"/><path d="M370.164 72.906h9.86V42.094l32.718 30.812h12.703l-36.187-33.984L428.023 0H415.04l-35.016 35.11V0h-9.859z"/><use x="425.928" xlink:href="#y"/><use x="453.711" xlink:href="#Q"/><path d="M562.496 27.984q0 9.766-4.031 15.125-4.016 5.375-11.297 5.375-7.219 0-11.25-5.375-4.031-5.359-4.031-15.125 0-9.718 4.031-15.093t11.25-5.375q7.281 0 11.297 5.375 4.031 5.375 4.031 15.093zm8.984-21.203q0-13.953-6.203-20.765-6.187-6.813-18.984-6.813-4.734 0-8.938.703-4.203.703-8.156 2.172v8.735q3.953-2.141 7.813-3.157 3.86-1.031 7.86-1.031 8.843 0 13.233 4.61 4.391 4.609 4.391 13.937v4.453q-2.781-4.844-7.125-7.234Q551.027 0 544.965 0q-10.047 0-16.203 7.656-6.157 7.672-6.157 20.328 0 12.688 6.157 20.344Q534.918 56 544.965 56q6.062 0 10.406-2.39 4.344-2.391 7.125-7.22v8.297h8.984z"/><use x="580.566" xlink:href="#w"/><use x="644.043" xlink:href="#u"/><path d="M757.225 44.188q3.375 6.062 8.062 8.937Q769.975 56 776.318 56q8.547 0 13.188-5.984 4.64-5.97 4.64-17V0h-9.03v32.719q0 7.86-2.798 11.656-2.78 3.813-8.484 3.813-6.984 0-11.047-4.641-4.047-4.625-4.047-12.64V0h-9.031v32.719q0 7.906-2.781 11.687-2.782 3.782-8.594 3.782-6.89 0-10.953-4.657-4.047-4.656-4.047-12.625V0h-9.031v54.688h9.031v-8.5q3.078 5.03 7.375 7.421Q735.006 56 740.912 56q5.969 0 10.14-3.031 4.173-3.016 6.173-8.782z"/><use x="834.424" xlink:href="#N"/><use x="873.438" xlink:href="#w"/><use x="936.914" xlink:href="#u"/><use x="998.096" xlink:href="#O"/><use x="1061.475" xlink:href="#P"/><use x="1124.951" xlink:href="#v"/><use x="1152.734" xlink:href="#z"/><use x="1214.258" xlink:href="#J"/><use x="1298.145" xlink:href="#y"/><use x="1325.928" xlink:href="#Q"/><use x="1421.094" xlink:href="#f"/><use x="1484.717" xlink:href="#m"/><use x="1548.34" xlink:href="#R"/><use x="1580.127" xlink:href="#g"/><use x="1675.537" xlink:href="#w"/><use x="1739.014" xlink:href="#d"/><use x="1800.293" xlink:href="#j"/><use x="1859.473" xlink:href="#J"/><use x="1911.572" xlink:href="#S"/></g><path d="M325.94 190.312h20" fill="none" stroke="#2ca02c" stroke-linecap="square" stroke-width="1.5"/><g transform="matrix(.1 0 0 -.1 353.94 193.812)"><use xlink:href="#H"/><use x="29.492" xlink:href="#F"/><use x="68.701" xlink:href="#d"/><use x="129.98" xlink:href="#v"/><use x="157.764" xlink:href="#j"/></g><path d="M325.94 204.99h20" fill="none" stroke="#d62728" stroke-linecap="square" stroke-width="1.5"/><use fill="#d62728" stroke="#d62728" x="335.941" xlink:href="#C" y="204.99"/><g transform="matrix(.1 0 0 -.1 353.94 208.49)"><path d="M9.813 72.906h41.89v-8.312H19.672V43.109h28.906v-8.297H19.672V0h-9.86z"/><use x="57.41" xlink:href="#e"/><use x="98.523" xlink:href="#d"/><use x="159.803" xlink:href="#Q"/><use x="223.182" xlink:href="#E"/><use x="278.162" xlink:href="#z"/></g><path d="M325.94 219.668h20" fill="none" stroke="#9467bd" stroke-linecap="square" stroke-width="1.5"/><use fill="#9467bd" stroke="#9467bd" x="335.941" xlink:href="#D" y="219.668"/><g transform="matrix(.1 0 0 -.1 353.94 223.168)"><use xlink:href="#M"/><use x="63.477" xlink:href="#i"/><use x="126.953" xlink:href="#d"/><use x="188.232" xlink:href="#y"/><use x="216.016" xlink:href="#Q"/></g><path d="M50.15 505.928H558V297.12H50.15z" fill="#fff"/><path clip-path="url(#T)" d="M50.15 505.928V297.12" fill="none" stroke="#b0b0b0" stroke-linecap="square" stroke-width=".8"/><use stroke="#000" stroke-width=".8" x="50.15" xlink:href="#b" y="505.928"/><g transform="matrix(.1 0 0 -.1 40.717 542.922)"><use xlink:href="#c"/><use x="86.279" xlink:href="#d"/><use x="147.559" xlink:href="#e"/></g><g transform="matrix(.1 0 0 -.1 37.425 554.12)"><use xlink:href="#f"/><use x="63.623" xlink:href="#g"/><use x="127.246" xlink:href="#f"/><use x="190.869" xlink:href="#g"/></g><path clip-path="url(#T)" d="M292.355 505.928V297.12" fill="none" stroke="#b0b0b0" stroke-linecap="square" stroke-width=".8"/><use stroke="#000" stroke-width=".8" x="292.355" xlink:href="#b" y="505.928"/><g transform="matrix(.1 0 0 -.1 283.705 542.922)"><use xlink:href="#h"/><use x="68.408" xlink:href="#i"/><use x="131.885" xlink:href="#e"/></g><path clip-path="url(#T)" d="M526.748 505.928V297.12" fill="none" stroke="#b0b0b0" stroke-linecap="square" stroke-width=".8"/><use stroke="#000" stroke-width=".8" x="526.748" xlink:href="#b" y="505.928"/><g transform="matrix(.1 0 0 -.1 516.41 542.922)"><use xlink:href="#c"/><use x="86.279" xlink:href="#d"/><use x="147.559" xlink:href="#j"/></g><g stroke-width=".8"><path clip-path="url(#T)" d="M558 505.928V297.12" fill="none" stroke="#b0b0b0" stroke-linecap="square"/><use stroke="#000" x="558" xlink:href="#b" y="505.928"/></g><use stroke="#000" stroke-width=".6" x="57.963" xlink:href="#k" y="505.928"/><g transform="matrix(.1 0 0 -.1 51.6 518.926)"><use xlink:href="#g"/><use x="63.623" xlink:href="#f"/></g><g stroke="#000" stroke-width=".6"><use x="65.776" xlink:href="#k" y="505.928"/><use x="73.589" xlink:href="#k" y="505.928"/><use x="81.403" xlink:href="#k" y="505.928"/><use x="89.216" xlink:href="#k" y="505.928"/><use x="97.029" xlink:href="#k" y="505.928"/><use x="104.842" xlink:href="#k" y="505.928"/></g><use stroke="#000" stroke-width=".6" x="112.655" xlink:href="#k" y="505.928"/><g transform="matrix(.1 0 0 -.1 106.292 518.926)"><use xlink:href="#g"/><use x="63.623" xlink:href="#l"/></g><g stroke="#000" stroke-width=".6"><use x="120.468" xlink:href="#k" y="505.928"/><use x="128.281" xlink:href="#k" y="505.928"/><use x="136.094" xlink:href="#k" y="505.928"/><use x="143.907" xlink:href="#k" y="505.928"/><use x="151.72" xlink:href="#k" y="505.928"/><use x="159.533" xlink:href="#k" y="505.928"/><use x="167.346" xlink:href="#k" y="505.928"/></g><g transform="matrix(.1 0 0 -.1 160.984 518.926)"><use xlink:href="#m"/><use x="63.623" xlink:href="#n"/></g><g stroke="#000" stroke-width=".6"><use x="175.159" xlink:href="#k" y="505.928"/><use x="182.972" xlink:href="#k" y="505.928"/><use x="190.786" xlink:href="#k" y="505.928"/><use x="198.599" xlink:href="#k" y="505.928"/><use x="206.412" xlink:href="#k" y="505.928"/><use x="214.225" xlink:href="#k" y="505.928"/><use x="222.038" xlink:href="#k" y="505.928"/></g><g transform="matrix(.1 0 0 -.1 215.675 518.926)"><use xlink:href="#f"/><use x="63.623" xlink:href="#o"/></g><g stroke="#000" stroke-width=".6"><use x="229.851" xlink:href="#k" y="505.928"/><use x="237.664" xlink:href="#k" y="505.928"/><use x="245.477" xlink:href="#k" y="505.928"/><use x="253.29" xlink:href="#k" y="505.928"/><use x="261.103" xlink:href="#k" y="505.928"/><use x="268.916" xlink:href="#k" y="505.928"/><use x="276.729" xlink:href="#k" y="505.928"/></g><g transform="matrix(.1 0 0 -.1 270.367 518.926)"><use xlink:href="#o"/><use x="63.623" xlink:href="#g"/></g><g stroke="#000" stroke-width=".6"><use x="284.542" xlink:href="#k" y="505.928"/><use x="300.169" xlink:href="#k" y="505.928"/><use x="307.982" xlink:href="#k" y="505.928"/><use x="315.795" xlink:href="#k" y="505.928"/><use x="323.608" xlink:href="#k" y="505.928"/><use x="331.421" xlink:href="#k" y="505.928"/></g><g transform="matrix(.1 0 0 -.1 325.058 518.926)"><use xlink:href="#g"/><use x="63.623" xlink:href="#n"/></g><g stroke="#000" stroke-width=".6"><use x="339.234" xlink:href="#k" y="505.928"/><use x="347.047" xlink:href="#k" y="505.928"/><use x="354.86" xlink:href="#k" y="505.928"/><use x="362.673" xlink:href="#k" y="505.928"/><use x="370.486" xlink:href="#k" y="505.928"/><use x="378.299" xlink:href="#k" y="505.928"/><use x="386.112" xlink:href="#k" y="505.928"/></g><g transform="matrix(.1 0 0 -.1 379.75 518.926)"><use xlink:href="#m"/><use x="63.623" xlink:href="#o"/></g><g stroke="#000" stroke-width=".6"><use x="393.925" xlink:href="#k" y="505.928"/><use x="401.739" xlink:href="#k" y="505.928"/><use x="409.552" xlink:href="#k" y="505.928"/><use x="417.365" xlink:href="#k" y="505.928"/><use x="425.178" xlink:href="#k" y="505.928"/><use x="432.991" xlink:href="#k" y="505.928"/><use x="440.804" xlink:href="#k" y="505.928"/></g><g transform="matrix(.1 0 0 -.1 434.441 518.926)"><use xlink:href="#f"/><use x="63.623" xlink:href="#g"/></g><g stroke="#000" stroke-width=".6"><use x="448.617" xlink:href="#k" y="505.928"/><use x="456.43" xlink:href="#k" y="505.928"/><use x="464.243" xlink:href="#k" y="505.928"/><use x="472.056" xlink:href="#k" y="505.928"/><use x="479.869" xlink:href="#k" y="505.928"/><use x="487.682" xlink:href="#k" y="505.928"/><use x="495.495" xlink:href="#k" y="505.928"/></g><g transform="matrix(.1 0 0 -.1 489.133 518.926)"><use xlink:href="#f"/><use x="63.623" xlink:href="#p"/></g><g stroke="#000" stroke-width=".6"><use x="503.308" xlink:href="#k" y="505.928"/><use x="511.122" xlink:href="#k" y="505.928"/><use x="518.935" xlink:href="#k" y="505.928"/><use x="534.561" xlink:href="#k" y="505.928"/><use x="542.374" xlink:href="#k" y="505.928"/><use x="550.187" xlink:href="#k" y="505.928"/></g><g transform="matrix(.1 0 0 -.1 543.824 518.926)"><use xlink:href="#g"/><use x="63.623" xlink:href="#q"/></g><path clip-path="url(#T)" d="M50.15 505.928H558" fill="none" stroke="#b0b0b0" stroke-linecap="square" stroke-width=".8"/><use stroke="#000" stroke-width=".8" x="50.15" xlink:href="#r" y="505.928"/><g transform="matrix(.1 0 0 -.1 25.55 509.727)"><use transform="translate(0 .684)" xlink:href="#m"/><use transform="translate(63.623 .684)" xlink:href="#g"/><use transform="matrix(.7 0 0 .7 128.203 38.966)" xlink:href="#m"/></g><path clip-path="url(#T)" d="M50.15 462.002H558" fill="none" stroke="#b0b0b0" stroke-linecap="square" stroke-width=".8"/><use stroke="#000" stroke-width=".8" x="50.15" xlink:href="#r" y="462.002"/><g transform="matrix(.1 0 0 -.1 25.55 465.801)"><use transform="translate(0 .766)" xlink:href="#m"/><use transform="translate(63.623 .766)" xlink:href="#g"/><use transform="matrix(.7 0 0 .7 128.203 39.047)" xlink:href="#f"/></g><path clip-path="url(#T)" d="M50.15 418.076H558" fill="none" stroke="#b0b0b0" stroke-linecap="square" stroke-width=".8"/><use stroke="#000" stroke-width=".8" x="50.15" xlink:href="#r" y="418.076"/><g transform="matrix(.1 0 0 -.1 25.55 421.876)"><use transform="translate(0 .766)" xlink:href="#m"/><use transform="translate(63.623 .766)" xlink:href="#g"/><use transform="matrix(.7 0 0 .7 128.203 39.047)" xlink:href="#o"/></g><path clip-path="url(#T)" d="M50.15 374.15H558" fill="none" stroke="#b0b0b0" stroke-linecap="square" stroke-width=".8"/><use stroke="#000" stroke-width=".8" x="50.15" xlink:href="#r" y="374.151"/><g transform="matrix(.1 0 0 -.1 25.55 377.95)"><use transform="translate(0 .684)" xlink:href="#m"/><use transform="translate(63.623 .684)" xlink:href="#g"/><use transform="matrix(.7 0 0 .7 128.203 38.966)" xlink:href="#q"/></g><path clip-path="url(#T)" d="M50.15 330.225H558" fill="none" stroke="#b0b0b0" stroke-linecap="square" stroke-width=".8"/><use stroke="#000" stroke-width=".8" x="50.15" xlink:href="#r" y="330.225"/><g transform="matrix(.1 0 0 -.1 25.55 334.024)"><use transform="translate(0 .684)" xlink:href="#m"/><use transform="translate(63.623 .684)" xlink:href="#g"/><use transform="matrix(.7 0 0 .7 128.203 38.966)" xlink:href="#s"/></g><g stroke="#000" stroke-width=".6"><use x="50.15" xlink:href="#t" y="492.705"/><use x="50.15" xlink:href="#t" y="484.97"/><use x="50.15" xlink:href="#t" y="479.482"/><use x="50.15" xlink:href="#t" y="475.225"/><use x="50.15" xlink:href="#t" y="471.747"/><use x="50.15" xlink:href="#t" y="468.806"/><use x="50.15" xlink:href="#t" y="466.259"/><use x="50.15" xlink:href="#t" y="464.012"/><use x="50.15" xlink:href="#t" y="448.779"/><use x="50.15" xlink:href="#t" y="441.044"/><use x="50.15" xlink:href="#t" y="435.556"/><use x="50.15" xlink:href="#t" y="431.299"/><use x="50.15" xlink:href="#t" y="427.821"/><use x="50.15" xlink:href="#t" y="424.881"/><use x="50.15" xlink:href="#t" y="422.333"/><use x="50.15" xlink:href="#t" y="420.086"/><use x="50.15" xlink:href="#t" y="404.854"/><use x="50.15" xlink:href="#t" y="397.119"/><use x="50.15" xlink:href="#t" y="391.631"/><use x="50.15" xlink:href="#t" y="387.374"/><use x="50.15" xlink:href="#t" y="383.896"/><use x="50.15" xlink:href="#t" y="380.955"/><use x="50.15" xlink:href="#t" y="378.408"/><use x="50.15" xlink:href="#t" y="376.161"/><use x="50.15" xlink:href="#t" y="360.928"/><use x="50.15" xlink:href="#t" y="353.193"/><use x="50.15" xlink:href="#t" y="347.705"/><use x="50.15" xlink:href="#t" y="343.448"/><use x="50.15" xlink:href="#t" y="339.97"/><use x="50.15" xlink:href="#t" y="337.029"/><use x="50.15" xlink:href="#t" y="334.482"/><use x="50.15" xlink:href="#t" y="332.235"/><use x="50.15" xlink:href="#t" y="317.002"/><use x="50.15" xlink:href="#t" y="309.267"/><use x="50.15" xlink:href="#t" y="303.779"/><use x="50.15" xlink:href="#t" y="299.522"/></g><g transform="matrix(0 -.1 -.1 0 19.47 408.358)"><use xlink:href="#L"/><use x="73.193" xlink:href="#M"/></g><g stroke="#1f77b4"><path clip-path="url(#T)" d="M57.96 569.8l.003-19.946 7.813-13.223 7.813-32.521 7.814-14.071 7.813-8.547 7.813-14.254 7.813-6.347 7.813-5.578 7.813-3.767 7.813-4.585 7.813-7.619 7.813-4.762 7.813-4.138 7.813-6.336 7.813-5.191 7.813-10.882 7.813-7.275 7.814-14.607 7.813-8.372 7.813-6.542 7.813-5.67 7.813-5.32 7.813-3.932 7.813-3.473 7.813-3.902 7.813-3.204 7.813-2.92 7.813-2.423 7.813-2.08 7.813-2.417 7.813-1.887 7.814-1.802 7.813-1.992 7.813-1.855 7.813-1.454 7.813-1.258 7.813-1.061 7.813-1.423 7.813-1.264 7.813-1.168 7.813-.897 7.813-.786 7.813-.63 7.813-.656 7.814-1.03 7.813-.558 7.813-.416 7.813-.922 7.813-.461 7.813-.406 7.813-.387 7.813-.365 7.813.11 7.813-.597 7.813-.744 7.813-.41 7.813-.252 7.813-.202 7.814-.28 7.813-.313 7.813-.236 7.813-.3" fill="none" stroke-linecap="square" stroke-width="1.5"/><g clip-path="url(#T)" fill="#1f77b4"><use x="50.776" xlink:href="#A" y="40954.6"/><use x="57.963" xlink:href="#A" y="549.854"/><use x="65.776" xlink:href="#A" y="536.631"/><use x="73.589" xlink:href="#A" y="504.11"/><use x="81.403" xlink:href="#A" y="490.039"/><use x="89.216" xlink:href="#A" y="481.492"/><use x="97.029" xlink:href="#A" y="467.238"/><use x="104.842" xlink:href="#A" y="460.891"/><use x="112.655" xlink:href="#A" y="455.313"/><use x="120.468" xlink:href="#A" y="451.546"/><use x="128.281" xlink:href="#A" y="446.961"/><use x="136.094" xlink:href="#A" y="439.342"/><use x="143.907" xlink:href="#A" y="434.58"/><use x="151.72" xlink:href="#A" y="430.442"/><use x="159.533" xlink:href="#A" y="424.106"/><use x="167.346" xlink:href="#A" y="418.915"/><use x="175.159" xlink:href="#A" y="408.033"/><use x="182.972" xlink:href="#A" y="400.758"/><use x="190.786" xlink:href="#A" y="386.151"/><use x="198.599" xlink:href="#A" y="377.779"/><use x="206.412" xlink:href="#A" y="371.237"/><use x="214.225" xlink:href="#A" y="365.566"/><use x="222.038" xlink:href="#A" y="360.248"/><use x="229.851" xlink:href="#A" y="356.315"/><use x="237.664" xlink:href="#A" y="352.842"/><use x="245.477" xlink:href="#A" y="348.94"/><use x="253.29" xlink:href="#A" y="345.736"/><use x="261.103" xlink:href="#A" y="342.817"/><use x="268.916" xlink:href="#A" y="340.393"/><use x="276.729" xlink:href="#A" y="338.313"/><use x="284.542" xlink:href="#A" y="335.896"/><use x="292.355" xlink:href="#A" y="334.009"/><use x="300.169" xlink:href="#A" y="332.207"/><use x="307.982" xlink:href="#A" y="330.215"/><use x="315.795" xlink:href="#A" y="328.36"/><use x="323.608" xlink:href="#A" y="326.906"/><use x="331.421" xlink:href="#A" y="325.648"/><use x="339.234" xlink:href="#A" y="324.587"/><use x="347.047" xlink:href="#A" y="323.164"/><use x="354.86" xlink:href="#A" y="321.9"/><use x="362.673" xlink:href="#A" y="320.732"/><use x="370.486" xlink:href="#A" y="319.835"/><use x="378.299" xlink:href="#A" y="319.049"/><use x="386.112" xlink:href="#A" y="318.418"/><use x="393.925" xlink:href="#A" y="317.763"/><use x="401.739" xlink:href="#A" y="316.733"/><use x="409.552" xlink:href="#A" y="316.175"/><use x="417.365" xlink:href="#A" y="315.759"/><use x="425.178" xlink:href="#A" y="314.837"/><use x="432.991" xlink:href="#A" y="314.376"/><use x="440.804" xlink:href="#A" y="313.97"/><use x="448.617" xlink:href="#A" y="313.583"/><use x="456.43" xlink:href="#A" y="313.218"/><use x="464.243" xlink:href="#A" y="313.327"/><use x="472.056" xlink:href="#A" y="312.731"/><use x="479.869" xlink:href="#A" y="311.987"/><use x="487.682" xlink:href="#A" y="311.578"/><use x="495.495" xlink:href="#A" y="311.325"/><use x="503.308" xlink:href="#A" y="311.123"/><use x="511.122" xlink:href="#A" y="310.843"/><use x="518.935" xlink:href="#A" y="310.53"/><use x="526.748" xlink:href="#A" y="310.294"/><use x="534.561" xlink:href="#A" y="309.994"/></g></g><g stroke="#ff7f0e"><path clip-path="url(#T)" d="M81.397 569.8l.006-33.17h7.813l7.813-13.222 7.813-4.257h7.813l7.813-19.642 7.813-8.622 7.813-4.6h7.813l7.813-16.928 7.813-6.578 7.813-11.454 7.813-7.772 7.813-.072 7.814-19.481 7.813-3.465 7.813-7.626 7.813-7.019 7.813-7.573 7.813-4.842 7.813-3.403 7.813-8.552 7.813-4.752 7.813-4.41 7.813-3.542 7.813-4.149 7.813-2.18 7.813-3.293 7.814-2.565 7.813-2.955 7.813-2.461 7.813-1.81 7.813-1.742 7.813-1.42 7.813-1.177 7.813-1.356 7.813-1.25 7.813-1.163 7.813-1.168 7.813-.828 7.813-1.155 7.814-.528 7.813-1.073 7.813-.737 7.813-.684 7.813-.865 7.813-.76 7.813-.756 7.813-.67 7.813-.789 7.813-.382 7.813-.598 7.813-.661 7.813-.375 7.813-.407 7.814-.384 7.813-.316 7.813-.377 7.813-.386" fill="none" stroke-linecap="square" stroke-width="1.5"/><g clip-path="url(#T)" fill="#ff7f0e"><use x="74.216" xlink:href="#B" y="40954.6"/><use x="81.403" xlink:href="#B" y="536.631"/><use x="89.216" xlink:href="#B" y="536.631"/><use x="97.029" xlink:href="#B" y="523.408"/><use x="104.842" xlink:href="#B" y="519.151"/><use x="112.655" xlink:href="#B" y="519.151"/><use x="120.468" xlink:href="#B" y="499.509"/><use x="128.281" xlink:href="#B" y="490.887"/><use x="136.094" xlink:href="#B" y="486.286"/><use x="143.907" xlink:href="#B" y="486.286"/><use x="151.72" xlink:href="#B" y="469.359"/><use x="159.533" xlink:href="#B" y="462.781"/><use x="167.346" xlink:href="#B" y="451.327"/><use x="175.159" xlink:href="#B" y="443.555"/><use x="182.972" xlink:href="#B" y="443.483"/><use x="190.786" xlink:href="#B" y="424.002"/><use x="198.599" xlink:href="#B" y="420.537"/><use x="206.412" xlink:href="#B" y="412.911"/><use x="214.225" xlink:href="#B" y="405.892"/><use x="222.038" xlink:href="#B" y="398.319"/><use x="229.851" xlink:href="#B" y="393.477"/><use x="237.664" xlink:href="#B" y="390.074"/><use x="245.477" xlink:href="#B" y="381.522"/><use x="253.29" xlink:href="#B" y="376.77"/><use x="261.103" xlink:href="#B" y="372.36"/><use x="268.916" xlink:href="#B" y="368.818"/><use x="276.729" xlink:href="#B" y="364.669"/><use x="284.542" xlink:href="#B" y="362.488"/><use x="292.355" xlink:href="#B" y="359.196"/><use x="300.169" xlink:href="#B" y="356.631"/><use x="307.982" xlink:href="#B" y="353.676"/><use x="315.795" xlink:href="#B" y="351.215"/><use x="323.608" xlink:href="#B" y="349.406"/><use x="331.421" xlink:href="#B" y="347.663"/><use x="339.234" xlink:href="#B" y="346.244"/><use x="347.047" xlink:href="#B" y="345.066"/><use x="354.86" xlink:href="#B" y="343.71"/><use x="362.673" xlink:href="#B" y="342.461"/><use x="370.486" xlink:href="#B" y="341.297"/><use x="378.299" xlink:href="#B" y="340.129"/><use x="386.112" xlink:href="#B" y="339.301"/><use x="393.925" xlink:href="#B" y="338.146"/><use x="401.739" xlink:href="#B" y="337.618"/><use x="409.552" xlink:href="#B" y="336.545"/><use x="417.365" xlink:href="#B" y="335.808"/><use x="425.178" xlink:href="#B" y="335.124"/><use x="432.991" xlink:href="#B" y="334.259"/><use x="440.804" xlink:href="#B" y="333.5"/><use x="448.617" xlink:href="#B" y="332.743"/><use x="456.43" xlink:href="#B" y="332.074"/><use x="464.243" xlink:href="#B" y="331.284"/><use x="472.056" xlink:href="#B" y="330.902"/><use x="479.869" xlink:href="#B" y="330.304"/><use x="487.682" xlink:href="#B" y="329.643"/><use x="495.495" xlink:href="#B" y="329.268"/><use x="503.308" xlink:href="#B" y="328.861"/><use x="511.122" xlink:href="#B" y="328.477"/><use x="518.935" xlink:href="#B" y="328.161"/><use x="526.748" xlink:href="#B" y="327.784"/><use x="534.561" xlink:href="#B" y="327.398"/></g></g><path clip-path="url(#T)" d="M-1 549.854h27.711l.004 19.946m39.058 0l.003-19.946H81.403l7.813-34.181h7.813l7.813-25.634h7.813l7.813-26.238 7.813-.618 7.813-2.471 7.813-2.503 7.813-2.212 7.813-3.315 7.813-3.517 7.813-1.942 7.813-.088 7.814-7.793 7.813-4.35 7.813-4.587 7.813-3.845 7.813-3.448 7.813-7.669 7.813-8.822 7.813-5.182 7.813-5.581 7.813-5.217 7.813-2.91 7.813-2.844 7.813-2.61 7.813-2.931 7.814-2.783 7.813-2.809 7.813-2.303 7.813-1.201 7.813-1.933 7.813-1.704 7.813-1.85 7.813-2.284 7.813-1.906 7.813-1.614 7.813-2.072 7.813-.981 7.813-.928 7.814-1.013 7.813-1.443 7.813-1.238 7.813-1.014 7.813-.75h7.813l7.813-1.448 7.813-.727 7.813-1.312 7.813-1.97 7.813-.85 7.813-.528 7.813-.513 7.813-.594 7.814-.583 7.813-.589 7.813-.624 7.813-.566" fill="none" stroke="#2ca02c" stroke-linecap="square" stroke-width="1.5"/><g stroke="#d62728"><path clip-path="url(#T)" d="M50.147 569.8l.003-19.946 7.813-13.223H73.59l7.814-7.735h7.813l7.813-5.488 7.813-4.257h7.813l7.813-13.223 7.813-15.89 7.813-5.068 7.813-7.306 7.813-6.542 7.813-7.32 7.813-2.364 7.813-8.162 7.813-.359 7.814-18.2 7.813-6.249 7.813-4.827 7.813-6.313 7.813-3.856 7.813-3.396 7.813-3.694 7.813-5.877 7.813-3.323 7.813-2.696 7.813-5.23 7.813-1.817 7.813-3.207 7.813-2.833 7.814-1.841 7.813-2.737 7.813-2.885 7.813-1.577 7.813-1.615 7.813-.012 7.813-3.821 7.813-.002 7.813-3.204 7.813-1.293 7.813-1.61 7.813-1.01 7.813-1.01 7.814-1.047 7.813-.804 7.813-1.333 7.813-1.021 7.813-.781 7.813-.707 7.813-.882 7.813-1.143 7.813-.947 7.813-1.365 7.813-1 7.813-.964 7.813-.858 7.813-.882 7.814-.878 7.813-.936 7.813-1.112 7.813-.818" fill="none" stroke-linecap="square" stroke-width="1.5"/><g clip-path="url(#T)" fill="#d62728"><use x="42.963" xlink:href="#C" y="40954.6"/><use x="50.15" xlink:href="#C" y="549.854"/><use x="57.963" xlink:href="#C" y="536.631"/><use x="65.776" xlink:href="#C" y="536.631"/><use x="73.589" xlink:href="#C" y="536.631"/><use x="81.403" xlink:href="#C" y="528.896"/><use x="89.216" xlink:href="#C" y="528.896"/><use x="97.029" xlink:href="#C" y="523.408"/><use x="104.842" xlink:href="#C" y="519.151"/><use x="112.655" xlink:href="#C" y="519.151"/><use x="120.468" xlink:href="#C" y="505.928"/><use x="128.281" xlink:href="#C" y="490.039"/><use x="136.094" xlink:href="#C" y="484.97"/><use x="143.907" xlink:href="#C" y="477.664"/><use x="151.72" xlink:href="#C" y="471.122"/><use x="159.533" xlink:href="#C" y="463.801"/><use x="167.346" xlink:href="#C" y="461.438"/><use x="175.159" xlink:href="#C" y="453.276"/><use x="182.972" xlink:href="#C" y="452.917"/><use x="190.786" xlink:href="#C" y="434.717"/><use x="198.599" xlink:href="#C" y="428.468"/><use x="206.412" xlink:href="#C" y="423.641"/><use x="214.225" xlink:href="#C" y="417.328"/><use x="222.038" xlink:href="#C" y="413.472"/><use x="229.851" xlink:href="#C" y="410.076"/><use x="237.664" xlink:href="#C" y="406.382"/><use x="245.477" xlink:href="#C" y="400.505"/><use x="253.29" xlink:href="#C" y="397.182"/><use x="261.103" xlink:href="#C" y="394.486"/><use x="268.916" xlink:href="#C" y="389.257"/><use x="276.729" xlink:href="#C" y="387.439"/><use x="284.542" xlink:href="#C" y="384.232"/><use x="292.355" xlink:href="#C" y="381.399"/><use x="300.169" xlink:href="#C" y="379.558"/><use x="307.982" xlink:href="#C" y="376.821"/><use x="315.795" xlink:href="#C" y="373.936"/><use x="323.608" xlink:href="#C" y="372.359"/><use x="331.421" xlink:href="#C" y="370.744"/><use x="339.234" xlink:href="#C" y="370.732"/><use x="347.047" xlink:href="#C" y="366.911"/><use x="354.86" xlink:href="#C" y="366.909"/><use x="362.673" xlink:href="#C" y="363.705"/><use x="370.486" xlink:href="#C" y="362.412"/><use x="378.299" xlink:href="#C" y="360.802"/><use x="386.112" xlink:href="#C" y="359.792"/><use x="393.925" xlink:href="#C" y="358.783"/><use x="401.739" xlink:href="#C" y="357.735"/><use x="409.552" xlink:href="#C" y="356.931"/><use x="417.365" xlink:href="#C" y="355.598"/><use x="425.178" xlink:href="#C" y="354.577"/><use x="432.991" xlink:href="#C" y="353.796"/><use x="440.804" xlink:href="#C" y="353.089"/><use x="448.617" xlink:href="#C" y="352.207"/><use x="456.43" xlink:href="#C" y="351.064"/><use x="464.243" xlink:href="#C" y="350.117"/><use x="472.056" xlink:href="#C" y="348.752"/><use x="479.869" xlink:href="#C" y="347.752"/><use x="487.682" xlink:href="#C" y="346.788"/><use x="495.495" xlink:href="#C" y="345.93"/><use x="503.308" xlink:href="#C" y="345.048"/><use x="511.122" xlink:href="#C" y="344.17"/><use x="518.935" xlink:href="#C" y="343.234"/><use x="526.748" xlink:href="#C" y="342.122"/><use x="534.561" xlink:href="#C" y="341.304"/></g></g><g stroke="#9467bd"><path clip-path="url(#T)" d="M-1 505.12l4.272 5.065h15.626l7.813-2.247h7.813l7.813-2.01h7.813l7.813-12.244 7.813-3.645 7.813-6.3 7.814-7.735 7.813-2.94 7.813-6.565 7.813-3.518 7.813-1.169 7.813-6.229 7.813-3.927 7.813-3.898 7.813-4.845 7.813-3.629 7.813-4.384 7.813-5.21 7.813-4.256 7.813-1.562 7.814-4.493 7.813-4.035 7.813-2.85 7.813-3.573 7.813-4.715 7.813-3.518 7.813-3.139 7.813-5.03 7.813-3.4 7.813-1.688 7.813-2.65 7.813-3.804 7.813-2.657 7.813-2.579 7.814-2.585 7.813-2.064 7.813-1.271 7.813-3.002 7.813-1.2 7.813-1.5 7.813-1.603 7.813-.776 7.813-1.281 7.813-.554 7.813-.93 7.813-.893 7.813-1.095 7.814-.936 7.813-.65 7.813-.974 7.813-.817 7.813-.578 7.813-1.343 7.813-.986 7.813-.947 7.813-1.087 7.813-.837 7.813-.448 7.813-.534 7.813-.608 7.813-.485 7.814-1.048 7.813-.522 7.813-.7 7.813-.48" fill="none" stroke-linecap="square" stroke-width="1.5"/><g clip-path="url(#T)" fill="#9467bd"><use x="-1" xlink:href="#D" y="505.121"/><use x="3.272" xlink:href="#D" y="510.185"/><use x="11.085" xlink:href="#D" y="510.185"/><use x="18.898" xlink:href="#D" y="510.185"/><use x="26.711" xlink:href="#D" y="507.938"/><use x="34.524" xlink:href="#D" y="507.938"/><use x="42.337" xlink:href="#D" y="505.928"/><use x="50.15" xlink:href="#D" y="505.928"/><use x="57.963" xlink:href="#D" y="493.684"/><use x="65.776" xlink:href="#D" y="490.039"/><use x="73.589" xlink:href="#D" y="483.739"/><use x="81.403" xlink:href="#D" y="476.004"/><use x="89.216" xlink:href="#D" y="473.063"/><use x="97.029" xlink:href="#D" y="466.499"/><use x="104.842" xlink:href="#D" y="462.981"/><use x="112.655" xlink:href="#D" y="461.812"/><use x="120.468" xlink:href="#D" y="455.583"/><use x="128.281" xlink:href="#D" y="451.656"/><use x="136.094" xlink:href="#D" y="447.758"/><use x="143.907" xlink:href="#D" y="442.913"/><use x="151.72" xlink:href="#D" y="439.284"/><use x="159.533" xlink:href="#D" y="434.9"/><use x="167.346" xlink:href="#D" y="429.691"/><use x="175.159" xlink:href="#D" y="425.434"/><use x="182.972" xlink:href="#D" y="423.872"/><use x="190.786" xlink:href="#D" y="419.379"/><use x="198.599" xlink:href="#D" y="415.344"/><use x="206.412" xlink:href="#D" y="412.493"/><use x="214.225" xlink:href="#D" y="408.921"/><use x="222.038" xlink:href="#D" y="404.206"/><use x="229.851" xlink:href="#D" y="400.688"/><use x="237.664" xlink:href="#D" y="397.549"/><use x="245.477" xlink:href="#D" y="392.519"/><use x="253.29" xlink:href="#D" y="389.118"/><use x="261.103" xlink:href="#D" y="387.431"/><use x="268.916" xlink:href="#D" y="384.781"/><use x="276.729" xlink:href="#D" y="380.977"/><use x="284.542" xlink:href="#D" y="378.32"/><use x="292.355" xlink:href="#D" y="375.741"/><use x="300.169" xlink:href="#D" y="373.156"/><use x="307.982" xlink:href="#D" y="371.092"/><use x="315.795" xlink:href="#D" y="369.821"/><use x="323.608" xlink:href="#D" y="366.819"/><use x="331.421" xlink:href="#D" y="365.62"/><use x="339.234" xlink:href="#D" y="364.119"/><use x="347.047" xlink:href="#D" y="362.516"/><use x="354.86" xlink:href="#D" y="361.74"/><use x="362.673" xlink:href="#D" y="360.459"/><use x="370.486" xlink:href="#D" y="359.905"/><use x="378.299" xlink:href="#D" y="358.976"/><use x="386.112" xlink:href="#D" y="358.082"/><use x="393.925" xlink:href="#D" y="356.987"/><use x="401.739" xlink:href="#D" y="356.051"/><use x="409.552" xlink:href="#D" y="355.401"/><use x="417.365" xlink:href="#D" y="354.427"/><use x="425.178" xlink:href="#D" y="353.61"/><use x="432.991" xlink:href="#D" y="353.032"/><use x="440.804" xlink:href="#D" y="351.689"/><use x="448.617" xlink:href="#D" y="350.703"/><use x="456.43" xlink:href="#D" y="349.756"/><use x="464.243" xlink:href="#D" y="348.669"/><use x="472.056" xlink:href="#D" y="347.832"/><use x="479.869" xlink:href="#D" y="347.384"/><use x="487.682" xlink:href="#D" y="346.85"/><use x="495.495" xlink:href="#D" y="346.242"/><use x="503.308" xlink:href="#D" y="345.757"/><use x="511.122" xlink:href="#D" y="344.709"/><use x="518.935" xlink:href="#D" y="344.187"/><use x="526.748" xlink:href="#D" y="343.486"/><use x="534.561" xlink:href="#D" y="343.008"/></g></g><g fill="none" stroke-dasharray="1.5 2.475" stroke-width="1.5"><path clip-path="url(#T)" d="M534.56 309.994l7.814-.28 7.813-.28 7.813-.28" stroke="#1f77b4"/><path clip-path="url(#T)" d="M534.56 327.398l7.814-.368 7.813-.368 7.813-.368" stroke="#ff7f0e"/><path clip-path="url(#T)" d="M534.56 339.216l7.814-.591 7.813-.592 7.813-.591" stroke="#2ca02c"/><path clip-path="url(#T)" d="M534.56 341.304l7.814-.948 7.813-.948 7.813-.948" stroke="#d62728"/><path clip-path="url(#T)" d="M534.56 343.008l7.814-.567 7.813-.568 7.813-.567" stroke="#9467bd"/></g></g><g fill="none" stroke="#000" stroke-linecap="square" stroke-linejoin="miter" stroke-width=".8"><path d="M50.15 505.928V297.12M558 505.928V297.12M50.15 505.928H558M50.15 297.12H558"/></g><g><path d="M330.316 500.928H551q2 0 2-2v-72.39q0-2-2-2H330.316q-2 0-2 2v72.39q0 2 2 2z" fill="#fff" opacity=".8" stroke="#ccc" stroke-linejoin="miter"/><path d="M332.316 432.636h20" fill="none" stroke="#1f77b4" stroke-linecap="square" stroke-width="1.5"/><use fill="#1f77b4" stroke="#1f77b4" x="342.316" xlink:href="#A" y="432.636"/><g transform="matrix(.1 0 0 -.1 360.316 436.136)"><use xlink:href="#U"/><use x="74.805" xlink:href="#z"/><use x="136.328" xlink:href="#x"/><path d="M249.7 72.906h10.609l20.203-29.984 20.078 29.984h10.594L285.402 34.72V0h-9.906v34.719z"/><use x="310.783" xlink:href="#u"/><use x="371.965" xlink:href="#e"/><path d="M422.156 75.984h9.031V31.11L458 54.687h11.469l-29-25.578L470.703 0h-11.719l-27.796 26.703V0h-9.032z"/><use x="502.775" xlink:href="#N"/><use x="541.789" xlink:href="#w"/><use x="605.266" xlink:href="#u"/><use x="666.447" xlink:href="#O"/><use x="729.826" xlink:href="#P"/><use x="793.303" xlink:href="#v"/><use x="821.086" xlink:href="#z"/><use x="882.609" xlink:href="#J"/><use x="966.496" xlink:href="#y"/><use x="994.279" xlink:href="#Q"/><use x="1089.445" xlink:href="#q"/><use x="1153.068" xlink:href="#p"/><use x="1216.691" xlink:href="#R"/><use x="1248.479" xlink:href="#o"/><use x="1343.889" xlink:href="#w"/><use x="1407.365" xlink:href="#d"/><use x="1468.645" xlink:href="#j"/><use x="1527.824" xlink:href="#J"/><use x="1579.924" xlink:href="#S"/></g><path d="M332.316 447.314h20" fill="none" stroke="#ff7f0e" stroke-linecap="square" stroke-width="1.5"/><use fill="#ff7f0e" stroke="#ff7f0e" x="342.316" xlink:href="#B" y="447.314"/><g transform="matrix(.1 0 0 -.1 360.316 450.814)"><use xlink:href="#U"/><use x="74.805" xlink:href="#z"/><use x="136.328" xlink:href="#x"/><path d="M259.715 72.906h9.86V5.078q0-13.187-5-19.14-5-5.954-16.095-5.954h-3.75v8.297h3.079q6.53 0 9.218 3.672 2.688 3.656 2.688 13.125z"/><use x="279.395" xlink:href="#z"/><use x="340.918" xlink:href="#e"/><use x="382.031" xlink:href="#J"/><use x="434.131" xlink:href="#z"/><use x="495.654" xlink:href="#j"/><use x="586.621" xlink:href="#N"/><use x="625.635" xlink:href="#w"/><use x="689.111" xlink:href="#u"/><use x="750.293" xlink:href="#O"/><use x="813.672" xlink:href="#P"/><use x="877.148" xlink:href="#v"/><use x="904.932" xlink:href="#z"/><use x="966.455" xlink:href="#J"/><use x="1050.342" xlink:href="#y"/><use x="1078.125" xlink:href="#Q"/><use x="1173.291" xlink:href="#o"/><use x="1236.914" xlink:href="#s"/><use x="1300.537" xlink:href="#R"/><use x="1332.324" xlink:href="#l"/><use x="1427.734" xlink:href="#w"/><use x="1491.211" xlink:href="#d"/><use x="1552.49" xlink:href="#j"/><use x="1611.67" xlink:href="#J"/><use x="1663.77" xlink:href="#S"/></g><path d="M332.316 461.992h20" fill="none" stroke="#2ca02c" stroke-linecap="square" stroke-width="1.5"/><g transform="matrix(.1 0 0 -.1 360.316 465.492)"><use xlink:href="#c"/><use x="86.279" xlink:href="#d"/><use x="147.559" xlink:href="#J"/><use x="199.658" xlink:href="#J"/><use x="251.758" xlink:href="#d"/><use x="313.037" xlink:href="#E"/><path d="M422.908 33.016V0h-8.984v32.719q0 7.765-3.031 11.61-3.032 3.858-9.079 3.858-7.28 0-11.484-4.64-4.203-4.625-4.203-12.64V0h-9.031v75.984h9.031V46.188q3.234 4.937 7.594 7.374Q398.096 56 403.814 56q9.422 0 14.25-5.828 4.844-5.828 4.844-17.156z"/><use x="431.396" xlink:href="#O"/><use x="494.775" xlink:href="#J"/><use x="546.875" xlink:href="#z"/><use x="608.398" xlink:href="#F"/><use x="647.607" xlink:href="#F"/><use x="686.816" xlink:href="#J"/><use x="770.703" xlink:href="#N"/><use x="809.717" xlink:href="#w"/><use x="873.193" xlink:href="#u"/><use x="934.375" xlink:href="#O"/><use x="997.754" xlink:href="#P"/><use x="1061.23" xlink:href="#v"/><use x="1089.014" xlink:href="#z"/><use x="1150.537" xlink:href="#J"/><use x="1234.424" xlink:href="#y"/><use x="1262.207" xlink:href="#Q"/><use x="1357.373" xlink:href="#f"/><use x="1420.996" xlink:href="#f"/><use x="1484.619" xlink:href="#R"/><use x="1516.406" xlink:href="#q"/><use x="1611.816" xlink:href="#w"/><use x="1675.293" xlink:href="#d"/><use x="1736.572" xlink:href="#j"/><use x="1795.752" xlink:href="#J"/><use x="1847.852" xlink:href="#S"/></g><path d="M332.316 476.67h20" fill="none" stroke="#d62728" stroke-linecap="square" stroke-width="1.5"/><use fill="#d62728" stroke="#d62728" x="342.316" xlink:href="#C" y="476.67"/><g transform="matrix(.1 0 0 -.1 360.316 480.17)"><use xlink:href="#H"/><use x="29.492" xlink:href="#v"/><use x="57.275" xlink:href="#v"/><use x="85.059" xlink:href="#y"/><use x="112.842" xlink:href="#Q"/><use x="176.221" xlink:href="#u"/><use x="237.402" xlink:href="#y"/><use x="265.186" xlink:href="#J"/><use x="349.072" xlink:href="#N"/><use x="388.086" xlink:href="#w"/><use x="451.563" xlink:href="#u"/><use x="512.744" xlink:href="#O"/><use x="576.123" xlink:href="#P"/><use x="639.6" xlink:href="#v"/><use x="667.383" xlink:href="#z"/><use x="728.906" xlink:href="#J"/><use x="812.793" xlink:href="#y"/><use x="840.576" xlink:href="#Q"/><use x="935.742" xlink:href="#m"/><use x="999.365" xlink:href="#o"/><use x="1062.988" xlink:href="#R"/><use x="1094.775" xlink:href="#l"/><use x="1190.186" xlink:href="#w"/><use x="1253.662" xlink:href="#d"/><use x="1314.941" xlink:href="#j"/><use x="1374.121" xlink:href="#J"/><use x="1426.221" xlink:href="#S"/></g><path d="M332.316 491.348h20" fill="none" stroke="#9467bd" stroke-linecap="square" stroke-width="1.5"/><use fill="#9467bd" stroke="#9467bd" x="342.316" xlink:href="#D" y="491.348"/><g transform="matrix(.1 0 0 -.1 360.316 494.848)"><use xlink:href="#G"/><use x="69.824" xlink:href="#d"/><use x="131.104" xlink:href="#v"/><use x="158.887" xlink:href="#y"/><use x="186.67" xlink:href="#K"/><use x="221.875" xlink:href="#u"/><use x="283.057" xlink:href="#e"/><use x="324.154" xlink:href="#Q"/><use x="387.533" xlink:href="#y"/><use x="415.316" xlink:href="#d"/><use x="508.383" xlink:href="#N"/><use x="547.396" xlink:href="#w"/><use x="610.873" xlink:href="#u"/><use x="672.055" xlink:href="#O"/><use x="735.434" xlink:href="#P"/><use x="798.91" xlink:href="#v"/><use x="826.693" xlink:href="#z"/><use x="888.217" xlink:href="#J"/><use x="972.104" xlink:href="#y"/><use x="999.887" xlink:href="#Q"/><use x="1095.053" xlink:href="#f"/><use x="1158.676" xlink:href="#o"/><use x="1222.299" xlink:href="#R"/><use x="1254.086" xlink:href="#o"/><use x="1349.496" xlink:href="#w"/><use x="1412.973" xlink:href="#d"/><use x="1474.252" xlink:href="#j"/><use x="1533.432" xlink:href="#J"/><use x="1585.531" xlink:href="#S"/></g></g></svg>