<svg height="758.4" stroke-linejoin="round" viewBox="0 0 568.8 568.8" width="758.4" xmlns="http://www.w3.org/2000/svg" xmlns:xlink="http://www.w3.org/1999/xlink"><defs><path id="v" d="M30.61 48.39q-7.22 0-11.422-5.64-4.204-5.64-4.204-15.453 0-9.813 4.172-15.453 4.188-5.64 11.453-5.64 7.188 0 11.375 5.655 4.203 5.672 4.203 15.438 0 9.719-4.203 15.406-4.187 5.688-11.375 5.688zm0 7.61q11.718 0 18.406-7.625 6.703-7.61 6.703-21.078 0-13.422-6.703-21.078-6.688-7.64-18.407-7.64-11.765 0-18.437 7.64-6.656 7.656-6.656 21.078 0 13.469 6.656 21.078Q18.844 56 30.609 56z" stroke-linejoin="round"/><path id="R" d="M9.813 72.906h13.28l32.329-60.984v60.984h9.562V0h-13.28L19.39 60.984V0H9.813z" stroke-linejoin="round"/><path id="b" d="M0 0v3.5" stroke="#000" stroke-linejoin="round" stroke-width=".8"/><path id="c" d="M9.813 72.906h41.89v-8.312H19.672V43.109h28.906v-8.297H19.672V0h-9.86z" stroke-linejoin="round"/><path id="d" d="M56.203 29.594v-4.39H14.891q.593-9.282 5.593-14.142 5-4.859 13.938-4.859 5.172 0 10.031 1.266 4.86 1.265 9.656 3.812v-8.5Q49.266.734 44.187-.344 39.11-1.422 33.892-1.422q-13.094 0-20.735 7.61-7.64 7.625-7.64 20.625 0 13.421 7.25 21.296Q20.016 56 32.328 56q11.031 0 17.453-7.11 6.422-7.093 6.422-19.296zm-8.984 2.64q-.094 7.36-4.125 11.75-4.032 4.407-10.672 4.407-7.516 0-12.031-4.25-4.516-4.25-5.203-11.97z" stroke-linejoin="round"/><path id="e" d="M48.688 27.297q0 9.906-4.079 15.547-4.078 5.64-11.203 5.64-7.14 0-11.218-5.64-4.079-5.64-4.079-15.547 0-9.906 4.078-15.547 4.079-5.64 11.22-5.64 7.124 0 11.202 5.64t4.078 15.547zM18.108 46.39q2.844 4.875 7.157 7.234Q29.594 56 35.594 56q9.968 0 16.187-7.906 6.235-7.907 6.235-20.797T51.78 6.484q-6.218-7.906-16.187-7.906-6 0-10.328 2.375-4.313 2.375-7.157 7.25V0H9.08v75.984h9.03z" stroke-linejoin="round"/><path id="f" d="M19.188 8.297h34.421V0H7.33v8.297q5.609 5.812 15.296 15.594 9.703 9.797 12.188 12.64 4.734 5.313 6.609 9 1.89 3.688 1.89 7.25 0 5.813-4.078 9.469-4.078 3.672-10.625 3.672-4.64 0-9.797-1.61-5.14-1.609-11-4.89v9.969Q13.767 71.78 18.938 73q5.188 1.219 9.485 1.219 11.328 0 18.062-5.672 6.735-5.656 6.735-15.125 0-4.5-1.688-8.531-1.672-4.016-6.125-9.485-1.218-1.422-7.765-8.187-6.532-6.766-18.453-18.922z" stroke-linejoin="round"/><path id="g" d="M31.781 66.406q-7.61 0-11.453-7.5Q16.5 51.422 16.5 36.375q0-14.984 3.828-22.484 3.844-7.5 11.453-7.5 7.672 0 11.5 7.5 3.844 7.5 3.844 22.484 0 15.047-3.844 22.531-3.828 7.5-11.5 7.5zm0 7.813q12.266 0 18.735-9.703 6.468-9.688 6.468-28.141 0-18.406-6.468-28.11-6.47-9.687-18.735-9.687-12.25 0-18.718 9.688-6.47 9.703-6.47 28.109 0 18.453 6.47 28.14Q19.53 74.22 31.78 74.22z" stroke-linejoin="round"/><path id="h" d="M9.813 72.906h14.703l18.593-49.61 18.703 49.61h14.704V0H66.89v64.016l-18.797-50h-9.907l-18.796 50V0H9.813z" stroke-linejoin="round"/><path id="i" d="M34.281 27.484q-10.89 0-15.093-2.484-4.204-2.484-4.204-8.5 0-4.781 3.157-7.594 3.156-2.797 8.562-2.797 7.485 0 12 5.297 4.516 5.297 4.516 14.078v2zm17.922 3.72V0H43.22v8.297Q40.14 3.328 35.547.953q-4.594-2.375-11.234-2.375-8.391 0-13.36 4.719Q6 8.016 6 15.922q0 9.219 6.172 13.906 6.187 4.688 18.437 4.688h12.61v.89q0 6.203-4.078 9.594-4.078 3.39-11.453 3.39-4.688 0-9.141-1.124-4.438-1.125-8.531-3.375v8.312q4.921 1.906 9.562 2.844 4.64.953 9.031.953 11.875 0 17.735-6.156 5.86-6.14 5.86-18.64z" stroke-linejoin="round"/><path id="j" d="M41.11 46.297q-1.516.875-3.297 1.281Q36.03 48 33.89 48q-7.625 0-11.703-4.953-4.079-4.953-4.079-14.234V0H9.08v54.688h9.03v-8.5q2.844 4.984 7.375 7.39Q30.031 56 36.531 56q.922 0 2.047-.125 1.125-.11 2.484-.36z" stroke-linejoin="round"/><path id="k" d="M0 0v2" stroke="#000" stroke-linejoin="round" stroke-width=".6"/><path id="l" d="M8.203 72.906h46.875v-4.203L28.61 0H18.312L43.22 64.594H8.203z" stroke-linejoin="round"/><path id="m" d="M40.578 39.313Q47.656 37.797 51.625 33q3.984-4.781 3.984-11.813 0-10.78-7.422-16.703-7.421-5.906-21.093-5.906-4.578 0-9.438.906-4.86.907-10.031 2.72v9.515q4.094-2.39 8.969-3.61 4.89-1.218 10.218-1.218 9.266 0 14.125 3.656 4.86 3.656 4.86 10.64 0 6.454-4.516 10.079-4.515 3.64-12.562 3.64h-8.5v8.11h8.89q7.266 0 11.125 2.906 3.86 2.906 3.86 8.375 0 5.61-3.985 8.61-3.968 3.015-11.39 3.015-4.063 0-8.703-.89-4.641-.876-10.203-2.72v8.782q5.624 1.562 10.53 2.344 4.907.78 9.25.78 11.235 0 17.766-5.109 6.547-5.093 6.547-13.78 0-6.063-3.468-10.235-3.47-4.172-9.86-5.782z" stroke-linejoin="round"/><path id="n" d="M12.406 8.297h16.11v55.625l-17.532-3.516v8.985l17.438 3.515h9.86V8.296H54.39V0H12.406z" stroke-linejoin="round"/><path id="o" d="M37.797 64.313L12.89 25.39h24.906zm-2.594 8.593H47.61V25.391h10.407v-8.203H47.609V0h-9.812v17.188H4.89v9.515z" stroke-linejoin="round"/><path id="p" d="M10.984 1.516V10.5q3.72-1.766 7.516-2.688 3.813-.921 7.484-.921 9.766 0 14.907 6.562 5.156 6.563 5.89 19.953-2.828-4.203-7.187-6.453-4.344-2.25-9.61-2.25-10.937 0-17.312 6.61-6.375 6.625-6.375 18.109 0 11.219 6.64 18 6.641 6.797 17.672 6.797 12.657 0 19.313-9.703 6.672-9.688 6.672-28.141 0-17.234-8.188-27.516Q40.234-1.42 26.422-1.42q-3.719 0-7.531.734-3.797.734-7.907 2.203zM30.61 32.422q6.641 0 10.516 4.531 3.89 4.547 3.89 12.469 0 7.86-3.89 12.422-3.875 4.562-10.516 4.562-6.64 0-10.515-4.562-3.875-4.563-3.875-12.422 0-7.922 3.875-12.469 3.875-4.531 10.515-4.531z" stroke-linejoin="round"/><path id="q" d="M33.016 40.375q-6.641 0-10.532-4.547-3.875-4.531-3.875-12.437 0-7.86 3.875-12.438 3.891-4.562 10.532-4.562 6.64 0 10.515 4.562 3.875 4.578 3.875 12.438 0 7.906-3.875 12.437-3.875 4.547-10.515 4.547zm19.578 30.922v-8.984q-3.719 1.75-7.5 2.671-3.782.938-7.5.938-9.766 0-14.922-6.594-5.14-6.594-5.875-19.922 2.875 4.25 7.219 6.516 4.359 2.266 9.578 2.266 10.984 0 17.36-6.672 6.374-6.657 6.374-18.125 0-11.235-6.64-18.032-6.641-6.78-17.672-6.78-12.657 0-19.344 9.687-6.688 9.703-6.688 28.109 0 17.281 8.204 27.563 8.203 10.28 22.015 10.28 3.719 0 7.5-.734t7.89-2.187z" stroke-linejoin="round"/><path id="r" d="M0 0h-3.5" stroke="#000" stroke-linejoin="round" stroke-width=".8"/><path id="s" d="M10.797 72.906h38.719v-8.312H19.828v-17.86q2.14.735 4.281 1.094 2.157.36 4.313.36 12.203 0 19.328-6.688 7.14-6.688 7.14-18.11 0-11.765-7.328-18.296-7.328-6.516-20.656-6.516-4.593 0-9.36.781-4.75.782-9.827 2.344v9.922q4.39-2.39 9.078-3.563 4.687-1.171 9.906-1.171 8.453 0 13.375 4.437 4.938 4.438 4.938 12.063 0 7.609-4.938 12.047-4.922 4.453-13.375 4.453-3.953 0-7.89-.875-3.922-.875-8.016-2.735z" stroke-linejoin="round"/><path id="t" d="M0 0h-2" stroke="#000" stroke-linejoin="round" stroke-width=".6"/><path id="u" d="M3.328 72.906h9.953L28.61 11.281l15.282 61.625h11.093l15.328-61.625 15.282 61.625h10.015L77.297 0H64.89L49.516 63.281 33.984 0H21.578z" stroke-linejoin="round"/><path id="P" d="M53.516 70.516V60.89q-5.61 2.687-10.594 4-4.984 1.328-9.625 1.328-8.047 0-12.422-3.125t-4.375-8.89q0-4.845 2.906-7.313 2.907-2.453 11.016-3.97l5.953-1.218q11.031-2.11 16.281-7.406 5.25-5.297 5.25-14.172 0-10.61-7.11-16.078-7.093-5.469-20.812-5.469-5.172 0-11.015 1.172Q13.14.922 6.89 3.219v10.156q6-3.36 11.765-5.078 5.766-1.703 11.328-1.703 8.438 0 13.032 3.312 4.593 3.328 4.593 9.485 0 5.359-3.297 8.39-3.296 3.032-10.812 4.547L27.484 33.5q-11.03 2.188-15.968 6.875-4.922 4.688-4.922 13.047 0 9.672 6.812 15.234 6.813 5.563 18.766 5.563 5.14 0 10.453-.938 5.328-.922 10.89-2.765z" stroke-linejoin="round"/><path id="w" d="M9.422 75.984h8.984V0H9.422z" stroke-linejoin="round"/><path id="x" d="M45.406 46.39v29.594h8.985V0h-8.985v8.203Q42.578 3.328 38.25.953q-4.313-2.375-10.375-2.375-9.906 0-16.14 7.906-6.22 7.922-6.22 20.813 0 12.89 6.22 20.797Q17.968 56 27.874 56q6.063 0 10.375-2.375 4.328-2.36 7.156-7.234zm-30.61-19.093q0-9.906 4.079-15.547 4.078-5.64 11.203-5.64 7.125 0 11.219 5.64 4.11 5.64 4.11 15.547 0 9.906-4.11 15.547-4.094 5.64-11.219 5.64-7.125 0-11.203-5.64-4.078-5.64-4.078-15.547z" stroke-linejoin="round"/><path id="y" d="M4.203 54.688h8.985l11.234-42.672 11.172 42.672h10.593l11.235-42.672 11.187 42.672h8.985L63.28 0H52.688L40.922 44.828 29.109 0H18.5z" stroke-linejoin="round"/><path id="z" d="M9.422 54.688h8.984V0H9.422zm0 21.296h8.984v-11.39H9.422z" stroke-linejoin="round"/><path id="A" d="M48.781 52.594v-8.407q-3.812 2.11-7.64 3.157-3.828 1.047-7.735 1.047-8.75 0-13.593-5.547-4.829-5.532-4.829-15.547 0-10.016 4.829-15.563 4.843-5.53 13.593-5.53 3.907 0 7.735 1.046 3.828 1.047 7.64 3.156V2.094Q45.016.344 40.984-.531q-4.015-.89-8.562-.89-12.36 0-19.64 7.765-7.266 7.765-7.266 20.953 0 13.375 7.343 21.031Q20.22 56 33.016 56q4.14 0 8.093-.86 3.953-.843 7.672-2.546z" stroke-linejoin="round"/><path id="B" d="M18.313 70.219V54.688h18.5v-6.985h-18.5V18.016q0-6.688 1.828-8.594 1.828-1.906 7.453-1.906h9.218V0h-9.218q-10.407 0-14.36 3.875-3.953 3.89-3.953 14.14v29.688H2.687v6.984h6.594V70.22z" stroke-linejoin="round"/><path id="C" d="M64.406 67.281v-10.39q-4.984 4.64-10.625 6.922-5.64 2.296-11.984 2.296-12.5 0-19.14-7.64-6.641-7.64-6.641-22.094 0-14.406 6.64-22.047 6.64-7.64 19.14-7.64 6.345 0 11.985 2.296 5.64 2.297 10.625 6.938V5.609Q59.234 2.094 53.437.33q-5.78-1.75-12.218-1.75-16.563 0-26.094 10.124-9.516 10.14-9.516 27.672 0 17.578 9.516 27.703 9.531 10.14 26.094 10.14 6.531 0 12.312-1.734 5.797-1.734 10.875-5.203z" stroke-linejoin="round"/><path id="D" d="M9.813 72.906h9.859V0h-9.86z" stroke-linejoin="round"/><path id="E" d="M4.89 31.39h26.313v-8H4.891z" stroke-linejoin="round"/><path id="F" d="M44.281 53.078v-8.5q-3.797 1.953-7.906 2.922-4.094.984-8.5.984-6.688 0-10.031-2.047-3.344-2.046-3.344-6.156 0-3.125 2.39-4.906 2.391-1.781 9.626-3.39l3.078-.688q9.562-2.047 13.593-5.781 4.032-3.735 4.032-10.422 0-7.625-6.032-12.078-6.03-4.438-16.578-4.438-4.39 0-9.156.86Q10.688.296 5.422 2v9.281q4.984-2.594 9.812-3.89 4.829-1.282 9.579-1.282 6.343 0 9.75 2.172 3.421 2.172 3.421 6.125 0 3.656-2.468 5.61-2.453 1.953-10.813 3.765l-3.125.735q-8.344 1.75-12.062 5.39-3.704 3.64-3.704 9.985 0 7.718 5.47 11.906Q16.75 56 26.811 56q4.97 0 9.36-.734 4.406-.72 8.11-2.188z" stroke-linejoin="round"/><path id="G" d="M37.11 75.984V68.5h-8.594q-4.828 0-6.72-1.953-1.874-1.953-1.874-7.031v-4.828h14.797v-6.985H19.922V0H10.89v47.703H2.297v6.984h8.594V58.5q0 9.125 4.25 13.297 4.25 4.187 13.468 4.187z" stroke-linejoin="round"/><path id="H" d="M54.89 33.016V0h-8.984v32.719q0 7.765-3.031 11.61-3.031 3.858-9.078 3.858-7.281 0-11.484-4.64-4.204-4.625-4.204-12.64V0H9.08v75.984h9.03V46.188q3.235 4.937 7.594 7.374Q30.078 56 35.797 56q9.422 0 14.25-5.828 4.844-5.828 4.844-17.156z" stroke-linejoin="round"/><path id="I" d="M54.89 33.016V0h-8.984v32.719q0 7.765-3.031 11.61-3.031 3.858-9.078 3.858-7.281 0-11.484-4.64-4.204-4.625-4.204-12.64V0H9.08v54.688h9.03v-8.5q3.235 4.937 7.594 7.374Q30.078 56 35.797 56q9.422 0 14.25-5.828 4.844-5.828 4.844-17.156z" stroke-linejoin="round"/><path id="J" d="M32.172-5.078q-3.797-9.766-7.422-12.735-3.61-2.984-9.656-2.984H7.906v7.516h5.282q3.703 0 5.75 1.765Q21-9.766 23.483-3.219l1.61 4.094-22.11 53.813H12.5l17.094-42.766 17.093 42.766h9.516z" stroke-linejoin="round"/><path id="K" d="M31 75.875q-6.531-11.219-9.719-22.219-3.172-10.984-3.172-22.265 0-11.266 3.203-22.328Q24.517-2 31-13.188h-7.813Q15.875-1.704 12.235 9.375q-3.64 11.078-3.64 22.016 0 10.89 3.61 21.922 3.624 11.046 10.983 22.562z" stroke-linejoin="round"/><path id="L" d="M8.5 21.578v33.11h8.984V21.922q0-7.766 3.016-11.656 3.031-3.875 9.094-3.875 7.265 0 11.484 4.64 4.234 4.64 4.234 12.656v31h8.985V0h-8.984v8.406Q42.047 3.422 37.718 1q-4.313-2.422-10.032-2.422-9.421 0-14.312 5.86Q8.5 10.296 8.5 21.578z" stroke-linejoin="round"/><path id="M" d="M10.688 12.406H21V0H10.687z" stroke-linejoin="round"/><path id="N" d="M8.016 75.875h7.812q7.313-11.516 10.953-22.563 3.64-11.03 3.64-21.921 0-10.938-3.64-22.016-3.64-11.078-10.953-22.563H8.016Q14.5-2 17.703 9.063q3.203 11.063 3.203 22.329 0 11.28-3.203 22.265-3.203 11-9.687 22.219z" stroke-linejoin="round"/><path id="O" d="M8.688 72.906h9.921V28.61q0-11.718 4.235-16.875 4.25-5.14 13.781-5.14 9.469 0 13.719 5.14 4.25 5.157 4.25 16.875v44.297H64.5V27.391q0-14.25-7.063-21.532-7.046-7.28-20.812-7.28-13.828 0-20.89 7.28-7.047 7.282-7.047 21.532z" stroke-linejoin="round"/><clipPath id="Q" stroke-linejoin="round"><path d="M50.15 299.928h505.33v206H50.15z"/></clipPath><clipPath id="a" stroke-linejoin="round"><path d="M50.15 25.44h505.33v206H50.15z"/></clipPath></defs><path d="M0 568.8h568.8V0H0z" fill="#fff"/><path d="M50.15 231.44h505.33v-206H50.15z" fill="#fff"/><path clip-path="url(#a)" d="M130.187 231.44v-206" fill="none" stroke="#b0b0b0" stroke-linecap="square" stroke-width=".8"/><use stroke="#000" stroke-width=".8" x="130.187" xlink:href="#b" y="231.44"/><g transform="matrix(.1 0 0 -.1 121.064 268.434)"><use xlink:href="#c"/><use x="57.441" xlink:href="#d"/><use x="118.965" xlink:href="#e"/></g><g transform="matrix(.1 0 0 -.1 117.462 279.632)"><use xlink:href="#f"/><use x="63.623" xlink:href="#g"/><use x="127.246" xlink:href="#f"/><use x="190.869" xlink:href="#g"/></g><path clip-path="url(#a)" d="M357.742 231.44v-206" fill="none" stroke="#b0b0b0" stroke-linecap="square" stroke-width=".8"/><use stroke="#000" stroke-width=".8" x="357.742" xlink:href="#b" y="231.44"/><g transform="matrix(.1 0 0 -.1 348.309 268.434)"><use xlink:href="#h"/><use x="86.279" xlink:href="#i"/><use x="147.559" xlink:href="#j"/></g><g stroke-width=".8"><path clip-path="url(#a)" d="M553.91 231.44v-206" fill="none" stroke="#b0b0b0" stroke-linecap="square"/><use stroke="#000" x="553.911" xlink:href="#b" y="231.44"/></g><use stroke="#000" stroke-width=".6" x="51.72" xlink:href="#k" y="231.44"/><use stroke="#000" stroke-width=".6" x="59.566" xlink:href="#k" y="231.44"/><use stroke="#000" stroke-width=".6" x="67.413" xlink:href="#k" y="231.44"/><use stroke="#000" stroke-width=".6" x="75.26" xlink:href="#k" y="231.44"/><use stroke="#000" stroke-width=".6" x="83.106" xlink:href="#k" y="231.44"/><use stroke="#000" stroke-width=".6" x="90.953" xlink:href="#k" y="231.44"/><g transform="matrix(.1 0 0 -.1 84.59 244.438)"><use xlink:href="#f"/><use x="63.623" xlink:href="#l"/></g><g stroke="#000" stroke-width=".6"><use x="98.8" xlink:href="#k" y="231.44"/><use x="106.647" xlink:href="#k" y="231.44"/><use x="114.493" xlink:href="#k" y="231.44"/><use x="122.34" xlink:href="#k" y="231.44"/><use x="130.187" xlink:href="#k" y="231.44"/><use x="138.034" xlink:href="#k" y="231.44"/></g><use stroke="#000" stroke-width=".6" x="145.88" xlink:href="#k" y="231.44"/><g transform="matrix(.1 0 0 -.1 139.518 244.438)"><use xlink:href="#g"/><use x="63.623" xlink:href="#m"/></g><use stroke="#000" stroke-width=".6" x="153.727" xlink:href="#k" y="231.44"/><use stroke="#000" stroke-width=".6" x="161.574" xlink:href="#k" y="231.44"/><use stroke="#000" stroke-width=".6" x="169.421" xlink:href="#k" y="231.44"/><use stroke="#000" stroke-width=".6" x="177.267" xlink:href="#k" y="231.44"/><use stroke="#000" stroke-width=".6" x="185.114" xlink:href="#k" y="231.44"/><use stroke="#000" stroke-width=".6" x="192.961" xlink:href="#k" y="231.44"/><use stroke="#000" stroke-width=".6" x="200.808" xlink:href="#k" y="231.44"/><g transform="matrix(.1 0 0 -.1 194.445 244.438)"><use xlink:href="#n"/><use x="63.623" xlink:href="#g"/></g><use stroke="#000" stroke-width=".6" x="208.654" xlink:href="#k" y="231.44"/><use stroke="#000" stroke-width=".6" x="216.501" xlink:href="#k" y="231.44"/><use stroke="#000" stroke-width=".6" x="224.348" xlink:href="#k" y="231.44"/><use stroke="#000" stroke-width=".6" x="232.194" xlink:href="#k" y="231.44"/><use stroke="#000" stroke-width=".6" x="240.041" xlink:href="#k" y="231.44"/><use stroke="#000" stroke-width=".6" x="247.888" xlink:href="#k" y="231.44"/><use stroke="#000" stroke-width=".6" x="255.735" xlink:href="#k" y="231.44"/><g transform="matrix(.1 0 0 -.1 249.372 244.438)"><use xlink:href="#n"/><use x="63.623" xlink:href="#l"/></g><use stroke="#000" stroke-width=".6" x="263.581" xlink:href="#k" y="231.44"/><use stroke="#000" stroke-width=".6" x="271.428" xlink:href="#k" y="231.44"/><use stroke="#000" stroke-width=".6" x="279.275" xlink:href="#k" y="231.44"/><use stroke="#000" stroke-width=".6" x="287.122" xlink:href="#k" y="231.44"/><use stroke="#000" stroke-width=".6" x="294.968" xlink:href="#k" y="231.44"/><use stroke="#000" stroke-width=".6" x="302.815" xlink:href="#k" y="231.44"/><use stroke="#000" stroke-width=".6" x="310.662" xlink:href="#k" y="231.44"/><g transform="matrix(.1 0 0 -.1 304.3 244.438)"><use xlink:href="#f"/><use x="63.623" xlink:href="#o"/></g><use stroke="#000" stroke-width=".6" x="318.509" xlink:href="#k" y="231.44"/><use stroke="#000" stroke-width=".6" x="326.355" xlink:href="#k" y="231.44"/><use stroke="#000" stroke-width=".6" x="334.202" xlink:href="#k" y="231.44"/><use stroke="#000" stroke-width=".6" x="342.049" xlink:href="#k" y="231.44"/><use stroke="#000" stroke-width=".6" x="349.896" xlink:href="#k" y="231.44"/><use stroke="#000" stroke-width=".6" x="357.742" xlink:href="#k" y="231.44"/><use stroke="#000" stroke-width=".6" x="365.589" xlink:href="#k" y="231.44"/><g transform="matrix(.1 0 0 -.1 359.226 244.438)"><use xlink:href="#g"/><use x="63.623" xlink:href="#f"/></g><use stroke="#000" stroke-width=".6" x="373.436" xlink:href="#k" y="231.44"/><use stroke="#000" stroke-width=".6" x="381.282" xlink:href="#k" y="231.44"/><use stroke="#000" stroke-width=".6" x="389.129" xlink:href="#k" y="231.44"/><use stroke="#000" stroke-width=".6" x="396.976" xlink:href="#k" y="231.44"/><use stroke="#000" stroke-width=".6" x="404.823" xlink:href="#k" y="231.44"/><use stroke="#000" stroke-width=".6" x="412.669" xlink:href="#k" y="231.44"/><use stroke="#000" stroke-width=".6" x="420.516" xlink:href="#k" y="231.44"/><g transform="matrix(.1 0 0 -.1 414.154 244.438)"><use xlink:href="#g"/><use x="63.623" xlink:href="#p"/></g><use stroke="#000" stroke-width=".6" x="428.363" xlink:href="#k" y="231.44"/><use stroke="#000" stroke-width=".6" x="436.21" xlink:href="#k" y="231.44"/><use stroke="#000" stroke-width=".6" x="444.056" xlink:href="#k" y="231.44"/><use stroke="#000" stroke-width=".6" x="451.903" xlink:href="#k" y="231.44"/><use stroke="#000" stroke-width=".6" x="459.75" xlink:href="#k" y="231.44"/><use stroke="#000" stroke-width=".6" x="467.597" xlink:href="#k" y="231.44"/><g><use stroke="#000" stroke-width=".6" x="475.443" xlink:href="#k" y="231.44"/><g transform="matrix(.1 0 0 -.1 469.08 244.438)"><use xlink:href="#n"/><use x="63.623" xlink:href="#q"/></g></g><use stroke="#000" stroke-width=".6" x="483.29" xlink:href="#k" y="231.44"/><use stroke="#000" stroke-width=".6" x="491.137" xlink:href="#k" y="231.44"/><use stroke="#000" stroke-width=".6" x="498.984" xlink:href="#k" y="231.44"/><use stroke="#000" stroke-width=".6" x="506.83" xlink:href="#k" y="231.44"/><use stroke="#000" stroke-width=".6" x="514.677" xlink:href="#k" y="231.44"/><use stroke="#000" stroke-width=".6" x="522.524" xlink:href="#k" y="231.44"/><g><use stroke="#000" stroke-width=".6" x="530.37" xlink:href="#k" y="231.44"/><g transform="matrix(.1 0 0 -.1 524.008 244.438)"><use xlink:href="#f"/><use x="63.623" xlink:href="#m"/></g></g><use stroke="#000" stroke-width=".6" x="538.217" xlink:href="#k" y="231.44"/><use stroke="#000" stroke-width=".6" x="546.064" xlink:href="#k" y="231.44"/><use stroke="#000" stroke-width=".6" x="553.911" xlink:href="#k" y="231.44"/><g><path clip-path="url(#a)" d="M50.15 231.44h505.33" fill="none" stroke="#b0b0b0" stroke-linecap="square" stroke-width=".8"/><use stroke="#000" stroke-width=".8" x="50.15" xlink:href="#r" y="231.44"/><g transform="matrix(.1 0 0 -.1 25.55 235.24)"><use transform="translate(0 .766)" xlink:href="#n"/><use transform="translate(63.623 .766)" xlink:href="#g"/><use transform="matrix(.7 0 0 .7 128.203 39.047)" xlink:href="#g"/></g><path clip-path="url(#a)" d="M50.15 190.24h505.33" fill="none" stroke="#b0b0b0" stroke-linecap="square" stroke-width=".8"/><use stroke="#000" stroke-width=".8" x="50.15" xlink:href="#r" y="190.24"/><g transform="matrix(.1 0 0 -.1 25.55 194.04)"><use transform="translate(0 .684)" xlink:href="#n"/><use transform="translate(63.623 .684)" xlink:href="#g"/><use transform="matrix(.7 0 0 .7 128.203 38.966)" xlink:href="#n"/></g><path clip-path="url(#a)" d="M50.15 149.04h505.33" fill="none" stroke="#b0b0b0" stroke-linecap="square" stroke-width=".8"/><use stroke="#000" stroke-width=".8" x="50.15" xlink:href="#r" y="149.04"/><g transform="matrix(.1 0 0 -.1 25.55 152.84)"><use transform="translate(0 .766)" xlink:href="#n"/><use transform="translate(63.623 .766)" xlink:href="#g"/><use transform="matrix(.7 0 0 .7 128.203 39.047)" xlink:href="#f"/></g><g><path clip-path="url(#a)" d="M50.15 107.84h505.33" fill="none" stroke="#b0b0b0" stroke-linecap="square" stroke-width=".8"/><use stroke="#000" stroke-width=".8" x="50.15" xlink:href="#r" y="107.84"/><g transform="matrix(.1 0 0 -.1 25.55 111.64)"><use transform="translate(0 .766)" xlink:href="#n"/><use transform="translate(63.623 .766)" xlink:href="#g"/><use transform="matrix(.7 0 0 .7 128.203 39.047)" xlink:href="#m"/></g></g><g><path clip-path="url(#a)" d="M50.15 66.64h505.33" fill="none" stroke="#b0b0b0" stroke-linecap="square" stroke-width=".8"/><use stroke="#000" stroke-width=".8" x="50.15" xlink:href="#r" y="66.64"/><g transform="matrix(.1 0 0 -.1 25.55 70.44)"><use transform="translate(0 .684)" xlink:href="#n"/><use transform="translate(63.623 .684)" xlink:href="#g"/><use transform="matrix(.7 0 0 .7 128.203 38.966)" xlink:href="#o"/></g></g><g><path clip-path="url(#a)" d="M50.15 25.44h505.33" fill="none" stroke="#b0b0b0" stroke-linecap="square" stroke-width=".8"/><use stroke="#000" stroke-width=".8" x="50.15" xlink:href="#r" y="25.44"/><g transform="matrix(.1 0 0 -.1 25.55 29.24)"><use transform="translate(0 .684)" xlink:href="#n"/><use transform="translate(63.623 .684)" xlink:href="#g"/><use transform="matrix(.7 0 0 .7 128.203 38.966)" xlink:href="#s"/></g></g><g stroke="#000" stroke-width=".6"><use x="50.15" xlink:href="#t" y="219.038"/><use x="50.15" xlink:href="#t" y="211.783"/><use x="50.15" xlink:href="#t" y="206.635"/><use x="50.15" xlink:href="#t" y="202.642"/><use x="50.15" xlink:href="#t" y="199.38"/><use x="50.15" xlink:href="#t" y="196.622"/><use x="50.15" xlink:href="#t" y="194.233"/><use x="50.15" xlink:href="#t" y="192.125"/><use x="50.15" xlink:href="#t" y="177.838"/><use x="50.15" xlink:href="#t" y="170.583"/><use x="50.15" xlink:href="#t" y="165.435"/><use x="50.15" xlink:href="#t" y="161.442"/><use x="50.15" xlink:href="#t" y="158.18"/><use x="50.15" xlink:href="#t" y="155.422"/><use x="50.15" xlink:href="#t" y="153.033"/><use x="50.15" xlink:href="#t" y="150.925"/><use x="50.15" xlink:href="#t" y="136.638"/><use x="50.15" xlink:href="#t" y="129.383"/><use x="50.15" xlink:href="#t" y="124.235"/><use x="50.15" xlink:href="#t" y="120.242"/><use x="50.15" xlink:href="#t" y="116.98"/><use x="50.15" xlink:href="#t" y="114.222"/><use x="50.15" xlink:href="#t" y="111.833"/><use x="50.15" xlink:href="#t" y="109.725"/><use x="50.15" xlink:href="#t" y="95.438"/><use x="50.15" xlink:href="#t" y="88.183"/><use x="50.15" xlink:href="#t" y="83.035"/><use x="50.15" xlink:href="#t" y="79.042"/><use x="50.15" xlink:href="#t" y="75.78"/><use x="50.15" xlink:href="#t" y="73.022"/><use x="50.15" xlink:href="#t" y="70.633"/><use x="50.15" xlink:href="#t" y="68.525"/><use x="50.15" xlink:href="#t" y="54.238"/><use x="50.15" xlink:href="#t" y="46.983"/><use x="50.15" xlink:href="#t" y="41.835"/><use x="50.15" xlink:href="#t" y="37.842"/><use x="50.15" xlink:href="#t" y="34.58"/><use x="50.15" xlink:href="#t" y="31.822"/><use x="50.15" xlink:href="#t" y="29.433"/><use x="50.15" xlink:href="#t" y="27.325"/></g><g transform="matrix(0 -.1 -.1 0 19.47 154.787)"><use xlink:href="#u"/><use x="98.799" xlink:href="#v"/><use x="159.98" xlink:href="#j"/><use x="201.094" xlink:href="#w"/><use x="228.877" xlink:href="#x"/><use x="292.354" xlink:href="#y"/><use x="374.141" xlink:href="#z"/><use x="401.924" xlink:href="#x"/><use x="465.4" xlink:href="#d"/></g></g><g fill="none"><path clip-path="url(#a)" d="M51.72 120.171l7.846-2.92 7.847-6.587 7.847-7.765 7.846-7.073 7.847-5.91L98.8 78.129l7.847-1.795 7.846-5.29 7.847-3.213 7.847-3.436 7.847-5.92 7.846-2.99 7.847-3.233 7.847-2.524 7.847-1.793 7.846-1.746 7.847-1.116 7.847-1.187 7.847-.838 7.846-.567 7.847.036 7.847-5.462 7.846-1.494 7.847-.185 7.847-.169 7.847-.034 7.846.033 7.847.456 7.847.553 7.847.071 7.846.926 7.847.162 7.847.623 7.847.821 7.846.792 7.847.991 7.847 1.349 7.847 1.214 7.846 1.143 7.847 1.352 7.847 1.442 7.846 1.546 7.847 1.477 7.847 1.12 7.847 1.204 7.846 1.539 7.847 1.282 7.847 1.343 7.847 1.489 7.846 1.453 7.847 1.625 7.847 2.015 7.847 2.097 7.846 1.518 7.847 1.657 7.847 1.931 7.847 1.698 7.846 1.628 7.847 1.502 7.847 1.255 7.846 1.175" stroke="#1f77b4" stroke-linecap="square" stroke-width="1.5"/><path clip-path="url(#a)" d="M530.37 78.027l7.847 1.53 7.847 1.532 7.847 1.53" stroke="#1f77b4" stroke-dasharray="1.5 2.475" stroke-width="1.5"/><path clip-path="url(#a)" d="M122.273 569.8l.067-350.762h47.081l7.846-7.255h102.008l7.847-33.028 7.846-20.274 7.847-16.696 7.847-6.934 7.847-6.113 7.846-6.127 7.847-5.42 7.847-5.822 7.847-4.453 7.846-7.227 7.847-2.71 7.847-3.752 7.846-3.199 7.847-3.53 7.847-3.083 7.847-4.59 7.846-4.163 7.847-3.996 7.847-1.726 7.847-3.326h7.846l7.847-6.175 7.847-3.066 7.847-2.667 7.846-2.026 7.847-2.18 7.847-1.731 7.847-2.594 7.846-2.679 7.847-1.822 7.847-1.586 7.846-1.395" stroke="#ff7f0e" stroke-linecap="square" stroke-width="1.5"/><path clip-path="url(#a)" d="M530.37 37.062l7.847-2.046 7.847-2.046 7.847-2.046" stroke="#ff7f0e" stroke-dasharray="1.5 2.475" stroke-width="1.5"/><path clip-path="url(#a)" d="M51.72 231.44h7.846l7.847-12.402h7.847l7.846-16.396h31.387l7.847-3.262 7.847-5.147h7.847l7.846-5.698h7.847l7.847-1.557H185.114l7.847 5.147h7.847l7.846-1.885h7.847l7.847-3.262H279.275l7.847-16.395H302.815l7.847-8.41 7.847.377 7.846-2.15 7.847-.335 7.847-.328 7.847-2.144 7.846-1.652 7.847-4.614 7.847-3.498 7.846-4.026 7.847-7.255 7.847-4.327 7.847-7.624 7.846-4.639 7.847-2.216 7.847-8.468 7.847-5.24 7.846-4.726 7.847-4.913 7.847-4.06 7.847-4.518 7.846-5.008 7.847-5.89 7.847-3.279 7.847-10.2 7.846-6.01 7.847-5.196 7.847-4.783 7.846-4.958" stroke="#2ca02c" stroke-linecap="square" stroke-width="1.5"/><path clip-path="url(#a)" d="M530.37 39.209l7.847-5.96 7.847-5.959 7.847-5.959" stroke="#2ca02c" stroke-dasharray="1.5 2.475" stroke-width="1.5"/><path clip-path="url(#a)" d="M51.72 231.44h7.846l7.847-12.402h7.847l7.846-7.255 7.847-5.148h23.54l7.847-18.1 7.847-1.557 7.847-3.993h7.846l7.847-1.155 7.847-3.075 7.847-3.418H185.114l7.847.795 7.847-1.557 7.846-.73 7.847 3.12H232.194l7.847 1.79 7.847-.917h7.847l7.846.917h7.847l7.847-27.223 7.847-13.596 7.846-14.36 7.847-5.927 7.847-5.972 7.847-2.825 7.846-4.672 7.847-6.158 7.847-5.1 7.847-5.366 7.846-3.073 7.847-2.646 7.847-3.247 7.846-1.399 7.847-1.447 7.847-1.163 7.847-1.203 7.846-.725 7.847-.4 7.847.235 7.847-.477 7.846-.152 7.847.161 7.847-.242 7.847-.173 7.846 1.356 7.847.496 7.847.113 7.847-.379 7.846-.215 7.847-.35 7.847 3.503 7.846.62" stroke="#d62728" stroke-linecap="square" stroke-width="1.5"/><path clip-path="url(#a)" d="M530.37 75.645l7.847.516 7.847.515 7.847.515" stroke="#d62728" stroke-dasharray="1.5 2.475" stroke-width="1.5"/><path d="M50.15 231.44v-206M555.48 231.44v-206M50.15 231.44h505.33M50.15 25.44h505.33" stroke="#000" stroke-linecap="square" stroke-linejoin="miter" stroke-width=".8"/></g><g transform="matrix(.12 0 0 -.12 181.036 19.44)"><path d="M34.188 63.188L20.797 26.906h26.812zm-5.579 9.718h11.188L67.578 0h-10.25l-6.64 18.703h-32.86L11.188 0H.78z"/><use x="68.393" xlink:href="#A"/><use x="123.373" xlink:href="#B"/><use x="162.582" xlink:href="#z"/><path d="M193.35 54.688h9.515L219.96 8.797l17.094 45.89h9.515L226.053 0H213.85z"/><use x="249.545" xlink:href="#d"/><use x="342.855" xlink:href="#C"/><path d="M452.086 66.219q-10.75 0-17.078-8.016-6.313-8-6.313-21.828 0-13.766 6.313-21.781 6.328-8 17.078-8 10.734 0 17.016 8 6.28 8.015 6.28 21.781 0 13.828-6.28 21.828-6.282 8.016-17.016 8.016zm0 8q15.328 0 24.5-10.281 9.187-10.282 9.187-27.563 0-17.234-9.187-27.516-9.172-10.28-24.5-10.28-15.375 0-24.594 10.25-9.203 10.265-9.203 27.546t9.203 27.563q9.219 10.28 24.594 10.28zM519.984 0l-27.828 72.906h10.297l23.11-61.375 23.14 61.375h10.25L531.172 0z"/><use x="559.783" xlink:href="#D"/><path d="M608.947 64.797V8.109h11.922q15.094 0 22.094 6.829 7 6.843 7 21.593 0 14.64-7 21.453-7 6.813-22.094 6.813zm-9.86 8.11h20.267q21.187 0 31.093-8.813 9.922-8.813 9.922-27.563 0-18.86-9.969-27.703Q640.447 0 619.354 0h-20.266z"/><use x="666.277" xlink:href="#E"/><use x="702.361" xlink:href="#n"/><use x="765.984" xlink:href="#p"/><use x="861.395" xlink:href="#A"/><use x="916.375" xlink:href="#i"/><use x="977.654" xlink:href="#F"/><use x="1029.754" xlink:href="#d"/><use x="1091.277" xlink:href="#F"/><use x="1175.164" xlink:href="#i"/><use x="1236.443" xlink:href="#F"/><use x="1320.33" xlink:href="#v"/><use x="1381.512" xlink:href="#G"/><use x="1448.504" xlink:href="#f"/><use x="1512.127" xlink:href="#g"/><use x="1575.75" xlink:href="#f"/><use x="1639.373" xlink:href="#g"/><use x="1702.996" xlink:href="#E"/><use x="1739.08" xlink:href="#g"/><use x="1802.703" xlink:href="#m"/><use x="1866.326" xlink:href="#E"/><use x="1902.41" xlink:href="#f"/><use x="1966.033" xlink:href="#m"/></g><g><path d="M386.352 226.44H548.48q2 0 2-2v-57.712q0-2-2-2H386.352q-2 0-2 2v57.712q0 2 2 2z" fill="#fff" opacity=".8" stroke="#ccc" stroke-linejoin="miter"/><path d="M388.352 172.826h20" fill="none" stroke="#1f77b4" stroke-linecap="square" stroke-width="1.5"/><g transform="matrix(.1 0 0 -.1 416.352 176.326)"><use xlink:href="#C"/><use x="69.824" xlink:href="#H"/><use x="133.203" xlink:href="#z"/><use x="160.986" xlink:href="#I"/><use x="224.365" xlink:href="#i"/></g><path d="M388.352 187.504h20" fill="none" stroke="#ff7f0e" stroke-linecap="square" stroke-width="1.5"/><g transform="matrix(.1 0 0 -.1 416.352 191.004)"><use xlink:href="#D"/><use x="29.492" xlink:href="#B"/><use x="68.701" xlink:href="#i"/><use x="129.98" xlink:href="#w"/><use x="157.764" xlink:href="#J"/><use x="248.73" xlink:href="#K"/><use x="287.744" xlink:href="#x"/><use x="351.221" xlink:href="#v"/><use x="412.402" xlink:href="#L"/><use x="475.781" xlink:href="#e"/><use x="539.258" xlink:href="#w"/><use x="567.041" xlink:href="#d"/><use x="628.564" xlink:href="#F"/><use x="712.451" xlink:href="#z"/><use x="740.234" xlink:href="#I"/><use x="835.4" xlink:href="#q"/><use x="899.023" xlink:href="#M"/><use x="930.811" xlink:href="#n"/><use x="1026.221" xlink:href="#x"/><use x="1089.697" xlink:href="#i"/><use x="1150.977" xlink:href="#J"/><use x="1210.156" xlink:href="#F"/><use x="1262.256" xlink:href="#N"/></g><path d="M388.352 202.182h20" fill="none" stroke="#2ca02c" stroke-linecap="square" stroke-width="1.5"/><g transform="matrix(.1 0 0 -.1 416.352 205.682)"><use xlink:href="#O"/><use x="73.193" xlink:href="#P"/><use x="168.457" xlink:href="#K"/><use x="207.471" xlink:href="#x"/><use x="270.947" xlink:href="#v"/><use x="332.129" xlink:href="#L"/><use x="395.508" xlink:href="#e"/><use x="458.984" xlink:href="#w"/><use x="486.768" xlink:href="#d"/><use x="548.291" xlink:href="#F"/><use x="632.178" xlink:href="#z"/><use x="659.961" xlink:href="#I"/><use x="755.127" xlink:href="#f"/><use x="818.75" xlink:href="#M"/><use x="850.537" xlink:href="#n"/><use x="945.947" xlink:href="#x"/><use x="1009.424" xlink:href="#i"/><use x="1070.703" xlink:href="#J"/><use x="1129.883" xlink:href="#F"/><use x="1181.982" xlink:href="#N"/></g><path d="M388.352 216.86h20" fill="none" stroke="#d62728" stroke-linecap="square" stroke-width="1.5"/><g transform="matrix(.1 0 0 -.1 416.352 220.36)"><use xlink:href="#P"/><use x="63.477" xlink:href="#v"/><use x="124.658" xlink:href="#L"/><use x="188.037" xlink:href="#B"/><use x="227.246" xlink:href="#H"/><path d="M332.225 72.906h9.859V42.094l32.719 30.812h12.703l-36.188-33.984L390.084 0H377.1l-35.016 35.11V0h-9.86z"/><use x="387.91" xlink:href="#v"/><use x="449.092" xlink:href="#j"/><use x="490.174" xlink:href="#d"/><use x="551.697" xlink:href="#i"/></g></g><g><path d="M50.15 505.928h505.33v-206H50.15z" fill="#fff"/><path clip-path="url(#Q)" d="M130.187 505.928v-206" fill="none" stroke="#b0b0b0" stroke-linecap="square" stroke-width=".8"/><use stroke="#000" stroke-width=".8" x="130.187" xlink:href="#b" y="505.928"/><g transform="matrix(.1 0 0 -.1 121.064 542.922)"><use xlink:href="#c"/><use x="57.441" xlink:href="#d"/><use x="118.965" xlink:href="#e"/></g><g transform="matrix(.1 0 0 -.1 117.462 554.12)"><use xlink:href="#f"/><use x="63.623" xlink:href="#g"/><use x="127.246" xlink:href="#f"/><use x="190.869" xlink:href="#g"/></g><path clip-path="url(#Q)" d="M357.742 505.928v-206" fill="none" stroke="#b0b0b0" stroke-linecap="square" stroke-width=".8"/><use stroke="#000" stroke-width=".8" x="357.742" xlink:href="#b" y="505.928"/><g transform="matrix(.1 0 0 -.1 348.309 542.922)"><use xlink:href="#h"/><use x="86.279" xlink:href="#i"/><use x="147.559" xlink:href="#j"/></g><g stroke-width=".8"><path clip-path="url(#Q)" d="M553.91 505.928v-206" fill="none" stroke="#b0b0b0" stroke-linecap="square"/><use stroke="#000" x="553.911" xlink:href="#b" y="505.928"/></g><use stroke="#000" stroke-width=".6" x="51.72" xlink:href="#k" y="505.928"/><use stroke="#000" stroke-width=".6" x="59.566" xlink:href="#k" y="505.928"/><use stroke="#000" stroke-width=".6" x="67.413" xlink:href="#k" y="505.928"/><use stroke="#000" stroke-width=".6" x="75.26" xlink:href="#k" y="505.928"/><use stroke="#000" stroke-width=".6" x="83.106" xlink:href="#k" y="505.928"/><use stroke="#000" stroke-width=".6" x="90.953" xlink:href="#k" y="505.928"/><g transform="matrix(.1 0 0 -.1 84.59 518.926)"><use xlink:href="#f"/><use x="63.623" xlink:href="#l"/></g><g stroke="#000" stroke-width=".6"><use x="98.8" xlink:href="#k" y="505.928"/><use x="106.647" xlink:href="#k" y="505.928"/><use x="114.493" xlink:href="#k" y="505.928"/><use x="122.34" xlink:href="#k" y="505.928"/><use x="130.187" xlink:href="#k" y="505.928"/><use x="138.034" xlink:href="#k" y="505.928"/></g><use stroke="#000" stroke-width=".6" x="145.88" xlink:href="#k" y="505.928"/><g transform="matrix(.1 0 0 -.1 139.518 518.926)"><use xlink:href="#g"/><use x="63.623" xlink:href="#m"/></g><use stroke="#000" stroke-width=".6" x="153.727" xlink:href="#k" y="505.928"/><use stroke="#000" stroke-width=".6" x="161.574" xlink:href="#k" y="505.928"/><use stroke="#000" stroke-width=".6" x="169.421" xlink:href="#k" y="505.928"/><use stroke="#000" stroke-width=".6" x="177.267" xlink:href="#k" y="505.928"/><use stroke="#000" stroke-width=".6" x="185.114" xlink:href="#k" y="505.928"/><use stroke="#000" stroke-width=".6" x="192.961" xlink:href="#k" y="505.928"/><use stroke="#000" stroke-width=".6" x="200.808" xlink:href="#k" y="505.928"/><g transform="matrix(.1 0 0 -.1 194.445 518.926)"><use xlink:href="#n"/><use x="63.623" xlink:href="#g"/></g><use stroke="#000" stroke-width=".6" x="208.654" xlink:href="#k" y="505.928"/><use stroke="#000" stroke-width=".6" x="216.501" xlink:href="#k" y="505.928"/><use stroke="#000" stroke-width=".6" x="224.348" xlink:href="#k" y="505.928"/><use stroke="#000" stroke-width=".6" x="232.194" xlink:href="#k" y="505.928"/><use stroke="#000" stroke-width=".6" x="240.041" xlink:href="#k" y="505.928"/><use stroke="#000" stroke-width=".6" x="247.888" xlink:href="#k" y="505.928"/><use stroke="#000" stroke-width=".6" x="255.735" xlink:href="#k" y="505.928"/><g transform="matrix(.1 0 0 -.1 249.372 518.926)"><use xlink:href="#n"/><use x="63.623" xlink:href="#l"/></g><use stroke="#000" stroke-width=".6" x="263.581" xlink:href="#k" y="505.928"/><use stroke="#000" stroke-width=".6" x="271.428" xlink:href="#k" y="505.928"/><use stroke="#000" stroke-width=".6" x="279.275" xlink:href="#k" y="505.928"/><use stroke="#000" stroke-width=".6" x="287.122" xlink:href="#k" y="505.928"/><use stroke="#000" stroke-width=".6" x="294.968" xlink:href="#k" y="505.928"/><use stroke="#000" stroke-width=".6" x="302.815" xlink:href="#k" y="505.928"/><use stroke="#000" stroke-width=".6" x="310.662" xlink:href="#k" y="505.928"/><g transform="matrix(.1 0 0 -.1 304.3 518.926)"><use xlink:href="#f"/><use x="63.623" xlink:href="#o"/></g><use stroke="#000" stroke-width=".6" x="318.509" xlink:href="#k" y="505.928"/><use stroke="#000" stroke-width=".6" x="326.355" xlink:href="#k" y="505.928"/><use stroke="#000" stroke-width=".6" x="334.202" xlink:href="#k" y="505.928"/><use stroke="#000" stroke-width=".6" x="342.049" xlink:href="#k" y="505.928"/><use stroke="#000" stroke-width=".6" x="349.896" xlink:href="#k" y="505.928"/><use stroke="#000" stroke-width=".6" x="357.742" xlink:href="#k" y="505.928"/><use stroke="#000" stroke-width=".6" x="365.589" xlink:href="#k" y="505.928"/><g transform="matrix(.1 0 0 -.1 359.226 518.926)"><use xlink:href="#g"/><use x="63.623" xlink:href="#f"/></g><use stroke="#000" stroke-width=".6" x="373.436" xlink:href="#k" y="505.928"/><use stroke="#000" stroke-width=".6" x="381.282" xlink:href="#k" y="505.928"/><use stroke="#000" stroke-width=".6" x="389.129" xlink:href="#k" y="505.928"/><use stroke="#000" stroke-width=".6" x="396.976" xlink:href="#k" y="505.928"/><use stroke="#000" stroke-width=".6" x="404.823" xlink:href="#k" y="505.928"/><use stroke="#000" stroke-width=".6" x="412.669" xlink:href="#k" y="505.928"/><use stroke="#000" stroke-width=".6" x="420.516" xlink:href="#k" y="505.928"/><g transform="matrix(.1 0 0 -.1 414.154 518.926)"><use xlink:href="#g"/><use x="63.623" xlink:href="#p"/></g><use stroke="#000" stroke-width=".6" x="428.363" xlink:href="#k" y="505.928"/><use stroke="#000" stroke-width=".6" x="436.21" xlink:href="#k" y="505.928"/><use stroke="#000" stroke-width=".6" x="444.056" xlink:href="#k" y="505.928"/><use stroke="#000" stroke-width=".6" x="451.903" xlink:href="#k" y="505.928"/><use stroke="#000" stroke-width=".6" x="459.75" xlink:href="#k" y="505.928"/><use stroke="#000" stroke-width=".6" x="467.597" xlink:href="#k" y="505.928"/><g><use stroke="#000" stroke-width=".6" x="475.443" xlink:href="#k" y="505.928"/><g transform="matrix(.1 0 0 -.1 469.08 518.926)"><use xlink:href="#n"/><use x="63.623" xlink:href="#q"/></g></g><use stroke="#000" stroke-width=".6" x="483.29" xlink:href="#k" y="505.928"/><use stroke="#000" stroke-width=".6" x="491.137" xlink:href="#k" y="505.928"/><use stroke="#000" stroke-width=".6" x="498.984" xlink:href="#k" y="505.928"/><use stroke="#000" stroke-width=".6" x="506.83" xlink:href="#k" y="505.928"/><use stroke="#000" stroke-width=".6" x="514.677" xlink:href="#k" y="505.928"/><use stroke="#000" stroke-width=".6" x="522.524" xlink:href="#k" y="505.928"/><g><use stroke="#000" stroke-width=".6" x="530.37" xlink:href="#k" y="505.928"/><g transform="matrix(.1 0 0 -.1 524.008 518.926)"><use xlink:href="#f"/><use x="63.623" xlink:href="#m"/></g></g><use stroke="#000" stroke-width=".6" x="538.217" xlink:href="#k" y="505.928"/><use stroke="#000" stroke-width=".6" x="546.064" xlink:href="#k" y="505.928"/><use stroke="#000" stroke-width=".6" x="553.911" xlink:href="#k" y="505.928"/><g><path clip-path="url(#Q)" d="M50.15 505.928h505.33" fill="none" stroke="#b0b0b0" stroke-linecap="square" stroke-width=".8"/><use stroke="#000" stroke-width=".8" x="50.15" xlink:href="#r" y="505.928"/><g transform="matrix(.1 0 0 -.1 25.55 509.727)"><use transform="translate(0 .766)" xlink:href="#n"/><use transform="translate(63.623 .766)" xlink:href="#g"/><use transform="matrix(.7 0 0 .7 128.203 39.047)" xlink:href="#g"/></g><path clip-path="url(#Q)" d="M50.15 464.728h505.33" fill="none" stroke="#b0b0b0" stroke-linecap="square" stroke-width=".8"/><use stroke="#000" stroke-width=".8" x="50.15" xlink:href="#r" y="464.728"/><g transform="matrix(.1 0 0 -.1 25.55 468.527)"><use transform="translate(0 .684)" xlink:href="#n"/><use transform="translate(63.623 .684)" xlink:href="#g"/><use transform="matrix(.7 0 0 .7 128.203 38.966)" xlink:href="#n"/></g><path clip-path="url(#Q)" d="M50.15 423.528h505.33" fill="none" stroke="#b0b0b0" stroke-linecap="square" stroke-width=".8"/><use stroke="#000" stroke-width=".8" x="50.15" xlink:href="#r" y="423.528"/><g transform="matrix(.1 0 0 -.1 25.55 427.327)"><use transform="translate(0 .766)" xlink:href="#n"/><use transform="translate(63.623 .766)" xlink:href="#g"/><use transform="matrix(.7 0 0 .7 128.203 39.047)" xlink:href="#f"/></g><g><path clip-path="url(#Q)" d="M50.15 382.328h505.33" fill="none" stroke="#b0b0b0" stroke-linecap="square" stroke-width=".8"/><use stroke="#000" stroke-width=".8" x="50.15" xlink:href="#r" y="382.328"/><g transform="matrix(.1 0 0 -.1 25.55 386.127)"><use transform="translate(0 .766)" xlink:href="#n"/><use transform="translate(63.623 .766)" xlink:href="#g"/><use transform="matrix(.7 0 0 .7 128.203 39.047)" xlink:href="#m"/></g></g><g><path clip-path="url(#Q)" d="M50.15 341.128h505.33" fill="none" stroke="#b0b0b0" stroke-linecap="square" stroke-width=".8"/><use stroke="#000" stroke-width=".8" x="50.15" xlink:href="#r" y="341.128"/><g transform="matrix(.1 0 0 -.1 25.55 344.927)"><use transform="translate(0 .684)" xlink:href="#n"/><use transform="translate(63.623 .684)" xlink:href="#g"/><use transform="matrix(.7 0 0 .7 128.203 38.966)" xlink:href="#o"/></g></g><g><path clip-path="url(#Q)" d="M50.15 299.928h505.33" fill="none" stroke="#b0b0b0" stroke-linecap="square" stroke-width=".8"/><use stroke="#000" stroke-width=".8" x="50.15" xlink:href="#r" y="299.928"/><g transform="matrix(.1 0 0 -.1 25.55 303.727)"><use transform="translate(0 .684)" xlink:href="#n"/><use transform="translate(63.623 .684)" xlink:href="#g"/><use transform="matrix(.7 0 0 .7 128.203 38.966)" xlink:href="#s"/></g></g><g stroke="#000" stroke-width=".6"><use x="50.15" xlink:href="#t" y="493.526"/><use x="50.15" xlink:href="#t" y="486.271"/><use x="50.15" xlink:href="#t" y="481.123"/><use x="50.15" xlink:href="#t" y="477.13"/><use x="50.15" xlink:href="#t" y="473.868"/><use x="50.15" xlink:href="#t" y="471.11"/><use x="50.15" xlink:href="#t" y="468.721"/><use x="50.15" xlink:href="#t" y="466.613"/><use x="50.15" xlink:href="#t" y="452.326"/><use x="50.15" xlink:href="#t" y="445.071"/><use x="50.15" xlink:href="#t" y="439.923"/><use x="50.15" xlink:href="#t" y="435.93"/><use x="50.15" xlink:href="#t" y="432.668"/><use x="50.15" xlink:href="#t" y="429.91"/><use x="50.15" xlink:href="#t" y="427.521"/><use x="50.15" xlink:href="#t" y="425.413"/><use x="50.15" xlink:href="#t" y="411.126"/><use x="50.15" xlink:href="#t" y="403.871"/><use x="50.15" xlink:href="#t" y="398.723"/><use x="50.15" xlink:href="#t" y="394.73"/><use x="50.15" xlink:href="#t" y="391.468"/><use x="50.15" xlink:href="#t" y="388.71"/><use x="50.15" xlink:href="#t" y="386.321"/><use x="50.15" xlink:href="#t" y="384.213"/><use x="50.15" xlink:href="#t" y="369.926"/><use x="50.15" xlink:href="#t" y="362.671"/><use x="50.15" xlink:href="#t" y="357.523"/><use x="50.15" xlink:href="#t" y="353.53"/><use x="50.15" xlink:href="#t" y="350.268"/><use x="50.15" xlink:href="#t" y="347.51"/><use x="50.15" xlink:href="#t" y="345.121"/><use x="50.15" xlink:href="#t" y="343.013"/><use x="50.15" xlink:href="#t" y="328.726"/><use x="50.15" xlink:href="#t" y="321.471"/><use x="50.15" xlink:href="#t" y="316.323"/><use x="50.15" xlink:href="#t" y="312.33"/><use x="50.15" xlink:href="#t" y="309.068"/><use x="50.15" xlink:href="#t" y="306.31"/><use x="50.15" xlink:href="#t" y="303.921"/><use x="50.15" xlink:href="#t" y="301.813"/></g><g transform="matrix(0 -.1 -.1 0 19.47 409.762)"><use xlink:href="#O"/><use x="73.193" xlink:href="#P"/></g></g><g fill="none"><path clip-path="url(#Q)" d="M365.577 569.8l.012-63.872 7.847-12.402 7.846-30.503 7.847-13.198 7.847-8.017 7.847-13.37 7.846-5.953 7.847-5.231 7.847-3.533 7.847-4.3 7.846-7.147 7.847-4.466 7.847-3.882 7.847-5.942 7.846-4.87 7.847-10.207 7.847-6.823 7.847-13.7 7.846-7.853 7.847-6.136 7.847-5.31 7.846-4.997" stroke="#1f77b4" stroke-linecap="square" stroke-width="1.5"/><path clip-path="url(#Q)" d="M389.115 569.8l.014-76.274h7.847l7.847-12.403 7.846-3.993h7.847l7.847-18.422 7.847-8.088 7.846-4.315h7.847l7.847-15.876 7.847-6.17 7.846-10.744 7.847-7.29 7.847-.067 7.847-18.272 7.846-3.25 7.847-7.153 7.847-6.583 7.846-7.103" stroke="#ff7f0e" stroke-linecap="square" stroke-width="1.5"/><path clip-path="url(#Q)" d="M51.72 505.928H185.114l.012 63.872m164.752 0l.018-92.67 7.846-10.517 7.847-3.59 7.847-9.78 7.846-6.938 7.847-13.03 7.847-3.108 7.847-4.754 7.846-3.427 7.847.165 7.847-14.51 7.847-5.798 7.846-3.562 7.847-4.593 7.847-.135 7.847-2.144 7.846-6.278 7.847-3.157 7.847 1.103 7.847-5.471 7.846-1.815 7.847-2.947 7.847-2.01 7.846-1.883" stroke="#2ca02c" stroke-linecap="square" stroke-width="1.5"/><path clip-path="url(#Q)" d="M83.092 569.8l.015-76.274H122.34l7.847-7.255h7.847l7.846-12.403H200.808l7.846-2.758h7.847l7.847-2.39H279.275l7.847-8.686H302.815l7.847 8.687H326.355l7.847-2.108h7.847l7.847-1.885h7.846l7.847-11.485 7.847-3.418 7.846-5.91 7.847-7.254 7.847-2.758 7.847-6.157 7.846-3.3 7.847-1.096 7.847-5.842 7.847-3.684 7.846-3.656 7.847-4.544 7.847-3.404 7.847-4.112 7.846-4.887 7.847-3.992 7.847-1.465 7.847-4.214 7.846-3.785 7.847-2.674 7.847-3.306 7.846-4.466" stroke="#d62728" stroke-linecap="square" stroke-width="1.5"/><path clip-path="url(#Q)" d="M530.37 324.948l7.847-7.658 7.847-7.66 7.847-7.658" stroke="#1f77b4" stroke-dasharray="1.5 2.475" stroke-width="1.5"/><path clip-path="url(#Q)" d="M530.37 362.99l7.847-7.436 7.847-7.436 7.847-7.436" stroke="#ff7f0e" stroke-dasharray="1.5 2.475" stroke-width="1.5"/><path clip-path="url(#Q)" d="M530.37 368.548l7.847-2.44 7.847-2.44 7.847-2.44" stroke="#2ca02c" stroke-dasharray="1.5 2.475" stroke-width="1.5"/><path clip-path="url(#Q)" d="M530.37 369.985l7.847-3.363 7.847-3.362 7.847-3.363" stroke="#d62728" stroke-dasharray="1.5 2.475" stroke-width="1.5"/><path d="M50.15 505.928v-206M555.48 505.928v-206M50.15 505.928h505.33M50.15 299.928h505.33" stroke="#000" stroke-linecap="square" stroke-linejoin="miter" stroke-width=".8"/></g><g><path d="M57.15 366.64h199.827q2 0 2-2v-57.712q0-2-2-2H57.15q-2 0-2 2v57.712q0 2 2 2z" fill="#fff" opacity=".8" stroke="#ccc" stroke-linejoin="miter"/><path d="M59.15 313.026h20" fill="none" stroke="#1f77b4" stroke-linecap="square" stroke-width="1.5"/><g transform="matrix(.1 0 0 -.1 87.15 316.526)"><use xlink:href="#R"/><use x="74.805" xlink:href="#d"/><use x="136.328" xlink:href="#y"/><path d="M249.7 72.906h10.609l20.203-29.984 20.078 29.984h10.594L285.402 34.72V0h-9.906v34.719z"/><use x="310.783" xlink:href="#v"/><use x="371.965" xlink:href="#j"/><path d="M422.156 75.984h9.031V31.11L458 54.687h11.469l-29-25.578L470.703 0h-11.719l-27.796 26.703V0h-9.032z"/><use x="502.775" xlink:href="#K"/><use x="541.789" xlink:href="#x"/><use x="605.266" xlink:href="#v"/><use x="666.447" xlink:href="#L"/><use x="729.826" xlink:href="#e"/><use x="793.303" xlink:href="#w"/><use x="821.086" xlink:href="#d"/><use x="882.609" xlink:href="#F"/><use x="966.496" xlink:href="#z"/><use x="994.279" xlink:href="#I"/><use x="1089.445" xlink:href="#n"/><use x="1153.068" xlink:href="#M"/><use x="1184.855" xlink:href="#q"/><use x="1280.266" xlink:href="#x"/><use x="1343.742" xlink:href="#i"/><use x="1405.021" xlink:href="#J"/><use x="1464.201" xlink:href="#F"/><use x="1516.301" xlink:href="#N"/></g><path d="M59.15 327.705h20" fill="none" stroke="#ff7f0e" stroke-linecap="square" stroke-width="1.5"/><g transform="matrix(.1 0 0 -.1 87.15 331.205)"><use xlink:href="#R"/><use x="74.805" xlink:href="#d"/><use x="136.328" xlink:href="#y"/><path d="M259.715 72.906h9.86V5.078q0-13.187-5-19.14-5-5.954-16.095-5.954h-3.75v8.297h3.079q6.53 0 9.218 3.672 2.688 3.656 2.688 13.125z"/><use x="279.395" xlink:href="#d"/><use x="340.918" xlink:href="#j"/><use x="382.031" xlink:href="#F"/><use x="434.131" xlink:href="#d"/><use x="495.654" xlink:href="#J"/><use x="586.621" xlink:href="#K"/><use x="625.635" xlink:href="#x"/><use x="689.111" xlink:href="#v"/><use x="750.293" xlink:href="#L"/><use x="813.672" xlink:href="#e"/><use x="877.148" xlink:href="#w"/><use x="904.932" xlink:href="#d"/><use x="966.455" xlink:href="#F"/><use x="1050.342" xlink:href="#z"/><use x="1078.125" xlink:href="#I"/><use x="1173.291" xlink:href="#n"/><use x="1236.914" xlink:href="#M"/><use x="1268.701" xlink:href="#l"/><use x="1364.111" xlink:href="#x"/><use x="1427.588" xlink:href="#i"/><use x="1488.867" xlink:href="#J"/><use x="1548.047" xlink:href="#F"/><use x="1600.146" xlink:href="#N"/></g><path d="M59.15 342.383h20" fill="none" stroke="#2ca02c" stroke-linecap="square" stroke-width="1.5"/><g transform="matrix(.1 0 0 -.1 87.15 345.883)"><use xlink:href="#u"/><use x="98.783" xlink:href="#i"/><use x="160.063" xlink:href="#F"/><use x="212.162" xlink:href="#H"/><use x="275.541" xlink:href="#z"/><use x="303.324" xlink:href="#I"/><path d="M412.11 27.984q0 9.766-4.032 15.125-4.015 5.375-11.297 5.375-7.219 0-11.25-5.375-4.031-5.359-4.031-15.125 0-9.718 4.031-15.093t11.25-5.375q7.281 0 11.297 5.375 4.031 5.375 4.031 15.093zm8.984-21.203q0-13.953-6.203-20.765-6.188-6.813-18.985-6.813-4.734 0-8.937.703-4.203.703-8.156 2.172v8.735q3.953-2.141 7.812-3.157 3.86-1.031 7.86-1.031 8.843 0 13.234 4.61 4.39 4.609 4.39 13.937v4.453q-2.78-4.844-7.125-7.234Q400.641 0 394.578 0q-10.047 0-16.203 7.656-6.156 7.672-6.156 20.328 0 12.688 6.156 20.344Q384.531 56 394.578 56q6.063 0 10.406-2.39 4.344-2.391 7.125-7.22v8.297h8.985z"/><use x="430.18" xlink:href="#B"/><use x="469.389" xlink:href="#v"/><use x="530.57" xlink:href="#I"/><use x="625.736" xlink:href="#K"/><use x="664.75" xlink:href="#x"/><use x="728.227" xlink:href="#v"/><use x="789.408" xlink:href="#L"/><use x="852.787" xlink:href="#e"/><use x="916.264" xlink:href="#w"/><use x="944.047" xlink:href="#d"/><use x="1005.57" xlink:href="#F"/><use x="1089.457" xlink:href="#z"/><use x="1117.24" xlink:href="#I"/><use x="1212.406" xlink:href="#s"/><use x="1276.029" xlink:href="#M"/><use x="1307.816" xlink:href="#n"/><use x="1403.227" xlink:href="#x"/><use x="1466.703" xlink:href="#i"/><use x="1527.982" xlink:href="#J"/><use x="1587.162" xlink:href="#F"/><use x="1639.262" xlink:href="#N"/></g><path d="M59.15 357.06h20" fill="none" stroke="#d62728" stroke-linecap="square" stroke-width="1.5"/><g transform="matrix(.1 0 0 -.1 87.15 360.56)"><use xlink:href="#C"/><use x="69.824" xlink:href="#i"/><use x="131.104" xlink:href="#w"/><use x="158.887" xlink:href="#z"/><use x="186.67" xlink:href="#G"/><use x="221.875" xlink:href="#v"/><use x="283.057" xlink:href="#j"/><use x="324.154" xlink:href="#I"/><use x="387.533" xlink:href="#z"/><use x="415.316" xlink:href="#i"/><use x="508.383" xlink:href="#K"/><use x="547.396" xlink:href="#x"/><use x="610.873" xlink:href="#v"/><use x="672.055" xlink:href="#L"/><use x="735.434" xlink:href="#e"/><use x="798.91" xlink:href="#w"/><use x="826.693" xlink:href="#d"/><use x="888.217" xlink:href="#F"/><use x="972.104" xlink:href="#z"/><use x="999.887" xlink:href="#I"/><use x="1095.053" xlink:href="#m"/><use x="1158.676" xlink:href="#M"/><use x="1190.463" xlink:href="#l"/><use x="1285.873" xlink:href="#x"/><use x="1349.35" xlink:href="#i"/><use x="1410.629" xlink:href="#J"/><use x="1469.809" xlink:href="#F"/><use x="1521.908" xlink:href="#N"/></g></g></g></svg>