<svg height="758.4" stroke-linejoin="round" viewBox="0 0 568.8 568.8" width="758.4" xmlns="http://www.w3.org/2000/svg" xmlns:xlink="http://www.w3.org/1999/xlink"><defs><path id="x" d="M0 1.5a1.5 1.5 0 100-3 1.5 1.5 0 000 3z" stroke="#ff7f0e" stroke-linejoin="round"/><path id="V" d="M54.89 33.016V0h-8.984v32.719q0 7.765-3.031 11.61-3.031 3.858-9.078 3.858-7.281 0-11.484-4.64-4.204-4.625-4.204-12.64V0H9.08v75.984h9.03V46.188q3.235 4.937 7.594 7.374Q30.078 56 35.797 56q9.422 0 14.25-5.828 4.844-5.828 4.844-17.156z" stroke-linejoin="round"/><path id="b" d="M0 0v3.5" stroke="#000" stroke-linejoin="round" stroke-width=".8"/><path id="c" d="M34.188 63.188L20.797 26.906h26.812zm-5.579 9.718h11.188L67.578 0h-10.25l-6.64 18.703h-32.86L11.188 0H.78z" stroke-linejoin="round"/><path id="d" d="M18.11 8.203v-29H9.077v75.484h9.031v-8.296q2.844 4.875 7.157 7.234Q29.594 56 35.594 56q9.968 0 16.187-7.906 6.235-7.907 6.235-20.797T51.78 6.484q-6.218-7.906-16.187-7.906-6 0-10.328 2.375-4.313 2.375-7.157 7.25zm30.578 19.094q0 9.906-4.079 15.547-4.078 5.64-11.203 5.64-7.14 0-11.218-5.64-4.079-5.64-4.079-15.547 0-9.906 4.078-15.547 4.079-5.64 11.22-5.64 7.124 0 11.202 5.64t4.078 15.547z" stroke-linejoin="round"/><path id="e" d="M41.11 46.297q-1.516.875-3.297 1.281Q36.03 48 33.89 48q-7.625 0-11.703-4.953-4.079-4.953-4.079-14.234V0H9.08v54.688h9.03v-8.5q2.844 4.984 7.375 7.39Q30.031 56 36.531 56q.922 0 2.047-.125 1.125-.11 2.484-.36z" stroke-linejoin="round"/><path id="f" d="M19.188 8.297h34.421V0H7.33v8.297q5.609 5.812 15.296 15.594 9.703 9.797 12.188 12.64 4.734 5.313 6.609 9 1.89 3.688 1.89 7.25 0 5.813-4.078 9.469-4.078 3.672-10.625 3.672-4.64 0-9.797-1.61-5.14-1.609-11-4.89v9.969Q13.767 71.78 18.938 73q5.188 1.219 9.485 1.219 11.328 0 18.062-5.672 6.735-5.656 6.735-15.125 0-4.5-1.688-8.531-1.672-4.016-6.125-9.485-1.218-1.422-7.765-8.187-6.532-6.766-18.453-18.922z" stroke-linejoin="round"/><path id="g" d="M31.781 66.406q-7.61 0-11.453-7.5Q16.5 51.422 16.5 36.375q0-14.984 3.828-22.484 3.844-7.5 11.453-7.5 7.672 0 11.5 7.5 3.844 7.5 3.844 22.484 0 15.047-3.844 22.531-3.828 7.5-11.5 7.5zm0 7.813q12.266 0 18.735-9.703 6.468-9.688 6.468-28.141 0-18.406-6.468-28.11-6.47-9.687-18.735-9.687-12.25 0-18.718 9.688-6.47 9.703-6.47 28.109 0 18.453 6.47 28.14Q19.53 74.22 31.78 74.22z" stroke-linejoin="round"/><path id="h" d="M33.016 40.375q-6.641 0-10.532-4.547-3.875-4.531-3.875-12.437 0-7.86 3.875-12.438 3.891-4.562 10.532-4.562 6.64 0 10.515 4.562 3.875 4.578 3.875 12.438 0 7.906-3.875 12.437-3.875 4.547-10.515 4.547zm19.578 30.922v-8.984q-3.719 1.75-7.5 2.671-3.782.938-7.5.938-9.766 0-14.922-6.594-5.14-6.594-5.875-19.922 2.875 4.25 7.219 6.516 4.359 2.266 9.578 2.266 10.984 0 17.36-6.672 6.374-6.657 6.374-18.125 0-11.235-6.64-18.032-6.641-6.78-17.672-6.78-12.657 0-19.344 9.687-6.688 9.703-6.688 28.109 0 17.281 8.204 27.563 8.203 10.28 22.015 10.28 3.719 0 7.5-.734t7.89-2.187z" stroke-linejoin="round"/><path id="i" d="M0 0v2" stroke="#000" stroke-linejoin="round" stroke-width=".6"/><path id="j" d="M10.984 1.516V10.5q3.72-1.766 7.516-2.688 3.813-.921 7.484-.921 9.766 0 14.907 6.562 5.156 6.563 5.89 19.953-2.828-4.203-7.187-6.453-4.344-2.25-9.61-2.25-10.937 0-17.312 6.61-6.375 6.625-6.375 18.109 0 11.219 6.64 18 6.641 6.797 17.672 6.797 12.657 0 19.313-9.703 6.672-9.688 6.672-28.141 0-17.234-8.188-27.516Q40.234-1.42 26.422-1.42q-3.719 0-7.531.734-3.797.734-7.907 2.203zM30.61 32.422q6.641 0 10.516 4.531 3.89 4.547 3.89 12.469 0 7.86-3.89 12.422-3.875 4.562-10.516 4.562-6.64 0-10.515-4.562-3.875-4.563-3.875-12.422 0-7.922 3.875-12.469 3.875-4.531 10.515-4.531z" stroke-linejoin="round"/><path id="k" d="M12.406 8.297h16.11v55.625l-17.532-3.516v8.985l17.438 3.515h9.86V8.296H54.39V0H12.406z" stroke-linejoin="round"/><path id="l" d="M40.578 39.313Q47.656 37.797 51.625 33q3.984-4.781 3.984-11.813 0-10.78-7.422-16.703-7.421-5.906-21.093-5.906-4.578 0-9.438.906-4.86.907-10.031 2.72v9.515q4.094-2.39 8.969-3.61 4.89-1.218 10.218-1.218 9.266 0 14.125 3.656 4.86 3.656 4.86 10.64 0 6.454-4.516 10.079-4.515 3.64-12.562 3.64h-8.5v8.11h8.89q7.266 0 11.125 2.906 3.86 2.906 3.86 8.375 0 5.61-3.985 8.61-3.968 3.015-11.39 3.015-4.063 0-8.703-.89-4.641-.876-10.203-2.72v8.782q5.624 1.562 10.53 2.344 4.907.78 9.25.78 11.235 0 17.766-5.109 6.547-5.093 6.547-13.78 0-6.063-3.468-10.235-3.47-4.172-9.86-5.782z" stroke-linejoin="round"/><path id="m" d="M0 0h-3.5" stroke="#000" stroke-linejoin="round" stroke-width=".8"/><path id="n" d="M37.797 64.313L12.89 25.39h24.906zm-2.594 8.593H47.61V25.391h10.407v-8.203H47.609V0h-9.812v17.188H4.89v9.515z" stroke-linejoin="round"/><path id="o" d="M10.797 72.906h38.719v-8.312H19.828v-17.86q2.14.735 4.281 1.094 2.157.36 4.313.36 12.203 0 19.328-6.688 7.14-6.688 7.14-18.11 0-11.765-7.328-18.296-7.328-6.516-20.656-6.516-4.593 0-9.36.781-4.75.782-9.827 2.344v9.922q4.39-2.39 9.078-3.563 4.687-1.171 9.906-1.171 8.453 0 13.375 4.437 4.938 4.438 4.938 12.063 0 7.609-4.938 12.047-4.922 4.453-13.375 4.453-3.953 0-7.89-.875-3.922-.875-8.016-2.735z" stroke-linejoin="round"/><path id="p" d="M0 0h-2" stroke="#000" stroke-linejoin="round" stroke-width=".6"/><path id="q" d="M30.61 48.39q-7.22 0-11.422-5.64-4.204-5.64-4.204-15.453 0-9.813 4.172-15.453 4.188-5.64 11.453-5.64 7.188 0 11.375 5.655 4.203 5.672 4.203 15.438 0 9.719-4.203 15.406-4.187 5.688-11.375 5.688zm0 7.61q11.718 0 18.406-7.625 6.703-7.61 6.703-21.078 0-13.422-6.703-21.078-6.688-7.64-18.407-7.64-11.765 0-18.437 7.64-6.656 7.656-6.656 21.078 0 13.469 6.656 21.078Q18.844 56 30.609 56z" stroke-linejoin="round"/><path id="r" d="M9.422 75.984h8.984V0H9.422z" stroke-linejoin="round"/><path id="s" d="M45.406 46.39v29.594h8.985V0h-8.985v8.203Q42.578 3.328 38.25.953q-4.313-2.375-10.375-2.375-9.906 0-16.14 7.906-6.22 7.922-6.22 20.813 0 12.89 6.22 20.797Q17.968 56 27.874 56q6.063 0 10.375-2.375 4.328-2.36 7.156-7.234zm-30.61-19.093q0-9.906 4.079-15.547 4.078-5.64 11.203-5.64 7.125 0 11.219 5.64 4.11 5.64 4.11 15.547 0 9.906-4.11 15.547-4.094 5.64-11.219 5.64-7.125 0-11.203-5.64-4.078-5.64-4.078-15.547z" stroke-linejoin="round"/><path id="t" d="M4.203 54.688h8.985l11.234-42.672 11.172 42.672h10.593l11.235-42.672 11.187 42.672h8.985L63.28 0H52.688L40.922 44.828 29.109 0H18.5z" stroke-linejoin="round"/><path id="u" d="M9.422 54.688h8.984V0H9.422zm0 21.296h8.984v-11.39H9.422z" stroke-linejoin="round"/><path id="v" d="M56.203 29.594v-4.39H14.891q.593-9.282 5.593-14.142 5-4.859 13.938-4.859 5.172 0 10.031 1.266 4.86 1.265 9.656 3.812v-8.5Q49.266.734 44.187-.344 39.11-1.422 33.892-1.422q-13.094 0-20.735 7.61-7.64 7.625-7.64 20.625 0 13.421 7.25 21.296Q20.016 56 32.328 56q11.031 0 17.453-7.11 6.422-7.093 6.422-19.296zm-8.984 2.64q-.094 7.36-4.125 11.75-4.032 4.407-10.672 4.407-7.516 0-12.031-4.25-4.516-4.25-5.203-11.97z" stroke-linejoin="round"/><path id="w" d="M-3 0h6M0 3v-6" stroke="#1f77b4" stroke-linejoin="round"/><path id="U" d="M9.813 72.906h14.703l18.593-49.61 18.703 49.61h14.704V0H66.89v64.016l-18.797-50h-9.907l-18.796 50V0H9.813z" stroke-linejoin="round"/><path id="y" d="M-3 0h6M0 3v-6" stroke="#d62728" stroke-linejoin="round"/><path id="z" d="M0 1.5a1.5 1.5 0 100-3 1.5 1.5 0 000 3z" stroke="#9467bd" stroke-linejoin="round"/><path id="A" d="M48.781 52.594v-8.407q-3.812 2.11-7.64 3.157-3.828 1.047-7.735 1.047-8.75 0-13.593-5.547-4.829-5.532-4.829-15.547 0-10.016 4.829-15.563 4.843-5.53 13.593-5.53 3.907 0 7.735 1.046 3.828 1.047 7.64 3.156V2.094Q45.016.344 40.984-.531q-4.015-.89-8.562-.89-12.36 0-19.64 7.765-7.266 7.765-7.266 20.953 0 13.375 7.343 21.031Q20.22 56 33.016 56q4.14 0 8.093-.86 3.953-.843 7.672-2.546z" stroke-linejoin="round"/><path id="B" d="M18.313 70.219V54.688h18.5v-6.985h-18.5V18.016q0-6.688 1.828-8.594 1.828-1.906 7.453-1.906h9.218V0h-9.218q-10.407 0-14.36 3.875-3.953 3.89-3.953 14.14v29.688H2.687v6.984h6.594V70.22z" stroke-linejoin="round"/><path id="C" d="M64.406 67.281v-10.39q-4.984 4.64-10.625 6.922-5.64 2.296-11.984 2.296-12.5 0-19.14-7.64-6.641-7.64-6.641-22.094 0-14.406 6.64-22.047 6.64-7.64 19.14-7.64 6.345 0 11.985 2.296 5.64 2.297 10.625 6.938V5.609Q59.234 2.094 53.437.33q-5.78-1.75-12.218-1.75-16.563 0-26.094 10.124-9.516 10.14-9.516 27.672 0 17.578 9.516 27.703 9.531 10.14 26.094 10.14 6.531 0 12.312-1.734 5.797-1.734 10.875-5.203z" stroke-linejoin="round"/><path id="D" d="M9.813 72.906h9.859V0h-9.86z" stroke-linejoin="round"/><path id="E" d="M4.89 31.39h26.313v-8H4.891z" stroke-linejoin="round"/><path id="F" d="M34.281 27.484q-10.89 0-15.093-2.484-4.204-2.484-4.204-8.5 0-4.781 3.157-7.594 3.156-2.797 8.562-2.797 7.485 0 12 5.297 4.516 5.297 4.516 14.078v2zm17.922 3.72V0H43.22v8.297Q40.14 3.328 35.547.953q-4.594-2.375-11.234-2.375-8.391 0-13.36 4.719Q6 8.016 6 15.922q0 9.219 6.172 13.906 6.187 4.688 18.437 4.688h12.61v.89q0 6.203-4.078 9.594-4.078 3.39-11.453 3.39-4.688 0-9.141-1.124-4.438-1.125-8.531-3.375v8.312q4.921 1.906 9.562 2.844 4.64.953 9.031.953 11.875 0 17.735-6.156 5.86-6.14 5.86-18.64z" stroke-linejoin="round"/><path id="G" d="M44.281 53.078v-8.5q-3.797 1.953-7.906 2.922-4.094.984-8.5.984-6.688 0-10.031-2.047-3.344-2.046-3.344-6.156 0-3.125 2.39-4.906 2.391-1.781 9.626-3.39l3.078-.688q9.562-2.047 13.593-5.781 4.032-3.735 4.032-10.422 0-7.625-6.032-12.078-6.03-4.438-16.578-4.438-4.39 0-9.156.86Q10.688.296 5.422 2v9.281q4.984-2.594 9.812-3.89 4.829-1.282 9.579-1.282 6.343 0 9.75 2.172 3.421 2.172 3.421 6.125 0 3.656-2.468 5.61-2.453 1.953-10.813 3.765l-3.125.735q-8.344 1.75-12.062 5.39-3.704 3.64-3.704 9.985 0 7.718 5.47 11.906Q16.75 56 26.811 56q4.97 0 9.36-.734 4.406-.72 8.11-2.188z" stroke-linejoin="round"/><path id="H" d="M37.11 75.984V68.5h-8.594q-4.828 0-6.72-1.953-1.874-1.953-1.874-7.031v-4.828h14.797v-6.985H19.922V0H10.89v47.703H2.297v6.984h8.594V58.5q0 9.125 4.25 13.297 4.25 4.187 13.468 4.187z" stroke-linejoin="round"/><path id="I" d="M8.688 72.906h9.921V28.61q0-11.718 4.235-16.875 4.25-5.14 13.781-5.14 9.469 0 13.719 5.14 4.25 5.157 4.25 16.875v44.297H64.5V27.391q0-14.25-7.063-21.532-7.046-7.28-20.812-7.28-13.828 0-20.89 7.28-7.047 7.282-7.047 21.532z" stroke-linejoin="round"/><path id="J" d="M53.516 70.516V60.89q-5.61 2.687-10.594 4-4.984 1.328-9.625 1.328-8.047 0-12.422-3.125t-4.375-8.89q0-4.845 2.906-7.313 2.907-2.453 11.016-3.97l5.953-1.218q11.031-2.11 16.281-7.406 5.25-5.297 5.25-14.172 0-10.61-7.11-16.078-7.093-5.469-20.812-5.469-5.172 0-11.015 1.172Q13.14.922 6.89 3.219v10.156q6-3.36 11.765-5.078 5.766-1.703 11.328-1.703 8.438 0 13.032 3.312 4.593 3.328 4.593 9.485 0 5.359-3.297 8.39-3.296 3.032-10.812 4.547L27.484 33.5q-11.03 2.188-15.968 6.875-4.922 4.688-4.922 13.047 0 9.672 6.812 15.234 6.813 5.563 18.766 5.563 5.14 0 10.453-.938 5.328-.922 10.89-2.765z" stroke-linejoin="round"/><path id="K" d="M31 75.875q-6.531-11.219-9.719-22.219-3.172-10.984-3.172-22.265 0-11.266 3.203-22.328Q24.517-2 31-13.188h-7.813Q15.875-1.704 12.235 9.375q-3.64 11.078-3.64 22.016 0 10.89 3.61 21.922 3.624 11.046 10.983 22.562z" stroke-linejoin="round"/><path id="L" d="M8.5 21.578v33.11h8.984V21.922q0-7.766 3.016-11.656 3.031-3.875 9.094-3.875 7.265 0 11.484 4.64 4.234 4.64 4.234 12.656v31h8.985V0h-8.984v8.406Q42.047 3.422 37.718 1q-4.313-2.422-10.032-2.422-9.421 0-14.312 5.86Q8.5 10.296 8.5 21.578z" stroke-linejoin="round"/><path id="M" d="M48.688 27.297q0 9.906-4.079 15.547-4.078 5.64-11.203 5.64-7.14 0-11.218-5.64-4.079-5.64-4.079-15.547 0-9.906 4.078-15.547 4.079-5.64 11.22-5.64 7.124 0 11.202 5.64t4.078 15.547zM18.108 46.39q2.844 4.875 7.157 7.234Q29.594 56 35.594 56q9.968 0 16.187-7.906 6.235-7.907 6.235-20.797T51.78 6.484q-6.218-7.906-16.187-7.906-6 0-10.328 2.375-4.313 2.375-7.157 7.25V0H9.08v75.984h9.03z" stroke-linejoin="round"/><path id="N" d="M54.89 33.016V0h-8.984v32.719q0 7.765-3.031 11.61-3.031 3.858-9.078 3.858-7.281 0-11.484-4.64-4.204-4.625-4.204-12.64V0H9.08v54.688h9.03v-8.5q3.235 4.937 7.594 7.374Q30.078 56 35.797 56q9.422 0 14.25-5.828 4.844-5.828 4.844-17.156z" stroke-linejoin="round"/><path id="O" d="M10.688 12.406H21V0H10.687z" stroke-linejoin="round"/><path id="P" d="M32.172-5.078q-3.797-9.766-7.422-12.735-3.61-2.984-9.656-2.984H7.906v7.516h5.282q3.703 0 5.75 1.765Q21-9.766 23.483-3.219l1.61 4.094-22.11 53.813H12.5l17.094-42.766 17.093 42.766h9.516z" stroke-linejoin="round"/><path id="Q" d="M8.016 75.875h7.812q7.313-11.516 10.953-22.563 3.64-11.03 3.64-21.921 0-10.938-3.64-22.016-3.64-11.078-10.953-22.563H8.016Q14.5-2 17.703 9.063q3.203 11.063 3.203 22.329 0 11.28-3.203 22.265-3.203 11-9.687 22.219z" stroke-linejoin="round"/><path id="R" d="M8.203 72.906h46.875v-4.203L28.61 0H18.312L43.22 64.594H8.203z" stroke-linejoin="round"/><path id="T" d="M9.813 72.906h13.28l32.329-60.984v60.984h9.562V0h-13.28L19.39 60.984V0H9.813z" stroke-linejoin="round"/><clipPath id="S" stroke-linejoin="round"><path d="M50.15 297.12h501.46v208.808H50.15z"/></clipPath><clipPath id="a" stroke-linejoin="round"><path d="M50.15 25.44h501.46v208.808H50.15z"/></clipPath></defs><path d="M0 568.8h568.8V0H0z" fill="#fff"/><path d="M50.15 234.248h501.46V25.44H50.15z" fill="#fff"/><g stroke-width=".8"><path clip-path="url(#a)" d="M50.15 234.248V25.44" fill="none" stroke="#b0b0b0" stroke-linecap="square"/><use stroke="#000" x="50.15" xlink:href="#b" y="234.248"/></g><path clip-path="url(#a)" d="M475.631 234.248V25.44" fill="none" stroke="#b0b0b0" stroke-linecap="square" stroke-width=".8"/><use stroke="#000" stroke-width=".8" x="475.631" xlink:href="#b" y="234.248"/><g transform="matrix(.1 0 0 -.1 466.981 271.242)"><use xlink:href="#c"/><use x="68.408" xlink:href="#d"/><use x="131.885" xlink:href="#e"/></g><g transform="matrix(.1 0 0 -.1 462.906 282.44)"><use xlink:href="#f"/><use x="63.623" xlink:href="#g"/><use x="127.246" xlink:href="#f"/><use x="190.869" xlink:href="#g"/></g><path clip-path="url(#a)" d="M551.61 234.248V25.44" fill="none" stroke="#b0b0b0" stroke-linecap="square" stroke-width=".8"/><use stroke="#000" stroke-width=".8" x="551.61" xlink:href="#b" y="234.248"/><g transform="matrix(.1 0 0 -.1 545.247 248.846)"><use xlink:href="#g"/><use x="63.623" xlink:href="#h"/></g><use stroke="#000" stroke-width=".6" x="65.346" xlink:href="#i" y="234.248"/><use stroke="#000" stroke-width=".6" x="80.542" xlink:href="#i" y="234.248"/><use stroke="#000" stroke-width=".6" x="95.737" xlink:href="#i" y="234.248"/><use stroke="#000" stroke-width=".6" x="110.933" xlink:href="#i" y="234.248"/><use stroke="#000" stroke-width=".6" x="126.129" xlink:href="#i" y="234.248"/><g transform="matrix(.1 0 0 -.1 119.766 247.246)"><use xlink:href="#g"/><use x="63.623" xlink:href="#j"/></g><g stroke="#000" stroke-width=".6"><use x="141.325" xlink:href="#i" y="234.248"/><use x="156.52" xlink:href="#i" y="234.248"/><use x="171.716" xlink:href="#i" y="234.248"/><use x="186.912" xlink:href="#i" y="234.248"/><use x="202.108" xlink:href="#i" y="234.248"/><use x="217.303" xlink:href="#i" y="234.248"/></g><use stroke="#000" stroke-width=".6" x="232.499" xlink:href="#i" y="234.248"/><g transform="matrix(.1 0 0 -.1 226.137 247.246)"><use xlink:href="#k"/><use x="63.623" xlink:href="#h"/></g><use stroke="#000" stroke-width=".6" x="247.695" xlink:href="#i" y="234.248"/><use stroke="#000" stroke-width=".6" x="262.891" xlink:href="#i" y="234.248"/><use stroke="#000" stroke-width=".6" x="278.086" xlink:href="#i" y="234.248"/><use stroke="#000" stroke-width=".6" x="293.282" xlink:href="#i" y="234.248"/><use stroke="#000" stroke-width=".6" x="308.478" xlink:href="#i" y="234.248"/><use stroke="#000" stroke-width=".6" x="323.674" xlink:href="#i" y="234.248"/><use stroke="#000" stroke-width=".6" x="338.869" xlink:href="#i" y="234.248"/><g transform="matrix(.1 0 0 -.1 332.507 247.246)"><use xlink:href="#f"/><use x="63.623" xlink:href="#l"/></g><use stroke="#000" stroke-width=".6" x="354.065" xlink:href="#i" y="234.248"/><use stroke="#000" stroke-width=".6" x="369.261" xlink:href="#i" y="234.248"/><use stroke="#000" stroke-width=".6" x="384.457" xlink:href="#i" y="234.248"/><use stroke="#000" stroke-width=".6" x="399.652" xlink:href="#i" y="234.248"/><use stroke="#000" stroke-width=".6" x="414.848" xlink:href="#i" y="234.248"/><use stroke="#000" stroke-width=".6" x="430.044" xlink:href="#i" y="234.248"/><g><use stroke="#000" stroke-width=".6" x="445.24" xlink:href="#i" y="234.248"/><g transform="matrix(.1 0 0 -.1 438.877 247.246)"><use xlink:href="#l"/><use x="63.623" xlink:href="#g"/></g></g><use stroke="#000" stroke-width=".6" x="460.435" xlink:href="#i" y="234.248"/><use stroke="#000" stroke-width=".6" x="490.827" xlink:href="#i" y="234.248"/><use stroke="#000" stroke-width=".6" x="506.023" xlink:href="#i" y="234.248"/><use stroke="#000" stroke-width=".6" x="521.218" xlink:href="#i" y="234.248"/><use stroke="#000" stroke-width=".6" x="536.414" xlink:href="#i" y="234.248"/><g><path clip-path="url(#a)" d="M50.15 234.248h501.46" fill="none" stroke="#b0b0b0" stroke-linecap="square" stroke-width=".8"/><use stroke="#000" stroke-width=".8" x="50.15" xlink:href="#m" y="234.248"/><g transform="matrix(.1 0 0 -.1 25.55 238.047)"><use transform="translate(0 .684)" xlink:href="#k"/><use transform="translate(63.623 .684)" xlink:href="#g"/><use transform="matrix(.7 0 0 .7 128.203 38.966)" xlink:href="#k"/></g><path clip-path="url(#a)" d="M50.15 191.256h501.46" fill="none" stroke="#b0b0b0" stroke-linecap="square" stroke-width=".8"/><use stroke="#000" stroke-width=".8" x="50.15" xlink:href="#m" y="191.256"/><g transform="matrix(.1 0 0 -.1 25.55 195.055)"><use transform="translate(0 .766)" xlink:href="#k"/><use transform="translate(63.623 .766)" xlink:href="#g"/><use transform="matrix(.7 0 0 .7 128.203 39.047)" xlink:href="#f"/></g><path clip-path="url(#a)" d="M50.15 148.264h501.46" fill="none" stroke="#b0b0b0" stroke-linecap="square" stroke-width=".8"/><use stroke="#000" stroke-width=".8" x="50.15" xlink:href="#m" y="148.264"/><g transform="matrix(.1 0 0 -.1 25.55 152.063)"><use transform="translate(0 .766)" xlink:href="#k"/><use transform="translate(63.623 .766)" xlink:href="#g"/><use transform="matrix(.7 0 0 .7 128.203 39.047)" xlink:href="#l"/></g><g><path clip-path="url(#a)" d="M50.15 105.271h501.46" fill="none" stroke="#b0b0b0" stroke-linecap="square" stroke-width=".8"/><use stroke="#000" stroke-width=".8" x="50.15" xlink:href="#m" y="105.271"/><g transform="matrix(.1 0 0 -.1 25.55 109.07)"><use transform="translate(0 .684)" xlink:href="#k"/><use transform="translate(63.623 .684)" xlink:href="#g"/><use transform="matrix(.7 0 0 .7 128.203 38.966)" xlink:href="#n"/></g></g><g><path clip-path="url(#a)" d="M50.15 62.28h501.46" fill="none" stroke="#b0b0b0" stroke-linecap="square" stroke-width=".8"/><use stroke="#000" stroke-width=".8" x="50.15" xlink:href="#m" y="62.279"/><g transform="matrix(.1 0 0 -.1 25.55 66.078)"><use transform="translate(0 .684)" xlink:href="#k"/><use transform="translate(63.623 .684)" xlink:href="#g"/><use transform="matrix(.7 0 0 .7 128.203 38.966)" xlink:href="#o"/></g></g><g stroke="#000" stroke-width=".6"><use x="50.15" xlink:href="#p" y="221.306"/><use x="50.15" xlink:href="#p" y="213.736"/><use x="50.15" xlink:href="#p" y="208.364"/><use x="50.15" xlink:href="#p" y="204.198"/><use x="50.15" xlink:href="#p" y="200.794"/><use x="50.15" xlink:href="#p" y="197.915"/><use x="50.15" xlink:href="#p" y="195.422"/><use x="50.15" xlink:href="#p" y="193.223"/><use x="50.15" xlink:href="#p" y="178.314"/><use x="50.15" xlink:href="#p" y="170.743"/><use x="50.15" xlink:href="#p" y="165.372"/><use x="50.15" xlink:href="#p" y="161.206"/><use x="50.15" xlink:href="#p" y="157.801"/><use x="50.15" xlink:href="#p" y="154.923"/><use x="50.15" xlink:href="#p" y="152.43"/><use x="50.15" xlink:href="#p" y="150.231"/><use x="50.15" xlink:href="#p" y="135.322"/><use x="50.15" xlink:href="#p" y="127.751"/><use x="50.15" xlink:href="#p" y="122.38"/><use x="50.15" xlink:href="#p" y="118.213"/><use x="50.15" xlink:href="#p" y="114.809"/><use x="50.15" xlink:href="#p" y="111.931"/><use x="50.15" xlink:href="#p" y="109.438"/><use x="50.15" xlink:href="#p" y="107.239"/><use x="50.15" xlink:href="#p" y="92.33"/><use x="50.15" xlink:href="#p" y="84.759"/><use x="50.15" xlink:href="#p" y="79.388"/><use x="50.15" xlink:href="#p" y="75.221"/><use x="50.15" xlink:href="#p" y="71.817"/><use x="50.15" xlink:href="#p" y="68.939"/><use x="50.15" xlink:href="#p" y="66.446"/><use x="50.15" xlink:href="#p" y="64.246"/><use x="50.15" xlink:href="#p" y="49.337"/><use x="50.15" xlink:href="#p" y="41.767"/><use x="50.15" xlink:href="#p" y="36.395"/><use x="50.15" xlink:href="#p" y="32.229"/><use x="50.15" xlink:href="#p" y="28.825"/><use x="50.15" xlink:href="#p" y="25.947"/></g><g transform="matrix(0 -.1 -.1 0 19.47 156.19)"><path d="M3.328 72.906h9.953L28.61 11.281l15.282 61.625h11.093l15.328-61.625 15.282 61.625h10.015L77.297 0H64.89L49.516 63.281 33.984 0H21.578z"/><use x="98.799" xlink:href="#q"/><use x="159.98" xlink:href="#e"/><use x="201.094" xlink:href="#r"/><use x="228.877" xlink:href="#s"/><use x="292.354" xlink:href="#t"/><use x="374.141" xlink:href="#u"/><use x="401.924" xlink:href="#s"/><use x="465.4" xlink:href="#v"/></g></g><g stroke="#1f77b4"><path clip-path="url(#a)" d="M-1 199.088l5.563-.631 15.196-4.814 15.195-3.65 15.196-4.202 15.196-7.57 15.196-4.516 15.195-7.956 15.196-4.84 15.196-2.313 15.196-8.836 15.195-5.468 15.196-4.932 15.196-5.126 15.196-4.237 15.195-4.714 15.196-5.226 15.196-6.147 15.196-3.42 15.195-10.644 15.196-6.272 15.196-5.422 15.196-5.352 15.195-4.813 15.196-3.743 15.196-3.77 15.196-4.477 15.195-3.57 15.196-3.298 15.196-2.557 15.196-2.256 15.195-2.727 15.196-2.265 15.196-2.476 15.196-2.322" fill="none" stroke-linecap="square" stroke-width="1.5"/><g clip-path="url(#a)" fill="#1f77b4"><use x="-1" xlink:href="#w" y="199.088"/><use x="4.563" xlink:href="#w" y="198.457"/><use x="19.759" xlink:href="#w" y="193.643"/><use x="34.954" xlink:href="#w" y="189.993"/><use x="50.15" xlink:href="#w" y="185.791"/><use x="65.346" xlink:href="#w" y="178.221"/><use x="80.542" xlink:href="#w" y="173.705"/><use x="95.737" xlink:href="#w" y="165.749"/><use x="110.933" xlink:href="#w" y="160.909"/><use x="126.129" xlink:href="#w" y="158.596"/><use x="141.325" xlink:href="#w" y="149.76"/><use x="156.52" xlink:href="#w" y="144.292"/><use x="171.716" xlink:href="#w" y="139.36"/><use x="186.912" xlink:href="#w" y="134.234"/><use x="202.108" xlink:href="#w" y="129.997"/><use x="217.303" xlink:href="#w" y="125.283"/><use x="232.499" xlink:href="#w" y="120.057"/><use x="247.695" xlink:href="#w" y="113.91"/><use x="262.891" xlink:href="#w" y="110.489"/><use x="278.086" xlink:href="#w" y="99.846"/><use x="293.282" xlink:href="#w" y="93.574"/><use x="308.478" xlink:href="#w" y="88.152"/><use x="323.674" xlink:href="#w" y="82.8"/><use x="338.869" xlink:href="#w" y="77.987"/><use x="354.065" xlink:href="#w" y="74.244"/><use x="369.261" xlink:href="#w" y="70.474"/><use x="384.457" xlink:href="#w" y="65.997"/><use x="399.652" xlink:href="#w" y="62.428"/><use x="414.848" xlink:href="#w" y="59.129"/><use x="430.044" xlink:href="#w" y="56.572"/><use x="445.24" xlink:href="#w" y="54.316"/><use x="460.435" xlink:href="#w" y="51.589"/><use x="475.631" xlink:href="#w" y="49.324"/><use x="490.827" xlink:href="#w" y="46.848"/><use x="506.023" xlink:href="#w" y="44.526"/></g></g><g stroke="#ff7f0e"><path clip-path="url(#a)" d="M-1 142.52l5.563-2.762 15.196-2.829 15.195-3.914 15.196-3.338 15.196-3.683 15.196-3.218 15.195-4.789 15.196-4.345 15.196-4.17 15.196-1.801 15.195-3.47h15.196l15.196-6.444 15.196-3.2 15.195-2.782L232.5 89.66l15.196-2.275 15.196-1.806 15.195-2.708 15.196-2.795 15.196-1.9 15.196-1.656 15.195-1.455 15.196-1.292 15.196-1.17 15.196-1.403 15.195-1.28 15.196-1 15.196-.99 15.196-.411 15.195-.514 15.196-.693 15.196-.566 15.196-.518" fill="none" stroke-linecap="square" stroke-width="1.5"/><g clip-path="url(#a)" fill="#ff7f0e"><use x="-1" xlink:href="#x" y="142.519"/><use x="4.563" xlink:href="#x" y="139.758"/><use x="19.759" xlink:href="#x" y="136.929"/><use x="34.954" xlink:href="#x" y="133.015"/><use x="50.15" xlink:href="#x" y="129.677"/><use x="65.346" xlink:href="#x" y="125.994"/><use x="80.542" xlink:href="#x" y="122.776"/><use x="95.737" xlink:href="#x" y="117.987"/><use x="110.933" xlink:href="#x" y="113.642"/><use x="126.129" xlink:href="#x" y="109.473"/><use x="141.325" xlink:href="#x" y="107.671"/><use x="156.52" xlink:href="#x" y="104.201"/><use x="171.716" xlink:href="#x" y="104.201"/><use x="186.912" xlink:href="#x" y="97.757"/><use x="202.108" xlink:href="#x" y="94.558"/><use x="217.303" xlink:href="#x" y="91.775"/><use x="232.499" xlink:href="#x" y="89.661"/><use x="247.695" xlink:href="#x" y="87.386"/><use x="262.891" xlink:href="#x" y="85.58"/><use x="278.086" xlink:href="#x" y="82.872"/><use x="293.282" xlink:href="#x" y="80.077"/><use x="308.478" xlink:href="#x" y="78.176"/><use x="323.674" xlink:href="#x" y="76.521"/><use x="338.869" xlink:href="#x" y="75.066"/><use x="354.065" xlink:href="#x" y="73.774"/><use x="369.261" xlink:href="#x" y="72.605"/><use x="384.457" xlink:href="#x" y="71.201"/><use x="399.652" xlink:href="#x" y="69.921"/><use x="414.848" xlink:href="#x" y="68.922"/><use x="430.044" xlink:href="#x" y="67.932"/><use x="445.24" xlink:href="#x" y="67.52"/><use x="460.435" xlink:href="#x" y="67.006"/><use x="475.631" xlink:href="#x" y="66.313"/><use x="490.827" xlink:href="#x" y="65.747"/><use x="506.023" xlink:href="#x" y="65.229"/></g></g><path clip-path="url(#a)" d="M-1 199.373l5.563-4.412 15.196-6.796 15.195-5.917 15.196-5.543 15.196-2.854 15.196-8.15 15.195-2.939 15.196-5.753 15.196-8.987 15.196-8.858 15.195-4.212 15.196.01 15.196-16.394 15.196-2.732 15.195-3.884 15.196-4.858 15.196-2.168 15.196-3.377 15.195-5.083 15.196-1.939 15.196-3.87 15.196-2.285 15.195-3.28 15.196-2.272 15.196-3.665 15.196-2.541 15.195-1.844 15.196-1.317 15.196-1.194 15.196-1.489 15.195-1.345 15.196-1.034 15.196-.734 15.196-.616" fill="none" stroke="#2ca02c" stroke-linecap="square" stroke-width="1.5"/><g stroke="#d62728"><path clip-path="url(#a)" d="M-1 192.863l5.563-4.054 15.196-4.231 15.195-4.297 15.196-5.832 15.196-11.929 15.196-6.3 15.195-3.341 15.196-5.022 15.196-2.3 15.196-4.063 15.195-5.017 15.196-1.616 15.196-10.628 15.196-4.176 15.195-4.414 15.196-4.207 15.196-4.539 15.196-5.33 15.195-4.068 15.196-4.793 15.196-2.068 15.196-2.108 15.195-2.8 15.196-.712 15.196-2.358 15.196-2.314 15.195-2.683 15.196-1.98 15.196-1.32 15.196-.138 15.195-.76 15.196-1.096 15.196-.936 15.196-1.199" fill="none" stroke-linecap="square" stroke-width="1.5"/><g clip-path="url(#a)" fill="#d62728"><use x="-1" xlink:href="#y" y="192.863"/><use x="4.563" xlink:href="#y" y="188.809"/><use x="19.759" xlink:href="#y" y="184.578"/><use x="34.954" xlink:href="#y" y="180.281"/><use x="50.15" xlink:href="#y" y="174.449"/><use x="65.346" xlink:href="#y" y="162.52"/><use x="80.542" xlink:href="#y" y="156.221"/><use x="95.737" xlink:href="#y" y="152.879"/><use x="110.933" xlink:href="#y" y="147.857"/><use x="126.129" xlink:href="#y" y="145.557"/><use x="141.325" xlink:href="#y" y="141.494"/><use x="156.52" xlink:href="#y" y="136.477"/><use x="171.716" xlink:href="#y" y="134.861"/><use x="186.912" xlink:href="#y" y="124.233"/><use x="202.108" xlink:href="#y" y="120.057"/><use x="217.303" xlink:href="#y" y="115.643"/><use x="232.499" xlink:href="#y" y="111.436"/><use x="247.695" xlink:href="#y" y="106.897"/><use x="262.891" xlink:href="#y" y="101.568"/><use x="278.086" xlink:href="#y" y="97.499"/><use x="293.282" xlink:href="#y" y="92.706"/><use x="308.478" xlink:href="#y" y="90.638"/><use x="323.674" xlink:href="#y" y="88.53"/><use x="338.869" xlink:href="#y" y="85.73"/><use x="354.065" xlink:href="#y" y="85.018"/><use x="369.261" xlink:href="#y" y="82.66"/><use x="384.457" xlink:href="#y" y="80.346"/><use x="399.652" xlink:href="#y" y="77.663"/><use x="414.848" xlink:href="#y" y="75.682"/><use x="430.044" xlink:href="#y" y="74.363"/><use x="445.24" xlink:href="#y" y="74.225"/><use x="460.435" xlink:href="#y" y="73.464"/><use x="475.631" xlink:href="#y" y="72.369"/><use x="490.827" xlink:href="#y" y="71.433"/><use x="506.023" xlink:href="#y" y="70.234"/></g></g><g stroke="#9467bd"><path clip-path="url(#a)" d="M-1 190.53l5.563-2.045 15.196-7.784 15.195-1.232 15.196-6.69 15.196-5.388 15.196-10.56 15.195-7.132 15.196-3.13 15.196-1.364 15.196-7.272 15.195-4.593h15.196l15.196-8.868 15.196-3.774 15.195-.14 15.196-7.215 15.196-2.757 15.196-3.122 15.195-3.335 15.196-2.524 15.196-2.258 15.196.548 15.195-4.59 15.196-1.247 15.196-2.062 15.196-2.193 15.195-2.154 15.196-2.93 15.196-.494 15.196-1.9 15.195-2.835 15.196-1.301 15.196.295 15.196-1.107" fill="none" stroke-linecap="square" stroke-width="1.5"/><g clip-path="url(#a)" fill="#9467bd"><use x="-1" xlink:href="#z" y="190.53"/><use x="4.563" xlink:href="#z" y="188.485"/><use x="19.759" xlink:href="#z" y="180.701"/><use x="34.954" xlink:href="#z" y="179.469"/><use x="50.15" xlink:href="#z" y="172.78"/><use x="65.346" xlink:href="#z" y="167.391"/><use x="80.542" xlink:href="#z" y="156.831"/><use x="95.737" xlink:href="#z" y="149.699"/><use x="110.933" xlink:href="#z" y="146.569"/><use x="126.129" xlink:href="#z" y="145.205"/><use x="141.325" xlink:href="#z" y="137.933"/><use x="156.52" xlink:href="#z" y="133.34"/><use x="171.716" xlink:href="#z" y="133.34"/><use x="186.912" xlink:href="#z" y="124.472"/><use x="202.108" xlink:href="#z" y="120.698"/><use x="217.303" xlink:href="#z" y="120.558"/><use x="232.499" xlink:href="#z" y="113.343"/><use x="247.695" xlink:href="#z" y="110.586"/><use x="262.891" xlink:href="#z" y="107.464"/><use x="278.086" xlink:href="#z" y="104.129"/><use x="293.282" xlink:href="#z" y="101.605"/><use x="308.478" xlink:href="#z" y="99.347"/><use x="323.674" xlink:href="#z" y="99.895"/><use x="338.869" xlink:href="#z" y="95.305"/><use x="354.065" xlink:href="#z" y="94.058"/><use x="369.261" xlink:href="#z" y="91.996"/><use x="384.457" xlink:href="#z" y="89.803"/><use x="399.652" xlink:href="#z" y="87.649"/><use x="414.848" xlink:href="#z" y="84.719"/><use x="430.044" xlink:href="#z" y="84.225"/><use x="445.24" xlink:href="#z" y="82.326"/><use x="460.435" xlink:href="#z" y="79.49"/><use x="475.631" xlink:href="#z" y="78.189"/><use x="490.827" xlink:href="#z" y="78.484"/><use x="506.023" xlink:href="#z" y="77.377"/></g></g><path clip-path="url(#a)" d="M506.023 44.526l15.195-2.365 15.196-2.365 15.196-2.366" fill="none" stroke="#1f77b4" stroke-dasharray="1.5 2.475" stroke-width="1.5"/><path clip-path="url(#a)" d="M506.023 65.229l15.195-.573 15.196-.573 15.196-.573" fill="none" stroke="#ff7f0e" stroke-dasharray="1.5 2.475" stroke-width="1.5"/><path clip-path="url(#a)" d="M506.023 67.041l15.195-.747 15.196-.748 15.196-.748" fill="none" stroke="#2ca02c" stroke-dasharray="1.5 2.475" stroke-width="1.5"/><path clip-path="url(#a)" d="M506.023 70.234l15.195-1.083 15.196-1.083 15.196-1.083" fill="none" stroke="#d62728" stroke-dasharray="1.5 2.475" stroke-width="1.5"/><path clip-path="url(#a)" d="M506.023 77.377l15.195-.647 15.196-.648 15.196-.647" fill="none" stroke="#9467bd" stroke-dasharray="1.5 2.475" stroke-width="1.5"/><path d="M50.15 234.248V25.44M551.61 234.248V25.44M50.15 234.248h501.46M50.15 25.44h501.46" fill="none" stroke="#000" stroke-linecap="square" stroke-linejoin="miter" stroke-width=".8"/><g transform="matrix(.12 0 0 -.12 179.1 19.44)"><use xlink:href="#c"/><use x="68.393" xlink:href="#A"/><use x="123.373" xlink:href="#B"/><use x="162.582" xlink:href="#u"/><path d="M193.35 54.688h9.515L219.96 8.797l17.094 45.89h9.515L226.053 0H213.85z"/><use x="249.545" xlink:href="#v"/><use x="342.855" xlink:href="#C"/><path d="M452.086 66.219q-10.75 0-17.078-8.016-6.313-8-6.313-21.828 0-13.766 6.313-21.781 6.328-8 17.078-8 10.734 0 17.016 8 6.28 8.015 6.28 21.781 0 13.828-6.28 21.828-6.282 8.016-17.016 8.016zm0 8q15.328 0 24.5-10.281 9.187-10.282 9.187-27.563 0-17.234-9.187-27.516-9.172-10.28-24.5-10.28-15.375 0-24.594 10.25-9.203 10.265-9.203 27.546t9.203 27.563q9.219 10.28 24.594 10.28zM519.984 0l-27.828 72.906h10.297l23.11-61.375 23.14 61.375h10.25L531.172 0z"/><use x="559.783" xlink:href="#D"/><path d="M608.947 64.797V8.109h11.922q15.094 0 22.094 6.829 7 6.843 7 21.593 0 14.64-7 21.453-7 6.813-22.094 6.813zm-9.86 8.11h20.267q21.187 0 31.093-8.813 9.922-8.813 9.922-27.563 0-18.86-9.969-27.703Q640.447 0 619.354 0h-20.266z"/><use x="666.277" xlink:href="#E"/><use x="702.361" xlink:href="#k"/><use x="765.984" xlink:href="#j"/><use x="861.395" xlink:href="#A"/><use x="916.375" xlink:href="#F"/><use x="977.654" xlink:href="#G"/><use x="1029.754" xlink:href="#v"/><use x="1091.277" xlink:href="#G"/><use x="1175.164" xlink:href="#F"/><use x="1236.443" xlink:href="#G"/><use x="1320.33" xlink:href="#q"/><use x="1381.512" xlink:href="#H"/><use x="1448.504" xlink:href="#f"/><use x="1512.127" xlink:href="#g"/><use x="1575.75" xlink:href="#f"/><use x="1639.373" xlink:href="#g"/><use x="1702.996" xlink:href="#E"/><use x="1739.08" xlink:href="#g"/><use x="1802.703" xlink:href="#n"/><use x="1866.326" xlink:href="#E"/><use x="1902.41" xlink:href="#g"/><use x="1966.033" xlink:href="#l"/></g><g><path d="M351.679 229.248H544.61q2 0 2-2v-72.39q0-2-2-2H351.679q-2 0-2 2v72.39q0 2 2 2z" fill="#fff" opacity=".8" stroke="#ccc" stroke-linejoin="miter"/><path d="M353.679 160.956h20" fill="none" stroke="#1f77b4" stroke-linecap="square" stroke-width="1.5"/><use fill="#1f77b4" stroke="#1f77b4" x="363.679" xlink:href="#w" y="160.956"/><g transform="matrix(.1 0 0 -.1 381.679 164.456)"><use xlink:href="#I"/><use x="73.193" xlink:href="#J"/><use x="168.457" xlink:href="#K"/><use x="207.471" xlink:href="#s"/><use x="270.947" xlink:href="#q"/><use x="332.129" xlink:href="#L"/><use x="395.508" xlink:href="#M"/><use x="458.984" xlink:href="#r"/><use x="486.768" xlink:href="#v"/><use x="548.291" xlink:href="#G"/><use x="632.178" xlink:href="#u"/><use x="659.961" xlink:href="#N"/><use x="755.127" xlink:href="#o"/><use x="818.75" xlink:href="#O"/><use x="850.537" xlink:href="#o"/><use x="945.947" xlink:href="#s"/><use x="1009.424" xlink:href="#F"/><use x="1070.703" xlink:href="#P"/><use x="1129.883" xlink:href="#G"/><use x="1181.982" xlink:href="#Q"/></g><path d="M353.679 175.634h20" fill="none" stroke="#ff7f0e" stroke-linecap="square" stroke-width="1.5"/><use fill="#ff7f0e" stroke="#ff7f0e" x="363.679" xlink:href="#x" y="175.634"/><g transform="matrix(.1 0 0 -.1 381.679 179.134)"><use xlink:href="#D"/><use x="29.492" xlink:href="#B"/><use x="68.701" xlink:href="#F"/><use x="129.98" xlink:href="#r"/><use x="157.764" xlink:href="#P"/><use x="248.73" xlink:href="#K"/><use x="287.744" xlink:href="#s"/><use x="351.221" xlink:href="#q"/><use x="412.402" xlink:href="#L"/><use x="475.781" xlink:href="#M"/><use x="539.258" xlink:href="#r"/><use x="567.041" xlink:href="#v"/><use x="628.564" xlink:href="#G"/><use x="712.451" xlink:href="#u"/><use x="740.234" xlink:href="#N"/><use x="835.4" xlink:href="#f"/><use x="899.023" xlink:href="#f"/><use x="962.646" xlink:href="#O"/><use x="994.434" xlink:href="#h"/><use x="1089.844" xlink:href="#s"/><use x="1153.32" xlink:href="#F"/><use x="1214.6" xlink:href="#P"/><use x="1273.779" xlink:href="#G"/><use x="1325.879" xlink:href="#Q"/></g><path d="M353.679 190.312h20" fill="none" stroke="#2ca02c" stroke-linecap="square" stroke-width="1.5"/><g transform="matrix(.1 0 0 -.1 381.679 193.812)"><use xlink:href="#J"/><use x="63.477" xlink:href="#d"/><use x="126.953" xlink:href="#F"/><use x="188.232" xlink:href="#u"/><use x="216.016" xlink:href="#N"/><use x="311.182" xlink:href="#K"/><use x="350.195" xlink:href="#s"/><use x="413.672" xlink:href="#q"/><use x="474.854" xlink:href="#L"/><use x="538.232" xlink:href="#M"/><use x="601.709" xlink:href="#r"/><use x="629.492" xlink:href="#v"/><use x="691.016" xlink:href="#G"/><use x="774.902" xlink:href="#u"/><use x="802.686" xlink:href="#N"/><use x="897.852" xlink:href="#k"/><use x="961.475" xlink:href="#R"/><use x="1025.098" xlink:href="#O"/><use x="1056.885" xlink:href="#l"/><use x="1152.295" xlink:href="#s"/><use x="1215.771" xlink:href="#F"/><use x="1277.051" xlink:href="#P"/><use x="1336.23" xlink:href="#G"/><use x="1388.33" xlink:href="#Q"/></g><path d="M353.679 204.99h20" fill="none" stroke="#d62728" stroke-linecap="square" stroke-width="1.5"/><use fill="#d62728" stroke="#d62728" x="363.679" xlink:href="#y" y="204.99"/><g transform="matrix(.1 0 0 -.1 381.679 208.49)"><path d="M59.516 10.406v19.578h-16.11v8.11h25.875V6.78Q63.578 2.734 56.687.656 49.813-1.422 42-1.422q-17.094 0-26.75 9.985-9.64 10-9.64 27.812 0 17.875 9.64 27.86 9.656 9.984 26.75 9.984 7.125 0 13.547-1.766 6.422-1.75 11.844-5.172v-10.5q-5.47 4.64-11.625 6.985-6.157 2.343-12.938 2.343-13.39 0-20.11-7.468-6.702-7.47-6.702-22.266 0-14.75 6.703-22.219 6.718-7.469 20.11-7.469 5.218 0 9.312.907 4.109.906 7.375 2.812z"/><use x="77.49" xlink:href="#v"/><use x="139.014" xlink:href="#e"/><path d="M232.111 44.188q3.375 6.062 8.063 8.937Q244.86 56 251.205 56q8.547 0 13.188-5.984 4.64-5.97 4.64-17V0h-9.031v32.719q0 7.86-2.797 11.656-2.781 3.813-8.484 3.813-6.985 0-11.047-4.641-4.047-4.625-4.047-12.64V0h-9.031v32.719q0 7.906-2.782 11.687-2.78 3.782-8.593 3.782-6.89 0-10.953-4.657-4.047-4.656-4.047-12.625V0h-9.032v54.688h9.032v-8.5q3.078 5.03 7.375 7.421Q209.893 56 215.799 56q5.969 0 10.14-3.031 4.172-3.016 6.172-8.782z"/><use x="277.523" xlink:href="#F"/><use x="338.803" xlink:href="#N"/><use x="402.182" xlink:href="#P"/><use x="493.148" xlink:href="#K"/><use x="532.162" xlink:href="#s"/><use x="595.639" xlink:href="#q"/><use x="656.82" xlink:href="#L"/><use x="720.199" xlink:href="#M"/><use x="783.676" xlink:href="#r"/><use x="811.459" xlink:href="#v"/><use x="872.982" xlink:href="#G"/><use x="956.869" xlink:href="#u"/><use x="984.652" xlink:href="#N"/><use x="1079.818" xlink:href="#k"/><use x="1143.441" xlink:href="#f"/><use x="1207.064" xlink:href="#O"/><use x="1238.852" xlink:href="#g"/><use x="1334.262" xlink:href="#s"/><use x="1397.738" xlink:href="#F"/><use x="1459.018" xlink:href="#P"/><use x="1518.197" xlink:href="#G"/><use x="1570.297" xlink:href="#Q"/></g><path d="M353.679 219.668h20" fill="none" stroke="#9467bd" stroke-linecap="square" stroke-width="1.5"/><use fill="#9467bd" stroke="#9467bd" x="363.679" xlink:href="#z" y="219.668"/><g transform="matrix(.1 0 0 -.1 381.679 223.168)"><path d="M9.813 72.906h41.89v-8.312H19.672V43.109h28.906v-8.297H19.672V0h-9.86z"/><use x="57.41" xlink:href="#e"/><use x="98.523" xlink:href="#F"/><use x="159.803" xlink:href="#N"/><use x="223.182" xlink:href="#A"/><use x="278.162" xlink:href="#v"/><use x="371.473" xlink:href="#K"/><use x="410.486" xlink:href="#s"/><use x="473.963" xlink:href="#q"/><use x="535.145" xlink:href="#L"/><use x="598.523" xlink:href="#M"/><use x="662" xlink:href="#r"/><use x="689.783" xlink:href="#v"/><use x="751.307" xlink:href="#G"/><use x="835.193" xlink:href="#u"/><use x="862.977" xlink:href="#N"/><use x="958.143" xlink:href="#f"/><use x="1021.766" xlink:href="#g"/><use x="1085.389" xlink:href="#O"/><use x="1117.176" xlink:href="#g"/><use x="1212.586" xlink:href="#s"/><use x="1276.063" xlink:href="#F"/><use x="1337.342" xlink:href="#P"/><use x="1396.521" xlink:href="#G"/><use x="1448.621" xlink:href="#Q"/></g></g><g><path d="M50.15 505.928h501.46V297.12H50.15z" fill="#fff"/><g stroke-width=".8"><path clip-path="url(#S)" d="M50.15 505.928V297.12" fill="none" stroke="#b0b0b0" stroke-linecap="square"/><use stroke="#000" x="50.15" xlink:href="#b" y="505.928"/></g><path clip-path="url(#S)" d="M475.631 505.928V297.12" fill="none" stroke="#b0b0b0" stroke-linecap="square" stroke-width=".8"/><use stroke="#000" stroke-width=".8" x="475.631" xlink:href="#b" y="505.928"/><g transform="matrix(.1 0 0 -.1 466.981 542.922)"><use xlink:href="#c"/><use x="68.408" xlink:href="#d"/><use x="131.885" xlink:href="#e"/></g><g transform="matrix(.1 0 0 -.1 462.906 554.12)"><use xlink:href="#f"/><use x="63.623" xlink:href="#g"/><use x="127.246" xlink:href="#f"/><use x="190.869" xlink:href="#g"/></g><path clip-path="url(#S)" d="M551.61 505.928V297.12" fill="none" stroke="#b0b0b0" stroke-linecap="square" stroke-width=".8"/><use stroke="#000" stroke-width=".8" x="551.61" xlink:href="#b" y="505.928"/><g transform="matrix(.1 0 0 -.1 545.247 520.526)"><use xlink:href="#g"/><use x="63.623" xlink:href="#h"/></g><use stroke="#000" stroke-width=".6" x="65.346" xlink:href="#i" y="505.928"/><use stroke="#000" stroke-width=".6" x="80.542" xlink:href="#i" y="505.928"/><use stroke="#000" stroke-width=".6" x="95.737" xlink:href="#i" y="505.928"/><use stroke="#000" stroke-width=".6" x="110.933" xlink:href="#i" y="505.928"/><use stroke="#000" stroke-width=".6" x="126.129" xlink:href="#i" y="505.928"/><g transform="matrix(.1 0 0 -.1 119.766 518.926)"><use xlink:href="#g"/><use x="63.623" xlink:href="#j"/></g><g stroke="#000" stroke-width=".6"><use x="141.325" xlink:href="#i" y="505.928"/><use x="156.52" xlink:href="#i" y="505.928"/><use x="171.716" xlink:href="#i" y="505.928"/><use x="186.912" xlink:href="#i" y="505.928"/><use x="202.108" xlink:href="#i" y="505.928"/><use x="217.303" xlink:href="#i" y="505.928"/></g><use stroke="#000" stroke-width=".6" x="232.499" xlink:href="#i" y="505.928"/><g transform="matrix(.1 0 0 -.1 226.137 518.926)"><use xlink:href="#k"/><use x="63.623" xlink:href="#h"/></g><use stroke="#000" stroke-width=".6" x="247.695" xlink:href="#i" y="505.928"/><use stroke="#000" stroke-width=".6" x="262.891" xlink:href="#i" y="505.928"/><use stroke="#000" stroke-width=".6" x="278.086" xlink:href="#i" y="505.928"/><use stroke="#000" stroke-width=".6" x="293.282" xlink:href="#i" y="505.928"/><use stroke="#000" stroke-width=".6" x="308.478" xlink:href="#i" y="505.928"/><use stroke="#000" stroke-width=".6" x="323.674" xlink:href="#i" y="505.928"/><use stroke="#000" stroke-width=".6" x="338.869" xlink:href="#i" y="505.928"/><g transform="matrix(.1 0 0 -.1 332.507 518.926)"><use xlink:href="#f"/><use x="63.623" xlink:href="#l"/></g><use stroke="#000" stroke-width=".6" x="354.065" xlink:href="#i" y="505.928"/><use stroke="#000" stroke-width=".6" x="369.261" xlink:href="#i" y="505.928"/><use stroke="#000" stroke-width=".6" x="384.457" xlink:href="#i" y="505.928"/><use stroke="#000" stroke-width=".6" x="399.652" xlink:href="#i" y="505.928"/><use stroke="#000" stroke-width=".6" x="414.848" xlink:href="#i" y="505.928"/><use stroke="#000" stroke-width=".6" x="430.044" xlink:href="#i" y="505.928"/><g><use stroke="#000" stroke-width=".6" x="445.24" xlink:href="#i" y="505.928"/><g transform="matrix(.1 0 0 -.1 438.877 518.926)"><use xlink:href="#l"/><use x="63.623" xlink:href="#g"/></g></g><use stroke="#000" stroke-width=".6" x="460.435" xlink:href="#i" y="505.928"/><use stroke="#000" stroke-width=".6" x="490.827" xlink:href="#i" y="505.928"/><use stroke="#000" stroke-width=".6" x="506.023" xlink:href="#i" y="505.928"/><use stroke="#000" stroke-width=".6" x="521.218" xlink:href="#i" y="505.928"/><use stroke="#000" stroke-width=".6" x="536.414" xlink:href="#i" y="505.928"/><g><path clip-path="url(#S)" d="M50.15 505.928h501.46" fill="none" stroke="#b0b0b0" stroke-linecap="square" stroke-width=".8"/><use stroke="#000" stroke-width=".8" x="50.15" xlink:href="#m" y="505.928"/><g transform="matrix(.1 0 0 -.1 25.55 509.727)"><use transform="translate(0 .684)" xlink:href="#k"/><use transform="translate(63.623 .684)" xlink:href="#g"/><use transform="matrix(.7 0 0 .7 128.203 38.966)" xlink:href="#k"/></g><path clip-path="url(#S)" d="M50.15 458.327h501.46" fill="none" stroke="#b0b0b0" stroke-linecap="square" stroke-width=".8"/><use stroke="#000" stroke-width=".8" x="50.15" xlink:href="#m" y="458.327"/><g transform="matrix(.1 0 0 -.1 25.55 462.126)"><use transform="translate(0 .766)" xlink:href="#k"/><use transform="translate(63.623 .766)" xlink:href="#g"/><use transform="matrix(.7 0 0 .7 128.203 39.047)" xlink:href="#f"/></g><path clip-path="url(#S)" d="M50.15 410.726h501.46" fill="none" stroke="#b0b0b0" stroke-linecap="square" stroke-width=".8"/><use stroke="#000" stroke-width=".8" x="50.15" xlink:href="#m" y="410.726"/><g transform="matrix(.1 0 0 -.1 25.55 414.525)"><use transform="translate(0 .766)" xlink:href="#k"/><use transform="translate(63.623 .766)" xlink:href="#g"/><use transform="matrix(.7 0 0 .7 128.203 39.047)" xlink:href="#l"/></g><g><path clip-path="url(#S)" d="M50.15 363.124h501.46" fill="none" stroke="#b0b0b0" stroke-linecap="square" stroke-width=".8"/><use stroke="#000" stroke-width=".8" x="50.15" xlink:href="#m" y="363.124"/><g transform="matrix(.1 0 0 -.1 25.55 366.924)"><use transform="translate(0 .684)" xlink:href="#k"/><use transform="translate(63.623 .684)" xlink:href="#g"/><use transform="matrix(.7 0 0 .7 128.203 38.966)" xlink:href="#n"/></g></g><g><path clip-path="url(#S)" d="M50.15 315.523h501.46" fill="none" stroke="#b0b0b0" stroke-linecap="square" stroke-width=".8"/><use stroke="#000" stroke-width=".8" x="50.15" xlink:href="#m" y="315.523"/><g transform="matrix(.1 0 0 -.1 25.55 319.322)"><use transform="translate(0 .684)" xlink:href="#k"/><use transform="translate(63.623 .684)" xlink:href="#g"/><use transform="matrix(.7 0 0 .7 128.203 38.966)" xlink:href="#o"/></g></g><g stroke="#000" stroke-width=".6"><use x="50.15" xlink:href="#p" y="491.599"/><use x="50.15" xlink:href="#p" y="483.216"/><use x="50.15" xlink:href="#p" y="477.269"/><use x="50.15" xlink:href="#p" y="472.656"/><use x="50.15" xlink:href="#p" y="468.887"/><use x="50.15" xlink:href="#p" y="465.7"/><use x="50.15" xlink:href="#p" y="462.94"/><use x="50.15" xlink:href="#p" y="460.505"/><use x="50.15" xlink:href="#p" y="443.997"/><use x="50.15" xlink:href="#p" y="435.615"/><use x="50.15" xlink:href="#p" y="429.668"/><use x="50.15" xlink:href="#p" y="425.055"/><use x="50.15" xlink:href="#p" y="421.286"/><use x="50.15" xlink:href="#p" y="418.099"/><use x="50.15" xlink:href="#p" y="415.339"/><use x="50.15" xlink:href="#p" y="412.904"/><use x="50.15" xlink:href="#p" y="396.396"/><use x="50.15" xlink:href="#p" y="388.014"/><use x="50.15" xlink:href="#p" y="382.067"/><use x="50.15" xlink:href="#p" y="377.454"/><use x="50.15" xlink:href="#p" y="373.685"/><use x="50.15" xlink:href="#p" y="370.498"/><use x="50.15" xlink:href="#p" y="367.737"/><use x="50.15" xlink:href="#p" y="365.302"/><use x="50.15" xlink:href="#p" y="348.795"/><use x="50.15" xlink:href="#p" y="340.413"/><use x="50.15" xlink:href="#p" y="334.466"/><use x="50.15" xlink:href="#p" y="329.852"/><use x="50.15" xlink:href="#p" y="326.083"/><use x="50.15" xlink:href="#p" y="322.897"/><use x="50.15" xlink:href="#p" y="320.136"/><use x="50.15" xlink:href="#p" y="317.701"/><use x="50.15" xlink:href="#p" y="301.194"/></g><g transform="matrix(0 -.1 -.1 0 19.47 408.358)"><use xlink:href="#I"/><use x="73.193" xlink:href="#J"/></g></g><g stroke="#1f77b4"><path clip-path="url(#S)" d="M19.754 569.8l.005-16.27 15.195-14.33 15.196-35.242 15.196-15.249 15.196-9.262L95.737 464l15.196-6.878 15.196-6.044 15.196-4.083 15.195-4.968 15.196-8.256 15.196-5.16 15.196-4.486 15.195-6.865 15.196-5.626 15.196-11.793 15.196-7.883 15.195-15.83 15.196-9.072 15.196-7.089 15.196-6.145 15.195-5.764 15.196-4.262 15.196-3.763 15.196-4.229 15.195-3.472 15.196-3.164 15.196-2.626 15.196-2.254 15.195-2.62 15.196-2.044 15.196-1.953 15.196-2.159" fill="none" stroke-linecap="square" stroke-width="1.5"/><g clip-path="url(#S)" fill="#1f77b4"><use x="6.861" xlink:href="#w" y="40954.6"/><use x="19.759" xlink:href="#w" y="553.529"/><use x="34.954" xlink:href="#w" y="539.2"/><use x="50.15" xlink:href="#w" y="503.958"/><use x="65.346" xlink:href="#w" y="488.709"/><use x="80.542" xlink:href="#w" y="479.447"/><use x="95.737" xlink:href="#w" y="464"/><use x="110.933" xlink:href="#w" y="457.122"/><use x="126.129" xlink:href="#w" y="451.078"/><use x="141.325" xlink:href="#w" y="446.995"/><use x="156.52" xlink:href="#w" y="442.027"/><use x="171.716" xlink:href="#w" y="433.771"/><use x="186.912" xlink:href="#w" y="428.61"/><use x="202.108" xlink:href="#w" y="424.125"/><use x="217.303" xlink:href="#w" y="417.26"/><use x="232.499" xlink:href="#w" y="411.634"/><use x="247.695" xlink:href="#w" y="399.841"/><use x="262.891" xlink:href="#w" y="391.958"/><use x="278.086" xlink:href="#w" y="376.129"/><use x="293.282" xlink:href="#w" y="367.056"/><use x="308.478" xlink:href="#w" y="359.967"/><use x="323.674" xlink:href="#w" y="353.822"/><use x="338.869" xlink:href="#w" y="348.058"/><use x="354.065" xlink:href="#w" y="343.796"/><use x="369.261" xlink:href="#w" y="340.033"/><use x="384.457" xlink:href="#w" y="335.804"/><use x="399.652" xlink:href="#w" y="332.332"/><use x="414.848" xlink:href="#w" y="329.168"/><use x="430.044" xlink:href="#w" y="326.542"/><use x="445.24" xlink:href="#w" y="324.288"/><use x="460.435" xlink:href="#w" y="321.669"/><use x="475.631" xlink:href="#w" y="319.624"/><use x="490.827" xlink:href="#w" y="317.671"/><use x="506.023" xlink:href="#w" y="315.512"/></g></g><g stroke="#ff7f0e"><path clip-path="url(#S)" d="M65.336 569.8l.01-30.6h15.196l15.195-14.33 15.196-4.613h15.196l15.196-21.285 15.195-9.344 15.196-4.985h15.196l15.196-18.343 15.195-7.13 15.196-12.412 15.196-8.422 15.196-.078 15.195-21.111 15.196-3.755 15.196-8.264 15.196-7.606 15.195-8.207 15.196-5.247 15.196-3.688 15.196-9.268 15.195-5.15 15.196-4.778 15.196-3.838 15.196-4.496 15.195-2.364 15.196-3.567 15.196-2.78 15.196-3.202" fill="none" stroke-linecap="square" stroke-width="1.5"/><g clip-path="url(#S)" fill="#ff7f0e"><use x="52.448" xlink:href="#x" y="40954.6"/><use x="65.346" xlink:href="#x" y="539.2"/><use x="80.542" xlink:href="#x" y="539.2"/><use x="95.737" xlink:href="#x" y="524.87"/><use x="110.933" xlink:href="#x" y="520.257"/><use x="126.129" xlink:href="#x" y="520.257"/><use x="141.325" xlink:href="#x" y="498.972"/><use x="156.52" xlink:href="#x" y="489.628"/><use x="171.716" xlink:href="#x" y="484.643"/><use x="186.912" xlink:href="#x" y="484.643"/><use x="202.108" xlink:href="#x" y="466.3"/><use x="217.303" xlink:href="#x" y="459.171"/><use x="232.499" xlink:href="#x" y="446.758"/><use x="247.695" xlink:href="#x" y="438.336"/><use x="262.891" xlink:href="#x" y="438.258"/><use x="278.086" xlink:href="#x" y="417.147"/><use x="293.282" xlink:href="#x" y="413.392"/><use x="308.478" xlink:href="#x" y="405.128"/><use x="323.674" xlink:href="#x" y="397.522"/><use x="338.869" xlink:href="#x" y="389.315"/><use x="354.065" xlink:href="#x" y="384.068"/><use x="369.261" xlink:href="#x" y="380.38"/><use x="384.457" xlink:href="#x" y="371.112"/><use x="399.652" xlink:href="#x" y="365.963"/><use x="414.848" xlink:href="#x" y="361.184"/><use x="430.044" xlink:href="#x" y="357.346"/><use x="445.24" xlink:href="#x" y="352.85"/><use x="460.435" xlink:href="#x" y="350.486"/><use x="475.631" xlink:href="#x" y="346.919"/><use x="490.827" xlink:href="#x" y="344.138"/><use x="506.023" xlink:href="#x" y="340.937"/></g></g><path clip-path="url(#S)" d="M156.51 569.8l.01-30.6h15.196l15.196-42.988 15.196-9.226 15.195-5.74 15.196-9.794 15.196-4.22 15.196-5.053 15.195-28.597 15.196-10.46 15.196-7.34 15.196-5.587 15.195-5.115 15.196-6.147 15.196-5 15.196-4.374 15.195-4.978 15.196-5.128 15.196-3.421 15.196-3.402 15.195-3.158 15.196-4.124 15.196-2.983 15.196-3.461" fill="none" stroke="#2ca02c" stroke-linecap="square" stroke-width="1.5"/><g stroke="#d62728"><path clip-path="url(#S)" d="M-1 505.928h5.563l15.196-13.269 15.195-3.95 15.196-6.827 15.196-8.382 15.196-3.187 15.195-7.113 15.196-3.813 15.196-1.266 15.196-6.75 15.195-4.256 15.196-4.224 15.196-5.25 15.196-3.933 15.195-4.751 15.196-5.646 15.196-4.613 15.196-1.692 15.195-4.869 15.196-4.373 15.196-3.089 15.196-3.872 15.195-5.108 15.196-3.812 15.196-3.402 15.196-5.452 15.195-3.685 15.196-1.828 15.196-2.872 15.196-4.123 15.195-2.879 15.196-2.794 15.196-2.801 15.196-2.237" fill="none" stroke-linecap="square" stroke-width="1.5"/><g clip-path="url(#S)" fill="#d62728"><use x="-1" xlink:href="#y" y="505.928"/><use x="4.563" xlink:href="#y" y="505.928"/><use x="19.759" xlink:href="#y" y="492.659"/><use x="34.954" xlink:href="#y" y="488.709"/><use x="50.15" xlink:href="#y" y="481.882"/><use x="65.346" xlink:href="#y" y="473.5"/><use x="80.542" xlink:href="#y" y="470.313"/><use x="95.737" xlink:href="#y" y="463.2"/><use x="110.933" xlink:href="#y" y="459.387"/><use x="126.129" xlink:href="#y" y="458.121"/><use x="141.325" xlink:href="#y" y="451.371"/><use x="156.52" xlink:href="#y" y="447.115"/><use x="171.716" xlink:href="#y" y="442.891"/><use x="186.912" xlink:href="#y" y="437.641"/><use x="202.108" xlink:href="#y" y="433.708"/><use x="217.303" xlink:href="#y" y="428.957"/><use x="232.499" xlink:href="#y" y="423.311"/><use x="247.695" xlink:href="#y" y="418.698"/><use x="262.891" xlink:href="#y" y="417.006"/><use x="278.086" xlink:href="#y" y="412.137"/><use x="293.282" xlink:href="#y" y="407.764"/><use x="308.478" xlink:href="#y" y="404.675"/><use x="323.674" xlink:href="#y" y="400.803"/><use x="338.869" xlink:href="#y" y="395.695"/><use x="354.065" xlink:href="#y" y="391.883"/><use x="369.261" xlink:href="#y" y="388.481"/><use x="384.457" xlink:href="#y" y="383.029"/><use x="399.652" xlink:href="#y" y="379.344"/><use x="414.848" xlink:href="#y" y="377.516"/><use x="430.044" xlink:href="#y" y="374.644"/><use x="445.24" xlink:href="#y" y="370.521"/><use x="460.435" xlink:href="#y" y="367.642"/><use x="475.631" xlink:href="#y" y="364.848"/><use x="490.827" xlink:href="#y" y="362.047"/><use x="506.023" xlink:href="#y" y="359.81"/></g></g><g stroke="#9467bd"><path clip-path="url(#S)" d="M34.95 569.8l.004-16.27h30.392l15.196-37.042h15.195l15.196-27.779h15.196l15.196-28.433 15.195-.67 15.196-2.678 15.196-2.712 15.196-2.397 15.195-3.593 15.196-3.811 15.196-2.104 15.196-.095 15.195-8.445 15.196-4.714 15.196-4.971 15.196-4.167 15.195-3.737 15.196-8.31 15.196-9.56 15.196-5.616 15.195-6.048 15.196-5.654 15.196-3.152 15.196-3.083 15.195-2.827 15.196-3.178 15.196-3.015 15.196-3.044" fill="none" stroke-linecap="square" stroke-width="1.5"/><g clip-path="url(#S)" fill="#9467bd"><use x="22.057" xlink:href="#z" y="40954.6"/><use x="34.954" xlink:href="#z" y="553.529"/><use x="50.15" xlink:href="#z" y="553.529"/><use x="65.346" xlink:href="#z" y="553.529"/><use x="80.542" xlink:href="#z" y="516.488"/><use x="95.737" xlink:href="#z" y="516.488"/><use x="110.933" xlink:href="#z" y="488.709"/><use x="126.129" xlink:href="#z" y="488.709"/><use x="141.325" xlink:href="#z" y="460.276"/><use x="156.52" xlink:href="#z" y="459.606"/><use x="171.716" xlink:href="#z" y="456.928"/><use x="186.912" xlink:href="#z" y="454.216"/><use x="202.108" xlink:href="#z" y="451.819"/><use x="217.303" xlink:href="#z" y="448.226"/><use x="232.499" xlink:href="#z" y="444.415"/><use x="247.695" xlink:href="#z" y="442.311"/><use x="262.891" xlink:href="#z" y="442.216"/><use x="278.086" xlink:href="#z" y="433.771"/><use x="293.282" xlink:href="#z" y="429.057"/><use x="308.478" xlink:href="#z" y="424.086"/><use x="323.674" xlink:href="#z" y="419.919"/><use x="338.869" xlink:href="#z" y="416.182"/><use x="354.065" xlink:href="#z" y="407.872"/><use x="369.261" xlink:href="#z" y="398.312"/><use x="384.457" xlink:href="#z" y="392.696"/><use x="399.652" xlink:href="#z" y="386.648"/><use x="414.848" xlink:href="#z" y="380.994"/><use x="430.044" xlink:href="#z" y="377.842"/><use x="445.24" xlink:href="#z" y="374.759"/><use x="460.435" xlink:href="#z" y="371.932"/><use x="475.631" xlink:href="#z" y="368.754"/><use x="490.827" xlink:href="#z" y="365.739"/><use x="506.023" xlink:href="#z" y="362.695"/></g></g><path clip-path="url(#S)" d="M506.023 315.512l15.195-2.06 15.196-2.061 15.196-2.061" fill="none" stroke="#1f77b4" stroke-dasharray="1.5 2.475" stroke-width="1.5"/><path clip-path="url(#S)" d="M506.023 340.937l15.195-3.13 15.196-3.13 15.196-3.129" fill="none" stroke="#ff7f0e" stroke-dasharray="1.5 2.475" stroke-width="1.5"/><path clip-path="url(#S)" d="M506.023 358.904l15.195-3.433 15.196-3.433 15.196-3.432" fill="none" stroke="#2ca02c" stroke-dasharray="1.5 2.475" stroke-width="1.5"/><path clip-path="url(#S)" d="M506.023 359.81l15.195-2.558 15.196-2.558 15.196-2.558" fill="none" stroke="#d62728" stroke-dasharray="1.5 2.475" stroke-width="1.5"/><path clip-path="url(#S)" d="M506.023 362.695l15.195-3.063 15.196-3.062 15.196-3.063" fill="none" stroke="#9467bd" stroke-dasharray="1.5 2.475" stroke-width="1.5"/><path d="M50.15 505.928V297.12M551.61 505.928V297.12M50.15 505.928h501.46M50.15 297.12h501.46" fill="none" stroke="#000" stroke-linecap="square" stroke-linejoin="miter" stroke-width=".8"/><g><path d="M57.15 378.51h214.322q2 0 2-2v-72.39q0-2-2-2H57.15q-2 0-2 2v72.39q0 2 2 2z" fill="#fff" opacity=".8" stroke="#ccc" stroke-linejoin="miter"/><path d="M59.15 310.218h20" fill="none" stroke="#1f77b4" stroke-linecap="square" stroke-width="1.5"/><use fill="#1f77b4" stroke="#1f77b4" x="69.15" xlink:href="#w" y="310.218"/><g transform="matrix(.1 0 0 -.1 87.15 313.718)"><use xlink:href="#T"/><use x="74.805" xlink:href="#v"/><use x="136.328" xlink:href="#t"/><path d="M249.7 72.906h10.609l20.203-29.984 20.078 29.984h10.594L285.402 34.72V0h-9.906v34.719z"/><use x="310.783" xlink:href="#q"/><use x="371.965" xlink:href="#e"/><path d="M422.156 75.984h9.031V31.11L458 54.687h11.469l-29-25.578L470.703 0h-11.719l-27.796 26.703V0h-9.032z"/><use x="502.775" xlink:href="#K"/><use x="541.789" xlink:href="#s"/><use x="605.266" xlink:href="#q"/><use x="666.447" xlink:href="#L"/><use x="729.826" xlink:href="#M"/><use x="793.303" xlink:href="#r"/><use x="821.086" xlink:href="#v"/><use x="882.609" xlink:href="#G"/><use x="966.496" xlink:href="#u"/><use x="994.279" xlink:href="#N"/><use x="1089.445" xlink:href="#R"/><use x="1153.068" xlink:href="#O"/><use x="1184.855" xlink:href="#g"/><use x="1280.266" xlink:href="#s"/><use x="1343.742" xlink:href="#F"/><use x="1405.021" xlink:href="#P"/><use x="1464.201" xlink:href="#G"/><use x="1516.301" xlink:href="#Q"/></g><path d="M59.15 324.897h20" fill="none" stroke="#ff7f0e" stroke-linecap="square" stroke-width="1.5"/><use fill="#ff7f0e" stroke="#ff7f0e" x="69.15" xlink:href="#x" y="324.897"/><g transform="matrix(.1 0 0 -.1 87.15 328.397)"><use xlink:href="#T"/><use x="74.805" xlink:href="#v"/><use x="136.328" xlink:href="#t"/><path d="M259.715 72.906h9.86V5.078q0-13.187-5-19.14-5-5.954-16.095-5.954h-3.75v8.297h3.079q6.53 0 9.218 3.672 2.688 3.656 2.688 13.125z"/><use x="279.395" xlink:href="#v"/><use x="340.918" xlink:href="#e"/><use x="382.031" xlink:href="#G"/><use x="434.131" xlink:href="#v"/><use x="495.654" xlink:href="#P"/><use x="586.621" xlink:href="#K"/><use x="625.635" xlink:href="#s"/><use x="689.111" xlink:href="#q"/><use x="750.293" xlink:href="#L"/><use x="813.672" xlink:href="#M"/><use x="877.148" xlink:href="#r"/><use x="904.932" xlink:href="#v"/><use x="966.455" xlink:href="#G"/><use x="1050.342" xlink:href="#u"/><use x="1078.125" xlink:href="#N"/><use x="1173.291" xlink:href="#n"/><use x="1236.914" xlink:href="#O"/><use x="1268.701" xlink:href="#h"/><use x="1364.111" xlink:href="#s"/><use x="1427.588" xlink:href="#F"/><use x="1488.867" xlink:href="#P"/><use x="1548.047" xlink:href="#G"/><use x="1600.146" xlink:href="#Q"/></g><path d="M59.15 339.575h20" fill="none" stroke="#2ca02c" stroke-linecap="square" stroke-width="1.5"/><g transform="matrix(.1 0 0 -.1 87.15 343.075)"><use xlink:href="#U"/><use x="86.279" xlink:href="#u"/><use x="114.063" xlink:href="#A"/><use x="169.043" xlink:href="#V"/><use x="232.422" xlink:href="#u"/><path d="M305.611 27.984q0 9.766-4.03 15.125-4.017 5.375-11.298 5.375-7.219 0-11.25-5.375-4.031-5.359-4.031-15.125 0-9.718 4.031-15.093t11.25-5.375q7.281 0 11.297 5.375 4.031 5.375 4.031 15.093zm8.985-21.203q0-13.953-6.203-20.765-6.188-6.813-18.985-6.813-4.734 0-8.937.703-4.203.703-8.157 2.172v8.735q3.954-2.141 7.813-3.157 3.86-1.031 7.86-1.031 8.843 0 13.234 4.61 4.39 4.609 4.39 13.937v4.453q-2.78-4.844-7.125-7.234Q294.143 0 288.08 0q-10.047 0-16.203 7.656-6.156 7.672-6.156 20.328 0 12.688 6.156 20.344Q278.033 56 288.08 56q6.063 0 10.406-2.39 4.344-2.391 7.125-7.22v8.297h8.985z"/><use x="323.682" xlink:href="#F"/><use x="384.961" xlink:href="#N"/><use x="480.127" xlink:href="#K"/><use x="519.141" xlink:href="#s"/><use x="582.617" xlink:href="#q"/><use x="643.799" xlink:href="#L"/><use x="707.178" xlink:href="#M"/><use x="770.654" xlink:href="#r"/><use x="798.438" xlink:href="#v"/><use x="859.961" xlink:href="#G"/><use x="943.848" xlink:href="#u"/><use x="971.631" xlink:href="#N"/><use x="1066.797" xlink:href="#n"/><use x="1130.42" xlink:href="#O"/><use x="1162.207" xlink:href="#f"/><use x="1257.617" xlink:href="#s"/><use x="1321.094" xlink:href="#F"/><use x="1382.373" xlink:href="#P"/><use x="1441.553" xlink:href="#G"/><use x="1493.652" xlink:href="#Q"/></g><path d="M59.15 354.253h20" fill="none" stroke="#d62728" stroke-linecap="square" stroke-width="1.5"/><use fill="#d62728" stroke="#d62728" x="69.15" xlink:href="#y" y="354.253"/><g transform="matrix(.1 0 0 -.1 87.15 357.753)"><use xlink:href="#C"/><use x="69.824" xlink:href="#F"/><use x="131.104" xlink:href="#r"/><use x="158.887" xlink:href="#u"/><use x="186.67" xlink:href="#H"/><use x="221.875" xlink:href="#q"/><use x="283.057" xlink:href="#e"/><use x="324.154" xlink:href="#N"/><use x="387.533" xlink:href="#u"/><use x="415.316" xlink:href="#F"/><use x="508.383" xlink:href="#K"/><use x="547.396" xlink:href="#s"/><use x="610.873" xlink:href="#q"/><use x="672.055" xlink:href="#L"/><use x="735.434" xlink:href="#M"/><use x="798.91" xlink:href="#r"/><use x="826.693" xlink:href="#v"/><use x="888.217" xlink:href="#G"/><use x="972.104" xlink:href="#u"/><use x="999.887" xlink:href="#N"/><use x="1095.053" xlink:href="#o"/><use x="1158.676" xlink:href="#O"/><use x="1190.463" xlink:href="#h"/><use x="1285.873" xlink:href="#s"/><use x="1349.35" xlink:href="#F"/><use x="1410.629" xlink:href="#P"/><use x="1469.809" xlink:href="#G"/><use x="1521.908" xlink:href="#Q"/></g><path d="M59.15 368.93h20" fill="none" stroke="#9467bd" stroke-linecap="square" stroke-width="1.5"/><use fill="#9467bd" stroke="#9467bd" x="69.15" xlink:href="#z" y="368.931"/><g transform="matrix(.1 0 0 -.1 87.15 372.43)"><use xlink:href="#U"/><use x="86.279" xlink:href="#F"/><use x="147.559" xlink:href="#G"/><use x="199.658" xlink:href="#G"/><use x="251.758" xlink:href="#F"/><use x="313.037" xlink:href="#A"/><use x="368.018" xlink:href="#V"/><use x="431.396" xlink:href="#L"/><use x="494.775" xlink:href="#G"/><use x="546.875" xlink:href="#v"/><use x="608.398" xlink:href="#B"/><use x="647.607" xlink:href="#B"/><use x="686.816" xlink:href="#G"/><use x="770.703" xlink:href="#K"/><use x="809.717" xlink:href="#s"/><use x="873.193" xlink:href="#q"/><use x="934.375" xlink:href="#L"/><use x="997.754" xlink:href="#M"/><use x="1061.23" xlink:href="#r"/><use x="1089.014" xlink:href="#v"/><use x="1150.537" xlink:href="#G"/><use x="1234.424" xlink:href="#u"/><use x="1262.207" xlink:href="#N"/><use x="1357.373" xlink:href="#n"/><use x="1420.996" xlink:href="#O"/><use x="1452.783" xlink:href="#R"/><use x="1548.193" xlink:href="#s"/><use x="1611.67" xlink:href="#F"/><use x="1672.949" xlink:href="#P"/><use x="1732.129" xlink:href="#G"/><use x="1784.229" xlink:href="#Q"/></g></g></g></svg>