<svg height="758.4" stroke-linejoin="round" viewBox="0 0 568.8 568.8" width="758.4" xmlns="http://www.w3.org/2000/svg" xmlns:xlink="http://www.w3.org/1999/xlink"><defs><path id="x" d="M0 1.5a1.5 1.5 0 100-3 1.5 1.5 0 000 3z" stroke="#ff7f0e" stroke-linejoin="round"/><path id="V" d="M45.406 27.984q0 9.766-4.031 15.125-4.016 5.375-11.297 5.375-7.219 0-11.25-5.375-4.031-5.359-4.031-15.125 0-9.718 4.031-15.093t11.25-5.375q7.281 0 11.297 5.375 4.031 5.375 4.031 15.093zm8.985-21.203q0-13.953-6.203-20.765Q42-20.797 29.203-20.797q-4.734 0-8.937.703-4.203.703-8.157 2.172v8.735q3.954-2.141 7.813-3.157 3.86-1.031 7.86-1.031 8.843 0 13.234 4.61 4.39 4.609 4.39 13.937v4.453q-2.781-4.844-7.125-7.234Q33.938 0 27.875 0 17.828 0 11.672 7.656q-6.156 7.672-6.156 20.328 0 12.688 6.156 20.344Q17.828 56 27.875 56q6.063 0 10.406-2.39 4.344-2.391 7.125-7.22v8.297h8.985z" stroke-linejoin="round"/><path id="b" d="M0 0v3.5" stroke="#000" stroke-linejoin="round" stroke-width=".8"/><path id="c" d="M9.813 72.906h14.703l18.593-49.61 18.703 49.61h14.704V0H66.89v64.016l-18.797-50h-9.907l-18.796 50V0H9.813z" stroke-linejoin="round"/><path id="d" d="M34.281 27.484q-10.89 0-15.093-2.484-4.204-2.484-4.204-8.5 0-4.781 3.157-7.594 3.156-2.797 8.562-2.797 7.485 0 12 5.297 4.516 5.297 4.516 14.078v2zm17.922 3.72V0H43.22v8.297Q40.14 3.328 35.547.953q-4.594-2.375-11.234-2.375-8.391 0-13.36 4.719Q6 8.016 6 15.922q0 9.219 6.172 13.906 6.187 4.688 18.437 4.688h12.61v.89q0 6.203-4.078 9.594-4.078 3.39-11.453 3.39-4.688 0-9.141-1.124-4.438-1.125-8.531-3.375v8.312q4.921 1.906 9.562 2.844 4.64.953 9.031.953 11.875 0 17.735-6.156 5.86-6.14 5.86-18.64z" stroke-linejoin="round"/><path id="e" d="M41.11 46.297q-1.516.875-3.297 1.281Q36.03 48 33.89 48q-7.625 0-11.703-4.953-4.079-4.953-4.079-14.234V0H9.08v54.688h9.03v-8.5q2.844 4.984 7.375 7.39Q30.031 56 36.531 56q.922 0 2.047-.125 1.125-.11 2.484-.36z" stroke-linejoin="round"/><path id="f" d="M19.188 8.297h34.421V0H7.33v8.297q5.609 5.812 15.296 15.594 9.703 9.797 12.188 12.64 4.734 5.313 6.609 9 1.89 3.688 1.89 7.25 0 5.813-4.078 9.469-4.078 3.672-10.625 3.672-4.64 0-9.797-1.61-5.14-1.609-11-4.89v9.969Q13.767 71.78 18.938 73q5.188 1.219 9.485 1.219 11.328 0 18.062-5.672 6.735-5.656 6.735-15.125 0-4.5-1.688-8.531-1.672-4.016-6.125-9.485-1.218-1.422-7.765-8.187-6.532-6.766-18.453-18.922z" stroke-linejoin="round"/><path id="g" d="M31.781 66.406q-7.61 0-11.453-7.5Q16.5 51.422 16.5 36.375q0-14.984 3.828-22.484 3.844-7.5 11.453-7.5 7.672 0 11.5 7.5 3.844 7.5 3.844 22.484 0 15.047-3.844 22.531-3.828 7.5-11.5 7.5zm0 7.813q12.266 0 18.735-9.703 6.468-9.688 6.468-28.141 0-18.406-6.468-28.11-6.47-9.687-18.735-9.687-12.25 0-18.718 9.688-6.47 9.703-6.47 28.109 0 18.453 6.47 28.14Q19.53 74.22 31.78 74.22z" stroke-linejoin="round"/><path id="h" d="M40.578 39.313Q47.656 37.797 51.625 33q3.984-4.781 3.984-11.813 0-10.78-7.422-16.703-7.421-5.906-21.093-5.906-4.578 0-9.438.906-4.86.907-10.031 2.72v9.515q4.094-2.39 8.969-3.61 4.89-1.218 10.218-1.218 9.266 0 14.125 3.656 4.86 3.656 4.86 10.64 0 6.454-4.516 10.079-4.515 3.64-12.562 3.64h-8.5v8.11h8.89q7.266 0 11.125 2.906 3.86 2.906 3.86 8.375 0 5.61-3.985 8.61-3.968 3.015-11.39 3.015-4.063 0-8.703-.89-4.641-.876-10.203-2.72v8.782q5.624 1.562 10.53 2.344 4.907.78 9.25.78 11.235 0 17.766-5.109 6.547-5.093 6.547-13.78 0-6.063-3.468-10.235-3.47-4.172-9.86-5.782z" stroke-linejoin="round"/><path id="i" d="M0 0v2" stroke="#000" stroke-linejoin="round" stroke-width=".6"/><path id="j" d="M10.984 1.516V10.5q3.72-1.766 7.516-2.688 3.813-.921 7.484-.921 9.766 0 14.907 6.562 5.156 6.563 5.89 19.953-2.828-4.203-7.187-6.453-4.344-2.25-9.61-2.25-10.937 0-17.312 6.61-6.375 6.625-6.375 18.109 0 11.219 6.64 18 6.641 6.797 17.672 6.797 12.657 0 19.313-9.703 6.672-9.688 6.672-28.141 0-17.234-8.188-27.516Q40.234-1.42 26.422-1.42q-3.719 0-7.531.734-3.797.734-7.907 2.203zM30.61 32.422q6.641 0 10.516 4.531 3.89 4.547 3.89 12.469 0 7.86-3.89 12.422-3.875 4.562-10.516 4.562-6.64 0-10.515-4.562-3.875-4.563-3.875-12.422 0-7.922 3.875-12.469 3.875-4.531 10.515-4.531z" stroke-linejoin="round"/><path id="k" d="M12.406 8.297h16.11v55.625l-17.532-3.516v8.985l17.438 3.515h9.86V8.296H54.39V0H12.406z" stroke-linejoin="round"/><path id="l" d="M33.016 40.375q-6.641 0-10.532-4.547-3.875-4.531-3.875-12.437 0-7.86 3.875-12.438 3.891-4.562 10.532-4.562 6.64 0 10.515 4.562 3.875 4.578 3.875 12.438 0 7.906-3.875 12.437-3.875 4.547-10.515 4.547zm19.578 30.922v-8.984q-3.719 1.75-7.5 2.671-3.782.938-7.5.938-9.766 0-14.922-6.594-5.14-6.594-5.875-19.922 2.875 4.25 7.219 6.516 4.359 2.266 9.578 2.266 10.984 0 17.36-6.672 6.374-6.657 6.374-18.125 0-11.235-6.64-18.032-6.641-6.78-17.672-6.78-12.657 0-19.344 9.687-6.688 9.703-6.688 28.109 0 17.281 8.204 27.563 8.203 10.28 22.015 10.28 3.719 0 7.5-.734t7.89-2.187z" stroke-linejoin="round"/><path id="m" d="M0 0h-3.5" stroke="#000" stroke-linejoin="round" stroke-width=".8"/><path id="n" d="M10.797 72.906h38.719v-8.312H19.828v-17.86q2.14.735 4.281 1.094 2.157.36 4.313.36 12.203 0 19.328-6.688 7.14-6.688 7.14-18.11 0-11.765-7.328-18.296-7.328-6.516-20.656-6.516-4.593 0-9.36.781-4.75.782-9.827 2.344v9.922q4.39-2.39 9.078-3.563 4.687-1.171 9.906-1.171 8.453 0 13.375 4.437 4.938 4.438 4.938 12.063 0 7.609-4.938 12.047-4.922 4.453-13.375 4.453-3.953 0-7.89-.875-3.922-.875-8.016-2.735z" stroke-linejoin="round"/><path id="o" d="M8.203 72.906h46.875v-4.203L28.61 0H18.312L43.22 64.594H8.203z" stroke-linejoin="round"/><path id="p" d="M3.328 72.906h9.953L28.61 11.281l15.282 61.625h11.093l15.328-61.625 15.282 61.625h10.015L77.297 0H64.89L49.516 63.281 33.984 0H21.578z" stroke-linejoin="round"/><path id="q" d="M30.61 48.39q-7.22 0-11.422-5.64-4.204-5.64-4.204-15.453 0-9.813 4.172-15.453 4.188-5.64 11.453-5.64 7.188 0 11.375 5.655 4.203 5.672 4.203 15.438 0 9.719-4.203 15.406-4.187 5.688-11.375 5.688zm0 7.61q11.718 0 18.406-7.625 6.703-7.61 6.703-21.078 0-13.422-6.703-21.078-6.688-7.64-18.407-7.64-11.765 0-18.437 7.64-6.656 7.656-6.656 21.078 0 13.469 6.656 21.078Q18.844 56 30.609 56z" stroke-linejoin="round"/><path id="r" d="M9.422 75.984h8.984V0H9.422z" stroke-linejoin="round"/><path id="s" d="M45.406 46.39v29.594h8.985V0h-8.985v8.203Q42.578 3.328 38.25.953q-4.313-2.375-10.375-2.375-9.906 0-16.14 7.906-6.22 7.922-6.22 20.813 0 12.89 6.22 20.797Q17.968 56 27.874 56q6.063 0 10.375-2.375 4.328-2.36 7.156-7.234zm-30.61-19.093q0-9.906 4.079-15.547 4.078-5.64 11.203-5.64 7.125 0 11.219 5.64 4.11 5.64 4.11 15.547 0 9.906-4.11 15.547-4.094 5.64-11.219 5.64-7.125 0-11.203-5.64-4.078-5.64-4.078-15.547z" stroke-linejoin="round"/><path id="t" d="M4.203 54.688h8.985l11.234-42.672 11.172 42.672h10.593l11.235-42.672 11.187 42.672h8.985L63.28 0H52.688L40.922 44.828 29.109 0H18.5z" stroke-linejoin="round"/><path id="u" d="M9.422 54.688h8.984V0H9.422zm0 21.296h8.984v-11.39H9.422z" stroke-linejoin="round"/><path id="v" d="M56.203 29.594v-4.39H14.891q.593-9.282 5.593-14.142 5-4.859 13.938-4.859 5.172 0 10.031 1.266 4.86 1.265 9.656 3.812v-8.5Q49.266.734 44.187-.344 39.11-1.422 33.892-1.422q-13.094 0-20.735 7.61-7.64 7.625-7.64 20.625 0 13.421 7.25 21.296Q20.016 56 32.328 56q11.031 0 17.453-7.11 6.422-7.093 6.422-19.296zm-8.984 2.64q-.094 7.36-4.125 11.75-4.032 4.407-10.672 4.407-7.516 0-12.031-4.25-4.516-4.25-5.203-11.97z" stroke-linejoin="round"/><path id="w" d="M-3 0h6M0 3v-6" stroke="#1f77b4" stroke-linejoin="round"/><path id="U" d="M54.89 33.016V0h-8.984v32.719q0 7.765-3.031 11.61-3.031 3.858-9.078 3.858-7.281 0-11.484-4.64-4.204-4.625-4.204-12.64V0H9.08v75.984h9.03V46.188q3.235 4.937 7.594 7.374Q30.078 56 35.797 56q9.422 0 14.25-5.828 4.844-5.828 4.844-17.156z" stroke-linejoin="round"/><path id="y" d="M-3 0h6M0 3v-6" stroke="#d62728" stroke-linejoin="round"/><path id="z" d="M0 1.5a1.5 1.5 0 100-3 1.5 1.5 0 000 3z" stroke="#9467bd" stroke-linejoin="round"/><path id="A" d="M48.781 52.594v-8.407q-3.812 2.11-7.64 3.157-3.828 1.047-7.735 1.047-8.75 0-13.593-5.547-4.829-5.532-4.829-15.547 0-10.016 4.829-15.563 4.843-5.53 13.593-5.53 3.907 0 7.735 1.046 3.828 1.047 7.64 3.156V2.094Q45.016.344 40.984-.531q-4.015-.89-8.562-.89-12.36 0-19.64 7.765-7.266 7.765-7.266 20.953 0 13.375 7.343 21.031Q20.22 56 33.016 56q4.14 0 8.093-.86 3.953-.843 7.672-2.546z" stroke-linejoin="round"/><path id="B" d="M18.313 70.219V54.688h18.5v-6.985h-18.5V18.016q0-6.688 1.828-8.594 1.828-1.906 7.453-1.906h9.218V0h-9.218q-10.407 0-14.36 3.875-3.953 3.89-3.953 14.14v29.688H2.687v6.984h6.594V70.22z" stroke-linejoin="round"/><path id="C" d="M64.406 67.281v-10.39q-4.984 4.64-10.625 6.922-5.64 2.296-11.984 2.296-12.5 0-19.14-7.64-6.641-7.64-6.641-22.094 0-14.406 6.64-22.047 6.64-7.64 19.14-7.64 6.345 0 11.985 2.296 5.64 2.297 10.625 6.938V5.609Q59.234 2.094 53.437.33q-5.78-1.75-12.218-1.75-16.563 0-26.094 10.124-9.516 10.14-9.516 27.672 0 17.578 9.516 27.703 9.531 10.14 26.094 10.14 6.531 0 12.312-1.734 5.797-1.734 10.875-5.203z" stroke-linejoin="round"/><path id="D" d="M9.813 72.906h9.859V0h-9.86z" stroke-linejoin="round"/><path id="E" d="M4.89 31.39h26.313v-8H4.891z" stroke-linejoin="round"/><path id="F" d="M44.281 53.078v-8.5q-3.797 1.953-7.906 2.922-4.094.984-8.5.984-6.688 0-10.031-2.047-3.344-2.046-3.344-6.156 0-3.125 2.39-4.906 2.391-1.781 9.626-3.39l3.078-.688q9.562-2.047 13.593-5.781 4.032-3.735 4.032-10.422 0-7.625-6.032-12.078-6.03-4.438-16.578-4.438-4.39 0-9.156.86Q10.688.296 5.422 2v9.281q4.984-2.594 9.812-3.89 4.829-1.282 9.579-1.282 6.343 0 9.75 2.172 3.421 2.172 3.421 6.125 0 3.656-2.468 5.61-2.453 1.953-10.813 3.765l-3.125.735q-8.344 1.75-12.062 5.39-3.704 3.64-3.704 9.985 0 7.718 5.47 11.906Q16.75 56 26.811 56q4.97 0 9.36-.734 4.406-.72 8.11-2.188z" stroke-linejoin="round"/><path id="G" d="M37.11 75.984V68.5h-8.594q-4.828 0-6.72-1.953-1.874-1.953-1.874-7.031v-4.828h14.797v-6.985H19.922V0H10.89v47.703H2.297v6.984h8.594V58.5q0 9.125 4.25 13.297 4.25 4.187 13.468 4.187z" stroke-linejoin="round"/><path id="H" d="M8.688 72.906h9.921V28.61q0-11.718 4.235-16.875 4.25-5.14 13.781-5.14 9.469 0 13.719 5.14 4.25 5.157 4.25 16.875v44.297H64.5V27.391q0-14.25-7.063-21.532-7.046-7.28-20.812-7.28-13.828 0-20.89 7.28-7.047 7.282-7.047 21.532z" stroke-linejoin="round"/><path id="I" d="M53.516 70.516V60.89q-5.61 2.687-10.594 4-4.984 1.328-9.625 1.328-8.047 0-12.422-3.125t-4.375-8.89q0-4.845 2.906-7.313 2.907-2.453 11.016-3.97l5.953-1.218q11.031-2.11 16.281-7.406 5.25-5.297 5.25-14.172 0-10.61-7.11-16.078-7.093-5.469-20.812-5.469-5.172 0-11.015 1.172Q13.14.922 6.89 3.219v10.156q6-3.36 11.765-5.078 5.766-1.703 11.328-1.703 8.438 0 13.032 3.312 4.593 3.328 4.593 9.485 0 5.359-3.297 8.39-3.296 3.032-10.812 4.547L27.484 33.5q-11.03 2.188-15.968 6.875-4.922 4.688-4.922 13.047 0 9.672 6.812 15.234 6.813 5.563 18.766 5.563 5.14 0 10.453-.938 5.328-.922 10.89-2.765z" stroke-linejoin="round"/><path id="J" d="M31 75.875q-6.531-11.219-9.719-22.219-3.172-10.984-3.172-22.265 0-11.266 3.203-22.328Q24.517-2 31-13.188h-7.813Q15.875-1.704 12.235 9.375q-3.64 11.078-3.64 22.016 0 10.89 3.61 21.922 3.624 11.046 10.983 22.562z" stroke-linejoin="round"/><path id="K" d="M8.5 21.578v33.11h8.984V21.922q0-7.766 3.016-11.656 3.031-3.875 9.094-3.875 7.265 0 11.484 4.64 4.234 4.64 4.234 12.656v31h8.985V0h-8.984v8.406Q42.047 3.422 37.718 1q-4.313-2.422-10.032-2.422-9.421 0-14.312 5.86Q8.5 10.296 8.5 21.578z" stroke-linejoin="round"/><path id="L" d="M48.688 27.297q0 9.906-4.079 15.547-4.078 5.64-11.203 5.64-7.14 0-11.218-5.64-4.079-5.64-4.079-15.547 0-9.906 4.078-15.547 4.079-5.64 11.22-5.64 7.124 0 11.202 5.64t4.078 15.547zM18.108 46.39q2.844 4.875 7.157 7.234Q29.594 56 35.594 56q9.968 0 16.187-7.906 6.235-7.907 6.235-20.797T51.78 6.484q-6.218-7.906-16.187-7.906-6 0-10.328 2.375-4.313 2.375-7.157 7.25V0H9.08v75.984h9.03z" stroke-linejoin="round"/><path id="M" d="M54.89 33.016V0h-8.984v32.719q0 7.765-3.031 11.61-3.031 3.858-9.078 3.858-7.281 0-11.484-4.64-4.204-4.625-4.204-12.64V0H9.08v54.688h9.03v-8.5q3.235 4.937 7.594 7.374Q30.078 56 35.797 56q9.422 0 14.25-5.828 4.844-5.828 4.844-17.156z" stroke-linejoin="round"/><path id="N" d="M10.688 12.406H21V0H10.687z" stroke-linejoin="round"/><path id="O" d="M32.172-5.078q-3.797-9.766-7.422-12.735-3.61-2.984-9.656-2.984H7.906v7.516h5.282q3.703 0 5.75 1.765Q21-9.766 23.483-3.219l1.61 4.094-22.11 53.813H12.5l17.094-42.766 17.093 42.766h9.516z" stroke-linejoin="round"/><path id="P" d="M8.016 75.875h7.812q7.313-11.516 10.953-22.563 3.64-11.03 3.64-21.921 0-10.938-3.64-22.016-3.64-11.078-10.953-22.563H8.016Q14.5-2 17.703 9.063q3.203 11.063 3.203 22.329 0 11.28-3.203 22.265-3.203 11-9.687 22.219z" stroke-linejoin="round"/><path id="R" d="M37.797 64.313L12.89 25.39h24.906zm-2.594 8.593H47.61V25.391h10.407v-8.203H47.609V0h-9.812v17.188H4.89v9.515z" stroke-linejoin="round"/><path id="S" d="M31.781 34.625q-7.031 0-11.062-3.766-4.016-3.765-4.016-10.343 0-6.594 4.016-10.36Q24.75 6.391 31.78 6.391q7.032 0 11.078 3.78 4.063 3.798 4.063 10.345 0 6.578-4.031 10.343-4.016 3.766-11.11 3.766zm-9.86 4.188q-6.343 1.562-9.89 5.906Q8.5 49.079 8.5 55.329q0 8.733 6.219 13.812 6.234 5.078 17.062 5.078 10.89 0 17.094-5.078 6.203-5.079 6.203-13.813 0-6.25-3.547-10.61-3.531-4.343-9.828-5.906 7.125-1.656 11.094-6.5 3.984-4.828 3.984-11.796 0-10.61-6.468-16.282-6.47-5.656-18.532-5.656-12.047 0-18.531 5.656-6.469 5.672-6.469 16.282 0 6.968 4 11.797 4.016 4.843 11.14 6.5zM18.314 54.39q0-5.657 3.53-8.828 3.548-3.172 9.938-3.172 6.36 0 9.938 3.172 3.593 3.171 3.593 8.828 0 5.672-3.593 8.843-3.578 3.172-9.938 3.172-6.39 0-9.937-3.172-3.532-3.172-3.532-8.843z" stroke-linejoin="round"/><path id="T" d="M9.813 72.906h13.28l32.329-60.984v60.984h9.562V0h-13.28L19.39 60.984V0H9.813z" stroke-linejoin="round"/><clipPath id="Q" stroke-linejoin="round"><path d="M70.22 298.38h481.39v207.548H70.22z"/></clipPath><clipPath id="a" stroke-linejoin="round"><path d="M70.22 25.44h481.39v207.548H70.22z"/></clipPath></defs><path d="M0 568.8h568.8V0H0z" fill="#fff"/><path d="M70.22 232.988h481.39V25.44H70.22z" fill="#fff"/><path clip-path="url(#a)" d="M70.22 232.988V25.44" fill="none" stroke="#b0b0b0" stroke-linecap="square" stroke-width=".8"/><use stroke="#000" stroke-width=".8" x="70.22" xlink:href="#b" y="232.988"/><g transform="matrix(.1 0 0 -.1 60.786 269.982)"><use xlink:href="#c"/><use x="86.279" xlink:href="#d"/><use x="147.559" xlink:href="#e"/></g><g transform="matrix(.1 0 0 -.1 57.495 281.18)"><use xlink:href="#f"/><use x="63.623" xlink:href="#g"/><use x="127.246" xlink:href="#f"/><use x="190.869" xlink:href="#g"/></g><path clip-path="url(#a)" d="M551.61 232.988V25.44" fill="none" stroke="#b0b0b0" stroke-linecap="square" stroke-width=".8"/><use stroke="#000" stroke-width=".8" x="551.61" xlink:href="#b" y="232.988"/><g transform="matrix(.1 0 0 -.1 545.247 247.586)"><use xlink:href="#h"/><use x="63.623" xlink:href="#g"/></g><use stroke="#000" stroke-width=".6" x="70.22" xlink:href="#i" y="232.988"/><use stroke="#000" stroke-width=".6" x="86.82" xlink:href="#i" y="232.988"/><g transform="matrix(.1 0 0 -.1 80.457 245.986)"><use xlink:href="#g"/><use x="63.623" xlink:href="#f"/></g><use stroke="#000" stroke-width=".6" x="103.419" xlink:href="#i" y="232.988"/><use stroke="#000" stroke-width=".6" x="120.019" xlink:href="#i" y="232.988"/><use stroke="#000" stroke-width=".6" x="136.619" xlink:href="#i" y="232.988"/><use stroke="#000" stroke-width=".6" x="153.218" xlink:href="#i" y="232.988"/><use stroke="#000" stroke-width=".6" x="169.818" xlink:href="#i" y="232.988"/><use stroke="#000" stroke-width=".6" x="186.418" xlink:href="#i" y="232.988"/><use stroke="#000" stroke-width=".6" x="203.017" xlink:href="#i" y="232.988"/><g transform="matrix(.1 0 0 -.1 196.655 245.986)"><use xlink:href="#g"/><use x="63.623" xlink:href="#j"/></g><use stroke="#000" stroke-width=".6" x="219.617" xlink:href="#i" y="232.988"/><use stroke="#000" stroke-width=".6" x="236.217" xlink:href="#i" y="232.988"/><use stroke="#000" stroke-width=".6" x="252.816" xlink:href="#i" y="232.988"/><use stroke="#000" stroke-width=".6" x="269.416" xlink:href="#i" y="232.988"/><use stroke="#000" stroke-width=".6" x="286.016" xlink:href="#i" y="232.988"/><use stroke="#000" stroke-width=".6" x="302.615" xlink:href="#i" y="232.988"/><use stroke="#000" stroke-width=".6" x="319.215" xlink:href="#i" y="232.988"/><g transform="matrix(.1 0 0 -.1 312.852 245.986)"><use xlink:href="#k"/><use x="63.623" xlink:href="#l"/></g><use stroke="#000" stroke-width=".6" x="335.814" xlink:href="#i" y="232.988"/><use stroke="#000" stroke-width=".6" x="352.414" xlink:href="#i" y="232.988"/><use stroke="#000" stroke-width=".6" x="369.014" xlink:href="#i" y="232.988"/><use stroke="#000" stroke-width=".6" x="385.613" xlink:href="#i" y="232.988"/><use stroke="#000" stroke-width=".6" x="402.213" xlink:href="#i" y="232.988"/><use stroke="#000" stroke-width=".6" x="418.813" xlink:href="#i" y="232.988"/><g><use stroke="#000" stroke-width=".6" x="435.412" xlink:href="#i" y="232.988"/><g transform="matrix(.1 0 0 -.1 429.05 245.986)"><use xlink:href="#f"/><use x="63.623" xlink:href="#h"/></g></g><g stroke="#000" stroke-width=".6"><use x="452.012" xlink:href="#i" y="232.988"/><use x="468.612" xlink:href="#i" y="232.988"/><use x="485.211" xlink:href="#i" y="232.988"/><use x="501.811" xlink:href="#i" y="232.988"/><use x="518.411" xlink:href="#i" y="232.988"/><use x="535.01" xlink:href="#i" y="232.988"/><use x="551.61" xlink:href="#i" y="232.988"/></g><g><path clip-path="url(#a)" d="M70.22 232.999h481.39" fill="none" stroke="#b0b0b0" stroke-linecap="square" stroke-width=".8"/><use stroke="#000" stroke-width=".8" x="70.22" xlink:href="#m" y="232.999"/><use transform="matrix(.1 0 0 -.1 56.858 236.798)" xlink:href="#g"/><path clip-path="url(#a)" d="M70.22 206.534h481.39" fill="none" stroke="#b0b0b0" stroke-linecap="square" stroke-width=".8"/><use stroke="#000" stroke-width=".8" x="70.22" xlink:href="#m" y="206.534"/><g transform="matrix(.1 0 0 -.1 31.407 210.333)"><use xlink:href="#f"/><use x="63.623" xlink:href="#n"/><use x="127.246" xlink:href="#g"/><use x="190.869" xlink:href="#g"/><use x="254.492" xlink:href="#g"/></g><path clip-path="url(#a)" d="M70.22 180.07h481.39" fill="none" stroke="#b0b0b0" stroke-linecap="square" stroke-width=".8"/><use stroke="#000" stroke-width=".8" x="70.22" xlink:href="#m" y="180.069"/><g transform="matrix(.1 0 0 -.1 31.407 183.869)"><use xlink:href="#n"/><use x="63.623" xlink:href="#g"/><use x="127.246" xlink:href="#g"/><use x="190.869" xlink:href="#g"/><use x="254.492" xlink:href="#g"/></g><g><path clip-path="url(#a)" d="M70.22 153.605h481.39" fill="none" stroke="#b0b0b0" stroke-linecap="square" stroke-width=".8"/><use stroke="#000" stroke-width=".8" x="70.22" xlink:href="#m" y="153.605"/><g transform="matrix(.1 0 0 -.1 31.407 157.404)"><use xlink:href="#o"/><use x="63.623" xlink:href="#n"/><use x="127.246" xlink:href="#g"/><use x="190.869" xlink:href="#g"/><use x="254.492" xlink:href="#g"/></g></g><g><path clip-path="url(#a)" d="M70.22 127.14h481.39" fill="none" stroke="#b0b0b0" stroke-linecap="square" stroke-width=".8"/><use stroke="#000" stroke-width=".8" x="70.22" xlink:href="#m" y="127.14"/><g transform="matrix(.1 0 0 -.1 25.045 130.94)"><use xlink:href="#k"/><use x="63.623" xlink:href="#g"/><use x="127.246" xlink:href="#g"/><use x="190.869" xlink:href="#g"/><use x="254.492" xlink:href="#g"/><use x="318.115" xlink:href="#g"/></g></g><g><path clip-path="url(#a)" d="M70.22 100.676h481.39" fill="none" stroke="#b0b0b0" stroke-linecap="square" stroke-width=".8"/><use stroke="#000" stroke-width=".8" x="70.22" xlink:href="#m" y="100.676"/><g transform="matrix(.1 0 0 -.1 25.045 104.475)"><use xlink:href="#k"/><use x="63.623" xlink:href="#f"/><use x="127.246" xlink:href="#n"/><use x="190.869" xlink:href="#g"/><use x="254.492" xlink:href="#g"/><use x="318.115" xlink:href="#g"/></g></g><g><path clip-path="url(#a)" d="M70.22 74.211h481.39" fill="none" stroke="#b0b0b0" stroke-linecap="square" stroke-width=".8"/><use stroke="#000" stroke-width=".8" x="70.22" xlink:href="#m" y="74.211"/><g transform="matrix(.1 0 0 -.1 25.045 78.01)"><use xlink:href="#k"/><use x="63.623" xlink:href="#n"/><use x="127.246" xlink:href="#g"/><use x="190.869" xlink:href="#g"/><use x="254.492" xlink:href="#g"/><use x="318.115" xlink:href="#g"/></g></g><g><path clip-path="url(#a)" d="M70.22 47.746h481.39" fill="none" stroke="#b0b0b0" stroke-linecap="square" stroke-width=".8"/><use stroke="#000" stroke-width=".8" x="70.22" xlink:href="#m" y="47.746"/><g transform="matrix(.1 0 0 -.1 25.045 51.546)"><use xlink:href="#k"/><use x="63.623" xlink:href="#o"/><use x="127.246" xlink:href="#n"/><use x="190.869" xlink:href="#g"/><use x="254.492" xlink:href="#g"/><use x="318.115" xlink:href="#g"/></g></g><g transform="matrix(0 -.1 -.1 0 18.965 155.56)"><use xlink:href="#p"/><use x="98.799" xlink:href="#q"/><use x="159.98" xlink:href="#e"/><use x="201.094" xlink:href="#r"/><use x="228.877" xlink:href="#s"/><use x="292.354" xlink:href="#t"/><use x="374.141" xlink:href="#u"/><use x="401.924" xlink:href="#s"/><use x="465.4" xlink:href="#v"/></g></g><g stroke="#1f77b4"><path clip-path="url(#a)" d="M-1 232.944l4.821-.002h16.6l16.6-.002 16.6-.007 16.599-.006 16.6-.022 16.6-.02 16.599-.028 16.6-.071 16.6-.058 16.599-.144 16.6-.123 16.6-.071 16.599-.368 16.6-.333 16.6-.396 16.599-.539 16.6-.571 16.6-.809 16.599-1.17 16.6-1.87 16.6-1.34 16.599-6.15 16.6-5.652 16.6-6.674 16.599-8.79 16.6-10.37 16.6-10.132 16.599-12.48 16.6-18.494 16.599-18.272" fill="none" stroke-linecap="square" stroke-width="1.5"/><g clip-path="url(#a)" fill="#1f77b4"><use x="-1" xlink:href="#w" y="232.944"/><use x="3.821" xlink:href="#w" y="232.942"/><use x="20.421" xlink:href="#w" y="232.941"/><use x="37.021" xlink:href="#w" y="232.94"/><use x="53.62" xlink:href="#w" y="232.933"/><use x="70.22" xlink:href="#w" y="232.927"/><use x="86.82" xlink:href="#w" y="232.905"/><use x="103.419" xlink:href="#w" y="232.885"/><use x="120.019" xlink:href="#w" y="232.857"/><use x="136.619" xlink:href="#w" y="232.786"/><use x="153.218" xlink:href="#w" y="232.728"/><use x="169.818" xlink:href="#w" y="232.584"/><use x="186.418" xlink:href="#w" y="232.461"/><use x="203.017" xlink:href="#w" y="232.39"/><use x="219.617" xlink:href="#w" y="232.022"/><use x="236.217" xlink:href="#w" y="231.689"/><use x="252.816" xlink:href="#w" y="231.293"/><use x="269.416" xlink:href="#w" y="230.754"/><use x="286.016" xlink:href="#w" y="230.183"/><use x="302.615" xlink:href="#w" y="229.374"/><use x="319.215" xlink:href="#w" y="228.203"/><use x="335.814" xlink:href="#w" y="226.334"/><use x="352.414" xlink:href="#w" y="224.994"/><use x="369.014" xlink:href="#w" y="218.843"/><use x="385.613" xlink:href="#w" y="213.192"/><use x="402.213" xlink:href="#w" y="206.518"/><use x="418.813" xlink:href="#w" y="197.728"/><use x="435.412" xlink:href="#w" y="187.358"/><use x="452.012" xlink:href="#w" y="177.226"/><use x="468.612" xlink:href="#w" y="164.746"/><use x="485.211" xlink:href="#w" y="146.252"/><use x="501.811" xlink:href="#w" y="127.98"/></g></g><g stroke="#ff7f0e"><path clip-path="url(#a)" d="M-1 232.574l4.821-.04 16.6-.163 16.6-.242 16.6-.245 16.599-.555 16.6-.273 16.6-.453 16.599-.469 16.6-.625 16.6-.656 16.599-1.212 16.6-1.404 16.6-1.691 16.599-.857 16.6-1.9h16.6l16.599-4.622 16.6-2.958 16.6-3.02 16.599-2.615 16.6-3.164 16.6-2.803 16.599-4.743 16.6-5.673 16.6-4.374 16.599-4.189 16.6-4.001 16.6-3.824 16.599-3.695 16.6-4.755 16.599-4.66" fill="none" stroke-linecap="square" stroke-width="1.5"/><g clip-path="url(#a)" fill="#ff7f0e"><use x="-1" xlink:href="#x" y="232.574"/><use x="3.821" xlink:href="#x" y="232.535"/><use x="20.421" xlink:href="#x" y="232.371"/><use x="37.021" xlink:href="#x" y="232.129"/><use x="53.62" xlink:href="#x" y="231.884"/><use x="70.22" xlink:href="#x" y="231.329"/><use x="86.82" xlink:href="#x" y="231.056"/><use x="103.419" xlink:href="#x" y="230.603"/><use x="120.019" xlink:href="#x" y="230.134"/><use x="136.619" xlink:href="#x" y="229.509"/><use x="153.218" xlink:href="#x" y="228.853"/><use x="169.818" xlink:href="#x" y="227.641"/><use x="186.418" xlink:href="#x" y="226.237"/><use x="203.017" xlink:href="#x" y="224.546"/><use x="219.617" xlink:href="#x" y="223.689"/><use x="236.217" xlink:href="#x" y="221.788"/><use x="252.816" xlink:href="#x" y="221.788"/><use x="269.416" xlink:href="#x" y="217.167"/><use x="286.016" xlink:href="#x" y="214.209"/><use x="302.615" xlink:href="#x" y="211.189"/><use x="319.215" xlink:href="#x" y="208.574"/><use x="335.814" xlink:href="#x" y="205.41"/><use x="352.414" xlink:href="#x" y="202.607"/><use x="369.014" xlink:href="#x" y="197.864"/><use x="385.613" xlink:href="#x" y="192.191"/><use x="402.213" xlink:href="#x" y="187.817"/><use x="418.813" xlink:href="#x" y="183.628"/><use x="435.412" xlink:href="#x" y="179.627"/><use x="452.012" xlink:href="#x" y="175.803"/><use x="468.612" xlink:href="#x" y="172.108"/><use x="485.211" xlink:href="#x" y="167.353"/><use x="501.811" xlink:href="#x" y="162.694"/></g></g><path clip-path="url(#a)" d="M-1 232.99l4.821-.003 16.6-.002 16.6-.018 16.6-.014 16.599-.041 16.6-.038 16.6-.047 16.599-.06 16.6-.037 16.6-.147 16.599-.071 16.6-.176 16.6-.41 16.599-.65 16.6-.437 16.6.001 16.599-3.035 16.6-.818 16.6-1.39 16.599-2.2 16.6-1.182 16.6-2.137 16.599-4.044 16.6-1.856 16.6-4.335 16.599-3.015 16.6-5.026 16.6-4.036 16.599-7.641 16.6-6.251 16.599-5.1" fill="none" stroke="#2ca02c" stroke-linecap="square" stroke-width="1.5"/><g stroke="#d62728"><path clip-path="url(#a)" d="M-1 232.989l4.821-.003 16.6-.02 16.6-.001 16.6-.033 16.599-.054 16.6-.03 16.6-.04 16.599-.07 16.6-.233 16.6-.198 16.599-.135 16.6-.255 16.6-.142 16.599-.298 16.6-.469 16.6-.18 16.599-1.664 16.6-.96 16.6-1.28 16.599-1.535 16.6-2.093 16.6-3.206 16.599-3.143 16.6-4.698 16.6-2.43 16.599-2.77 16.6-4.199 16.6-1.17 16.599-4.218 16.6-4.687 16.599-6.218" fill="none" stroke-linecap="square" stroke-width="1.5"/><g clip-path="url(#a)" fill="#d62728"><use x="-1" xlink:href="#y" y="232.989"/><use x="3.821" xlink:href="#y" y="232.986"/><use x="20.421" xlink:href="#y" y="232.967"/><use x="37.021" xlink:href="#y" y="232.965"/><use x="53.62" xlink:href="#y" y="232.932"/><use x="70.22" xlink:href="#y" y="232.878"/><use x="86.82" xlink:href="#y" y="232.847"/><use x="103.419" xlink:href="#y" y="232.808"/><use x="120.019" xlink:href="#y" y="232.738"/><use x="136.619" xlink:href="#y" y="232.505"/><use x="153.218" xlink:href="#y" y="232.307"/><use x="169.818" xlink:href="#y" y="232.172"/><use x="186.418" xlink:href="#y" y="231.917"/><use x="203.017" xlink:href="#y" y="231.775"/><use x="219.617" xlink:href="#y" y="231.477"/><use x="236.217" xlink:href="#y" y="231.008"/><use x="252.816" xlink:href="#y" y="230.828"/><use x="269.416" xlink:href="#y" y="229.164"/><use x="286.016" xlink:href="#y" y="228.203"/><use x="302.615" xlink:href="#y" y="226.924"/><use x="319.215" xlink:href="#y" y="225.389"/><use x="335.814" xlink:href="#y" y="223.296"/><use x="352.414" xlink:href="#y" y="220.09"/><use x="369.014" xlink:href="#y" y="216.947"/><use x="385.613" xlink:href="#y" y="212.249"/><use x="402.213" xlink:href="#y" y="209.82"/><use x="418.813" xlink:href="#y" y="207.05"/><use x="435.412" xlink:href="#y" y="202.85"/><use x="452.012" xlink:href="#y" y="201.679"/><use x="468.612" xlink:href="#y" y="197.462"/><use x="485.211" xlink:href="#y" y="192.775"/><use x="501.811" xlink:href="#y" y="186.557"/></g></g><g stroke="#9467bd"><path clip-path="url(#a)" d="M-1 232.994h4.821l16.6-.022 16.6-.02 16.6-.044 16.599-.032 16.6-.064 16.6-.012 16.599-.086 16.6-.095 16.6-.29 16.599-.31 16.6-.18 16.6-.087 16.599-.594 16.6-.514h16.6l16.599-1.43 16.6-.849 16.6-.035 16.599-2.202 16.6-1.093 16.6-1.45 16.599-1.84 16.6-1.63 16.6-1.655 16.599.42 16.6-3.935 16.6-1.247 16.599-2.252 16.6-2.687 16.599-2.964" fill="none" stroke-linecap="square" stroke-width="1.5"/><g clip-path="url(#a)" fill="#9467bd"><use x="-1" xlink:href="#z" y="232.994"/><use x="3.821" xlink:href="#z" y="232.993"/><use x="20.421" xlink:href="#z" y="232.972"/><use x="37.021" xlink:href="#z" y="232.952"/><use x="53.62" xlink:href="#z" y="232.908"/><use x="70.22" xlink:href="#z" y="232.876"/><use x="86.82" xlink:href="#z" y="232.812"/><use x="103.419" xlink:href="#z" y="232.8"/><use x="120.019" xlink:href="#z" y="232.714"/><use x="136.619" xlink:href="#z" y="232.619"/><use x="153.218" xlink:href="#z" y="232.33"/><use x="169.818" xlink:href="#z" y="232.018"/><use x="186.418" xlink:href="#z" y="231.839"/><use x="203.017" xlink:href="#z" y="231.752"/><use x="219.617" xlink:href="#z" y="231.158"/><use x="236.217" xlink:href="#z" y="230.644"/><use x="252.816" xlink:href="#z" y="230.644"/><use x="269.416" xlink:href="#z" y="229.213"/><use x="286.016" xlink:href="#z" y="228.365"/><use x="302.615" xlink:href="#z" y="228.33"/><use x="319.215" xlink:href="#z" y="226.128"/><use x="335.814" xlink:href="#z" y="225.035"/><use x="352.414" xlink:href="#z" y="223.586"/><use x="369.014" xlink:href="#z" y="221.745"/><use x="385.613" xlink:href="#z" y="220.116"/><use x="402.213" xlink:href="#z" y="218.46"/><use x="418.813" xlink:href="#z" y="218.88"/><use x="435.412" xlink:href="#z" y="214.945"/><use x="452.012" xlink:href="#z" y="213.698"/><use x="468.612" xlink:href="#z" y="211.446"/><use x="485.211" xlink:href="#z" y="208.759"/><use x="501.811" xlink:href="#z" y="205.795"/></g></g><path clip-path="url(#a)" d="M501.811 127.98l16.6-24.648 16.6-30.433 16.599-37.575" fill="none" stroke="#1f77b4" stroke-dasharray="1.5 2.475" stroke-width="1.5"/><path clip-path="url(#a)" d="M501.811 162.694l16.6-5.072 16.6-5.438 16.599-5.83" fill="none" stroke="#ff7f0e" stroke-dasharray="1.5 2.475" stroke-width="1.5"/><path clip-path="url(#a)" d="M501.811 178.774l16.6-7.714 16.6-8.81 16.599-10.065" fill="none" stroke="#2ca02c" stroke-dasharray="1.5 2.475" stroke-width="1.5"/><path clip-path="url(#a)" d="M501.811 186.557l16.6-6.601 16.6-7.54 16.599-8.613" fill="none" stroke="#d62728" stroke-dasharray="1.5 2.475" stroke-width="1.5"/><path clip-path="url(#a)" d="M501.811 205.795l16.6-3.317 16.6-3.721 16.599-4.176" fill="none" stroke="#9467bd" stroke-dasharray="1.5 2.475" stroke-width="1.5"/><path d="M70.22 232.988V25.44M551.61 232.988V25.44M70.22 232.988h481.39M70.22 25.44h481.39" fill="none" stroke="#000" stroke-linecap="square" stroke-linejoin="miter" stroke-width=".8"/><g transform="matrix(.12 0 0 -.12 189.136 19.44)"><path d="M34.188 63.188L20.797 26.906h26.812zm-5.579 9.718h11.188L67.578 0h-10.25l-6.64 18.703h-32.86L11.188 0H.78z"/><use x="68.393" xlink:href="#A"/><use x="123.373" xlink:href="#B"/><use x="162.582" xlink:href="#u"/><path d="M193.35 54.688h9.515L219.96 8.797l17.094 45.89h9.515L226.053 0H213.85z"/><use x="249.545" xlink:href="#v"/><use x="342.855" xlink:href="#C"/><path d="M452.086 66.219q-10.75 0-17.078-8.016-6.313-8-6.313-21.828 0-13.766 6.313-21.781 6.328-8 17.078-8 10.734 0 17.016 8 6.28 8.015 6.28 21.781 0 13.828-6.28 21.828-6.282 8.016-17.016 8.016zm0 8q15.328 0 24.5-10.281 9.187-10.282 9.187-27.563 0-17.234-9.187-27.516-9.172-10.28-24.5-10.28-15.375 0-24.594 10.25-9.203 10.265-9.203 27.546t9.203 27.563q9.219 10.28 24.594 10.28zM519.984 0l-27.828 72.906h10.297l23.11-61.375 23.14 61.375h10.25L531.172 0z"/><use x="559.783" xlink:href="#D"/><path d="M608.947 64.797V8.109h11.922q15.094 0 22.094 6.829 7 6.843 7 21.593 0 14.64-7 21.453-7 6.813-22.094 6.813zm-9.86 8.11h20.267q21.187 0 31.093-8.813 9.922-8.813 9.922-27.563 0-18.86-9.969-27.703Q640.447 0 619.354 0h-20.266z"/><use x="666.277" xlink:href="#E"/><use x="702.361" xlink:href="#k"/><use x="765.984" xlink:href="#j"/><use x="861.395" xlink:href="#A"/><use x="916.375" xlink:href="#d"/><use x="977.654" xlink:href="#F"/><use x="1029.754" xlink:href="#v"/><use x="1091.277" xlink:href="#F"/><use x="1175.164" xlink:href="#d"/><use x="1236.443" xlink:href="#F"/><use x="1320.33" xlink:href="#q"/><use x="1381.512" xlink:href="#G"/><use x="1448.504" xlink:href="#f"/><use x="1512.127" xlink:href="#g"/><use x="1575.75" xlink:href="#f"/><use x="1639.373" xlink:href="#g"/><use x="1702.996" xlink:href="#E"/><use x="1739.08" xlink:href="#g"/><use x="1802.703" xlink:href="#h"/><use x="1866.326" xlink:href="#E"/><use x="1902.41" xlink:href="#f"/><use x="1966.033" xlink:href="#o"/></g><g><path d="M77.22 106.83h186.569q2 0 2-2V32.44q0-2-2-2H77.22q-2 0-2 2v72.39q0 2 2 2z" fill="#fff" opacity=".8" stroke="#ccc" stroke-linejoin="miter"/><path d="M79.22 38.538h20" fill="none" stroke="#1f77b4" stroke-linecap="square" stroke-width="1.5"/><use fill="#1f77b4" stroke="#1f77b4" x="89.22" xlink:href="#w" y="38.538"/><g transform="matrix(.1 0 0 -.1 107.22 42.038)"><use xlink:href="#H"/><use x="73.193" xlink:href="#I"/><use x="168.457" xlink:href="#J"/><use x="207.471" xlink:href="#s"/><use x="270.947" xlink:href="#q"/><use x="332.129" xlink:href="#K"/><use x="395.508" xlink:href="#L"/><use x="458.984" xlink:href="#r"/><use x="486.768" xlink:href="#v"/><use x="548.291" xlink:href="#F"/><use x="632.178" xlink:href="#u"/><use x="659.961" xlink:href="#M"/><use x="755.127" xlink:href="#h"/><use x="818.75" xlink:href="#N"/><use x="850.537" xlink:href="#h"/><use x="945.947" xlink:href="#s"/><use x="1009.424" xlink:href="#d"/><use x="1070.703" xlink:href="#O"/><use x="1129.883" xlink:href="#F"/><use x="1181.982" xlink:href="#P"/></g><path d="M79.22 53.217h20" fill="none" stroke="#ff7f0e" stroke-linecap="square" stroke-width="1.5"/><use fill="#ff7f0e" stroke="#ff7f0e" x="89.22" xlink:href="#x" y="53.217"/><g transform="matrix(.1 0 0 -.1 107.22 56.717)"><use xlink:href="#D"/><use x="29.492" xlink:href="#B"/><use x="68.701" xlink:href="#d"/><use x="129.98" xlink:href="#r"/><use x="157.764" xlink:href="#O"/><use x="248.73" xlink:href="#J"/><use x="287.744" xlink:href="#s"/><use x="351.221" xlink:href="#q"/><use x="412.402" xlink:href="#K"/><use x="475.781" xlink:href="#L"/><use x="539.258" xlink:href="#r"/><use x="567.041" xlink:href="#v"/><use x="628.564" xlink:href="#F"/><use x="712.451" xlink:href="#u"/><use x="740.234" xlink:href="#M"/><use x="835.4" xlink:href="#k"/><use x="899.023" xlink:href="#g"/><use x="962.646" xlink:href="#N"/><use x="994.434" xlink:href="#g"/><use x="1089.844" xlink:href="#s"/><use x="1153.32" xlink:href="#d"/><use x="1214.6" xlink:href="#O"/><use x="1273.779" xlink:href="#F"/><use x="1325.879" xlink:href="#P"/></g><path d="M79.22 67.895h20" fill="none" stroke="#2ca02c" stroke-linecap="square" stroke-width="1.5"/><g transform="matrix(.1 0 0 -.1 107.22 71.395)"><use xlink:href="#I"/><path d="M81.586 8.203v-29h-9.031v75.484h9.03v-8.296q2.845 4.875 7.157 7.234Q93.07 56 99.07 56q9.97 0 16.188-7.906 6.234-7.907 6.234-20.797t-6.234-20.813q-6.219-7.906-16.188-7.906-6 0-10.328 2.375-4.312 2.375-7.156 7.25zm30.578 19.094q0 9.906-4.078 15.547-4.078 5.64-11.203 5.64-7.14 0-11.219-5.64-4.078-5.64-4.078-15.547 0-9.906 4.078-15.547 4.078-5.64 11.219-5.64 7.125 0 11.203 5.64 4.078 5.64 4.078 15.547z"/><use x="126.953" xlink:href="#d"/><use x="188.232" xlink:href="#u"/><use x="216.016" xlink:href="#M"/><use x="311.182" xlink:href="#J"/><use x="350.195" xlink:href="#s"/><use x="413.672" xlink:href="#q"/><use x="474.854" xlink:href="#K"/><use x="538.232" xlink:href="#L"/><use x="601.709" xlink:href="#r"/><use x="629.492" xlink:href="#v"/><use x="691.016" xlink:href="#F"/><use x="774.902" xlink:href="#u"/><use x="802.686" xlink:href="#M"/><use x="897.852" xlink:href="#n"/><use x="961.475" xlink:href="#N"/><use x="993.262" xlink:href="#f"/><use x="1088.672" xlink:href="#s"/><use x="1152.148" xlink:href="#d"/><use x="1213.428" xlink:href="#O"/><use x="1272.607" xlink:href="#F"/><use x="1324.707" xlink:href="#P"/></g><path d="M79.22 82.573h20" fill="none" stroke="#d62728" stroke-linecap="square" stroke-width="1.5"/><use fill="#d62728" stroke="#d62728" x="89.22" xlink:href="#y" y="82.573"/><g transform="matrix(.1 0 0 -.1 107.22 86.073)"><path d="M59.516 10.406v19.578h-16.11v8.11h25.875V6.78Q63.578 2.734 56.687.656 49.813-1.422 42-1.422q-17.094 0-26.75 9.985-9.64 10-9.64 27.812 0 17.875 9.64 27.86 9.656 9.984 26.75 9.984 7.125 0 13.547-1.766 6.422-1.75 11.844-5.172v-10.5q-5.47 4.64-11.625 6.985-6.157 2.343-12.938 2.343-13.39 0-20.11-7.468-6.702-7.47-6.702-22.266 0-14.75 6.703-22.219 6.718-7.469 20.11-7.469 5.218 0 9.312.907 4.109.906 7.375 2.812z"/><use x="77.49" xlink:href="#v"/><use x="139.014" xlink:href="#e"/><path d="M232.111 44.188q3.375 6.062 8.063 8.937Q244.86 56 251.205 56q8.547 0 13.188-5.984 4.64-5.97 4.64-17V0h-9.031v32.719q0 7.86-2.797 11.656-2.781 3.813-8.484 3.813-6.985 0-11.047-4.641-4.047-4.625-4.047-12.64V0h-9.031v32.719q0 7.906-2.782 11.687-2.78 3.782-8.593 3.782-6.89 0-10.953-4.657-4.047-4.656-4.047-12.625V0h-9.032v54.688h9.032v-8.5q3.078 5.03 7.375 7.421Q209.893 56 215.799 56q5.969 0 10.14-3.031 4.172-3.016 6.172-8.782z"/><use x="277.523" xlink:href="#d"/><use x="338.803" xlink:href="#M"/><use x="402.182" xlink:href="#O"/><use x="493.148" xlink:href="#J"/><use x="532.162" xlink:href="#s"/><use x="595.639" xlink:href="#q"/><use x="656.82" xlink:href="#K"/><use x="720.199" xlink:href="#L"/><use x="783.676" xlink:href="#r"/><use x="811.459" xlink:href="#v"/><use x="872.982" xlink:href="#F"/><use x="956.869" xlink:href="#u"/><use x="984.652" xlink:href="#M"/><use x="1079.818" xlink:href="#n"/><use x="1143.441" xlink:href="#N"/><use x="1175.229" xlink:href="#f"/><use x="1270.639" xlink:href="#s"/><use x="1334.115" xlink:href="#d"/><use x="1395.395" xlink:href="#O"/><use x="1454.574" xlink:href="#F"/><use x="1506.674" xlink:href="#P"/></g><path d="M79.22 97.25h20" fill="none" stroke="#9467bd" stroke-linecap="square" stroke-width="1.5"/><use fill="#9467bd" stroke="#9467bd" x="89.22" xlink:href="#z" y="97.251"/><g transform="matrix(.1 0 0 -.1 107.22 100.75)"><path d="M9.813 72.906h41.89v-8.312H19.672V43.109h28.906v-8.297H19.672V0h-9.86z"/><use x="57.41" xlink:href="#e"/><use x="98.523" xlink:href="#d"/><use x="159.803" xlink:href="#M"/><use x="223.182" xlink:href="#A"/><use x="278.162" xlink:href="#v"/><use x="371.473" xlink:href="#J"/><use x="410.486" xlink:href="#s"/><use x="473.963" xlink:href="#q"/><use x="535.145" xlink:href="#K"/><use x="598.523" xlink:href="#L"/><use x="662" xlink:href="#r"/><use x="689.783" xlink:href="#v"/><use x="751.307" xlink:href="#F"/><use x="835.193" xlink:href="#u"/><use x="862.977" xlink:href="#M"/><use x="958.143" xlink:href="#l"/><use x="1021.766" xlink:href="#N"/><use x="1053.553" xlink:href="#g"/><use x="1148.963" xlink:href="#s"/><use x="1212.439" xlink:href="#d"/><use x="1273.719" xlink:href="#O"/><use x="1332.898" xlink:href="#F"/><use x="1384.998" xlink:href="#P"/></g></g><g><path d="M70.22 505.928h481.39V298.38H70.22z" fill="#fff"/><path clip-path="url(#Q)" d="M70.22 505.928V298.38" fill="none" stroke="#b0b0b0" stroke-linecap="square" stroke-width=".8"/><use stroke="#000" stroke-width=".8" x="70.22" xlink:href="#b" y="505.928"/><g transform="matrix(.1 0 0 -.1 60.786 542.922)"><use xlink:href="#c"/><use x="86.279" xlink:href="#d"/><use x="147.559" xlink:href="#e"/></g><g transform="matrix(.1 0 0 -.1 57.495 554.12)"><use xlink:href="#f"/><use x="63.623" xlink:href="#g"/><use x="127.246" xlink:href="#f"/><use x="190.869" xlink:href="#g"/></g><path clip-path="url(#Q)" d="M551.61 505.928V298.38" fill="none" stroke="#b0b0b0" stroke-linecap="square" stroke-width=".8"/><use stroke="#000" stroke-width=".8" x="551.61" xlink:href="#b" y="505.928"/><g transform="matrix(.1 0 0 -.1 545.247 520.526)"><use xlink:href="#h"/><use x="63.623" xlink:href="#g"/></g><use stroke="#000" stroke-width=".6" x="70.22" xlink:href="#i" y="505.928"/><use stroke="#000" stroke-width=".6" x="86.82" xlink:href="#i" y="505.928"/><g transform="matrix(.1 0 0 -.1 80.457 518.926)"><use xlink:href="#g"/><use x="63.623" xlink:href="#f"/></g><use stroke="#000" stroke-width=".6" x="103.419" xlink:href="#i" y="505.928"/><use stroke="#000" stroke-width=".6" x="120.019" xlink:href="#i" y="505.928"/><use stroke="#000" stroke-width=".6" x="136.619" xlink:href="#i" y="505.928"/><use stroke="#000" stroke-width=".6" x="153.218" xlink:href="#i" y="505.928"/><use stroke="#000" stroke-width=".6" x="169.818" xlink:href="#i" y="505.928"/><use stroke="#000" stroke-width=".6" x="186.418" xlink:href="#i" y="505.928"/><use stroke="#000" stroke-width=".6" x="203.017" xlink:href="#i" y="505.928"/><g transform="matrix(.1 0 0 -.1 196.655 518.926)"><use xlink:href="#g"/><use x="63.623" xlink:href="#j"/></g><use stroke="#000" stroke-width=".6" x="219.617" xlink:href="#i" y="505.928"/><use stroke="#000" stroke-width=".6" x="236.217" xlink:href="#i" y="505.928"/><use stroke="#000" stroke-width=".6" x="252.816" xlink:href="#i" y="505.928"/><use stroke="#000" stroke-width=".6" x="269.416" xlink:href="#i" y="505.928"/><use stroke="#000" stroke-width=".6" x="286.016" xlink:href="#i" y="505.928"/><use stroke="#000" stroke-width=".6" x="302.615" xlink:href="#i" y="505.928"/><use stroke="#000" stroke-width=".6" x="319.215" xlink:href="#i" y="505.928"/><g transform="matrix(.1 0 0 -.1 312.852 518.926)"><use xlink:href="#k"/><use x="63.623" xlink:href="#l"/></g><use stroke="#000" stroke-width=".6" x="335.814" xlink:href="#i" y="505.928"/><use stroke="#000" stroke-width=".6" x="352.414" xlink:href="#i" y="505.928"/><use stroke="#000" stroke-width=".6" x="369.014" xlink:href="#i" y="505.928"/><use stroke="#000" stroke-width=".6" x="385.613" xlink:href="#i" y="505.928"/><use stroke="#000" stroke-width=".6" x="402.213" xlink:href="#i" y="505.928"/><use stroke="#000" stroke-width=".6" x="418.813" xlink:href="#i" y="505.928"/><g><use stroke="#000" stroke-width=".6" x="435.412" xlink:href="#i" y="505.928"/><g transform="matrix(.1 0 0 -.1 429.05 518.926)"><use xlink:href="#f"/><use x="63.623" xlink:href="#h"/></g></g><g stroke="#000" stroke-width=".6"><use x="452.012" xlink:href="#i" y="505.928"/><use x="468.612" xlink:href="#i" y="505.928"/><use x="485.211" xlink:href="#i" y="505.928"/><use x="501.811" xlink:href="#i" y="505.928"/><use x="518.411" xlink:href="#i" y="505.928"/><use x="535.01" xlink:href="#i" y="505.928"/><use x="551.61" xlink:href="#i" y="505.928"/></g><g><path clip-path="url(#Q)" d="M70.22 505.954h481.39" fill="none" stroke="#b0b0b0" stroke-linecap="square" stroke-width=".8"/><use stroke="#000" stroke-width=".8" x="70.22" xlink:href="#m" y="505.954"/><use transform="matrix(.1 0 0 -.1 56.858 509.753)" xlink:href="#g"/><path clip-path="url(#Q)" d="M70.22 480.29h481.39" fill="none" stroke="#b0b0b0" stroke-linecap="square" stroke-width=".8"/><use stroke="#000" stroke-width=".8" x="70.22" xlink:href="#m" y="480.291"/><g transform="matrix(.1 0 0 -.1 31.407 484.09)"><use xlink:href="#k"/><use x="63.623" xlink:href="#g"/><use x="127.246" xlink:href="#g"/><use x="190.869" xlink:href="#g"/><use x="254.492" xlink:href="#g"/></g><path clip-path="url(#Q)" d="M70.22 454.628h481.39" fill="none" stroke="#b0b0b0" stroke-linecap="square" stroke-width=".8"/><use stroke="#000" stroke-width=".8" x="70.22" xlink:href="#m" y="454.628"/><g transform="matrix(.1 0 0 -.1 31.407 458.427)"><use xlink:href="#f"/><use x="63.623" xlink:href="#g"/><use x="127.246" xlink:href="#g"/><use x="190.869" xlink:href="#g"/><use x="254.492" xlink:href="#g"/></g><path clip-path="url(#Q)" d="M70.22 428.965h481.39" fill="none" stroke="#b0b0b0" stroke-linecap="square" stroke-width=".8"/><use stroke="#000" stroke-width=".8" x="70.22" xlink:href="#m" y="428.965"/><g transform="matrix(.1 0 0 -.1 31.407 432.764)"><use xlink:href="#h"/><use x="63.623" xlink:href="#g"/><use x="127.246" xlink:href="#g"/><use x="190.869" xlink:href="#g"/><use x="254.492" xlink:href="#g"/></g><g><path clip-path="url(#Q)" d="M70.22 403.302h481.39" fill="none" stroke="#b0b0b0" stroke-linecap="square" stroke-width=".8"/><use stroke="#000" stroke-width=".8" x="70.22" xlink:href="#m" y="403.302"/><g transform="matrix(.1 0 0 -.1 31.407 407.101)"><use xlink:href="#R"/><use x="63.623" xlink:href="#g"/><use x="127.246" xlink:href="#g"/><use x="190.869" xlink:href="#g"/><use x="254.492" xlink:href="#g"/></g></g><g><path clip-path="url(#Q)" d="M70.22 377.639h481.39" fill="none" stroke="#b0b0b0" stroke-linecap="square" stroke-width=".8"/><use stroke="#000" stroke-width=".8" x="70.22" xlink:href="#m" y="377.639"/><g transform="matrix(.1 0 0 -.1 31.407 381.438)"><use xlink:href="#n"/><use x="63.623" xlink:href="#g"/><use x="127.246" xlink:href="#g"/><use x="190.869" xlink:href="#g"/><use x="254.492" xlink:href="#g"/></g></g><g><path clip-path="url(#Q)" d="M70.22 351.976h481.39" fill="none" stroke="#b0b0b0" stroke-linecap="square" stroke-width=".8"/><use stroke="#000" stroke-width=".8" x="70.22" xlink:href="#m" y="351.976"/><g transform="matrix(.1 0 0 -.1 31.407 355.775)"><use xlink:href="#l"/><use x="63.623" xlink:href="#g"/><use x="127.246" xlink:href="#g"/><use x="190.869" xlink:href="#g"/><use x="254.492" xlink:href="#g"/></g></g><g><path clip-path="url(#Q)" d="M70.22 326.313h481.39" fill="none" stroke="#b0b0b0" stroke-linecap="square" stroke-width=".8"/><use stroke="#000" stroke-width=".8" x="70.22" xlink:href="#m" y="326.313"/><g transform="matrix(.1 0 0 -.1 31.407 330.112)"><use xlink:href="#o"/><use x="63.623" xlink:href="#g"/><use x="127.246" xlink:href="#g"/><use x="190.869" xlink:href="#g"/><use x="254.492" xlink:href="#g"/></g></g><g><path clip-path="url(#Q)" d="M70.22 300.65h481.39" fill="none" stroke="#b0b0b0" stroke-linecap="square" stroke-width=".8"/><use stroke="#000" stroke-width=".8" x="70.22" xlink:href="#m" y="300.65"/><g transform="matrix(.1 0 0 -.1 31.407 304.45)"><use xlink:href="#S"/><use x="63.623" xlink:href="#g"/><use x="127.246" xlink:href="#g"/><use x="190.869" xlink:href="#g"/><use x="254.492" xlink:href="#g"/></g></g><g transform="matrix(0 -.1 -.1 0 25.328 408.988)"><use xlink:href="#H"/><use x="73.193" xlink:href="#I"/></g></g><g stroke="#1f77b4"><path clip-path="url(#Q)" d="M-1 505.954h71.22l16.6-.003 16.6-.002 16.599-.024 16.6-.03 16.6-.034 16.599-.102 16.6-.077 16.6-.093 16.599-.08 16.6-.12 16.6-.277 16.599-.239 16.6-.262 16.6-.528 16.599-.585 16.6-1.89 16.6-2.016 16.599-7.32 16.6-7.536 16.6-8.68 16.599-10.35 16.6-12.941 16.6-12.177 16.599-13.05 16.6-17.8 16.599-17.597" fill="none" stroke-linecap="square" stroke-width="1.5"/><g clip-path="url(#Q)" fill="#1f77b4"><use x="-1" xlink:href="#w" y="505.954"/><use x="3.821" xlink:href="#w" y="505.954"/><use x="20.421" xlink:href="#w" y="505.954"/><use x="37.021" xlink:href="#w" y="505.954"/><use x="53.62" xlink:href="#w" y="505.954"/><use x="70.22" xlink:href="#w" y="505.954"/><use x="86.82" xlink:href="#w" y="505.951"/><use x="103.419" xlink:href="#w" y="505.949"/><use x="120.019" xlink:href="#w" y="505.925"/><use x="136.619" xlink:href="#w" y="505.895"/><use x="153.218" xlink:href="#w" y="505.861"/><use x="169.818" xlink:href="#w" y="505.759"/><use x="186.418" xlink:href="#w" y="505.682"/><use x="203.017" xlink:href="#w" y="505.589"/><use x="219.617" xlink:href="#w" y="505.51"/><use x="236.217" xlink:href="#w" y="505.389"/><use x="252.816" xlink:href="#w" y="505.112"/><use x="269.416" xlink:href="#w" y="504.873"/><use x="286.016" xlink:href="#w" y="504.611"/><use x="302.615" xlink:href="#w" y="504.083"/><use x="319.215" xlink:href="#w" y="503.498"/><use x="335.814" xlink:href="#w" y="501.609"/><use x="352.414" xlink:href="#w" y="499.592"/><use x="369.014" xlink:href="#w" y="492.273"/><use x="385.613" xlink:href="#w" y="484.736"/><use x="402.213" xlink:href="#w" y="476.056"/><use x="418.813" xlink:href="#w" y="465.706"/><use x="435.412" xlink:href="#w" y="452.765"/><use x="452.012" xlink:href="#w" y="440.588"/><use x="468.612" xlink:href="#w" y="427.538"/><use x="485.211" xlink:href="#w" y="409.738"/><use x="501.811" xlink:href="#w" y="392.141"/></g></g><g stroke="#ff7f0e"><path clip-path="url(#Q)" d="M-1 505.954H120.019l16.6-.005h16.6l16.599-.006 16.6-.002h16.6l16.599-.023 16.6-.02 16.6-.016h16.599l16.6-.103 16.6-.072 16.599-.202 16.6-.226 16.6-.003 16.599-1.203 16.6-.375 16.6-1.109 16.599-1.496 16.6-2.369 16.6-2.089 16.599-1.819 16.6-6.3 16.599-4.933" fill="none" stroke-linecap="square" stroke-width="1.5"/><g clip-path="url(#Q)" fill="#ff7f0e"><use x="-1" xlink:href="#x" y="505.954"/><use x="3.821" xlink:href="#x" y="505.954"/><use x="20.421" xlink:href="#x" y="505.954"/><use x="37.021" xlink:href="#x" y="505.954"/><use x="53.62" xlink:href="#x" y="505.954"/><use x="70.22" xlink:href="#x" y="505.954"/><use x="86.82" xlink:href="#x" y="505.954"/><use x="103.419" xlink:href="#x" y="505.954"/><use x="120.019" xlink:href="#x" y="505.954"/><use x="136.619" xlink:href="#x" y="505.949"/><use x="153.218" xlink:href="#x" y="505.949"/><use x="169.818" xlink:href="#x" y="505.943"/><use x="186.418" xlink:href="#x" y="505.941"/><use x="203.017" xlink:href="#x" y="505.941"/><use x="219.617" xlink:href="#x" y="505.918"/><use x="236.217" xlink:href="#x" y="505.897"/><use x="252.816" xlink:href="#x" y="505.882"/><use x="269.416" xlink:href="#x" y="505.882"/><use x="286.016" xlink:href="#x" y="505.779"/><use x="302.615" xlink:href="#x" y="505.707"/><use x="319.215" xlink:href="#x" y="505.505"/><use x="335.814" xlink:href="#x" y="505.279"/><use x="352.414" xlink:href="#x" y="505.276"/><use x="369.014" xlink:href="#x" y="504.073"/><use x="385.613" xlink:href="#x" y="503.698"/><use x="402.213" xlink:href="#x" y="502.589"/><use x="418.813" xlink:href="#x" y="501.093"/><use x="435.412" xlink:href="#x" y="498.724"/><use x="452.012" xlink:href="#x" y="496.635"/><use x="468.612" xlink:href="#x" y="494.816"/><use x="485.211" xlink:href="#x" y="488.516"/><use x="501.811" xlink:href="#x" y="483.583"/></g></g><path clip-path="url(#Q)" d="M-1 505.933h4.821l16.6-.002h16.6l16.6-.003H70.22l16.6-.023 16.6-.01 16.599-.023 16.6-.042 16.6-.02 16.599-.06 16.6-.04 16.6-.016 16.599-.1 16.6-.082 16.6-.1 16.599-.156 16.6-.147 16.6-.218 16.599-.333 16.6-.35 16.6-.148 16.599-.503 16.6-.565 16.6-.477 16.599-.708 16.6-1.163 16.6-1.075 16.599-1.142 16.6-2.271 16.599-1.912" fill="none" stroke="#2ca02c" stroke-linecap="square" stroke-width="1.5"/><g stroke="#d62728"><path clip-path="url(#Q)" d="M-1 505.954H219.617l16.6-.005h16.6l16.599-.036 16.6-.023 16.6-.021 16.599-.051 16.6-.031 16.6-.046 16.599-.637 16.6-.56 16.6-.6 16.599-.623 16.6-.74 16.6-1.167 16.599-1.242 16.6-1.363 16.599-1.945" fill="none" stroke-linecap="square" stroke-width="1.5"/><g clip-path="url(#Q)" fill="#d62728"><use x="-1" xlink:href="#y" y="505.954"/><use x="3.821" xlink:href="#y" y="505.954"/><use x="20.421" xlink:href="#y" y="505.954"/><use x="37.021" xlink:href="#y" y="505.954"/><use x="53.62" xlink:href="#y" y="505.954"/><use x="70.22" xlink:href="#y" y="505.954"/><use x="86.82" xlink:href="#y" y="505.954"/><use x="103.419" xlink:href="#y" y="505.954"/><use x="120.019" xlink:href="#y" y="505.954"/><use x="136.619" xlink:href="#y" y="505.954"/><use x="153.218" xlink:href="#y" y="505.954"/><use x="169.818" xlink:href="#y" y="505.954"/><use x="186.418" xlink:href="#y" y="505.954"/><use x="203.017" xlink:href="#y" y="505.954"/><use x="219.617" xlink:href="#y" y="505.954"/><use x="236.217" xlink:href="#y" y="505.949"/><use x="252.816" xlink:href="#y" y="505.949"/><use x="269.416" xlink:href="#y" y="505.913"/><use x="286.016" xlink:href="#y" y="505.89"/><use x="302.615" xlink:href="#y" y="505.869"/><use x="319.215" xlink:href="#y" y="505.818"/><use x="335.814" xlink:href="#y" y="505.787"/><use x="352.414" xlink:href="#y" y="505.741"/><use x="369.014" xlink:href="#y" y="505.104"/><use x="385.613" xlink:href="#y" y="504.545"/><use x="402.213" xlink:href="#y" y="503.944"/><use x="418.813" xlink:href="#y" y="503.321"/><use x="435.412" xlink:href="#y" y="502.582"/><use x="452.012" xlink:href="#y" y="501.414"/><use x="468.612" xlink:href="#y" y="500.172"/><use x="485.211" xlink:href="#y" y="498.809"/><use x="501.811" xlink:href="#y" y="496.864"/></g></g><g stroke="#9467bd"><path clip-path="url(#Q)" d="M-1 505.954h38.021l16.6-.013 16.599-.01 16.6-.006 16.6-.02 16.599-.023 16.6-.077 16.6-.028 16.599-.054 16.6-.05 16.6.004 16.599-.347 16.6-.239 16.6-.19 16.599-.307 16.6-.01 16.6-.175 16.599-.65 16.6-.423 16.6.157 16.599-.88 16.6-.357 16.6-.662 16.599-.516 16.6-.544 16.6-.257 16.599-.631 16.6-1.537 16.599-.675" fill="none" stroke-linecap="square" stroke-width="1.5"/><g clip-path="url(#Q)" fill="#9467bd"><use x="-1" xlink:href="#z" y="505.954"/><use x="3.821" xlink:href="#z" y="505.954"/><use x="20.421" xlink:href="#z" y="505.954"/><use x="37.021" xlink:href="#z" y="505.954"/><use x="53.62" xlink:href="#z" y="505.941"/><use x="70.22" xlink:href="#z" y="505.931"/><use x="86.82" xlink:href="#z" y="505.925"/><use x="103.419" xlink:href="#z" y="505.905"/><use x="120.019" xlink:href="#z" y="505.882"/><use x="136.619" xlink:href="#z" y="505.805"/><use x="153.218" xlink:href="#z" y="505.777"/><use x="169.818" xlink:href="#z" y="505.723"/><use x="186.418" xlink:href="#z" y="505.674"/><use x="203.017" xlink:href="#z" y="505.677"/><use x="219.617" xlink:href="#z" y="505.33"/><use x="236.217" xlink:href="#z" y="505.091"/><use x="252.816" xlink:href="#z" y="504.901"/><use x="269.416" xlink:href="#z" y="504.594"/><use x="286.016" xlink:href="#z" y="504.583"/><use x="302.615" xlink:href="#z" y="504.409"/><use x="319.215" xlink:href="#z" y="503.759"/><use x="335.814" xlink:href="#z" y="503.336"/><use x="352.414" xlink:href="#z" y="503.493"/><use x="369.014" xlink:href="#z" y="502.612"/><use x="385.613" xlink:href="#z" y="502.256"/><use x="402.213" xlink:href="#z" y="501.594"/><use x="418.813" xlink:href="#z" y="501.078"/><use x="435.412" xlink:href="#z" y="500.534"/><use x="452.012" xlink:href="#z" y="500.277"/><use x="468.612" xlink:href="#z" y="499.646"/><use x="485.211" xlink:href="#z" y="498.109"/><use x="501.811" xlink:href="#z" y="497.434"/></g></g><path clip-path="url(#Q)" d="M501.811 392.141l16.6-22.998 16.6-27.646 16.599-33.233" fill="none" stroke="#1f77b4" stroke-dasharray="1.5 2.475" stroke-width="1.5"/><path clip-path="url(#Q)" d="M501.811 483.583l16.6-7.98 16.6-10.827 16.599-14.69" fill="none" stroke="#ff7f0e" stroke-dasharray="1.5 2.475" stroke-width="1.5"/><path clip-path="url(#Q)" d="M501.811 494.244l16.6-2.677 16.6-3.288 16.599-4.039" fill="none" stroke="#2ca02c" stroke-dasharray="1.5 2.475" stroke-width="1.5"/><path clip-path="url(#Q)" d="M501.811 496.864l16.6-2.358 16.6-2.969 16.599-3.739" fill="none" stroke="#d62728" stroke-dasharray="1.5 2.475" stroke-width="1.5"/><path clip-path="url(#Q)" d="M501.811 497.434l16.6-1.24 16.6-1.42 16.599-1.627" fill="none" stroke="#9467bd" stroke-dasharray="1.5 2.475" stroke-width="1.5"/><path d="M70.22 505.928V298.38M551.61 505.928V298.38M70.22 505.928h481.39M70.22 298.38h481.39" fill="none" stroke="#000" stroke-linecap="square" stroke-linejoin="miter" stroke-width=".8"/><g><path d="M77.22 379.77h199.827q2 0 2-2v-72.39q0-2-2-2H77.22q-2 0-2 2v72.39q0 2 2 2z" fill="#fff" opacity=".8" stroke="#ccc" stroke-linejoin="miter"/><path d="M79.22 311.478h20" fill="none" stroke="#1f77b4" stroke-linecap="square" stroke-width="1.5"/><use fill="#1f77b4" stroke="#1f77b4" x="89.22" xlink:href="#w" y="311.478"/><g transform="matrix(.1 0 0 -.1 107.22 314.978)"><use xlink:href="#T"/><use x="74.805" xlink:href="#v"/><use x="136.328" xlink:href="#t"/><path d="M249.7 72.906h10.609l20.203-29.984 20.078 29.984h10.594L285.402 34.72V0h-9.906v34.719z"/><use x="310.783" xlink:href="#q"/><use x="371.965" xlink:href="#e"/><path d="M422.156 75.984h9.031V31.11L458 54.687h11.469l-29-25.578L470.703 0h-11.719l-27.796 26.703V0h-9.032z"/><use x="502.775" xlink:href="#J"/><use x="541.789" xlink:href="#s"/><use x="605.266" xlink:href="#q"/><use x="666.447" xlink:href="#K"/><use x="729.826" xlink:href="#L"/><use x="793.303" xlink:href="#r"/><use x="821.086" xlink:href="#v"/><use x="882.609" xlink:href="#F"/><use x="966.496" xlink:href="#u"/><use x="994.279" xlink:href="#M"/><use x="1089.445" xlink:href="#h"/><use x="1153.068" xlink:href="#N"/><use x="1184.855" xlink:href="#S"/><use x="1280.266" xlink:href="#s"/><use x="1343.742" xlink:href="#d"/><use x="1405.021" xlink:href="#O"/><use x="1464.201" xlink:href="#F"/><use x="1516.301" xlink:href="#P"/></g><path d="M79.22 326.157h20" fill="none" stroke="#ff7f0e" stroke-linecap="square" stroke-width="1.5"/><use fill="#ff7f0e" stroke="#ff7f0e" x="89.22" xlink:href="#x" y="326.157"/><g transform="matrix(.1 0 0 -.1 107.22 329.657)"><use xlink:href="#T"/><use x="74.805" xlink:href="#v"/><use x="136.328" xlink:href="#t"/><path d="M259.715 72.906h9.86V5.078q0-13.187-5-19.14-5-5.954-16.095-5.954h-3.75v8.297h3.079q6.53 0 9.218 3.672 2.688 3.656 2.688 13.125z"/><use x="279.395" xlink:href="#v"/><use x="340.918" xlink:href="#e"/><use x="382.031" xlink:href="#F"/><use x="434.131" xlink:href="#v"/><use x="495.654" xlink:href="#O"/><use x="586.621" xlink:href="#J"/><use x="625.635" xlink:href="#s"/><use x="689.111" xlink:href="#q"/><use x="750.293" xlink:href="#K"/><use x="813.672" xlink:href="#L"/><use x="877.148" xlink:href="#r"/><use x="904.932" xlink:href="#v"/><use x="966.455" xlink:href="#F"/><use x="1050.342" xlink:href="#u"/><use x="1078.125" xlink:href="#M"/><use x="1173.291" xlink:href="#f"/><use x="1236.914" xlink:href="#N"/><use x="1268.701" xlink:href="#h"/><use x="1364.111" xlink:href="#s"/><use x="1427.588" xlink:href="#d"/><use x="1488.867" xlink:href="#O"/><use x="1548.047" xlink:href="#F"/><use x="1600.146" xlink:href="#P"/></g><path d="M79.22 340.835h20" fill="none" stroke="#2ca02c" stroke-linecap="square" stroke-width="1.5"/><g transform="matrix(.1 0 0 -.1 107.22 344.335)"><use xlink:href="#C"/><use x="69.824" xlink:href="#d"/><use x="131.104" xlink:href="#r"/><use x="158.887" xlink:href="#u"/><use x="186.67" xlink:href="#G"/><use x="221.875" xlink:href="#q"/><use x="283.057" xlink:href="#e"/><use x="324.154" xlink:href="#M"/><use x="387.533" xlink:href="#u"/><use x="415.316" xlink:href="#d"/><use x="508.383" xlink:href="#J"/><use x="547.396" xlink:href="#s"/><use x="610.873" xlink:href="#q"/><use x="672.055" xlink:href="#K"/><use x="735.434" xlink:href="#L"/><use x="798.91" xlink:href="#r"/><use x="826.693" xlink:href="#v"/><use x="888.217" xlink:href="#F"/><use x="972.104" xlink:href="#u"/><use x="999.887" xlink:href="#M"/><use x="1095.053" xlink:href="#h"/><use x="1158.676" xlink:href="#N"/><use x="1190.463" xlink:href="#R"/><use x="1285.873" xlink:href="#s"/><use x="1349.35" xlink:href="#d"/><use x="1410.629" xlink:href="#O"/><use x="1469.809" xlink:href="#F"/><use x="1521.908" xlink:href="#P"/></g><path d="M79.22 355.513h20" fill="none" stroke="#d62728" stroke-linecap="square" stroke-width="1.5"/><use fill="#d62728" stroke="#d62728" x="89.22" xlink:href="#y" y="355.513"/><g transform="matrix(.1 0 0 -.1 107.22 359.013)"><use xlink:href="#c"/><use x="86.279" xlink:href="#u"/><use x="114.063" xlink:href="#A"/><use x="169.043" xlink:href="#U"/><use x="232.422" xlink:href="#u"/><use x="260.205" xlink:href="#V"/><use x="323.682" xlink:href="#d"/><use x="384.961" xlink:href="#M"/><use x="480.127" xlink:href="#J"/><use x="519.141" xlink:href="#s"/><use x="582.617" xlink:href="#q"/><use x="643.799" xlink:href="#K"/><use x="707.178" xlink:href="#L"/><use x="770.654" xlink:href="#r"/><use x="798.438" xlink:href="#v"/><use x="859.961" xlink:href="#F"/><use x="943.848" xlink:href="#u"/><use x="971.631" xlink:href="#M"/><use x="1066.797" xlink:href="#h"/><use x="1130.42" xlink:href="#N"/><use x="1162.207" xlink:href="#g"/><use x="1257.617" xlink:href="#s"/><use x="1321.094" xlink:href="#d"/><use x="1382.373" xlink:href="#O"/><use x="1441.553" xlink:href="#F"/><use x="1493.652" xlink:href="#P"/></g><path d="M79.22 370.19h20" fill="none" stroke="#9467bd" stroke-linecap="square" stroke-width="1.5"/><use fill="#9467bd" stroke="#9467bd" x="89.22" xlink:href="#z" y="370.191"/><g transform="matrix(.1 0 0 -.1 107.22 373.69)"><use xlink:href="#p"/><use x="98.783" xlink:href="#d"/><use x="160.063" xlink:href="#F"/><use x="212.162" xlink:href="#U"/><use x="275.541" xlink:href="#u"/><use x="303.324" xlink:href="#M"/><use x="366.703" xlink:href="#V"/><use x="430.18" xlink:href="#B"/><use x="469.389" xlink:href="#q"/><use x="530.57" xlink:href="#M"/><use x="625.736" xlink:href="#J"/><use x="664.75" xlink:href="#s"/><use x="728.227" xlink:href="#q"/><use x="789.408" xlink:href="#K"/><use x="852.787" xlink:href="#L"/><use x="916.264" xlink:href="#r"/><use x="944.047" xlink:href="#v"/><use x="1005.57" xlink:href="#F"/><use x="1089.457" xlink:href="#u"/><use x="1117.24" xlink:href="#M"/><use x="1212.406" xlink:href="#n"/><use x="1276.029" xlink:href="#N"/><use x="1307.816" xlink:href="#k"/><use x="1403.227" xlink:href="#s"/><use x="1466.703" xlink:href="#d"/><use x="1527.982" xlink:href="#O"/><use x="1587.162" xlink:href="#F"/><use x="1639.262" xlink:href="#P"/></g></g></g></svg>