<svg height="758.4" stroke-linejoin="round" viewBox="0 0 568.8 568.8" width="758.4" xmlns="http://www.w3.org/2000/svg" xmlns:xlink="http://www.w3.org/1999/xlink"><defs><path id="x" d="M4.203 54.688h8.985l11.234-42.672 11.172 42.672h10.593l11.235-42.672 11.187 42.672h8.985L63.28 0H52.688L40.922 44.828 29.109 0H18.5z" stroke-linejoin="round"/><path id="V" d="M9.813 72.906h13.28l32.329-60.984v60.984h9.562V0h-13.28L19.39 60.984V0H9.813z" stroke-linejoin="round"/><path id="b" d="M0 0v3.5" stroke="#000" stroke-linejoin="round" stroke-width=".8"/><path id="c" d="M9.813 72.906h14.703l18.593-49.61 18.703 49.61h14.704V0H66.89v64.016l-18.797-50h-9.907l-18.796 50V0H9.813z" stroke-linejoin="round"/><path id="d" d="M34.281 27.484q-10.89 0-15.093-2.484-4.204-2.484-4.204-8.5 0-4.781 3.157-7.594 3.156-2.797 8.562-2.797 7.485 0 12 5.297 4.516 5.297 4.516 14.078v2zm17.922 3.72V0H43.22v8.297Q40.14 3.328 35.547.953q-4.594-2.375-11.234-2.375-8.391 0-13.36 4.719Q6 8.016 6 15.922q0 9.219 6.172 13.906 6.187 4.688 18.437 4.688h12.61v.89q0 6.203-4.078 9.594-4.078 3.39-11.453 3.39-4.688 0-9.141-1.124-4.438-1.125-8.531-3.375v8.312q4.921 1.906 9.562 2.844 4.64.953 9.031.953 11.875 0 17.735-6.156 5.86-6.14 5.86-18.64z" stroke-linejoin="round"/><path id="e" d="M41.11 46.297q-1.516.875-3.297 1.281Q36.03 48 33.89 48q-7.625 0-11.703-4.953-4.079-4.953-4.079-14.234V0H9.08v54.688h9.03v-8.5q2.844 4.984 7.375 7.39Q30.031 56 36.531 56q.922 0 2.047-.125 1.125-.11 2.484-.36z" stroke-linejoin="round"/><path id="f" d="M19.188 8.297h34.421V0H7.33v8.297q5.609 5.812 15.296 15.594 9.703 9.797 12.188 12.64 4.734 5.313 6.609 9 1.89 3.688 1.89 7.25 0 5.813-4.078 9.469-4.078 3.672-10.625 3.672-4.64 0-9.797-1.61-5.14-1.609-11-4.89v9.969Q13.767 71.78 18.938 73q5.188 1.219 9.485 1.219 11.328 0 18.062-5.672 6.735-5.656 6.735-15.125 0-4.5-1.688-8.531-1.672-4.016-6.125-9.485-1.218-1.422-7.765-8.187-6.532-6.766-18.453-18.922z" stroke-linejoin="round"/><path id="g" d="M31.781 66.406q-7.61 0-11.453-7.5Q16.5 51.422 16.5 36.375q0-14.984 3.828-22.484 3.844-7.5 11.453-7.5 7.672 0 11.5 7.5 3.844 7.5 3.844 22.484 0 15.047-3.844 22.531-3.828 7.5-11.5 7.5zm0 7.813q12.266 0 18.735-9.703 6.468-9.688 6.468-28.141 0-18.406-6.468-28.11-6.47-9.687-18.735-9.687-12.25 0-18.718 9.688-6.47 9.703-6.47 28.109 0 18.453 6.47 28.14Q19.53 74.22 31.78 74.22z" stroke-linejoin="round"/><path id="h" d="M34.188 63.188L20.797 26.906h26.812zm-5.579 9.718h11.188L67.578 0h-10.25l-6.64 18.703h-32.86L11.188 0H.78z" stroke-linejoin="round"/><path id="i" d="M18.11 8.203v-29H9.077v75.484h9.031v-8.296q2.844 4.875 7.157 7.234Q29.594 56 35.594 56q9.968 0 16.187-7.906 6.235-7.907 6.235-20.797T51.78 6.484q-6.218-7.906-16.187-7.906-6 0-10.328 2.375-4.313 2.375-7.157 7.25zm30.578 19.094q0 9.906-4.079 15.547-4.078 5.64-11.203 5.64-7.14 0-11.218-5.64-4.079-5.64-4.079-15.547 0-9.906 4.078-15.547 4.079-5.64 11.22-5.64 7.124 0 11.202 5.64t4.078 15.547z" stroke-linejoin="round"/><path id="j" d="M32.172-5.078q-3.797-9.766-7.422-12.735-3.61-2.984-9.656-2.984H7.906v7.516h5.282q3.703 0 5.75 1.765Q21-9.766 23.483-3.219l1.61 4.094-22.11 53.813H12.5l17.094-42.766 17.093 42.766h9.516z" stroke-linejoin="round"/><path id="k" d="M12.406 8.297h16.11v55.625l-17.532-3.516v8.985l17.438 3.515h9.86V8.296H54.39V0H12.406z" stroke-linejoin="round"/><path id="l" d="M0 0v2" stroke="#000" stroke-linejoin="round" stroke-width=".6"/><path id="m" d="M10.984 1.516V10.5q3.72-1.766 7.516-2.688 3.813-.921 7.484-.921 9.766 0 14.907 6.562 5.156 6.563 5.89 19.953-2.828-4.203-7.187-6.453-4.344-2.25-9.61-2.25-10.937 0-17.312 6.61-6.375 6.625-6.375 18.109 0 11.219 6.64 18 6.641 6.797 17.672 6.797 12.657 0 19.313-9.703 6.672-9.688 6.672-28.141 0-17.234-8.188-27.516Q40.234-1.42 26.422-1.42q-3.719 0-7.531.734-3.797.734-7.907 2.203zM30.61 32.422q6.641 0 10.516 4.531 3.89 4.547 3.89 12.469 0 7.86-3.89 12.422-3.875 4.562-10.516 4.562-6.64 0-10.515-4.562-3.875-4.563-3.875-12.422 0-7.922 3.875-12.469 3.875-4.531 10.515-4.531z" stroke-linejoin="round"/><path id="n" d="M33.016 40.375q-6.641 0-10.532-4.547-3.875-4.531-3.875-12.437 0-7.86 3.875-12.438 3.891-4.562 10.532-4.562 6.64 0 10.515 4.562 3.875 4.578 3.875 12.438 0 7.906-3.875 12.437-3.875 4.547-10.515 4.547zm19.578 30.922v-8.984q-3.719 1.75-7.5 2.671-3.782.938-7.5.938-9.766 0-14.922-6.594-5.14-6.594-5.875-19.922 2.875 4.25 7.219 6.516 4.359 2.266 9.578 2.266 10.984 0 17.36-6.672 6.374-6.657 6.374-18.125 0-11.235-6.64-18.032-6.641-6.78-17.672-6.78-12.657 0-19.344 9.687-6.688 9.703-6.688 28.109 0 17.281 8.204 27.563 8.203 10.28 22.015 10.28 3.719 0 7.5-.734t7.89-2.187z" stroke-linejoin="round"/><path id="o" d="M40.578 39.313Q47.656 37.797 51.625 33q3.984-4.781 3.984-11.813 0-10.78-7.422-16.703-7.421-5.906-21.093-5.906-4.578 0-9.438.906-4.86.907-10.031 2.72v9.515q4.094-2.39 8.969-3.61 4.89-1.218 10.218-1.218 9.266 0 14.125 3.656 4.86 3.656 4.86 10.64 0 6.454-4.516 10.079-4.515 3.64-12.562 3.64h-8.5v8.11h8.89q7.266 0 11.125 2.906 3.86 2.906 3.86 8.375 0 5.61-3.985 8.61-3.968 3.015-11.39 3.015-4.063 0-8.703-.89-4.641-.876-10.203-2.72v8.782q5.624 1.562 10.53 2.344 4.907.78 9.25.78 11.235 0 17.766-5.109 6.547-5.093 6.547-13.78 0-6.063-3.468-10.235-3.47-4.172-9.86-5.782z" stroke-linejoin="round"/><path id="p" d="M8.203 72.906h46.875v-4.203L28.61 0H18.312L43.22 64.594H8.203z" stroke-linejoin="round"/><path id="q" d="M37.797 64.313L12.89 25.39h24.906zm-2.594 8.593H47.61V25.391h10.407v-8.203H47.609V0h-9.812v17.188H4.89v9.515z" stroke-linejoin="round"/><path id="r" d="M0 0h-3.5" stroke="#000" stroke-linejoin="round" stroke-width=".8"/><path id="s" d="M10.797 72.906h38.719v-8.312H19.828v-17.86q2.14.735 4.281 1.094 2.157.36 4.313.36 12.203 0 19.328-6.688 7.14-6.688 7.14-18.11 0-11.765-7.328-18.296-7.328-6.516-20.656-6.516-4.593 0-9.36.781-4.75.782-9.827 2.344v9.922q4.39-2.39 9.078-3.563 4.687-1.171 9.906-1.171 8.453 0 13.375 4.437 4.938 4.438 4.938 12.063 0 7.609-4.938 12.047-4.922 4.453-13.375 4.453-3.953 0-7.89-.875-3.922-.875-8.016-2.735z" stroke-linejoin="round"/><path id="t" d="M0 0h-2" stroke="#000" stroke-linejoin="round" stroke-width=".6"/><path id="u" d="M30.61 48.39q-7.22 0-11.422-5.64-4.204-5.64-4.204-15.453 0-9.813 4.172-15.453 4.188-5.64 11.453-5.64 7.188 0 11.375 5.655 4.203 5.672 4.203 15.438 0 9.719-4.203 15.406-4.187 5.688-11.375 5.688zm0 7.61q11.718 0 18.406-7.625 6.703-7.61 6.703-21.078 0-13.422-6.703-21.078-6.688-7.64-18.407-7.64-11.765 0-18.437 7.64-6.656 7.656-6.656 21.078 0 13.469 6.656 21.078Q18.844 56 30.609 56z" stroke-linejoin="round"/><path id="v" d="M9.422 75.984h8.984V0H9.422z" stroke-linejoin="round"/><path id="w" d="M45.406 46.39v29.594h8.985V0h-8.985v8.203Q42.578 3.328 38.25.953q-4.313-2.375-10.375-2.375-9.906 0-16.14 7.906-6.22 7.922-6.22 20.813 0 12.89 6.22 20.797Q17.968 56 27.874 56q6.063 0 10.375-2.375 4.328-2.36 7.156-7.234zm-30.61-19.093q0-9.906 4.079-15.547 4.078-5.64 11.203-5.64 7.125 0 11.219 5.64 4.11 5.64 4.11 15.547 0 9.906-4.11 15.547-4.094 5.64-11.219 5.64-7.125 0-11.203-5.64-4.078-5.64-4.078-15.547z" stroke-linejoin="round"/><path id="T" d="M8.016 75.875h7.812q7.313-11.516 10.953-22.563 3.64-11.03 3.64-21.921 0-10.938-3.64-22.016-3.64-11.078-10.953-22.563H8.016Q14.5-2 17.703 9.063q3.203 11.063 3.203 22.329 0 11.28-3.203 22.265-3.203 11-9.687 22.219z" stroke-linejoin="round"/><path id="y" d="M9.422 54.688h8.984V0H9.422zm0 21.296h8.984v-11.39H9.422z" stroke-linejoin="round"/><path id="z" d="M56.203 29.594v-4.39H14.891q.593-9.282 5.593-14.142 5-4.859 13.938-4.859 5.172 0 10.031 1.266 4.86 1.265 9.656 3.812v-8.5Q49.266.734 44.187-.344 39.11-1.422 33.892-1.422q-13.094 0-20.735 7.61-7.64 7.625-7.64 20.625 0 13.421 7.25 21.296Q20.016 56 32.328 56q11.031 0 17.453-7.11 6.422-7.093 6.422-19.296zm-8.984 2.64q-.094 7.36-4.125 11.75-4.032 4.407-10.672 4.407-7.516 0-12.031-4.25-4.516-4.25-5.203-11.97z" stroke-linejoin="round"/><path id="A" d="M-3 0h6M0 3v-6" stroke="#1f77b4" stroke-linejoin="round"/><path id="B" d="M0 1.5a1.5 1.5 0 100-3 1.5 1.5 0 000 3z" stroke="#ff7f0e" stroke-linejoin="round"/><path id="C" d="M-3 0h6M0 3v-6" stroke="#d62728" stroke-linejoin="round"/><path id="D" d="M0 1.5a1.5 1.5 0 100-3 1.5 1.5 0 000 3z" stroke="#9467bd" stroke-linejoin="round"/><path id="E" d="M48.781 52.594v-8.407q-3.812 2.11-7.64 3.157-3.828 1.047-7.735 1.047-8.75 0-13.593-5.547-4.829-5.532-4.829-15.547 0-10.016 4.829-15.563 4.843-5.53 13.593-5.53 3.907 0 7.735 1.046 3.828 1.047 7.64 3.156V2.094Q45.016.344 40.984-.531q-4.015-.89-8.562-.89-12.36 0-19.64 7.765-7.266 7.765-7.266 20.953 0 13.375 7.343 21.031Q20.22 56 33.016 56q4.14 0 8.093-.86 3.953-.843 7.672-2.546z" stroke-linejoin="round"/><path id="F" d="M18.313 70.219V54.688h18.5v-6.985h-18.5V18.016q0-6.688 1.828-8.594 1.828-1.906 7.453-1.906h9.218V0h-9.218q-10.407 0-14.36 3.875-3.953 3.89-3.953 14.14v29.688H2.687v6.984h6.594V70.22z" stroke-linejoin="round"/><path id="G" d="M64.406 67.281v-10.39q-4.984 4.64-10.625 6.922-5.64 2.296-11.984 2.296-12.5 0-19.14-7.64-6.641-7.64-6.641-22.094 0-14.406 6.64-22.047 6.64-7.64 19.14-7.64 6.345 0 11.985 2.296 5.64 2.297 10.625 6.938V5.609Q59.234 2.094 53.437.33q-5.78-1.75-12.218-1.75-16.563 0-26.094 10.124-9.516 10.14-9.516 27.672 0 17.578 9.516 27.703 9.531 10.14 26.094 10.14 6.531 0 12.312-1.734 5.797-1.734 10.875-5.203z" stroke-linejoin="round"/><path id="H" d="M9.813 72.906h9.859V0h-9.86z" stroke-linejoin="round"/><path id="I" d="M4.89 31.39h26.313v-8H4.891z" stroke-linejoin="round"/><path id="J" d="M44.281 53.078v-8.5q-3.797 1.953-7.906 2.922-4.094.984-8.5.984-6.688 0-10.031-2.047-3.344-2.046-3.344-6.156 0-3.125 2.39-4.906 2.391-1.781 9.626-3.39l3.078-.688q9.562-2.047 13.593-5.781 4.032-3.735 4.032-10.422 0-7.625-6.032-12.078-6.03-4.438-16.578-4.438-4.39 0-9.156.86Q10.688.296 5.422 2v9.281q4.984-2.594 9.812-3.89 4.829-1.282 9.579-1.282 6.343 0 9.75 2.172 3.421 2.172 3.421 6.125 0 3.656-2.468 5.61-2.453 1.953-10.813 3.765l-3.125.735q-8.344 1.75-12.062 5.39-3.704 3.64-3.704 9.985 0 7.718 5.47 11.906Q16.75 56 26.811 56q4.97 0 9.36-.734 4.406-.72 8.11-2.188z" stroke-linejoin="round"/><path id="K" d="M37.11 75.984V68.5h-8.594q-4.828 0-6.72-1.953-1.874-1.953-1.874-7.031v-4.828h14.797v-6.985H19.922V0H10.89v47.703H2.297v6.984h8.594V58.5q0 9.125 4.25 13.297 4.25 4.187 13.468 4.187z" stroke-linejoin="round"/><path id="L" d="M31.781 34.625q-7.031 0-11.062-3.766-4.016-3.765-4.016-10.343 0-6.594 4.016-10.36Q24.75 6.391 31.78 6.391q7.032 0 11.078 3.78 4.063 3.798 4.063 10.345 0 6.578-4.031 10.343-4.016 3.766-11.11 3.766zm-9.86 4.188q-6.343 1.562-9.89 5.906Q8.5 49.079 8.5 55.329q0 8.733 6.219 13.812 6.234 5.078 17.062 5.078 10.89 0 17.094-5.078 6.203-5.079 6.203-13.813 0-6.25-3.547-10.61-3.531-4.343-9.828-5.906 7.125-1.656 11.094-6.5 3.984-4.828 3.984-11.796 0-10.61-6.468-16.282-6.47-5.656-18.532-5.656-12.047 0-18.531 5.656-6.469 5.672-6.469 16.282 0 6.968 4 11.797 4.016 4.843 11.14 6.5zM18.314 54.39q0-5.657 3.53-8.828 3.548-3.172 9.938-3.172 6.36 0 9.938 3.172 3.593 3.171 3.593 8.828 0 5.672-3.593 8.843-3.578 3.172-9.938 3.172-6.39 0-9.937-3.172-3.532-3.172-3.532-8.843z" stroke-linejoin="round"/><path id="M" d="M8.688 72.906h9.921V28.61q0-11.718 4.235-16.875 4.25-5.14 13.781-5.14 9.469 0 13.719 5.14 4.25 5.157 4.25 16.875v44.297H64.5V27.391q0-14.25-7.063-21.532-7.046-7.28-20.812-7.28-13.828 0-20.89 7.28-7.047 7.282-7.047 21.532z" stroke-linejoin="round"/><path id="N" d="M53.516 70.516V60.89q-5.61 2.687-10.594 4-4.984 1.328-9.625 1.328-8.047 0-12.422-3.125t-4.375-8.89q0-4.845 2.906-7.313 2.907-2.453 11.016-3.97l5.953-1.218q11.031-2.11 16.281-7.406 5.25-5.297 5.25-14.172 0-10.61-7.11-16.078-7.093-5.469-20.812-5.469-5.172 0-11.015 1.172Q13.14.922 6.89 3.219v10.156q6-3.36 11.765-5.078 5.766-1.703 11.328-1.703 8.438 0 13.032 3.312 4.593 3.328 4.593 9.485 0 5.359-3.297 8.39-3.296 3.032-10.812 4.547L27.484 33.5q-11.03 2.188-15.968 6.875-4.922 4.688-4.922 13.047 0 9.672 6.812 15.234 6.813 5.563 18.766 5.563 5.14 0 10.453-.938 5.328-.922 10.89-2.765z" stroke-linejoin="round"/><path id="O" d="M31 75.875q-6.531-11.219-9.719-22.219-3.172-10.984-3.172-22.265 0-11.266 3.203-22.328Q24.517-2 31-13.188h-7.813Q15.875-1.704 12.235 9.375q-3.64 11.078-3.64 22.016 0 10.89 3.61 21.922 3.624 11.046 10.983 22.562z" stroke-linejoin="round"/><path id="P" d="M8.5 21.578v33.11h8.984V21.922q0-7.766 3.016-11.656 3.031-3.875 9.094-3.875 7.265 0 11.484 4.64 4.234 4.64 4.234 12.656v31h8.985V0h-8.984v8.406Q42.047 3.422 37.718 1q-4.313-2.422-10.032-2.422-9.421 0-14.312 5.86Q8.5 10.296 8.5 21.578z" stroke-linejoin="round"/><path id="Q" d="M48.688 27.297q0 9.906-4.079 15.547-4.078 5.64-11.203 5.64-7.14 0-11.218-5.64-4.079-5.64-4.079-15.547 0-9.906 4.078-15.547 4.079-5.64 11.22-5.64 7.124 0 11.202 5.64t4.078 15.547zM18.108 46.39q2.844 4.875 7.157 7.234Q29.594 56 35.594 56q9.968 0 16.187-7.906 6.235-7.907 6.235-20.797T51.78 6.484q-6.218-7.906-16.187-7.906-6 0-10.328 2.375-4.313 2.375-7.157 7.25V0H9.08v75.984h9.03z" stroke-linejoin="round"/><path id="R" d="M54.89 33.016V0h-8.984v32.719q0 7.765-3.031 11.61-3.031 3.858-9.078 3.858-7.281 0-11.484-4.64-4.204-4.625-4.204-12.64V0H9.08v54.688h9.03v-8.5q3.235 4.937 7.594 7.374Q30.078 56 35.797 56q9.422 0 14.25-5.828 4.844-5.828 4.844-17.156z" stroke-linejoin="round"/><path id="S" d="M10.688 12.406H21V0H10.687z" stroke-linejoin="round"/><clipPath id="U" stroke-linejoin="round"><path d="M50.15 297.12h501.46v208.808H50.15z"/></clipPath><clipPath id="a" stroke-linejoin="round"><path d="M50.15 25.44h501.46v208.808H50.15z"/></clipPath></defs><path d="M0 568.8h568.8V0H0z" fill="#fff"/><path d="M50.15 234.248h501.46V25.44H50.15z" fill="#fff"/><path clip-path="url(#a)" d="M50.15 234.248V25.44" fill="none" stroke="#b0b0b0" stroke-linecap="square" stroke-width=".8"/><use stroke="#000" stroke-width=".8" x="50.15" xlink:href="#b" y="234.248"/><g transform="matrix(.1 0 0 -.1 40.717 271.242)"><use xlink:href="#c"/><use x="86.279" xlink:href="#d"/><use x="147.559" xlink:href="#e"/></g><g transform="matrix(.1 0 0 -.1 37.425 282.44)"><use xlink:href="#f"/><use x="63.623" xlink:href="#g"/><use x="127.246" xlink:href="#f"/><use x="190.869" xlink:href="#g"/></g><path clip-path="url(#a)" d="M269.097 234.248V25.44" fill="none" stroke="#b0b0b0" stroke-linecap="square" stroke-width=".8"/><use stroke="#000" stroke-width=".8" x="269.097" xlink:href="#b" y="234.248"/><g transform="matrix(.1 0 0 -.1 260.447 271.242)"><use xlink:href="#h"/><use x="68.408" xlink:href="#i"/><use x="131.885" xlink:href="#e"/></g><path clip-path="url(#a)" d="M480.982 234.248V25.44" fill="none" stroke="#b0b0b0" stroke-linecap="square" stroke-width=".8"/><use stroke="#000" stroke-width=".8" x="480.982" xlink:href="#b" y="234.248"/><g transform="matrix(.1 0 0 -.1 470.644 271.242)"><use xlink:href="#c"/><use x="86.279" xlink:href="#d"/><use x="147.559" xlink:href="#j"/></g><path clip-path="url(#a)" d="M551.61 234.248V25.44" fill="none" stroke="#b0b0b0" stroke-linecap="square" stroke-width=".8"/><use stroke="#000" stroke-width=".8" x="551.61" xlink:href="#b" y="234.248"/><g transform="matrix(.1 0 0 -.1 545.247 248.846)"><use xlink:href="#k"/><use x="63.623" xlink:href="#k"/></g><use stroke="#000" stroke-width=".6" x="57.213" xlink:href="#l" y="234.248"/><g transform="matrix(.1 0 0 -.1 50.85 247.246)"><use xlink:href="#g"/><use x="63.623" xlink:href="#f"/></g><g stroke="#000" stroke-width=".6"><use x="64.276" xlink:href="#l" y="234.248"/><use x="71.339" xlink:href="#l" y="234.248"/><use x="78.401" xlink:href="#l" y="234.248"/><use x="85.464" xlink:href="#l" y="234.248"/><use x="92.527" xlink:href="#l" y="234.248"/><use x="99.59" xlink:href="#l" y="234.248"/></g><use stroke="#000" stroke-width=".6" x="106.653" xlink:href="#l" y="234.248"/><g transform="matrix(.1 0 0 -.1 100.29 247.246)"><use xlink:href="#g"/><use x="63.623" xlink:href="#m"/></g><g stroke="#000" stroke-width=".6"><use x="113.716" xlink:href="#l" y="234.248"/><use x="120.778" xlink:href="#l" y="234.248"/><use x="127.841" xlink:href="#l" y="234.248"/><use x="134.904" xlink:href="#l" y="234.248"/><use x="141.967" xlink:href="#l" y="234.248"/><use x="149.03" xlink:href="#l" y="234.248"/><use x="156.092" xlink:href="#l" y="234.248"/></g><g transform="matrix(.1 0 0 -.1 149.73 247.246)"><use xlink:href="#k"/><use x="63.623" xlink:href="#n"/></g><g stroke="#000" stroke-width=".6"><use x="163.155" xlink:href="#l" y="234.248"/><use x="170.218" xlink:href="#l" y="234.248"/><use x="177.281" xlink:href="#l" y="234.248"/><use x="184.344" xlink:href="#l" y="234.248"/><use x="191.406" xlink:href="#l" y="234.248"/><use x="198.469" xlink:href="#l" y="234.248"/><use x="205.532" xlink:href="#l" y="234.248"/></g><g transform="matrix(.1 0 0 -.1 199.17 247.246)"><use xlink:href="#f"/><use x="63.623" xlink:href="#o"/></g><g stroke="#000" stroke-width=".6"><use x="212.595" xlink:href="#l" y="234.248"/><use x="219.658" xlink:href="#l" y="234.248"/><use x="226.721" xlink:href="#l" y="234.248"/><use x="233.783" xlink:href="#l" y="234.248"/><use x="240.846" xlink:href="#l" y="234.248"/><use x="247.909" xlink:href="#l" y="234.248"/><use x="254.972" xlink:href="#l" y="234.248"/></g><g transform="matrix(.1 0 0 -.1 248.61 247.246)"><use xlink:href="#o"/><use x="63.623" xlink:href="#g"/></g><g stroke="#000" stroke-width=".6"><use x="262.035" xlink:href="#l" y="234.248"/><use x="276.16" xlink:href="#l" y="234.248"/><use x="283.223" xlink:href="#l" y="234.248"/><use x="290.286" xlink:href="#l" y="234.248"/><use x="297.349" xlink:href="#l" y="234.248"/><use x="304.412" xlink:href="#l" y="234.248"/></g><g transform="matrix(.1 0 0 -.1 298.049 247.246)"><use xlink:href="#g"/><use x="63.623" xlink:href="#n"/></g><g stroke="#000" stroke-width=".6"><use x="311.474" xlink:href="#l" y="234.248"/><use x="318.537" xlink:href="#l" y="234.248"/><use x="325.6" xlink:href="#l" y="234.248"/><use x="332.663" xlink:href="#l" y="234.248"/><use x="339.726" xlink:href="#l" y="234.248"/><use x="346.788" xlink:href="#l" y="234.248"/><use x="353.851" xlink:href="#l" y="234.248"/></g><g transform="matrix(.1 0 0 -.1 347.489 247.246)"><use xlink:href="#k"/><use x="63.623" xlink:href="#o"/></g><g stroke="#000" stroke-width=".6"><use x="360.914" xlink:href="#l" y="234.248"/><use x="367.977" xlink:href="#l" y="234.248"/><use x="375.04" xlink:href="#l" y="234.248"/><use x="382.102" xlink:href="#l" y="234.248"/><use x="389.165" xlink:href="#l" y="234.248"/><use x="396.228" xlink:href="#l" y="234.248"/><use x="403.291" xlink:href="#l" y="234.248"/></g><g transform="matrix(.1 0 0 -.1 396.928 247.246)"><use xlink:href="#f"/><use x="63.623" xlink:href="#g"/></g><g stroke="#000" stroke-width=".6"><use x="410.354" xlink:href="#l" y="234.248"/><use x="417.417" xlink:href="#l" y="234.248"/><use x="424.479" xlink:href="#l" y="234.248"/><use x="431.542" xlink:href="#l" y="234.248"/><use x="438.605" xlink:href="#l" y="234.248"/><use x="445.668" xlink:href="#l" y="234.248"/><use x="452.731" xlink:href="#l" y="234.248"/></g><g transform="matrix(.1 0 0 -.1 446.368 247.246)"><use xlink:href="#f"/><use x="63.623" xlink:href="#p"/></g><g stroke="#000" stroke-width=".6"><use x="459.793" xlink:href="#l" y="234.248"/><use x="466.856" xlink:href="#l" y="234.248"/><use x="473.919" xlink:href="#l" y="234.248"/><use x="488.045" xlink:href="#l" y="234.248"/><use x="495.107" xlink:href="#l" y="234.248"/><use x="502.17" xlink:href="#l" y="234.248"/></g><g transform="matrix(.1 0 0 -.1 495.808 247.246)"><use xlink:href="#g"/><use x="63.623" xlink:href="#q"/></g><g stroke="#000" stroke-width=".6"><use x="509.233" xlink:href="#l" y="234.248"/><use x="516.296" xlink:href="#l" y="234.248"/><use x="523.359" xlink:href="#l" y="234.248"/><use x="530.422" xlink:href="#l" y="234.248"/><use x="537.484" xlink:href="#l" y="234.248"/><use x="544.547" xlink:href="#l" y="234.248"/></g><path clip-path="url(#a)" d="M50.15 234.248h501.46" fill="none" stroke="#b0b0b0" stroke-linecap="square" stroke-width=".8"/><use stroke="#000" stroke-width=".8" x="50.15" xlink:href="#r" y="234.248"/><g transform="matrix(.1 0 0 -.1 25.55 238.047)"><use transform="translate(0 .684)" xlink:href="#k"/><use transform="translate(63.623 .684)" xlink:href="#g"/><use transform="matrix(.7 0 0 .7 128.203 38.966)" xlink:href="#k"/></g><path clip-path="url(#a)" d="M50.15 195.097h501.46" fill="none" stroke="#b0b0b0" stroke-linecap="square" stroke-width=".8"/><use stroke="#000" stroke-width=".8" x="50.15" xlink:href="#r" y="195.097"/><g transform="matrix(.1 0 0 -.1 25.55 198.896)"><use transform="translate(0 .766)" xlink:href="#k"/><use transform="translate(63.623 .766)" xlink:href="#g"/><use transform="matrix(.7 0 0 .7 128.203 39.047)" xlink:href="#f"/></g><path clip-path="url(#a)" d="M50.15 155.945h501.46" fill="none" stroke="#b0b0b0" stroke-linecap="square" stroke-width=".8"/><use stroke="#000" stroke-width=".8" x="50.15" xlink:href="#r" y="155.945"/><g transform="matrix(.1 0 0 -.1 25.55 159.745)"><use transform="translate(0 .766)" xlink:href="#k"/><use transform="translate(63.623 .766)" xlink:href="#g"/><use transform="matrix(.7 0 0 .7 128.203 39.047)" xlink:href="#o"/></g><path clip-path="url(#a)" d="M50.15 116.794h501.46" fill="none" stroke="#b0b0b0" stroke-linecap="square" stroke-width=".8"/><use stroke="#000" stroke-width=".8" x="50.15" xlink:href="#r" y="116.794"/><g transform="matrix(.1 0 0 -.1 25.55 120.593)"><use transform="translate(0 .684)" xlink:href="#k"/><use transform="translate(63.623 .684)" xlink:href="#g"/><use transform="matrix(.7 0 0 .7 128.203 38.966)" xlink:href="#q"/></g><path clip-path="url(#a)" d="M50.15 77.643h501.46" fill="none" stroke="#b0b0b0" stroke-linecap="square" stroke-width=".8"/><use stroke="#000" stroke-width=".8" x="50.15" xlink:href="#r" y="77.643"/><g transform="matrix(.1 0 0 -.1 25.55 81.442)"><use transform="translate(0 .684)" xlink:href="#k"/><use transform="translate(63.623 .684)" xlink:href="#g"/><use transform="matrix(.7 0 0 .7 128.203 38.966)" xlink:href="#s"/></g><path clip-path="url(#a)" d="M50.15 38.491h501.46" fill="none" stroke="#b0b0b0" stroke-linecap="square" stroke-width=".8"/><use stroke="#000" stroke-width=".8" x="50.15" xlink:href="#r" y="38.491"/><g transform="matrix(.1 0 0 -.1 25.55 42.29)"><use transform="translate(0 .766)" xlink:href="#k"/><use transform="translate(63.623 .766)" xlink:href="#g"/><use transform="matrix(.7 0 0 .7 128.203 39.047)" xlink:href="#n"/></g><g stroke="#000" stroke-width=".6"><use x="50.15" xlink:href="#t" y="222.462"/><use x="50.15" xlink:href="#t" y="215.568"/><use x="50.15" xlink:href="#t" y="210.677"/><use x="50.15" xlink:href="#t" y="206.882"/><use x="50.15" xlink:href="#t" y="203.782"/><use x="50.15" xlink:href="#t" y="201.161"/><use x="50.15" xlink:href="#t" y="198.891"/><use x="50.15" xlink:href="#t" y="196.888"/><use x="50.15" xlink:href="#t" y="183.311"/><use x="50.15" xlink:href="#t" y="176.417"/><use x="50.15" xlink:href="#t" y="171.525"/><use x="50.15" xlink:href="#t" y="167.731"/><use x="50.15" xlink:href="#t" y="164.631"/><use x="50.15" xlink:href="#t" y="162.01"/><use x="50.15" xlink:href="#t" y="159.74"/><use x="50.15" xlink:href="#t" y="157.737"/><use x="50.15" xlink:href="#t" y="144.16"/><use x="50.15" xlink:href="#t" y="137.265"/><use x="50.15" xlink:href="#t" y="132.374"/><use x="50.15" xlink:href="#t" y="128.58"/><use x="50.15" xlink:href="#t" y="125.48"/><use x="50.15" xlink:href="#t" y="122.859"/><use x="50.15" xlink:href="#t" y="120.588"/><use x="50.15" xlink:href="#t" y="118.586"/><use x="50.15" xlink:href="#t" y="105.008"/><use x="50.15" xlink:href="#t" y="98.114"/><use x="50.15" xlink:href="#t" y="93.223"/><use x="50.15" xlink:href="#t" y="89.428"/><use x="50.15" xlink:href="#t" y="86.328"/><use x="50.15" xlink:href="#t" y="83.707"/><use x="50.15" xlink:href="#t" y="81.437"/><use x="50.15" xlink:href="#t" y="79.434"/><use x="50.15" xlink:href="#t" y="65.857"/><use x="50.15" xlink:href="#t" y="58.963"/><use x="50.15" xlink:href="#t" y="54.071"/><use x="50.15" xlink:href="#t" y="50.277"/><use x="50.15" xlink:href="#t" y="47.177"/><use x="50.15" xlink:href="#t" y="44.556"/><use x="50.15" xlink:href="#t" y="42.286"/><use x="50.15" xlink:href="#t" y="40.283"/><use x="50.15" xlink:href="#t" y="26.706"/></g><g transform="matrix(0 -.1 -.1 0 19.47 156.19)"><path d="M3.328 72.906h9.953L28.61 11.281l15.282 61.625h11.093l15.328-61.625 15.282 61.625h10.015L77.297 0H64.89L49.516 63.281 33.984 0H21.578z"/><use x="98.799" xlink:href="#u"/><use x="159.98" xlink:href="#e"/><use x="201.094" xlink:href="#v"/><use x="228.877" xlink:href="#w"/><use x="292.354" xlink:href="#x"/><use x="374.141" xlink:href="#y"/><use x="401.924" xlink:href="#w"/><use x="465.4" xlink:href="#z"/></g><g stroke="#1f77b4"><path clip-path="url(#a)" d="M-1 215.568H.71l7.063-7.991 7.063.357 7.063-2.042 7.063-.318 7.063-.312 7.062-2.037 7.063-1.57 7.063-4.385 7.063-3.324 7.063-3.826 7.062-6.894 7.063-4.112 7.063-7.245 7.063-4.408 7.063-2.106 7.063-8.047 7.062-4.979 7.063-4.492 7.063-4.668 7.063-3.858 7.063-4.293 7.062-4.76 7.063-5.597 7.063-3.115 7.063-9.693 7.063-5.711 7.062-4.952 7.063-4.912 7.063-4.329 7.063-3.409 7.063-3.435 7.063-4.077 7.062-3.25 7.063-3.002 7.063-2.334 7.063-2.053 7.063-2.481 7.062-2.063 7.063-2.266 7.063-2.104 7.063-1.687 7.063-1.383 7.063-1.384 7.062-1.24 7.063-1.314 7.063-1.207 7.063-1.16 7.063-.939 7.062-.894 7.063-.446 7.063-.665 7.063-.682 7.063-.726 7.062-.695 7.063-.67 7.063-.517 7.063-.563 7.063-.557 7.063-.58 7.062-.532 7.063-.348 7.063-.657 7.063-.426 7.063-.348 7.062-.364 7.063-.4 7.063.114 7.063-.433 7.063-.314 7.062-.367 7.063-.26 7.063-.35 7.063-.388 7.063-.367 7.063-.366" fill="none" stroke-linecap="square" stroke-width="1.5"/><g clip-path="url(#a)" fill="#1f77b4"><use x="-1" xlink:href="#A" y="215.568"/><use x=".711" xlink:href="#A" y="215.568"/><use x="7.773" xlink:href="#A" y="207.577"/><use x="14.836" xlink:href="#A" y="207.934"/><use x="21.899" xlink:href="#A" y="205.892"/><use x="28.962" xlink:href="#A" y="205.574"/><use x="36.025" xlink:href="#A" y="205.262"/><use x="43.087" xlink:href="#A" y="203.225"/><use x="50.15" xlink:href="#A" y="201.654"/><use x="57.213" xlink:href="#A" y="197.27"/><use x="64.276" xlink:href="#A" y="193.946"/><use x="71.339" xlink:href="#A" y="190.12"/><use x="78.401" xlink:href="#A" y="183.226"/><use x="85.464" xlink:href="#A" y="179.114"/><use x="92.527" xlink:href="#A" y="171.869"/><use x="99.59" xlink:href="#A" y="167.461"/><use x="106.653" xlink:href="#A" y="165.355"/><use x="113.716" xlink:href="#A" y="157.308"/><use x="120.778" xlink:href="#A" y="152.329"/><use x="127.841" xlink:href="#A" y="147.837"/><use x="134.904" xlink:href="#A" y="143.169"/><use x="141.967" xlink:href="#A" y="139.311"/><use x="149.03" xlink:href="#A" y="135.018"/><use x="156.092" xlink:href="#A" y="130.258"/><use x="163.155" xlink:href="#A" y="124.661"/><use x="170.218" xlink:href="#A" y="121.546"/><use x="177.281" xlink:href="#A" y="111.853"/><use x="184.344" xlink:href="#A" y="106.142"/><use x="191.406" xlink:href="#A" y="101.19"/><use x="198.469" xlink:href="#A" y="96.278"/><use x="205.532" xlink:href="#A" y="91.949"/><use x="212.595" xlink:href="#A" y="88.54"/><use x="219.658" xlink:href="#A" y="85.105"/><use x="226.721" xlink:href="#A" y="81.028"/><use x="233.783" xlink:href="#A" y="77.778"/><use x="240.846" xlink:href="#A" y="74.776"/><use x="247.909" xlink:href="#A" y="72.442"/><use x="254.972" xlink:href="#A" y="70.389"/><use x="262.035" xlink:href="#A" y="67.908"/><use x="269.097" xlink:href="#A" y="65.845"/><use x="276.16" xlink:href="#A" y="63.579"/><use x="283.223" xlink:href="#A" y="61.475"/><use x="290.286" xlink:href="#A" y="59.788"/><use x="297.349" xlink:href="#A" y="58.405"/><use x="304.412" xlink:href="#A" y="57.021"/><use x="311.474" xlink:href="#A" y="55.781"/><use x="318.537" xlink:href="#A" y="54.467"/><use x="325.6" xlink:href="#A" y="53.26"/><use x="332.663" xlink:href="#A" y="52.1"/><use x="339.726" xlink:href="#A" y="51.161"/><use x="346.788" xlink:href="#A" y="50.267"/><use x="353.851" xlink:href="#A" y="49.821"/><use x="360.914" xlink:href="#A" y="49.156"/><use x="367.977" xlink:href="#A" y="48.474"/><use x="375.04" xlink:href="#A" y="47.748"/><use x="382.102" xlink:href="#A" y="47.053"/><use x="389.165" xlink:href="#A" y="46.383"/><use x="396.228" xlink:href="#A" y="45.866"/><use x="403.291" xlink:href="#A" y="45.303"/><use x="410.354" xlink:href="#A" y="44.746"/><use x="417.417" xlink:href="#A" y="44.166"/><use x="424.479" xlink:href="#A" y="43.634"/><use x="431.542" xlink:href="#A" y="43.286"/><use x="438.605" xlink:href="#A" y="42.629"/><use x="445.668" xlink:href="#A" y="42.203"/><use x="452.731" xlink:href="#A" y="41.855"/><use x="459.793" xlink:href="#A" y="41.491"/><use x="466.856" xlink:href="#A" y="41.091"/><use x="473.919" xlink:href="#A" y="41.205"/><use x="480.982" xlink:href="#A" y="40.772"/><use x="488.045" xlink:href="#A" y="40.458"/><use x="495.107" xlink:href="#A" y="40.091"/><use x="502.17" xlink:href="#A" y="39.83"/><use x="509.233" xlink:href="#A" y="39.48"/><use x="516.296" xlink:href="#A" y="39.093"/><use x="523.359" xlink:href="#A" y="38.726"/><use x="530.422" xlink:href="#A" y="38.36"/></g></g><g stroke="#ff7f0e"><path clip-path="url(#a)" d="M-1 273.4H.71l7.063-27.366H21.9l7.063-5.721 7.063-9.165 7.062-3.794 7.063-10.613 7.063-2.27 7.063-5.024 7.063-9.906 7.062-5.435 7.063-6.24 7.063-3.321 7.063-5.164 7.063-2.907 7.063-3.063 7.062-3.194h7.063l7.063-9.916 7.063-6.023 7.063-.015 7.062-4.915 7.063-3.872 7.063-5.13 7.063-.055 7.063-6.906 7.062-3.99 7.063-2.01 7.063-2.6 7.063-3.327 7.063-2.937 7.063-3.474 7.062-3.77 7.063-2.623 7.063-2.226 7.063-2.144 7.063-2.024 7.062-2.56 7.063-2.174 7.063-1.97 7.063-1.435 7.063-2.232 7.063-1.266 7.062-1.008 7.063-1.5 7.063-1.069 7.063-2.09 7.063-1.092 7.062-1.09 7.063-.889 7.063-.95 7.063-.771 7.063-.732 7.062-.876 7.063-.811 7.063-.874 7.063-.672 7.063-.507 7.063-.544 7.062-.569 7.063-.642 7.063-.547 7.063-.528 7.063-.495 7.062-.42 7.063.045 7.063-.641 7.063-.626 7.063-.468 7.062-.437 7.063-.392 7.063-.384 7.063-.55 7.063-.494 7.063-.381" fill="none" stroke-linecap="square" stroke-width="1.5"/><g clip-path="url(#a)" fill="#ff7f0e"><use x="-1" xlink:href="#B" y="273.399"/><use x=".711" xlink:href="#B" y="273.399"/><use x="7.773" xlink:href="#B" y="246.034"/><use x="14.836" xlink:href="#B" y="246.034"/><use x="21.899" xlink:href="#B" y="246.034"/><use x="28.962" xlink:href="#B" y="240.313"/><use x="36.025" xlink:href="#B" y="231.148"/><use x="43.087" xlink:href="#B" y="227.354"/><use x="50.15" xlink:href="#B" y="216.741"/><use x="57.213" xlink:href="#B" y="214.471"/><use x="64.276" xlink:href="#B" y="209.447"/><use x="71.339" xlink:href="#B" y="199.541"/><use x="78.401" xlink:href="#B" y="194.106"/><use x="85.464" xlink:href="#B" y="187.866"/><use x="92.527" xlink:href="#B" y="184.545"/><use x="99.59" xlink:href="#B" y="179.381"/><use x="106.653" xlink:href="#B" y="176.474"/><use x="113.716" xlink:href="#B" y="173.411"/><use x="120.778" xlink:href="#B" y="170.217"/><use x="127.841" xlink:href="#B" y="170.217"/><use x="134.904" xlink:href="#B" y="160.301"/><use x="141.967" xlink:href="#B" y="154.278"/><use x="149.03" xlink:href="#B" y="154.263"/><use x="156.092" xlink:href="#B" y="149.348"/><use x="163.155" xlink:href="#B" y="145.476"/><use x="170.218" xlink:href="#B" y="140.345"/><use x="177.281" xlink:href="#B" y="140.291"/><use x="184.344" xlink:href="#B" y="133.385"/><use x="191.406" xlink:href="#B" y="129.395"/><use x="198.469" xlink:href="#B" y="127.385"/><use x="205.532" xlink:href="#B" y="124.786"/><use x="212.595" xlink:href="#B" y="121.458"/><use x="219.658" xlink:href="#B" y="118.521"/><use x="226.721" xlink:href="#B" y="115.047"/><use x="233.783" xlink:href="#B" y="111.277"/><use x="240.846" xlink:href="#B" y="108.654"/><use x="247.909" xlink:href="#B" y="106.428"/><use x="254.972" xlink:href="#B" y="104.284"/><use x="262.035" xlink:href="#B" y="102.26"/><use x="269.097" xlink:href="#B" y="99.7"/><use x="276.16" xlink:href="#B" y="97.526"/><use x="283.223" xlink:href="#B" y="95.556"/><use x="290.286" xlink:href="#B" y="94.121"/><use x="297.349" xlink:href="#B" y="91.889"/><use x="304.412" xlink:href="#B" y="90.623"/><use x="311.474" xlink:href="#B" y="89.615"/><use x="318.537" xlink:href="#B" y="88.114"/><use x="325.6" xlink:href="#B" y="87.046"/><use x="332.663" xlink:href="#B" y="84.956"/><use x="339.726" xlink:href="#B" y="83.864"/><use x="346.788" xlink:href="#B" y="82.774"/><use x="353.851" xlink:href="#B" y="81.885"/><use x="360.914" xlink:href="#B" y="80.936"/><use x="367.977" xlink:href="#B" y="80.164"/><use x="375.04" xlink:href="#B" y="79.432"/><use x="382.102" xlink:href="#B" y="78.556"/><use x="389.165" xlink:href="#B" y="77.745"/><use x="396.228" xlink:href="#B" y="76.871"/><use x="403.291" xlink:href="#B" y="76.199"/><use x="410.354" xlink:href="#B" y="75.692"/><use x="417.417" xlink:href="#B" y="75.148"/><use x="424.479" xlink:href="#B" y="74.579"/><use x="431.542" xlink:href="#B" y="73.937"/><use x="438.605" xlink:href="#B" y="73.39"/><use x="445.668" xlink:href="#B" y="72.862"/><use x="452.731" xlink:href="#B" y="72.367"/><use x="459.793" xlink:href="#B" y="71.947"/><use x="466.856" xlink:href="#B" y="71.992"/><use x="473.919" xlink:href="#B" y="71.351"/><use x="480.982" xlink:href="#B" y="70.725"/><use x="488.045" xlink:href="#B" y="70.257"/><use x="495.107" xlink:href="#B" y="69.82"/><use x="502.17" xlink:href="#B" y="69.428"/><use x="509.233" xlink:href="#B" y="69.044"/><use x="516.296" xlink:href="#B" y="68.493"/><use x="523.359" xlink:href="#B" y="68"/><use x="530.422" xlink:href="#B" y="67.619"/></g></g><path clip-path="url(#a)" d="M-1 240.313h8.773l7.063 21.3 7.063-15.58 7.063-27.365 7.063-9.612 7.062-11.395 7.063-5.088 7.063-7.088 7.063-1.122 7.063-6.092 7.062-4.907 7.063-9.616 7.063-6.495 7.063-2.85 7.063-1.243 7.063-6.623 7.062-4.182h7.063l7.063-8.076 7.063-3.437 7.063-.127 7.062-6.57 7.063-2.511 7.063-2.843 7.063-3.037 7.063-2.3 7.062-2.055 7.063.499 7.063-4.18 7.063-1.136 7.063-1.877 7.063-1.997 7.062-1.962 7.063-2.668 7.063-.45 7.063-1.73 7.063-2.582 7.062-1.185 7.063.269 7.063-1.008 7.063-7.117 7.063-.404 7.063-.786 7.062-1.69 7.063-.299 7.063-.314 7.063-.873 7.063-.515 7.062-.294 7.063-.565 7.063 1.57 7.063.117 7.063-1.854 7.062.072 7.063.397 7.063-.706 7.063-.171 7.063-.086 7.063.744 7.062-.069 7.063.254 7.063-.04 7.063-.005 7.063-.482 7.062-.217 7.063.762 7.063.146 7.063.176 7.063-.283 7.062-.009 7.063.043 7.063.11 7.063-.37 7.063.108 7.063-.061" fill="none" stroke="#2ca02c" stroke-linecap="square" stroke-width="1.5"/><g stroke="#d62728"><path clip-path="url(#a)" d="M-1 192.045l1.71-3.843 7.063-6.589 7.063-5.809 7.063-5.822 7.063-5.151 7.063-5.532 7.062-4.232 7.063-6.867 7.063-2.576 7.063-3.565 7.063-3.04 7.062-3.354 7.063-2.93 7.063-4.361 7.063-3.957 7.063-3.797 7.063-1.64 7.062-3.16h7.063l7.063-5.87 7.063-2.912 7.063-2.535 7.062-1.925 7.063-2.071 7.063-1.646 7.063-2.465 7.063-2.545 7.062-1.731 7.063-1.508 7.063-1.325 7.063-1.177 7.063-1.064 7.063-1.279 7.062-1.165 7.063-.91 7.063-.902 7.063-.375 7.063-.468 7.062-.631 7.063-.515 7.063-.472 7.063-.566 7.063-.563 7.063-.357 7.062-.16 7.063-.215 7.063-.286 7.063-.243 7.063-.342 7.062-.333 7.063-.225 7.063-.11 7.063-.183 7.063-.191 7.062-.057 7.063-.128 7.063-.076 7.063.003 7.063.083 7.063.002 7.062.134 7.063.052 7.063.109 7.063-.042 7.063.047 7.062.098 7.063.089 7.063.512 7.063.102 7.063.04 7.062.09 7.063.033 7.063.26 7.063 1.242 7.063.357 7.063.319" fill="none" stroke-linecap="square" stroke-width="1.5"/><g clip-path="url(#a)" fill="#d62728"><use x="-1" xlink:href="#C" y="192.045"/><use x=".711" xlink:href="#C" y="188.202"/><use x="7.773" xlink:href="#C" y="181.613"/><use x="14.836" xlink:href="#C" y="175.804"/><use x="21.899" xlink:href="#C" y="169.982"/><use x="28.962" xlink:href="#C" y="164.831"/><use x="36.025" xlink:href="#C" y="159.299"/><use x="43.087" xlink:href="#C" y="155.067"/><use x="50.15" xlink:href="#C" y="148.2"/><use x="57.213" xlink:href="#C" y="145.624"/><use x="64.276" xlink:href="#C" y="142.059"/><use x="71.339" xlink:href="#C" y="139.019"/><use x="78.401" xlink:href="#C" y="135.665"/><use x="85.464" xlink:href="#C" y="132.735"/><use x="92.527" xlink:href="#C" y="128.374"/><use x="99.59" xlink:href="#C" y="124.417"/><use x="106.653" xlink:href="#C" y="120.62"/><use x="113.716" xlink:href="#C" y="118.979"/><use x="120.778" xlink:href="#C" y="115.819"/><use x="127.841" xlink:href="#C" y="115.819"/><use x="134.904" xlink:href="#C" y="109.951"/><use x="141.967" xlink:href="#C" y="107.038"/><use x="149.03" xlink:href="#C" y="104.503"/><use x="156.092" xlink:href="#C" y="102.578"/><use x="163.155" xlink:href="#C" y="100.507"/><use x="170.218" xlink:href="#C" y="98.861"/><use x="177.281" xlink:href="#C" y="96.396"/><use x="184.344" xlink:href="#C" y="93.851"/><use x="191.406" xlink:href="#C" y="92.12"/><use x="198.469" xlink:href="#C" y="90.612"/><use x="205.532" xlink:href="#C" y="89.287"/><use x="212.595" xlink:href="#C" y="88.11"/><use x="219.658" xlink:href="#C" y="87.046"/><use x="226.721" xlink:href="#C" y="85.767"/><use x="233.783" xlink:href="#C" y="84.602"/><use x="240.846" xlink:href="#C" y="83.692"/><use x="247.909" xlink:href="#C" y="82.79"/><use x="254.972" xlink:href="#C" y="82.415"/><use x="262.035" xlink:href="#C" y="81.947"/><use x="269.097" xlink:href="#C" y="81.316"/><use x="276.16" xlink:href="#C" y="80.801"/><use x="283.223" xlink:href="#C" y="80.329"/><use x="290.286" xlink:href="#C" y="79.763"/><use x="297.349" xlink:href="#C" y="79.2"/><use x="304.412" xlink:href="#C" y="78.843"/><use x="311.474" xlink:href="#C" y="78.683"/><use x="318.537" xlink:href="#C" y="78.468"/><use x="325.6" xlink:href="#C" y="78.182"/><use x="332.663" xlink:href="#C" y="77.939"/><use x="339.726" xlink:href="#C" y="77.597"/><use x="346.788" xlink:href="#C" y="77.264"/><use x="353.851" xlink:href="#C" y="77.039"/><use x="360.914" xlink:href="#C" y="76.928"/><use x="367.977" xlink:href="#C" y="76.746"/><use x="375.04" xlink:href="#C" y="76.555"/><use x="382.102" xlink:href="#C" y="76.498"/><use x="389.165" xlink:href="#C" y="76.37"/><use x="396.228" xlink:href="#C" y="76.294"/><use x="403.291" xlink:href="#C" y="76.297"/><use x="410.354" xlink:href="#C" y="76.38"/><use x="417.417" xlink:href="#C" y="76.382"/><use x="424.479" xlink:href="#C" y="76.516"/><use x="431.542" xlink:href="#C" y="76.568"/><use x="438.605" xlink:href="#C" y="76.677"/><use x="445.668" xlink:href="#C" y="76.635"/><use x="452.731" xlink:href="#C" y="76.682"/><use x="459.793" xlink:href="#C" y="76.78"/><use x="466.856" xlink:href="#C" y="76.869"/><use x="473.919" xlink:href="#C" y="77.381"/><use x="480.982" xlink:href="#C" y="77.483"/><use x="488.045" xlink:href="#C" y="77.523"/><use x="495.107" xlink:href="#C" y="77.612"/><use x="502.17" xlink:href="#C" y="77.646"/><use x="509.233" xlink:href="#C" y="77.905"/><use x="516.296" xlink:href="#C" y="79.148"/><use x="523.359" xlink:href="#C" y="79.505"/><use x="530.422" xlink:href="#C" y="79.824"/></g></g><g stroke="#9467bd"><path clip-path="url(#a)" d="M21.845 569.8l.054-296.4h14.126l7.062-11.786h21.189l7.063-11.786H78.4l7.063-20.041h7.063l7.063-7.325 7.063-3.794 7.063-3.657 7.062-3.462 7.063-5.333 7.063-18.126h7.063l7.063-1.196 7.062-3.498 7.063-7.97 7.063-2.437 7.063-8.722 7.063-4.097 7.062-4.293 7.063-7.04 7.063-3.697 7.063-2.593 7.063-2.134 7.063-2.583 7.062-2.283 7.063-2.243 7.063-1.408 7.063-.752 7.063-3.838 7.062-3.106 7.063-2.724 7.063-2.058 7.063-2.26 7.063-1.221 7.063-1.475 7.062-2.416 7.063-2.398 7.063-1.845 7.063-1.384 7.063-.919 7.062-1.155 7.063-.902 7.063.994 7.063 8.484 7.063-2.415 7.062-3.242 7.063-2.49 7.063 6.224 7.063-2.223 7.063-1.347 7.063-.181 7.062-2.35 7.063-2.03 7.063-2.39 7.063-1.587 7.063-1.714 7.062-1.976 7.063-1.994 7.063-2.079 7.063-.916 7.063-.578 7.062-.8 7.063-1.16 7.063-1.144 7.063-1.989 7.063-1.13 7.063-1.45" fill="none" stroke-linecap="square" stroke-width="1.5"/><g clip-path="url(#a)" fill="#9467bd"><use x="-1" xlink:href="#D" y="39424.714"/><use x=".711" xlink:href="#D" y="39424.714"/><use x="7.773" xlink:href="#D" y="39424.714"/><use x="14.836" xlink:href="#D" y="39424.714"/><use x="21.899" xlink:href="#D" y="273.399"/><use x="28.962" xlink:href="#D" y="273.399"/><use x="36.025" xlink:href="#D" y="273.399"/><use x="43.087" xlink:href="#D" y="261.614"/><use x="50.15" xlink:href="#D" y="261.614"/><use x="57.213" xlink:href="#D" y="261.614"/><use x="64.276" xlink:href="#D" y="261.614"/><use x="71.339" xlink:href="#D" y="249.828"/><use x="78.401" xlink:href="#D" y="249.828"/><use x="85.464" xlink:href="#D" y="229.787"/><use x="92.527" xlink:href="#D" y="229.787"/><use x="99.59" xlink:href="#D" y="222.462"/><use x="106.653" xlink:href="#D" y="218.668"/><use x="113.716" xlink:href="#D" y="215.011"/><use x="120.778" xlink:href="#D" y="211.549"/><use x="127.841" xlink:href="#D" y="206.216"/><use x="134.904" xlink:href="#D" y="188.09"/><use x="141.967" xlink:href="#D" y="188.09"/><use x="149.03" xlink:href="#D" y="186.894"/><use x="156.092" xlink:href="#D" y="183.396"/><use x="163.155" xlink:href="#D" y="175.426"/><use x="170.218" xlink:href="#D" y="172.989"/><use x="177.281" xlink:href="#D" y="164.267"/><use x="184.344" xlink:href="#D" y="160.17"/><use x="191.406" xlink:href="#D" y="155.877"/><use x="198.469" xlink:href="#D" y="148.837"/><use x="205.532" xlink:href="#D" y="145.14"/><use x="212.595" xlink:href="#D" y="142.547"/><use x="219.658" xlink:href="#D" y="140.413"/><use x="226.721" xlink:href="#D" y="137.83"/><use x="233.783" xlink:href="#D" y="135.547"/><use x="240.846" xlink:href="#D" y="133.304"/><use x="247.909" xlink:href="#D" y="131.896"/><use x="254.972" xlink:href="#D" y="131.144"/><use x="262.035" xlink:href="#D" y="127.306"/><use x="269.097" xlink:href="#D" y="124.2"/><use x="276.16" xlink:href="#D" y="121.476"/><use x="283.223" xlink:href="#D" y="119.418"/><use x="290.286" xlink:href="#D" y="117.158"/><use x="297.349" xlink:href="#D" y="115.937"/><use x="304.412" xlink:href="#D" y="114.462"/><use x="311.474" xlink:href="#D" y="112.046"/><use x="318.537" xlink:href="#D" y="109.648"/><use x="325.6" xlink:href="#D" y="107.803"/><use x="332.663" xlink:href="#D" y="106.419"/><use x="339.726" xlink:href="#D" y="105.5"/><use x="346.788" xlink:href="#D" y="104.345"/><use x="353.851" xlink:href="#D" y="103.443"/><use x="360.914" xlink:href="#D" y="104.437"/><use x="367.977" xlink:href="#D" y="112.921"/><use x="375.04" xlink:href="#D" y="110.506"/><use x="382.102" xlink:href="#D" y="107.264"/><use x="389.165" xlink:href="#D" y="104.774"/><use x="396.228" xlink:href="#D" y="110.998"/><use x="403.291" xlink:href="#D" y="108.775"/><use x="410.354" xlink:href="#D" y="107.428"/><use x="417.417" xlink:href="#D" y="107.247"/><use x="424.479" xlink:href="#D" y="104.896"/><use x="431.542" xlink:href="#D" y="102.867"/><use x="438.605" xlink:href="#D" y="100.477"/><use x="445.668" xlink:href="#D" y="98.89"/><use x="452.731" xlink:href="#D" y="97.176"/><use x="459.793" xlink:href="#D" y="95.2"/><use x="466.856" xlink:href="#D" y="93.206"/><use x="473.919" xlink:href="#D" y="91.127"/><use x="480.982" xlink:href="#D" y="90.211"/><use x="488.045" xlink:href="#D" y="89.633"/><use x="495.107" xlink:href="#D" y="88.832"/><use x="502.17" xlink:href="#D" y="87.673"/><use x="509.233" xlink:href="#D" y="86.529"/><use x="516.296" xlink:href="#D" y="84.54"/><use x="523.359" xlink:href="#D" y="83.41"/><use x="530.422" xlink:href="#D" y="81.959"/></g></g><g fill="none" stroke-dasharray="1.5 2.475" stroke-width="1.5"><path clip-path="url(#a)" d="M530.422 38.36l7.062-.37 7.063-.372 7.063-.37" stroke="#1f77b4"/><path clip-path="url(#a)" d="M530.422 67.619l7.062-.458 7.063-.458 7.063-.457" stroke="#ff7f0e"/><path clip-path="url(#a)" d="M530.422 78.68l7.062-.066 7.063-.067 7.063-.067" stroke="#2ca02c"/><path clip-path="url(#a)" d="M530.422 79.824l7.062.53 7.063.53 7.063.531" stroke="#d62728"/><path clip-path="url(#a)" d="M530.422 81.96l7.062-1.452 7.063-1.452 7.063-1.452" stroke="#9467bd"/></g><g fill="none" stroke="#000" stroke-linecap="square" stroke-linejoin="miter" stroke-width=".8"><path d="M50.15 234.248V25.44M551.61 234.248V25.44M50.15 234.248h501.46M50.15 25.44h501.46"/></g><g><g transform="matrix(.12 0 0 -.12 179.1 19.44)"><use xlink:href="#h"/><use x="68.393" xlink:href="#E"/><use x="123.373" xlink:href="#F"/><use x="162.582" xlink:href="#y"/><path d="M193.35 54.688h9.515L219.96 8.797l17.094 45.89h9.515L226.053 0H213.85z"/><use x="249.545" xlink:href="#z"/><use x="342.855" xlink:href="#G"/><path d="M452.086 66.219q-10.75 0-17.078-8.016-6.313-8-6.313-21.828 0-13.766 6.313-21.781 6.328-8 17.078-8 10.734 0 17.016 8 6.28 8.015 6.28 21.781 0 13.828-6.28 21.828-6.282 8.016-17.016 8.016zm0 8q15.328 0 24.5-10.281 9.187-10.282 9.187-27.563 0-17.234-9.187-27.516-9.172-10.28-24.5-10.28-15.375 0-24.594 10.25-9.203 10.265-9.203 27.546t9.203 27.563q9.219 10.28 24.594 10.28zM519.984 0l-27.828 72.906h10.297l23.11-61.375 23.14 61.375h10.25L531.172 0z"/><use x="559.783" xlink:href="#H"/><path d="M608.947 64.797V8.109h11.922q15.094 0 22.094 6.829 7 6.843 7 21.593 0 14.64-7 21.453-7 6.813-22.094 6.813zm-9.86 8.11h20.267q21.187 0 31.093-8.813 9.922-8.813 9.922-27.563 0-18.86-9.969-27.703Q640.447 0 619.354 0h-20.266z"/><use x="666.277" xlink:href="#I"/><use x="702.361" xlink:href="#k"/><use x="765.984" xlink:href="#m"/><use x="861.395" xlink:href="#E"/><use x="916.375" xlink:href="#d"/><use x="977.654" xlink:href="#J"/><use x="1029.754" xlink:href="#z"/><use x="1091.277" xlink:href="#J"/><use x="1175.164" xlink:href="#d"/><use x="1236.443" xlink:href="#J"/><use x="1320.33" xlink:href="#u"/><use x="1381.512" xlink:href="#K"/><use x="1448.504" xlink:href="#f"/><use x="1512.127" xlink:href="#g"/><use x="1575.75" xlink:href="#f"/><use x="1639.373" xlink:href="#g"/><use x="1702.996" xlink:href="#I"/><use x="1739.08" xlink:href="#g"/><use x="1802.703" xlink:href="#s"/><use x="1866.326" xlink:href="#I"/><use x="1902.41" xlink:href="#g"/><use x="1966.033" xlink:href="#L"/></g><path d="M317.55 229.248h227.06q2 0 2-2v-72.39q0-2-2-2H317.55q-2 0-2 2v72.39q0 2 2 2z" fill="#fff" opacity=".8" stroke="#ccc" stroke-linejoin="miter"/><path d="M319.55 160.956h20" fill="none" stroke="#1f77b4" stroke-linecap="square" stroke-width="1.5"/><use fill="#1f77b4" stroke="#1f77b4" x="329.551" xlink:href="#A" y="160.956"/><g transform="matrix(.1 0 0 -.1 347.55 164.456)"><use xlink:href="#M"/><use x="73.193" xlink:href="#N"/><use x="168.457" xlink:href="#O"/><use x="207.471" xlink:href="#w"/><use x="270.947" xlink:href="#u"/><use x="332.129" xlink:href="#P"/><use x="395.508" xlink:href="#Q"/><use x="458.984" xlink:href="#v"/><use x="486.768" xlink:href="#z"/><use x="548.291" xlink:href="#J"/><use x="632.178" xlink:href="#y"/><use x="659.961" xlink:href="#R"/><use x="755.127" xlink:href="#o"/><use x="818.75" xlink:href="#k"/><use x="882.373" xlink:href="#S"/><use x="914.16" xlink:href="#L"/><use x="1009.57" xlink:href="#w"/><use x="1073.047" xlink:href="#d"/><use x="1134.326" xlink:href="#j"/><use x="1193.506" xlink:href="#J"/><use x="1245.605" xlink:href="#T"/></g><path d="M319.55 175.634h20" fill="none" stroke="#ff7f0e" stroke-linecap="square" stroke-width="1.5"/><use fill="#ff7f0e" stroke="#ff7f0e" x="329.551" xlink:href="#B" y="175.634"/><g transform="matrix(.1 0 0 -.1 347.55 179.134)"><use xlink:href="#M"/><use x="73.193" xlink:href="#R"/><use x="136.572" xlink:href="#y"/><use x="164.355" xlink:href="#F"/><use x="203.564" xlink:href="#z"/><use x="265.088" xlink:href="#w"/><path d="M370.164 72.906h9.86V42.094l32.718 30.812h12.703l-36.187-33.984L428.023 0H415.04l-35.016 35.11V0h-9.859z"/><use x="425.928" xlink:href="#y"/><use x="453.711" xlink:href="#R"/><path d="M562.496 27.984q0 9.766-4.031 15.125-4.016 5.375-11.297 5.375-7.219 0-11.25-5.375-4.031-5.359-4.031-15.125 0-9.718 4.031-15.093t11.25-5.375q7.281 0 11.297 5.375 4.031 5.375 4.031 15.093zm8.984-21.203q0-13.953-6.203-20.765-6.187-6.813-18.984-6.813-4.734 0-8.938.703-4.203.703-8.156 2.172v8.735q3.953-2.141 7.813-3.157 3.86-1.031 7.86-1.031 8.843 0 13.233 4.61 4.391 4.609 4.391 13.937v4.453q-2.781-4.844-7.125-7.234Q551.027 0 544.965 0q-10.047 0-16.203 7.656-6.157 7.672-6.157 20.328 0 12.688 6.157 20.344Q534.918 56 544.965 56q6.062 0 10.406-2.39 4.344-2.391 7.125-7.22v8.297h8.984z"/><use x="580.566" xlink:href="#w"/><use x="644.043" xlink:href="#u"/><path d="M757.225 44.188q3.375 6.062 8.062 8.937Q769.975 56 776.318 56q8.547 0 13.188-5.984 4.64-5.97 4.64-17V0h-9.03v32.719q0 7.86-2.798 11.656-2.78 3.813-8.484 3.813-6.984 0-11.047-4.641-4.047-4.625-4.047-12.64V0h-9.031v32.719q0 7.906-2.781 11.687-2.782 3.782-8.594 3.782-6.89 0-10.953-4.657-4.047-4.656-4.047-12.625V0h-9.031v54.688h9.031v-8.5q3.078 5.03 7.375 7.421Q735.006 56 740.912 56q5.969 0 10.14-3.031 4.173-3.016 6.173-8.782z"/><use x="834.424" xlink:href="#O"/><use x="873.438" xlink:href="#w"/><use x="936.914" xlink:href="#u"/><use x="998.096" xlink:href="#P"/><use x="1061.475" xlink:href="#Q"/><use x="1124.951" xlink:href="#v"/><use x="1152.734" xlink:href="#z"/><use x="1214.258" xlink:href="#J"/><use x="1298.145" xlink:href="#y"/><use x="1325.928" xlink:href="#R"/><use x="1421.094" xlink:href="#f"/><use x="1484.717" xlink:href="#s"/><use x="1548.34" xlink:href="#S"/><use x="1580.127" xlink:href="#L"/><use x="1675.537" xlink:href="#w"/><use x="1739.014" xlink:href="#d"/><use x="1800.293" xlink:href="#j"/><use x="1859.473" xlink:href="#J"/><use x="1911.572" xlink:href="#T"/></g><path d="M319.55 190.312h20" fill="none" stroke="#2ca02c" stroke-linecap="square" stroke-width="1.5"/><g transform="matrix(.1 0 0 -.1 347.55 193.812)"><path d="M9.813 72.906h41.89v-8.312H19.672V43.109h28.906v-8.297H19.672V0h-9.86z"/><use x="57.41" xlink:href="#e"/><use x="98.523" xlink:href="#d"/><use x="159.803" xlink:href="#R"/><use x="223.182" xlink:href="#E"/><use x="278.162" xlink:href="#z"/></g><path d="M319.55 204.99h20" fill="none" stroke="#d62728" stroke-linecap="square" stroke-width="1.5"/><use fill="#d62728" stroke="#d62728" x="329.551" xlink:href="#C" y="204.99"/><g transform="matrix(.1 0 0 -.1 347.55 208.49)"><use xlink:href="#H"/><use x="29.492" xlink:href="#F"/><use x="68.701" xlink:href="#d"/><use x="129.98" xlink:href="#v"/><use x="157.764" xlink:href="#j"/></g><path d="M319.55 219.668h20" fill="none" stroke="#9467bd" stroke-linecap="square" stroke-width="1.5"/><use fill="#9467bd" stroke="#9467bd" x="329.551" xlink:href="#D" y="219.668"/><g transform="matrix(.1 0 0 -.1 347.55 223.168)"><path d="M19.672 34.813V8.108H35.5q7.953 0 11.781 3.297 3.844 3.297 3.844 10.078 0 6.844-3.844 10.078-3.828 3.25-11.781 3.25zm0 29.984V42.828h14.61q7.218 0 10.75 2.703 3.546 2.719 3.546 8.282 0 5.515-3.547 8.25-3.531 2.734-10.75 2.734zm-9.86 8.11h25.204q11.28 0 17.375-4.688Q58.5 63.53 58.5 54.89q0-6.703-3.125-10.657-3.125-3.953-9.188-4.922 7.282-1.562 11.313-6.53 4.031-4.954 4.031-12.376 0-9.765-6.64-15.093Q48.25 0 35.984 0H9.812z"/><use x="68.604" xlink:href="#e"/><use x="109.717" xlink:href="#d"/><path d="M176.512 54.688h42.672v-8.204L185.402 7.172h33.782V0h-43.891v8.203l33.797 39.313h-32.578z"/><use x="223.486" xlink:href="#y"/><use x="251.27" xlink:href="#v"/><use x="310.84" xlink:href="#O"/><use x="349.854" xlink:href="#w"/><use x="413.33" xlink:href="#u"/><use x="474.512" xlink:href="#P"/><use x="537.891" xlink:href="#Q"/><use x="601.367" xlink:href="#v"/><use x="629.15" xlink:href="#z"/><use x="690.674" xlink:href="#J"/><use x="774.561" xlink:href="#y"/><use x="802.344" xlink:href="#R"/><use x="897.51" xlink:href="#L"/><use x="961.133" xlink:href="#S"/><use x="992.92" xlink:href="#k"/><use x="1088.33" xlink:href="#w"/><use x="1151.807" xlink:href="#d"/><use x="1213.086" xlink:href="#j"/><use x="1272.266" xlink:href="#J"/><use x="1324.365" xlink:href="#T"/></g><path d="M50.15 505.928h501.46V297.12H50.15z" fill="#fff"/><path clip-path="url(#U)" d="M50.15 505.928V297.12" fill="none" stroke="#b0b0b0" stroke-linecap="square" stroke-width=".8"/><use stroke="#000" stroke-width=".8" x="50.15" xlink:href="#b" y="505.928"/><g transform="matrix(.1 0 0 -.1 40.717 542.922)"><use xlink:href="#c"/><use x="86.279" xlink:href="#d"/><use x="147.559" xlink:href="#e"/></g><g transform="matrix(.1 0 0 -.1 37.425 554.12)"><use xlink:href="#f"/><use x="63.623" xlink:href="#g"/><use x="127.246" xlink:href="#f"/><use x="190.869" xlink:href="#g"/></g><path clip-path="url(#U)" d="M269.097 505.928V297.12" fill="none" stroke="#b0b0b0" stroke-linecap="square" stroke-width=".8"/><use stroke="#000" stroke-width=".8" x="269.097" xlink:href="#b" y="505.928"/><g transform="matrix(.1 0 0 -.1 260.447 542.922)"><use xlink:href="#h"/><use x="68.408" xlink:href="#i"/><use x="131.885" xlink:href="#e"/></g><path clip-path="url(#U)" d="M480.982 505.928V297.12" fill="none" stroke="#b0b0b0" stroke-linecap="square" stroke-width=".8"/><use stroke="#000" stroke-width=".8" x="480.982" xlink:href="#b" y="505.928"/><g transform="matrix(.1 0 0 -.1 470.644 542.922)"><use xlink:href="#c"/><use x="86.279" xlink:href="#d"/><use x="147.559" xlink:href="#j"/></g><path clip-path="url(#U)" d="M551.61 505.928V297.12" fill="none" stroke="#b0b0b0" stroke-linecap="square" stroke-width=".8"/><use stroke="#000" stroke-width=".8" x="551.61" xlink:href="#b" y="505.928"/><g transform="matrix(.1 0 0 -.1 545.247 520.526)"><use xlink:href="#k"/><use x="63.623" xlink:href="#k"/></g><use stroke="#000" stroke-width=".6" x="57.213" xlink:href="#l" y="505.928"/><g transform="matrix(.1 0 0 -.1 50.85 518.926)"><use xlink:href="#g"/><use x="63.623" xlink:href="#f"/></g><g stroke="#000" stroke-width=".6"><use x="64.276" xlink:href="#l" y="505.928"/><use x="71.339" xlink:href="#l" y="505.928"/><use x="78.401" xlink:href="#l" y="505.928"/><use x="85.464" xlink:href="#l" y="505.928"/><use x="92.527" xlink:href="#l" y="505.928"/><use x="99.59" xlink:href="#l" y="505.928"/></g><use stroke="#000" stroke-width=".6" x="106.653" xlink:href="#l" y="505.928"/><g transform="matrix(.1 0 0 -.1 100.29 518.926)"><use xlink:href="#g"/><use x="63.623" xlink:href="#m"/></g><g stroke="#000" stroke-width=".6"><use x="113.716" xlink:href="#l" y="505.928"/><use x="120.778" xlink:href="#l" y="505.928"/><use x="127.841" xlink:href="#l" y="505.928"/><use x="134.904" xlink:href="#l" y="505.928"/><use x="141.967" xlink:href="#l" y="505.928"/><use x="149.03" xlink:href="#l" y="505.928"/><use x="156.092" xlink:href="#l" y="505.928"/></g><g transform="matrix(.1 0 0 -.1 149.73 518.926)"><use xlink:href="#k"/><use x="63.623" xlink:href="#n"/></g><g stroke="#000" stroke-width=".6"><use x="163.155" xlink:href="#l" y="505.928"/><use x="170.218" xlink:href="#l" y="505.928"/><use x="177.281" xlink:href="#l" y="505.928"/><use x="184.344" xlink:href="#l" y="505.928"/><use x="191.406" xlink:href="#l" y="505.928"/><use x="198.469" xlink:href="#l" y="505.928"/><use x="205.532" xlink:href="#l" y="505.928"/></g><g transform="matrix(.1 0 0 -.1 199.17 518.926)"><use xlink:href="#f"/><use x="63.623" xlink:href="#o"/></g><g stroke="#000" stroke-width=".6"><use x="212.595" xlink:href="#l" y="505.928"/><use x="219.658" xlink:href="#l" y="505.928"/><use x="226.721" xlink:href="#l" y="505.928"/><use x="233.783" xlink:href="#l" y="505.928"/><use x="240.846" xlink:href="#l" y="505.928"/><use x="247.909" xlink:href="#l" y="505.928"/><use x="254.972" xlink:href="#l" y="505.928"/></g><g transform="matrix(.1 0 0 -.1 248.61 518.926)"><use xlink:href="#o"/><use x="63.623" xlink:href="#g"/></g><g stroke="#000" stroke-width=".6"><use x="262.035" xlink:href="#l" y="505.928"/><use x="276.16" xlink:href="#l" y="505.928"/><use x="283.223" xlink:href="#l" y="505.928"/><use x="290.286" xlink:href="#l" y="505.928"/><use x="297.349" xlink:href="#l" y="505.928"/><use x="304.412" xlink:href="#l" y="505.928"/></g><g transform="matrix(.1 0 0 -.1 298.049 518.926)"><use xlink:href="#g"/><use x="63.623" xlink:href="#n"/></g><g stroke="#000" stroke-width=".6"><use x="311.474" xlink:href="#l" y="505.928"/><use x="318.537" xlink:href="#l" y="505.928"/><use x="325.6" xlink:href="#l" y="505.928"/><use x="332.663" xlink:href="#l" y="505.928"/><use x="339.726" xlink:href="#l" y="505.928"/><use x="346.788" xlink:href="#l" y="505.928"/><use x="353.851" xlink:href="#l" y="505.928"/></g><g transform="matrix(.1 0 0 -.1 347.489 518.926)"><use xlink:href="#k"/><use x="63.623" xlink:href="#o"/></g><g stroke="#000" stroke-width=".6"><use x="360.914" xlink:href="#l" y="505.928"/><use x="367.977" xlink:href="#l" y="505.928"/><use x="375.04" xlink:href="#l" y="505.928"/><use x="382.102" xlink:href="#l" y="505.928"/><use x="389.165" xlink:href="#l" y="505.928"/><use x="396.228" xlink:href="#l" y="505.928"/><use x="403.291" xlink:href="#l" y="505.928"/></g><g transform="matrix(.1 0 0 -.1 396.928 518.926)"><use xlink:href="#f"/><use x="63.623" xlink:href="#g"/></g><g stroke="#000" stroke-width=".6"><use x="410.354" xlink:href="#l" y="505.928"/><use x="417.417" xlink:href="#l" y="505.928"/><use x="424.479" xlink:href="#l" y="505.928"/><use x="431.542" xlink:href="#l" y="505.928"/><use x="438.605" xlink:href="#l" y="505.928"/><use x="445.668" xlink:href="#l" y="505.928"/><use x="452.731" xlink:href="#l" y="505.928"/></g><g transform="matrix(.1 0 0 -.1 446.368 518.926)"><use xlink:href="#f"/><use x="63.623" xlink:href="#p"/></g><g stroke="#000" stroke-width=".6"><use x="459.793" xlink:href="#l" y="505.928"/><use x="466.856" xlink:href="#l" y="505.928"/><use x="473.919" xlink:href="#l" y="505.928"/><use x="488.045" xlink:href="#l" y="505.928"/><use x="495.107" xlink:href="#l" y="505.928"/><use x="502.17" xlink:href="#l" y="505.928"/></g><g transform="matrix(.1 0 0 -.1 495.808 518.926)"><use xlink:href="#g"/><use x="63.623" xlink:href="#q"/></g><g stroke="#000" stroke-width=".6"><use x="509.233" xlink:href="#l" y="505.928"/><use x="516.296" xlink:href="#l" y="505.928"/><use x="523.359" xlink:href="#l" y="505.928"/><use x="530.422" xlink:href="#l" y="505.928"/><use x="537.484" xlink:href="#l" y="505.928"/><use x="544.547" xlink:href="#l" y="505.928"/></g><path clip-path="url(#U)" d="M50.15 505.928h501.46" fill="none" stroke="#b0b0b0" stroke-linecap="square" stroke-width=".8"/><use stroke="#000" stroke-width=".8" x="50.15" xlink:href="#r" y="505.928"/><g transform="matrix(.1 0 0 -.1 25.55 509.727)"><use transform="translate(0 .684)" xlink:href="#k"/><use transform="translate(63.623 .684)" xlink:href="#g"/><use transform="matrix(.7 0 0 .7 128.203 38.966)" xlink:href="#k"/></g><path clip-path="url(#U)" d="M50.15 462.151h501.46" fill="none" stroke="#b0b0b0" stroke-linecap="square" stroke-width=".8"/><use stroke="#000" stroke-width=".8" x="50.15" xlink:href="#r" y="462.151"/><g transform="matrix(.1 0 0 -.1 25.55 465.95)"><use transform="translate(0 .766)" xlink:href="#k"/><use transform="translate(63.623 .766)" xlink:href="#g"/><use transform="matrix(.7 0 0 .7 128.203 39.047)" xlink:href="#f"/></g><path clip-path="url(#U)" d="M50.15 418.375h501.46" fill="none" stroke="#b0b0b0" stroke-linecap="square" stroke-width=".8"/><use stroke="#000" stroke-width=".8" x="50.15" xlink:href="#r" y="418.375"/><g transform="matrix(.1 0 0 -.1 25.55 422.174)"><use transform="translate(0 .766)" xlink:href="#k"/><use transform="translate(63.623 .766)" xlink:href="#g"/><use transform="matrix(.7 0 0 .7 128.203 39.047)" xlink:href="#o"/></g><path clip-path="url(#U)" d="M50.15 374.598h501.46" fill="none" stroke="#b0b0b0" stroke-linecap="square" stroke-width=".8"/><use stroke="#000" stroke-width=".8" x="50.15" xlink:href="#r" y="374.598"/><g transform="matrix(.1 0 0 -.1 25.55 378.397)"><use transform="translate(0 .684)" xlink:href="#k"/><use transform="translate(63.623 .684)" xlink:href="#g"/><use transform="matrix(.7 0 0 .7 128.203 38.966)" xlink:href="#q"/></g><path clip-path="url(#U)" d="M50.15 330.822h501.46" fill="none" stroke="#b0b0b0" stroke-linecap="square" stroke-width=".8"/><use stroke="#000" stroke-width=".8" x="50.15" xlink:href="#r" y="330.822"/><g transform="matrix(.1 0 0 -.1 25.55 334.62)"><use transform="translate(0 .684)" xlink:href="#k"/><use transform="translate(63.623 .684)" xlink:href="#g"/><use transform="matrix(.7 0 0 .7 128.203 38.966)" xlink:href="#s"/></g><g stroke="#000" stroke-width=".6"><use x="50.15" xlink:href="#t" y="492.75"/><use x="50.15" xlink:href="#t" y="485.041"/><use x="50.15" xlink:href="#t" y="479.572"/><use x="50.15" xlink:href="#t" y="475.329"/><use x="50.15" xlink:href="#t" y="471.863"/><use x="50.15" xlink:href="#t" y="468.933"/><use x="50.15" xlink:href="#t" y="466.394"/><use x="50.15" xlink:href="#t" y="464.155"/><use x="50.15" xlink:href="#t" y="448.973"/><use x="50.15" xlink:href="#t" y="441.265"/><use x="50.15" xlink:href="#t" y="435.795"/><use x="50.15" xlink:href="#t" y="431.553"/><use x="50.15" xlink:href="#t" y="428.087"/><use x="50.15" xlink:href="#t" y="425.156"/><use x="50.15" xlink:href="#t" y="422.617"/><use x="50.15" xlink:href="#t" y="420.378"/><use x="50.15" xlink:href="#t" y="405.197"/><use x="50.15" xlink:href="#t" y="397.488"/><use x="50.15" xlink:href="#t" y="392.019"/><use x="50.15" xlink:href="#t" y="387.776"/><use x="50.15" xlink:href="#t" y="384.31"/><use x="50.15" xlink:href="#t" y="381.379"/><use x="50.15" xlink:href="#t" y="378.841"/><use x="50.15" xlink:href="#t" y="376.601"/><use x="50.15" xlink:href="#t" y="361.42"/><use x="50.15" xlink:href="#t" y="353.712"/><use x="50.15" xlink:href="#t" y="348.242"/><use x="50.15" xlink:href="#t" y="344"/><use x="50.15" xlink:href="#t" y="340.533"/><use x="50.15" xlink:href="#t" y="337.603"/><use x="50.15" xlink:href="#t" y="335.064"/><use x="50.15" xlink:href="#t" y="332.825"/><use x="50.15" xlink:href="#t" y="317.644"/><use x="50.15" xlink:href="#t" y="309.935"/><use x="50.15" xlink:href="#t" y="304.466"/><use x="50.15" xlink:href="#t" y="300.223"/></g><g transform="matrix(0 -.1 -.1 0 19.47 408.358)"><use xlink:href="#M"/><use x="73.193" xlink:href="#N"/></g><g stroke="#1f77b4"><path clip-path="url(#U)" d="M57.21 569.8l.003-20.095 7.063-13.178 7.063-32.411 7.062-14.023 7.063-8.518 7.063-14.206 7.063-6.325 7.063-5.56 7.063-3.753 7.062-4.57 7.063-7.593 7.063-4.746 7.063-4.124 7.063-6.314 7.062-5.174 7.063-10.845 7.063-7.25 7.063-14.557 7.063-8.344 7.062-6.52 7.063-5.651 7.063-5.3 7.063-3.92 7.063-3.46 7.063-3.89 7.062-3.193 7.063-2.91 7.063-2.415 7.063-2.073 7.063-2.408 7.062-1.881 7.063-1.796 7.063-1.985 7.063-1.849 7.063-1.449 7.063-1.254 7.062-1.057 7.063-1.418 7.063-1.26 7.063-1.164 7.063-.894 7.062-.783 7.063-.63 7.063-.652 7.063-1.026 7.063-.556 7.062-.415 7.063-.92 7.063-.459 7.063-.404 7.063-.386 7.063-.363 7.062.108 7.063-.593 7.063-.742 7.063-.408 7.063-.253 7.062-.2 7.063-.28 7.063-.312 7.063-.234 7.063-.3 7.062-.191 7.063-.146 7.063-.136 7.063-.147 7.063-.188 7.063-.178" fill="none" stroke-linecap="square" stroke-width="1.5"/><g clip-path="url(#U)" fill="#1f77b4"><use x="50.694" xlink:href="#A" y="40954.6"/><use x="57.213" xlink:href="#A" y="549.705"/><use x="64.276" xlink:href="#A" y="536.527"/><use x="71.339" xlink:href="#A" y="504.116"/><use x="78.401" xlink:href="#A" y="490.093"/><use x="85.464" xlink:href="#A" y="481.575"/><use x="92.527" xlink:href="#A" y="467.369"/><use x="99.59" xlink:href="#A" y="461.044"/><use x="106.653" xlink:href="#A" y="455.485"/><use x="113.716" xlink:href="#A" y="451.731"/><use x="120.778" xlink:href="#A" y="447.161"/><use x="127.841" xlink:href="#A" y="439.568"/><use x="134.904" xlink:href="#A" y="434.822"/><use x="141.967" xlink:href="#A" y="430.698"/><use x="149.03" xlink:href="#A" y="424.384"/><use x="156.092" xlink:href="#A" y="419.21"/><use x="163.155" xlink:href="#A" y="408.365"/><use x="170.218" xlink:href="#A" y="401.115"/><use x="177.281" xlink:href="#A" y="386.558"/><use x="184.344" xlink:href="#A" y="378.214"/><use x="191.406" xlink:href="#A" y="371.695"/><use x="198.469" xlink:href="#A" y="366.043"/><use x="205.532" xlink:href="#A" y="360.742"/><use x="212.595" xlink:href="#A" y="356.823"/><use x="219.658" xlink:href="#A" y="353.362"/><use x="226.721" xlink:href="#A" y="349.473"/><use x="233.783" xlink:href="#A" y="346.28"/><use x="240.846" xlink:href="#A" y="343.371"/><use x="247.909" xlink:href="#A" y="340.955"/><use x="254.972" xlink:href="#A" y="338.882"/><use x="262.035" xlink:href="#A" y="336.474"/><use x="269.097" xlink:href="#A" y="334.593"/><use x="276.16" xlink:href="#A" y="332.797"/><use x="283.223" xlink:href="#A" y="330.812"/><use x="290.286" xlink:href="#A" y="328.963"/><use x="297.349" xlink:href="#A" y="327.514"/><use x="304.412" xlink:href="#A" y="326.26"/><use x="311.474" xlink:href="#A" y="325.203"/><use x="318.537" xlink:href="#A" y="323.785"/><use x="325.6" xlink:href="#A" y="322.525"/><use x="332.663" xlink:href="#A" y="321.361"/><use x="339.726" xlink:href="#A" y="320.467"/><use x="346.788" xlink:href="#A" y="319.684"/><use x="353.851" xlink:href="#A" y="319.055"/><use x="360.914" xlink:href="#A" y="318.402"/><use x="367.977" xlink:href="#A" y="317.376"/><use x="375.04" xlink:href="#A" y="316.82"/><use x="382.102" xlink:href="#A" y="316.405"/><use x="389.165" xlink:href="#A" y="315.486"/><use x="396.228" xlink:href="#A" y="315.026"/><use x="403.291" xlink:href="#A" y="314.622"/><use x="410.354" xlink:href="#A" y="314.236"/><use x="417.417" xlink:href="#A" y="313.873"/><use x="424.479" xlink:href="#A" y="313.981"/><use x="431.542" xlink:href="#A" y="313.388"/><use x="438.605" xlink:href="#A" y="312.646"/><use x="445.668" xlink:href="#A" y="312.238"/><use x="452.731" xlink:href="#A" y="311.985"/><use x="459.793" xlink:href="#A" y="311.784"/><use x="466.856" xlink:href="#A" y="311.505"/><use x="473.919" xlink:href="#A" y="311.193"/><use x="480.982" xlink:href="#A" y="310.959"/><use x="488.045" xlink:href="#A" y="310.66"/><use x="495.107" xlink:href="#A" y="310.468"/><use x="502.17" xlink:href="#A" y="310.322"/><use x="509.233" xlink:href="#A" y="310.186"/><use x="516.296" xlink:href="#A" y="310.039"/><use x="523.359" xlink:href="#A" y="309.851"/><use x="530.422" xlink:href="#A" y="309.673"/></g></g><g stroke="#ff7f0e"><path clip-path="url(#U)" d="M78.396 569.8l.005-33.273h7.063l7.063-13.179 7.063-4.242h7.063l7.063-19.575 7.062-8.593 7.063-4.585h7.063l7.063-16.87 7.063-6.555 7.062-11.416 7.063-7.745 7.063-.072 7.063-19.415 7.063-3.453 7.062-7.6 7.063-6.995 7.063-7.547 7.063-4.826 7.063-3.391 7.063-8.524 7.062-4.735 7.063-4.395 7.063-3.53 7.063-4.135 7.063-2.173 7.062-3.281 7.063-2.557 7.063-2.944 7.063-2.454 7.063-1.803 7.063-1.736 7.062-1.415 7.063-1.173 7.063-1.352 7.063-1.245 7.063-1.16 7.062-1.163 7.063-.826 7.063-1.151 7.063-.527 7.063-1.069 7.062-.734 7.063-.681 7.063-.863 7.063-.757 7.063-.754 7.063-.667 7.062-.787 7.063-.38 7.063-.596 7.063-.66 7.063-.373 7.062-.406 7.063-.382 7.063-.315 7.063-.376 7.063-.385 7.062-.47 7.063-.235 7.063-.312 7.063-.154 7.063-.282 7.063-.256" fill="none" stroke-linecap="square" stroke-width="1.5"/><g clip-path="url(#U)" fill="#ff7f0e"><use x="71.882" xlink:href="#B" y="40954.6"/><use x="78.401" xlink:href="#B" y="536.527"/><use x="85.464" xlink:href="#B" y="536.527"/><use x="92.527" xlink:href="#B" y="523.348"/><use x="99.59" xlink:href="#B" y="519.106"/><use x="106.653" xlink:href="#B" y="519.106"/><use x="113.716" xlink:href="#B" y="499.531"/><use x="120.778" xlink:href="#B" y="490.938"/><use x="127.841" xlink:href="#B" y="486.353"/><use x="134.904" xlink:href="#B" y="486.353"/><use x="141.967" xlink:href="#B" y="469.484"/><use x="149.03" xlink:href="#B" y="462.928"/><use x="156.092" xlink:href="#B" y="451.512"/><use x="163.155" xlink:href="#B" y="443.767"/><use x="170.218" xlink:href="#B" y="443.695"/><use x="177.281" xlink:href="#B" y="424.28"/><use x="184.344" xlink:href="#B" y="420.827"/><use x="191.406" xlink:href="#B" y="413.227"/><use x="198.469" xlink:href="#B" y="406.232"/><use x="205.532" xlink:href="#B" y="398.685"/><use x="212.595" xlink:href="#B" y="393.859"/><use x="219.658" xlink:href="#B" y="390.468"/><use x="226.721" xlink:href="#B" y="381.944"/><use x="233.783" xlink:href="#B" y="377.209"/><use x="240.846" xlink:href="#B" y="372.814"/><use x="247.909" xlink:href="#B" y="369.284"/><use x="254.972" xlink:href="#B" y="365.149"/><use x="262.035" xlink:href="#B" y="362.976"/><use x="269.097" xlink:href="#B" y="359.695"/><use x="276.16" xlink:href="#B" y="357.138"/><use x="283.223" xlink:href="#B" y="354.194"/><use x="290.286" xlink:href="#B" y="351.74"/><use x="297.349" xlink:href="#B" y="349.937"/><use x="304.412" xlink:href="#B" y="348.201"/><use x="311.474" xlink:href="#B" y="346.786"/><use x="318.537" xlink:href="#B" y="345.613"/><use x="325.6" xlink:href="#B" y="344.261"/><use x="332.663" xlink:href="#B" y="343.016"/><use x="339.726" xlink:href="#B" y="341.856"/><use x="346.788" xlink:href="#B" y="340.693"/><use x="353.851" xlink:href="#B" y="339.867"/><use x="360.914" xlink:href="#B" y="338.716"/><use x="367.977" xlink:href="#B" y="338.189"/><use x="375.04" xlink:href="#B" y="337.12"/><use x="382.102" xlink:href="#B" y="336.386"/><use x="389.165" xlink:href="#B" y="335.705"/><use x="396.228" xlink:href="#B" y="334.842"/><use x="403.291" xlink:href="#B" y="334.085"/><use x="410.354" xlink:href="#B" y="333.331"/><use x="417.417" xlink:href="#B" y="332.664"/><use x="424.479" xlink:href="#B" y="331.877"/><use x="431.542" xlink:href="#B" y="331.496"/><use x="438.605" xlink:href="#B" y="330.901"/><use x="445.668" xlink:href="#B" y="330.241"/><use x="452.731" xlink:href="#B" y="329.868"/><use x="459.793" xlink:href="#B" y="329.462"/><use x="466.856" xlink:href="#B" y="329.08"/><use x="473.919" xlink:href="#B" y="328.765"/><use x="480.982" xlink:href="#B" y="328.389"/><use x="488.045" xlink:href="#B" y="328.004"/><use x="495.107" xlink:href="#B" y="327.535"/><use x="502.17" xlink:href="#B" y="327.299"/><use x="509.233" xlink:href="#B" y="326.987"/><use x="516.296" xlink:href="#B" y="326.833"/><use x="523.359" xlink:href="#B" y="326.551"/><use x="530.422" xlink:href="#B" y="326.295"/></g></g><path clip-path="url(#U)" d="M-1 549.705H28.962l.003 20.095m35.308 0l.003-20.095H78.4l7.063-34.065h7.063l7.063-25.547h7.063l7.063-26.149 7.062-.616 7.063-2.463 7.063-2.494 7.063-2.205 7.063-3.303 7.062-3.506 7.063-1.935 7.063-.087 7.063-7.767 7.063-4.335 7.062-4.571 7.063-3.832 7.063-3.437 7.063-7.642 7.063-8.793 7.063-5.164 7.062-5.563 7.063-5.199 7.063-2.899 7.063-2.834 7.063-2.601 7.062-2.922 7.063-2.773 7.063-2.8 7.063-2.295 7.063-1.197 7.063-1.926 7.062-1.7 7.063-1.842 7.063-2.277 7.063-1.899 7.063-1.609 7.062-2.065 7.063-.978 7.063-.924 7.063-1.01 7.063-1.438 7.062-1.234 7.063-1.01 7.063-.749h7.063l7.063-1.442 7.063-.725 7.062-1.307 7.063-1.963 7.063-.847 7.063-.526 7.063-.512 7.062-.592 7.063-.58 7.063-.588 7.063-.622 7.063-.563 7.062-.501 7.063-.27 7.063-.308 7.063-.44 7.063-.434 7.063-.398" fill="none" stroke="#2ca02c" stroke-linecap="square" stroke-width="1.5"/><g stroke="#d62728"><path clip-path="url(#U)" d="M50.147 569.8l.003-20.095 7.063-13.178h14.126l7.062-7.71h7.063l7.063-5.469 7.063-4.242h7.063l7.063-13.178 7.062-15.835 7.063-5.052 7.063-7.281 7.063-6.52 7.063-7.296 7.062-2.355 7.063-8.134 7.063-.358 7.063-18.139 7.063-6.227 7.062-4.81 7.063-6.292 7.063-3.843 7.063-3.384 7.063-3.682 7.063-5.857 7.062-3.311 7.063-2.688 7.063-5.21 7.063-1.813 7.063-3.195 7.062-2.824 7.063-1.835 7.063-2.728 7.063-2.874 7.063-1.573 7.063-1.609 7.062-.012 7.063-3.808 7.063-.002 7.063-3.193 7.063-1.289 7.062-1.604 7.063-1.007 7.063-1.005 7.063-1.045 7.063-.801 7.062-1.328 7.063-1.018 7.063-.779 7.063-.704 7.063-.879 7.063-1.14 7.062-.943 7.063-1.36 7.063-.997 7.063-.96 7.063-.856 7.062-.878 7.063-.876 7.063-.932 7.063-1.108 7.063-.816 7.062-.972 7.063-.709 7.063-.593 7.063-.653 7.063-.715 7.063-.759" fill="none" stroke-linecap="square" stroke-width="1.5"/><g clip-path="url(#U)" fill="#d62728"><use x="43.631" xlink:href="#C" y="40954.6"/><use x="50.15" xlink:href="#C" y="549.705"/><use x="57.213" xlink:href="#C" y="536.527"/><use x="64.276" xlink:href="#C" y="536.527"/><use x="71.339" xlink:href="#C" y="536.527"/><use x="78.401" xlink:href="#C" y="528.818"/><use x="85.464" xlink:href="#C" y="528.818"/><use x="92.527" xlink:href="#C" y="523.348"/><use x="99.59" xlink:href="#C" y="519.106"/><use x="106.653" xlink:href="#C" y="519.106"/><use x="113.716" xlink:href="#C" y="505.928"/><use x="120.778" xlink:href="#C" y="490.093"/><use x="127.841" xlink:href="#C" y="485.041"/><use x="134.904" xlink:href="#C" y="477.76"/><use x="141.967" xlink:href="#C" y="471.24"/><use x="149.03" xlink:href="#C" y="463.944"/><use x="156.092" xlink:href="#C" y="461.589"/><use x="163.155" xlink:href="#C" y="453.455"/><use x="170.218" xlink:href="#C" y="453.097"/><use x="177.281" xlink:href="#C" y="434.958"/><use x="184.344" xlink:href="#C" y="428.731"/><use x="191.406" xlink:href="#C" y="423.92"/><use x="198.469" xlink:href="#C" y="417.629"/><use x="205.532" xlink:href="#C" y="413.786"/><use x="212.595" xlink:href="#C" y="410.402"/><use x="219.658" xlink:href="#C" y="406.72"/><use x="226.721" xlink:href="#C" y="400.863"/><use x="233.783" xlink:href="#C" y="397.552"/><use x="240.846" xlink:href="#C" y="394.864"/><use x="247.909" xlink:href="#C" y="389.653"/><use x="254.972" xlink:href="#C" y="387.841"/><use x="262.035" xlink:href="#C" y="384.646"/><use x="269.097" xlink:href="#C" y="381.822"/><use x="276.16" xlink:href="#C" y="379.987"/><use x="283.223" xlink:href="#C" y="377.259"/><use x="290.286" xlink:href="#C" y="374.385"/><use x="297.349" xlink:href="#C" y="372.812"/><use x="304.412" xlink:href="#C" y="371.203"/><use x="311.474" xlink:href="#C" y="371.191"/><use x="318.537" xlink:href="#C" y="367.383"/><use x="325.6" xlink:href="#C" y="367.381"/><use x="332.663" xlink:href="#C" y="364.188"/><use x="339.726" xlink:href="#C" y="362.899"/><use x="346.788" xlink:href="#C" y="361.295"/><use x="353.851" xlink:href="#C" y="360.288"/><use x="360.914" xlink:href="#C" y="359.283"/><use x="367.977" xlink:href="#C" y="358.238"/><use x="375.04" xlink:href="#C" y="357.437"/><use x="382.102" xlink:href="#C" y="356.109"/><use x="389.165" xlink:href="#C" y="355.091"/><use x="396.228" xlink:href="#C" y="354.312"/><use x="403.291" xlink:href="#C" y="353.608"/><use x="410.354" xlink:href="#C" y="352.729"/><use x="417.417" xlink:href="#C" y="351.59"/><use x="424.479" xlink:href="#C" y="350.646"/><use x="431.542" xlink:href="#C" y="349.286"/><use x="438.605" xlink:href="#C" y="348.289"/><use x="445.668" xlink:href="#C" y="347.328"/><use x="452.731" xlink:href="#C" y="346.473"/><use x="459.793" xlink:href="#C" y="345.595"/><use x="466.856" xlink:href="#C" y="344.719"/><use x="473.919" xlink:href="#C" y="343.787"/><use x="480.982" xlink:href="#C" y="342.679"/><use x="488.045" xlink:href="#C" y="341.863"/><use x="495.107" xlink:href="#C" y="340.891"/><use x="502.17" xlink:href="#C" y="340.182"/><use x="509.233" xlink:href="#C" y="339.589"/><use x="516.296" xlink:href="#C" y="338.936"/><use x="523.359" xlink:href="#C" y="338.221"/><use x="530.422" xlink:href="#C" y="337.462"/></g></g><g stroke="#9467bd"><path clip-path="url(#U)" d="M-1 500.94H.71l7.063 9.23H21.9l7.063-2.239h7.063l7.062-2.003h7.063l7.063-12.203 7.063-3.632 7.063-6.279 7.062-7.708 7.063-2.931 7.063-6.542 7.063-3.506 7.063-1.165 7.063-6.208 7.062-3.913 7.063-3.886 7.063-4.828 7.063-3.617 7.063-4.369 7.062-5.192 7.063-4.242 7.063-1.556 7.063-4.478 7.063-4.021 7.062-2.841 7.063-3.561 7.063-4.698 7.063-3.506 7.063-3.128 7.063-5.014 7.062-3.389 7.063-1.682 7.063-2.64 7.063-3.792 7.063-2.648 7.062-2.57 7.063-2.576 7.063-2.057 7.063-1.267 7.063-2.991 7.063-1.196 7.062-1.495 7.063-1.598 7.063-.773 7.063-1.277 7.063-.553 7.062-.925 7.063-.89 7.063-1.092 7.063-.933 7.063-.648 7.062-.97 7.063-.815 7.063-.576 7.063-1.338 7.063-.983 7.063-.944 7.062-1.083 7.063-.834 7.063-.447 7.063-.532 7.063-.605 7.062-.484 7.063-1.044 7.063-.52 7.063-.7 7.063-.476 7.062-.556 7.063-.33 7.063-.855 7.063-.692 7.063-.472 7.063-.488" fill="none" stroke-linecap="square" stroke-width="1.5"/><g clip-path="url(#U)" fill="#9467bd"><use x="-1" xlink:href="#D" y="500.94"/><use x=".711" xlink:href="#D" y="500.94"/><use x="7.773" xlink:href="#D" y="510.17"/><use x="14.836" xlink:href="#D" y="510.17"/><use x="21.899" xlink:href="#D" y="510.17"/><use x="28.962" xlink:href="#D" y="507.931"/><use x="36.025" xlink:href="#D" y="507.931"/><use x="43.087" xlink:href="#D" y="505.928"/><use x="50.15" xlink:href="#D" y="505.928"/><use x="57.213" xlink:href="#D" y="493.725"/><use x="64.276" xlink:href="#D" y="490.093"/><use x="71.339" xlink:href="#D" y="483.814"/><use x="78.401" xlink:href="#D" y="476.106"/><use x="85.464" xlink:href="#D" y="473.175"/><use x="92.527" xlink:href="#D" y="466.633"/><use x="99.59" xlink:href="#D" y="463.127"/><use x="106.653" xlink:href="#D" y="461.962"/><use x="113.716" xlink:href="#D" y="455.754"/><use x="120.778" xlink:href="#D" y="451.841"/><use x="127.841" xlink:href="#D" y="447.955"/><use x="134.904" xlink:href="#D" y="443.127"/><use x="141.967" xlink:href="#D" y="439.51"/><use x="149.03" xlink:href="#D" y="435.141"/><use x="156.092" xlink:href="#D" y="429.949"/><use x="163.155" xlink:href="#D" y="425.707"/><use x="170.218" xlink:href="#D" y="424.151"/><use x="177.281" xlink:href="#D" y="419.673"/><use x="184.344" xlink:href="#D" y="415.652"/><use x="191.406" xlink:href="#D" y="412.811"/><use x="198.469" xlink:href="#D" y="409.25"/><use x="205.532" xlink:href="#D" y="404.552"/><use x="212.595" xlink:href="#D" y="401.046"/><use x="219.658" xlink:href="#D" y="397.918"/><use x="226.721" xlink:href="#D" y="392.904"/><use x="233.783" xlink:href="#D" y="389.515"/><use x="240.846" xlink:href="#D" y="387.833"/><use x="247.909" xlink:href="#D" y="385.192"/><use x="254.972" xlink:href="#D" y="381.401"/><use x="262.035" xlink:href="#D" y="378.753"/><use x="269.097" xlink:href="#D" y="376.184"/><use x="276.16" xlink:href="#D" y="373.607"/><use x="283.223" xlink:href="#D" y="371.55"/><use x="290.286" xlink:href="#D" y="370.283"/><use x="297.349" xlink:href="#D" y="367.292"/><use x="304.412" xlink:href="#D" y="366.096"/><use x="311.474" xlink:href="#D" y="364.601"/><use x="318.537" xlink:href="#D" y="363.003"/><use x="325.6" xlink:href="#D" y="362.23"/><use x="332.663" xlink:href="#D" y="360.953"/><use x="339.726" xlink:href="#D" y="360.4"/><use x="346.788" xlink:href="#D" y="359.475"/><use x="353.851" xlink:href="#D" y="358.585"/><use x="360.914" xlink:href="#D" y="357.493"/><use x="367.977" xlink:href="#D" y="356.56"/><use x="375.04" xlink:href="#D" y="355.912"/><use x="382.102" xlink:href="#D" y="354.942"/><use x="389.165" xlink:href="#D" y="354.127"/><use x="396.228" xlink:href="#D" y="353.551"/><use x="403.291" xlink:href="#D" y="352.213"/><use x="410.354" xlink:href="#D" y="351.23"/><use x="417.417" xlink:href="#D" y="350.286"/><use x="424.479" xlink:href="#D" y="349.203"/><use x="431.542" xlink:href="#D" y="348.369"/><use x="438.605" xlink:href="#D" y="347.922"/><use x="445.668" xlink:href="#D" y="347.39"/><use x="452.731" xlink:href="#D" y="346.785"/><use x="459.793" xlink:href="#D" y="346.301"/><use x="466.856" xlink:href="#D" y="345.257"/><use x="473.919" xlink:href="#D" y="344.737"/><use x="480.982" xlink:href="#D" y="344.038"/><use x="488.045" xlink:href="#D" y="343.561"/><use x="495.107" xlink:href="#D" y="343.005"/><use x="502.17" xlink:href="#D" y="342.676"/><use x="509.233" xlink:href="#D" y="341.82"/><use x="516.296" xlink:href="#D" y="341.128"/><use x="523.359" xlink:href="#D" y="340.656"/><use x="530.422" xlink:href="#D" y="340.168"/></g></g><g fill="none" stroke-dasharray="1.5 2.475" stroke-width="1.5"><path clip-path="url(#U)" d="M530.422 309.673l7.062-.175 7.063-.175 7.063-.175" stroke="#1f77b4"/><path clip-path="url(#U)" d="M530.422 326.295l7.062-.243 7.063-.243 7.063-.243" stroke="#ff7f0e"/><path clip-path="url(#U)" d="M530.422 337.432l7.062-.42 7.063-.42 7.063-.42" stroke="#2ca02c"/><path clip-path="url(#U)" d="M530.422 337.462l7.062-.72 7.063-.72 7.063-.721" stroke="#d62728"/><path clip-path="url(#U)" d="M530.422 340.168l7.062-.527 7.063-.526 7.063-.526" stroke="#9467bd"/></g></g><g fill="none" stroke="#000" stroke-linecap="square" stroke-linejoin="miter" stroke-width=".8"><path d="M50.15 505.928V297.12M551.61 505.928V297.12M50.15 505.928h501.46M50.15 297.12h501.46"/></g><g><path d="M323.926 500.928H544.61q2 0 2-2v-72.39q0-2-2-2H323.926q-2 0-2 2v72.39q0 2 2 2z" fill="#fff" opacity=".8" stroke="#ccc" stroke-linejoin="miter"/><path d="M325.926 432.636h20" fill="none" stroke="#1f77b4" stroke-linecap="square" stroke-width="1.5"/><use fill="#1f77b4" stroke="#1f77b4" x="335.926" xlink:href="#A" y="432.636"/><g transform="matrix(.1 0 0 -.1 353.926 436.136)"><use xlink:href="#V"/><use x="74.805" xlink:href="#z"/><use x="136.328" xlink:href="#x"/><path d="M249.7 72.906h10.609l20.203-29.984 20.078 29.984h10.594L285.402 34.72V0h-9.906v34.719z"/><use x="310.783" xlink:href="#u"/><use x="371.965" xlink:href="#e"/><path d="M422.156 75.984h9.031V31.11L458 54.687h11.469l-29-25.578L470.703 0h-11.719l-27.796 26.703V0h-9.032z"/></g><path d="M325.926 447.314h20" fill="none" stroke="#ff7f0e" stroke-linecap="square" stroke-width="1.5"/><use fill="#ff7f0e" stroke="#ff7f0e" x="335.926" xlink:href="#B" y="447.314"/><g transform="matrix(.1 0 0 -.1 353.926 450.814)"><use xlink:href="#V"/><use x="74.805" xlink:href="#z"/><use x="136.328" xlink:href="#x"/><path d="M259.715 72.906h9.86V5.078q0-13.187-5-19.14-5-5.954-16.095-5.954h-3.75v8.297h3.079q6.53 0 9.218 3.672 2.688 3.656 2.688 13.125z"/><use x="279.395" xlink:href="#z"/><use x="340.918" xlink:href="#e"/><use x="382.031" xlink:href="#J"/><use x="434.131" xlink:href="#z"/><use x="495.654" xlink:href="#j"/></g><path d="M325.926 461.992h20" fill="none" stroke="#2ca02c" stroke-linecap="square" stroke-width="1.5"/><g transform="matrix(.1 0 0 -.1 353.926 465.492)"><use xlink:href="#c"/><use x="86.279" xlink:href="#d"/><use x="147.559" xlink:href="#J"/><use x="199.658" xlink:href="#J"/><use x="251.758" xlink:href="#d"/><use x="313.037" xlink:href="#E"/><path d="M422.908 33.016V0h-8.984v32.719q0 7.765-3.031 11.61-3.032 3.858-9.079 3.858-7.28 0-11.484-4.64-4.203-4.625-4.203-12.64V0h-9.031v75.984h9.031V46.188q3.234 4.937 7.594 7.374Q398.096 56 403.814 56q9.422 0 14.25-5.828 4.844-5.828 4.844-17.156z"/><use x="431.396" xlink:href="#P"/><use x="494.775" xlink:href="#J"/><use x="546.875" xlink:href="#z"/><use x="608.398" xlink:href="#F"/><use x="647.607" xlink:href="#F"/><use x="686.816" xlink:href="#J"/><use x="770.703" xlink:href="#O"/><use x="809.717" xlink:href="#w"/><use x="873.193" xlink:href="#u"/><use x="934.375" xlink:href="#P"/><use x="997.754" xlink:href="#Q"/><use x="1061.23" xlink:href="#v"/><use x="1089.014" xlink:href="#z"/><use x="1150.537" xlink:href="#J"/><use x="1234.424" xlink:href="#y"/><use x="1262.207" xlink:href="#R"/><use x="1357.373" xlink:href="#o"/><use x="1420.996" xlink:href="#k"/><use x="1484.619" xlink:href="#S"/><use x="1516.406" xlink:href="#q"/><use x="1611.816" xlink:href="#w"/><use x="1675.293" xlink:href="#d"/><use x="1736.572" xlink:href="#j"/><use x="1795.752" xlink:href="#J"/><use x="1847.852" xlink:href="#T"/></g><path d="M325.926 476.67h20" fill="none" stroke="#d62728" stroke-linecap="square" stroke-width="1.5"/><use fill="#d62728" stroke="#d62728" x="335.926" xlink:href="#C" y="476.67"/><g transform="matrix(.1 0 0 -.1 353.926 480.17)"><use xlink:href="#H"/><use x="29.492" xlink:href="#v"/><use x="57.275" xlink:href="#v"/><use x="85.059" xlink:href="#y"/><use x="112.842" xlink:href="#R"/><use x="176.221" xlink:href="#u"/><use x="237.402" xlink:href="#y"/><use x="265.186" xlink:href="#J"/><use x="349.072" xlink:href="#O"/><use x="388.086" xlink:href="#w"/><use x="451.563" xlink:href="#u"/><use x="512.744" xlink:href="#P"/><use x="576.123" xlink:href="#Q"/><use x="639.6" xlink:href="#v"/><use x="667.383" xlink:href="#z"/><use x="728.906" xlink:href="#J"/><use x="812.793" xlink:href="#y"/><use x="840.576" xlink:href="#R"/><use x="935.742" xlink:href="#k"/><use x="999.365" xlink:href="#L"/><use x="1062.988" xlink:href="#S"/><use x="1094.775" xlink:href="#o"/><use x="1190.186" xlink:href="#w"/><use x="1253.662" xlink:href="#d"/><use x="1314.941" xlink:href="#j"/><use x="1374.121" xlink:href="#J"/><use x="1426.221" xlink:href="#T"/></g><path d="M325.926 491.348h20" fill="none" stroke="#9467bd" stroke-linecap="square" stroke-width="1.5"/><use fill="#9467bd" stroke="#9467bd" x="335.926" xlink:href="#D" y="491.348"/><g transform="matrix(.1 0 0 -.1 353.926 494.848)"><use xlink:href="#G"/><use x="69.824" xlink:href="#d"/><use x="131.104" xlink:href="#v"/><use x="158.887" xlink:href="#y"/><use x="186.67" xlink:href="#K"/><use x="221.875" xlink:href="#u"/><use x="283.057" xlink:href="#e"/><use x="324.154" xlink:href="#R"/><use x="387.533" xlink:href="#y"/><use x="415.316" xlink:href="#d"/><use x="508.383" xlink:href="#O"/><use x="547.396" xlink:href="#w"/><use x="610.873" xlink:href="#u"/><use x="672.055" xlink:href="#P"/><use x="735.434" xlink:href="#Q"/><use x="798.91" xlink:href="#v"/><use x="826.693" xlink:href="#z"/><use x="888.217" xlink:href="#J"/><use x="972.104" xlink:href="#y"/><use x="999.887" xlink:href="#R"/><use x="1095.053" xlink:href="#f"/><use x="1158.676" xlink:href="#s"/><use x="1222.299" xlink:href="#S"/><use x="1254.086" xlink:href="#g"/><use x="1349.496" xlink:href="#w"/><use x="1412.973" xlink:href="#d"/><use x="1474.252" xlink:href="#j"/><use x="1533.432" xlink:href="#J"/><use x="1585.531" xlink:href="#T"/></g></g></svg>