<svg height="758.4" stroke-linejoin="round" viewBox="0 0 568.8 568.8" width="758.4" xmlns="http://www.w3.org/2000/svg" xmlns:xlink="http://www.w3.org/1999/xlink"><defs><path id="w" d="M4.203 54.688h8.985l11.234-42.672 11.172 42.672h10.593l11.235-42.672 11.187 42.672h8.985L63.28 0H52.688L40.922 44.828 29.109 0H18.5z" stroke-linejoin="round"/><path id="U" d="M9.813 72.906h13.28l32.329-60.984v60.984h9.562V0h-13.28L19.39 60.984V0H9.813z" stroke-linejoin="round"/><path id="b" d="M0 0v3.5" stroke="#000" stroke-linejoin="round" stroke-width=".8"/><path id="c" d="M9.813 72.906h14.703l18.593-49.61 18.703 49.61h14.704V0H66.89v64.016l-18.797-50h-9.907l-18.796 50V0H9.813z" stroke-linejoin="round"/><path id="d" d="M34.281 27.484q-10.89 0-15.093-2.484-4.204-2.484-4.204-8.5 0-4.781 3.157-7.594 3.156-2.797 8.562-2.797 7.485 0 12 5.297 4.516 5.297 4.516 14.078v2zm17.922 3.72V0H43.22v8.297Q40.14 3.328 35.547.953q-4.594-2.375-11.234-2.375-8.391 0-13.36 4.719Q6 8.016 6 15.922q0 9.219 6.172 13.906 6.187 4.688 18.437 4.688h12.61v.89q0 6.203-4.078 9.594-4.078 3.39-11.453 3.39-4.688 0-9.141-1.124-4.438-1.125-8.531-3.375v8.312q4.921 1.906 9.562 2.844 4.64.953 9.031.953 11.875 0 17.735-6.156 5.86-6.14 5.86-18.64z" stroke-linejoin="round"/><path id="e" d="M41.11 46.297q-1.516.875-3.297 1.281Q36.03 48 33.89 48q-7.625 0-11.703-4.953-4.079-4.953-4.079-14.234V0H9.08v54.688h9.03v-8.5q2.844 4.984 7.375 7.39Q30.031 56 36.531 56q.922 0 2.047-.125 1.125-.11 2.484-.36z" stroke-linejoin="round"/><path id="f" d="M19.188 8.297h34.421V0H7.33v8.297q5.609 5.812 15.296 15.594 9.703 9.797 12.188 12.64 4.734 5.313 6.609 9 1.89 3.688 1.89 7.25 0 5.813-4.078 9.469-4.078 3.672-10.625 3.672-4.64 0-9.797-1.61-5.14-1.609-11-4.89v9.969Q13.767 71.78 18.938 73q5.188 1.219 9.485 1.219 11.328 0 18.062-5.672 6.735-5.656 6.735-15.125 0-4.5-1.688-8.531-1.672-4.016-6.125-9.485-1.218-1.422-7.765-8.187-6.532-6.766-18.453-18.922z" stroke-linejoin="round"/><path id="g" d="M31.781 66.406q-7.61 0-11.453-7.5Q16.5 51.422 16.5 36.375q0-14.984 3.828-22.484 3.844-7.5 11.453-7.5 7.672 0 11.5 7.5 3.844 7.5 3.844 22.484 0 15.047-3.844 22.531-3.828 7.5-11.5 7.5zm0 7.813q12.266 0 18.735-9.703 6.468-9.688 6.468-28.141 0-18.406-6.468-28.11-6.47-9.687-18.735-9.687-12.25 0-18.718 9.688-6.47 9.703-6.47 28.109 0 18.453 6.47 28.14Q19.53 74.22 31.78 74.22z" stroke-linejoin="round"/><path id="h" d="M34.188 63.188L20.797 26.906h26.812zm-5.579 9.718h11.188L67.578 0h-10.25l-6.64 18.703h-32.86L11.188 0H.78z" stroke-linejoin="round"/><path id="i" d="M18.11 8.203v-29H9.077v75.484h9.031v-8.296q2.844 4.875 7.157 7.234Q29.594 56 35.594 56q9.968 0 16.187-7.906 6.235-7.907 6.235-20.797T51.78 6.484q-6.218-7.906-16.187-7.906-6 0-10.328 2.375-4.313 2.375-7.157 7.25zm30.578 19.094q0 9.906-4.079 15.547-4.078 5.64-11.203 5.64-7.14 0-11.218-5.64-4.079-5.64-4.079-15.547 0-9.906 4.078-15.547 4.079-5.64 11.22-5.64 7.124 0 11.202 5.64t4.078 15.547z" stroke-linejoin="round"/><path id="j" d="M32.172-5.078q-3.797-9.766-7.422-12.735-3.61-2.984-9.656-2.984H7.906v7.516h5.282q3.703 0 5.75 1.765Q21-9.766 23.483-3.219l1.61 4.094-22.11 53.813H12.5l17.094-42.766 17.093 42.766h9.516z" stroke-linejoin="round"/><path id="k" d="M12.406 8.297h16.11v55.625l-17.532-3.516v8.985l17.438 3.515h9.86V8.296H54.39V0H12.406z" stroke-linejoin="round"/><path id="l" d="M0 0v2" stroke="#000" stroke-linejoin="round" stroke-width=".6"/><path id="m" d="M10.984 1.516V10.5q3.72-1.766 7.516-2.688 3.813-.921 7.484-.921 9.766 0 14.907 6.562 5.156 6.563 5.89 19.953-2.828-4.203-7.187-6.453-4.344-2.25-9.61-2.25-10.937 0-17.312 6.61-6.375 6.625-6.375 18.109 0 11.219 6.64 18 6.641 6.797 17.672 6.797 12.657 0 19.313-9.703 6.672-9.688 6.672-28.141 0-17.234-8.188-27.516Q40.234-1.42 26.422-1.42q-3.719 0-7.531.734-3.797.734-7.907 2.203zM30.61 32.422q6.641 0 10.516 4.531 3.89 4.547 3.89 12.469 0 7.86-3.89 12.422-3.875 4.562-10.516 4.562-6.64 0-10.515-4.562-3.875-4.563-3.875-12.422 0-7.922 3.875-12.469 3.875-4.531 10.515-4.531z" stroke-linejoin="round"/><path id="n" d="M33.016 40.375q-6.641 0-10.532-4.547-3.875-4.531-3.875-12.437 0-7.86 3.875-12.438 3.891-4.562 10.532-4.562 6.64 0 10.515 4.562 3.875 4.578 3.875 12.438 0 7.906-3.875 12.437-3.875 4.547-10.515 4.547zm19.578 30.922v-8.984q-3.719 1.75-7.5 2.671-3.782.938-7.5.938-9.766 0-14.922-6.594-5.14-6.594-5.875-19.922 2.875 4.25 7.219 6.516 4.359 2.266 9.578 2.266 10.984 0 17.36-6.672 6.374-6.657 6.374-18.125 0-11.235-6.64-18.032-6.641-6.78-17.672-6.78-12.657 0-19.344 9.687-6.688 9.703-6.688 28.109 0 17.281 8.204 27.563 8.203 10.28 22.015 10.28 3.719 0 7.5-.734t7.89-2.187z" stroke-linejoin="round"/><path id="o" d="M40.578 39.313Q47.656 37.797 51.625 33q3.984-4.781 3.984-11.813 0-10.78-7.422-16.703-7.421-5.906-21.093-5.906-4.578 0-9.438.906-4.86.907-10.031 2.72v9.515q4.094-2.39 8.969-3.61 4.89-1.218 10.218-1.218 9.266 0 14.125 3.656 4.86 3.656 4.86 10.64 0 6.454-4.516 10.079-4.515 3.64-12.562 3.64h-8.5v8.11h8.89q7.266 0 11.125 2.906 3.86 2.906 3.86 8.375 0 5.61-3.985 8.61-3.968 3.015-11.39 3.015-4.063 0-8.703-.89-4.641-.876-10.203-2.72v8.782q5.624 1.562 10.53 2.344 4.907.78 9.25.78 11.235 0 17.766-5.109 6.547-5.093 6.547-13.78 0-6.063-3.468-10.235-3.47-4.172-9.86-5.782z" stroke-linejoin="round"/><path id="p" d="M8.203 72.906h46.875v-4.203L28.61 0H18.312L43.22 64.594H8.203z" stroke-linejoin="round"/><path id="q" d="M37.797 64.313L12.89 25.39h24.906zm-2.594 8.593H47.61V25.391h10.407v-8.203H47.609V0h-9.812v17.188H4.89v9.515z" stroke-linejoin="round"/><path id="r" d="M0 0h-3.5" stroke="#000" stroke-linejoin="round" stroke-width=".8"/><path id="s" d="M31.781 34.625q-7.031 0-11.062-3.766-4.016-3.765-4.016-10.343 0-6.594 4.016-10.36Q24.75 6.391 31.78 6.391q7.032 0 11.078 3.78 4.063 3.798 4.063 10.345 0 6.578-4.031 10.343-4.016 3.766-11.11 3.766zm-9.86 4.188q-6.343 1.562-9.89 5.906Q8.5 49.079 8.5 55.329q0 8.733 6.219 13.812 6.234 5.078 17.062 5.078 10.89 0 17.094-5.078 6.203-5.079 6.203-13.813 0-6.25-3.547-10.61-3.531-4.343-9.828-5.906 7.125-1.656 11.094-6.5 3.984-4.828 3.984-11.796 0-10.61-6.468-16.282-6.47-5.656-18.532-5.656-12.047 0-18.531 5.656-6.469 5.672-6.469 16.282 0 6.968 4 11.797 4.016 4.843 11.14 6.5zM18.314 54.39q0-5.657 3.53-8.828 3.548-3.172 9.938-3.172 6.36 0 9.938 3.172 3.593 3.171 3.593 8.828 0 5.672-3.593 8.843-3.578 3.172-9.938 3.172-6.39 0-9.937-3.172-3.532-3.172-3.532-8.843z" stroke-linejoin="round"/><path id="t" d="M30.61 48.39q-7.22 0-11.422-5.64-4.204-5.64-4.204-15.453 0-9.813 4.172-15.453 4.188-5.64 11.453-5.64 7.188 0 11.375 5.655 4.203 5.672 4.203 15.438 0 9.719-4.203 15.406-4.187 5.688-11.375 5.688zm0 7.61q11.718 0 18.406-7.625 6.703-7.61 6.703-21.078 0-13.422-6.703-21.078-6.688-7.64-18.407-7.64-11.765 0-18.437 7.64-6.656 7.656-6.656 21.078 0 13.469 6.656 21.078Q18.844 56 30.609 56z" stroke-linejoin="round"/><path id="u" d="M9.422 75.984h8.984V0H9.422z" stroke-linejoin="round"/><path id="v" d="M45.406 46.39v29.594h8.985V0h-8.985v8.203Q42.578 3.328 38.25.953q-4.313-2.375-10.375-2.375-9.906 0-16.14 7.906-6.22 7.922-6.22 20.813 0 12.89 6.22 20.797Q17.968 56 27.874 56q6.063 0 10.375-2.375 4.328-2.36 7.156-7.234zm-30.61-19.093q0-9.906 4.079-15.547 4.078-5.64 11.203-5.64 7.125 0 11.219 5.64 4.11 5.64 4.11 15.547 0 9.906-4.11 15.547-4.094 5.64-11.219 5.64-7.125 0-11.203-5.64-4.078-5.64-4.078-15.547z" stroke-linejoin="round"/><path id="S" d="M8.016 75.875h7.812q7.313-11.516 10.953-22.563 3.64-11.03 3.64-21.921 0-10.938-3.64-22.016-3.64-11.078-10.953-22.563H8.016Q14.5-2 17.703 9.063q3.203 11.063 3.203 22.329 0 11.28-3.203 22.265-3.203 11-9.687 22.219z" stroke-linejoin="round"/><path id="x" d="M9.422 54.688h8.984V0H9.422zm0 21.296h8.984v-11.39H9.422z" stroke-linejoin="round"/><path id="y" d="M56.203 29.594v-4.39H14.891q.593-9.282 5.593-14.142 5-4.859 13.938-4.859 5.172 0 10.031 1.266 4.86 1.265 9.656 3.812v-8.5Q49.266.734 44.187-.344 39.11-1.422 33.892-1.422q-13.094 0-20.735 7.61-7.64 7.625-7.64 20.625 0 13.421 7.25 21.296Q20.016 56 32.328 56q11.031 0 17.453-7.11 6.422-7.093 6.422-19.296zm-8.984 2.64q-.094 7.36-4.125 11.75-4.032 4.407-10.672 4.407-7.516 0-12.031-4.25-4.516-4.25-5.203-11.97z" stroke-linejoin="round"/><path id="z" d="M-3 0h6M0 3v-6" stroke="#1f77b4" stroke-linejoin="round"/><path id="A" d="M0 1.5a1.5 1.5 0 100-3 1.5 1.5 0 000 3z" stroke="#ff7f0e" stroke-linejoin="round"/><path id="B" d="M-3 0h6M0 3v-6" stroke="#d62728" stroke-linejoin="round"/><path id="C" d="M0 1.5a1.5 1.5 0 100-3 1.5 1.5 0 000 3z" stroke="#9467bd" stroke-linejoin="round"/><path id="D" d="M48.781 52.594v-8.407q-3.812 2.11-7.64 3.157-3.828 1.047-7.735 1.047-8.75 0-13.593-5.547-4.829-5.532-4.829-15.547 0-10.016 4.829-15.563 4.843-5.53 13.593-5.53 3.907 0 7.735 1.046 3.828 1.047 7.64 3.156V2.094Q45.016.344 40.984-.531q-4.015-.89-8.562-.89-12.36 0-19.64 7.765-7.266 7.765-7.266 20.953 0 13.375 7.343 21.031Q20.22 56 33.016 56q4.14 0 8.093-.86 3.953-.843 7.672-2.546z" stroke-linejoin="round"/><path id="E" d="M18.313 70.219V54.688h18.5v-6.985h-18.5V18.016q0-6.688 1.828-8.594 1.828-1.906 7.453-1.906h9.218V0h-9.218q-10.407 0-14.36 3.875-3.953 3.89-3.953 14.14v29.688H2.687v6.984h6.594V70.22z" stroke-linejoin="round"/><path id="F" d="M64.406 67.281v-10.39q-4.984 4.64-10.625 6.922-5.64 2.296-11.984 2.296-12.5 0-19.14-7.64-6.641-7.64-6.641-22.094 0-14.406 6.64-22.047 6.64-7.64 19.14-7.64 6.345 0 11.985 2.296 5.64 2.297 10.625 6.938V5.609Q59.234 2.094 53.437.33q-5.78-1.75-12.218-1.75-16.563 0-26.094 10.124-9.516 10.14-9.516 27.672 0 17.578 9.516 27.703 9.531 10.14 26.094 10.14 6.531 0 12.312-1.734 5.797-1.734 10.875-5.203z" stroke-linejoin="round"/><path id="G" d="M9.813 72.906h9.859V0h-9.86z" stroke-linejoin="round"/><path id="H" d="M4.89 31.39h26.313v-8H4.891z" stroke-linejoin="round"/><path id="I" d="M44.281 53.078v-8.5q-3.797 1.953-7.906 2.922-4.094.984-8.5.984-6.688 0-10.031-2.047-3.344-2.046-3.344-6.156 0-3.125 2.39-4.906 2.391-1.781 9.626-3.39l3.078-.688q9.562-2.047 13.593-5.781 4.032-3.735 4.032-10.422 0-7.625-6.032-12.078-6.03-4.438-16.578-4.438-4.39 0-9.156.86Q10.688.296 5.422 2v9.281q4.984-2.594 9.812-3.89 4.829-1.282 9.579-1.282 6.343 0 9.75 2.172 3.421 2.172 3.421 6.125 0 3.656-2.468 5.61-2.453 1.953-10.813 3.765l-3.125.735q-8.344 1.75-12.062 5.39-3.704 3.64-3.704 9.985 0 7.718 5.47 11.906Q16.75 56 26.811 56q4.97 0 9.36-.734 4.406-.72 8.11-2.188z" stroke-linejoin="round"/><path id="J" d="M37.11 75.984V68.5h-8.594q-4.828 0-6.72-1.953-1.874-1.953-1.874-7.031v-4.828h14.797v-6.985H19.922V0H10.89v47.703H2.297v6.984h8.594V58.5q0 9.125 4.25 13.297 4.25 4.187 13.468 4.187z" stroke-linejoin="round"/><path id="K" d="M10.797 72.906h38.719v-8.312H19.828v-17.86q2.14.735 4.281 1.094 2.157.36 4.313.36 12.203 0 19.328-6.688 7.14-6.688 7.14-18.11 0-11.765-7.328-18.296-7.328-6.516-20.656-6.516-4.593 0-9.36.781-4.75.782-9.827 2.344v9.922q4.39-2.39 9.078-3.563 4.687-1.171 9.906-1.171 8.453 0 13.375 4.437 4.938 4.438 4.938 12.063 0 7.609-4.938 12.047-4.922 4.453-13.375 4.453-3.953 0-7.89-.875-3.922-.875-8.016-2.735z" stroke-linejoin="round"/><path id="L" d="M8.688 72.906h9.921V28.61q0-11.718 4.235-16.875 4.25-5.14 13.781-5.14 9.469 0 13.719 5.14 4.25 5.157 4.25 16.875v44.297H64.5V27.391q0-14.25-7.063-21.532-7.046-7.28-20.812-7.28-13.828 0-20.89 7.28-7.047 7.282-7.047 21.532z" stroke-linejoin="round"/><path id="M" d="M53.516 70.516V60.89q-5.61 2.687-10.594 4-4.984 1.328-9.625 1.328-8.047 0-12.422-3.125t-4.375-8.89q0-4.845 2.906-7.313 2.907-2.453 11.016-3.97l5.953-1.218q11.031-2.11 16.281-7.406 5.25-5.297 5.25-14.172 0-10.61-7.11-16.078-7.093-5.469-20.812-5.469-5.172 0-11.015 1.172Q13.14.922 6.89 3.219v10.156q6-3.36 11.765-5.078 5.766-1.703 11.328-1.703 8.438 0 13.032 3.312 4.593 3.328 4.593 9.485 0 5.359-3.297 8.39-3.296 3.032-10.812 4.547L27.484 33.5q-11.03 2.188-15.968 6.875-4.922 4.688-4.922 13.047 0 9.672 6.812 15.234 6.813 5.563 18.766 5.563 5.14 0 10.453-.938 5.328-.922 10.89-2.765z" stroke-linejoin="round"/><path id="N" d="M31 75.875q-6.531-11.219-9.719-22.219-3.172-10.984-3.172-22.265 0-11.266 3.203-22.328Q24.517-2 31-13.188h-7.813Q15.875-1.704 12.235 9.375q-3.64 11.078-3.64 22.016 0 10.89 3.61 21.922 3.624 11.046 10.983 22.562z" stroke-linejoin="round"/><path id="O" d="M8.5 21.578v33.11h8.984V21.922q0-7.766 3.016-11.656 3.031-3.875 9.094-3.875 7.265 0 11.484 4.64 4.234 4.64 4.234 12.656v31h8.985V0h-8.984v8.406Q42.047 3.422 37.718 1q-4.313-2.422-10.032-2.422-9.421 0-14.312 5.86Q8.5 10.296 8.5 21.578z" stroke-linejoin="round"/><path id="P" d="M48.688 27.297q0 9.906-4.079 15.547-4.078 5.64-11.203 5.64-7.14 0-11.218-5.64-4.079-5.64-4.079-15.547 0-9.906 4.078-15.547 4.079-5.64 11.22-5.64 7.124 0 11.202 5.64t4.078 15.547zM18.108 46.39q2.844 4.875 7.157 7.234Q29.594 56 35.594 56q9.968 0 16.187-7.906 6.235-7.907 6.235-20.797T51.78 6.484q-6.218-7.906-16.187-7.906-6 0-10.328 2.375-4.313 2.375-7.157 7.25V0H9.08v75.984h9.03z" stroke-linejoin="round"/><path id="Q" d="M54.89 33.016V0h-8.984v32.719q0 7.765-3.031 11.61-3.031 3.858-9.078 3.858-7.281 0-11.484-4.64-4.204-4.625-4.204-12.64V0H9.08v54.688h9.03v-8.5q3.235 4.937 7.594 7.374Q30.078 56 35.797 56q9.422 0 14.25-5.828 4.844-5.828 4.844-17.156z" stroke-linejoin="round"/><path id="R" d="M10.688 12.406H21V0H10.687z" stroke-linejoin="round"/><clipPath id="T" stroke-linejoin="round"><path d="M76.61 297.12h475v208.808h-475z"/></clipPath><clipPath id="a" stroke-linejoin="round"><path d="M76.61 25.44h475v208.808h-475z"/></clipPath></defs><path d="M0 568.8h568.8V0H0z" fill="#fff"/><path d="M76.61 234.248h475V25.44h-475z" fill="#fff"/><path clip-path="url(#a)" d="M76.61 234.248V25.44" fill="none" stroke="#b0b0b0" stroke-linecap="square" stroke-width=".8"/><use stroke="#000" stroke-width=".8" x="76.61" xlink:href="#b" y="234.248"/><g transform="matrix(.1 0 0 -.1 67.176 271.242)"><use xlink:href="#c"/><use x="86.279" xlink:href="#d"/><use x="147.559" xlink:href="#e"/></g><g transform="matrix(.1 0 0 -.1 63.885 282.44)"><use xlink:href="#f"/><use x="63.623" xlink:href="#g"/><use x="127.246" xlink:href="#f"/><use x="190.869" xlink:href="#g"/></g><path clip-path="url(#a)" d="M284.004 234.248V25.44" fill="none" stroke="#b0b0b0" stroke-linecap="square" stroke-width=".8"/><use stroke="#000" stroke-width=".8" x="284.004" xlink:href="#b" y="234.248"/><g transform="matrix(.1 0 0 -.1 275.354 271.242)"><use xlink:href="#h"/><use x="68.408" xlink:href="#i"/><use x="131.885" xlink:href="#e"/></g><path clip-path="url(#a)" d="M484.709 234.248V25.44" fill="none" stroke="#b0b0b0" stroke-linecap="square" stroke-width=".8"/><use stroke="#000" stroke-width=".8" x="484.709" xlink:href="#b" y="234.248"/><g transform="matrix(.1 0 0 -.1 474.371 271.242)"><use xlink:href="#c"/><use x="86.279" xlink:href="#d"/><use x="147.559" xlink:href="#j"/></g><path clip-path="url(#a)" d="M551.61 234.248V25.44" fill="none" stroke="#b0b0b0" stroke-linecap="square" stroke-width=".8"/><use stroke="#000" stroke-width=".8" x="551.61" xlink:href="#b" y="234.248"/><g transform="matrix(.1 0 0 -.1 545.247 248.846)"><use xlink:href="#k"/><use x="63.623" xlink:href="#k"/></g><use stroke="#000" stroke-width=".6" x="83.3" xlink:href="#l" y="234.248"/><g transform="matrix(.1 0 0 -.1 76.938 247.246)"><use xlink:href="#g"/><use x="63.623" xlink:href="#f"/></g><g stroke="#000" stroke-width=".6"><use x="89.99" xlink:href="#l" y="234.248"/><use x="96.68" xlink:href="#l" y="234.248"/><use x="103.371" xlink:href="#l" y="234.248"/><use x="110.061" xlink:href="#l" y="234.248"/><use x="116.751" xlink:href="#l" y="234.248"/><use x="123.441" xlink:href="#l" y="234.248"/></g><use stroke="#000" stroke-width=".6" x="130.131" xlink:href="#l" y="234.248"/><g transform="matrix(.1 0 0 -.1 123.769 247.246)"><use xlink:href="#g"/><use x="63.623" xlink:href="#m"/></g><g stroke="#000" stroke-width=".6"><use x="136.821" xlink:href="#l" y="234.248"/><use x="143.511" xlink:href="#l" y="234.248"/><use x="150.202" xlink:href="#l" y="234.248"/><use x="156.892" xlink:href="#l" y="234.248"/><use x="163.582" xlink:href="#l" y="234.248"/><use x="170.272" xlink:href="#l" y="234.248"/><use x="176.962" xlink:href="#l" y="234.248"/></g><g transform="matrix(.1 0 0 -.1 170.6 247.246)"><use xlink:href="#k"/><use x="63.623" xlink:href="#n"/></g><g stroke="#000" stroke-width=".6"><use x="183.652" xlink:href="#l" y="234.248"/><use x="190.342" xlink:href="#l" y="234.248"/><use x="197.033" xlink:href="#l" y="234.248"/><use x="203.723" xlink:href="#l" y="234.248"/><use x="210.413" xlink:href="#l" y="234.248"/><use x="217.103" xlink:href="#l" y="234.248"/><use x="223.793" xlink:href="#l" y="234.248"/></g><g transform="matrix(.1 0 0 -.1 217.43 247.246)"><use xlink:href="#f"/><use x="63.623" xlink:href="#o"/></g><g stroke="#000" stroke-width=".6"><use x="230.483" xlink:href="#l" y="234.248"/><use x="237.173" xlink:href="#l" y="234.248"/><use x="243.864" xlink:href="#l" y="234.248"/><use x="250.554" xlink:href="#l" y="234.248"/><use x="257.244" xlink:href="#l" y="234.248"/><use x="263.934" xlink:href="#l" y="234.248"/><use x="270.624" xlink:href="#l" y="234.248"/></g><g transform="matrix(.1 0 0 -.1 264.262 247.246)"><use xlink:href="#o"/><use x="63.623" xlink:href="#g"/></g><g stroke="#000" stroke-width=".6"><use x="277.314" xlink:href="#l" y="234.248"/><use x="290.695" xlink:href="#l" y="234.248"/><use x="297.385" xlink:href="#l" y="234.248"/><use x="304.075" xlink:href="#l" y="234.248"/><use x="310.765" xlink:href="#l" y="234.248"/><use x="317.455" xlink:href="#l" y="234.248"/></g><g transform="matrix(.1 0 0 -.1 311.093 247.246)"><use xlink:href="#g"/><use x="63.623" xlink:href="#n"/></g><g stroke="#000" stroke-width=".6"><use x="324.145" xlink:href="#l" y="234.248"/><use x="330.835" xlink:href="#l" y="234.248"/><use x="337.525" xlink:href="#l" y="234.248"/><use x="344.216" xlink:href="#l" y="234.248"/><use x="350.906" xlink:href="#l" y="234.248"/><use x="357.596" xlink:href="#l" y="234.248"/><use x="364.286" xlink:href="#l" y="234.248"/></g><g transform="matrix(.1 0 0 -.1 357.924 247.246)"><use xlink:href="#k"/><use x="63.623" xlink:href="#o"/></g><g stroke="#000" stroke-width=".6"><use x="370.976" xlink:href="#l" y="234.248"/><use x="377.666" xlink:href="#l" y="234.248"/><use x="384.356" xlink:href="#l" y="234.248"/><use x="391.047" xlink:href="#l" y="234.248"/><use x="397.737" xlink:href="#l" y="234.248"/><use x="404.427" xlink:href="#l" y="234.248"/><use x="411.117" xlink:href="#l" y="234.248"/></g><g transform="matrix(.1 0 0 -.1 404.755 247.246)"><use xlink:href="#f"/><use x="63.623" xlink:href="#g"/></g><g stroke="#000" stroke-width=".6"><use x="417.807" xlink:href="#l" y="234.248"/><use x="424.497" xlink:href="#l" y="234.248"/><use x="431.187" xlink:href="#l" y="234.248"/><use x="437.878" xlink:href="#l" y="234.248"/><use x="444.568" xlink:href="#l" y="234.248"/><use x="451.258" xlink:href="#l" y="234.248"/><use x="457.948" xlink:href="#l" y="234.248"/></g><g transform="matrix(.1 0 0 -.1 451.586 247.246)"><use xlink:href="#f"/><use x="63.623" xlink:href="#p"/></g><g stroke="#000" stroke-width=".6"><use x="464.638" xlink:href="#l" y="234.248"/><use x="471.328" xlink:href="#l" y="234.248"/><use x="478.018" xlink:href="#l" y="234.248"/><use x="491.399" xlink:href="#l" y="234.248"/><use x="498.089" xlink:href="#l" y="234.248"/><use x="504.779" xlink:href="#l" y="234.248"/></g><g transform="matrix(.1 0 0 -.1 498.417 247.246)"><use xlink:href="#g"/><use x="63.623" xlink:href="#q"/></g><g stroke="#000" stroke-width=".6"><use x="511.469" xlink:href="#l" y="234.248"/><use x="518.159" xlink:href="#l" y="234.248"/><use x="524.849" xlink:href="#l" y="234.248"/><use x="531.54" xlink:href="#l" y="234.248"/><use x="538.23" xlink:href="#l" y="234.248"/><use x="544.92" xlink:href="#l" y="234.248"/></g><path clip-path="url(#a)" d="M76.61 197.282h475" fill="none" stroke="#b0b0b0" stroke-linecap="square" stroke-width=".8"/><use stroke="#000" stroke-width=".8" x="76.61" xlink:href="#r" y="197.282"/><g transform="matrix(.1 0 0 -.1 31.435 201.081)"><use xlink:href="#f"/><use x="63.623" xlink:href="#g"/><use x="127.246" xlink:href="#g"/><use x="190.869" xlink:href="#g"/><use x="254.492" xlink:href="#g"/><use x="318.115" xlink:href="#g"/></g><path clip-path="url(#a)" d="M76.61 160.315h475" fill="none" stroke="#b0b0b0" stroke-linecap="square" stroke-width=".8"/><use stroke="#000" stroke-width=".8" x="76.61" xlink:href="#r" y="160.315"/><g transform="matrix(.1 0 0 -.1 31.435 164.114)"><use xlink:href="#q"/><use x="63.623" xlink:href="#g"/><use x="127.246" xlink:href="#g"/><use x="190.869" xlink:href="#g"/><use x="254.492" xlink:href="#g"/><use x="318.115" xlink:href="#g"/></g><path clip-path="url(#a)" d="M76.61 123.347h475" fill="none" stroke="#b0b0b0" stroke-linecap="square" stroke-width=".8"/><use stroke="#000" stroke-width=".8" x="76.61" xlink:href="#r" y="123.347"/><g transform="matrix(.1 0 0 -.1 31.435 127.146)"><use xlink:href="#n"/><use x="63.623" xlink:href="#g"/><use x="127.246" xlink:href="#g"/><use x="190.869" xlink:href="#g"/><use x="254.492" xlink:href="#g"/><use x="318.115" xlink:href="#g"/></g><path clip-path="url(#a)" d="M76.61 86.38h475" fill="none" stroke="#b0b0b0" stroke-linecap="square" stroke-width=".8"/><use stroke="#000" stroke-width=".8" x="76.61" xlink:href="#r" y="86.379"/><g transform="matrix(.1 0 0 -.1 31.435 90.179)"><use xlink:href="#s"/><use x="63.623" xlink:href="#g"/><use x="127.246" xlink:href="#g"/><use x="190.869" xlink:href="#g"/><use x="254.492" xlink:href="#g"/><use x="318.115" xlink:href="#g"/></g><path clip-path="url(#a)" d="M76.61 49.412h475" fill="none" stroke="#b0b0b0" stroke-linecap="square" stroke-width=".8"/><use stroke="#000" stroke-width=".8" x="76.61" xlink:href="#r" y="49.412"/><g transform="matrix(.1 0 0 -.1 25.073 53.21)"><use xlink:href="#k"/><use x="63.623" xlink:href="#g"/><use x="127.246" xlink:href="#g"/><use x="190.869" xlink:href="#g"/><use x="254.492" xlink:href="#g"/><use x="318.115" xlink:href="#g"/><use x="381.738" xlink:href="#g"/></g><g transform="matrix(0 -.1 -.1 0 18.993 156.19)"><path d="M3.328 72.906h9.953L28.61 11.281l15.282 61.625h11.093l15.328-61.625 15.282 61.625h10.015L77.297 0H64.89L49.516 63.281 33.984 0H21.578z"/><use x="98.799" xlink:href="#t"/><use x="159.98" xlink:href="#e"/><use x="201.094" xlink:href="#u"/><use x="228.877" xlink:href="#v"/><use x="292.354" xlink:href="#w"/><use x="374.141" xlink:href="#x"/><use x="401.924" xlink:href="#v"/><use x="465.4" xlink:href="#y"/></g><g stroke="#1f77b4"><path clip-path="url(#a)" d="M-1 234.248H9.708l6.69-.004H29.78l6.69-.003h13.38l6.69-.001h6.69l6.69-.002h6.691l6.69-.004 6.69-.004 6.69-.005 6.69-.012 6.69-.01 6.69-.026 6.691-.021 6.69-.012 6.69-.065 6.69-.058 6.69-.069 6.69-.094 6.69-.1 6.691-.141 6.69-.204 6.69-.327 6.69-.234 6.69-1.074 6.69-.986 6.69-1.17 6.691-1.55 6.69-1.79 6.69-1.77 6.69-2.18 6.69-3.229 6.69-3.19 6.69-3.542 6.69-3.218 6.691-3.222 6.69-4.448 6.69-4.227 6.69-5.273 6.69-5.568 6.69-4.99 6.69-4.476 6.691-4.86 6.69-4.702 6.69-5.372 6.69-5.314 6.69-5.473 6.69-4.714 6.69-4.74 6.691-2.459 6.69-3.783 6.69-4.039 6.69-4.483 6.69-4.474 6.69-4.493 6.69-3.585 6.691-4.032 6.69-4.124 6.69-4.44 6.69-4.21 6.69-2.826 6.69-5.494 6.69-3.676 6.691-3.068 6.69-3.286 6.69-3.684 6.69 1.06 6.69-4.07 6.69-3.01 6.69-3.589 6.691-2.6 6.69-3.553 6.69-4.023 6.69-3.894 6.69-3.96" fill="none" stroke-linecap="square" stroke-width="1.5"/><g clip-path="url(#a)" fill="#1f77b4"><use x="-1" xlink:href="#z" y="234.248"/><use x="3.018" xlink:href="#z" y="234.248"/><use x="9.709" xlink:href="#z" y="234.248"/><use x="16.399" xlink:href="#z" y="234.244"/><use x="23.089" xlink:href="#z" y="234.244"/><use x="29.779" xlink:href="#z" y="234.244"/><use x="36.469" xlink:href="#z" y="234.241"/><use x="43.159" xlink:href="#z" y="234.241"/><use x="49.849" xlink:href="#z" y="234.24"/><use x="56.54" xlink:href="#z" y="234.24"/><use x="63.23" xlink:href="#z" y="234.24"/><use x="69.92" xlink:href="#z" y="234.238"/><use x="76.61" xlink:href="#z" y="234.237"/><use x="83.3" xlink:href="#z" y="234.234"/><use x="89.99" xlink:href="#z" y="234.23"/><use x="96.68" xlink:href="#z" y="234.225"/><use x="103.371" xlink:href="#z" y="234.213"/><use x="110.061" xlink:href="#z" y="234.203"/><use x="116.751" xlink:href="#z" y="234.177"/><use x="123.441" xlink:href="#z" y="234.156"/><use x="130.131" xlink:href="#z" y="234.144"/><use x="136.821" xlink:href="#z" y="234.079"/><use x="143.511" xlink:href="#z" y="234.021"/><use x="150.202" xlink:href="#z" y="233.952"/><use x="156.892" xlink:href="#z" y="233.858"/><use x="163.582" xlink:href="#z" y="233.758"/><use x="170.272" xlink:href="#z" y="233.617"/><use x="176.962" xlink:href="#z" y="233.413"/><use x="183.652" xlink:href="#z" y="233.086"/><use x="190.342" xlink:href="#z" y="232.852"/><use x="197.033" xlink:href="#z" y="231.778"/><use x="203.723" xlink:href="#z" y="230.792"/><use x="210.413" xlink:href="#z" y="229.622"/><use x="217.103" xlink:href="#z" y="228.072"/><use x="223.793" xlink:href="#z" y="226.281"/><use x="230.483" xlink:href="#z" y="224.512"/><use x="237.173" xlink:href="#z" y="222.332"/><use x="243.864" xlink:href="#z" y="219.103"/><use x="250.554" xlink:href="#z" y="215.913"/><use x="257.244" xlink:href="#z" y="212.371"/><use x="263.934" xlink:href="#z" y="209.153"/><use x="270.624" xlink:href="#z" y="205.931"/><use x="277.314" xlink:href="#z" y="201.483"/><use x="284.004" xlink:href="#z" y="197.256"/><use x="290.695" xlink:href="#z" y="191.983"/><use x="297.385" xlink:href="#z" y="186.415"/><use x="304.075" xlink:href="#z" y="181.424"/><use x="310.765" xlink:href="#z" y="176.949"/><use x="317.455" xlink:href="#z" y="172.088"/><use x="324.145" xlink:href="#z" y="167.387"/><use x="330.835" xlink:href="#z" y="162.015"/><use x="337.525" xlink:href="#z" y="156.701"/><use x="344.216" xlink:href="#z" y="151.228"/><use x="350.906" xlink:href="#z" y="146.514"/><use x="357.596" xlink:href="#z" y="141.774"/><use x="364.286" xlink:href="#z" y="139.315"/><use x="370.976" xlink:href="#z" y="135.532"/><use x="377.666" xlink:href="#z" y="131.493"/><use x="384.356" xlink:href="#z" y="127.01"/><use x="391.047" xlink:href="#z" y="122.536"/><use x="397.737" xlink:href="#z" y="118.043"/><use x="404.427" xlink:href="#z" y="114.458"/><use x="411.117" xlink:href="#z" y="110.426"/><use x="417.807" xlink:href="#z" y="106.302"/><use x="424.497" xlink:href="#z" y="101.863"/><use x="431.187" xlink:href="#z" y="97.652"/><use x="437.878" xlink:href="#z" y="94.826"/><use x="444.568" xlink:href="#z" y="89.332"/><use x="451.258" xlink:href="#z" y="85.656"/><use x="457.948" xlink:href="#z" y="82.588"/><use x="464.638" xlink:href="#z" y="79.302"/><use x="471.328" xlink:href="#z" y="75.618"/><use x="478.018" xlink:href="#z" y="76.679"/><use x="484.709" xlink:href="#z" y="72.608"/><use x="491.399" xlink:href="#z" y="69.598"/><use x="498.089" xlink:href="#z" y="66.009"/><use x="504.779" xlink:href="#z" y="63.409"/><use x="511.469" xlink:href="#z" y="59.856"/><use x="518.159" xlink:href="#z" y="55.833"/><use x="524.849" xlink:href="#z" y="51.939"/><use x="531.54" xlink:href="#z" y="47.978"/></g></g><g stroke="#ff7f0e"><path clip-path="url(#a)" d="M-1 234.25h30.779l6.69-.001h20.07l6.69-.001h6.69l6.691-.003 6.69-.001 6.69-.002 6.69-.006 6.69-.006 6.69-.008 6.69-.007 6.691-.012 6.69-.008 6.69-.011 6.69-.014h6.69l6.69-.063 6.69-.061h6.691l6.69-.069 6.69-.07 6.69-.12 6.69-.001 6.69-.233 6.69-.184 6.691-.11 6.69-.164 6.69-.25 6.69-.265 6.69-.379 6.69-.508 6.69-.426 6.69-.418 6.691-.457 6.69-.488 6.69-.706 6.69-.688 6.69-.705 6.69-.568 6.69-.984 6.691-.618 6.69-.526 6.69-.844 6.69-.647 6.69-1.39 6.69-.799 6.69-.848 6.691-.734 6.69-.827 6.69-.707 6.69-.7 6.69-.88 6.69-.856 6.69-.969 6.691-.78 6.69-.609 6.69-.674 6.69-.728 6.69-.852 6.69-.751 6.69-.749 6.691-.724 6.69-.63 6.69.07 6.69-.992 6.69-1.004 6.69-.774 6.69-.743 6.691-.683 6.69-.684 6.69-1.01 6.69-.931 6.69-.74" fill="none" stroke-linecap="square" stroke-width="1.5"/><g clip-path="url(#a)" fill="#ff7f0e"><use x="-1" xlink:href="#A" y="234.25"/><use x="3.018" xlink:href="#A" y="234.25"/><use x="9.709" xlink:href="#A" y="234.25"/><use x="16.399" xlink:href="#A" y="234.25"/><use x="23.089" xlink:href="#A" y="234.25"/><use x="29.779" xlink:href="#A" y="234.25"/><use x="36.469" xlink:href="#A" y="234.249"/><use x="43.159" xlink:href="#A" y="234.249"/><use x="49.849" xlink:href="#A" y="234.249"/><use x="56.54" xlink:href="#A" y="234.249"/><use x="63.23" xlink:href="#A" y="234.248"/><use x="69.92" xlink:href="#A" y="234.247"/><use x="76.61" xlink:href="#A" y="234.245"/><use x="83.3" xlink:href="#A" y="234.244"/><use x="89.99" xlink:href="#A" y="234.242"/><use x="96.68" xlink:href="#A" y="234.236"/><use x="103.371" xlink:href="#A" y="234.23"/><use x="110.061" xlink:href="#A" y="234.222"/><use x="116.751" xlink:href="#A" y="234.215"/><use x="123.441" xlink:href="#A" y="234.203"/><use x="130.131" xlink:href="#A" y="234.195"/><use x="136.821" xlink:href="#A" y="234.184"/><use x="143.511" xlink:href="#A" y="234.17"/><use x="150.202" xlink:href="#A" y="234.17"/><use x="156.892" xlink:href="#A" y="234.107"/><use x="163.582" xlink:href="#A" y="234.046"/><use x="170.272" xlink:href="#A" y="234.046"/><use x="176.962" xlink:href="#A" y="233.977"/><use x="183.652" xlink:href="#A" y="233.908"/><use x="190.342" xlink:href="#A" y="233.787"/><use x="197.033" xlink:href="#A" y="233.786"/><use x="203.723" xlink:href="#A" y="233.553"/><use x="210.413" xlink:href="#A" y="233.369"/><use x="217.103" xlink:href="#A" y="233.258"/><use x="223.793" xlink:href="#A" y="233.095"/><use x="230.483" xlink:href="#A" y="232.845"/><use x="237.173" xlink:href="#A" y="232.58"/><use x="243.864" xlink:href="#A" y="232.201"/><use x="250.554" xlink:href="#A" y="231.693"/><use x="257.244" xlink:href="#A" y="231.267"/><use x="263.934" xlink:href="#A" y="230.849"/><use x="270.624" xlink:href="#A" y="230.392"/><use x="277.314" xlink:href="#A" y="229.904"/><use x="284.004" xlink:href="#A" y="229.198"/><use x="290.695" xlink:href="#A" y="228.51"/><use x="297.385" xlink:href="#A" y="227.805"/><use x="304.075" xlink:href="#A" y="227.237"/><use x="310.765" xlink:href="#A" y="226.253"/><use x="317.455" xlink:href="#A" y="225.635"/><use x="324.145" xlink:href="#A" y="225.109"/><use x="330.835" xlink:href="#A" y="224.265"/><use x="337.525" xlink:href="#A" y="223.618"/><use x="344.216" xlink:href="#A" y="222.227"/><use x="350.906" xlink:href="#A" y="221.429"/><use x="357.596" xlink:href="#A" y="220.581"/><use x="364.286" xlink:href="#A" y="219.847"/><use x="370.976" xlink:href="#A" y="219.02"/><use x="377.666" xlink:href="#A" y="218.313"/><use x="384.356" xlink:href="#A" y="217.612"/><use x="391.047" xlink:href="#A" y="216.733"/><use x="397.737" xlink:href="#A" y="215.877"/><use x="404.427" xlink:href="#A" y="214.908"/><use x="411.117" xlink:href="#A" y="214.128"/><use x="417.807" xlink:href="#A" y="213.519"/><use x="424.497" xlink:href="#A" y="212.845"/><use x="431.187" xlink:href="#A" y="212.117"/><use x="437.878" xlink:href="#A" y="211.265"/><use x="444.568" xlink:href="#A" y="210.514"/><use x="451.258" xlink:href="#A" y="209.765"/><use x="457.948" xlink:href="#A" y="209.041"/><use x="464.638" xlink:href="#A" y="208.411"/><use x="471.328" xlink:href="#A" y="208.48"/><use x="478.018" xlink:href="#A" y="207.489"/><use x="484.709" xlink:href="#A" y="206.485"/><use x="491.399" xlink:href="#A" y="205.711"/><use x="498.089" xlink:href="#A" y="204.968"/><use x="504.779" xlink:href="#A" y="204.285"/><use x="511.469" xlink:href="#A" y="203.601"/><use x="518.159" xlink:href="#A" y="202.592"/><use x="524.849" xlink:href="#A" y="201.66"/><use x="531.54" xlink:href="#A" y="200.921"/></g></g><path clip-path="url(#a)" d="M-1 234.249h50.849l6.69-.004 6.69-.003 6.69-.008 6.691-.006 6.69-.01 6.69-.003 6.69-.015 6.69-.017 6.69-.05 6.69-.054 6.691-.032 6.69-.015 6.69-.104 6.69-.09h6.69l6.69-.25 6.69-.147 6.691-.006 6.69-.385 6.69-.19 6.69-.254 6.69-.321 6.69-.285 6.69-.289 6.691.074 6.69-.687 6.69-.218 6.69-.393 6.69-.47 6.69-.517 6.69-.807 6.69-.15 6.691-.61 6.69-1.036 6.69-.531 6.69.124 6.69-.474 6.69-4.28 6.69-.301 6.691-.606 6.69-1.403 6.69-.263 6.69-.28 6.69-.81 6.69-.498 6.69-.291 6.691-.573 6.69 1.548 6.69.109 6.69-1.83 6.69.074 6.69.408 6.69-.73 6.691-.182 6.69-.092 6.69.78 6.69-.07 6.69.26 6.69-.041 6.69-.005 6.691-.498 6.69-.23 6.69.792 6.69.147 6.69.176 6.69-.284 6.69-.009 6.691.044 6.69.11 6.69-.374 6.69.11 6.69-.063" fill="none" stroke="#2ca02c" stroke-linecap="square" stroke-width="1.5"/><g stroke="#d62728"><path clip-path="url(#a)" d="M-1 234.25H9.708l6.69-.004 6.69-.007 6.691-.017 6.69-.013 6.69-.017 6.69-.023 6.69-.029 6.69-.042 6.69-.043 6.691-.097 6.69-.047 6.69-.08 6.69-.081 6.69-.11 6.69-.114 6.69-.212 6.691-.245 6.69-.295 6.69-.15 6.69-.332h6.69l6.69-.806 6.69-.517 6.691-.527 6.69-.457 6.69-.552 6.69-.49 6.69-.828 6.69-.99 6.69-.764 6.691-.732 6.69-.698 6.69-.668 6.69-.645 6.69-.83 6.69-.814 6.69-.675 6.69-.705 6.691-.305 6.69-.39 6.69-.542 6.69-.458 6.69-.432 6.69-.534 6.69-.549 6.691-.359 6.69-.162 6.69-.221 6.69-.299 6.69-.258 6.69-.369 6.69-.366 6.691-.252 6.69-.125 6.69-.208 6.69-.22 6.69-.066 6.69-.15 6.69-.09 6.691.005 6.69.097 6.69.002 6.69.157 6.69.06 6.69.125 6.69-.047 6.691.054 6.69.112 6.69.101 6.69.574 6.69.113 6.69.044 6.69.097 6.691.037 6.69.28 6.69 1.282 6.69.352 6.69.307" fill="none" stroke-linecap="square" stroke-width="1.5"/><g clip-path="url(#a)" fill="#d62728"><use x="-1" xlink:href="#B" y="234.249"/><use x="3.018" xlink:href="#B" y="234.249"/><use x="9.709" xlink:href="#B" y="234.249"/><use x="16.399" xlink:href="#B" y="234.246"/><use x="23.089" xlink:href="#B" y="234.239"/><use x="29.779" xlink:href="#B" y="234.222"/><use x="36.469" xlink:href="#B" y="234.209"/><use x="43.159" xlink:href="#B" y="234.192"/><use x="49.849" xlink:href="#B" y="234.169"/><use x="56.54" xlink:href="#B" y="234.14"/><use x="63.23" xlink:href="#B" y="234.098"/><use x="69.92" xlink:href="#B" y="234.055"/><use x="76.61" xlink:href="#B" y="233.958"/><use x="83.3" xlink:href="#B" y="233.911"/><use x="89.99" xlink:href="#B" y="233.832"/><use x="96.68" xlink:href="#B" y="233.75"/><use x="103.371" xlink:href="#B" y="233.641"/><use x="110.061" xlink:href="#B" y="233.526"/><use x="116.751" xlink:href="#B" y="233.314"/><use x="123.441" xlink:href="#B" y="233.069"/><use x="130.131" xlink:href="#B" y="232.774"/><use x="136.821" xlink:href="#B" y="232.624"/><use x="143.511" xlink:href="#B" y="232.292"/><use x="150.202" xlink:href="#B" y="232.292"/><use x="156.892" xlink:href="#B" y="231.486"/><use x="163.582" xlink:href="#B" y="230.969"/><use x="170.272" xlink:href="#B" y="230.442"/><use x="176.962" xlink:href="#B" y="229.985"/><use x="183.652" xlink:href="#B" y="229.433"/><use x="190.342" xlink:href="#B" y="228.943"/><use x="197.033" xlink:href="#B" y="228.115"/><use x="203.723" xlink:href="#B" y="227.125"/><use x="210.413" xlink:href="#B" y="226.361"/><use x="217.103" xlink:href="#B" y="225.629"/><use x="223.793" xlink:href="#B" y="224.931"/><use x="230.483" xlink:href="#B" y="224.263"/><use x="237.173" xlink:href="#B" y="223.618"/><use x="243.864" xlink:href="#B" y="222.787"/><use x="250.554" xlink:href="#B" y="221.974"/><use x="257.244" xlink:href="#B" y="221.299"/><use x="263.934" xlink:href="#B" y="220.594"/><use x="270.624" xlink:href="#B" y="220.289"/><use x="277.314" xlink:href="#B" y="219.9"/><use x="284.004" xlink:href="#B" y="219.357"/><use x="290.695" xlink:href="#B" y="218.899"/><use x="297.385" xlink:href="#B" y="218.467"/><use x="304.075" xlink:href="#B" y="217.933"/><use x="310.765" xlink:href="#B" y="217.384"/><use x="317.455" xlink:href="#B" y="217.025"/><use x="324.145" xlink:href="#B" y="216.863"/><use x="330.835" xlink:href="#B" y="216.642"/><use x="337.525" xlink:href="#B" y="216.343"/><use x="344.216" xlink:href="#B" y="216.085"/><use x="350.906" xlink:href="#B" y="215.716"/><use x="357.596" xlink:href="#B" y="215.35"/><use x="364.286" xlink:href="#B" y="215.098"/><use x="370.976" xlink:href="#B" y="214.973"/><use x="377.666" xlink:href="#B" y="214.765"/><use x="384.356" xlink:href="#B" y="214.545"/><use x="391.047" xlink:href="#B" y="214.479"/><use x="397.737" xlink:href="#B" y="214.33"/><use x="404.427" xlink:href="#B" y="214.24"/><use x="411.117" xlink:href="#B" y="214.244"/><use x="417.807" xlink:href="#B" y="214.341"/><use x="424.497" xlink:href="#B" y="214.343"/><use x="431.187" xlink:href="#B" y="214.5"/><use x="437.878" xlink:href="#B" y="214.56"/><use x="444.568" xlink:href="#B" y="214.685"/><use x="451.258" xlink:href="#B" y="214.638"/><use x="457.948" xlink:href="#B" y="214.692"/><use x="464.638" xlink:href="#B" y="214.804"/><use x="471.328" xlink:href="#B" y="214.905"/><use x="478.018" xlink:href="#B" y="215.479"/><use x="484.709" xlink:href="#B" y="215.592"/><use x="491.399" xlink:href="#B" y="215.636"/><use x="498.089" xlink:href="#B" y="215.733"/><use x="504.779" xlink:href="#B" y="215.77"/><use x="511.469" xlink:href="#B" y="216.049"/><use x="518.159" xlink:href="#B" y="217.332"/><use x="524.849" xlink:href="#B" y="217.684"/><use x="531.54" xlink:href="#B" y="217.991"/></g></g><g stroke="#9467bd"><path clip-path="url(#a)" d="M-1 234.25H103.37l6.69-.003h13.381l6.69-.002h6.69l6.69-.002 6.69-.003 6.69-.018h6.69l6.691-.002 6.69-.007 6.69-.022 6.69-.009 6.69-.045 6.69-.031 6.69-.042 6.691-.095 6.69-.068 6.69-.058 6.69-.054 6.69-.076 6.69-.077 6.69-.086 6.69-.06 6.691-.035 6.69-.201 6.69-.2 6.69-.208 6.69-.18 6.69-.225 6.69-.135 6.691-.176 6.69-.324 6.69-.37 6.69-.323 6.69-.266 6.69-.189 6.69-.252 6.691-.21 6.69.23 6.69 1.503 6.69-.355 6.69-.562 6.69-.51 6.69 1.149 6.691-.363 6.69-.245 6.69-.034 6.69-.48 6.69-.472 6.69-.633 6.69-.472 6.691-.562 6.69-.722 6.69-.82 6.69-.961 6.69-.463 6.69-.306 6.69-.44 6.691-.675 6.69-.713 6.69-1.36 6.69-.847 6.69-1.173" fill="none" stroke-linecap="square" stroke-width="1.5"/><g clip-path="url(#a)" fill="#9467bd"><use x="-1" xlink:href="#C" y="234.25"/><use x="3.018" xlink:href="#C" y="234.25"/><use x="9.709" xlink:href="#C" y="234.25"/><use x="16.399" xlink:href="#C" y="234.25"/><use x="23.089" xlink:href="#C" y="234.25"/><use x="29.779" xlink:href="#C" y="234.25"/><use x="36.469" xlink:href="#C" y="234.25"/><use x="43.159" xlink:href="#C" y="234.25"/><use x="49.849" xlink:href="#C" y="234.25"/><use x="56.54" xlink:href="#C" y="234.25"/><use x="63.23" xlink:href="#C" y="234.25"/><use x="69.92" xlink:href="#C" y="234.249"/><use x="76.61" xlink:href="#C" y="234.249"/><use x="83.3" xlink:href="#C" y="234.249"/><use x="89.99" xlink:href="#C" y="234.249"/><use x="96.68" xlink:href="#C" y="234.249"/><use x="103.371" xlink:href="#C" y="234.249"/><use x="110.061" xlink:href="#C" y="234.247"/><use x="116.751" xlink:href="#C" y="234.247"/><use x="123.441" xlink:href="#C" y="234.246"/><use x="130.131" xlink:href="#C" y="234.245"/><use x="136.821" xlink:href="#C" y="234.244"/><use x="143.511" xlink:href="#C" y="234.243"/><use x="150.202" xlink:href="#C" y="234.24"/><use x="156.892" xlink:href="#C" y="234.222"/><use x="163.582" xlink:href="#C" y="234.222"/><use x="170.272" xlink:href="#C" y="234.22"/><use x="176.962" xlink:href="#C" y="234.213"/><use x="183.652" xlink:href="#C" y="234.191"/><use x="190.342" xlink:href="#C" y="234.182"/><use x="197.033" xlink:href="#C" y="234.137"/><use x="203.723" xlink:href="#C" y="234.106"/><use x="210.413" xlink:href="#C" y="234.064"/><use x="217.103" xlink:href="#C" y="233.969"/><use x="223.793" xlink:href="#C" y="233.901"/><use x="230.483" xlink:href="#C" y="233.843"/><use x="237.173" xlink:href="#C" y="233.789"/><use x="243.864" xlink:href="#C" y="233.713"/><use x="250.554" xlink:href="#C" y="233.636"/><use x="257.244" xlink:href="#C" y="233.55"/><use x="263.934" xlink:href="#C" y="233.489"/><use x="270.624" xlink:href="#C" y="233.455"/><use x="277.314" xlink:href="#C" y="233.254"/><use x="284.004" xlink:href="#C" y="233.054"/><use x="290.695" xlink:href="#C" y="232.846"/><use x="297.385" xlink:href="#C" y="232.666"/><use x="304.075" xlink:href="#C" y="232.441"/><use x="310.765" xlink:href="#C" y="232.306"/><use x="317.455" xlink:href="#C" y="232.13"/><use x="324.145" xlink:href="#C" y="231.806"/><use x="330.835" xlink:href="#C" y="231.436"/><use x="337.525" xlink:href="#C" y="231.113"/><use x="344.216" xlink:href="#C" y="230.847"/><use x="350.906" xlink:href="#C" y="230.658"/><use x="357.596" xlink:href="#C" y="230.406"/><use x="364.286" xlink:href="#C" y="230.197"/><use x="370.976" xlink:href="#C" y="230.427"/><use x="377.666" xlink:href="#C" y="231.929"/><use x="384.356" xlink:href="#C" y="231.574"/><use x="391.047" xlink:href="#C" y="231.012"/><use x="397.737" xlink:href="#C" y="230.502"/><use x="404.427" xlink:href="#C" y="231.651"/><use x="411.117" xlink:href="#C" y="231.288"/><use x="417.807" xlink:href="#C" y="231.043"/><use x="424.497" xlink:href="#C" y="231.009"/><use x="431.187" xlink:href="#C" y="230.529"/><use x="437.878" xlink:href="#C" y="230.057"/><use x="444.568" xlink:href="#C" y="229.424"/><use x="451.258" xlink:href="#C" y="228.952"/><use x="457.948" xlink:href="#C" y="228.39"/><use x="464.638" xlink:href="#C" y="227.668"/><use x="471.328" xlink:href="#C" y="226.849"/><use x="478.018" xlink:href="#C" y="225.887"/><use x="484.709" xlink:href="#C" y="225.424"/><use x="491.399" xlink:href="#C" y="225.118"/><use x="498.089" xlink:href="#C" y="224.678"/><use x="504.779" xlink:href="#C" y="224.003"/><use x="511.469" xlink:href="#C" y="223.29"/><use x="518.159" xlink:href="#C" y="221.93"/><use x="524.849" xlink:href="#C" y="221.083"/><use x="531.54" xlink:href="#C" y="219.91"/></g></g><g fill="none" stroke-dasharray="1.5 2.475" stroke-width="1.5"><path clip-path="url(#a)" d="M531.54 47.978l6.69-4.107 6.69-4.198 6.69-4.29" stroke="#1f77b4"/><path clip-path="url(#a)" d="M531.54 200.92l6.69-.909 6.69-.934 6.69-.96" stroke="#ff7f0e"/><path clip-path="url(#a)" d="M531.54 216.86l6.69-.068 6.69-.069 6.69-.069" stroke="#2ca02c"/><path clip-path="url(#a)" d="M531.54 217.991l6.69.5 6.69.484 6.69.469" stroke="#d62728"/><path clip-path="url(#a)" d="M531.54 219.91l6.69-1.278 6.69-1.392 6.69-1.516" stroke="#9467bd"/></g><g fill="none" stroke="#000" stroke-linecap="square" stroke-linejoin="miter" stroke-width=".8"><path d="M76.61 234.248V25.44M551.61 234.248V25.44M76.61 234.248h475M76.61 25.44h475"/></g><g><g transform="matrix(.12 0 0 -.12 192.33 19.44)"><use xlink:href="#h"/><use x="68.393" xlink:href="#D"/><use x="123.373" xlink:href="#E"/><use x="162.582" xlink:href="#x"/><path d="M193.35 54.688h9.515L219.96 8.797l17.094 45.89h9.515L226.053 0H213.85z"/><use x="249.545" xlink:href="#y"/><use x="342.855" xlink:href="#F"/><path d="M452.086 66.219q-10.75 0-17.078-8.016-6.313-8-6.313-21.828 0-13.766 6.313-21.781 6.328-8 17.078-8 10.734 0 17.016 8 6.28 8.015 6.28 21.781 0 13.828-6.28 21.828-6.282 8.016-17.016 8.016zm0 8q15.328 0 24.5-10.281 9.187-10.282 9.187-27.563 0-17.234-9.187-27.516-9.172-10.28-24.5-10.28-15.375 0-24.594 10.25-9.203 10.265-9.203 27.546t9.203 27.563q9.219 10.28 24.594 10.28zM519.984 0l-27.828 72.906h10.297l23.11-61.375 23.14 61.375h10.25L531.172 0z"/><use x="559.783" xlink:href="#G"/><path d="M608.947 64.797V8.109h11.922q15.094 0 22.094 6.829 7 6.843 7 21.593 0 14.64-7 21.453-7 6.813-22.094 6.813zm-9.86 8.11h20.267q21.187 0 31.093-8.813 9.922-8.813 9.922-27.563 0-18.86-9.969-27.703Q640.447 0 619.354 0h-20.266z"/><use x="666.277" xlink:href="#H"/><use x="702.361" xlink:href="#k"/><use x="765.984" xlink:href="#m"/><use x="861.395" xlink:href="#D"/><use x="916.375" xlink:href="#d"/><use x="977.654" xlink:href="#I"/><use x="1029.754" xlink:href="#y"/><use x="1091.277" xlink:href="#I"/><use x="1175.164" xlink:href="#d"/><use x="1236.443" xlink:href="#I"/><use x="1320.33" xlink:href="#t"/><use x="1381.512" xlink:href="#J"/><use x="1448.504" xlink:href="#f"/><use x="1512.127" xlink:href="#g"/><use x="1575.75" xlink:href="#f"/><use x="1639.373" xlink:href="#g"/><use x="1702.996" xlink:href="#H"/><use x="1739.08" xlink:href="#g"/><use x="1802.703" xlink:href="#K"/><use x="1866.326" xlink:href="#H"/><use x="1902.41" xlink:href="#g"/><use x="1966.033" xlink:href="#s"/></g><path d="M83.61 106.83h227.06q2 0 2-2V32.44q0-2-2-2H83.61q-2 0-2 2v72.39q0 2 2 2z" fill="#fff" opacity=".8" stroke="#ccc" stroke-linejoin="miter"/><path d="M85.61 38.538h20" fill="none" stroke="#1f77b4" stroke-linecap="square" stroke-width="1.5"/><use fill="#1f77b4" stroke="#1f77b4" x="95.61" xlink:href="#z" y="38.538"/><g transform="matrix(.1 0 0 -.1 113.61 42.038)"><use xlink:href="#L"/><use x="73.193" xlink:href="#M"/><use x="168.457" xlink:href="#N"/><use x="207.471" xlink:href="#v"/><use x="270.947" xlink:href="#t"/><use x="332.129" xlink:href="#O"/><use x="395.508" xlink:href="#P"/><use x="458.984" xlink:href="#u"/><use x="486.768" xlink:href="#y"/><use x="548.291" xlink:href="#I"/><use x="632.178" xlink:href="#x"/><use x="659.961" xlink:href="#Q"/><use x="755.127" xlink:href="#o"/><use x="818.75" xlink:href="#k"/><use x="882.373" xlink:href="#R"/><use x="914.16" xlink:href="#s"/><use x="1009.57" xlink:href="#v"/><use x="1073.047" xlink:href="#d"/><use x="1134.326" xlink:href="#j"/><use x="1193.506" xlink:href="#I"/><use x="1245.605" xlink:href="#S"/></g><path d="M85.61 53.217h20" fill="none" stroke="#ff7f0e" stroke-linecap="square" stroke-width="1.5"/><use fill="#ff7f0e" stroke="#ff7f0e" x="95.61" xlink:href="#A" y="53.217"/><g transform="matrix(.1 0 0 -.1 113.61 56.717)"><use xlink:href="#L"/><use x="73.193" xlink:href="#Q"/><use x="136.572" xlink:href="#x"/><use x="164.355" xlink:href="#E"/><use x="203.564" xlink:href="#y"/><use x="265.088" xlink:href="#v"/><path d="M370.164 72.906h9.86V42.094l32.718 30.812h12.703l-36.187-33.984L428.023 0H415.04l-35.016 35.11V0h-9.859z"/><use x="425.928" xlink:href="#x"/><use x="453.711" xlink:href="#Q"/><path d="M562.496 27.984q0 9.766-4.031 15.125-4.016 5.375-11.297 5.375-7.219 0-11.25-5.375-4.031-5.359-4.031-15.125 0-9.718 4.031-15.093t11.25-5.375q7.281 0 11.297 5.375 4.031 5.375 4.031 15.093zm8.984-21.203q0-13.953-6.203-20.765-6.187-6.813-18.984-6.813-4.734 0-8.938.703-4.203.703-8.156 2.172v8.735q3.953-2.141 7.813-3.157 3.86-1.031 7.86-1.031 8.843 0 13.233 4.61 4.391 4.609 4.391 13.937v4.453q-2.781-4.844-7.125-7.234Q551.027 0 544.965 0q-10.047 0-16.203 7.656-6.157 7.672-6.157 20.328 0 12.688 6.157 20.344Q534.918 56 544.965 56q6.062 0 10.406-2.39 4.344-2.391 7.125-7.22v8.297h8.984z"/><use x="580.566" xlink:href="#v"/><use x="644.043" xlink:href="#t"/><path d="M757.225 44.188q3.375 6.062 8.062 8.937Q769.975 56 776.318 56q8.547 0 13.188-5.984 4.64-5.97 4.64-17V0h-9.03v32.719q0 7.86-2.798 11.656-2.78 3.813-8.484 3.813-6.984 0-11.047-4.641-4.047-4.625-4.047-12.64V0h-9.031v32.719q0 7.906-2.781 11.687-2.782 3.782-8.594 3.782-6.89 0-10.953-4.657-4.047-4.656-4.047-12.625V0h-9.031v54.688h9.031v-8.5q3.078 5.03 7.375 7.421Q735.006 56 740.912 56q5.969 0 10.14-3.031 4.173-3.016 6.173-8.782z"/><use x="834.424" xlink:href="#N"/><use x="873.438" xlink:href="#v"/><use x="936.914" xlink:href="#t"/><use x="998.096" xlink:href="#O"/><use x="1061.475" xlink:href="#P"/><use x="1124.951" xlink:href="#u"/><use x="1152.734" xlink:href="#y"/><use x="1214.258" xlink:href="#I"/><use x="1298.145" xlink:href="#x"/><use x="1325.928" xlink:href="#Q"/><use x="1421.094" xlink:href="#f"/><use x="1484.717" xlink:href="#K"/><use x="1548.34" xlink:href="#R"/><use x="1580.127" xlink:href="#s"/><use x="1675.537" xlink:href="#v"/><use x="1739.014" xlink:href="#d"/><use x="1800.293" xlink:href="#j"/><use x="1859.473" xlink:href="#I"/><use x="1911.572" xlink:href="#S"/></g><path d="M85.61 67.895h20" fill="none" stroke="#2ca02c" stroke-linecap="square" stroke-width="1.5"/><g transform="matrix(.1 0 0 -.1 113.61 71.395)"><path d="M9.813 72.906h41.89v-8.312H19.672V43.109h28.906v-8.297H19.672V0h-9.86z"/><use x="57.41" xlink:href="#e"/><use x="98.523" xlink:href="#d"/><use x="159.803" xlink:href="#Q"/><use x="223.182" xlink:href="#D"/><use x="278.162" xlink:href="#y"/></g><path d="M85.61 82.573h20" fill="none" stroke="#d62728" stroke-linecap="square" stroke-width="1.5"/><use fill="#d62728" stroke="#d62728" x="95.61" xlink:href="#B" y="82.573"/><g transform="matrix(.1 0 0 -.1 113.61 86.073)"><use xlink:href="#G"/><use x="29.492" xlink:href="#E"/><use x="68.701" xlink:href="#d"/><use x="129.98" xlink:href="#u"/><use x="157.764" xlink:href="#j"/></g><path d="M85.61 97.25h20" fill="none" stroke="#9467bd" stroke-linecap="square" stroke-width="1.5"/><use fill="#9467bd" stroke="#9467bd" x="95.61" xlink:href="#C" y="97.251"/><g transform="matrix(.1 0 0 -.1 113.61 100.75)"><path d="M19.672 34.813V8.108H35.5q7.953 0 11.781 3.297 3.844 3.297 3.844 10.078 0 6.844-3.844 10.078-3.828 3.25-11.781 3.25zm0 29.984V42.828h14.61q7.218 0 10.75 2.703 3.546 2.719 3.546 8.282 0 5.515-3.547 8.25-3.531 2.734-10.75 2.734zm-9.86 8.11h25.204q11.28 0 17.375-4.688Q58.5 63.53 58.5 54.89q0-6.703-3.125-10.657-3.125-3.953-9.188-4.922 7.282-1.562 11.313-6.53 4.031-4.954 4.031-12.376 0-9.765-6.64-15.093Q48.25 0 35.984 0H9.812z"/><use x="68.604" xlink:href="#e"/><use x="109.717" xlink:href="#d"/><path d="M176.512 54.688h42.672v-8.204L185.402 7.172h33.782V0h-43.891v8.203l33.797 39.313h-32.578z"/><use x="223.486" xlink:href="#x"/><use x="251.27" xlink:href="#u"/><use x="310.84" xlink:href="#N"/><use x="349.854" xlink:href="#v"/><use x="413.33" xlink:href="#t"/><use x="474.512" xlink:href="#O"/><use x="537.891" xlink:href="#P"/><use x="601.367" xlink:href="#u"/><use x="629.15" xlink:href="#y"/><use x="690.674" xlink:href="#I"/><use x="774.561" xlink:href="#x"/><use x="802.344" xlink:href="#Q"/><use x="897.51" xlink:href="#s"/><use x="961.133" xlink:href="#R"/><use x="992.92" xlink:href="#k"/><use x="1088.33" xlink:href="#v"/><use x="1151.807" xlink:href="#d"/><use x="1213.086" xlink:href="#j"/><use x="1272.266" xlink:href="#I"/><use x="1324.365" xlink:href="#S"/></g><path d="M76.61 505.928h475V297.12h-475z" fill="#fff"/><path clip-path="url(#T)" d="M76.61 505.928V297.12" fill="none" stroke="#b0b0b0" stroke-linecap="square" stroke-width=".8"/><use stroke="#000" stroke-width=".8" x="76.61" xlink:href="#b" y="505.928"/><g transform="matrix(.1 0 0 -.1 67.176 542.922)"><use xlink:href="#c"/><use x="86.279" xlink:href="#d"/><use x="147.559" xlink:href="#e"/></g><g transform="matrix(.1 0 0 -.1 63.885 554.12)"><use xlink:href="#f"/><use x="63.623" xlink:href="#g"/><use x="127.246" xlink:href="#f"/><use x="190.869" xlink:href="#g"/></g><path clip-path="url(#T)" d="M284.004 505.928V297.12" fill="none" stroke="#b0b0b0" stroke-linecap="square" stroke-width=".8"/><use stroke="#000" stroke-width=".8" x="284.004" xlink:href="#b" y="505.928"/><g transform="matrix(.1 0 0 -.1 275.354 542.922)"><use xlink:href="#h"/><use x="68.408" xlink:href="#i"/><use x="131.885" xlink:href="#e"/></g><path clip-path="url(#T)" d="M484.709 505.928V297.12" fill="none" stroke="#b0b0b0" stroke-linecap="square" stroke-width=".8"/><use stroke="#000" stroke-width=".8" x="484.709" xlink:href="#b" y="505.928"/><g transform="matrix(.1 0 0 -.1 474.371 542.922)"><use xlink:href="#c"/><use x="86.279" xlink:href="#d"/><use x="147.559" xlink:href="#j"/></g><path clip-path="url(#T)" d="M551.61 505.928V297.12" fill="none" stroke="#b0b0b0" stroke-linecap="square" stroke-width=".8"/><use stroke="#000" stroke-width=".8" x="551.61" xlink:href="#b" y="505.928"/><g transform="matrix(.1 0 0 -.1 545.247 520.526)"><use xlink:href="#k"/><use x="63.623" xlink:href="#k"/></g><use stroke="#000" stroke-width=".6" x="83.3" xlink:href="#l" y="505.928"/><g transform="matrix(.1 0 0 -.1 76.938 518.926)"><use xlink:href="#g"/><use x="63.623" xlink:href="#f"/></g><g stroke="#000" stroke-width=".6"><use x="89.99" xlink:href="#l" y="505.928"/><use x="96.68" xlink:href="#l" y="505.928"/><use x="103.371" xlink:href="#l" y="505.928"/><use x="110.061" xlink:href="#l" y="505.928"/><use x="116.751" xlink:href="#l" y="505.928"/><use x="123.441" xlink:href="#l" y="505.928"/></g><use stroke="#000" stroke-width=".6" x="130.131" xlink:href="#l" y="505.928"/><g transform="matrix(.1 0 0 -.1 123.769 518.926)"><use xlink:href="#g"/><use x="63.623" xlink:href="#m"/></g><g stroke="#000" stroke-width=".6"><use x="136.821" xlink:href="#l" y="505.928"/><use x="143.511" xlink:href="#l" y="505.928"/><use x="150.202" xlink:href="#l" y="505.928"/><use x="156.892" xlink:href="#l" y="505.928"/><use x="163.582" xlink:href="#l" y="505.928"/><use x="170.272" xlink:href="#l" y="505.928"/><use x="176.962" xlink:href="#l" y="505.928"/></g><g transform="matrix(.1 0 0 -.1 170.6 518.926)"><use xlink:href="#k"/><use x="63.623" xlink:href="#n"/></g><g stroke="#000" stroke-width=".6"><use x="183.652" xlink:href="#l" y="505.928"/><use x="190.342" xlink:href="#l" y="505.928"/><use x="197.033" xlink:href="#l" y="505.928"/><use x="203.723" xlink:href="#l" y="505.928"/><use x="210.413" xlink:href="#l" y="505.928"/><use x="217.103" xlink:href="#l" y="505.928"/><use x="223.793" xlink:href="#l" y="505.928"/></g><g transform="matrix(.1 0 0 -.1 217.43 518.926)"><use xlink:href="#f"/><use x="63.623" xlink:href="#o"/></g><g stroke="#000" stroke-width=".6"><use x="230.483" xlink:href="#l" y="505.928"/><use x="237.173" xlink:href="#l" y="505.928"/><use x="243.864" xlink:href="#l" y="505.928"/><use x="250.554" xlink:href="#l" y="505.928"/><use x="257.244" xlink:href="#l" y="505.928"/><use x="263.934" xlink:href="#l" y="505.928"/><use x="270.624" xlink:href="#l" y="505.928"/></g><g transform="matrix(.1 0 0 -.1 264.262 518.926)"><use xlink:href="#o"/><use x="63.623" xlink:href="#g"/></g><g stroke="#000" stroke-width=".6"><use x="277.314" xlink:href="#l" y="505.928"/><use x="290.695" xlink:href="#l" y="505.928"/><use x="297.385" xlink:href="#l" y="505.928"/><use x="304.075" xlink:href="#l" y="505.928"/><use x="310.765" xlink:href="#l" y="505.928"/><use x="317.455" xlink:href="#l" y="505.928"/></g><g transform="matrix(.1 0 0 -.1 311.093 518.926)"><use xlink:href="#g"/><use x="63.623" xlink:href="#n"/></g><g stroke="#000" stroke-width=".6"><use x="324.145" xlink:href="#l" y="505.928"/><use x="330.835" xlink:href="#l" y="505.928"/><use x="337.525" xlink:href="#l" y="505.928"/><use x="344.216" xlink:href="#l" y="505.928"/><use x="350.906" xlink:href="#l" y="505.928"/><use x="357.596" xlink:href="#l" y="505.928"/><use x="364.286" xlink:href="#l" y="505.928"/></g><g transform="matrix(.1 0 0 -.1 357.924 518.926)"><use xlink:href="#k"/><use x="63.623" xlink:href="#o"/></g><g stroke="#000" stroke-width=".6"><use x="370.976" xlink:href="#l" y="505.928"/><use x="377.666" xlink:href="#l" y="505.928"/><use x="384.356" xlink:href="#l" y="505.928"/><use x="391.047" xlink:href="#l" y="505.928"/><use x="397.737" xlink:href="#l" y="505.928"/><use x="404.427" xlink:href="#l" y="505.928"/><use x="411.117" xlink:href="#l" y="505.928"/></g><g transform="matrix(.1 0 0 -.1 404.755 518.926)"><use xlink:href="#f"/><use x="63.623" xlink:href="#g"/></g><g stroke="#000" stroke-width=".6"><use x="417.807" xlink:href="#l" y="505.928"/><use x="424.497" xlink:href="#l" y="505.928"/><use x="431.187" xlink:href="#l" y="505.928"/><use x="437.878" xlink:href="#l" y="505.928"/><use x="444.568" xlink:href="#l" y="505.928"/><use x="451.258" xlink:href="#l" y="505.928"/><use x="457.948" xlink:href="#l" y="505.928"/></g><g transform="matrix(.1 0 0 -.1 451.586 518.926)"><use xlink:href="#f"/><use x="63.623" xlink:href="#p"/></g><g stroke="#000" stroke-width=".6"><use x="464.638" xlink:href="#l" y="505.928"/><use x="471.328" xlink:href="#l" y="505.928"/><use x="478.018" xlink:href="#l" y="505.928"/><use x="491.399" xlink:href="#l" y="505.928"/><use x="498.089" xlink:href="#l" y="505.928"/><use x="504.779" xlink:href="#l" y="505.928"/></g><g transform="matrix(.1 0 0 -.1 498.417 518.926)"><use xlink:href="#g"/><use x="63.623" xlink:href="#q"/></g><g stroke="#000" stroke-width=".6"><use x="511.469" xlink:href="#l" y="505.928"/><use x="518.159" xlink:href="#l" y="505.928"/><use x="524.849" xlink:href="#l" y="505.928"/><use x="531.54" xlink:href="#l" y="505.928"/><use x="538.23" xlink:href="#l" y="505.928"/><use x="544.92" xlink:href="#l" y="505.928"/></g><path clip-path="url(#T)" d="M76.61 474.133h475" fill="none" stroke="#b0b0b0" stroke-linecap="square" stroke-width=".8"/><use stroke="#000" stroke-width=".8" x="76.61" xlink:href="#r" y="474.133"/><g transform="matrix(.1 0 0 -.1 37.797 477.933)"><use xlink:href="#K"/><use x="63.623" xlink:href="#g"/><use x="127.246" xlink:href="#g"/><use x="190.869" xlink:href="#g"/><use x="254.492" xlink:href="#g"/></g><path clip-path="url(#T)" d="M76.61 442.333h475" fill="none" stroke="#b0b0b0" stroke-linecap="square" stroke-width=".8"/><use stroke="#000" stroke-width=".8" x="76.61" xlink:href="#r" y="442.333"/><g transform="matrix(.1 0 0 -.1 31.435 446.132)"><use xlink:href="#k"/><use x="63.623" xlink:href="#g"/><use x="127.246" xlink:href="#g"/><use x="190.869" xlink:href="#g"/><use x="254.492" xlink:href="#g"/><use x="318.115" xlink:href="#g"/></g><path clip-path="url(#T)" d="M76.61 410.532h475" fill="none" stroke="#b0b0b0" stroke-linecap="square" stroke-width=".8"/><use stroke="#000" stroke-width=".8" x="76.61" xlink:href="#r" y="410.532"/><g transform="matrix(.1 0 0 -.1 31.435 414.33)"><use xlink:href="#k"/><use x="63.623" xlink:href="#K"/><use x="127.246" xlink:href="#g"/><use x="190.869" xlink:href="#g"/><use x="254.492" xlink:href="#g"/><use x="318.115" xlink:href="#g"/></g><path clip-path="url(#T)" d="M76.61 378.73h475" fill="none" stroke="#b0b0b0" stroke-linecap="square" stroke-width=".8"/><use stroke="#000" stroke-width=".8" x="76.61" xlink:href="#r" y="378.731"/><g transform="matrix(.1 0 0 -.1 31.435 382.53)"><use xlink:href="#f"/><use x="63.623" xlink:href="#g"/><use x="127.246" xlink:href="#g"/><use x="190.869" xlink:href="#g"/><use x="254.492" xlink:href="#g"/><use x="318.115" xlink:href="#g"/></g><path clip-path="url(#T)" d="M76.61 346.93h475" fill="none" stroke="#b0b0b0" stroke-linecap="square" stroke-width=".8"/><use stroke="#000" stroke-width=".8" x="76.61" xlink:href="#r" y="346.93"/><g transform="matrix(.1 0 0 -.1 31.435 350.729)"><use xlink:href="#f"/><use x="63.623" xlink:href="#K"/><use x="127.246" xlink:href="#g"/><use x="190.869" xlink:href="#g"/><use x="254.492" xlink:href="#g"/><use x="318.115" xlink:href="#g"/></g><path clip-path="url(#T)" d="M76.61 315.129h475" fill="none" stroke="#b0b0b0" stroke-linecap="square" stroke-width=".8"/><use stroke="#000" stroke-width=".8" x="76.61" xlink:href="#r" y="315.129"/><g transform="matrix(.1 0 0 -.1 31.435 318.928)"><use xlink:href="#o"/><use x="63.623" xlink:href="#g"/><use x="127.246" xlink:href="#g"/><use x="190.869" xlink:href="#g"/><use x="254.492" xlink:href="#g"/><use x="318.115" xlink:href="#g"/></g><g transform="matrix(0 -.1 -.1 0 25.355 408.358)"><use xlink:href="#L"/><use x="73.193" xlink:href="#M"/></g><g stroke="#1f77b4"><path clip-path="url(#T)" d="M-1 505.934h90.99l6.69-.007 6.69-.007 6.69-.009 6.69-.025 6.691-.02 6.69-.022 6.69-.02 6.69-.03 6.69-.068 6.69-.06 6.69-.064 6.691-.131 6.69-.145 6.69-.468 6.69-.5 6.69-1.814 6.69-1.868 6.69-2.151 6.691-2.565 6.69-3.208 6.69-3.018 6.69-3.234 6.69-4.411 6.69-4.361 6.69-4.664 6.69-4.453 6.691-4.3 6.69-5.622 6.69-4.913 6.69-5.168 6.69-6.309 6.69-6.497 6.69-5.554 6.691-5.162 6.69-4.624 6.69-6.619 6.69-6.308 6.69-6.214 6.69-5.036 6.69-4.61 6.691-3.843 6.69-4.126 6.69-6.78 6.69-3.83 6.69-2.93 6.69-6.726 6.69-3.483 6.691-3.136 6.69-3.058 6.69-2.94 6.69.885 6.69-4.892 6.69-6.332 6.69-3.588 6.691-2.26 6.69-1.822 6.69-2.557 6.69-2.907 6.69-2.22 6.69-2.864 6.69-1.863 6.691-1.429 6.69-1.344 6.69-1.455 6.69-1.889 6.69-1.805" fill="none" stroke-linecap="square" stroke-width="1.5"/><g clip-path="url(#T)" fill="#1f77b4"><use x="-1" xlink:href="#z" y="505.934"/><use x="3.018" xlink:href="#z" y="505.934"/><use x="9.709" xlink:href="#z" y="505.934"/><use x="16.399" xlink:href="#z" y="505.934"/><use x="23.089" xlink:href="#z" y="505.934"/><use x="29.779" xlink:href="#z" y="505.934"/><use x="36.469" xlink:href="#z" y="505.934"/><use x="43.159" xlink:href="#z" y="505.934"/><use x="49.849" xlink:href="#z" y="505.934"/><use x="56.54" xlink:href="#z" y="505.934"/><use x="63.23" xlink:href="#z" y="505.934"/><use x="69.92" xlink:href="#z" y="505.934"/><use x="76.61" xlink:href="#z" y="505.934"/><use x="83.3" xlink:href="#z" y="505.934"/><use x="89.99" xlink:href="#z" y="505.933"/><use x="96.68" xlink:href="#z" y="505.927"/><use x="103.371" xlink:href="#z" y="505.92"/><use x="110.061" xlink:href="#z" y="505.911"/><use x="116.751" xlink:href="#z" y="505.886"/><use x="123.441" xlink:href="#z" y="505.867"/><use x="130.131" xlink:href="#z" y="505.844"/><use x="136.821" xlink:href="#z" y="505.824"/><use x="143.511" xlink:href="#z" y="505.794"/><use x="150.202" xlink:href="#z" y="505.726"/><use x="156.892" xlink:href="#z" y="505.667"/><use x="163.582" xlink:href="#z" y="505.602"/><use x="170.272" xlink:href="#z" y="505.471"/><use x="176.962" xlink:href="#z" y="505.326"/><use x="183.652" xlink:href="#z" y="504.858"/><use x="190.342" xlink:href="#z" y="504.358"/><use x="197.033" xlink:href="#z" y="502.544"/><use x="203.723" xlink:href="#z" y="500.676"/><use x="210.413" xlink:href="#z" y="498.525"/><use x="217.103" xlink:href="#z" y="495.96"/><use x="223.793" xlink:href="#z" y="492.752"/><use x="230.483" xlink:href="#z" y="489.734"/><use x="237.173" xlink:href="#z" y="486.5"/><use x="243.864" xlink:href="#z" y="482.089"/><use x="250.554" xlink:href="#z" y="477.728"/><use x="257.244" xlink:href="#z" y="473.064"/><use x="263.934" xlink:href="#z" y="468.611"/><use x="270.624" xlink:href="#z" y="464.31"/><use x="277.314" xlink:href="#z" y="458.689"/><use x="284.004" xlink:href="#z" y="453.776"/><use x="290.695" xlink:href="#z" y="448.608"/><use x="297.385" xlink:href="#z" y="442.299"/><use x="304.075" xlink:href="#z" y="435.802"/><use x="310.765" xlink:href="#z" y="430.248"/><use x="317.455" xlink:href="#z" y="425.086"/><use x="324.145" xlink:href="#z" y="420.462"/><use x="330.835" xlink:href="#z" y="413.843"/><use x="337.525" xlink:href="#z" y="407.535"/><use x="344.216" xlink:href="#z" y="401.321"/><use x="350.906" xlink:href="#z" y="396.285"/><use x="357.596" xlink:href="#z" y="391.675"/><use x="364.286" xlink:href="#z" y="387.832"/><use x="370.976" xlink:href="#z" y="383.706"/><use x="377.666" xlink:href="#z" y="376.926"/><use x="384.356" xlink:href="#z" y="373.096"/><use x="391.047" xlink:href="#z" y="370.166"/><use x="397.737" xlink:href="#z" y="363.44"/><use x="404.427" xlink:href="#z" y="359.957"/><use x="411.117" xlink:href="#z" y="356.821"/><use x="417.807" xlink:href="#z" y="353.763"/><use x="424.497" xlink:href="#z" y="350.823"/><use x="431.187" xlink:href="#z" y="351.708"/><use x="437.878" xlink:href="#z" y="346.816"/><use x="444.568" xlink:href="#z" y="340.484"/><use x="451.258" xlink:href="#z" y="336.896"/><use x="457.948" xlink:href="#z" y="334.637"/><use x="464.638" xlink:href="#z" y="332.814"/><use x="471.328" xlink:href="#z" y="330.257"/><use x="478.018" xlink:href="#z" y="327.35"/><use x="484.709" xlink:href="#z" y="325.13"/><use x="491.399" xlink:href="#z" y="322.266"/><use x="498.089" xlink:href="#z" y="320.403"/><use x="504.779" xlink:href="#z" y="318.974"/><use x="511.469" xlink:href="#z" y="317.63"/><use x="518.159" xlink:href="#z" y="316.175"/><use x="524.849" xlink:href="#z" y="314.286"/><use x="531.54" xlink:href="#z" y="312.481"/></g></g><g stroke="#ff7f0e"><path clip-path="url(#T)" d="M-1 505.934H110.06l6.69-.002h13.381l6.69-.007 6.69-.005 6.69-.003h6.69l6.69-.026 6.691-.018 6.69-.05 6.69-.056h6.69l6.69-.299 6.69-.093 6.69-.274 6.691-.371 6.69-.587 6.69-.518 6.69-.451 6.69-1.561 6.69-1.223 6.69-1.442 6.69-1.425 6.691-2.044 6.69-1.266 6.69-2.207 6.69-2.006 6.69-2.669 6.69-2.562 6.69-2.105 6.691-2.226 6.69-1.97 6.69-1.748 6.69-2.153 6.69-2.123 6.69-2.106 6.69-2.247 6.691-1.68 6.69-2.466 6.69-1.18 6.69-2.496 6.69-1.799 6.69-1.732 6.69-2.282 6.691-2.09 6.69-2.168 6.69-1.991 6.69-2.44 6.69-1.217 6.69-1.953 6.69-2.236 6.691-1.3 6.69-1.444 6.69-1.386 6.69-1.164 6.69-1.417 6.69-1.478 6.69-1.843 6.691-.945 6.69-1.266 6.69-.63 6.69-1.173 6.69-1.079" fill="none" stroke-linecap="square" stroke-width="1.5"/><g clip-path="url(#T)" fill="#ff7f0e"><use x="-1" xlink:href="#A" y="505.934"/><use x="3.018" xlink:href="#A" y="505.934"/><use x="9.709" xlink:href="#A" y="505.934"/><use x="16.399" xlink:href="#A" y="505.934"/><use x="23.089" xlink:href="#A" y="505.934"/><use x="29.779" xlink:href="#A" y="505.934"/><use x="36.469" xlink:href="#A" y="505.934"/><use x="43.159" xlink:href="#A" y="505.934"/><use x="49.849" xlink:href="#A" y="505.934"/><use x="56.54" xlink:href="#A" y="505.934"/><use x="63.23" xlink:href="#A" y="505.934"/><use x="69.92" xlink:href="#A" y="505.934"/><use x="76.61" xlink:href="#A" y="505.934"/><use x="83.3" xlink:href="#A" y="505.934"/><use x="89.99" xlink:href="#A" y="505.934"/><use x="96.68" xlink:href="#A" y="505.934"/><use x="103.371" xlink:href="#A" y="505.933"/><use x="110.061" xlink:href="#A" y="505.933"/><use x="116.751" xlink:href="#A" y="505.932"/><use x="123.441" xlink:href="#A" y="505.931"/><use x="130.131" xlink:href="#A" y="505.931"/><use x="136.821" xlink:href="#A" y="505.925"/><use x="143.511" xlink:href="#A" y="505.92"/><use x="150.202" xlink:href="#A" y="505.917"/><use x="156.892" xlink:href="#A" y="505.917"/><use x="163.582" xlink:href="#A" y="505.891"/><use x="170.272" xlink:href="#A" y="505.873"/><use x="176.962" xlink:href="#A" y="505.823"/><use x="183.652" xlink:href="#A" y="505.767"/><use x="190.342" xlink:href="#A" y="505.766"/><use x="197.033" xlink:href="#A" y="505.468"/><use x="203.723" xlink:href="#A" y="505.375"/><use x="210.413" xlink:href="#A" y="505.101"/><use x="217.103" xlink:href="#A" y="504.73"/><use x="223.793" xlink:href="#A" y="504.143"/><use x="230.483" xlink:href="#A" y="503.625"/><use x="237.173" xlink:href="#A" y="503.174"/><use x="243.864" xlink:href="#A" y="501.613"/><use x="250.554" xlink:href="#A" y="500.39"/><use x="257.244" xlink:href="#A" y="498.948"/><use x="263.934" xlink:href="#A" y="497.523"/><use x="270.624" xlink:href="#A" y="495.479"/><use x="277.314" xlink:href="#A" y="494.213"/><use x="284.004" xlink:href="#A" y="492.006"/><use x="290.695" xlink:href="#A" y="490"/><use x="297.385" xlink:href="#A" y="487.331"/><use x="304.075" xlink:href="#A" y="484.769"/><use x="310.765" xlink:href="#A" y="482.664"/><use x="317.455" xlink:href="#A" y="480.438"/><use x="324.145" xlink:href="#A" y="478.469"/><use x="330.835" xlink:href="#A" y="476.72"/><use x="337.525" xlink:href="#A" y="474.567"/><use x="344.216" xlink:href="#A" y="472.444"/><use x="350.906" xlink:href="#A" y="470.338"/><use x="357.596" xlink:href="#A" y="468.091"/><use x="364.286" xlink:href="#A" y="466.412"/><use x="370.976" xlink:href="#A" y="463.945"/><use x="377.666" xlink:href="#A" y="462.765"/><use x="384.356" xlink:href="#A" y="460.269"/><use x="391.047" xlink:href="#A" y="458.47"/><use x="397.737" xlink:href="#A" y="456.738"/><use x="404.427" xlink:href="#A" y="454.456"/><use x="411.117" xlink:href="#A" y="452.365"/><use x="417.807" xlink:href="#A" y="450.198"/><use x="424.497" xlink:href="#A" y="448.207"/><use x="431.187" xlink:href="#A" y="445.768"/><use x="437.878" xlink:href="#A" y="444.55"/><use x="444.568" xlink:href="#A" y="442.597"/><use x="451.258" xlink:href="#A" y="440.361"/><use x="457.948" xlink:href="#A" y="439.061"/><use x="464.638" xlink:href="#A" y="437.617"/><use x="471.328" xlink:href="#A" y="436.231"/><use x="478.018" xlink:href="#A" y="435.067"/><use x="484.709" xlink:href="#A" y="433.65"/><use x="491.399" xlink:href="#A" y="432.172"/><use x="498.089" xlink:href="#A" y="430.329"/><use x="504.779" xlink:href="#A" y="429.384"/><use x="511.469" xlink:href="#A" y="428.118"/><use x="518.159" xlink:href="#A" y="427.487"/><use x="524.849" xlink:href="#A" y="426.315"/><use x="531.54" xlink:href="#A" y="425.236"/></g></g><path clip-path="url(#T)" d="M-1 505.934H103.37l6.69-.003h6.69l6.691-.011h6.69l6.69-.044 6.69-.001 6.69-.009 6.69-.01 6.69-.009 6.691-.016 6.69-.021 6.69-.014h6.69l6.69-.07 6.69-.054 6.69-.07 6.691-.075 6.69-.081 6.69-.242 6.69-.43 6.69-.361 6.69-.517 6.69-.641 6.69-.442 6.691-.501 6.69-.531 6.69-.69 6.69-.761 6.69-.89 6.69-.833 6.69-.476 6.691-.832 6.69-.807 6.69-.961 6.69-1.324 6.69-1.232 6.69-1.144 6.69-1.618 6.691-.83 6.69-.825 6.69-.947 6.69-1.44 6.69-1.325 6.69-1.152 6.69-.892h6.691l6.69-1.824 6.69-.969 6.69-1.845 6.69-3.021 6.69-1.403 6.69-.903 6.691-.904 6.69-1.074 6.69-1.089 6.69-1.134 6.69-1.241 6.69-1.159 6.69-1.06 6.691-.58 6.69-.676 6.69-.984 6.69-.994 6.69-.93" fill="none" stroke="#2ca02c" stroke-linecap="square" stroke-width="1.5"/><g stroke="#d62728"><path clip-path="url(#T)" d="M-1 505.934H96.68l6.69-.002H130.132l6.69-.004 6.69-.008 6.69-.005 6.69-.009 6.69-.011 6.691-.019 6.69-.007 6.69-.035 6.69-.002 6.69-.163 6.69-.104 6.69-.106 6.691-.186 6.69-.148 6.69-.158 6.69-.207 6.69-.423 6.69-.304 6.69-.29 6.69-.69 6.691-.288 6.69-.58 6.69-.6 6.69-.441 6.69-.74 6.69-.902 6.69-.554 6.691-.617 6.69-.005 6.69-1.688h6.69l6.69-1.7 6.69-.772 6.69-1.036 6.691-.696 6.69-.734 6.69-.804 6.69-.647 6.69-1.135 6.69-.925 6.69-.742 6.691-.697 6.69-.908 6.69-1.241 6.69-1.086 6.69-1.662 6.69-1.297 6.69-1.315 6.691-1.228 6.69-1.32 6.69-1.378 6.69-1.54 6.69-1.93 6.69-1.493 6.69-1.867 6.691-1.423 6.69-1.232 6.69-1.4 6.69-1.592 6.69-1.755" fill="none" stroke-linecap="square" stroke-width="1.5"/><g clip-path="url(#T)" fill="#d62728"><use x="-1" xlink:href="#B" y="505.934"/><use x="3.018" xlink:href="#B" y="505.934"/><use x="9.709" xlink:href="#B" y="505.934"/><use x="16.399" xlink:href="#B" y="505.934"/><use x="23.089" xlink:href="#B" y="505.934"/><use x="29.779" xlink:href="#B" y="505.934"/><use x="36.469" xlink:href="#B" y="505.934"/><use x="43.159" xlink:href="#B" y="505.934"/><use x="49.849" xlink:href="#B" y="505.934"/><use x="56.54" xlink:href="#B" y="505.934"/><use x="63.23" xlink:href="#B" y="505.934"/><use x="69.92" xlink:href="#B" y="505.934"/><use x="76.61" xlink:href="#B" y="505.934"/><use x="83.3" xlink:href="#B" y="505.933"/><use x="89.99" xlink:href="#B" y="505.933"/><use x="96.68" xlink:href="#B" y="505.933"/><use x="103.371" xlink:href="#B" y="505.932"/><use x="110.061" xlink:href="#B" y="505.932"/><use x="116.751" xlink:href="#B" y="505.932"/><use x="123.441" xlink:href="#B" y="505.931"/><use x="130.131" xlink:href="#B" y="505.931"/><use x="136.821" xlink:href="#B" y="505.928"/><use x="143.511" xlink:href="#B" y="505.92"/><use x="150.202" xlink:href="#B" y="505.915"/><use x="156.892" xlink:href="#B" y="505.906"/><use x="163.582" xlink:href="#B" y="505.895"/><use x="170.272" xlink:href="#B" y="505.876"/><use x="176.962" xlink:href="#B" y="505.869"/><use x="183.652" xlink:href="#B" y="505.834"/><use x="190.342" xlink:href="#B" y="505.832"/><use x="197.033" xlink:href="#B" y="505.669"/><use x="203.723" xlink:href="#B" y="505.565"/><use x="210.413" xlink:href="#B" y="505.459"/><use x="217.103" xlink:href="#B" y="505.273"/><use x="223.793" xlink:href="#B" y="505.125"/><use x="230.483" xlink:href="#B" y="504.967"/><use x="237.173" xlink:href="#B" y="504.76"/><use x="243.864" xlink:href="#B" y="504.337"/><use x="250.554" xlink:href="#B" y="504.033"/><use x="257.244" xlink:href="#B" y="503.744"/><use x="263.934" xlink:href="#B" y="503.053"/><use x="270.624" xlink:href="#B" y="502.765"/><use x="277.314" xlink:href="#B" y="502.185"/><use x="284.004" xlink:href="#B" y="501.585"/><use x="290.695" xlink:href="#B" y="501.144"/><use x="297.385" xlink:href="#B" y="500.405"/><use x="304.075" xlink:href="#B" y="499.502"/><use x="310.765" xlink:href="#B" y="498.948"/><use x="317.455" xlink:href="#B" y="498.331"/><use x="324.145" xlink:href="#B" y="498.326"/><use x="330.835" xlink:href="#B" y="496.638"/><use x="337.525" xlink:href="#B" y="496.638"/><use x="344.216" xlink:href="#B" y="494.938"/><use x="350.906" xlink:href="#B" y="494.166"/><use x="357.596" xlink:href="#B" y="493.13"/><use x="364.286" xlink:href="#B" y="492.434"/><use x="370.976" xlink:href="#B" y="491.7"/><use x="377.666" xlink:href="#B" y="490.896"/><use x="384.356" xlink:href="#B" y="490.249"/><use x="391.047" xlink:href="#B" y="489.114"/><use x="397.737" xlink:href="#B" y="488.189"/><use x="404.427" xlink:href="#B" y="487.447"/><use x="411.117" xlink:href="#B" y="486.75"/><use x="417.807" xlink:href="#B" y="485.842"/><use x="424.497" xlink:href="#B" y="484.601"/><use x="431.187" xlink:href="#B" y="483.515"/><use x="437.878" xlink:href="#B" y="481.853"/><use x="444.568" xlink:href="#B" y="480.556"/><use x="451.258" xlink:href="#B" y="479.241"/><use x="457.948" xlink:href="#B" y="478.013"/><use x="464.638" xlink:href="#B" y="476.692"/><use x="471.328" xlink:href="#B" y="475.315"/><use x="478.018" xlink:href="#B" y="473.775"/><use x="484.709" xlink:href="#B" y="471.845"/><use x="491.399" xlink:href="#B" y="470.352"/><use x="498.089" xlink:href="#B" y="468.485"/><use x="504.779" xlink:href="#B" y="467.062"/><use x="511.469" xlink:href="#B" y="465.83"/><use x="518.159" xlink:href="#B" y="464.429"/><use x="524.849" xlink:href="#B" y="462.838"/><use x="531.54" xlink:href="#B" y="461.083"/></g></g><g stroke="#9467bd"><path clip-path="url(#T)" d="M-1 505.93H9.708l6.69-.004H29.78l6.69.003h26.76l6.69-.001h6.691l6.69-.006 6.69-.002 6.69-.006 6.69-.01 6.69-.005 6.69-.015 6.691-.01 6.69-.004 6.69-.025 6.69-.02 6.69-.025 6.69-.039 6.69-.036 6.691-.054 6.69-.083 6.69-.086 6.69-.037 6.69-.125 6.69-.14 6.69-.118 6.691-.175 6.69-.289 6.69-.266 6.69-.283 6.69-.563 6.69-.474 6.69-.268 6.69-.473 6.691-.804 6.69-.664 6.69-.74 6.69-.85 6.69-.765 6.69-.514 6.69-1.36 6.691-.606 6.69-.814 6.69-.944 6.69-.486 6.69-.847 6.69-.384 6.69-.67 6.691-.675 6.69-.873 6.69-.786 6.69-.57 6.69-.89 6.69-.782 6.69-.575 6.691-1.403 6.69-1.096 6.69-1.106 6.69-1.34 6.69-1.084 6.69-.601 6.69-.734 6.691-.861 6.69-.708 6.69-1.59 6.69-.826 6.69-1.146 6.69-.806 6.69-.967 6.691-.584 6.69-1.57 6.69-1.321 6.69-.93 6.69-.987" fill="none" stroke-linecap="square" stroke-width="1.5"/><g clip-path="url(#T)" fill="#9467bd"><use x="-1" xlink:href="#C" y="505.929"/><use x="3.018" xlink:href="#C" y="505.929"/><use x="9.709" xlink:href="#C" y="505.929"/><use x="16.399" xlink:href="#C" y="505.926"/><use x="23.089" xlink:href="#C" y="505.926"/><use x="29.779" xlink:href="#C" y="505.926"/><use x="36.469" xlink:href="#C" y="505.929"/><use x="43.159" xlink:href="#C" y="505.929"/><use x="49.849" xlink:href="#C" y="505.929"/><use x="56.54" xlink:href="#C" y="505.929"/><use x="63.23" xlink:href="#C" y="505.929"/><use x="69.92" xlink:href="#C" y="505.928"/><use x="76.61" xlink:href="#C" y="505.928"/><use x="83.3" xlink:href="#C" y="505.922"/><use x="89.99" xlink:href="#C" y="505.92"/><use x="96.68" xlink:href="#C" y="505.914"/><use x="103.371" xlink:href="#C" y="505.904"/><use x="110.061" xlink:href="#C" y="505.899"/><use x="116.751" xlink:href="#C" y="505.884"/><use x="123.441" xlink:href="#C" y="505.874"/><use x="130.131" xlink:href="#C" y="505.87"/><use x="136.821" xlink:href="#C" y="505.845"/><use x="143.511" xlink:href="#C" y="505.825"/><use x="150.202" xlink:href="#C" y="505.8"/><use x="156.892" xlink:href="#C" y="505.761"/><use x="163.582" xlink:href="#C" y="505.725"/><use x="170.272" xlink:href="#C" y="505.671"/><use x="176.962" xlink:href="#C" y="505.588"/><use x="183.652" xlink:href="#C" y="505.502"/><use x="190.342" xlink:href="#C" y="505.465"/><use x="197.033" xlink:href="#C" y="505.34"/><use x="203.723" xlink:href="#C" y="505.2"/><use x="210.413" xlink:href="#C" y="505.082"/><use x="217.103" xlink:href="#C" y="504.907"/><use x="223.793" xlink:href="#C" y="504.618"/><use x="230.483" xlink:href="#C" y="504.352"/><use x="237.173" xlink:href="#C" y="504.069"/><use x="243.864" xlink:href="#C" y="503.506"/><use x="250.554" xlink:href="#C" y="503.032"/><use x="257.244" xlink:href="#C" y="502.764"/><use x="263.934" xlink:href="#C" y="502.291"/><use x="270.624" xlink:href="#C" y="501.487"/><use x="277.314" xlink:href="#C" y="500.823"/><use x="284.004" xlink:href="#C" y="500.083"/><use x="290.695" xlink:href="#C" y="499.234"/><use x="297.385" xlink:href="#C" y="498.468"/><use x="304.075" xlink:href="#C" y="497.954"/><use x="310.765" xlink:href="#C" y="496.594"/><use x="317.455" xlink:href="#C" y="495.988"/><use x="324.145" xlink:href="#C" y="495.174"/><use x="330.835" xlink:href="#C" y="494.23"/><use x="337.525" xlink:href="#C" y="493.744"/><use x="344.216" xlink:href="#C" y="492.897"/><use x="350.906" xlink:href="#C" y="492.513"/><use x="357.596" xlink:href="#C" y="491.843"/><use x="364.286" xlink:href="#C" y="491.168"/><use x="370.976" xlink:href="#C" y="490.295"/><use x="377.666" xlink:href="#C" y="489.509"/><use x="384.356" xlink:href="#C" y="488.939"/><use x="391.047" xlink:href="#C" y="488.05"/><use x="397.737" xlink:href="#C" y="487.267"/><use x="404.427" xlink:href="#C" y="486.692"/><use x="411.117" xlink:href="#C" y="485.289"/><use x="417.807" xlink:href="#C" y="484.193"/><use x="424.497" xlink:href="#C" y="483.087"/><use x="431.187" xlink:href="#C" y="481.748"/><use x="437.878" xlink:href="#C" y="480.663"/><use x="444.568" xlink:href="#C" y="480.062"/><use x="451.258" xlink:href="#C" y="479.328"/><use x="457.948" xlink:href="#C" y="478.467"/><use x="464.638" xlink:href="#C" y="477.759"/><use x="471.328" xlink:href="#C" y="476.168"/><use x="478.018" xlink:href="#C" y="475.343"/><use x="484.709" xlink:href="#C" y="474.197"/><use x="491.399" xlink:href="#C" y="473.391"/><use x="498.089" xlink:href="#C" y="472.424"/><use x="504.779" xlink:href="#C" y="471.84"/><use x="511.469" xlink:href="#C" y="470.27"/><use x="518.159" xlink:href="#C" y="468.949"/><use x="524.849" xlink:href="#C" y="468.019"/><use x="531.54" xlink:href="#C" y="467.032"/></g></g><g fill="none" stroke-dasharray="1.5 2.475" stroke-width="1.5"><path clip-path="url(#T)" d="M531.54 312.48l6.69-1.789 6.69-1.805 6.69-1.822" stroke="#1f77b4"/><path clip-path="url(#T)" d="M531.54 425.236l6.69-1.039 6.69-1.052 6.69-1.066" stroke="#ff7f0e"/><path clip-path="url(#T)" d="M531.54 461.012l6.69-1.004 6.69-1.025 6.69-1.05" stroke="#2ca02c"/><path clip-path="url(#T)" d="M531.54 461.083l6.69-1.733 6.69-1.799 6.69-1.869" stroke="#d62728"/><path clip-path="url(#T)" d="M531.54 467.032l6.69-1.092 6.69-1.123 6.69-1.153" stroke="#9467bd"/></g></g><g fill="none" stroke="#000" stroke-linecap="square" stroke-linejoin="miter" stroke-width=".8"><path d="M76.61 505.928V297.12M551.61 505.928V297.12M76.61 505.928h475M76.61 297.12h475"/></g><g><path d="M83.61 378.51h220.684q2 0 2-2v-72.39q0-2-2-2H83.61q-2 0-2 2v72.39q0 2 2 2z" fill="#fff" opacity=".8" stroke="#ccc" stroke-linejoin="miter"/><path d="M85.61 310.218h20" fill="none" stroke="#1f77b4" stroke-linecap="square" stroke-width="1.5"/><use fill="#1f77b4" stroke="#1f77b4" x="95.61" xlink:href="#z" y="310.218"/><g transform="matrix(.1 0 0 -.1 113.61 313.718)"><use xlink:href="#U"/><use x="74.805" xlink:href="#y"/><use x="136.328" xlink:href="#w"/><path d="M249.7 72.906h10.609l20.203-29.984 20.078 29.984h10.594L285.402 34.72V0h-9.906v34.719z"/><use x="310.783" xlink:href="#t"/><use x="371.965" xlink:href="#e"/><path d="M422.156 75.984h9.031V31.11L458 54.687h11.469l-29-25.578L470.703 0h-11.719l-27.796 26.703V0h-9.032z"/></g><path d="M85.61 324.897h20" fill="none" stroke="#ff7f0e" stroke-linecap="square" stroke-width="1.5"/><use fill="#ff7f0e" stroke="#ff7f0e" x="95.61" xlink:href="#A" y="324.897"/><g transform="matrix(.1 0 0 -.1 113.61 328.397)"><use xlink:href="#U"/><use x="74.805" xlink:href="#y"/><use x="136.328" xlink:href="#w"/><path d="M259.715 72.906h9.86V5.078q0-13.187-5-19.14-5-5.954-16.095-5.954h-3.75v8.297h3.079q6.53 0 9.218 3.672 2.688 3.656 2.688 13.125z"/><use x="279.395" xlink:href="#y"/><use x="340.918" xlink:href="#e"/><use x="382.031" xlink:href="#I"/><use x="434.131" xlink:href="#y"/><use x="495.654" xlink:href="#j"/></g><path d="M85.61 339.575h20" fill="none" stroke="#2ca02c" stroke-linecap="square" stroke-width="1.5"/><g transform="matrix(.1 0 0 -.1 113.61 343.075)"><use xlink:href="#c"/><use x="86.279" xlink:href="#d"/><use x="147.559" xlink:href="#I"/><use x="199.658" xlink:href="#I"/><use x="251.758" xlink:href="#d"/><use x="313.037" xlink:href="#D"/><path d="M422.908 33.016V0h-8.984v32.719q0 7.765-3.031 11.61-3.032 3.858-9.079 3.858-7.28 0-11.484-4.64-4.203-4.625-4.203-12.64V0h-9.031v75.984h9.031V46.188q3.234 4.937 7.594 7.374Q398.096 56 403.814 56q9.422 0 14.25-5.828 4.844-5.828 4.844-17.156z"/><use x="431.396" xlink:href="#O"/><use x="494.775" xlink:href="#I"/><use x="546.875" xlink:href="#y"/><use x="608.398" xlink:href="#E"/><use x="647.607" xlink:href="#E"/><use x="686.816" xlink:href="#I"/><use x="770.703" xlink:href="#N"/><use x="809.717" xlink:href="#v"/><use x="873.193" xlink:href="#t"/><use x="934.375" xlink:href="#O"/><use x="997.754" xlink:href="#P"/><use x="1061.23" xlink:href="#u"/><use x="1089.014" xlink:href="#y"/><use x="1150.537" xlink:href="#I"/><use x="1234.424" xlink:href="#x"/><use x="1262.207" xlink:href="#Q"/><use x="1357.373" xlink:href="#o"/><use x="1420.996" xlink:href="#k"/><use x="1484.619" xlink:href="#R"/><use x="1516.406" xlink:href="#q"/><use x="1611.816" xlink:href="#v"/><use x="1675.293" xlink:href="#d"/><use x="1736.572" xlink:href="#j"/><use x="1795.752" xlink:href="#I"/><use x="1847.852" xlink:href="#S"/></g><path d="M85.61 354.253h20" fill="none" stroke="#d62728" stroke-linecap="square" stroke-width="1.5"/><use fill="#d62728" stroke="#d62728" x="95.61" xlink:href="#B" y="354.253"/><g transform="matrix(.1 0 0 -.1 113.61 357.753)"><use xlink:href="#G"/><use x="29.492" xlink:href="#u"/><use x="57.275" xlink:href="#u"/><use x="85.059" xlink:href="#x"/><use x="112.842" xlink:href="#Q"/><use x="176.221" xlink:href="#t"/><use x="237.402" xlink:href="#x"/><use x="265.186" xlink:href="#I"/><use x="349.072" xlink:href="#N"/><use x="388.086" xlink:href="#v"/><use x="451.563" xlink:href="#t"/><use x="512.744" xlink:href="#O"/><use x="576.123" xlink:href="#P"/><use x="639.6" xlink:href="#u"/><use x="667.383" xlink:href="#y"/><use x="728.906" xlink:href="#I"/><use x="812.793" xlink:href="#x"/><use x="840.576" xlink:href="#Q"/><use x="935.742" xlink:href="#k"/><use x="999.365" xlink:href="#s"/><use x="1062.988" xlink:href="#R"/><use x="1094.775" xlink:href="#o"/><use x="1190.186" xlink:href="#v"/><use x="1253.662" xlink:href="#d"/><use x="1314.941" xlink:href="#j"/><use x="1374.121" xlink:href="#I"/><use x="1426.221" xlink:href="#S"/></g><path d="M85.61 368.93h20" fill="none" stroke="#9467bd" stroke-linecap="square" stroke-width="1.5"/><use fill="#9467bd" stroke="#9467bd" x="95.61" xlink:href="#C" y="368.931"/><g transform="matrix(.1 0 0 -.1 113.61 372.43)"><use xlink:href="#F"/><use x="69.824" xlink:href="#d"/><use x="131.104" xlink:href="#u"/><use x="158.887" xlink:href="#x"/><use x="186.67" xlink:href="#J"/><use x="221.875" xlink:href="#t"/><use x="283.057" xlink:href="#e"/><use x="324.154" xlink:href="#Q"/><use x="387.533" xlink:href="#x"/><use x="415.316" xlink:href="#d"/><use x="508.383" xlink:href="#N"/><use x="547.396" xlink:href="#v"/><use x="610.873" xlink:href="#t"/><use x="672.055" xlink:href="#O"/><use x="735.434" xlink:href="#P"/><use x="798.91" xlink:href="#u"/><use x="826.693" xlink:href="#y"/><use x="888.217" xlink:href="#I"/><use x="972.104" xlink:href="#x"/><use x="999.887" xlink:href="#Q"/><use x="1095.053" xlink:href="#f"/><use x="1158.676" xlink:href="#K"/><use x="1222.299" xlink:href="#R"/><use x="1254.086" xlink:href="#g"/><use x="1349.496" xlink:href="#v"/><use x="1412.973" xlink:href="#d"/><use x="1474.252" xlink:href="#j"/><use x="1533.432" xlink:href="#I"/><use x="1585.531" xlink:href="#S"/></g></g></svg>