<svg height="758.4" stroke-linejoin="round" viewBox="0 0 568.8 568.8" width="758.4" xmlns="http://www.w3.org/2000/svg" xmlns:xlink="http://www.w3.org/1999/xlink"><defs><path id="w" d="M-3 0h6M0 3v-6" stroke="#1f77b4" stroke-linejoin="round"/><path id="U" d="M8.203 72.906h46.875v-4.203L28.61 0H18.312L43.22 64.594H8.203z" stroke-linejoin="round"/><path id="b" d="M0 0v3.5" stroke="#000" stroke-linejoin="round" stroke-width=".8"/><path id="c" d="M34.188 63.188L20.797 26.906h26.812zm-5.579 9.718h11.188L67.578 0h-10.25l-6.64 18.703h-32.86L11.188 0H.78z" stroke-linejoin="round"/><path id="d" d="M18.11 8.203v-29H9.077v75.484h9.031v-8.296q2.844 4.875 7.157 7.234Q29.594 56 35.594 56q9.968 0 16.187-7.906 6.235-7.907 6.235-20.797T51.78 6.484q-6.218-7.906-16.187-7.906-6 0-10.328 2.375-4.313 2.375-7.157 7.25zm30.578 19.094q0 9.906-4.079 15.547-4.078 5.64-11.203 5.64-7.14 0-11.218-5.64-4.079-5.64-4.079-15.547 0-9.906 4.078-15.547 4.079-5.64 11.22-5.64 7.124 0 11.202 5.64t4.078 15.547z" stroke-linejoin="round"/><path id="e" d="M41.11 46.297q-1.516.875-3.297 1.281Q36.03 48 33.89 48q-7.625 0-11.703-4.953-4.079-4.953-4.079-14.234V0H9.08v54.688h9.03v-8.5q2.844 4.984 7.375 7.39Q30.031 56 36.531 56q.922 0 2.047-.125 1.125-.11 2.484-.36z" stroke-linejoin="round"/><path id="f" d="M19.188 8.297h34.421V0H7.33v8.297q5.609 5.812 15.296 15.594 9.703 9.797 12.188 12.64 4.734 5.313 6.609 9 1.89 3.688 1.89 7.25 0 5.813-4.078 9.469-4.078 3.672-10.625 3.672-4.64 0-9.797-1.61-5.14-1.609-11-4.89v9.969Q13.767 71.78 18.938 73q5.188 1.219 9.485 1.219 11.328 0 18.062-5.672 6.735-5.656 6.735-15.125 0-4.5-1.688-8.531-1.672-4.016-6.125-9.485-1.218-1.422-7.765-8.187-6.532-6.766-18.453-18.922z" stroke-linejoin="round"/><path id="g" d="M31.781 66.406q-7.61 0-11.453-7.5Q16.5 51.422 16.5 36.375q0-14.984 3.828-22.484 3.844-7.5 11.453-7.5 7.672 0 11.5 7.5 3.844 7.5 3.844 22.484 0 15.047-3.844 22.531-3.828 7.5-11.5 7.5zm0 7.813q12.266 0 18.735-9.703 6.468-9.688 6.468-28.141 0-18.406-6.468-28.11-6.47-9.687-18.735-9.687-12.25 0-18.718 9.688-6.47 9.703-6.47 28.109 0 18.453 6.47 28.14Q19.53 74.22 31.78 74.22z" stroke-linejoin="round"/><path id="h" d="M0 0v2" stroke="#000" stroke-linejoin="round" stroke-width=".6"/><path id="i" d="M10.984 1.516V10.5q3.72-1.766 7.516-2.688 3.813-.921 7.484-.921 9.766 0 14.907 6.562 5.156 6.563 5.89 19.953-2.828-4.203-7.187-6.453-4.344-2.25-9.61-2.25-10.937 0-17.312 6.61-6.375 6.625-6.375 18.109 0 11.219 6.64 18 6.641 6.797 17.672 6.797 12.657 0 19.313-9.703 6.672-9.688 6.672-28.141 0-17.234-8.188-27.516Q40.234-1.42 26.422-1.42q-3.719 0-7.531.734-3.797.734-7.907 2.203zM30.61 32.422q6.641 0 10.516 4.531 3.89 4.547 3.89 12.469 0 7.86-3.89 12.422-3.875 4.562-10.516 4.562-6.64 0-10.515-4.562-3.875-4.563-3.875-12.422 0-7.922 3.875-12.469 3.875-4.531 10.515-4.531z" stroke-linejoin="round"/><path id="j" d="M12.406 8.297h16.11v55.625l-17.532-3.516v8.985l17.438 3.515h9.86V8.296H54.39V0H12.406z" stroke-linejoin="round"/><path id="k" d="M33.016 40.375q-6.641 0-10.532-4.547-3.875-4.531-3.875-12.437 0-7.86 3.875-12.438 3.891-4.562 10.532-4.562 6.64 0 10.515 4.562 3.875 4.578 3.875 12.438 0 7.906-3.875 12.437-3.875 4.547-10.515 4.547zm19.578 30.922v-8.984q-3.719 1.75-7.5 2.671-3.782.938-7.5.938-9.766 0-14.922-6.594-5.14-6.594-5.875-19.922 2.875 4.25 7.219 6.516 4.359 2.266 9.578 2.266 10.984 0 17.36-6.672 6.374-6.657 6.374-18.125 0-11.235-6.64-18.032-6.641-6.78-17.672-6.78-12.657 0-19.344 9.687-6.688 9.703-6.688 28.109 0 17.281 8.204 27.563 8.203 10.28 22.015 10.28 3.719 0 7.5-.734t7.89-2.187z" stroke-linejoin="round"/><path id="l" d="M40.578 39.313Q47.656 37.797 51.625 33q3.984-4.781 3.984-11.813 0-10.78-7.422-16.703-7.421-5.906-21.093-5.906-4.578 0-9.438.906-4.86.907-10.031 2.72v9.515q4.094-2.39 8.969-3.61 4.89-1.218 10.218-1.218 9.266 0 14.125 3.656 4.86 3.656 4.86 10.64 0 6.454-4.516 10.079-4.515 3.64-12.562 3.64h-8.5v8.11h8.89q7.266 0 11.125 2.906 3.86 2.906 3.86 8.375 0 5.61-3.985 8.61-3.968 3.015-11.39 3.015-4.063 0-8.703-.89-4.641-.876-10.203-2.72v8.782q5.624 1.562 10.53 2.344 4.907.78 9.25.78 11.235 0 17.766-5.109 6.547-5.093 6.547-13.78 0-6.063-3.468-10.235-3.47-4.172-9.86-5.782z" stroke-linejoin="round"/><path id="m" d="M0 0h-3.5" stroke="#000" stroke-linejoin="round" stroke-width=".8"/><path id="n" d="M37.797 64.313L12.89 25.39h24.906zm-2.594 8.593H47.61V25.391h10.407v-8.203H47.609V0h-9.812v17.188H4.89v9.515z" stroke-linejoin="round"/><path id="o" d="M10.797 72.906h38.719v-8.312H19.828v-17.86q2.14.735 4.281 1.094 2.157.36 4.313.36 12.203 0 19.328-6.688 7.14-6.688 7.14-18.11 0-11.765-7.328-18.296-7.328-6.516-20.656-6.516-4.593 0-9.36.781-4.75.782-9.827 2.344v9.922q4.39-2.39 9.078-3.563 4.687-1.171 9.906-1.171 8.453 0 13.375 4.437 4.938 4.438 4.938 12.063 0 7.609-4.938 12.047-4.922 4.453-13.375 4.453-3.953 0-7.89-.875-3.922-.875-8.016-2.735z" stroke-linejoin="round"/><path id="p" d="M0 0h-2" stroke="#000" stroke-linejoin="round" stroke-width=".6"/><path id="q" d="M30.61 48.39q-7.22 0-11.422-5.64-4.204-5.64-4.204-15.453 0-9.813 4.172-15.453 4.188-5.64 11.453-5.64 7.188 0 11.375 5.655 4.203 5.672 4.203 15.438 0 9.719-4.203 15.406-4.187 5.688-11.375 5.688zm0 7.61q11.718 0 18.406-7.625 6.703-7.61 6.703-21.078 0-13.422-6.703-21.078-6.688-7.64-18.407-7.64-11.765 0-18.437 7.64-6.656 7.656-6.656 21.078 0 13.469 6.656 21.078Q18.844 56 30.609 56z" stroke-linejoin="round"/><path id="r" d="M9.422 75.984h8.984V0H9.422z" stroke-linejoin="round"/><path id="s" d="M45.406 46.39v29.594h8.985V0h-8.985v8.203Q42.578 3.328 38.25.953q-4.313-2.375-10.375-2.375-9.906 0-16.14 7.906-6.22 7.922-6.22 20.813 0 12.89 6.22 20.797Q17.968 56 27.874 56q6.063 0 10.375-2.375 4.328-2.36 7.156-7.234zm-30.61-19.093q0-9.906 4.079-15.547 4.078-5.64 11.203-5.64 7.125 0 11.219 5.64 4.11 5.64 4.11 15.547 0 9.906-4.11 15.547-4.094 5.64-11.219 5.64-7.125 0-11.203-5.64-4.078-5.64-4.078-15.547z" stroke-linejoin="round"/><path id="t" d="M4.203 54.688h8.985l11.234-42.672 11.172 42.672h10.593l11.235-42.672 11.187 42.672h8.985L63.28 0H52.688L40.922 44.828 29.109 0H18.5z" stroke-linejoin="round"/><path id="u" d="M9.422 54.688h8.984V0H9.422zm0 21.296h8.984v-11.39H9.422z" stroke-linejoin="round"/><path id="v" d="M56.203 29.594v-4.39H14.891q.593-9.282 5.593-14.142 5-4.859 13.938-4.859 5.172 0 10.031 1.266 4.86 1.265 9.656 3.812v-8.5Q49.266.734 44.187-.344 39.11-1.422 33.892-1.422q-13.094 0-20.735 7.61-7.64 7.625-7.64 20.625 0 13.421 7.25 21.296Q20.016 56 32.328 56q11.031 0 17.453-7.11 6.422-7.093 6.422-19.296zm-8.984 2.64q-.094 7.36-4.125 11.75-4.032 4.407-10.672 4.407-7.516 0-12.031-4.25-4.516-4.25-5.203-11.97z" stroke-linejoin="round"/><path id="T" d="M9.813 72.906h13.28l32.329-60.984v60.984h9.562V0h-13.28L19.39 60.984V0H9.813z" stroke-linejoin="round"/><path id="x" d="M0 1.5a1.5 1.5 0 100-3 1.5 1.5 0 000 3z" stroke="#ff7f0e" stroke-linejoin="round"/><path id="y" d="M-3 0h6M0 3v-6" stroke="#d62728" stroke-linejoin="round"/><path id="z" d="M0 1.5a1.5 1.5 0 100-3 1.5 1.5 0 000 3z" stroke="#9467bd" stroke-linejoin="round"/><path id="A" d="M48.781 52.594v-8.407q-3.812 2.11-7.64 3.157-3.828 1.047-7.735 1.047-8.75 0-13.593-5.547-4.829-5.532-4.829-15.547 0-10.016 4.829-15.563 4.843-5.53 13.593-5.53 3.907 0 7.735 1.046 3.828 1.047 7.64 3.156V2.094Q45.016.344 40.984-.531q-4.015-.89-8.562-.89-12.36 0-19.64 7.765-7.266 7.765-7.266 20.953 0 13.375 7.343 21.031Q20.22 56 33.016 56q4.14 0 8.093-.86 3.953-.843 7.672-2.546z" stroke-linejoin="round"/><path id="B" d="M18.313 70.219V54.688h18.5v-6.985h-18.5V18.016q0-6.688 1.828-8.594 1.828-1.906 7.453-1.906h9.218V0h-9.218q-10.407 0-14.36 3.875-3.953 3.89-3.953 14.14v29.688H2.687v6.984h6.594V70.22z" stroke-linejoin="round"/><path id="C" d="M64.406 67.281v-10.39q-4.984 4.64-10.625 6.922-5.64 2.296-11.984 2.296-12.5 0-19.14-7.64-6.641-7.64-6.641-22.094 0-14.406 6.64-22.047 6.64-7.64 19.14-7.64 6.345 0 11.985 2.296 5.64 2.297 10.625 6.938V5.609Q59.234 2.094 53.437.33q-5.78-1.75-12.218-1.75-16.563 0-26.094 10.124-9.516 10.14-9.516 27.672 0 17.578 9.516 27.703 9.531 10.14 26.094 10.14 6.531 0 12.312-1.734 5.797-1.734 10.875-5.203z" stroke-linejoin="round"/><path id="D" d="M9.813 72.906h9.859V0h-9.86z" stroke-linejoin="round"/><path id="E" d="M4.89 31.39h26.313v-8H4.891z" stroke-linejoin="round"/><path id="F" d="M34.281 27.484q-10.89 0-15.093-2.484-4.204-2.484-4.204-8.5 0-4.781 3.157-7.594 3.156-2.797 8.562-2.797 7.485 0 12 5.297 4.516 5.297 4.516 14.078v2zm17.922 3.72V0H43.22v8.297Q40.14 3.328 35.547.953q-4.594-2.375-11.234-2.375-8.391 0-13.36 4.719Q6 8.016 6 15.922q0 9.219 6.172 13.906 6.187 4.688 18.437 4.688h12.61v.89q0 6.203-4.078 9.594-4.078 3.39-11.453 3.39-4.688 0-9.141-1.124-4.438-1.125-8.531-3.375v8.312q4.921 1.906 9.562 2.844 4.64.953 9.031.953 11.875 0 17.735-6.156 5.86-6.14 5.86-18.64z" stroke-linejoin="round"/><path id="G" d="M44.281 53.078v-8.5q-3.797 1.953-7.906 2.922-4.094.984-8.5.984-6.688 0-10.031-2.047-3.344-2.046-3.344-6.156 0-3.125 2.39-4.906 2.391-1.781 9.626-3.39l3.078-.688q9.562-2.047 13.593-5.781 4.032-3.735 4.032-10.422 0-7.625-6.032-12.078-6.03-4.438-16.578-4.438-4.39 0-9.156.86Q10.688.296 5.422 2v9.281q4.984-2.594 9.812-3.89 4.829-1.282 9.579-1.282 6.343 0 9.75 2.172 3.421 2.172 3.421 6.125 0 3.656-2.468 5.61-2.453 1.953-10.813 3.765l-3.125.735q-8.344 1.75-12.062 5.39-3.704 3.64-3.704 9.985 0 7.718 5.47 11.906Q16.75 56 26.811 56q4.97 0 9.36-.734 4.406-.72 8.11-2.188z" stroke-linejoin="round"/><path id="H" d="M37.11 75.984V68.5h-8.594q-4.828 0-6.72-1.953-1.874-1.953-1.874-7.031v-4.828h14.797v-6.985H19.922V0H10.89v47.703H2.297v6.984h8.594V58.5q0 9.125 4.25 13.297 4.25 4.187 13.468 4.187z" stroke-linejoin="round"/><path id="I" d="M8.688 72.906h9.921V28.61q0-11.718 4.235-16.875 4.25-5.14 13.781-5.14 9.469 0 13.719 5.14 4.25 5.157 4.25 16.875v44.297H64.5V27.391q0-14.25-7.063-21.532-7.046-7.28-20.812-7.28-13.828 0-20.89 7.28-7.047 7.282-7.047 21.532z" stroke-linejoin="round"/><path id="J" d="M53.516 70.516V60.89q-5.61 2.687-10.594 4-4.984 1.328-9.625 1.328-8.047 0-12.422-3.125t-4.375-8.89q0-4.845 2.906-7.313 2.907-2.453 11.016-3.97l5.953-1.218q11.031-2.11 16.281-7.406 5.25-5.297 5.25-14.172 0-10.61-7.11-16.078-7.093-5.469-20.812-5.469-5.172 0-11.015 1.172Q13.14.922 6.89 3.219v10.156q6-3.36 11.765-5.078 5.766-1.703 11.328-1.703 8.438 0 13.032 3.312 4.593 3.328 4.593 9.485 0 5.359-3.297 8.39-3.296 3.032-10.812 4.547L27.484 33.5q-11.03 2.188-15.968 6.875-4.922 4.688-4.922 13.047 0 9.672 6.812 15.234 6.813 5.563 18.766 5.563 5.14 0 10.453-.938 5.328-.922 10.89-2.765z" stroke-linejoin="round"/><path id="K" d="M31 75.875q-6.531-11.219-9.719-22.219-3.172-10.984-3.172-22.265 0-11.266 3.203-22.328Q24.517-2 31-13.188h-7.813Q15.875-1.704 12.235 9.375q-3.64 11.078-3.64 22.016 0 10.89 3.61 21.922 3.624 11.046 10.983 22.562z" stroke-linejoin="round"/><path id="L" d="M8.5 21.578v33.11h8.984V21.922q0-7.766 3.016-11.656 3.031-3.875 9.094-3.875 7.265 0 11.484 4.64 4.234 4.64 4.234 12.656v31h8.985V0h-8.984v8.406Q42.047 3.422 37.718 1q-4.313-2.422-10.032-2.422-9.421 0-14.312 5.86Q8.5 10.296 8.5 21.578z" stroke-linejoin="round"/><path id="M" d="M48.688 27.297q0 9.906-4.079 15.547-4.078 5.64-11.203 5.64-7.14 0-11.218-5.64-4.079-5.64-4.079-15.547 0-9.906 4.078-15.547 4.079-5.64 11.22-5.64 7.124 0 11.202 5.64t4.078 15.547zM18.108 46.39q2.844 4.875 7.157 7.234Q29.594 56 35.594 56q9.968 0 16.187-7.906 6.235-7.907 6.235-20.797T51.78 6.484q-6.218-7.906-16.187-7.906-6 0-10.328 2.375-4.313 2.375-7.157 7.25V0H9.08v75.984h9.03z" stroke-linejoin="round"/><path id="N" d="M54.89 33.016V0h-8.984v32.719q0 7.765-3.031 11.61-3.031 3.858-9.078 3.858-7.281 0-11.484-4.64-4.204-4.625-4.204-12.64V0H9.08v54.688h9.03v-8.5q3.235 4.937 7.594 7.374Q30.078 56 35.797 56q9.422 0 14.25-5.828 4.844-5.828 4.844-17.156z" stroke-linejoin="round"/><path id="O" d="M31.781 34.625q-7.031 0-11.062-3.766-4.016-3.765-4.016-10.343 0-6.594 4.016-10.36Q24.75 6.391 31.78 6.391q7.032 0 11.078 3.78 4.063 3.798 4.063 10.345 0 6.578-4.031 10.343-4.016 3.766-11.11 3.766zm-9.86 4.188q-6.343 1.562-9.89 5.906Q8.5 49.079 8.5 55.329q0 8.733 6.219 13.812 6.234 5.078 17.062 5.078 10.89 0 17.094-5.078 6.203-5.079 6.203-13.813 0-6.25-3.547-10.61-3.531-4.343-9.828-5.906 7.125-1.656 11.094-6.5 3.984-4.828 3.984-11.796 0-10.61-6.468-16.282-6.47-5.656-18.532-5.656-12.047 0-18.531 5.656-6.469 5.672-6.469 16.282 0 6.968 4 11.797 4.016 4.843 11.14 6.5zM18.314 54.39q0-5.657 3.53-8.828 3.548-3.172 9.938-3.172 6.36 0 9.938 3.172 3.593 3.171 3.593 8.828 0 5.672-3.593 8.843-3.578 3.172-9.938 3.172-6.39 0-9.937-3.172-3.532-3.172-3.532-8.843z" stroke-linejoin="round"/><path id="P" d="M10.688 12.406H21V0H10.687z" stroke-linejoin="round"/><path id="Q" d="M32.172-5.078q-3.797-9.766-7.422-12.735-3.61-2.984-9.656-2.984H7.906v7.516h5.282q3.703 0 5.75 1.765Q21-9.766 23.483-3.219l1.61 4.094-22.11 53.813H12.5l17.094-42.766 17.093 42.766h9.516z" stroke-linejoin="round"/><path id="R" d="M8.016 75.875h7.812q7.313-11.516 10.953-22.563 3.64-11.03 3.64-21.921 0-10.938-3.64-22.016-3.64-11.078-10.953-22.563H8.016Q14.5-2 17.703 9.063q3.203 11.063 3.203 22.329 0 11.28-3.203 22.265-3.203 11-9.687 22.219z" stroke-linejoin="round"/><clipPath id="S" stroke-linejoin="round"><path d="M50.15 297.12H558v208.808H50.15z"/></clipPath><clipPath id="a" stroke-linejoin="round"><path d="M50.15 25.44H558v208.808H50.15z"/></clipPath></defs><path d="M0 568.8h568.8V0H0z" fill="#fff"/><path d="M50.15 234.248H558V25.44H50.15z" fill="#fff"/><g stroke-width=".8"><path clip-path="url(#a)" d="M50.15 234.248V25.44" fill="none" stroke="#b0b0b0" stroke-linecap="square"/><use stroke="#000" x="50.15" xlink:href="#b" y="234.248"/></g><path clip-path="url(#a)" d="M434.885 234.248V25.44" fill="none" stroke="#b0b0b0" stroke-linecap="square" stroke-width=".8"/><use stroke="#000" stroke-width=".8" x="434.885" xlink:href="#b" y="234.248"/><g transform="matrix(.1 0 0 -.1 426.235 271.242)"><use xlink:href="#c"/><use x="68.408" xlink:href="#d"/><use x="131.885" xlink:href="#e"/></g><g transform="matrix(.1 0 0 -.1 422.16 282.44)"><use xlink:href="#f"/><use x="63.623" xlink:href="#g"/><use x="127.246" xlink:href="#f"/><use x="190.869" xlink:href="#g"/></g><g stroke-width=".8"><path clip-path="url(#a)" d="M558 234.248V25.44" fill="none" stroke="#b0b0b0" stroke-linecap="square"/><use stroke="#000" x="558" xlink:href="#b" y="234.248"/></g><use stroke="#000" stroke-width=".6" x="65.54" xlink:href="#h" y="234.248"/><use stroke="#000" stroke-width=".6" x="80.929" xlink:href="#h" y="234.248"/><g transform="matrix(.1 0 0 -.1 74.566 247.246)"><use xlink:href="#g"/><use x="63.623" xlink:href="#i"/></g><g stroke="#000" stroke-width=".6"><use x="96.318" xlink:href="#h" y="234.248"/><use x="111.708" xlink:href="#h" y="234.248"/><use x="127.097" xlink:href="#h" y="234.248"/><use x="142.487" xlink:href="#h" y="234.248"/><use x="157.876" xlink:href="#h" y="234.248"/><use x="173.265" xlink:href="#h" y="234.248"/></g><use stroke="#000" stroke-width=".6" x="188.655" xlink:href="#h" y="234.248"/><g transform="matrix(.1 0 0 -.1 182.292 247.246)"><use xlink:href="#j"/><use x="63.623" xlink:href="#k"/></g><use stroke="#000" stroke-width=".6" x="204.044" xlink:href="#h" y="234.248"/><use stroke="#000" stroke-width=".6" x="219.433" xlink:href="#h" y="234.248"/><use stroke="#000" stroke-width=".6" x="234.823" xlink:href="#h" y="234.248"/><use stroke="#000" stroke-width=".6" x="250.212" xlink:href="#h" y="234.248"/><use stroke="#000" stroke-width=".6" x="265.602" xlink:href="#h" y="234.248"/><use stroke="#000" stroke-width=".6" x="280.991" xlink:href="#h" y="234.248"/><use stroke="#000" stroke-width=".6" x="296.38" xlink:href="#h" y="234.248"/><g transform="matrix(.1 0 0 -.1 290.018 247.246)"><use xlink:href="#f"/><use x="63.623" xlink:href="#l"/></g><use stroke="#000" stroke-width=".6" x="311.77" xlink:href="#h" y="234.248"/><use stroke="#000" stroke-width=".6" x="327.159" xlink:href="#h" y="234.248"/><use stroke="#000" stroke-width=".6" x="342.549" xlink:href="#h" y="234.248"/><use stroke="#000" stroke-width=".6" x="357.938" xlink:href="#h" y="234.248"/><use stroke="#000" stroke-width=".6" x="373.327" xlink:href="#h" y="234.248"/><use stroke="#000" stroke-width=".6" x="388.717" xlink:href="#h" y="234.248"/><use stroke="#000" stroke-width=".6" x="404.106" xlink:href="#h" y="234.248"/><g transform="matrix(.1 0 0 -.1 397.744 247.246)"><use xlink:href="#l"/><use x="63.623" xlink:href="#g"/></g><use stroke="#000" stroke-width=".6" x="419.496" xlink:href="#h" y="234.248"/><use stroke="#000" stroke-width=".6" x="450.274" xlink:href="#h" y="234.248"/><use stroke="#000" stroke-width=".6" x="465.664" xlink:href="#h" y="234.248"/><use stroke="#000" stroke-width=".6" x="481.053" xlink:href="#h" y="234.248"/><use stroke="#000" stroke-width=".6" x="496.442" xlink:href="#h" y="234.248"/><g><use stroke="#000" stroke-width=".6" x="511.832" xlink:href="#h" y="234.248"/><g transform="matrix(.1 0 0 -.1 505.47 247.246)"><use xlink:href="#g"/><use x="63.623" xlink:href="#k"/></g></g><use stroke="#000" stroke-width=".6" x="527.221" xlink:href="#h" y="234.248"/><use stroke="#000" stroke-width=".6" x="542.611" xlink:href="#h" y="234.248"/><g><path clip-path="url(#a)" d="M50.15 234.248H558" fill="none" stroke="#b0b0b0" stroke-linecap="square" stroke-width=".8"/><use stroke="#000" stroke-width=".8" x="50.15" xlink:href="#m" y="234.248"/><g transform="matrix(.1 0 0 -.1 25.55 238.047)"><use transform="translate(0 .684)" xlink:href="#j"/><use transform="translate(63.623 .684)" xlink:href="#g"/><use transform="matrix(.7 0 0 .7 128.203 38.966)" xlink:href="#j"/></g><path clip-path="url(#a)" d="M50.15 191.803H558" fill="none" stroke="#b0b0b0" stroke-linecap="square" stroke-width=".8"/><use stroke="#000" stroke-width=".8" x="50.15" xlink:href="#m" y="191.803"/><g transform="matrix(.1 0 0 -.1 25.55 195.602)"><use transform="translate(0 .766)" xlink:href="#j"/><use transform="translate(63.623 .766)" xlink:href="#g"/><use transform="matrix(.7 0 0 .7 128.203 39.047)" xlink:href="#f"/></g><path clip-path="url(#a)" d="M50.15 149.358H558" fill="none" stroke="#b0b0b0" stroke-linecap="square" stroke-width=".8"/><use stroke="#000" stroke-width=".8" x="50.15" xlink:href="#m" y="149.358"/><g transform="matrix(.1 0 0 -.1 25.55 153.157)"><use transform="translate(0 .766)" xlink:href="#j"/><use transform="translate(63.623 .766)" xlink:href="#g"/><use transform="matrix(.7 0 0 .7 128.203 39.047)" xlink:href="#l"/></g><g><path clip-path="url(#a)" d="M50.15 106.912H558" fill="none" stroke="#b0b0b0" stroke-linecap="square" stroke-width=".8"/><use stroke="#000" stroke-width=".8" x="50.15" xlink:href="#m" y="106.912"/><g transform="matrix(.1 0 0 -.1 25.55 110.711)"><use transform="translate(0 .684)" xlink:href="#j"/><use transform="translate(63.623 .684)" xlink:href="#g"/><use transform="matrix(.7 0 0 .7 128.203 38.966)" xlink:href="#n"/></g></g><g><path clip-path="url(#a)" d="M50.15 64.467H558" fill="none" stroke="#b0b0b0" stroke-linecap="square" stroke-width=".8"/><use stroke="#000" stroke-width=".8" x="50.15" xlink:href="#m" y="64.467"/><g transform="matrix(.1 0 0 -.1 25.55 68.266)"><use transform="translate(0 .684)" xlink:href="#j"/><use transform="translate(63.623 .684)" xlink:href="#g"/><use transform="matrix(.7 0 0 .7 128.203 38.966)" xlink:href="#o"/></g></g><g stroke="#000" stroke-width=".6"><use x="50.15" xlink:href="#p" y="221.471"/><use x="50.15" xlink:href="#p" y="213.996"/><use x="50.15" xlink:href="#p" y="208.693"/><use x="50.15" xlink:href="#p" y="204.58"/><use x="50.15" xlink:href="#p" y="201.219"/><use x="50.15" xlink:href="#p" y="198.378"/><use x="50.15" xlink:href="#p" y="195.916"/><use x="50.15" xlink:href="#p" y="193.745"/><use x="50.15" xlink:href="#p" y="179.025"/><use x="50.15" xlink:href="#p" y="171.551"/><use x="50.15" xlink:href="#p" y="166.248"/><use x="50.15" xlink:href="#p" y="162.135"/><use x="50.15" xlink:href="#p" y="158.774"/><use x="50.15" xlink:href="#p" y="155.932"/><use x="50.15" xlink:href="#p" y="153.471"/><use x="50.15" xlink:href="#p" y="151.3"/><use x="50.15" xlink:href="#p" y="136.58"/><use x="50.15" xlink:href="#p" y="129.106"/><use x="50.15" xlink:href="#p" y="123.803"/><use x="50.15" xlink:href="#p" y="119.69"/><use x="50.15" xlink:href="#p" y="116.329"/><use x="50.15" xlink:href="#p" y="113.487"/><use x="50.15" xlink:href="#p" y="111.026"/><use x="50.15" xlink:href="#p" y="108.854"/><use x="50.15" xlink:href="#p" y="94.135"/><use x="50.15" xlink:href="#p" y="86.661"/><use x="50.15" xlink:href="#p" y="81.358"/><use x="50.15" xlink:href="#p" y="77.244"/><use x="50.15" xlink:href="#p" y="73.883"/><use x="50.15" xlink:href="#p" y="71.042"/><use x="50.15" xlink:href="#p" y="68.58"/><use x="50.15" xlink:href="#p" y="66.409"/><use x="50.15" xlink:href="#p" y="51.69"/><use x="50.15" xlink:href="#p" y="44.216"/><use x="50.15" xlink:href="#p" y="38.912"/><use x="50.15" xlink:href="#p" y="34.799"/><use x="50.15" xlink:href="#p" y="31.438"/><use x="50.15" xlink:href="#p" y="28.597"/><use x="50.15" xlink:href="#p" y="26.135"/></g><g transform="matrix(0 -.1 -.1 0 19.47 156.19)"><path d="M3.328 72.906h9.953L28.61 11.281l15.282 61.625h11.093l15.328-61.625 15.282 61.625h10.015L77.297 0H64.89L49.516 63.281 33.984 0H21.578z"/><use x="98.799" xlink:href="#q"/><use x="159.98" xlink:href="#e"/><use x="201.094" xlink:href="#r"/><use x="228.877" xlink:href="#s"/><use x="292.354" xlink:href="#t"/><use x="374.141" xlink:href="#u"/><use x="401.924" xlink:href="#s"/><use x="465.4" xlink:href="#v"/></g></g><g stroke="#1f77b4"><path clip-path="url(#a)" d="M-1 187.75l4.982-1.342 15.39-7.474 15.389-4.46 15.39-7.853 15.389-4.779 15.389-2.284 15.39-8.723 15.389-5.398 15.39-4.87 15.389-5.06 15.389-4.184 15.39-4.654 15.389-5.16 15.39-6.068 15.388-3.377 15.39-10.508 15.39-6.192 15.389-5.353 15.389-5.285 15.39-4.75 15.389-3.696 15.39-3.723 15.389-4.42 15.389-3.523 15.39-3.257 15.389-2.525 15.39-2.227 15.389-2.692 15.389-2.236 15.39-2.445 15.389-2.293 15.39-1.83 15.388-1.498 15.39-1.498" fill="none" stroke-linecap="square" stroke-width="1.5"/><g clip-path="url(#a)" fill="#1f77b4"><use x="-1" xlink:href="#w" y="187.751"/><use x="3.982" xlink:href="#w" y="186.408"/><use x="19.371" xlink:href="#w" y="178.934"/><use x="34.761" xlink:href="#w" y="174.475"/><use x="50.15" xlink:href="#w" y="166.621"/><use x="65.54" xlink:href="#w" y="161.842"/><use x="80.929" xlink:href="#w" y="159.558"/><use x="96.318" xlink:href="#w" y="150.835"/><use x="111.708" xlink:href="#w" y="145.437"/><use x="127.097" xlink:href="#w" y="140.567"/><use x="142.487" xlink:href="#w" y="135.506"/><use x="157.876" xlink:href="#w" y="131.323"/><use x="173.265" xlink:href="#w" y="126.669"/><use x="188.655" xlink:href="#w" y="121.509"/><use x="204.044" xlink:href="#w" y="115.441"/><use x="219.433" xlink:href="#w" y="112.064"/><use x="234.823" xlink:href="#w" y="101.556"/><use x="250.212" xlink:href="#w" y="95.364"/><use x="265.602" xlink:href="#w" y="90.011"/><use x="280.991" xlink:href="#w" y="84.726"/><use x="296.38" xlink:href="#w" y="79.975"/><use x="311.77" xlink:href="#w" y="76.28"/><use x="327.159" xlink:href="#w" y="72.557"/><use x="342.549" xlink:href="#w" y="68.137"/><use x="357.938" xlink:href="#w" y="64.614"/><use x="373.327" xlink:href="#w" y="61.357"/><use x="388.717" xlink:href="#w" y="58.832"/><use x="404.106" xlink:href="#w" y="56.605"/><use x="419.496" xlink:href="#w" y="53.913"/><use x="434.885" xlink:href="#w" y="51.677"/><use x="450.274" xlink:href="#w" y="49.232"/><use x="465.664" xlink:href="#w" y="46.939"/><use x="481.053" xlink:href="#w" y="45.11"/><use x="496.442" xlink:href="#w" y="43.611"/><use x="511.832" xlink:href="#w" y="42.113"/></g></g><g stroke="#ff7f0e"><path clip-path="url(#a)" d="M-1 132.074l4.982-1.067 15.39-3.636 15.389-3.177 15.39-4.728 15.389-4.29 15.389-4.116 15.39-1.779 15.389-3.425h15.39l15.389-6.363 15.389-3.158 15.39-2.748 15.389-2.087 15.39-2.245 15.388-1.784 15.39-2.673 15.39-2.76 15.389-1.876 15.389-1.635 15.39-1.436 15.389-1.276 15.39-1.154 15.389-1.386 15.389-1.264 15.39-.986 15.389-.978 15.39-.406 15.389-.507 15.389-.685 15.39-.558 15.389-.512 15.39-.613 15.388-.61 15.39-.388" fill="none" stroke-linecap="square" stroke-width="1.5"/><g clip-path="url(#a)" fill="#ff7f0e"><use x="-1" xlink:href="#x" y="132.074"/><use x="3.982" xlink:href="#x" y="131.007"/><use x="19.371" xlink:href="#x" y="127.371"/><use x="34.761" xlink:href="#x" y="124.194"/><use x="50.15" xlink:href="#x" y="119.466"/><use x="65.54" xlink:href="#x" y="115.176"/><use x="80.929" xlink:href="#x" y="111.06"/><use x="96.318" xlink:href="#x" y="109.281"/><use x="111.708" xlink:href="#x" y="105.856"/><use x="127.097" xlink:href="#x" y="105.856"/><use x="142.487" xlink:href="#x" y="99.493"/><use x="157.876" xlink:href="#x" y="96.335"/><use x="173.265" xlink:href="#x" y="93.587"/><use x="188.655" xlink:href="#x" y="91.5"/><use x="204.044" xlink:href="#x" y="89.255"/><use x="219.433" xlink:href="#x" y="87.471"/><use x="234.823" xlink:href="#x" y="84.798"/><use x="250.212" xlink:href="#x" y="82.039"/><use x="265.602" xlink:href="#x" y="80.162"/><use x="280.991" xlink:href="#x" y="78.527"/><use x="296.38" xlink:href="#x" y="77.091"/><use x="311.77" xlink:href="#x" y="75.815"/><use x="327.159" xlink:href="#x" y="74.661"/><use x="342.549" xlink:href="#x" y="73.275"/><use x="357.938" xlink:href="#x" y="72.011"/><use x="373.327" xlink:href="#x" y="71.025"/><use x="388.717" xlink:href="#x" y="70.047"/><use x="404.106" xlink:href="#x" y="69.641"/><use x="419.496" xlink:href="#x" y="69.134"/><use x="434.885" xlink:href="#x" y="68.449"/><use x="450.274" xlink:href="#x" y="67.891"/><use x="465.664" xlink:href="#x" y="67.379"/><use x="481.053" xlink:href="#x" y="66.766"/><use x="496.442" xlink:href="#x" y="66.156"/><use x="511.832" xlink:href="#x" y="65.768"/></g></g><path clip-path="url(#a)" d="M-1 179.209l4.982-1.772 15.39-2.818 15.389-8.045 15.39-2.902 15.389-5.68 15.389-8.873 15.39-8.745 15.389-4.159 15.39.01 15.389-16.186 15.389-2.697 15.39-3.834 15.389-4.796 15.39-2.141 15.388-3.333 15.39-5.02 15.39-1.913 15.389-3.821 15.389-2.256 15.39-3.239 15.389-2.243 15.39-3.618 15.389-2.509 15.389-1.82 15.39-1.3 15.389-1.18 15.39-1.469 15.389-1.328 15.389-1.02 15.39-.726 15.389-.607 15.39-.59 15.388-.21 15.39-.444" fill="none" stroke="#2ca02c" stroke-linecap="square" stroke-width="1.5"/><g stroke="#d62728"><path clip-path="url(#a)" d="M-1 177.074l4.982-1.865 15.39-11.776 15.389-6.22 15.39-3.299 15.389-4.958 15.389-2.27 15.39-4.012 15.389-4.953 15.39-1.596 15.389-10.492 15.389-4.124 15.39-4.357 15.389-4.153 15.39-4.481 15.388-5.262 15.39-4.017 15.39-4.733 15.389-2.04 15.389-2.082 15.39-2.765 15.389-.702 15.39-2.329 15.389-2.284 15.389-2.65 15.39-1.955 15.389-1.302 15.39-.136 15.389-.751 15.389-1.082 15.39-.924 15.389-1.183 15.39-.812 15.388-.425 15.39-.781" fill="none" stroke-linecap="square" stroke-width="1.5"/><g clip-path="url(#a)" fill="#d62728"><use x="-1" xlink:href="#y" y="177.074"/><use x="3.982" xlink:href="#y" y="175.209"/><use x="19.371" xlink:href="#y" y="163.433"/><use x="34.761" xlink:href="#y" y="157.214"/><use x="50.15" xlink:href="#y" y="153.914"/><use x="65.54" xlink:href="#y" y="148.956"/><use x="80.929" xlink:href="#y" y="146.685"/><use x="96.318" xlink:href="#y" y="142.674"/><use x="111.708" xlink:href="#y" y="137.721"/><use x="127.097" xlink:href="#y" y="136.125"/><use x="142.487" xlink:href="#y" y="125.633"/><use x="157.876" xlink:href="#y" y="121.509"/><use x="173.265" xlink:href="#y" y="117.152"/><use x="188.655" xlink:href="#y" y="112.999"/><use x="204.044" xlink:href="#y" y="108.518"/><use x="219.433" xlink:href="#y" y="103.256"/><use x="234.823" xlink:href="#y" y="99.239"/><use x="250.212" xlink:href="#y" y="94.506"/><use x="265.602" xlink:href="#y" y="92.465"/><use x="280.991" xlink:href="#y" y="90.384"/><use x="296.38" xlink:href="#y" y="87.619"/><use x="311.77" xlink:href="#y" y="86.917"/><use x="327.159" xlink:href="#y" y="84.588"/><use x="342.549" xlink:href="#y" y="82.304"/><use x="357.938" xlink:href="#y" y="79.655"/><use x="373.327" xlink:href="#y" y="77.699"/><use x="388.717" xlink:href="#y" y="76.397"/><use x="404.106" xlink:href="#y" y="76.261"/><use x="419.496" xlink:href="#y" y="75.51"/><use x="434.885" xlink:href="#y" y="74.428"/><use x="450.274" xlink:href="#y" y="73.504"/><use x="465.664" xlink:href="#y" y="72.321"/><use x="481.053" xlink:href="#y" y="71.509"/><use x="496.442" xlink:href="#y" y="71.084"/><use x="511.832" xlink:href="#y" y="70.303"/></g></g><g stroke="#9467bd"><path clip-path="url(#a)" d="M-1 175.7l4.982-2.138 15.39-5.32 15.389-10.426 15.39-7.041 15.389-3.09 15.389-1.347 15.39-7.18 15.389-4.535h15.39l15.389-8.755 15.389-3.725 15.39-.139 15.389-7.122 15.39-2.723 15.388-3.082 15.39-3.293 15.39-2.492 15.389-2.229 15.389.541 15.39-4.532 15.389-1.23 15.39-2.036 15.389-2.165 15.389-2.127 15.39-2.893 15.389-.488 15.39-1.875 15.389-2.8 15.389-1.284 15.39.292 15.389-1.093 15.39-7.716 15.388-.438 15.39-.852" fill="none" stroke-linecap="square" stroke-width="1.5"/><g clip-path="url(#a)" fill="#9467bd"><use x="-1" xlink:href="#z" y="175.7"/><use x="3.982" xlink:href="#z" y="173.562"/><use x="19.371" xlink:href="#z" y="168.242"/><use x="34.761" xlink:href="#z" y="157.816"/><use x="50.15" xlink:href="#z" y="150.775"/><use x="65.54" xlink:href="#z" y="147.685"/><use x="80.929" xlink:href="#z" y="146.338"/><use x="96.318" xlink:href="#z" y="139.158"/><use x="111.708" xlink:href="#z" y="134.623"/><use x="127.097" xlink:href="#z" y="134.623"/><use x="142.487" xlink:href="#z" y="125.868"/><use x="157.876" xlink:href="#z" y="122.143"/><use x="173.265" xlink:href="#z" y="122.004"/><use x="188.655" xlink:href="#z" y="114.882"/><use x="204.044" xlink:href="#z" y="112.159"/><use x="219.433" xlink:href="#z" y="109.077"/><use x="234.823" xlink:href="#z" y="105.784"/><use x="250.212" xlink:href="#z" y="103.292"/><use x="265.602" xlink:href="#z" y="101.063"/><use x="280.991" xlink:href="#z" y="101.604"/><use x="296.38" xlink:href="#z" y="97.072"/><use x="311.77" xlink:href="#z" y="95.841"/><use x="327.159" xlink:href="#z" y="93.806"/><use x="342.549" xlink:href="#z" y="91.641"/><use x="357.938" xlink:href="#z" y="89.514"/><use x="373.327" xlink:href="#z" y="86.621"/><use x="388.717" xlink:href="#z" y="86.133"/><use x="404.106" xlink:href="#z" y="84.258"/><use x="419.496" xlink:href="#z" y="81.458"/><use x="434.885" xlink:href="#z" y="80.174"/><use x="450.274" xlink:href="#z" y="80.466"/><use x="465.664" xlink:href="#z" y="79.373"/><use x="481.053" xlink:href="#z" y="71.657"/><use x="496.442" xlink:href="#z" y="71.219"/><use x="511.832" xlink:href="#z" y="70.367"/></g></g><path clip-path="url(#a)" d="M511.832 42.113l15.39-1.57 15.389-1.57L558 37.405" fill="none" stroke="#1f77b4" stroke-dasharray="1.5 2.475" stroke-width="1.5"/><path clip-path="url(#a)" d="M511.832 65.768l15.39-.516 15.389-.515L558 64.22" fill="none" stroke="#ff7f0e" stroke-dasharray="1.5 2.475" stroke-width="1.5"/><path clip-path="url(#a)" d="M511.832 67.925l15.39-.392 15.389-.392L558 66.749" fill="none" stroke="#2ca02c" stroke-dasharray="1.5 2.475" stroke-width="1.5"/><path clip-path="url(#a)" d="M511.832 70.303l15.39-.66 15.389-.661L558 68.32" fill="none" stroke="#d62728" stroke-dasharray="1.5 2.475" stroke-width="1.5"/><path clip-path="url(#a)" d="M511.832 70.367l15.39-2.175 15.389-2.174L558 63.843" fill="none" stroke="#9467bd" stroke-dasharray="1.5 2.475" stroke-width="1.5"/><path d="M50.15 234.248V25.44M558 234.248V25.44M50.15 234.248H558M50.15 25.44H558" fill="none" stroke="#000" stroke-linecap="square" stroke-linejoin="miter" stroke-width=".8"/><g transform="matrix(.12 0 0 -.12 182.296 19.44)"><use xlink:href="#c"/><use x="68.393" xlink:href="#A"/><use x="123.373" xlink:href="#B"/><use x="162.582" xlink:href="#u"/><path d="M193.35 54.688h9.515L219.96 8.797l17.094 45.89h9.515L226.053 0H213.85z"/><use x="249.545" xlink:href="#v"/><use x="342.855" xlink:href="#C"/><path d="M452.086 66.219q-10.75 0-17.078-8.016-6.313-8-6.313-21.828 0-13.766 6.313-21.781 6.328-8 17.078-8 10.734 0 17.016 8 6.28 8.015 6.28 21.781 0 13.828-6.28 21.828-6.282 8.016-17.016 8.016zm0 8q15.328 0 24.5-10.281 9.187-10.282 9.187-27.563 0-17.234-9.187-27.516-9.172-10.28-24.5-10.28-15.375 0-24.594 10.25-9.203 10.265-9.203 27.546t9.203 27.563q9.219 10.28 24.594 10.28zM519.984 0l-27.828 72.906h10.297l23.11-61.375 23.14 61.375h10.25L531.172 0z"/><use x="559.783" xlink:href="#D"/><path d="M608.947 64.797V8.109h11.922q15.094 0 22.094 6.829 7 6.843 7 21.593 0 14.64-7 21.453-7 6.813-22.094 6.813zm-9.86 8.11h20.267q21.187 0 31.093-8.813 9.922-8.813 9.922-27.563 0-18.86-9.969-27.703Q640.447 0 619.354 0h-20.266z"/><use x="666.277" xlink:href="#E"/><use x="702.361" xlink:href="#j"/><use x="765.984" xlink:href="#i"/><use x="861.395" xlink:href="#A"/><use x="916.375" xlink:href="#F"/><use x="977.654" xlink:href="#G"/><use x="1029.754" xlink:href="#v"/><use x="1091.277" xlink:href="#G"/><use x="1175.164" xlink:href="#F"/><use x="1236.443" xlink:href="#G"/><use x="1320.33" xlink:href="#q"/><use x="1381.512" xlink:href="#H"/><use x="1448.504" xlink:href="#f"/><use x="1512.127" xlink:href="#g"/><use x="1575.75" xlink:href="#f"/><use x="1639.373" xlink:href="#g"/><use x="1702.996" xlink:href="#E"/><use x="1739.08" xlink:href="#g"/><use x="1802.703" xlink:href="#n"/><use x="1866.326" xlink:href="#E"/><use x="1902.41" xlink:href="#g"/><use x="1966.033" xlink:href="#k"/></g><g><path d="M358.069 229.248H551q2 0 2-2v-72.39q0-2-2-2H358.069q-2 0-2 2v72.39q0 2 2 2z" fill="#fff" opacity=".8" stroke="#ccc" stroke-linejoin="miter"/><path d="M360.069 160.956h20" fill="none" stroke="#1f77b4" stroke-linecap="square" stroke-width="1.5"/><use fill="#1f77b4" stroke="#1f77b4" x="370.069" xlink:href="#w" y="160.956"/><g transform="matrix(.1 0 0 -.1 388.069 164.456)"><use xlink:href="#I"/><use x="73.193" xlink:href="#J"/><use x="168.457" xlink:href="#K"/><use x="207.471" xlink:href="#s"/><use x="270.947" xlink:href="#q"/><use x="332.129" xlink:href="#L"/><use x="395.508" xlink:href="#M"/><use x="458.984" xlink:href="#r"/><use x="486.768" xlink:href="#v"/><use x="548.291" xlink:href="#G"/><use x="632.178" xlink:href="#u"/><use x="659.961" xlink:href="#N"/><use x="755.127" xlink:href="#O"/><use x="818.75" xlink:href="#P"/><use x="850.537" xlink:href="#j"/><use x="945.947" xlink:href="#s"/><use x="1009.424" xlink:href="#F"/><use x="1070.703" xlink:href="#Q"/><use x="1129.883" xlink:href="#G"/><use x="1181.982" xlink:href="#R"/></g><path d="M360.069 175.634h20" fill="none" stroke="#ff7f0e" stroke-linecap="square" stroke-width="1.5"/><use fill="#ff7f0e" stroke="#ff7f0e" x="370.069" xlink:href="#x" y="175.634"/><g transform="matrix(.1 0 0 -.1 388.069 179.134)"><use xlink:href="#D"/><use x="29.492" xlink:href="#B"/><use x="68.701" xlink:href="#F"/><use x="129.98" xlink:href="#r"/><use x="157.764" xlink:href="#Q"/><use x="248.73" xlink:href="#K"/><use x="287.744" xlink:href="#s"/><use x="351.221" xlink:href="#q"/><use x="412.402" xlink:href="#L"/><use x="475.781" xlink:href="#M"/><use x="539.258" xlink:href="#r"/><use x="567.041" xlink:href="#v"/><use x="628.564" xlink:href="#G"/><use x="712.451" xlink:href="#u"/><use x="740.234" xlink:href="#N"/><use x="835.4" xlink:href="#f"/><use x="899.023" xlink:href="#n"/><use x="962.646" xlink:href="#P"/><use x="994.434" xlink:href="#O"/><use x="1089.844" xlink:href="#s"/><use x="1153.32" xlink:href="#F"/><use x="1214.6" xlink:href="#Q"/><use x="1273.779" xlink:href="#G"/><use x="1325.879" xlink:href="#R"/></g><path d="M360.069 190.312h20" fill="none" stroke="#2ca02c" stroke-linecap="square" stroke-width="1.5"/><g transform="matrix(.1 0 0 -.1 388.069 193.812)"><use xlink:href="#J"/><use x="63.477" xlink:href="#d"/><use x="126.953" xlink:href="#F"/><use x="188.232" xlink:href="#u"/><use x="216.016" xlink:href="#N"/><use x="311.182" xlink:href="#K"/><use x="350.195" xlink:href="#s"/><use x="413.672" xlink:href="#q"/><use x="474.854" xlink:href="#L"/><use x="538.232" xlink:href="#M"/><use x="601.709" xlink:href="#r"/><use x="629.492" xlink:href="#v"/><use x="691.016" xlink:href="#G"/><use x="774.902" xlink:href="#u"/><use x="802.686" xlink:href="#N"/><use x="897.852" xlink:href="#l"/><use x="961.475" xlink:href="#f"/><use x="1025.098" xlink:href="#P"/><use x="1056.885" xlink:href="#k"/><use x="1152.295" xlink:href="#s"/><use x="1215.771" xlink:href="#F"/><use x="1277.051" xlink:href="#Q"/><use x="1336.23" xlink:href="#G"/><use x="1388.33" xlink:href="#R"/></g><path d="M360.069 204.99h20" fill="none" stroke="#d62728" stroke-linecap="square" stroke-width="1.5"/><use fill="#d62728" stroke="#d62728" x="370.069" xlink:href="#y" y="204.99"/><g transform="matrix(.1 0 0 -.1 388.069 208.49)"><path d="M59.516 10.406v19.578h-16.11v8.11h25.875V6.78Q63.578 2.734 56.687.656 49.813-1.422 42-1.422q-17.094 0-26.75 9.985-9.64 10-9.64 27.812 0 17.875 9.64 27.86 9.656 9.984 26.75 9.984 7.125 0 13.547-1.766 6.422-1.75 11.844-5.172v-10.5q-5.47 4.64-11.625 6.985-6.157 2.343-12.938 2.343-13.39 0-20.11-7.468-6.702-7.47-6.702-22.266 0-14.75 6.703-22.219 6.718-7.469 20.11-7.469 5.218 0 9.312.907 4.109.906 7.375 2.812z"/><use x="77.49" xlink:href="#v"/><use x="139.014" xlink:href="#e"/><path d="M232.111 44.188q3.375 6.062 8.063 8.937Q244.86 56 251.205 56q8.547 0 13.188-5.984 4.64-5.97 4.64-17V0h-9.031v32.719q0 7.86-2.797 11.656-2.781 3.813-8.484 3.813-6.985 0-11.047-4.641-4.047-4.625-4.047-12.64V0h-9.031v32.719q0 7.906-2.782 11.687-2.78 3.782-8.593 3.782-6.89 0-10.953-4.657-4.047-4.656-4.047-12.625V0h-9.032v54.688h9.032v-8.5q3.078 5.03 7.375 7.421Q209.893 56 215.799 56q5.969 0 10.14-3.031 4.172-3.016 6.172-8.782z"/><use x="277.523" xlink:href="#F"/><use x="338.803" xlink:href="#N"/><use x="402.182" xlink:href="#Q"/><use x="493.148" xlink:href="#K"/><use x="532.162" xlink:href="#s"/><use x="595.639" xlink:href="#q"/><use x="656.82" xlink:href="#L"/><use x="720.199" xlink:href="#M"/><use x="783.676" xlink:href="#r"/><use x="811.459" xlink:href="#v"/><use x="872.982" xlink:href="#G"/><use x="956.869" xlink:href="#u"/><use x="984.652" xlink:href="#N"/><use x="1079.818" xlink:href="#j"/><use x="1143.441" xlink:href="#i"/><use x="1207.064" xlink:href="#P"/><use x="1238.852" xlink:href="#l"/><use x="1334.262" xlink:href="#s"/><use x="1397.738" xlink:href="#F"/><use x="1459.018" xlink:href="#Q"/><use x="1518.197" xlink:href="#G"/><use x="1570.297" xlink:href="#R"/></g><path d="M360.069 219.668h20" fill="none" stroke="#9467bd" stroke-linecap="square" stroke-width="1.5"/><use fill="#9467bd" stroke="#9467bd" x="370.069" xlink:href="#z" y="219.668"/><g transform="matrix(.1 0 0 -.1 388.069 223.168)"><path d="M9.813 72.906h41.89v-8.312H19.672V43.109h28.906v-8.297H19.672V0h-9.86z"/><use x="57.41" xlink:href="#e"/><use x="98.523" xlink:href="#F"/><use x="159.803" xlink:href="#N"/><use x="223.182" xlink:href="#A"/><use x="278.162" xlink:href="#v"/><use x="371.473" xlink:href="#K"/><use x="410.486" xlink:href="#s"/><use x="473.963" xlink:href="#q"/><use x="535.145" xlink:href="#L"/><use x="598.523" xlink:href="#M"/><use x="662" xlink:href="#r"/><use x="689.783" xlink:href="#v"/><use x="751.307" xlink:href="#G"/><use x="835.193" xlink:href="#u"/><use x="862.977" xlink:href="#N"/><use x="958.143" xlink:href="#o"/><use x="1021.766" xlink:href="#P"/><use x="1053.553" xlink:href="#i"/><use x="1148.963" xlink:href="#s"/><use x="1212.439" xlink:href="#F"/><use x="1273.719" xlink:href="#Q"/><use x="1332.898" xlink:href="#G"/><use x="1384.998" xlink:href="#R"/></g></g><g><path d="M50.15 505.928H558V297.12H50.15z" fill="#fff"/><g stroke-width=".8"><path clip-path="url(#S)" d="M50.15 505.928V297.12" fill="none" stroke="#b0b0b0" stroke-linecap="square"/><use stroke="#000" x="50.15" xlink:href="#b" y="505.928"/></g><path clip-path="url(#S)" d="M434.885 505.928V297.12" fill="none" stroke="#b0b0b0" stroke-linecap="square" stroke-width=".8"/><use stroke="#000" stroke-width=".8" x="434.885" xlink:href="#b" y="505.928"/><g transform="matrix(.1 0 0 -.1 426.235 542.922)"><use xlink:href="#c"/><use x="68.408" xlink:href="#d"/><use x="131.885" xlink:href="#e"/></g><g transform="matrix(.1 0 0 -.1 422.16 554.12)"><use xlink:href="#f"/><use x="63.623" xlink:href="#g"/><use x="127.246" xlink:href="#f"/><use x="190.869" xlink:href="#g"/></g><g stroke-width=".8"><path clip-path="url(#S)" d="M558 505.928V297.12" fill="none" stroke="#b0b0b0" stroke-linecap="square"/><use stroke="#000" x="558" xlink:href="#b" y="505.928"/></g><use stroke="#000" stroke-width=".6" x="65.54" xlink:href="#h" y="505.928"/><use stroke="#000" stroke-width=".6" x="80.929" xlink:href="#h" y="505.928"/><g transform="matrix(.1 0 0 -.1 74.566 518.926)"><use xlink:href="#g"/><use x="63.623" xlink:href="#i"/></g><g stroke="#000" stroke-width=".6"><use x="96.318" xlink:href="#h" y="505.928"/><use x="111.708" xlink:href="#h" y="505.928"/><use x="127.097" xlink:href="#h" y="505.928"/><use x="142.487" xlink:href="#h" y="505.928"/><use x="157.876" xlink:href="#h" y="505.928"/><use x="173.265" xlink:href="#h" y="505.928"/></g><use stroke="#000" stroke-width=".6" x="188.655" xlink:href="#h" y="505.928"/><g transform="matrix(.1 0 0 -.1 182.292 518.926)"><use xlink:href="#j"/><use x="63.623" xlink:href="#k"/></g><use stroke="#000" stroke-width=".6" x="204.044" xlink:href="#h" y="505.928"/><use stroke="#000" stroke-width=".6" x="219.433" xlink:href="#h" y="505.928"/><use stroke="#000" stroke-width=".6" x="234.823" xlink:href="#h" y="505.928"/><use stroke="#000" stroke-width=".6" x="250.212" xlink:href="#h" y="505.928"/><use stroke="#000" stroke-width=".6" x="265.602" xlink:href="#h" y="505.928"/><use stroke="#000" stroke-width=".6" x="280.991" xlink:href="#h" y="505.928"/><use stroke="#000" stroke-width=".6" x="296.38" xlink:href="#h" y="505.928"/><g transform="matrix(.1 0 0 -.1 290.018 518.926)"><use xlink:href="#f"/><use x="63.623" xlink:href="#l"/></g><use stroke="#000" stroke-width=".6" x="311.77" xlink:href="#h" y="505.928"/><use stroke="#000" stroke-width=".6" x="327.159" xlink:href="#h" y="505.928"/><use stroke="#000" stroke-width=".6" x="342.549" xlink:href="#h" y="505.928"/><use stroke="#000" stroke-width=".6" x="357.938" xlink:href="#h" y="505.928"/><use stroke="#000" stroke-width=".6" x="373.327" xlink:href="#h" y="505.928"/><use stroke="#000" stroke-width=".6" x="388.717" xlink:href="#h" y="505.928"/><use stroke="#000" stroke-width=".6" x="404.106" xlink:href="#h" y="505.928"/><g transform="matrix(.1 0 0 -.1 397.744 518.926)"><use xlink:href="#l"/><use x="63.623" xlink:href="#g"/></g><use stroke="#000" stroke-width=".6" x="419.496" xlink:href="#h" y="505.928"/><use stroke="#000" stroke-width=".6" x="450.274" xlink:href="#h" y="505.928"/><use stroke="#000" stroke-width=".6" x="465.664" xlink:href="#h" y="505.928"/><use stroke="#000" stroke-width=".6" x="481.053" xlink:href="#h" y="505.928"/><use stroke="#000" stroke-width=".6" x="496.442" xlink:href="#h" y="505.928"/><g><use stroke="#000" stroke-width=".6" x="511.832" xlink:href="#h" y="505.928"/><g transform="matrix(.1 0 0 -.1 505.47 518.926)"><use xlink:href="#g"/><use x="63.623" xlink:href="#k"/></g></g><use stroke="#000" stroke-width=".6" x="527.221" xlink:href="#h" y="505.928"/><use stroke="#000" stroke-width=".6" x="542.611" xlink:href="#h" y="505.928"/><g><path clip-path="url(#S)" d="M50.15 505.928H558" fill="none" stroke="#b0b0b0" stroke-linecap="square" stroke-width=".8"/><use stroke="#000" stroke-width=".8" x="50.15" xlink:href="#m" y="505.928"/><g transform="matrix(.1 0 0 -.1 25.55 509.727)"><use transform="translate(0 .684)" xlink:href="#j"/><use transform="translate(63.623 .684)" xlink:href="#g"/><use transform="matrix(.7 0 0 .7 128.203 38.966)" xlink:href="#j"/></g><path clip-path="url(#S)" d="M50.15 459.15H558" fill="none" stroke="#b0b0b0" stroke-linecap="square" stroke-width=".8"/><use stroke="#000" stroke-width=".8" x="50.15" xlink:href="#m" y="459.15"/><g transform="matrix(.1 0 0 -.1 25.55 462.95)"><use transform="translate(0 .766)" xlink:href="#j"/><use transform="translate(63.623 .766)" xlink:href="#g"/><use transform="matrix(.7 0 0 .7 128.203 39.047)" xlink:href="#f"/></g><path clip-path="url(#S)" d="M50.15 412.373H558" fill="none" stroke="#b0b0b0" stroke-linecap="square" stroke-width=".8"/><use stroke="#000" stroke-width=".8" x="50.15" xlink:href="#m" y="412.373"/><g transform="matrix(.1 0 0 -.1 25.55 416.172)"><use transform="translate(0 .766)" xlink:href="#j"/><use transform="translate(63.623 .766)" xlink:href="#g"/><use transform="matrix(.7 0 0 .7 128.203 39.047)" xlink:href="#l"/></g><g><path clip-path="url(#S)" d="M50.15 365.595H558" fill="none" stroke="#b0b0b0" stroke-linecap="square" stroke-width=".8"/><use stroke="#000" stroke-width=".8" x="50.15" xlink:href="#m" y="365.595"/><g transform="matrix(.1 0 0 -.1 25.55 369.394)"><use transform="translate(0 .684)" xlink:href="#j"/><use transform="translate(63.623 .684)" xlink:href="#g"/><use transform="matrix(.7 0 0 .7 128.203 38.966)" xlink:href="#n"/></g></g><g><path clip-path="url(#S)" d="M50.15 318.817H558" fill="none" stroke="#b0b0b0" stroke-linecap="square" stroke-width=".8"/><use stroke="#000" stroke-width=".8" x="50.15" xlink:href="#m" y="318.817"/><g transform="matrix(.1 0 0 -.1 25.55 322.616)"><use transform="translate(0 .684)" xlink:href="#j"/><use transform="translate(63.623 .684)" xlink:href="#g"/><use transform="matrix(.7 0 0 .7 128.203 38.966)" xlink:href="#o"/></g></g><g stroke="#000" stroke-width=".6"><use x="50.15" xlink:href="#p" y="491.847"/><use x="50.15" xlink:href="#p" y="483.609"/><use x="50.15" xlink:href="#p" y="477.765"/><use x="50.15" xlink:href="#p" y="473.232"/><use x="50.15" xlink:href="#p" y="469.528"/><use x="50.15" xlink:href="#p" y="466.396"/><use x="50.15" xlink:href="#p" y="463.684"/><use x="50.15" xlink:href="#p" y="461.291"/><use x="50.15" xlink:href="#p" y="445.069"/><use x="50.15" xlink:href="#p" y="436.832"/><use x="50.15" xlink:href="#p" y="430.987"/><use x="50.15" xlink:href="#p" y="426.454"/><use x="50.15" xlink:href="#p" y="422.75"/><use x="50.15" xlink:href="#p" y="419.619"/><use x="50.15" xlink:href="#p" y="416.906"/><use x="50.15" xlink:href="#p" y="414.513"/><use x="50.15" xlink:href="#p" y="398.291"/><use x="50.15" xlink:href="#p" y="390.054"/><use x="50.15" xlink:href="#p" y="384.21"/><use x="50.15" xlink:href="#p" y="379.676"/><use x="50.15" xlink:href="#p" y="375.972"/><use x="50.15" xlink:href="#p" y="372.841"/><use x="50.15" xlink:href="#p" y="370.128"/><use x="50.15" xlink:href="#p" y="367.735"/><use x="50.15" xlink:href="#p" y="351.513"/><use x="50.15" xlink:href="#p" y="343.276"/><use x="50.15" xlink:href="#p" y="337.432"/><use x="50.15" xlink:href="#p" y="332.899"/><use x="50.15" xlink:href="#p" y="329.195"/><use x="50.15" xlink:href="#p" y="326.063"/><use x="50.15" xlink:href="#p" y="323.35"/><use x="50.15" xlink:href="#p" y="320.958"/><use x="50.15" xlink:href="#p" y="304.736"/></g><g transform="matrix(0 -.1 -.1 0 19.47 408.358)"><use xlink:href="#I"/><use x="73.193" xlink:href="#J"/></g></g><g stroke="#1f77b4"><path clip-path="url(#S)" d="M-1 515.203l4.982-11.211 15.39-14.985 15.389-9.102 15.39-15.18 15.389-6.758 15.389-5.94 15.39-4.012 15.389-4.882 15.39-8.114 15.389-5.071 15.389-4.408 15.39-6.746 15.389-5.529 15.39-11.588 15.388-7.748 15.39-15.555 15.39-8.915 15.389-6.967 15.389-6.039 15.39-5.664 15.389-4.188 15.39-3.698 15.389-4.156 15.389-3.412 15.39-3.109 15.389-2.58 15.39-2.216 15.389-2.573 15.389-2.01 15.39-1.92 15.389-2.12 15.39-1.976 15.388-1.548 15.39-1.34" fill="none" stroke-linecap="square" stroke-width="1.5"/><g clip-path="url(#S)" fill="#1f77b4"><use x="-1" xlink:href="#w" y="515.203"/><use x="3.982" xlink:href="#w" y="503.992"/><use x="19.371" xlink:href="#w" y="489.007"/><use x="34.761" xlink:href="#w" y="479.905"/><use x="50.15" xlink:href="#w" y="464.726"/><use x="65.54" xlink:href="#w" y="457.967"/><use x="80.929" xlink:href="#w" y="452.027"/><use x="96.318" xlink:href="#w" y="448.015"/><use x="111.708" xlink:href="#w" y="443.133"/><use x="127.097" xlink:href="#w" y="435.019"/><use x="142.487" xlink:href="#w" y="429.948"/><use x="157.876" xlink:href="#w" y="425.54"/><use x="173.265" xlink:href="#w" y="418.794"/><use x="188.655" xlink:href="#w" y="413.265"/><use x="204.044" xlink:href="#w" y="401.677"/><use x="219.433" xlink:href="#w" y="393.929"/><use x="234.823" xlink:href="#w" y="378.374"/><use x="250.212" xlink:href="#w" y="369.459"/><use x="265.602" xlink:href="#w" y="362.492"/><use x="280.991" xlink:href="#w" y="356.453"/><use x="296.38" xlink:href="#w" y="350.789"/><use x="311.77" xlink:href="#w" y="346.601"/><use x="327.159" xlink:href="#w" y="342.903"/><use x="342.549" xlink:href="#w" y="338.747"/><use x="357.938" xlink:href="#w" y="335.335"/><use x="373.327" xlink:href="#w" y="332.226"/><use x="388.717" xlink:href="#w" y="329.646"/><use x="404.106" xlink:href="#w" y="327.43"/><use x="419.496" xlink:href="#w" y="324.857"/><use x="434.885" xlink:href="#w" y="322.847"/><use x="450.274" xlink:href="#w" y="320.928"/><use x="465.664" xlink:href="#w" y="318.807"/><use x="481.053" xlink:href="#w" y="316.831"/><use x="496.442" xlink:href="#w" y="315.283"/><use x="511.832" xlink:href="#w" y="313.943"/></g></g><g stroke="#ff7f0e"><path clip-path="url(#S)" d="M19.361 569.8l.01-31.176h15.39l15.39-14.081 15.389-4.534h15.389l15.39-20.917 15.389-9.182 15.39-4.899h15.389l15.389-18.026 15.39-7.005 15.389-12.198 15.39-8.276 15.388-.077 15.39-20.746 15.39-3.69 15.389-8.122 15.389-7.474 15.39-8.064 15.389-5.157 15.39-3.624 15.389-9.107 15.389-5.06 15.39-4.697 15.389-3.772 15.39-4.418 15.389-2.323 15.389-3.505 15.39-2.733 15.389-3.146 15.39-2.621 15.388-1.927 15.39-1.855" fill="none" stroke-linecap="square" stroke-width="1.5"/><g clip-path="url(#S)" fill="#ff7f0e"><use x="6.079" xlink:href="#x" y="40954.6"/><use x="19.371" xlink:href="#x" y="538.624"/><use x="34.761" xlink:href="#x" y="538.624"/><use x="50.15" xlink:href="#x" y="524.543"/><use x="65.54" xlink:href="#x" y="520.009"/><use x="80.929" xlink:href="#x" y="520.009"/><use x="96.318" xlink:href="#x" y="499.092"/><use x="111.708" xlink:href="#x" y="489.91"/><use x="127.097" xlink:href="#x" y="485.011"/><use x="142.487" xlink:href="#x" y="485.011"/><use x="157.876" xlink:href="#x" y="466.985"/><use x="173.265" xlink:href="#x" y="459.98"/><use x="188.655" xlink:href="#x" y="447.782"/><use x="204.044" xlink:href="#x" y="439.506"/><use x="219.433" xlink:href="#x" y="439.429"/><use x="234.823" xlink:href="#x" y="418.683"/><use x="250.212" xlink:href="#x" y="414.993"/><use x="265.602" xlink:href="#x" y="406.871"/><use x="280.991" xlink:href="#x" y="399.397"/><use x="296.38" xlink:href="#x" y="391.333"/><use x="311.77" xlink:href="#x" y="386.176"/><use x="327.159" xlink:href="#x" y="382.552"/><use x="342.549" xlink:href="#x" y="373.445"/><use x="357.938" xlink:href="#x" y="368.384"/><use x="373.327" xlink:href="#x" y="363.688"/><use x="388.717" xlink:href="#x" y="359.916"/><use x="404.106" xlink:href="#x" y="355.498"/><use x="419.496" xlink:href="#x" y="353.175"/><use x="434.885" xlink:href="#x" y="349.67"/><use x="450.274" xlink:href="#x" y="346.937"/><use x="465.664" xlink:href="#x" y="343.791"/><use x="481.053" xlink:href="#x" y="341.17"/><use x="496.442" xlink:href="#x" y="339.243"/><use x="511.832" xlink:href="#x" y="337.388"/></g></g><path clip-path="url(#S)" d="M111.698 569.8l.01-31.176h15.39l15.389-42.244 15.389-9.067 15.39-5.64 15.389-9.625 15.39-4.146 15.388-4.966 15.39-28.102 15.39-10.28 15.389-7.212 15.389-5.49 15.39-5.027 15.389-6.04 15.39-4.914 15.389-4.299 15.389-4.892 15.39-5.039 15.389-3.362 15.39-3.343 15.389-3.103 15.389-4.053 15.39-2.931 15.389-3.402 15.39-2.225 15.388-2 15.39-1.793" fill="none" stroke="#2ca02c" stroke-linecap="square" stroke-width="1.5"/><g stroke="#d62728"><path clip-path="url(#S)" d="M-1 484.47l4.982-2.172 15.39-8.237 15.389-3.132 15.39-6.99 15.389-3.747 15.389-1.244 15.39-6.633 15.389-4.182 15.39-4.152 15.389-5.159 15.389-3.865 15.39-4.669 15.389-5.547 15.39-4.534 15.388-1.662 15.39-4.785 15.39-4.297 15.389-3.036 15.389-3.805 15.39-5.02 15.389-3.746 15.39-3.343 15.389-5.357 15.389-3.622 15.39-1.797 15.389-2.822 15.39-4.05 15.389-2.83 15.389-2.746 15.39-2.753 15.389-2.198 15.39-1.354 15.388-3.197 15.39-1.277" fill="none" stroke-linecap="square" stroke-width="1.5"/><g clip-path="url(#S)" fill="#d62728"><use x="-1" xlink:href="#y" y="484.47"/><use x="3.982" xlink:href="#y" y="482.298"/><use x="19.371" xlink:href="#y" y="474.061"/><use x="34.761" xlink:href="#y" y="470.929"/><use x="50.15" xlink:href="#y" y="463.939"/><use x="65.54" xlink:href="#y" y="460.192"/><use x="80.929" xlink:href="#y" y="458.948"/><use x="96.318" xlink:href="#y" y="452.315"/><use x="111.708" xlink:href="#y" y="448.133"/><use x="127.097" xlink:href="#y" y="443.981"/><use x="142.487" xlink:href="#y" y="438.822"/><use x="157.876" xlink:href="#y" y="434.957"/><use x="173.265" xlink:href="#y" y="430.288"/><use x="188.655" xlink:href="#y" y="424.741"/><use x="204.044" xlink:href="#y" y="420.207"/><use x="219.433" xlink:href="#y" y="418.545"/><use x="234.823" xlink:href="#y" y="413.76"/><use x="250.212" xlink:href="#y" y="409.463"/><use x="265.602" xlink:href="#y" y="406.427"/><use x="280.991" xlink:href="#y" y="402.622"/><use x="296.38" xlink:href="#y" y="397.602"/><use x="311.77" xlink:href="#y" y="393.856"/><use x="327.159" xlink:href="#y" y="390.513"/><use x="342.549" xlink:href="#y" y="385.156"/><use x="357.938" xlink:href="#y" y="381.534"/><use x="373.327" xlink:href="#y" y="379.737"/><use x="388.717" xlink:href="#y" y="376.915"/><use x="404.106" xlink:href="#y" y="372.864"/><use x="419.496" xlink:href="#y" y="370.034"/><use x="434.885" xlink:href="#y" y="367.289"/><use x="450.274" xlink:href="#y" y="364.536"/><use x="465.664" xlink:href="#y" y="362.338"/><use x="481.053" xlink:href="#y" y="360.984"/><use x="496.442" xlink:href="#y" y="357.787"/><use x="511.832" xlink:href="#y" y="356.51"/></g></g><g stroke="#9467bd"><path clip-path="url(#S)" d="M80.923 569.8l.006-17.094h15.39l15.389-36.4 15.39-23.417 15.389-12.984 15.389-15.18 15.39-3.207 15.389-8.161 15.39-7.459 15.388-5.605 15.39-8.37 15.39-6.421 15.389-1.674 15.389-7.35 15.39-6.714 15.389-3.367 15.39-5.16 15.389-5.075 15.389-3.395 15.39-3.884 15.389-1.306 15.39-2.538 15.389-5.355 15.389-4.217 15.39-7.388 15.389-2.335 15.39-4 15.388-.736 15.39-2.757" fill="none" stroke-linecap="square" stroke-width="1.5"/><g clip-path="url(#S)" fill="#9467bd"><use x="67.637" xlink:href="#z" y="40954.6"/><use x="80.929" xlink:href="#z" y="552.706"/><use x="96.318" xlink:href="#z" y="552.706"/><use x="111.708" xlink:href="#z" y="516.306"/><use x="127.097" xlink:href="#z" y="492.889"/><use x="142.487" xlink:href="#z" y="479.905"/><use x="157.876" xlink:href="#z" y="464.726"/><use x="173.265" xlink:href="#z" y="461.518"/><use x="188.655" xlink:href="#z" y="453.357"/><use x="204.044" xlink:href="#z" y="445.898"/><use x="219.433" xlink:href="#z" y="440.293"/><use x="234.823" xlink:href="#z" y="431.923"/><use x="250.212" xlink:href="#z" y="425.502"/><use x="265.602" xlink:href="#z" y="423.828"/><use x="280.991" xlink:href="#z" y="416.479"/><use x="296.38" xlink:href="#z" y="409.764"/><use x="311.77" xlink:href="#z" y="406.397"/><use x="327.159" xlink:href="#z" y="401.237"/><use x="342.549" xlink:href="#z" y="396.162"/><use x="357.938" xlink:href="#z" y="392.767"/><use x="373.327" xlink:href="#z" y="388.883"/><use x="388.717" xlink:href="#z" y="387.577"/><use x="404.106" xlink:href="#z" y="385.039"/><use x="419.496" xlink:href="#z" y="379.684"/><use x="434.885" xlink:href="#z" y="375.467"/><use x="450.274" xlink:href="#z" y="368.079"/><use x="465.664" xlink:href="#z" y="365.744"/><use x="481.053" xlink:href="#z" y="361.744"/><use x="496.442" xlink:href="#z" y="361.008"/><use x="511.832" xlink:href="#z" y="358.251"/></g></g><path clip-path="url(#S)" d="M511.832 313.943l15.39-1.55 15.389-1.552 15.389-1.55" fill="none" stroke="#1f77b4" stroke-dasharray="1.5 2.475" stroke-width="1.5"/><path clip-path="url(#S)" d="M511.832 337.388l15.39-2.045 15.389-2.045L558 331.253" fill="none" stroke="#ff7f0e" stroke-dasharray="1.5 2.475" stroke-width="1.5"/><path clip-path="url(#S)" d="M511.832 355.429l15.39-1.96 15.389-1.96L558 349.55" fill="none" stroke="#2ca02c" stroke-dasharray="1.5 2.475" stroke-width="1.5"/><path clip-path="url(#S)" d="M511.832 356.51l15.39-1.979 15.389-1.979L558 350.573" fill="none" stroke="#d62728" stroke-dasharray="1.5 2.475" stroke-width="1.5"/><path clip-path="url(#S)" d="M511.832 358.25l15.39-2.301 15.389-2.302L558 351.345" fill="none" stroke="#9467bd" stroke-dasharray="1.5 2.475" stroke-width="1.5"/><path d="M50.15 505.928V297.12M558 505.928V297.12M50.15 505.928H558M50.15 297.12H558" fill="none" stroke="#000" stroke-linecap="square" stroke-linejoin="miter" stroke-width=".8"/><g><path d="M355.081 500.928H551q2 0 2-2v-72.39q0-2-2-2H355.081q-2 0-2 2v72.39q0 2 2 2z" fill="#fff" opacity=".8" stroke="#ccc" stroke-linejoin="miter"/><path d="M357.081 432.636h20" fill="none" stroke="#1f77b4" stroke-linecap="square" stroke-width="1.5"/><use fill="#1f77b4" stroke="#1f77b4" x="367.081" xlink:href="#w" y="432.636"/><g transform="matrix(.1 0 0 -.1 385.081 436.136)"><use xlink:href="#T"/><use x="74.805" xlink:href="#v"/><use x="136.328" xlink:href="#t"/><path d="M249.7 72.906h10.609l20.203-29.984 20.078 29.984h10.594L285.402 34.72V0h-9.906v34.719z"/><use x="310.783" xlink:href="#q"/><use x="371.965" xlink:href="#e"/><path d="M422.156 75.984h9.031V31.11L458 54.687h11.469l-29-25.578L470.703 0h-11.719l-27.796 26.703V0h-9.032z"/><use x="502.775" xlink:href="#K"/><use x="541.789" xlink:href="#s"/><use x="605.266" xlink:href="#q"/><use x="666.447" xlink:href="#L"/><use x="729.826" xlink:href="#M"/><use x="793.303" xlink:href="#r"/><use x="821.086" xlink:href="#v"/><use x="882.609" xlink:href="#G"/><use x="966.496" xlink:href="#u"/><use x="994.279" xlink:href="#N"/><use x="1089.445" xlink:href="#i"/><use x="1153.068" xlink:href="#P"/><use x="1184.855" xlink:href="#j"/><use x="1280.266" xlink:href="#s"/><use x="1343.742" xlink:href="#F"/><use x="1405.021" xlink:href="#Q"/><use x="1464.201" xlink:href="#G"/><use x="1516.301" xlink:href="#R"/></g><path d="M357.081 447.314h20" fill="none" stroke="#ff7f0e" stroke-linecap="square" stroke-width="1.5"/><use fill="#ff7f0e" stroke="#ff7f0e" x="367.081" xlink:href="#x" y="447.314"/><g transform="matrix(.1 0 0 -.1 385.081 450.814)"><use xlink:href="#T"/><use x="74.805" xlink:href="#v"/><use x="136.328" xlink:href="#t"/><path d="M259.715 72.906h9.86V5.078q0-13.187-5-19.14-5-5.954-16.095-5.954h-3.75v8.297h3.079q6.53 0 9.218 3.672 2.688 3.656 2.688 13.125z"/><use x="279.395" xlink:href="#v"/><use x="340.918" xlink:href="#e"/><use x="382.031" xlink:href="#G"/><use x="434.131" xlink:href="#v"/><use x="495.654" xlink:href="#Q"/><use x="586.621" xlink:href="#K"/><use x="625.635" xlink:href="#s"/><use x="689.111" xlink:href="#q"/><use x="750.293" xlink:href="#L"/><use x="813.672" xlink:href="#M"/><use x="877.148" xlink:href="#r"/><use x="904.932" xlink:href="#v"/><use x="966.455" xlink:href="#G"/><use x="1050.342" xlink:href="#u"/><use x="1078.125" xlink:href="#N"/><use x="1173.291" xlink:href="#k"/><use x="1236.914" xlink:href="#P"/><use x="1268.701" xlink:href="#i"/><use x="1364.111" xlink:href="#s"/><use x="1427.588" xlink:href="#F"/><use x="1488.867" xlink:href="#Q"/><use x="1548.047" xlink:href="#G"/><use x="1600.146" xlink:href="#R"/></g><path d="M357.081 461.992h20" fill="none" stroke="#2ca02c" stroke-linecap="square" stroke-width="1.5"/><g transform="matrix(.1 0 0 -.1 385.081 465.492)"><path d="M9.813 72.906h14.703l18.593-49.61 18.703 49.61h14.704V0H66.89v64.016l-18.797-50h-9.907l-18.796 50V0H9.813z"/><use x="86.279" xlink:href="#u"/><use x="114.063" xlink:href="#A"/><path d="M223.934 33.016V0h-8.985v32.719q0 7.765-3.031 11.61-3.031 3.858-9.078 3.858-7.281 0-11.485-4.64-4.203-4.625-4.203-12.64V0h-9.03v75.984h9.03V46.188q3.235 4.937 7.594 7.374Q199.121 56 204.84 56q9.422 0 14.25-5.828 4.844-5.828 4.844-17.156z"/><use x="232.422" xlink:href="#u"/><path d="M305.611 27.984q0 9.766-4.03 15.125-4.017 5.375-11.298 5.375-7.219 0-11.25-5.375-4.031-5.359-4.031-15.125 0-9.718 4.031-15.093t11.25-5.375q7.281 0 11.297 5.375 4.031 5.375 4.031 15.093zm8.985-21.203q0-13.953-6.203-20.765-6.188-6.813-18.985-6.813-4.734 0-8.937.703-4.203.703-8.157 2.172v8.735q3.954-2.141 7.813-3.157 3.86-1.031 7.86-1.031 8.843 0 13.234 4.61 4.39 4.609 4.39 13.937v4.453q-2.78-4.844-7.125-7.234Q294.143 0 288.08 0q-10.047 0-16.203 7.656-6.156 7.672-6.156 20.328 0 12.688 6.156 20.344Q278.033 56 288.08 56q6.063 0 10.406-2.39 4.344-2.391 7.125-7.22v8.297h8.985z"/><use x="323.682" xlink:href="#F"/><use x="384.961" xlink:href="#N"/><use x="480.127" xlink:href="#K"/><use x="519.141" xlink:href="#s"/><use x="582.617" xlink:href="#q"/><use x="643.799" xlink:href="#L"/><use x="707.178" xlink:href="#M"/><use x="770.654" xlink:href="#r"/><use x="798.438" xlink:href="#v"/><use x="859.961" xlink:href="#G"/><use x="943.848" xlink:href="#u"/><use x="971.631" xlink:href="#N"/><use x="1066.797" xlink:href="#U"/><use x="1130.42" xlink:href="#P"/><use x="1162.207" xlink:href="#f"/><use x="1257.617" xlink:href="#s"/><use x="1321.094" xlink:href="#F"/><use x="1382.373" xlink:href="#Q"/><use x="1441.553" xlink:href="#G"/><use x="1493.652" xlink:href="#R"/></g><path d="M357.081 476.67h20" fill="none" stroke="#d62728" stroke-linecap="square" stroke-width="1.5"/><use fill="#d62728" stroke="#d62728" x="367.081" xlink:href="#y" y="476.67"/><g transform="matrix(.1 0 0 -.1 385.081 480.17)"><use xlink:href="#C"/><use x="69.824" xlink:href="#F"/><use x="131.104" xlink:href="#r"/><use x="158.887" xlink:href="#u"/><use x="186.67" xlink:href="#H"/><use x="221.875" xlink:href="#q"/><use x="283.057" xlink:href="#e"/><use x="324.154" xlink:href="#N"/><use x="387.533" xlink:href="#u"/><use x="415.316" xlink:href="#F"/><use x="508.383" xlink:href="#K"/><use x="547.396" xlink:href="#s"/><use x="610.873" xlink:href="#q"/><use x="672.055" xlink:href="#L"/><use x="735.434" xlink:href="#M"/><use x="798.91" xlink:href="#r"/><use x="826.693" xlink:href="#v"/><use x="888.217" xlink:href="#G"/><use x="972.104" xlink:href="#u"/><use x="999.887" xlink:href="#N"/><use x="1095.053" xlink:href="#U"/><use x="1158.676" xlink:href="#P"/><use x="1190.463" xlink:href="#j"/><use x="1285.873" xlink:href="#s"/><use x="1349.35" xlink:href="#F"/><use x="1410.629" xlink:href="#Q"/><use x="1469.809" xlink:href="#G"/><use x="1521.908" xlink:href="#R"/></g><path d="M357.081 491.348h20" fill="none" stroke="#9467bd" stroke-linecap="square" stroke-width="1.5"/><use fill="#9467bd" stroke="#9467bd" x="367.081" xlink:href="#z" y="491.348"/><g transform="matrix(.1 0 0 -.1 385.081 494.848)"><path d="M9.813 72.906h9.859V8.296h35.5V0H9.812z"/><use x="55.697" xlink:href="#q"/><use x="116.879" xlink:href="#L"/><use x="180.258" xlink:href="#u"/><use x="208.041" xlink:href="#G"/><use x="260.141" xlink:href="#u"/><use x="287.924" xlink:href="#F"/><use x="349.203" xlink:href="#N"/><use x="412.582" xlink:href="#F"/><use x="505.648" xlink:href="#K"/><use x="544.662" xlink:href="#s"/><use x="608.139" xlink:href="#q"/><use x="669.32" xlink:href="#L"/><use x="732.699" xlink:href="#M"/><use x="796.176" xlink:href="#r"/><use x="823.959" xlink:href="#v"/><use x="885.482" xlink:href="#G"/><use x="969.369" xlink:href="#u"/><use x="997.152" xlink:href="#N"/><use x="1092.318" xlink:href="#k"/><use x="1155.941" xlink:href="#P"/><use x="1187.729" xlink:href="#j"/><use x="1283.139" xlink:href="#s"/><use x="1346.615" xlink:href="#F"/><use x="1407.895" xlink:href="#Q"/><use x="1467.074" xlink:href="#G"/><use x="1519.174" xlink:href="#R"/></g></g></g></svg>