<svg height="758.4" stroke-linejoin="round" viewBox="0 0 568.8 568.8" width="758.4" xmlns="http://www.w3.org/2000/svg" xmlns:xlink="http://www.w3.org/1999/xlink"><defs><path id="w" d="M0 1.5a1.5 1.5 0 100-3 1.5 1.5 0 000 3z" stroke="#ff7f0e" stroke-linejoin="round"/><path id="U" d="M54.89 33.016V0h-8.984v32.719q0 7.765-3.031 11.61-3.031 3.858-9.078 3.858-7.281 0-11.484-4.64-4.204-4.625-4.204-12.64V0H9.08v75.984h9.03V46.188q3.235 4.937 7.594 7.374Q30.078 56 35.797 56q9.422 0 14.25-5.828 4.844-5.828 4.844-17.156z" stroke-linejoin="round"/><path id="b" d="M0 0v3.5" stroke="#000" stroke-linejoin="round" stroke-width=".8"/><path id="c" d="M34.188 63.188L20.797 26.906h26.812zm-5.579 9.718h11.188L67.578 0h-10.25l-6.64 18.703h-32.86L11.188 0H.78z" stroke-linejoin="round"/><path id="d" d="M18.11 8.203v-29H9.077v75.484h9.031v-8.296q2.844 4.875 7.157 7.234Q29.594 56 35.594 56q9.968 0 16.187-7.906 6.235-7.907 6.235-20.797T51.78 6.484q-6.218-7.906-16.187-7.906-6 0-10.328 2.375-4.313 2.375-7.157 7.25zm30.578 19.094q0 9.906-4.079 15.547-4.078 5.64-11.203 5.64-7.14 0-11.218-5.64-4.079-5.64-4.079-15.547 0-9.906 4.078-15.547 4.079-5.64 11.22-5.64 7.124 0 11.202 5.64t4.078 15.547z" stroke-linejoin="round"/><path id="e" d="M41.11 46.297q-1.516.875-3.297 1.281Q36.03 48 33.89 48q-7.625 0-11.703-4.953-4.079-4.953-4.079-14.234V0H9.08v54.688h9.03v-8.5q2.844 4.984 7.375 7.39Q30.031 56 36.531 56q.922 0 2.047-.125 1.125-.11 2.484-.36z" stroke-linejoin="round"/><path id="f" d="M19.188 8.297h34.421V0H7.33v8.297q5.609 5.812 15.296 15.594 9.703 9.797 12.188 12.64 4.734 5.313 6.609 9 1.89 3.688 1.89 7.25 0 5.813-4.078 9.469-4.078 3.672-10.625 3.672-4.64 0-9.797-1.61-5.14-1.609-11-4.89v9.969Q13.767 71.78 18.938 73q5.188 1.219 9.485 1.219 11.328 0 18.062-5.672 6.735-5.656 6.735-15.125 0-4.5-1.688-8.531-1.672-4.016-6.125-9.485-1.218-1.422-7.765-8.187-6.532-6.766-18.453-18.922z" stroke-linejoin="round"/><path id="g" d="M31.781 66.406q-7.61 0-11.453-7.5Q16.5 51.422 16.5 36.375q0-14.984 3.828-22.484 3.844-7.5 11.453-7.5 7.672 0 11.5 7.5 3.844 7.5 3.844 22.484 0 15.047-3.844 22.531-3.828 7.5-11.5 7.5zm0 7.813q12.266 0 18.735-9.703 6.468-9.688 6.468-28.141 0-18.406-6.468-28.11-6.47-9.687-18.735-9.687-12.25 0-18.718 9.688-6.47 9.703-6.47 28.109 0 18.453 6.47 28.14Q19.53 74.22 31.78 74.22z" stroke-linejoin="round"/><path id="h" d="M0 0v2" stroke="#000" stroke-linejoin="round" stroke-width=".6"/><path id="i" d="M12.406 8.297h16.11v55.625l-17.532-3.516v8.985l17.438 3.515h9.86V8.296H54.39V0H12.406z" stroke-linejoin="round"/><path id="j" d="M33.016 40.375q-6.641 0-10.532-4.547-3.875-4.531-3.875-12.437 0-7.86 3.875-12.438 3.891-4.562 10.532-4.562 6.64 0 10.515 4.562 3.875 4.578 3.875 12.438 0 7.906-3.875 12.437-3.875 4.547-10.515 4.547zm19.578 30.922v-8.984q-3.719 1.75-7.5 2.671-3.782.938-7.5.938-9.766 0-14.922-6.594-5.14-6.594-5.875-19.922 2.875 4.25 7.219 6.516 4.359 2.266 9.578 2.266 10.984 0 17.36-6.672 6.374-6.657 6.374-18.125 0-11.235-6.64-18.032-6.641-6.78-17.672-6.78-12.657 0-19.344 9.687-6.688 9.703-6.688 28.109 0 17.281 8.204 27.563 8.203 10.28 22.015 10.28 3.719 0 7.5-.734t7.89-2.187z" stroke-linejoin="round"/><path id="k" d="M40.578 39.313Q47.656 37.797 51.625 33q3.984-4.781 3.984-11.813 0-10.78-7.422-16.703-7.421-5.906-21.093-5.906-4.578 0-9.438.906-4.86.907-10.031 2.72v9.515q4.094-2.39 8.969-3.61 4.89-1.218 10.218-1.218 9.266 0 14.125 3.656 4.86 3.656 4.86 10.64 0 6.454-4.516 10.079-4.515 3.64-12.562 3.64h-8.5v8.11h8.89q7.266 0 11.125 2.906 3.86 2.906 3.86 8.375 0 5.61-3.985 8.61-3.968 3.015-11.39 3.015-4.063 0-8.703-.89-4.641-.876-10.203-2.72v8.782q5.624 1.562 10.53 2.344 4.907.78 9.25.78 11.235 0 17.766-5.109 6.547-5.093 6.547-13.78 0-6.063-3.468-10.235-3.47-4.172-9.86-5.782z" stroke-linejoin="round"/><path id="l" d="M0 0h-3.5" stroke="#000" stroke-linejoin="round" stroke-width=".8"/><path id="m" d="M37.797 64.313L12.89 25.39h24.906zm-2.594 8.593H47.61V25.391h10.407v-8.203H47.609V0h-9.812v17.188H4.89v9.515z" stroke-linejoin="round"/><path id="n" d="M10.797 72.906h38.719v-8.312H19.828v-17.86q2.14.735 4.281 1.094 2.157.36 4.313.36 12.203 0 19.328-6.688 7.14-6.688 7.14-18.11 0-11.765-7.328-18.296-7.328-6.516-20.656-6.516-4.593 0-9.36.781-4.75.782-9.827 2.344v9.922q4.39-2.39 9.078-3.563 4.687-1.171 9.906-1.171 8.453 0 13.375 4.437 4.938 4.438 4.938 12.063 0 7.609-4.938 12.047-4.922 4.453-13.375 4.453-3.953 0-7.89-.875-3.922-.875-8.016-2.735z" stroke-linejoin="round"/><path id="o" d="M0 0h-2" stroke="#000" stroke-linejoin="round" stroke-width=".6"/><path id="p" d="M30.61 48.39q-7.22 0-11.422-5.64-4.204-5.64-4.204-15.453 0-9.813 4.172-15.453 4.188-5.64 11.453-5.64 7.188 0 11.375 5.655 4.203 5.672 4.203 15.438 0 9.719-4.203 15.406-4.187 5.688-11.375 5.688zm0 7.61q11.718 0 18.406-7.625 6.703-7.61 6.703-21.078 0-13.422-6.703-21.078-6.688-7.64-18.407-7.64-11.765 0-18.437 7.64-6.656 7.656-6.656 21.078 0 13.469 6.656 21.078Q18.844 56 30.609 56z" stroke-linejoin="round"/><path id="q" d="M9.422 75.984h8.984V0H9.422z" stroke-linejoin="round"/><path id="r" d="M45.406 46.39v29.594h8.985V0h-8.985v8.203Q42.578 3.328 38.25.953q-4.313-2.375-10.375-2.375-9.906 0-16.14 7.906-6.22 7.922-6.22 20.813 0 12.89 6.22 20.797Q17.968 56 27.874 56q6.063 0 10.375-2.375 4.328-2.36 7.156-7.234zm-30.61-19.093q0-9.906 4.079-15.547 4.078-5.64 11.203-5.64 7.125 0 11.219 5.64 4.11 5.64 4.11 15.547 0 9.906-4.11 15.547-4.094 5.64-11.219 5.64-7.125 0-11.203-5.64-4.078-5.64-4.078-15.547z" stroke-linejoin="round"/><path id="s" d="M4.203 54.688h8.985l11.234-42.672 11.172 42.672h10.593l11.235-42.672 11.187 42.672h8.985L63.28 0H52.688L40.922 44.828 29.109 0H18.5z" stroke-linejoin="round"/><path id="t" d="M9.422 54.688h8.984V0H9.422zm0 21.296h8.984v-11.39H9.422z" stroke-linejoin="round"/><path id="u" d="M56.203 29.594v-4.39H14.891q.593-9.282 5.593-14.142 5-4.859 13.938-4.859 5.172 0 10.031 1.266 4.86 1.265 9.656 3.812v-8.5Q49.266.734 44.187-.344 39.11-1.422 33.892-1.422q-13.094 0-20.735 7.61-7.64 7.625-7.64 20.625 0 13.421 7.25 21.296Q20.016 56 32.328 56q11.031 0 17.453-7.11 6.422-7.093 6.422-19.296zm-8.984 2.64q-.094 7.36-4.125 11.75-4.032 4.407-10.672 4.407-7.516 0-12.031-4.25-4.516-4.25-5.203-11.97z" stroke-linejoin="round"/><path id="v" d="M-3 0h6M0 3v-6" stroke="#1f77b4" stroke-linejoin="round"/><path id="T" d="M9.813 72.906h14.703l18.593-49.61 18.703 49.61h14.704V0H66.89v64.016l-18.797-50h-9.907l-18.796 50V0H9.813z" stroke-linejoin="round"/><path id="x" d="M-3 0h6M0 3v-6" stroke="#d62728" stroke-linejoin="round"/><path id="y" d="M0 1.5a1.5 1.5 0 100-3 1.5 1.5 0 000 3z" stroke="#9467bd" stroke-linejoin="round"/><path id="z" d="M48.781 52.594v-8.407q-3.812 2.11-7.64 3.157-3.828 1.047-7.735 1.047-8.75 0-13.593-5.547-4.829-5.532-4.829-15.547 0-10.016 4.829-15.563 4.843-5.53 13.593-5.53 3.907 0 7.735 1.046 3.828 1.047 7.64 3.156V2.094Q45.016.344 40.984-.531q-4.015-.89-8.562-.89-12.36 0-19.64 7.765-7.266 7.765-7.266 20.953 0 13.375 7.343 21.031Q20.22 56 33.016 56q4.14 0 8.093-.86 3.953-.843 7.672-2.546z" stroke-linejoin="round"/><path id="A" d="M18.313 70.219V54.688h18.5v-6.985h-18.5V18.016q0-6.688 1.828-8.594 1.828-1.906 7.453-1.906h9.218V0h-9.218q-10.407 0-14.36 3.875-3.953 3.89-3.953 14.14v29.688H2.687v6.984h6.594V70.22z" stroke-linejoin="round"/><path id="B" d="M64.406 67.281v-10.39q-4.984 4.64-10.625 6.922-5.64 2.296-11.984 2.296-12.5 0-19.14-7.64-6.641-7.64-6.641-22.094 0-14.406 6.64-22.047 6.64-7.64 19.14-7.64 6.345 0 11.985 2.296 5.64 2.297 10.625 6.938V5.609Q59.234 2.094 53.437.33q-5.78-1.75-12.218-1.75-16.563 0-26.094 10.124-9.516 10.14-9.516 27.672 0 17.578 9.516 27.703 9.531 10.14 26.094 10.14 6.531 0 12.312-1.734 5.797-1.734 10.875-5.203z" stroke-linejoin="round"/><path id="C" d="M9.813 72.906h9.859V0h-9.86z" stroke-linejoin="round"/><path id="D" d="M4.89 31.39h26.313v-8H4.891z" stroke-linejoin="round"/><path id="E" d="M10.984 1.516V10.5q3.72-1.766 7.516-2.688 3.813-.921 7.484-.921 9.766 0 14.907 6.562 5.156 6.563 5.89 19.953-2.828-4.203-7.187-6.453-4.344-2.25-9.61-2.25-10.937 0-17.312 6.61-6.375 6.625-6.375 18.109 0 11.219 6.64 18 6.641 6.797 17.672 6.797 12.657 0 19.313-9.703 6.672-9.688 6.672-28.141 0-17.234-8.188-27.516Q40.234-1.42 26.422-1.42q-3.719 0-7.531.734-3.797.734-7.907 2.203zM30.61 32.422q6.641 0 10.516 4.531 3.89 4.547 3.89 12.469 0 7.86-3.89 12.422-3.875 4.562-10.516 4.562-6.64 0-10.515-4.562-3.875-4.563-3.875-12.422 0-7.922 3.875-12.469 3.875-4.531 10.515-4.531z" stroke-linejoin="round"/><path id="F" d="M34.281 27.484q-10.89 0-15.093-2.484-4.204-2.484-4.204-8.5 0-4.781 3.157-7.594 3.156-2.797 8.562-2.797 7.485 0 12 5.297 4.516 5.297 4.516 14.078v2zm17.922 3.72V0H43.22v8.297Q40.14 3.328 35.547.953q-4.594-2.375-11.234-2.375-8.391 0-13.36 4.719Q6 8.016 6 15.922q0 9.219 6.172 13.906 6.187 4.688 18.437 4.688h12.61v.89q0 6.203-4.078 9.594-4.078 3.39-11.453 3.39-4.688 0-9.141-1.124-4.438-1.125-8.531-3.375v8.312q4.921 1.906 9.562 2.844 4.64.953 9.031.953 11.875 0 17.735-6.156 5.86-6.14 5.86-18.64z" stroke-linejoin="round"/><path id="G" d="M44.281 53.078v-8.5q-3.797 1.953-7.906 2.922-4.094.984-8.5.984-6.688 0-10.031-2.047-3.344-2.046-3.344-6.156 0-3.125 2.39-4.906 2.391-1.781 9.626-3.39l3.078-.688q9.562-2.047 13.593-5.781 4.032-3.735 4.032-10.422 0-7.625-6.032-12.078-6.03-4.438-16.578-4.438-4.39 0-9.156.86Q10.688.296 5.422 2v9.281q4.984-2.594 9.812-3.89 4.829-1.282 9.579-1.282 6.343 0 9.75 2.172 3.421 2.172 3.421 6.125 0 3.656-2.468 5.61-2.453 1.953-10.813 3.765l-3.125.735q-8.344 1.75-12.062 5.39-3.704 3.64-3.704 9.985 0 7.718 5.47 11.906Q16.75 56 26.811 56q4.97 0 9.36-.734 4.406-.72 8.11-2.188z" stroke-linejoin="round"/><path id="H" d="M37.11 75.984V68.5h-8.594q-4.828 0-6.72-1.953-1.874-1.953-1.874-7.031v-4.828h14.797v-6.985H19.922V0H10.89v47.703H2.297v6.984h8.594V58.5q0 9.125 4.25 13.297 4.25 4.187 13.468 4.187z" stroke-linejoin="round"/><path id="I" d="M8.688 72.906h9.921V28.61q0-11.718 4.235-16.875 4.25-5.14 13.781-5.14 9.469 0 13.719 5.14 4.25 5.157 4.25 16.875v44.297H64.5V27.391q0-14.25-7.063-21.532-7.046-7.28-20.812-7.28-13.828 0-20.89 7.28-7.047 7.282-7.047 21.532z" stroke-linejoin="round"/><path id="J" d="M53.516 70.516V60.89q-5.61 2.687-10.594 4-4.984 1.328-9.625 1.328-8.047 0-12.422-3.125t-4.375-8.89q0-4.845 2.906-7.313 2.907-2.453 11.016-3.97l5.953-1.218q11.031-2.11 16.281-7.406 5.25-5.297 5.25-14.172 0-10.61-7.11-16.078-7.093-5.469-20.812-5.469-5.172 0-11.015 1.172Q13.14.922 6.89 3.219v10.156q6-3.36 11.765-5.078 5.766-1.703 11.328-1.703 8.438 0 13.032 3.312 4.593 3.328 4.593 9.485 0 5.359-3.297 8.39-3.296 3.032-10.812 4.547L27.484 33.5q-11.03 2.188-15.968 6.875-4.922 4.688-4.922 13.047 0 9.672 6.812 15.234 6.813 5.563 18.766 5.563 5.14 0 10.453-.938 5.328-.922 10.89-2.765z" stroke-linejoin="round"/><path id="K" d="M31 75.875q-6.531-11.219-9.719-22.219-3.172-10.984-3.172-22.265 0-11.266 3.203-22.328Q24.517-2 31-13.188h-7.813Q15.875-1.704 12.235 9.375q-3.64 11.078-3.64 22.016 0 10.89 3.61 21.922 3.624 11.046 10.983 22.562z" stroke-linejoin="round"/><path id="L" d="M8.5 21.578v33.11h8.984V21.922q0-7.766 3.016-11.656 3.031-3.875 9.094-3.875 7.265 0 11.484 4.64 4.234 4.64 4.234 12.656v31h8.985V0h-8.984v8.406Q42.047 3.422 37.718 1q-4.313-2.422-10.032-2.422-9.421 0-14.312 5.86Q8.5 10.296 8.5 21.578z" stroke-linejoin="round"/><path id="M" d="M48.688 27.297q0 9.906-4.079 15.547-4.078 5.64-11.203 5.64-7.14 0-11.218-5.64-4.079-5.64-4.079-15.547 0-9.906 4.078-15.547 4.079-5.64 11.22-5.64 7.124 0 11.202 5.64t4.078 15.547zM18.108 46.39q2.844 4.875 7.157 7.234Q29.594 56 35.594 56q9.968 0 16.187-7.906 6.235-7.907 6.235-20.797T51.78 6.484q-6.218-7.906-16.187-7.906-6 0-10.328 2.375-4.313 2.375-7.157 7.25V0H9.08v75.984h9.03z" stroke-linejoin="round"/><path id="N" d="M54.89 33.016V0h-8.984v32.719q0 7.765-3.031 11.61-3.031 3.858-9.078 3.858-7.281 0-11.484-4.64-4.204-4.625-4.204-12.64V0H9.08v54.688h9.03v-8.5q3.235 4.937 7.594 7.374Q30.078 56 35.797 56q9.422 0 14.25-5.828 4.844-5.828 4.844-17.156z" stroke-linejoin="round"/><path id="O" d="M10.688 12.406H21V0H10.687z" stroke-linejoin="round"/><path id="P" d="M32.172-5.078q-3.797-9.766-7.422-12.735-3.61-2.984-9.656-2.984H7.906v7.516h5.282q3.703 0 5.75 1.765Q21-9.766 23.483-3.219l1.61 4.094-22.11 53.813H12.5l17.094-42.766 17.093 42.766h9.516z" stroke-linejoin="round"/><path id="Q" d="M8.016 75.875h7.812q7.313-11.516 10.953-22.563 3.64-11.03 3.64-21.921 0-10.938-3.64-22.016-3.64-11.078-10.953-22.563H8.016Q14.5-2 17.703 9.063q3.203 11.063 3.203 22.329 0 11.28-3.203 22.265-3.203 11-9.687 22.219z" stroke-linejoin="round"/><path id="S" d="M9.813 72.906h13.28l32.329-60.984v60.984h9.562V0h-13.28L19.39 60.984V0H9.813z" stroke-linejoin="round"/><clipPath id="R" stroke-linejoin="round"><path d="M50.15 297.12H558v208.808H50.15z"/></clipPath><clipPath id="a" stroke-linejoin="round"><path d="M50.15 25.44H558v208.808H50.15z"/></clipPath></defs><path d="M0 568.8h568.8V0H0z" fill="#fff"/><path d="M50.15 234.248H558V25.44H50.15z" fill="#fff"/><g stroke-width=".8"><path clip-path="url(#a)" d="M50.15 234.248V25.44" fill="none" stroke="#b0b0b0" stroke-linecap="square"/><use stroke="#000" x="50.15" xlink:href="#b" y="234.248"/></g><path clip-path="url(#a)" d="M388.717 234.248V25.44" fill="none" stroke="#b0b0b0" stroke-linecap="square" stroke-width=".8"/><use stroke="#000" stroke-width=".8" x="388.717" xlink:href="#b" y="234.248"/><g transform="matrix(.1 0 0 -.1 380.067 271.242)"><use xlink:href="#c"/><use x="68.408" xlink:href="#d"/><use x="131.885" xlink:href="#e"/></g><g transform="matrix(.1 0 0 -.1 375.992 282.44)"><use xlink:href="#f"/><use x="63.623" xlink:href="#g"/><use x="127.246" xlink:href="#f"/><use x="190.869" xlink:href="#g"/></g><g stroke-width=".8"><path clip-path="url(#a)" d="M558 234.248V25.44" fill="none" stroke="#b0b0b0" stroke-linecap="square"/><use stroke="#000" x="558" xlink:href="#b" y="234.248"/></g><use stroke="#000" stroke-width=".6" x="65.54" xlink:href="#h" y="234.248"/><use stroke="#000" stroke-width=".6" x="80.929" xlink:href="#h" y="234.248"/><use stroke="#000" stroke-width=".6" x="96.318" xlink:href="#h" y="234.248"/><use stroke="#000" stroke-width=".6" x="111.708" xlink:href="#h" y="234.248"/><use stroke="#000" stroke-width=".6" x="127.097" xlink:href="#h" y="234.248"/><use stroke="#000" stroke-width=".6" x="142.487" xlink:href="#h" y="234.248"/><g transform="matrix(.1 0 0 -.1 136.124 247.246)"><use xlink:href="#i"/><use x="63.623" xlink:href="#j"/></g><g stroke="#000" stroke-width=".6"><use x="157.876" xlink:href="#h" y="234.248"/><use x="173.265" xlink:href="#h" y="234.248"/><use x="188.655" xlink:href="#h" y="234.248"/><use x="204.044" xlink:href="#h" y="234.248"/><use x="219.433" xlink:href="#h" y="234.248"/><use x="234.823" xlink:href="#h" y="234.248"/></g><use stroke="#000" stroke-width=".6" x="250.212" xlink:href="#h" y="234.248"/><g transform="matrix(.1 0 0 -.1 243.85 247.246)"><use xlink:href="#f"/><use x="63.623" xlink:href="#k"/></g><use stroke="#000" stroke-width=".6" x="265.602" xlink:href="#h" y="234.248"/><use stroke="#000" stroke-width=".6" x="280.991" xlink:href="#h" y="234.248"/><use stroke="#000" stroke-width=".6" x="296.38" xlink:href="#h" y="234.248"/><use stroke="#000" stroke-width=".6" x="311.77" xlink:href="#h" y="234.248"/><use stroke="#000" stroke-width=".6" x="327.159" xlink:href="#h" y="234.248"/><use stroke="#000" stroke-width=".6" x="342.549" xlink:href="#h" y="234.248"/><use stroke="#000" stroke-width=".6" x="357.938" xlink:href="#h" y="234.248"/><g transform="matrix(.1 0 0 -.1 351.575 247.246)"><use xlink:href="#k"/><use x="63.623" xlink:href="#g"/></g><use stroke="#000" stroke-width=".6" x="373.327" xlink:href="#h" y="234.248"/><use stroke="#000" stroke-width=".6" x="404.106" xlink:href="#h" y="234.248"/><use stroke="#000" stroke-width=".6" x="419.496" xlink:href="#h" y="234.248"/><use stroke="#000" stroke-width=".6" x="434.885" xlink:href="#h" y="234.248"/><use stroke="#000" stroke-width=".6" x="450.274" xlink:href="#h" y="234.248"/><g><use stroke="#000" stroke-width=".6" x="465.664" xlink:href="#h" y="234.248"/><g transform="matrix(.1 0 0 -.1 459.301 247.246)"><use xlink:href="#g"/><use x="63.623" xlink:href="#j"/></g></g><use stroke="#000" stroke-width=".6" x="481.053" xlink:href="#h" y="234.248"/><use stroke="#000" stroke-width=".6" x="496.442" xlink:href="#h" y="234.248"/><use stroke="#000" stroke-width=".6" x="511.832" xlink:href="#h" y="234.248"/><use stroke="#000" stroke-width=".6" x="527.221" xlink:href="#h" y="234.248"/><use stroke="#000" stroke-width=".6" x="542.611" xlink:href="#h" y="234.248"/><g><path clip-path="url(#a)" d="M50.15 234.248H558" fill="none" stroke="#b0b0b0" stroke-linecap="square" stroke-width=".8"/><use stroke="#000" stroke-width=".8" x="50.15" xlink:href="#l" y="234.248"/><g transform="matrix(.1 0 0 -.1 25.55 238.047)"><use transform="translate(0 .684)" xlink:href="#i"/><use transform="translate(63.623 .684)" xlink:href="#g"/><use transform="matrix(.7 0 0 .7 128.203 38.966)" xlink:href="#i"/></g><path clip-path="url(#a)" d="M50.15 192.525H558" fill="none" stroke="#b0b0b0" stroke-linecap="square" stroke-width=".8"/><use stroke="#000" stroke-width=".8" x="50.15" xlink:href="#l" y="192.525"/><g transform="matrix(.1 0 0 -.1 25.55 196.325)"><use transform="translate(0 .766)" xlink:href="#i"/><use transform="translate(63.623 .766)" xlink:href="#g"/><use transform="matrix(.7 0 0 .7 128.203 39.047)" xlink:href="#f"/></g><path clip-path="url(#a)" d="M50.15 150.803H558" fill="none" stroke="#b0b0b0" stroke-linecap="square" stroke-width=".8"/><use stroke="#000" stroke-width=".8" x="50.15" xlink:href="#l" y="150.803"/><g transform="matrix(.1 0 0 -.1 25.55 154.602)"><use transform="translate(0 .766)" xlink:href="#i"/><use transform="translate(63.623 .766)" xlink:href="#g"/><use transform="matrix(.7 0 0 .7 128.203 39.047)" xlink:href="#k"/></g><g><path clip-path="url(#a)" d="M50.15 109.08H558" fill="none" stroke="#b0b0b0" stroke-linecap="square" stroke-width=".8"/><use stroke="#000" stroke-width=".8" x="50.15" xlink:href="#l" y="109.08"/><g transform="matrix(.1 0 0 -.1 25.55 112.88)"><use transform="translate(0 .684)" xlink:href="#i"/><use transform="translate(63.623 .684)" xlink:href="#g"/><use transform="matrix(.7 0 0 .7 128.203 38.966)" xlink:href="#m"/></g></g><g><path clip-path="url(#a)" d="M50.15 67.357H558" fill="none" stroke="#b0b0b0" stroke-linecap="square" stroke-width=".8"/><use stroke="#000" stroke-width=".8" x="50.15" xlink:href="#l" y="67.357"/><g transform="matrix(.1 0 0 -.1 25.55 71.157)"><use transform="translate(0 .684)" xlink:href="#i"/><use transform="translate(63.623 .684)" xlink:href="#g"/><use transform="matrix(.7 0 0 .7 128.203 38.966)" xlink:href="#n"/></g></g><g><path clip-path="url(#a)" d="M50.15 25.635H558" fill="none" stroke="#b0b0b0" stroke-linecap="square" stroke-width=".8"/><use stroke="#000" stroke-width=".8" x="50.15" xlink:href="#l" y="25.635"/><g transform="matrix(.1 0 0 -.1 25.55 29.434)"><use transform="translate(0 .766)" xlink:href="#i"/><use transform="translate(63.623 .766)" xlink:href="#g"/><use transform="matrix(.7 0 0 .7 128.203 39.047)" xlink:href="#j"/></g></g><g stroke="#000" stroke-width=".6"><use x="50.15" xlink:href="#o" y="221.688"/><use x="50.15" xlink:href="#o" y="214.341"/><use x="50.15" xlink:href="#o" y="209.128"/><use x="50.15" xlink:href="#o" y="205.085"/><use x="50.15" xlink:href="#o" y="201.781"/><use x="50.15" xlink:href="#o" y="198.988"/><use x="50.15" xlink:href="#o" y="196.569"/><use x="50.15" xlink:href="#o" y="194.434"/><use x="50.15" xlink:href="#o" y="179.966"/><use x="50.15" xlink:href="#o" y="172.619"/><use x="50.15" xlink:href="#o" y="167.406"/><use x="50.15" xlink:href="#o" y="163.362"/><use x="50.15" xlink:href="#o" y="160.059"/><use x="50.15" xlink:href="#o" y="157.266"/><use x="50.15" xlink:href="#o" y="154.846"/><use x="50.15" xlink:href="#o" y="152.712"/><use x="50.15" xlink:href="#o" y="138.243"/><use x="50.15" xlink:href="#o" y="130.896"/><use x="50.15" xlink:href="#o" y="125.683"/><use x="50.15" xlink:href="#o" y="121.64"/><use x="50.15" xlink:href="#o" y="118.336"/><use x="50.15" xlink:href="#o" y="115.543"/><use x="50.15" xlink:href="#o" y="113.123"/><use x="50.15" xlink:href="#o" y="110.989"/><use x="50.15" xlink:href="#o" y="96.52"/><use x="50.15" xlink:href="#o" y="89.173"/><use x="50.15" xlink:href="#o" y="83.961"/><use x="50.15" xlink:href="#o" y="79.917"/><use x="50.15" xlink:href="#o" y="76.614"/><use x="50.15" xlink:href="#o" y="73.82"/><use x="50.15" xlink:href="#o" y="71.401"/><use x="50.15" xlink:href="#o" y="69.267"/><use x="50.15" xlink:href="#o" y="54.798"/><use x="50.15" xlink:href="#o" y="47.451"/><use x="50.15" xlink:href="#o" y="42.238"/><use x="50.15" xlink:href="#o" y="38.195"/><use x="50.15" xlink:href="#o" y="34.891"/><use x="50.15" xlink:href="#o" y="32.098"/><use x="50.15" xlink:href="#o" y="29.678"/><use x="50.15" xlink:href="#o" y="27.544"/></g><g transform="matrix(0 -.1 -.1 0 19.47 156.19)"><path d="M3.328 72.906h9.953L28.61 11.281l15.282 61.625h11.093l15.328-61.625 15.282 61.625h10.015L77.297 0H64.89L49.516 63.281 33.984 0H21.578z"/><use x="98.799" xlink:href="#p"/><use x="159.98" xlink:href="#e"/><use x="201.094" xlink:href="#q"/><use x="228.877" xlink:href="#r"/><use x="292.354" xlink:href="#s"/><use x="374.141" xlink:href="#t"/><use x="401.924" xlink:href="#r"/><use x="465.4" xlink:href="#u"/></g></g><g stroke="#1f77b4"><path clip-path="url(#a)" d="M-1 170.271l4.982-2.5 15.39-4.696 15.389-2.245 15.39-8.575 15.389-5.306 15.389-4.787 15.39-4.975 15.389-4.111 15.39-4.575 15.389-5.072 15.389-5.965 15.39-3.32 15.389-10.33 15.39-6.086 15.388-5.277 15.39-5.234 15.39-4.615 15.389-3.633 15.389-3.659 15.39-4.345 15.389-3.463 15.39-3.2 15.389-2.486 15.389-2.19 15.39-2.643 15.389-2.198 15.39-2.415 15.389-2.242 15.389-1.798 15.39-1.474 15.389-1.475 15.39-1.321 15.388-1.4 15.39-1.287" fill="none" stroke-linecap="square" stroke-width="1.5"/><g clip-path="url(#a)" fill="#1f77b4"><use x="-1" xlink:href="#v" y="170.271"/><use x="3.982" xlink:href="#v" y="167.772"/><use x="19.371" xlink:href="#v" y="163.075"/><use x="34.761" xlink:href="#v" y="160.83"/><use x="50.15" xlink:href="#v" y="152.255"/><use x="65.54" xlink:href="#v" y="146.949"/><use x="80.929" xlink:href="#v" y="142.162"/><use x="96.318" xlink:href="#v" y="137.187"/><use x="111.708" xlink:href="#v" y="133.076"/><use x="127.097" xlink:href="#v" y="128.501"/><use x="142.487" xlink:href="#v" y="123.429"/><use x="157.876" xlink:href="#v" y="117.464"/><use x="173.265" xlink:href="#v" y="114.144"/><use x="188.655" xlink:href="#v" y="103.815"/><use x="204.044" xlink:href="#v" y="97.728"/><use x="219.433" xlink:href="#v" y="92.451"/><use x="234.823" xlink:href="#v" y="87.217"/><use x="250.212" xlink:href="#v" y="82.602"/><use x="265.602" xlink:href="#v" y="78.969"/><use x="280.991" xlink:href="#v" y="75.31"/><use x="296.38" xlink:href="#v" y="70.965"/><use x="311.77" xlink:href="#v" y="67.502"/><use x="327.159" xlink:href="#v" y="64.302"/><use x="342.549" xlink:href="#v" y="61.816"/><use x="357.938" xlink:href="#v" y="59.627"/><use x="373.327" xlink:href="#v" y="56.983"/><use x="388.717" xlink:href="#v" y="54.785"/><use x="404.106" xlink:href="#v" y="52.37"/><use x="419.496" xlink:href="#v" y="50.128"/><use x="434.885" xlink:href="#v" y="48.33"/><use x="450.274" xlink:href="#v" y="46.856"/><use x="465.664" xlink:href="#v" y="45.381"/><use x="481.053" xlink:href="#v" y="44.06"/><use x="496.442" xlink:href="#v" y="42.66"/><use x="511.832" xlink:href="#v" y="41.373"/></g></g><g stroke="#ff7f0e"><path clip-path="url(#a)" d="M-1 122.925l4.982-1.505 15.39-4.216 15.389-4.047 15.39-1.748 15.389-3.368h15.389l15.39-6.253 15.389-3.105 15.39-2.7 15.389-2.053 15.389-2.207 15.39-1.753 15.389-2.628 15.39-2.712 15.388-1.845 15.39-1.607 15.39-1.412 15.389-1.253 15.389-1.135 15.39-1.362 15.389-1.243 15.39-.97 15.389-.96 15.389-.4 15.39-.498 15.389-.673 15.39-.549 15.389-.503 15.389-.603 15.39-.6 15.389-.381 15.39-.17 15.388-.229 15.39-.305" fill="none" stroke-linecap="square" stroke-width="1.5"/><g clip-path="url(#a)" fill="#ff7f0e"><use x="-1" xlink:href="#w" y="122.925"/><use x="3.982" xlink:href="#w" y="121.42"/><use x="19.371" xlink:href="#w" y="117.204"/><use x="34.761" xlink:href="#w" y="113.157"/><use x="50.15" xlink:href="#w" y="111.409"/><use x="65.54" xlink:href="#w" y="108.041"/><use x="80.929" xlink:href="#w" y="108.041"/><use x="96.318" xlink:href="#w" y="101.788"/><use x="111.708" xlink:href="#w" y="98.683"/><use x="127.097" xlink:href="#w" y="95.982"/><use x="142.487" xlink:href="#w" y="93.93"/><use x="157.876" xlink:href="#w" y="91.723"/><use x="173.265" xlink:href="#w" y="89.97"/><use x="188.655" xlink:href="#w" y="87.342"/><use x="204.044" xlink:href="#w" y="84.63"/><use x="219.433" xlink:href="#w" y="82.785"/><use x="234.823" xlink:href="#w" y="81.178"/><use x="250.212" xlink:href="#w" y="79.766"/><use x="265.602" xlink:href="#w" y="78.513"/><use x="280.991" xlink:href="#w" y="77.378"/><use x="296.38" xlink:href="#w" y="76.016"/><use x="311.77" xlink:href="#w" y="74.773"/><use x="327.159" xlink:href="#w" y="73.804"/><use x="342.549" xlink:href="#w" y="72.843"/><use x="357.938" xlink:href="#w" y="72.443"/><use x="373.327" xlink:href="#w" y="71.945"/><use x="388.717" xlink:href="#w" y="71.272"/><use x="404.106" xlink:href="#w" y="70.723"/><use x="419.496" xlink:href="#w" y="70.22"/><use x="434.885" xlink:href="#w" y="69.617"/><use x="450.274" xlink:href="#w" y="69.017"/><use x="465.664" xlink:href="#w" y="68.636"/><use x="481.053" xlink:href="#w" y="68.466"/><use x="496.442" xlink:href="#w" y="68.237"/><use x="511.832" xlink:href="#w" y="67.932"/></g></g><path clip-path="url(#a)" d="M-1 165.797l4.982-.924 15.39-5.583 15.389-8.721 15.39-8.597 15.389-4.088 15.389.009 15.39-15.91 15.389-2.65 15.39-3.77 15.389-4.714 15.389-2.105 15.39-3.276 15.389-4.934 15.39-1.88 15.388-3.757 15.39-2.217 15.39-3.184 15.389-2.204 15.389-3.557 15.39-2.466 15.389-1.79 15.39-1.278 15.389-1.159 15.389-1.444 15.39-1.306 15.389-1.003 15.39-.713 15.389-.597 15.389-.579 15.39-.208 15.389-.436 15.39-.387 15.388-.153 15.39-.043" fill="none" stroke="#2ca02c" stroke-linecap="square" stroke-width="1.5"/><g stroke="#d62728"><path clip-path="url(#a)" d="M-1 154.437l4.982-2.241 15.39-3.038 15.389-1.324 15.39-7.057 15.389-4.458h15.389l15.39-8.605 15.389-3.663 15.39-.136 15.389-7.001 15.389-2.677 15.39-3.03 15.389-3.236 15.39-2.45 15.388-2.19 15.39.531 15.39-4.454 15.389-1.21 15.389-2.001 15.39-2.129 15.389-2.09 15.39-2.843 15.389-.48 15.389-1.843 15.39-2.752 15.389-1.263 15.39.287 15.389-1.074 15.389-7.585 15.39-.43 15.389-.838 15.39-1.801 15.388-.318 15.39-.335" fill="none" stroke-linecap="square" stroke-width="1.5"/><g clip-path="url(#a)" fill="#d62728"><use x="-1" xlink:href="#x" y="154.437"/><use x="3.982" xlink:href="#x" y="152.196"/><use x="19.371" xlink:href="#x" y="149.158"/><use x="34.761" xlink:href="#x" y="147.834"/><use x="50.15" xlink:href="#x" y="140.777"/><use x="65.54" xlink:href="#x" y="136.319"/><use x="80.929" xlink:href="#x" y="136.319"/><use x="96.318" xlink:href="#x" y="127.714"/><use x="111.708" xlink:href="#x" y="124.051"/><use x="127.097" xlink:href="#x" y="123.915"/><use x="142.487" xlink:href="#x" y="116.914"/><use x="157.876" xlink:href="#x" y="114.237"/><use x="173.265" xlink:href="#x" y="111.208"/><use x="188.655" xlink:href="#x" y="107.971"/><use x="204.044" xlink:href="#x" y="105.522"/><use x="219.433" xlink:href="#x" y="103.331"/><use x="234.823" xlink:href="#x" y="103.862"/><use x="250.212" xlink:href="#x" y="99.408"/><use x="265.602" xlink:href="#x" y="98.197"/><use x="280.991" xlink:href="#x" y="96.197"/><use x="296.38" xlink:href="#x" y="94.068"/><use x="311.77" xlink:href="#x" y="91.978"/><use x="327.159" xlink:href="#x" y="89.135"/><use x="342.549" xlink:href="#x" y="88.655"/><use x="357.938" xlink:href="#x" y="86.812"/><use x="373.327" xlink:href="#x" y="84.06"/><use x="388.717" xlink:href="#x" y="82.797"/><use x="404.106" xlink:href="#x" y="83.084"/><use x="419.496" xlink:href="#x" y="82.01"/><use x="434.885" xlink:href="#x" y="74.425"/><use x="450.274" xlink:href="#x" y="73.994"/><use x="465.664" xlink:href="#x" y="73.157"/><use x="481.053" xlink:href="#x" y="71.356"/><use x="496.442" xlink:href="#x" y="71.038"/><use x="511.832" xlink:href="#x" y="70.703"/></g></g><g stroke="#9467bd"><path clip-path="url(#a)" d="M-1 156.332l4.982-1.05 15.39-4.874 15.389-2.232 15.39-3.943 15.389-4.869 15.389-1.568 15.39-10.314 15.389-4.053 15.39-4.284 15.389-4.082 15.389-4.405 15.39-5.172 15.389-3.949 15.39-4.652 15.388-2.006 15.39-2.046 15.39-2.718 15.389-.69 15.389-2.289 15.39-2.245 15.389-2.604 15.39-1.923 15.389-1.28 15.389-.134 15.39-.738 15.389-1.063 15.39-.908 15.389-1.164 15.389-.797 15.39-.418 15.389-.768 15.39.839 15.388 1.329 15.39.42" fill="none" stroke-linecap="square" stroke-width="1.5"/><g clip-path="url(#a)" fill="#9467bd"><use x="-1" xlink:href="#y" y="156.332"/><use x="3.982" xlink:href="#y" y="155.282"/><use x="19.371" xlink:href="#y" y="150.408"/><use x="34.761" xlink:href="#y" y="148.176"/><use x="50.15" xlink:href="#y" y="144.233"/><use x="65.54" xlink:href="#y" y="139.364"/><use x="80.929" xlink:href="#y" y="137.796"/><use x="96.318" xlink:href="#y" y="127.482"/><use x="111.708" xlink:href="#y" y="123.429"/><use x="127.097" xlink:href="#y" y="119.145"/><use x="142.487" xlink:href="#y" y="115.063"/><use x="157.876" xlink:href="#y" y="110.658"/><use x="173.265" xlink:href="#y" y="105.486"/><use x="188.655" xlink:href="#y" y="101.537"/><use x="204.044" xlink:href="#y" y="96.885"/><use x="219.433" xlink:href="#y" y="94.879"/><use x="234.823" xlink:href="#y" y="92.833"/><use x="250.212" xlink:href="#y" y="90.115"/><use x="265.602" xlink:href="#y" y="89.425"/><use x="280.991" xlink:href="#y" y="87.136"/><use x="296.38" xlink:href="#y" y="84.891"/><use x="311.77" xlink:href="#y" y="82.287"/><use x="327.159" xlink:href="#y" y="80.364"/><use x="342.549" xlink:href="#y" y="79.085"/><use x="357.938" xlink:href="#y" y="78.95"/><use x="373.327" xlink:href="#y" y="78.212"/><use x="388.717" xlink:href="#y" y="77.149"/><use x="404.106" xlink:href="#y" y="76.241"/><use x="419.496" xlink:href="#y" y="75.077"/><use x="434.885" xlink:href="#y" y="74.28"/><use x="450.274" xlink:href="#y" y="73.862"/><use x="465.664" xlink:href="#y" y="73.094"/><use x="481.053" xlink:href="#y" y="73.933"/><use x="496.442" xlink:href="#y" y="75.262"/><use x="511.832" xlink:href="#y" y="75.682"/></g></g><path clip-path="url(#a)" d="M511.832 41.373l15.39-1.334 15.389-1.335L558 37.37" fill="none" stroke="#1f77b4" stroke-dasharray="1.5 2.475" stroke-width="1.5"/><path clip-path="url(#a)" d="M511.832 67.932l15.39-.248 15.389-.25L558 67.187" fill="none" stroke="#ff7f0e" stroke-dasharray="1.5 2.475" stroke-width="1.5"/><path clip-path="url(#a)" d="M511.832 70.173l15.39-.156 15.389-.157L558 69.704" fill="none" stroke="#2ca02c" stroke-dasharray="1.5 2.475" stroke-width="1.5"/><path clip-path="url(#a)" d="M511.832 70.703l15.39-.643 15.389-.643L558 68.774" fill="none" stroke="#d62728" stroke-dasharray="1.5 2.475" stroke-width="1.5"/><path clip-path="url(#a)" d="M511.832 75.682l15.39.834 15.389.834 15.389.834" fill="none" stroke="#9467bd" stroke-dasharray="1.5 2.475" stroke-width="1.5"/><path d="M50.15 234.248V25.44M558 234.248V25.44M50.15 234.248H558M50.15 25.44H558" fill="none" stroke="#000" stroke-linecap="square" stroke-linejoin="miter" stroke-width=".8"/><g transform="matrix(.12 0 0 -.12 182.296 19.44)"><use xlink:href="#c"/><use x="68.393" xlink:href="#z"/><use x="123.373" xlink:href="#A"/><use x="162.582" xlink:href="#t"/><path d="M193.35 54.688h9.515L219.96 8.797l17.094 45.89h9.515L226.053 0H213.85z"/><use x="249.545" xlink:href="#u"/><use x="342.855" xlink:href="#B"/><path d="M452.086 66.219q-10.75 0-17.078-8.016-6.313-8-6.313-21.828 0-13.766 6.313-21.781 6.328-8 17.078-8 10.734 0 17.016 8 6.28 8.015 6.28 21.781 0 13.828-6.28 21.828-6.282 8.016-17.016 8.016zm0 8q15.328 0 24.5-10.281 9.187-10.282 9.187-27.563 0-17.234-9.187-27.516-9.172-10.28-24.5-10.28-15.375 0-24.594 10.25-9.203 10.265-9.203 27.546t9.203 27.563q9.219 10.28 24.594 10.28zM519.984 0l-27.828 72.906h10.297l23.11-61.375 23.14 61.375h10.25L531.172 0z"/><use x="559.783" xlink:href="#C"/><path d="M608.947 64.797V8.109h11.922q15.094 0 22.094 6.829 7 6.843 7 21.593 0 14.64-7 21.453-7 6.813-22.094 6.813zm-9.86 8.11h20.267q21.187 0 31.093-8.813 9.922-8.813 9.922-27.563 0-18.86-9.969-27.703Q640.447 0 619.354 0h-20.266z"/><use x="666.277" xlink:href="#D"/><use x="702.361" xlink:href="#i"/><use x="765.984" xlink:href="#E"/><use x="861.395" xlink:href="#z"/><use x="916.375" xlink:href="#F"/><use x="977.654" xlink:href="#G"/><use x="1029.754" xlink:href="#u"/><use x="1091.277" xlink:href="#G"/><use x="1175.164" xlink:href="#F"/><use x="1236.443" xlink:href="#G"/><use x="1320.33" xlink:href="#p"/><use x="1381.512" xlink:href="#H"/><use x="1448.504" xlink:href="#f"/><use x="1512.127" xlink:href="#g"/><use x="1575.75" xlink:href="#f"/><use x="1639.373" xlink:href="#g"/><use x="1702.996" xlink:href="#D"/><use x="1739.08" xlink:href="#g"/><use x="1802.703" xlink:href="#m"/><use x="1866.326" xlink:href="#D"/><use x="1902.41" xlink:href="#g"/><use x="1966.033" xlink:href="#E"/></g><g><path d="M57.15 229.248h180.764q2 0 2-2v-72.39q0-2-2-2H57.15q-2 0-2 2v72.39q0 2 2 2z" fill="#fff" opacity=".8" stroke="#ccc" stroke-linejoin="miter"/><path d="M59.15 160.956h20" fill="none" stroke="#1f77b4" stroke-linecap="square" stroke-width="1.5"/><use fill="#1f77b4" stroke="#1f77b4" x="69.15" xlink:href="#v" y="160.956"/><g transform="matrix(.1 0 0 -.1 87.15 164.456)"><use xlink:href="#I"/><use x="73.193" xlink:href="#J"/><use x="168.457" xlink:href="#K"/><use x="207.471" xlink:href="#r"/><use x="270.947" xlink:href="#p"/><use x="332.129" xlink:href="#L"/><use x="395.508" xlink:href="#M"/><use x="458.984" xlink:href="#q"/><use x="486.768" xlink:href="#u"/><use x="548.291" xlink:href="#G"/><use x="632.178" xlink:href="#t"/><use x="659.961" xlink:href="#N"/><use x="755.127" xlink:href="#E"/><use x="818.75" xlink:href="#O"/><use x="850.537" xlink:href="#m"/><use x="945.947" xlink:href="#r"/><use x="1009.424" xlink:href="#F"/><use x="1070.703" xlink:href="#P"/><use x="1129.883" xlink:href="#G"/><use x="1181.982" xlink:href="#Q"/></g><path d="M59.15 175.634h20" fill="none" stroke="#ff7f0e" stroke-linecap="square" stroke-width="1.5"/><use fill="#ff7f0e" stroke="#ff7f0e" x="69.15" xlink:href="#w" y="175.634"/><g transform="matrix(.1 0 0 -.1 87.15 179.134)"><use xlink:href="#C"/><use x="29.492" xlink:href="#A"/><use x="68.701" xlink:href="#F"/><use x="129.98" xlink:href="#q"/><use x="157.764" xlink:href="#P"/><use x="248.73" xlink:href="#K"/><use x="287.744" xlink:href="#r"/><use x="351.221" xlink:href="#p"/><use x="412.402" xlink:href="#L"/><use x="475.781" xlink:href="#M"/><use x="539.258" xlink:href="#q"/><use x="567.041" xlink:href="#u"/><use x="628.564" xlink:href="#G"/><use x="712.451" xlink:href="#t"/><use x="740.234" xlink:href="#N"/><use x="835.4" xlink:href="#n"/><use x="899.023" xlink:href="#g"/><use x="962.646" xlink:href="#O"/><use x="994.434" xlink:href="#n"/><use x="1089.844" xlink:href="#r"/><use x="1153.32" xlink:href="#F"/><use x="1214.6" xlink:href="#P"/><use x="1273.779" xlink:href="#G"/><use x="1325.879" xlink:href="#Q"/></g><path d="M59.15 190.312h20" fill="none" stroke="#2ca02c" stroke-linecap="square" stroke-width="1.5"/><g transform="matrix(.1 0 0 -.1 87.15 193.812)"><use xlink:href="#J"/><use x="63.477" xlink:href="#d"/><use x="126.953" xlink:href="#F"/><use x="188.232" xlink:href="#t"/><use x="216.016" xlink:href="#N"/></g><path d="M59.15 204.99h20" fill="none" stroke="#d62728" stroke-linecap="square" stroke-width="1.5"/><use fill="#d62728" stroke="#d62728" x="69.15" xlink:href="#x" y="204.99"/><g transform="matrix(.1 0 0 -.1 87.15 208.49)"><path d="M9.813 72.906h41.89v-8.312H19.672V43.109h28.906v-8.297H19.672V0h-9.86z"/><use x="57.41" xlink:href="#e"/><use x="98.523" xlink:href="#F"/><use x="159.803" xlink:href="#N"/><use x="223.182" xlink:href="#z"/><use x="278.162" xlink:href="#u"/><use x="371.473" xlink:href="#K"/><use x="410.486" xlink:href="#r"/><use x="473.963" xlink:href="#p"/><use x="535.145" xlink:href="#L"/><use x="598.523" xlink:href="#M"/><use x="662" xlink:href="#q"/><use x="689.783" xlink:href="#u"/><use x="751.307" xlink:href="#G"/><use x="835.193" xlink:href="#t"/><use x="862.977" xlink:href="#N"/><use x="958.143" xlink:href="#i"/><use x="1021.766" xlink:href="#E"/><use x="1085.389" xlink:href="#O"/><use x="1117.176" xlink:href="#n"/><use x="1212.586" xlink:href="#r"/><use x="1276.063" xlink:href="#F"/><use x="1337.342" xlink:href="#P"/><use x="1396.521" xlink:href="#G"/><use x="1448.621" xlink:href="#Q"/></g><path d="M59.15 219.668h20" fill="none" stroke="#9467bd" stroke-linecap="square" stroke-width="1.5"/><use fill="#9467bd" stroke="#9467bd" x="69.15" xlink:href="#y" y="219.668"/><g transform="matrix(.1 0 0 -.1 87.15 223.168)"><path d="M59.516 10.406v19.578h-16.11v8.11h25.875V6.78Q63.578 2.734 56.687.656 49.813-1.422 42-1.422q-17.094 0-26.75 9.985-9.64 10-9.64 27.812 0 17.875 9.64 27.86 9.656 9.984 26.75 9.984 7.125 0 13.547-1.766 6.422-1.75 11.844-5.172v-10.5q-5.47 4.64-11.625 6.985-6.157 2.343-12.938 2.343-13.39 0-20.11-7.468-6.702-7.47-6.702-22.266 0-14.75 6.703-22.219 6.718-7.469 20.11-7.469 5.218 0 9.312.907 4.109.906 7.375 2.812z"/><use x="77.49" xlink:href="#u"/><use x="139.014" xlink:href="#e"/><path d="M232.111 44.188q3.375 6.062 8.063 8.937Q244.86 56 251.205 56q8.547 0 13.188-5.984 4.64-5.97 4.64-17V0h-9.031v32.719q0 7.86-2.797 11.656-2.781 3.813-8.484 3.813-6.985 0-11.047-4.641-4.047-4.625-4.047-12.64V0h-9.031v32.719q0 7.906-2.782 11.687-2.78 3.782-8.593 3.782-6.89 0-10.953-4.657-4.047-4.656-4.047-12.625V0h-9.032v54.688h9.032v-8.5q3.078 5.03 7.375 7.421Q209.893 56 215.799 56q5.969 0 10.14-3.031 4.172-3.016 6.172-8.782z"/><use x="277.523" xlink:href="#F"/><use x="338.803" xlink:href="#N"/><use x="402.182" xlink:href="#P"/></g></g><g><path d="M50.15 505.928H558V297.12H50.15z" fill="#fff"/><g stroke-width=".8"><path clip-path="url(#R)" d="M50.15 505.928V297.12" fill="none" stroke="#b0b0b0" stroke-linecap="square"/><use stroke="#000" x="50.15" xlink:href="#b" y="505.928"/></g><path clip-path="url(#R)" d="M388.717 505.928V297.12" fill="none" stroke="#b0b0b0" stroke-linecap="square" stroke-width=".8"/><use stroke="#000" stroke-width=".8" x="388.717" xlink:href="#b" y="505.928"/><g transform="matrix(.1 0 0 -.1 380.067 542.922)"><use xlink:href="#c"/><use x="68.408" xlink:href="#d"/><use x="131.885" xlink:href="#e"/></g><g transform="matrix(.1 0 0 -.1 375.992 554.12)"><use xlink:href="#f"/><use x="63.623" xlink:href="#g"/><use x="127.246" xlink:href="#f"/><use x="190.869" xlink:href="#g"/></g><g stroke-width=".8"><path clip-path="url(#R)" d="M558 505.928V297.12" fill="none" stroke="#b0b0b0" stroke-linecap="square"/><use stroke="#000" x="558" xlink:href="#b" y="505.928"/></g><use stroke="#000" stroke-width=".6" x="65.54" xlink:href="#h" y="505.928"/><use stroke="#000" stroke-width=".6" x="80.929" xlink:href="#h" y="505.928"/><use stroke="#000" stroke-width=".6" x="96.318" xlink:href="#h" y="505.928"/><use stroke="#000" stroke-width=".6" x="111.708" xlink:href="#h" y="505.928"/><use stroke="#000" stroke-width=".6" x="127.097" xlink:href="#h" y="505.928"/><use stroke="#000" stroke-width=".6" x="142.487" xlink:href="#h" y="505.928"/><g transform="matrix(.1 0 0 -.1 136.124 518.926)"><use xlink:href="#i"/><use x="63.623" xlink:href="#j"/></g><g stroke="#000" stroke-width=".6"><use x="157.876" xlink:href="#h" y="505.928"/><use x="173.265" xlink:href="#h" y="505.928"/><use x="188.655" xlink:href="#h" y="505.928"/><use x="204.044" xlink:href="#h" y="505.928"/><use x="219.433" xlink:href="#h" y="505.928"/><use x="234.823" xlink:href="#h" y="505.928"/></g><use stroke="#000" stroke-width=".6" x="250.212" xlink:href="#h" y="505.928"/><g transform="matrix(.1 0 0 -.1 243.85 518.926)"><use xlink:href="#f"/><use x="63.623" xlink:href="#k"/></g><use stroke="#000" stroke-width=".6" x="265.602" xlink:href="#h" y="505.928"/><use stroke="#000" stroke-width=".6" x="280.991" xlink:href="#h" y="505.928"/><use stroke="#000" stroke-width=".6" x="296.38" xlink:href="#h" y="505.928"/><use stroke="#000" stroke-width=".6" x="311.77" xlink:href="#h" y="505.928"/><use stroke="#000" stroke-width=".6" x="327.159" xlink:href="#h" y="505.928"/><use stroke="#000" stroke-width=".6" x="342.549" xlink:href="#h" y="505.928"/><use stroke="#000" stroke-width=".6" x="357.938" xlink:href="#h" y="505.928"/><g transform="matrix(.1 0 0 -.1 351.575 518.926)"><use xlink:href="#k"/><use x="63.623" xlink:href="#g"/></g><use stroke="#000" stroke-width=".6" x="373.327" xlink:href="#h" y="505.928"/><use stroke="#000" stroke-width=".6" x="404.106" xlink:href="#h" y="505.928"/><use stroke="#000" stroke-width=".6" x="419.496" xlink:href="#h" y="505.928"/><use stroke="#000" stroke-width=".6" x="434.885" xlink:href="#h" y="505.928"/><use stroke="#000" stroke-width=".6" x="450.274" xlink:href="#h" y="505.928"/><g><use stroke="#000" stroke-width=".6" x="465.664" xlink:href="#h" y="505.928"/><g transform="matrix(.1 0 0 -.1 459.301 518.926)"><use xlink:href="#g"/><use x="63.623" xlink:href="#j"/></g></g><use stroke="#000" stroke-width=".6" x="481.053" xlink:href="#h" y="505.928"/><use stroke="#000" stroke-width=".6" x="496.442" xlink:href="#h" y="505.928"/><use stroke="#000" stroke-width=".6" x="511.832" xlink:href="#h" y="505.928"/><use stroke="#000" stroke-width=".6" x="527.221" xlink:href="#h" y="505.928"/><use stroke="#000" stroke-width=".6" x="542.611" xlink:href="#h" y="505.928"/><g><path clip-path="url(#R)" d="M50.15 505.928H558" fill="none" stroke="#b0b0b0" stroke-linecap="square" stroke-width=".8"/><use stroke="#000" stroke-width=".8" x="50.15" xlink:href="#l" y="505.928"/><g transform="matrix(.1 0 0 -.1 25.55 509.727)"><use transform="translate(0 .684)" xlink:href="#i"/><use transform="translate(63.623 .684)" xlink:href="#g"/><use transform="matrix(.7 0 0 .7 128.203 38.966)" xlink:href="#i"/></g><path clip-path="url(#R)" d="M50.15 459.941H558" fill="none" stroke="#b0b0b0" stroke-linecap="square" stroke-width=".8"/><use stroke="#000" stroke-width=".8" x="50.15" xlink:href="#l" y="459.941"/><g transform="matrix(.1 0 0 -.1 25.55 463.74)"><use transform="translate(0 .766)" xlink:href="#i"/><use transform="translate(63.623 .766)" xlink:href="#g"/><use transform="matrix(.7 0 0 .7 128.203 39.047)" xlink:href="#f"/></g><path clip-path="url(#R)" d="M50.15 413.954H558" fill="none" stroke="#b0b0b0" stroke-linecap="square" stroke-width=".8"/><use stroke="#000" stroke-width=".8" x="50.15" xlink:href="#l" y="413.954"/><g transform="matrix(.1 0 0 -.1 25.55 417.753)"><use transform="translate(0 .766)" xlink:href="#i"/><use transform="translate(63.623 .766)" xlink:href="#g"/><use transform="matrix(.7 0 0 .7 128.203 39.047)" xlink:href="#k"/></g><g><path clip-path="url(#R)" d="M50.15 367.967H558" fill="none" stroke="#b0b0b0" stroke-linecap="square" stroke-width=".8"/><use stroke="#000" stroke-width=".8" x="50.15" xlink:href="#l" y="367.967"/><g transform="matrix(.1 0 0 -.1 25.55 371.766)"><use transform="translate(0 .684)" xlink:href="#i"/><use transform="translate(63.623 .684)" xlink:href="#g"/><use transform="matrix(.7 0 0 .7 128.203 38.966)" xlink:href="#m"/></g></g><g><path clip-path="url(#R)" d="M50.15 321.98H558" fill="none" stroke="#b0b0b0" stroke-linecap="square" stroke-width=".8"/><use stroke="#000" stroke-width=".8" x="50.15" xlink:href="#l" y="321.98"/><g transform="matrix(.1 0 0 -.1 25.55 325.78)"><use transform="translate(0 .684)" xlink:href="#i"/><use transform="translate(63.623 .684)" xlink:href="#g"/><use transform="matrix(.7 0 0 .7 128.203 38.966)" xlink:href="#n"/></g></g><g stroke="#000" stroke-width=".6"><use x="50.15" xlink:href="#o" y="492.085"/><use x="50.15" xlink:href="#o" y="483.987"/><use x="50.15" xlink:href="#o" y="478.241"/><use x="50.15" xlink:href="#o" y="473.785"/><use x="50.15" xlink:href="#o" y="470.143"/><use x="50.15" xlink:href="#o" y="467.065"/><use x="50.15" xlink:href="#o" y="464.398"/><use x="50.15" xlink:href="#o" y="462.045"/><use x="50.15" xlink:href="#o" y="446.098"/><use x="50.15" xlink:href="#o" y="438"/><use x="50.15" xlink:href="#o" y="432.254"/><use x="50.15" xlink:href="#o" y="427.798"/><use x="50.15" xlink:href="#o" y="424.156"/><use x="50.15" xlink:href="#o" y="421.078"/><use x="50.15" xlink:href="#o" y="418.411"/><use x="50.15" xlink:href="#o" y="416.058"/><use x="50.15" xlink:href="#o" y="400.111"/><use x="50.15" xlink:href="#o" y="392.013"/><use x="50.15" xlink:href="#o" y="386.267"/><use x="50.15" xlink:href="#o" y="381.811"/><use x="50.15" xlink:href="#o" y="378.169"/><use x="50.15" xlink:href="#o" y="375.091"/><use x="50.15" xlink:href="#o" y="372.424"/><use x="50.15" xlink:href="#o" y="370.071"/><use x="50.15" xlink:href="#o" y="354.124"/><use x="50.15" xlink:href="#o" y="346.026"/><use x="50.15" xlink:href="#o" y="340.28"/><use x="50.15" xlink:href="#o" y="335.824"/><use x="50.15" xlink:href="#o" y="332.182"/><use x="50.15" xlink:href="#o" y="329.104"/><use x="50.15" xlink:href="#o" y="326.437"/><use x="50.15" xlink:href="#o" y="324.084"/><use x="50.15" xlink:href="#o" y="308.137"/><use x="50.15" xlink:href="#o" y="300.039"/></g><g transform="matrix(0 -.1 -.1 0 19.47 408.358)"><use xlink:href="#I"/><use x="73.193" xlink:href="#J"/></g></g><g stroke="#1f77b4"><path clip-path="url(#R)" d="M-1 470.253l4.982-4.83 15.39-6.646 15.389-5.84 15.39-3.943 15.389-4.8 15.389-7.976 15.39-4.986 15.389-4.333 15.39-6.632 15.389-5.435 15.389-11.393 15.39-7.616 15.389-15.293 15.39-8.764 15.388-6.849 15.39-5.937 15.39-5.568 15.389-4.118 15.389-3.635 15.39-4.086 15.389-3.354 15.39-3.056 15.389-2.537 15.389-2.179 15.39-2.53 15.389-1.975 15.39-1.887 15.389-2.085 15.389-1.942 15.39-1.522 15.389-1.318 15.39-1.11 15.388-1.49 15.39-1.323" fill="none" stroke-linecap="square" stroke-width="1.5"/><g clip-path="url(#R)" fill="#1f77b4"><use x="-1" xlink:href="#v" y="470.253"/><use x="3.982" xlink:href="#v" y="465.422"/><use x="19.371" xlink:href="#v" y="458.777"/><use x="34.761" xlink:href="#v" y="452.938"/><use x="50.15" xlink:href="#v" y="448.994"/><use x="65.54" xlink:href="#v" y="444.194"/><use x="80.929" xlink:href="#v" y="436.218"/><use x="96.318" xlink:href="#v" y="431.232"/><use x="111.708" xlink:href="#v" y="426.899"/><use x="127.097" xlink:href="#v" y="420.267"/><use x="142.487" xlink:href="#v" y="414.832"/><use x="157.876" xlink:href="#v" y="403.439"/><use x="173.265" xlink:href="#v" y="395.823"/><use x="188.655" xlink:href="#v" y="380.53"/><use x="204.044" xlink:href="#v" y="371.766"/><use x="219.433" xlink:href="#v" y="364.917"/><use x="234.823" xlink:href="#v" y="358.98"/><use x="250.212" xlink:href="#v" y="353.412"/><use x="265.602" xlink:href="#v" y="349.294"/><use x="280.991" xlink:href="#v" y="345.659"/><use x="296.38" xlink:href="#v" y="341.573"/><use x="311.77" xlink:href="#v" y="338.219"/><use x="327.159" xlink:href="#v" y="335.163"/><use x="342.549" xlink:href="#v" y="332.626"/><use x="357.938" xlink:href="#v" y="330.447"/><use x="373.327" xlink:href="#v" y="327.918"/><use x="388.717" xlink:href="#v" y="325.942"/><use x="404.106" xlink:href="#v" y="324.055"/><use x="419.496" xlink:href="#v" y="321.97"/><use x="434.885" xlink:href="#v" y="320.028"/><use x="450.274" xlink:href="#v" y="318.506"/><use x="465.664" xlink:href="#v" y="317.188"/><use x="481.053" xlink:href="#v" y="316.078"/><use x="496.442" xlink:href="#v" y="314.588"/><use x="511.832" xlink:href="#v" y="313.265"/></g></g><g stroke="#ff7f0e"><path clip-path="url(#R)" d="M-1 528.71l4.982-4.482 15.39-4.457H34.76l15.39-20.563 15.389-9.027 15.389-4.816h15.39l15.389-17.722 15.39-6.887 15.389-11.992 15.389-8.135 15.39-.076 15.389-20.395 15.39-3.628 15.388-7.984 15.39-7.348 15.39-7.928 15.389-5.07 15.389-3.562 15.39-8.954 15.389-4.975 15.39-4.616 15.389-3.708 15.389-4.344 15.39-2.283 15.389-3.447 15.39-2.686 15.389-3.093 15.389-2.577 15.39-1.894 15.389-1.824 15.39-1.486 15.388-1.233 15.39-1.42" fill="none" stroke-linecap="square" stroke-width="1.5"/><g clip-path="url(#R)" fill="#ff7f0e"><use x="-1" xlink:href="#w" y="528.71"/><use x="3.982" xlink:href="#w" y="524.228"/><use x="19.371" xlink:href="#w" y="519.771"/><use x="34.761" xlink:href="#w" y="519.771"/><use x="50.15" xlink:href="#w" y="499.208"/><use x="65.54" xlink:href="#w" y="490.181"/><use x="80.929" xlink:href="#w" y="485.365"/><use x="96.318" xlink:href="#w" y="485.365"/><use x="111.708" xlink:href="#w" y="467.643"/><use x="127.097" xlink:href="#w" y="460.756"/><use x="142.487" xlink:href="#w" y="448.764"/><use x="157.876" xlink:href="#w" y="440.629"/><use x="173.265" xlink:href="#w" y="440.553"/><use x="188.655" xlink:href="#w" y="420.158"/><use x="204.044" xlink:href="#w" y="416.53"/><use x="219.433" xlink:href="#w" y="408.546"/><use x="234.823" xlink:href="#w" y="401.198"/><use x="250.212" xlink:href="#w" y="393.27"/><use x="265.602" xlink:href="#w" y="388.2"/><use x="280.991" xlink:href="#w" y="384.638"/><use x="296.38" xlink:href="#w" y="375.684"/><use x="311.77" xlink:href="#w" y="370.709"/><use x="327.159" xlink:href="#w" y="366.093"/><use x="342.549" xlink:href="#w" y="362.385"/><use x="357.938" xlink:href="#w" y="358.041"/><use x="373.327" xlink:href="#w" y="355.758"/><use x="388.717" xlink:href="#w" y="352.311"/><use x="404.106" xlink:href="#w" y="349.625"/><use x="419.496" xlink:href="#w" y="346.532"/><use x="434.885" xlink:href="#w" y="343.955"/><use x="450.274" xlink:href="#w" y="342.061"/><use x="465.664" xlink:href="#w" y="340.237"/><use x="481.053" xlink:href="#w" y="338.751"/><use x="496.442" xlink:href="#w" y="337.518"/><use x="511.832" xlink:href="#w" y="336.098"/></g></g><path clip-path="url(#R)" d="M65.529 569.8l.01-31.729h15.39l15.39-41.53 15.389-8.913 15.39-5.545 15.389-9.462 15.389-4.076 15.39-4.883 15.389-27.626 15.39-10.106 15.388-7.09 15.39-5.399 15.39-4.94 15.389-5.94 15.389-4.83 15.39-4.226 15.389-4.81 15.39-4.952 15.389-3.306 15.389-3.286 15.39-3.051 15.389-3.984 15.39-2.882 15.389-3.344 15.389-2.188 15.39-1.967 15.389-1.762 15.39-1.883 15.388-1.345 15.39-1.044" fill="none" stroke="#2ca02c" stroke-linecap="square" stroke-width="1.5"/><g stroke="#d62728"><path clip-path="url(#R)" d="M-1 466.874l4.982-2.225 15.39-3.684 15.389-1.223 15.39-6.52 15.389-4.112 15.389-4.082 15.39-5.071 15.389-3.8 15.39-4.59 15.389-5.454 15.389-4.456 15.39-1.635 15.389-4.704 15.39-4.225 15.388-2.984 15.39-3.74 15.39-4.936 15.389-3.683 15.389-3.286 15.39-5.267 15.389-3.56 15.39-1.766 15.389-2.775 15.389-3.983 15.39-2.781 15.389-2.7 15.39-2.706 15.389-2.161 15.389-1.331 15.39-3.142 15.389-1.256 15.39-1.571 15.388-1.678 15.39-.813" fill="none" stroke-linecap="square" stroke-width="1.5"/><g clip-path="url(#R)" fill="#d62728"><use x="-1" xlink:href="#x" y="466.874"/><use x="3.982" xlink:href="#x" y="464.649"/><use x="19.371" xlink:href="#x" y="460.965"/><use x="34.761" xlink:href="#x" y="459.742"/><use x="50.15" xlink:href="#x" y="453.221"/><use x="65.54" xlink:href="#x" y="449.11"/><use x="80.929" xlink:href="#x" y="445.028"/><use x="96.318" xlink:href="#x" y="439.957"/><use x="111.708" xlink:href="#x" y="436.157"/><use x="127.097" xlink:href="#x" y="431.567"/><use x="142.487" xlink:href="#x" y="426.113"/><use x="157.876" xlink:href="#x" y="421.657"/><use x="173.265" xlink:href="#x" y="420.022"/><use x="188.655" xlink:href="#x" y="415.318"/><use x="204.044" xlink:href="#x" y="411.093"/><use x="219.433" xlink:href="#x" y="408.109"/><use x="234.823" xlink:href="#x" y="404.369"/><use x="250.212" xlink:href="#x" y="399.433"/><use x="265.602" xlink:href="#x" y="395.75"/><use x="280.991" xlink:href="#x" y="392.464"/><use x="296.38" xlink:href="#x" y="387.197"/><use x="311.77" xlink:href="#x" y="383.637"/><use x="327.159" xlink:href="#x" y="381.871"/><use x="342.549" xlink:href="#x" y="379.096"/><use x="357.938" xlink:href="#x" y="375.113"/><use x="373.327" xlink:href="#x" y="372.332"/><use x="388.717" xlink:href="#x" y="369.632"/><use x="404.106" xlink:href="#x" y="366.926"/><use x="419.496" xlink:href="#x" y="364.765"/><use x="434.885" xlink:href="#x" y="363.434"/><use x="450.274" xlink:href="#x" y="360.292"/><use x="465.664" xlink:href="#x" y="359.036"/><use x="481.053" xlink:href="#x" y="357.465"/><use x="496.442" xlink:href="#x" y="355.787"/><use x="511.832" xlink:href="#x" y="354.974"/></g></g><g stroke="#9467bd"><path clip-path="url(#R)" d="M-1 516.13h4.982l15.39-26.837H34.76l15.39-27.468 15.389-.648 15.389-2.587 15.39-2.62 15.389-2.316 15.39-3.47 15.389-3.683 15.389-2.033 15.39-.092 15.389-8.158 15.39-4.554 15.388-4.803 15.39-4.025 15.39-3.61 15.389-8.028 15.389-9.237 15.39-5.425 15.389-5.843 15.39-5.462 15.389-3.045 15.389-2.978 15.39-2.732 15.389-3.07 15.39-2.913 15.389-2.94 15.389-2.412 15.39-1.258 15.389-2.023 15.39-1.785 15.388-1.935 15.39-2.392" fill="none" stroke-linecap="square" stroke-width="1.5"/><g clip-path="url(#R)" fill="#9467bd"><use x="-1" xlink:href="#y" y="516.13"/><use x="3.982" xlink:href="#y" y="516.13"/><use x="19.371" xlink:href="#y" y="489.293"/><use x="34.761" xlink:href="#y" y="489.293"/><use x="50.15" xlink:href="#y" y="461.825"/><use x="65.54" xlink:href="#y" y="461.177"/><use x="80.929" xlink:href="#y" y="458.59"/><use x="96.318" xlink:href="#y" y="455.97"/><use x="111.708" xlink:href="#y" y="453.654"/><use x="127.097" xlink:href="#y" y="450.183"/><use x="142.487" xlink:href="#y" y="446.501"/><use x="157.876" xlink:href="#y" y="444.468"/><use x="173.265" xlink:href="#y" y="444.376"/><use x="188.655" xlink:href="#y" y="436.218"/><use x="204.044" xlink:href="#y" y="431.664"/><use x="219.433" xlink:href="#y" y="426.861"/><use x="234.823" xlink:href="#y" y="422.836"/><use x="250.212" xlink:href="#y" y="419.226"/><use x="265.602" xlink:href="#y" y="411.198"/><use x="280.991" xlink:href="#y" y="401.961"/><use x="296.38" xlink:href="#y" y="396.536"/><use x="311.77" xlink:href="#y" y="390.693"/><use x="327.159" xlink:href="#y" y="385.231"/><use x="342.549" xlink:href="#y" y="382.186"/><use x="357.938" xlink:href="#y" y="379.208"/><use x="373.327" xlink:href="#y" y="376.476"/><use x="388.717" xlink:href="#y" y="373.406"/><use x="404.106" xlink:href="#y" y="370.493"/><use x="419.496" xlink:href="#y" y="367.552"/><use x="434.885" xlink:href="#y" y="365.141"/><use x="450.274" xlink:href="#y" y="363.883"/><use x="465.664" xlink:href="#y" y="361.86"/><use x="481.053" xlink:href="#y" y="360.075"/><use x="496.442" xlink:href="#y" y="358.14"/><use x="511.832" xlink:href="#y" y="355.748"/></g></g><path clip-path="url(#R)" d="M511.832 313.265l15.39-1.338 15.389-1.337L558 309.253" fill="none" stroke="#1f77b4" stroke-dasharray="1.5 2.475" stroke-width="1.5"/><path clip-path="url(#R)" d="M511.832 336.098l15.39-1.367 15.389-1.368L558 331.996" fill="none" stroke="#ff7f0e" stroke-dasharray="1.5 2.475" stroke-width="1.5"/><path clip-path="url(#R)" d="M511.832 353.7l15.39-1.33 15.389-1.332L558 349.707" fill="none" stroke="#2ca02c" stroke-dasharray="1.5 2.475" stroke-width="1.5"/><path clip-path="url(#R)" d="M511.832 354.974l15.39-1.284 15.389-1.284L558 351.122" fill="none" stroke="#d62728" stroke-dasharray="1.5 2.475" stroke-width="1.5"/><path clip-path="url(#R)" d="M511.832 355.748l15.39-2.099 15.389-2.099L558 349.451" fill="none" stroke="#9467bd" stroke-dasharray="1.5 2.475" stroke-width="1.5"/><path d="M50.15 505.928V297.12M558 505.928V297.12M50.15 505.928H558M50.15 297.12H558" fill="none" stroke="#000" stroke-linecap="square" stroke-linejoin="miter" stroke-width=".8"/><g><path d="M336.678 500.928H551q2 0 2-2v-72.39q0-2-2-2H336.678q-2 0-2 2v72.39q0 2 2 2z" fill="#fff" opacity=".8" stroke="#ccc" stroke-linejoin="miter"/><path d="M338.678 432.636h20" fill="none" stroke="#1f77b4" stroke-linecap="square" stroke-width="1.5"/><use fill="#1f77b4" stroke="#1f77b4" x="348.678" xlink:href="#v" y="432.636"/><g transform="matrix(.1 0 0 -.1 366.678 436.136)"><use xlink:href="#S"/><use x="74.805" xlink:href="#u"/><use x="136.328" xlink:href="#s"/><path d="M249.7 72.906h10.609l20.203-29.984 20.078 29.984h10.594L285.402 34.72V0h-9.906v34.719z"/><use x="310.783" xlink:href="#p"/><use x="371.965" xlink:href="#e"/><path d="M422.156 75.984h9.031V31.11L458 54.687h11.469l-29-25.578L470.703 0h-11.719l-27.796 26.703V0h-9.032z"/><use x="502.775" xlink:href="#K"/><use x="541.789" xlink:href="#r"/><use x="605.266" xlink:href="#p"/><use x="666.447" xlink:href="#L"/><use x="729.826" xlink:href="#M"/><use x="793.303" xlink:href="#q"/><use x="821.086" xlink:href="#u"/><use x="882.609" xlink:href="#G"/><use x="966.496" xlink:href="#t"/><use x="994.279" xlink:href="#N"/><use x="1089.445" xlink:href="#i"/><use x="1153.068" xlink:href="#g"/><use x="1216.691" xlink:href="#O"/><use x="1248.479" xlink:href="#m"/><use x="1343.889" xlink:href="#r"/><use x="1407.365" xlink:href="#F"/><use x="1468.645" xlink:href="#P"/><use x="1527.824" xlink:href="#G"/><use x="1579.924" xlink:href="#Q"/></g><path d="M338.678 447.314h20" fill="none" stroke="#ff7f0e" stroke-linecap="square" stroke-width="1.5"/><use fill="#ff7f0e" stroke="#ff7f0e" x="348.678" xlink:href="#w" y="447.314"/><g transform="matrix(.1 0 0 -.1 366.678 450.814)"><use xlink:href="#S"/><use x="74.805" xlink:href="#u"/><use x="136.328" xlink:href="#s"/><path d="M259.715 72.906h9.86V5.078q0-13.187-5-19.14-5-5.954-16.095-5.954h-3.75v8.297h3.079q6.53 0 9.218 3.672 2.688 3.656 2.688 13.125z"/><use x="279.395" xlink:href="#u"/><use x="340.918" xlink:href="#e"/><use x="382.031" xlink:href="#G"/><use x="434.131" xlink:href="#u"/><use x="495.654" xlink:href="#P"/><use x="586.621" xlink:href="#K"/><use x="625.635" xlink:href="#r"/><use x="689.111" xlink:href="#p"/><use x="750.293" xlink:href="#L"/><use x="813.672" xlink:href="#M"/><use x="877.148" xlink:href="#q"/><use x="904.932" xlink:href="#u"/><use x="966.455" xlink:href="#G"/><use x="1050.342" xlink:href="#t"/><use x="1078.125" xlink:href="#N"/><use x="1173.291" xlink:href="#i"/><use x="1236.914" xlink:href="#g"/><use x="1300.537" xlink:href="#O"/><use x="1332.324" xlink:href="#i"/><use x="1427.734" xlink:href="#r"/><use x="1491.211" xlink:href="#F"/><use x="1552.49" xlink:href="#P"/><use x="1611.67" xlink:href="#G"/><use x="1663.77" xlink:href="#Q"/></g><path d="M338.678 461.992h20" fill="none" stroke="#2ca02c" stroke-linecap="square" stroke-width="1.5"/><g transform="matrix(.1 0 0 -.1 366.678 465.492)"><use xlink:href="#T"/><use x="86.279" xlink:href="#t"/><use x="114.063" xlink:href="#z"/><use x="169.043" xlink:href="#U"/><use x="232.422" xlink:href="#t"/><path d="M305.611 27.984q0 9.766-4.03 15.125-4.017 5.375-11.298 5.375-7.219 0-11.25-5.375-4.031-5.359-4.031-15.125 0-9.718 4.031-15.093t11.25-5.375q7.281 0 11.297 5.375 4.031 5.375 4.031 15.093zm8.985-21.203q0-13.953-6.203-20.765-6.188-6.813-18.985-6.813-4.734 0-8.937.703-4.203.703-8.157 2.172v8.735q3.954-2.141 7.813-3.157 3.86-1.031 7.86-1.031 8.843 0 13.234 4.61 4.39 4.609 4.39 13.937v4.453q-2.78-4.844-7.125-7.234Q294.143 0 288.08 0q-10.047 0-16.203 7.656-6.156 7.672-6.156 20.328 0 12.688 6.156 20.344Q278.033 56 288.08 56q6.063 0 10.406-2.39 4.344-2.391 7.125-7.22v8.297h8.985z"/><use x="323.682" xlink:href="#F"/><use x="384.961" xlink:href="#N"/><use x="480.127" xlink:href="#K"/><use x="519.141" xlink:href="#r"/><use x="582.617" xlink:href="#p"/><use x="643.799" xlink:href="#L"/><use x="707.178" xlink:href="#M"/><use x="770.654" xlink:href="#q"/><use x="798.438" xlink:href="#u"/><use x="859.961" xlink:href="#G"/><use x="943.848" xlink:href="#t"/><use x="971.631" xlink:href="#N"/><use x="1066.797" xlink:href="#i"/><use x="1130.42" xlink:href="#g"/><use x="1194.043" xlink:href="#O"/><use x="1225.83" xlink:href="#m"/><use x="1321.24" xlink:href="#r"/><use x="1384.717" xlink:href="#F"/><use x="1445.996" xlink:href="#P"/><use x="1505.176" xlink:href="#G"/><use x="1557.275" xlink:href="#Q"/></g><path d="M338.678 476.67h20" fill="none" stroke="#d62728" stroke-linecap="square" stroke-width="1.5"/><use fill="#d62728" stroke="#d62728" x="348.678" xlink:href="#x" y="476.67"/><g transform="matrix(.1 0 0 -.1 366.678 480.17)"><use xlink:href="#B"/><use x="69.824" xlink:href="#F"/><use x="131.104" xlink:href="#q"/><use x="158.887" xlink:href="#t"/><use x="186.67" xlink:href="#H"/><use x="221.875" xlink:href="#p"/><use x="283.057" xlink:href="#e"/><use x="324.154" xlink:href="#N"/><use x="387.533" xlink:href="#t"/><use x="415.316" xlink:href="#F"/><use x="508.383" xlink:href="#K"/><use x="547.396" xlink:href="#r"/><use x="610.873" xlink:href="#p"/><use x="672.055" xlink:href="#L"/><use x="735.434" xlink:href="#M"/><use x="798.91" xlink:href="#q"/><use x="826.693" xlink:href="#u"/><use x="888.217" xlink:href="#G"/><use x="972.104" xlink:href="#t"/><use x="999.887" xlink:href="#N"/><use x="1095.053" xlink:href="#i"/><use x="1158.676" xlink:href="#g"/><use x="1222.299" xlink:href="#O"/><path d="M1285.867 34.625q-7.031 0-11.062-3.766-4.016-3.765-4.016-10.343 0-6.594 4.016-10.36 4.03-3.765 11.062-3.765 7.031 0 11.078 3.78 4.063 3.798 4.063 10.345 0 6.578-4.031 10.343-4.016 3.766-11.11 3.766zm-9.86 4.188q-6.343 1.562-9.89 5.906-3.531 4.36-3.531 10.61 0 8.733 6.219 13.812 6.234 5.078 17.062 5.078 10.89 0 17.094-5.078 6.203-5.079 6.203-13.813 0-6.25-3.547-10.61-3.531-4.343-9.828-5.906 7.125-1.656 11.094-6.5 3.984-4.828 3.984-11.796 0-10.61-6.469-16.282-6.468-5.656-18.53-5.656-12.048 0-18.532 5.656-6.469 5.672-6.469 16.282 0 6.968 4 11.797 4.016 4.843 11.14 6.5zm-3.609 15.578q0-5.657 3.532-8.828 3.547-3.172 9.937-3.172 6.36 0 9.938 3.172 3.593 3.171 3.593 8.828 0 5.672-3.593 8.843-3.578 3.172-9.938 3.172-6.39 0-9.937-3.172-3.532-3.172-3.532-8.843z"/><use x="1349.496" xlink:href="#r"/><use x="1412.973" xlink:href="#F"/><use x="1474.252" xlink:href="#P"/><use x="1533.432" xlink:href="#G"/><use x="1585.531" xlink:href="#Q"/></g><path d="M338.678 491.348h20" fill="none" stroke="#9467bd" stroke-linecap="square" stroke-width="1.5"/><use fill="#9467bd" stroke="#9467bd" x="348.678" xlink:href="#y" y="491.348"/><g transform="matrix(.1 0 0 -.1 366.678 494.848)"><use xlink:href="#T"/><use x="86.279" xlink:href="#F"/><use x="147.559" xlink:href="#G"/><use x="199.658" xlink:href="#G"/><use x="251.758" xlink:href="#F"/><use x="313.037" xlink:href="#z"/><use x="368.018" xlink:href="#U"/><use x="431.396" xlink:href="#L"/><use x="494.775" xlink:href="#G"/><use x="546.875" xlink:href="#u"/><use x="608.398" xlink:href="#A"/><use x="647.607" xlink:href="#A"/><use x="686.816" xlink:href="#G"/><use x="770.703" xlink:href="#K"/><use x="809.717" xlink:href="#r"/><use x="873.193" xlink:href="#p"/><use x="934.375" xlink:href="#L"/><use x="997.754" xlink:href="#M"/><use x="1061.23" xlink:href="#q"/><use x="1089.014" xlink:href="#u"/><use x="1150.537" xlink:href="#G"/><use x="1234.424" xlink:href="#t"/><use x="1262.207" xlink:href="#N"/><use x="1357.373" xlink:href="#j"/><use x="1420.996" xlink:href="#O"/><use x="1452.783" xlink:href="#j"/><use x="1548.193" xlink:href="#r"/><use x="1611.67" xlink:href="#F"/><use x="1672.949" xlink:href="#P"/><use x="1732.129" xlink:href="#G"/><use x="1784.229" xlink:href="#Q"/></g></g></g></svg>