<svg height="758.4" stroke-linejoin="round" viewBox="0 0 568.8 568.8" width="758.4" xmlns="http://www.w3.org/2000/svg" xmlns:xlink="http://www.w3.org/1999/xlink"><defs><path id="x" d="M9.422 54.688h8.984V0H9.422zm0 21.296h8.984v-11.39H9.422z" stroke-linejoin="round"/><path id="W" d="M45.406 27.984q0 9.766-4.031 15.125-4.016 5.375-11.297 5.375-7.219 0-11.25-5.375-4.031-5.359-4.031-15.125 0-9.718 4.031-15.093t11.25-5.375q7.281 0 11.297 5.375 4.031 5.375 4.031 15.093zm8.985-21.203q0-13.953-6.203-20.765Q42-20.797 29.203-20.797q-4.734 0-8.937.703-4.203.703-8.157 2.172v8.735q3.954-2.141 7.813-3.157 3.86-1.031 7.86-1.031 8.843 0 13.234 4.61 4.39 4.609 4.39 13.937v4.453q-2.781-4.844-7.125-7.234Q33.938 0 27.875 0 17.828 0 11.672 7.656q-6.156 7.672-6.156 20.328 0 12.688 6.156 20.344Q17.828 56 27.875 56q6.063 0 10.406-2.39 4.344-2.391 7.125-7.22v8.297h8.985z" stroke-linejoin="round"/><path id="b" d="M0 0v3.5" stroke="#000" stroke-linejoin="round" stroke-width=".8"/><path id="c" d="M31.781 66.406q-7.61 0-11.453-7.5Q16.5 51.422 16.5 36.375q0-14.984 3.828-22.484 3.844-7.5 11.453-7.5 7.672 0 11.5 7.5 3.844 7.5 3.844 22.484 0 15.047-3.844 22.531-3.828 7.5-11.5 7.5zm0 7.813q12.266 0 18.735-9.703 6.468-9.688 6.468-28.141 0-18.406-6.468-28.11-6.47-9.687-18.735-9.687-12.25 0-18.718 9.688-6.47 9.703-6.47 28.109 0 18.453 6.47 28.14Q19.53 74.22 31.78 74.22z" stroke-linejoin="round"/><path id="d" d="M12.406 8.297h16.11v55.625l-17.532-3.516v8.985l17.438 3.515h9.86V8.296H54.39V0H12.406z" stroke-linejoin="round"/><path id="e" d="M9.813 72.906h14.703l18.593-49.61 18.703 49.61h14.704V0H66.89v64.016l-18.797-50h-9.907l-18.796 50V0H9.813z" stroke-linejoin="round"/><path id="f" d="M34.281 27.484q-10.89 0-15.093-2.484-4.204-2.484-4.204-8.5 0-4.781 3.157-7.594 3.156-2.797 8.562-2.797 7.485 0 12 5.297 4.516 5.297 4.516 14.078v2zm17.922 3.72V0H43.22v8.297Q40.14 3.328 35.547.953q-4.594-2.375-11.234-2.375-8.391 0-13.36 4.719Q6 8.016 6 15.922q0 9.219 6.172 13.906 6.187 4.688 18.437 4.688h12.61v.89q0 6.203-4.078 9.594-4.078 3.39-11.453 3.39-4.688 0-9.141-1.124-4.438-1.125-8.531-3.375v8.312q4.921 1.906 9.562 2.844 4.64.953 9.031.953 11.875 0 17.735-6.156 5.86-6.14 5.86-18.64z" stroke-linejoin="round"/><path id="g" d="M41.11 46.297q-1.516.875-3.297 1.281Q36.03 48 33.89 48q-7.625 0-11.703-4.953-4.079-4.953-4.079-14.234V0H9.08v54.688h9.03v-8.5q2.844 4.984 7.375 7.39Q30.031 56 36.531 56q.922 0 2.047-.125 1.125-.11 2.484-.36z" stroke-linejoin="round"/><path id="h" d="M19.188 8.297h34.421V0H7.33v8.297q5.609 5.812 15.296 15.594 9.703 9.797 12.188 12.64 4.734 5.313 6.609 9 1.89 3.688 1.89 7.25 0 5.813-4.078 9.469-4.078 3.672-10.625 3.672-4.64 0-9.797-1.61-5.14-1.609-11-4.89v9.969Q13.767 71.78 18.938 73q5.188 1.219 9.485 1.219 11.328 0 18.062-5.672 6.735-5.656 6.735-15.125 0-4.5-1.688-8.531-1.672-4.016-6.125-9.485-1.218-1.422-7.765-8.187-6.532-6.766-18.453-18.922z" stroke-linejoin="round"/><path id="i" d="M31.781 34.625q-7.031 0-11.062-3.766-4.016-3.765-4.016-10.343 0-6.594 4.016-10.36Q24.75 6.391 31.78 6.391q7.032 0 11.078 3.78 4.063 3.798 4.063 10.345 0 6.578-4.031 10.343-4.016 3.766-11.11 3.766zm-9.86 4.188q-6.343 1.562-9.89 5.906Q8.5 49.079 8.5 55.329q0 8.733 6.219 13.812 6.234 5.078 17.062 5.078 10.89 0 17.094-5.078 6.203-5.079 6.203-13.813 0-6.25-3.547-10.61-3.531-4.343-9.828-5.906 7.125-1.656 11.094-6.5 3.984-4.828 3.984-11.796 0-10.61-6.468-16.282-6.47-5.656-18.532-5.656-12.047 0-18.531 5.656-6.469 5.672-6.469 16.282 0 6.968 4 11.797 4.016 4.843 11.14 6.5zM18.314 54.39q0-5.657 3.53-8.828 3.548-3.172 9.938-3.172 6.36 0 9.938 3.172 3.593 3.171 3.593 8.828 0 5.672-3.593 8.843-3.578 3.172-9.938 3.172-6.39 0-9.937-3.172-3.532-3.172-3.532-8.843z" stroke-linejoin="round"/><path id="j" d="M0 0v2" stroke="#000" stroke-linejoin="round" stroke-width=".6"/><path id="k" d="M40.578 39.313Q47.656 37.797 51.625 33q3.984-4.781 3.984-11.813 0-10.78-7.422-16.703-7.421-5.906-21.093-5.906-4.578 0-9.438.906-4.86.907-10.031 2.72v9.515q4.094-2.39 8.969-3.61 4.89-1.218 10.218-1.218 9.266 0 14.125 3.656 4.86 3.656 4.86 10.64 0 6.454-4.516 10.079-4.515 3.64-12.562 3.64h-8.5v8.11h8.89q7.266 0 11.125 2.906 3.86 2.906 3.86 8.375 0 5.61-3.985 8.61-3.968 3.015-11.39 3.015-4.063 0-8.703-.89-4.641-.876-10.203-2.72v8.782q5.624 1.562 10.53 2.344 4.907.78 9.25.78 11.235 0 17.766-5.109 6.547-5.093 6.547-13.78 0-6.063-3.468-10.235-3.47-4.172-9.86-5.782z" stroke-linejoin="round"/><path id="l" d="M37.797 64.313L12.89 25.39h24.906zm-2.594 8.593H47.61V25.391h10.407v-8.203H47.609V0h-9.812v17.188H4.89v9.515z" stroke-linejoin="round"/><path id="m" d="M10.797 72.906h38.719v-8.312H19.828v-17.86q2.14.735 4.281 1.094 2.157.36 4.313.36 12.203 0 19.328-6.688 7.14-6.688 7.14-18.11 0-11.765-7.328-18.296-7.328-6.516-20.656-6.516-4.593 0-9.36.781-4.75.782-9.827 2.344v9.922q4.39-2.39 9.078-3.563 4.687-1.171 9.906-1.171 8.453 0 13.375 4.437 4.938 4.438 4.938 12.063 0 7.609-4.938 12.047-4.922 4.453-13.375 4.453-3.953 0-7.89-.875-3.922-.875-8.016-2.735z" stroke-linejoin="round"/><path id="n" d="M33.016 40.375q-6.641 0-10.532-4.547-3.875-4.531-3.875-12.437 0-7.86 3.875-12.438 3.891-4.562 10.532-4.562 6.64 0 10.515 4.562 3.875 4.578 3.875 12.438 0 7.906-3.875 12.437-3.875 4.547-10.515 4.547zm19.578 30.922v-8.984q-3.719 1.75-7.5 2.671-3.782.938-7.5.938-9.766 0-14.922-6.594-5.14-6.594-5.875-19.922 2.875 4.25 7.219 6.516 4.359 2.266 9.578 2.266 10.984 0 17.36-6.672 6.374-6.657 6.374-18.125 0-11.235-6.64-18.032-6.641-6.78-17.672-6.78-12.657 0-19.344 9.687-6.688 9.703-6.688 28.109 0 17.281 8.204 27.563 8.203 10.28 22.015 10.28 3.719 0 7.5-.734t7.89-2.187z" stroke-linejoin="round"/><path id="o" d="M8.203 72.906h46.875v-4.203L28.61 0H18.312L43.22 64.594H8.203z" stroke-linejoin="round"/><path id="p" d="M10.984 1.516V10.5q3.72-1.766 7.516-2.688 3.813-.921 7.484-.921 9.766 0 14.907 6.562 5.156 6.563 5.89 19.953-2.828-4.203-7.187-6.453-4.344-2.25-9.61-2.25-10.937 0-17.312 6.61-6.375 6.625-6.375 18.109 0 11.219 6.64 18 6.641 6.797 17.672 6.797 12.657 0 19.313-9.703 6.672-9.688 6.672-28.141 0-17.234-8.188-27.516Q40.234-1.42 26.422-1.42q-3.719 0-7.531.734-3.797.734-7.907 2.203zM30.61 32.422q6.641 0 10.516 4.531 3.89 4.547 3.89 12.469 0 7.86-3.89 12.422-3.875 4.562-10.516 4.562-6.64 0-10.515-4.562-3.875-4.563-3.875-12.422 0-7.922 3.875-12.469 3.875-4.531 10.515-4.531z" stroke-linejoin="round"/><path id="q" d="M0 0h-3.5" stroke="#000" stroke-linejoin="round" stroke-width=".8"/><path id="r" d="M0 0h-2" stroke="#000" stroke-linejoin="round" stroke-width=".6"/><path id="s" d="M3.328 72.906h9.953L28.61 11.281l15.282 61.625h11.093l15.328-61.625 15.282 61.625h10.015L77.297 0H64.89L49.516 63.281 33.984 0H21.578z" stroke-linejoin="round"/><path id="t" d="M30.61 48.39q-7.22 0-11.422-5.64-4.204-5.64-4.204-15.453 0-9.813 4.172-15.453 4.188-5.64 11.453-5.64 7.188 0 11.375 5.655 4.203 5.672 4.203 15.438 0 9.719-4.203 15.406-4.187 5.688-11.375 5.688zm0 7.61q11.718 0 18.406-7.625 6.703-7.61 6.703-21.078 0-13.422-6.703-21.078-6.688-7.64-18.407-7.64-11.765 0-18.437 7.64-6.656 7.656-6.656 21.078 0 13.469 6.656 21.078Q18.844 56 30.609 56z" stroke-linejoin="round"/><path id="u" d="M9.422 75.984h8.984V0H9.422z" stroke-linejoin="round"/><path id="v" d="M45.406 46.39v29.594h8.985V0h-8.985v8.203Q42.578 3.328 38.25.953q-4.313-2.375-10.375-2.375-9.906 0-16.14 7.906-6.22 7.922-6.22 20.813 0 12.89 6.22 20.797Q17.968 56 27.874 56q6.063 0 10.375-2.375 4.328-2.36 7.156-7.234zm-30.61-19.093q0-9.906 4.079-15.547 4.078-5.64 11.203-5.64 7.125 0 11.219 5.64 4.11 5.64 4.11 15.547 0 9.906-4.11 15.547-4.094 5.64-11.219 5.64-7.125 0-11.203-5.64-4.078-5.64-4.078-15.547z" stroke-linejoin="round"/><path id="w" d="M4.203 54.688h8.985l11.234-42.672 11.172 42.672h10.593l11.235-42.672 11.187 42.672h8.985L63.28 0H52.688L40.922 44.828 29.109 0H18.5z" stroke-linejoin="round"/><path id="V" d="M54.89 33.016V0h-8.984v32.719q0 7.765-3.031 11.61-3.031 3.858-9.078 3.858-7.281 0-11.484-4.64-4.204-4.625-4.204-12.64V0H9.08v75.984h9.03V46.188q3.235 4.937 7.594 7.374Q30.078 56 35.797 56q9.422 0 14.25-5.828 4.844-5.828 4.844-17.156z" stroke-linejoin="round"/><path id="y" d="M56.203 29.594v-4.39H14.891q.593-9.282 5.593-14.142 5-4.859 13.938-4.859 5.172 0 10.031 1.266 4.86 1.265 9.656 3.812v-8.5Q49.266.734 44.187-.344 39.11-1.422 33.892-1.422q-13.094 0-20.735 7.61-7.64 7.625-7.64 20.625 0 13.421 7.25 21.296Q20.016 56 32.328 56q11.031 0 17.453-7.11 6.422-7.093 6.422-19.296zm-8.984 2.64q-.094 7.36-4.125 11.75-4.032 4.407-10.672 4.407-7.516 0-12.031-4.25-4.516-4.25-5.203-11.97z" stroke-linejoin="round"/><path id="z" d="M-3 0h6M0 3v-6" stroke="#1f77b4" stroke-linejoin="round"/><path id="A" d="M0 1.5a1.5 1.5 0 100-3 1.5 1.5 0 000 3z" stroke="#ff7f0e" stroke-linejoin="round"/><path id="B" d="M-3 0h6M0 3v-6" stroke="#d62728" stroke-linejoin="round"/><path id="C" d="M0 1.5a1.5 1.5 0 100-3 1.5 1.5 0 000 3z" stroke="#9467bd" stroke-linejoin="round"/><path id="D" d="M48.781 52.594v-8.407q-3.812 2.11-7.64 3.157-3.828 1.047-7.735 1.047-8.75 0-13.593-5.547-4.829-5.532-4.829-15.547 0-10.016 4.829-15.563 4.843-5.53 13.593-5.53 3.907 0 7.735 1.046 3.828 1.047 7.64 3.156V2.094Q45.016.344 40.984-.531q-4.015-.89-8.562-.89-12.36 0-19.64 7.765-7.266 7.765-7.266 20.953 0 13.375 7.343 21.031Q20.22 56 33.016 56q4.14 0 8.093-.86 3.953-.843 7.672-2.546z" stroke-linejoin="round"/><path id="E" d="M18.313 70.219V54.688h18.5v-6.985h-18.5V18.016q0-6.688 1.828-8.594 1.828-1.906 7.453-1.906h9.218V0h-9.218q-10.407 0-14.36 3.875-3.953 3.89-3.953 14.14v29.688H2.687v6.984h6.594V70.22z" stroke-linejoin="round"/><path id="F" d="M64.406 67.281v-10.39q-4.984 4.64-10.625 6.922-5.64 2.296-11.984 2.296-12.5 0-19.14-7.64-6.641-7.64-6.641-22.094 0-14.406 6.64-22.047 6.64-7.64 19.14-7.64 6.345 0 11.985 2.296 5.64 2.297 10.625 6.938V5.609Q59.234 2.094 53.437.33q-5.78-1.75-12.218-1.75-16.563 0-26.094 10.124-9.516 10.14-9.516 27.672 0 17.578 9.516 27.703 9.531 10.14 26.094 10.14 6.531 0 12.312-1.734 5.797-1.734 10.875-5.203z" stroke-linejoin="round"/><path id="G" d="M9.813 72.906h9.859V0h-9.86z" stroke-linejoin="round"/><path id="H" d="M4.89 31.39h26.313v-8H4.891z" stroke-linejoin="round"/><path id="I" d="M44.281 53.078v-8.5q-3.797 1.953-7.906 2.922-4.094.984-8.5.984-6.688 0-10.031-2.047-3.344-2.046-3.344-6.156 0-3.125 2.39-4.906 2.391-1.781 9.626-3.39l3.078-.688q9.562-2.047 13.593-5.781 4.032-3.735 4.032-10.422 0-7.625-6.032-12.078-6.03-4.438-16.578-4.438-4.39 0-9.156.86Q10.688.296 5.422 2v9.281q4.984-2.594 9.812-3.89 4.829-1.282 9.579-1.282 6.343 0 9.75 2.172 3.421 2.172 3.421 6.125 0 3.656-2.468 5.61-2.453 1.953-10.813 3.765l-3.125.735q-8.344 1.75-12.062 5.39-3.704 3.64-3.704 9.985 0 7.718 5.47 11.906Q16.75 56 26.811 56q4.97 0 9.36-.734 4.406-.72 8.11-2.188z" stroke-linejoin="round"/><path id="J" d="M37.11 75.984V68.5h-8.594q-4.828 0-6.72-1.953-1.874-1.953-1.874-7.031v-4.828h14.797v-6.985H19.922V0H10.89v47.703H2.297v6.984h8.594V58.5q0 9.125 4.25 13.297 4.25 4.187 13.468 4.187z" stroke-linejoin="round"/><path id="K" d="M8.688 72.906h9.921V28.61q0-11.718 4.235-16.875 4.25-5.14 13.781-5.14 9.469 0 13.719 5.14 4.25 5.157 4.25 16.875v44.297H64.5V27.391q0-14.25-7.063-21.532-7.046-7.28-20.812-7.28-13.828 0-20.89 7.28-7.047 7.282-7.047 21.532z" stroke-linejoin="round"/><path id="L" d="M53.516 70.516V60.89q-5.61 2.687-10.594 4-4.984 1.328-9.625 1.328-8.047 0-12.422-3.125t-4.375-8.89q0-4.845 2.906-7.313 2.907-2.453 11.016-3.97l5.953-1.218q11.031-2.11 16.281-7.406 5.25-5.297 5.25-14.172 0-10.61-7.11-16.078-7.093-5.469-20.812-5.469-5.172 0-11.015 1.172Q13.14.922 6.89 3.219v10.156q6-3.36 11.765-5.078 5.766-1.703 11.328-1.703 8.438 0 13.032 3.312 4.593 3.328 4.593 9.485 0 5.359-3.297 8.39-3.296 3.032-10.812 4.547L27.484 33.5q-11.03 2.188-15.968 6.875-4.922 4.688-4.922 13.047 0 9.672 6.812 15.234 6.813 5.563 18.766 5.563 5.14 0 10.453-.938 5.328-.922 10.89-2.765z" stroke-linejoin="round"/><path id="M" d="M31 75.875q-6.531-11.219-9.719-22.219-3.172-10.984-3.172-22.265 0-11.266 3.203-22.328Q24.517-2 31-13.188h-7.813Q15.875-1.704 12.235 9.375q-3.64 11.078-3.64 22.016 0 10.89 3.61 21.922 3.624 11.046 10.983 22.562z" stroke-linejoin="round"/><path id="N" d="M8.5 21.578v33.11h8.984V21.922q0-7.766 3.016-11.656 3.031-3.875 9.094-3.875 7.265 0 11.484 4.64 4.234 4.64 4.234 12.656v31h8.985V0h-8.984v8.406Q42.047 3.422 37.718 1q-4.313-2.422-10.032-2.422-9.421 0-14.312 5.86Q8.5 10.296 8.5 21.578z" stroke-linejoin="round"/><path id="O" d="M48.688 27.297q0 9.906-4.079 15.547-4.078 5.64-11.203 5.64-7.14 0-11.218-5.64-4.079-5.64-4.079-15.547 0-9.906 4.078-15.547 4.079-5.64 11.22-5.64 7.124 0 11.202 5.64t4.078 15.547zM18.108 46.39q2.844 4.875 7.157 7.234Q29.594 56 35.594 56q9.968 0 16.187-7.906 6.235-7.907 6.235-20.797T51.78 6.484q-6.218-7.906-16.187-7.906-6 0-10.328 2.375-4.313 2.375-7.157 7.25V0H9.08v75.984h9.03z" stroke-linejoin="round"/><path id="P" d="M54.89 33.016V0h-8.984v32.719q0 7.765-3.031 11.61-3.031 3.858-9.078 3.858-7.281 0-11.484-4.64-4.204-4.625-4.204-12.64V0H9.08v54.688h9.03v-8.5q3.235 4.937 7.594 7.374Q30.078 56 35.797 56q9.422 0 14.25-5.828 4.844-5.828 4.844-17.156z" stroke-linejoin="round"/><path id="Q" d="M10.688 12.406H21V0H10.687z" stroke-linejoin="round"/><path id="R" d="M32.172-5.078q-3.797-9.766-7.422-12.735-3.61-2.984-9.656-2.984H7.906v7.516h5.282q3.703 0 5.75 1.765Q21-9.766 23.483-3.219l1.61 4.094-22.11 53.813H12.5l17.094-42.766 17.093 42.766h9.516z" stroke-linejoin="round"/><path id="S" d="M8.016 75.875h7.812q7.313-11.516 10.953-22.563 3.64-11.03 3.64-21.921 0-10.938-3.64-22.016-3.64-11.078-10.953-22.563H8.016Q14.5-2 17.703 9.063q3.203 11.063 3.203 22.329 0 11.28-3.203 22.265-3.203 11-9.687 22.219z" stroke-linejoin="round"/><path id="U" d="M9.813 72.906h13.28l32.329-60.984v60.984h9.562V0h-13.28L19.39 60.984V0H9.813z" stroke-linejoin="round"/><clipPath id="T" stroke-linejoin="round"><path d="M71.1 307.152h440.82v199.08H71.1z"/></clipPath><clipPath id="a" stroke-linejoin="round"><path d="M71.1 68.256h440.82v199.08H71.1z"/></clipPath></defs><path d="M0 568.8h568.8V0H0z" fill="#fff"/><path d="M71.1 267.336h440.82V68.256H71.1z" fill="#fff"/><path clip-path="url(#a)" d="M71.1 267.336V68.256" fill="none" stroke="#b0b0b0" stroke-linecap="square" stroke-width=".8"/><use stroke="#000" stroke-width=".8" x="71.1" xlink:href="#b" y="267.336"/><g transform="matrix(.1 0 0 -.1 64.737 281.934)"><use xlink:href="#c"/><use x="63.623" xlink:href="#d"/></g><g transform="matrix(.1 0 0 -.1 61.666 293.132)"><use xlink:href="#e"/><use x="86.279" xlink:href="#f"/><use x="147.559" xlink:href="#g"/></g><g transform="matrix(.1 0 0 -.1 58.375 304.33)"><use xlink:href="#h"/><use x="63.623" xlink:href="#c"/><use x="127.246" xlink:href="#h"/><use x="190.869" xlink:href="#c"/></g><path clip-path="url(#a)" d="M511.92 267.336V68.256" fill="none" stroke="#b0b0b0" stroke-linecap="square" stroke-width=".8"/><use stroke="#000" stroke-width=".8" x="511.92" xlink:href="#b" y="267.336"/><g transform="matrix(.1 0 0 -.1 505.558 281.934)"><use xlink:href="#h"/><use x="63.623" xlink:href="#i"/></g><use stroke="#000" stroke-width=".6" x="71.1" xlink:href="#j" y="267.336"/><use stroke="#000" stroke-width=".6" x="87.427" xlink:href="#j" y="267.336"/><g transform="matrix(.1 0 0 -.1 81.064 280.334)"><use xlink:href="#c"/><use x="63.623" xlink:href="#h"/></g><use stroke="#000" stroke-width=".6" x="103.753" xlink:href="#j" y="267.336"/><g transform="matrix(.1 0 0 -.1 97.39 280.334)"><use xlink:href="#c"/><use x="63.623" xlink:href="#k"/></g><use stroke="#000" stroke-width=".6" x="120.08" xlink:href="#j" y="267.336"/><g transform="matrix(.1 0 0 -.1 113.718 280.334)"><use xlink:href="#c"/><use x="63.623" xlink:href="#l"/></g><use stroke="#000" stroke-width=".6" x="136.407" xlink:href="#j" y="267.336"/><g transform="matrix(.1 0 0 -.1 130.044 280.334)"><use xlink:href="#c"/><use x="63.623" xlink:href="#m"/></g><use stroke="#000" stroke-width=".6" x="152.733" xlink:href="#j" y="267.336"/><g transform="matrix(.1 0 0 -.1 146.37 280.334)"><use xlink:href="#c"/><use x="63.623" xlink:href="#n"/></g><use stroke="#000" stroke-width=".6" x="169.06" xlink:href="#j" y="267.336"/><g transform="matrix(.1 0 0 -.1 162.697 280.334)"><use xlink:href="#c"/><use x="63.623" xlink:href="#o"/></g><use stroke="#000" stroke-width=".6" x="185.387" xlink:href="#j" y="267.336"/><g transform="matrix(.1 0 0 -.1 179.024 280.334)"><use xlink:href="#c"/><use x="63.623" xlink:href="#i"/></g><use stroke="#000" stroke-width=".6" x="201.713" xlink:href="#j" y="267.336"/><g transform="matrix(.1 0 0 -.1 195.35 280.334)"><use xlink:href="#c"/><use x="63.623" xlink:href="#p"/></g><use stroke="#000" stroke-width=".6" x="218.04" xlink:href="#j" y="267.336"/><g transform="matrix(.1 0 0 -.1 211.678 280.334)"><use xlink:href="#d"/><use x="63.623" xlink:href="#c"/></g><use stroke="#000" stroke-width=".6" x="234.367" xlink:href="#j" y="267.336"/><g transform="matrix(.1 0 0 -.1 228.004 280.334)"><use xlink:href="#d"/><use x="63.623" xlink:href="#d"/></g><use stroke="#000" stroke-width=".6" x="250.693" xlink:href="#j" y="267.336"/><g transform="matrix(.1 0 0 -.1 244.33 280.334)"><use xlink:href="#d"/><use x="63.623" xlink:href="#h"/></g><g><use stroke="#000" stroke-width=".6" x="267.02" xlink:href="#j" y="267.336"/><g transform="matrix(.1 0 0 -.1 260.658 280.334)"><use xlink:href="#d"/><use x="63.623" xlink:href="#k"/></g></g><g><use stroke="#000" stroke-width=".6" x="283.347" xlink:href="#j" y="267.336"/><g transform="matrix(.1 0 0 -.1 276.984 280.334)"><use xlink:href="#d"/><use x="63.623" xlink:href="#l"/></g></g><g><use stroke="#000" stroke-width=".6" x="299.673" xlink:href="#j" y="267.336"/><g transform="matrix(.1 0 0 -.1 293.31 280.334)"><use xlink:href="#d"/><use x="63.623" xlink:href="#m"/></g></g><g><use stroke="#000" stroke-width=".6" x="316" xlink:href="#j" y="267.336"/><g transform="matrix(.1 0 0 -.1 309.637 280.334)"><use xlink:href="#d"/><use x="63.623" xlink:href="#n"/></g></g><g><use stroke="#000" stroke-width=".6" x="332.327" xlink:href="#j" y="267.336"/><g transform="matrix(.1 0 0 -.1 325.964 280.334)"><use xlink:href="#d"/><use x="63.623" xlink:href="#o"/></g></g><g><use stroke="#000" stroke-width=".6" x="348.653" xlink:href="#j" y="267.336"/><g transform="matrix(.1 0 0 -.1 342.29 280.334)"><use xlink:href="#d"/><use x="63.623" xlink:href="#i"/></g></g><g><use stroke="#000" stroke-width=".6" x="364.98" xlink:href="#j" y="267.336"/><g transform="matrix(.1 0 0 -.1 358.618 280.334)"><use xlink:href="#d"/><use x="63.623" xlink:href="#p"/></g></g><g><use stroke="#000" stroke-width=".6" x="381.307" xlink:href="#j" y="267.336"/><g transform="matrix(.1 0 0 -.1 374.944 280.334)"><use xlink:href="#h"/><use x="63.623" xlink:href="#c"/></g></g><g><use stroke="#000" stroke-width=".6" x="397.633" xlink:href="#j" y="267.336"/><g transform="matrix(.1 0 0 -.1 391.27 280.334)"><use xlink:href="#h"/><use x="63.623" xlink:href="#d"/></g></g><g><use stroke="#000" stroke-width=".6" x="413.96" xlink:href="#j" y="267.336"/><g transform="matrix(.1 0 0 -.1 407.598 280.334)"><use xlink:href="#h"/><use x="63.623" xlink:href="#h"/></g></g><g><use stroke="#000" stroke-width=".6" x="430.287" xlink:href="#j" y="267.336"/><g transform="matrix(.1 0 0 -.1 423.924 280.334)"><use xlink:href="#h"/><use x="63.623" xlink:href="#k"/></g></g><g><use stroke="#000" stroke-width=".6" x="446.613" xlink:href="#j" y="267.336"/><g transform="matrix(.1 0 0 -.1 440.25 280.334)"><use xlink:href="#h"/><use x="63.623" xlink:href="#l"/></g></g><g><use stroke="#000" stroke-width=".6" x="462.94" xlink:href="#j" y="267.336"/><g transform="matrix(.1 0 0 -.1 456.577 280.334)"><use xlink:href="#h"/><use x="63.623" xlink:href="#m"/></g></g><g><use stroke="#000" stroke-width=".6" x="479.267" xlink:href="#j" y="267.336"/><g transform="matrix(.1 0 0 -.1 472.904 280.334)"><use xlink:href="#h"/><use x="63.623" xlink:href="#n"/></g></g><g><use stroke="#000" stroke-width=".6" x="495.593" xlink:href="#j" y="267.336"/><g transform="matrix(.1 0 0 -.1 489.23 280.334)"><use xlink:href="#h"/><use x="63.623" xlink:href="#o"/></g></g><use stroke="#000" stroke-width=".6" x="511.92" xlink:href="#j" y="267.336"/><g><path clip-path="url(#a)" d="M71.1 267.336h440.82" fill="none" stroke="#b0b0b0" stroke-linecap="square" stroke-width=".8"/><use stroke="#000" stroke-width=".8" x="71.1" xlink:href="#q" y="267.336"/><g transform="matrix(.1 0 0 -.1 46.5 271.135)"><use transform="translate(0 .684)" xlink:href="#d"/><use transform="translate(63.623 .684)" xlink:href="#c"/><use transform="matrix(.7 0 0 .7 128.203 38.966)" xlink:href="#d"/></g><path clip-path="url(#a)" d="M71.1 221.484h440.82" fill="none" stroke="#b0b0b0" stroke-linecap="square" stroke-width=".8"/><use stroke="#000" stroke-width=".8" x="71.1" xlink:href="#q" y="221.484"/><g transform="matrix(.1 0 0 -.1 46.5 225.283)"><use transform="translate(0 .766)" xlink:href="#d"/><use transform="translate(63.623 .766)" xlink:href="#c"/><use transform="matrix(.7 0 0 .7 128.203 39.047)" xlink:href="#h"/></g><path clip-path="url(#a)" d="M71.1 175.631h440.82" fill="none" stroke="#b0b0b0" stroke-linecap="square" stroke-width=".8"/><use stroke="#000" stroke-width=".8" x="71.1" xlink:href="#q" y="175.631"/><g transform="matrix(.1 0 0 -.1 46.5 179.43)"><use transform="translate(0 .766)" xlink:href="#d"/><use transform="translate(63.623 .766)" xlink:href="#c"/><use transform="matrix(.7 0 0 .7 128.203 39.047)" xlink:href="#k"/></g><g><path clip-path="url(#a)" d="M71.1 129.779h440.82" fill="none" stroke="#b0b0b0" stroke-linecap="square" stroke-width=".8"/><use stroke="#000" stroke-width=".8" x="71.1" xlink:href="#q" y="129.779"/><g transform="matrix(.1 0 0 -.1 46.5 133.578)"><use transform="translate(0 .684)" xlink:href="#d"/><use transform="translate(63.623 .684)" xlink:href="#c"/><use transform="matrix(.7 0 0 .7 128.203 38.966)" xlink:href="#l"/></g></g><g><path clip-path="url(#a)" d="M71.1 83.926h440.82" fill="none" stroke="#b0b0b0" stroke-linecap="square" stroke-width=".8"/><use stroke="#000" stroke-width=".8" x="71.1" xlink:href="#q" y="83.926"/><g transform="matrix(.1 0 0 -.1 46.5 87.726)"><use transform="translate(0 .684)" xlink:href="#d"/><use transform="translate(63.623 .684)" xlink:href="#c"/><use transform="matrix(.7 0 0 .7 128.203 38.966)" xlink:href="#m"/></g></g><g stroke="#000" stroke-width=".6"><use x="71.1" xlink:href="#r" y="253.533"/><use x="71.1" xlink:href="#r" y="245.459"/><use x="71.1" xlink:href="#r" y="239.73"/><use x="71.1" xlink:href="#r" y="235.287"/><use x="71.1" xlink:href="#r" y="231.656"/><use x="71.1" xlink:href="#r" y="228.586"/><use x="71.1" xlink:href="#r" y="225.927"/><use x="71.1" xlink:href="#r" y="223.582"/><use x="71.1" xlink:href="#r" y="207.681"/><use x="71.1" xlink:href="#r" y="199.606"/><use x="71.1" xlink:href="#r" y="193.878"/><use x="71.1" xlink:href="#r" y="189.434"/><use x="71.1" xlink:href="#r" y="185.804"/><use x="71.1" xlink:href="#r" y="182.734"/><use x="71.1" xlink:href="#r" y="180.075"/><use x="71.1" xlink:href="#r" y="177.729"/><use x="71.1" xlink:href="#r" y="161.828"/><use x="71.1" xlink:href="#r" y="153.754"/><use x="71.1" xlink:href="#r" y="148.025"/><use x="71.1" xlink:href="#r" y="143.582"/><use x="71.1" xlink:href="#r" y="139.951"/><use x="71.1" xlink:href="#r" y="136.881"/><use x="71.1" xlink:href="#r" y="134.222"/><use x="71.1" xlink:href="#r" y="131.877"/><use x="71.1" xlink:href="#r" y="115.976"/><use x="71.1" xlink:href="#r" y="107.902"/><use x="71.1" xlink:href="#r" y="102.173"/><use x="71.1" xlink:href="#r" y="97.729"/><use x="71.1" xlink:href="#r" y="94.099"/><use x="71.1" xlink:href="#r" y="91.029"/><use x="71.1" xlink:href="#r" y="88.37"/><use x="71.1" xlink:href="#r" y="86.025"/><use x="71.1" xlink:href="#r" y="70.123"/></g><g transform="matrix(0 -.1 -.1 0 40.42 194.143)"><use xlink:href="#s"/><use x="98.799" xlink:href="#t"/><use x="159.98" xlink:href="#g"/><use x="201.094" xlink:href="#u"/><use x="228.877" xlink:href="#v"/><use x="292.354" xlink:href="#w"/><use x="374.141" xlink:href="#x"/><use x="401.924" xlink:href="#v"/><use x="465.4" xlink:href="#y"/></g></g><g stroke="#1f77b4"><path clip-path="url(#a)" d="M-1 235.122l6.793-.996 16.327-.372 16.327-.365 16.326-2.386 16.327-1.84 16.327-5.134 16.326-3.893 16.327-4.48 16.327-8.075 16.326-4.816 16.327-8.485 16.327-5.162 16.326-2.467 16.327-9.424 16.327-5.831 16.326-5.26 16.327-5.468 16.327-4.519 16.326-5.027L316 145.548l16.327-6.556 16.326-3.648 16.327-11.352 16.327-6.688 16.326-5.784 16.327-5.708 16.327-5.132 16.326-3.993 16.327-4.02" fill="none" stroke-linecap="square" stroke-width="1.5"/><g clip-path="url(#a)" fill="#1f77b4"><use x="-1" xlink:href="#z" y="235.122"/><use x="5.793" xlink:href="#z" y="234.126"/><use x="22.12" xlink:href="#z" y="233.754"/><use x="38.447" xlink:href="#z" y="233.389"/><use x="54.773" xlink:href="#z" y="231.003"/><use x="71.1" xlink:href="#z" y="229.163"/><use x="87.427" xlink:href="#z" y="224.029"/><use x="103.753" xlink:href="#z" y="220.136"/><use x="120.08" xlink:href="#z" y="215.656"/><use x="136.407" xlink:href="#z" y="207.581"/><use x="152.733" xlink:href="#z" y="202.765"/><use x="169.06" xlink:href="#z" y="194.28"/><use x="185.387" xlink:href="#z" y="189.118"/><use x="201.713" xlink:href="#z" y="186.651"/><use x="218.04" xlink:href="#z" y="177.227"/><use x="234.367" xlink:href="#z" y="171.396"/><use x="250.693" xlink:href="#z" y="166.135"/><use x="267.02" xlink:href="#z" y="160.668"/><use x="283.347" xlink:href="#z" y="156.149"/><use x="299.673" xlink:href="#z" y="151.122"/><use x="316" xlink:href="#z" y="145.548"/><use x="332.327" xlink:href="#z" y="138.992"/><use x="348.653" xlink:href="#z" y="135.344"/><use x="364.98" xlink:href="#z" y="123.992"/><use x="381.307" xlink:href="#z" y="117.304"/><use x="397.633" xlink:href="#z" y="111.52"/><use x="413.96" xlink:href="#z" y="105.812"/><use x="430.287" xlink:href="#z" y="100.68"/><use x="446.613" xlink:href="#z" y="96.687"/><use x="462.94" xlink:href="#z" y="92.666"/></g></g><g stroke="#ff7f0e"><path clip-path="url(#a)" d="M-1 194.908l6.793-2.838 16.327-6.033 16.327-6.478 16.326-4.956L71.1 166.56l16.327-3.017 16.326-4.175 16.327-3.56 16.327-3.928 16.326-3.432 16.327-5.108 16.327-4.634 16.326-4.446 16.327-1.922 16.327-3.7h16.326l16.327-6.874 16.327-3.412 16.326-2.968L316 113.13l16.327-2.426 16.326-1.927 16.327-2.888 16.327-2.98 16.326-2.028 16.327-1.766 16.327-1.551 16.326-1.378 16.327-1.247" fill="none" stroke-linecap="square" stroke-width="1.5"/><g clip-path="url(#a)" fill="#ff7f0e"><use x="-1" xlink:href="#A" y="194.908"/><use x="5.793" xlink:href="#A" y="192.07"/><use x="22.12" xlink:href="#A" y="186.037"/><use x="38.447" xlink:href="#A" y="179.559"/><use x="54.773" xlink:href="#A" y="174.603"/><use x="71.1" xlink:href="#A" y="166.56"/><use x="87.427" xlink:href="#A" y="163.543"/><use x="103.753" xlink:href="#A" y="159.368"/><use x="120.08" xlink:href="#A" y="155.808"/><use x="136.407" xlink:href="#A" y="151.88"/><use x="152.733" xlink:href="#A" y="148.448"/><use x="169.06" xlink:href="#A" y="143.34"/><use x="185.387" xlink:href="#A" y="138.706"/><use x="201.713" xlink:href="#A" y="134.26"/><use x="218.04" xlink:href="#A" y="132.338"/><use x="234.367" xlink:href="#A" y="128.637"/><use x="250.693" xlink:href="#A" y="128.637"/><use x="267.02" xlink:href="#A" y="121.764"/><use x="283.347" xlink:href="#A" y="118.352"/><use x="299.673" xlink:href="#A" y="115.384"/><use x="316" xlink:href="#A" y="113.13"/><use x="332.327" xlink:href="#A" y="110.704"/><use x="348.653" xlink:href="#A" y="108.777"/><use x="364.98" xlink:href="#A" y="105.889"/><use x="381.307" xlink:href="#A" y="102.909"/><use x="397.633" xlink:href="#A" y="100.881"/><use x="413.96" xlink:href="#A" y="99.115"/><use x="430.287" xlink:href="#A" y="97.564"/><use x="446.613" xlink:href="#A" y="96.186"/><use x="462.94" xlink:href="#A" y="94.939"/></g></g><path clip-path="url(#a)" d="M-1 273.82l6.793-8.382 16.327-3.327 16.327-16.652 16.326-7.169L71.1 225.435l16.327-7.247 16.326-6.311 16.327-5.912 16.327-3.044 16.326-8.692 16.327-3.134 16.327-6.136 16.326-9.585 16.327-9.448 16.327-4.492 16.326.01 16.327-17.484 16.327-2.914 16.326-4.142L316 131.723l16.327-2.313 16.326-3.6 16.327-5.423 16.327-2.067 16.326-4.128 16.327-2.437 16.327-3.498 16.326-2.423 16.327-3.909" fill="none" stroke="#2ca02c" stroke-linecap="square" stroke-width="1.5"/><g stroke="#d62728"><path clip-path="url(#a)" d="M-1 275.192l6.793-11.487L22.12 245.46l16.327-1.285 16.326-13.49 16.327-11.81 16.327-4.513 16.326-4.582 16.327-6.22 16.327-12.722 16.326-6.72 16.327-3.564 16.327-5.355 16.326-2.454 16.327-4.333 16.327-5.35 16.326-1.724 16.327-11.335 16.327-4.454 16.326-4.708L316 136.354l16.327-4.841 16.326-5.684 16.327-4.34 16.327-5.112 16.326-2.205 16.327-2.248 16.327-2.987 16.326-.759 16.327-2.515" fill="none" stroke-linecap="square" stroke-width="1.5"/><g clip-path="url(#a)" fill="#d62728"><use x="-1" xlink:href="#B" y="275.192"/><use x="5.793" xlink:href="#B" y="263.705"/><use x="22.12" xlink:href="#B" y="245.459"/><use x="38.447" xlink:href="#B" y="244.174"/><use x="54.773" xlink:href="#B" y="230.684"/><use x="71.1" xlink:href="#B" y="218.874"/><use x="87.427" xlink:href="#B" y="214.361"/><use x="103.753" xlink:href="#B" y="209.779"/><use x="120.08" xlink:href="#B" y="203.558"/><use x="136.407" xlink:href="#B" y="190.837"/><use x="152.733" xlink:href="#B" y="184.118"/><use x="169.06" xlink:href="#B" y="180.553"/><use x="185.387" xlink:href="#B" y="175.198"/><use x="201.713" xlink:href="#B" y="172.744"/><use x="218.04" xlink:href="#B" y="168.411"/><use x="234.367" xlink:href="#B" y="163.06"/><use x="250.693" xlink:href="#B" y="161.337"/><use x="267.02" xlink:href="#B" y="150.002"/><use x="283.347" xlink:href="#B" y="145.548"/><use x="299.673" xlink:href="#B" y="140.84"/><use x="316" xlink:href="#B" y="136.354"/><use x="332.327" xlink:href="#B" y="131.513"/><use x="348.653" xlink:href="#B" y="125.829"/><use x="364.98" xlink:href="#B" y="121.489"/><use x="381.307" xlink:href="#B" y="116.377"/><use x="397.633" xlink:href="#B" y="114.172"/><use x="413.96" xlink:href="#B" y="111.924"/><use x="430.287" xlink:href="#B" y="108.937"/><use x="446.613" xlink:href="#B" y="108.178"/><use x="462.94" xlink:href="#B" y="105.663"/></g></g><g stroke="#9467bd"><path clip-path="url(#a)" d="M-1 288.731l6.793-7.592 16.327-32.05 16.327-11.257 16.326-13.345 16.327-5.959 16.327-8.302 16.326-1.313 16.327-7.135 16.327-5.747 16.326-11.262 16.327-7.607 16.327-3.338 16.326-1.455 16.327-7.756 16.327-4.899h16.326l16.327-9.457 16.327-4.025 16.326-.15L316 138.388l16.327-2.941 16.326-3.33 16.327-3.557 16.327-2.692 16.326-2.408 16.327.585 16.327-4.896 16.326-1.33 16.327-2.198" fill="none" stroke-linecap="square" stroke-width="1.5"/><g clip-path="url(#a)" fill="#9467bd"><use x="-1" xlink:href="#C" y="288.731"/><use x="5.793" xlink:href="#C" y="281.139"/><use x="22.12" xlink:href="#C" y="249.089"/><use x="38.447" xlink:href="#C" y="237.832"/><use x="54.773" xlink:href="#C" y="224.487"/><use x="71.1" xlink:href="#C" y="218.528"/><use x="87.427" xlink:href="#C" y="210.226"/><use x="103.753" xlink:href="#C" y="208.913"/><use x="120.08" xlink:href="#C" y="201.778"/><use x="136.407" xlink:href="#C" y="196.031"/><use x="152.733" xlink:href="#C" y="184.769"/><use x="169.06" xlink:href="#C" y="177.162"/><use x="185.387" xlink:href="#C" y="173.824"/><use x="201.713" xlink:href="#C" y="172.369"/><use x="218.04" xlink:href="#C" y="164.613"/><use x="234.367" xlink:href="#C" y="159.714"/><use x="250.693" xlink:href="#C" y="159.714"/><use x="267.02" xlink:href="#C" y="150.257"/><use x="283.347" xlink:href="#C" y="146.232"/><use x="299.673" xlink:href="#C" y="146.082"/><use x="316" xlink:href="#C" y="138.388"/><use x="332.327" xlink:href="#C" y="135.447"/><use x="348.653" xlink:href="#C" y="132.117"/><use x="364.98" xlink:href="#C" y="128.56"/><use x="381.307" xlink:href="#C" y="125.868"/><use x="397.633" xlink:href="#C" y="123.46"/><use x="413.96" xlink:href="#C" y="124.045"/><use x="430.287" xlink:href="#C" y="119.149"/><use x="446.613" xlink:href="#C" y="117.819"/><use x="462.94" xlink:href="#C" y="115.621"/></g></g><path clip-path="url(#a)" d="M462.94 92.666l16.327-4.249 16.326-4.249 16.327-4.249" fill="none" stroke="#1f77b4" stroke-dasharray="1.5 2.475" stroke-width="1.5"/><path clip-path="url(#a)" d="M462.94 94.939l16.327-1.359 16.326-1.359 16.327-1.359" fill="none" stroke="#ff7f0e" stroke-dasharray="1.5 2.475" stroke-width="1.5"/><path clip-path="url(#a)" d="M462.94 101.925l16.327-3.29 16.326-3.29 16.327-3.29" fill="none" stroke="#2ca02c" stroke-dasharray="1.5 2.475" stroke-width="1.5"/><path clip-path="url(#a)" d="M462.94 105.663l16.327-1.99 16.326-1.989 16.327-1.989" fill="none" stroke="#d62728" stroke-dasharray="1.5 2.475" stroke-width="1.5"/><path clip-path="url(#a)" d="M462.94 115.62l16.327-2.466 16.326-2.466 16.327-2.466" fill="none" stroke="#9467bd" stroke-dasharray="1.5 2.475" stroke-width="1.5"/><path d="M71.1 267.336V68.256M511.92 267.336V68.256M71.1 267.336h440.82M71.1 68.256h440.82" fill="none" stroke="#000" stroke-linecap="square" stroke-linejoin="miter" stroke-width=".8"/><g transform="matrix(.12 0 0 -.12 169.73 62.256)"><path d="M34.188 63.188L20.797 26.906h26.812zm-5.579 9.718h11.188L67.578 0h-10.25l-6.64 18.703h-32.86L11.188 0H.78z"/><use x="68.393" xlink:href="#D"/><use x="123.373" xlink:href="#E"/><use x="162.582" xlink:href="#x"/><path d="M193.35 54.688h9.515L219.96 8.797l17.094 45.89h9.515L226.053 0H213.85z"/><use x="249.545" xlink:href="#y"/><use x="342.855" xlink:href="#F"/><path d="M452.086 66.219q-10.75 0-17.078-8.016-6.313-8-6.313-21.828 0-13.766 6.313-21.781 6.328-8 17.078-8 10.734 0 17.016 8 6.28 8.015 6.28 21.781 0 13.828-6.28 21.828-6.282 8.016-17.016 8.016zm0 8q15.328 0 24.5-10.281 9.187-10.282 9.187-27.563 0-17.234-9.187-27.516-9.172-10.28-24.5-10.28-15.375 0-24.594 10.25-9.203 10.265-9.203 27.546t9.203 27.563q9.219 10.28 24.594 10.28zM519.984 0l-27.828 72.906h10.297l23.11-61.375 23.14 61.375h10.25L531.172 0z"/><use x="559.783" xlink:href="#G"/><path d="M608.947 64.797V8.109h11.922q15.094 0 22.094 6.829 7 6.843 7 21.593 0 14.64-7 21.453-7 6.813-22.094 6.813zm-9.86 8.11h20.267q21.187 0 31.093-8.813 9.922-8.813 9.922-27.563 0-18.86-9.969-27.703Q640.447 0 619.354 0h-20.266z"/><use x="666.277" xlink:href="#H"/><use x="702.361" xlink:href="#d"/><use x="765.984" xlink:href="#p"/><use x="861.395" xlink:href="#D"/><use x="916.375" xlink:href="#f"/><use x="977.654" xlink:href="#I"/><use x="1029.754" xlink:href="#y"/><use x="1091.277" xlink:href="#I"/><use x="1175.164" xlink:href="#f"/><use x="1236.443" xlink:href="#I"/><use x="1320.33" xlink:href="#t"/><use x="1381.512" xlink:href="#J"/><use x="1448.504" xlink:href="#h"/><use x="1512.127" xlink:href="#c"/><use x="1575.75" xlink:href="#h"/><use x="1639.373" xlink:href="#c"/><use x="1702.996" xlink:href="#H"/><use x="1739.08" xlink:href="#c"/><use x="1802.703" xlink:href="#k"/><use x="1866.326" xlink:href="#H"/><use x="1902.41" xlink:href="#h"/><use x="1966.033" xlink:href="#m"/></g><g><path d="M318.351 262.336H504.92q2 0 2-2v-72.39q0-2-2-2H318.351q-2 0-2 2v72.39q0 2 2 2z" fill="#fff" opacity=".8" stroke="#ccc" stroke-linejoin="miter"/><path d="M320.351 194.044h20" fill="none" stroke="#1f77b4" stroke-linecap="square" stroke-width="1.5"/><use fill="#1f77b4" stroke="#1f77b4" x="330.351" xlink:href="#z" y="194.044"/><g transform="matrix(.1 0 0 -.1 348.351 197.544)"><use xlink:href="#K"/><use x="73.193" xlink:href="#L"/><use x="168.457" xlink:href="#M"/><use x="207.471" xlink:href="#v"/><use x="270.947" xlink:href="#t"/><use x="332.129" xlink:href="#N"/><use x="395.508" xlink:href="#O"/><use x="458.984" xlink:href="#u"/><use x="486.768" xlink:href="#y"/><use x="548.291" xlink:href="#I"/><use x="632.178" xlink:href="#x"/><use x="659.961" xlink:href="#P"/><use x="755.127" xlink:href="#k"/><use x="818.75" xlink:href="#Q"/><use x="850.537" xlink:href="#h"/><use x="945.947" xlink:href="#v"/><use x="1009.424" xlink:href="#f"/><use x="1070.703" xlink:href="#R"/><use x="1129.883" xlink:href="#I"/><use x="1181.982" xlink:href="#S"/></g><path d="M320.351 208.722h20" fill="none" stroke="#ff7f0e" stroke-linecap="square" stroke-width="1.5"/><use fill="#ff7f0e" stroke="#ff7f0e" x="330.351" xlink:href="#A" y="208.722"/><g transform="matrix(.1 0 0 -.1 348.351 212.222)"><use xlink:href="#G"/><use x="29.492" xlink:href="#E"/><use x="68.701" xlink:href="#f"/><use x="129.98" xlink:href="#u"/><use x="157.764" xlink:href="#R"/><use x="248.73" xlink:href="#M"/><use x="287.744" xlink:href="#v"/><use x="351.221" xlink:href="#t"/><use x="412.402" xlink:href="#N"/><use x="475.781" xlink:href="#O"/><use x="539.258" xlink:href="#u"/><use x="567.041" xlink:href="#y"/><use x="628.564" xlink:href="#I"/><use x="712.451" xlink:href="#x"/><use x="740.234" xlink:href="#P"/><use x="835.4" xlink:href="#d"/><use x="899.023" xlink:href="#c"/><use x="962.646" xlink:href="#Q"/><use x="994.434" xlink:href="#h"/><use x="1089.844" xlink:href="#v"/><use x="1153.32" xlink:href="#f"/><use x="1214.6" xlink:href="#R"/><use x="1273.779" xlink:href="#I"/><use x="1325.879" xlink:href="#S"/></g><path d="M320.351 223.4h20" fill="none" stroke="#2ca02c" stroke-linecap="square" stroke-width="1.5"/><g transform="matrix(.1 0 0 -.1 348.351 226.9)"><use xlink:href="#L"/><path d="M81.586 8.203v-29h-9.031v75.484h9.03v-8.296q2.845 4.875 7.157 7.234Q93.07 56 99.07 56q9.97 0 16.188-7.906 6.234-7.907 6.234-20.797t-6.234-20.813q-6.219-7.906-16.188-7.906-6 0-10.328 2.375-4.312 2.375-7.156 7.25zm30.578 19.094q0 9.906-4.078 15.547-4.078 5.64-11.203 5.64-7.14 0-11.219-5.64-4.078-5.64-4.078-15.547 0-9.906 4.078-15.547 4.078-5.64 11.219-5.64 7.125 0 11.203 5.64 4.078 5.64 4.078 15.547z"/><use x="126.953" xlink:href="#f"/><use x="188.232" xlink:href="#x"/><use x="216.016" xlink:href="#P"/><use x="311.182" xlink:href="#M"/><use x="350.195" xlink:href="#v"/><use x="413.672" xlink:href="#t"/><use x="474.854" xlink:href="#N"/><use x="538.232" xlink:href="#O"/><use x="601.709" xlink:href="#u"/><use x="629.492" xlink:href="#y"/><use x="691.016" xlink:href="#I"/><use x="774.902" xlink:href="#x"/><use x="802.686" xlink:href="#P"/><use x="897.852" xlink:href="#l"/><use x="961.475" xlink:href="#Q"/><use x="993.262" xlink:href="#h"/><use x="1088.672" xlink:href="#v"/><use x="1152.148" xlink:href="#f"/><use x="1213.428" xlink:href="#R"/><use x="1272.607" xlink:href="#I"/><use x="1324.707" xlink:href="#S"/></g><path d="M320.351 238.078h20" fill="none" stroke="#d62728" stroke-linecap="square" stroke-width="1.5"/><use fill="#d62728" stroke="#d62728" x="330.351" xlink:href="#B" y="238.078"/><g transform="matrix(.1 0 0 -.1 348.351 241.578)"><path d="M59.516 10.406v19.578h-16.11v8.11h25.875V6.78Q63.578 2.734 56.687.656 49.813-1.422 42-1.422q-17.094 0-26.75 9.985-9.64 10-9.64 27.812 0 17.875 9.64 27.86 9.656 9.984 26.75 9.984 7.125 0 13.547-1.766 6.422-1.75 11.844-5.172v-10.5q-5.47 4.64-11.625 6.985-6.157 2.343-12.938 2.343-13.39 0-20.11-7.468-6.702-7.47-6.702-22.266 0-14.75 6.703-22.219 6.718-7.469 20.11-7.469 5.218 0 9.312.907 4.109.906 7.375 2.812z"/><use x="77.49" xlink:href="#y"/><use x="139.014" xlink:href="#g"/><path d="M232.111 44.188q3.375 6.062 8.063 8.937Q244.86 56 251.205 56q8.547 0 13.188-5.984 4.64-5.97 4.64-17V0h-9.031v32.719q0 7.86-2.797 11.656-2.781 3.813-8.484 3.813-6.985 0-11.047-4.641-4.047-4.625-4.047-12.64V0h-9.031v32.719q0 7.906-2.782 11.687-2.78 3.782-8.593 3.782-6.89 0-10.953-4.657-4.047-4.656-4.047-12.625V0h-9.032v54.688h9.032v-8.5q3.078 5.03 7.375 7.421Q209.893 56 215.799 56q5.969 0 10.14-3.031 4.172-3.016 6.172-8.782z"/><use x="277.523" xlink:href="#f"/><use x="338.803" xlink:href="#P"/><use x="402.182" xlink:href="#R"/><use x="493.148" xlink:href="#M"/><use x="532.162" xlink:href="#v"/><use x="595.639" xlink:href="#t"/><use x="656.82" xlink:href="#N"/><use x="720.199" xlink:href="#O"/><use x="783.676" xlink:href="#u"/><use x="811.459" xlink:href="#y"/><use x="872.982" xlink:href="#I"/><use x="956.869" xlink:href="#x"/><use x="984.652" xlink:href="#P"/><use x="1079.818" xlink:href="#n"/><use x="1143.441" xlink:href="#Q"/><use x="1175.229" xlink:href="#p"/><use x="1270.639" xlink:href="#v"/><use x="1334.115" xlink:href="#f"/><use x="1395.395" xlink:href="#R"/><use x="1454.574" xlink:href="#I"/><use x="1506.674" xlink:href="#S"/></g><path d="M320.351 252.756h20" fill="none" stroke="#9467bd" stroke-linecap="square" stroke-width="1.5"/><use fill="#9467bd" stroke="#9467bd" x="330.351" xlink:href="#C" y="252.756"/><g transform="matrix(.1 0 0 -.1 348.351 256.256)"><path d="M9.813 72.906h41.89v-8.312H19.672V43.109h28.906v-8.297H19.672V0h-9.86z"/><use x="57.41" xlink:href="#g"/><use x="98.523" xlink:href="#f"/><use x="159.803" xlink:href="#P"/><use x="223.182" xlink:href="#D"/><use x="278.162" xlink:href="#y"/><use x="371.473" xlink:href="#M"/><use x="410.486" xlink:href="#v"/><use x="473.963" xlink:href="#t"/><use x="535.145" xlink:href="#N"/><use x="598.523" xlink:href="#O"/><use x="662" xlink:href="#u"/><use x="689.783" xlink:href="#y"/><use x="751.307" xlink:href="#I"/><use x="835.193" xlink:href="#x"/><use x="862.977" xlink:href="#P"/><use x="958.143" xlink:href="#m"/><use x="1021.766" xlink:href="#Q"/><use x="1053.553" xlink:href="#n"/><use x="1148.963" xlink:href="#v"/><use x="1212.439" xlink:href="#f"/><use x="1273.719" xlink:href="#R"/><use x="1332.898" xlink:href="#I"/><use x="1384.998" xlink:href="#S"/></g></g><g><path d="M71.1 506.232h440.82v-199.08H71.1z" fill="#fff"/><path clip-path="url(#T)" d="M71.1 506.232v-199.08" fill="none" stroke="#b0b0b0" stroke-linecap="square" stroke-width=".8"/><use stroke="#000" stroke-width=".8" x="71.1" xlink:href="#b" y="506.232"/><g transform="matrix(.1 0 0 -.1 64.737 520.83)"><use xlink:href="#c"/><use x="63.623" xlink:href="#d"/></g><g transform="matrix(.1 0 0 -.1 61.666 532.028)"><use xlink:href="#e"/><use x="86.279" xlink:href="#f"/><use x="147.559" xlink:href="#g"/></g><g transform="matrix(.1 0 0 -.1 58.375 543.226)"><use xlink:href="#h"/><use x="63.623" xlink:href="#c"/><use x="127.246" xlink:href="#h"/><use x="190.869" xlink:href="#c"/></g><path clip-path="url(#T)" d="M511.92 506.232v-199.08" fill="none" stroke="#b0b0b0" stroke-linecap="square" stroke-width=".8"/><use stroke="#000" stroke-width=".8" x="511.92" xlink:href="#b" y="506.232"/><g transform="matrix(.1 0 0 -.1 505.558 520.83)"><use xlink:href="#h"/><use x="63.623" xlink:href="#i"/></g><use stroke="#000" stroke-width=".6" x="71.1" xlink:href="#j" y="506.232"/><use stroke="#000" stroke-width=".6" x="87.427" xlink:href="#j" y="506.232"/><g transform="matrix(.1 0 0 -.1 81.064 519.23)"><use xlink:href="#c"/><use x="63.623" xlink:href="#h"/></g><use stroke="#000" stroke-width=".6" x="103.753" xlink:href="#j" y="506.232"/><g transform="matrix(.1 0 0 -.1 97.39 519.23)"><use xlink:href="#c"/><use x="63.623" xlink:href="#k"/></g><use stroke="#000" stroke-width=".6" x="120.08" xlink:href="#j" y="506.232"/><g transform="matrix(.1 0 0 -.1 113.718 519.23)"><use xlink:href="#c"/><use x="63.623" xlink:href="#l"/></g><use stroke="#000" stroke-width=".6" x="136.407" xlink:href="#j" y="506.232"/><g transform="matrix(.1 0 0 -.1 130.044 519.23)"><use xlink:href="#c"/><use x="63.623" xlink:href="#m"/></g><use stroke="#000" stroke-width=".6" x="152.733" xlink:href="#j" y="506.232"/><g transform="matrix(.1 0 0 -.1 146.37 519.23)"><use xlink:href="#c"/><use x="63.623" xlink:href="#n"/></g><use stroke="#000" stroke-width=".6" x="169.06" xlink:href="#j" y="506.232"/><g transform="matrix(.1 0 0 -.1 162.697 519.23)"><use xlink:href="#c"/><use x="63.623" xlink:href="#o"/></g><use stroke="#000" stroke-width=".6" x="185.387" xlink:href="#j" y="506.232"/><g transform="matrix(.1 0 0 -.1 179.024 519.23)"><use xlink:href="#c"/><use x="63.623" xlink:href="#i"/></g><use stroke="#000" stroke-width=".6" x="201.713" xlink:href="#j" y="506.232"/><g transform="matrix(.1 0 0 -.1 195.35 519.23)"><use xlink:href="#c"/><use x="63.623" xlink:href="#p"/></g><use stroke="#000" stroke-width=".6" x="218.04" xlink:href="#j" y="506.232"/><g transform="matrix(.1 0 0 -.1 211.678 519.23)"><use xlink:href="#d"/><use x="63.623" xlink:href="#c"/></g><use stroke="#000" stroke-width=".6" x="234.367" xlink:href="#j" y="506.232"/><g transform="matrix(.1 0 0 -.1 228.004 519.23)"><use xlink:href="#d"/><use x="63.623" xlink:href="#d"/></g><use stroke="#000" stroke-width=".6" x="250.693" xlink:href="#j" y="506.232"/><g transform="matrix(.1 0 0 -.1 244.33 519.23)"><use xlink:href="#d"/><use x="63.623" xlink:href="#h"/></g><g><use stroke="#000" stroke-width=".6" x="267.02" xlink:href="#j" y="506.232"/><g transform="matrix(.1 0 0 -.1 260.658 519.23)"><use xlink:href="#d"/><use x="63.623" xlink:href="#k"/></g></g><g><use stroke="#000" stroke-width=".6" x="283.347" xlink:href="#j" y="506.232"/><g transform="matrix(.1 0 0 -.1 276.984 519.23)"><use xlink:href="#d"/><use x="63.623" xlink:href="#l"/></g></g><g><use stroke="#000" stroke-width=".6" x="299.673" xlink:href="#j" y="506.232"/><g transform="matrix(.1 0 0 -.1 293.31 519.23)"><use xlink:href="#d"/><use x="63.623" xlink:href="#m"/></g></g><g><use stroke="#000" stroke-width=".6" x="316" xlink:href="#j" y="506.232"/><g transform="matrix(.1 0 0 -.1 309.637 519.23)"><use xlink:href="#d"/><use x="63.623" xlink:href="#n"/></g></g><g><use stroke="#000" stroke-width=".6" x="332.327" xlink:href="#j" y="506.232"/><g transform="matrix(.1 0 0 -.1 325.964 519.23)"><use xlink:href="#d"/><use x="63.623" xlink:href="#o"/></g></g><g><use stroke="#000" stroke-width=".6" x="348.653" xlink:href="#j" y="506.232"/><g transform="matrix(.1 0 0 -.1 342.29 519.23)"><use xlink:href="#d"/><use x="63.623" xlink:href="#i"/></g></g><g><use stroke="#000" stroke-width=".6" x="364.98" xlink:href="#j" y="506.232"/><g transform="matrix(.1 0 0 -.1 358.618 519.23)"><use xlink:href="#d"/><use x="63.623" xlink:href="#p"/></g></g><g><use stroke="#000" stroke-width=".6" x="381.307" xlink:href="#j" y="506.232"/><g transform="matrix(.1 0 0 -.1 374.944 519.23)"><use xlink:href="#h"/><use x="63.623" xlink:href="#c"/></g></g><g><use stroke="#000" stroke-width=".6" x="397.633" xlink:href="#j" y="506.232"/><g transform="matrix(.1 0 0 -.1 391.27 519.23)"><use xlink:href="#h"/><use x="63.623" xlink:href="#d"/></g></g><g><use stroke="#000" stroke-width=".6" x="413.96" xlink:href="#j" y="506.232"/><g transform="matrix(.1 0 0 -.1 407.598 519.23)"><use xlink:href="#h"/><use x="63.623" xlink:href="#h"/></g></g><g><use stroke="#000" stroke-width=".6" x="430.287" xlink:href="#j" y="506.232"/><g transform="matrix(.1 0 0 -.1 423.924 519.23)"><use xlink:href="#h"/><use x="63.623" xlink:href="#k"/></g></g><g><use stroke="#000" stroke-width=".6" x="446.613" xlink:href="#j" y="506.232"/><g transform="matrix(.1 0 0 -.1 440.25 519.23)"><use xlink:href="#h"/><use x="63.623" xlink:href="#l"/></g></g><g><use stroke="#000" stroke-width=".6" x="462.94" xlink:href="#j" y="506.232"/><g transform="matrix(.1 0 0 -.1 456.577 519.23)"><use xlink:href="#h"/><use x="63.623" xlink:href="#m"/></g></g><g><use stroke="#000" stroke-width=".6" x="479.267" xlink:href="#j" y="506.232"/><g transform="matrix(.1 0 0 -.1 472.904 519.23)"><use xlink:href="#h"/><use x="63.623" xlink:href="#n"/></g></g><g><use stroke="#000" stroke-width=".6" x="495.593" xlink:href="#j" y="506.232"/><g transform="matrix(.1 0 0 -.1 489.23 519.23)"><use xlink:href="#h"/><use x="63.623" xlink:href="#o"/></g></g><use stroke="#000" stroke-width=".6" x="511.92" xlink:href="#j" y="506.232"/><g><path clip-path="url(#T)" d="M71.1 506.232h440.82" fill="none" stroke="#b0b0b0" stroke-linecap="square" stroke-width=".8"/><use stroke="#000" stroke-width=".8" x="71.1" xlink:href="#q" y="506.232"/><g transform="matrix(.1 0 0 -.1 46.5 510.031)"><use transform="translate(0 .684)" xlink:href="#d"/><use transform="translate(63.623 .684)" xlink:href="#c"/><use transform="matrix(.7 0 0 .7 128.203 38.966)" xlink:href="#d"/></g><path clip-path="url(#T)" d="M71.1 456.444h440.82" fill="none" stroke="#b0b0b0" stroke-linecap="square" stroke-width=".8"/><use stroke="#000" stroke-width=".8" x="71.1" xlink:href="#q" y="456.444"/><g transform="matrix(.1 0 0 -.1 46.5 460.243)"><use transform="translate(0 .766)" xlink:href="#d"/><use transform="translate(63.623 .766)" xlink:href="#c"/><use transform="matrix(.7 0 0 .7 128.203 39.047)" xlink:href="#h"/></g><path clip-path="url(#T)" d="M71.1 406.655h440.82" fill="none" stroke="#b0b0b0" stroke-linecap="square" stroke-width=".8"/><use stroke="#000" stroke-width=".8" x="71.1" xlink:href="#q" y="406.655"/><g transform="matrix(.1 0 0 -.1 46.5 410.454)"><use transform="translate(0 .766)" xlink:href="#d"/><use transform="translate(63.623 .766)" xlink:href="#c"/><use transform="matrix(.7 0 0 .7 128.203 39.047)" xlink:href="#k"/></g><g><path clip-path="url(#T)" d="M71.1 356.867h440.82" fill="none" stroke="#b0b0b0" stroke-linecap="square" stroke-width=".8"/><use stroke="#000" stroke-width=".8" x="71.1" xlink:href="#q" y="356.867"/><g transform="matrix(.1 0 0 -.1 46.5 360.666)"><use transform="translate(0 .684)" xlink:href="#d"/><use transform="translate(63.623 .684)" xlink:href="#c"/><use transform="matrix(.7 0 0 .7 128.203 38.966)" xlink:href="#l"/></g></g><g><path clip-path="url(#T)" d="M71.1 307.079h440.82" fill="none" stroke="#b0b0b0" stroke-linecap="square" stroke-width=".8"/><use stroke="#000" stroke-width=".8" x="71.1" xlink:href="#q" y="307.079"/><g transform="matrix(.1 0 0 -.1 46.5 310.878)"><use transform="translate(0 .684)" xlink:href="#d"/><use transform="translate(63.623 .684)" xlink:href="#c"/><use transform="matrix(.7 0 0 .7 128.203 38.966)" xlink:href="#m"/></g></g><g stroke="#000" stroke-width=".6"><use x="71.1" xlink:href="#r" y="491.244"/><use x="71.1" xlink:href="#r" y="482.477"/><use x="71.1" xlink:href="#r" y="476.256"/><use x="71.1" xlink:href="#r" y="471.431"/><use x="71.1" xlink:href="#r" y="467.489"/><use x="71.1" xlink:href="#r" y="464.156"/><use x="71.1" xlink:href="#r" y="461.269"/><use x="71.1" xlink:href="#r" y="458.722"/><use x="71.1" xlink:href="#r" y="441.456"/><use x="71.1" xlink:href="#r" y="432.689"/><use x="71.1" xlink:href="#r" y="426.468"/><use x="71.1" xlink:href="#r" y="421.643"/><use x="71.1" xlink:href="#r" y="417.701"/><use x="71.1" xlink:href="#r" y="414.368"/><use x="71.1" xlink:href="#r" y="411.48"/><use x="71.1" xlink:href="#r" y="408.933"/><use x="71.1" xlink:href="#r" y="391.667"/><use x="71.1" xlink:href="#r" y="382.9"/><use x="71.1" xlink:href="#r" y="376.68"/><use x="71.1" xlink:href="#r" y="371.855"/><use x="71.1" xlink:href="#r" y="367.912"/><use x="71.1" xlink:href="#r" y="364.579"/><use x="71.1" xlink:href="#r" y="361.692"/><use x="71.1" xlink:href="#r" y="359.145"/><use x="71.1" xlink:href="#r" y="341.879"/><use x="71.1" xlink:href="#r" y="333.112"/><use x="71.1" xlink:href="#r" y="326.891"/><use x="71.1" xlink:href="#r" y="322.066"/><use x="71.1" xlink:href="#r" y="318.124"/><use x="71.1" xlink:href="#r" y="314.791"/><use x="71.1" xlink:href="#r" y="311.904"/><use x="71.1" xlink:href="#r" y="309.357"/></g><g transform="matrix(0 -.1 -.1 0 40.42 413.526)"><use xlink:href="#K"/><use x="73.193" xlink:href="#L"/></g></g><g stroke="#1f77b4"><path clip-path="url(#T)" d="M87.422 569.8l.005-13.78 16.326-14.987 16.327-36.862 16.327-15.949 16.326-9.687 16.327-16.157 16.327-7.194 16.326-6.323 16.327-4.27 16.327-5.196 16.326-8.636 16.327-5.397 16.327-4.691 16.326-7.181L316 407.606l16.327-12.335 16.326-8.246 16.327-16.556 16.327-9.49 16.326-7.414 16.327-6.428 16.327-6.029 16.326-4.457 16.327-3.936" fill="none" stroke-linecap="square" stroke-width="1.5"/><g clip-path="url(#T)" fill="#1f77b4"><use x="74.179" xlink:href="#z" y="40954.6"/><use x="87.427" xlink:href="#z" y="556.02"/><use x="103.753" xlink:href="#z" y="541.033"/><use x="120.08" xlink:href="#z" y="504.171"/><use x="136.407" xlink:href="#z" y="488.222"/><use x="152.733" xlink:href="#z" y="478.535"/><use x="169.06" xlink:href="#z" y="462.378"/><use x="185.387" xlink:href="#z" y="455.184"/><use x="201.713" xlink:href="#z" y="448.861"/><use x="218.04" xlink:href="#z" y="444.592"/><use x="234.367" xlink:href="#z" y="439.395"/><use x="250.693" xlink:href="#z" y="430.759"/><use x="267.02" xlink:href="#z" y="425.362"/><use x="283.347" xlink:href="#z" y="420.671"/><use x="299.673" xlink:href="#z" y="413.49"/><use x="316" xlink:href="#z" y="407.606"/><use x="332.327" xlink:href="#z" y="395.271"/><use x="348.653" xlink:href="#z" y="387.025"/><use x="364.98" xlink:href="#z" y="370.469"/><use x="381.307" xlink:href="#z" y="360.979"/><use x="397.633" xlink:href="#z" y="353.565"/><use x="413.96" xlink:href="#z" y="347.137"/><use x="430.287" xlink:href="#z" y="341.108"/><use x="446.613" xlink:href="#z" y="336.651"/><use x="462.94" xlink:href="#z" y="332.715"/></g></g><g stroke="#ff7f0e"><path clip-path="url(#T)" d="M136.397 569.8l.01-28.767h16.326l16.327-14.988 16.327-4.825h16.326l16.327-22.263 16.327-9.774 16.326-5.214h16.327l16.327-19.186 16.326-7.457L316 444.343l16.327-8.808 16.326-.082 16.327-22.081 16.327-3.928 16.326-8.644 16.327-7.955 16.327-8.584 16.326-5.489 16.327-3.856" fill="none" stroke-linecap="square" stroke-width="1.5"/><g clip-path="url(#T)" fill="#ff7f0e"><use x="123.158" xlink:href="#A" y="40954.6"/><use x="136.407" xlink:href="#A" y="541.033"/><use x="152.733" xlink:href="#A" y="541.033"/><use x="169.06" xlink:href="#A" y="526.045"/><use x="185.387" xlink:href="#A" y="521.22"/><use x="201.713" xlink:href="#A" y="521.22"/><use x="218.04" xlink:href="#A" y="498.957"/><use x="234.367" xlink:href="#A" y="489.183"/><use x="250.693" xlink:href="#A" y="483.969"/><use x="267.02" xlink:href="#A" y="483.969"/><use x="283.347" xlink:href="#A" y="464.783"/><use x="299.673" xlink:href="#A" y="457.326"/><use x="316" xlink:href="#A" y="444.343"/><use x="332.327" xlink:href="#A" y="435.535"/><use x="348.653" xlink:href="#A" y="435.453"/><use x="364.98" xlink:href="#A" y="413.372"/><use x="381.307" xlink:href="#A" y="409.444"/><use x="397.633" xlink:href="#A" y="400.8"/><use x="413.96" xlink:href="#A" y="392.845"/><use x="430.287" xlink:href="#A" y="384.261"/><use x="446.613" xlink:href="#A" y="378.772"/><use x="462.94" xlink:href="#A" y="374.916"/></g></g><path clip-path="url(#T)" d="M-1 511.057h6.793l16.327-2.547h16.327l16.326-2.278H71.1l16.327-13.879 16.326-4.13 16.327-7.142 16.327-8.767 16.326-3.333 16.327-7.44 16.327-3.988 16.326-1.325 16.327-7.06 16.327-4.45 16.326-4.42 16.327-5.49 16.327-4.115 16.326-4.969L316 419.82l16.327-4.825 16.326-1.77 16.327-5.092 16.327-4.574 16.326-3.231 16.327-4.05 16.327-5.343 16.326-3.987 16.327-3.558" fill="none" stroke="#2ca02c" stroke-linecap="square" stroke-width="1.5"/><g stroke="#d62728"><path clip-path="url(#T)" d="M54.757 569.8l.016-48.58L71.1 508.51l16.327-4.339 16.326-11.818 16.327-8.384 16.327-15.747 16.326-3.755 16.327-5.745 16.327-4.142 16.326.2 16.327-17.535 16.327-7.007 16.326-4.304 16.327-5.55 16.327-.163 16.326-2.592L316 410.043l16.327-3.816 16.326 1.333 16.327-6.611 16.327-2.193 16.326-3.562 16.327-2.417 16.327-2.288 16.326-1 16.327-2.28" fill="none" stroke-linecap="square" stroke-width="1.5"/><g clip-path="url(#T)" fill="#d62728"><use x="41.524" xlink:href="#B" y="40954.6"/><use x="54.773" xlink:href="#B" y="521.22"/><use x="71.1" xlink:href="#B" y="508.51"/><use x="87.427" xlink:href="#B" y="504.171"/><use x="103.753" xlink:href="#B" y="492.353"/><use x="120.08" xlink:href="#B" y="483.969"/><use x="136.407" xlink:href="#B" y="468.222"/><use x="152.733" xlink:href="#B" y="464.467"/><use x="169.06" xlink:href="#B" y="458.722"/><use x="185.387" xlink:href="#B" y="454.58"/><use x="201.713" xlink:href="#B" y="454.78"/><use x="218.04" xlink:href="#B" y="437.245"/><use x="234.367" xlink:href="#B" y="430.238"/><use x="250.693" xlink:href="#B" y="425.934"/><use x="267.02" xlink:href="#B" y="420.383"/><use x="283.347" xlink:href="#B" y="420.221"/><use x="299.673" xlink:href="#B" y="417.629"/><use x="316" xlink:href="#B" y="410.043"/><use x="332.327" xlink:href="#B" y="406.227"/><use x="348.653" xlink:href="#B" y="407.56"/><use x="364.98" xlink:href="#B" y="400.949"/><use x="381.307" xlink:href="#B" y="398.756"/><use x="397.633" xlink:href="#B" y="395.194"/><use x="413.96" xlink:href="#B" y="392.777"/><use x="430.287" xlink:href="#B" y="390.489"/><use x="446.613" xlink:href="#B" y="389.489"/><use x="462.94" xlink:href="#B" y="387.209"/></g></g><g stroke="#9467bd"><path clip-path="url(#T)" d="M234.357 569.8l.01-28.767h16.326l16.327-44.964 16.327-9.65 16.326-6.003L316 470.171l16.327-4.413 16.326-5.285 16.327-29.91 16.327-10.941 16.326-7.677 16.327-5.845 16.327-5.35 16.326-6.429 16.327-5.23" fill="none" stroke-linecap="square" stroke-width="1.5"/><g clip-path="url(#T)" fill="#9467bd"><use x="221.118" xlink:href="#C" y="40954.6"/><use x="234.367" xlink:href="#C" y="541.033"/><use x="250.693" xlink:href="#C" y="541.033"/><use x="267.02" xlink:href="#C" y="496.069"/><use x="283.347" xlink:href="#C" y="486.419"/><use x="299.673" xlink:href="#C" y="480.416"/><use x="316" xlink:href="#C" y="470.171"/><use x="332.327" xlink:href="#C" y="465.758"/><use x="348.653" xlink:href="#C" y="460.473"/><use x="364.98" xlink:href="#C" y="430.562"/><use x="381.307" xlink:href="#C" y="419.622"/><use x="397.633" xlink:href="#C" y="411.945"/><use x="413.96" xlink:href="#C" y="406.1"/><use x="430.287" xlink:href="#C" y="400.751"/><use x="446.613" xlink:href="#C" y="394.321"/><use x="462.94" xlink:href="#C" y="389.092"/></g></g><path clip-path="url(#T)" d="M462.94 332.715l16.327-4.57 16.326-4.572 16.327-4.57" fill="none" stroke="#1f77b4" stroke-dasharray="1.5 2.475" stroke-width="1.5"/><path clip-path="url(#T)" d="M462.94 374.916l16.327-5.453 16.326-5.452 16.327-5.453" fill="none" stroke="#ff7f0e" stroke-dasharray="1.5 2.475" stroke-width="1.5"/><path clip-path="url(#T)" d="M462.94 383.389l16.327-4.094 16.326-4.094 16.327-4.094" fill="none" stroke="#2ca02c" stroke-dasharray="1.5 2.475" stroke-width="1.5"/><path clip-path="url(#T)" d="M462.94 387.209l16.327-1.825 16.326-1.824 16.327-1.825" fill="none" stroke="#d62728" stroke-dasharray="1.5 2.475" stroke-width="1.5"/><path clip-path="url(#T)" d="M462.94 389.092l16.327-5.684 16.326-5.684 16.327-5.683" fill="none" stroke="#9467bd" stroke-dasharray="1.5 2.475" stroke-width="1.5"/><path d="M71.1 506.232v-199.08M511.92 506.232v-199.08M71.1 506.232h440.82M71.1 307.152h440.82" fill="none" stroke="#000" stroke-linecap="square" stroke-linejoin="miter" stroke-width=".8"/><g><path d="M78.1 388.543h199.827q2 0 2-2v-72.391q0-2-2-2H78.1q-2 0-2 2v72.39q0 2 2 2z" fill="#fff" opacity=".8" stroke="#ccc" stroke-linejoin="miter"/><path d="M80.1 320.25h20" fill="none" stroke="#1f77b4" stroke-linecap="square" stroke-width="1.5"/><use fill="#1f77b4" stroke="#1f77b4" x="90.1" xlink:href="#z" y="320.25"/><g transform="matrix(.1 0 0 -.1 108.1 323.75)"><use xlink:href="#U"/><use x="74.805" xlink:href="#y"/><use x="136.328" xlink:href="#w"/><path d="M249.7 72.906h10.609l20.203-29.984 20.078 29.984h10.594L285.402 34.72V0h-9.906v34.719z"/><use x="310.783" xlink:href="#t"/><use x="371.965" xlink:href="#g"/><path d="M422.156 75.984h9.031V31.11L458 54.687h11.469l-29-25.578L470.703 0h-11.719l-27.796 26.703V0h-9.032z"/><use x="502.775" xlink:href="#M"/><use x="541.789" xlink:href="#v"/><use x="605.266" xlink:href="#t"/><use x="666.447" xlink:href="#N"/><use x="729.826" xlink:href="#O"/><use x="793.303" xlink:href="#u"/><use x="821.086" xlink:href="#y"/><use x="882.609" xlink:href="#I"/><use x="966.496" xlink:href="#x"/><use x="994.279" xlink:href="#P"/><use x="1089.445" xlink:href="#k"/><use x="1153.068" xlink:href="#Q"/><use x="1184.855" xlink:href="#k"/><use x="1280.266" xlink:href="#v"/><use x="1343.742" xlink:href="#f"/><use x="1405.021" xlink:href="#R"/><use x="1464.201" xlink:href="#I"/><use x="1516.301" xlink:href="#S"/></g><path d="M80.1 334.929h20" fill="none" stroke="#ff7f0e" stroke-linecap="square" stroke-width="1.5"/><use fill="#ff7f0e" stroke="#ff7f0e" x="90.1" xlink:href="#A" y="334.929"/><g transform="matrix(.1 0 0 -.1 108.1 338.429)"><use xlink:href="#U"/><use x="74.805" xlink:href="#y"/><use x="136.328" xlink:href="#w"/><path d="M259.715 72.906h9.86V5.078q0-13.187-5-19.14-5-5.954-16.095-5.954h-3.75v8.297h3.079q6.53 0 9.218 3.672 2.688 3.656 2.688 13.125z"/><use x="279.395" xlink:href="#y"/><use x="340.918" xlink:href="#g"/><use x="382.031" xlink:href="#I"/><use x="434.131" xlink:href="#y"/><use x="495.654" xlink:href="#R"/><use x="586.621" xlink:href="#M"/><use x="625.635" xlink:href="#v"/><use x="689.111" xlink:href="#t"/><use x="750.293" xlink:href="#N"/><use x="813.672" xlink:href="#O"/><use x="877.148" xlink:href="#u"/><use x="904.932" xlink:href="#y"/><use x="966.455" xlink:href="#I"/><use x="1050.342" xlink:href="#x"/><use x="1078.125" xlink:href="#P"/><use x="1173.291" xlink:href="#h"/><use x="1236.914" xlink:href="#Q"/><use x="1268.701" xlink:href="#o"/><use x="1364.111" xlink:href="#v"/><use x="1427.588" xlink:href="#f"/><use x="1488.867" xlink:href="#R"/><use x="1548.047" xlink:href="#I"/><use x="1600.146" xlink:href="#S"/></g><path d="M80.1 349.607h20" fill="none" stroke="#2ca02c" stroke-linecap="square" stroke-width="1.5"/><g transform="matrix(.1 0 0 -.1 108.1 353.107)"><use xlink:href="#F"/><use x="69.824" xlink:href="#f"/><use x="131.104" xlink:href="#u"/><use x="158.887" xlink:href="#x"/><use x="186.67" xlink:href="#J"/><use x="221.875" xlink:href="#t"/><use x="283.057" xlink:href="#g"/><use x="324.154" xlink:href="#P"/><use x="387.533" xlink:href="#x"/><use x="415.316" xlink:href="#f"/><use x="508.383" xlink:href="#M"/><use x="547.396" xlink:href="#v"/><use x="610.873" xlink:href="#t"/><use x="672.055" xlink:href="#N"/><use x="735.434" xlink:href="#O"/><use x="798.91" xlink:href="#u"/><use x="826.693" xlink:href="#y"/><use x="888.217" xlink:href="#I"/><use x="972.104" xlink:href="#x"/><use x="999.887" xlink:href="#P"/><use x="1095.053" xlink:href="#k"/><use x="1158.676" xlink:href="#Q"/><use x="1190.463" xlink:href="#o"/><use x="1285.873" xlink:href="#v"/><use x="1349.35" xlink:href="#f"/><use x="1410.629" xlink:href="#R"/><use x="1469.809" xlink:href="#I"/><use x="1521.908" xlink:href="#S"/></g><path d="M80.1 364.285h20" fill="none" stroke="#d62728" stroke-linecap="square" stroke-width="1.5"/><use fill="#d62728" stroke="#d62728" x="90.1" xlink:href="#B" y="364.285"/><g transform="matrix(.1 0 0 -.1 108.1 367.785)"><use xlink:href="#s"/><use x="98.783" xlink:href="#f"/><use x="160.063" xlink:href="#I"/><use x="212.162" xlink:href="#V"/><use x="275.541" xlink:href="#x"/><use x="303.324" xlink:href="#P"/><use x="366.703" xlink:href="#W"/><use x="430.18" xlink:href="#E"/><use x="469.389" xlink:href="#t"/><use x="530.57" xlink:href="#P"/><use x="625.736" xlink:href="#M"/><use x="664.75" xlink:href="#v"/><use x="728.227" xlink:href="#t"/><use x="789.408" xlink:href="#N"/><use x="852.787" xlink:href="#O"/><use x="916.264" xlink:href="#u"/><use x="944.047" xlink:href="#y"/><use x="1005.57" xlink:href="#I"/><use x="1089.457" xlink:href="#x"/><use x="1117.24" xlink:href="#P"/><use x="1212.406" xlink:href="#i"/><use x="1276.029" xlink:href="#Q"/><use x="1307.816" xlink:href="#h"/><use x="1403.227" xlink:href="#v"/><use x="1466.703" xlink:href="#f"/><use x="1527.982" xlink:href="#R"/><use x="1587.162" xlink:href="#I"/><use x="1639.262" xlink:href="#S"/></g><path d="M80.1 378.963h20" fill="none" stroke="#9467bd" stroke-linecap="square" stroke-width="1.5"/><use fill="#9467bd" stroke="#9467bd" x="90.1" xlink:href="#C" y="378.963"/><g transform="matrix(.1 0 0 -.1 108.1 382.463)"><use xlink:href="#e"/><use x="86.279" xlink:href="#x"/><use x="114.063" xlink:href="#D"/><use x="169.043" xlink:href="#V"/><use x="232.422" xlink:href="#x"/><use x="260.205" xlink:href="#W"/><use x="323.682" xlink:href="#f"/><use x="384.961" xlink:href="#P"/><use x="480.127" xlink:href="#M"/><use x="519.141" xlink:href="#v"/><use x="582.617" xlink:href="#t"/><use x="643.799" xlink:href="#N"/><use x="707.178" xlink:href="#O"/><use x="770.654" xlink:href="#u"/><use x="798.438" xlink:href="#y"/><use x="859.961" xlink:href="#I"/><use x="943.848" xlink:href="#x"/><use x="971.631" xlink:href="#P"/><use x="1066.797" xlink:href="#h"/><use x="1130.42" xlink:href="#Q"/><use x="1162.207" xlink:href="#n"/><use x="1257.617" xlink:href="#v"/><use x="1321.094" xlink:href="#f"/><use x="1382.373" xlink:href="#R"/><use x="1441.553" xlink:href="#I"/><use x="1493.652" xlink:href="#S"/></g></g></g></svg>