<svg height="758.4" stroke-linejoin="round" viewBox="0 0 568.8 568.8" width="758.4" xmlns="http://www.w3.org/2000/svg" xmlns:xlink="http://www.w3.org/1999/xlink"><defs><path id="x" d="M9.422 54.688h8.984V0H9.422zm0 21.296h8.984v-11.39H9.422z" stroke-linejoin="round"/><path id="V" d="M9.813 72.906h13.28l32.329-60.984v60.984h9.562V0h-13.28L19.39 60.984V0H9.813z" stroke-linejoin="round"/><path id="b" d="M0 0v3.5" stroke="#000" stroke-linejoin="round" stroke-width=".8"/><path id="c" d="M9.813 72.906h14.703l18.593-49.61 18.703 49.61h14.704V0H66.89v64.016l-18.797-50h-9.907l-18.796 50V0H9.813z" stroke-linejoin="round"/><path id="d" d="M34.281 27.484q-10.89 0-15.093-2.484-4.204-2.484-4.204-8.5 0-4.781 3.157-7.594 3.156-2.797 8.562-2.797 7.485 0 12 5.297 4.516 5.297 4.516 14.078v2zm17.922 3.72V0H43.22v8.297Q40.14 3.328 35.547.953q-4.594-2.375-11.234-2.375-8.391 0-13.36 4.719Q6 8.016 6 15.922q0 9.219 6.172 13.906 6.187 4.688 18.437 4.688h12.61v.89q0 6.203-4.078 9.594-4.078 3.39-11.453 3.39-4.688 0-9.141-1.124-4.438-1.125-8.531-3.375v8.312q4.921 1.906 9.562 2.844 4.64.953 9.031.953 11.875 0 17.735-6.156 5.86-6.14 5.86-18.64z" stroke-linejoin="round"/><path id="e" d="M41.11 46.297q-1.516.875-3.297 1.281Q36.03 48 33.89 48q-7.625 0-11.703-4.953-4.079-4.953-4.079-14.234V0H9.08v54.688h9.03v-8.5q2.844 4.984 7.375 7.39Q30.031 56 36.531 56q.922 0 2.047-.125 1.125-.11 2.484-.36z" stroke-linejoin="round"/><path id="f" d="M19.188 8.297h34.421V0H7.33v8.297q5.609 5.812 15.296 15.594 9.703 9.797 12.188 12.64 4.734 5.313 6.609 9 1.89 3.688 1.89 7.25 0 5.813-4.078 9.469-4.078 3.672-10.625 3.672-4.64 0-9.797-1.61-5.14-1.609-11-4.89v9.969Q13.767 71.78 18.938 73q5.188 1.219 9.485 1.219 11.328 0 18.062-5.672 6.735-5.656 6.735-15.125 0-4.5-1.688-8.531-1.672-4.016-6.125-9.485-1.218-1.422-7.765-8.187-6.532-6.766-18.453-18.922z" stroke-linejoin="round"/><path id="g" d="M31.781 66.406q-7.61 0-11.453-7.5Q16.5 51.422 16.5 36.375q0-14.984 3.828-22.484 3.844-7.5 11.453-7.5 7.672 0 11.5 7.5 3.844 7.5 3.844 22.484 0 15.047-3.844 22.531-3.828 7.5-11.5 7.5zm0 7.813q12.266 0 18.735-9.703 6.468-9.688 6.468-28.141 0-18.406-6.468-28.11-6.47-9.687-18.735-9.687-12.25 0-18.718 9.688-6.47 9.703-6.47 28.109 0 18.453 6.47 28.14Q19.53 74.22 31.78 74.22z" stroke-linejoin="round"/><path id="h" d="M34.188 63.188L20.797 26.906h26.812zm-5.579 9.718h11.188L67.578 0h-10.25l-6.64 18.703h-32.86L11.188 0H.78z" stroke-linejoin="round"/><path id="i" d="M18.11 8.203v-29H9.077v75.484h9.031v-8.296q2.844 4.875 7.157 7.234Q29.594 56 35.594 56q9.968 0 16.187-7.906 6.235-7.907 6.235-20.797T51.78 6.484q-6.218-7.906-16.187-7.906-6 0-10.328 2.375-4.313 2.375-7.157 7.25zm30.578 19.094q0 9.906-4.079 15.547-4.078 5.64-11.203 5.64-7.14 0-11.218-5.64-4.079-5.64-4.079-15.547 0-9.906 4.078-15.547 4.079-5.64 11.22-5.64 7.124 0 11.202 5.64t4.078 15.547z" stroke-linejoin="round"/><path id="j" d="M0 0v2" stroke="#000" stroke-linejoin="round" stroke-width=".6"/><path id="k" d="M10.984 1.516V10.5q3.72-1.766 7.516-2.688 3.813-.921 7.484-.921 9.766 0 14.907 6.562 5.156 6.563 5.89 19.953-2.828-4.203-7.187-6.453-4.344-2.25-9.61-2.25-10.937 0-17.312 6.61-6.375 6.625-6.375 18.109 0 11.219 6.64 18 6.641 6.797 17.672 6.797 12.657 0 19.313-9.703 6.672-9.688 6.672-28.141 0-17.234-8.188-27.516Q40.234-1.42 26.422-1.42q-3.719 0-7.531.734-3.797.734-7.907 2.203zM30.61 32.422q6.641 0 10.516 4.531 3.89 4.547 3.89 12.469 0 7.86-3.89 12.422-3.875 4.562-10.516 4.562-6.64 0-10.515-4.562-3.875-4.563-3.875-12.422 0-7.922 3.875-12.469 3.875-4.531 10.515-4.531z" stroke-linejoin="round"/><path id="l" d="M12.406 8.297h16.11v55.625l-17.532-3.516v8.985l17.438 3.515h9.86V8.296H54.39V0H12.406z" stroke-linejoin="round"/><path id="m" d="M33.016 40.375q-6.641 0-10.532-4.547-3.875-4.531-3.875-12.437 0-7.86 3.875-12.438 3.891-4.562 10.532-4.562 6.64 0 10.515 4.562 3.875 4.578 3.875 12.438 0 7.906-3.875 12.437-3.875 4.547-10.515 4.547zm19.578 30.922v-8.984q-3.719 1.75-7.5 2.671-3.782.938-7.5.938-9.766 0-14.922-6.594-5.14-6.594-5.875-19.922 2.875 4.25 7.219 6.516 4.359 2.266 9.578 2.266 10.984 0 17.36-6.672 6.374-6.657 6.374-18.125 0-11.235-6.64-18.032-6.641-6.78-17.672-6.78-12.657 0-19.344 9.687-6.688 9.703-6.688 28.109 0 17.281 8.204 27.563 8.203 10.28 22.015 10.28 3.719 0 7.5-.734t7.89-2.187z" stroke-linejoin="round"/><path id="n" d="M40.578 39.313Q47.656 37.797 51.625 33q3.984-4.781 3.984-11.813 0-10.78-7.422-16.703-7.421-5.906-21.093-5.906-4.578 0-9.438.906-4.86.907-10.031 2.72v9.515q4.094-2.39 8.969-3.61 4.89-1.218 10.218-1.218 9.266 0 14.125 3.656 4.86 3.656 4.86 10.64 0 6.454-4.516 10.079-4.515 3.64-12.562 3.64h-8.5v8.11h8.89q7.266 0 11.125 2.906 3.86 2.906 3.86 8.375 0 5.61-3.985 8.61-3.968 3.015-11.39 3.015-4.063 0-8.703-.89-4.641-.876-10.203-2.72v8.782q5.624 1.562 10.53 2.344 4.907.78 9.25.78 11.235 0 17.766-5.109 6.547-5.093 6.547-13.78 0-6.063-3.468-10.235-3.47-4.172-9.86-5.782z" stroke-linejoin="round"/><path id="o" d="M8.203 72.906h46.875v-4.203L28.61 0H18.312L43.22 64.594H8.203z" stroke-linejoin="round"/><path id="p" d="M0 0h-3.5" stroke="#000" stroke-linejoin="round" stroke-width=".8"/><path id="q" d="M37.797 64.313L12.89 25.39h24.906zm-2.594 8.593H47.61V25.391h10.407v-8.203H47.609V0h-9.812v17.188H4.89v9.515z" stroke-linejoin="round"/><path id="r" d="M10.797 72.906h38.719v-8.312H19.828v-17.86q2.14.735 4.281 1.094 2.157.36 4.313.36 12.203 0 19.328-6.688 7.14-6.688 7.14-18.11 0-11.765-7.328-18.296-7.328-6.516-20.656-6.516-4.593 0-9.36.781-4.75.782-9.827 2.344v9.922q4.39-2.39 9.078-3.563 4.687-1.171 9.906-1.171 8.453 0 13.375 4.437 4.938 4.438 4.938 12.063 0 7.609-4.938 12.047-4.922 4.453-13.375 4.453-3.953 0-7.89-.875-3.922-.875-8.016-2.735z" stroke-linejoin="round"/><path id="s" d="M0 0h-2" stroke="#000" stroke-linejoin="round" stroke-width=".6"/><path id="t" d="M30.61 48.39q-7.22 0-11.422-5.64-4.204-5.64-4.204-15.453 0-9.813 4.172-15.453 4.188-5.64 11.453-5.64 7.188 0 11.375 5.655 4.203 5.672 4.203 15.438 0 9.719-4.203 15.406-4.187 5.688-11.375 5.688zm0 7.61q11.718 0 18.406-7.625 6.703-7.61 6.703-21.078 0-13.422-6.703-21.078-6.688-7.64-18.407-7.64-11.765 0-18.437 7.64-6.656 7.656-6.656 21.078 0 13.469 6.656 21.078Q18.844 56 30.609 56z" stroke-linejoin="round"/><path id="u" d="M9.422 75.984h8.984V0H9.422z" stroke-linejoin="round"/><path id="v" d="M45.406 46.39v29.594h8.985V0h-8.985v8.203Q42.578 3.328 38.25.953q-4.313-2.375-10.375-2.375-9.906 0-16.14 7.906-6.22 7.922-6.22 20.813 0 12.89 6.22 20.797Q17.968 56 27.874 56q6.063 0 10.375-2.375 4.328-2.36 7.156-7.234zm-30.61-19.093q0-9.906 4.079-15.547 4.078-5.64 11.203-5.64 7.125 0 11.219 5.64 4.11 5.64 4.11 15.547 0 9.906-4.11 15.547-4.094 5.64-11.219 5.64-7.125 0-11.203-5.64-4.078-5.64-4.078-15.547z" stroke-linejoin="round"/><path id="w" d="M4.203 54.688h8.985l11.234-42.672 11.172 42.672h10.593l11.235-42.672 11.187 42.672h8.985L63.28 0H52.688L40.922 44.828 29.109 0H18.5z" stroke-linejoin="round"/><path id="T" d="M31.781 34.625q-7.031 0-11.062-3.766-4.016-3.765-4.016-10.343 0-6.594 4.016-10.36Q24.75 6.391 31.78 6.391q7.032 0 11.078 3.78 4.063 3.798 4.063 10.345 0 6.578-4.031 10.343-4.016 3.766-11.11 3.766zm-9.86 4.188q-6.343 1.562-9.89 5.906Q8.5 49.079 8.5 55.329q0 8.733 6.219 13.812 6.234 5.078 17.062 5.078 10.89 0 17.094-5.078 6.203-5.079 6.203-13.813 0-6.25-3.547-10.61-3.531-4.343-9.828-5.906 7.125-1.656 11.094-6.5 3.984-4.828 3.984-11.796 0-10.61-6.468-16.282-6.47-5.656-18.532-5.656-12.047 0-18.531 5.656-6.469 5.672-6.469 16.282 0 6.968 4 11.797 4.016 4.843 11.14 6.5zM18.314 54.39q0-5.657 3.53-8.828 3.548-3.172 9.938-3.172 6.36 0 9.938 3.172 3.593 3.171 3.593 8.828 0 5.672-3.593 8.843-3.578 3.172-9.938 3.172-6.39 0-9.937-3.172-3.532-3.172-3.532-8.843z" stroke-linejoin="round"/><path id="y" d="M56.203 29.594v-4.39H14.891q.593-9.282 5.593-14.142 5-4.859 13.938-4.859 5.172 0 10.031 1.266 4.86 1.265 9.656 3.812v-8.5Q49.266.734 44.187-.344 39.11-1.422 33.892-1.422q-13.094 0-20.735 7.61-7.64 7.625-7.64 20.625 0 13.421 7.25 21.296Q20.016 56 32.328 56q11.031 0 17.453-7.11 6.422-7.093 6.422-19.296zm-8.984 2.64q-.094 7.36-4.125 11.75-4.032 4.407-10.672 4.407-7.516 0-12.031-4.25-4.516-4.25-5.203-11.97z" stroke-linejoin="round"/><path id="z" d="M-3 0h6M0 3v-6" stroke="#1f77b4" stroke-linejoin="round"/><path id="A" d="M0 1.5a1.5 1.5 0 100-3 1.5 1.5 0 000 3z" stroke="#ff7f0e" stroke-linejoin="round"/><path id="B" d="M-3 0h6M0 3v-6" stroke="#d62728" stroke-linejoin="round"/><path id="C" d="M0 1.5a1.5 1.5 0 100-3 1.5 1.5 0 000 3z" stroke="#9467bd" stroke-linejoin="round"/><path id="D" d="M48.781 52.594v-8.407q-3.812 2.11-7.64 3.157-3.828 1.047-7.735 1.047-8.75 0-13.593-5.547-4.829-5.532-4.829-15.547 0-10.016 4.829-15.563 4.843-5.53 13.593-5.53 3.907 0 7.735 1.046 3.828 1.047 7.64 3.156V2.094Q45.016.344 40.984-.531q-4.015-.89-8.562-.89-12.36 0-19.64 7.765-7.266 7.765-7.266 20.953 0 13.375 7.343 21.031Q20.22 56 33.016 56q4.14 0 8.093-.86 3.953-.843 7.672-2.546z" stroke-linejoin="round"/><path id="E" d="M18.313 70.219V54.688h18.5v-6.985h-18.5V18.016q0-6.688 1.828-8.594 1.828-1.906 7.453-1.906h9.218V0h-9.218q-10.407 0-14.36 3.875-3.953 3.89-3.953 14.14v29.688H2.687v6.984h6.594V70.22z" stroke-linejoin="round"/><path id="F" d="M64.406 67.281v-10.39q-4.984 4.64-10.625 6.922-5.64 2.296-11.984 2.296-12.5 0-19.14-7.64-6.641-7.64-6.641-22.094 0-14.406 6.64-22.047 6.64-7.64 19.14-7.64 6.345 0 11.985 2.296 5.64 2.297 10.625 6.938V5.609Q59.234 2.094 53.437.33q-5.78-1.75-12.218-1.75-16.563 0-26.094 10.124-9.516 10.14-9.516 27.672 0 17.578 9.516 27.703 9.531 10.14 26.094 10.14 6.531 0 12.312-1.734 5.797-1.734 10.875-5.203z" stroke-linejoin="round"/><path id="G" d="M9.813 72.906h9.859V0h-9.86z" stroke-linejoin="round"/><path id="H" d="M4.89 31.39h26.313v-8H4.891z" stroke-linejoin="round"/><path id="I" d="M44.281 53.078v-8.5q-3.797 1.953-7.906 2.922-4.094.984-8.5.984-6.688 0-10.031-2.047-3.344-2.046-3.344-6.156 0-3.125 2.39-4.906 2.391-1.781 9.626-3.39l3.078-.688q9.562-2.047 13.593-5.781 4.032-3.735 4.032-10.422 0-7.625-6.032-12.078-6.03-4.438-16.578-4.438-4.39 0-9.156.86Q10.688.296 5.422 2v9.281q4.984-2.594 9.812-3.89 4.829-1.282 9.579-1.282 6.343 0 9.75 2.172 3.421 2.172 3.421 6.125 0 3.656-2.468 5.61-2.453 1.953-10.813 3.765l-3.125.735q-8.344 1.75-12.062 5.39-3.704 3.64-3.704 9.985 0 7.718 5.47 11.906Q16.75 56 26.811 56q4.97 0 9.36-.734 4.406-.72 8.11-2.188z" stroke-linejoin="round"/><path id="J" d="M37.11 75.984V68.5h-8.594q-4.828 0-6.72-1.953-1.874-1.953-1.874-7.031v-4.828h14.797v-6.985H19.922V0H10.89v47.703H2.297v6.984h8.594V58.5q0 9.125 4.25 13.297 4.25 4.187 13.468 4.187z" stroke-linejoin="round"/><path id="K" d="M8.688 72.906h9.921V28.61q0-11.718 4.235-16.875 4.25-5.14 13.781-5.14 9.469 0 13.719 5.14 4.25 5.157 4.25 16.875v44.297H64.5V27.391q0-14.25-7.063-21.532-7.046-7.28-20.812-7.28-13.828 0-20.89 7.28-7.047 7.282-7.047 21.532z" stroke-linejoin="round"/><path id="L" d="M53.516 70.516V60.89q-5.61 2.687-10.594 4-4.984 1.328-9.625 1.328-8.047 0-12.422-3.125t-4.375-8.89q0-4.845 2.906-7.313 2.907-2.453 11.016-3.97l5.953-1.218q11.031-2.11 16.281-7.406 5.25-5.297 5.25-14.172 0-10.61-7.11-16.078-7.093-5.469-20.812-5.469-5.172 0-11.015 1.172Q13.14.922 6.89 3.219v10.156q6-3.36 11.765-5.078 5.766-1.703 11.328-1.703 8.438 0 13.032 3.312 4.593 3.328 4.593 9.485 0 5.359-3.297 8.39-3.296 3.032-10.812 4.547L27.484 33.5q-11.03 2.188-15.968 6.875-4.922 4.688-4.922 13.047 0 9.672 6.812 15.234 6.813 5.563 18.766 5.563 5.14 0 10.453-.938 5.328-.922 10.89-2.765z" stroke-linejoin="round"/><path id="M" d="M31 75.875q-6.531-11.219-9.719-22.219-3.172-10.984-3.172-22.265 0-11.266 3.203-22.328Q24.517-2 31-13.188h-7.813Q15.875-1.704 12.235 9.375q-3.64 11.078-3.64 22.016 0 10.89 3.61 21.922 3.624 11.046 10.983 22.562z" stroke-linejoin="round"/><path id="N" d="M8.5 21.578v33.11h8.984V21.922q0-7.766 3.016-11.656 3.031-3.875 9.094-3.875 7.265 0 11.484 4.64 4.234 4.64 4.234 12.656v31h8.985V0h-8.984v8.406Q42.047 3.422 37.718 1q-4.313-2.422-10.032-2.422-9.421 0-14.312 5.86Q8.5 10.296 8.5 21.578z" stroke-linejoin="round"/><path id="O" d="M48.688 27.297q0 9.906-4.079 15.547-4.078 5.64-11.203 5.64-7.14 0-11.218-5.64-4.079-5.64-4.079-15.547 0-9.906 4.078-15.547 4.079-5.64 11.22-5.64 7.124 0 11.202 5.64t4.078 15.547zM18.108 46.39q2.844 4.875 7.157 7.234Q29.594 56 35.594 56q9.968 0 16.187-7.906 6.235-7.907 6.235-20.797T51.78 6.484q-6.218-7.906-16.187-7.906-6 0-10.328 2.375-4.313 2.375-7.157 7.25V0H9.08v75.984h9.03z" stroke-linejoin="round"/><path id="P" d="M54.89 33.016V0h-8.984v32.719q0 7.765-3.031 11.61-3.031 3.858-9.078 3.858-7.281 0-11.484-4.64-4.204-4.625-4.204-12.64V0H9.08v54.688h9.03v-8.5q3.235 4.937 7.594 7.374Q30.078 56 35.797 56q9.422 0 14.25-5.828 4.844-5.828 4.844-17.156z" stroke-linejoin="round"/><path id="Q" d="M10.688 12.406H21V0H10.687z" stroke-linejoin="round"/><path id="R" d="M32.172-5.078q-3.797-9.766-7.422-12.735-3.61-2.984-9.656-2.984H7.906v7.516h5.282q3.703 0 5.75 1.765Q21-9.766 23.483-3.219l1.61 4.094-22.11 53.813H12.5l17.094-42.766 17.093 42.766h9.516z" stroke-linejoin="round"/><path id="S" d="M8.016 75.875h7.812q7.313-11.516 10.953-22.563 3.64-11.03 3.64-21.921 0-10.938-3.64-22.016-3.64-11.078-10.953-22.563H8.016Q14.5-2 17.703 9.063q3.203 11.063 3.203 22.329 0 11.28-3.203 22.265-3.203 11-9.687 22.219z" stroke-linejoin="round"/><clipPath id="U" stroke-linejoin="round"><path d="M50.15 297.12H558v208.808H50.15z"/></clipPath><clipPath id="a" stroke-linejoin="round"><path d="M50.15 25.44H558v208.808H50.15z"/></clipPath></defs><path d="M0 568.8h568.8V0H0z" fill="#fff"/><path d="M50.15 234.248H558V25.44H50.15z" fill="#fff"/><path clip-path="url(#a)" d="M50.15 234.248V25.44" fill="none" stroke="#b0b0b0" stroke-linecap="square" stroke-width=".8"/><use stroke="#000" stroke-width=".8" x="50.15" xlink:href="#b" y="234.248"/><g transform="matrix(.1 0 0 -.1 40.717 271.242)"><use xlink:href="#c"/><use x="86.279" xlink:href="#d"/><use x="147.559" xlink:href="#e"/></g><g transform="matrix(.1 0 0 -.1 37.425 282.44)"><use xlink:href="#f"/><use x="63.623" xlink:href="#g"/><use x="127.246" xlink:href="#f"/><use x="190.869" xlink:href="#g"/></g><path clip-path="url(#a)" d="M321.587 234.248V25.44" fill="none" stroke="#b0b0b0" stroke-linecap="square" stroke-width=".8"/><use stroke="#000" stroke-width=".8" x="321.587" xlink:href="#b" y="234.248"/><g transform="matrix(.1 0 0 -.1 312.937 271.242)"><use xlink:href="#h"/><use x="68.408" xlink:href="#i"/><use x="131.885" xlink:href="#e"/></g><g stroke-width=".8"><path clip-path="url(#a)" d="M558 234.248V25.44" fill="none" stroke="#b0b0b0" stroke-linecap="square"/><use stroke="#000" x="558" xlink:href="#b" y="234.248"/></g><use stroke="#000" stroke-width=".6" x="58.906" xlink:href="#j" y="234.248"/><g transform="matrix(.1 0 0 -.1 52.544 247.246)"><use xlink:href="#g"/><use x="63.623" xlink:href="#f"/></g><g stroke="#000" stroke-width=".6"><use x="67.662" xlink:href="#j" y="234.248"/><use x="76.418" xlink:href="#j" y="234.248"/><use x="85.174" xlink:href="#j" y="234.248"/><use x="93.93" xlink:href="#j" y="234.248"/><use x="102.686" xlink:href="#j" y="234.248"/><use x="111.442" xlink:href="#j" y="234.248"/></g><use stroke="#000" stroke-width=".6" x="120.198" xlink:href="#j" y="234.248"/><g transform="matrix(.1 0 0 -.1 113.836 247.246)"><use xlink:href="#g"/><use x="63.623" xlink:href="#k"/></g><use stroke="#000" stroke-width=".6" x="128.954" xlink:href="#j" y="234.248"/><use stroke="#000" stroke-width=".6" x="137.711" xlink:href="#j" y="234.248"/><use stroke="#000" stroke-width=".6" x="146.467" xlink:href="#j" y="234.248"/><use stroke="#000" stroke-width=".6" x="155.223" xlink:href="#j" y="234.248"/><use stroke="#000" stroke-width=".6" x="163.979" xlink:href="#j" y="234.248"/><use stroke="#000" stroke-width=".6" x="172.735" xlink:href="#j" y="234.248"/><use stroke="#000" stroke-width=".6" x="181.491" xlink:href="#j" y="234.248"/><g transform="matrix(.1 0 0 -.1 175.128 247.246)"><use xlink:href="#l"/><use x="63.623" xlink:href="#m"/></g><use stroke="#000" stroke-width=".6" x="190.247" xlink:href="#j" y="234.248"/><use stroke="#000" stroke-width=".6" x="199.003" xlink:href="#j" y="234.248"/><use stroke="#000" stroke-width=".6" x="207.759" xlink:href="#j" y="234.248"/><use stroke="#000" stroke-width=".6" x="216.515" xlink:href="#j" y="234.248"/><use stroke="#000" stroke-width=".6" x="225.271" xlink:href="#j" y="234.248"/><use stroke="#000" stroke-width=".6" x="234.027" xlink:href="#j" y="234.248"/><use stroke="#000" stroke-width=".6" x="242.783" xlink:href="#j" y="234.248"/><g transform="matrix(.1 0 0 -.1 236.42 247.246)"><use xlink:href="#f"/><use x="63.623" xlink:href="#n"/></g><use stroke="#000" stroke-width=".6" x="251.539" xlink:href="#j" y="234.248"/><use stroke="#000" stroke-width=".6" x="260.295" xlink:href="#j" y="234.248"/><use stroke="#000" stroke-width=".6" x="269.051" xlink:href="#j" y="234.248"/><use stroke="#000" stroke-width=".6" x="277.807" xlink:href="#j" y="234.248"/><use stroke="#000" stroke-width=".6" x="286.563" xlink:href="#j" y="234.248"/><use stroke="#000" stroke-width=".6" x="295.319" xlink:href="#j" y="234.248"/><use stroke="#000" stroke-width=".6" x="304.075" xlink:href="#j" y="234.248"/><g transform="matrix(.1 0 0 -.1 297.713 247.246)"><use xlink:href="#n"/><use x="63.623" xlink:href="#g"/></g><use stroke="#000" stroke-width=".6" x="312.831" xlink:href="#j" y="234.248"/><use stroke="#000" stroke-width=".6" x="330.343" xlink:href="#j" y="234.248"/><use stroke="#000" stroke-width=".6" x="339.099" xlink:href="#j" y="234.248"/><use stroke="#000" stroke-width=".6" x="347.855" xlink:href="#j" y="234.248"/><use stroke="#000" stroke-width=".6" x="356.611" xlink:href="#j" y="234.248"/><use stroke="#000" stroke-width=".6" x="365.367" xlink:href="#j" y="234.248"/><g transform="matrix(.1 0 0 -.1 359.005 247.246)"><use xlink:href="#g"/><use x="63.623" xlink:href="#m"/></g><use stroke="#000" stroke-width=".6" x="374.123" xlink:href="#j" y="234.248"/><use stroke="#000" stroke-width=".6" x="382.879" xlink:href="#j" y="234.248"/><use stroke="#000" stroke-width=".6" x="391.635" xlink:href="#j" y="234.248"/><use stroke="#000" stroke-width=".6" x="400.391" xlink:href="#j" y="234.248"/><use stroke="#000" stroke-width=".6" x="409.147" xlink:href="#j" y="234.248"/><use stroke="#000" stroke-width=".6" x="417.904" xlink:href="#j" y="234.248"/><use stroke="#000" stroke-width=".6" x="426.66" xlink:href="#j" y="234.248"/><g transform="matrix(.1 0 0 -.1 420.297 247.246)"><use xlink:href="#l"/><use x="63.623" xlink:href="#n"/></g><use stroke="#000" stroke-width=".6" x="435.416" xlink:href="#j" y="234.248"/><use stroke="#000" stroke-width=".6" x="444.172" xlink:href="#j" y="234.248"/><use stroke="#000" stroke-width=".6" x="452.928" xlink:href="#j" y="234.248"/><use stroke="#000" stroke-width=".6" x="461.684" xlink:href="#j" y="234.248"/><use stroke="#000" stroke-width=".6" x="470.44" xlink:href="#j" y="234.248"/><use stroke="#000" stroke-width=".6" x="479.196" xlink:href="#j" y="234.248"/><g><use stroke="#000" stroke-width=".6" x="487.952" xlink:href="#j" y="234.248"/><g transform="matrix(.1 0 0 -.1 481.59 247.246)"><use xlink:href="#f"/><use x="63.623" xlink:href="#g"/></g></g><use stroke="#000" stroke-width=".6" x="496.708" xlink:href="#j" y="234.248"/><use stroke="#000" stroke-width=".6" x="505.464" xlink:href="#j" y="234.248"/><use stroke="#000" stroke-width=".6" x="514.22" xlink:href="#j" y="234.248"/><use stroke="#000" stroke-width=".6" x="522.976" xlink:href="#j" y="234.248"/><use stroke="#000" stroke-width=".6" x="531.732" xlink:href="#j" y="234.248"/><use stroke="#000" stroke-width=".6" x="540.488" xlink:href="#j" y="234.248"/><g><use stroke="#000" stroke-width=".6" x="549.244" xlink:href="#j" y="234.248"/><g transform="matrix(.1 0 0 -.1 542.881 247.246)"><use xlink:href="#f"/><use x="63.623" xlink:href="#o"/></g></g><g><path clip-path="url(#a)" d="M50.15 234.248H558" fill="none" stroke="#b0b0b0" stroke-linecap="square" stroke-width=".8"/><use stroke="#000" stroke-width=".8" x="50.15" xlink:href="#p" y="234.248"/><g transform="matrix(.1 0 0 -.1 25.55 238.047)"><use transform="translate(0 .684)" xlink:href="#l"/><use transform="translate(63.623 .684)" xlink:href="#g"/><use transform="matrix(.7 0 0 .7 128.203 38.966)" xlink:href="#l"/></g><path clip-path="url(#a)" d="M50.15 194.33H558" fill="none" stroke="#b0b0b0" stroke-linecap="square" stroke-width=".8"/><use stroke="#000" stroke-width=".8" x="50.15" xlink:href="#p" y="194.33"/><g transform="matrix(.1 0 0 -.1 25.55 198.129)"><use transform="translate(0 .766)" xlink:href="#l"/><use transform="translate(63.623 .766)" xlink:href="#g"/><use transform="matrix(.7 0 0 .7 128.203 39.047)" xlink:href="#f"/></g><path clip-path="url(#a)" d="M50.15 154.412H558" fill="none" stroke="#b0b0b0" stroke-linecap="square" stroke-width=".8"/><use stroke="#000" stroke-width=".8" x="50.15" xlink:href="#p" y="154.412"/><g transform="matrix(.1 0 0 -.1 25.55 158.21)"><use transform="translate(0 .766)" xlink:href="#l"/><use transform="translate(63.623 .766)" xlink:href="#g"/><use transform="matrix(.7 0 0 .7 128.203 39.047)" xlink:href="#n"/></g><g><path clip-path="url(#a)" d="M50.15 114.493H558" fill="none" stroke="#b0b0b0" stroke-linecap="square" stroke-width=".8"/><use stroke="#000" stroke-width=".8" x="50.15" xlink:href="#p" y="114.493"/><g transform="matrix(.1 0 0 -.1 25.55 118.292)"><use transform="translate(0 .684)" xlink:href="#l"/><use transform="translate(63.623 .684)" xlink:href="#g"/><use transform="matrix(.7 0 0 .7 128.203 38.966)" xlink:href="#q"/></g></g><g><path clip-path="url(#a)" d="M50.15 74.575H558" fill="none" stroke="#b0b0b0" stroke-linecap="square" stroke-width=".8"/><use stroke="#000" stroke-width=".8" x="50.15" xlink:href="#p" y="74.575"/><g transform="matrix(.1 0 0 -.1 25.55 78.374)"><use transform="translate(0 .684)" xlink:href="#l"/><use transform="translate(63.623 .684)" xlink:href="#g"/><use transform="matrix(.7 0 0 .7 128.203 38.966)" xlink:href="#r"/></g></g><g><path clip-path="url(#a)" d="M50.15 34.657H558" fill="none" stroke="#b0b0b0" stroke-linecap="square" stroke-width=".8"/><use stroke="#000" stroke-width=".8" x="50.15" xlink:href="#p" y="34.657"/><g transform="matrix(.1 0 0 -.1 25.55 38.456)"><use transform="translate(0 .766)" xlink:href="#l"/><use transform="translate(63.623 .766)" xlink:href="#g"/><use transform="matrix(.7 0 0 .7 128.203 39.047)" xlink:href="#m"/></g></g><g stroke="#000" stroke-width=".6"><use x="50.15" xlink:href="#s" y="222.231"/><use x="50.15" xlink:href="#s" y="215.202"/><use x="50.15" xlink:href="#s" y="210.215"/><use x="50.15" xlink:href="#s" y="206.346"/><use x="50.15" xlink:href="#s" y="203.186"/><use x="50.15" xlink:href="#s" y="200.513"/><use x="50.15" xlink:href="#s" y="198.198"/><use x="50.15" xlink:href="#s" y="196.156"/><use x="50.15" xlink:href="#s" y="182.313"/><use x="50.15" xlink:href="#s" y="175.284"/><use x="50.15" xlink:href="#s" y="170.297"/><use x="50.15" xlink:href="#s" y="166.428"/><use x="50.15" xlink:href="#s" y="163.267"/><use x="50.15" xlink:href="#s" y="160.595"/><use x="50.15" xlink:href="#s" y="158.28"/><use x="50.15" xlink:href="#s" y="156.238"/><use x="50.15" xlink:href="#s" y="142.395"/><use x="50.15" xlink:href="#s" y="135.366"/><use x="50.15" xlink:href="#s" y="130.378"/><use x="50.15" xlink:href="#s" y="126.51"/><use x="50.15" xlink:href="#s" y="123.349"/><use x="50.15" xlink:href="#s" y="120.677"/><use x="50.15" xlink:href="#s" y="118.362"/><use x="50.15" xlink:href="#s" y="116.32"/><use x="50.15" xlink:href="#s" y="102.477"/><use x="50.15" xlink:href="#s" y="95.447"/><use x="50.15" xlink:href="#s" y="90.46"/><use x="50.15" xlink:href="#s" y="86.592"/><use x="50.15" xlink:href="#s" y="83.431"/><use x="50.15" xlink:href="#s" y="80.758"/><use x="50.15" xlink:href="#s" y="78.444"/><use x="50.15" xlink:href="#s" y="76.402"/><use x="50.15" xlink:href="#s" y="62.558"/><use x="50.15" xlink:href="#s" y="55.529"/><use x="50.15" xlink:href="#s" y="50.542"/><use x="50.15" xlink:href="#s" y="46.673"/><use x="50.15" xlink:href="#s" y="43.513"/><use x="50.15" xlink:href="#s" y="40.84"/><use x="50.15" xlink:href="#s" y="38.525"/><use x="50.15" xlink:href="#s" y="36.483"/></g><g transform="matrix(0 -.1 -.1 0 19.47 156.19)"><path d="M3.328 72.906h9.953L28.61 11.281l15.282 61.625h11.093l15.328-61.625 15.282 61.625h10.015L77.297 0H64.89L49.516 63.281 33.984 0H21.578z"/><use x="98.799" xlink:href="#t"/><use x="159.98" xlink:href="#e"/><use x="201.094" xlink:href="#u"/><use x="228.877" xlink:href="#v"/><use x="292.354" xlink:href="#w"/><use x="374.141" xlink:href="#x"/><use x="401.924" xlink:href="#v"/><use x="465.4" xlink:href="#y"/></g></g><g stroke="#1f77b4"><path clip-path="url(#a)" d="M-1 207.112l7.37.307 8.756-2.083 8.756-.324 8.756-.318 8.756-2.077 8.756-1.601 8.756-4.47 8.756-3.39 8.756-3.9 8.756-7.03 8.756-4.192 8.756-7.387 8.756-4.494 8.756-2.148 8.756-8.204 8.757-5.077 8.756-4.58 8.756-4.76 8.756-3.933 8.756-4.377 8.756-4.853 8.756-5.707 8.756-3.176 8.756-9.882 8.756-5.823 8.756-5.05 8.756-5.008 8.756-4.413 8.756-3.476 8.756-3.502 8.756-4.157 8.756-3.314 8.756-3.061 8.756-2.38 8.756-2.093 8.756-2.53 8.756-2.103 8.756-2.31 8.756-2.145 8.756-1.72 8.756-1.41 8.756-1.412 8.756-1.264 8.756-1.34 8.756-1.23 8.756-1.183 8.756-.957 8.757-.912 8.756-.455 8.756-.678 8.756-.695 8.756-.74 8.756-.709 8.756-.683 8.756-.527 8.756-.574 8.756-.568 8.756-.591 8.756-.543 8.756-.355 8.756-.67" fill="none" stroke-linecap="square" stroke-width="1.5"/><g clip-path="url(#a)" fill="#1f77b4"><use x="-1" xlink:href="#z" y="207.112"/><use x="6.37" xlink:href="#z" y="207.419"/><use x="15.126" xlink:href="#z" y="205.336"/><use x="23.882" xlink:href="#z" y="205.012"/><use x="32.638" xlink:href="#z" y="204.694"/><use x="41.394" xlink:href="#z" y="202.617"/><use x="50.15" xlink:href="#z" y="201.016"/><use x="58.906" xlink:href="#z" y="196.546"/><use x="67.662" xlink:href="#z" y="193.157"/><use x="76.418" xlink:href="#z" y="189.256"/><use x="85.174" xlink:href="#z" y="182.227"/><use x="93.93" xlink:href="#z" y="178.034"/><use x="102.686" xlink:href="#z" y="170.647"/><use x="111.442" xlink:href="#z" y="166.153"/><use x="120.198" xlink:href="#z" y="164.005"/><use x="128.954" xlink:href="#z" y="155.801"/><use x="137.711" xlink:href="#z" y="150.724"/><use x="146.467" xlink:href="#z" y="146.145"/><use x="155.223" xlink:href="#z" y="141.385"/><use x="163.979" xlink:href="#z" y="137.451"/><use x="172.735" xlink:href="#z" y="133.074"/><use x="181.491" xlink:href="#z" y="128.221"/><use x="190.247" xlink:href="#z" y="122.514"/><use x="199.003" xlink:href="#z" y="119.338"/><use x="207.759" xlink:href="#z" y="109.456"/><use x="216.515" xlink:href="#z" y="103.633"/><use x="225.271" xlink:href="#z" y="98.583"/><use x="234.027" xlink:href="#z" y="93.575"/><use x="242.783" xlink:href="#z" y="89.162"/><use x="251.539" xlink:href="#z" y="85.686"/><use x="260.295" xlink:href="#z" y="82.184"/><use x="269.051" xlink:href="#z" y="78.027"/><use x="277.807" xlink:href="#z" y="74.713"/><use x="286.563" xlink:href="#z" y="71.652"/><use x="295.319" xlink:href="#z" y="69.273"/><use x="304.075" xlink:href="#z" y="67.179"/><use x="312.831" xlink:href="#z" y="64.649"/><use x="321.587" xlink:href="#z" y="62.546"/><use x="330.343" xlink:href="#z" y="60.236"/><use x="339.099" xlink:href="#z" y="58.091"/><use x="347.855" xlink:href="#z" y="56.37"/><use x="356.611" xlink:href="#z" y="54.96"/><use x="365.367" xlink:href="#z" y="53.549"/><use x="374.123" xlink:href="#z" y="52.285"/><use x="382.879" xlink:href="#z" y="50.945"/><use x="391.635" xlink:href="#z" y="49.715"/><use x="400.391" xlink:href="#z" y="48.532"/><use x="409.147" xlink:href="#z" y="47.575"/><use x="417.904" xlink:href="#z" y="46.663"/><use x="426.66" xlink:href="#z" y="46.208"/><use x="435.416" xlink:href="#z" y="45.53"/><use x="444.172" xlink:href="#z" y="44.835"/><use x="452.928" xlink:href="#z" y="44.095"/><use x="461.684" xlink:href="#z" y="43.386"/><use x="470.44" xlink:href="#z" y="42.703"/><use x="479.196" xlink:href="#z" y="42.176"/><use x="487.952" xlink:href="#z" y="41.602"/><use x="496.708" xlink:href="#z" y="41.034"/><use x="505.464" xlink:href="#z" y="40.443"/><use x="514.22" xlink:href="#z" y="39.9"/><use x="522.976" xlink:href="#z" y="39.545"/><use x="531.732" xlink:href="#z" y="38.875"/></g></g><g stroke="#ff7f0e"><path clip-path="url(#a)" d="M-1 246.265h16.126l8.756-5.834 8.756-9.344 8.756-3.868 8.756-10.82 8.756-2.316 8.756-5.122 8.756-10.1 8.756-5.541 8.756-6.363 8.756-3.386 8.756-5.264 8.756-2.965 8.756-3.122 8.757-3.258h8.756l8.756-10.11 8.756-6.14 8.756-.016 8.756-5.01 8.756-3.949 8.756-5.231 8.756-.056 8.756-7.04 8.756-4.07 8.756-2.048 8.756-2.65 8.756-3.393 8.756-2.995 8.756-3.542 8.756-3.844 8.756-2.674 8.756-2.27 8.756-2.186 8.756-2.064 8.756-2.61 8.756-2.216 8.756-2.008 8.756-1.464 8.756-2.276 8.756-1.29 8.756-1.028 8.756-1.53 8.756-1.09 8.756-2.13 8.756-1.114 8.757-1.111 8.756-.907 8.756-.967 8.756-.788 8.756-.746 8.756-.892 8.756-.828 8.756-.89 8.756-.686 8.756-.517 8.756-.555 8.756-.58 8.756-.654 8.756-.558" fill="none" stroke-linecap="square" stroke-width="1.5"/><g clip-path="url(#a)" fill="#ff7f0e"><use x="-1" xlink:href="#A" y="246.265"/><use x="6.37" xlink:href="#A" y="246.265"/><use x="15.126" xlink:href="#A" y="246.265"/><use x="23.882" xlink:href="#A" y="240.431"/><use x="32.638" xlink:href="#A" y="231.087"/><use x="41.394" xlink:href="#A" y="227.219"/><use x="50.15" xlink:href="#A" y="216.398"/><use x="58.906" xlink:href="#A" y="214.083"/><use x="67.662" xlink:href="#A" y="208.961"/><use x="76.418" xlink:href="#A" y="198.861"/><use x="85.174" xlink:href="#A" y="193.32"/><use x="93.93" xlink:href="#A" y="186.957"/><use x="102.686" xlink:href="#A" y="183.571"/><use x="111.442" xlink:href="#A" y="178.307"/><use x="120.198" xlink:href="#A" y="175.342"/><use x="128.954" xlink:href="#A" y="172.22"/><use x="137.711" xlink:href="#A" y="168.962"/><use x="146.467" xlink:href="#A" y="168.962"/><use x="155.223" xlink:href="#A" y="158.853"/><use x="163.979" xlink:href="#A" y="152.712"/><use x="172.735" xlink:href="#A" y="152.696"/><use x="181.491" xlink:href="#A" y="147.685"/><use x="190.247" xlink:href="#A" y="143.737"/><use x="199.003" xlink:href="#A" y="138.506"/><use x="207.759" xlink:href="#A" y="138.45"/><use x="216.515" xlink:href="#A" y="131.41"/><use x="225.271" xlink:href="#A" y="127.341"/><use x="234.027" xlink:href="#A" y="125.292"/><use x="242.783" xlink:href="#A" y="122.641"/><use x="251.539" xlink:href="#A" y="119.249"/><use x="260.295" xlink:href="#A" y="116.254"/><use x="269.051" xlink:href="#A" y="112.712"/><use x="277.807" xlink:href="#A" y="108.868"/><use x="286.563" xlink:href="#A" y="106.194"/><use x="295.319" xlink:href="#A" y="103.924"/><use x="304.075" xlink:href="#A" y="101.738"/><use x="312.831" xlink:href="#A" y="99.674"/><use x="321.587" xlink:href="#A" y="97.064"/><use x="330.343" xlink:href="#A" y="94.848"/><use x="339.099" xlink:href="#A" y="92.84"/><use x="347.855" xlink:href="#A" y="91.376"/><use x="356.611" xlink:href="#A" y="89.1"/><use x="365.367" xlink:href="#A" y="87.81"/><use x="374.123" xlink:href="#A" y="86.782"/><use x="382.879" xlink:href="#A" y="85.252"/><use x="391.635" xlink:href="#A" y="84.163"/><use x="400.391" xlink:href="#A" y="82.032"/><use x="409.147" xlink:href="#A" y="80.918"/><use x="417.904" xlink:href="#A" y="79.807"/><use x="426.66" xlink:href="#A" y="78.9"/><use x="435.416" xlink:href="#A" y="77.933"/><use x="444.172" xlink:href="#A" y="77.145"/><use x="452.928" xlink:href="#A" y="76.399"/><use x="461.684" xlink:href="#A" y="75.507"/><use x="470.44" xlink:href="#A" y="74.679"/><use x="479.196" xlink:href="#A" y="73.789"/><use x="487.952" xlink:href="#A" y="73.103"/><use x="496.708" xlink:href="#A" y="72.586"/><use x="505.464" xlink:href="#A" y="72.031"/><use x="514.22" xlink:href="#A" y="71.451"/><use x="522.976" xlink:href="#A" y="70.797"/><use x="531.732" xlink:href="#A" y="70.239"/></g></g><path clip-path="url(#a)" d="M-1 179.645l7.37-4.985 8.756-5.937 8.756-5.252 8.756-5.64 8.756-4.315 8.756-7.002 8.756-2.626 8.756-3.635 8.756-3.1 8.756-3.419 8.756-2.988 8.756-4.446 8.756-4.035 8.756-3.87 8.756-1.674 8.757-3.222h8.756l8.756-5.983 8.756-2.97 8.756-2.584 8.756-1.963 8.756-2.112 8.756-1.678 8.756-2.513 8.756-2.595 8.756-1.766 8.756-1.537 8.756-1.35 8.756-1.2 8.756-1.086 8.756-1.303 8.756-1.189 8.756-.928 8.756-.919 8.756-.382 8.756-.477 8.756-.644 8.756-.525 8.756-.481 8.756-.577 8.756-.574 8.756-.365 8.756-.163 8.756-.218 8.756-.292 8.756-.248 8.756-.349 8.757-.34 8.756-.229 8.756-.112 8.756-.187 8.756-.194 8.756-.058 8.756-.13 8.756-.078 8.756.003 8.756.085 8.756.001 8.756.138 8.756.052 8.756.11" fill="none" stroke="#2ca02c" stroke-linecap="square" stroke-width="1.5"/><g stroke="#d62728"><path clip-path="url(#a)" d="M6.3 569.8l.07-319.667 8.756-17.537 8.756-2.896 8.756-14.498 8.756-6.24 8.756-11.192 8.756-6.31 8.756-5.494 8.756-5.147 8.756-2.65 8.756-7.566 8.756-2.73 8.756-5.341 8.756-8.344 8.756-8.225 8.757-3.911 8.756.008 8.756-15.221 8.756-2.537 8.756-3.605 8.756-4.511 8.756-2.014 8.756-3.135 8.756-4.72 8.756-1.8 8.756-3.593 8.756-2.122 8.756-3.046 8.756-2.109 8.756-3.403 8.756-2.36 8.756-1.712 8.756-1.223 8.756-1.108 8.756-1.382 8.756-1.249 8.756-.96 8.756-.682 8.756-.571 8.756-.554 8.756-.199 8.756-.417 8.756-.37 8.756-.147 8.756-.041 8.756-.185 8.756-.157 8.757.016 8.756-.076 8.756.126 8.756-.218 8.756-.534 8.756-.965 8.756-.153 8.756-.697 8.756.363 8.756-.28 8.756-.065 8.756-.147 8.756-.549 8.756-.043" fill="none" stroke-linecap="square" stroke-width="1.5"/><g clip-path="url(#a)" fill="#d62728"><use x="-1" xlink:href="#B" y="33870.019"/><use x="6.37" xlink:href="#B" y="250.133"/><use x="15.126" xlink:href="#B" y="232.596"/><use x="23.882" xlink:href="#B" y="229.7"/><use x="32.638" xlink:href="#B" y="215.202"/><use x="41.394" xlink:href="#B" y="208.961"/><use x="50.15" xlink:href="#B" y="197.77"/><use x="58.906" xlink:href="#B" y="191.46"/><use x="67.662" xlink:href="#B" y="185.966"/><use x="76.418" xlink:href="#B" y="180.819"/><use x="85.174" xlink:href="#B" y="178.17"/><use x="93.93" xlink:href="#B" y="170.603"/><use x="102.686" xlink:href="#B" y="167.874"/><use x="111.442" xlink:href="#B" y="162.532"/><use x="120.198" xlink:href="#B" y="154.188"/><use x="128.954" xlink:href="#B" y="145.963"/><use x="137.711" xlink:href="#B" y="142.052"/><use x="146.467" xlink:href="#B" y="142.06"/><use x="155.223" xlink:href="#B" y="126.839"/><use x="163.979" xlink:href="#B" y="124.302"/><use x="172.735" xlink:href="#B" y="120.697"/><use x="181.491" xlink:href="#B" y="116.186"/><use x="190.247" xlink:href="#B" y="114.172"/><use x="199.003" xlink:href="#B" y="111.037"/><use x="207.759" xlink:href="#B" y="106.317"/><use x="216.515" xlink:href="#B" y="104.517"/><use x="225.271" xlink:href="#B" y="100.924"/><use x="234.027" xlink:href="#B" y="98.802"/><use x="242.783" xlink:href="#B" y="95.756"/><use x="251.539" xlink:href="#B" y="93.647"/><use x="260.295" xlink:href="#B" y="90.244"/><use x="269.051" xlink:href="#B" y="87.885"/><use x="277.807" xlink:href="#B" y="86.172"/><use x="286.563" xlink:href="#B" y="84.949"/><use x="295.319" xlink:href="#B" y="83.841"/><use x="304.075" xlink:href="#B" y="82.459"/><use x="312.831" xlink:href="#B" y="81.21"/><use x="321.587" xlink:href="#B" y="80.25"/><use x="330.343" xlink:href="#B" y="79.568"/><use x="339.099" xlink:href="#B" y="78.997"/><use x="347.855" xlink:href="#B" y="78.443"/><use x="356.611" xlink:href="#B" y="78.244"/><use x="365.367" xlink:href="#B" y="77.827"/><use x="374.123" xlink:href="#B" y="77.456"/><use x="382.879" xlink:href="#B" y="77.31"/><use x="391.635" xlink:href="#B" y="77.269"/><use x="400.391" xlink:href="#B" y="77.084"/><use x="409.147" xlink:href="#B" y="76.927"/><use x="417.904" xlink:href="#B" y="76.943"/><use x="426.66" xlink:href="#B" y="76.867"/><use x="435.416" xlink:href="#B" y="76.993"/><use x="444.172" xlink:href="#B" y="76.775"/><use x="452.928" xlink:href="#B" y="76.241"/><use x="461.684" xlink:href="#B" y="75.276"/><use x="470.44" xlink:href="#B" y="75.123"/><use x="479.196" xlink:href="#B" y="74.426"/><use x="487.952" xlink:href="#B" y="74.789"/><use x="496.708" xlink:href="#B" y="74.509"/><use x="505.464" xlink:href="#B" y="74.444"/><use x="514.22" xlink:href="#B" y="74.297"/><use x="522.976" xlink:href="#B" y="73.748"/><use x="531.732" xlink:href="#B" y="73.705"/></g></g><g stroke="#9467bd"><path clip-path="url(#a)" d="M-1 243.87l7.37 18.28 8.756-15.885 8.756-27.902 8.756-9.8 8.756-11.619 8.756-5.187 8.756-7.228 8.756-1.143 8.756-6.211 8.756-5.004 8.756-9.804 8.756-6.623 8.756-2.906 8.756-1.266 8.756-6.753 8.757-4.264h8.756l8.756-8.234 8.756-3.504 8.756-.13 8.756-6.699 8.756-2.56 8.756-2.899 8.756-3.097 8.756-2.343 8.756-2.096 8.756.508 8.756-4.262 8.756-1.158 8.756-1.914 8.756-2.036 8.756-2 8.756-2.72 8.756-.46 8.756-1.763 8.756-2.633 8.756-1.208 8.756.274 8.756-1.027 8.756-7.257 8.756-.412 8.756-.801 8.756-1.724 8.756-.304 8.756-.32 8.756-.89 8.756-.525 8.757-.3 8.756-.576 8.756 1.601 8.756.12 8.756-1.891 8.756.073 8.756.405 8.756-.72 8.756-.175 8.756-.087 8.756.758 8.756-.07 8.756.26 8.756-.042" fill="none" stroke-linecap="square" stroke-width="1.5"/><g clip-path="url(#a)" fill="#9467bd"><use x="-1" xlink:href="#C" y="243.869"/><use x="6.37" xlink:href="#C" y="262.15"/><use x="15.126" xlink:href="#C" y="246.265"/><use x="23.882" xlink:href="#C" y="218.363"/><use x="32.638" xlink:href="#C" y="208.563"/><use x="41.394" xlink:href="#C" y="196.944"/><use x="50.15" xlink:href="#C" y="191.757"/><use x="58.906" xlink:href="#C" y="184.529"/><use x="67.662" xlink:href="#C" y="183.386"/><use x="76.418" xlink:href="#C" y="177.175"/><use x="85.174" xlink:href="#C" y="172.171"/><use x="93.93" xlink:href="#C" y="162.367"/><use x="102.686" xlink:href="#C" y="155.744"/><use x="111.442" xlink:href="#C" y="152.838"/><use x="120.198" xlink:href="#C" y="151.572"/><use x="128.954" xlink:href="#C" y="144.819"/><use x="137.711" xlink:href="#C" y="140.555"/><use x="146.467" xlink:href="#C" y="140.555"/><use x="155.223" xlink:href="#C" y="132.321"/><use x="163.979" xlink:href="#C" y="128.817"/><use x="172.735" xlink:href="#C" y="128.687"/><use x="181.491" xlink:href="#C" y="121.988"/><use x="190.247" xlink:href="#C" y="119.428"/><use x="199.003" xlink:href="#C" y="116.529"/><use x="207.759" xlink:href="#C" y="113.432"/><use x="216.515" xlink:href="#C" y="111.089"/><use x="225.271" xlink:href="#C" y="108.993"/><use x="234.027" xlink:href="#C" y="109.501"/><use x="242.783" xlink:href="#C" y="105.239"/><use x="251.539" xlink:href="#C" y="104.081"/><use x="260.295" xlink:href="#C" y="102.167"/><use x="269.051" xlink:href="#C" y="100.131"/><use x="277.807" xlink:href="#C" y="98.131"/><use x="286.563" xlink:href="#C" y="95.41"/><use x="295.319" xlink:href="#C" y="94.951"/><use x="304.075" xlink:href="#C" y="93.188"/><use x="312.831" xlink:href="#C" y="90.555"/><use x="321.587" xlink:href="#C" y="89.347"/><use x="330.343" xlink:href="#C" y="89.621"/><use x="339.099" xlink:href="#C" y="88.594"/><use x="347.855" xlink:href="#C" y="81.337"/><use x="356.611" xlink:href="#C" y="80.925"/><use x="365.367" xlink:href="#C" y="80.124"/><use x="374.123" xlink:href="#C" y="78.4"/><use x="382.879" xlink:href="#C" y="78.096"/><use x="391.635" xlink:href="#C" y="77.776"/><use x="400.391" xlink:href="#C" y="76.886"/><use x="409.147" xlink:href="#C" y="76.361"/><use x="417.904" xlink:href="#C" y="76.06"/><use x="426.66" xlink:href="#C" y="75.485"/><use x="435.416" xlink:href="#C" y="77.086"/><use x="444.172" xlink:href="#C" y="77.205"/><use x="452.928" xlink:href="#C" y="75.315"/><use x="461.684" xlink:href="#C" y="75.388"/><use x="470.44" xlink:href="#C" y="75.793"/><use x="479.196" xlink:href="#C" y="75.073"/><use x="487.952" xlink:href="#C" y="74.898"/><use x="496.708" xlink:href="#C" y="74.811"/><use x="505.464" xlink:href="#C" y="75.569"/><use x="514.22" xlink:href="#C" y="75.499"/><use x="522.976" xlink:href="#C" y="75.758"/><use x="531.732" xlink:href="#C" y="75.717"/></g></g><path clip-path="url(#a)" d="M531.732 38.875l8.756-.53 8.756-.53 8.756-.53" fill="none" stroke="#1f77b4" stroke-dasharray="1.5 2.475" stroke-width="1.5"/><path clip-path="url(#a)" d="M531.732 70.24l8.756-.598 8.756-.596 8.756-.597" fill="none" stroke="#ff7f0e" stroke-dasharray="1.5 2.475" stroke-width="1.5"/><path clip-path="url(#a)" d="M531.732 73.59l8.756.096 8.756.095 8.756.096" fill="none" stroke="#2ca02c" stroke-dasharray="1.5 2.475" stroke-width="1.5"/><path clip-path="url(#a)" d="M531.732 73.705l8.756-.247 8.756-.246 8.756-.246" fill="none" stroke="#d62728" stroke-dasharray="1.5 2.475" stroke-width="1.5"/><path clip-path="url(#a)" d="M531.732 75.717l8.756.06 8.756.06 8.756.06" fill="none" stroke="#9467bd" stroke-dasharray="1.5 2.475" stroke-width="1.5"/><path d="M50.15 234.248V25.44M558 234.248V25.44M50.15 234.248H558M50.15 25.44H558" fill="none" stroke="#000" stroke-linecap="square" stroke-linejoin="miter" stroke-width=".8"/><g transform="matrix(.12 0 0 -.12 182.296 19.44)"><use xlink:href="#h"/><use x="68.393" xlink:href="#D"/><use x="123.373" xlink:href="#E"/><use x="162.582" xlink:href="#x"/><path d="M193.35 54.688h9.515L219.96 8.797l17.094 45.89h9.515L226.053 0H213.85z"/><use x="249.545" xlink:href="#y"/><use x="342.855" xlink:href="#F"/><path d="M452.086 66.219q-10.75 0-17.078-8.016-6.313-8-6.313-21.828 0-13.766 6.313-21.781 6.328-8 17.078-8 10.734 0 17.016 8 6.28 8.015 6.28 21.781 0 13.828-6.28 21.828-6.282 8.016-17.016 8.016zm0 8q15.328 0 24.5-10.281 9.187-10.282 9.187-27.563 0-17.234-9.187-27.516-9.172-10.28-24.5-10.28-15.375 0-24.594 10.25-9.203 10.265-9.203 27.546t9.203 27.563q9.219 10.28 24.594 10.28zM519.984 0l-27.828 72.906h10.297l23.11-61.375 23.14 61.375h10.25L531.172 0z"/><use x="559.783" xlink:href="#G"/><path d="M608.947 64.797V8.109h11.922q15.094 0 22.094 6.829 7 6.843 7 21.593 0 14.64-7 21.453-7 6.813-22.094 6.813zm-9.86 8.11h20.267q21.187 0 31.093-8.813 9.922-8.813 9.922-27.563 0-18.86-9.969-27.703Q640.447 0 619.354 0h-20.266z"/><use x="666.277" xlink:href="#H"/><use x="702.361" xlink:href="#l"/><use x="765.984" xlink:href="#k"/><use x="861.395" xlink:href="#D"/><use x="916.375" xlink:href="#d"/><use x="977.654" xlink:href="#I"/><use x="1029.754" xlink:href="#y"/><use x="1091.277" xlink:href="#I"/><use x="1175.164" xlink:href="#d"/><use x="1236.443" xlink:href="#I"/><use x="1320.33" xlink:href="#t"/><use x="1381.512" xlink:href="#J"/><use x="1448.504" xlink:href="#f"/><use x="1512.127" xlink:href="#g"/><use x="1575.75" xlink:href="#f"/><use x="1639.373" xlink:href="#g"/><use x="1702.996" xlink:href="#H"/><use x="1739.08" xlink:href="#g"/><use x="1802.703" xlink:href="#q"/><use x="1866.326" xlink:href="#H"/><use x="1902.41" xlink:href="#f"/><use x="1966.033" xlink:href="#r"/></g><g><path d="M323.94 229.248H551q2 0 2-2v-72.39q0-2-2-2H323.94q-2 0-2 2v72.39q0 2 2 2z" fill="#fff" opacity=".8" stroke="#ccc" stroke-linejoin="miter"/><path d="M325.94 160.956h20" fill="none" stroke="#1f77b4" stroke-linecap="square" stroke-width="1.5"/><use fill="#1f77b4" stroke="#1f77b4" x="335.941" xlink:href="#z" y="160.956"/><g transform="matrix(.1 0 0 -.1 353.94 164.456)"><use xlink:href="#K"/><use x="73.193" xlink:href="#L"/><use x="168.457" xlink:href="#M"/><use x="207.471" xlink:href="#v"/><use x="270.947" xlink:href="#t"/><use x="332.129" xlink:href="#N"/><use x="395.508" xlink:href="#O"/><use x="458.984" xlink:href="#u"/><use x="486.768" xlink:href="#y"/><use x="548.291" xlink:href="#I"/><use x="632.178" xlink:href="#x"/><use x="659.961" xlink:href="#P"/><use x="755.127" xlink:href="#f"/><use x="818.75" xlink:href="#f"/><use x="882.373" xlink:href="#Q"/><use x="914.16" xlink:href="#o"/><use x="1009.57" xlink:href="#v"/><use x="1073.047" xlink:href="#d"/><use x="1134.326" xlink:href="#R"/><use x="1193.506" xlink:href="#I"/><use x="1245.605" xlink:href="#S"/></g><path d="M325.94 175.634h20" fill="none" stroke="#ff7f0e" stroke-linecap="square" stroke-width="1.5"/><use fill="#ff7f0e" stroke="#ff7f0e" x="335.941" xlink:href="#A" y="175.634"/><g transform="matrix(.1 0 0 -.1 353.94 179.134)"><use xlink:href="#K"/><use x="73.193" xlink:href="#P"/><use x="136.572" xlink:href="#x"/><use x="164.355" xlink:href="#E"/><use x="203.564" xlink:href="#y"/><use x="265.088" xlink:href="#v"/><path d="M370.164 72.906h9.86V42.094l32.718 30.812h12.703l-36.187-33.984L428.023 0H415.04l-35.016 35.11V0h-9.859z"/><use x="425.928" xlink:href="#x"/><use x="453.711" xlink:href="#P"/><path d="M562.496 27.984q0 9.766-4.031 15.125-4.016 5.375-11.297 5.375-7.219 0-11.25-5.375-4.031-5.359-4.031-15.125 0-9.718 4.031-15.093t11.25-5.375q7.281 0 11.297 5.375 4.031 5.375 4.031 15.093zm8.984-21.203q0-13.953-6.203-20.765-6.187-6.813-18.984-6.813-4.734 0-8.938.703-4.203.703-8.156 2.172v8.735q3.953-2.141 7.813-3.157 3.86-1.031 7.86-1.031 8.843 0 13.233 4.61 4.391 4.609 4.391 13.937v4.453q-2.781-4.844-7.125-7.234Q551.027 0 544.965 0q-10.047 0-16.203 7.656-6.157 7.672-6.157 20.328 0 12.688 6.157 20.344Q534.918 56 544.965 56q6.062 0 10.406-2.39 4.344-2.391 7.125-7.22v8.297h8.984z"/><use x="580.566" xlink:href="#v"/><use x="644.043" xlink:href="#t"/><path d="M757.225 44.188q3.375 6.062 8.062 8.937Q769.975 56 776.318 56q8.547 0 13.188-5.984 4.64-5.97 4.64-17V0h-9.03v32.719q0 7.86-2.798 11.656-2.78 3.813-8.484 3.813-6.984 0-11.047-4.641-4.047-4.625-4.047-12.64V0h-9.031v32.719q0 7.906-2.781 11.687-2.782 3.782-8.594 3.782-6.89 0-10.953-4.657-4.047-4.656-4.047-12.625V0h-9.031v54.688h9.031v-8.5q3.078 5.03 7.375 7.421Q735.006 56 740.912 56q5.969 0 10.14-3.031 4.173-3.016 6.173-8.782z"/><use x="834.424" xlink:href="#M"/><use x="873.438" xlink:href="#v"/><use x="936.914" xlink:href="#t"/><use x="998.096" xlink:href="#N"/><use x="1061.475" xlink:href="#O"/><use x="1124.951" xlink:href="#u"/><use x="1152.734" xlink:href="#y"/><use x="1214.258" xlink:href="#I"/><use x="1298.145" xlink:href="#x"/><use x="1325.928" xlink:href="#P"/><use x="1421.094" xlink:href="#f"/><use x="1484.717" xlink:href="#g"/><use x="1548.34" xlink:href="#Q"/><use x="1580.127" xlink:href="#l"/><use x="1675.537" xlink:href="#v"/><use x="1739.014" xlink:href="#d"/><use x="1800.293" xlink:href="#R"/><use x="1859.473" xlink:href="#I"/><use x="1911.572" xlink:href="#S"/></g><path d="M325.94 190.312h20" fill="none" stroke="#2ca02c" stroke-linecap="square" stroke-width="1.5"/><g transform="matrix(.1 0 0 -.1 353.94 193.812)"><use xlink:href="#G"/><use x="29.492" xlink:href="#E"/><use x="68.701" xlink:href="#d"/><use x="129.98" xlink:href="#u"/><use x="157.764" xlink:href="#R"/></g><path d="M325.94 204.99h20" fill="none" stroke="#d62728" stroke-linecap="square" stroke-width="1.5"/><use fill="#d62728" stroke="#d62728" x="335.941" xlink:href="#B" y="204.99"/><g transform="matrix(.1 0 0 -.1 353.94 208.49)"><use xlink:href="#L"/><use x="63.477" xlink:href="#i"/><use x="126.953" xlink:href="#d"/><use x="188.232" xlink:href="#x"/><use x="216.016" xlink:href="#P"/><use x="311.182" xlink:href="#M"/><use x="350.195" xlink:href="#v"/><use x="413.672" xlink:href="#t"/><use x="474.854" xlink:href="#N"/><use x="538.232" xlink:href="#O"/><use x="601.709" xlink:href="#u"/><use x="629.492" xlink:href="#y"/><use x="691.016" xlink:href="#I"/><use x="774.902" xlink:href="#x"/><use x="802.686" xlink:href="#P"/><use x="897.852" xlink:href="#q"/><use x="961.475" xlink:href="#T"/><use x="1025.098" xlink:href="#Q"/><use x="1056.885" xlink:href="#T"/><use x="1152.295" xlink:href="#v"/><use x="1215.771" xlink:href="#d"/><use x="1277.051" xlink:href="#R"/><use x="1336.23" xlink:href="#I"/><use x="1388.33" xlink:href="#S"/></g><path d="M325.94 219.668h20" fill="none" stroke="#9467bd" stroke-linecap="square" stroke-width="1.5"/><use fill="#9467bd" stroke="#9467bd" x="335.941" xlink:href="#C" y="219.668"/><g transform="matrix(.1 0 0 -.1 353.94 223.168)"><path d="M9.813 72.906h41.89v-8.312H19.672V43.109h28.906v-8.297H19.672V0h-9.86z"/><use x="57.41" xlink:href="#e"/><use x="98.523" xlink:href="#d"/><use x="159.803" xlink:href="#P"/><use x="223.182" xlink:href="#D"/><use x="278.162" xlink:href="#y"/></g></g><g><path d="M50.15 505.928H558V297.12H50.15z" fill="#fff"/><path clip-path="url(#U)" d="M50.15 505.928V297.12" fill="none" stroke="#b0b0b0" stroke-linecap="square" stroke-width=".8"/><use stroke="#000" stroke-width=".8" x="50.15" xlink:href="#b" y="505.928"/><g transform="matrix(.1 0 0 -.1 40.717 542.922)"><use xlink:href="#c"/><use x="86.279" xlink:href="#d"/><use x="147.559" xlink:href="#e"/></g><g transform="matrix(.1 0 0 -.1 37.425 554.12)"><use xlink:href="#f"/><use x="63.623" xlink:href="#g"/><use x="127.246" xlink:href="#f"/><use x="190.869" xlink:href="#g"/></g><path clip-path="url(#U)" d="M321.587 505.928V297.12" fill="none" stroke="#b0b0b0" stroke-linecap="square" stroke-width=".8"/><use stroke="#000" stroke-width=".8" x="321.587" xlink:href="#b" y="505.928"/><g transform="matrix(.1 0 0 -.1 312.937 542.922)"><use xlink:href="#h"/><use x="68.408" xlink:href="#i"/><use x="131.885" xlink:href="#e"/></g><g stroke-width=".8"><path clip-path="url(#U)" d="M558 505.928V297.12" fill="none" stroke="#b0b0b0" stroke-linecap="square"/><use stroke="#000" x="558" xlink:href="#b" y="505.928"/></g><use stroke="#000" stroke-width=".6" x="58.906" xlink:href="#j" y="505.928"/><g transform="matrix(.1 0 0 -.1 52.544 518.926)"><use xlink:href="#g"/><use x="63.623" xlink:href="#f"/></g><g stroke="#000" stroke-width=".6"><use x="67.662" xlink:href="#j" y="505.928"/><use x="76.418" xlink:href="#j" y="505.928"/><use x="85.174" xlink:href="#j" y="505.928"/><use x="93.93" xlink:href="#j" y="505.928"/><use x="102.686" xlink:href="#j" y="505.928"/><use x="111.442" xlink:href="#j" y="505.928"/></g><use stroke="#000" stroke-width=".6" x="120.198" xlink:href="#j" y="505.928"/><g transform="matrix(.1 0 0 -.1 113.836 518.926)"><use xlink:href="#g"/><use x="63.623" xlink:href="#k"/></g><use stroke="#000" stroke-width=".6" x="128.954" xlink:href="#j" y="505.928"/><use stroke="#000" stroke-width=".6" x="137.711" xlink:href="#j" y="505.928"/><use stroke="#000" stroke-width=".6" x="146.467" xlink:href="#j" y="505.928"/><use stroke="#000" stroke-width=".6" x="155.223" xlink:href="#j" y="505.928"/><use stroke="#000" stroke-width=".6" x="163.979" xlink:href="#j" y="505.928"/><use stroke="#000" stroke-width=".6" x="172.735" xlink:href="#j" y="505.928"/><use stroke="#000" stroke-width=".6" x="181.491" xlink:href="#j" y="505.928"/><g transform="matrix(.1 0 0 -.1 175.128 518.926)"><use xlink:href="#l"/><use x="63.623" xlink:href="#m"/></g><use stroke="#000" stroke-width=".6" x="190.247" xlink:href="#j" y="505.928"/><use stroke="#000" stroke-width=".6" x="199.003" xlink:href="#j" y="505.928"/><use stroke="#000" stroke-width=".6" x="207.759" xlink:href="#j" y="505.928"/><use stroke="#000" stroke-width=".6" x="216.515" xlink:href="#j" y="505.928"/><use stroke="#000" stroke-width=".6" x="225.271" xlink:href="#j" y="505.928"/><use stroke="#000" stroke-width=".6" x="234.027" xlink:href="#j" y="505.928"/><use stroke="#000" stroke-width=".6" x="242.783" xlink:href="#j" y="505.928"/><g transform="matrix(.1 0 0 -.1 236.42 518.926)"><use xlink:href="#f"/><use x="63.623" xlink:href="#n"/></g><use stroke="#000" stroke-width=".6" x="251.539" xlink:href="#j" y="505.928"/><use stroke="#000" stroke-width=".6" x="260.295" xlink:href="#j" y="505.928"/><use stroke="#000" stroke-width=".6" x="269.051" xlink:href="#j" y="505.928"/><use stroke="#000" stroke-width=".6" x="277.807" xlink:href="#j" y="505.928"/><use stroke="#000" stroke-width=".6" x="286.563" xlink:href="#j" y="505.928"/><use stroke="#000" stroke-width=".6" x="295.319" xlink:href="#j" y="505.928"/><use stroke="#000" stroke-width=".6" x="304.075" xlink:href="#j" y="505.928"/><g transform="matrix(.1 0 0 -.1 297.713 518.926)"><use xlink:href="#n"/><use x="63.623" xlink:href="#g"/></g><use stroke="#000" stroke-width=".6" x="312.831" xlink:href="#j" y="505.928"/><use stroke="#000" stroke-width=".6" x="330.343" xlink:href="#j" y="505.928"/><use stroke="#000" stroke-width=".6" x="339.099" xlink:href="#j" y="505.928"/><use stroke="#000" stroke-width=".6" x="347.855" xlink:href="#j" y="505.928"/><use stroke="#000" stroke-width=".6" x="356.611" xlink:href="#j" y="505.928"/><use stroke="#000" stroke-width=".6" x="365.367" xlink:href="#j" y="505.928"/><g transform="matrix(.1 0 0 -.1 359.005 518.926)"><use xlink:href="#g"/><use x="63.623" xlink:href="#m"/></g><use stroke="#000" stroke-width=".6" x="374.123" xlink:href="#j" y="505.928"/><use stroke="#000" stroke-width=".6" x="382.879" xlink:href="#j" y="505.928"/><use stroke="#000" stroke-width=".6" x="391.635" xlink:href="#j" y="505.928"/><use stroke="#000" stroke-width=".6" x="400.391" xlink:href="#j" y="505.928"/><use stroke="#000" stroke-width=".6" x="409.147" xlink:href="#j" y="505.928"/><use stroke="#000" stroke-width=".6" x="417.904" xlink:href="#j" y="505.928"/><use stroke="#000" stroke-width=".6" x="426.66" xlink:href="#j" y="505.928"/><g transform="matrix(.1 0 0 -.1 420.297 518.926)"><use xlink:href="#l"/><use x="63.623" xlink:href="#n"/></g><use stroke="#000" stroke-width=".6" x="435.416" xlink:href="#j" y="505.928"/><use stroke="#000" stroke-width=".6" x="444.172" xlink:href="#j" y="505.928"/><use stroke="#000" stroke-width=".6" x="452.928" xlink:href="#j" y="505.928"/><use stroke="#000" stroke-width=".6" x="461.684" xlink:href="#j" y="505.928"/><use stroke="#000" stroke-width=".6" x="470.44" xlink:href="#j" y="505.928"/><use stroke="#000" stroke-width=".6" x="479.196" xlink:href="#j" y="505.928"/><g><use stroke="#000" stroke-width=".6" x="487.952" xlink:href="#j" y="505.928"/><g transform="matrix(.1 0 0 -.1 481.59 518.926)"><use xlink:href="#f"/><use x="63.623" xlink:href="#g"/></g></g><use stroke="#000" stroke-width=".6" x="496.708" xlink:href="#j" y="505.928"/><use stroke="#000" stroke-width=".6" x="505.464" xlink:href="#j" y="505.928"/><use stroke="#000" stroke-width=".6" x="514.22" xlink:href="#j" y="505.928"/><use stroke="#000" stroke-width=".6" x="522.976" xlink:href="#j" y="505.928"/><use stroke="#000" stroke-width=".6" x="531.732" xlink:href="#j" y="505.928"/><use stroke="#000" stroke-width=".6" x="540.488" xlink:href="#j" y="505.928"/><g><use stroke="#000" stroke-width=".6" x="549.244" xlink:href="#j" y="505.928"/><g transform="matrix(.1 0 0 -.1 542.881 518.926)"><use xlink:href="#f"/><use x="63.623" xlink:href="#o"/></g></g><g><path clip-path="url(#U)" d="M50.15 505.928H558" fill="none" stroke="#b0b0b0" stroke-linecap="square" stroke-width=".8"/><use stroke="#000" stroke-width=".8" x="50.15" xlink:href="#p" y="505.928"/><g transform="matrix(.1 0 0 -.1 25.55 509.727)"><use transform="translate(0 .684)" xlink:href="#l"/><use transform="translate(63.623 .684)" xlink:href="#g"/><use transform="matrix(.7 0 0 .7 128.203 38.966)" xlink:href="#l"/></g><path clip-path="url(#U)" d="M50.15 461.712H558" fill="none" stroke="#b0b0b0" stroke-linecap="square" stroke-width=".8"/><use stroke="#000" stroke-width=".8" x="50.15" xlink:href="#p" y="461.712"/><g transform="matrix(.1 0 0 -.1 25.55 465.51)"><use transform="translate(0 .766)" xlink:href="#l"/><use transform="translate(63.623 .766)" xlink:href="#g"/><use transform="matrix(.7 0 0 .7 128.203 39.047)" xlink:href="#f"/></g><path clip-path="url(#U)" d="M50.15 417.495H558" fill="none" stroke="#b0b0b0" stroke-linecap="square" stroke-width=".8"/><use stroke="#000" stroke-width=".8" x="50.15" xlink:href="#p" y="417.495"/><g transform="matrix(.1 0 0 -.1 25.55 421.294)"><use transform="translate(0 .766)" xlink:href="#l"/><use transform="translate(63.623 .766)" xlink:href="#g"/><use transform="matrix(.7 0 0 .7 128.203 39.047)" xlink:href="#n"/></g><g><path clip-path="url(#U)" d="M50.15 373.279H558" fill="none" stroke="#b0b0b0" stroke-linecap="square" stroke-width=".8"/><use stroke="#000" stroke-width=".8" x="50.15" xlink:href="#p" y="373.279"/><g transform="matrix(.1 0 0 -.1 25.55 377.078)"><use transform="translate(0 .684)" xlink:href="#l"/><use transform="translate(63.623 .684)" xlink:href="#g"/><use transform="matrix(.7 0 0 .7 128.203 38.966)" xlink:href="#q"/></g></g><g><path clip-path="url(#U)" d="M50.15 329.063H558" fill="none" stroke="#b0b0b0" stroke-linecap="square" stroke-width=".8"/><use stroke="#000" stroke-width=".8" x="50.15" xlink:href="#p" y="329.063"/><g transform="matrix(.1 0 0 -.1 25.55 332.862)"><use transform="translate(0 .684)" xlink:href="#l"/><use transform="translate(63.623 .684)" xlink:href="#g"/><use transform="matrix(.7 0 0 .7 128.203 38.966)" xlink:href="#r"/></g></g><g stroke="#000" stroke-width=".6"><use x="50.15" xlink:href="#s" y="492.618"/><use x="50.15" xlink:href="#s" y="484.831"/><use x="50.15" xlink:href="#s" y="479.307"/><use x="50.15" xlink:href="#s" y="475.022"/><use x="50.15" xlink:href="#s" y="471.521"/><use x="50.15" xlink:href="#s" y="468.561"/><use x="50.15" xlink:href="#s" y="465.997"/><use x="50.15" xlink:href="#s" y="463.735"/><use x="50.15" xlink:href="#s" y="448.401"/><use x="50.15" xlink:href="#s" y="440.615"/><use x="50.15" xlink:href="#s" y="435.091"/><use x="50.15" xlink:href="#s" y="430.806"/><use x="50.15" xlink:href="#s" y="427.305"/><use x="50.15" xlink:href="#s" y="424.344"/><use x="50.15" xlink:href="#s" y="421.78"/><use x="50.15" xlink:href="#s" y="419.518"/><use x="50.15" xlink:href="#s" y="404.185"/><use x="50.15" xlink:href="#s" y="396.399"/><use x="50.15" xlink:href="#s" y="390.874"/><use x="50.15" xlink:href="#s" y="386.589"/><use x="50.15" xlink:href="#s" y="383.088"/><use x="50.15" xlink:href="#s" y="380.128"/><use x="50.15" xlink:href="#s" y="377.564"/><use x="50.15" xlink:href="#s" y="375.302"/><use x="50.15" xlink:href="#s" y="359.968"/><use x="50.15" xlink:href="#s" y="352.182"/><use x="50.15" xlink:href="#s" y="346.658"/><use x="50.15" xlink:href="#s" y="342.373"/><use x="50.15" xlink:href="#s" y="338.872"/><use x="50.15" xlink:href="#s" y="335.912"/><use x="50.15" xlink:href="#s" y="333.348"/><use x="50.15" xlink:href="#s" y="331.086"/><use x="50.15" xlink:href="#s" y="315.752"/><use x="50.15" xlink:href="#s" y="307.966"/><use x="50.15" xlink:href="#s" y="302.442"/><use x="50.15" xlink:href="#s" y="298.157"/></g><g transform="matrix(0 -.1 -.1 0 19.47 408.358)"><use xlink:href="#K"/><use x="73.193" xlink:href="#L"/></g></g><g stroke="#1f77b4"><path clip-path="url(#U)" d="M58.902 569.8l.004-19.656 8.756-13.31 8.756-32.736 8.756-14.164 8.756-8.604 8.756-14.348 8.756-6.39 8.756-5.614 8.756-3.792 8.757-4.615 8.756-7.67 8.756-4.793 8.756-4.166 8.756-6.377 8.756-5.226 8.756-10.954 8.756-7.323 8.756-14.704 8.756-8.427 8.756-6.585 8.756-5.708 8.756-5.354 8.756-3.959 8.756-3.495 8.756-3.929 8.756-3.225 8.756-2.938 8.756-2.44 8.756-2.094 8.756-2.433 8.756-1.9 8.756-1.814 8.756-2.004 8.756-1.867 8.756-1.464 8.756-1.267 8.756-1.068 8.756-1.432 8.756-1.273 8.756-1.175 8.756-.903 8.757-.791 8.756-.635 8.756-.66 8.756-1.036 8.756-.562 8.756-.42 8.756-.928 8.756-.463 8.756-.409 8.756-.39 8.756-.367 8.756.11 8.756-.6 8.756-.749" fill="none" stroke-linecap="square" stroke-width="1.5"/><g clip-path="url(#U)" fill="#1f77b4"><use x="50.905" xlink:href="#z" y="40954.6"/><use x="58.906" xlink:href="#z" y="550.144"/><use x="67.662" xlink:href="#z" y="536.834"/><use x="76.418" xlink:href="#z" y="504.098"/><use x="85.174" xlink:href="#z" y="489.934"/><use x="93.93" xlink:href="#z" y="481.33"/><use x="102.686" xlink:href="#z" y="466.982"/><use x="111.442" xlink:href="#z" y="460.593"/><use x="120.198" xlink:href="#z" y="454.978"/><use x="128.954" xlink:href="#z" y="451.186"/><use x="137.711" xlink:href="#z" y="446.571"/><use x="146.467" xlink:href="#z" y="438.902"/><use x="155.223" xlink:href="#z" y="434.108"/><use x="163.979" xlink:href="#z" y="429.942"/><use x="172.735" xlink:href="#z" y="423.565"/><use x="181.491" xlink:href="#z" y="418.339"/><use x="190.247" xlink:href="#z" y="407.385"/><use x="199.003" xlink:href="#z" y="400.062"/><use x="207.759" xlink:href="#z" y="385.358"/><use x="216.515" xlink:href="#z" y="376.931"/><use x="225.271" xlink:href="#z" y="370.346"/><use x="234.027" xlink:href="#z" y="364.638"/><use x="242.783" xlink:href="#z" y="359.284"/><use x="251.539" xlink:href="#z" y="355.325"/><use x="260.295" xlink:href="#z" y="351.83"/><use x="269.051" xlink:href="#z" y="347.901"/><use x="277.807" xlink:href="#z" y="344.676"/><use x="286.563" xlink:href="#z" y="341.738"/><use x="295.319" xlink:href="#z" y="339.298"/><use x="304.075" xlink:href="#z" y="337.204"/><use x="312.831" xlink:href="#z" y="334.771"/><use x="321.587" xlink:href="#z" y="332.872"/><use x="330.343" xlink:href="#z" y="331.057"/><use x="339.099" xlink:href="#z" y="329.053"/><use x="347.855" xlink:href="#z" y="327.186"/><use x="356.611" xlink:href="#z" y="325.722"/><use x="365.367" xlink:href="#z" y="324.455"/><use x="374.123" xlink:href="#z" y="323.387"/><use x="382.879" xlink:href="#z" y="321.955"/><use x="391.635" xlink:href="#z" y="320.682"/><use x="400.391" xlink:href="#z" y="319.507"/><use x="409.147" xlink:href="#z" y="318.604"/><use x="417.904" xlink:href="#z" y="317.813"/><use x="426.66" xlink:href="#z" y="317.178"/><use x="435.416" xlink:href="#z" y="316.518"/><use x="444.172" xlink:href="#z" y="315.482"/><use x="452.928" xlink:href="#z" y="314.92"/><use x="461.684" xlink:href="#z" y="314.501"/><use x="470.44" xlink:href="#z" y="313.572"/><use x="479.196" xlink:href="#z" y="313.109"/><use x="487.952" xlink:href="#z" y="312.7"/><use x="496.708" xlink:href="#z" y="312.311"/><use x="505.464" xlink:href="#z" y="311.943"/><use x="514.22" xlink:href="#z" y="312.053"/><use x="522.976" xlink:href="#z" y="311.453"/><use x="531.732" xlink:href="#z" y="310.704"/></g></g><g stroke="#ff7f0e"><path clip-path="url(#U)" d="M85.168 569.8l.006-32.966h8.756l8.756-13.31 8.756-4.286h8.756l8.756-19.771 8.757-8.68 8.756-4.63h8.756l8.756-17.04 8.756-6.621 8.756-11.53 8.756-7.823 8.756-.073 8.756-19.61 8.756-3.488 8.756-7.677 8.756-7.064 8.756-7.624 8.756-4.874 8.756-3.425 8.756-8.61 8.756-4.782 8.756-4.44 8.756-3.565 8.756-4.176 8.756-2.196 8.756-3.313 8.756-2.583 8.756-2.974 8.756-2.478 8.756-1.82 8.756-1.755 8.756-1.429 8.756-1.185 8.756-1.365 8.756-1.258 8.756-1.171 8.757-1.175 8.756-.834 8.756-1.163 8.756-.532 8.756-1.08 8.756-.741 8.756-.689 8.756-.87 8.756-.765 8.756-.762 8.756-.674 8.756-.794 8.756-.385 8.756-.601" fill="none" stroke-linecap="square" stroke-width="1.5"/><g clip-path="url(#U)" fill="#ff7f0e"><use x="77.173" xlink:href="#A" y="40954.6"/><use x="85.174" xlink:href="#A" y="536.834"/><use x="93.93" xlink:href="#A" y="536.834"/><use x="102.686" xlink:href="#A" y="523.523"/><use x="111.442" xlink:href="#A" y="519.238"/><use x="120.198" xlink:href="#A" y="519.238"/><use x="128.954" xlink:href="#A" y="499.467"/><use x="137.711" xlink:href="#A" y="490.787"/><use x="146.467" xlink:href="#A" y="486.156"/><use x="155.223" xlink:href="#A" y="486.156"/><use x="163.979" xlink:href="#A" y="469.117"/><use x="172.735" xlink:href="#A" y="462.496"/><use x="181.491" xlink:href="#A" y="450.965"/><use x="190.247" xlink:href="#A" y="443.143"/><use x="199.003" xlink:href="#A" y="443.07"/><use x="207.759" xlink:href="#A" y="423.46"/><use x="216.515" xlink:href="#A" y="419.972"/><use x="225.271" xlink:href="#A" y="412.295"/><use x="234.027" xlink:href="#A" y="405.231"/><use x="242.783" xlink:href="#A" y="397.607"/><use x="251.539" xlink:href="#A" y="392.733"/><use x="260.295" xlink:href="#A" y="389.308"/><use x="269.051" xlink:href="#A" y="380.699"/><use x="277.807" xlink:href="#A" y="375.916"/><use x="286.563" xlink:href="#A" y="371.477"/><use x="295.319" xlink:href="#A" y="367.911"/><use x="304.075" xlink:href="#A" y="363.735"/><use x="312.831" xlink:href="#A" y="361.539"/><use x="321.587" xlink:href="#A" y="358.226"/><use x="330.343" xlink:href="#A" y="355.643"/><use x="339.099" xlink:href="#A" y="352.669"/><use x="347.855" xlink:href="#A" y="350.191"/><use x="356.611" xlink:href="#A" y="348.37"/><use x="365.367" xlink:href="#A" y="346.616"/><use x="374.123" xlink:href="#A" y="345.187"/><use x="382.879" xlink:href="#A" y="344.002"/><use x="391.635" xlink:href="#A" y="342.637"/><use x="400.391" xlink:href="#A" y="341.379"/><use x="409.147" xlink:href="#A" y="340.208"/><use x="417.904" xlink:href="#A" y="339.033"/><use x="426.66" xlink:href="#A" y="338.199"/><use x="435.416" xlink:href="#A" y="337.036"/><use x="444.172" xlink:href="#A" y="336.504"/><use x="452.928" xlink:href="#A" y="335.424"/><use x="461.684" xlink:href="#A" y="334.683"/><use x="470.44" xlink:href="#A" y="333.994"/><use x="479.196" xlink:href="#A" y="333.123"/><use x="487.952" xlink:href="#A" y="332.359"/><use x="496.708" xlink:href="#A" y="331.597"/><use x="505.464" xlink:href="#A" y="330.923"/><use x="514.22" xlink:href="#A" y="330.129"/><use x="522.976" xlink:href="#A" y="329.744"/><use x="531.732" xlink:href="#A" y="329.143"/></g></g><path clip-path="url(#U)" d="M-1 550.144h24.882l.004 19.656m43.772 0l.004-19.656h17.512l8.756-34.407h8.756l8.756-25.803h8.756l8.756-26.411 8.757-.623 8.756-2.488 8.756-2.519 8.756-2.227 8.756-3.337 8.756-3.54 8.756-1.954 8.756-.089 8.756-7.844 8.756-4.379 8.756-4.618 8.756-3.87 8.756-3.47 8.756-7.72 8.756-8.88 8.756-5.217 8.756-5.619 8.756-5.25 8.756-2.93 8.756-2.862 8.756-2.627 8.756-2.951 8.756-2.801 8.756-2.828 8.756-2.318 8.756-1.21 8.756-1.945 8.756-1.716 8.756-1.861 8.756-2.3 8.756-1.918 8.756-1.625 8.757-2.087 8.756-.987 8.756-.934 8.756-1.02 8.756-1.451 8.756-1.247 8.756-1.021 8.756-.756h8.756l8.756-1.457 8.756-.731 8.756-1.32 8.756-1.984 8.756-.855" fill="none" stroke="#2ca02c" stroke-linecap="square" stroke-width="1.5"/><g stroke="#d62728"><path clip-path="url(#U)" d="M-1 510.213h16.126l8.756-2.262h8.756l8.756-2.023h8.756l8.756-12.325 8.756-3.67 8.756-6.34 8.756-7.787 8.756-2.96 8.756-6.608 8.756-3.541 8.756-1.176 8.756-6.27 8.757-3.954 8.756-3.924 8.756-4.876 8.756-3.654 8.756-4.413 8.756-5.244 8.756-4.285 8.756-1.572 8.756-4.523 8.756-4.061 8.756-2.87 8.756-3.596 8.756-4.746 8.756-3.54 8.756-3.16 8.756-5.064 8.756-3.423 8.756-1.699 8.756-2.668 8.756-3.829 8.756-2.675 8.756-2.595 8.756-2.602 8.756-2.078 8.756-1.28 8.756-3.021 8.756-1.207 8.756-1.511 8.756-1.613 8.756-.782 8.756-1.29 8.756-.558 8.757-.935 8.756-.899 8.756-1.102 8.756-.943 8.756-.654 8.756-.98 8.756-.823 8.756-.582 8.756-1.352 8.756-.992 8.756-.954 8.756-1.093 8.756-.843 8.756-.451" fill="none" stroke-linecap="square" stroke-width="1.5"/><g clip-path="url(#U)" fill="#d62728"><use x="-1" xlink:href="#B" y="510.213"/><use x="6.37" xlink:href="#B" y="510.213"/><use x="15.126" xlink:href="#B" y="510.213"/><use x="23.882" xlink:href="#B" y="507.951"/><use x="32.638" xlink:href="#B" y="507.951"/><use x="41.394" xlink:href="#B" y="505.928"/><use x="50.15" xlink:href="#B" y="505.928"/><use x="58.906" xlink:href="#B" y="493.603"/><use x="67.662" xlink:href="#B" y="489.934"/><use x="76.418" xlink:href="#B" y="483.592"/><use x="85.174" xlink:href="#B" y="475.806"/><use x="93.93" xlink:href="#B" y="472.846"/><use x="102.686" xlink:href="#B" y="466.238"/><use x="111.442" xlink:href="#B" y="462.697"/><use x="120.198" xlink:href="#B" y="461.521"/><use x="128.954" xlink:href="#B" y="455.25"/><use x="137.711" xlink:href="#B" y="451.297"/><use x="146.467" xlink:href="#B" y="447.373"/><use x="155.223" xlink:href="#B" y="442.497"/><use x="163.979" xlink:href="#B" y="438.843"/><use x="172.735" xlink:href="#B" y="434.43"/><use x="181.491" xlink:href="#B" y="429.186"/><use x="190.247" xlink:href="#B" y="424.901"/><use x="199.003" xlink:href="#B" y="423.329"/><use x="207.759" xlink:href="#B" y="418.806"/><use x="216.515" xlink:href="#B" y="414.745"/><use x="225.271" xlink:href="#B" y="411.875"/><use x="234.027" xlink:href="#B" y="408.279"/><use x="242.783" xlink:href="#B" y="403.533"/><use x="251.539" xlink:href="#B" y="399.992"/><use x="260.295" xlink:href="#B" y="396.832"/><use x="269.051" xlink:href="#B" y="391.769"/><use x="277.807" xlink:href="#B" y="388.346"/><use x="286.563" xlink:href="#B" y="386.647"/><use x="295.319" xlink:href="#B" y="383.979"/><use x="304.075" xlink:href="#B" y="380.15"/><use x="312.831" xlink:href="#B" y="377.475"/><use x="321.587" xlink:href="#B" y="374.88"/><use x="330.343" xlink:href="#B" y="372.278"/><use x="339.099" xlink:href="#B" y="370.2"/><use x="347.855" xlink:href="#B" y="368.92"/><use x="356.611" xlink:href="#B" y="365.899"/><use x="365.367" xlink:href="#B" y="364.692"/><use x="374.123" xlink:href="#B" y="363.181"/><use x="382.879" xlink:href="#B" y="361.568"/><use x="391.635" xlink:href="#B" y="360.786"/><use x="400.391" xlink:href="#B" y="359.496"/><use x="409.147" xlink:href="#B" y="358.938"/><use x="417.904" xlink:href="#B" y="358.003"/><use x="426.66" xlink:href="#B" y="357.104"/><use x="435.416" xlink:href="#B" y="356.002"/><use x="444.172" xlink:href="#B" y="355.059"/><use x="452.928" xlink:href="#B" y="354.405"/><use x="461.684" xlink:href="#B" y="353.425"/><use x="470.44" xlink:href="#B" y="352.602"/><use x="479.196" xlink:href="#B" y="352.02"/><use x="487.952" xlink:href="#B" y="350.668"/><use x="496.708" xlink:href="#B" y="349.676"/><use x="505.464" xlink:href="#B" y="348.722"/><use x="514.22" xlink:href="#B" y="347.629"/><use x="522.976" xlink:href="#B" y="346.786"/><use x="531.732" xlink:href="#B" y="346.335"/></g></g><g stroke="#9467bd"><path clip-path="url(#U)" d="M50.146 569.8l.004-19.656 8.756-13.31h17.512l8.756-7.786h8.756l8.756-5.525 8.756-4.285h8.756l8.756-13.31 8.757-15.994 8.756-5.103 8.756-7.354 8.756-6.586 8.756-7.368 8.756-2.379 8.756-8.216 8.756-.361 8.756-18.322 8.756-6.29 8.756-4.858 8.756-6.355 8.756-3.882 8.756-3.418 8.756-3.719 8.756-5.915 8.756-3.345 8.756-2.715 8.756-5.263 8.756-1.83 8.756-3.228 8.756-2.852 8.756-1.854 8.756-2.755 8.756-2.903 8.756-1.588 8.756-1.625 8.756-.013 8.756-3.846 8.756-.002 8.756-3.225 8.756-1.302 8.757-1.62 8.756-1.017 8.756-1.016 8.756-1.055 8.756-.81 8.756-1.34 8.756-1.029 8.756-.786 8.756-.711 8.756-.888 8.756-1.15 8.756-.954 8.756-1.374 8.756-1.007" fill="none" stroke-linecap="square" stroke-width="1.5"/><g clip-path="url(#U)" fill="#9467bd"><use x="42.149" xlink:href="#C" y="40954.6"/><use x="50.15" xlink:href="#C" y="550.144"/><use x="58.906" xlink:href="#C" y="536.834"/><use x="67.662" xlink:href="#C" y="536.834"/><use x="76.418" xlink:href="#C" y="536.834"/><use x="85.174" xlink:href="#C" y="529.048"/><use x="93.93" xlink:href="#C" y="529.048"/><use x="102.686" xlink:href="#C" y="523.523"/><use x="111.442" xlink:href="#C" y="519.238"/><use x="120.198" xlink:href="#C" y="519.238"/><use x="128.954" xlink:href="#C" y="505.928"/><use x="137.711" xlink:href="#C" y="489.934"/><use x="146.467" xlink:href="#C" y="484.831"/><use x="155.223" xlink:href="#C" y="477.477"/><use x="163.979" xlink:href="#C" y="470.891"/><use x="172.735" xlink:href="#C" y="463.523"/><use x="181.491" xlink:href="#C" y="461.144"/><use x="190.247" xlink:href="#C" y="452.928"/><use x="199.003" xlink:href="#C" y="452.567"/><use x="207.759" xlink:href="#C" y="434.245"/><use x="216.515" xlink:href="#C" y="427.956"/><use x="225.271" xlink:href="#C" y="423.097"/><use x="234.027" xlink:href="#C" y="416.742"/><use x="242.783" xlink:href="#C" y="412.86"/><use x="251.539" xlink:href="#C" y="409.442"/><use x="260.295" xlink:href="#C" y="405.723"/><use x="269.051" xlink:href="#C" y="399.808"/><use x="277.807" xlink:href="#C" y="396.463"/><use x="286.563" xlink:href="#C" y="393.748"/><use x="295.319" xlink:href="#C" y="388.485"/><use x="304.075" xlink:href="#C" y="386.655"/><use x="312.831" xlink:href="#C" y="383.427"/><use x="321.587" xlink:href="#C" y="380.575"/><use x="330.343" xlink:href="#C" y="378.721"/><use x="339.099" xlink:href="#C" y="375.966"/><use x="347.855" xlink:href="#C" y="373.063"/><use x="356.611" xlink:href="#C" y="371.475"/><use x="365.367" xlink:href="#C" y="369.85"/><use x="374.123" xlink:href="#C" y="369.837"/><use x="382.879" xlink:href="#C" y="365.991"/><use x="391.635" xlink:href="#C" y="365.989"/><use x="400.391" xlink:href="#C" y="362.764"/><use x="409.147" xlink:href="#C" y="361.462"/><use x="417.904" xlink:href="#C" y="359.842"/><use x="426.66" xlink:href="#C" y="358.825"/><use x="435.416" xlink:href="#C" y="357.809"/><use x="444.172" xlink:href="#C" y="356.754"/><use x="452.928" xlink:href="#C" y="355.945"/><use x="461.684" xlink:href="#C" y="354.604"/><use x="470.44" xlink:href="#C" y="353.575"/><use x="479.196" xlink:href="#C" y="352.789"/><use x="487.952" xlink:href="#C" y="352.078"/><use x="496.708" xlink:href="#C" y="351.19"/><use x="505.464" xlink:href="#C" y="350.039"/><use x="514.22" xlink:href="#C" y="349.086"/><use x="522.976" xlink:href="#C" y="347.712"/><use x="531.732" xlink:href="#C" y="346.705"/></g></g><path clip-path="url(#U)" d="M531.732 310.704l8.756-.512 8.756-.511 8.756-.512" fill="none" stroke="#1f77b4" stroke-dasharray="1.5 2.475" stroke-width="1.5"/><path clip-path="url(#U)" d="M531.732 329.143l8.756-.566 8.756-.565 8.756-.566" fill="none" stroke="#ff7f0e" stroke-dasharray="1.5 2.475" stroke-width="1.5"/><path clip-path="url(#U)" d="M531.732 342.137l8.756-1.358 8.756-1.357 8.756-1.358" fill="none" stroke="#2ca02c" stroke-dasharray="1.5 2.475" stroke-width="1.5"/><path clip-path="url(#U)" d="M531.732 346.335l8.756-.729 8.756-.729 8.756-.728" fill="none" stroke="#d62728" stroke-dasharray="1.5 2.475" stroke-width="1.5"/><path clip-path="url(#U)" d="M531.732 346.705l8.756-1.126 8.756-1.127 8.756-1.127" fill="none" stroke="#9467bd" stroke-dasharray="1.5 2.475" stroke-width="1.5"/><path d="M50.15 505.928V297.12M558 505.928V297.12M50.15 505.928H558M50.15 297.12H558" fill="none" stroke="#000" stroke-linecap="square" stroke-linejoin="miter" stroke-width=".8"/><g><path d="M336.678 500.928H551q2 0 2-2v-72.39q0-2-2-2H336.678q-2 0-2 2v72.39q0 2 2 2z" fill="#fff" opacity=".8" stroke="#ccc" stroke-linejoin="miter"/><path d="M338.678 432.636h20" fill="none" stroke="#1f77b4" stroke-linecap="square" stroke-width="1.5"/><use fill="#1f77b4" stroke="#1f77b4" x="348.678" xlink:href="#z" y="432.636"/><g transform="matrix(.1 0 0 -.1 366.678 436.136)"><use xlink:href="#V"/><use x="74.805" xlink:href="#y"/><use x="136.328" xlink:href="#w"/><path d="M249.7 72.906h10.609l20.203-29.984 20.078 29.984h10.594L285.402 34.72V0h-9.906v34.719z"/><use x="310.783" xlink:href="#t"/><use x="371.965" xlink:href="#e"/><path d="M422.156 75.984h9.031V31.11L458 54.687h11.469l-29-25.578L470.703 0h-11.719l-27.796 26.703V0h-9.032z"/><use x="502.775" xlink:href="#M"/><use x="541.789" xlink:href="#v"/><use x="605.266" xlink:href="#t"/><use x="666.447" xlink:href="#N"/><use x="729.826" xlink:href="#O"/><use x="793.303" xlink:href="#u"/><use x="821.086" xlink:href="#y"/><use x="882.609" xlink:href="#I"/><use x="966.496" xlink:href="#x"/><use x="994.279" xlink:href="#P"/><use x="1089.445" xlink:href="#f"/><use x="1153.068" xlink:href="#m"/><use x="1216.691" xlink:href="#Q"/><use x="1248.479" xlink:href="#g"/><use x="1343.889" xlink:href="#v"/><use x="1407.365" xlink:href="#d"/><use x="1468.645" xlink:href="#R"/><use x="1527.824" xlink:href="#I"/><use x="1579.924" xlink:href="#S"/></g><path d="M338.678 447.314h20" fill="none" stroke="#ff7f0e" stroke-linecap="square" stroke-width="1.5"/><use fill="#ff7f0e" stroke="#ff7f0e" x="348.678" xlink:href="#A" y="447.314"/><g transform="matrix(.1 0 0 -.1 366.678 450.814)"><use xlink:href="#V"/><use x="74.805" xlink:href="#y"/><use x="136.328" xlink:href="#w"/><path d="M259.715 72.906h9.86V5.078q0-13.187-5-19.14-5-5.954-16.095-5.954h-3.75v8.297h3.079q6.53 0 9.218 3.672 2.688 3.656 2.688 13.125z"/><use x="279.395" xlink:href="#y"/><use x="340.918" xlink:href="#e"/><use x="382.031" xlink:href="#I"/><use x="434.131" xlink:href="#y"/><use x="495.654" xlink:href="#R"/><use x="586.621" xlink:href="#M"/><use x="625.635" xlink:href="#v"/><use x="689.111" xlink:href="#t"/><use x="750.293" xlink:href="#N"/><use x="813.672" xlink:href="#O"/><use x="877.148" xlink:href="#u"/><use x="904.932" xlink:href="#y"/><use x="966.455" xlink:href="#I"/><use x="1050.342" xlink:href="#x"/><use x="1078.125" xlink:href="#P"/><use x="1173.291" xlink:href="#f"/><use x="1236.914" xlink:href="#n"/><use x="1300.537" xlink:href="#Q"/><use x="1332.324" xlink:href="#r"/><use x="1427.734" xlink:href="#v"/><use x="1491.211" xlink:href="#d"/><use x="1552.49" xlink:href="#R"/><use x="1611.67" xlink:href="#I"/><use x="1663.77" xlink:href="#S"/></g><path d="M338.678 461.992h20" fill="none" stroke="#2ca02c" stroke-linecap="square" stroke-width="1.5"/><g transform="matrix(.1 0 0 -.1 366.678 465.492)"><use xlink:href="#c"/><use x="86.279" xlink:href="#d"/><use x="147.559" xlink:href="#I"/><use x="199.658" xlink:href="#I"/><use x="251.758" xlink:href="#d"/><use x="313.037" xlink:href="#D"/><path d="M422.908 33.016V0h-8.984v32.719q0 7.765-3.031 11.61-3.032 3.858-9.079 3.858-7.28 0-11.484-4.64-4.203-4.625-4.203-12.64V0h-9.031v75.984h9.031V46.188q3.234 4.937 7.594 7.374Q398.096 56 403.814 56q9.422 0 14.25-5.828 4.844-5.828 4.844-17.156z"/><use x="431.396" xlink:href="#N"/><use x="494.775" xlink:href="#I"/><use x="546.875" xlink:href="#y"/><use x="608.398" xlink:href="#E"/><use x="647.607" xlink:href="#E"/><use x="686.816" xlink:href="#I"/><use x="770.703" xlink:href="#M"/><use x="809.717" xlink:href="#v"/><use x="873.193" xlink:href="#t"/><use x="934.375" xlink:href="#N"/><use x="997.754" xlink:href="#O"/><use x="1061.23" xlink:href="#u"/><use x="1089.014" xlink:href="#y"/><use x="1150.537" xlink:href="#I"/><use x="1234.424" xlink:href="#x"/><use x="1262.207" xlink:href="#P"/><use x="1357.373" xlink:href="#k"/><use x="1420.996" xlink:href="#Q"/><use x="1452.783" xlink:href="#T"/><use x="1548.193" xlink:href="#v"/><use x="1611.67" xlink:href="#d"/><use x="1672.949" xlink:href="#R"/><use x="1732.129" xlink:href="#I"/><use x="1784.229" xlink:href="#S"/></g><path d="M338.678 476.67h20" fill="none" stroke="#d62728" stroke-linecap="square" stroke-width="1.5"/><use fill="#d62728" stroke="#d62728" x="348.678" xlink:href="#B" y="476.67"/><g transform="matrix(.1 0 0 -.1 366.678 480.17)"><use xlink:href="#F"/><use x="69.824" xlink:href="#d"/><use x="131.104" xlink:href="#u"/><use x="158.887" xlink:href="#x"/><use x="186.67" xlink:href="#J"/><use x="221.875" xlink:href="#t"/><use x="283.057" xlink:href="#e"/><use x="324.154" xlink:href="#P"/><use x="387.533" xlink:href="#x"/><use x="415.316" xlink:href="#d"/><use x="508.383" xlink:href="#M"/><use x="547.396" xlink:href="#v"/><use x="610.873" xlink:href="#t"/><use x="672.055" xlink:href="#N"/><use x="735.434" xlink:href="#O"/><use x="798.91" xlink:href="#u"/><use x="826.693" xlink:href="#y"/><use x="888.217" xlink:href="#I"/><use x="972.104" xlink:href="#x"/><use x="999.887" xlink:href="#P"/><use x="1095.053" xlink:href="#l"/><use x="1158.676" xlink:href="#T"/><use x="1222.299" xlink:href="#Q"/><use x="1254.086" xlink:href="#n"/><use x="1349.496" xlink:href="#v"/><use x="1412.973" xlink:href="#d"/><use x="1474.252" xlink:href="#R"/><use x="1533.432" xlink:href="#I"/><use x="1585.531" xlink:href="#S"/></g><path d="M338.678 491.348h20" fill="none" stroke="#9467bd" stroke-linecap="square" stroke-width="1.5"/><use fill="#9467bd" stroke="#9467bd" x="348.678" xlink:href="#C" y="491.348"/><g transform="matrix(.1 0 0 -.1 366.678 494.848)"><use xlink:href="#G"/><use x="29.492" xlink:href="#u"/><use x="57.275" xlink:href="#u"/><use x="85.059" xlink:href="#x"/><use x="112.842" xlink:href="#P"/><use x="176.221" xlink:href="#t"/><use x="237.402" xlink:href="#x"/><use x="265.186" xlink:href="#I"/><use x="349.072" xlink:href="#M"/><use x="388.086" xlink:href="#v"/><use x="451.563" xlink:href="#t"/><use x="512.744" xlink:href="#N"/><use x="576.123" xlink:href="#O"/><use x="639.6" xlink:href="#u"/><use x="667.383" xlink:href="#y"/><use x="728.906" xlink:href="#I"/><use x="812.793" xlink:href="#x"/><use x="840.576" xlink:href="#P"/><use x="935.742" xlink:href="#l"/><use x="999.365" xlink:href="#l"/><use x="1062.988" xlink:href="#Q"/><use x="1094.775" xlink:href="#T"/><use x="1190.186" xlink:href="#v"/><use x="1253.662" xlink:href="#d"/><use x="1314.941" xlink:href="#R"/><use x="1374.121" xlink:href="#I"/><use x="1426.221" xlink:href="#S"/></g></g></g></svg>