<svg height="758.4" stroke-linejoin="round" viewBox="0 0 568.8 568.8" width="758.4" xmlns="http://www.w3.org/2000/svg" xmlns:xlink="http://www.w3.org/1999/xlink"><defs><path id="w" d="M9.422 54.688h8.984V0H9.422zm0 21.296h8.984v-11.39H9.422z" stroke-linejoin="round"/><path id="U" d="M9.813 72.906h13.28l32.329-60.984v60.984h9.562V0h-13.28L19.39 60.984V0H9.813z" stroke-linejoin="round"/><path id="b" d="M0 0v3.5" stroke="#000" stroke-linejoin="round" stroke-width=".8"/><path id="c" d="M9.813 72.906h14.703l18.593-49.61 18.703 49.61h14.704V0H66.89v64.016l-18.797-50h-9.907l-18.796 50V0H9.813z" stroke-linejoin="round"/><path id="d" d="M34.281 27.484q-10.89 0-15.093-2.484-4.204-2.484-4.204-8.5 0-4.781 3.157-7.594 3.156-2.797 8.562-2.797 7.485 0 12 5.297 4.516 5.297 4.516 14.078v2zm17.922 3.72V0H43.22v8.297Q40.14 3.328 35.547.953q-4.594-2.375-11.234-2.375-8.391 0-13.36 4.719Q6 8.016 6 15.922q0 9.219 6.172 13.906 6.187 4.688 18.437 4.688h12.61v.89q0 6.203-4.078 9.594-4.078 3.39-11.453 3.39-4.688 0-9.141-1.124-4.438-1.125-8.531-3.375v8.312q4.921 1.906 9.562 2.844 4.64.953 9.031.953 11.875 0 17.735-6.156 5.86-6.14 5.86-18.64z" stroke-linejoin="round"/><path id="e" d="M41.11 46.297q-1.516.875-3.297 1.281Q36.03 48 33.89 48q-7.625 0-11.703-4.953-4.079-4.953-4.079-14.234V0H9.08v54.688h9.03v-8.5q2.844 4.984 7.375 7.39Q30.031 56 36.531 56q.922 0 2.047-.125 1.125-.11 2.484-.36z" stroke-linejoin="round"/><path id="f" d="M19.188 8.297h34.421V0H7.33v8.297q5.609 5.812 15.296 15.594 9.703 9.797 12.188 12.64 4.734 5.313 6.609 9 1.89 3.688 1.89 7.25 0 5.813-4.078 9.469-4.078 3.672-10.625 3.672-4.64 0-9.797-1.61-5.14-1.609-11-4.89v9.969Q13.767 71.78 18.938 73q5.188 1.219 9.485 1.219 11.328 0 18.062-5.672 6.735-5.656 6.735-15.125 0-4.5-1.688-8.531-1.672-4.016-6.125-9.485-1.218-1.422-7.765-8.187-6.532-6.766-18.453-18.922z" stroke-linejoin="round"/><path id="g" d="M31.781 66.406q-7.61 0-11.453-7.5Q16.5 51.422 16.5 36.375q0-14.984 3.828-22.484 3.844-7.5 11.453-7.5 7.672 0 11.5 7.5 3.844 7.5 3.844 22.484 0 15.047-3.844 22.531-3.828 7.5-11.5 7.5zm0 7.813q12.266 0 18.735-9.703 6.468-9.688 6.468-28.141 0-18.406-6.468-28.11-6.47-9.687-18.735-9.687-12.25 0-18.718 9.688-6.47 9.703-6.47 28.109 0 18.453 6.47 28.14Q19.53 74.22 31.78 74.22z" stroke-linejoin="round"/><path id="h" d="M34.188 63.188L20.797 26.906h26.812zm-5.579 9.718h11.188L67.578 0h-10.25l-6.64 18.703h-32.86L11.188 0H.78z" stroke-linejoin="round"/><path id="i" d="M18.11 8.203v-29H9.077v75.484h9.031v-8.296q2.844 4.875 7.157 7.234Q29.594 56 35.594 56q9.968 0 16.187-7.906 6.235-7.907 6.235-20.797T51.78 6.484q-6.218-7.906-16.187-7.906-6 0-10.328 2.375-4.313 2.375-7.157 7.25zm30.578 19.094q0 9.906-4.079 15.547-4.078 5.64-11.203 5.64-7.14 0-11.218-5.64-4.079-5.64-4.079-15.547 0-9.906 4.078-15.547 4.079-5.64 11.22-5.64 7.124 0 11.202 5.64t4.078 15.547z" stroke-linejoin="round"/><path id="j" d="M0 0v2" stroke="#000" stroke-linejoin="round" stroke-width=".6"/><path id="k" d="M10.984 1.516V10.5q3.72-1.766 7.516-2.688 3.813-.921 7.484-.921 9.766 0 14.907 6.562 5.156 6.563 5.89 19.953-2.828-4.203-7.187-6.453-4.344-2.25-9.61-2.25-10.937 0-17.312 6.61-6.375 6.625-6.375 18.109 0 11.219 6.64 18 6.641 6.797 17.672 6.797 12.657 0 19.313-9.703 6.672-9.688 6.672-28.141 0-17.234-8.188-27.516Q40.234-1.42 26.422-1.42q-3.719 0-7.531.734-3.797.734-7.907 2.203zM30.61 32.422q6.641 0 10.516 4.531 3.89 4.547 3.89 12.469 0 7.86-3.89 12.422-3.875 4.562-10.516 4.562-6.64 0-10.515-4.562-3.875-4.563-3.875-12.422 0-7.922 3.875-12.469 3.875-4.531 10.515-4.531z" stroke-linejoin="round"/><path id="l" d="M12.406 8.297h16.11v55.625l-17.532-3.516v8.985l17.438 3.515h9.86V8.296H54.39V0H12.406z" stroke-linejoin="round"/><path id="m" d="M33.016 40.375q-6.641 0-10.532-4.547-3.875-4.531-3.875-12.437 0-7.86 3.875-12.438 3.891-4.562 10.532-4.562 6.64 0 10.515 4.562 3.875 4.578 3.875 12.438 0 7.906-3.875 12.437-3.875 4.547-10.515 4.547zm19.578 30.922v-8.984q-3.719 1.75-7.5 2.671-3.782.938-7.5.938-9.766 0-14.922-6.594-5.14-6.594-5.875-19.922 2.875 4.25 7.219 6.516 4.359 2.266 9.578 2.266 10.984 0 17.36-6.672 6.374-6.657 6.374-18.125 0-11.235-6.64-18.032-6.641-6.78-17.672-6.78-12.657 0-19.344 9.687-6.688 9.703-6.688 28.109 0 17.281 8.204 27.563 8.203 10.28 22.015 10.28 3.719 0 7.5-.734t7.89-2.187z" stroke-linejoin="round"/><path id="n" d="M40.578 39.313Q47.656 37.797 51.625 33q3.984-4.781 3.984-11.813 0-10.78-7.422-16.703-7.421-5.906-21.093-5.906-4.578 0-9.438.906-4.86.907-10.031 2.72v9.515q4.094-2.39 8.969-3.61 4.89-1.218 10.218-1.218 9.266 0 14.125 3.656 4.86 3.656 4.86 10.64 0 6.454-4.516 10.079-4.515 3.64-12.562 3.64h-8.5v8.11h8.89q7.266 0 11.125 2.906 3.86 2.906 3.86 8.375 0 5.61-3.985 8.61-3.968 3.015-11.39 3.015-4.063 0-8.703-.89-4.641-.876-10.203-2.72v8.782q5.624 1.562 10.53 2.344 4.907.78 9.25.78 11.235 0 17.766-5.109 6.547-5.093 6.547-13.78 0-6.063-3.468-10.235-3.47-4.172-9.86-5.782z" stroke-linejoin="round"/><path id="o" d="M0 0h-3.5" stroke="#000" stroke-linejoin="round" stroke-width=".8"/><path id="p" d="M37.797 64.313L12.89 25.39h24.906zm-2.594 8.593H47.61V25.391h10.407v-8.203H47.609V0h-9.812v17.188H4.89v9.515z" stroke-linejoin="round"/><path id="q" d="M10.797 72.906h38.719v-8.312H19.828v-17.86q2.14.735 4.281 1.094 2.157.36 4.313.36 12.203 0 19.328-6.688 7.14-6.688 7.14-18.11 0-11.765-7.328-18.296-7.328-6.516-20.656-6.516-4.593 0-9.36.781-4.75.782-9.827 2.344v9.922q4.39-2.39 9.078-3.563 4.687-1.171 9.906-1.171 8.453 0 13.375 4.437 4.938 4.438 4.938 12.063 0 7.609-4.938 12.047-4.922 4.453-13.375 4.453-3.953 0-7.89-.875-3.922-.875-8.016-2.735z" stroke-linejoin="round"/><path id="r" d="M0 0h-2" stroke="#000" stroke-linejoin="round" stroke-width=".6"/><path id="s" d="M30.61 48.39q-7.22 0-11.422-5.64-4.204-5.64-4.204-15.453 0-9.813 4.172-15.453 4.188-5.64 11.453-5.64 7.188 0 11.375 5.655 4.203 5.672 4.203 15.438 0 9.719-4.203 15.406-4.187 5.688-11.375 5.688zm0 7.61q11.718 0 18.406-7.625 6.703-7.61 6.703-21.078 0-13.422-6.703-21.078-6.688-7.64-18.407-7.64-11.765 0-18.437 7.64-6.656 7.656-6.656 21.078 0 13.469 6.656 21.078Q18.844 56 30.609 56z" stroke-linejoin="round"/><path id="t" d="M9.422 75.984h8.984V0H9.422z" stroke-linejoin="round"/><path id="u" d="M45.406 46.39v29.594h8.985V0h-8.985v8.203Q42.578 3.328 38.25.953q-4.313-2.375-10.375-2.375-9.906 0-16.14 7.906-6.22 7.922-6.22 20.813 0 12.89 6.22 20.797Q17.968 56 27.874 56q6.063 0 10.375-2.375 4.328-2.36 7.156-7.234zm-30.61-19.093q0-9.906 4.079-15.547 4.078-5.64 11.203-5.64 7.125 0 11.219 5.64 4.11 5.64 4.11 15.547 0 9.906-4.11 15.547-4.094 5.64-11.219 5.64-7.125 0-11.203-5.64-4.078-5.64-4.078-15.547z" stroke-linejoin="round"/><path id="v" d="M4.203 54.688h8.985l11.234-42.672 11.172 42.672h10.593l11.235-42.672 11.187 42.672h8.985L63.28 0H52.688L40.922 44.828 29.109 0H18.5z" stroke-linejoin="round"/><path id="S" d="M8.016 75.875h7.812q7.313-11.516 10.953-22.563 3.64-11.03 3.64-21.921 0-10.938-3.64-22.016-3.64-11.078-10.953-22.563H8.016Q14.5-2 17.703 9.063q3.203 11.063 3.203 22.329 0 11.28-3.203 22.265-3.203 11-9.687 22.219z" stroke-linejoin="round"/><path id="x" d="M56.203 29.594v-4.39H14.891q.593-9.282 5.593-14.142 5-4.859 13.938-4.859 5.172 0 10.031 1.266 4.86 1.265 9.656 3.812v-8.5Q49.266.734 44.187-.344 39.11-1.422 33.892-1.422q-13.094 0-20.735 7.61-7.64 7.625-7.64 20.625 0 13.421 7.25 21.296Q20.016 56 32.328 56q11.031 0 17.453-7.11 6.422-7.093 6.422-19.296zm-8.984 2.64q-.094 7.36-4.125 11.75-4.032 4.407-10.672 4.407-7.516 0-12.031-4.25-4.516-4.25-5.203-11.97z" stroke-linejoin="round"/><path id="y" d="M-3 0h6M0 3v-6" stroke="#1f77b4" stroke-linejoin="round"/><path id="z" d="M0 1.5a1.5 1.5 0 100-3 1.5 1.5 0 000 3z" stroke="#ff7f0e" stroke-linejoin="round"/><path id="A" d="M-3 0h6M0 3v-6" stroke="#d62728" stroke-linejoin="round"/><path id="B" d="M0 1.5a1.5 1.5 0 100-3 1.5 1.5 0 000 3z" stroke="#9467bd" stroke-linejoin="round"/><path id="C" d="M48.781 52.594v-8.407q-3.812 2.11-7.64 3.157-3.828 1.047-7.735 1.047-8.75 0-13.593-5.547-4.829-5.532-4.829-15.547 0-10.016 4.829-15.563 4.843-5.53 13.593-5.53 3.907 0 7.735 1.046 3.828 1.047 7.64 3.156V2.094Q45.016.344 40.984-.531q-4.015-.89-8.562-.89-12.36 0-19.64 7.765-7.266 7.765-7.266 20.953 0 13.375 7.343 21.031Q20.22 56 33.016 56q4.14 0 8.093-.86 3.953-.843 7.672-2.546z" stroke-linejoin="round"/><path id="D" d="M18.313 70.219V54.688h18.5v-6.985h-18.5V18.016q0-6.688 1.828-8.594 1.828-1.906 7.453-1.906h9.218V0h-9.218q-10.407 0-14.36 3.875-3.953 3.89-3.953 14.14v29.688H2.687v6.984h6.594V70.22z" stroke-linejoin="round"/><path id="E" d="M2.984 54.688H12.5L29.594 8.797l17.093 45.89h9.516L35.687 0H23.485z" stroke-linejoin="round"/><path id="F" d="M64.406 67.281v-10.39q-4.984 4.64-10.625 6.922-5.64 2.296-11.984 2.296-12.5 0-19.14-7.64-6.641-7.64-6.641-22.094 0-14.406 6.64-22.047 6.64-7.64 19.14-7.64 6.345 0 11.985 2.296 5.64 2.297 10.625 6.938V5.609Q59.234 2.094 53.437.33q-5.78-1.75-12.218-1.75-16.563 0-26.094 10.124-9.516 10.14-9.516 27.672 0 17.578 9.516 27.703 9.531 10.14 26.094 10.14 6.531 0 12.312-1.734 5.797-1.734 10.875-5.203z" stroke-linejoin="round"/><path id="G" d="M9.813 72.906h9.859V0h-9.86z" stroke-linejoin="round"/><path id="H" d="M4.89 31.39h26.313v-8H4.891z" stroke-linejoin="round"/><path id="I" d="M44.281 53.078v-8.5q-3.797 1.953-7.906 2.922-4.094.984-8.5.984-6.688 0-10.031-2.047-3.344-2.046-3.344-6.156 0-3.125 2.39-4.906 2.391-1.781 9.626-3.39l3.078-.688q9.562-2.047 13.593-5.781 4.032-3.735 4.032-10.422 0-7.625-6.032-12.078-6.03-4.438-16.578-4.438-4.39 0-9.156.86Q10.688.296 5.422 2v9.281q4.984-2.594 9.812-3.89 4.829-1.282 9.579-1.282 6.343 0 9.75 2.172 3.421 2.172 3.421 6.125 0 3.656-2.468 5.61-2.453 1.953-10.813 3.765l-3.125.735q-8.344 1.75-12.062 5.39-3.704 3.64-3.704 9.985 0 7.718 5.47 11.906Q16.75 56 26.811 56q4.97 0 9.36-.734 4.406-.72 8.11-2.188z" stroke-linejoin="round"/><path id="J" d="M37.11 75.984V68.5h-8.594q-4.828 0-6.72-1.953-1.874-1.953-1.874-7.031v-4.828h14.797v-6.985H19.922V0H10.89v47.703H2.297v6.984h8.594V58.5q0 9.125 4.25 13.297 4.25 4.187 13.468 4.187z" stroke-linejoin="round"/><path id="K" d="M8.688 72.906h9.921V28.61q0-11.718 4.235-16.875 4.25-5.14 13.781-5.14 9.469 0 13.719 5.14 4.25 5.157 4.25 16.875v44.297H64.5V27.391q0-14.25-7.063-21.532-7.046-7.28-20.812-7.28-13.828 0-20.89 7.28-7.047 7.282-7.047 21.532z" stroke-linejoin="round"/><path id="L" d="M53.516 70.516V60.89q-5.61 2.687-10.594 4-4.984 1.328-9.625 1.328-8.047 0-12.422-3.125t-4.375-8.89q0-4.845 2.906-7.313 2.907-2.453 11.016-3.97l5.953-1.218q11.031-2.11 16.281-7.406 5.25-5.297 5.25-14.172 0-10.61-7.11-16.078-7.093-5.469-20.812-5.469-5.172 0-11.015 1.172Q13.14.922 6.89 3.219v10.156q6-3.36 11.765-5.078 5.766-1.703 11.328-1.703 8.438 0 13.032 3.312 4.593 3.328 4.593 9.485 0 5.359-3.297 8.39-3.296 3.032-10.812 4.547L27.484 33.5q-11.03 2.188-15.968 6.875-4.922 4.688-4.922 13.047 0 9.672 6.812 15.234 6.813 5.563 18.766 5.563 5.14 0 10.453-.938 5.328-.922 10.89-2.765z" stroke-linejoin="round"/><path id="M" d="M31 75.875q-6.531-11.219-9.719-22.219-3.172-10.984-3.172-22.265 0-11.266 3.203-22.328Q24.517-2 31-13.188h-7.813Q15.875-1.704 12.235 9.375q-3.64 11.078-3.64 22.016 0 10.89 3.61 21.922 3.624 11.046 10.983 22.562z" stroke-linejoin="round"/><path id="N" d="M8.5 21.578v33.11h8.984V21.922q0-7.766 3.016-11.656 3.031-3.875 9.094-3.875 7.265 0 11.484 4.64 4.234 4.64 4.234 12.656v31h8.985V0h-8.984v8.406Q42.047 3.422 37.718 1q-4.313-2.422-10.032-2.422-9.421 0-14.312 5.86Q8.5 10.296 8.5 21.578z" stroke-linejoin="round"/><path id="O" d="M48.688 27.297q0 9.906-4.079 15.547-4.078 5.64-11.203 5.64-7.14 0-11.218-5.64-4.079-5.64-4.079-15.547 0-9.906 4.078-15.547 4.079-5.64 11.22-5.64 7.124 0 11.202 5.64t4.078 15.547zM18.108 46.39q2.844 4.875 7.157 7.234Q29.594 56 35.594 56q9.968 0 16.187-7.906 6.235-7.907 6.235-20.797T51.78 6.484q-6.218-7.906-16.187-7.906-6 0-10.328 2.375-4.313 2.375-7.157 7.25V0H9.08v75.984h9.03z" stroke-linejoin="round"/><path id="P" d="M54.89 33.016V0h-8.984v32.719q0 7.765-3.031 11.61-3.031 3.858-9.078 3.858-7.281 0-11.484-4.64-4.204-4.625-4.204-12.64V0H9.08v54.688h9.03v-8.5q3.235 4.937 7.594 7.374Q30.078 56 35.797 56q9.422 0 14.25-5.828 4.844-5.828 4.844-17.156z" stroke-linejoin="round"/><path id="Q" d="M10.688 12.406H21V0H10.687z" stroke-linejoin="round"/><path id="R" d="M32.172-5.078q-3.797-9.766-7.422-12.735-3.61-2.984-9.656-2.984H7.906v7.516h5.282q3.703 0 5.75 1.765Q21-9.766 23.483-3.219l1.61 4.094-22.11 53.813H12.5l17.094-42.766 17.093 42.766h9.516z" stroke-linejoin="round"/><clipPath id="T" stroke-linejoin="round"><path d="M50.15 297.12H558v208.808H50.15z"/></clipPath><clipPath id="a" stroke-linejoin="round"><path d="M50.15 25.44H558v208.808H50.15z"/></clipPath></defs><path d="M0 568.8h568.8V0H0z" fill="#fff"/><path d="M50.15 234.248H558V25.44H50.15z" fill="#fff"/><path clip-path="url(#a)" d="M50.15 234.248V25.44" fill="none" stroke="#b0b0b0" stroke-linecap="square" stroke-width=".8"/><use stroke="#000" stroke-width=".8" x="50.15" xlink:href="#b" y="234.248"/><g transform="matrix(.1 0 0 -.1 40.717 271.242)"><use xlink:href="#c"/><use x="86.279" xlink:href="#d"/><use x="147.559" xlink:href="#e"/></g><g transform="matrix(.1 0 0 -.1 37.425 282.44)"><use xlink:href="#f"/><use x="63.623" xlink:href="#g"/><use x="127.246" xlink:href="#f"/><use x="190.869" xlink:href="#g"/></g><path clip-path="url(#a)" d="M336.393 234.248V25.44" fill="none" stroke="#b0b0b0" stroke-linecap="square" stroke-width=".8"/><use stroke="#000" stroke-width=".8" x="336.393" xlink:href="#b" y="234.248"/><g transform="matrix(.1 0 0 -.1 327.743 271.242)"><use xlink:href="#h"/><use x="68.408" xlink:href="#i"/><use x="131.885" xlink:href="#e"/></g><g stroke-width=".8"><path clip-path="url(#a)" d="M558 234.248V25.44" fill="none" stroke="#b0b0b0" stroke-linecap="square"/><use stroke="#000" x="558" xlink:href="#b" y="234.248"/></g><use stroke="#000" stroke-width=".6" x="59.384" xlink:href="#j" y="234.248"/><g transform="matrix(.1 0 0 -.1 53.021 247.246)"><use xlink:href="#g"/><use x="63.623" xlink:href="#f"/></g><g stroke="#000" stroke-width=".6"><use x="68.617" xlink:href="#j" y="234.248"/><use x="77.851" xlink:href="#j" y="234.248"/><use x="87.085" xlink:href="#j" y="234.248"/><use x="96.318" xlink:href="#j" y="234.248"/><use x="105.552" xlink:href="#j" y="234.248"/><use x="114.786" xlink:href="#j" y="234.248"/></g><use stroke="#000" stroke-width=".6" x="124.019" xlink:href="#j" y="234.248"/><g transform="matrix(.1 0 0 -.1 117.657 247.246)"><use xlink:href="#g"/><use x="63.623" xlink:href="#k"/></g><use stroke="#000" stroke-width=".6" x="133.253" xlink:href="#j" y="234.248"/><use stroke="#000" stroke-width=".6" x="142.487" xlink:href="#j" y="234.248"/><use stroke="#000" stroke-width=".6" x="151.72" xlink:href="#j" y="234.248"/><use stroke="#000" stroke-width=".6" x="160.954" xlink:href="#j" y="234.248"/><use stroke="#000" stroke-width=".6" x="170.187" xlink:href="#j" y="234.248"/><use stroke="#000" stroke-width=".6" x="179.421" xlink:href="#j" y="234.248"/><use stroke="#000" stroke-width=".6" x="188.655" xlink:href="#j" y="234.248"/><g transform="matrix(.1 0 0 -.1 182.292 247.246)"><use xlink:href="#l"/><use x="63.623" xlink:href="#m"/></g><use stroke="#000" stroke-width=".6" x="197.888" xlink:href="#j" y="234.248"/><use stroke="#000" stroke-width=".6" x="207.122" xlink:href="#j" y="234.248"/><use stroke="#000" stroke-width=".6" x="216.356" xlink:href="#j" y="234.248"/><use stroke="#000" stroke-width=".6" x="225.589" xlink:href="#j" y="234.248"/><use stroke="#000" stroke-width=".6" x="234.823" xlink:href="#j" y="234.248"/><use stroke="#000" stroke-width=".6" x="244.056" xlink:href="#j" y="234.248"/><use stroke="#000" stroke-width=".6" x="253.29" xlink:href="#j" y="234.248"/><g transform="matrix(.1 0 0 -.1 246.928 247.246)"><use xlink:href="#f"/><use x="63.623" xlink:href="#n"/></g><use stroke="#000" stroke-width=".6" x="262.524" xlink:href="#j" y="234.248"/><use stroke="#000" stroke-width=".6" x="271.757" xlink:href="#j" y="234.248"/><use stroke="#000" stroke-width=".6" x="280.991" xlink:href="#j" y="234.248"/><use stroke="#000" stroke-width=".6" x="290.225" xlink:href="#j" y="234.248"/><use stroke="#000" stroke-width=".6" x="299.458" xlink:href="#j" y="234.248"/><use stroke="#000" stroke-width=".6" x="308.692" xlink:href="#j" y="234.248"/><use stroke="#000" stroke-width=".6" x="317.926" xlink:href="#j" y="234.248"/><g transform="matrix(.1 0 0 -.1 311.563 247.246)"><use xlink:href="#n"/><use x="63.623" xlink:href="#g"/></g><use stroke="#000" stroke-width=".6" x="327.159" xlink:href="#j" y="234.248"/><use stroke="#000" stroke-width=".6" x="345.626" xlink:href="#j" y="234.248"/><use stroke="#000" stroke-width=".6" x="354.86" xlink:href="#j" y="234.248"/><use stroke="#000" stroke-width=".6" x="364.094" xlink:href="#j" y="234.248"/><use stroke="#000" stroke-width=".6" x="373.327" xlink:href="#j" y="234.248"/><use stroke="#000" stroke-width=".6" x="382.561" xlink:href="#j" y="234.248"/><g transform="matrix(.1 0 0 -.1 376.198 247.246)"><use xlink:href="#g"/><use x="63.623" xlink:href="#m"/></g><use stroke="#000" stroke-width=".6" x="391.795" xlink:href="#j" y="234.248"/><use stroke="#000" stroke-width=".6" x="401.028" xlink:href="#j" y="234.248"/><use stroke="#000" stroke-width=".6" x="410.262" xlink:href="#j" y="234.248"/><use stroke="#000" stroke-width=".6" x="419.496" xlink:href="#j" y="234.248"/><use stroke="#000" stroke-width=".6" x="428.729" xlink:href="#j" y="234.248"/><use stroke="#000" stroke-width=".6" x="437.963" xlink:href="#j" y="234.248"/><use stroke="#000" stroke-width=".6" x="447.196" xlink:href="#j" y="234.248"/><g transform="matrix(.1 0 0 -.1 440.834 247.246)"><use xlink:href="#l"/><use x="63.623" xlink:href="#n"/></g><use stroke="#000" stroke-width=".6" x="456.43" xlink:href="#j" y="234.248"/><use stroke="#000" stroke-width=".6" x="465.664" xlink:href="#j" y="234.248"/><use stroke="#000" stroke-width=".6" x="474.897" xlink:href="#j" y="234.248"/><use stroke="#000" stroke-width=".6" x="484.131" xlink:href="#j" y="234.248"/><use stroke="#000" stroke-width=".6" x="493.365" xlink:href="#j" y="234.248"/><use stroke="#000" stroke-width=".6" x="502.598" xlink:href="#j" y="234.248"/><g><use stroke="#000" stroke-width=".6" x="511.832" xlink:href="#j" y="234.248"/><g transform="matrix(.1 0 0 -.1 505.47 247.246)"><use xlink:href="#f"/><use x="63.623" xlink:href="#g"/></g></g><use stroke="#000" stroke-width=".6" x="521.065" xlink:href="#j" y="234.248"/><use stroke="#000" stroke-width=".6" x="530.299" xlink:href="#j" y="234.248"/><use stroke="#000" stroke-width=".6" x="539.533" xlink:href="#j" y="234.248"/><use stroke="#000" stroke-width=".6" x="548.766" xlink:href="#j" y="234.248"/><g><path clip-path="url(#a)" d="M50.15 234.248H558" fill="none" stroke="#b0b0b0" stroke-linecap="square" stroke-width=".8"/><use stroke="#000" stroke-width=".8" x="50.15" xlink:href="#o" y="234.248"/><g transform="matrix(.1 0 0 -.1 25.55 238.047)"><use transform="translate(0 .684)" xlink:href="#l"/><use transform="translate(63.623 .684)" xlink:href="#g"/><use transform="matrix(.7 0 0 .7 128.203 38.966)" xlink:href="#l"/></g><path clip-path="url(#a)" d="M50.15 194.037H558" fill="none" stroke="#b0b0b0" stroke-linecap="square" stroke-width=".8"/><use stroke="#000" stroke-width=".8" x="50.15" xlink:href="#o" y="194.037"/><g transform="matrix(.1 0 0 -.1 25.55 197.836)"><use transform="translate(0 .766)" xlink:href="#l"/><use transform="translate(63.623 .766)" xlink:href="#g"/><use transform="matrix(.7 0 0 .7 128.203 39.047)" xlink:href="#f"/></g><path clip-path="url(#a)" d="M50.15 153.825H558" fill="none" stroke="#b0b0b0" stroke-linecap="square" stroke-width=".8"/><use stroke="#000" stroke-width=".8" x="50.15" xlink:href="#o" y="153.825"/><g transform="matrix(.1 0 0 -.1 25.55 157.624)"><use transform="translate(0 .766)" xlink:href="#l"/><use transform="translate(63.623 .766)" xlink:href="#g"/><use transform="matrix(.7 0 0 .7 128.203 39.047)" xlink:href="#n"/></g><g><path clip-path="url(#a)" d="M50.15 113.614H558" fill="none" stroke="#b0b0b0" stroke-linecap="square" stroke-width=".8"/><use stroke="#000" stroke-width=".8" x="50.15" xlink:href="#o" y="113.614"/><g transform="matrix(.1 0 0 -.1 25.55 117.413)"><use transform="translate(0 .684)" xlink:href="#l"/><use transform="translate(63.623 .684)" xlink:href="#g"/><use transform="matrix(.7 0 0 .7 128.203 38.966)" xlink:href="#p"/></g></g><g><path clip-path="url(#a)" d="M50.15 73.402H558" fill="none" stroke="#b0b0b0" stroke-linecap="square" stroke-width=".8"/><use stroke="#000" stroke-width=".8" x="50.15" xlink:href="#o" y="73.402"/><g transform="matrix(.1 0 0 -.1 25.55 77.202)"><use transform="translate(0 .684)" xlink:href="#l"/><use transform="translate(63.623 .684)" xlink:href="#g"/><use transform="matrix(.7 0 0 .7 128.203 38.966)" xlink:href="#q"/></g></g><g><path clip-path="url(#a)" d="M50.15 33.191H558" fill="none" stroke="#b0b0b0" stroke-linecap="square" stroke-width=".8"/><use stroke="#000" stroke-width=".8" x="50.15" xlink:href="#o" y="33.191"/><g transform="matrix(.1 0 0 -.1 25.55 36.99)"><use transform="translate(0 .766)" xlink:href="#l"/><use transform="translate(63.623 .766)" xlink:href="#g"/><use transform="matrix(.7 0 0 .7 128.203 39.047)" xlink:href="#m"/></g></g><g stroke="#000" stroke-width=".6"><use x="50.15" xlink:href="#r" y="222.143"/><use x="50.15" xlink:href="#r" y="215.062"/><use x="50.15" xlink:href="#r" y="210.038"/><use x="50.15" xlink:href="#r" y="206.141"/><use x="50.15" xlink:href="#r" y="202.957"/><use x="50.15" xlink:href="#r" y="200.265"/><use x="50.15" xlink:href="#r" y="197.933"/><use x="50.15" xlink:href="#r" y="195.877"/><use x="50.15" xlink:href="#r" y="181.932"/><use x="50.15" xlink:href="#r" y="174.851"/><use x="50.15" xlink:href="#r" y="169.827"/><use x="50.15" xlink:href="#r" y="165.93"/><use x="50.15" xlink:href="#r" y="162.746"/><use x="50.15" xlink:href="#r" y="160.054"/><use x="50.15" xlink:href="#r" y="157.722"/><use x="50.15" xlink:href="#r" y="155.665"/><use x="50.15" xlink:href="#r" y="141.72"/><use x="50.15" xlink:href="#r" y="134.639"/><use x="50.15" xlink:href="#r" y="129.616"/><use x="50.15" xlink:href="#r" y="125.719"/><use x="50.15" xlink:href="#r" y="122.535"/><use x="50.15" xlink:href="#r" y="119.843"/><use x="50.15" xlink:href="#r" y="117.511"/><use x="50.15" xlink:href="#r" y="115.454"/><use x="50.15" xlink:href="#r" y="101.509"/><use x="50.15" xlink:href="#r" y="94.428"/><use x="50.15" xlink:href="#r" y="89.404"/><use x="50.15" xlink:href="#r" y="85.507"/><use x="50.15" xlink:href="#r" y="82.323"/><use x="50.15" xlink:href="#r" y="79.631"/><use x="50.15" xlink:href="#r" y="77.299"/><use x="50.15" xlink:href="#r" y="75.242"/><use x="50.15" xlink:href="#r" y="61.298"/><use x="50.15" xlink:href="#r" y="54.217"/><use x="50.15" xlink:href="#r" y="49.193"/><use x="50.15" xlink:href="#r" y="45.296"/><use x="50.15" xlink:href="#r" y="42.112"/><use x="50.15" xlink:href="#r" y="39.42"/><use x="50.15" xlink:href="#r" y="37.088"/><use x="50.15" xlink:href="#r" y="35.031"/></g><g transform="matrix(0 -.1 -.1 0 19.47 156.19)"><path d="M3.328 72.906h9.953L28.61 11.281l15.282 61.625h11.093l15.328-61.625 15.282 61.625h10.015L77.297 0H64.89L49.516 63.281 33.984 0H21.578z"/><use x="98.799" xlink:href="#s"/><use x="159.98" xlink:href="#e"/><use x="201.094" xlink:href="#t"/><use x="228.877" xlink:href="#u"/><use x="292.354" xlink:href="#v"/><use x="374.141" xlink:href="#w"/><use x="401.924" xlink:href="#u"/><use x="465.4" xlink:href="#x"/></g></g><g stroke="#1f77b4"><path clip-path="url(#a)" d="M-1 207.024l4.982.198 9.234-2.098 9.233-.327 9.234-.32 9.234-2.092 9.233-1.613 9.234-4.503 9.233-3.414 9.234-3.93 9.234-7.08 9.233-4.224 9.234-7.441 9.234-4.527 9.233-2.164 9.234-8.265 9.234-5.113 9.233-4.613 9.234-4.795 9.233-3.963 9.234-4.41 9.234-4.887 9.233-5.75 9.234-3.199 9.234-9.955 9.233-5.866 9.234-5.086 9.233-5.045 9.234-4.446 9.234-3.501 9.233-3.528 9.234-4.187 9.234-3.339 9.233-3.083 9.234-2.397 9.234-2.11 9.233-2.547 9.234-2.119 9.233-2.327 9.234-2.161 9.234-1.733 9.233-1.42 9.234-1.422 9.234-1.273 9.233-1.35 9.234-1.24 9.234-1.19 9.233-.965 9.234-.919 9.233-.458 9.234-.683 9.234-.7 9.233-.746 9.234-.713 9.234-.689 9.233-.53 9.234-.579 9.233-.576 9.234-.58" fill="none" stroke-linecap="square" stroke-width="1.5"/><g clip-path="url(#a)" fill="#1f77b4"><use x="-1" xlink:href="#y" y="207.024"/><use x="3.982" xlink:href="#y" y="207.222"/><use x="13.216" xlink:href="#y" y="205.124"/><use x="22.449" xlink:href="#y" y="204.797"/><use x="31.683" xlink:href="#y" y="204.477"/><use x="40.917" xlink:href="#y" y="202.385"/><use x="50.15" xlink:href="#y" y="200.772"/><use x="59.384" xlink:href="#y" y="196.269"/><use x="68.617" xlink:href="#y" y="192.855"/><use x="77.851" xlink:href="#y" y="188.926"/><use x="87.085" xlink:href="#y" y="181.845"/><use x="96.318" xlink:href="#y" y="177.621"/><use x="105.552" xlink:href="#y" y="170.18"/><use x="114.786" xlink:href="#y" y="165.653"/><use x="124.019" xlink:href="#y" y="163.489"/><use x="133.253" xlink:href="#y" y="155.224"/><use x="142.487" xlink:href="#y" y="150.111"/><use x="151.72" xlink:href="#y" y="145.498"/><use x="160.954" xlink:href="#y" y="140.703"/><use x="170.187" xlink:href="#y" y="136.74"/><use x="179.421" xlink:href="#y" y="132.331"/><use x="188.655" xlink:href="#y" y="127.443"/><use x="197.888" xlink:href="#y" y="121.694"/><use x="207.122" xlink:href="#y" y="118.494"/><use x="216.356" xlink:href="#y" y="108.539"/><use x="225.589" xlink:href="#y" y="102.673"/><use x="234.823" xlink:href="#y" y="97.587"/><use x="244.056" xlink:href="#y" y="92.542"/><use x="253.29" xlink:href="#y" y="88.096"/><use x="262.524" xlink:href="#y" y="84.595"/><use x="271.757" xlink:href="#y" y="81.067"/><use x="280.991" xlink:href="#y" y="76.88"/><use x="290.225" xlink:href="#y" y="73.541"/><use x="299.458" xlink:href="#y" y="70.458"/><use x="308.692" xlink:href="#y" y="68.061"/><use x="317.926" xlink:href="#y" y="65.952"/><use x="327.159" xlink:href="#y" y="63.404"/><use x="336.393" xlink:href="#y" y="61.285"/><use x="345.626" xlink:href="#y" y="58.958"/><use x="354.86" xlink:href="#y" y="56.797"/><use x="364.094" xlink:href="#y" y="55.064"/><use x="373.327" xlink:href="#y" y="53.644"/><use x="382.561" xlink:href="#y" y="52.222"/><use x="391.795" xlink:href="#y" y="50.949"/><use x="401.028" xlink:href="#y" y="49.599"/><use x="410.262" xlink:href="#y" y="48.359"/><use x="419.496" xlink:href="#y" y="47.168"/><use x="428.729" xlink:href="#y" y="46.204"/><use x="437.963" xlink:href="#y" y="45.285"/><use x="447.196" xlink:href="#y" y="44.827"/><use x="456.43" xlink:href="#y" y="44.144"/><use x="465.664" xlink:href="#y" y="43.444"/><use x="474.897" xlink:href="#y" y="42.698"/><use x="484.131" xlink:href="#y" y="41.985"/><use x="493.365" xlink:href="#y" y="41.296"/><use x="502.598" xlink:href="#y" y="40.765"/><use x="511.832" xlink:href="#y" y="40.187"/><use x="521.065" xlink:href="#y" y="39.611"/><use x="530.299" xlink:href="#y" y="39.032"/></g></g><g stroke="#ff7f0e"><path clip-path="url(#a)" d="M-1 246.353H13.216l9.233-5.876 9.234-9.413 9.234-3.897 9.233-10.9 9.234-2.332 9.233-5.16 9.234-10.174 9.234-5.582 9.233-6.41 9.234-3.41 9.234-5.303 9.233-2.987 9.234-3.145 9.234-3.281h9.233l9.234-10.184 9.233-6.186 9.234-.016 9.234-5.047 9.233-3.978 9.234-5.27 9.234-.055 9.233-7.093 9.234-4.098 9.233-2.065 9.234-2.67 9.234-3.417 9.233-3.016 9.234-3.568 9.234-3.873 9.233-2.693 9.234-2.287 9.234-2.203 9.233-2.078 9.234-2.63 9.233-2.232 9.234-2.023 9.234-1.474 9.233-2.293 9.234-1.3 9.234-1.035 9.233-1.542 9.234-1.097 9.234-2.146 9.233-1.122 9.234-1.12 9.233-.912 9.234-.975 9.234-.794 9.233-.75 9.234-.9 9.234-.834 9.233-.897 9.234-.69 9.233-.521 9.234-.559" fill="none" stroke-linecap="square" stroke-width="1.5"/><g clip-path="url(#a)" fill="#ff7f0e"><use x="-1" xlink:href="#z" y="246.353"/><use x="3.982" xlink:href="#z" y="246.353"/><use x="13.216" xlink:href="#z" y="246.353"/><use x="22.449" xlink:href="#z" y="240.477"/><use x="31.683" xlink:href="#z" y="231.064"/><use x="40.917" xlink:href="#z" y="227.167"/><use x="50.15" xlink:href="#z" y="216.267"/><use x="59.384" xlink:href="#z" y="213.935"/><use x="68.617" xlink:href="#z" y="208.775"/><use x="77.851" xlink:href="#z" y="198.601"/><use x="87.085" xlink:href="#z" y="193.019"/><use x="96.318" xlink:href="#z" y="186.61"/><use x="105.552" xlink:href="#z" y="183.199"/><use x="114.786" xlink:href="#z" y="177.896"/><use x="124.019" xlink:href="#z" y="174.909"/><use x="133.253" xlink:href="#z" y="171.764"/><use x="142.487" xlink:href="#z" y="168.483"/><use x="151.72" xlink:href="#z" y="168.483"/><use x="160.954" xlink:href="#z" y="158.299"/><use x="170.187" xlink:href="#z" y="152.113"/><use x="179.421" xlink:href="#z" y="152.097"/><use x="188.655" xlink:href="#z" y="147.05"/><use x="197.888" xlink:href="#z" y="143.072"/><use x="207.122" xlink:href="#z" y="137.803"/><use x="216.356" xlink:href="#z" y="137.747"/><use x="225.589" xlink:href="#z" y="130.654"/><use x="234.823" xlink:href="#z" y="126.556"/><use x="244.056" xlink:href="#z" y="124.491"/><use x="253.29" xlink:href="#z" y="121.822"/><use x="262.524" xlink:href="#z" y="118.404"/><use x="271.757" xlink:href="#z" y="115.388"/><use x="280.991" xlink:href="#z" y="111.82"/><use x="290.225" xlink:href="#z" y="107.947"/><use x="299.458" xlink:href="#z" y="105.254"/><use x="308.692" xlink:href="#z" y="102.967"/><use x="317.926" xlink:href="#z" y="100.764"/><use x="327.159" xlink:href="#z" y="98.686"/><use x="336.393" xlink:href="#z" y="96.057"/><use x="345.626" xlink:href="#z" y="93.824"/><use x="354.86" xlink:href="#z" y="91.801"/><use x="364.094" xlink:href="#z" y="90.327"/><use x="373.327" xlink:href="#z" y="88.034"/><use x="382.561" xlink:href="#z" y="86.734"/><use x="391.795" xlink:href="#z" y="85.699"/><use x="401.028" xlink:href="#z" y="84.157"/><use x="410.262" xlink:href="#z" y="83.06"/><use x="419.496" xlink:href="#z" y="80.914"/><use x="428.729" xlink:href="#z" y="79.792"/><use x="437.963" xlink:href="#z" y="78.672"/><use x="447.196" xlink:href="#z" y="77.76"/><use x="456.43" xlink:href="#z" y="76.785"/><use x="465.664" xlink:href="#z" y="75.991"/><use x="474.897" xlink:href="#z" y="75.24"/><use x="484.131" xlink:href="#z" y="74.341"/><use x="493.365" xlink:href="#z" y="73.507"/><use x="502.598" xlink:href="#z" y="72.61"/><use x="511.832" xlink:href="#z" y="71.92"/><use x="521.065" xlink:href="#z" y="71.399"/><use x="530.299" xlink:href="#z" y="70.84"/></g></g><path clip-path="url(#a)" d="M-1 177.441l4.982-3.219 9.234-5.98 9.233-5.291 9.234-5.681 9.234-4.347 9.233-7.053 9.234-2.646 9.233-3.661 9.234-3.122 9.234-3.445 9.233-3.01 9.234-4.48 9.234-4.063 9.233-3.9 9.234-1.685 9.234-3.245h9.233l9.234-6.028 9.233-2.992 9.234-2.603 9.234-1.977 9.233-2.127 9.234-1.69 9.234-2.533 9.233-2.614 9.234-1.778 9.233-1.548 9.234-1.361 9.234-1.209 9.233-1.093 9.234-1.313 9.234-1.197 9.233-.935 9.234-.926 9.234-.385 9.233-.48 9.234-.65 9.233-.528 9.234-.485 9.234-.58 9.233-.579 9.234-.367 9.234-.165 9.233-.22 9.234-.294 9.234-.25 9.233-.35 9.234-.343 9.233-.231 9.234-.113 9.234-.188 9.233-.196 9.234-.058 9.234-.132 9.233-.078 9.234.003 9.233.085 9.234.002" fill="none" stroke="#2ca02c" stroke-linecap="square" stroke-width="1.5"/><g stroke="#d62728"><path clip-path="url(#a)" d="M3.909 569.8l.073-319.55 9.234-17.666 9.233-2.918 9.234-14.604 9.234-6.287 9.233-11.273 9.234-6.356 9.233-5.534 9.234-5.185 9.234-2.67 9.233-7.622 9.234-2.749 9.234-5.38 9.233-8.406 9.234-8.286 9.234-3.94 9.233.01 9.234-15.334 9.233-2.555 9.234-3.632 9.234-4.545 9.233-2.028 9.234-3.157 9.234-4.756 9.233-1.812 9.234-3.62 9.233-2.138 9.234-3.068 9.234-2.125 9.233-3.427 9.234-2.377 9.234-1.725 9.233-1.232 9.234-1.117 9.234-1.392 9.233-1.258 9.234-.967 9.233-.687 9.234-.576 9.234-.557 9.233-.2 9.234-.421 9.234-.373 9.233-.148 9.234-.041 9.234-.186 9.233-.158 9.234.016 9.233-.077 9.234.127 9.234-.22 9.233-.537 9.234-.973 9.234-.153 9.233-.703 9.234.366 9.233-.282 9.234-.065" fill="none" stroke-linecap="square" stroke-width="1.5"/><g clip-path="url(#a)" fill="#d62728"><use x="-1" xlink:href="#A" y="21959.551"/><use x="3.982" xlink:href="#A" y="250.25"/><use x="13.216" xlink:href="#A" y="232.584"/><use x="22.449" xlink:href="#A" y="229.666"/><use x="31.683" xlink:href="#A" y="215.062"/><use x="40.917" xlink:href="#A" y="208.775"/><use x="50.15" xlink:href="#A" y="197.502"/><use x="59.384" xlink:href="#A" y="191.146"/><use x="68.617" xlink:href="#A" y="185.612"/><use x="77.851" xlink:href="#A" y="180.427"/><use x="87.085" xlink:href="#A" y="177.758"/><use x="96.318" xlink:href="#A" y="170.135"/><use x="105.552" xlink:href="#A" y="167.386"/><use x="114.786" xlink:href="#A" y="162.005"/><use x="124.019" xlink:href="#A" y="153.6"/><use x="133.253" xlink:href="#A" y="145.314"/><use x="142.487" xlink:href="#A" y="141.375"/><use x="151.72" xlink:href="#A" y="141.383"/><use x="160.954" xlink:href="#A" y="126.05"/><use x="170.187" xlink:href="#A" y="123.495"/><use x="179.421" xlink:href="#A" y="119.863"/><use x="188.655" xlink:href="#A" y="115.318"/><use x="197.888" xlink:href="#A" y="113.29"/><use x="207.122" xlink:href="#A" y="110.133"/><use x="216.356" xlink:href="#A" y="105.377"/><use x="225.589" xlink:href="#A" y="103.565"/><use x="234.823" xlink:href="#A" y="99.945"/><use x="244.056" xlink:href="#A" y="97.807"/><use x="253.29" xlink:href="#A" y="94.739"/><use x="262.524" xlink:href="#A" y="92.614"/><use x="271.757" xlink:href="#A" y="89.187"/><use x="280.991" xlink:href="#A" y="86.81"/><use x="290.225" xlink:href="#A" y="85.085"/><use x="299.458" xlink:href="#A" y="83.853"/><use x="308.692" xlink:href="#A" y="82.736"/><use x="317.926" xlink:href="#A" y="81.344"/><use x="327.159" xlink:href="#A" y="80.086"/><use x="336.393" xlink:href="#A" y="79.119"/><use x="345.626" xlink:href="#A" y="78.432"/><use x="354.86" xlink:href="#A" y="77.856"/><use x="364.094" xlink:href="#A" y="77.299"/><use x="373.327" xlink:href="#A" y="77.098"/><use x="382.561" xlink:href="#A" y="76.678"/><use x="391.795" xlink:href="#A" y="76.305"/><use x="401.028" xlink:href="#A" y="76.157"/><use x="410.262" xlink:href="#A" y="76.116"/><use x="419.496" xlink:href="#A" y="75.93"/><use x="428.729" xlink:href="#A" y="75.772"/><use x="437.963" xlink:href="#A" y="75.788"/><use x="447.196" xlink:href="#A" y="75.711"/><use x="456.43" xlink:href="#A" y="75.838"/><use x="465.664" xlink:href="#A" y="75.618"/><use x="474.897" xlink:href="#A" y="75.081"/><use x="484.131" xlink:href="#A" y="74.108"/><use x="493.365" xlink:href="#A" y="73.955"/><use x="502.598" xlink:href="#A" y="73.252"/><use x="511.832" xlink:href="#A" y="73.618"/><use x="521.065" xlink:href="#A" y="73.336"/><use x="530.299" xlink:href="#A" y="73.271"/></g></g><g stroke="#9467bd"><path clip-path="url(#a)" d="M-1 250.55l4.982 11.805 9.234-16.002 9.233-28.107 9.234-9.872 9.234-11.703 9.233-5.226 9.234-7.28 9.233-1.153 9.234-6.256 9.234-5.04 9.233-9.877 9.234-6.671 9.234-2.928 9.233-1.276 9.234-6.802 9.234-4.296h9.233l9.234-8.294 9.233-3.53 9.234-.13 9.234-6.748 9.233-2.58 9.234-2.92 9.234-3.119 9.233-2.36 9.234-2.112 9.233.512 9.234-4.293 9.234-1.167 9.233-1.928 9.234-2.051 9.234-2.015 9.233-2.74 9.234-.463 9.234-1.776 9.233-2.652 9.234-1.217 9.233.276 9.234-1.035 9.234-7.31 9.233-.415 9.234-.807 9.234-1.736 9.233-.307 9.234-.322 9.234-.897 9.233-.529 9.234-.302 9.233-.58 9.234 1.613 9.234.12 9.233-1.905 9.234.074 9.234.408 9.233-.725 9.234-.176 9.233-.088 9.234.764" fill="none" stroke-linecap="square" stroke-width="1.5"/><g clip-path="url(#a)" fill="#9467bd"><use x="-1" xlink:href="#B" y="250.55"/><use x="3.982" xlink:href="#B" y="262.355"/><use x="13.216" xlink:href="#B" y="246.353"/><use x="22.449" xlink:href="#B" y="218.246"/><use x="31.683" xlink:href="#B" y="208.374"/><use x="40.917" xlink:href="#B" y="196.671"/><use x="50.15" xlink:href="#B" y="191.445"/><use x="59.384" xlink:href="#B" y="184.164"/><use x="68.617" xlink:href="#B" y="183.012"/><use x="77.851" xlink:href="#B" y="176.756"/><use x="87.085" xlink:href="#B" y="171.715"/><use x="96.318" xlink:href="#B" y="161.839"/><use x="105.552" xlink:href="#B" y="155.168"/><use x="114.786" xlink:href="#B" y="152.24"/><use x="124.019" xlink:href="#B" y="150.964"/><use x="133.253" xlink:href="#B" y="144.162"/><use x="142.487" xlink:href="#B" y="139.866"/><use x="151.72" xlink:href="#B" y="139.866"/><use x="160.954" xlink:href="#B" y="131.572"/><use x="170.187" xlink:href="#B" y="128.043"/><use x="179.421" xlink:href="#B" y="127.911"/><use x="188.655" xlink:href="#B" y="121.164"/><use x="197.888" xlink:href="#B" y="118.584"/><use x="207.122" xlink:href="#B" y="115.665"/><use x="216.356" xlink:href="#B" y="112.545"/><use x="225.589" xlink:href="#B" y="110.184"/><use x="234.823" xlink:href="#B" y="108.073"/><use x="244.056" xlink:href="#B" y="108.585"/><use x="253.29" xlink:href="#B" y="104.292"/><use x="262.524" xlink:href="#B" y="103.125"/><use x="271.757" xlink:href="#B" y="101.197"/><use x="280.991" xlink:href="#B" y="99.146"/><use x="290.225" xlink:href="#B" y="97.131"/><use x="299.458" xlink:href="#B" y="94.391"/><use x="308.692" xlink:href="#B" y="93.928"/><use x="317.926" xlink:href="#B" y="92.152"/><use x="327.159" xlink:href="#B" y="89.5"/><use x="336.393" xlink:href="#B" y="88.283"/><use x="345.626" xlink:href="#B" y="88.559"/><use x="354.86" xlink:href="#B" y="87.524"/><use x="364.094" xlink:href="#B" y="80.214"/><use x="373.327" xlink:href="#B" y="79.799"/><use x="382.561" xlink:href="#B" y="78.992"/><use x="391.795" xlink:href="#B" y="77.256"/><use x="401.028" xlink:href="#B" y="76.949"/><use x="410.262" xlink:href="#B" y="76.627"/><use x="419.496" xlink:href="#B" y="75.73"/><use x="428.729" xlink:href="#B" y="75.201"/><use x="437.963" xlink:href="#B" y="74.899"/><use x="447.196" xlink:href="#B" y="74.319"/><use x="456.43" xlink:href="#B" y="75.932"/><use x="465.664" xlink:href="#B" y="76.052"/><use x="474.897" xlink:href="#B" y="74.147"/><use x="484.131" xlink:href="#B" y="74.221"/><use x="493.365" xlink:href="#B" y="74.629"/><use x="502.598" xlink:href="#B" y="73.904"/><use x="511.832" xlink:href="#B" y="73.728"/><use x="521.065" xlink:href="#B" y="73.64"/><use x="530.299" xlink:href="#B" y="74.404"/></g></g><path clip-path="url(#a)" d="M530.3 39.032l9.233-.578 9.233-.578 9.234-.578" fill="none" stroke="#1f77b4" stroke-dasharray="1.5 2.475" stroke-width="1.5"/><path clip-path="url(#a)" d="M530.3 70.84l9.233-.574 9.233-.573 9.234-.574" fill="none" stroke="#ff7f0e" stroke-dasharray="1.5 2.475" stroke-width="1.5"/><path clip-path="url(#a)" d="M530.3 72.107l9.233.032 9.233.032 9.234.032" fill="none" stroke="#2ca02c" stroke-dasharray="1.5 2.475" stroke-width="1.5"/><path clip-path="url(#a)" d="M530.3 73.27l9.233-.05 9.233-.05 9.234-.05" fill="none" stroke="#d62728" stroke-dasharray="1.5 2.475" stroke-width="1.5"/><path clip-path="url(#a)" d="M530.3 74.404l9.233.258 9.233.259 9.234.258" fill="none" stroke="#9467bd" stroke-dasharray="1.5 2.475" stroke-width="1.5"/><path d="M50.15 234.248V25.44M558 234.248V25.44M50.15 234.248H558M50.15 25.44H558" fill="none" stroke="#000" stroke-linecap="square" stroke-linejoin="miter" stroke-width=".8"/><g transform="matrix(.12 0 0 -.12 182.296 19.44)"><use xlink:href="#h"/><use x="68.393" xlink:href="#C"/><use x="123.373" xlink:href="#D"/><use x="162.582" xlink:href="#w"/><use x="190.365" xlink:href="#E"/><use x="249.545" xlink:href="#x"/><use x="342.855" xlink:href="#F"/><path d="M452.086 66.219q-10.75 0-17.078-8.016-6.313-8-6.313-21.828 0-13.766 6.313-21.781 6.328-8 17.078-8 10.734 0 17.016 8 6.28 8.015 6.28 21.781 0 13.828-6.28 21.828-6.282 8.016-17.016 8.016zm0 8q15.328 0 24.5-10.281 9.187-10.282 9.187-27.563 0-17.234-9.187-27.516-9.172-10.28-24.5-10.28-15.375 0-24.594 10.25-9.203 10.265-9.203 27.546t9.203 27.563q9.219 10.28 24.594 10.28zM519.984 0l-27.828 72.906h10.297l23.11-61.375 23.14 61.375h10.25L531.172 0z"/><use x="559.783" xlink:href="#G"/><path d="M608.947 64.797V8.109h11.922q15.094 0 22.094 6.829 7 6.843 7 21.593 0 14.64-7 21.453-7 6.813-22.094 6.813zm-9.86 8.11h20.267q21.187 0 31.093-8.813 9.922-8.813 9.922-27.563 0-18.86-9.969-27.703Q640.447 0 619.354 0h-20.266z"/><use x="666.277" xlink:href="#H"/><use x="702.361" xlink:href="#l"/><use x="765.984" xlink:href="#k"/><use x="861.395" xlink:href="#C"/><use x="916.375" xlink:href="#d"/><use x="977.654" xlink:href="#I"/><use x="1029.754" xlink:href="#x"/><use x="1091.277" xlink:href="#I"/><use x="1175.164" xlink:href="#d"/><use x="1236.443" xlink:href="#I"/><use x="1320.33" xlink:href="#s"/><use x="1381.512" xlink:href="#J"/><use x="1448.504" xlink:href="#f"/><use x="1512.127" xlink:href="#g"/><use x="1575.75" xlink:href="#f"/><use x="1639.373" xlink:href="#g"/><use x="1702.996" xlink:href="#H"/><use x="1739.08" xlink:href="#g"/><use x="1802.703" xlink:href="#p"/><use x="1866.326" xlink:href="#H"/><use x="1902.41" xlink:href="#f"/><use x="1966.033" xlink:href="#f"/></g><g><path d="M323.94 229.248H551q2 0 2-2v-72.39q0-2-2-2H323.94q-2 0-2 2v72.39q0 2 2 2z" fill="#fff" opacity=".8" stroke="#ccc" stroke-linejoin="miter"/><path d="M325.94 160.956h20" fill="none" stroke="#1f77b4" stroke-linecap="square" stroke-width="1.5"/><use fill="#1f77b4" stroke="#1f77b4" x="335.941" xlink:href="#y" y="160.956"/><g transform="matrix(.1 0 0 -.1 353.94 164.456)"><use xlink:href="#K"/><use x="73.193" xlink:href="#L"/><use x="168.457" xlink:href="#M"/><use x="207.471" xlink:href="#u"/><use x="270.947" xlink:href="#s"/><use x="332.129" xlink:href="#N"/><use x="395.508" xlink:href="#O"/><use x="458.984" xlink:href="#t"/><use x="486.768" xlink:href="#x"/><use x="548.291" xlink:href="#I"/><use x="632.178" xlink:href="#w"/><use x="659.961" xlink:href="#P"/><use x="755.127" xlink:href="#f"/><use x="818.75" xlink:href="#g"/><use x="882.373" xlink:href="#Q"/><use x="914.16" xlink:href="#k"/><use x="1009.57" xlink:href="#u"/><use x="1073.047" xlink:href="#d"/><use x="1134.326" xlink:href="#R"/><use x="1193.506" xlink:href="#I"/><use x="1245.605" xlink:href="#S"/></g><path d="M325.94 175.634h20" fill="none" stroke="#ff7f0e" stroke-linecap="square" stroke-width="1.5"/><use fill="#ff7f0e" stroke="#ff7f0e" x="335.941" xlink:href="#z" y="175.634"/><g transform="matrix(.1 0 0 -.1 353.94 179.134)"><use xlink:href="#K"/><use x="73.193" xlink:href="#P"/><use x="136.572" xlink:href="#w"/><use x="164.355" xlink:href="#D"/><use x="203.564" xlink:href="#x"/><use x="265.088" xlink:href="#u"/><path d="M370.164 72.906h9.86V42.094l32.718 30.812h12.703l-36.187-33.984L428.023 0H415.04l-35.016 35.11V0h-9.859z"/><use x="425.928" xlink:href="#w"/><use x="453.711" xlink:href="#P"/><path d="M562.496 27.984q0 9.766-4.031 15.125-4.016 5.375-11.297 5.375-7.219 0-11.25-5.375-4.031-5.359-4.031-15.125 0-9.718 4.031-15.093t11.25-5.375q7.281 0 11.297 5.375 4.031 5.375 4.031 15.093zm8.984-21.203q0-13.953-6.203-20.765-6.187-6.813-18.984-6.813-4.734 0-8.938.703-4.203.703-8.156 2.172v8.735q3.953-2.141 7.813-3.157 3.86-1.031 7.86-1.031 8.843 0 13.233 4.61 4.391 4.609 4.391 13.937v4.453q-2.781-4.844-7.125-7.234Q551.027 0 544.965 0q-10.047 0-16.203 7.656-6.157 7.672-6.157 20.328 0 12.688 6.157 20.344Q534.918 56 544.965 56q6.062 0 10.406-2.39 4.344-2.391 7.125-7.22v8.297h8.984z"/><use x="580.566" xlink:href="#u"/><use x="644.043" xlink:href="#s"/><path d="M757.225 44.188q3.375 6.062 8.062 8.937Q769.975 56 776.318 56q8.547 0 13.188-5.984 4.64-5.97 4.64-17V0h-9.03v32.719q0 7.86-2.798 11.656-2.78 3.813-8.484 3.813-6.984 0-11.047-4.641-4.047-4.625-4.047-12.64V0h-9.031v32.719q0 7.906-2.781 11.687-2.782 3.782-8.594 3.782-6.89 0-10.953-4.657-4.047-4.656-4.047-12.625V0h-9.031v54.688h9.031v-8.5q3.078 5.03 7.375 7.421Q735.006 56 740.912 56q5.969 0 10.14-3.031 4.173-3.016 6.173-8.782z"/><use x="834.424" xlink:href="#M"/><use x="873.438" xlink:href="#u"/><use x="936.914" xlink:href="#s"/><use x="998.096" xlink:href="#N"/><use x="1061.475" xlink:href="#O"/><use x="1124.951" xlink:href="#t"/><use x="1152.734" xlink:href="#x"/><use x="1214.258" xlink:href="#I"/><use x="1298.145" xlink:href="#w"/><use x="1325.928" xlink:href="#P"/><use x="1421.094" xlink:href="#f"/><use x="1484.717" xlink:href="#l"/><use x="1548.34" xlink:href="#Q"/><use x="1580.127" xlink:href="#l"/><use x="1675.537" xlink:href="#u"/><use x="1739.014" xlink:href="#d"/><use x="1800.293" xlink:href="#R"/><use x="1859.473" xlink:href="#I"/><use x="1911.572" xlink:href="#S"/></g><path d="M325.94 190.312h20" fill="none" stroke="#2ca02c" stroke-linecap="square" stroke-width="1.5"/><g transform="matrix(.1 0 0 -.1 353.94 193.812)"><use xlink:href="#G"/><use x="29.492" xlink:href="#D"/><use x="68.701" xlink:href="#d"/><use x="129.98" xlink:href="#t"/><use x="157.764" xlink:href="#R"/></g><path d="M325.94 204.99h20" fill="none" stroke="#d62728" stroke-linecap="square" stroke-width="1.5"/><use fill="#d62728" stroke="#d62728" x="335.941" xlink:href="#A" y="204.99"/><g transform="matrix(.1 0 0 -.1 353.94 208.49)"><use xlink:href="#L"/><use x="63.477" xlink:href="#i"/><use x="126.953" xlink:href="#d"/><use x="188.232" xlink:href="#w"/><use x="216.016" xlink:href="#P"/></g><path d="M325.94 219.668h20" fill="none" stroke="#9467bd" stroke-linecap="square" stroke-width="1.5"/><use fill="#9467bd" stroke="#9467bd" x="335.941" xlink:href="#B" y="219.668"/><g transform="matrix(.1 0 0 -.1 353.94 223.168)"><path d="M9.813 72.906h41.89v-8.312H19.672V43.109h28.906v-8.297H19.672V0h-9.86z"/><use x="57.41" xlink:href="#e"/><use x="98.523" xlink:href="#d"/><use x="159.803" xlink:href="#P"/><use x="223.182" xlink:href="#C"/><use x="278.162" xlink:href="#x"/></g></g><g><path d="M50.15 505.928H558V297.12H50.15z" fill="#fff"/><path clip-path="url(#T)" d="M50.15 505.928V297.12" fill="none" stroke="#b0b0b0" stroke-linecap="square" stroke-width=".8"/><use stroke="#000" stroke-width=".8" x="50.15" xlink:href="#b" y="505.928"/><g transform="matrix(.1 0 0 -.1 40.717 542.922)"><use xlink:href="#c"/><use x="86.279" xlink:href="#d"/><use x="147.559" xlink:href="#e"/></g><g transform="matrix(.1 0 0 -.1 37.425 554.12)"><use xlink:href="#f"/><use x="63.623" xlink:href="#g"/><use x="127.246" xlink:href="#f"/><use x="190.869" xlink:href="#g"/></g><path clip-path="url(#T)" d="M336.393 505.928V297.12" fill="none" stroke="#b0b0b0" stroke-linecap="square" stroke-width=".8"/><use stroke="#000" stroke-width=".8" x="336.393" xlink:href="#b" y="505.928"/><g transform="matrix(.1 0 0 -.1 327.743 542.922)"><use xlink:href="#h"/><use x="68.408" xlink:href="#i"/><use x="131.885" xlink:href="#e"/></g><g stroke-width=".8"><path clip-path="url(#T)" d="M558 505.928V297.12" fill="none" stroke="#b0b0b0" stroke-linecap="square"/><use stroke="#000" x="558" xlink:href="#b" y="505.928"/></g><use stroke="#000" stroke-width=".6" x="59.384" xlink:href="#j" y="505.928"/><g transform="matrix(.1 0 0 -.1 53.021 518.926)"><use xlink:href="#g"/><use x="63.623" xlink:href="#f"/></g><g stroke="#000" stroke-width=".6"><use x="68.617" xlink:href="#j" y="505.928"/><use x="77.851" xlink:href="#j" y="505.928"/><use x="87.085" xlink:href="#j" y="505.928"/><use x="96.318" xlink:href="#j" y="505.928"/><use x="105.552" xlink:href="#j" y="505.928"/><use x="114.786" xlink:href="#j" y="505.928"/></g><use stroke="#000" stroke-width=".6" x="124.019" xlink:href="#j" y="505.928"/><g transform="matrix(.1 0 0 -.1 117.657 518.926)"><use xlink:href="#g"/><use x="63.623" xlink:href="#k"/></g><use stroke="#000" stroke-width=".6" x="133.253" xlink:href="#j" y="505.928"/><use stroke="#000" stroke-width=".6" x="142.487" xlink:href="#j" y="505.928"/><use stroke="#000" stroke-width=".6" x="151.72" xlink:href="#j" y="505.928"/><use stroke="#000" stroke-width=".6" x="160.954" xlink:href="#j" y="505.928"/><use stroke="#000" stroke-width=".6" x="170.187" xlink:href="#j" y="505.928"/><use stroke="#000" stroke-width=".6" x="179.421" xlink:href="#j" y="505.928"/><use stroke="#000" stroke-width=".6" x="188.655" xlink:href="#j" y="505.928"/><g transform="matrix(.1 0 0 -.1 182.292 518.926)"><use xlink:href="#l"/><use x="63.623" xlink:href="#m"/></g><use stroke="#000" stroke-width=".6" x="197.888" xlink:href="#j" y="505.928"/><use stroke="#000" stroke-width=".6" x="207.122" xlink:href="#j" y="505.928"/><use stroke="#000" stroke-width=".6" x="216.356" xlink:href="#j" y="505.928"/><use stroke="#000" stroke-width=".6" x="225.589" xlink:href="#j" y="505.928"/><use stroke="#000" stroke-width=".6" x="234.823" xlink:href="#j" y="505.928"/><use stroke="#000" stroke-width=".6" x="244.056" xlink:href="#j" y="505.928"/><use stroke="#000" stroke-width=".6" x="253.29" xlink:href="#j" y="505.928"/><g transform="matrix(.1 0 0 -.1 246.928 518.926)"><use xlink:href="#f"/><use x="63.623" xlink:href="#n"/></g><use stroke="#000" stroke-width=".6" x="262.524" xlink:href="#j" y="505.928"/><use stroke="#000" stroke-width=".6" x="271.757" xlink:href="#j" y="505.928"/><use stroke="#000" stroke-width=".6" x="280.991" xlink:href="#j" y="505.928"/><use stroke="#000" stroke-width=".6" x="290.225" xlink:href="#j" y="505.928"/><use stroke="#000" stroke-width=".6" x="299.458" xlink:href="#j" y="505.928"/><use stroke="#000" stroke-width=".6" x="308.692" xlink:href="#j" y="505.928"/><use stroke="#000" stroke-width=".6" x="317.926" xlink:href="#j" y="505.928"/><g transform="matrix(.1 0 0 -.1 311.563 518.926)"><use xlink:href="#n"/><use x="63.623" xlink:href="#g"/></g><use stroke="#000" stroke-width=".6" x="327.159" xlink:href="#j" y="505.928"/><use stroke="#000" stroke-width=".6" x="345.626" xlink:href="#j" y="505.928"/><use stroke="#000" stroke-width=".6" x="354.86" xlink:href="#j" y="505.928"/><use stroke="#000" stroke-width=".6" x="364.094" xlink:href="#j" y="505.928"/><use stroke="#000" stroke-width=".6" x="373.327" xlink:href="#j" y="505.928"/><use stroke="#000" stroke-width=".6" x="382.561" xlink:href="#j" y="505.928"/><g transform="matrix(.1 0 0 -.1 376.198 518.926)"><use xlink:href="#g"/><use x="63.623" xlink:href="#m"/></g><use stroke="#000" stroke-width=".6" x="391.795" xlink:href="#j" y="505.928"/><use stroke="#000" stroke-width=".6" x="401.028" xlink:href="#j" y="505.928"/><use stroke="#000" stroke-width=".6" x="410.262" xlink:href="#j" y="505.928"/><use stroke="#000" stroke-width=".6" x="419.496" xlink:href="#j" y="505.928"/><use stroke="#000" stroke-width=".6" x="428.729" xlink:href="#j" y="505.928"/><use stroke="#000" stroke-width=".6" x="437.963" xlink:href="#j" y="505.928"/><use stroke="#000" stroke-width=".6" x="447.196" xlink:href="#j" y="505.928"/><g transform="matrix(.1 0 0 -.1 440.834 518.926)"><use xlink:href="#l"/><use x="63.623" xlink:href="#n"/></g><use stroke="#000" stroke-width=".6" x="456.43" xlink:href="#j" y="505.928"/><use stroke="#000" stroke-width=".6" x="465.664" xlink:href="#j" y="505.928"/><use stroke="#000" stroke-width=".6" x="474.897" xlink:href="#j" y="505.928"/><use stroke="#000" stroke-width=".6" x="484.131" xlink:href="#j" y="505.928"/><use stroke="#000" stroke-width=".6" x="493.365" xlink:href="#j" y="505.928"/><use stroke="#000" stroke-width=".6" x="502.598" xlink:href="#j" y="505.928"/><g><use stroke="#000" stroke-width=".6" x="511.832" xlink:href="#j" y="505.928"/><g transform="matrix(.1 0 0 -.1 505.47 518.926)"><use xlink:href="#f"/><use x="63.623" xlink:href="#g"/></g></g><use stroke="#000" stroke-width=".6" x="521.065" xlink:href="#j" y="505.928"/><use stroke="#000" stroke-width=".6" x="530.299" xlink:href="#j" y="505.928"/><use stroke="#000" stroke-width=".6" x="539.533" xlink:href="#j" y="505.928"/><use stroke="#000" stroke-width=".6" x="548.766" xlink:href="#j" y="505.928"/><g><path clip-path="url(#T)" d="M50.15 505.928H558" fill="none" stroke="#b0b0b0" stroke-linecap="square" stroke-width=".8"/><use stroke="#000" stroke-width=".8" x="50.15" xlink:href="#o" y="505.928"/><g transform="matrix(.1 0 0 -.1 25.55 509.727)"><use transform="translate(0 .684)" xlink:href="#l"/><use transform="translate(63.623 .684)" xlink:href="#g"/><use transform="matrix(.7 0 0 .7 128.203 38.966)" xlink:href="#l"/></g><path clip-path="url(#T)" d="M50.15 461.348H558" fill="none" stroke="#b0b0b0" stroke-linecap="square" stroke-width=".8"/><use stroke="#000" stroke-width=".8" x="50.15" xlink:href="#o" y="461.348"/><g transform="matrix(.1 0 0 -.1 25.55 465.147)"><use transform="translate(0 .766)" xlink:href="#l"/><use transform="translate(63.623 .766)" xlink:href="#g"/><use transform="matrix(.7 0 0 .7 128.203 39.047)" xlink:href="#f"/></g><path clip-path="url(#T)" d="M50.15 416.768H558" fill="none" stroke="#b0b0b0" stroke-linecap="square" stroke-width=".8"/><use stroke="#000" stroke-width=".8" x="50.15" xlink:href="#o" y="416.768"/><g transform="matrix(.1 0 0 -.1 25.55 420.567)"><use transform="translate(0 .766)" xlink:href="#l"/><use transform="translate(63.623 .766)" xlink:href="#g"/><use transform="matrix(.7 0 0 .7 128.203 39.047)" xlink:href="#n"/></g><g><path clip-path="url(#T)" d="M50.15 372.188H558" fill="none" stroke="#b0b0b0" stroke-linecap="square" stroke-width=".8"/><use stroke="#000" stroke-width=".8" x="50.15" xlink:href="#o" y="372.188"/><g transform="matrix(.1 0 0 -.1 25.55 375.987)"><use transform="translate(0 .684)" xlink:href="#l"/><use transform="translate(63.623 .684)" xlink:href="#g"/><use transform="matrix(.7 0 0 .7 128.203 38.966)" xlink:href="#p"/></g></g><g><path clip-path="url(#T)" d="M50.15 327.608H558" fill="none" stroke="#b0b0b0" stroke-linecap="square" stroke-width=".8"/><use stroke="#000" stroke-width=".8" x="50.15" xlink:href="#o" y="327.608"/><g transform="matrix(.1 0 0 -.1 25.55 331.408)"><use transform="translate(0 .684)" xlink:href="#l"/><use transform="translate(63.623 .684)" xlink:href="#g"/><use transform="matrix(.7 0 0 .7 128.203 38.966)" xlink:href="#q"/></g></g><g stroke="#000" stroke-width=".6"><use x="50.15" xlink:href="#r" y="492.508"/><use x="50.15" xlink:href="#r" y="484.658"/><use x="50.15" xlink:href="#r" y="479.088"/><use x="50.15" xlink:href="#r" y="474.768"/><use x="50.15" xlink:href="#r" y="471.238"/><use x="50.15" xlink:href="#r" y="468.254"/><use x="50.15" xlink:href="#r" y="465.668"/><use x="50.15" xlink:href="#r" y="463.388"/><use x="50.15" xlink:href="#r" y="447.928"/><use x="50.15" xlink:href="#r" y="440.078"/><use x="50.15" xlink:href="#r" y="434.508"/><use x="50.15" xlink:href="#r" y="430.188"/><use x="50.15" xlink:href="#r" y="426.658"/><use x="50.15" xlink:href="#r" y="423.674"/><use x="50.15" xlink:href="#r" y="421.088"/><use x="50.15" xlink:href="#r" y="418.808"/><use x="50.15" xlink:href="#r" y="403.348"/><use x="50.15" xlink:href="#r" y="395.498"/><use x="50.15" xlink:href="#r" y="389.928"/><use x="50.15" xlink:href="#r" y="385.608"/><use x="50.15" xlink:href="#r" y="382.078"/><use x="50.15" xlink:href="#r" y="379.094"/><use x="50.15" xlink:href="#r" y="376.508"/><use x="50.15" xlink:href="#r" y="374.228"/><use x="50.15" xlink:href="#r" y="358.768"/><use x="50.15" xlink:href="#r" y="350.918"/><use x="50.15" xlink:href="#r" y="345.348"/><use x="50.15" xlink:href="#r" y="341.028"/><use x="50.15" xlink:href="#r" y="337.498"/><use x="50.15" xlink:href="#r" y="334.514"/><use x="50.15" xlink:href="#r" y="331.929"/><use x="50.15" xlink:href="#r" y="329.648"/><use x="50.15" xlink:href="#r" y="314.188"/><use x="50.15" xlink:href="#r" y="306.338"/><use x="50.15" xlink:href="#r" y="300.769"/></g><g transform="matrix(0 -.1 -.1 0 19.47 408.358)"><use xlink:href="#K"/><use x="73.193" xlink:href="#L"/></g></g><g stroke="#1f77b4"><path clip-path="url(#T)" d="M59.38 569.8l.004-19.292 9.233-13.42 9.234-33.005 9.234-14.28 9.233-8.675 9.234-14.467 9.234-6.441 9.233-5.66 9.234-3.824 9.234-4.653 9.233-7.733 9.234-4.832 9.233-4.2 9.234-6.43 9.234-5.269 9.233-11.044 9.234-7.384 9.234-14.824 9.233-8.496 9.234-6.64 9.233-5.755 9.234-5.398 9.234-3.991 9.233-3.524 9.234-3.96 9.234-3.253 9.233-2.962 9.234-2.46 9.234-2.111 9.233-2.453 9.234-1.915 9.233-1.83 9.234-2.02 9.234-1.883 9.233-1.476 9.234-1.277 9.234-1.077 9.233-1.444 9.234-1.283 9.234-1.185 9.233-.91 9.234-.798 9.233-.64 9.234-.665 9.234-1.045 9.233-.567 9.234-.422 9.234-.936 9.233-.468 9.234-.411 9.233-.393 9.234-.37" fill="none" stroke-linecap="square" stroke-width="1.5"/><g clip-path="url(#T)" fill="#1f77b4"><use x="51.015" xlink:href="#y" y="40954.6"/><use x="59.384" xlink:href="#y" y="550.508"/><use x="68.617" xlink:href="#y" y="537.088"/><use x="77.851" xlink:href="#y" y="504.083"/><use x="87.085" xlink:href="#y" y="489.802"/><use x="96.318" xlink:href="#y" y="481.128"/><use x="105.552" xlink:href="#y" y="466.661"/><use x="114.786" xlink:href="#y" y="460.22"/><use x="124.019" xlink:href="#y" y="454.559"/><use x="133.253" xlink:href="#y" y="450.736"/><use x="142.487" xlink:href="#y" y="446.083"/><use x="151.72" xlink:href="#y" y="438.35"/><use x="160.954" xlink:href="#y" y="433.518"/><use x="170.187" xlink:href="#y" y="429.317"/><use x="179.421" xlink:href="#y" y="422.888"/><use x="188.655" xlink:href="#y" y="417.619"/><use x="197.888" xlink:href="#y" y="406.575"/><use x="207.122" xlink:href="#y" y="399.191"/><use x="216.356" xlink:href="#y" y="384.367"/><use x="225.589" xlink:href="#y" y="375.871"/><use x="234.823" xlink:href="#y" y="369.231"/><use x="244.056" xlink:href="#y" y="363.476"/><use x="253.29" xlink:href="#y" y="358.078"/><use x="262.524" xlink:href="#y" y="354.087"/><use x="271.757" xlink:href="#y" y="350.563"/><use x="280.991" xlink:href="#y" y="346.602"/><use x="290.225" xlink:href="#y" y="343.35"/><use x="299.458" xlink:href="#y" y="340.388"/><use x="308.692" xlink:href="#y" y="337.928"/><use x="317.926" xlink:href="#y" y="335.817"/><use x="327.159" xlink:href="#y" y="333.364"/><use x="336.393" xlink:href="#y" y="331.449"/><use x="345.626" xlink:href="#y" y="329.62"/><use x="354.86" xlink:href="#y" y="327.598"/><use x="364.094" xlink:href="#y" y="325.716"/><use x="373.327" xlink:href="#y" y="324.24"/><use x="382.561" xlink:href="#y" y="322.963"/><use x="391.795" xlink:href="#y" y="321.886"/><use x="401.028" xlink:href="#y" y="320.442"/><use x="410.262" xlink:href="#y" y="319.159"/><use x="419.496" xlink:href="#y" y="317.974"/><use x="428.729" xlink:href="#y" y="317.064"/><use x="437.963" xlink:href="#y" y="316.266"/><use x="447.196" xlink:href="#y" y="315.626"/><use x="456.43" xlink:href="#y" y="314.961"/><use x="465.664" xlink:href="#y" y="313.916"/><use x="474.897" xlink:href="#y" y="313.349"/><use x="484.131" xlink:href="#y" y="312.927"/><use x="493.365" xlink:href="#y" y="311.991"/><use x="502.598" xlink:href="#y" y="311.523"/><use x="511.832" xlink:href="#y" y="311.112"/><use x="521.065" xlink:href="#y" y="310.719"/><use x="530.299" xlink:href="#y" y="310.348"/></g></g><g stroke="#ff7f0e"><path clip-path="url(#T)" d="M87.078 569.8l.007-32.712h9.233l9.234-13.42 9.234-4.32h9.233l9.234-19.934 9.234-8.751 9.233-4.67h9.234l9.233-17.178 9.234-6.677 9.234-11.625 9.233-7.887 9.234-.073 9.234-19.771 9.233-3.517 9.234-7.74 9.233-7.122 9.234-7.686 9.234-4.915 9.233-3.453 9.234-8.68 9.234-4.822 9.233-4.476 9.234-3.595 9.234-4.21 9.233-2.214 9.234-3.34 9.233-2.605 9.234-2.998 9.234-2.498 9.233-1.836 9.234-1.769 9.234-1.44 9.233-1.195 9.234-1.377 9.234-1.268 9.233-1.18 9.234-1.186 9.233-.84 9.234-1.173 9.234-.536 9.233-1.088 9.234-.748 9.234-.694 9.233-.878 9.234-.771 9.233-.768 9.234-.68" fill="none" stroke-linecap="square" stroke-width="1.5"/><g clip-path="url(#T)" fill="#ff7f0e"><use x="78.716" xlink:href="#z" y="40954.6"/><use x="87.085" xlink:href="#z" y="537.088"/><use x="96.318" xlink:href="#z" y="537.088"/><use x="105.552" xlink:href="#z" y="523.668"/><use x="114.786" xlink:href="#z" y="519.348"/><use x="124.019" xlink:href="#z" y="519.348"/><use x="133.253" xlink:href="#z" y="499.414"/><use x="142.487" xlink:href="#z" y="490.663"/><use x="151.72" xlink:href="#z" y="485.994"/><use x="160.954" xlink:href="#z" y="485.994"/><use x="170.187" xlink:href="#z" y="468.815"/><use x="179.421" xlink:href="#z" y="462.138"/><use x="188.655" xlink:href="#z" y="450.513"/><use x="197.888" xlink:href="#z" y="442.626"/><use x="207.122" xlink:href="#z" y="442.553"/><use x="216.356" xlink:href="#z" y="422.782"/><use x="225.589" xlink:href="#z" y="419.265"/><use x="234.823" xlink:href="#z" y="411.525"/><use x="244.056" xlink:href="#z" y="404.403"/><use x="253.29" xlink:href="#z" y="396.717"/><use x="262.524" xlink:href="#z" y="391.802"/><use x="271.757" xlink:href="#z" y="388.349"/><use x="280.991" xlink:href="#z" y="379.669"/><use x="290.225" xlink:href="#z" y="374.847"/><use x="299.458" xlink:href="#z" y="370.371"/><use x="308.692" xlink:href="#z" y="366.776"/><use x="317.926" xlink:href="#z" y="362.566"/><use x="327.159" xlink:href="#z" y="360.352"/><use x="336.393" xlink:href="#z" y="357.011"/><use x="345.626" xlink:href="#z" y="354.407"/><use x="354.86" xlink:href="#z" y="351.409"/><use x="364.094" xlink:href="#z" y="348.911"/><use x="373.327" xlink:href="#z" y="347.075"/><use x="382.561" xlink:href="#z" y="345.306"/><use x="391.795" xlink:href="#z" y="343.866"/><use x="401.028" xlink:href="#z" y="342.671"/><use x="410.262" xlink:href="#z" y="341.294"/><use x="419.496" xlink:href="#z" y="340.026"/><use x="428.729" xlink:href="#z" y="338.845"/><use x="437.963" xlink:href="#z" y="337.66"/><use x="447.196" xlink:href="#z" y="336.819"/><use x="456.43" xlink:href="#z" y="335.647"/><use x="465.664" xlink:href="#z" y="335.111"/><use x="474.897" xlink:href="#z" y="334.023"/><use x="484.131" xlink:href="#z" y="333.275"/><use x="493.365" xlink:href="#z" y="332.581"/><use x="502.598" xlink:href="#z" y="331.703"/><use x="511.832" xlink:href="#z" y="330.932"/><use x="521.065" xlink:href="#z" y="330.164"/><use x="530.299" xlink:href="#z" y="329.485"/></g></g><path clip-path="url(#T)" d="M-1 550.508h23.449l.004 19.292m46.16 0l.004-19.292h18.468l9.233-34.69h9.234l9.234-26.016h9.233l9.234-26.628 9.234-.628 9.233-2.508 9.234-2.54 9.233-2.245 9.234-3.364 9.234-3.57 9.233-1.97 9.234-.09 9.234-7.909 9.233-4.414 9.234-4.656 9.233-3.902 9.234-3.5 9.234-7.782 9.233-8.954 9.234-5.259 9.234-5.665 9.233-5.294 9.234-2.952 9.234-2.887 9.233-2.649 9.234-2.975 9.233-2.824 9.234-2.851 9.234-2.337 9.233-1.22 9.234-1.961 9.234-1.73 9.233-1.877 9.234-2.318 9.234-1.934 9.233-1.638 9.234-2.104 9.233-.995 9.234-.942 9.234-1.028 9.233-1.464 9.234-1.257 9.234-1.03 9.233-.761h9.234l9.233-1.47 9.234-.737" fill="none" stroke="#2ca02c" stroke-linecap="square" stroke-width="1.5"/><g stroke="#d62728"><path clip-path="url(#T)" d="M-1 510.248H13.216l9.233-2.28h9.234l9.234-2.04h9.233l9.234-12.427 9.233-3.699 9.234-6.394 9.234-7.85 9.233-2.984 9.234-6.662 9.234-3.57 9.233-1.187 9.234-6.321 9.234-3.986 9.233-3.956 9.234-4.917 9.233-3.683 9.234-4.45 9.234-5.287 9.233-4.32 9.234-1.585 9.234-4.56 9.233-4.095 9.234-2.893 9.233-3.626 9.234-4.784 9.234-3.57 9.233-3.187 9.234-5.105 9.234-3.451 9.233-1.713 9.234-2.69 9.234-3.86 9.233-2.697 9.234-2.616 9.233-2.624 9.234-2.095 9.234-1.29 9.233-3.046 9.234-1.218 9.234-1.523 9.233-1.626 9.234-.788 9.234-1.3 9.233-.563 9.234-.943 9.233-.906 9.234-1.112 9.234-.95 9.233-.66 9.234-.988 9.234-.83 9.233-.586 9.234-1.363 9.233-1.001 9.234-.961" fill="none" stroke-linecap="square" stroke-width="1.5"/><g clip-path="url(#T)" fill="#d62728"><use x="-1" xlink:href="#A" y="510.248"/><use x="3.982" xlink:href="#A" y="510.248"/><use x="13.216" xlink:href="#A" y="510.248"/><use x="22.449" xlink:href="#A" y="507.968"/><use x="31.683" xlink:href="#A" y="507.968"/><use x="40.917" xlink:href="#A" y="505.928"/><use x="50.15" xlink:href="#A" y="505.928"/><use x="59.384" xlink:href="#A" y="493.501"/><use x="68.617" xlink:href="#A" y="489.802"/><use x="77.851" xlink:href="#A" y="483.408"/><use x="87.085" xlink:href="#A" y="475.558"/><use x="96.318" xlink:href="#A" y="472.574"/><use x="105.552" xlink:href="#A" y="465.912"/><use x="114.786" xlink:href="#A" y="462.341"/><use x="124.019" xlink:href="#A" y="461.155"/><use x="133.253" xlink:href="#A" y="454.834"/><use x="142.487" xlink:href="#A" y="450.848"/><use x="151.72" xlink:href="#A" y="446.892"/><use x="160.954" xlink:href="#A" y="441.975"/><use x="170.187" xlink:href="#A" y="438.292"/><use x="179.421" xlink:href="#A" y="433.842"/><use x="188.655" xlink:href="#A" y="428.555"/><use x="197.888" xlink:href="#A" y="424.235"/><use x="207.122" xlink:href="#A" y="422.65"/><use x="216.356" xlink:href="#A" y="418.09"/><use x="225.589" xlink:href="#A" y="413.995"/><use x="234.823" xlink:href="#A" y="411.102"/><use x="244.056" xlink:href="#A" y="407.476"/><use x="253.29" xlink:href="#A" y="402.692"/><use x="262.524" xlink:href="#A" y="399.121"/><use x="271.757" xlink:href="#A" y="395.935"/><use x="280.991" xlink:href="#A" y="390.83"/><use x="290.225" xlink:href="#A" y="387.379"/><use x="299.458" xlink:href="#A" y="385.666"/><use x="308.692" xlink:href="#A" y="382.976"/><use x="317.926" xlink:href="#A" y="379.116"/><use x="327.159" xlink:href="#A" y="376.419"/><use x="336.393" xlink:href="#A" y="373.803"/><use x="345.626" xlink:href="#A" y="371.179"/><use x="354.86" xlink:href="#A" y="369.084"/><use x="364.094" xlink:href="#A" y="367.794"/><use x="373.327" xlink:href="#A" y="364.748"/><use x="382.561" xlink:href="#A" y="363.53"/><use x="391.795" xlink:href="#A" y="362.007"/><use x="401.028" xlink:href="#A" y="360.381"/><use x="410.262" xlink:href="#A" y="359.593"/><use x="419.496" xlink:href="#A" y="358.292"/><use x="428.729" xlink:href="#A" y="357.73"/><use x="437.963" xlink:href="#A" y="356.787"/><use x="447.196" xlink:href="#A" y="355.881"/><use x="456.43" xlink:href="#A" y="354.769"/><use x="465.664" xlink:href="#A" y="353.819"/><use x="474.897" xlink:href="#A" y="353.159"/><use x="484.131" xlink:href="#A" y="352.171"/><use x="493.365" xlink:href="#A" y="351.342"/><use x="502.598" xlink:href="#A" y="350.755"/><use x="511.832" xlink:href="#A" y="349.392"/><use x="521.065" xlink:href="#A" y="348.391"/><use x="530.299" xlink:href="#A" y="347.43"/></g></g><g stroke="#9467bd"><path clip-path="url(#T)" d="M96.312 569.8l.006-32.712h9.234l9.234-21.27 9.233-2.984 9.234-10.436 9.234-5.57 9.233-6.165 9.234-12.053 9.233-2.644 9.234-6.573 9.234-2.985 9.233-7.254 9.234-5.912 9.234-5.792 9.233-7.5 9.234-5.15 9.233-4.805 9.234-6.099 9.234-5.889 9.233-5.481 9.234-6.889 9.234-5.187 9.233-3.692 9.234-3.632 9.234-3.7 9.233-3.427 9.234-3.71 9.233-3.681 9.234-3.2 9.234-3.807 9.233-2.014 9.234-2.4 9.234-2.334 9.233-2.14 9.234-1.856 9.234-1.73 9.233-1.501 9.234-1.035 9.233-1.111 9.234-.856 9.234-.916 9.233-1.047 9.234-1.064 9.234-1.069 9.233-.632 9.234-.567 9.233-.625 9.234-.44" fill="none" stroke-linecap="square" stroke-width="1.5"/><g clip-path="url(#T)" fill="#9467bd"><use x="87.949" xlink:href="#B" y="40954.6"/><use x="96.318" xlink:href="#B" y="537.088"/><use x="105.552" xlink:href="#B" y="537.088"/><use x="114.786" xlink:href="#B" y="515.818"/><use x="124.019" xlink:href="#B" y="512.834"/><use x="133.253" xlink:href="#B" y="502.398"/><use x="142.487" xlink:href="#B" y="496.828"/><use x="151.72" xlink:href="#B" y="490.663"/><use x="160.954" xlink:href="#B" y="478.61"/><use x="170.187" xlink:href="#B" y="475.966"/><use x="179.421" xlink:href="#B" y="469.393"/><use x="188.655" xlink:href="#B" y="466.408"/><use x="197.888" xlink:href="#B" y="459.154"/><use x="207.122" xlink:href="#B" y="453.242"/><use x="216.356" xlink:href="#B" y="447.45"/><use x="225.589" xlink:href="#B" y="439.949"/><use x="234.823" xlink:href="#B" y="434.801"/><use x="244.056" xlink:href="#B" y="429.995"/><use x="253.29" xlink:href="#B" y="423.896"/><use x="262.524" xlink:href="#B" y="418.007"/><use x="271.757" xlink:href="#B" y="412.526"/><use x="280.991" xlink:href="#B" y="405.637"/><use x="290.225" xlink:href="#B" y="400.45"/><use x="299.458" xlink:href="#B" y="396.758"/><use x="308.692" xlink:href="#B" y="393.126"/><use x="317.926" xlink:href="#B" y="389.427"/><use x="327.159" xlink:href="#B" y="385.999"/><use x="336.393" xlink:href="#B" y="382.289"/><use x="345.626" xlink:href="#B" y="378.608"/><use x="354.86" xlink:href="#B" y="375.408"/><use x="364.094" xlink:href="#B" y="371.601"/><use x="373.327" xlink:href="#B" y="369.587"/><use x="382.561" xlink:href="#B" y="367.186"/><use x="391.795" xlink:href="#B" y="364.853"/><use x="401.028" xlink:href="#B" y="362.713"/><use x="410.262" xlink:href="#B" y="360.857"/><use x="419.496" xlink:href="#B" y="359.127"/><use x="428.729" xlink:href="#B" y="357.626"/><use x="437.963" xlink:href="#B" y="356.591"/><use x="447.196" xlink:href="#B" y="355.48"/><use x="456.43" xlink:href="#B" y="354.624"/><use x="465.664" xlink:href="#B" y="353.708"/><use x="474.897" xlink:href="#B" y="352.661"/><use x="484.131" xlink:href="#B" y="351.597"/><use x="493.365" xlink:href="#B" y="350.528"/><use x="502.598" xlink:href="#B" y="349.896"/><use x="511.832" xlink:href="#B" y="349.329"/><use x="521.065" xlink:href="#B" y="348.704"/><use x="530.299" xlink:href="#B" y="348.263"/></g></g><path clip-path="url(#T)" d="M530.3 310.348l9.233-.387 9.233-.388 9.234-.387" fill="none" stroke="#1f77b4" stroke-dasharray="1.5 2.475" stroke-width="1.5"/><path clip-path="url(#T)" d="M530.3 329.485l9.233-.731 9.233-.73 9.234-.731" fill="none" stroke="#ff7f0e" stroke-dasharray="1.5 2.475" stroke-width="1.5"/><path clip-path="url(#T)" d="M530.3 344.983l9.233-.84 9.233-.842 9.234-.84" fill="none" stroke="#2ca02c" stroke-dasharray="1.5 2.475" stroke-width="1.5"/><path clip-path="url(#T)" d="M530.3 347.43l9.233-1.062 9.233-1.061 9.234-1.062" fill="none" stroke="#d62728" stroke-dasharray="1.5 2.475" stroke-width="1.5"/><path clip-path="url(#T)" d="M530.3 348.263l9.233-.533 9.233-.534 9.234-.533" fill="none" stroke="#9467bd" stroke-dasharray="1.5 2.475" stroke-width="1.5"/><path d="M50.15 505.928V297.12M558 505.928V297.12M50.15 505.928H558M50.15 297.12H558" fill="none" stroke="#000" stroke-linecap="square" stroke-linejoin="miter" stroke-width=".8"/><g><path d="M330.316 500.928H551q2 0 2-2v-72.39q0-2-2-2H330.316q-2 0-2 2v72.39q0 2 2 2z" fill="#fff" opacity=".8" stroke="#ccc" stroke-linejoin="miter"/><path d="M332.316 432.636h20" fill="none" stroke="#1f77b4" stroke-linecap="square" stroke-width="1.5"/><use fill="#1f77b4" stroke="#1f77b4" x="342.316" xlink:href="#y" y="432.636"/><g transform="matrix(.1 0 0 -.1 360.316 436.136)"><use xlink:href="#U"/><use x="74.805" xlink:href="#x"/><use x="136.328" xlink:href="#v"/><path d="M249.7 72.906h10.609l20.203-29.984 20.078 29.984h10.594L285.402 34.72V0h-9.906v34.719z"/><use x="310.783" xlink:href="#s"/><use x="371.965" xlink:href="#e"/><path d="M422.156 75.984h9.031V31.11L458 54.687h11.469l-29-25.578L470.703 0h-11.719l-27.796 26.703V0h-9.032z"/><use x="502.775" xlink:href="#M"/><use x="541.789" xlink:href="#u"/><use x="605.266" xlink:href="#s"/><use x="666.447" xlink:href="#N"/><use x="729.826" xlink:href="#O"/><use x="793.303" xlink:href="#t"/><use x="821.086" xlink:href="#x"/><use x="882.609" xlink:href="#I"/><use x="966.496" xlink:href="#w"/><use x="994.279" xlink:href="#P"/><use x="1089.445" xlink:href="#n"/><use x="1153.068" xlink:href="#p"/><use x="1216.691" xlink:href="#Q"/><use x="1248.479" xlink:href="#m"/><use x="1343.889" xlink:href="#u"/><use x="1407.365" xlink:href="#d"/><use x="1468.645" xlink:href="#R"/><use x="1527.824" xlink:href="#I"/><use x="1579.924" xlink:href="#S"/></g><path d="M332.316 447.314h20" fill="none" stroke="#ff7f0e" stroke-linecap="square" stroke-width="1.5"/><use fill="#ff7f0e" stroke="#ff7f0e" x="342.316" xlink:href="#z" y="447.314"/><g transform="matrix(.1 0 0 -.1 360.316 450.814)"><use xlink:href="#U"/><use x="74.805" xlink:href="#x"/><use x="136.328" xlink:href="#v"/><path d="M259.715 72.906h9.86V5.078q0-13.187-5-19.14-5-5.954-16.095-5.954h-3.75v8.297h3.079q6.53 0 9.218 3.672 2.688 3.656 2.688 13.125z"/><use x="279.395" xlink:href="#x"/><use x="340.918" xlink:href="#e"/><use x="382.031" xlink:href="#I"/><use x="434.131" xlink:href="#x"/><use x="495.654" xlink:href="#R"/><use x="586.621" xlink:href="#M"/><use x="625.635" xlink:href="#u"/><use x="689.111" xlink:href="#s"/><use x="750.293" xlink:href="#N"/><use x="813.672" xlink:href="#O"/><use x="877.148" xlink:href="#t"/><use x="904.932" xlink:href="#x"/><use x="966.455" xlink:href="#I"/><use x="1050.342" xlink:href="#w"/><use x="1078.125" xlink:href="#P"/><use x="1173.291" xlink:href="#l"/><path d="M1268.695 34.625q-7.03 0-11.062-3.766-4.016-3.765-4.016-10.343 0-6.594 4.016-10.36 4.031-3.765 11.062-3.765 7.032 0 11.078 3.78 4.063 3.798 4.063 10.345 0 6.578-4.031 10.343-4.016 3.766-11.11 3.766zm-9.86 4.188q-6.343 1.562-9.89 5.906-3.53 4.36-3.53 10.61 0 8.733 6.218 13.812 6.234 5.078 17.062 5.078 10.89 0 17.094-5.078 6.203-5.079 6.203-13.813 0-6.25-3.547-10.61-3.53-4.343-9.828-5.906 7.125-1.656 11.094-6.5 3.984-4.828 3.984-11.796 0-10.61-6.468-16.282-6.47-5.656-18.532-5.656-12.047 0-18.53 5.656-6.47 5.672-6.47 16.282 0 6.968 4 11.797 4.016 4.843 11.14 6.5zm-3.608 15.578q0-5.657 3.53-8.828 3.548-3.172 9.938-3.172 6.36 0 9.938 3.172 3.594 3.171 3.594 8.828 0 5.672-3.594 8.843-3.578 3.172-9.938 3.172-6.39 0-9.937-3.172-3.531-3.172-3.531-8.843z"/><use x="1300.537" xlink:href="#Q"/><use x="1332.324" xlink:href="#p"/><use x="1427.734" xlink:href="#u"/><use x="1491.211" xlink:href="#d"/><use x="1552.49" xlink:href="#R"/><use x="1611.67" xlink:href="#I"/><use x="1663.77" xlink:href="#S"/></g><path d="M332.316 461.992h20" fill="none" stroke="#2ca02c" stroke-linecap="square" stroke-width="1.5"/><g transform="matrix(.1 0 0 -.1 360.316 465.492)"><use xlink:href="#c"/><use x="86.279" xlink:href="#d"/><use x="147.559" xlink:href="#I"/><use x="199.658" xlink:href="#I"/><use x="251.758" xlink:href="#d"/><use x="313.037" xlink:href="#C"/><path d="M422.908 33.016V0h-8.984v32.719q0 7.765-3.031 11.61-3.032 3.858-9.079 3.858-7.28 0-11.484-4.64-4.203-4.625-4.203-12.64V0h-9.031v75.984h9.031V46.188q3.234 4.937 7.594 7.374Q398.096 56 403.814 56q9.422 0 14.25-5.828 4.844-5.828 4.844-17.156z"/><use x="431.396" xlink:href="#N"/><use x="494.775" xlink:href="#I"/><use x="546.875" xlink:href="#x"/><use x="608.398" xlink:href="#D"/><use x="647.607" xlink:href="#D"/><use x="686.816" xlink:href="#I"/><use x="770.703" xlink:href="#M"/><use x="809.717" xlink:href="#u"/><use x="873.193" xlink:href="#s"/><use x="934.375" xlink:href="#N"/><use x="997.754" xlink:href="#O"/><use x="1061.23" xlink:href="#t"/><use x="1089.014" xlink:href="#x"/><use x="1150.537" xlink:href="#I"/><use x="1234.424" xlink:href="#w"/><use x="1262.207" xlink:href="#P"/><use x="1357.373" xlink:href="#l"/><use x="1420.996" xlink:href="#m"/><use x="1484.619" xlink:href="#Q"/><use x="1516.406" xlink:href="#g"/><use x="1611.816" xlink:href="#u"/><use x="1675.293" xlink:href="#d"/><use x="1736.572" xlink:href="#R"/><use x="1795.752" xlink:href="#I"/><use x="1847.852" xlink:href="#S"/></g><path d="M332.316 476.67h20" fill="none" stroke="#d62728" stroke-linecap="square" stroke-width="1.5"/><use fill="#d62728" stroke="#d62728" x="342.316" xlink:href="#A" y="476.67"/><g transform="matrix(.1 0 0 -.1 360.316 480.17)"><use xlink:href="#F"/><use x="69.824" xlink:href="#d"/><use x="131.104" xlink:href="#t"/><use x="158.887" xlink:href="#w"/><use x="186.67" xlink:href="#J"/><use x="221.875" xlink:href="#s"/><use x="283.057" xlink:href="#e"/><use x="324.154" xlink:href="#P"/><use x="387.533" xlink:href="#w"/><use x="415.316" xlink:href="#d"/><use x="508.383" xlink:href="#M"/><use x="547.396" xlink:href="#u"/><use x="610.873" xlink:href="#s"/><use x="672.055" xlink:href="#N"/><use x="735.434" xlink:href="#O"/><use x="798.91" xlink:href="#t"/><use x="826.693" xlink:href="#x"/><use x="888.217" xlink:href="#I"/><use x="972.104" xlink:href="#w"/><use x="999.887" xlink:href="#P"/><use x="1095.053" xlink:href="#l"/><use x="1158.676" xlink:href="#f"/><use x="1222.299" xlink:href="#Q"/><use x="1254.086" xlink:href="#m"/><use x="1349.496" xlink:href="#u"/><use x="1412.973" xlink:href="#d"/><use x="1474.252" xlink:href="#R"/><use x="1533.432" xlink:href="#I"/><use x="1585.531" xlink:href="#S"/></g><path d="M332.316 491.348h20" fill="none" stroke="#9467bd" stroke-linecap="square" stroke-width="1.5"/><use fill="#9467bd" stroke="#9467bd" x="342.316" xlink:href="#B" y="491.348"/><g transform="matrix(.1 0 0 -.1 360.316 494.848)"><path d="M19.672 64.797v-27.39h12.406q6.89 0 10.64 3.562 3.766 3.562 3.766 10.156 0 6.547-3.765 10.11-3.75 3.562-10.64 3.562zm-9.86 8.11h22.266q12.266 0 18.531-5.548 6.282-5.546 6.282-16.234 0-10.797-6.282-16.313-6.265-5.515-18.53-5.515H19.671V0h-9.86z"/><use x="60.256" xlink:href="#x"/><use x="121.779" xlink:href="#P"/><use x="185.158" xlink:href="#P"/><use x="248.537" xlink:href="#I"/><use x="300.637" xlink:href="#R"/><use x="359.816" xlink:href="#t"/><use x="387.6" xlink:href="#E"/><use x="446.779" xlink:href="#d"/><use x="508.059" xlink:href="#P"/><use x="571.438" xlink:href="#w"/><use x="599.221" xlink:href="#d"/><use x="692.287" xlink:href="#M"/><use x="731.301" xlink:href="#u"/><use x="794.777" xlink:href="#s"/><use x="855.959" xlink:href="#N"/><use x="919.338" xlink:href="#O"/><use x="982.814" xlink:href="#t"/><use x="1010.598" xlink:href="#x"/><use x="1072.121" xlink:href="#I"/><use x="1156.008" xlink:href="#w"/><use x="1183.791" xlink:href="#P"/><use x="1278.957" xlink:href="#f"/><use x="1342.58" xlink:href="#q"/><use x="1406.203" xlink:href="#Q"/><use x="1437.99" xlink:href="#l"/><use x="1533.4" xlink:href="#u"/><use x="1596.877" xlink:href="#d"/><use x="1658.156" xlink:href="#R"/><use x="1717.336" xlink:href="#I"/><use x="1769.436" xlink:href="#S"/></g></g></g></svg>