<svg height="758.4" stroke-linejoin="round" viewBox="0 0 568.8 568.8" width="758.4" xmlns="http://www.w3.org/2000/svg" xmlns:xlink="http://www.w3.org/1999/xlink"><defs><path id="x" d="M0 1.5a1.5 1.5 0 100-3 1.5 1.5 0 000 3z" stroke="#ff7f0e" stroke-linejoin="round"/><path id="V" d="M54.89 33.016V0h-8.984v32.719q0 7.765-3.031 11.61-3.031 3.858-9.078 3.858-7.281 0-11.484-4.64-4.204-4.625-4.204-12.64V0H9.08v75.984h9.03V46.188q3.235 4.937 7.594 7.374Q30.078 56 35.797 56q9.422 0 14.25-5.828 4.844-5.828 4.844-17.156z" stroke-linejoin="round"/><path id="b" d="M0 0v3.5" stroke="#000" stroke-linejoin="round" stroke-width=".8"/><path id="c" d="M9.813 72.906h14.703l18.593-49.61 18.703 49.61h14.704V0H66.89v64.016l-18.797-50h-9.907l-18.796 50V0H9.813z" stroke-linejoin="round"/><path id="d" d="M34.281 27.484q-10.89 0-15.093-2.484-4.204-2.484-4.204-8.5 0-4.781 3.157-7.594 3.156-2.797 8.562-2.797 7.485 0 12 5.297 4.516 5.297 4.516 14.078v2zm17.922 3.72V0H43.22v8.297Q40.14 3.328 35.547.953q-4.594-2.375-11.234-2.375-8.391 0-13.36 4.719Q6 8.016 6 15.922q0 9.219 6.172 13.906 6.187 4.688 18.437 4.688h12.61v.89q0 6.203-4.078 9.594-4.078 3.39-11.453 3.39-4.688 0-9.141-1.124-4.438-1.125-8.531-3.375v8.312q4.921 1.906 9.562 2.844 4.64.953 9.031.953 11.875 0 17.735-6.156 5.86-6.14 5.86-18.64z" stroke-linejoin="round"/><path id="e" d="M41.11 46.297q-1.516.875-3.297 1.281Q36.03 48 33.89 48q-7.625 0-11.703-4.953-4.079-4.953-4.079-14.234V0H9.08v54.688h9.03v-8.5q2.844 4.984 7.375 7.39Q30.031 56 36.531 56q.922 0 2.047-.125 1.125-.11 2.484-.36z" stroke-linejoin="round"/><path id="f" d="M19.188 8.297h34.421V0H7.33v8.297q5.609 5.812 15.296 15.594 9.703 9.797 12.188 12.64 4.734 5.313 6.609 9 1.89 3.688 1.89 7.25 0 5.813-4.078 9.469-4.078 3.672-10.625 3.672-4.64 0-9.797-1.61-5.14-1.609-11-4.89v9.969Q13.767 71.78 18.938 73q5.188 1.219 9.485 1.219 11.328 0 18.062-5.672 6.735-5.656 6.735-15.125 0-4.5-1.688-8.531-1.672-4.016-6.125-9.485-1.218-1.422-7.765-8.187-6.532-6.766-18.453-18.922z" stroke-linejoin="round"/><path id="g" d="M31.781 66.406q-7.61 0-11.453-7.5Q16.5 51.422 16.5 36.375q0-14.984 3.828-22.484 3.844-7.5 11.453-7.5 7.672 0 11.5 7.5 3.844 7.5 3.844 22.484 0 15.047-3.844 22.531-3.828 7.5-11.5 7.5zm0 7.813q12.266 0 18.735-9.703 6.468-9.688 6.468-28.141 0-18.406-6.468-28.11-6.47-9.687-18.735-9.687-12.25 0-18.718 9.688-6.47 9.703-6.47 28.109 0 18.453 6.47 28.14Q19.53 74.22 31.78 74.22z" stroke-linejoin="round"/><path id="h" d="M34.188 63.188L20.797 26.906h26.812zm-5.579 9.718h11.188L67.578 0h-10.25l-6.64 18.703h-32.86L11.188 0H.78z" stroke-linejoin="round"/><path id="i" d="M18.11 8.203v-29H9.077v75.484h9.031v-8.296q2.844 4.875 7.157 7.234Q29.594 56 35.594 56q9.968 0 16.187-7.906 6.235-7.907 6.235-20.797T51.78 6.484q-6.218-7.906-16.187-7.906-6 0-10.328 2.375-4.313 2.375-7.157 7.25zm30.578 19.094q0 9.906-4.079 15.547-4.078 5.64-11.203 5.64-7.14 0-11.218-5.64-4.079-5.64-4.079-15.547 0-9.906 4.078-15.547 4.079-5.64 11.22-5.64 7.124 0 11.202 5.64t4.078 15.547z" stroke-linejoin="round"/><path id="j" d="M0 0v2" stroke="#000" stroke-linejoin="round" stroke-width=".6"/><path id="k" d="M10.984 1.516V10.5q3.72-1.766 7.516-2.688 3.813-.921 7.484-.921 9.766 0 14.907 6.562 5.156 6.563 5.89 19.953-2.828-4.203-7.187-6.453-4.344-2.25-9.61-2.25-10.937 0-17.312 6.61-6.375 6.625-6.375 18.109 0 11.219 6.64 18 6.641 6.797 17.672 6.797 12.657 0 19.313-9.703 6.672-9.688 6.672-28.141 0-17.234-8.188-27.516Q40.234-1.42 26.422-1.42q-3.719 0-7.531.734-3.797.734-7.907 2.203zM30.61 32.422q6.641 0 10.516 4.531 3.89 4.547 3.89 12.469 0 7.86-3.89 12.422-3.875 4.562-10.516 4.562-6.64 0-10.515-4.562-3.875-4.563-3.875-12.422 0-7.922 3.875-12.469 3.875-4.531 10.515-4.531z" stroke-linejoin="round"/><path id="l" d="M12.406 8.297h16.11v55.625l-17.532-3.516v8.985l17.438 3.515h9.86V8.296H54.39V0H12.406z" stroke-linejoin="round"/><path id="m" d="M33.016 40.375q-6.641 0-10.532-4.547-3.875-4.531-3.875-12.437 0-7.86 3.875-12.438 3.891-4.562 10.532-4.562 6.64 0 10.515 4.562 3.875 4.578 3.875 12.438 0 7.906-3.875 12.437-3.875 4.547-10.515 4.547zm19.578 30.922v-8.984q-3.719 1.75-7.5 2.671-3.782.938-7.5.938-9.766 0-14.922-6.594-5.14-6.594-5.875-19.922 2.875 4.25 7.219 6.516 4.359 2.266 9.578 2.266 10.984 0 17.36-6.672 6.374-6.657 6.374-18.125 0-11.235-6.64-18.032-6.641-6.78-17.672-6.78-12.657 0-19.344 9.687-6.688 9.703-6.688 28.109 0 17.281 8.204 27.563 8.203 10.28 22.015 10.28 3.719 0 7.5-.734t7.89-2.187z" stroke-linejoin="round"/><path id="n" d="M40.578 39.313Q47.656 37.797 51.625 33q3.984-4.781 3.984-11.813 0-10.78-7.422-16.703-7.421-5.906-21.093-5.906-4.578 0-9.438.906-4.86.907-10.031 2.72v9.515q4.094-2.39 8.969-3.61 4.89-1.218 10.218-1.218 9.266 0 14.125 3.656 4.86 3.656 4.86 10.64 0 6.454-4.516 10.079-4.515 3.64-12.562 3.64h-8.5v8.11h8.89q7.266 0 11.125 2.906 3.86 2.906 3.86 8.375 0 5.61-3.985 8.61-3.968 3.015-11.39 3.015-4.063 0-8.703-.89-4.641-.876-10.203-2.72v8.782q5.624 1.562 10.53 2.344 4.907.78 9.25.78 11.235 0 17.766-5.109 6.547-5.093 6.547-13.78 0-6.063-3.468-10.235-3.47-4.172-9.86-5.782z" stroke-linejoin="round"/><path id="o" d="M0 0h-3.5" stroke="#000" stroke-linejoin="round" stroke-width=".8"/><path id="p" d="M10.797 72.906h38.719v-8.312H19.828v-17.86q2.14.735 4.281 1.094 2.157.36 4.313.36 12.203 0 19.328-6.688 7.14-6.688 7.14-18.11 0-11.765-7.328-18.296-7.328-6.516-20.656-6.516-4.593 0-9.36.781-4.75.782-9.827 2.344v9.922q4.39-2.39 9.078-3.563 4.687-1.171 9.906-1.171 8.453 0 13.375 4.437 4.938 4.438 4.938 12.063 0 7.609-4.938 12.047-4.922 4.453-13.375 4.453-3.953 0-7.89-.875-3.922-.875-8.016-2.735z" stroke-linejoin="round"/><path id="q" d="M30.61 48.39q-7.22 0-11.422-5.64-4.204-5.64-4.204-15.453 0-9.813 4.172-15.453 4.188-5.64 11.453-5.64 7.188 0 11.375 5.655 4.203 5.672 4.203 15.438 0 9.719-4.203 15.406-4.187 5.688-11.375 5.688zm0 7.61q11.718 0 18.406-7.625 6.703-7.61 6.703-21.078 0-13.422-6.703-21.078-6.688-7.64-18.407-7.64-11.765 0-18.437 7.64-6.656 7.656-6.656 21.078 0 13.469 6.656 21.078Q18.844 56 30.609 56z" stroke-linejoin="round"/><path id="r" d="M9.422 75.984h8.984V0H9.422z" stroke-linejoin="round"/><path id="s" d="M45.406 46.39v29.594h8.985V0h-8.985v8.203Q42.578 3.328 38.25.953q-4.313-2.375-10.375-2.375-9.906 0-16.14 7.906-6.22 7.922-6.22 20.813 0 12.89 6.22 20.797Q17.968 56 27.874 56q6.063 0 10.375-2.375 4.328-2.36 7.156-7.234zm-30.61-19.093q0-9.906 4.079-15.547 4.078-5.64 11.203-5.64 7.125 0 11.219 5.64 4.11 5.64 4.11 15.547 0 9.906-4.11 15.547-4.094 5.64-11.219 5.64-7.125 0-11.203-5.64-4.078-5.64-4.078-15.547z" stroke-linejoin="round"/><path id="t" d="M4.203 54.688h8.985l11.234-42.672 11.172 42.672h10.593l11.235-42.672 11.187 42.672h8.985L63.28 0H52.688L40.922 44.828 29.109 0H18.5z" stroke-linejoin="round"/><path id="u" d="M9.422 54.688h8.984V0H9.422zm0 21.296h8.984v-11.39H9.422z" stroke-linejoin="round"/><path id="v" d="M56.203 29.594v-4.39H14.891q.593-9.282 5.593-14.142 5-4.859 13.938-4.859 5.172 0 10.031 1.266 4.86 1.265 9.656 3.812v-8.5Q49.266.734 44.187-.344 39.11-1.422 33.892-1.422q-13.094 0-20.735 7.61-7.64 7.625-7.64 20.625 0 13.421 7.25 21.296Q20.016 56 32.328 56q11.031 0 17.453-7.11 6.422-7.093 6.422-19.296zm-8.984 2.64q-.094 7.36-4.125 11.75-4.032 4.407-10.672 4.407-7.516 0-12.031-4.25-4.516-4.25-5.203-11.97z" stroke-linejoin="round"/><path id="w" d="M-3 0h6M0 3v-6" stroke="#1f77b4" stroke-linejoin="round"/><path id="U" d="M9.813 72.906h13.28l32.329-60.984v60.984h9.562V0h-13.28L19.39 60.984V0H9.813z" stroke-linejoin="round"/><path id="y" d="M-3 0h6M0 3v-6" stroke="#d62728" stroke-linejoin="round"/><path id="z" d="M0 1.5a1.5 1.5 0 100-3 1.5 1.5 0 000 3z" stroke="#9467bd" stroke-linejoin="round"/><path id="A" d="M48.781 52.594v-8.407q-3.812 2.11-7.64 3.157-3.828 1.047-7.735 1.047-8.75 0-13.593-5.547-4.829-5.532-4.829-15.547 0-10.016 4.829-15.563 4.843-5.53 13.593-5.53 3.907 0 7.735 1.046 3.828 1.047 7.64 3.156V2.094Q45.016.344 40.984-.531q-4.015-.89-8.562-.89-12.36 0-19.64 7.765-7.266 7.765-7.266 20.953 0 13.375 7.343 21.031Q20.22 56 33.016 56q4.14 0 8.093-.86 3.953-.843 7.672-2.546z" stroke-linejoin="round"/><path id="B" d="M18.313 70.219V54.688h18.5v-6.985h-18.5V18.016q0-6.688 1.828-8.594 1.828-1.906 7.453-1.906h9.218V0h-9.218q-10.407 0-14.36 3.875-3.953 3.89-3.953 14.14v29.688H2.687v6.984h6.594V70.22z" stroke-linejoin="round"/><path id="C" d="M64.406 67.281v-10.39q-4.984 4.64-10.625 6.922-5.64 2.296-11.984 2.296-12.5 0-19.14-7.64-6.641-7.64-6.641-22.094 0-14.406 6.64-22.047 6.64-7.64 19.14-7.64 6.345 0 11.985 2.296 5.64 2.297 10.625 6.938V5.609Q59.234 2.094 53.437.33q-5.78-1.75-12.218-1.75-16.563 0-26.094 10.124-9.516 10.14-9.516 27.672 0 17.578 9.516 27.703 9.531 10.14 26.094 10.14 6.531 0 12.312-1.734 5.797-1.734 10.875-5.203z" stroke-linejoin="round"/><path id="D" d="M9.813 72.906h9.859V0h-9.86z" stroke-linejoin="round"/><path id="E" d="M4.89 31.39h26.313v-8H4.891z" stroke-linejoin="round"/><path id="F" d="M44.281 53.078v-8.5q-3.797 1.953-7.906 2.922-4.094.984-8.5.984-6.688 0-10.031-2.047-3.344-2.046-3.344-6.156 0-3.125 2.39-4.906 2.391-1.781 9.626-3.39l3.078-.688q9.562-2.047 13.593-5.781 4.032-3.735 4.032-10.422 0-7.625-6.032-12.078-6.03-4.438-16.578-4.438-4.39 0-9.156.86Q10.688.296 5.422 2v9.281q4.984-2.594 9.812-3.89 4.829-1.282 9.579-1.282 6.343 0 9.75 2.172 3.421 2.172 3.421 6.125 0 3.656-2.468 5.61-2.453 1.953-10.813 3.765l-3.125.735q-8.344 1.75-12.062 5.39-3.704 3.64-3.704 9.985 0 7.718 5.47 11.906Q16.75 56 26.811 56q4.97 0 9.36-.734 4.406-.72 8.11-2.188z" stroke-linejoin="round"/><path id="G" d="M37.11 75.984V68.5h-8.594q-4.828 0-6.72-1.953-1.874-1.953-1.874-7.031v-4.828h14.797v-6.985H19.922V0H10.89v47.703H2.297v6.984h8.594V58.5q0 9.125 4.25 13.297 4.25 4.187 13.468 4.187z" stroke-linejoin="round"/><path id="H" d="M8.688 72.906h9.921V28.61q0-11.718 4.235-16.875 4.25-5.14 13.781-5.14 9.469 0 13.719 5.14 4.25 5.157 4.25 16.875v44.297H64.5V27.391q0-14.25-7.063-21.532-7.046-7.28-20.812-7.28-13.828 0-20.89 7.28-7.047 7.282-7.047 21.532z" stroke-linejoin="round"/><path id="I" d="M53.516 70.516V60.89q-5.61 2.687-10.594 4-4.984 1.328-9.625 1.328-8.047 0-12.422-3.125t-4.375-8.89q0-4.845 2.906-7.313 2.907-2.453 11.016-3.97l5.953-1.218q11.031-2.11 16.281-7.406 5.25-5.297 5.25-14.172 0-10.61-7.11-16.078-7.093-5.469-20.812-5.469-5.172 0-11.015 1.172Q13.14.922 6.89 3.219v10.156q6-3.36 11.765-5.078 5.766-1.703 11.328-1.703 8.438 0 13.032 3.312 4.593 3.328 4.593 9.485 0 5.359-3.297 8.39-3.296 3.032-10.812 4.547L27.484 33.5q-11.03 2.188-15.968 6.875-4.922 4.688-4.922 13.047 0 9.672 6.812 15.234 6.813 5.563 18.766 5.563 5.14 0 10.453-.938 5.328-.922 10.89-2.765z" stroke-linejoin="round"/><path id="J" d="M31 75.875q-6.531-11.219-9.719-22.219-3.172-10.984-3.172-22.265 0-11.266 3.203-22.328Q24.517-2 31-13.188h-7.813Q15.875-1.704 12.235 9.375q-3.64 11.078-3.64 22.016 0 10.89 3.61 21.922 3.624 11.046 10.983 22.562z" stroke-linejoin="round"/><path id="K" d="M8.5 21.578v33.11h8.984V21.922q0-7.766 3.016-11.656 3.031-3.875 9.094-3.875 7.265 0 11.484 4.64 4.234 4.64 4.234 12.656v31h8.985V0h-8.984v8.406Q42.047 3.422 37.718 1q-4.313-2.422-10.032-2.422-9.421 0-14.312 5.86Q8.5 10.296 8.5 21.578z" stroke-linejoin="round"/><path id="L" d="M48.688 27.297q0 9.906-4.079 15.547-4.078 5.64-11.203 5.64-7.14 0-11.218-5.64-4.079-5.64-4.079-15.547 0-9.906 4.078-15.547 4.079-5.64 11.22-5.64 7.124 0 11.202 5.64t4.078 15.547zM18.108 46.39q2.844 4.875 7.157 7.234Q29.594 56 35.594 56q9.968 0 16.187-7.906 6.235-7.907 6.235-20.797T51.78 6.484q-6.218-7.906-16.187-7.906-6 0-10.328 2.375-4.313 2.375-7.157 7.25V0H9.08v75.984h9.03z" stroke-linejoin="round"/><path id="M" d="M54.89 33.016V0h-8.984v32.719q0 7.765-3.031 11.61-3.031 3.858-9.078 3.858-7.281 0-11.484-4.64-4.204-4.625-4.204-12.64V0H9.08v54.688h9.03v-8.5q3.235 4.937 7.594 7.374Q30.078 56 35.797 56q9.422 0 14.25-5.828 4.844-5.828 4.844-17.156z" stroke-linejoin="round"/><path id="N" d="M37.797 64.313L12.89 25.39h24.906zm-2.594 8.593H47.61V25.391h10.407v-8.203H47.609V0h-9.812v17.188H4.89v9.515z" stroke-linejoin="round"/><path id="O" d="M10.688 12.406H21V0H10.687z" stroke-linejoin="round"/><path id="P" d="M32.172-5.078q-3.797-9.766-7.422-12.735-3.61-2.984-9.656-2.984H7.906v7.516h5.282q3.703 0 5.75 1.765Q21-9.766 23.483-3.219l1.61 4.094-22.11 53.813H12.5l17.094-42.766 17.093 42.766h9.516z" stroke-linejoin="round"/><path id="Q" d="M8.016 75.875h7.812q7.313-11.516 10.953-22.563 3.64-11.03 3.64-21.921 0-10.938-3.64-22.016-3.64-11.078-10.953-22.563H8.016Q14.5-2 17.703 9.063q3.203 11.063 3.203 22.329 0 11.28-3.203 22.265-3.203 11-9.687 22.219z" stroke-linejoin="round"/><path id="R" d="M8.203 72.906h46.875v-4.203L28.61 0H18.312L43.22 64.594H8.203z" stroke-linejoin="round"/><path id="T" d="M31.781 34.625q-7.031 0-11.062-3.766-4.016-3.765-4.016-10.343 0-6.594 4.016-10.36Q24.75 6.391 31.78 6.391q7.032 0 11.078 3.78 4.063 3.798 4.063 10.345 0 6.578-4.031 10.343-4.016 3.766-11.11 3.766zm-9.86 4.188q-6.343 1.562-9.89 5.906Q8.5 49.079 8.5 55.329q0 8.733 6.219 13.812 6.234 5.078 17.062 5.078 10.89 0 17.094-5.078 6.203-5.079 6.203-13.813 0-6.25-3.547-10.61-3.531-4.343-9.828-5.906 7.125-1.656 11.094-6.5 3.984-4.828 3.984-11.796 0-10.61-6.468-16.282-6.47-5.656-18.532-5.656-12.047 0-18.531 5.656-6.469 5.672-6.469 16.282 0 6.968 4 11.797 4.016 4.843 11.14 6.5zM18.314 54.39q0-5.657 3.53-8.828 3.548-3.172 9.938-3.172 6.36 0 9.938 3.172 3.593 3.171 3.593 8.828 0 5.672-3.593 8.843-3.578 3.172-9.938 3.172-6.39 0-9.937-3.172-3.532-3.172-3.532-8.843z" stroke-linejoin="round"/><clipPath id="S" stroke-linejoin="round"><path d="M70.22 298.38h479.095v207.548H70.22z"/></clipPath><clipPath id="a" stroke-linejoin="round"><path d="M70.22 25.44h479.095v207.548H70.22z"/></clipPath></defs><path d="M0 568.8h568.8V0H0z" fill="#fff"/><path d="M70.22 232.988h479.095V25.44H70.22z" fill="#fff"/><path clip-path="url(#a)" d="M70.22 232.988V25.44" fill="none" stroke="#b0b0b0" stroke-linecap="square" stroke-width=".8"/><use stroke="#000" stroke-width=".8" x="70.22" xlink:href="#b" y="232.988"/><g transform="matrix(.1 0 0 -.1 60.786 269.982)"><use xlink:href="#c"/><use x="86.279" xlink:href="#d"/><use x="147.559" xlink:href="#e"/></g><g transform="matrix(.1 0 0 -.1 57.495 281.18)"><use xlink:href="#f"/><use x="63.623" xlink:href="#g"/><use x="127.246" xlink:href="#f"/><use x="190.869" xlink:href="#g"/></g><path clip-path="url(#a)" d="M549.315 232.988V25.44" fill="none" stroke="#b0b0b0" stroke-linecap="square" stroke-width=".8"/><use stroke="#000" stroke-width=".8" x="549.315" xlink:href="#b" y="232.988"/><g transform="matrix(.1 0 0 -.1 540.665 269.982)"><use xlink:href="#h"/><use x="68.408" xlink:href="#i"/><use x="131.885" xlink:href="#e"/></g><use stroke="#000" stroke-width=".6" x="70.22" xlink:href="#j" y="232.988"/><use stroke="#000" stroke-width=".6" x="85.675" xlink:href="#j" y="232.988"/><g transform="matrix(.1 0 0 -.1 79.312 245.986)"><use xlink:href="#g"/><use x="63.623" xlink:href="#f"/></g><g stroke="#000" stroke-width=".6"><use x="101.129" xlink:href="#j" y="232.988"/><use x="116.584" xlink:href="#j" y="232.988"/><use x="132.039" xlink:href="#j" y="232.988"/><use x="147.493" xlink:href="#j" y="232.988"/><use x="162.948" xlink:href="#j" y="232.988"/><use x="178.403" xlink:href="#j" y="232.988"/></g><use stroke="#000" stroke-width=".6" x="193.857" xlink:href="#j" y="232.988"/><g transform="matrix(.1 0 0 -.1 187.495 245.986)"><use xlink:href="#g"/><use x="63.623" xlink:href="#k"/></g><use stroke="#000" stroke-width=".6" x="209.312" xlink:href="#j" y="232.988"/><use stroke="#000" stroke-width=".6" x="224.767" xlink:href="#j" y="232.988"/><use stroke="#000" stroke-width=".6" x="240.221" xlink:href="#j" y="232.988"/><use stroke="#000" stroke-width=".6" x="255.676" xlink:href="#j" y="232.988"/><use stroke="#000" stroke-width=".6" x="271.131" xlink:href="#j" y="232.988"/><use stroke="#000" stroke-width=".6" x="286.585" xlink:href="#j" y="232.988"/><use stroke="#000" stroke-width=".6" x="302.04" xlink:href="#j" y="232.988"/><g transform="matrix(.1 0 0 -.1 295.678 245.986)"><use xlink:href="#l"/><use x="63.623" xlink:href="#m"/></g><use stroke="#000" stroke-width=".6" x="317.495" xlink:href="#j" y="232.988"/><use stroke="#000" stroke-width=".6" x="332.95" xlink:href="#j" y="232.988"/><use stroke="#000" stroke-width=".6" x="348.404" xlink:href="#j" y="232.988"/><use stroke="#000" stroke-width=".6" x="363.859" xlink:href="#j" y="232.988"/><use stroke="#000" stroke-width=".6" x="379.314" xlink:href="#j" y="232.988"/><use stroke="#000" stroke-width=".6" x="394.768" xlink:href="#j" y="232.988"/><use stroke="#000" stroke-width=".6" x="410.223" xlink:href="#j" y="232.988"/><g transform="matrix(.1 0 0 -.1 403.86 245.986)"><use xlink:href="#f"/><use x="63.623" xlink:href="#n"/></g><use stroke="#000" stroke-width=".6" x="425.678" xlink:href="#j" y="232.988"/><use stroke="#000" stroke-width=".6" x="441.132" xlink:href="#j" y="232.988"/><use stroke="#000" stroke-width=".6" x="456.587" xlink:href="#j" y="232.988"/><use stroke="#000" stroke-width=".6" x="472.042" xlink:href="#j" y="232.988"/><use stroke="#000" stroke-width=".6" x="487.496" xlink:href="#j" y="232.988"/><use stroke="#000" stroke-width=".6" x="502.951" xlink:href="#j" y="232.988"/><g><use stroke="#000" stroke-width=".6" x="518.406" xlink:href="#j" y="232.988"/><g transform="matrix(.1 0 0 -.1 512.043 245.986)"><use xlink:href="#n"/><use x="63.623" xlink:href="#g"/></g></g><use stroke="#000" stroke-width=".6" x="533.86" xlink:href="#j" y="232.988"/><use stroke="#000" stroke-width=".6" x="549.315" xlink:href="#j" y="232.988"/><g><path clip-path="url(#a)" d="M70.22 232.997h479.095" fill="none" stroke="#b0b0b0" stroke-linecap="square" stroke-width=".8"/><use stroke="#000" stroke-width=".8" x="70.22" xlink:href="#o" y="232.997"/><use transform="matrix(.1 0 0 -.1 56.858 236.796)" xlink:href="#g"/><path clip-path="url(#a)" d="M70.22 188.317h479.095" fill="none" stroke="#b0b0b0" stroke-linecap="square" stroke-width=".8"/><use stroke="#000" stroke-width=".8" x="70.22" xlink:href="#o" y="188.317"/><g transform="matrix(.1 0 0 -.1 31.407 192.116)"><use xlink:href="#p"/><use x="63.623" xlink:href="#g"/><use x="127.246" xlink:href="#g"/><use x="190.869" xlink:href="#g"/><use x="254.492" xlink:href="#g"/></g><g><path clip-path="url(#a)" d="M70.22 143.637h479.095" fill="none" stroke="#b0b0b0" stroke-linecap="square" stroke-width=".8"/><use stroke="#000" stroke-width=".8" x="70.22" xlink:href="#o" y="143.637"/><g transform="matrix(.1 0 0 -.1 25.045 147.436)"><use xlink:href="#l"/><use x="63.623" xlink:href="#g"/><use x="127.246" xlink:href="#g"/><use x="190.869" xlink:href="#g"/><use x="254.492" xlink:href="#g"/><use x="318.115" xlink:href="#g"/></g></g><g><path clip-path="url(#a)" d="M70.22 98.956h479.095" fill="none" stroke="#b0b0b0" stroke-linecap="square" stroke-width=".8"/><use stroke="#000" stroke-width=".8" x="70.22" xlink:href="#o" y="98.956"/><g transform="matrix(.1 0 0 -.1 25.045 102.756)"><use xlink:href="#l"/><use x="63.623" xlink:href="#p"/><use x="127.246" xlink:href="#g"/><use x="190.869" xlink:href="#g"/><use x="254.492" xlink:href="#g"/><use x="318.115" xlink:href="#g"/></g></g><g><path clip-path="url(#a)" d="M70.22 54.276h479.095" fill="none" stroke="#b0b0b0" stroke-linecap="square" stroke-width=".8"/><use stroke="#000" stroke-width=".8" x="70.22" xlink:href="#o" y="54.276"/><g transform="matrix(.1 0 0 -.1 25.045 58.076)"><use xlink:href="#f"/><use x="63.623" xlink:href="#g"/><use x="127.246" xlink:href="#g"/><use x="190.869" xlink:href="#g"/><use x="254.492" xlink:href="#g"/><use x="318.115" xlink:href="#g"/></g></g><g transform="matrix(0 -.1 -.1 0 18.965 155.56)"><path d="M3.328 72.906h9.953L28.61 11.281l15.282 61.625h11.093l15.328-61.625 15.282 61.625h10.015L77.297 0H64.89L49.516 63.281 33.984 0H21.578z"/><use x="98.799" xlink:href="#q"/><use x="159.98" xlink:href="#e"/><use x="201.094" xlink:href="#r"/><use x="228.877" xlink:href="#s"/><use x="292.354" xlink:href="#t"/><use x="374.141" xlink:href="#u"/><use x="401.924" xlink:href="#s"/><use x="465.4" xlink:href="#v"/></g></g><g stroke="#1f77b4"><path clip-path="url(#a)" d="M-1 232.953l9.401-.003 15.455-.001 15.455-.001 15.454-.006 15.455-.006 15.455-.018 15.454-.017 15.455-.024 15.455-.06 15.454-.049 15.455-.121 15.455-.104 15.454-.06 15.455-.31 15.455-.281 15.454-.335 15.455-.455 15.455-.482 15.454-.683 15.455-.988 15.455-1.578 15.455-1.131 15.454-5.192 15.455-4.77 15.455-5.635 15.454-7.42 15.455-8.754 15.455-8.552 15.454-10.535 15.455-15.612 15.455-15.425 15.454-17.133 15.455-15.525" fill="none" stroke-linecap="square" stroke-width="1.5"/><g clip-path="url(#a)" fill="#1f77b4"><use x="-1" xlink:href="#w" y="232.953"/><use x="8.401" xlink:href="#w" y="232.95"/><use x="23.856" xlink:href="#w" y="232.949"/><use x="39.311" xlink:href="#w" y="232.948"/><use x="54.765" xlink:href="#w" y="232.942"/><use x="70.22" xlink:href="#w" y="232.936"/><use x="85.675" xlink:href="#w" y="232.918"/><use x="101.129" xlink:href="#w" y="232.901"/><use x="116.584" xlink:href="#w" y="232.877"/><use x="132.039" xlink:href="#w" y="232.817"/><use x="147.493" xlink:href="#w" y="232.768"/><use x="162.948" xlink:href="#w" y="232.647"/><use x="178.403" xlink:href="#w" y="232.543"/><use x="193.857" xlink:href="#w" y="232.483"/><use x="209.312" xlink:href="#w" y="232.172"/><use x="224.767" xlink:href="#w" y="231.892"/><use x="240.221" xlink:href="#w" y="231.557"/><use x="255.676" xlink:href="#w" y="231.102"/><use x="271.131" xlink:href="#w" y="230.62"/><use x="286.585" xlink:href="#w" y="229.937"/><use x="302.04" xlink:href="#w" y="228.949"/><use x="317.495" xlink:href="#w" y="227.371"/><use x="332.95" xlink:href="#w" y="226.24"/><use x="348.404" xlink:href="#w" y="221.048"/><use x="363.859" xlink:href="#w" y="216.278"/><use x="379.314" xlink:href="#w" y="210.643"/><use x="394.768" xlink:href="#w" y="203.223"/><use x="410.223" xlink:href="#w" y="194.469"/><use x="425.678" xlink:href="#w" y="185.917"/><use x="441.132" xlink:href="#w" y="175.382"/><use x="456.587" xlink:href="#w" y="159.77"/><use x="472.042" xlink:href="#w" y="144.345"/><use x="487.496" xlink:href="#w" y="127.212"/><use x="502.951" xlink:href="#w" y="111.687"/></g></g><g stroke="#ff7f0e"><path clip-path="url(#a)" d="M-1 232.675l9.401-.07 15.455-.138 15.455-.204 15.454-.207 15.455-.468 15.455-.23 15.454-.383 15.455-.396 15.455-.527 15.454-.554 15.455-1.024 15.455-1.185 15.454-1.427 15.455-.723 15.455-1.605h15.454l15.455-3.9 15.455-2.499 15.454-2.549 15.455-2.207 15.455-2.671 15.455-2.366 15.454-4.004 15.455-4.789 15.455-3.692 15.454-3.536 15.455-3.378 15.455-3.227 15.454-3.12 15.455-4.014 15.455-3.933 15.454-3.262 15.455-3.41" fill="none" stroke-linecap="square" stroke-width="1.5"/><g clip-path="url(#a)" fill="#ff7f0e"><use x="-1" xlink:href="#x" y="232.675"/><use x="8.401" xlink:href="#x" y="232.606"/><use x="23.856" xlink:href="#x" y="232.467"/><use x="39.311" xlink:href="#x" y="232.263"/><use x="54.765" xlink:href="#x" y="232.056"/><use x="70.22" xlink:href="#x" y="231.588"/><use x="85.675" xlink:href="#x" y="231.357"/><use x="101.129" xlink:href="#x" y="230.975"/><use x="116.584" xlink:href="#x" y="230.579"/><use x="132.039" xlink:href="#x" y="230.052"/><use x="147.493" xlink:href="#x" y="229.498"/><use x="162.948" xlink:href="#x" y="228.474"/><use x="178.403" xlink:href="#x" y="227.289"/><use x="193.857" xlink:href="#x" y="225.862"/><use x="209.312" xlink:href="#x" y="225.139"/><use x="224.767" xlink:href="#x" y="223.534"/><use x="240.221" xlink:href="#x" y="223.534"/><use x="255.676" xlink:href="#x" y="219.633"/><use x="271.131" xlink:href="#x" y="217.135"/><use x="286.585" xlink:href="#x" y="214.586"/><use x="302.04" xlink:href="#x" y="212.379"/><use x="317.495" xlink:href="#x" y="209.708"/><use x="332.95" xlink:href="#x" y="207.342"/><use x="348.404" xlink:href="#x" y="203.338"/><use x="363.859" xlink:href="#x" y="198.549"/><use x="379.314" xlink:href="#x" y="194.857"/><use x="394.768" xlink:href="#x" y="191.321"/><use x="410.223" xlink:href="#x" y="187.943"/><use x="425.678" xlink:href="#x" y="184.716"/><use x="441.132" xlink:href="#x" y="181.596"/><use x="456.587" xlink:href="#x" y="177.582"/><use x="472.042" xlink:href="#x" y="173.649"/><use x="487.496" xlink:href="#x" y="170.387"/><use x="502.951" xlink:href="#x" y="166.978"/></g></g><path clip-path="url(#a)" d="M-1 232.99l9.401-.003 15.455-.002 15.455-.015 15.454-.011 15.455-.035 15.455-.033 15.454-.039 15.455-.05 15.455-.032 15.454-.124 15.455-.06 15.455-.148 15.454-.346 15.455-.55 15.455-.368h15.454l15.455-2.561 15.455-.69 15.454-1.174 15.455-1.857 15.455-.998 15.455-1.804 15.454-3.414 15.455-1.566 15.455-3.66 15.454-2.545 15.455-4.243 15.455-3.407 15.454-6.45 15.455-5.277 15.455-4.305 15.454-3.346 15.455-3.243" fill="none" stroke="#2ca02c" stroke-linecap="square" stroke-width="1.5"/><g stroke="#d62728"><path clip-path="url(#a)" d="M-1 232.991l9.401-.005 15.455-.016 15.455-.002 15.454-.027 15.455-.046 15.455-.026 15.454-.033 15.455-.059 15.455-.196 15.454-.168 15.455-.114 15.455-.215 15.454-.12 15.455-.251 15.455-.396 15.454-.152 15.455-1.405 15.455-.811 15.454-1.08 15.455-1.295 15.455-1.768 15.455-2.706 15.454-2.653 15.455-3.966 15.455-2.05 15.454-2.339 15.455-3.545 15.455-.988 15.454-3.56 15.455-3.957 15.455-5.248 15.454-4.388 15.455-3.19" fill="none" stroke-linecap="square" stroke-width="1.5"/><g clip-path="url(#a)" fill="#d62728"><use x="-1" xlink:href="#y" y="232.991"/><use x="8.401" xlink:href="#y" y="232.986"/><use x="23.856" xlink:href="#y" y="232.97"/><use x="39.311" xlink:href="#y" y="232.968"/><use x="54.765" xlink:href="#y" y="232.941"/><use x="70.22" xlink:href="#y" y="232.895"/><use x="85.675" xlink:href="#y" y="232.869"/><use x="101.129" xlink:href="#y" y="232.836"/><use x="116.584" xlink:href="#y" y="232.777"/><use x="132.039" xlink:href="#y" y="232.581"/><use x="147.493" xlink:href="#y" y="232.413"/><use x="162.948" xlink:href="#y" y="232.299"/><use x="178.403" xlink:href="#y" y="232.084"/><use x="193.857" xlink:href="#y" y="231.964"/><use x="209.312" xlink:href="#y" y="231.713"/><use x="224.767" xlink:href="#y" y="231.317"/><use x="240.221" xlink:href="#y" y="231.165"/><use x="255.676" xlink:href="#y" y="229.76"/><use x="271.131" xlink:href="#y" y="228.949"/><use x="286.585" xlink:href="#y" y="227.869"/><use x="302.04" xlink:href="#y" y="226.574"/><use x="317.495" xlink:href="#y" y="224.806"/><use x="332.95" xlink:href="#y" y="222.1"/><use x="348.404" xlink:href="#y" y="219.447"/><use x="363.859" xlink:href="#y" y="215.481"/><use x="379.314" xlink:href="#y" y="213.431"/><use x="394.768" xlink:href="#y" y="211.092"/><use x="410.223" xlink:href="#y" y="207.547"/><use x="425.678" xlink:href="#y" y="206.559"/><use x="441.132" xlink:href="#y" y="202.999"/><use x="456.587" xlink:href="#y" y="199.042"/><use x="472.042" xlink:href="#y" y="193.794"/><use x="487.496" xlink:href="#y" y="189.406"/><use x="502.951" xlink:href="#y" y="186.216"/></g></g><g stroke="#9467bd"><path clip-path="url(#a)" d="M-1 232.994l9.401-.002 15.455-.017 15.455-.017 15.454-.038 15.455-.027 15.455-.053 15.454-.011 15.455-.072 15.455-.08 15.454-.245 15.455-.263 15.455-.15 15.454-.075 15.455-.501 15.455-.433h15.454l15.455-1.209 15.455-.715 15.454-.03 15.455-1.859 15.455-.923 15.455-1.223 15.454-1.554 15.455-1.375 15.455-1.398 15.454.355 15.455-3.322 15.455-1.052 15.454-1.902 15.455-2.268 15.455-2.502 15.454-3.901 15.455-.721" fill="none" stroke-linecap="square" stroke-width="1.5"/><g clip-path="url(#a)" fill="#9467bd"><use x="-1" xlink:href="#z" y="232.994"/><use x="8.401" xlink:href="#z" y="232.992"/><use x="23.856" xlink:href="#z" y="232.975"/><use x="39.311" xlink:href="#z" y="232.958"/><use x="54.765" xlink:href="#z" y="232.92"/><use x="70.22" xlink:href="#z" y="232.893"/><use x="85.675" xlink:href="#z" y="232.84"/><use x="101.129" xlink:href="#z" y="232.829"/><use x="116.584" xlink:href="#z" y="232.757"/><use x="132.039" xlink:href="#z" y="232.676"/><use x="147.493" xlink:href="#z" y="232.432"/><use x="162.948" xlink:href="#z" y="232.169"/><use x="178.403" xlink:href="#z" y="232.018"/><use x="193.857" xlink:href="#z" y="231.944"/><use x="209.312" xlink:href="#z" y="231.443"/><use x="224.767" xlink:href="#z" y="231.01"/><use x="240.221" xlink:href="#z" y="231.01"/><use x="255.676" xlink:href="#z" y="229.801"/><use x="271.131" xlink:href="#z" y="229.086"/><use x="286.585" xlink:href="#z" y="229.056"/><use x="302.04" xlink:href="#z" y="227.197"/><use x="317.495" xlink:href="#z" y="226.274"/><use x="332.95" xlink:href="#z" y="225.051"/><use x="348.404" xlink:href="#z" y="223.497"/><use x="363.859" xlink:href="#z" y="222.122"/><use x="379.314" xlink:href="#z" y="220.724"/><use x="394.768" xlink:href="#z" y="221.079"/><use x="410.223" xlink:href="#z" y="217.757"/><use x="425.678" xlink:href="#z" y="216.705"/><use x="441.132" xlink:href="#z" y="214.803"/><use x="456.587" xlink:href="#z" y="212.535"/><use x="472.042" xlink:href="#z" y="210.033"/><use x="487.496" xlink:href="#z" y="206.132"/><use x="502.951" xlink:href="#z" y="205.411"/></g></g><path clip-path="url(#a)" d="M502.951 111.687l15.455-21.442 15.454-25.23 15.455-29.691" fill="none" stroke="#1f77b4" stroke-dasharray="1.5 2.475" stroke-width="1.5"/><path clip-path="url(#a)" d="M502.951 166.978l15.455-3.84 15.454-4.063 15.455-4.298" fill="none" stroke="#ff7f0e" stroke-dasharray="1.5 2.475" stroke-width="1.5"/><path clip-path="url(#a)" d="M502.951 180.634l15.455-4.01 15.454-4.315 15.455-4.646" fill="none" stroke="#2ca02c" stroke-dasharray="1.5 2.475" stroke-width="1.5"/><path clip-path="url(#a)" d="M502.951 186.216l15.455-4.866 15.454-5.372 15.455-5.931" fill="none" stroke="#d62728" stroke-dasharray="1.5 2.475" stroke-width="1.5"/><path clip-path="url(#a)" d="M502.951 205.41l15.455-2.661 15.454-2.919 15.455-3.2" fill="none" stroke="#9467bd" stroke-dasharray="1.5 2.475" stroke-width="1.5"/><path d="M70.22 232.988V25.44M549.315 232.988V25.44M70.22 232.988h479.095M70.22 25.44h479.095" fill="none" stroke="#000" stroke-linecap="square" stroke-linejoin="miter" stroke-width=".8"/><g transform="matrix(.12 0 0 -.12 187.988 19.44)"><use xlink:href="#h"/><use x="68.393" xlink:href="#A"/><use x="123.373" xlink:href="#B"/><use x="162.582" xlink:href="#u"/><path d="M193.35 54.688h9.515L219.96 8.797l17.094 45.89h9.515L226.053 0H213.85z"/><use x="249.545" xlink:href="#v"/><use x="342.855" xlink:href="#C"/><path d="M452.086 66.219q-10.75 0-17.078-8.016-6.313-8-6.313-21.828 0-13.766 6.313-21.781 6.328-8 17.078-8 10.734 0 17.016 8 6.28 8.015 6.28 21.781 0 13.828-6.28 21.828-6.282 8.016-17.016 8.016zm0 8q15.328 0 24.5-10.281 9.187-10.282 9.187-27.563 0-17.234-9.187-27.516-9.172-10.28-24.5-10.28-15.375 0-24.594 10.25-9.203 10.265-9.203 27.546t9.203 27.563q9.219 10.28 24.594 10.28zM519.984 0l-27.828 72.906h10.297l23.11-61.375 23.14 61.375h10.25L531.172 0z"/><use x="559.783" xlink:href="#D"/><path d="M608.947 64.797V8.109h11.922q15.094 0 22.094 6.829 7 6.843 7 21.593 0 14.64-7 21.453-7 6.813-22.094 6.813zm-9.86 8.11h20.267q21.187 0 31.093-8.813 9.922-8.813 9.922-27.563 0-18.86-9.969-27.703Q640.447 0 619.354 0h-20.266z"/><use x="666.277" xlink:href="#E"/><use x="702.361" xlink:href="#l"/><use x="765.984" xlink:href="#k"/><use x="861.395" xlink:href="#A"/><use x="916.375" xlink:href="#d"/><use x="977.654" xlink:href="#F"/><use x="1029.754" xlink:href="#v"/><use x="1091.277" xlink:href="#F"/><use x="1175.164" xlink:href="#d"/><use x="1236.443" xlink:href="#F"/><use x="1320.33" xlink:href="#q"/><use x="1381.512" xlink:href="#G"/><use x="1448.504" xlink:href="#f"/><use x="1512.127" xlink:href="#g"/><use x="1575.75" xlink:href="#f"/><use x="1639.373" xlink:href="#g"/><use x="1702.996" xlink:href="#E"/><use x="1739.08" xlink:href="#g"/><use x="1802.703" xlink:href="#n"/><use x="1866.326" xlink:href="#E"/><use x="1902.41" xlink:href="#f"/><use x="1966.033" xlink:href="#k"/></g><g><path d="M77.22 106.83h186.569q2 0 2-2V32.44q0-2-2-2H77.22q-2 0-2 2v72.39q0 2 2 2z" fill="#fff" opacity=".8" stroke="#ccc" stroke-linejoin="miter"/><path d="M79.22 38.538h20" fill="none" stroke="#1f77b4" stroke-linecap="square" stroke-width="1.5"/><use fill="#1f77b4" stroke="#1f77b4" x="89.22" xlink:href="#w" y="38.538"/><g transform="matrix(.1 0 0 -.1 107.22 42.038)"><use xlink:href="#H"/><use x="73.193" xlink:href="#I"/><use x="168.457" xlink:href="#J"/><use x="207.471" xlink:href="#s"/><use x="270.947" xlink:href="#q"/><use x="332.129" xlink:href="#K"/><use x="395.508" xlink:href="#L"/><use x="458.984" xlink:href="#r"/><use x="486.768" xlink:href="#v"/><use x="548.291" xlink:href="#F"/><use x="632.178" xlink:href="#u"/><use x="659.961" xlink:href="#M"/><use x="755.127" xlink:href="#N"/><use x="818.75" xlink:href="#O"/><use x="850.537" xlink:href="#n"/><use x="945.947" xlink:href="#s"/><use x="1009.424" xlink:href="#d"/><use x="1070.703" xlink:href="#P"/><use x="1129.883" xlink:href="#F"/><use x="1181.982" xlink:href="#Q"/></g><path d="M79.22 53.217h20" fill="none" stroke="#ff7f0e" stroke-linecap="square" stroke-width="1.5"/><use fill="#ff7f0e" stroke="#ff7f0e" x="89.22" xlink:href="#x" y="53.217"/><g transform="matrix(.1 0 0 -.1 107.22 56.717)"><use xlink:href="#D"/><use x="29.492" xlink:href="#B"/><use x="68.701" xlink:href="#d"/><use x="129.98" xlink:href="#r"/><use x="157.764" xlink:href="#P"/><use x="248.73" xlink:href="#J"/><use x="287.744" xlink:href="#s"/><use x="351.221" xlink:href="#q"/><use x="412.402" xlink:href="#K"/><use x="475.781" xlink:href="#L"/><use x="539.258" xlink:href="#r"/><use x="567.041" xlink:href="#v"/><use x="628.564" xlink:href="#F"/><use x="712.451" xlink:href="#u"/><use x="740.234" xlink:href="#M"/><use x="835.4" xlink:href="#l"/><use x="899.023" xlink:href="#f"/><use x="962.646" xlink:href="#O"/><use x="994.434" xlink:href="#n"/><use x="1089.844" xlink:href="#s"/><use x="1153.32" xlink:href="#d"/><use x="1214.6" xlink:href="#P"/><use x="1273.779" xlink:href="#F"/><use x="1325.879" xlink:href="#Q"/></g><path d="M79.22 67.895h20" fill="none" stroke="#2ca02c" stroke-linecap="square" stroke-width="1.5"/><g transform="matrix(.1 0 0 -.1 107.22 71.395)"><use xlink:href="#I"/><use x="63.477" xlink:href="#i"/><use x="126.953" xlink:href="#d"/><use x="188.232" xlink:href="#u"/><use x="216.016" xlink:href="#M"/><use x="311.182" xlink:href="#J"/><use x="350.195" xlink:href="#s"/><use x="413.672" xlink:href="#q"/><use x="474.854" xlink:href="#K"/><use x="538.232" xlink:href="#L"/><use x="601.709" xlink:href="#r"/><use x="629.492" xlink:href="#v"/><use x="691.016" xlink:href="#F"/><use x="774.902" xlink:href="#u"/><use x="802.686" xlink:href="#M"/><use x="897.852" xlink:href="#k"/><use x="961.475" xlink:href="#O"/><use x="993.262" xlink:href="#N"/><use x="1088.672" xlink:href="#s"/><use x="1152.148" xlink:href="#d"/><use x="1213.428" xlink:href="#P"/><use x="1272.607" xlink:href="#F"/><use x="1324.707" xlink:href="#Q"/></g><path d="M79.22 82.573h20" fill="none" stroke="#d62728" stroke-linecap="square" stroke-width="1.5"/><use fill="#d62728" stroke="#d62728" x="89.22" xlink:href="#y" y="82.573"/><g transform="matrix(.1 0 0 -.1 107.22 86.073)"><path d="M59.516 10.406v19.578h-16.11v8.11h25.875V6.78Q63.578 2.734 56.687.656 49.813-1.422 42-1.422q-17.094 0-26.75 9.985-9.64 10-9.64 27.812 0 17.875 9.64 27.86 9.656 9.984 26.75 9.984 7.125 0 13.547-1.766 6.422-1.75 11.844-5.172v-10.5q-5.47 4.64-11.625 6.985-6.157 2.343-12.938 2.343-13.39 0-20.11-7.468-6.702-7.47-6.702-22.266 0-14.75 6.703-22.219 6.718-7.469 20.11-7.469 5.218 0 9.312.907 4.109.906 7.375 2.812z"/><use x="77.49" xlink:href="#v"/><use x="139.014" xlink:href="#e"/><path d="M232.111 44.188q3.375 6.062 8.063 8.937Q244.86 56 251.205 56q8.547 0 13.188-5.984 4.64-5.97 4.64-17V0h-9.031v32.719q0 7.86-2.797 11.656-2.781 3.813-8.484 3.813-6.985 0-11.047-4.641-4.047-4.625-4.047-12.64V0h-9.031v32.719q0 7.906-2.782 11.687-2.78 3.782-8.593 3.782-6.89 0-10.953-4.657-4.047-4.656-4.047-12.625V0h-9.032v54.688h9.032v-8.5q3.078 5.03 7.375 7.421Q209.893 56 215.799 56q5.969 0 10.14-3.031 4.172-3.016 6.172-8.782z"/><use x="277.523" xlink:href="#d"/><use x="338.803" xlink:href="#M"/><use x="402.182" xlink:href="#P"/><use x="493.148" xlink:href="#J"/><use x="532.162" xlink:href="#s"/><use x="595.639" xlink:href="#q"/><use x="656.82" xlink:href="#K"/><use x="720.199" xlink:href="#L"/><use x="783.676" xlink:href="#r"/><use x="811.459" xlink:href="#v"/><use x="872.982" xlink:href="#F"/><use x="956.869" xlink:href="#u"/><use x="984.652" xlink:href="#M"/><use x="1079.818" xlink:href="#R"/><use x="1143.441" xlink:href="#O"/><use x="1175.229" xlink:href="#g"/><use x="1270.639" xlink:href="#s"/><use x="1334.115" xlink:href="#d"/><use x="1395.395" xlink:href="#P"/><use x="1454.574" xlink:href="#F"/><use x="1506.674" xlink:href="#Q"/></g><path d="M79.22 97.25h20" fill="none" stroke="#9467bd" stroke-linecap="square" stroke-width="1.5"/><use fill="#9467bd" stroke="#9467bd" x="89.22" xlink:href="#z" y="97.251"/><g transform="matrix(.1 0 0 -.1 107.22 100.75)"><path d="M9.813 72.906h41.89v-8.312H19.672V43.109h28.906v-8.297H19.672V0h-9.86z"/><use x="57.41" xlink:href="#e"/><use x="98.523" xlink:href="#d"/><use x="159.803" xlink:href="#M"/><use x="223.182" xlink:href="#A"/><use x="278.162" xlink:href="#v"/><use x="371.473" xlink:href="#J"/><use x="410.486" xlink:href="#s"/><use x="473.963" xlink:href="#q"/><use x="535.145" xlink:href="#K"/><use x="598.523" xlink:href="#L"/><use x="662" xlink:href="#r"/><use x="689.783" xlink:href="#v"/><use x="751.307" xlink:href="#F"/><use x="835.193" xlink:href="#u"/><use x="862.977" xlink:href="#M"/><use x="958.143" xlink:href="#R"/><use x="1021.766" xlink:href="#O"/><use x="1053.553" xlink:href="#p"/><use x="1148.963" xlink:href="#s"/><use x="1212.439" xlink:href="#d"/><use x="1273.719" xlink:href="#P"/><use x="1332.898" xlink:href="#F"/><use x="1384.998" xlink:href="#Q"/></g></g><g><path d="M70.22 505.928h479.095V298.38H70.22z" fill="#fff"/><path clip-path="url(#S)" d="M70.22 505.928V298.38" fill="none" stroke="#b0b0b0" stroke-linecap="square" stroke-width=".8"/><use stroke="#000" stroke-width=".8" x="70.22" xlink:href="#b" y="505.928"/><g transform="matrix(.1 0 0 -.1 60.786 542.922)"><use xlink:href="#c"/><use x="86.279" xlink:href="#d"/><use x="147.559" xlink:href="#e"/></g><g transform="matrix(.1 0 0 -.1 57.495 554.12)"><use xlink:href="#f"/><use x="63.623" xlink:href="#g"/><use x="127.246" xlink:href="#f"/><use x="190.869" xlink:href="#g"/></g><path clip-path="url(#S)" d="M549.315 505.928V298.38" fill="none" stroke="#b0b0b0" stroke-linecap="square" stroke-width=".8"/><use stroke="#000" stroke-width=".8" x="549.315" xlink:href="#b" y="505.928"/><g transform="matrix(.1 0 0 -.1 540.665 542.922)"><use xlink:href="#h"/><use x="68.408" xlink:href="#i"/><use x="131.885" xlink:href="#e"/></g><use stroke="#000" stroke-width=".6" x="70.22" xlink:href="#j" y="505.928"/><use stroke="#000" stroke-width=".6" x="85.675" xlink:href="#j" y="505.928"/><g transform="matrix(.1 0 0 -.1 79.312 518.926)"><use xlink:href="#g"/><use x="63.623" xlink:href="#f"/></g><g stroke="#000" stroke-width=".6"><use x="101.129" xlink:href="#j" y="505.928"/><use x="116.584" xlink:href="#j" y="505.928"/><use x="132.039" xlink:href="#j" y="505.928"/><use x="147.493" xlink:href="#j" y="505.928"/><use x="162.948" xlink:href="#j" y="505.928"/><use x="178.403" xlink:href="#j" y="505.928"/></g><use stroke="#000" stroke-width=".6" x="193.857" xlink:href="#j" y="505.928"/><g transform="matrix(.1 0 0 -.1 187.495 518.926)"><use xlink:href="#g"/><use x="63.623" xlink:href="#k"/></g><use stroke="#000" stroke-width=".6" x="209.312" xlink:href="#j" y="505.928"/><use stroke="#000" stroke-width=".6" x="224.767" xlink:href="#j" y="505.928"/><use stroke="#000" stroke-width=".6" x="240.221" xlink:href="#j" y="505.928"/><use stroke="#000" stroke-width=".6" x="255.676" xlink:href="#j" y="505.928"/><use stroke="#000" stroke-width=".6" x="271.131" xlink:href="#j" y="505.928"/><use stroke="#000" stroke-width=".6" x="286.585" xlink:href="#j" y="505.928"/><use stroke="#000" stroke-width=".6" x="302.04" xlink:href="#j" y="505.928"/><g transform="matrix(.1 0 0 -.1 295.678 518.926)"><use xlink:href="#l"/><use x="63.623" xlink:href="#m"/></g><use stroke="#000" stroke-width=".6" x="317.495" xlink:href="#j" y="505.928"/><use stroke="#000" stroke-width=".6" x="332.95" xlink:href="#j" y="505.928"/><use stroke="#000" stroke-width=".6" x="348.404" xlink:href="#j" y="505.928"/><use stroke="#000" stroke-width=".6" x="363.859" xlink:href="#j" y="505.928"/><use stroke="#000" stroke-width=".6" x="379.314" xlink:href="#j" y="505.928"/><use stroke="#000" stroke-width=".6" x="394.768" xlink:href="#j" y="505.928"/><use stroke="#000" stroke-width=".6" x="410.223" xlink:href="#j" y="505.928"/><g transform="matrix(.1 0 0 -.1 403.86 518.926)"><use xlink:href="#f"/><use x="63.623" xlink:href="#n"/></g><use stroke="#000" stroke-width=".6" x="425.678" xlink:href="#j" y="505.928"/><use stroke="#000" stroke-width=".6" x="441.132" xlink:href="#j" y="505.928"/><use stroke="#000" stroke-width=".6" x="456.587" xlink:href="#j" y="505.928"/><use stroke="#000" stroke-width=".6" x="472.042" xlink:href="#j" y="505.928"/><use stroke="#000" stroke-width=".6" x="487.496" xlink:href="#j" y="505.928"/><use stroke="#000" stroke-width=".6" x="502.951" xlink:href="#j" y="505.928"/><g><use stroke="#000" stroke-width=".6" x="518.406" xlink:href="#j" y="505.928"/><g transform="matrix(.1 0 0 -.1 512.043 518.926)"><use xlink:href="#n"/><use x="63.623" xlink:href="#g"/></g></g><use stroke="#000" stroke-width=".6" x="533.86" xlink:href="#j" y="505.928"/><use stroke="#000" stroke-width=".6" x="549.315" xlink:href="#j" y="505.928"/><g><path clip-path="url(#S)" d="M70.22 505.95h479.095" fill="none" stroke="#b0b0b0" stroke-linecap="square" stroke-width=".8"/><use stroke="#000" stroke-width=".8" x="70.22" xlink:href="#o" y="505.95"/><use transform="matrix(.1 0 0 -.1 56.858 509.749)" xlink:href="#g"/><path clip-path="url(#S)" d="M70.22 462.352h479.095" fill="none" stroke="#b0b0b0" stroke-linecap="square" stroke-width=".8"/><use stroke="#000" stroke-width=".8" x="70.22" xlink:href="#o" y="462.352"/><g transform="matrix(.1 0 0 -.1 31.407 466.152)"><use xlink:href="#f"/><use x="63.623" xlink:href="#g"/><use x="127.246" xlink:href="#g"/><use x="190.869" xlink:href="#g"/><use x="254.492" xlink:href="#g"/></g><g><path clip-path="url(#S)" d="M70.22 418.755h479.095" fill="none" stroke="#b0b0b0" stroke-linecap="square" stroke-width=".8"/><use stroke="#000" stroke-width=".8" x="70.22" xlink:href="#o" y="418.755"/><g transform="matrix(.1 0 0 -.1 31.407 422.554)"><use xlink:href="#N"/><use x="63.623" xlink:href="#g"/><use x="127.246" xlink:href="#g"/><use x="190.869" xlink:href="#g"/><use x="254.492" xlink:href="#g"/></g></g><g><path clip-path="url(#S)" d="M70.22 375.158h479.095" fill="none" stroke="#b0b0b0" stroke-linecap="square" stroke-width=".8"/><use stroke="#000" stroke-width=".8" x="70.22" xlink:href="#o" y="375.158"/><g transform="matrix(.1 0 0 -.1 31.407 378.957)"><use xlink:href="#m"/><use x="63.623" xlink:href="#g"/><use x="127.246" xlink:href="#g"/><use x="190.869" xlink:href="#g"/><use x="254.492" xlink:href="#g"/></g></g><g><path clip-path="url(#S)" d="M70.22 331.56h479.095" fill="none" stroke="#b0b0b0" stroke-linecap="square" stroke-width=".8"/><use stroke="#000" stroke-width=".8" x="70.22" xlink:href="#o" y="331.56"/><g transform="matrix(.1 0 0 -.1 31.407 335.36)"><use xlink:href="#T"/><use x="63.623" xlink:href="#g"/><use x="127.246" xlink:href="#g"/><use x="190.869" xlink:href="#g"/><use x="254.492" xlink:href="#g"/></g></g><g transform="matrix(0 -.1 -.1 0 25.328 408.988)"><use xlink:href="#H"/><use x="73.193" xlink:href="#I"/></g></g><g stroke="#1f77b4"><path clip-path="url(#S)" d="M-1 505.95h71.22l15.455-.002 15.454-.003 15.455-.02 15.455-.025 15.454-.029 15.455-.087 15.455-.065 15.454-.079 15.455-.067 15.455-.103 15.454-.235 15.455-.203 15.455-.222 15.454-.45 15.455-.496 15.455-1.605 15.455-1.713 15.454-6.217 15.455-6.402 15.455-7.373 15.454-8.791 15.455-10.993 15.455-10.344 15.454-11.084 15.455-15.12 15.455-14.947 15.454-15.985 15.455-15.261" fill="none" stroke-linecap="square" stroke-width="1.5"/><g clip-path="url(#S)" fill="#1f77b4"><use x="-1" xlink:href="#w" y="505.95"/><use x="8.401" xlink:href="#w" y="505.95"/><use x="23.856" xlink:href="#w" y="505.95"/><use x="39.311" xlink:href="#w" y="505.95"/><use x="54.765" xlink:href="#w" y="505.95"/><use x="70.22" xlink:href="#w" y="505.95"/><use x="85.675" xlink:href="#w" y="505.948"/><use x="101.129" xlink:href="#w" y="505.945"/><use x="116.584" xlink:href="#w" y="505.926"/><use x="132.039" xlink:href="#w" y="505.9"/><use x="147.493" xlink:href="#w" y="505.871"/><use x="162.948" xlink:href="#w" y="505.784"/><use x="178.403" xlink:href="#w" y="505.719"/><use x="193.857" xlink:href="#w" y="505.64"/><use x="209.312" xlink:href="#w" y="505.573"/><use x="224.767" xlink:href="#w" y="505.47"/><use x="240.221" xlink:href="#w" y="505.235"/><use x="255.676" xlink:href="#w" y="505.032"/><use x="271.131" xlink:href="#w" y="504.81"/><use x="286.585" xlink:href="#w" y="504.361"/><use x="302.04" xlink:href="#w" y="503.864"/><use x="317.495" xlink:href="#w" y="502.259"/><use x="332.95" xlink:href="#w" y="500.546"/><use x="348.404" xlink:href="#w" y="494.329"/><use x="363.859" xlink:href="#w" y="487.927"/><use x="379.314" xlink:href="#w" y="480.554"/><use x="394.768" xlink:href="#w" y="471.763"/><use x="410.223" xlink:href="#w" y="460.77"/><use x="425.678" xlink:href="#w" y="450.426"/><use x="441.132" xlink:href="#w" y="439.342"/><use x="456.587" xlink:href="#w" y="424.222"/><use x="472.042" xlink:href="#w" y="409.275"/><use x="487.496" xlink:href="#w" y="393.29"/><use x="502.951" xlink:href="#w" y="378.029"/></g></g><g stroke="#ff7f0e"><path clip-path="url(#S)" d="M-1 505.95H116.584l15.455-.005h15.454l15.455-.004 15.455-.002h15.454l15.455-.02 15.455-.017 15.454-.013h15.455l15.455-.087 15.454-.061 15.455-.173 15.455-.192 15.455-.002 15.454-1.022 15.455-.318 15.455-.942 15.454-1.27 15.455-2.013 15.455-1.774 15.454-1.546 15.455-5.351 15.455-4.19 15.454-4.942 15.455-4.885" fill="none" stroke-linecap="square" stroke-width="1.5"/><g clip-path="url(#S)" fill="#ff7f0e"><use x="-1" xlink:href="#x" y="505.95"/><use x="8.401" xlink:href="#x" y="505.95"/><use x="23.856" xlink:href="#x" y="505.95"/><use x="39.311" xlink:href="#x" y="505.95"/><use x="54.765" xlink:href="#x" y="505.95"/><use x="70.22" xlink:href="#x" y="505.95"/><use x="85.675" xlink:href="#x" y="505.95"/><use x="101.129" xlink:href="#x" y="505.95"/><use x="116.584" xlink:href="#x" y="505.95"/><use x="132.039" xlink:href="#x" y="505.945"/><use x="147.493" xlink:href="#x" y="505.945"/><use x="162.948" xlink:href="#x" y="505.941"/><use x="178.403" xlink:href="#x" y="505.939"/><use x="193.857" xlink:href="#x" y="505.939"/><use x="209.312" xlink:href="#x" y="505.919"/><use x="224.767" xlink:href="#x" y="505.902"/><use x="240.221" xlink:href="#x" y="505.889"/><use x="255.676" xlink:href="#x" y="505.889"/><use x="271.131" xlink:href="#x" y="505.802"/><use x="286.585" xlink:href="#x" y="505.741"/><use x="302.04" xlink:href="#x" y="505.568"/><use x="317.495" xlink:href="#x" y="505.376"/><use x="332.95" xlink:href="#x" y="505.374"/><use x="348.404" xlink:href="#x" y="504.352"/><use x="363.859" xlink:href="#x" y="504.034"/><use x="379.314" xlink:href="#x" y="503.092"/><use x="394.768" xlink:href="#x" y="501.821"/><use x="410.223" xlink:href="#x" y="499.809"/><use x="425.678" xlink:href="#x" y="498.035"/><use x="441.132" xlink:href="#x" y="496.489"/><use x="456.587" xlink:href="#x" y="491.138"/><use x="472.042" xlink:href="#x" y="486.948"/><use x="487.496" xlink:href="#x" y="482.006"/><use x="502.951" xlink:href="#x" y="477.121"/></g></g><path clip-path="url(#S)" d="M-1 505.932h9.401l15.455-.002h15.455l15.454-.002H70.22l15.455-.02 15.454-.008 15.455-.02 15.455-.035 15.454-.017 15.455-.05 15.455-.035 15.454-.013 15.455-.085 15.455-.07 15.454-.085 15.455-.133 15.455-.124 15.454-.186 15.455-.283 15.455-.297 15.455-.126 15.454-.427 15.455-.48 15.455-.405 15.454-.602 15.455-.987 15.455-.914 15.454-.97 15.455-1.929 15.455-1.624 15.454-.92 15.455-1.62" fill="none" stroke="#2ca02c" stroke-linecap="square" stroke-width="1.5"/><g stroke="#d62728"><path clip-path="url(#S)" d="M-1 505.95H209.312l15.455-.005h15.454l15.455-.03 15.455-.02 15.454-.017 15.455-.044 15.455-.026 15.455-.04 15.454-.54 15.455-.475 15.455-.51 15.454-.53 15.455-.628 15.455-.991 15.454-1.055 15.455-1.158 15.455-1.652 15.454-2.174 15.455-1.78" fill="none" stroke-linecap="square" stroke-width="1.5"/><g clip-path="url(#S)" fill="#d62728"><use x="-1" xlink:href="#y" y="505.95"/><use x="8.401" xlink:href="#y" y="505.95"/><use x="23.856" xlink:href="#y" y="505.95"/><use x="39.311" xlink:href="#y" y="505.95"/><use x="54.765" xlink:href="#y" y="505.95"/><use x="70.22" xlink:href="#y" y="505.95"/><use x="85.675" xlink:href="#y" y="505.95"/><use x="101.129" xlink:href="#y" y="505.95"/><use x="116.584" xlink:href="#y" y="505.95"/><use x="132.039" xlink:href="#y" y="505.95"/><use x="147.493" xlink:href="#y" y="505.95"/><use x="162.948" xlink:href="#y" y="505.95"/><use x="178.403" xlink:href="#y" y="505.95"/><use x="193.857" xlink:href="#y" y="505.95"/><use x="209.312" xlink:href="#y" y="505.95"/><use x="224.767" xlink:href="#y" y="505.945"/><use x="240.221" xlink:href="#y" y="505.945"/><use x="255.676" xlink:href="#y" y="505.915"/><use x="271.131" xlink:href="#y" y="505.895"/><use x="286.585" xlink:href="#y" y="505.878"/><use x="302.04" xlink:href="#y" y="505.834"/><use x="317.495" xlink:href="#y" y="505.808"/><use x="332.95" xlink:href="#y" y="505.769"/><use x="348.404" xlink:href="#y" y="505.228"/><use x="363.859" xlink:href="#y" y="504.753"/><use x="379.314" xlink:href="#y" y="504.243"/><use x="394.768" xlink:href="#y" y="503.713"/><use x="410.223" xlink:href="#y" y="503.085"/><use x="425.678" xlink:href="#y" y="502.094"/><use x="441.132" xlink:href="#y" y="501.039"/><use x="456.587" xlink:href="#y" y="499.881"/><use x="472.042" xlink:href="#y" y="498.229"/><use x="487.496" xlink:href="#y" y="496.055"/><use x="502.951" xlink:href="#y" y="494.274"/></g></g><g stroke="#9467bd"><path clip-path="url(#S)" d="M-1 505.948h24.856l15.455.002h46.364l15.454-.002h30.91l15.454-.011h15.455l15.455-.037h15.454l15.455-.149 15.455-.006 15.454-.028 15.455-.033 15.455-.033 15.454-.057 15.455-.071 15.455-.046 15.455-.002 15.454-.24 15.455-.183 15.455-.244 15.454-.255 15.455-.277 15.455-.829 15.454-1.471 15.455-1.24 15.455-1.773 15.454-2.197 15.455-1.513" fill="none" stroke-linecap="square" stroke-width="1.5"/><g clip-path="url(#S)" fill="#9467bd"><use x="-1" xlink:href="#z" y="505.948"/><use x="8.401" xlink:href="#z" y="505.948"/><use x="23.856" xlink:href="#z" y="505.948"/><use x="39.311" xlink:href="#z" y="505.95"/><use x="54.765" xlink:href="#z" y="505.95"/><use x="70.22" xlink:href="#z" y="505.95"/><use x="85.675" xlink:href="#z" y="505.95"/><use x="101.129" xlink:href="#z" y="505.948"/><use x="116.584" xlink:href="#z" y="505.948"/><use x="132.039" xlink:href="#z" y="505.948"/><use x="147.493" xlink:href="#z" y="505.937"/><use x="162.948" xlink:href="#z" y="505.937"/><use x="178.403" xlink:href="#z" y="505.9"/><use x="193.857" xlink:href="#z" y="505.9"/><use x="209.312" xlink:href="#z" y="505.751"/><use x="224.767" xlink:href="#z" y="505.745"/><use x="240.221" xlink:href="#z" y="505.717"/><use x="255.676" xlink:href="#z" y="505.684"/><use x="271.131" xlink:href="#z" y="505.651"/><use x="286.585" xlink:href="#z" y="505.594"/><use x="302.04" xlink:href="#z" y="505.523"/><use x="317.495" xlink:href="#z" y="505.477"/><use x="332.95" xlink:href="#z" y="505.475"/><use x="348.404" xlink:href="#z" y="505.235"/><use x="363.859" xlink:href="#z" y="505.052"/><use x="379.314" xlink:href="#z" y="504.808"/><use x="394.768" xlink:href="#z" y="504.553"/><use x="410.223" xlink:href="#z" y="504.276"/><use x="425.678" xlink:href="#z" y="503.447"/><use x="441.132" xlink:href="#z" y="501.976"/><use x="456.587" xlink:href="#z" y="500.736"/><use x="472.042" xlink:href="#z" y="498.963"/><use x="487.496" xlink:href="#z" y="496.766"/><use x="502.951" xlink:href="#z" y="495.253"/></g></g><path clip-path="url(#S)" d="M502.951 378.029l15.455-19.974 15.454-23.093 15.455-26.698" fill="none" stroke="#1f77b4" stroke-dasharray="1.5 2.475" stroke-width="1.5"/><path clip-path="url(#S)" d="M502.951 477.121l15.455-6.933 15.454-8.6 15.455-10.67" fill="none" stroke="#ff7f0e" stroke-dasharray="1.5 2.475" stroke-width="1.5"/><path clip-path="url(#S)" d="M502.951 493.464l15.455-1.724 15.454-1.962 15.455-2.233" fill="none" stroke="#2ca02c" stroke-dasharray="1.5 2.475" stroke-width="1.5"/><path clip-path="url(#S)" d="M502.951 494.274l15.455-2.744 15.454-3.39 15.455-4.185" fill="none" stroke="#d62728" stroke-dasharray="1.5 2.475" stroke-width="1.5"/><path clip-path="url(#S)" d="M502.951 495.253l15.455-2.708 15.454-3.395 15.455-4.254" fill="none" stroke="#9467bd" stroke-dasharray="1.5 2.475" stroke-width="1.5"/><path d="M70.22 505.928V298.38M549.315 505.928V298.38M70.22 505.928h479.095M70.22 298.38h479.095" fill="none" stroke="#000" stroke-linecap="square" stroke-linejoin="miter" stroke-width=".8"/><g><path d="M77.22 379.77h214.322q2 0 2-2v-72.39q0-2-2-2H77.22q-2 0-2 2v72.39q0 2 2 2z" fill="#fff" opacity=".8" stroke="#ccc" stroke-linejoin="miter"/><path d="M79.22 311.478h20" fill="none" stroke="#1f77b4" stroke-linecap="square" stroke-width="1.5"/><use fill="#1f77b4" stroke="#1f77b4" x="89.22" xlink:href="#w" y="311.478"/><g transform="matrix(.1 0 0 -.1 107.22 314.978)"><use xlink:href="#U"/><use x="74.805" xlink:href="#v"/><use x="136.328" xlink:href="#t"/><path d="M249.7 72.906h10.609l20.203-29.984 20.078 29.984h10.594L285.402 34.72V0h-9.906v34.719z"/><use x="310.783" xlink:href="#q"/><use x="371.965" xlink:href="#e"/><path d="M422.156 75.984h9.031V31.11L458 54.687h11.469l-29-25.578L470.703 0h-11.719l-27.796 26.703V0h-9.032z"/><use x="502.775" xlink:href="#J"/><use x="541.789" xlink:href="#s"/><use x="605.266" xlink:href="#q"/><use x="666.447" xlink:href="#K"/><use x="729.826" xlink:href="#L"/><use x="793.303" xlink:href="#r"/><use x="821.086" xlink:href="#v"/><use x="882.609" xlink:href="#F"/><use x="966.496" xlink:href="#u"/><use x="994.279" xlink:href="#M"/><use x="1089.445" xlink:href="#N"/><use x="1153.068" xlink:href="#O"/><use x="1184.855" xlink:href="#T"/><use x="1280.266" xlink:href="#s"/><use x="1343.742" xlink:href="#d"/><use x="1405.021" xlink:href="#P"/><use x="1464.201" xlink:href="#F"/><use x="1516.301" xlink:href="#Q"/></g><path d="M79.22 326.157h20" fill="none" stroke="#ff7f0e" stroke-linecap="square" stroke-width="1.5"/><use fill="#ff7f0e" stroke="#ff7f0e" x="89.22" xlink:href="#x" y="326.157"/><g transform="matrix(.1 0 0 -.1 107.22 329.657)"><use xlink:href="#U"/><use x="74.805" xlink:href="#v"/><use x="136.328" xlink:href="#t"/><path d="M259.715 72.906h9.86V5.078q0-13.187-5-19.14-5-5.954-16.095-5.954h-3.75v8.297h3.079q6.53 0 9.218 3.672 2.688 3.656 2.688 13.125z"/><use x="279.395" xlink:href="#v"/><use x="340.918" xlink:href="#e"/><use x="382.031" xlink:href="#F"/><use x="434.131" xlink:href="#v"/><use x="495.654" xlink:href="#P"/><use x="586.621" xlink:href="#J"/><use x="625.635" xlink:href="#s"/><use x="689.111" xlink:href="#q"/><use x="750.293" xlink:href="#K"/><use x="813.672" xlink:href="#L"/><use x="877.148" xlink:href="#r"/><use x="904.932" xlink:href="#v"/><use x="966.455" xlink:href="#F"/><use x="1050.342" xlink:href="#u"/><use x="1078.125" xlink:href="#M"/><use x="1173.291" xlink:href="#n"/><use x="1236.914" xlink:href="#O"/><use x="1268.701" xlink:href="#f"/><use x="1364.111" xlink:href="#s"/><use x="1427.588" xlink:href="#d"/><use x="1488.867" xlink:href="#P"/><use x="1548.047" xlink:href="#F"/><use x="1600.146" xlink:href="#Q"/></g><path d="M79.22 340.835h20" fill="none" stroke="#2ca02c" stroke-linecap="square" stroke-width="1.5"/><g transform="matrix(.1 0 0 -.1 107.22 344.335)"><use xlink:href="#C"/><use x="69.824" xlink:href="#d"/><use x="131.104" xlink:href="#r"/><use x="158.887" xlink:href="#u"/><use x="186.67" xlink:href="#G"/><use x="221.875" xlink:href="#q"/><use x="283.057" xlink:href="#e"/><use x="324.154" xlink:href="#M"/><use x="387.533" xlink:href="#u"/><use x="415.316" xlink:href="#d"/><use x="508.383" xlink:href="#J"/><use x="547.396" xlink:href="#s"/><use x="610.873" xlink:href="#q"/><use x="672.055" xlink:href="#K"/><use x="735.434" xlink:href="#L"/><use x="798.91" xlink:href="#r"/><use x="826.693" xlink:href="#v"/><use x="888.217" xlink:href="#F"/><use x="972.104" xlink:href="#u"/><use x="999.887" xlink:href="#M"/><use x="1095.053" xlink:href="#p"/><use x="1158.676" xlink:href="#O"/><use x="1190.463" xlink:href="#N"/><use x="1285.873" xlink:href="#s"/><use x="1349.35" xlink:href="#d"/><use x="1410.629" xlink:href="#P"/><use x="1469.809" xlink:href="#F"/><use x="1521.908" xlink:href="#Q"/></g><path d="M79.22 355.513h20" fill="none" stroke="#d62728" stroke-linecap="square" stroke-width="1.5"/><use fill="#d62728" stroke="#d62728" x="89.22" xlink:href="#y" y="355.513"/><g transform="matrix(.1 0 0 -.1 107.22 359.013)"><use xlink:href="#c"/><use x="86.279" xlink:href="#u"/><use x="114.063" xlink:href="#A"/><use x="169.043" xlink:href="#V"/><use x="232.422" xlink:href="#u"/><path d="M305.611 27.984q0 9.766-4.03 15.125-4.017 5.375-11.298 5.375-7.219 0-11.25-5.375-4.031-5.359-4.031-15.125 0-9.718 4.031-15.093t11.25-5.375q7.281 0 11.297 5.375 4.031 5.375 4.031 15.093zm8.985-21.203q0-13.953-6.203-20.765-6.188-6.813-18.985-6.813-4.734 0-8.937.703-4.203.703-8.157 2.172v8.735q3.954-2.141 7.813-3.157 3.86-1.031 7.86-1.031 8.843 0 13.234 4.61 4.39 4.609 4.39 13.937v4.453q-2.78-4.844-7.125-7.234Q294.143 0 288.08 0q-10.047 0-16.203 7.656-6.156 7.672-6.156 20.328 0 12.688 6.156 20.344Q278.033 56 288.08 56q6.063 0 10.406-2.39 4.344-2.391 7.125-7.22v8.297h8.985z"/><use x="323.682" xlink:href="#d"/><use x="384.961" xlink:href="#M"/><use x="480.127" xlink:href="#J"/><use x="519.141" xlink:href="#s"/><use x="582.617" xlink:href="#q"/><use x="643.799" xlink:href="#K"/><use x="707.178" xlink:href="#L"/><use x="770.654" xlink:href="#r"/><use x="798.438" xlink:href="#v"/><use x="859.961" xlink:href="#F"/><use x="943.848" xlink:href="#u"/><use x="971.631" xlink:href="#M"/><use x="1066.797" xlink:href="#n"/><use x="1130.42" xlink:href="#O"/><use x="1162.207" xlink:href="#n"/><use x="1257.617" xlink:href="#s"/><use x="1321.094" xlink:href="#d"/><use x="1382.373" xlink:href="#P"/><use x="1441.553" xlink:href="#F"/><use x="1493.652" xlink:href="#Q"/></g><path d="M79.22 370.19h20" fill="none" stroke="#9467bd" stroke-linecap="square" stroke-width="1.5"/><use fill="#9467bd" stroke="#9467bd" x="89.22" xlink:href="#z" y="370.191"/><g transform="matrix(.1 0 0 -.1 107.22 373.69)"><use xlink:href="#c"/><use x="86.279" xlink:href="#d"/><use x="147.559" xlink:href="#F"/><use x="199.658" xlink:href="#F"/><use x="251.758" xlink:href="#d"/><use x="313.037" xlink:href="#A"/><use x="368.018" xlink:href="#V"/><use x="431.396" xlink:href="#K"/><use x="494.775" xlink:href="#F"/><use x="546.875" xlink:href="#v"/><use x="608.398" xlink:href="#B"/><use x="647.607" xlink:href="#B"/><use x="686.816" xlink:href="#F"/><use x="770.703" xlink:href="#J"/><use x="809.717" xlink:href="#s"/><use x="873.193" xlink:href="#q"/><use x="934.375" xlink:href="#K"/><use x="997.754" xlink:href="#L"/><use x="1061.23" xlink:href="#r"/><use x="1089.014" xlink:href="#v"/><use x="1150.537" xlink:href="#F"/><use x="1234.424" xlink:href="#u"/><use x="1262.207" xlink:href="#M"/><use x="1357.373" xlink:href="#n"/><use x="1420.996" xlink:href="#O"/><use x="1452.783" xlink:href="#l"/><use x="1548.193" xlink:href="#s"/><use x="1611.67" xlink:href="#d"/><use x="1672.949" xlink:href="#P"/><use x="1732.129" xlink:href="#F"/><use x="1784.229" xlink:href="#Q"/></g></g></g></svg>