<svg height="758.4" stroke-linejoin="round" viewBox="0 0 568.8 568.8" width="758.4" xmlns="http://www.w3.org/2000/svg" xmlns:xlink="http://www.w3.org/1999/xlink"><defs><path id="w" d="M-3 0h6M0 3v-6" stroke="#d62728" stroke-linejoin="round"/><path id="U" d="M54.89 33.016V0h-8.984v32.719q0 7.765-3.031 11.61-3.031 3.858-9.078 3.858-7.281 0-11.484-4.64-4.204-4.625-4.204-12.64V0H9.08v75.984h9.03V46.188q3.235 4.937 7.594 7.374Q30.078 56 35.797 56q9.422 0 14.25-5.828 4.844-5.828 4.844-17.156z" stroke-linejoin="round"/><path id="b" d="M0 0v3.5" stroke="#000" stroke-linejoin="round" stroke-width=".8"/><path id="c" d="M34.188 63.188L20.797 26.906h26.812zm-5.579 9.718h11.188L67.578 0h-10.25l-6.64 18.703h-32.86L11.188 0H.78z" stroke-linejoin="round"/><path id="d" d="M18.11 8.203v-29H9.077v75.484h9.031v-8.296q2.844 4.875 7.157 7.234Q29.594 56 35.594 56q9.968 0 16.187-7.906 6.235-7.907 6.235-20.797T51.78 6.484q-6.218-7.906-16.187-7.906-6 0-10.328 2.375-4.313 2.375-7.157 7.25zm30.578 19.094q0 9.906-4.079 15.547-4.078 5.64-11.203 5.64-7.14 0-11.218-5.64-4.079-5.64-4.079-15.547 0-9.906 4.078-15.547 4.079-5.64 11.22-5.64 7.124 0 11.202 5.64t4.078 15.547z" stroke-linejoin="round"/><path id="e" d="M41.11 46.297q-1.516.875-3.297 1.281Q36.03 48 33.89 48q-7.625 0-11.703-4.953-4.079-4.953-4.079-14.234V0H9.08v54.688h9.03v-8.5q2.844 4.984 7.375 7.39Q30.031 56 36.531 56q.922 0 2.047-.125 1.125-.11 2.484-.36z" stroke-linejoin="round"/><path id="f" d="M19.188 8.297h34.421V0H7.33v8.297q5.609 5.812 15.296 15.594 9.703 9.797 12.188 12.64 4.734 5.313 6.609 9 1.89 3.688 1.89 7.25 0 5.813-4.078 9.469-4.078 3.672-10.625 3.672-4.64 0-9.797-1.61-5.14-1.609-11-4.89v9.969Q13.767 71.78 18.938 73q5.188 1.219 9.485 1.219 11.328 0 18.062-5.672 6.735-5.656 6.735-15.125 0-4.5-1.688-8.531-1.672-4.016-6.125-9.485-1.218-1.422-7.765-8.187-6.532-6.766-18.453-18.922z" stroke-linejoin="round"/><path id="g" d="M31.781 66.406q-7.61 0-11.453-7.5Q16.5 51.422 16.5 36.375q0-14.984 3.828-22.484 3.844-7.5 11.453-7.5 7.672 0 11.5 7.5 3.844 7.5 3.844 22.484 0 15.047-3.844 22.531-3.828 7.5-11.5 7.5zm0 7.813q12.266 0 18.735-9.703 6.468-9.688 6.468-28.141 0-18.406-6.468-28.11-6.47-9.687-18.735-9.687-12.25 0-18.718 9.688-6.47 9.703-6.47 28.109 0 18.453 6.47 28.14Q19.53 74.22 31.78 74.22z" stroke-linejoin="round"/><path id="h" d="M0 0v2" stroke="#000" stroke-linejoin="round" stroke-width=".6"/><path id="i" d="M12.406 8.297h16.11v55.625l-17.532-3.516v8.985l17.438 3.515h9.86V8.296H54.39V0H12.406z" stroke-linejoin="round"/><path id="j" d="M33.016 40.375q-6.641 0-10.532-4.547-3.875-4.531-3.875-12.437 0-7.86 3.875-12.438 3.891-4.562 10.532-4.562 6.64 0 10.515 4.562 3.875 4.578 3.875 12.438 0 7.906-3.875 12.437-3.875 4.547-10.515 4.547zm19.578 30.922v-8.984q-3.719 1.75-7.5 2.671-3.782.938-7.5.938-9.766 0-14.922-6.594-5.14-6.594-5.875-19.922 2.875 4.25 7.219 6.516 4.359 2.266 9.578 2.266 10.984 0 17.36-6.672 6.374-6.657 6.374-18.125 0-11.235-6.64-18.032-6.641-6.78-17.672-6.78-12.657 0-19.344 9.687-6.688 9.703-6.688 28.109 0 17.281 8.204 27.563 8.203 10.28 22.015 10.28 3.719 0 7.5-.734t7.89-2.187z" stroke-linejoin="round"/><path id="k" d="M40.578 39.313Q47.656 37.797 51.625 33q3.984-4.781 3.984-11.813 0-10.78-7.422-16.703-7.421-5.906-21.093-5.906-4.578 0-9.438.906-4.86.907-10.031 2.72v9.515q4.094-2.39 8.969-3.61 4.89-1.218 10.218-1.218 9.266 0 14.125 3.656 4.86 3.656 4.86 10.64 0 6.454-4.516 10.079-4.515 3.64-12.562 3.64h-8.5v8.11h8.89q7.266 0 11.125 2.906 3.86 2.906 3.86 8.375 0 5.61-3.985 8.61-3.968 3.015-11.39 3.015-4.063 0-8.703-.89-4.641-.876-10.203-2.72v8.782q5.624 1.562 10.53 2.344 4.907.78 9.25.78 11.235 0 17.766-5.109 6.547-5.093 6.547-13.78 0-6.063-3.468-10.235-3.47-4.172-9.86-5.782z" stroke-linejoin="round"/><path id="l" d="M0 0h-3.5" stroke="#000" stroke-linejoin="round" stroke-width=".8"/><path id="m" d="M37.797 64.313L12.89 25.39h24.906zm-2.594 8.593H47.61V25.391h10.407v-8.203H47.609V0h-9.812v17.188H4.89v9.515z" stroke-linejoin="round"/><path id="n" d="M10.797 72.906h38.719v-8.312H19.828v-17.86q2.14.735 4.281 1.094 2.157.36 4.313.36 12.203 0 19.328-6.688 7.14-6.688 7.14-18.11 0-11.765-7.328-18.296-7.328-6.516-20.656-6.516-4.593 0-9.36.781-4.75.782-9.827 2.344v9.922q4.39-2.39 9.078-3.563 4.687-1.171 9.906-1.171 8.453 0 13.375 4.437 4.938 4.438 4.938 12.063 0 7.609-4.938 12.047-4.922 4.453-13.375 4.453-3.953 0-7.89-.875-3.922-.875-8.016-2.735z" stroke-linejoin="round"/><path id="o" d="M30.61 48.39q-7.22 0-11.422-5.64-4.204-5.64-4.204-15.453 0-9.813 4.172-15.453 4.188-5.64 11.453-5.64 7.188 0 11.375 5.655 4.203 5.672 4.203 15.438 0 9.719-4.203 15.406-4.187 5.688-11.375 5.688zm0 7.61q11.718 0 18.406-7.625 6.703-7.61 6.703-21.078 0-13.422-6.703-21.078-6.688-7.64-18.407-7.64-11.765 0-18.437 7.64-6.656 7.656-6.656 21.078 0 13.469 6.656 21.078Q18.844 56 30.609 56z" stroke-linejoin="round"/><path id="p" d="M9.422 75.984h8.984V0H9.422z" stroke-linejoin="round"/><path id="q" d="M45.406 46.39v29.594h8.985V0h-8.985v8.203Q42.578 3.328 38.25.953q-4.313-2.375-10.375-2.375-9.906 0-16.14 7.906-6.22 7.922-6.22 20.813 0 12.89 6.22 20.797Q17.968 56 27.874 56q6.063 0 10.375-2.375 4.328-2.36 7.156-7.234zm-30.61-19.093q0-9.906 4.079-15.547 4.078-5.64 11.203-5.64 7.125 0 11.219 5.64 4.11 5.64 4.11 15.547 0 9.906-4.11 15.547-4.094 5.64-11.219 5.64-7.125 0-11.203-5.64-4.078-5.64-4.078-15.547z" stroke-linejoin="round"/><path id="r" d="M4.203 54.688h8.985l11.234-42.672 11.172 42.672h10.593l11.235-42.672 11.187 42.672h8.985L63.28 0H52.688L40.922 44.828 29.109 0H18.5z" stroke-linejoin="round"/><path id="s" d="M9.422 54.688h8.984V0H9.422zm0 21.296h8.984v-11.39H9.422z" stroke-linejoin="round"/><path id="t" d="M56.203 29.594v-4.39H14.891q.593-9.282 5.593-14.142 5-4.859 13.938-4.859 5.172 0 10.031 1.266 4.86 1.265 9.656 3.812v-8.5Q49.266.734 44.187-.344 39.11-1.422 33.892-1.422q-13.094 0-20.735 7.61-7.64 7.625-7.64 20.625 0 13.421 7.25 21.296Q20.016 56 32.328 56q11.031 0 17.453-7.11 6.422-7.093 6.422-19.296zm-8.984 2.64q-.094 7.36-4.125 11.75-4.032 4.407-10.672 4.407-7.516 0-12.031-4.25-4.516-4.25-5.203-11.97z" stroke-linejoin="round"/><path id="u" d="M-3 0h6M0 3v-6" stroke="#1f77b4" stroke-linejoin="round"/><path id="v" d="M0 1.5a1.5 1.5 0 100-3 1.5 1.5 0 000 3z" stroke="#ff7f0e" stroke-linejoin="round"/><path id="T" d="M9.813 72.906h14.703l18.593-49.61 18.703 49.61h14.704V0H66.89v64.016l-18.797-50h-9.907l-18.796 50V0H9.813z" stroke-linejoin="round"/><path id="x" d="M0 1.5a1.5 1.5 0 100-3 1.5 1.5 0 000 3z" stroke="#9467bd" stroke-linejoin="round"/><path id="y" d="M48.781 52.594v-8.407q-3.812 2.11-7.64 3.157-3.828 1.047-7.735 1.047-8.75 0-13.593-5.547-4.829-5.532-4.829-15.547 0-10.016 4.829-15.563 4.843-5.53 13.593-5.53 3.907 0 7.735 1.046 3.828 1.047 7.64 3.156V2.094Q45.016.344 40.984-.531q-4.015-.89-8.562-.89-12.36 0-19.64 7.765-7.266 7.765-7.266 20.953 0 13.375 7.343 21.031Q20.22 56 33.016 56q4.14 0 8.093-.86 3.953-.843 7.672-2.546z" stroke-linejoin="round"/><path id="z" d="M18.313 70.219V54.688h18.5v-6.985h-18.5V18.016q0-6.688 1.828-8.594 1.828-1.906 7.453-1.906h9.218V0h-9.218q-10.407 0-14.36 3.875-3.953 3.89-3.953 14.14v29.688H2.687v6.984h6.594V70.22z" stroke-linejoin="round"/><path id="A" d="M64.406 67.281v-10.39q-4.984 4.64-10.625 6.922-5.64 2.296-11.984 2.296-12.5 0-19.14-7.64-6.641-7.64-6.641-22.094 0-14.406 6.64-22.047 6.64-7.64 19.14-7.64 6.345 0 11.985 2.296 5.64 2.297 10.625 6.938V5.609Q59.234 2.094 53.437.33q-5.78-1.75-12.218-1.75-16.563 0-26.094 10.124-9.516 10.14-9.516 27.672 0 17.578 9.516 27.703 9.531 10.14 26.094 10.14 6.531 0 12.312-1.734 5.797-1.734 10.875-5.203z" stroke-linejoin="round"/><path id="B" d="M9.813 72.906h9.859V0h-9.86z" stroke-linejoin="round"/><path id="C" d="M4.89 31.39h26.313v-8H4.891z" stroke-linejoin="round"/><path id="D" d="M10.984 1.516V10.5q3.72-1.766 7.516-2.688 3.813-.921 7.484-.921 9.766 0 14.907 6.562 5.156 6.563 5.89 19.953-2.828-4.203-7.187-6.453-4.344-2.25-9.61-2.25-10.937 0-17.312 6.61-6.375 6.625-6.375 18.109 0 11.219 6.64 18 6.641 6.797 17.672 6.797 12.657 0 19.313-9.703 6.672-9.688 6.672-28.141 0-17.234-8.188-27.516Q40.234-1.42 26.422-1.42q-3.719 0-7.531.734-3.797.734-7.907 2.203zM30.61 32.422q6.641 0 10.516 4.531 3.89 4.547 3.89 12.469 0 7.86-3.89 12.422-3.875 4.562-10.516 4.562-6.64 0-10.515-4.562-3.875-4.563-3.875-12.422 0-7.922 3.875-12.469 3.875-4.531 10.515-4.531z" stroke-linejoin="round"/><path id="E" d="M34.281 27.484q-10.89 0-15.093-2.484-4.204-2.484-4.204-8.5 0-4.781 3.157-7.594 3.156-2.797 8.562-2.797 7.485 0 12 5.297 4.516 5.297 4.516 14.078v2zm17.922 3.72V0H43.22v8.297Q40.14 3.328 35.547.953q-4.594-2.375-11.234-2.375-8.391 0-13.36 4.719Q6 8.016 6 15.922q0 9.219 6.172 13.906 6.187 4.688 18.437 4.688h12.61v.89q0 6.203-4.078 9.594-4.078 3.39-11.453 3.39-4.688 0-9.141-1.124-4.438-1.125-8.531-3.375v8.312q4.921 1.906 9.562 2.844 4.64.953 9.031.953 11.875 0 17.735-6.156 5.86-6.14 5.86-18.64z" stroke-linejoin="round"/><path id="F" d="M44.281 53.078v-8.5q-3.797 1.953-7.906 2.922-4.094.984-8.5.984-6.688 0-10.031-2.047-3.344-2.046-3.344-6.156 0-3.125 2.39-4.906 2.391-1.781 9.626-3.39l3.078-.688q9.562-2.047 13.593-5.781 4.032-3.735 4.032-10.422 0-7.625-6.032-12.078-6.03-4.438-16.578-4.438-4.39 0-9.156.86Q10.688.296 5.422 2v9.281q4.984-2.594 9.812-3.89 4.829-1.282 9.579-1.282 6.343 0 9.75 2.172 3.421 2.172 3.421 6.125 0 3.656-2.468 5.61-2.453 1.953-10.813 3.765l-3.125.735q-8.344 1.75-12.062 5.39-3.704 3.64-3.704 9.985 0 7.718 5.47 11.906Q16.75 56 26.811 56q4.97 0 9.36-.734 4.406-.72 8.11-2.188z" stroke-linejoin="round"/><path id="G" d="M37.11 75.984V68.5h-8.594q-4.828 0-6.72-1.953-1.874-1.953-1.874-7.031v-4.828h14.797v-6.985H19.922V0H10.89v47.703H2.297v6.984h8.594V58.5q0 9.125 4.25 13.297 4.25 4.187 13.468 4.187z" stroke-linejoin="round"/><path id="H" d="M8.688 72.906h9.921V28.61q0-11.718 4.235-16.875 4.25-5.14 13.781-5.14 9.469 0 13.719 5.14 4.25 5.157 4.25 16.875v44.297H64.5V27.391q0-14.25-7.063-21.532-7.046-7.28-20.812-7.28-13.828 0-20.89 7.28-7.047 7.282-7.047 21.532z" stroke-linejoin="round"/><path id="I" d="M53.516 70.516V60.89q-5.61 2.687-10.594 4-4.984 1.328-9.625 1.328-8.047 0-12.422-3.125t-4.375-8.89q0-4.845 2.906-7.313 2.907-2.453 11.016-3.97l5.953-1.218q11.031-2.11 16.281-7.406 5.25-5.297 5.25-14.172 0-10.61-7.11-16.078-7.093-5.469-20.812-5.469-5.172 0-11.015 1.172Q13.14.922 6.89 3.219v10.156q6-3.36 11.765-5.078 5.766-1.703 11.328-1.703 8.438 0 13.032 3.312 4.593 3.328 4.593 9.485 0 5.359-3.297 8.39-3.296 3.032-10.812 4.547L27.484 33.5q-11.03 2.188-15.968 6.875-4.922 4.688-4.922 13.047 0 9.672 6.812 15.234 6.813 5.563 18.766 5.563 5.14 0 10.453-.938 5.328-.922 10.89-2.765z" stroke-linejoin="round"/><path id="J" d="M31 75.875q-6.531-11.219-9.719-22.219-3.172-10.984-3.172-22.265 0-11.266 3.203-22.328Q24.517-2 31-13.188h-7.813Q15.875-1.704 12.235 9.375q-3.64 11.078-3.64 22.016 0 10.89 3.61 21.922 3.624 11.046 10.983 22.562z" stroke-linejoin="round"/><path id="K" d="M8.5 21.578v33.11h8.984V21.922q0-7.766 3.016-11.656 3.031-3.875 9.094-3.875 7.265 0 11.484 4.64 4.234 4.64 4.234 12.656v31h8.985V0h-8.984v8.406Q42.047 3.422 37.718 1q-4.313-2.422-10.032-2.422-9.421 0-14.312 5.86Q8.5 10.296 8.5 21.578z" stroke-linejoin="round"/><path id="L" d="M48.688 27.297q0 9.906-4.079 15.547-4.078 5.64-11.203 5.64-7.14 0-11.218-5.64-4.079-5.64-4.079-15.547 0-9.906 4.078-15.547 4.079-5.64 11.22-5.64 7.124 0 11.202 5.64t4.078 15.547zM18.108 46.39q2.844 4.875 7.157 7.234Q29.594 56 35.594 56q9.968 0 16.187-7.906 6.235-7.907 6.235-20.797T51.78 6.484q-6.218-7.906-16.187-7.906-6 0-10.328 2.375-4.313 2.375-7.157 7.25V0H9.08v75.984h9.03z" stroke-linejoin="round"/><path id="M" d="M54.89 33.016V0h-8.984v32.719q0 7.765-3.031 11.61-3.031 3.858-9.078 3.858-7.281 0-11.484-4.64-4.204-4.625-4.204-12.64V0H9.08v54.688h9.03v-8.5q3.235 4.937 7.594 7.374Q30.078 56 35.797 56q9.422 0 14.25-5.828 4.844-5.828 4.844-17.156z" stroke-linejoin="round"/><path id="N" d="M10.688 12.406H21V0H10.687z" stroke-linejoin="round"/><path id="O" d="M32.172-5.078q-3.797-9.766-7.422-12.735-3.61-2.984-9.656-2.984H7.906v7.516h5.282q3.703 0 5.75 1.765Q21-9.766 23.483-3.219l1.61 4.094-22.11 53.813H12.5l17.094-42.766 17.093 42.766h9.516z" stroke-linejoin="round"/><path id="P" d="M8.016 75.875h7.812q7.313-11.516 10.953-22.563 3.64-11.03 3.64-21.921 0-10.938-3.64-22.016-3.64-11.078-10.953-22.563H8.016Q14.5-2 17.703 9.063q3.203 11.063 3.203 22.329 0 11.28-3.203 22.265-3.203 11-9.687 22.219z" stroke-linejoin="round"/><path id="R" d="M8.203 72.906h46.875v-4.203L28.61 0H18.312L43.22 64.594H8.203z" stroke-linejoin="round"/><path id="S" d="M9.813 72.906h13.28l32.329-60.984v60.984h9.562V0h-13.28L19.39 60.984V0H9.813z" stroke-linejoin="round"/><clipPath id="Q" stroke-linejoin="round"><path d="M70.22 297.12H558v208.808H70.22z"/></clipPath><clipPath id="a" stroke-linejoin="round"><path d="M70.22 25.44H558v208.808H70.22z"/></clipPath></defs><path d="M0 568.8h568.8V0H0z" fill="#fff"/><path d="M70.22 234.248H558V25.44H70.22z" fill="#fff"/><g stroke-width=".8"><path clip-path="url(#a)" d="M70.22 234.248V25.44" fill="none" stroke="#b0b0b0" stroke-linecap="square"/><use stroke="#000" x="70.22" xlink:href="#b" y="234.248"/></g><path clip-path="url(#a)" d="M395.407 234.248V25.44" fill="none" stroke="#b0b0b0" stroke-linecap="square" stroke-width=".8"/><use stroke="#000" stroke-width=".8" x="395.407" xlink:href="#b" y="234.248"/><g transform="matrix(.1 0 0 -.1 386.757 271.242)"><use xlink:href="#c"/><use x="68.408" xlink:href="#d"/><use x="131.885" xlink:href="#e"/></g><g transform="matrix(.1 0 0 -.1 382.682 282.44)"><use xlink:href="#f"/><use x="63.623" xlink:href="#g"/><use x="127.246" xlink:href="#f"/><use x="190.869" xlink:href="#g"/></g><g stroke-width=".8"><path clip-path="url(#a)" d="M558 234.248V25.44" fill="none" stroke="#b0b0b0" stroke-linecap="square"/><use stroke="#000" x="558" xlink:href="#b" y="234.248"/></g><use stroke="#000" stroke-width=".6" x="85.001" xlink:href="#h" y="234.248"/><use stroke="#000" stroke-width=".6" x="99.782" xlink:href="#h" y="234.248"/><use stroke="#000" stroke-width=".6" x="114.564" xlink:href="#h" y="234.248"/><use stroke="#000" stroke-width=".6" x="129.345" xlink:href="#h" y="234.248"/><use stroke="#000" stroke-width=".6" x="144.126" xlink:href="#h" y="234.248"/><use stroke="#000" stroke-width=".6" x="158.907" xlink:href="#h" y="234.248"/><g transform="matrix(.1 0 0 -.1 152.545 247.246)"><use xlink:href="#i"/><use x="63.623" xlink:href="#j"/></g><g stroke="#000" stroke-width=".6"><use x="173.688" xlink:href="#h" y="234.248"/><use x="188.47" xlink:href="#h" y="234.248"/><use x="203.251" xlink:href="#h" y="234.248"/><use x="218.032" xlink:href="#h" y="234.248"/><use x="232.813" xlink:href="#h" y="234.248"/><use x="247.595" xlink:href="#h" y="234.248"/></g><use stroke="#000" stroke-width=".6" x="262.376" xlink:href="#h" y="234.248"/><g transform="matrix(.1 0 0 -.1 256.013 247.246)"><use xlink:href="#f"/><use x="63.623" xlink:href="#k"/></g><use stroke="#000" stroke-width=".6" x="277.157" xlink:href="#h" y="234.248"/><use stroke="#000" stroke-width=".6" x="291.938" xlink:href="#h" y="234.248"/><use stroke="#000" stroke-width=".6" x="306.719" xlink:href="#h" y="234.248"/><use stroke="#000" stroke-width=".6" x="321.501" xlink:href="#h" y="234.248"/><use stroke="#000" stroke-width=".6" x="336.282" xlink:href="#h" y="234.248"/><use stroke="#000" stroke-width=".6" x="351.063" xlink:href="#h" y="234.248"/><use stroke="#000" stroke-width=".6" x="365.844" xlink:href="#h" y="234.248"/><g transform="matrix(.1 0 0 -.1 359.482 247.246)"><use xlink:href="#k"/><use x="63.623" xlink:href="#g"/></g><use stroke="#000" stroke-width=".6" x="380.625" xlink:href="#h" y="234.248"/><use stroke="#000" stroke-width=".6" x="410.188" xlink:href="#h" y="234.248"/><use stroke="#000" stroke-width=".6" x="424.969" xlink:href="#h" y="234.248"/><use stroke="#000" stroke-width=".6" x="439.75" xlink:href="#h" y="234.248"/><use stroke="#000" stroke-width=".6" x="454.532" xlink:href="#h" y="234.248"/><g><use stroke="#000" stroke-width=".6" x="469.313" xlink:href="#h" y="234.248"/><g transform="matrix(.1 0 0 -.1 462.95 247.246)"><use xlink:href="#g"/><use x="63.623" xlink:href="#j"/></g></g><use stroke="#000" stroke-width=".6" x="484.094" xlink:href="#h" y="234.248"/><use stroke="#000" stroke-width=".6" x="498.875" xlink:href="#h" y="234.248"/><use stroke="#000" stroke-width=".6" x="513.656" xlink:href="#h" y="234.248"/><use stroke="#000" stroke-width=".6" x="528.438" xlink:href="#h" y="234.248"/><use stroke="#000" stroke-width=".6" x="543.219" xlink:href="#h" y="234.248"/><g><path clip-path="url(#a)" d="M70.22 196.247H558" fill="none" stroke="#b0b0b0" stroke-linecap="square" stroke-width=".8"/><use stroke="#000" stroke-width=".8" x="70.22" xlink:href="#l" y="196.247"/><g transform="matrix(.1 0 0 -.1 25.045 200.047)"><use xlink:href="#i"/><use x="63.623" xlink:href="#g"/><use x="127.246" xlink:href="#g"/><use x="190.869" xlink:href="#g"/><use x="254.492" xlink:href="#g"/><use x="318.115" xlink:href="#g"/></g><path clip-path="url(#a)" d="M70.22 158.243H558" fill="none" stroke="#b0b0b0" stroke-linecap="square" stroke-width=".8"/><use stroke="#000" stroke-width=".8" x="70.22" xlink:href="#l" y="158.243"/><g transform="matrix(.1 0 0 -.1 25.045 162.042)"><use xlink:href="#f"/><use x="63.623" xlink:href="#g"/><use x="127.246" xlink:href="#g"/><use x="190.869" xlink:href="#g"/><use x="254.492" xlink:href="#g"/><use x="318.115" xlink:href="#g"/></g><g><path clip-path="url(#a)" d="M70.22 120.239H558" fill="none" stroke="#b0b0b0" stroke-linecap="square" stroke-width=".8"/><use stroke="#000" stroke-width=".8" x="70.22" xlink:href="#l" y="120.239"/><g transform="matrix(.1 0 0 -.1 25.045 124.038)"><use xlink:href="#k"/><use x="63.623" xlink:href="#g"/><use x="127.246" xlink:href="#g"/><use x="190.869" xlink:href="#g"/><use x="254.492" xlink:href="#g"/><use x="318.115" xlink:href="#g"/></g></g><g><path clip-path="url(#a)" d="M70.22 82.234H558" fill="none" stroke="#b0b0b0" stroke-linecap="square" stroke-width=".8"/><use stroke="#000" stroke-width=".8" x="70.22" xlink:href="#l" y="82.234"/><g transform="matrix(.1 0 0 -.1 25.045 86.033)"><use xlink:href="#m"/><use x="63.623" xlink:href="#g"/><use x="127.246" xlink:href="#g"/><use x="190.869" xlink:href="#g"/><use x="254.492" xlink:href="#g"/><use x="318.115" xlink:href="#g"/></g></g><g><path clip-path="url(#a)" d="M70.22 44.23H558" fill="none" stroke="#b0b0b0" stroke-linecap="square" stroke-width=".8"/><use stroke="#000" stroke-width=".8" x="70.22" xlink:href="#l" y="44.23"/><g transform="matrix(.1 0 0 -.1 25.045 48.03)"><use xlink:href="#n"/><use x="63.623" xlink:href="#g"/><use x="127.246" xlink:href="#g"/><use x="190.869" xlink:href="#g"/><use x="254.492" xlink:href="#g"/><use x="318.115" xlink:href="#g"/></g></g><g transform="matrix(0 -.1 -.1 0 18.965 156.19)"><path d="M3.328 72.906h9.953L28.61 11.281l15.282 61.625h11.093l15.328-61.625 15.282 61.625h10.015L77.297 0H64.89L49.516 63.281 33.984 0H21.578z"/><use x="98.799" xlink:href="#o"/><use x="159.98" xlink:href="#e"/><use x="201.094" xlink:href="#p"/><use x="228.877" xlink:href="#q"/><use x="292.354" xlink:href="#r"/><use x="374.141" xlink:href="#s"/><use x="401.924" xlink:href="#q"/><use x="465.4" xlink:href="#t"/></g></g><g stroke="#1f77b4"><path clip-path="url(#a)" d="M-1 234.172l12.095-.017 14.781-.052 14.782-.044 14.78-.026 14.782-.132 14.781-.12 14.781-.141 14.782-.194 14.78-.205 14.782-.29 14.781-.42 14.781-.672 14.782-.481 14.78-2.208 14.782-2.029 14.781-2.404 14.782-3.187 14.78-3.684 14.782-3.637 14.781-4.48 14.781-6.64 14.782-6.56 14.78-7.282 14.782-6.616 14.781-6.625 14.781-9.146 14.782-8.69 14.78-10.844L424.97 135.9l14.781-10.261 14.782-9.202 14.78-9.994 14.782-9.667 14.781-11.044 14.781-10.926" fill="none" stroke-linecap="square" stroke-width="1.5"/><g clip-path="url(#a)" fill="#1f77b4"><use x="-1" xlink:href="#u" y="234.172"/><use x="11.095" xlink:href="#u" y="234.155"/><use x="25.876" xlink:href="#u" y="234.103"/><use x="40.658" xlink:href="#u" y="234.059"/><use x="55.439" xlink:href="#u" y="234.033"/><use x="70.22" xlink:href="#u" y="233.901"/><use x="85.001" xlink:href="#u" y="233.782"/><use x="99.782" xlink:href="#u" y="233.64"/><use x="114.564" xlink:href="#u" y="233.446"/><use x="129.345" xlink:href="#u" y="233.241"/><use x="144.126" xlink:href="#u" y="232.951"/><use x="158.907" xlink:href="#u" y="232.53"/><use x="173.688" xlink:href="#u" y="231.859"/><use x="188.47" xlink:href="#u" y="231.378"/><use x="203.251" xlink:href="#u" y="229.17"/><use x="218.032" xlink:href="#u" y="227.141"/><use x="232.813" xlink:href="#u" y="224.737"/><use x="247.595" xlink:href="#u" y="221.55"/><use x="262.376" xlink:href="#u" y="217.866"/><use x="277.157" xlink:href="#u" y="214.229"/><use x="291.938" xlink:href="#u" y="209.748"/><use x="306.719" xlink:href="#u" y="203.109"/><use x="321.501" xlink:href="#u" y="196.549"/><use x="336.282" xlink:href="#u" y="189.267"/><use x="351.063" xlink:href="#u" y="182.651"/><use x="365.844" xlink:href="#u" y="176.026"/><use x="380.625" xlink:href="#u" y="166.88"/><use x="395.407" xlink:href="#u" y="158.189"/><use x="410.188" xlink:href="#u" y="147.346"/><use x="424.969" xlink:href="#u" y="135.899"/><use x="439.75" xlink:href="#u" y="125.638"/><use x="454.532" xlink:href="#u" y="116.436"/><use x="469.313" xlink:href="#u" y="106.442"/><use x="484.094" xlink:href="#u" y="96.775"/><use x="498.875" xlink:href="#u" y="85.731"/><use x="513.656" xlink:href="#u" y="74.805"/></g></g><g stroke="#ff7f0e"><path clip-path="url(#a)" d="M-1 232.956l12.095-.192 14.781-.436 14.782-.504 14.78-.607 14.782-.307 14.781-.683h14.781l14.782-1.659 14.78-1.062 14.782-1.084 14.781-.939 14.781-1.136 14.782-1.006 14.78-1.703 14.782-2.037 14.781-1.57 14.782-1.504 14.78-1.436 14.782-1.373 14.781-1.327 14.781-1.707 14.782-1.672 14.78-1.388 14.782-1.45 14.781-.626 14.781-.8 14.782-1.117 14.78-.941 14.782-.89 14.781-1.096 14.782-1.13 14.78-.737 14.782-.335 14.781-.454 14.781-.614" fill="none" stroke-linecap="square" stroke-width="1.5"/><g clip-path="url(#a)" fill="#ff7f0e"><use x="-1" xlink:href="#v" y="232.956"/><use x="11.095" xlink:href="#v" y="232.764"/><use x="25.876" xlink:href="#v" y="232.328"/><use x="40.658" xlink:href="#v" y="231.824"/><use x="55.439" xlink:href="#v" y="231.217"/><use x="70.22" xlink:href="#v" y="230.91"/><use x="85.001" xlink:href="#v" y="230.227"/><use x="99.782" xlink:href="#v" y="230.227"/><use x="114.564" xlink:href="#v" y="228.568"/><use x="129.345" xlink:href="#v" y="227.506"/><use x="144.126" xlink:href="#v" y="226.422"/><use x="158.907" xlink:href="#v" y="225.483"/><use x="173.688" xlink:href="#v" y="224.347"/><use x="188.47" xlink:href="#v" y="223.341"/><use x="203.251" xlink:href="#v" y="221.638"/><use x="218.032" xlink:href="#v" y="219.601"/><use x="232.813" xlink:href="#v" y="218.031"/><use x="247.595" xlink:href="#v" y="216.527"/><use x="262.376" xlink:href="#v" y="215.091"/><use x="277.157" xlink:href="#v" y="213.718"/><use x="291.938" xlink:href="#v" y="212.391"/><use x="306.719" xlink:href="#v" y="210.684"/><use x="321.501" xlink:href="#v" y="209.012"/><use x="336.282" xlink:href="#v" y="207.624"/><use x="351.063" xlink:href="#v" y="206.174"/><use x="365.844" xlink:href="#v" y="205.548"/><use x="380.625" xlink:href="#v" y="204.747"/><use x="395.407" xlink:href="#v" y="203.631"/><use x="410.188" xlink:href="#v" y="202.69"/><use x="424.969" xlink:href="#v" y="201.801"/><use x="439.75" xlink:href="#v" y="200.704"/><use x="454.532" xlink:href="#v" y="199.574"/><use x="469.313" xlink:href="#v" y="198.837"/><use x="484.094" xlink:href="#v" y="198.502"/><use x="498.875" xlink:href="#v" y="198.048"/><use x="513.656" xlink:href="#v" y="197.434"/></g></g><path clip-path="url(#a)" d="M-1 234.146l12.095-.044 14.781-.025 14.782-.063 14.78-.147 14.782-.234 14.781-.156h14.781l14.782-1.09 14.78-.293 14.782-.5 14.781-.79 14.781-.424 14.782-.767 14.78-1.452 14.782-.666 14.781-1.556 14.782-1.083 14.78-1.804 14.782-1.45 14.781-2.742 14.781-2.245 14.782-1.83 14.78-1.423 14.782-1.38 14.781-1.848 14.781-1.801 14.782-1.476 14.78-1.099 14.782-.955 14.781-.955 14.782-.351 14.78-.75 14.782-.68 14.781-.274 14.781-.077" fill="none" stroke="#2ca02c" stroke-linecap="square" stroke-width="1.5"/><g stroke="#d62728"><path clip-path="url(#a)" d="M-1 234.097l12.095-.085 14.781-.112 14.782-.064 14.78-.032 14.782-.213 14.781-.184h14.781l14.782-.514 14.78-.305 14.782-.012 14.781-.79 14.781-.393 14.782-.52 14.78-.661 14.782-.585 14.781-.595 14.782.151 14.78-1.412 14.782-.448 14.781-.809 14.781-.964 14.782-1.065 14.78-1.659 14.782-.307 14.781-1.256 14.781-2.13 14.782-1.091 14.78.254 14.782-.974 14.781-8.8 14.782-.619 14.78-1.246 14.782-2.884 14.781-.54 14.781-.578" fill="none" stroke-linecap="square" stroke-width="1.5"/><g clip-path="url(#a)" fill="#d62728"><use x="-1" xlink:href="#w" y="234.097"/><use x="11.095" xlink:href="#w" y="234.012"/><use x="25.876" xlink:href="#w" y="233.9"/><use x="40.658" xlink:href="#w" y="233.836"/><use x="55.439" xlink:href="#w" y="233.804"/><use x="70.22" xlink:href="#w" y="233.591"/><use x="85.001" xlink:href="#w" y="233.407"/><use x="99.782" xlink:href="#w" y="233.407"/><use x="114.564" xlink:href="#w" y="232.893"/><use x="129.345" xlink:href="#w" y="232.588"/><use x="144.126" xlink:href="#w" y="232.576"/><use x="158.907" xlink:href="#w" y="231.785"/><use x="173.688" xlink:href="#w" y="231.393"/><use x="188.47" xlink:href="#w" y="230.872"/><use x="203.251" xlink:href="#w" y="230.212"/><use x="218.032" xlink:href="#w" y="229.627"/><use x="232.813" xlink:href="#w" y="229.032"/><use x="247.595" xlink:href="#w" y="229.183"/><use x="262.376" xlink:href="#w" y="227.771"/><use x="277.157" xlink:href="#w" y="227.323"/><use x="291.938" xlink:href="#w" y="226.514"/><use x="306.719" xlink:href="#w" y="225.55"/><use x="321.501" xlink:href="#w" y="224.485"/><use x="336.282" xlink:href="#w" y="222.826"/><use x="351.063" xlink:href="#w" y="222.519"/><use x="365.844" xlink:href="#w" y="221.263"/><use x="380.625" xlink:href="#w" y="219.133"/><use x="395.407" xlink:href="#w" y="218.042"/><use x="410.188" xlink:href="#w" y="218.296"/><use x="424.969" xlink:href="#w" y="217.322"/><use x="439.75" xlink:href="#w" y="208.522"/><use x="454.532" xlink:href="#w" y="207.903"/><use x="469.313" xlink:href="#w" y="206.657"/><use x="484.094" xlink:href="#w" y="203.773"/><use x="498.875" xlink:href="#w" y="203.233"/><use x="513.656" xlink:href="#w" y="202.655"/></g></g><g stroke="#9467bd"><path clip-path="url(#a)" d="M-1 234.062l12.095-.058 14.781-.049 14.782-.092 14.78-.05 14.782-.107 14.781-.169 14.781-.064 14.782-.598 14.78-.345 14.782-.459 14.781-.551 14.781-.752 14.782-1.15 14.78-1.129 14.782-1.686 14.781-.873 14.782-.994 14.78-1.508 14.782-.42 14.781-1.514 14.781-1.683 14.782-2.232 14.78-1.866 14.782-1.357 14.781-.148 14.781-.833 14.782-1.262 14.78-1.138 14.782-1.543 14.781-1.117 14.782-.605 14.78-1.15 14.782 1.254 14.781 1.87 14.781.562" fill="none" stroke-linecap="square" stroke-width="1.5"/><g clip-path="url(#a)" fill="#9467bd"><use x="-1" xlink:href="#x" y="234.062"/><use x="11.095" xlink:href="#x" y="234.004"/><use x="25.876" xlink:href="#x" y="233.955"/><use x="40.658" xlink:href="#x" y="233.863"/><use x="55.439" xlink:href="#x" y="233.812"/><use x="70.22" xlink:href="#x" y="233.706"/><use x="85.001" xlink:href="#x" y="233.537"/><use x="99.782" xlink:href="#x" y="233.473"/><use x="114.564" xlink:href="#x" y="232.875"/><use x="129.345" xlink:href="#x" y="232.53"/><use x="144.126" xlink:href="#x" y="232.071"/><use x="158.907" xlink:href="#x" y="231.52"/><use x="173.688" xlink:href="#x" y="230.768"/><use x="188.47" xlink:href="#x" y="229.618"/><use x="203.251" xlink:href="#x" y="228.489"/><use x="218.032" xlink:href="#x" y="226.803"/><use x="232.813" xlink:href="#x" y="225.93"/><use x="247.595" xlink:href="#x" y="224.936"/><use x="262.376" xlink:href="#x" y="223.428"/><use x="277.157" xlink:href="#x" y="223.008"/><use x="291.938" xlink:href="#x" y="221.494"/><use x="306.719" xlink:href="#x" y="219.811"/><use x="321.501" xlink:href="#x" y="217.579"/><use x="336.282" xlink:href="#x" y="215.713"/><use x="351.063" xlink:href="#x" y="214.356"/><use x="365.844" xlink:href="#x" y="214.208"/><use x="380.625" xlink:href="#x" y="213.375"/><use x="395.407" xlink:href="#x" y="212.113"/><use x="410.188" xlink:href="#x" y="210.975"/><use x="424.969" xlink:href="#x" y="209.432"/><use x="439.75" xlink:href="#x" y="208.315"/><use x="454.532" xlink:href="#x" y="207.71"/><use x="469.313" xlink:href="#x" y="206.56"/><use x="484.094" xlink:href="#x" y="207.814"/><use x="498.875" xlink:href="#x" y="209.683"/><use x="513.656" xlink:href="#x" y="210.246"/></g></g><path clip-path="url(#a)" d="M513.656 74.805l14.782-12.186 14.78-13.116L558 35.383" fill="none" stroke="#1f77b4" stroke-dasharray="1.5 2.475" stroke-width="1.5"/><path clip-path="url(#a)" d="M513.656 197.434l14.782-.509 14.78-.516 14.782-.523" fill="none" stroke="#ff7f0e" stroke-dasharray="1.5 2.475" stroke-width="1.5"/><path clip-path="url(#a)" d="M513.656 201.716l14.782-.281 14.78-.284 14.782-.287" fill="none" stroke="#2ca02c" stroke-dasharray="1.5 2.475" stroke-width="1.5"/><path clip-path="url(#a)" d="M513.656 202.655l14.782-1.141 14.78-1.183L558 199.106" fill="none" stroke="#d62728" stroke-dasharray="1.5 2.475" stroke-width="1.5"/><path clip-path="url(#a)" d="M513.656 210.246l14.782 1.08 14.78 1.031 14.782.986" fill="none" stroke="#9467bd" stroke-dasharray="1.5 2.475" stroke-width="1.5"/><path d="M70.22 234.248V25.44M558 234.248V25.44M70.22 234.248H558M70.22 25.44H558" fill="none" stroke="#000" stroke-linecap="square" stroke-linejoin="miter" stroke-width=".8"/><g transform="matrix(.12 0 0 -.12 192.33 19.44)"><use xlink:href="#c"/><use x="68.393" xlink:href="#y"/><use x="123.373" xlink:href="#z"/><use x="162.582" xlink:href="#s"/><path d="M193.35 54.688h9.515L219.96 8.797l17.094 45.89h9.515L226.053 0H213.85z"/><use x="249.545" xlink:href="#t"/><use x="342.855" xlink:href="#A"/><path d="M452.086 66.219q-10.75 0-17.078-8.016-6.313-8-6.313-21.828 0-13.766 6.313-21.781 6.328-8 17.078-8 10.734 0 17.016 8 6.28 8.015 6.28 21.781 0 13.828-6.28 21.828-6.282 8.016-17.016 8.016zm0 8q15.328 0 24.5-10.281 9.187-10.282 9.187-27.563 0-17.234-9.187-27.516-9.172-10.28-24.5-10.28-15.375 0-24.594 10.25-9.203 10.265-9.203 27.546t9.203 27.563q9.219 10.28 24.594 10.28zM519.984 0l-27.828 72.906h10.297l23.11-61.375 23.14 61.375h10.25L531.172 0z"/><use x="559.783" xlink:href="#B"/><path d="M608.947 64.797V8.109h11.922q15.094 0 22.094 6.829 7 6.843 7 21.593 0 14.64-7 21.453-7 6.813-22.094 6.813zm-9.86 8.11h20.267q21.187 0 31.093-8.813 9.922-8.813 9.922-27.563 0-18.86-9.969-27.703Q640.447 0 619.354 0h-20.266z"/><use x="666.277" xlink:href="#C"/><use x="702.361" xlink:href="#i"/><use x="765.984" xlink:href="#D"/><use x="861.395" xlink:href="#y"/><use x="916.375" xlink:href="#E"/><use x="977.654" xlink:href="#F"/><use x="1029.754" xlink:href="#t"/><use x="1091.277" xlink:href="#F"/><use x="1175.164" xlink:href="#E"/><use x="1236.443" xlink:href="#F"/><use x="1320.33" xlink:href="#o"/><use x="1381.512" xlink:href="#G"/><use x="1448.504" xlink:href="#f"/><use x="1512.127" xlink:href="#g"/><use x="1575.75" xlink:href="#f"/><use x="1639.373" xlink:href="#g"/><use x="1702.996" xlink:href="#C"/><use x="1739.08" xlink:href="#g"/><use x="1802.703" xlink:href="#m"/><use x="1866.326" xlink:href="#C"/><use x="1902.41" xlink:href="#g"/><use x="1966.033" xlink:href="#D"/></g><g><path d="M77.22 106.83h180.764q2 0 2-2V32.44q0-2-2-2H77.22q-2 0-2 2v72.39q0 2 2 2z" fill="#fff" opacity=".8" stroke="#ccc" stroke-linejoin="miter"/><path d="M79.22 38.538h20" fill="none" stroke="#1f77b4" stroke-linecap="square" stroke-width="1.5"/><use fill="#1f77b4" stroke="#1f77b4" x="89.22" xlink:href="#u" y="38.538"/><g transform="matrix(.1 0 0 -.1 107.22 42.038)"><use xlink:href="#H"/><use x="73.193" xlink:href="#I"/><use x="168.457" xlink:href="#J"/><use x="207.471" xlink:href="#q"/><use x="270.947" xlink:href="#o"/><use x="332.129" xlink:href="#K"/><use x="395.508" xlink:href="#L"/><use x="458.984" xlink:href="#p"/><use x="486.768" xlink:href="#t"/><use x="548.291" xlink:href="#F"/><use x="632.178" xlink:href="#s"/><use x="659.961" xlink:href="#M"/><use x="755.127" xlink:href="#D"/><use x="818.75" xlink:href="#N"/><use x="850.537" xlink:href="#m"/><use x="945.947" xlink:href="#q"/><use x="1009.424" xlink:href="#E"/><use x="1070.703" xlink:href="#O"/><use x="1129.883" xlink:href="#F"/><use x="1181.982" xlink:href="#P"/></g><path d="M79.22 53.217h20" fill="none" stroke="#ff7f0e" stroke-linecap="square" stroke-width="1.5"/><use fill="#ff7f0e" stroke="#ff7f0e" x="89.22" xlink:href="#v" y="53.217"/><g transform="matrix(.1 0 0 -.1 107.22 56.717)"><use xlink:href="#B"/><use x="29.492" xlink:href="#z"/><use x="68.701" xlink:href="#E"/><use x="129.98" xlink:href="#p"/><use x="157.764" xlink:href="#O"/><use x="248.73" xlink:href="#J"/><use x="287.744" xlink:href="#q"/><use x="351.221" xlink:href="#o"/><use x="412.402" xlink:href="#K"/><use x="475.781" xlink:href="#L"/><use x="539.258" xlink:href="#p"/><use x="567.041" xlink:href="#t"/><use x="628.564" xlink:href="#F"/><use x="712.451" xlink:href="#s"/><use x="740.234" xlink:href="#M"/><use x="835.4" xlink:href="#n"/><use x="899.023" xlink:href="#g"/><use x="962.646" xlink:href="#N"/><use x="994.434" xlink:href="#n"/><use x="1089.844" xlink:href="#q"/><use x="1153.32" xlink:href="#E"/><use x="1214.6" xlink:href="#O"/><use x="1273.779" xlink:href="#F"/><use x="1325.879" xlink:href="#P"/></g><path d="M79.22 67.895h20" fill="none" stroke="#2ca02c" stroke-linecap="square" stroke-width="1.5"/><g transform="matrix(.1 0 0 -.1 107.22 71.395)"><use xlink:href="#I"/><use x="63.477" xlink:href="#d"/><use x="126.953" xlink:href="#E"/><use x="188.232" xlink:href="#s"/><use x="216.016" xlink:href="#M"/></g><path d="M79.22 82.573h20" fill="none" stroke="#d62728" stroke-linecap="square" stroke-width="1.5"/><use fill="#d62728" stroke="#d62728" x="89.22" xlink:href="#w" y="82.573"/><g transform="matrix(.1 0 0 -.1 107.22 86.073)"><path d="M9.813 72.906h41.89v-8.312H19.672V43.109h28.906v-8.297H19.672V0h-9.86z"/><use x="57.41" xlink:href="#e"/><use x="98.523" xlink:href="#E"/><use x="159.803" xlink:href="#M"/><use x="223.182" xlink:href="#y"/><use x="278.162" xlink:href="#t"/><use x="371.473" xlink:href="#J"/><use x="410.486" xlink:href="#q"/><use x="473.963" xlink:href="#o"/><use x="535.145" xlink:href="#K"/><use x="598.523" xlink:href="#L"/><use x="662" xlink:href="#p"/><use x="689.783" xlink:href="#t"/><use x="751.307" xlink:href="#F"/><use x="835.193" xlink:href="#s"/><use x="862.977" xlink:href="#M"/><use x="958.143" xlink:href="#i"/><use x="1021.766" xlink:href="#D"/><use x="1085.389" xlink:href="#N"/><use x="1117.176" xlink:href="#n"/><use x="1212.586" xlink:href="#q"/><use x="1276.063" xlink:href="#E"/><use x="1337.342" xlink:href="#O"/><use x="1396.521" xlink:href="#F"/><use x="1448.621" xlink:href="#P"/></g><path d="M79.22 97.25h20" fill="none" stroke="#9467bd" stroke-linecap="square" stroke-width="1.5"/><use fill="#9467bd" stroke="#9467bd" x="89.22" xlink:href="#x" y="97.251"/><g transform="matrix(.1 0 0 -.1 107.22 100.75)"><path d="M59.516 10.406v19.578h-16.11v8.11h25.875V6.78Q63.578 2.734 56.687.656 49.813-1.422 42-1.422q-17.094 0-26.75 9.985-9.64 10-9.64 27.812 0 17.875 9.64 27.86 9.656 9.984 26.75 9.984 7.125 0 13.547-1.766 6.422-1.75 11.844-5.172v-10.5q-5.47 4.64-11.625 6.985-6.157 2.343-12.938 2.343-13.39 0-20.11-7.468-6.702-7.47-6.702-22.266 0-14.75 6.703-22.219 6.718-7.469 20.11-7.469 5.218 0 9.312.907 4.109.906 7.375 2.812z"/><use x="77.49" xlink:href="#t"/><use x="139.014" xlink:href="#e"/><path d="M232.111 44.188q3.375 6.062 8.063 8.937Q244.86 56 251.205 56q8.547 0 13.188-5.984 4.64-5.97 4.64-17V0h-9.031v32.719q0 7.86-2.797 11.656-2.781 3.813-8.484 3.813-6.985 0-11.047-4.641-4.047-4.625-4.047-12.64V0h-9.031v32.719q0 7.906-2.782 11.687-2.78 3.782-8.593 3.782-6.89 0-10.953-4.657-4.047-4.656-4.047-12.625V0h-9.032v54.688h9.032v-8.5q3.078 5.03 7.375 7.421Q209.893 56 215.799 56q5.969 0 10.14-3.031 4.172-3.016 6.172-8.782z"/><use x="277.523" xlink:href="#E"/><use x="338.803" xlink:href="#M"/><use x="402.182" xlink:href="#O"/></g></g><g><path d="M70.22 505.928H558V297.12H70.22z" fill="#fff"/><g stroke-width=".8"><path clip-path="url(#Q)" d="M70.22 505.928V297.12" fill="none" stroke="#b0b0b0" stroke-linecap="square"/><use stroke="#000" x="70.22" xlink:href="#b" y="505.928"/></g><path clip-path="url(#Q)" d="M395.407 505.928V297.12" fill="none" stroke="#b0b0b0" stroke-linecap="square" stroke-width=".8"/><use stroke="#000" stroke-width=".8" x="395.407" xlink:href="#b" y="505.928"/><g transform="matrix(.1 0 0 -.1 386.757 542.922)"><use xlink:href="#c"/><use x="68.408" xlink:href="#d"/><use x="131.885" xlink:href="#e"/></g><g transform="matrix(.1 0 0 -.1 382.682 554.12)"><use xlink:href="#f"/><use x="63.623" xlink:href="#g"/><use x="127.246" xlink:href="#f"/><use x="190.869" xlink:href="#g"/></g><g stroke-width=".8"><path clip-path="url(#Q)" d="M558 505.928V297.12" fill="none" stroke="#b0b0b0" stroke-linecap="square"/><use stroke="#000" x="558" xlink:href="#b" y="505.928"/></g><use stroke="#000" stroke-width=".6" x="85.001" xlink:href="#h" y="505.928"/><use stroke="#000" stroke-width=".6" x="99.782" xlink:href="#h" y="505.928"/><use stroke="#000" stroke-width=".6" x="114.564" xlink:href="#h" y="505.928"/><use stroke="#000" stroke-width=".6" x="129.345" xlink:href="#h" y="505.928"/><use stroke="#000" stroke-width=".6" x="144.126" xlink:href="#h" y="505.928"/><use stroke="#000" stroke-width=".6" x="158.907" xlink:href="#h" y="505.928"/><g transform="matrix(.1 0 0 -.1 152.545 518.926)"><use xlink:href="#i"/><use x="63.623" xlink:href="#j"/></g><g stroke="#000" stroke-width=".6"><use x="173.688" xlink:href="#h" y="505.928"/><use x="188.47" xlink:href="#h" y="505.928"/><use x="203.251" xlink:href="#h" y="505.928"/><use x="218.032" xlink:href="#h" y="505.928"/><use x="232.813" xlink:href="#h" y="505.928"/><use x="247.595" xlink:href="#h" y="505.928"/></g><use stroke="#000" stroke-width=".6" x="262.376" xlink:href="#h" y="505.928"/><g transform="matrix(.1 0 0 -.1 256.013 518.926)"><use xlink:href="#f"/><use x="63.623" xlink:href="#k"/></g><use stroke="#000" stroke-width=".6" x="277.157" xlink:href="#h" y="505.928"/><use stroke="#000" stroke-width=".6" x="291.938" xlink:href="#h" y="505.928"/><use stroke="#000" stroke-width=".6" x="306.719" xlink:href="#h" y="505.928"/><use stroke="#000" stroke-width=".6" x="321.501" xlink:href="#h" y="505.928"/><use stroke="#000" stroke-width=".6" x="336.282" xlink:href="#h" y="505.928"/><use stroke="#000" stroke-width=".6" x="351.063" xlink:href="#h" y="505.928"/><use stroke="#000" stroke-width=".6" x="365.844" xlink:href="#h" y="505.928"/><g transform="matrix(.1 0 0 -.1 359.482 518.926)"><use xlink:href="#k"/><use x="63.623" xlink:href="#g"/></g><use stroke="#000" stroke-width=".6" x="380.625" xlink:href="#h" y="505.928"/><use stroke="#000" stroke-width=".6" x="410.188" xlink:href="#h" y="505.928"/><use stroke="#000" stroke-width=".6" x="424.969" xlink:href="#h" y="505.928"/><use stroke="#000" stroke-width=".6" x="439.75" xlink:href="#h" y="505.928"/><use stroke="#000" stroke-width=".6" x="454.532" xlink:href="#h" y="505.928"/><g><use stroke="#000" stroke-width=".6" x="469.313" xlink:href="#h" y="505.928"/><g transform="matrix(.1 0 0 -.1 462.95 518.926)"><use xlink:href="#g"/><use x="63.623" xlink:href="#j"/></g></g><use stroke="#000" stroke-width=".6" x="484.094" xlink:href="#h" y="505.928"/><use stroke="#000" stroke-width=".6" x="498.875" xlink:href="#h" y="505.928"/><use stroke="#000" stroke-width=".6" x="513.656" xlink:href="#h" y="505.928"/><use stroke="#000" stroke-width=".6" x="528.438" xlink:href="#h" y="505.928"/><use stroke="#000" stroke-width=".6" x="543.219" xlink:href="#h" y="505.928"/><g><path clip-path="url(#Q)" d="M70.22 479.65H558" fill="none" stroke="#b0b0b0" stroke-linecap="square" stroke-width=".8"/><use stroke="#000" stroke-width=".8" x="70.22" xlink:href="#l" y="479.65"/><g transform="matrix(.1 0 0 -.1 31.407 483.45)"><use xlink:href="#f"/><use x="63.623" xlink:href="#n"/><use x="127.246" xlink:href="#g"/><use x="190.869" xlink:href="#g"/><use x="254.492" xlink:href="#g"/></g><path clip-path="url(#Q)" d="M70.22 453.362H558" fill="none" stroke="#b0b0b0" stroke-linecap="square" stroke-width=".8"/><use stroke="#000" stroke-width=".8" x="70.22" xlink:href="#l" y="453.362"/><g transform="matrix(.1 0 0 -.1 31.407 457.16)"><use xlink:href="#n"/><use x="63.623" xlink:href="#g"/><use x="127.246" xlink:href="#g"/><use x="190.869" xlink:href="#g"/><use x="254.492" xlink:href="#g"/></g><path clip-path="url(#Q)" d="M70.22 427.073H558" fill="none" stroke="#b0b0b0" stroke-linecap="square" stroke-width=".8"/><use stroke="#000" stroke-width=".8" x="70.22" xlink:href="#l" y="427.073"/><g transform="matrix(.1 0 0 -.1 31.407 430.872)"><use xlink:href="#R"/><use x="63.623" xlink:href="#n"/><use x="127.246" xlink:href="#g"/><use x="190.869" xlink:href="#g"/><use x="254.492" xlink:href="#g"/></g><g><path clip-path="url(#Q)" d="M70.22 400.785H558" fill="none" stroke="#b0b0b0" stroke-linecap="square" stroke-width=".8"/><use stroke="#000" stroke-width=".8" x="70.22" xlink:href="#l" y="400.785"/><g transform="matrix(.1 0 0 -.1 25.045 404.584)"><use xlink:href="#i"/><use x="63.623" xlink:href="#g"/><use x="127.246" xlink:href="#g"/><use x="190.869" xlink:href="#g"/><use x="254.492" xlink:href="#g"/><use x="318.115" xlink:href="#g"/></g></g><g><path clip-path="url(#Q)" d="M70.22 374.496H558" fill="none" stroke="#b0b0b0" stroke-linecap="square" stroke-width=".8"/><use stroke="#000" stroke-width=".8" x="70.22" xlink:href="#l" y="374.496"/><g transform="matrix(.1 0 0 -.1 25.045 378.296)"><use xlink:href="#i"/><use x="63.623" xlink:href="#f"/><use x="127.246" xlink:href="#n"/><use x="190.869" xlink:href="#g"/><use x="254.492" xlink:href="#g"/><use x="318.115" xlink:href="#g"/></g></g><g><path clip-path="url(#Q)" d="M70.22 348.208H558" fill="none" stroke="#b0b0b0" stroke-linecap="square" stroke-width=".8"/><use stroke="#000" stroke-width=".8" x="70.22" xlink:href="#l" y="348.208"/><g transform="matrix(.1 0 0 -.1 25.045 352.007)"><use xlink:href="#i"/><use x="63.623" xlink:href="#n"/><use x="127.246" xlink:href="#g"/><use x="190.869" xlink:href="#g"/><use x="254.492" xlink:href="#g"/><use x="318.115" xlink:href="#g"/></g></g><g><path clip-path="url(#Q)" d="M70.22 321.92H558" fill="none" stroke="#b0b0b0" stroke-linecap="square" stroke-width=".8"/><use stroke="#000" stroke-width=".8" x="70.22" xlink:href="#l" y="321.919"/><g transform="matrix(.1 0 0 -.1 25.045 325.719)"><use xlink:href="#i"/><use x="63.623" xlink:href="#R"/><use x="127.246" xlink:href="#n"/><use x="190.869" xlink:href="#g"/><use x="254.492" xlink:href="#g"/><use x="318.115" xlink:href="#g"/></g></g><g transform="matrix(0 -.1 -.1 0 18.965 408.358)"><use xlink:href="#H"/><use x="73.193" xlink:href="#I"/></g></g><g stroke="#1f77b4"><path clip-path="url(#Q)" d="M-1 505.912l12.095-.011 14.781-.042 14.782-.032 14.78-.038 14.782-.032 14.781-.05 14.781-.113 14.782-.098 14.78-.107 14.782-.217 14.781-.24 14.781-.774 14.782-.826 14.78-3 14.782-3.088 14.781-3.556 14.782-4.24 14.78-5.304 14.782-4.99 14.781-5.346 14.781-7.294 14.782-7.21 14.78-7.711 14.782-7.362 14.781-7.11 14.781-9.294 14.782-8.122 14.78-8.545 14.782-10.43 14.781-10.742 14.782-9.184 14.78-8.534 14.782-7.643 14.781-10.944 14.781-10.43" fill="none" stroke-linecap="square" stroke-width="1.5"/><g clip-path="url(#Q)" fill="#1f77b4"><use x="-1" xlink:href="#u" y="505.912"/><use x="11.095" xlink:href="#u" y="505.901"/><use x="25.876" xlink:href="#u" y="505.859"/><use x="40.658" xlink:href="#u" y="505.827"/><use x="55.439" xlink:href="#u" y="505.789"/><use x="70.22" xlink:href="#u" y="505.757"/><use x="85.001" xlink:href="#u" y="505.707"/><use x="99.782" xlink:href="#u" y="505.594"/><use x="114.564" xlink:href="#u" y="505.496"/><use x="129.345" xlink:href="#u" y="505.389"/><use x="144.126" xlink:href="#u" y="505.172"/><use x="158.907" xlink:href="#u" y="504.932"/><use x="173.688" xlink:href="#u" y="504.158"/><use x="188.47" xlink:href="#u" y="503.332"/><use x="203.251" xlink:href="#u" y="500.333"/><use x="218.032" xlink:href="#u" y="497.244"/><use x="232.813" xlink:href="#u" y="493.688"/><use x="247.595" xlink:href="#u" y="489.447"/><use x="262.376" xlink:href="#u" y="484.144"/><use x="277.157" xlink:href="#u" y="479.155"/><use x="291.938" xlink:href="#u" y="473.808"/><use x="306.719" xlink:href="#u" y="466.514"/><use x="321.501" xlink:href="#u" y="459.304"/><use x="336.282" xlink:href="#u" y="451.593"/><use x="351.063" xlink:href="#u" y="444.231"/><use x="365.844" xlink:href="#u" y="437.121"/><use x="380.625" xlink:href="#u" y="427.827"/><use x="395.407" xlink:href="#u" y="419.705"/><use x="410.188" xlink:href="#u" y="411.16"/><use x="424.969" xlink:href="#u" y="400.73"/><use x="439.75" xlink:href="#u" y="389.988"/><use x="454.532" xlink:href="#u" y="380.804"/><use x="469.313" xlink:href="#u" y="372.27"/><use x="484.094" xlink:href="#u" y="364.627"/><use x="498.875" xlink:href="#u" y="353.683"/><use x="513.656" xlink:href="#u" y="343.253"/></g></g><g stroke="#ff7f0e"><path clip-path="url(#Q)" d="M-1 505.936h12.095l14.781-.002H55.438l14.782-.01 14.781-.009 14.781-.006h14.782l14.78-.042 14.782-.03 14.781-.083 14.781-.092 14.782-.001 14.78-.493 14.782-.154 14.781-.454 14.782-.613 14.78-.97 14.782-.857 14.781-.745 14.781-2.582 14.782-2.02 14.78-2.385 14.782-2.356 14.781-3.379 14.781-2.093 14.782-3.65 14.78-3.316 14.782-4.412 14.781-4.237 14.782-3.48 14.78-3.68 14.782-3.256 14.781-2.89 14.781-3.56" fill="none" stroke-linecap="square" stroke-width="1.5"/><g clip-path="url(#Q)" fill="#ff7f0e"><use x="-1" xlink:href="#v" y="505.936"/><use x="11.095" xlink:href="#v" y="505.936"/><use x="25.876" xlink:href="#v" y="505.934"/><use x="40.658" xlink:href="#v" y="505.933"/><use x="55.439" xlink:href="#v" y="505.933"/><use x="70.22" xlink:href="#v" y="505.924"/><use x="85.001" xlink:href="#v" y="505.915"/><use x="99.782" xlink:href="#v" y="505.909"/><use x="114.564" xlink:href="#v" y="505.909"/><use x="129.345" xlink:href="#v" y="505.867"/><use x="144.126" xlink:href="#v" y="505.838"/><use x="158.907" xlink:href="#v" y="505.754"/><use x="173.688" xlink:href="#v" y="505.662"/><use x="188.47" xlink:href="#v" y="505.661"/><use x="203.251" xlink:href="#v" y="505.168"/><use x="218.032" xlink:href="#v" y="505.014"/><use x="232.813" xlink:href="#v" y="504.56"/><use x="247.595" xlink:href="#v" y="503.947"/><use x="262.376" xlink:href="#v" y="502.976"/><use x="277.157" xlink:href="#v" y="502.12"/><use x="291.938" xlink:href="#v" y="501.375"/><use x="306.719" xlink:href="#v" y="498.793"/><use x="321.501" xlink:href="#v" y="496.772"/><use x="336.282" xlink:href="#v" y="494.388"/><use x="351.063" xlink:href="#v" y="492.032"/><use x="365.844" xlink:href="#v" y="488.653"/><use x="380.625" xlink:href="#v" y="486.56"/><use x="395.407" xlink:href="#v" y="482.91"/><use x="410.188" xlink:href="#v" y="479.594"/><use x="424.969" xlink:href="#v" y="475.182"/><use x="439.75" xlink:href="#v" y="470.945"/><use x="454.532" xlink:href="#v" y="467.465"/><use x="469.313" xlink:href="#v" y="463.786"/><use x="484.094" xlink:href="#v" y="460.529"/><use x="498.875" xlink:href="#v" y="457.638"/><use x="513.656" xlink:href="#v" y="454.079"/></g></g><path clip-path="url(#Q)" d="M-1 505.939h71.22l14.781-.003h14.781l14.782-.014 14.78-.01 14.782-.008 14.781-.021 14.781-.013 14.782-.019 14.78-.26 14.782-.23 14.781-.246 14.782-.255 14.78-.303 14.782-.479 14.781-.509 14.781-.558 14.782-.797 14.78-1.048 14.782-.86 14.781-1.007 14.781-1.096 14.782-1.707 14.78-1.466 14.782-1.989 14.781-1.493 14.782-1.489 14.78-1.465 14.782-1.715 14.781-1.327 14.781-1.094" fill="none" stroke="#2ca02c" stroke-linecap="square" stroke-width="1.5"/><g stroke="#d62728"><path clip-path="url(#Q)" d="M-1 505.887l12.095-.007 14.781-.025 14.782-.016 14.78-.007 14.782-.04 14.781-.034 14.781-.041 14.782-.065 14.78-.06 14.782-.089 14.781-.137 14.781-.143 14.782-.06 14.78-.207 14.782-.231 14.781-.196 14.782-.29 14.78-.476 14.782-.44 14.781-.469 14.781-.93 14.782-.784 14.78-.443 14.782-.782 14.781-1.329 14.781-1.099 14.782-1.223 14.78-1.403 14.782-1.266 14.781-.851 14.782-2.248 14.78-1.002 14.782-1.346 14.781-1.56 14.781-.803" fill="none" stroke-linecap="square" stroke-width="1.5"/><g clip-path="url(#Q)" fill="#d62728"><use x="-1" xlink:href="#w" y="505.887"/><use x="11.095" xlink:href="#w" y="505.88"/><use x="25.876" xlink:href="#w" y="505.855"/><use x="40.658" xlink:href="#w" y="505.839"/><use x="55.439" xlink:href="#w" y="505.832"/><use x="70.22" xlink:href="#w" y="505.791"/><use x="85.001" xlink:href="#w" y="505.758"/><use x="99.782" xlink:href="#w" y="505.717"/><use x="114.564" xlink:href="#w" y="505.652"/><use x="129.345" xlink:href="#w" y="505.593"/><use x="144.126" xlink:href="#w" y="505.503"/><use x="158.907" xlink:href="#w" y="505.366"/><use x="173.688" xlink:href="#w" y="505.223"/><use x="188.47" xlink:href="#w" y="505.162"/><use x="203.251" xlink:href="#w" y="504.956"/><use x="218.032" xlink:href="#w" y="504.725"/><use x="232.813" xlink:href="#w" y="504.529"/><use x="247.595" xlink:href="#w" y="504.239"/><use x="262.376" xlink:href="#w" y="503.763"/><use x="277.157" xlink:href="#w" y="503.322"/><use x="291.938" xlink:href="#w" y="502.854"/><use x="306.719" xlink:href="#w" y="501.924"/><use x="321.501" xlink:href="#w" y="501.14"/><use x="336.282" xlink:href="#w" y="500.697"/><use x="351.063" xlink:href="#w" y="499.915"/><use x="365.844" xlink:href="#w" y="498.586"/><use x="380.625" xlink:href="#w" y="497.487"/><use x="395.407" xlink:href="#w" y="496.264"/><use x="410.188" xlink:href="#w" y="494.861"/><use x="424.969" xlink:href="#w" y="493.595"/><use x="439.75" xlink:href="#w" y="492.744"/><use x="454.532" xlink:href="#w" y="490.496"/><use x="469.313" xlink:href="#w" y="489.494"/><use x="484.094" xlink:href="#w" y="488.148"/><use x="498.875" xlink:href="#w" y="486.588"/><use x="513.656" xlink:href="#w" y="485.785"/></g></g><g stroke="#9467bd"><path clip-path="url(#Q)" d="M-1 505.937l12.095-.005h14.781l14.782-.018h14.78l14.782-.071 14.781-.003 14.781-.014 14.782-.016 14.78-.016 14.782-.027 14.781-.035 14.781-.022h14.782l14.78-.116 14.782-.089 14.781-.117 14.782-.124 14.78-.133 14.782-.4 14.781-.71 14.781-.598 14.782-.855 14.78-1.06 14.782-.73 14.781-.829 14.781-.878 14.782-1.141 14.78-1.258 14.782-1.47 14.781-1.377 14.782-.788 14.78-1.375 14.782-1.335 14.781-1.588 14.781-2.189" fill="none" stroke-linecap="square" stroke-width="1.5"/><g clip-path="url(#Q)" fill="#9467bd"><use x="-1" xlink:href="#x" y="505.937"/><use x="11.095" xlink:href="#x" y="505.932"/><use x="25.876" xlink:href="#x" y="505.932"/><use x="40.658" xlink:href="#x" y="505.914"/><use x="55.439" xlink:href="#x" y="505.914"/><use x="70.22" xlink:href="#x" y="505.843"/><use x="85.001" xlink:href="#x" y="505.84"/><use x="99.782" xlink:href="#x" y="505.826"/><use x="114.564" xlink:href="#x" y="505.81"/><use x="129.345" xlink:href="#x" y="505.794"/><use x="144.126" xlink:href="#x" y="505.767"/><use x="158.907" xlink:href="#x" y="505.732"/><use x="173.688" xlink:href="#x" y="505.71"/><use x="188.47" xlink:href="#x" y="505.709"/><use x="203.251" xlink:href="#x" y="505.594"/><use x="218.032" xlink:href="#x" y="505.505"/><use x="232.813" xlink:href="#x" y="505.388"/><use x="247.595" xlink:href="#x" y="505.264"/><use x="262.376" xlink:href="#x" y="505.131"/><use x="277.157" xlink:href="#x" y="504.731"/><use x="291.938" xlink:href="#x" y="504.022"/><use x="306.719" xlink:href="#x" y="503.423"/><use x="321.501" xlink:href="#x" y="502.568"/><use x="336.282" xlink:href="#x" y="501.508"/><use x="351.063" xlink:href="#x" y="500.779"/><use x="365.844" xlink:href="#x" y="499.949"/><use x="380.625" xlink:href="#x" y="499.071"/><use x="395.407" xlink:href="#x" y="497.93"/><use x="410.188" xlink:href="#x" y="496.672"/><use x="424.969" xlink:href="#x" y="495.202"/><use x="439.75" xlink:href="#x" y="493.825"/><use x="454.532" xlink:href="#x" y="493.037"/><use x="469.313" xlink:href="#x" y="491.662"/><use x="484.094" xlink:href="#x" y="490.327"/><use x="498.875" xlink:href="#x" y="488.739"/><use x="513.656" xlink:href="#x" y="486.55"/></g></g><path clip-path="url(#Q)" d="M513.656 343.253l14.782-11.265 14.78-12.045L558 307.063" fill="none" stroke="#1f77b4" stroke-dasharray="1.5 2.475" stroke-width="1.5"/><path clip-path="url(#Q)" d="M513.656 454.079l14.782-3.675 14.78-3.935L558 442.255" fill="none" stroke="#ff7f0e" stroke-dasharray="1.5 2.475" stroke-width="1.5"/><path clip-path="url(#Q)" d="M513.656 484.458l14.782-1.481 14.78-1.583L558 479.702" fill="none" stroke="#2ca02c" stroke-dasharray="1.5 2.475" stroke-width="1.5"/><path clip-path="url(#Q)" d="M513.656 485.785l14.782-1.339 14.78-1.427L558 481.497" fill="none" stroke="#d62728" stroke-dasharray="1.5 2.475" stroke-width="1.5"/><path clip-path="url(#Q)" d="M513.656 486.55l14.782-2.148 14.78-2.387 14.782-2.65" fill="none" stroke="#9467bd" stroke-dasharray="1.5 2.475" stroke-width="1.5"/><path d="M70.22 505.928V297.12M558 505.928V297.12M70.22 505.928H558M70.22 297.12H558" fill="none" stroke="#000" stroke-linecap="square" stroke-linejoin="miter" stroke-width=".8"/><g><path d="M77.22 378.51h214.322q2 0 2-2v-72.39q0-2-2-2H77.22q-2 0-2 2v72.39q0 2 2 2z" fill="#fff" opacity=".8" stroke="#ccc" stroke-linejoin="miter"/><path d="M79.22 310.218h20" fill="none" stroke="#1f77b4" stroke-linecap="square" stroke-width="1.5"/><use fill="#1f77b4" stroke="#1f77b4" x="89.22" xlink:href="#u" y="310.218"/><g transform="matrix(.1 0 0 -.1 107.22 313.718)"><use xlink:href="#S"/><use x="74.805" xlink:href="#t"/><use x="136.328" xlink:href="#r"/><path d="M249.7 72.906h10.609l20.203-29.984 20.078 29.984h10.594L285.402 34.72V0h-9.906v34.719z"/><use x="310.783" xlink:href="#o"/><use x="371.965" xlink:href="#e"/><path d="M422.156 75.984h9.031V31.11L458 54.687h11.469l-29-25.578L470.703 0h-11.719l-27.796 26.703V0h-9.032z"/><use x="502.775" xlink:href="#J"/><use x="541.789" xlink:href="#q"/><use x="605.266" xlink:href="#o"/><use x="666.447" xlink:href="#K"/><use x="729.826" xlink:href="#L"/><use x="793.303" xlink:href="#p"/><use x="821.086" xlink:href="#t"/><use x="882.609" xlink:href="#F"/><use x="966.496" xlink:href="#s"/><use x="994.279" xlink:href="#M"/><use x="1089.445" xlink:href="#i"/><use x="1153.068" xlink:href="#g"/><use x="1216.691" xlink:href="#N"/><use x="1248.479" xlink:href="#m"/><use x="1343.889" xlink:href="#q"/><use x="1407.365" xlink:href="#E"/><use x="1468.645" xlink:href="#O"/><use x="1527.824" xlink:href="#F"/><use x="1579.924" xlink:href="#P"/></g><path d="M79.22 324.897h20" fill="none" stroke="#ff7f0e" stroke-linecap="square" stroke-width="1.5"/><use fill="#ff7f0e" stroke="#ff7f0e" x="89.22" xlink:href="#v" y="324.897"/><g transform="matrix(.1 0 0 -.1 107.22 328.397)"><use xlink:href="#S"/><use x="74.805" xlink:href="#t"/><use x="136.328" xlink:href="#r"/><path d="M259.715 72.906h9.86V5.078q0-13.187-5-19.14-5-5.954-16.095-5.954h-3.75v8.297h3.079q6.53 0 9.218 3.672 2.688 3.656 2.688 13.125z"/><use x="279.395" xlink:href="#t"/><use x="340.918" xlink:href="#e"/><use x="382.031" xlink:href="#F"/><use x="434.131" xlink:href="#t"/><use x="495.654" xlink:href="#O"/><use x="586.621" xlink:href="#J"/><use x="625.635" xlink:href="#q"/><use x="689.111" xlink:href="#o"/><use x="750.293" xlink:href="#K"/><use x="813.672" xlink:href="#L"/><use x="877.148" xlink:href="#p"/><use x="904.932" xlink:href="#t"/><use x="966.455" xlink:href="#F"/><use x="1050.342" xlink:href="#s"/><use x="1078.125" xlink:href="#M"/><use x="1173.291" xlink:href="#i"/><use x="1236.914" xlink:href="#g"/><use x="1300.537" xlink:href="#N"/><use x="1332.324" xlink:href="#i"/><use x="1427.734" xlink:href="#q"/><use x="1491.211" xlink:href="#E"/><use x="1552.49" xlink:href="#O"/><use x="1611.67" xlink:href="#F"/><use x="1663.77" xlink:href="#P"/></g><path d="M79.22 339.575h20" fill="none" stroke="#2ca02c" stroke-linecap="square" stroke-width="1.5"/><g transform="matrix(.1 0 0 -.1 107.22 343.075)"><use xlink:href="#T"/><use x="86.279" xlink:href="#s"/><use x="114.063" xlink:href="#y"/><use x="169.043" xlink:href="#U"/><use x="232.422" xlink:href="#s"/><path d="M305.611 27.984q0 9.766-4.03 15.125-4.017 5.375-11.298 5.375-7.219 0-11.25-5.375-4.031-5.359-4.031-15.125 0-9.718 4.031-15.093t11.25-5.375q7.281 0 11.297 5.375 4.031 5.375 4.031 15.093zm8.985-21.203q0-13.953-6.203-20.765-6.188-6.813-18.985-6.813-4.734 0-8.937.703-4.203.703-8.157 2.172v8.735q3.954-2.141 7.813-3.157 3.86-1.031 7.86-1.031 8.843 0 13.234 4.61 4.39 4.609 4.39 13.937v4.453q-2.78-4.844-7.125-7.234Q294.143 0 288.08 0q-10.047 0-16.203 7.656-6.156 7.672-6.156 20.328 0 12.688 6.156 20.344Q278.033 56 288.08 56q6.063 0 10.406-2.39 4.344-2.391 7.125-7.22v8.297h8.985z"/><use x="323.682" xlink:href="#E"/><use x="384.961" xlink:href="#M"/><use x="480.127" xlink:href="#J"/><use x="519.141" xlink:href="#q"/><use x="582.617" xlink:href="#o"/><use x="643.799" xlink:href="#K"/><use x="707.178" xlink:href="#L"/><use x="770.654" xlink:href="#p"/><use x="798.438" xlink:href="#t"/><use x="859.961" xlink:href="#F"/><use x="943.848" xlink:href="#s"/><use x="971.631" xlink:href="#M"/><use x="1066.797" xlink:href="#i"/><use x="1130.42" xlink:href="#g"/><use x="1194.043" xlink:href="#N"/><use x="1225.83" xlink:href="#m"/><use x="1321.24" xlink:href="#q"/><use x="1384.717" xlink:href="#E"/><use x="1445.996" xlink:href="#O"/><use x="1505.176" xlink:href="#F"/><use x="1557.275" xlink:href="#P"/></g><path d="M79.22 354.253h20" fill="none" stroke="#d62728" stroke-linecap="square" stroke-width="1.5"/><use fill="#d62728" stroke="#d62728" x="89.22" xlink:href="#w" y="354.253"/><g transform="matrix(.1 0 0 -.1 107.22 357.753)"><use xlink:href="#A"/><use x="69.824" xlink:href="#E"/><use x="131.104" xlink:href="#p"/><use x="158.887" xlink:href="#s"/><use x="186.67" xlink:href="#G"/><use x="221.875" xlink:href="#o"/><use x="283.057" xlink:href="#e"/><use x="324.154" xlink:href="#M"/><use x="387.533" xlink:href="#s"/><use x="415.316" xlink:href="#E"/><use x="508.383" xlink:href="#J"/><use x="547.396" xlink:href="#q"/><use x="610.873" xlink:href="#o"/><use x="672.055" xlink:href="#K"/><use x="735.434" xlink:href="#L"/><use x="798.91" xlink:href="#p"/><use x="826.693" xlink:href="#t"/><use x="888.217" xlink:href="#F"/><use x="972.104" xlink:href="#s"/><use x="999.887" xlink:href="#M"/><use x="1095.053" xlink:href="#i"/><use x="1158.676" xlink:href="#g"/><use x="1222.299" xlink:href="#N"/><path d="M1285.867 34.625q-7.031 0-11.062-3.766-4.016-3.765-4.016-10.343 0-6.594 4.016-10.36 4.03-3.765 11.062-3.765 7.031 0 11.078 3.78 4.063 3.798 4.063 10.345 0 6.578-4.031 10.343-4.016 3.766-11.11 3.766zm-9.86 4.188q-6.343 1.562-9.89 5.906-3.531 4.36-3.531 10.61 0 8.733 6.219 13.812 6.234 5.078 17.062 5.078 10.89 0 17.094-5.078 6.203-5.079 6.203-13.813 0-6.25-3.547-10.61-3.531-4.343-9.828-5.906 7.125-1.656 11.094-6.5 3.984-4.828 3.984-11.796 0-10.61-6.469-16.282-6.468-5.656-18.53-5.656-12.048 0-18.532 5.656-6.469 5.672-6.469 16.282 0 6.968 4 11.797 4.016 4.843 11.14 6.5zm-3.609 15.578q0-5.657 3.532-8.828 3.547-3.172 9.937-3.172 6.36 0 9.938 3.172 3.593 3.171 3.593 8.828 0 5.672-3.593 8.843-3.578 3.172-9.938 3.172-6.39 0-9.937-3.172-3.532-3.172-3.532-8.843z"/><use x="1349.496" xlink:href="#q"/><use x="1412.973" xlink:href="#E"/><use x="1474.252" xlink:href="#O"/><use x="1533.432" xlink:href="#F"/><use x="1585.531" xlink:href="#P"/></g><path d="M79.22 368.93h20" fill="none" stroke="#9467bd" stroke-linecap="square" stroke-width="1.5"/><use fill="#9467bd" stroke="#9467bd" x="89.22" xlink:href="#x" y="368.931"/><g transform="matrix(.1 0 0 -.1 107.22 372.43)"><use xlink:href="#T"/><use x="86.279" xlink:href="#E"/><use x="147.559" xlink:href="#F"/><use x="199.658" xlink:href="#F"/><use x="251.758" xlink:href="#E"/><use x="313.037" xlink:href="#y"/><use x="368.018" xlink:href="#U"/><use x="431.396" xlink:href="#K"/><use x="494.775" xlink:href="#F"/><use x="546.875" xlink:href="#t"/><use x="608.398" xlink:href="#z"/><use x="647.607" xlink:href="#z"/><use x="686.816" xlink:href="#F"/><use x="770.703" xlink:href="#J"/><use x="809.717" xlink:href="#q"/><use x="873.193" xlink:href="#o"/><use x="934.375" xlink:href="#K"/><use x="997.754" xlink:href="#L"/><use x="1061.23" xlink:href="#p"/><use x="1089.014" xlink:href="#t"/><use x="1150.537" xlink:href="#F"/><use x="1234.424" xlink:href="#s"/><use x="1262.207" xlink:href="#M"/><use x="1357.373" xlink:href="#j"/><use x="1420.996" xlink:href="#N"/><use x="1452.783" xlink:href="#j"/><use x="1548.193" xlink:href="#q"/><use x="1611.67" xlink:href="#E"/><use x="1672.949" xlink:href="#O"/><use x="1732.129" xlink:href="#F"/><use x="1784.229" xlink:href="#P"/></g></g></g></svg>