<svg height="758.4" stroke-linejoin="round" viewBox="0 0 568.8 568.8" width="758.4" xmlns="http://www.w3.org/2000/svg" xmlns:xlink="http://www.w3.org/1999/xlink"><defs><path id="x" d="M4.203 54.688h8.985l11.234-42.672 11.172 42.672h10.593l11.235-42.672 11.187 42.672h8.985L63.28 0H52.688L40.922 44.828 29.109 0H18.5z" stroke-linejoin="round"/><path id="V" d="M31.781 34.625q-7.031 0-11.062-3.766-4.016-3.765-4.016-10.343 0-6.594 4.016-10.36Q24.75 6.391 31.78 6.391q7.032 0 11.078 3.78 4.063 3.798 4.063 10.345 0 6.578-4.031 10.343-4.016 3.766-11.11 3.766zm-9.86 4.188q-6.343 1.562-9.89 5.906Q8.5 49.079 8.5 55.329q0 8.733 6.219 13.812 6.234 5.078 17.062 5.078 10.89 0 17.094-5.078 6.203-5.079 6.203-13.813 0-6.25-3.547-10.61-3.531-4.343-9.828-5.906 7.125-1.656 11.094-6.5 3.984-4.828 3.984-11.796 0-10.61-6.468-16.282-6.47-5.656-18.532-5.656-12.047 0-18.531 5.656-6.469 5.672-6.469 16.282 0 6.968 4 11.797 4.016 4.843 11.14 6.5zM18.314 54.39q0-5.657 3.53-8.828 3.548-3.172 9.938-3.172 6.36 0 9.938 3.172 3.593 3.171 3.593 8.828 0 5.672-3.593 8.843-3.578 3.172-9.938 3.172-6.39 0-9.937-3.172-3.532-3.172-3.532-8.843z" stroke-linejoin="round"/><path id="b" d="M0 0v3.5" stroke="#000" stroke-linejoin="round" stroke-width=".8"/><path id="c" d="M9.813 72.906h14.703l18.593-49.61 18.703 49.61h14.704V0H66.89v64.016l-18.797-50h-9.907l-18.796 50V0H9.813z" stroke-linejoin="round"/><path id="d" d="M34.281 27.484q-10.89 0-15.093-2.484-4.204-2.484-4.204-8.5 0-4.781 3.157-7.594 3.156-2.797 8.562-2.797 7.485 0 12 5.297 4.516 5.297 4.516 14.078v2zm17.922 3.72V0H43.22v8.297Q40.14 3.328 35.547.953q-4.594-2.375-11.234-2.375-8.391 0-13.36 4.719Q6 8.016 6 15.922q0 9.219 6.172 13.906 6.187 4.688 18.437 4.688h12.61v.89q0 6.203-4.078 9.594-4.078 3.39-11.453 3.39-4.688 0-9.141-1.124-4.438-1.125-8.531-3.375v8.312q4.921 1.906 9.562 2.844 4.64.953 9.031.953 11.875 0 17.735-6.156 5.86-6.14 5.86-18.64z" stroke-linejoin="round"/><path id="e" d="M41.11 46.297q-1.516.875-3.297 1.281Q36.03 48 33.89 48q-7.625 0-11.703-4.953-4.079-4.953-4.079-14.234V0H9.08v54.688h9.03v-8.5q2.844 4.984 7.375 7.39Q30.031 56 36.531 56q.922 0 2.047-.125 1.125-.11 2.484-.36z" stroke-linejoin="round"/><path id="f" d="M19.188 8.297h34.421V0H7.33v8.297q5.609 5.812 15.296 15.594 9.703 9.797 12.188 12.64 4.734 5.313 6.609 9 1.89 3.688 1.89 7.25 0 5.813-4.078 9.469-4.078 3.672-10.625 3.672-4.64 0-9.797-1.61-5.14-1.609-11-4.89v9.969Q13.767 71.78 18.938 73q5.188 1.219 9.485 1.219 11.328 0 18.062-5.672 6.735-5.656 6.735-15.125 0-4.5-1.688-8.531-1.672-4.016-6.125-9.485-1.218-1.422-7.765-8.187-6.532-6.766-18.453-18.922z" stroke-linejoin="round"/><path id="g" d="M31.781 66.406q-7.61 0-11.453-7.5Q16.5 51.422 16.5 36.375q0-14.984 3.828-22.484 3.844-7.5 11.453-7.5 7.672 0 11.5 7.5 3.844 7.5 3.844 22.484 0 15.047-3.844 22.531-3.828 7.5-11.5 7.5zm0 7.813q12.266 0 18.735-9.703 6.468-9.688 6.468-28.141 0-18.406-6.468-28.11-6.47-9.687-18.735-9.687-12.25 0-18.718 9.688-6.47 9.703-6.47 28.109 0 18.453 6.47 28.14Q19.53 74.22 31.78 74.22z" stroke-linejoin="round"/><path id="h" d="M34.188 63.188L20.797 26.906h26.812zm-5.579 9.718h11.188L67.578 0h-10.25l-6.64 18.703h-32.86L11.188 0H.78z" stroke-linejoin="round"/><path id="i" d="M18.11 8.203v-29H9.077v75.484h9.031v-8.296q2.844 4.875 7.157 7.234Q29.594 56 35.594 56q9.968 0 16.187-7.906 6.235-7.907 6.235-20.797T51.78 6.484q-6.218-7.906-16.187-7.906-6 0-10.328 2.375-4.313 2.375-7.157 7.25zm30.578 19.094q0 9.906-4.079 15.547-4.078 5.64-11.203 5.64-7.14 0-11.218-5.64-4.079-5.64-4.079-15.547 0-9.906 4.078-15.547 4.079-5.64 11.22-5.64 7.124 0 11.202 5.64t4.078 15.547z" stroke-linejoin="round"/><path id="j" d="M32.172-5.078q-3.797-9.766-7.422-12.735-3.61-2.984-9.656-2.984H7.906v7.516h5.282q3.703 0 5.75 1.765Q21-9.766 23.483-3.219l1.61 4.094-22.11 53.813H12.5l17.094-42.766 17.093 42.766h9.516z" stroke-linejoin="round"/><path id="k" d="M0 0v2" stroke="#000" stroke-linejoin="round" stroke-width=".6"/><path id="l" d="M10.984 1.516V10.5q3.72-1.766 7.516-2.688 3.813-.921 7.484-.921 9.766 0 14.907 6.562 5.156 6.563 5.89 19.953-2.828-4.203-7.187-6.453-4.344-2.25-9.61-2.25-10.937 0-17.312 6.61-6.375 6.625-6.375 18.109 0 11.219 6.64 18 6.641 6.797 17.672 6.797 12.657 0 19.313-9.703 6.672-9.688 6.672-28.141 0-17.234-8.188-27.516Q40.234-1.42 26.422-1.42q-3.719 0-7.531.734-3.797.734-7.907 2.203zM30.61 32.422q6.641 0 10.516 4.531 3.89 4.547 3.89 12.469 0 7.86-3.89 12.422-3.875 4.562-10.516 4.562-6.64 0-10.515-4.562-3.875-4.563-3.875-12.422 0-7.922 3.875-12.469 3.875-4.531 10.515-4.531z" stroke-linejoin="round"/><path id="m" d="M12.406 8.297h16.11v55.625l-17.532-3.516v8.985l17.438 3.515h9.86V8.296H54.39V0H12.406z" stroke-linejoin="round"/><path id="n" d="M33.016 40.375q-6.641 0-10.532-4.547-3.875-4.531-3.875-12.437 0-7.86 3.875-12.438 3.891-4.562 10.532-4.562 6.64 0 10.515 4.562 3.875 4.578 3.875 12.438 0 7.906-3.875 12.437-3.875 4.547-10.515 4.547zm19.578 30.922v-8.984q-3.719 1.75-7.5 2.671-3.782.938-7.5.938-9.766 0-14.922-6.594-5.14-6.594-5.875-19.922 2.875 4.25 7.219 6.516 4.359 2.266 9.578 2.266 10.984 0 17.36-6.672 6.374-6.657 6.374-18.125 0-11.235-6.64-18.032-6.641-6.78-17.672-6.78-12.657 0-19.344 9.687-6.688 9.703-6.688 28.109 0 17.281 8.204 27.563 8.203 10.28 22.015 10.28 3.719 0 7.5-.734t7.89-2.187z" stroke-linejoin="round"/><path id="o" d="M40.578 39.313Q47.656 37.797 51.625 33q3.984-4.781 3.984-11.813 0-10.78-7.422-16.703-7.421-5.906-21.093-5.906-4.578 0-9.438.906-4.86.907-10.031 2.72v9.515q4.094-2.39 8.969-3.61 4.89-1.218 10.218-1.218 9.266 0 14.125 3.656 4.86 3.656 4.86 10.64 0 6.454-4.516 10.079-4.515 3.64-12.562 3.64h-8.5v8.11h8.89q7.266 0 11.125 2.906 3.86 2.906 3.86 8.375 0 5.61-3.985 8.61-3.968 3.015-11.39 3.015-4.063 0-8.703-.89-4.641-.876-10.203-2.72v8.782q5.624 1.562 10.53 2.344 4.907.78 9.25.78 11.235 0 17.766-5.109 6.547-5.093 6.547-13.78 0-6.063-3.468-10.235-3.47-4.172-9.86-5.782z" stroke-linejoin="round"/><path id="p" d="M8.203 72.906h46.875v-4.203L28.61 0H18.312L43.22 64.594H8.203z" stroke-linejoin="round"/><path id="q" d="M37.797 64.313L12.89 25.39h24.906zm-2.594 8.593H47.61V25.391h10.407v-8.203H47.609V0h-9.812v17.188H4.89v9.515z" stroke-linejoin="round"/><path id="r" d="M0 0h-3.5" stroke="#000" stroke-linejoin="round" stroke-width=".8"/><path id="s" d="M10.797 72.906h38.719v-8.312H19.828v-17.86q2.14.735 4.281 1.094 2.157.36 4.313.36 12.203 0 19.328-6.688 7.14-6.688 7.14-18.11 0-11.765-7.328-18.296-7.328-6.516-20.656-6.516-4.593 0-9.36.781-4.75.782-9.827 2.344v9.922q4.39-2.39 9.078-3.563 4.687-1.171 9.906-1.171 8.453 0 13.375 4.437 4.938 4.438 4.938 12.063 0 7.609-4.938 12.047-4.922 4.453-13.375 4.453-3.953 0-7.89-.875-3.922-.875-8.016-2.735z" stroke-linejoin="round"/><path id="t" d="M0 0h-2" stroke="#000" stroke-linejoin="round" stroke-width=".6"/><path id="u" d="M30.61 48.39q-7.22 0-11.422-5.64-4.204-5.64-4.204-15.453 0-9.813 4.172-15.453 4.188-5.64 11.453-5.64 7.188 0 11.375 5.655 4.203 5.672 4.203 15.438 0 9.719-4.203 15.406-4.187 5.688-11.375 5.688zm0 7.61q11.718 0 18.406-7.625 6.703-7.61 6.703-21.078 0-13.422-6.703-21.078-6.688-7.64-18.407-7.64-11.765 0-18.437 7.64-6.656 7.656-6.656 21.078 0 13.469 6.656 21.078Q18.844 56 30.609 56z" stroke-linejoin="round"/><path id="v" d="M9.422 75.984h8.984V0H9.422z" stroke-linejoin="round"/><path id="w" d="M45.406 46.39v29.594h8.985V0h-8.985v8.203Q42.578 3.328 38.25.953q-4.313-2.375-10.375-2.375-9.906 0-16.14 7.906-6.22 7.922-6.22 20.813 0 12.89 6.22 20.797Q17.968 56 27.874 56q6.063 0 10.375-2.375 4.328-2.36 7.156-7.234zm-30.61-19.093q0-9.906 4.079-15.547 4.078-5.64 11.203-5.64 7.125 0 11.219 5.64 4.11 5.64 4.11 15.547 0 9.906-4.11 15.547-4.094 5.64-11.219 5.64-7.125 0-11.203-5.64-4.078-5.64-4.078-15.547z" stroke-linejoin="round"/><path id="U" d="M9.813 72.906h13.28l32.329-60.984v60.984h9.562V0h-13.28L19.39 60.984V0H9.813z" stroke-linejoin="round"/><path id="y" d="M9.422 54.688h8.984V0H9.422zm0 21.296h8.984v-11.39H9.422z" stroke-linejoin="round"/><path id="z" d="M56.203 29.594v-4.39H14.891q.593-9.282 5.593-14.142 5-4.859 13.938-4.859 5.172 0 10.031 1.266 4.86 1.265 9.656 3.812v-8.5Q49.266.734 44.187-.344 39.11-1.422 33.892-1.422q-13.094 0-20.735 7.61-7.64 7.625-7.64 20.625 0 13.421 7.25 21.296Q20.016 56 32.328 56q11.031 0 17.453-7.11 6.422-7.093 6.422-19.296zm-8.984 2.64q-.094 7.36-4.125 11.75-4.032 4.407-10.672 4.407-7.516 0-12.031-4.25-4.516-4.25-5.203-11.97z" stroke-linejoin="round"/><path id="A" d="M-3 0h6M0 3v-6" stroke="#1f77b4" stroke-linejoin="round"/><path id="B" d="M0 1.5a1.5 1.5 0 100-3 1.5 1.5 0 000 3z" stroke="#ff7f0e" stroke-linejoin="round"/><path id="C" d="M-3 0h6M0 3v-6" stroke="#d62728" stroke-linejoin="round"/><path id="D" d="M0 1.5a1.5 1.5 0 100-3 1.5 1.5 0 000 3z" stroke="#9467bd" stroke-linejoin="round"/><path id="E" d="M48.781 52.594v-8.407q-3.812 2.11-7.64 3.157-3.828 1.047-7.735 1.047-8.75 0-13.593-5.547-4.829-5.532-4.829-15.547 0-10.016 4.829-15.563 4.843-5.53 13.593-5.53 3.907 0 7.735 1.046 3.828 1.047 7.64 3.156V2.094Q45.016.344 40.984-.531q-4.015-.89-8.562-.89-12.36 0-19.64 7.765-7.266 7.765-7.266 20.953 0 13.375 7.343 21.031Q20.22 56 33.016 56q4.14 0 8.093-.86 3.953-.843 7.672-2.546z" stroke-linejoin="round"/><path id="F" d="M18.313 70.219V54.688h18.5v-6.985h-18.5V18.016q0-6.688 1.828-8.594 1.828-1.906 7.453-1.906h9.218V0h-9.218q-10.407 0-14.36 3.875-3.953 3.89-3.953 14.14v29.688H2.687v6.984h6.594V70.22z" stroke-linejoin="round"/><path id="G" d="M64.406 67.281v-10.39q-4.984 4.64-10.625 6.922-5.64 2.296-11.984 2.296-12.5 0-19.14-7.64-6.641-7.64-6.641-22.094 0-14.406 6.64-22.047 6.64-7.64 19.14-7.64 6.345 0 11.985 2.296 5.64 2.297 10.625 6.938V5.609Q59.234 2.094 53.437.33q-5.78-1.75-12.218-1.75-16.563 0-26.094 10.124-9.516 10.14-9.516 27.672 0 17.578 9.516 27.703 9.531 10.14 26.094 10.14 6.531 0 12.312-1.734 5.797-1.734 10.875-5.203z" stroke-linejoin="round"/><path id="H" d="M9.813 72.906h9.859V0h-9.86z" stroke-linejoin="round"/><path id="I" d="M4.89 31.39h26.313v-8H4.891z" stroke-linejoin="round"/><path id="J" d="M44.281 53.078v-8.5q-3.797 1.953-7.906 2.922-4.094.984-8.5.984-6.688 0-10.031-2.047-3.344-2.046-3.344-6.156 0-3.125 2.39-4.906 2.391-1.781 9.626-3.39l3.078-.688q9.562-2.047 13.593-5.781 4.032-3.735 4.032-10.422 0-7.625-6.032-12.078-6.03-4.438-16.578-4.438-4.39 0-9.156.86Q10.688.296 5.422 2v9.281q4.984-2.594 9.812-3.89 4.829-1.282 9.579-1.282 6.343 0 9.75 2.172 3.421 2.172 3.421 6.125 0 3.656-2.468 5.61-2.453 1.953-10.813 3.765l-3.125.735q-8.344 1.75-12.062 5.39-3.704 3.64-3.704 9.985 0 7.718 5.47 11.906Q16.75 56 26.811 56q4.97 0 9.36-.734 4.406-.72 8.11-2.188z" stroke-linejoin="round"/><path id="K" d="M37.11 75.984V68.5h-8.594q-4.828 0-6.72-1.953-1.874-1.953-1.874-7.031v-4.828h14.797v-6.985H19.922V0H10.89v47.703H2.297v6.984h8.594V58.5q0 9.125 4.25 13.297 4.25 4.187 13.468 4.187z" stroke-linejoin="round"/><path id="L" d="M8.688 72.906h9.921V28.61q0-11.718 4.235-16.875 4.25-5.14 13.781-5.14 9.469 0 13.719 5.14 4.25 5.157 4.25 16.875v44.297H64.5V27.391q0-14.25-7.063-21.532-7.046-7.28-20.812-7.28-13.828 0-20.89 7.28-7.047 7.282-7.047 21.532z" stroke-linejoin="round"/><path id="M" d="M53.516 70.516V60.89q-5.61 2.687-10.594 4-4.984 1.328-9.625 1.328-8.047 0-12.422-3.125t-4.375-8.89q0-4.845 2.906-7.313 2.907-2.453 11.016-3.97l5.953-1.218q11.031-2.11 16.281-7.406 5.25-5.297 5.25-14.172 0-10.61-7.11-16.078-7.093-5.469-20.812-5.469-5.172 0-11.015 1.172Q13.14.922 6.89 3.219v10.156q6-3.36 11.765-5.078 5.766-1.703 11.328-1.703 8.438 0 13.032 3.312 4.593 3.328 4.593 9.485 0 5.359-3.297 8.39-3.296 3.032-10.812 4.547L27.484 33.5q-11.03 2.188-15.968 6.875-4.922 4.688-4.922 13.047 0 9.672 6.812 15.234 6.813 5.563 18.766 5.563 5.14 0 10.453-.938 5.328-.922 10.89-2.765z" stroke-linejoin="round"/><path id="N" d="M31 75.875q-6.531-11.219-9.719-22.219-3.172-10.984-3.172-22.265 0-11.266 3.203-22.328Q24.517-2 31-13.188h-7.813Q15.875-1.704 12.235 9.375q-3.64 11.078-3.64 22.016 0 10.89 3.61 21.922 3.624 11.046 10.983 22.562z" stroke-linejoin="round"/><path id="O" d="M8.5 21.578v33.11h8.984V21.922q0-7.766 3.016-11.656 3.031-3.875 9.094-3.875 7.265 0 11.484 4.64 4.234 4.64 4.234 12.656v31h8.985V0h-8.984v8.406Q42.047 3.422 37.718 1q-4.313-2.422-10.032-2.422-9.421 0-14.312 5.86Q8.5 10.296 8.5 21.578z" stroke-linejoin="round"/><path id="P" d="M48.688 27.297q0 9.906-4.079 15.547-4.078 5.64-11.203 5.64-7.14 0-11.218-5.64-4.079-5.64-4.079-15.547 0-9.906 4.078-15.547 4.079-5.64 11.22-5.64 7.124 0 11.202 5.64t4.078 15.547zM18.108 46.39q2.844 4.875 7.157 7.234Q29.594 56 35.594 56q9.968 0 16.187-7.906 6.235-7.907 6.235-20.797T51.78 6.484q-6.218-7.906-16.187-7.906-6 0-10.328 2.375-4.313 2.375-7.157 7.25V0H9.08v75.984h9.03z" stroke-linejoin="round"/><path id="Q" d="M54.89 33.016V0h-8.984v32.719q0 7.765-3.031 11.61-3.031 3.858-9.078 3.858-7.281 0-11.484-4.64-4.204-4.625-4.204-12.64V0H9.08v54.688h9.03v-8.5q3.235 4.937 7.594 7.374Q30.078 56 35.797 56q9.422 0 14.25-5.828 4.844-5.828 4.844-17.156z" stroke-linejoin="round"/><path id="R" d="M10.688 12.406H21V0H10.687z" stroke-linejoin="round"/><path id="S" d="M8.016 75.875h7.812q7.313-11.516 10.953-22.563 3.64-11.03 3.64-21.921 0-10.938-3.64-22.016-3.64-11.078-10.953-22.563H8.016Q14.5-2 17.703 9.063q3.203 11.063 3.203 22.329 0 11.28-3.203 22.265-3.203 11-9.687 22.219z" stroke-linejoin="round"/><clipPath id="T" stroke-linejoin="round"><path d="M50.15 297.12H558v208.808H50.15z"/></clipPath><clipPath id="a" stroke-linejoin="round"><path d="M50.15 25.44H558v208.808H50.15z"/></clipPath></defs><path d="M0 568.8h568.8V0H0z" fill="#fff"/><path d="M50.15 234.248H558V25.44H50.15z" fill="#fff"/><path clip-path="url(#a)" d="M50.15 234.248V25.44" fill="none" stroke="#b0b0b0" stroke-linecap="square" stroke-width=".8"/><use stroke="#000" stroke-width=".8" x="50.15" xlink:href="#b" y="234.248"/><g transform="matrix(.1 0 0 -.1 40.717 271.242)"><use xlink:href="#c"/><use x="86.279" xlink:href="#d"/><use x="147.559" xlink:href="#e"/></g><g transform="matrix(.1 0 0 -.1 37.425 282.44)"><use xlink:href="#f"/><use x="63.623" xlink:href="#g"/><use x="127.246" xlink:href="#f"/><use x="190.869" xlink:href="#g"/></g><path clip-path="url(#a)" d="M281.67 234.248V25.44" fill="none" stroke="#b0b0b0" stroke-linecap="square" stroke-width=".8"/><use stroke="#000" stroke-width=".8" x="281.67" xlink:href="#b" y="234.248"/><g transform="matrix(.1 0 0 -.1 273.02 271.242)"><use xlink:href="#h"/><use x="68.408" xlink:href="#i"/><use x="131.885" xlink:href="#e"/></g><path clip-path="url(#a)" d="M505.721 234.248V25.44" fill="none" stroke="#b0b0b0" stroke-linecap="square" stroke-width=".8"/><use stroke="#000" stroke-width=".8" x="505.721" xlink:href="#b" y="234.248"/><g transform="matrix(.1 0 0 -.1 495.384 271.242)"><use xlink:href="#c"/><use x="86.279" xlink:href="#d"/><use x="147.559" xlink:href="#j"/></g><g stroke-width=".8"><path clip-path="url(#a)" d="M558 234.248V25.44" fill="none" stroke="#b0b0b0" stroke-linecap="square"/><use stroke="#000" x="558" xlink:href="#b" y="234.248"/></g><use stroke="#000" stroke-width=".6" x="57.619" xlink:href="#k" y="234.248"/><g transform="matrix(.1 0 0 -.1 51.256 247.246)"><use xlink:href="#g"/><use x="63.623" xlink:href="#f"/></g><g stroke="#000" stroke-width=".6"><use x="65.087" xlink:href="#k" y="234.248"/><use x="72.555" xlink:href="#k" y="234.248"/><use x="80.024" xlink:href="#k" y="234.248"/><use x="87.492" xlink:href="#k" y="234.248"/><use x="94.96" xlink:href="#k" y="234.248"/><use x="102.429" xlink:href="#k" y="234.248"/></g><use stroke="#000" stroke-width=".6" x="109.897" xlink:href="#k" y="234.248"/><g transform="matrix(.1 0 0 -.1 103.535 247.246)"><use xlink:href="#g"/><use x="63.623" xlink:href="#l"/></g><g stroke="#000" stroke-width=".6"><use x="117.366" xlink:href="#k" y="234.248"/><use x="124.834" xlink:href="#k" y="234.248"/><use x="132.302" xlink:href="#k" y="234.248"/><use x="139.771" xlink:href="#k" y="234.248"/><use x="147.239" xlink:href="#k" y="234.248"/><use x="154.708" xlink:href="#k" y="234.248"/><use x="162.176" xlink:href="#k" y="234.248"/></g><g transform="matrix(.1 0 0 -.1 155.813 247.246)"><use xlink:href="#m"/><use x="63.623" xlink:href="#n"/></g><g stroke="#000" stroke-width=".6"><use x="169.644" xlink:href="#k" y="234.248"/><use x="177.113" xlink:href="#k" y="234.248"/><use x="184.581" xlink:href="#k" y="234.248"/><use x="192.049" xlink:href="#k" y="234.248"/><use x="199.518" xlink:href="#k" y="234.248"/><use x="206.986" xlink:href="#k" y="234.248"/><use x="214.455" xlink:href="#k" y="234.248"/></g><g transform="matrix(.1 0 0 -.1 208.092 247.246)"><use xlink:href="#f"/><use x="63.623" xlink:href="#o"/></g><g stroke="#000" stroke-width=".6"><use x="221.923" xlink:href="#k" y="234.248"/><use x="229.391" xlink:href="#k" y="234.248"/><use x="236.86" xlink:href="#k" y="234.248"/><use x="244.328" xlink:href="#k" y="234.248"/><use x="251.796" xlink:href="#k" y="234.248"/><use x="259.265" xlink:href="#k" y="234.248"/><use x="266.733" xlink:href="#k" y="234.248"/></g><g transform="matrix(.1 0 0 -.1 260.37 247.246)"><use xlink:href="#o"/><use x="63.623" xlink:href="#g"/></g><g stroke="#000" stroke-width=".6"><use x="274.202" xlink:href="#k" y="234.248"/><use x="289.138" xlink:href="#k" y="234.248"/><use x="296.607" xlink:href="#k" y="234.248"/><use x="304.075" xlink:href="#k" y="234.248"/><use x="311.543" xlink:href="#k" y="234.248"/><use x="319.012" xlink:href="#k" y="234.248"/></g><g transform="matrix(.1 0 0 -.1 312.65 247.246)"><use xlink:href="#g"/><use x="63.623" xlink:href="#n"/></g><g stroke="#000" stroke-width=".6"><use x="326.48" xlink:href="#k" y="234.248"/><use x="333.949" xlink:href="#k" y="234.248"/><use x="341.417" xlink:href="#k" y="234.248"/><use x="348.885" xlink:href="#k" y="234.248"/><use x="356.354" xlink:href="#k" y="234.248"/><use x="363.822" xlink:href="#k" y="234.248"/><use x="371.291" xlink:href="#k" y="234.248"/></g><g transform="matrix(.1 0 0 -.1 364.928 247.246)"><use xlink:href="#m"/><use x="63.623" xlink:href="#o"/></g><g stroke="#000" stroke-width=".6"><use x="378.759" xlink:href="#k" y="234.248"/><use x="386.227" xlink:href="#k" y="234.248"/><use x="393.696" xlink:href="#k" y="234.248"/><use x="401.164" xlink:href="#k" y="234.248"/><use x="408.632" xlink:href="#k" y="234.248"/><use x="416.101" xlink:href="#k" y="234.248"/><use x="423.569" xlink:href="#k" y="234.248"/></g><g transform="matrix(.1 0 0 -.1 417.207 247.246)"><use xlink:href="#f"/><use x="63.623" xlink:href="#g"/></g><g stroke="#000" stroke-width=".6"><use x="431.038" xlink:href="#k" y="234.248"/><use x="438.506" xlink:href="#k" y="234.248"/><use x="445.974" xlink:href="#k" y="234.248"/><use x="453.443" xlink:href="#k" y="234.248"/><use x="460.911" xlink:href="#k" y="234.248"/><use x="468.379" xlink:href="#k" y="234.248"/><use x="475.848" xlink:href="#k" y="234.248"/></g><g transform="matrix(.1 0 0 -.1 469.485 247.246)"><use xlink:href="#f"/><use x="63.623" xlink:href="#p"/></g><g stroke="#000" stroke-width=".6"><use x="483.316" xlink:href="#k" y="234.248"/><use x="490.785" xlink:href="#k" y="234.248"/><use x="498.253" xlink:href="#k" y="234.248"/><use x="513.19" xlink:href="#k" y="234.248"/><use x="520.658" xlink:href="#k" y="234.248"/><use x="528.126" xlink:href="#k" y="234.248"/></g><g transform="matrix(.1 0 0 -.1 521.764 247.246)"><use xlink:href="#g"/><use x="63.623" xlink:href="#q"/></g><g stroke="#000" stroke-width=".6"><use x="535.595" xlink:href="#k" y="234.248"/><use x="543.063" xlink:href="#k" y="234.248"/><use x="550.532" xlink:href="#k" y="234.248"/></g><path clip-path="url(#a)" d="M50.15 234.248H558" fill="none" stroke="#b0b0b0" stroke-linecap="square" stroke-width=".8"/><use stroke="#000" stroke-width=".8" x="50.15" xlink:href="#r" y="234.248"/><g transform="matrix(.1 0 0 -.1 25.55 238.047)"><use transform="translate(0 .684)" xlink:href="#m"/><use transform="translate(63.623 .684)" xlink:href="#g"/><use transform="matrix(.7 0 0 .7 128.203 38.966)" xlink:href="#m"/></g><path clip-path="url(#a)" d="M50.15 194.846H558" fill="none" stroke="#b0b0b0" stroke-linecap="square" stroke-width=".8"/><use stroke="#000" stroke-width=".8" x="50.15" xlink:href="#r" y="194.846"/><g transform="matrix(.1 0 0 -.1 25.55 198.645)"><use transform="translate(0 .766)" xlink:href="#m"/><use transform="translate(63.623 .766)" xlink:href="#g"/><use transform="matrix(.7 0 0 .7 128.203 39.047)" xlink:href="#f"/></g><path clip-path="url(#a)" d="M50.15 155.443H558" fill="none" stroke="#b0b0b0" stroke-linecap="square" stroke-width=".8"/><use stroke="#000" stroke-width=".8" x="50.15" xlink:href="#r" y="155.443"/><g transform="matrix(.1 0 0 -.1 25.55 159.242)"><use transform="translate(0 .766)" xlink:href="#m"/><use transform="translate(63.623 .766)" xlink:href="#g"/><use transform="matrix(.7 0 0 .7 128.203 39.047)" xlink:href="#o"/></g><path clip-path="url(#a)" d="M50.15 116.04H558" fill="none" stroke="#b0b0b0" stroke-linecap="square" stroke-width=".8"/><use stroke="#000" stroke-width=".8" x="50.15" xlink:href="#r" y="116.041"/><g transform="matrix(.1 0 0 -.1 25.55 119.84)"><use transform="translate(0 .684)" xlink:href="#m"/><use transform="translate(63.623 .684)" xlink:href="#g"/><use transform="matrix(.7 0 0 .7 128.203 38.966)" xlink:href="#q"/></g><path clip-path="url(#a)" d="M50.15 76.638H558" fill="none" stroke="#b0b0b0" stroke-linecap="square" stroke-width=".8"/><use stroke="#000" stroke-width=".8" x="50.15" xlink:href="#r" y="76.638"/><g transform="matrix(.1 0 0 -.1 25.55 80.437)"><use transform="translate(0 .684)" xlink:href="#m"/><use transform="translate(63.623 .684)" xlink:href="#g"/><use transform="matrix(.7 0 0 .7 128.203 38.966)" xlink:href="#s"/></g><path clip-path="url(#a)" d="M50.15 37.236H558" fill="none" stroke="#b0b0b0" stroke-linecap="square" stroke-width=".8"/><use stroke="#000" stroke-width=".8" x="50.15" xlink:href="#r" y="37.236"/><g transform="matrix(.1 0 0 -.1 25.55 41.035)"><use transform="translate(0 .766)" xlink:href="#m"/><use transform="translate(63.623 .766)" xlink:href="#g"/><use transform="matrix(.7 0 0 .7 128.203 39.047)" xlink:href="#n"/></g><g stroke="#000" stroke-width=".6"><use x="50.15" xlink:href="#t" y="222.387"/><use x="50.15" xlink:href="#t" y="215.448"/><use x="50.15" xlink:href="#t" y="210.525"/><use x="50.15" xlink:href="#t" y="206.707"/><use x="50.15" xlink:href="#t" y="203.587"/><use x="50.15" xlink:href="#t" y="200.949"/><use x="50.15" xlink:href="#t" y="198.664"/><use x="50.15" xlink:href="#t" y="196.648"/><use x="50.15" xlink:href="#t" y="182.984"/><use x="50.15" xlink:href="#t" y="176.046"/><use x="50.15" xlink:href="#t" y="171.123"/><use x="50.15" xlink:href="#t" y="167.304"/><use x="50.15" xlink:href="#t" y="164.184"/><use x="50.15" xlink:href="#t" y="161.547"/><use x="50.15" xlink:href="#t" y="159.262"/><use x="50.15" xlink:href="#t" y="157.246"/><use x="50.15" xlink:href="#t" y="143.582"/><use x="50.15" xlink:href="#t" y="136.643"/><use x="50.15" xlink:href="#t" y="131.72"/><use x="50.15" xlink:href="#t" y="127.902"/><use x="50.15" xlink:href="#t" y="124.782"/><use x="50.15" xlink:href="#t" y="122.144"/><use x="50.15" xlink:href="#t" y="119.859"/><use x="50.15" xlink:href="#t" y="117.843"/><use x="50.15" xlink:href="#t" y="104.179"/><use x="50.15" xlink:href="#t" y="97.241"/><use x="50.15" xlink:href="#t" y="92.318"/><use x="50.15" xlink:href="#t" y="88.499"/><use x="50.15" xlink:href="#t" y="85.379"/><use x="50.15" xlink:href="#t" y="82.742"/><use x="50.15" xlink:href="#t" y="80.457"/><use x="50.15" xlink:href="#t" y="78.441"/><use x="50.15" xlink:href="#t" y="64.777"/><use x="50.15" xlink:href="#t" y="57.838"/><use x="50.15" xlink:href="#t" y="52.915"/><use x="50.15" xlink:href="#t" y="49.097"/><use x="50.15" xlink:href="#t" y="45.977"/><use x="50.15" xlink:href="#t" y="43.339"/><use x="50.15" xlink:href="#t" y="41.054"/><use x="50.15" xlink:href="#t" y="39.039"/></g><g transform="matrix(0 -.1 -.1 0 19.47 156.19)"><path d="M3.328 72.906h9.953L28.61 11.281l15.282 61.625h11.093l15.328-61.625 15.282 61.625h10.015L77.297 0H64.89L49.516 63.281 33.984 0H21.578z"/><use x="98.799" xlink:href="#u"/><use x="159.98" xlink:href="#e"/><use x="201.094" xlink:href="#v"/><use x="228.877" xlink:href="#w"/><use x="292.354" xlink:href="#x"/><use x="374.141" xlink:href="#y"/><use x="401.924" xlink:href="#w"/><use x="465.4" xlink:href="#z"/></g><g stroke="#1f77b4"><path clip-path="url(#a)" d="M-1 214.233l6.34-6.828 7.468.36 7.469-2.055 7.468-.32 7.468-.314 7.469-2.05 7.468-1.58 7.469-4.413 7.468-3.345 7.468-3.85 7.469-6.94 7.468-4.138 7.468-7.291 7.469-4.436 7.468-2.12 7.469-8.099 7.468-5.01 7.468-4.521 7.469-4.698 7.468-3.883 7.469-4.32 7.468-4.79 7.468-5.634 7.469-3.135 7.468-9.755 7.468-5.748 7.469-4.984 7.468-4.943 7.469-4.357 7.468-3.43 7.468-3.458 7.469-4.103 7.468-3.27 7.468-3.022 7.469-2.349 7.468-2.067 7.469-2.496 7.468-2.076 7.468-2.28 7.469-2.118 7.468-1.699 7.468-1.391 7.469-1.393 7.468-1.248 7.469-1.322 7.468-1.215 7.468-1.167 7.469-.945 7.468-.9 7.469-.45 7.468-.668 7.468-.687 7.469-.73 7.468-.7 7.468-.674 7.469-.52 7.468-.567 7.469-.56 7.468-.584 7.468-.536 7.469-.35 7.468-.662 7.468-.428 7.469-.35 7.468-.367 7.469-.402 7.468.115 7.468-.437 7.469-.315 7.468-.37 7.468-.262 7.469-.352" fill="none" stroke-linecap="square" stroke-width="1.5"/><g clip-path="url(#a)" fill="#1f77b4"><use x="-1" xlink:href="#A" y="214.233"/><use x="5.34" xlink:href="#A" y="207.405"/><use x="12.808" xlink:href="#A" y="207.766"/><use x="20.277" xlink:href="#A" y="205.71"/><use x="27.745" xlink:href="#A" y="205.39"/><use x="35.213" xlink:href="#A" y="205.076"/><use x="42.682" xlink:href="#A" y="203.026"/><use x="50.15" xlink:href="#A" y="201.445"/><use x="57.619" xlink:href="#A" y="197.033"/><use x="65.087" xlink:href="#A" y="193.688"/><use x="72.555" xlink:href="#A" y="189.837"/><use x="80.024" xlink:href="#A" y="182.899"/><use x="87.492" xlink:href="#A" y="178.76"/><use x="94.96" xlink:href="#A" y="171.469"/><use x="102.429" xlink:href="#A" y="167.033"/><use x="109.897" xlink:href="#A" y="164.913"/><use x="117.366" xlink:href="#A" y="156.814"/><use x="124.834" xlink:href="#A" y="151.803"/><use x="132.302" xlink:href="#A" y="147.283"/><use x="139.771" xlink:href="#A" y="142.585"/><use x="147.239" xlink:href="#A" y="138.702"/><use x="154.708" xlink:href="#A" y="134.381"/><use x="162.176" xlink:href="#A" y="129.591"/><use x="169.644" xlink:href="#A" y="123.958"/><use x="177.113" xlink:href="#A" y="120.823"/><use x="184.581" xlink:href="#A" y="111.068"/><use x="192.049" xlink:href="#A" y="105.32"/><use x="199.518" xlink:href="#A" y="100.336"/><use x="206.986" xlink:href="#A" y="95.393"/><use x="214.455" xlink:href="#A" y="91.036"/><use x="221.923" xlink:href="#A" y="87.605"/><use x="229.391" xlink:href="#A" y="84.148"/><use x="236.86" xlink:href="#A" y="80.045"/><use x="244.328" xlink:href="#A" y="76.774"/><use x="251.796" xlink:href="#A" y="73.753"/><use x="259.265" xlink:href="#A" y="71.404"/><use x="266.733" xlink:href="#A" y="69.337"/><use x="274.202" xlink:href="#A" y="66.841"/><use x="281.67" xlink:href="#A" y="64.765"/><use x="289.138" xlink:href="#A" y="62.484"/><use x="296.607" xlink:href="#A" y="60.367"/><use x="304.075" xlink:href="#A" y="58.668"/><use x="311.543" xlink:href="#A" y="57.277"/><use x="319.012" xlink:href="#A" y="55.884"/><use x="326.48" xlink:href="#A" y="54.636"/><use x="333.949" xlink:href="#A" y="53.314"/><use x="341.417" xlink:href="#A" y="52.099"/><use x="348.885" xlink:href="#A" y="50.932"/><use x="356.354" xlink:href="#A" y="49.987"/><use x="363.822" xlink:href="#A" y="49.086"/><use x="371.291" xlink:href="#A" y="48.637"/><use x="378.759" xlink:href="#A" y="47.969"/><use x="386.227" xlink:href="#A" y="47.282"/><use x="393.696" xlink:href="#A" y="46.552"/><use x="401.164" xlink:href="#A" y="45.852"/><use x="408.632" xlink:href="#A" y="45.178"/><use x="416.101" xlink:href="#A" y="44.658"/><use x="423.569" xlink:href="#A" y="44.091"/><use x="431.038" xlink:href="#A" y="43.53"/><use x="438.506" xlink:href="#A" y="42.947"/><use x="445.974" xlink:href="#A" y="42.411"/><use x="453.443" xlink:href="#A" y="42.061"/><use x="460.911" xlink:href="#A" y="41.399"/><use x="468.379" xlink:href="#A" y="40.971"/><use x="475.848" xlink:href="#A" y="40.621"/><use x="483.316" xlink:href="#A" y="40.254"/><use x="490.785" xlink:href="#A" y="39.852"/><use x="498.253" xlink:href="#A" y="39.967"/><use x="505.721" xlink:href="#A" y="39.53"/><use x="513.19" xlink:href="#A" y="39.215"/><use x="520.658" xlink:href="#A" y="38.846"/><use x="528.126" xlink:href="#A" y="38.583"/><use x="535.595" xlink:href="#A" y="38.231"/></g></g><g stroke="#ff7f0e"><path clip-path="url(#a)" d="M-1 269.49l6.34-23.38H20.277l7.468-5.758 7.468-9.224 7.469-3.818 7.468-10.681 7.469-2.285 7.468-5.056 7.468-9.97 7.469-5.47 7.468-6.28 7.468-3.342 7.469-5.197 7.468-2.926 7.469-3.082 7.468-3.215h7.468l7.469-9.98 7.468-6.06 7.469-.016 7.468-4.946 7.468-3.897 7.469-5.164 7.468-.055 7.468-6.95 7.469-4.016 7.468-2.023 7.469-2.616 7.468-3.348 7.468-2.956 7.469-3.497 7.468-3.794 7.468-2.64 7.469-2.24 7.468-2.158 7.469-2.037 7.468-2.577 7.468-2.187 7.469-1.982 7.468-1.445 7.468-2.246 7.469-1.274 7.468-1.014 7.469-1.511 7.468-1.075 7.468-2.104 7.469-1.1 7.468-1.096 7.469-.894 7.468-.956 7.468-.777 7.469-.736 7.468-.881 7.468-.817 7.469-.88 7.468-.676 7.469-.51 7.468-.548 7.468-.572 7.469-.646 7.468-.55 7.468-.532 7.469-.499 7.468-.422 7.469.046 7.468-.646 7.468-.63 7.469-.471 7.468-.44 7.468-.394 7.469-.387" fill="none" stroke-linecap="square" stroke-width="1.5"/><g clip-path="url(#a)" fill="#ff7f0e"><use x="-1" xlink:href="#B" y="269.489"/><use x="5.34" xlink:href="#B" y="246.109"/><use x="12.808" xlink:href="#B" y="246.109"/><use x="20.277" xlink:href="#B" y="246.109"/><use x="27.745" xlink:href="#B" y="240.352"/><use x="35.213" xlink:href="#B" y="231.128"/><use x="42.682" xlink:href="#B" y="227.31"/><use x="50.15" xlink:href="#B" y="216.629"/><use x="57.619" xlink:href="#B" y="214.344"/><use x="65.087" xlink:href="#B" y="209.288"/><use x="72.555" xlink:href="#B" y="199.318"/><use x="80.024" xlink:href="#B" y="193.848"/><use x="87.492" xlink:href="#B" y="187.568"/><use x="94.96" xlink:href="#B" y="184.226"/><use x="102.429" xlink:href="#B" y="179.029"/><use x="109.897" xlink:href="#B" y="176.103"/><use x="117.366" xlink:href="#B" y="173.021"/><use x="124.834" xlink:href="#B" y="169.806"/><use x="132.302" xlink:href="#B" y="169.806"/><use x="139.771" xlink:href="#B" y="159.827"/><use x="147.239" xlink:href="#B" y="153.765"/><use x="154.708" xlink:href="#B" y="153.75"/><use x="162.176" xlink:href="#B" y="148.804"/><use x="169.644" xlink:href="#B" y="144.907"/><use x="177.113" xlink:href="#B" y="139.743"/><use x="184.581" xlink:href="#B" y="139.688"/><use x="192.049" xlink:href="#B" y="132.738"/><use x="199.518" xlink:href="#B" y="128.722"/><use x="206.986" xlink:href="#B" y="126.699"/><use x="214.455" xlink:href="#B" y="124.083"/><use x="221.923" xlink:href="#B" y="120.735"/><use x="229.391" xlink:href="#B" y="117.779"/><use x="236.86" xlink:href="#B" y="114.282"/><use x="244.328" xlink:href="#B" y="110.488"/><use x="251.796" xlink:href="#B" y="107.849"/><use x="259.265" xlink:href="#B" y="105.608"/><use x="266.733" xlink:href="#B" y="103.45"/><use x="274.202" xlink:href="#B" y="101.413"/><use x="281.67" xlink:href="#B" y="98.836"/><use x="289.138" xlink:href="#B" y="96.649"/><use x="296.607" xlink:href="#B" y="94.667"/><use x="304.075" xlink:href="#B" y="93.222"/><use x="311.543" xlink:href="#B" y="90.976"/><use x="319.012" xlink:href="#B" y="89.702"/><use x="326.48" xlink:href="#B" y="88.688"/><use x="333.949" xlink:href="#B" y="87.177"/><use x="341.417" xlink:href="#B" y="86.102"/><use x="348.885" xlink:href="#B" y="83.998"/><use x="356.354" xlink:href="#B" y="82.899"/><use x="363.822" xlink:href="#B" y="81.802"/><use x="371.291" xlink:href="#B" y="80.908"/><use x="378.759" xlink:href="#B" y="79.952"/><use x="386.227" xlink:href="#B" y="79.175"/><use x="393.696" xlink:href="#B" y="78.439"/><use x="401.164" xlink:href="#B" y="77.558"/><use x="408.632" xlink:href="#B" y="76.741"/><use x="416.101" xlink:href="#B" y="75.862"/><use x="423.569" xlink:href="#B" y="75.185"/><use x="431.038" xlink:href="#B" y="74.675"/><use x="438.506" xlink:href="#B" y="74.127"/><use x="445.974" xlink:href="#B" y="73.555"/><use x="453.443" xlink:href="#B" y="72.909"/><use x="460.911" xlink:href="#B" y="72.358"/><use x="468.379" xlink:href="#B" y="71.827"/><use x="475.848" xlink:href="#B" y="71.328"/><use x="483.316" xlink:href="#B" y="70.906"/><use x="490.785" xlink:href="#B" y="70.952"/><use x="498.253" xlink:href="#B" y="70.306"/><use x="505.721" xlink:href="#B" y="69.676"/><use x="513.19" xlink:href="#B" y="69.205"/><use x="520.658" xlink:href="#B" y="68.765"/><use x="528.126" xlink:href="#B" y="68.371"/><use x="535.595" xlink:href="#B" y="67.984"/></g></g><path clip-path="url(#a)" d="M-1 186.905l6.34-5.63 7.468-5.845 7.469-5.86 7.468-5.185 7.468-5.567 7.469-4.259 7.468-6.911 7.469-2.593 7.468-3.587 7.468-3.06 7.469-3.375 7.468-2.95 7.468-4.389 7.469-3.982 7.468-3.82 7.469-1.652 7.468-3.18h7.468l7.469-5.906 7.468-2.933 7.469-2.55 7.468-1.938 7.468-2.084 7.469-1.656 7.468-2.481 7.468-2.562 7.469-1.742 7.468-1.517 7.469-1.334 7.468-1.184 7.468-1.072 7.469-1.286 7.468-1.174 7.468-.915 7.469-.908 7.468-.377 7.469-.471 7.468-.635 7.468-.519 7.469-.475 7.468-.569 7.468-.566 7.469-.36 7.468-.161 7.469-.216 7.468-.288 7.468-.245 7.469-.344 7.468-.335 7.469-.227 7.468-.11 7.468-.185 7.469-.192 7.468-.057 7.468-.129 7.469-.077 7.468.004 7.469.083 7.468.002 7.468.136 7.469.051 7.468.11 7.468-.042 7.469.047 7.468.099 7.469.09 7.468.515 7.468.102 7.469.041 7.468.09 7.468.033 7.469.261" fill="none" stroke="#2ca02c" stroke-linecap="square" stroke-width="1.5"/><g stroke="#d62728"><path clip-path="url(#a)" d="M-1 240.352h6.34l7.468 21.437 7.469-15.68 7.468-27.54 7.468-9.675 7.469-11.468 7.468-5.12 7.469-7.134 7.468-1.129 7.468-6.13 7.469-4.94 7.468-9.678 7.468-6.536 7.469-2.869 7.468-1.25 7.469-6.665 7.468-4.21h7.468l7.469-8.127 7.468-3.459 7.469-.128 7.468-6.612 7.468-2.528 7.469-2.86 7.468-3.058 7.468-2.313 7.469-2.069 7.468.502 7.469-4.207 7.468-1.143 7.468-1.89 7.469-2.01 7.468-1.974 7.468-2.685 7.469-.453 7.468-1.74 7.469-2.6 7.468-1.192 7.468.27 7.469-1.014 7.468-7.162 7.468-.407 7.469-.79 7.468-1.702 7.469-.3 7.468-.316 7.468-.879 7.469-.518 7.468-.297 7.469-.568 7.468 1.58 7.468.118 7.469-1.866 7.468.072 7.468.4 7.469-.71 7.468-.173 7.469-.086 7.468.748 7.468-.069 7.469.256 7.468-.04 7.468-.005 7.469-.485 7.468-.22 7.469.768 7.468.146 7.468.178 7.469-.285 7.468-.009 7.468.044 7.469.11" fill="none" stroke-linecap="square" stroke-width="1.5"/><g clip-path="url(#a)" fill="#d62728"><use x="-1" xlink:href="#C" y="240.352"/><use x="5.34" xlink:href="#C" y="240.352"/><use x="12.808" xlink:href="#C" y="261.789"/><use x="20.277" xlink:href="#C" y="246.109"/><use x="27.745" xlink:href="#C" y="218.568"/><use x="35.213" xlink:href="#C" y="208.894"/><use x="42.682" xlink:href="#C" y="197.426"/><use x="50.15" xlink:href="#C" y="192.306"/><use x="57.619" xlink:href="#C" y="185.172"/><use x="65.087" xlink:href="#C" y="184.043"/><use x="72.555" xlink:href="#C" y="177.912"/><use x="80.024" xlink:href="#C" y="172.973"/><use x="87.492" xlink:href="#C" y="163.295"/><use x="94.96" xlink:href="#C" y="156.759"/><use x="102.429" xlink:href="#C" y="153.89"/><use x="109.897" xlink:href="#C" y="152.64"/><use x="117.366" xlink:href="#C" y="145.975"/><use x="124.834" xlink:href="#C" y="141.765"/><use x="132.302" xlink:href="#C" y="141.765"/><use x="139.771" xlink:href="#C" y="133.638"/><use x="147.239" xlink:href="#C" y="130.179"/><use x="154.708" xlink:href="#C" y="130.051"/><use x="162.176" xlink:href="#C" y="123.439"/><use x="169.644" xlink:href="#C" y="120.911"/><use x="177.113" xlink:href="#C" y="118.05"/><use x="184.581" xlink:href="#C" y="114.993"/><use x="192.049" xlink:href="#C" y="112.68"/><use x="199.518" xlink:href="#C" y="110.611"/><use x="206.986" xlink:href="#C" y="111.113"/><use x="214.455" xlink:href="#C" y="106.906"/><use x="221.923" xlink:href="#C" y="105.763"/><use x="229.391" xlink:href="#C" y="103.874"/><use x="236.86" xlink:href="#C" y="101.864"/><use x="244.328" xlink:href="#C" y="99.889"/><use x="251.796" xlink:href="#C" y="97.204"/><use x="259.265" xlink:href="#C" y="96.751"/><use x="266.733" xlink:href="#C" y="95.011"/><use x="274.202" xlink:href="#C" y="92.411"/><use x="281.67" xlink:href="#C" y="91.219"/><use x="289.138" xlink:href="#C" y="91.49"/><use x="296.607" xlink:href="#C" y="90.475"/><use x="304.075" xlink:href="#C" y="83.313"/><use x="311.543" xlink:href="#C" y="82.906"/><use x="319.012" xlink:href="#C" y="82.115"/><use x="326.48" xlink:href="#C" y="80.414"/><use x="333.949" xlink:href="#C" y="80.113"/><use x="341.417" xlink:href="#C" y="79.798"/><use x="348.885" xlink:href="#C" y="78.919"/><use x="356.354" xlink:href="#C" y="78.401"/><use x="363.822" xlink:href="#C" y="78.104"/><use x="371.291" xlink:href="#C" y="77.536"/><use x="378.759" xlink:href="#C" y="79.117"/><use x="386.227" xlink:href="#C" y="79.234"/><use x="393.696" xlink:href="#C" y="77.368"/><use x="401.164" xlink:href="#C" y="77.44"/><use x="408.632" xlink:href="#C" y="77.84"/><use x="416.101" xlink:href="#C" y="77.129"/><use x="423.569" xlink:href="#C" y="76.957"/><use x="431.038" xlink:href="#C" y="76.871"/><use x="438.506" xlink:href="#C" y="77.619"/><use x="445.974" xlink:href="#C" y="77.55"/><use x="453.443" xlink:href="#C" y="77.806"/><use x="460.911" xlink:href="#C" y="77.765"/><use x="468.379" xlink:href="#C" y="77.761"/><use x="475.848" xlink:href="#C" y="77.276"/><use x="483.316" xlink:href="#C" y="77.057"/><use x="490.785" xlink:href="#C" y="77.824"/><use x="498.253" xlink:href="#C" y="77.97"/><use x="505.721" xlink:href="#C" y="78.148"/><use x="513.19" xlink:href="#C" y="77.863"/><use x="520.658" xlink:href="#C" y="77.854"/><use x="528.126" xlink:href="#C" y="77.898"/><use x="535.595" xlink:href="#C" y="78.008"/></g></g><g stroke="#9467bd"><path clip-path="url(#a)" d="M12.748 569.8l.06-319.872 7.469-17.311 7.468-2.859 7.468-14.31 7.469-6.16 7.468-11.047 7.469-6.228 7.468-5.423 7.468-5.08 7.469-2.616 7.468-7.469 7.468-2.694 7.469-5.273 7.468-8.236 7.469-8.119 7.468-3.86 7.468.008 7.469-15.024 7.468-2.504 7.469-3.56 7.468-4.452 7.468-1.988 7.469-3.094 7.468-4.66 7.468-1.775 7.469-3.547 7.468-2.095 7.469-3.006 7.468-2.082 7.468-3.36 7.469-2.328 7.468-1.69 7.468-1.208 7.469-1.094 7.468-1.364 7.469-1.233 7.468-.947 7.468-.673 7.469-.565 7.468-.546 7.468-.196 7.469-.412 7.468-.366 7.469-.145 7.468-.04 7.468-.182 7.469-.155 7.468.016 7.469-.076 7.468.125 7.468-.216 7.469-.526 7.468-.954 7.468-.15 7.469-.688 7.468.359 7.469-.277 7.468-.064 7.468-.145 7.469-.542 7.468-.043 7.468 3.497 7.469.13 7.468.134 7.469.982 7.468.624h7.468l7.469.59 7.468.217 7.468.488 7.469.244" fill="none" stroke-linecap="square" stroke-width="1.5"/><g clip-path="url(#a)" fill="#9467bd"><use x="-1" xlink:href="#D" y="39676.14"/><use x="5.34" xlink:href="#D" y="39676.14"/><use x="12.808" xlink:href="#D" y="249.928"/><use x="20.277" xlink:href="#D" y="232.617"/><use x="27.745" xlink:href="#D" y="229.758"/><use x="35.213" xlink:href="#D" y="215.448"/><use x="42.682" xlink:href="#D" y="209.288"/><use x="50.15" xlink:href="#D" y="198.241"/><use x="57.619" xlink:href="#D" y="192.013"/><use x="65.087" xlink:href="#D" y="186.59"/><use x="72.555" xlink:href="#D" y="181.509"/><use x="80.024" xlink:href="#D" y="178.894"/><use x="87.492" xlink:href="#D" y="171.425"/><use x="94.96" xlink:href="#D" y="168.731"/><use x="102.429" xlink:href="#D" y="163.458"/><use x="109.897" xlink:href="#D" y="155.222"/><use x="117.366" xlink:href="#D" y="147.103"/><use x="124.834" xlink:href="#D" y="143.243"/><use x="132.302" xlink:href="#D" y="143.251"/><use x="139.771" xlink:href="#D" y="128.227"/><use x="147.239" xlink:href="#D" y="125.723"/><use x="154.708" xlink:href="#D" y="122.164"/><use x="162.176" xlink:href="#D" y="117.711"/><use x="169.644" xlink:href="#D" y="115.723"/><use x="177.113" xlink:href="#D" y="112.629"/><use x="184.581" xlink:href="#D" y="107.97"/><use x="192.049" xlink:href="#D" y="106.194"/><use x="199.518" xlink:href="#D" y="102.647"/><use x="206.986" xlink:href="#D" y="100.552"/><use x="214.455" xlink:href="#D" y="97.546"/><use x="221.923" xlink:href="#D" y="95.464"/><use x="229.391" xlink:href="#D" y="92.105"/><use x="236.86" xlink:href="#D" y="89.776"/><use x="244.328" xlink:href="#D" y="88.086"/><use x="251.796" xlink:href="#D" y="86.878"/><use x="259.265" xlink:href="#D" y="85.784"/><use x="266.733" xlink:href="#D" y="84.42"/><use x="274.202" xlink:href="#D" y="83.187"/><use x="281.67" xlink:href="#D" y="82.24"/><use x="289.138" xlink:href="#D" y="81.567"/><use x="296.607" xlink:href="#D" y="81.002"/><use x="304.075" xlink:href="#D" y="80.456"/><use x="311.543" xlink:href="#D" y="80.26"/><use x="319.012" xlink:href="#D" y="79.848"/><use x="326.48" xlink:href="#D" y="79.482"/><use x="333.949" xlink:href="#D" y="79.337"/><use x="341.417" xlink:href="#D" y="79.297"/><use x="348.885" xlink:href="#D" y="79.115"/><use x="356.354" xlink:href="#D" y="78.96"/><use x="363.822" xlink:href="#D" y="78.976"/><use x="371.291" xlink:href="#D" y="78.9"/><use x="378.759" xlink:href="#D" y="79.025"/><use x="386.227" xlink:href="#D" y="78.809"/><use x="393.696" xlink:href="#D" y="78.283"/><use x="401.164" xlink:href="#D" y="77.329"/><use x="408.632" xlink:href="#D" y="77.179"/><use x="416.101" xlink:href="#D" y="76.491"/><use x="423.569" xlink:href="#D" y="76.85"/><use x="431.038" xlink:href="#D" y="76.573"/><use x="438.506" xlink:href="#D" y="76.509"/><use x="445.974" xlink:href="#D" y="76.364"/><use x="453.443" xlink:href="#D" y="75.822"/><use x="460.911" xlink:href="#D" y="75.779"/><use x="468.379" xlink:href="#D" y="79.276"/><use x="475.848" xlink:href="#D" y="79.405"/><use x="483.316" xlink:href="#D" y="79.54"/><use x="490.785" xlink:href="#D" y="80.522"/><use x="498.253" xlink:href="#D" y="81.146"/><use x="505.721" xlink:href="#D" y="81.146"/><use x="513.19" xlink:href="#D" y="81.737"/><use x="520.658" xlink:href="#D" y="81.953"/><use x="528.126" xlink:href="#D" y="82.441"/><use x="535.595" xlink:href="#D" y="82.685"/></g></g><g fill="none" stroke-dasharray="1.5 2.475" stroke-width="1.5"><path clip-path="url(#a)" d="M535.595 38.23l7.468-.323 7.469-.324L558 37.26" stroke="#1f77b4"/><path clip-path="url(#a)" d="M535.595 67.984l7.468-.4 7.469-.401 7.468-.401" stroke="#ff7f0e"/><path clip-path="url(#a)" d="M535.595 76.902l7.468.144 7.469.143 7.468.143" stroke="#2ca02c"/><path clip-path="url(#a)" d="M535.595 78.008l7.468.06 7.469.061 7.468.061" stroke="#d62728"/><path clip-path="url(#a)" d="M535.595 82.685l7.468.326 7.469.325 7.468.326" stroke="#9467bd"/></g><g fill="none" stroke="#000" stroke-linecap="square" stroke-linejoin="miter" stroke-width=".8"><path d="M50.15 234.248V25.44M558 234.248V25.44M50.15 234.248H558M50.15 25.44H558"/></g><g><g transform="matrix(.12 0 0 -.12 182.296 19.44)"><use xlink:href="#h"/><use x="68.393" xlink:href="#E"/><use x="123.373" xlink:href="#F"/><use x="162.582" xlink:href="#y"/><path d="M193.35 54.688h9.515L219.96 8.797l17.094 45.89h9.515L226.053 0H213.85z"/><use x="249.545" xlink:href="#z"/><use x="342.855" xlink:href="#G"/><path d="M452.086 66.219q-10.75 0-17.078-8.016-6.313-8-6.313-21.828 0-13.766 6.313-21.781 6.328-8 17.078-8 10.734 0 17.016 8 6.28 8.015 6.28 21.781 0 13.828-6.28 21.828-6.282 8.016-17.016 8.016zm0 8q15.328 0 24.5-10.281 9.187-10.282 9.187-27.563 0-17.234-9.187-27.516-9.172-10.28-24.5-10.28-15.375 0-24.594 10.25-9.203 10.265-9.203 27.546t9.203 27.563q9.219 10.28 24.594 10.28zM519.984 0l-27.828 72.906h10.297l23.11-61.375 23.14 61.375h10.25L531.172 0z"/><use x="559.783" xlink:href="#H"/><path d="M608.947 64.797V8.109h11.922q15.094 0 22.094 6.829 7 6.843 7 21.593 0 14.64-7 21.453-7 6.813-22.094 6.813zm-9.86 8.11h20.267q21.187 0 31.093-8.813 9.922-8.813 9.922-27.563 0-18.86-9.969-27.703Q640.447 0 619.354 0h-20.266z"/><use x="666.277" xlink:href="#I"/><use x="702.361" xlink:href="#m"/><use x="765.984" xlink:href="#l"/><use x="861.395" xlink:href="#E"/><use x="916.375" xlink:href="#d"/><use x="977.654" xlink:href="#J"/><use x="1029.754" xlink:href="#z"/><use x="1091.277" xlink:href="#J"/><use x="1175.164" xlink:href="#d"/><use x="1236.443" xlink:href="#J"/><use x="1320.33" xlink:href="#u"/><use x="1381.512" xlink:href="#K"/><use x="1448.504" xlink:href="#f"/><use x="1512.127" xlink:href="#g"/><use x="1575.75" xlink:href="#f"/><use x="1639.373" xlink:href="#g"/><use x="1702.996" xlink:href="#I"/><use x="1739.08" xlink:href="#g"/><use x="1802.703" xlink:href="#s"/><use x="1866.326" xlink:href="#I"/><use x="1902.41" xlink:href="#g"/><use x="1966.033" xlink:href="#s"/></g><path d="M323.94 229.248H551q2 0 2-2v-72.39q0-2-2-2H323.94q-2 0-2 2v72.39q0 2 2 2z" fill="#fff" opacity=".8" stroke="#ccc" stroke-linejoin="miter"/><path d="M325.94 160.956h20" fill="none" stroke="#1f77b4" stroke-linecap="square" stroke-width="1.5"/><use fill="#1f77b4" stroke="#1f77b4" x="335.941" xlink:href="#A" y="160.956"/><g transform="matrix(.1 0 0 -.1 353.94 164.456)"><use xlink:href="#L"/><use x="73.193" xlink:href="#M"/><use x="168.457" xlink:href="#N"/><use x="207.471" xlink:href="#w"/><use x="270.947" xlink:href="#u"/><use x="332.129" xlink:href="#O"/><use x="395.508" xlink:href="#P"/><use x="458.984" xlink:href="#v"/><use x="486.768" xlink:href="#z"/><use x="548.291" xlink:href="#J"/><use x="632.178" xlink:href="#y"/><use x="659.961" xlink:href="#Q"/><use x="755.127" xlink:href="#o"/><use x="818.75" xlink:href="#n"/><use x="882.373" xlink:href="#R"/><use x="914.16" xlink:href="#n"/><use x="1009.57" xlink:href="#w"/><use x="1073.047" xlink:href="#d"/><use x="1134.326" xlink:href="#j"/><use x="1193.506" xlink:href="#J"/><use x="1245.605" xlink:href="#S"/></g><path d="M325.94 175.634h20" fill="none" stroke="#ff7f0e" stroke-linecap="square" stroke-width="1.5"/><use fill="#ff7f0e" stroke="#ff7f0e" x="335.941" xlink:href="#B" y="175.634"/><g transform="matrix(.1 0 0 -.1 353.94 179.134)"><use xlink:href="#L"/><use x="73.193" xlink:href="#Q"/><use x="136.572" xlink:href="#y"/><use x="164.355" xlink:href="#F"/><use x="203.564" xlink:href="#z"/><use x="265.088" xlink:href="#w"/><path d="M370.164 72.906h9.86V42.094l32.718 30.812h12.703l-36.187-33.984L428.023 0H415.04l-35.016 35.11V0h-9.859z"/><use x="425.928" xlink:href="#y"/><use x="453.711" xlink:href="#Q"/><path d="M562.496 27.984q0 9.766-4.031 15.125-4.016 5.375-11.297 5.375-7.219 0-11.25-5.375-4.031-5.359-4.031-15.125 0-9.718 4.031-15.093t11.25-5.375q7.281 0 11.297 5.375 4.031 5.375 4.031 15.093zm8.984-21.203q0-13.953-6.203-20.765-6.187-6.813-18.984-6.813-4.734 0-8.938.703-4.203.703-8.156 2.172v8.735q3.953-2.141 7.813-3.157 3.86-1.031 7.86-1.031 8.843 0 13.233 4.61 4.391 4.609 4.391 13.937v4.453q-2.781-4.844-7.125-7.234Q551.027 0 544.965 0q-10.047 0-16.203 7.656-6.157 7.672-6.157 20.328 0 12.688 6.157 20.344Q534.918 56 544.965 56q6.062 0 10.406-2.39 4.344-2.391 7.125-7.22v8.297h8.984z"/><use x="580.566" xlink:href="#w"/><use x="644.043" xlink:href="#u"/><path d="M757.225 44.188q3.375 6.062 8.062 8.937Q769.975 56 776.318 56q8.547 0 13.188-5.984 4.64-5.97 4.64-17V0h-9.03v32.719q0 7.86-2.798 11.656-2.78 3.813-8.484 3.813-6.984 0-11.047-4.641-4.047-4.625-4.047-12.64V0h-9.031v32.719q0 7.906-2.781 11.687-2.782 3.782-8.594 3.782-6.89 0-10.953-4.657-4.047-4.656-4.047-12.625V0h-9.031v54.688h9.031v-8.5q3.078 5.03 7.375 7.421Q735.006 56 740.912 56q5.969 0 10.14-3.031 4.173-3.016 6.173-8.782z"/><use x="834.424" xlink:href="#N"/><use x="873.438" xlink:href="#w"/><use x="936.914" xlink:href="#u"/><use x="998.096" xlink:href="#O"/><use x="1061.475" xlink:href="#P"/><use x="1124.951" xlink:href="#v"/><use x="1152.734" xlink:href="#z"/><use x="1214.258" xlink:href="#J"/><use x="1298.145" xlink:href="#y"/><use x="1325.928" xlink:href="#Q"/><use x="1421.094" xlink:href="#f"/><use x="1484.717" xlink:href="#l"/><use x="1548.34" xlink:href="#R"/><use x="1580.127" xlink:href="#n"/><use x="1675.537" xlink:href="#w"/><use x="1739.014" xlink:href="#d"/><use x="1800.293" xlink:href="#j"/><use x="1859.473" xlink:href="#J"/><use x="1911.572" xlink:href="#S"/></g><path d="M325.94 190.312h20" fill="none" stroke="#2ca02c" stroke-linecap="square" stroke-width="1.5"/><g transform="matrix(.1 0 0 -.1 353.94 193.812)"><use xlink:href="#H"/><use x="29.492" xlink:href="#F"/><use x="68.701" xlink:href="#d"/><use x="129.98" xlink:href="#v"/><use x="157.764" xlink:href="#j"/></g><path d="M325.94 204.99h20" fill="none" stroke="#d62728" stroke-linecap="square" stroke-width="1.5"/><use fill="#d62728" stroke="#d62728" x="335.941" xlink:href="#C" y="204.99"/><g transform="matrix(.1 0 0 -.1 353.94 208.49)"><path d="M9.813 72.906h41.89v-8.312H19.672V43.109h28.906v-8.297H19.672V0h-9.86z"/><use x="57.41" xlink:href="#e"/><use x="98.523" xlink:href="#d"/><use x="159.803" xlink:href="#Q"/><use x="223.182" xlink:href="#E"/><use x="278.162" xlink:href="#z"/></g><path d="M325.94 219.668h20" fill="none" stroke="#9467bd" stroke-linecap="square" stroke-width="1.5"/><use fill="#9467bd" stroke="#9467bd" x="335.941" xlink:href="#D" y="219.668"/><g transform="matrix(.1 0 0 -.1 353.94 223.168)"><use xlink:href="#M"/><use x="63.477" xlink:href="#i"/><use x="126.953" xlink:href="#d"/><use x="188.232" xlink:href="#y"/><use x="216.016" xlink:href="#Q"/></g><path d="M50.15 505.928H558V297.12H50.15z" fill="#fff"/><path clip-path="url(#T)" d="M50.15 505.928V297.12" fill="none" stroke="#b0b0b0" stroke-linecap="square" stroke-width=".8"/><use stroke="#000" stroke-width=".8" x="50.15" xlink:href="#b" y="505.928"/><g transform="matrix(.1 0 0 -.1 40.717 542.922)"><use xlink:href="#c"/><use x="86.279" xlink:href="#d"/><use x="147.559" xlink:href="#e"/></g><g transform="matrix(.1 0 0 -.1 37.425 554.12)"><use xlink:href="#f"/><use x="63.623" xlink:href="#g"/><use x="127.246" xlink:href="#f"/><use x="190.869" xlink:href="#g"/></g><path clip-path="url(#T)" d="M281.67 505.928V297.12" fill="none" stroke="#b0b0b0" stroke-linecap="square" stroke-width=".8"/><use stroke="#000" stroke-width=".8" x="281.67" xlink:href="#b" y="505.928"/><g transform="matrix(.1 0 0 -.1 273.02 542.922)"><use xlink:href="#h"/><use x="68.408" xlink:href="#i"/><use x="131.885" xlink:href="#e"/></g><path clip-path="url(#T)" d="M505.721 505.928V297.12" fill="none" stroke="#b0b0b0" stroke-linecap="square" stroke-width=".8"/><use stroke="#000" stroke-width=".8" x="505.721" xlink:href="#b" y="505.928"/><g transform="matrix(.1 0 0 -.1 495.384 542.922)"><use xlink:href="#c"/><use x="86.279" xlink:href="#d"/><use x="147.559" xlink:href="#j"/></g><g stroke-width=".8"><path clip-path="url(#T)" d="M558 505.928V297.12" fill="none" stroke="#b0b0b0" stroke-linecap="square"/><use stroke="#000" x="558" xlink:href="#b" y="505.928"/></g><use stroke="#000" stroke-width=".6" x="57.619" xlink:href="#k" y="505.928"/><g transform="matrix(.1 0 0 -.1 51.256 518.926)"><use xlink:href="#g"/><use x="63.623" xlink:href="#f"/></g><g stroke="#000" stroke-width=".6"><use x="65.087" xlink:href="#k" y="505.928"/><use x="72.555" xlink:href="#k" y="505.928"/><use x="80.024" xlink:href="#k" y="505.928"/><use x="87.492" xlink:href="#k" y="505.928"/><use x="94.96" xlink:href="#k" y="505.928"/><use x="102.429" xlink:href="#k" y="505.928"/></g><use stroke="#000" stroke-width=".6" x="109.897" xlink:href="#k" y="505.928"/><g transform="matrix(.1 0 0 -.1 103.535 518.926)"><use xlink:href="#g"/><use x="63.623" xlink:href="#l"/></g><g stroke="#000" stroke-width=".6"><use x="117.366" xlink:href="#k" y="505.928"/><use x="124.834" xlink:href="#k" y="505.928"/><use x="132.302" xlink:href="#k" y="505.928"/><use x="139.771" xlink:href="#k" y="505.928"/><use x="147.239" xlink:href="#k" y="505.928"/><use x="154.708" xlink:href="#k" y="505.928"/><use x="162.176" xlink:href="#k" y="505.928"/></g><g transform="matrix(.1 0 0 -.1 155.813 518.926)"><use xlink:href="#m"/><use x="63.623" xlink:href="#n"/></g><g stroke="#000" stroke-width=".6"><use x="169.644" xlink:href="#k" y="505.928"/><use x="177.113" xlink:href="#k" y="505.928"/><use x="184.581" xlink:href="#k" y="505.928"/><use x="192.049" xlink:href="#k" y="505.928"/><use x="199.518" xlink:href="#k" y="505.928"/><use x="206.986" xlink:href="#k" y="505.928"/><use x="214.455" xlink:href="#k" y="505.928"/></g><g transform="matrix(.1 0 0 -.1 208.092 518.926)"><use xlink:href="#f"/><use x="63.623" xlink:href="#o"/></g><g stroke="#000" stroke-width=".6"><use x="221.923" xlink:href="#k" y="505.928"/><use x="229.391" xlink:href="#k" y="505.928"/><use x="236.86" xlink:href="#k" y="505.928"/><use x="244.328" xlink:href="#k" y="505.928"/><use x="251.796" xlink:href="#k" y="505.928"/><use x="259.265" xlink:href="#k" y="505.928"/><use x="266.733" xlink:href="#k" y="505.928"/></g><g transform="matrix(.1 0 0 -.1 260.37 518.926)"><use xlink:href="#o"/><use x="63.623" xlink:href="#g"/></g><g stroke="#000" stroke-width=".6"><use x="274.202" xlink:href="#k" y="505.928"/><use x="289.138" xlink:href="#k" y="505.928"/><use x="296.607" xlink:href="#k" y="505.928"/><use x="304.075" xlink:href="#k" y="505.928"/><use x="311.543" xlink:href="#k" y="505.928"/><use x="319.012" xlink:href="#k" y="505.928"/></g><g transform="matrix(.1 0 0 -.1 312.65 518.926)"><use xlink:href="#g"/><use x="63.623" xlink:href="#n"/></g><g stroke="#000" stroke-width=".6"><use x="326.48" xlink:href="#k" y="505.928"/><use x="333.949" xlink:href="#k" y="505.928"/><use x="341.417" xlink:href="#k" y="505.928"/><use x="348.885" xlink:href="#k" y="505.928"/><use x="356.354" xlink:href="#k" y="505.928"/><use x="363.822" xlink:href="#k" y="505.928"/><use x="371.291" xlink:href="#k" y="505.928"/></g><g transform="matrix(.1 0 0 -.1 364.928 518.926)"><use xlink:href="#m"/><use x="63.623" xlink:href="#o"/></g><g stroke="#000" stroke-width=".6"><use x="378.759" xlink:href="#k" y="505.928"/><use x="386.227" xlink:href="#k" y="505.928"/><use x="393.696" xlink:href="#k" y="505.928"/><use x="401.164" xlink:href="#k" y="505.928"/><use x="408.632" xlink:href="#k" y="505.928"/><use x="416.101" xlink:href="#k" y="505.928"/><use x="423.569" xlink:href="#k" y="505.928"/></g><g transform="matrix(.1 0 0 -.1 417.207 518.926)"><use xlink:href="#f"/><use x="63.623" xlink:href="#g"/></g><g stroke="#000" stroke-width=".6"><use x="431.038" xlink:href="#k" y="505.928"/><use x="438.506" xlink:href="#k" y="505.928"/><use x="445.974" xlink:href="#k" y="505.928"/><use x="453.443" xlink:href="#k" y="505.928"/><use x="460.911" xlink:href="#k" y="505.928"/><use x="468.379" xlink:href="#k" y="505.928"/><use x="475.848" xlink:href="#k" y="505.928"/></g><g transform="matrix(.1 0 0 -.1 469.485 518.926)"><use xlink:href="#f"/><use x="63.623" xlink:href="#p"/></g><g stroke="#000" stroke-width=".6"><use x="483.316" xlink:href="#k" y="505.928"/><use x="490.785" xlink:href="#k" y="505.928"/><use x="498.253" xlink:href="#k" y="505.928"/><use x="513.19" xlink:href="#k" y="505.928"/><use x="520.658" xlink:href="#k" y="505.928"/><use x="528.126" xlink:href="#k" y="505.928"/></g><g transform="matrix(.1 0 0 -.1 521.764 518.926)"><use xlink:href="#g"/><use x="63.623" xlink:href="#q"/></g><g stroke="#000" stroke-width=".6"><use x="535.595" xlink:href="#k" y="505.928"/><use x="543.063" xlink:href="#k" y="505.928"/><use x="550.532" xlink:href="#k" y="505.928"/></g><path clip-path="url(#T)" d="M50.15 505.928H558" fill="none" stroke="#b0b0b0" stroke-linecap="square" stroke-width=".8"/><use stroke="#000" stroke-width=".8" x="50.15" xlink:href="#r" y="505.928"/><g transform="matrix(.1 0 0 -.1 25.55 509.727)"><use transform="translate(0 .684)" xlink:href="#m"/><use transform="translate(63.623 .684)" xlink:href="#g"/><use transform="matrix(.7 0 0 .7 128.203 38.966)" xlink:href="#m"/></g><path clip-path="url(#T)" d="M50.15 462.023H558" fill="none" stroke="#b0b0b0" stroke-linecap="square" stroke-width=".8"/><use stroke="#000" stroke-width=".8" x="50.15" xlink:href="#r" y="462.023"/><g transform="matrix(.1 0 0 -.1 25.55 465.822)"><use transform="translate(0 .766)" xlink:href="#m"/><use transform="translate(63.623 .766)" xlink:href="#g"/><use transform="matrix(.7 0 0 .7 128.203 39.047)" xlink:href="#f"/></g><path clip-path="url(#T)" d="M50.15 418.117H558" fill="none" stroke="#b0b0b0" stroke-linecap="square" stroke-width=".8"/><use stroke="#000" stroke-width=".8" x="50.15" xlink:href="#r" y="418.117"/><g transform="matrix(.1 0 0 -.1 25.55 421.917)"><use transform="translate(0 .766)" xlink:href="#m"/><use transform="translate(63.623 .766)" xlink:href="#g"/><use transform="matrix(.7 0 0 .7 128.203 39.047)" xlink:href="#o"/></g><path clip-path="url(#T)" d="M50.15 374.212H558" fill="none" stroke="#b0b0b0" stroke-linecap="square" stroke-width=".8"/><use stroke="#000" stroke-width=".8" x="50.15" xlink:href="#r" y="374.212"/><g transform="matrix(.1 0 0 -.1 25.55 378.011)"><use transform="translate(0 .684)" xlink:href="#m"/><use transform="translate(63.623 .684)" xlink:href="#g"/><use transform="matrix(.7 0 0 .7 128.203 38.966)" xlink:href="#q"/></g><path clip-path="url(#T)" d="M50.15 330.307H558" fill="none" stroke="#b0b0b0" stroke-linecap="square" stroke-width=".8"/><use stroke="#000" stroke-width=".8" x="50.15" xlink:href="#r" y="330.307"/><g transform="matrix(.1 0 0 -.1 25.55 334.106)"><use transform="translate(0 .684)" xlink:href="#m"/><use transform="translate(63.623 .684)" xlink:href="#g"/><use transform="matrix(.7 0 0 .7 128.203 38.966)" xlink:href="#s"/></g><g stroke="#000" stroke-width=".6"><use x="50.15" xlink:href="#t" y="492.711"/><use x="50.15" xlink:href="#t" y="484.98"/><use x="50.15" xlink:href="#t" y="479.494"/><use x="50.15" xlink:href="#t" y="475.239"/><use x="50.15" xlink:href="#t" y="471.763"/><use x="50.15" xlink:href="#t" y="468.824"/><use x="50.15" xlink:href="#t" y="466.278"/><use x="50.15" xlink:href="#t" y="464.032"/><use x="50.15" xlink:href="#t" y="448.806"/><use x="50.15" xlink:href="#t" y="441.075"/><use x="50.15" xlink:href="#t" y="435.589"/><use x="50.15" xlink:href="#t" y="431.334"/><use x="50.15" xlink:href="#t" y="427.858"/><use x="50.15" xlink:href="#t" y="424.918"/><use x="50.15" xlink:href="#t" y="422.372"/><use x="50.15" xlink:href="#t" y="420.126"/><use x="50.15" xlink:href="#t" y="404.901"/><use x="50.15" xlink:href="#t" y="397.169"/><use x="50.15" xlink:href="#t" y="391.684"/><use x="50.15" xlink:href="#t" y="387.429"/><use x="50.15" xlink:href="#t" y="383.952"/><use x="50.15" xlink:href="#t" y="381.013"/><use x="50.15" xlink:href="#t" y="378.467"/><use x="50.15" xlink:href="#t" y="376.221"/><use x="50.15" xlink:href="#t" y="360.995"/><use x="50.15" xlink:href="#t" y="353.264"/><use x="50.15" xlink:href="#t" y="347.778"/><use x="50.15" xlink:href="#t" y="343.523"/><use x="50.15" xlink:href="#t" y="340.047"/><use x="50.15" xlink:href="#t" y="337.108"/><use x="50.15" xlink:href="#t" y="334.562"/><use x="50.15" xlink:href="#t" y="332.316"/><use x="50.15" xlink:href="#t" y="317.09"/><use x="50.15" xlink:href="#t" y="309.359"/><use x="50.15" xlink:href="#t" y="303.873"/><use x="50.15" xlink:href="#t" y="299.618"/></g><g transform="matrix(0 -.1 -.1 0 19.47 408.358)"><use xlink:href="#L"/><use x="73.193" xlink:href="#M"/></g><g stroke="#1f77b4"><path clip-path="url(#T)" d="M57.615 569.8l.004-19.967 7.468-13.216 7.468-32.506 7.469-14.065 7.468-8.543 7.468-14.247 7.469-6.344 7.468-5.576 7.469-3.765 7.468-4.583 7.468-7.615 7.469-4.76 7.468-4.136 7.469-6.333 7.468-5.189 7.468-10.877 7.469-7.272 7.468-14.6 7.468-8.367 7.469-6.54 7.468-5.667 7.469-5.317 7.468-3.93 7.468-3.471 7.469-3.901 7.468-3.203 7.468-2.917 7.469-2.423 7.468-2.08 7.469-2.415 7.468-1.886 7.468-1.801 7.469-1.991 7.468-1.854 7.468-1.453 7.469-1.258 7.468-1.06 7.469-1.423 7.468-1.263 7.468-1.168 7.469-.896 7.468-.786 7.469-.63 7.468-.655 7.468-1.03 7.469-.558 7.468-.416 7.468-.922 7.469-.46 7.468-.405 7.469-.388 7.468-.364 7.468.109 7.469-.596 7.468-.744 7.468-.409 7.469-.253 7.468-.202 7.469-.28 7.468-.312 7.468-.236 7.469-.3 7.468-.192 7.468-.146 7.469-.137" fill="none" stroke-linecap="square" stroke-width="1.5"/><g clip-path="url(#T)" fill="#1f77b4"><use x="50.746" xlink:href="#A" y="40954.6"/><use x="57.619" xlink:href="#A" y="549.833"/><use x="65.087" xlink:href="#A" y="536.617"/><use x="72.555" xlink:href="#A" y="504.111"/><use x="80.024" xlink:href="#A" y="490.046"/><use x="87.492" xlink:href="#A" y="481.503"/><use x="94.96" xlink:href="#A" y="467.256"/><use x="102.429" xlink:href="#A" y="460.912"/><use x="109.897" xlink:href="#A" y="455.336"/><use x="117.366" xlink:href="#A" y="451.571"/><use x="124.834" xlink:href="#A" y="446.988"/><use x="132.302" xlink:href="#A" y="439.373"/><use x="139.771" xlink:href="#A" y="434.613"/><use x="147.239" xlink:href="#A" y="430.477"/><use x="154.708" xlink:href="#A" y="424.144"/><use x="162.176" xlink:href="#A" y="418.955"/><use x="169.644" xlink:href="#A" y="408.078"/><use x="177.113" xlink:href="#A" y="400.806"/><use x="184.581" xlink:href="#A" y="386.207"/><use x="192.049" xlink:href="#A" y="377.839"/><use x="199.518" xlink:href="#A" y="371.3"/><use x="206.986" xlink:href="#A" y="365.632"/><use x="214.455" xlink:href="#A" y="360.315"/><use x="221.923" xlink:href="#A" y="356.384"/><use x="229.391" xlink:href="#A" y="352.914"/><use x="236.86" xlink:href="#A" y="349.013"/><use x="244.328" xlink:href="#A" y="345.81"/><use x="251.796" xlink:href="#A" y="342.893"/><use x="259.265" xlink:href="#A" y="340.47"/><use x="266.733" xlink:href="#A" y="338.391"/><use x="274.202" xlink:href="#A" y="335.975"/><use x="281.67" xlink:href="#A" y="334.089"/><use x="289.138" xlink:href="#A" y="332.288"/><use x="296.607" xlink:href="#A" y="330.297"/><use x="304.075" xlink:href="#A" y="328.443"/><use x="311.543" xlink:href="#A" y="326.99"/><use x="319.012" xlink:href="#A" y="325.732"/><use x="326.48" xlink:href="#A" y="324.671"/><use x="333.949" xlink:href="#A" y="323.249"/><use x="341.417" xlink:href="#A" y="321.986"/><use x="348.885" xlink:href="#A" y="320.818"/><use x="356.354" xlink:href="#A" y="319.922"/><use x="363.822" xlink:href="#A" y="319.136"/><use x="371.291" xlink:href="#A" y="318.505"/><use x="378.759" xlink:href="#A" y="317.851"/><use x="386.227" xlink:href="#A" y="316.821"/><use x="393.696" xlink:href="#A" y="316.263"/><use x="401.164" xlink:href="#A" y="315.847"/><use x="408.632" xlink:href="#A" y="314.925"/><use x="416.101" xlink:href="#A" y="314.465"/><use x="423.569" xlink:href="#A" y="314.06"/><use x="431.038" xlink:href="#A" y="313.672"/><use x="438.506" xlink:href="#A" y="313.308"/><use x="445.974" xlink:href="#A" y="313.417"/><use x="453.443" xlink:href="#A" y="312.821"/><use x="460.911" xlink:href="#A" y="312.077"/><use x="468.379" xlink:href="#A" y="311.668"/><use x="475.848" xlink:href="#A" y="311.415"/><use x="483.316" xlink:href="#A" y="311.213"/><use x="490.785" xlink:href="#A" y="310.934"/><use x="498.253" xlink:href="#A" y="310.621"/><use x="505.721" xlink:href="#A" y="310.385"/><use x="513.19" xlink:href="#A" y="310.085"/><use x="520.658" xlink:href="#A" y="309.893"/><use x="528.126" xlink:href="#A" y="309.747"/><use x="535.595" xlink:href="#A" y="309.61"/></g></g><g stroke="#ff7f0e"><path clip-path="url(#T)" d="M80.018 569.8l.006-33.183h7.468L94.96 523.4l7.469-4.255h7.468l7.469-19.633 7.468-8.618 7.468-4.599h7.469l7.468-16.919 7.469-6.575 7.468-11.449 7.468-7.768 7.469-.072 7.468-19.472 7.468-3.463 7.469-7.623 7.468-7.015 7.469-7.57 7.468-4.84 7.468-3.4 7.469-8.55 7.468-4.749 7.468-4.408 7.469-3.54 7.468-4.147 7.469-2.18 7.468-3.29 7.468-2.565 7.469-2.953 7.468-2.46 7.468-1.809 7.469-1.741 7.468-1.42 7.469-1.176 7.468-1.356 7.468-1.248 7.469-1.164 7.468-1.166 7.469-.829 7.468-1.154 7.468-.528 7.469-1.072 7.468-.737 7.468-.683 7.469-.865 7.468-.759 7.469-.756 7.468-.67 7.468-.789 7.469-.382 7.468-.597 7.468-.661 7.469-.375 7.468-.407 7.469-.383 7.468-.316 7.468-.377 7.469-.386 7.468-.47 7.468-.238 7.469-.312" fill="none" stroke-linecap="square" stroke-width="1.5"/><g clip-path="url(#T)" fill="#ff7f0e"><use x="73.151" xlink:href="#B" y="40954.6"/><use x="80.024" xlink:href="#B" y="536.617"/><use x="87.492" xlink:href="#B" y="536.617"/><use x="94.96" xlink:href="#B" y="523.4"/><use x="102.429" xlink:href="#B" y="519.145"/><use x="109.897" xlink:href="#B" y="519.145"/><use x="117.366" xlink:href="#B" y="499.512"/><use x="124.834" xlink:href="#B" y="490.894"/><use x="132.302" xlink:href="#B" y="486.295"/><use x="139.771" xlink:href="#B" y="486.295"/><use x="147.239" xlink:href="#B" y="469.376"/><use x="154.708" xlink:href="#B" y="462.801"/><use x="162.176" xlink:href="#B" y="451.352"/><use x="169.644" xlink:href="#B" y="443.584"/><use x="177.113" xlink:href="#B" y="443.512"/><use x="184.581" xlink:href="#B" y="424.04"/><use x="192.049" xlink:href="#B" y="420.577"/><use x="199.518" xlink:href="#B" y="412.954"/><use x="206.986" xlink:href="#B" y="405.939"/><use x="214.455" xlink:href="#B" y="398.369"/><use x="221.923" xlink:href="#B" y="393.529"/><use x="229.391" xlink:href="#B" y="390.128"/><use x="236.86" xlink:href="#B" y="381.58"/><use x="244.328" xlink:href="#B" y="376.83"/><use x="251.796" xlink:href="#B" y="372.422"/><use x="259.265" xlink:href="#B" y="368.882"/><use x="266.733" xlink:href="#B" y="364.735"/><use x="274.202" xlink:href="#B" y="362.555"/><use x="281.67" xlink:href="#B" y="359.265"/><use x="289.138" xlink:href="#B" y="356.7"/><use x="296.607" xlink:href="#B" y="353.747"/><use x="304.075" xlink:href="#B" y="351.287"/><use x="311.543" xlink:href="#B" y="349.478"/><use x="319.012" xlink:href="#B" y="347.737"/><use x="326.48" xlink:href="#B" y="346.318"/><use x="333.949" xlink:href="#B" y="345.141"/><use x="341.417" xlink:href="#B" y="343.785"/><use x="348.885" xlink:href="#B" y="342.537"/><use x="356.354" xlink:href="#B" y="341.373"/><use x="363.822" xlink:href="#B" y="340.207"/><use x="371.291" xlink:href="#B" y="339.378"/><use x="378.759" xlink:href="#B" y="338.224"/><use x="386.227" xlink:href="#B" y="337.696"/><use x="393.696" xlink:href="#B" y="336.624"/><use x="401.164" xlink:href="#B" y="335.887"/><use x="408.632" xlink:href="#B" y="335.204"/><use x="416.101" xlink:href="#B" y="334.339"/><use x="423.569" xlink:href="#B" y="333.58"/><use x="431.038" xlink:href="#B" y="332.824"/><use x="438.506" xlink:href="#B" y="332.154"/><use x="445.974" xlink:href="#B" y="331.365"/><use x="453.443" xlink:href="#B" y="330.983"/><use x="460.911" xlink:href="#B" y="330.386"/><use x="468.379" xlink:href="#B" y="329.725"/><use x="475.848" xlink:href="#B" y="329.35"/><use x="483.316" xlink:href="#B" y="328.943"/><use x="490.785" xlink:href="#B" y="328.56"/><use x="498.253" xlink:href="#B" y="328.244"/><use x="505.721" xlink:href="#B" y="327.867"/><use x="513.19" xlink:href="#B" y="327.481"/><use x="520.658" xlink:href="#B" y="327.01"/><use x="528.126" xlink:href="#B" y="326.773"/><use x="535.595" xlink:href="#B" y="326.461"/></g></g><path clip-path="url(#T)" d="M-1 549.833h28.745l.003 19.967m37.336 0l.003-19.967H80.024l7.468-34.165h7.468l7.469-25.622h7.468l7.469-26.225 7.468-.619 7.468-2.47 7.469-2.501 7.468-2.211 7.469-3.313 7.468-3.516 7.468-1.94 7.469-.088 7.468-7.79 7.468-4.348 7.469-4.585 7.468-3.843 7.469-3.446 7.468-7.665 7.468-8.819 7.469-5.18 7.468-5.578 7.468-5.215 7.469-2.907 7.468-2.843 7.469-2.609 7.468-2.93 7.468-2.781 7.469-2.808 7.468-2.302 7.468-1.201 7.469-1.932 7.468-1.704 7.469-1.848 7.468-2.283 7.468-1.905 7.469-1.613 7.468-2.072 7.469-.98 7.468-.928 7.468-1.012 7.469-1.442 7.468-1.238 7.468-1.014 7.469-.75h7.468l7.469-1.447 7.468-.726 7.468-1.311 7.469-1.97 7.468-.849 7.468-.528 7.469-.513 7.468-.593 7.469-.583 7.468-.589 7.468-.624 7.469-.565 7.468-.502 7.468-.27 7.469-.31" fill="none" stroke="#2ca02c" stroke-linecap="square" stroke-width="1.5"/><g stroke="#d62728"><path clip-path="url(#T)" d="M50.147 569.8l.003-19.967 7.469-13.216h14.936l7.469-7.732h7.468l7.468-5.485 7.469-4.255h7.468l7.469-13.217 7.468-15.882 7.468-5.066 7.469-7.303 7.468-6.54 7.469-7.316 7.468-2.362 7.468-8.158 7.469-.36 7.468-18.191 7.468-6.246 7.469-4.825 7.468-6.31 7.469-3.854 7.468-3.394 7.468-3.693 7.469-5.874 7.468-3.321 7.468-2.696 7.469-5.226 7.468-1.817 7.469-3.205 7.468-2.832 7.468-1.84 7.469-2.736 7.468-2.883 7.468-1.577 7.469-1.614 7.468-.013 7.469-3.819 7.468-.001 7.468-3.202 7.469-1.293 7.468-1.61 7.469-1.01 7.468-1.008 7.468-1.047 7.469-.804 7.468-1.332 7.468-1.021 7.469-.78 7.468-.707 7.469-.881 7.468-1.143 7.468-.947 7.469-1.364 7.468-1 7.468-.963 7.469-.858 7.468-.881 7.469-.878 7.468-.935 7.468-1.112 7.469-.817 7.468-.975 7.468-.711 7.469-.595" fill="none" stroke-linecap="square" stroke-width="1.5"/><g clip-path="url(#T)" fill="#d62728"><use x="43.277" xlink:href="#C" y="40954.6"/><use x="50.15" xlink:href="#C" y="549.833"/><use x="57.619" xlink:href="#C" y="536.617"/><use x="65.087" xlink:href="#C" y="536.617"/><use x="72.555" xlink:href="#C" y="536.617"/><use x="80.024" xlink:href="#C" y="528.885"/><use x="87.492" xlink:href="#C" y="528.885"/><use x="94.96" xlink:href="#C" y="523.4"/><use x="102.429" xlink:href="#C" y="519.145"/><use x="109.897" xlink:href="#C" y="519.145"/><use x="117.366" xlink:href="#C" y="505.928"/><use x="124.834" xlink:href="#C" y="490.046"/><use x="132.302" xlink:href="#C" y="484.98"/><use x="139.771" xlink:href="#C" y="477.677"/><use x="147.239" xlink:href="#C" y="471.138"/><use x="154.708" xlink:href="#C" y="463.821"/><use x="162.176" xlink:href="#C" y="461.459"/><use x="169.644" xlink:href="#C" y="453.301"/><use x="177.113" xlink:href="#C" y="452.942"/><use x="184.581" xlink:href="#C" y="434.75"/><use x="192.049" xlink:href="#C" y="428.504"/><use x="199.518" xlink:href="#C" y="423.679"/><use x="206.986" xlink:href="#C" y="417.369"/><use x="214.455" xlink:href="#C" y="413.515"/><use x="221.923" xlink:href="#C" y="410.121"/><use x="229.391" xlink:href="#C" y="406.428"/><use x="236.86" xlink:href="#C" y="400.554"/><use x="244.328" xlink:href="#C" y="397.233"/><use x="251.796" xlink:href="#C" y="394.537"/><use x="259.265" xlink:href="#C" y="389.311"/><use x="266.733" xlink:href="#C" y="387.494"/><use x="274.202" xlink:href="#C" y="384.289"/><use x="281.67" xlink:href="#C" y="381.457"/><use x="289.138" xlink:href="#C" y="379.616"/><use x="296.607" xlink:href="#C" y="376.881"/><use x="304.075" xlink:href="#C" y="373.998"/><use x="311.543" xlink:href="#C" y="372.421"/><use x="319.012" xlink:href="#C" y="370.807"/><use x="326.48" xlink:href="#C" y="370.794"/><use x="333.949" xlink:href="#C" y="366.975"/><use x="341.417" xlink:href="#C" y="366.974"/><use x="348.885" xlink:href="#C" y="363.772"/><use x="356.354" xlink:href="#C" y="362.479"/><use x="363.822" xlink:href="#C" y="360.87"/><use x="371.291" xlink:href="#C" y="359.86"/><use x="378.759" xlink:href="#C" y="358.851"/><use x="386.227" xlink:href="#C" y="357.804"/><use x="393.696" xlink:href="#C" y="357"/><use x="401.164" xlink:href="#C" y="355.668"/><use x="408.632" xlink:href="#C" y="354.647"/><use x="416.101" xlink:href="#C" y="353.866"/><use x="423.569" xlink:href="#C" y="353.16"/><use x="431.038" xlink:href="#C" y="352.279"/><use x="438.506" xlink:href="#C" y="351.136"/><use x="445.974" xlink:href="#C" y="350.189"/><use x="453.443" xlink:href="#C" y="348.825"/><use x="460.911" xlink:href="#C" y="347.825"/><use x="468.379" xlink:href="#C" y="346.862"/><use x="475.848" xlink:href="#C" y="346.004"/><use x="483.316" xlink:href="#C" y="345.123"/><use x="490.785" xlink:href="#C" y="344.245"/><use x="498.253" xlink:href="#C" y="343.31"/><use x="505.721" xlink:href="#C" y="342.198"/><use x="513.19" xlink:href="#C" y="341.381"/><use x="520.658" xlink:href="#C" y="340.406"/><use x="528.126" xlink:href="#C" y="339.695"/><use x="535.595" xlink:href="#C" y="339.1"/></g></g><g stroke="#9467bd"><path clip-path="url(#T)" d="M-1 502.324l6.34 7.859H20.277l7.468-2.246h7.468l7.469-2.009h7.468l7.469-12.239 7.468-3.643 7.468-6.297 7.469-7.731 7.468-2.94 7.468-6.56L102.43 463l7.468-1.168 7.469-6.226 7.468-3.925 7.468-3.897 7.469-4.842 7.468-3.628 7.469-4.382 7.468-5.207 7.468-4.255 7.469-1.56 7.468-4.492 7.468-4.033 7.469-2.85 7.468-3.57 7.469-4.712 7.468-3.517 7.468-3.137 7.469-5.028 7.468-3.4 7.468-1.686 7.469-2.649 7.468-3.802 7.469-2.656 7.468-2.577 7.468-2.584 7.469-2.063 7.468-1.27 7.468-3.001 7.469-1.199 7.468-1.5 7.469-1.602 7.468-.776 7.468-1.28 7.469-.555 7.468-.928 7.469-.893 7.468-1.095 7.468-.936 7.469-.65 7.468-.972 7.468-.817 7.469-.578 7.468-1.343 7.469-.985 7.468-.947 7.468-1.086 7.469-.836 7.468-.449 7.468-.533 7.469-.607 7.468-.486 7.469-1.047 7.468-.521 7.468-.701 7.469-.478 7.468-.559 7.468-.33 7.469-.858" fill="none" stroke-linecap="square" stroke-width="1.5"/><g clip-path="url(#T)" fill="#9467bd"><use x="-1" xlink:href="#D" y="502.324"/><use x="5.34" xlink:href="#D" y="510.183"/><use x="12.808" xlink:href="#D" y="510.183"/><use x="20.277" xlink:href="#D" y="510.183"/><use x="27.745" xlink:href="#D" y="507.937"/><use x="35.213" xlink:href="#D" y="507.937"/><use x="42.682" xlink:href="#D" y="505.928"/><use x="50.15" xlink:href="#D" y="505.928"/><use x="57.619" xlink:href="#D" y="493.689"/><use x="65.087" xlink:href="#D" y="490.046"/><use x="72.555" xlink:href="#D" y="483.749"/><use x="80.024" xlink:href="#D" y="476.018"/><use x="87.492" xlink:href="#D" y="473.079"/><use x="94.96" xlink:href="#D" y="466.517"/><use x="102.429" xlink:href="#D" y="463.001"/><use x="109.897" xlink:href="#D" y="461.833"/><use x="117.366" xlink:href="#D" y="455.607"/><use x="124.834" xlink:href="#D" y="451.682"/><use x="132.302" xlink:href="#D" y="447.785"/><use x="139.771" xlink:href="#D" y="442.943"/><use x="147.239" xlink:href="#D" y="439.315"/><use x="154.708" xlink:href="#D" y="434.933"/><use x="162.176" xlink:href="#D" y="429.726"/><use x="169.644" xlink:href="#D" y="425.471"/><use x="177.113" xlink:href="#D" y="423.91"/><use x="184.581" xlink:href="#D" y="419.419"/><use x="192.049" xlink:href="#D" y="415.386"/><use x="199.518" xlink:href="#D" y="412.537"/><use x="206.986" xlink:href="#D" y="408.966"/><use x="214.455" xlink:href="#D" y="404.254"/><use x="221.923" xlink:href="#D" y="400.737"/><use x="229.391" xlink:href="#D" y="397.6"/><use x="236.86" xlink:href="#D" y="392.572"/><use x="244.328" xlink:href="#D" y="389.173"/><use x="251.796" xlink:href="#D" y="387.486"/><use x="259.265" xlink:href="#D" y="384.837"/><use x="266.733" xlink:href="#D" y="381.035"/><use x="274.202" xlink:href="#D" y="378.379"/><use x="281.67" xlink:href="#D" y="375.802"/><use x="289.138" xlink:href="#D" y="373.218"/><use x="296.607" xlink:href="#D" y="371.155"/><use x="304.075" xlink:href="#D" y="369.884"/><use x="311.543" xlink:href="#D" y="366.884"/><use x="319.012" xlink:href="#D" y="365.685"/><use x="326.48" xlink:href="#D" y="364.185"/><use x="333.949" xlink:href="#D" y="362.583"/><use x="341.417" xlink:href="#D" y="361.807"/><use x="348.885" xlink:href="#D" y="360.526"/><use x="356.354" xlink:href="#D" y="359.972"/><use x="363.822" xlink:href="#D" y="359.044"/><use x="371.291" xlink:href="#D" y="358.151"/><use x="378.759" xlink:href="#D" y="357.056"/><use x="386.227" xlink:href="#D" y="356.12"/><use x="393.696" xlink:href="#D" y="355.471"/><use x="401.164" xlink:href="#D" y="354.498"/><use x="408.632" xlink:href="#D" y="353.681"/><use x="416.101" xlink:href="#D" y="353.103"/><use x="423.569" xlink:href="#D" y="351.76"/><use x="431.038" xlink:href="#D" y="350.775"/><use x="438.506" xlink:href="#D" y="349.828"/><use x="445.974" xlink:href="#D" y="348.742"/><use x="453.443" xlink:href="#D" y="347.906"/><use x="460.911" xlink:href="#D" y="347.457"/><use x="468.379" xlink:href="#D" y="346.924"/><use x="475.848" xlink:href="#D" y="346.317"/><use x="483.316" xlink:href="#D" y="345.831"/><use x="490.785" xlink:href="#D" y="344.784"/><use x="498.253" xlink:href="#D" y="344.263"/><use x="505.721" xlink:href="#D" y="343.562"/><use x="513.19" xlink:href="#D" y="343.084"/><use x="520.658" xlink:href="#D" y="342.525"/><use x="528.126" xlink:href="#D" y="342.196"/><use x="535.595" xlink:href="#D" y="341.337"/></g></g><g fill="none" stroke-dasharray="1.5 2.475" stroke-width="1.5"><path clip-path="url(#T)" d="M535.595 309.61l7.468-.152 7.469-.152 7.468-.152" stroke="#1f77b4"/><path clip-path="url(#T)" d="M535.595 326.46l7.468-.319 7.469-.32 7.468-.319" stroke="#ff7f0e"/><path clip-path="url(#T)" d="M535.595 338.213l7.468-.337 7.469-.336 7.468-.337" stroke="#2ca02c"/><path clip-path="url(#T)" d="M535.595 339.1l7.468-.718 7.469-.718 7.468-.717" stroke="#d62728"/><path clip-path="url(#T)" d="M535.595 341.337l7.468-.605 7.469-.606 7.468-.605" stroke="#9467bd"/></g></g><g fill="none" stroke="#000" stroke-linecap="square" stroke-linejoin="miter" stroke-width=".8"><path d="M50.15 505.928V297.12M558 505.928V297.12M50.15 505.928H558M50.15 297.12H558"/></g><g><path d="M330.316 500.928H551q2 0 2-2v-72.39q0-2-2-2H330.316q-2 0-2 2v72.39q0 2 2 2z" fill="#fff" opacity=".8" stroke="#ccc" stroke-linejoin="miter"/><path d="M332.316 432.636h20" fill="none" stroke="#1f77b4" stroke-linecap="square" stroke-width="1.5"/><use fill="#1f77b4" stroke="#1f77b4" x="342.316" xlink:href="#A" y="432.636"/><g transform="matrix(.1 0 0 -.1 360.316 436.136)"><use xlink:href="#U"/><use x="74.805" xlink:href="#z"/><use x="136.328" xlink:href="#x"/><path d="M249.7 72.906h10.609l20.203-29.984 20.078 29.984h10.594L285.402 34.72V0h-9.906v34.719z"/><use x="310.783" xlink:href="#u"/><use x="371.965" xlink:href="#e"/><path d="M422.156 75.984h9.031V31.11L458 54.687h11.469l-29-25.578L470.703 0h-11.719l-27.796 26.703V0h-9.032z"/></g><path d="M332.316 447.314h20" fill="none" stroke="#ff7f0e" stroke-linecap="square" stroke-width="1.5"/><use fill="#ff7f0e" stroke="#ff7f0e" x="342.316" xlink:href="#B" y="447.314"/><g transform="matrix(.1 0 0 -.1 360.316 450.814)"><use xlink:href="#U"/><use x="74.805" xlink:href="#z"/><use x="136.328" xlink:href="#x"/><path d="M259.715 72.906h9.86V5.078q0-13.187-5-19.14-5-5.954-16.095-5.954h-3.75v8.297h3.079q6.53 0 9.218 3.672 2.688 3.656 2.688 13.125z"/><use x="279.395" xlink:href="#z"/><use x="340.918" xlink:href="#e"/><use x="382.031" xlink:href="#J"/><use x="434.131" xlink:href="#z"/><use x="495.654" xlink:href="#j"/></g><path d="M332.316 461.992h20" fill="none" stroke="#2ca02c" stroke-linecap="square" stroke-width="1.5"/><g transform="matrix(.1 0 0 -.1 360.316 465.492)"><use xlink:href="#c"/><use x="86.279" xlink:href="#d"/><use x="147.559" xlink:href="#J"/><use x="199.658" xlink:href="#J"/><use x="251.758" xlink:href="#d"/><use x="313.037" xlink:href="#E"/><path d="M422.908 33.016V0h-8.984v32.719q0 7.765-3.031 11.61-3.032 3.858-9.079 3.858-7.28 0-11.484-4.64-4.203-4.625-4.203-12.64V0h-9.031v75.984h9.031V46.188q3.234 4.937 7.594 7.374Q398.096 56 403.814 56q9.422 0 14.25-5.828 4.844-5.828 4.844-17.156z"/><use x="431.396" xlink:href="#O"/><use x="494.775" xlink:href="#J"/><use x="546.875" xlink:href="#z"/><use x="608.398" xlink:href="#F"/><use x="647.607" xlink:href="#F"/><use x="686.816" xlink:href="#J"/><use x="770.703" xlink:href="#N"/><use x="809.717" xlink:href="#w"/><use x="873.193" xlink:href="#u"/><use x="934.375" xlink:href="#O"/><use x="997.754" xlink:href="#P"/><use x="1061.23" xlink:href="#v"/><use x="1089.014" xlink:href="#z"/><use x="1150.537" xlink:href="#J"/><use x="1234.424" xlink:href="#y"/><use x="1262.207" xlink:href="#Q"/><use x="1357.373" xlink:href="#o"/><use x="1420.996" xlink:href="#l"/><use x="1484.619" xlink:href="#R"/><use x="1516.406" xlink:href="#o"/><use x="1611.816" xlink:href="#w"/><use x="1675.293" xlink:href="#d"/><use x="1736.572" xlink:href="#j"/><use x="1795.752" xlink:href="#J"/><use x="1847.852" xlink:href="#S"/></g><path d="M332.316 476.67h20" fill="none" stroke="#d62728" stroke-linecap="square" stroke-width="1.5"/><use fill="#d62728" stroke="#d62728" x="342.316" xlink:href="#C" y="476.67"/><g transform="matrix(.1 0 0 -.1 360.316 480.17)"><use xlink:href="#H"/><use x="29.492" xlink:href="#v"/><use x="57.275" xlink:href="#v"/><use x="85.059" xlink:href="#y"/><use x="112.842" xlink:href="#Q"/><use x="176.221" xlink:href="#u"/><use x="237.402" xlink:href="#y"/><use x="265.186" xlink:href="#J"/><use x="349.072" xlink:href="#N"/><use x="388.086" xlink:href="#w"/><use x="451.563" xlink:href="#u"/><use x="512.744" xlink:href="#O"/><use x="576.123" xlink:href="#P"/><use x="639.6" xlink:href="#v"/><use x="667.383" xlink:href="#z"/><use x="728.906" xlink:href="#J"/><use x="812.793" xlink:href="#y"/><use x="840.576" xlink:href="#Q"/><use x="935.742" xlink:href="#m"/><use x="999.365" xlink:href="#V"/><use x="1062.988" xlink:href="#R"/><use x="1094.775" xlink:href="#q"/><use x="1190.186" xlink:href="#w"/><use x="1253.662" xlink:href="#d"/><use x="1314.941" xlink:href="#j"/><use x="1374.121" xlink:href="#J"/><use x="1426.221" xlink:href="#S"/></g><path d="M332.316 491.348h20" fill="none" stroke="#9467bd" stroke-linecap="square" stroke-width="1.5"/><use fill="#9467bd" stroke="#9467bd" x="342.316" xlink:href="#D" y="491.348"/><g transform="matrix(.1 0 0 -.1 360.316 494.848)"><use xlink:href="#G"/><use x="69.824" xlink:href="#d"/><use x="131.104" xlink:href="#v"/><use x="158.887" xlink:href="#y"/><use x="186.67" xlink:href="#K"/><use x="221.875" xlink:href="#u"/><use x="283.057" xlink:href="#e"/><use x="324.154" xlink:href="#Q"/><use x="387.533" xlink:href="#y"/><use x="415.316" xlink:href="#d"/><use x="508.383" xlink:href="#N"/><use x="547.396" xlink:href="#w"/><use x="610.873" xlink:href="#u"/><use x="672.055" xlink:href="#O"/><use x="735.434" xlink:href="#P"/><use x="798.91" xlink:href="#v"/><use x="826.693" xlink:href="#z"/><use x="888.217" xlink:href="#J"/><use x="972.104" xlink:href="#y"/><use x="999.887" xlink:href="#Q"/><use x="1095.053" xlink:href="#f"/><use x="1158.676" xlink:href="#m"/><use x="1222.299" xlink:href="#R"/><use x="1254.086" xlink:href="#V"/><use x="1349.496" xlink:href="#w"/><use x="1412.973" xlink:href="#d"/><use x="1474.252" xlink:href="#j"/><use x="1533.432" xlink:href="#J"/><use x="1585.531" xlink:href="#S"/></g></g></svg>