<svg height="758.4" stroke-linejoin="round" viewBox="0 0 568.8 568.8" width="758.4" xmlns="http://www.w3.org/2000/svg" xmlns:xlink="http://www.w3.org/1999/xlink"><defs><path id="w" d="M9.422 54.688h8.984V0H9.422zm0 21.296h8.984v-11.39H9.422z" stroke-linejoin="round"/><path id="U" d="M9.813 72.906h13.28l32.329-60.984v60.984h9.562V0h-13.28L19.39 60.984V0H9.813z" stroke-linejoin="round"/><path id="b" d="M0 0v3.5" stroke="#000" stroke-linejoin="round" stroke-width=".8"/><path id="c" d="M9.813 72.906h14.703l18.593-49.61 18.703 49.61h14.704V0H66.89v64.016l-18.797-50h-9.907l-18.796 50V0H9.813z" stroke-linejoin="round"/><path id="d" d="M34.281 27.484q-10.89 0-15.093-2.484-4.204-2.484-4.204-8.5 0-4.781 3.157-7.594 3.156-2.797 8.562-2.797 7.485 0 12 5.297 4.516 5.297 4.516 14.078v2zm17.922 3.72V0H43.22v8.297Q40.14 3.328 35.547.953q-4.594-2.375-11.234-2.375-8.391 0-13.36 4.719Q6 8.016 6 15.922q0 9.219 6.172 13.906 6.187 4.688 18.437 4.688h12.61v.89q0 6.203-4.078 9.594-4.078 3.39-11.453 3.39-4.688 0-9.141-1.124-4.438-1.125-8.531-3.375v8.312q4.921 1.906 9.562 2.844 4.64.953 9.031.953 11.875 0 17.735-6.156 5.86-6.14 5.86-18.64z" stroke-linejoin="round"/><path id="e" d="M41.11 46.297q-1.516.875-3.297 1.281Q36.03 48 33.89 48q-7.625 0-11.703-4.953-4.079-4.953-4.079-14.234V0H9.08v54.688h9.03v-8.5q2.844 4.984 7.375 7.39Q30.031 56 36.531 56q.922 0 2.047-.125 1.125-.11 2.484-.36z" stroke-linejoin="round"/><path id="f" d="M19.188 8.297h34.421V0H7.33v8.297q5.609 5.812 15.296 15.594 9.703 9.797 12.188 12.64 4.734 5.313 6.609 9 1.89 3.688 1.89 7.25 0 5.813-4.078 9.469-4.078 3.672-10.625 3.672-4.64 0-9.797-1.61-5.14-1.609-11-4.89v9.969Q13.767 71.78 18.938 73q5.188 1.219 9.485 1.219 11.328 0 18.062-5.672 6.735-5.656 6.735-15.125 0-4.5-1.688-8.531-1.672-4.016-6.125-9.485-1.218-1.422-7.765-8.187-6.532-6.766-18.453-18.922z" stroke-linejoin="round"/><path id="g" d="M31.781 66.406q-7.61 0-11.453-7.5Q16.5 51.422 16.5 36.375q0-14.984 3.828-22.484 3.844-7.5 11.453-7.5 7.672 0 11.5 7.5 3.844 7.5 3.844 22.484 0 15.047-3.844 22.531-3.828 7.5-11.5 7.5zm0 7.813q12.266 0 18.735-9.703 6.468-9.688 6.468-28.141 0-18.406-6.468-28.11-6.47-9.687-18.735-9.687-12.25 0-18.718 9.688-6.47 9.703-6.47 28.109 0 18.453 6.47 28.14Q19.53 74.22 31.78 74.22z" stroke-linejoin="round"/><path id="h" d="M34.188 63.188L20.797 26.906h26.812zm-5.579 9.718h11.188L67.578 0h-10.25l-6.64 18.703h-32.86L11.188 0H.78z" stroke-linejoin="round"/><path id="i" d="M18.11 8.203v-29H9.077v75.484h9.031v-8.296q2.844 4.875 7.157 7.234Q29.594 56 35.594 56q9.968 0 16.187-7.906 6.235-7.907 6.235-20.797T51.78 6.484q-6.218-7.906-16.187-7.906-6 0-10.328 2.375-4.313 2.375-7.157 7.25zm30.578 19.094q0 9.906-4.079 15.547-4.078 5.64-11.203 5.64-7.14 0-11.218-5.64-4.079-5.64-4.079-15.547 0-9.906 4.078-15.547 4.079-5.64 11.22-5.64 7.124 0 11.202 5.64t4.078 15.547z" stroke-linejoin="round"/><path id="j" d="M0 0v2" stroke="#000" stroke-linejoin="round" stroke-width=".6"/><path id="k" d="M10.984 1.516V10.5q3.72-1.766 7.516-2.688 3.813-.921 7.484-.921 9.766 0 14.907 6.562 5.156 6.563 5.89 19.953-2.828-4.203-7.187-6.453-4.344-2.25-9.61-2.25-10.937 0-17.312 6.61-6.375 6.625-6.375 18.109 0 11.219 6.64 18 6.641 6.797 17.672 6.797 12.657 0 19.313-9.703 6.672-9.688 6.672-28.141 0-17.234-8.188-27.516Q40.234-1.42 26.422-1.42q-3.719 0-7.531.734-3.797.734-7.907 2.203zM30.61 32.422q6.641 0 10.516 4.531 3.89 4.547 3.89 12.469 0 7.86-3.89 12.422-3.875 4.562-10.516 4.562-6.64 0-10.515-4.562-3.875-4.563-3.875-12.422 0-7.922 3.875-12.469 3.875-4.531 10.515-4.531z" stroke-linejoin="round"/><path id="l" d="M12.406 8.297h16.11v55.625l-17.532-3.516v8.985l17.438 3.515h9.86V8.296H54.39V0H12.406z" stroke-linejoin="round"/><path id="m" d="M33.016 40.375q-6.641 0-10.532-4.547-3.875-4.531-3.875-12.437 0-7.86 3.875-12.438 3.891-4.562 10.532-4.562 6.64 0 10.515 4.562 3.875 4.578 3.875 12.438 0 7.906-3.875 12.437-3.875 4.547-10.515 4.547zm19.578 30.922v-8.984q-3.719 1.75-7.5 2.671-3.782.938-7.5.938-9.766 0-14.922-6.594-5.14-6.594-5.875-19.922 2.875 4.25 7.219 6.516 4.359 2.266 9.578 2.266 10.984 0 17.36-6.672 6.374-6.657 6.374-18.125 0-11.235-6.64-18.032-6.641-6.78-17.672-6.78-12.657 0-19.344 9.687-6.688 9.703-6.688 28.109 0 17.281 8.204 27.563 8.203 10.28 22.015 10.28 3.719 0 7.5-.734t7.89-2.187z" stroke-linejoin="round"/><path id="n" d="M40.578 39.313Q47.656 37.797 51.625 33q3.984-4.781 3.984-11.813 0-10.78-7.422-16.703-7.421-5.906-21.093-5.906-4.578 0-9.438.906-4.86.907-10.031 2.72v9.515q4.094-2.39 8.969-3.61 4.89-1.218 10.218-1.218 9.266 0 14.125 3.656 4.86 3.656 4.86 10.64 0 6.454-4.516 10.079-4.515 3.64-12.562 3.64h-8.5v8.11h8.89q7.266 0 11.125 2.906 3.86 2.906 3.86 8.375 0 5.61-3.985 8.61-3.968 3.015-11.39 3.015-4.063 0-8.703-.89-4.641-.876-10.203-2.72v8.782q5.624 1.562 10.53 2.344 4.907.78 9.25.78 11.235 0 17.766-5.109 6.547-5.093 6.547-13.78 0-6.063-3.468-10.235-3.47-4.172-9.86-5.782z" stroke-linejoin="round"/><path id="o" d="M8.203 72.906h46.875v-4.203L28.61 0H18.312L43.22 64.594H8.203z" stroke-linejoin="round"/><path id="p" d="M0 0h-3.5" stroke="#000" stroke-linejoin="round" stroke-width=".8"/><path id="q" d="M37.797 64.313L12.89 25.39h24.906zm-2.594 8.593H47.61V25.391h10.407v-8.203H47.609V0h-9.812v17.188H4.89v9.515z" stroke-linejoin="round"/><path id="r" d="M31.781 34.625q-7.031 0-11.062-3.766-4.016-3.765-4.016-10.343 0-6.594 4.016-10.36Q24.75 6.391 31.78 6.391q7.032 0 11.078 3.78 4.063 3.798 4.063 10.345 0 6.578-4.031 10.343-4.016 3.766-11.11 3.766zm-9.86 4.188q-6.343 1.562-9.89 5.906Q8.5 49.079 8.5 55.329q0 8.733 6.219 13.812 6.234 5.078 17.062 5.078 10.89 0 17.094-5.078 6.203-5.079 6.203-13.813 0-6.25-3.547-10.61-3.531-4.343-9.828-5.906 7.125-1.656 11.094-6.5 3.984-4.828 3.984-11.796 0-10.61-6.468-16.282-6.47-5.656-18.532-5.656-12.047 0-18.531 5.656-6.469 5.672-6.469 16.282 0 6.968 4 11.797 4.016 4.843 11.14 6.5zM18.314 54.39q0-5.657 3.53-8.828 3.548-3.172 9.938-3.172 6.36 0 9.938 3.172 3.593 3.171 3.593 8.828 0 5.672-3.593 8.843-3.578 3.172-9.938 3.172-6.39 0-9.937-3.172-3.532-3.172-3.532-8.843z" stroke-linejoin="round"/><path id="s" d="M30.61 48.39q-7.22 0-11.422-5.64-4.204-5.64-4.204-15.453 0-9.813 4.172-15.453 4.188-5.64 11.453-5.64 7.188 0 11.375 5.655 4.203 5.672 4.203 15.438 0 9.719-4.203 15.406-4.187 5.688-11.375 5.688zm0 7.61q11.718 0 18.406-7.625 6.703-7.61 6.703-21.078 0-13.422-6.703-21.078-6.688-7.64-18.407-7.64-11.765 0-18.437 7.64-6.656 7.656-6.656 21.078 0 13.469 6.656 21.078Q18.844 56 30.609 56z" stroke-linejoin="round"/><path id="t" d="M9.422 75.984h8.984V0H9.422z" stroke-linejoin="round"/><path id="u" d="M45.406 46.39v29.594h8.985V0h-8.985v8.203Q42.578 3.328 38.25.953q-4.313-2.375-10.375-2.375-9.906 0-16.14 7.906-6.22 7.922-6.22 20.813 0 12.89 6.22 20.797Q17.968 56 27.874 56q6.063 0 10.375-2.375 4.328-2.36 7.156-7.234zm-30.61-19.093q0-9.906 4.079-15.547 4.078-5.64 11.203-5.64 7.125 0 11.219 5.64 4.11 5.64 4.11 15.547 0 9.906-4.11 15.547-4.094 5.64-11.219 5.64-7.125 0-11.203-5.64-4.078-5.64-4.078-15.547z" stroke-linejoin="round"/><path id="v" d="M4.203 54.688h8.985l11.234-42.672 11.172 42.672h10.593l11.235-42.672 11.187 42.672h8.985L63.28 0H52.688L40.922 44.828 29.109 0H18.5z" stroke-linejoin="round"/><path id="S" d="M8.016 75.875h7.812q7.313-11.516 10.953-22.563 3.64-11.03 3.64-21.921 0-10.938-3.64-22.016-3.64-11.078-10.953-22.563H8.016Q14.5-2 17.703 9.063q3.203 11.063 3.203 22.329 0 11.28-3.203 22.265-3.203 11-9.687 22.219z" stroke-linejoin="round"/><path id="x" d="M56.203 29.594v-4.39H14.891q.593-9.282 5.593-14.142 5-4.859 13.938-4.859 5.172 0 10.031 1.266 4.86 1.265 9.656 3.812v-8.5Q49.266.734 44.187-.344 39.11-1.422 33.892-1.422q-13.094 0-20.735 7.61-7.64 7.625-7.64 20.625 0 13.421 7.25 21.296Q20.016 56 32.328 56q11.031 0 17.453-7.11 6.422-7.093 6.422-19.296zm-8.984 2.64q-.094 7.36-4.125 11.75-4.032 4.407-10.672 4.407-7.516 0-12.031-4.25-4.516-4.25-5.203-11.97z" stroke-linejoin="round"/><path id="y" d="M-3 0h6M0 3v-6" stroke="#1f77b4" stroke-linejoin="round"/><path id="z" d="M0 1.5a1.5 1.5 0 100-3 1.5 1.5 0 000 3z" stroke="#ff7f0e" stroke-linejoin="round"/><path id="A" d="M-3 0h6M0 3v-6" stroke="#d62728" stroke-linejoin="round"/><path id="B" d="M0 1.5a1.5 1.5 0 100-3 1.5 1.5 0 000 3z" stroke="#9467bd" stroke-linejoin="round"/><path id="C" d="M48.781 52.594v-8.407q-3.812 2.11-7.64 3.157-3.828 1.047-7.735 1.047-8.75 0-13.593-5.547-4.829-5.532-4.829-15.547 0-10.016 4.829-15.563 4.843-5.53 13.593-5.53 3.907 0 7.735 1.046 3.828 1.047 7.64 3.156V2.094Q45.016.344 40.984-.531q-4.015-.89-8.562-.89-12.36 0-19.64 7.765-7.266 7.765-7.266 20.953 0 13.375 7.343 21.031Q20.22 56 33.016 56q4.14 0 8.093-.86 3.953-.843 7.672-2.546z" stroke-linejoin="round"/><path id="D" d="M18.313 70.219V54.688h18.5v-6.985h-18.5V18.016q0-6.688 1.828-8.594 1.828-1.906 7.453-1.906h9.218V0h-9.218q-10.407 0-14.36 3.875-3.953 3.89-3.953 14.14v29.688H2.687v6.984h6.594V70.22z" stroke-linejoin="round"/><path id="E" d="M64.406 67.281v-10.39q-4.984 4.64-10.625 6.922-5.64 2.296-11.984 2.296-12.5 0-19.14-7.64-6.641-7.64-6.641-22.094 0-14.406 6.64-22.047 6.64-7.64 19.14-7.64 6.345 0 11.985 2.296 5.64 2.297 10.625 6.938V5.609Q59.234 2.094 53.437.33q-5.78-1.75-12.218-1.75-16.563 0-26.094 10.124-9.516 10.14-9.516 27.672 0 17.578 9.516 27.703 9.531 10.14 26.094 10.14 6.531 0 12.312-1.734 5.797-1.734 10.875-5.203z" stroke-linejoin="round"/><path id="F" d="M9.813 72.906h9.859V0h-9.86z" stroke-linejoin="round"/><path id="G" d="M4.89 31.39h26.313v-8H4.891z" stroke-linejoin="round"/><path id="H" d="M44.281 53.078v-8.5q-3.797 1.953-7.906 2.922-4.094.984-8.5.984-6.688 0-10.031-2.047-3.344-2.046-3.344-6.156 0-3.125 2.39-4.906 2.391-1.781 9.626-3.39l3.078-.688q9.562-2.047 13.593-5.781 4.032-3.735 4.032-10.422 0-7.625-6.032-12.078-6.03-4.438-16.578-4.438-4.39 0-9.156.86Q10.688.296 5.422 2v9.281q4.984-2.594 9.812-3.89 4.829-1.282 9.579-1.282 6.343 0 9.75 2.172 3.421 2.172 3.421 6.125 0 3.656-2.468 5.61-2.453 1.953-10.813 3.765l-3.125.735q-8.344 1.75-12.062 5.39-3.704 3.64-3.704 9.985 0 7.718 5.47 11.906Q16.75 56 26.811 56q4.97 0 9.36-.734 4.406-.72 8.11-2.188z" stroke-linejoin="round"/><path id="I" d="M37.11 75.984V68.5h-8.594q-4.828 0-6.72-1.953-1.874-1.953-1.874-7.031v-4.828h14.797v-6.985H19.922V0H10.89v47.703H2.297v6.984h8.594V58.5q0 9.125 4.25 13.297 4.25 4.187 13.468 4.187z" stroke-linejoin="round"/><path id="J" d="M10.797 72.906h38.719v-8.312H19.828v-17.86q2.14.735 4.281 1.094 2.157.36 4.313.36 12.203 0 19.328-6.688 7.14-6.688 7.14-18.11 0-11.765-7.328-18.296-7.328-6.516-20.656-6.516-4.593 0-9.36.781-4.75.782-9.827 2.344v9.922q4.39-2.39 9.078-3.563 4.687-1.171 9.906-1.171 8.453 0 13.375 4.437 4.938 4.438 4.938 12.063 0 7.609-4.938 12.047-4.922 4.453-13.375 4.453-3.953 0-7.89-.875-3.922-.875-8.016-2.735z" stroke-linejoin="round"/><path id="K" d="M8.688 72.906h9.921V28.61q0-11.718 4.235-16.875 4.25-5.14 13.781-5.14 9.469 0 13.719 5.14 4.25 5.157 4.25 16.875v44.297H64.5V27.391q0-14.25-7.063-21.532-7.046-7.28-20.812-7.28-13.828 0-20.89 7.28-7.047 7.282-7.047 21.532z" stroke-linejoin="round"/><path id="L" d="M53.516 70.516V60.89q-5.61 2.687-10.594 4-4.984 1.328-9.625 1.328-8.047 0-12.422-3.125t-4.375-8.89q0-4.845 2.906-7.313 2.907-2.453 11.016-3.97l5.953-1.218q11.031-2.11 16.281-7.406 5.25-5.297 5.25-14.172 0-10.61-7.11-16.078-7.093-5.469-20.812-5.469-5.172 0-11.015 1.172Q13.14.922 6.89 3.219v10.156q6-3.36 11.765-5.078 5.766-1.703 11.328-1.703 8.438 0 13.032 3.312 4.593 3.328 4.593 9.485 0 5.359-3.297 8.39-3.296 3.032-10.812 4.547L27.484 33.5q-11.03 2.188-15.968 6.875-4.922 4.688-4.922 13.047 0 9.672 6.812 15.234 6.813 5.563 18.766 5.563 5.14 0 10.453-.938 5.328-.922 10.89-2.765z" stroke-linejoin="round"/><path id="M" d="M31 75.875q-6.531-11.219-9.719-22.219-3.172-10.984-3.172-22.265 0-11.266 3.203-22.328Q24.517-2 31-13.188h-7.813Q15.875-1.704 12.235 9.375q-3.64 11.078-3.64 22.016 0 10.89 3.61 21.922 3.624 11.046 10.983 22.562z" stroke-linejoin="round"/><path id="N" d="M8.5 21.578v33.11h8.984V21.922q0-7.766 3.016-11.656 3.031-3.875 9.094-3.875 7.265 0 11.484 4.64 4.234 4.64 4.234 12.656v31h8.985V0h-8.984v8.406Q42.047 3.422 37.718 1q-4.313-2.422-10.032-2.422-9.421 0-14.312 5.86Q8.5 10.296 8.5 21.578z" stroke-linejoin="round"/><path id="O" d="M48.688 27.297q0 9.906-4.079 15.547-4.078 5.64-11.203 5.64-7.14 0-11.218-5.64-4.079-5.64-4.079-15.547 0-9.906 4.078-15.547 4.079-5.64 11.22-5.64 7.124 0 11.202 5.64t4.078 15.547zM18.108 46.39q2.844 4.875 7.157 7.234Q29.594 56 35.594 56q9.968 0 16.187-7.906 6.235-7.907 6.235-20.797T51.78 6.484q-6.218-7.906-16.187-7.906-6 0-10.328 2.375-4.313 2.375-7.157 7.25V0H9.08v75.984h9.03z" stroke-linejoin="round"/><path id="P" d="M54.89 33.016V0h-8.984v32.719q0 7.765-3.031 11.61-3.031 3.858-9.078 3.858-7.281 0-11.484-4.64-4.204-4.625-4.204-12.64V0H9.08v54.688h9.03v-8.5q3.235 4.937 7.594 7.374Q30.078 56 35.797 56q9.422 0 14.25-5.828 4.844-5.828 4.844-17.156z" stroke-linejoin="round"/><path id="Q" d="M10.688 12.406H21V0H10.687z" stroke-linejoin="round"/><path id="R" d="M32.172-5.078q-3.797-9.766-7.422-12.735-3.61-2.984-9.656-2.984H7.906v7.516h5.282q3.703 0 5.75 1.765Q21-9.766 23.483-3.219l1.61 4.094-22.11 53.813H12.5l17.094-42.766 17.093 42.766h9.516z" stroke-linejoin="round"/><clipPath id="T" stroke-linejoin="round"><path d="M70.22 297.12H558v208.808H70.22z"/></clipPath><clipPath id="a" stroke-linejoin="round"><path d="M70.22 25.44H558v208.808H70.22z"/></clipPath></defs><path d="M0 568.8h568.8V0H0z" fill="#fff"/><path d="M70.22 234.248H558V25.44H70.22z" fill="#fff"/><path clip-path="url(#a)" d="M70.22 234.248V25.44" fill="none" stroke="#b0b0b0" stroke-linecap="square" stroke-width=".8"/><use stroke="#000" stroke-width=".8" x="70.22" xlink:href="#b" y="234.248"/><g transform="matrix(.1 0 0 -.1 60.786 271.242)"><use xlink:href="#c"/><use x="86.279" xlink:href="#d"/><use x="147.559" xlink:href="#e"/></g><g transform="matrix(.1 0 0 -.1 57.495 282.44)"><use xlink:href="#f"/><use x="63.623" xlink:href="#g"/><use x="127.246" xlink:href="#f"/><use x="190.869" xlink:href="#g"/></g><path clip-path="url(#a)" d="M330.93 234.248V25.44" fill="none" stroke="#b0b0b0" stroke-linecap="square" stroke-width=".8"/><use stroke="#000" stroke-width=".8" x="330.93" xlink:href="#b" y="234.248"/><g transform="matrix(.1 0 0 -.1 322.28 271.242)"><use xlink:href="#h"/><use x="68.408" xlink:href="#i"/><use x="131.885" xlink:href="#e"/></g><g stroke-width=".8"><path clip-path="url(#a)" d="M558 234.248V25.44" fill="none" stroke="#b0b0b0" stroke-linecap="square"/><use stroke="#000" x="558" xlink:href="#b" y="234.248"/></g><use stroke="#000" stroke-width=".6" x="78.63" xlink:href="#j" y="234.248"/><g transform="matrix(.1 0 0 -.1 72.267 247.246)"><use xlink:href="#g"/><use x="63.623" xlink:href="#f"/></g><g stroke="#000" stroke-width=".6"><use x="87.04" xlink:href="#j" y="234.248"/><use x="95.45" xlink:href="#j" y="234.248"/><use x="103.86" xlink:href="#j" y="234.248"/><use x="112.27" xlink:href="#j" y="234.248"/><use x="120.68" xlink:href="#j" y="234.248"/><use x="129.09" xlink:href="#j" y="234.248"/></g><use stroke="#000" stroke-width=".6" x="137.5" xlink:href="#j" y="234.248"/><g transform="matrix(.1 0 0 -.1 131.137 247.246)"><use xlink:href="#g"/><use x="63.623" xlink:href="#k"/></g><use stroke="#000" stroke-width=".6" x="145.91" xlink:href="#j" y="234.248"/><use stroke="#000" stroke-width=".6" x="154.32" xlink:href="#j" y="234.248"/><use stroke="#000" stroke-width=".6" x="162.73" xlink:href="#j" y="234.248"/><use stroke="#000" stroke-width=".6" x="171.14" xlink:href="#j" y="234.248"/><use stroke="#000" stroke-width=".6" x="179.55" xlink:href="#j" y="234.248"/><use stroke="#000" stroke-width=".6" x="187.96" xlink:href="#j" y="234.248"/><use stroke="#000" stroke-width=".6" x="196.37" xlink:href="#j" y="234.248"/><g transform="matrix(.1 0 0 -.1 190.007 247.246)"><use xlink:href="#l"/><use x="63.623" xlink:href="#m"/></g><use stroke="#000" stroke-width=".6" x="204.78" xlink:href="#j" y="234.248"/><use stroke="#000" stroke-width=".6" x="213.19" xlink:href="#j" y="234.248"/><use stroke="#000" stroke-width=".6" x="221.6" xlink:href="#j" y="234.248"/><use stroke="#000" stroke-width=".6" x="230.01" xlink:href="#j" y="234.248"/><use stroke="#000" stroke-width=".6" x="238.42" xlink:href="#j" y="234.248"/><use stroke="#000" stroke-width=".6" x="246.83" xlink:href="#j" y="234.248"/><use stroke="#000" stroke-width=".6" x="255.24" xlink:href="#j" y="234.248"/><g transform="matrix(.1 0 0 -.1 248.877 247.246)"><use xlink:href="#f"/><use x="63.623" xlink:href="#n"/></g><use stroke="#000" stroke-width=".6" x="263.65" xlink:href="#j" y="234.248"/><use stroke="#000" stroke-width=".6" x="272.06" xlink:href="#j" y="234.248"/><use stroke="#000" stroke-width=".6" x="280.47" xlink:href="#j" y="234.248"/><use stroke="#000" stroke-width=".6" x="288.88" xlink:href="#j" y="234.248"/><use stroke="#000" stroke-width=".6" x="297.29" xlink:href="#j" y="234.248"/><use stroke="#000" stroke-width=".6" x="305.7" xlink:href="#j" y="234.248"/><use stroke="#000" stroke-width=".6" x="314.11" xlink:href="#j" y="234.248"/><g transform="matrix(.1 0 0 -.1 307.748 247.246)"><use xlink:href="#n"/><use x="63.623" xlink:href="#g"/></g><use stroke="#000" stroke-width=".6" x="322.52" xlink:href="#j" y="234.248"/><use stroke="#000" stroke-width=".6" x="339.34" xlink:href="#j" y="234.248"/><use stroke="#000" stroke-width=".6" x="347.75" xlink:href="#j" y="234.248"/><use stroke="#000" stroke-width=".6" x="356.16" xlink:href="#j" y="234.248"/><use stroke="#000" stroke-width=".6" x="364.57" xlink:href="#j" y="234.248"/><use stroke="#000" stroke-width=".6" x="372.98" xlink:href="#j" y="234.248"/><g transform="matrix(.1 0 0 -.1 366.618 247.246)"><use xlink:href="#g"/><use x="63.623" xlink:href="#m"/></g><use stroke="#000" stroke-width=".6" x="381.39" xlink:href="#j" y="234.248"/><use stroke="#000" stroke-width=".6" x="389.8" xlink:href="#j" y="234.248"/><use stroke="#000" stroke-width=".6" x="398.21" xlink:href="#j" y="234.248"/><use stroke="#000" stroke-width=".6" x="406.62" xlink:href="#j" y="234.248"/><use stroke="#000" stroke-width=".6" x="415.03" xlink:href="#j" y="234.248"/><use stroke="#000" stroke-width=".6" x="423.44" xlink:href="#j" y="234.248"/><use stroke="#000" stroke-width=".6" x="431.85" xlink:href="#j" y="234.248"/><g transform="matrix(.1 0 0 -.1 425.488 247.246)"><use xlink:href="#l"/><use x="63.623" xlink:href="#n"/></g><use stroke="#000" stroke-width=".6" x="440.26" xlink:href="#j" y="234.248"/><use stroke="#000" stroke-width=".6" x="448.67" xlink:href="#j" y="234.248"/><use stroke="#000" stroke-width=".6" x="457.08" xlink:href="#j" y="234.248"/><use stroke="#000" stroke-width=".6" x="465.49" xlink:href="#j" y="234.248"/><use stroke="#000" stroke-width=".6" x="473.9" xlink:href="#j" y="234.248"/><use stroke="#000" stroke-width=".6" x="482.31" xlink:href="#j" y="234.248"/><g><use stroke="#000" stroke-width=".6" x="490.72" xlink:href="#j" y="234.248"/><g transform="matrix(.1 0 0 -.1 484.358 247.246)"><use xlink:href="#f"/><use x="63.623" xlink:href="#g"/></g></g><use stroke="#000" stroke-width=".6" x="499.13" xlink:href="#j" y="234.248"/><use stroke="#000" stroke-width=".6" x="507.54" xlink:href="#j" y="234.248"/><use stroke="#000" stroke-width=".6" x="515.95" xlink:href="#j" y="234.248"/><use stroke="#000" stroke-width=".6" x="524.36" xlink:href="#j" y="234.248"/><use stroke="#000" stroke-width=".6" x="532.77" xlink:href="#j" y="234.248"/><use stroke="#000" stroke-width=".6" x="541.18" xlink:href="#j" y="234.248"/><g><use stroke="#000" stroke-width=".6" x="549.59" xlink:href="#j" y="234.248"/><g transform="matrix(.1 0 0 -.1 543.227 247.246)"><use xlink:href="#f"/><use x="63.623" xlink:href="#o"/></g></g><g><path clip-path="url(#a)" d="M70.22 187.969H558" fill="none" stroke="#b0b0b0" stroke-linecap="square" stroke-width=".8"/><use stroke="#000" stroke-width=".8" x="70.22" xlink:href="#p" y="187.969"/><g transform="matrix(.1 0 0 -.1 25.045 191.768)"><use xlink:href="#f"/><use x="63.623" xlink:href="#g"/><use x="127.246" xlink:href="#g"/><use x="190.869" xlink:href="#g"/><use x="254.492" xlink:href="#g"/><use x="318.115" xlink:href="#g"/></g><path clip-path="url(#a)" d="M70.22 141.687H558" fill="none" stroke="#b0b0b0" stroke-linecap="square" stroke-width=".8"/><use stroke="#000" stroke-width=".8" x="70.22" xlink:href="#p" y="141.687"/><g transform="matrix(.1 0 0 -.1 25.045 145.486)"><use xlink:href="#q"/><use x="63.623" xlink:href="#g"/><use x="127.246" xlink:href="#g"/><use x="190.869" xlink:href="#g"/><use x="254.492" xlink:href="#g"/><use x="318.115" xlink:href="#g"/></g><g><path clip-path="url(#a)" d="M70.22 95.405H558" fill="none" stroke="#b0b0b0" stroke-linecap="square" stroke-width=".8"/><use stroke="#000" stroke-width=".8" x="70.22" xlink:href="#p" y="95.405"/><g transform="matrix(.1 0 0 -.1 25.045 99.204)"><use xlink:href="#m"/><use x="63.623" xlink:href="#g"/><use x="127.246" xlink:href="#g"/><use x="190.869" xlink:href="#g"/><use x="254.492" xlink:href="#g"/><use x="318.115" xlink:href="#g"/></g></g><g><path clip-path="url(#a)" d="M70.22 49.123H558" fill="none" stroke="#b0b0b0" stroke-linecap="square" stroke-width=".8"/><use stroke="#000" stroke-width=".8" x="70.22" xlink:href="#p" y="49.123"/><g transform="matrix(.1 0 0 -.1 25.045 52.922)"><use xlink:href="#r"/><use x="63.623" xlink:href="#g"/><use x="127.246" xlink:href="#g"/><use x="190.869" xlink:href="#g"/><use x="254.492" xlink:href="#g"/><use x="318.115" xlink:href="#g"/></g></g><g transform="matrix(0 -.1 -.1 0 18.965 156.19)"><path d="M3.328 72.906h9.953L28.61 11.281l15.282 61.625h11.093l15.328-61.625 15.282 61.625h10.015L77.297 0H64.89L49.516 63.281 33.984 0H21.578z"/><use x="98.799" xlink:href="#s"/><use x="159.98" xlink:href="#e"/><use x="201.094" xlink:href="#t"/><use x="228.877" xlink:href="#u"/><use x="292.354" xlink:href="#v"/><use x="374.141" xlink:href="#w"/><use x="401.924" xlink:href="#u"/><use x="465.4" xlink:href="#x"/></g></g><g stroke="#1f77b4"><path clip-path="url(#a)" d="M-1 234.243h12.35l8.41-.004h8.41l8.41-.001H53.4l8.41-.002 8.41-.001 8.41-.005 8.41-.004 8.41-.007 8.41-.015 8.41-.013 8.41-.031 8.41-.027 8.41-.016 8.41-.08 8.41-.073 8.41-.086 8.41-.118 8.41-.125 8.41-.177 8.41-.256 8.41-.409 8.41-.293 8.41-1.344 8.41-1.235 8.41-1.464 8.41-1.94 8.41-2.243 8.41-2.215 8.41-2.729 8.41-4.043 8.41-3.994 8.41-4.434 8.41-4.029 8.41-4.034 8.41-5.569 8.41-5.291 8.41-6.602 8.41-6.97 8.41-6.249 8.41-5.603 8.41-6.085 8.41-5.886 8.41-6.725 8.41-6.653 8.41-6.852 8.41-5.902 8.41-5.934 8.41-3.078 8.41-4.737 8.41-5.057 8.41-5.612 8.41-5.601 8.41-5.625 8.41-4.488 8.41-5.048 8.41-5.164 8.41-5.557 8.41-5.272 8.41-3.539 8.41-6.878" fill="none" stroke-linecap="square" stroke-width="1.5"/><g clip-path="url(#a)" fill="#1f77b4"><use x="-1" xlink:href="#y" y="234.243"/><use x="2.94" xlink:href="#y" y="234.243"/><use x="11.35" xlink:href="#y" y="234.243"/><use x="19.76" xlink:href="#y" y="234.239"/><use x="28.17" xlink:href="#y" y="234.239"/><use x="36.58" xlink:href="#y" y="234.238"/><use x="44.99" xlink:href="#y" y="234.238"/><use x="53.4" xlink:href="#y" y="234.238"/><use x="61.81" xlink:href="#y" y="234.236"/><use x="70.22" xlink:href="#y" y="234.235"/><use x="78.63" xlink:href="#y" y="234.23"/><use x="87.04" xlink:href="#y" y="234.226"/><use x="95.45" xlink:href="#y" y="234.219"/><use x="103.86" xlink:href="#y" y="234.204"/><use x="112.27" xlink:href="#y" y="234.191"/><use x="120.68" xlink:href="#y" y="234.16"/><use x="129.09" xlink:href="#y" y="234.133"/><use x="137.5" xlink:href="#y" y="234.117"/><use x="145.91" xlink:href="#y" y="234.037"/><use x="154.32" xlink:href="#y" y="233.964"/><use x="162.73" xlink:href="#y" y="233.878"/><use x="171.14" xlink:href="#y" y="233.76"/><use x="179.55" xlink:href="#y" y="233.635"/><use x="187.96" xlink:href="#y" y="233.458"/><use x="196.37" xlink:href="#y" y="233.202"/><use x="204.78" xlink:href="#y" y="232.793"/><use x="213.19" xlink:href="#y" y="232.5"/><use x="221.6" xlink:href="#y" y="231.156"/><use x="230.01" xlink:href="#y" y="229.921"/><use x="238.42" xlink:href="#y" y="228.457"/><use x="246.83" xlink:href="#y" y="226.516"/><use x="255.24" xlink:href="#y" y="224.274"/><use x="263.65" xlink:href="#y" y="222.059"/><use x="272.06" xlink:href="#y" y="219.33"/><use x="280.47" xlink:href="#y" y="215.287"/><use x="288.88" xlink:href="#y" y="211.293"/><use x="297.29" xlink:href="#y" y="206.859"/><use x="305.7" xlink:href="#y" y="202.83"/><use x="314.11" xlink:href="#y" y="198.796"/><use x="322.52" xlink:href="#y" y="193.227"/><use x="330.93" xlink:href="#y" y="187.936"/><use x="339.34" xlink:href="#y" y="181.334"/><use x="347.75" xlink:href="#y" y="174.364"/><use x="356.16" xlink:href="#y" y="168.115"/><use x="364.57" xlink:href="#y" y="162.512"/><use x="372.98" xlink:href="#y" y="156.427"/><use x="381.39" xlink:href="#y" y="150.541"/><use x="389.8" xlink:href="#y" y="143.816"/><use x="398.21" xlink:href="#y" y="137.163"/><use x="406.62" xlink:href="#y" y="130.311"/><use x="415.03" xlink:href="#y" y="124.409"/><use x="423.44" xlink:href="#y" y="118.475"/><use x="431.85" xlink:href="#y" y="115.397"/><use x="440.26" xlink:href="#y" y="110.66"/><use x="448.67" xlink:href="#y" y="105.603"/><use x="457.08" xlink:href="#y" y="99.991"/><use x="465.49" xlink:href="#y" y="94.39"/><use x="473.9" xlink:href="#y" y="88.765"/><use x="482.31" xlink:href="#y" y="84.277"/><use x="490.72" xlink:href="#y" y="79.229"/><use x="499.13" xlink:href="#y" y="74.065"/><use x="507.54" xlink:href="#y" y="68.508"/><use x="515.95" xlink:href="#y" y="63.236"/><use x="524.36" xlink:href="#y" y="59.697"/><use x="532.77" xlink:href="#y" y="52.819"/></g></g><g stroke="#ff7f0e"><path clip-path="url(#a)" d="M-1 234.25h37.58l8.41-.001 8.41-.001 8.41-.001 8.41-.003 8.41-.001 8.41-.003 8.41-.008 8.41-.006 8.41-.011 8.41-.008 8.41-.015 8.41-.01 8.41-.015 8.41-.017h8.41l8.41-.079 8.41-.076h8.41l8.41-.086 8.41-.087 8.41-.15 8.41-.003 8.41-.29 8.41-.232 8.41-.138 8.41-.205 8.41-.313 8.41-.331 8.41-.474 8.41-.637 8.41-.534 8.41-.522 8.41-.572 8.41-.61 8.41-.885 8.41-.862 8.41-.883 8.41-.71 8.41-1.232 8.41-.774 8.41-.659 8.41-1.056 8.41-.81 8.41-1.741 8.41-1 8.41-1.062 8.41-.918 8.41-1.035 8.41-.886 8.41-.877 8.41-1.1 8.41-1.073 8.41-1.213 8.41-.976 8.41-.763 8.41-.844 8.41-.911 8.41-1.066 8.41-.94" fill="none" stroke-linecap="square" stroke-width="1.5"/><g clip-path="url(#a)" fill="#ff7f0e"><use x="-1" xlink:href="#z" y="234.25"/><use x="2.94" xlink:href="#z" y="234.25"/><use x="11.35" xlink:href="#z" y="234.25"/><use x="19.76" xlink:href="#z" y="234.249"/><use x="28.17" xlink:href="#z" y="234.249"/><use x="36.58" xlink:href="#z" y="234.249"/><use x="44.99" xlink:href="#z" y="234.249"/><use x="53.4" xlink:href="#z" y="234.248"/><use x="61.81" xlink:href="#z" y="234.247"/><use x="70.22" xlink:href="#z" y="234.244"/><use x="78.63" xlink:href="#z" y="234.243"/><use x="87.04" xlink:href="#z" y="234.24"/><use x="95.45" xlink:href="#z" y="234.232"/><use x="103.86" xlink:href="#z" y="234.226"/><use x="112.27" xlink:href="#z" y="234.215"/><use x="120.68" xlink:href="#z" y="234.207"/><use x="129.09" xlink:href="#z" y="234.192"/><use x="137.5" xlink:href="#z" y="234.181"/><use x="145.91" xlink:href="#z" y="234.167"/><use x="154.32" xlink:href="#z" y="234.15"/><use x="162.73" xlink:href="#z" y="234.15"/><use x="171.14" xlink:href="#z" y="234.071"/><use x="179.55" xlink:href="#z" y="233.995"/><use x="187.96" xlink:href="#z" y="233.995"/><use x="196.37" xlink:href="#z" y="233.909"/><use x="204.78" xlink:href="#z" y="233.822"/><use x="213.19" xlink:href="#z" y="233.671"/><use x="221.6" xlink:href="#z" y="233.669"/><use x="230.01" xlink:href="#z" y="233.378"/><use x="238.42" xlink:href="#z" y="233.147"/><use x="246.83" xlink:href="#z" y="233.009"/><use x="255.24" xlink:href="#z" y="232.804"/><use x="263.65" xlink:href="#z" y="232.491"/><use x="272.06" xlink:href="#z" y="232.16"/><use x="280.47" xlink:href="#z" y="231.686"/><use x="288.88" xlink:href="#z" y="231.049"/><use x="297.29" xlink:href="#z" y="230.515"/><use x="305.7" xlink:href="#z" y="229.993"/><use x="314.11" xlink:href="#z" y="229.421"/><use x="322.52" xlink:href="#z" y="228.81"/><use x="330.93" xlink:href="#z" y="227.926"/><use x="339.34" xlink:href="#z" y="227.064"/><use x="347.75" xlink:href="#z" y="226.181"/><use x="356.16" xlink:href="#z" y="225.47"/><use x="364.57" xlink:href="#z" y="224.239"/><use x="372.98" xlink:href="#z" y="223.465"/><use x="381.39" xlink:href="#z" y="222.806"/><use x="389.8" xlink:href="#z" y="221.75"/><use x="398.21" xlink:href="#z" y="220.94"/><use x="406.62" xlink:href="#z" y="219.199"/><use x="415.03" xlink:href="#z" y="218.2"/><use x="423.44" xlink:href="#z" y="217.137"/><use x="431.85" xlink:href="#z" y="216.219"/><use x="440.26" xlink:href="#z" y="215.184"/><use x="448.67" xlink:href="#z" y="214.298"/><use x="457.08" xlink:href="#z" y="213.421"/><use x="465.49" xlink:href="#z" y="212.32"/><use x="473.9" xlink:href="#z" y="211.248"/><use x="482.31" xlink:href="#z" y="210.035"/><use x="490.72" xlink:href="#z" y="209.059"/><use x="499.13" xlink:href="#z" y="208.296"/><use x="507.54" xlink:href="#z" y="207.452"/><use x="515.95" xlink:href="#z" y="206.541"/><use x="524.36" xlink:href="#z" y="205.475"/><use x="532.77" xlink:href="#z" y="204.534"/></g></g><path clip-path="url(#a)" d="M-1 234.241l3.94-.004 8.41-.021 8.41-.017 8.41-.02 8.41-.03 8.41-.036 8.41-.053 8.41-.053 8.41-.122 8.41-.06 8.41-.098 8.41-.103 8.41-.136 8.41-.144 8.41-.265 8.41-.307 8.41-.37 8.41-.187 8.41-.415h8.41l8.41-1.01 8.41-.647 8.41-.66 8.41-.572 8.41-.692 8.41-.612 8.41-1.037 8.41-1.24 8.41-.956 8.41-.916 8.41-.875 8.41-.836 8.41-.808 8.41-1.039 8.41-1.018 8.41-.845 8.41-.883 8.41-.382 8.41-.487 8.41-.68 8.41-.573 8.41-.541 8.41-.668 8.41-.688 8.41-.449 8.41-.204 8.41-.276 8.41-.374 8.41-.323 8.41-.462 8.41-.459 8.41-.315 8.41-.157 8.41-.26 8.41-.275 8.41-.083 8.41-.187 8.41-.112 8.41.004 8.41.122 8.41.003 8.41.197 8.41.074 8.41.157" fill="none" stroke="#2ca02c" stroke-linecap="square" stroke-width="1.5"/><g stroke="#d62728"><path clip-path="url(#a)" d="M-1 234.25H28.17l8.41-.002h8.41l8.41-.005 8.41-.003 8.41-.009 8.41-.008 8.41-.01 8.41-.013 8.41-.008 8.41-.033 8.41-.015 8.41-.039 8.41-.09 8.41-.141 8.41-.096h8.41l8.41-.663 8.41-.179 8.41-.304 8.41-.48 8.41-.259 8.41-.467 8.41-.884 8.41-.406 8.41-.948 8.41-.659 8.41-1.098 8.41-.883 8.41-1.67 8.41-1.366 8.41-1.115 8.41-.867 8.41-.84 8.41-1.125 8.41-1.097 8.41-.899 8.41-.668 8.41-.582 8.41-.582 8.41-.213 8.41-.457 8.41-.414 8.41-.167 8.41-.047 8.41-.211 8.41-.182 8.41.018 8.41-.089 8.41.147 8.41-.255 8.41-.637 8.41-1.204 8.41-.196 8.41-.92 8.41.484 8.41-.373 8.41-.087 8.41-.199 8.41-.756 8.41-.061" fill="none" stroke-linecap="square" stroke-width="1.5"/><g clip-path="url(#a)" fill="#d62728"><use x="-1" xlink:href="#A" y="234.25"/><use x="2.94" xlink:href="#A" y="234.25"/><use x="11.35" xlink:href="#A" y="234.25"/><use x="19.76" xlink:href="#A" y="234.25"/><use x="28.17" xlink:href="#A" y="234.249"/><use x="36.58" xlink:href="#A" y="234.248"/><use x="44.99" xlink:href="#A" y="234.247"/><use x="53.4" xlink:href="#A" y="234.243"/><use x="61.81" xlink:href="#A" y="234.24"/><use x="70.22" xlink:href="#A" y="234.231"/><use x="78.63" xlink:href="#A" y="234.223"/><use x="87.04" xlink:href="#A" y="234.213"/><use x="95.45" xlink:href="#A" y="234.2"/><use x="103.86" xlink:href="#A" y="234.192"/><use x="112.27" xlink:href="#A" y="234.159"/><use x="120.68" xlink:href="#A" y="234.144"/><use x="129.09" xlink:href="#A" y="234.105"/><use x="137.5" xlink:href="#A" y="234.016"/><use x="145.91" xlink:href="#A" y="233.874"/><use x="154.32" xlink:href="#A" y="233.778"/><use x="162.73" xlink:href="#A" y="233.778"/><use x="171.14" xlink:href="#A" y="233.115"/><use x="179.55" xlink:href="#A" y="232.936"/><use x="187.96" xlink:href="#A" y="232.632"/><use x="196.37" xlink:href="#A" y="232.151"/><use x="204.78" xlink:href="#A" y="231.893"/><use x="213.19" xlink:href="#A" y="231.426"/><use x="221.6" xlink:href="#A" y="230.542"/><use x="230.01" xlink:href="#A" y="230.136"/><use x="238.42" xlink:href="#A" y="229.188"/><use x="246.83" xlink:href="#A" y="228.529"/><use x="255.24" xlink:href="#A" y="227.431"/><use x="263.65" xlink:href="#A" y="226.548"/><use x="272.06" xlink:href="#A" y="224.878"/><use x="280.47" xlink:href="#A" y="223.512"/><use x="288.88" xlink:href="#A" y="222.397"/><use x="297.29" xlink:href="#A" y="221.53"/><use x="305.7" xlink:href="#A" y="220.69"/><use x="314.11" xlink:href="#A" y="219.565"/><use x="322.52" xlink:href="#A" y="218.468"/><use x="330.93" xlink:href="#A" y="217.569"/><use x="339.34" xlink:href="#A" y="216.901"/><use x="347.75" xlink:href="#A" y="216.319"/><use x="356.16" xlink:href="#A" y="215.737"/><use x="364.57" xlink:href="#A" y="215.524"/><use x="372.98" xlink:href="#A" y="215.067"/><use x="381.39" xlink:href="#A" y="214.653"/><use x="389.8" xlink:href="#A" y="214.486"/><use x="398.21" xlink:href="#A" y="214.439"/><use x="406.62" xlink:href="#A" y="214.228"/><use x="415.03" xlink:href="#A" y="214.046"/><use x="423.44" xlink:href="#A" y="214.064"/><use x="431.85" xlink:href="#A" y="213.975"/><use x="440.26" xlink:href="#A" y="214.122"/><use x="448.67" xlink:href="#A" y="213.867"/><use x="457.08" xlink:href="#A" y="213.23"/><use x="465.49" xlink:href="#A" y="212.026"/><use x="473.9" xlink:href="#A" y="211.83"/><use x="482.31" xlink:href="#A" y="210.909"/><use x="490.72" xlink:href="#A" y="211.394"/><use x="499.13" xlink:href="#A" y="211.021"/><use x="507.54" xlink:href="#A" y="210.934"/><use x="515.95" xlink:href="#A" y="210.735"/><use x="524.36" xlink:href="#A" y="209.979"/><use x="532.77" xlink:href="#A" y="209.918"/></g></g><g stroke="#9467bd"><path clip-path="url(#a)" d="M-1 234.249h37.58l8.41-.004 8.41-.005 8.41-.01 8.41-.007 8.41-.013 8.41-.003 8.41-.019 8.41-.02 8.41-.064 8.41-.068 8.41-.04 8.41-.018 8.41-.13 8.41-.112h8.41l8.41-.313 8.41-.186 8.41-.007 8.41-.482 8.41-.239 8.41-.316 8.41-.403 8.41-.356 8.41-.362 8.41.092 8.41-.86 8.41-.273 8.41-.492 8.41-.587 8.41-.648 8.41-1.01 8.41-.188 8.41-.764 8.41-1.298 8.41-.664 8.41.155 8.41-.593 8.41-5.359 8.41-.376 8.41-.76 8.41-1.755 8.41-.33 8.41-.351 8.41-1.014 8.41-.623 8.41-.364 8.41-.718 8.41 1.938 8.41.137 8.41-2.291 8.41.093 8.41.51 8.41-.915 8.41-.227 8.41-.115 8.41.977 8.41-.088 8.41.325 8.41-.051" fill="none" stroke-linecap="square" stroke-width="1.5"/><g clip-path="url(#a)" fill="#9467bd"><use x="-1" xlink:href="#B" y="234.249"/><use x="2.94" xlink:href="#B" y="234.249"/><use x="11.35" xlink:href="#B" y="234.249"/><use x="19.76" xlink:href="#B" y="234.249"/><use x="28.17" xlink:href="#B" y="234.25"/><use x="36.58" xlink:href="#B" y="234.249"/><use x="44.99" xlink:href="#B" y="234.245"/><use x="53.4" xlink:href="#B" y="234.24"/><use x="61.81" xlink:href="#B" y="234.23"/><use x="70.22" xlink:href="#B" y="234.223"/><use x="78.63" xlink:href="#B" y="234.21"/><use x="87.04" xlink:href="#B" y="234.207"/><use x="95.45" xlink:href="#B" y="234.188"/><use x="103.86" xlink:href="#B" y="234.167"/><use x="112.27" xlink:href="#B" y="234.104"/><use x="120.68" xlink:href="#B" y="234.036"/><use x="129.09" xlink:href="#B" y="233.997"/><use x="137.5" xlink:href="#B" y="233.978"/><use x="145.91" xlink:href="#B" y="233.848"/><use x="154.32" xlink:href="#B" y="233.736"/><use x="162.73" xlink:href="#B" y="233.736"/><use x="171.14" xlink:href="#B" y="233.423"/><use x="179.55" xlink:href="#B" y="233.237"/><use x="187.96" xlink:href="#B" y="233.23"/><use x="196.37" xlink:href="#B" y="232.748"/><use x="204.78" xlink:href="#B" y="232.509"/><use x="213.19" xlink:href="#B" y="232.193"/><use x="221.6" xlink:href="#B" y="231.79"/><use x="230.01" xlink:href="#B" y="231.434"/><use x="238.42" xlink:href="#B" y="231.072"/><use x="246.83" xlink:href="#B" y="231.164"/><use x="255.24" xlink:href="#B" y="230.304"/><use x="263.65" xlink:href="#B" y="230.031"/><use x="272.06" xlink:href="#B" y="229.539"/><use x="280.47" xlink:href="#B" y="228.952"/><use x="288.88" xlink:href="#B" y="228.304"/><use x="297.29" xlink:href="#B" y="227.293"/><use x="305.7" xlink:href="#B" y="227.106"/><use x="314.11" xlink:href="#B" y="226.342"/><use x="322.52" xlink:href="#B" y="225.044"/><use x="330.93" xlink:href="#B" y="224.38"/><use x="339.34" xlink:href="#B" y="224.535"/><use x="347.75" xlink:href="#B" y="223.942"/><use x="356.16" xlink:href="#B" y="218.583"/><use x="364.57" xlink:href="#B" y="218.207"/><use x="372.98" xlink:href="#B" y="217.448"/><use x="381.39" xlink:href="#B" y="215.692"/><use x="389.8" xlink:href="#B" y="215.363"/><use x="398.21" xlink:href="#B" y="215.011"/><use x="406.62" xlink:href="#B" y="213.997"/><use x="415.03" xlink:href="#B" y="213.374"/><use x="423.44" xlink:href="#B" y="213.01"/><use x="431.85" xlink:href="#B" y="212.292"/><use x="440.26" xlink:href="#B" y="214.23"/><use x="448.67" xlink:href="#B" y="214.367"/><use x="457.08" xlink:href="#B" y="212.076"/><use x="465.49" xlink:href="#B" y="212.169"/><use x="473.9" xlink:href="#B" y="212.679"/><use x="482.31" xlink:href="#B" y="211.764"/><use x="490.72" xlink:href="#B" y="211.537"/><use x="499.13" xlink:href="#B" y="211.422"/><use x="507.54" xlink:href="#B" y="212.399"/><use x="515.95" xlink:href="#B" y="212.311"/><use x="524.36" xlink:href="#B" y="212.636"/><use x="532.77" xlink:href="#B" y="212.585"/></g></g><path clip-path="url(#a)" d="M532.77 52.82l8.41-5.636 8.41-5.81 8.41-5.99" fill="none" stroke="#1f77b4" stroke-dasharray="1.5 2.475" stroke-width="1.5"/><path clip-path="url(#a)" d="M532.77 204.534l8.41-1.04 8.41-1.078L558 201.3" fill="none" stroke="#ff7f0e" stroke-dasharray="1.5 2.475" stroke-width="1.5"/><path clip-path="url(#a)" d="M532.77 209.756l8.41.135 8.41.134 8.41.134" fill="none" stroke="#2ca02c" stroke-dasharray="1.5 2.475" stroke-width="1.5"/><path clip-path="url(#a)" d="M532.77 209.918l8.41-.348 8.41-.353 8.41-.358" fill="none" stroke="#d62728" stroke-dasharray="1.5 2.475" stroke-width="1.5"/><path clip-path="url(#a)" d="M532.77 212.585l8.41.075 8.41.074 8.41.074" fill="none" stroke="#9467bd" stroke-dasharray="1.5 2.475" stroke-width="1.5"/><path d="M70.22 234.248V25.44M558 234.248V25.44M70.22 234.248H558M70.22 25.44H558" fill="none" stroke="#000" stroke-linecap="square" stroke-linejoin="miter" stroke-width=".8"/><g transform="matrix(.12 0 0 -.12 192.33 19.44)"><use xlink:href="#h"/><use x="68.393" xlink:href="#C"/><use x="123.373" xlink:href="#D"/><use x="162.582" xlink:href="#w"/><path d="M193.35 54.688h9.515L219.96 8.797l17.094 45.89h9.515L226.053 0H213.85z"/><use x="249.545" xlink:href="#x"/><use x="342.855" xlink:href="#E"/><path d="M452.086 66.219q-10.75 0-17.078-8.016-6.313-8-6.313-21.828 0-13.766 6.313-21.781 6.328-8 17.078-8 10.734 0 17.016 8 6.28 8.015 6.28 21.781 0 13.828-6.28 21.828-6.282 8.016-17.016 8.016zm0 8q15.328 0 24.5-10.281 9.187-10.282 9.187-27.563 0-17.234-9.187-27.516-9.172-10.28-24.5-10.28-15.375 0-24.594 10.25-9.203 10.265-9.203 27.546t9.203 27.563q9.219 10.28 24.594 10.28zM519.984 0l-27.828 72.906h10.297l23.11-61.375 23.14 61.375h10.25L531.172 0z"/><use x="559.783" xlink:href="#F"/><path d="M608.947 64.797V8.109h11.922q15.094 0 22.094 6.829 7 6.843 7 21.593 0 14.64-7 21.453-7 6.813-22.094 6.813zm-9.86 8.11h20.267q21.187 0 31.093-8.813 9.922-8.813 9.922-27.563 0-18.86-9.969-27.703Q640.447 0 619.354 0h-20.266z"/><use x="666.277" xlink:href="#G"/><use x="702.361" xlink:href="#l"/><use x="765.984" xlink:href="#k"/><use x="861.395" xlink:href="#C"/><use x="916.375" xlink:href="#d"/><use x="977.654" xlink:href="#H"/><use x="1029.754" xlink:href="#x"/><use x="1091.277" xlink:href="#H"/><use x="1175.164" xlink:href="#d"/><use x="1236.443" xlink:href="#H"/><use x="1320.33" xlink:href="#s"/><use x="1381.512" xlink:href="#I"/><use x="1448.504" xlink:href="#f"/><use x="1512.127" xlink:href="#g"/><use x="1575.75" xlink:href="#f"/><use x="1639.373" xlink:href="#g"/><use x="1702.996" xlink:href="#G"/><use x="1739.08" xlink:href="#g"/><use x="1802.703" xlink:href="#q"/><use x="1866.326" xlink:href="#G"/><use x="1902.41" xlink:href="#f"/><use x="1966.033" xlink:href="#J"/></g><g><path d="M77.22 106.83h227.06q2 0 2-2V32.44q0-2-2-2H77.22q-2 0-2 2v72.39q0 2 2 2z" fill="#fff" opacity=".8" stroke="#ccc" stroke-linejoin="miter"/><path d="M79.22 38.538h20" fill="none" stroke="#1f77b4" stroke-linecap="square" stroke-width="1.5"/><use fill="#1f77b4" stroke="#1f77b4" x="89.22" xlink:href="#y" y="38.538"/><g transform="matrix(.1 0 0 -.1 107.22 42.038)"><use xlink:href="#K"/><use x="73.193" xlink:href="#L"/><use x="168.457" xlink:href="#M"/><use x="207.471" xlink:href="#u"/><use x="270.947" xlink:href="#s"/><use x="332.129" xlink:href="#N"/><use x="395.508" xlink:href="#O"/><use x="458.984" xlink:href="#t"/><use x="486.768" xlink:href="#x"/><use x="548.291" xlink:href="#H"/><use x="632.178" xlink:href="#w"/><use x="659.961" xlink:href="#P"/><use x="755.127" xlink:href="#f"/><use x="818.75" xlink:href="#f"/><use x="882.373" xlink:href="#Q"/><use x="914.16" xlink:href="#o"/><use x="1009.57" xlink:href="#u"/><use x="1073.047" xlink:href="#d"/><use x="1134.326" xlink:href="#R"/><use x="1193.506" xlink:href="#H"/><use x="1245.605" xlink:href="#S"/></g><path d="M79.22 53.217h20" fill="none" stroke="#ff7f0e" stroke-linecap="square" stroke-width="1.5"/><use fill="#ff7f0e" stroke="#ff7f0e" x="89.22" xlink:href="#z" y="53.217"/><g transform="matrix(.1 0 0 -.1 107.22 56.717)"><use xlink:href="#K"/><use x="73.193" xlink:href="#P"/><use x="136.572" xlink:href="#w"/><use x="164.355" xlink:href="#D"/><use x="203.564" xlink:href="#x"/><use x="265.088" xlink:href="#u"/><path d="M370.164 72.906h9.86V42.094l32.718 30.812h12.703l-36.187-33.984L428.023 0H415.04l-35.016 35.11V0h-9.859z"/><use x="425.928" xlink:href="#w"/><use x="453.711" xlink:href="#P"/><path d="M562.496 27.984q0 9.766-4.031 15.125-4.016 5.375-11.297 5.375-7.219 0-11.25-5.375-4.031-5.359-4.031-15.125 0-9.718 4.031-15.093t11.25-5.375q7.281 0 11.297 5.375 4.031 5.375 4.031 15.093zm8.984-21.203q0-13.953-6.203-20.765-6.187-6.813-18.984-6.813-4.734 0-8.938.703-4.203.703-8.156 2.172v8.735q3.953-2.141 7.813-3.157 3.86-1.031 7.86-1.031 8.843 0 13.233 4.61 4.391 4.609 4.391 13.937v4.453q-2.781-4.844-7.125-7.234Q551.027 0 544.965 0q-10.047 0-16.203 7.656-6.157 7.672-6.157 20.328 0 12.688 6.157 20.344Q534.918 56 544.965 56q6.062 0 10.406-2.39 4.344-2.391 7.125-7.22v8.297h8.984z"/><use x="580.566" xlink:href="#u"/><use x="644.043" xlink:href="#s"/><path d="M757.225 44.188q3.375 6.062 8.062 8.937Q769.975 56 776.318 56q8.547 0 13.188-5.984 4.64-5.97 4.64-17V0h-9.03v32.719q0 7.86-2.798 11.656-2.78 3.813-8.484 3.813-6.984 0-11.047-4.641-4.047-4.625-4.047-12.64V0h-9.031v32.719q0 7.906-2.781 11.687-2.782 3.782-8.594 3.782-6.89 0-10.953-4.657-4.047-4.656-4.047-12.625V0h-9.031v54.688h9.031v-8.5q3.078 5.03 7.375 7.421Q735.006 56 740.912 56q5.969 0 10.14-3.031 4.173-3.016 6.173-8.782z"/><use x="834.424" xlink:href="#M"/><use x="873.438" xlink:href="#u"/><use x="936.914" xlink:href="#s"/><use x="998.096" xlink:href="#N"/><use x="1061.475" xlink:href="#O"/><use x="1124.951" xlink:href="#t"/><use x="1152.734" xlink:href="#x"/><use x="1214.258" xlink:href="#H"/><use x="1298.145" xlink:href="#w"/><use x="1325.928" xlink:href="#P"/><use x="1421.094" xlink:href="#f"/><use x="1484.717" xlink:href="#g"/><use x="1548.34" xlink:href="#Q"/><use x="1580.127" xlink:href="#l"/><use x="1675.537" xlink:href="#u"/><use x="1739.014" xlink:href="#d"/><use x="1800.293" xlink:href="#R"/><use x="1859.473" xlink:href="#H"/><use x="1911.572" xlink:href="#S"/></g><path d="M79.22 67.895h20" fill="none" stroke="#2ca02c" stroke-linecap="square" stroke-width="1.5"/><g transform="matrix(.1 0 0 -.1 107.22 71.395)"><use xlink:href="#F"/><use x="29.492" xlink:href="#D"/><use x="68.701" xlink:href="#d"/><use x="129.98" xlink:href="#t"/><use x="157.764" xlink:href="#R"/></g><path d="M79.22 82.573h20" fill="none" stroke="#d62728" stroke-linecap="square" stroke-width="1.5"/><use fill="#d62728" stroke="#d62728" x="89.22" xlink:href="#A" y="82.573"/><g transform="matrix(.1 0 0 -.1 107.22 86.073)"><use xlink:href="#L"/><use x="63.477" xlink:href="#i"/><use x="126.953" xlink:href="#d"/><use x="188.232" xlink:href="#w"/><use x="216.016" xlink:href="#P"/><use x="311.182" xlink:href="#M"/><use x="350.195" xlink:href="#u"/><use x="413.672" xlink:href="#s"/><use x="474.854" xlink:href="#N"/><use x="538.232" xlink:href="#O"/><use x="601.709" xlink:href="#t"/><use x="629.492" xlink:href="#x"/><use x="691.016" xlink:href="#H"/><use x="774.902" xlink:href="#w"/><use x="802.686" xlink:href="#P"/><use x="897.852" xlink:href="#q"/><use x="961.475" xlink:href="#r"/><use x="1025.098" xlink:href="#Q"/><use x="1056.885" xlink:href="#r"/><use x="1152.295" xlink:href="#u"/><use x="1215.771" xlink:href="#d"/><use x="1277.051" xlink:href="#R"/><use x="1336.23" xlink:href="#H"/><use x="1388.33" xlink:href="#S"/></g><path d="M79.22 97.25h20" fill="none" stroke="#9467bd" stroke-linecap="square" stroke-width="1.5"/><use fill="#9467bd" stroke="#9467bd" x="89.22" xlink:href="#B" y="97.251"/><g transform="matrix(.1 0 0 -.1 107.22 100.75)"><path d="M9.813 72.906h41.89v-8.312H19.672V43.109h28.906v-8.297H19.672V0h-9.86z"/><use x="57.41" xlink:href="#e"/><use x="98.523" xlink:href="#d"/><use x="159.803" xlink:href="#P"/><use x="223.182" xlink:href="#C"/><use x="278.162" xlink:href="#x"/></g></g><g><path d="M70.22 505.928H558V297.12H70.22z" fill="#fff"/><path clip-path="url(#T)" d="M70.22 505.928V297.12" fill="none" stroke="#b0b0b0" stroke-linecap="square" stroke-width=".8"/><use stroke="#000" stroke-width=".8" x="70.22" xlink:href="#b" y="505.928"/><g transform="matrix(.1 0 0 -.1 60.786 542.922)"><use xlink:href="#c"/><use x="86.279" xlink:href="#d"/><use x="147.559" xlink:href="#e"/></g><g transform="matrix(.1 0 0 -.1 57.495 554.12)"><use xlink:href="#f"/><use x="63.623" xlink:href="#g"/><use x="127.246" xlink:href="#f"/><use x="190.869" xlink:href="#g"/></g><path clip-path="url(#T)" d="M330.93 505.928V297.12" fill="none" stroke="#b0b0b0" stroke-linecap="square" stroke-width=".8"/><use stroke="#000" stroke-width=".8" x="330.93" xlink:href="#b" y="505.928"/><g transform="matrix(.1 0 0 -.1 322.28 542.922)"><use xlink:href="#h"/><use x="68.408" xlink:href="#i"/><use x="131.885" xlink:href="#e"/></g><g stroke-width=".8"><path clip-path="url(#T)" d="M558 505.928V297.12" fill="none" stroke="#b0b0b0" stroke-linecap="square"/><use stroke="#000" x="558" xlink:href="#b" y="505.928"/></g><use stroke="#000" stroke-width=".6" x="78.63" xlink:href="#j" y="505.928"/><g transform="matrix(.1 0 0 -.1 72.267 518.926)"><use xlink:href="#g"/><use x="63.623" xlink:href="#f"/></g><g stroke="#000" stroke-width=".6"><use x="87.04" xlink:href="#j" y="505.928"/><use x="95.45" xlink:href="#j" y="505.928"/><use x="103.86" xlink:href="#j" y="505.928"/><use x="112.27" xlink:href="#j" y="505.928"/><use x="120.68" xlink:href="#j" y="505.928"/><use x="129.09" xlink:href="#j" y="505.928"/></g><use stroke="#000" stroke-width=".6" x="137.5" xlink:href="#j" y="505.928"/><g transform="matrix(.1 0 0 -.1 131.137 518.926)"><use xlink:href="#g"/><use x="63.623" xlink:href="#k"/></g><use stroke="#000" stroke-width=".6" x="145.91" xlink:href="#j" y="505.928"/><use stroke="#000" stroke-width=".6" x="154.32" xlink:href="#j" y="505.928"/><use stroke="#000" stroke-width=".6" x="162.73" xlink:href="#j" y="505.928"/><use stroke="#000" stroke-width=".6" x="171.14" xlink:href="#j" y="505.928"/><use stroke="#000" stroke-width=".6" x="179.55" xlink:href="#j" y="505.928"/><use stroke="#000" stroke-width=".6" x="187.96" xlink:href="#j" y="505.928"/><use stroke="#000" stroke-width=".6" x="196.37" xlink:href="#j" y="505.928"/><g transform="matrix(.1 0 0 -.1 190.007 518.926)"><use xlink:href="#l"/><use x="63.623" xlink:href="#m"/></g><use stroke="#000" stroke-width=".6" x="204.78" xlink:href="#j" y="505.928"/><use stroke="#000" stroke-width=".6" x="213.19" xlink:href="#j" y="505.928"/><use stroke="#000" stroke-width=".6" x="221.6" xlink:href="#j" y="505.928"/><use stroke="#000" stroke-width=".6" x="230.01" xlink:href="#j" y="505.928"/><use stroke="#000" stroke-width=".6" x="238.42" xlink:href="#j" y="505.928"/><use stroke="#000" stroke-width=".6" x="246.83" xlink:href="#j" y="505.928"/><use stroke="#000" stroke-width=".6" x="255.24" xlink:href="#j" y="505.928"/><g transform="matrix(.1 0 0 -.1 248.877 518.926)"><use xlink:href="#f"/><use x="63.623" xlink:href="#n"/></g><use stroke="#000" stroke-width=".6" x="263.65" xlink:href="#j" y="505.928"/><use stroke="#000" stroke-width=".6" x="272.06" xlink:href="#j" y="505.928"/><use stroke="#000" stroke-width=".6" x="280.47" xlink:href="#j" y="505.928"/><use stroke="#000" stroke-width=".6" x="288.88" xlink:href="#j" y="505.928"/><use stroke="#000" stroke-width=".6" x="297.29" xlink:href="#j" y="505.928"/><use stroke="#000" stroke-width=".6" x="305.7" xlink:href="#j" y="505.928"/><use stroke="#000" stroke-width=".6" x="314.11" xlink:href="#j" y="505.928"/><g transform="matrix(.1 0 0 -.1 307.748 518.926)"><use xlink:href="#n"/><use x="63.623" xlink:href="#g"/></g><use stroke="#000" stroke-width=".6" x="322.52" xlink:href="#j" y="505.928"/><use stroke="#000" stroke-width=".6" x="339.34" xlink:href="#j" y="505.928"/><use stroke="#000" stroke-width=".6" x="347.75" xlink:href="#j" y="505.928"/><use stroke="#000" stroke-width=".6" x="356.16" xlink:href="#j" y="505.928"/><use stroke="#000" stroke-width=".6" x="364.57" xlink:href="#j" y="505.928"/><use stroke="#000" stroke-width=".6" x="372.98" xlink:href="#j" y="505.928"/><g transform="matrix(.1 0 0 -.1 366.618 518.926)"><use xlink:href="#g"/><use x="63.623" xlink:href="#m"/></g><use stroke="#000" stroke-width=".6" x="381.39" xlink:href="#j" y="505.928"/><use stroke="#000" stroke-width=".6" x="389.8" xlink:href="#j" y="505.928"/><use stroke="#000" stroke-width=".6" x="398.21" xlink:href="#j" y="505.928"/><use stroke="#000" stroke-width=".6" x="406.62" xlink:href="#j" y="505.928"/><use stroke="#000" stroke-width=".6" x="415.03" xlink:href="#j" y="505.928"/><use stroke="#000" stroke-width=".6" x="423.44" xlink:href="#j" y="505.928"/><use stroke="#000" stroke-width=".6" x="431.85" xlink:href="#j" y="505.928"/><g transform="matrix(.1 0 0 -.1 425.488 518.926)"><use xlink:href="#l"/><use x="63.623" xlink:href="#n"/></g><use stroke="#000" stroke-width=".6" x="440.26" xlink:href="#j" y="505.928"/><use stroke="#000" stroke-width=".6" x="448.67" xlink:href="#j" y="505.928"/><use stroke="#000" stroke-width=".6" x="457.08" xlink:href="#j" y="505.928"/><use stroke="#000" stroke-width=".6" x="465.49" xlink:href="#j" y="505.928"/><use stroke="#000" stroke-width=".6" x="473.9" xlink:href="#j" y="505.928"/><use stroke="#000" stroke-width=".6" x="482.31" xlink:href="#j" y="505.928"/><g><use stroke="#000" stroke-width=".6" x="490.72" xlink:href="#j" y="505.928"/><g transform="matrix(.1 0 0 -.1 484.358 518.926)"><use xlink:href="#f"/><use x="63.623" xlink:href="#g"/></g></g><use stroke="#000" stroke-width=".6" x="499.13" xlink:href="#j" y="505.928"/><use stroke="#000" stroke-width=".6" x="507.54" xlink:href="#j" y="505.928"/><use stroke="#000" stroke-width=".6" x="515.95" xlink:href="#j" y="505.928"/><use stroke="#000" stroke-width=".6" x="524.36" xlink:href="#j" y="505.928"/><use stroke="#000" stroke-width=".6" x="532.77" xlink:href="#j" y="505.928"/><use stroke="#000" stroke-width=".6" x="541.18" xlink:href="#j" y="505.928"/><g><use stroke="#000" stroke-width=".6" x="549.59" xlink:href="#j" y="505.928"/><g transform="matrix(.1 0 0 -.1 543.227 518.926)"><use xlink:href="#f"/><use x="63.623" xlink:href="#o"/></g></g><g><path clip-path="url(#T)" d="M70.22 470.647H558" fill="none" stroke="#b0b0b0" stroke-linecap="square" stroke-width=".8"/><use stroke="#000" stroke-width=".8" x="70.22" xlink:href="#p" y="470.647"/><g transform="matrix(.1 0 0 -.1 31.407 474.446)"><use xlink:href="#J"/><use x="63.623" xlink:href="#g"/><use x="127.246" xlink:href="#g"/><use x="190.869" xlink:href="#g"/><use x="254.492" xlink:href="#g"/></g><path clip-path="url(#T)" d="M70.22 435.36H558" fill="none" stroke="#b0b0b0" stroke-linecap="square" stroke-width=".8"/><use stroke="#000" stroke-width=".8" x="70.22" xlink:href="#p" y="435.36"/><g transform="matrix(.1 0 0 -.1 25.045 439.159)"><use xlink:href="#l"/><use x="63.623" xlink:href="#g"/><use x="127.246" xlink:href="#g"/><use x="190.869" xlink:href="#g"/><use x="254.492" xlink:href="#g"/><use x="318.115" xlink:href="#g"/></g><g><path clip-path="url(#T)" d="M70.22 400.072H558" fill="none" stroke="#b0b0b0" stroke-linecap="square" stroke-width=".8"/><use stroke="#000" stroke-width=".8" x="70.22" xlink:href="#p" y="400.072"/><g transform="matrix(.1 0 0 -.1 25.045 403.87)"><use xlink:href="#l"/><use x="63.623" xlink:href="#J"/><use x="127.246" xlink:href="#g"/><use x="190.869" xlink:href="#g"/><use x="254.492" xlink:href="#g"/><use x="318.115" xlink:href="#g"/></g></g><g><path clip-path="url(#T)" d="M70.22 364.784H558" fill="none" stroke="#b0b0b0" stroke-linecap="square" stroke-width=".8"/><use stroke="#000" stroke-width=".8" x="70.22" xlink:href="#p" y="364.784"/><g transform="matrix(.1 0 0 -.1 25.045 368.583)"><use xlink:href="#f"/><use x="63.623" xlink:href="#g"/><use x="127.246" xlink:href="#g"/><use x="190.869" xlink:href="#g"/><use x="254.492" xlink:href="#g"/><use x="318.115" xlink:href="#g"/></g></g><g><path clip-path="url(#T)" d="M70.22 329.496H558" fill="none" stroke="#b0b0b0" stroke-linecap="square" stroke-width=".8"/><use stroke="#000" stroke-width=".8" x="70.22" xlink:href="#p" y="329.496"/><g transform="matrix(.1 0 0 -.1 25.045 333.295)"><use xlink:href="#f"/><use x="63.623" xlink:href="#J"/><use x="127.246" xlink:href="#g"/><use x="190.869" xlink:href="#g"/><use x="254.492" xlink:href="#g"/><use x="318.115" xlink:href="#g"/></g></g><g transform="matrix(0 -.1 -.1 0 18.965 408.358)"><use xlink:href="#K"/><use x="73.193" xlink:href="#L"/></g></g><g stroke="#1f77b4"><path clip-path="url(#T)" d="M-1 505.935H78.63l8.41-.001 8.41-.007 8.41-.008 8.41-.01 8.41-.028 8.41-.02 8.41-.026 8.41-.022 8.41-.033 8.41-.076 8.41-.066 8.41-.072 8.41-.145 8.41-.161 8.41-.52 8.41-.555 8.41-2.012 8.41-2.073 8.41-2.387 8.41-2.846 8.41-3.56 8.41-3.348 8.41-3.589 8.41-4.895 8.41-4.84 8.41-5.175 8.41-4.94 8.41-4.773 8.41-6.238 8.41-5.45 8.41-5.736 8.41-7 8.41-7.21 8.41-6.164 8.41-5.727 8.41-5.13 8.41-7.345 8.41-7 8.41-6.895 8.41-5.588 8.41-5.117 8.41-4.264 8.41-4.579 8.41-7.522 8.41-4.25 8.41-3.252 8.41-7.463 8.41-3.865 8.41-3.48 8.41-3.394 8.41-3.262 8.41.983 8.41-5.43 8.41-7.025" fill="none" stroke-linecap="square" stroke-width="1.5"/><g clip-path="url(#T)" fill="#1f77b4"><use x="-1" xlink:href="#y" y="505.935"/><use x="2.94" xlink:href="#y" y="505.935"/><use x="11.35" xlink:href="#y" y="505.935"/><use x="19.76" xlink:href="#y" y="505.935"/><use x="28.17" xlink:href="#y" y="505.935"/><use x="36.58" xlink:href="#y" y="505.935"/><use x="44.99" xlink:href="#y" y="505.935"/><use x="53.4" xlink:href="#y" y="505.935"/><use x="61.81" xlink:href="#y" y="505.935"/><use x="70.22" xlink:href="#y" y="505.935"/><use x="78.63" xlink:href="#y" y="505.934"/><use x="87.04" xlink:href="#y" y="505.934"/><use x="95.45" xlink:href="#y" y="505.927"/><use x="103.86" xlink:href="#y" y="505.919"/><use x="112.27" xlink:href="#y" y="505.91"/><use x="120.68" xlink:href="#y" y="505.881"/><use x="129.09" xlink:href="#y" y="505.86"/><use x="137.5" xlink:href="#y" y="505.835"/><use x="145.91" xlink:href="#y" y="505.813"/><use x="154.32" xlink:href="#y" y="505.78"/><use x="162.73" xlink:href="#y" y="505.704"/><use x="171.14" xlink:href="#y" y="505.638"/><use x="179.55" xlink:href="#y" y="505.566"/><use x="187.96" xlink:href="#y" y="505.421"/><use x="196.37" xlink:href="#y" y="505.26"/><use x="204.78" xlink:href="#y" y="504.74"/><use x="213.19" xlink:href="#y" y="504.185"/><use x="221.6" xlink:href="#y" y="502.173"/><use x="230.01" xlink:href="#y" y="500.1"/><use x="238.42" xlink:href="#y" y="497.713"/><use x="246.83" xlink:href="#y" y="494.867"/><use x="255.24" xlink:href="#y" y="491.308"/><use x="263.65" xlink:href="#y" y="487.959"/><use x="272.06" xlink:href="#y" y="484.37"/><use x="280.47" xlink:href="#y" y="479.475"/><use x="288.88" xlink:href="#y" y="474.636"/><use x="297.29" xlink:href="#y" y="469.46"/><use x="305.7" xlink:href="#y" y="464.519"/><use x="314.11" xlink:href="#y" y="459.747"/><use x="322.52" xlink:href="#y" y="453.509"/><use x="330.93" xlink:href="#y" y="448.058"/><use x="339.34" xlink:href="#y" y="442.323"/><use x="347.75" xlink:href="#y" y="435.323"/><use x="356.16" xlink:href="#y" y="428.113"/><use x="364.57" xlink:href="#y" y="421.949"/><use x="372.98" xlink:href="#y" y="416.222"/><use x="381.39" xlink:href="#y" y="411.091"/><use x="389.8" xlink:href="#y" y="403.747"/><use x="398.21" xlink:href="#y" y="396.746"/><use x="406.62" xlink:href="#y" y="389.852"/><use x="415.03" xlink:href="#y" y="384.264"/><use x="423.44" xlink:href="#y" y="379.147"/><use x="431.85" xlink:href="#y" y="374.883"/><use x="440.26" xlink:href="#y" y="370.304"/><use x="448.67" xlink:href="#y" y="362.782"/><use x="457.08" xlink:href="#y" y="358.532"/><use x="465.49" xlink:href="#y" y="355.28"/><use x="473.9" xlink:href="#y" y="347.817"/><use x="482.31" xlink:href="#y" y="343.952"/><use x="490.72" xlink:href="#y" y="340.471"/><use x="499.13" xlink:href="#y" y="337.078"/><use x="507.54" xlink:href="#y" y="333.816"/><use x="515.95" xlink:href="#y" y="334.799"/><use x="524.36" xlink:href="#y" y="329.37"/><use x="532.77" xlink:href="#y" y="322.344"/></g></g><g stroke="#ff7f0e"><path clip-path="url(#T)" d="M-1 505.935H95.45l8.41-.001h8.41l8.41-.002h16.82l8.41-.007 8.41-.005 8.41-.005h8.41l8.41-.028 8.41-.02 8.41-.055 8.41-.063h8.41l8.41-.331 8.41-.103 8.41-.305 8.41-.412 8.41-.651 8.41-.575 8.41-.5 8.41-1.733 8.41-1.356 8.41-1.6 8.41-1.582 8.41-2.267 8.41-1.405 8.41-2.45 8.41-2.225 8.41-2.962 8.41-2.843 8.41-2.336 8.41-2.47 8.41-2.185 8.41-1.94 8.41-2.39 8.41-2.355 8.41-2.338 8.41-2.492 8.41-1.864 8.41-2.737 8.41-1.31 8.41-2.77 8.41-1.995 8.41-1.922 8.41-2.533 8.41-2.32 8.41-2.405 8.41-2.21 8.41-2.706 8.41-1.35 8.41-2.168" fill="none" stroke-linecap="square" stroke-width="1.5"/><g clip-path="url(#T)" fill="#ff7f0e"><use x="-1" xlink:href="#z" y="505.935"/><use x="2.94" xlink:href="#z" y="505.935"/><use x="11.35" xlink:href="#z" y="505.935"/><use x="19.76" xlink:href="#z" y="505.935"/><use x="28.17" xlink:href="#z" y="505.935"/><use x="36.58" xlink:href="#z" y="505.935"/><use x="44.99" xlink:href="#z" y="505.935"/><use x="53.4" xlink:href="#z" y="505.935"/><use x="61.81" xlink:href="#z" y="505.935"/><use x="70.22" xlink:href="#z" y="505.935"/><use x="78.63" xlink:href="#z" y="505.935"/><use x="87.04" xlink:href="#z" y="505.935"/><use x="95.45" xlink:href="#z" y="505.935"/><use x="103.86" xlink:href="#z" y="505.934"/><use x="112.27" xlink:href="#z" y="505.934"/><use x="120.68" xlink:href="#z" y="505.932"/><use x="129.09" xlink:href="#z" y="505.932"/><use x="137.5" xlink:href="#z" y="505.932"/><use x="145.91" xlink:href="#z" y="505.925"/><use x="154.32" xlink:href="#z" y="505.92"/><use x="162.73" xlink:href="#z" y="505.915"/><use x="171.14" xlink:href="#z" y="505.915"/><use x="179.55" xlink:href="#z" y="505.887"/><use x="187.96" xlink:href="#z" y="505.867"/><use x="196.37" xlink:href="#z" y="505.812"/><use x="204.78" xlink:href="#z" y="505.749"/><use x="213.19" xlink:href="#z" y="505.749"/><use x="221.6" xlink:href="#z" y="505.418"/><use x="230.01" xlink:href="#z" y="505.315"/><use x="238.42" xlink:href="#z" y="505.01"/><use x="246.83" xlink:href="#z" y="504.598"/><use x="255.24" xlink:href="#z" y="503.947"/><use x="263.65" xlink:href="#z" y="503.372"/><use x="272.06" xlink:href="#z" y="502.872"/><use x="280.47" xlink:href="#z" y="501.139"/><use x="288.88" xlink:href="#z" y="499.783"/><use x="297.29" xlink:href="#z" y="498.183"/><use x="305.7" xlink:href="#z" y="496.601"/><use x="314.11" xlink:href="#z" y="494.334"/><use x="322.52" xlink:href="#z" y="492.929"/><use x="330.93" xlink:href="#z" y="490.479"/><use x="339.34" xlink:href="#z" y="488.254"/><use x="347.75" xlink:href="#z" y="485.292"/><use x="356.16" xlink:href="#z" y="482.449"/><use x="364.57" xlink:href="#z" y="480.113"/><use x="372.98" xlink:href="#z" y="477.643"/><use x="381.39" xlink:href="#z" y="475.458"/><use x="389.8" xlink:href="#z" y="473.518"/><use x="398.21" xlink:href="#z" y="471.129"/><use x="406.62" xlink:href="#z" y="468.773"/><use x="415.03" xlink:href="#z" y="466.435"/><use x="423.44" xlink:href="#z" y="463.943"/><use x="431.85" xlink:href="#z" y="462.079"/><use x="440.26" xlink:href="#z" y="459.342"/><use x="448.67" xlink:href="#z" y="458.033"/><use x="457.08" xlink:href="#z" y="455.263"/><use x="465.49" xlink:href="#z" y="453.267"/><use x="473.9" xlink:href="#z" y="451.345"/><use x="482.31" xlink:href="#z" y="448.812"/><use x="490.72" xlink:href="#z" y="446.492"/><use x="499.13" xlink:href="#z" y="444.087"/><use x="507.54" xlink:href="#z" y="441.878"/><use x="515.95" xlink:href="#z" y="439.171"/><use x="524.36" xlink:href="#z" y="437.82"/><use x="532.77" xlink:href="#z" y="435.653"/></g></g><path clip-path="url(#T)" d="M-1 505.934H44.99l8.41.001H103.86l8.41-.004h8.41l8.41-.012h8.41l8.41-.048 8.41-.002 8.41-.01 8.41-.01 8.41-.01 8.41-.019 8.41-.023 8.41-.015h8.41l8.41-.078 8.41-.06 8.41-.079 8.41-.082 8.41-.09 8.41-.268 8.41-.477 8.41-.401 8.41-.574 8.41-.711 8.41-.49 8.41-.557 8.41-.59 8.41-.765 8.41-.844 8.41-.987 8.41-.924 8.41-.529 8.41-.923 8.41-.896 8.41-1.066 8.41-1.469 8.41-1.367 8.41-1.27 8.41-1.796 8.41-.92 8.41-.915 8.41-1.052 8.41-1.597 8.41-1.47 8.41-1.279 8.41-.99h8.41l8.41-2.023 8.41-1.076 8.41-2.047 8.41-3.353 8.41-1.556" fill="none" stroke="#2ca02c" stroke-linecap="square" stroke-width="1.5"/><g stroke="#d62728"><path clip-path="url(#T)" d="M-1 505.926h12.35l8.41.003H53.4l8.41-.001h8.41l8.41-.006 8.41-.003 8.41-.007 8.41-.01 8.41-.006 8.41-.017 8.41-.011 8.41-.004 8.41-.028 8.41-.022 8.41-.028 8.41-.043 8.41-.04 8.41-.06 8.41-.092 8.41-.096 8.41-.04 8.41-.14 8.41-.154 8.41-.132 8.41-.194 8.41-.32 8.41-.296 8.41-.314 8.41-.625 8.41-.525 8.41-.298 8.41-.525 8.41-.892 8.41-.737 8.41-.82 8.41-.943 8.41-.85 8.41-.57 8.41-1.51 8.41-.672 8.41-.904 8.41-1.046 8.41-.54 8.41-.94 8.41-.426 8.41-.743 8.41-.75 8.41-.968 8.41-.873 8.41-.631 8.41-.988 8.41-.869 8.41-.637 8.41-1.557 8.41-1.216 8.41-1.228 8.41-1.485 8.41-1.204 8.41-.667" fill="none" stroke-linecap="square" stroke-width="1.5"/><g clip-path="url(#T)" fill="#d62728"><use x="-1" xlink:href="#A" y="505.926"/><use x="2.94" xlink:href="#A" y="505.926"/><use x="11.35" xlink:href="#A" y="505.926"/><use x="19.76" xlink:href="#A" y="505.929"/><use x="28.17" xlink:href="#A" y="505.929"/><use x="36.58" xlink:href="#A" y="505.929"/><use x="44.99" xlink:href="#A" y="505.929"/><use x="53.4" xlink:href="#A" y="505.929"/><use x="61.81" xlink:href="#A" y="505.928"/><use x="70.22" xlink:href="#A" y="505.928"/><use x="78.63" xlink:href="#A" y="505.922"/><use x="87.04" xlink:href="#A" y="505.919"/><use x="95.45" xlink:href="#A" y="505.912"/><use x="103.86" xlink:href="#A" y="505.901"/><use x="112.27" xlink:href="#A" y="505.896"/><use x="120.68" xlink:href="#A" y="505.879"/><use x="129.09" xlink:href="#A" y="505.868"/><use x="137.5" xlink:href="#A" y="505.864"/><use x="145.91" xlink:href="#A" y="505.836"/><use x="154.32" xlink:href="#A" y="505.814"/><use x="162.73" xlink:href="#A" y="505.786"/><use x="171.14" xlink:href="#A" y="505.743"/><use x="179.55" xlink:href="#A" y="505.703"/><use x="187.96" xlink:href="#A" y="505.643"/><use x="196.37" xlink:href="#A" y="505.551"/><use x="204.78" xlink:href="#A" y="505.455"/><use x="213.19" xlink:href="#A" y="505.414"/><use x="221.6" xlink:href="#A" y="505.276"/><use x="230.01" xlink:href="#A" y="505.121"/><use x="238.42" xlink:href="#A" y="504.989"/><use x="246.83" xlink:href="#A" y="504.795"/><use x="255.24" xlink:href="#A" y="504.475"/><use x="263.65" xlink:href="#A" y="504.179"/><use x="272.06" xlink:href="#A" y="503.865"/><use x="280.47" xlink:href="#A" y="503.24"/><use x="288.88" xlink:href="#A" y="502.715"/><use x="297.29" xlink:href="#A" y="502.417"/><use x="305.7" xlink:href="#A" y="501.892"/><use x="314.11" xlink:href="#A" y="501"/><use x="322.52" xlink:href="#A" y="500.263"/><use x="330.93" xlink:href="#A" y="499.442"/><use x="339.34" xlink:href="#A" y="498.5"/><use x="347.75" xlink:href="#A" y="497.65"/><use x="356.16" xlink:href="#A" y="497.079"/><use x="364.57" xlink:href="#A" y="495.57"/><use x="372.98" xlink:href="#A" y="494.898"/><use x="381.39" xlink:href="#A" y="493.994"/><use x="389.8" xlink:href="#A" y="492.948"/><use x="398.21" xlink:href="#A" y="492.409"/><use x="406.62" xlink:href="#A" y="491.468"/><use x="415.03" xlink:href="#A" y="491.042"/><use x="423.44" xlink:href="#A" y="490.299"/><use x="431.85" xlink:href="#A" y="489.55"/><use x="440.26" xlink:href="#A" y="488.581"/><use x="448.67" xlink:href="#A" y="487.708"/><use x="457.08" xlink:href="#A" y="487.077"/><use x="465.49" xlink:href="#A" y="486.089"/><use x="473.9" xlink:href="#A" y="485.22"/><use x="482.31" xlink:href="#A" y="484.583"/><use x="490.72" xlink:href="#A" y="483.026"/><use x="499.13" xlink:href="#A" y="481.81"/><use x="507.54" xlink:href="#A" y="480.582"/><use x="515.95" xlink:href="#A" y="479.097"/><use x="524.36" xlink:href="#A" y="477.893"/><use x="532.77" xlink:href="#A" y="477.226"/></g></g><g stroke="#9467bd"><path clip-path="url(#T)" d="M-1 505.935H70.22l8.41-.001h16.82l8.41-.001h16.82l8.41-.001h8.41l8.41-.004 8.41-.01 8.41-.004 8.41-.01 8.41-.013 8.41-.02 8.41-.009 8.41-.038 8.41-.003 8.41-.18 8.41-.115 8.41-.118 8.41-.207 8.41-.164 8.41-.175 8.41-.23 8.41-.47 8.41-.337 8.41-.32 8.41-.767 8.41-.32 8.41-.643 8.41-.667 8.41-.489 8.41-.82 8.41-1.001 8.41-.616 8.41-.684 8.41-.006 8.41-1.872 8.41-.001 8.41-1.886 8.41-.857 8.41-1.15 8.41-.772 8.41-.814 8.41-.892 8.41-.718 8.41-1.26 8.41-1.026 8.41-.823 8.41-.774 8.41-1.007 8.41-1.377 8.41-1.205 8.41-1.845 8.41-1.439" fill="none" stroke-linecap="square" stroke-width="1.5"/><g clip-path="url(#T)" fill="#9467bd"><use x="-1" xlink:href="#B" y="505.935"/><use x="2.94" xlink:href="#B" y="505.935"/><use x="11.35" xlink:href="#B" y="505.935"/><use x="19.76" xlink:href="#B" y="505.935"/><use x="28.17" xlink:href="#B" y="505.935"/><use x="36.58" xlink:href="#B" y="505.935"/><use x="44.99" xlink:href="#B" y="505.935"/><use x="53.4" xlink:href="#B" y="505.935"/><use x="61.81" xlink:href="#B" y="505.935"/><use x="70.22" xlink:href="#B" y="505.934"/><use x="78.63" xlink:href="#B" y="505.934"/><use x="87.04" xlink:href="#B" y="505.934"/><use x="95.45" xlink:href="#B" y="505.934"/><use x="103.86" xlink:href="#B" y="505.933"/><use x="112.27" xlink:href="#B" y="505.933"/><use x="120.68" xlink:href="#B" y="505.932"/><use x="129.09" xlink:href="#B" y="505.932"/><use x="137.5" xlink:href="#B" y="505.932"/><use x="145.91" xlink:href="#B" y="505.928"/><use x="154.32" xlink:href="#B" y="505.919"/><use x="162.73" xlink:href="#B" y="505.914"/><use x="171.14" xlink:href="#B" y="505.904"/><use x="179.55" xlink:href="#B" y="505.891"/><use x="187.96" xlink:href="#B" y="505.871"/><use x="196.37" xlink:href="#B" y="505.862"/><use x="204.78" xlink:href="#B" y="505.824"/><use x="213.19" xlink:href="#B" y="505.821"/><use x="221.6" xlink:href="#B" y="505.64"/><use x="230.01" xlink:href="#B" y="505.526"/><use x="238.42" xlink:href="#B" y="505.408"/><use x="246.83" xlink:href="#B" y="505.201"/><use x="255.24" xlink:href="#B" y="505.037"/><use x="263.65" xlink:href="#B" y="504.862"/><use x="272.06" xlink:href="#B" y="504.632"/><use x="280.47" xlink:href="#B" y="504.162"/><use x="288.88" xlink:href="#B" y="503.825"/><use x="297.29" xlink:href="#B" y="503.504"/><use x="305.7" xlink:href="#B" y="502.738"/><use x="314.11" xlink:href="#B" y="502.418"/><use x="322.52" xlink:href="#B" y="501.775"/><use x="330.93" xlink:href="#B" y="501.108"/><use x="339.34" xlink:href="#B" y="500.619"/><use x="347.75" xlink:href="#B" y="499.799"/><use x="356.16" xlink:href="#B" y="498.798"/><use x="364.57" xlink:href="#B" y="498.182"/><use x="372.98" xlink:href="#B" y="497.498"/><use x="381.39" xlink:href="#B" y="497.492"/><use x="389.8" xlink:href="#B" y="495.62"/><use x="398.21" xlink:href="#B" y="495.619"/><use x="406.62" xlink:href="#B" y="493.733"/><use x="415.03" xlink:href="#B" y="492.876"/><use x="423.44" xlink:href="#B" y="491.727"/><use x="431.85" xlink:href="#B" y="490.954"/><use x="440.26" xlink:href="#B" y="490.14"/><use x="448.67" xlink:href="#B" y="489.248"/><use x="457.08" xlink:href="#B" y="488.53"/><use x="465.49" xlink:href="#B" y="487.271"/><use x="473.9" xlink:href="#B" y="486.244"/><use x="482.31" xlink:href="#B" y="485.421"/><use x="490.72" xlink:href="#B" y="484.647"/><use x="499.13" xlink:href="#B" y="483.64"/><use x="507.54" xlink:href="#B" y="482.263"/><use x="515.95" xlink:href="#B" y="481.058"/><use x="524.36" xlink:href="#B" y="479.213"/><use x="532.77" xlink:href="#B" y="477.774"/></g></g><path clip-path="url(#T)" d="M532.77 322.344l8.41-4.958 8.41-5.093 8.41-5.23" fill="none" stroke="#1f77b4" stroke-dasharray="1.5 2.475" stroke-width="1.5"/><path clip-path="url(#T)" d="M532.77 435.653l8.41-2.1 8.41-2.163 8.41-2.228" fill="none" stroke="#ff7f0e" stroke-dasharray="1.5 2.475" stroke-width="1.5"/><path clip-path="url(#T)" d="M532.77 470.211l8.41-2.617 8.41-2.809 8.41-3.015" fill="none" stroke="#2ca02c" stroke-dasharray="1.5 2.475" stroke-width="1.5"/><path clip-path="url(#T)" d="M532.77 477.226l8.41-1.11 8.41-1.154 8.41-1.198" fill="none" stroke="#d62728" stroke-dasharray="1.5 2.475" stroke-width="1.5"/><path clip-path="url(#T)" d="M532.77 477.774l8.41-1.702 8.41-1.804 8.41-1.913" fill="none" stroke="#9467bd" stroke-dasharray="1.5 2.475" stroke-width="1.5"/><path d="M70.22 505.928V297.12M558 505.928V297.12M70.22 505.928H558M70.22 297.12H558" fill="none" stroke="#000" stroke-linecap="square" stroke-linejoin="miter" stroke-width=".8"/><g><path d="M77.22 378.51h214.322q2 0 2-2v-72.39q0-2-2-2H77.22q-2 0-2 2v72.39q0 2 2 2z" fill="#fff" opacity=".8" stroke="#ccc" stroke-linejoin="miter"/><path d="M79.22 310.218h20" fill="none" stroke="#1f77b4" stroke-linecap="square" stroke-width="1.5"/><use fill="#1f77b4" stroke="#1f77b4" x="89.22" xlink:href="#y" y="310.218"/><g transform="matrix(.1 0 0 -.1 107.22 313.718)"><use xlink:href="#U"/><use x="74.805" xlink:href="#x"/><use x="136.328" xlink:href="#v"/><path d="M249.7 72.906h10.609l20.203-29.984 20.078 29.984h10.594L285.402 34.72V0h-9.906v34.719z"/><use x="310.783" xlink:href="#s"/><use x="371.965" xlink:href="#e"/><path d="M422.156 75.984h9.031V31.11L458 54.687h11.469l-29-25.578L470.703 0h-11.719l-27.796 26.703V0h-9.032z"/><use x="502.775" xlink:href="#M"/><use x="541.789" xlink:href="#u"/><use x="605.266" xlink:href="#s"/><use x="666.447" xlink:href="#N"/><use x="729.826" xlink:href="#O"/><use x="793.303" xlink:href="#t"/><use x="821.086" xlink:href="#x"/><use x="882.609" xlink:href="#H"/><use x="966.496" xlink:href="#w"/><use x="994.279" xlink:href="#P"/><use x="1089.445" xlink:href="#f"/><use x="1153.068" xlink:href="#m"/><use x="1216.691" xlink:href="#Q"/><use x="1248.479" xlink:href="#g"/><use x="1343.889" xlink:href="#u"/><use x="1407.365" xlink:href="#d"/><use x="1468.645" xlink:href="#R"/><use x="1527.824" xlink:href="#H"/><use x="1579.924" xlink:href="#S"/></g><path d="M79.22 324.897h20" fill="none" stroke="#ff7f0e" stroke-linecap="square" stroke-width="1.5"/><use fill="#ff7f0e" stroke="#ff7f0e" x="89.22" xlink:href="#z" y="324.897"/><g transform="matrix(.1 0 0 -.1 107.22 328.397)"><use xlink:href="#U"/><use x="74.805" xlink:href="#x"/><use x="136.328" xlink:href="#v"/><path d="M259.715 72.906h9.86V5.078q0-13.187-5-19.14-5-5.954-16.095-5.954h-3.75v8.297h3.079q6.53 0 9.218 3.672 2.688 3.656 2.688 13.125z"/><use x="279.395" xlink:href="#x"/><use x="340.918" xlink:href="#e"/><use x="382.031" xlink:href="#H"/><use x="434.131" xlink:href="#x"/><use x="495.654" xlink:href="#R"/><use x="586.621" xlink:href="#M"/><use x="625.635" xlink:href="#u"/><use x="689.111" xlink:href="#s"/><use x="750.293" xlink:href="#N"/><use x="813.672" xlink:href="#O"/><use x="877.148" xlink:href="#t"/><use x="904.932" xlink:href="#x"/><use x="966.455" xlink:href="#H"/><use x="1050.342" xlink:href="#w"/><use x="1078.125" xlink:href="#P"/><use x="1173.291" xlink:href="#f"/><use x="1236.914" xlink:href="#n"/><use x="1300.537" xlink:href="#Q"/><use x="1332.324" xlink:href="#J"/><use x="1427.734" xlink:href="#u"/><use x="1491.211" xlink:href="#d"/><use x="1552.49" xlink:href="#R"/><use x="1611.67" xlink:href="#H"/><use x="1663.77" xlink:href="#S"/></g><path d="M79.22 339.575h20" fill="none" stroke="#2ca02c" stroke-linecap="square" stroke-width="1.5"/><g transform="matrix(.1 0 0 -.1 107.22 343.075)"><use xlink:href="#c"/><use x="86.279" xlink:href="#d"/><use x="147.559" xlink:href="#H"/><use x="199.658" xlink:href="#H"/><use x="251.758" xlink:href="#d"/><use x="313.037" xlink:href="#C"/><path d="M422.908 33.016V0h-8.984v32.719q0 7.765-3.031 11.61-3.032 3.858-9.079 3.858-7.28 0-11.484-4.64-4.203-4.625-4.203-12.64V0h-9.031v75.984h9.031V46.188q3.234 4.937 7.594 7.374Q398.096 56 403.814 56q9.422 0 14.25-5.828 4.844-5.828 4.844-17.156z"/><use x="431.396" xlink:href="#N"/><use x="494.775" xlink:href="#H"/><use x="546.875" xlink:href="#x"/><use x="608.398" xlink:href="#D"/><use x="647.607" xlink:href="#D"/><use x="686.816" xlink:href="#H"/><use x="770.703" xlink:href="#M"/><use x="809.717" xlink:href="#u"/><use x="873.193" xlink:href="#s"/><use x="934.375" xlink:href="#N"/><use x="997.754" xlink:href="#O"/><use x="1061.23" xlink:href="#t"/><use x="1089.014" xlink:href="#x"/><use x="1150.537" xlink:href="#H"/><use x="1234.424" xlink:href="#w"/><use x="1262.207" xlink:href="#P"/><use x="1357.373" xlink:href="#k"/><use x="1420.996" xlink:href="#Q"/><use x="1452.783" xlink:href="#r"/><use x="1548.193" xlink:href="#u"/><use x="1611.67" xlink:href="#d"/><use x="1672.949" xlink:href="#R"/><use x="1732.129" xlink:href="#H"/><use x="1784.229" xlink:href="#S"/></g><path d="M79.22 354.253h20" fill="none" stroke="#d62728" stroke-linecap="square" stroke-width="1.5"/><use fill="#d62728" stroke="#d62728" x="89.22" xlink:href="#A" y="354.253"/><g transform="matrix(.1 0 0 -.1 107.22 357.753)"><use xlink:href="#E"/><use x="69.824" xlink:href="#d"/><use x="131.104" xlink:href="#t"/><use x="158.887" xlink:href="#w"/><use x="186.67" xlink:href="#I"/><use x="221.875" xlink:href="#s"/><use x="283.057" xlink:href="#e"/><use x="324.154" xlink:href="#P"/><use x="387.533" xlink:href="#w"/><use x="415.316" xlink:href="#d"/><use x="508.383" xlink:href="#M"/><use x="547.396" xlink:href="#u"/><use x="610.873" xlink:href="#s"/><use x="672.055" xlink:href="#N"/><use x="735.434" xlink:href="#O"/><use x="798.91" xlink:href="#t"/><use x="826.693" xlink:href="#x"/><use x="888.217" xlink:href="#H"/><use x="972.104" xlink:href="#w"/><use x="999.887" xlink:href="#P"/><use x="1095.053" xlink:href="#l"/><use x="1158.676" xlink:href="#r"/><use x="1222.299" xlink:href="#Q"/><use x="1254.086" xlink:href="#n"/><use x="1349.496" xlink:href="#u"/><use x="1412.973" xlink:href="#d"/><use x="1474.252" xlink:href="#R"/><use x="1533.432" xlink:href="#H"/><use x="1585.531" xlink:href="#S"/></g><path d="M79.22 368.93h20" fill="none" stroke="#9467bd" stroke-linecap="square" stroke-width="1.5"/><use fill="#9467bd" stroke="#9467bd" x="89.22" xlink:href="#B" y="368.931"/><g transform="matrix(.1 0 0 -.1 107.22 372.43)"><use xlink:href="#F"/><use x="29.492" xlink:href="#t"/><use x="57.275" xlink:href="#t"/><use x="85.059" xlink:href="#w"/><use x="112.842" xlink:href="#P"/><use x="176.221" xlink:href="#s"/><use x="237.402" xlink:href="#w"/><use x="265.186" xlink:href="#H"/><use x="349.072" xlink:href="#M"/><use x="388.086" xlink:href="#u"/><use x="451.563" xlink:href="#s"/><use x="512.744" xlink:href="#N"/><use x="576.123" xlink:href="#O"/><use x="639.6" xlink:href="#t"/><use x="667.383" xlink:href="#x"/><use x="728.906" xlink:href="#H"/><use x="812.793" xlink:href="#w"/><use x="840.576" xlink:href="#P"/><use x="935.742" xlink:href="#l"/><use x="999.365" xlink:href="#l"/><use x="1062.988" xlink:href="#Q"/><use x="1094.775" xlink:href="#r"/><use x="1190.186" xlink:href="#u"/><use x="1253.662" xlink:href="#d"/><use x="1314.941" xlink:href="#R"/><use x="1374.121" xlink:href="#H"/><use x="1426.221" xlink:href="#S"/></g></g></g></svg>