<svg height="758.4" stroke-linejoin="round" viewBox="0 0 568.8 568.8" width="758.4" xmlns="http://www.w3.org/2000/svg" xmlns:xlink="http://www.w3.org/1999/xlink"><defs><path id="u" d="M30.61 48.39q-7.22 0-11.422-5.64-4.204-5.64-4.204-15.453 0-9.813 4.172-15.453 4.188-5.64 11.453-5.64 7.188 0 11.375 5.655 4.203 5.672 4.203 15.438 0 9.719-4.203 15.406-4.187 5.688-11.375 5.688zm0 7.61q11.718 0 18.406-7.625 6.703-7.61 6.703-21.078 0-13.422-6.703-21.078-6.688-7.64-18.407-7.64-11.765 0-18.437 7.64-6.656 7.656-6.656 21.078 0 13.469 6.656 21.078Q18.844 56 30.609 56z" stroke-linejoin="round"/><path id="Q" d="M9.813 72.906h13.28l32.329-60.984v60.984h9.562V0h-13.28L19.39 60.984V0H9.813z" stroke-linejoin="round"/><path id="b" d="M0 0v3.5" stroke="#000" stroke-linejoin="round" stroke-width=".8"/><path id="c" d="M9.813 72.906h41.89v-8.312H19.672V43.109h28.906v-8.297H19.672V0h-9.86z" stroke-linejoin="round"/><path id="d" d="M56.203 29.594v-4.39H14.891q.593-9.282 5.593-14.142 5-4.859 13.938-4.859 5.172 0 10.031 1.266 4.86 1.265 9.656 3.812v-8.5Q49.266.734 44.187-.344 39.11-1.422 33.892-1.422q-13.094 0-20.735 7.61-7.64 7.625-7.64 20.625 0 13.421 7.25 21.296Q20.016 56 32.328 56q11.031 0 17.453-7.11 6.422-7.093 6.422-19.296zm-8.984 2.64q-.094 7.36-4.125 11.75-4.032 4.407-10.672 4.407-7.516 0-12.031-4.25-4.516-4.25-5.203-11.97z" stroke-linejoin="round"/><path id="e" d="M48.688 27.297q0 9.906-4.079 15.547-4.078 5.64-11.203 5.64-7.14 0-11.218-5.64-4.079-5.64-4.079-15.547 0-9.906 4.078-15.547 4.079-5.64 11.22-5.64 7.124 0 11.202 5.64t4.078 15.547zM18.108 46.39q2.844 4.875 7.157 7.234Q29.594 56 35.594 56q9.968 0 16.187-7.906 6.235-7.907 6.235-20.797T51.78 6.484q-6.218-7.906-16.187-7.906-6 0-10.328 2.375-4.313 2.375-7.157 7.25V0H9.08v75.984h9.03z" stroke-linejoin="round"/><path id="f" d="M19.188 8.297h34.421V0H7.33v8.297q5.609 5.812 15.296 15.594 9.703 9.797 12.188 12.64 4.734 5.313 6.609 9 1.89 3.688 1.89 7.25 0 5.813-4.078 9.469-4.078 3.672-10.625 3.672-4.64 0-9.797-1.61-5.14-1.609-11-4.89v9.969Q13.767 71.78 18.938 73q5.188 1.219 9.485 1.219 11.328 0 18.062-5.672 6.735-5.656 6.735-15.125 0-4.5-1.688-8.531-1.672-4.016-6.125-9.485-1.218-1.422-7.765-8.187-6.532-6.766-18.453-18.922z" stroke-linejoin="round"/><path id="g" d="M31.781 66.406q-7.61 0-11.453-7.5Q16.5 51.422 16.5 36.375q0-14.984 3.828-22.484 3.844-7.5 11.453-7.5 7.672 0 11.5 7.5 3.844 7.5 3.844 22.484 0 15.047-3.844 22.531-3.828 7.5-11.5 7.5zm0 7.813q12.266 0 18.735-9.703 6.468-9.688 6.468-28.141 0-18.406-6.468-28.11-6.47-9.687-18.735-9.687-12.25 0-18.718 9.688-6.47 9.703-6.47 28.109 0 18.453 6.47 28.14Q19.53 74.22 31.78 74.22z" stroke-linejoin="round"/><path id="h" d="M9.813 72.906h14.703l18.593-49.61 18.703 49.61h14.704V0H66.89v64.016l-18.797-50h-9.907l-18.796 50V0H9.813z" stroke-linejoin="round"/><path id="i" d="M34.281 27.484q-10.89 0-15.093-2.484-4.204-2.484-4.204-8.5 0-4.781 3.157-7.594 3.156-2.797 8.562-2.797 7.485 0 12 5.297 4.516 5.297 4.516 14.078v2zm17.922 3.72V0H43.22v8.297Q40.14 3.328 35.547.953q-4.594-2.375-11.234-2.375-8.391 0-13.36 4.719Q6 8.016 6 15.922q0 9.219 6.172 13.906 6.187 4.688 18.437 4.688h12.61v.89q0 6.203-4.078 9.594-4.078 3.39-11.453 3.39-4.688 0-9.141-1.124-4.438-1.125-8.531-3.375v8.312q4.921 1.906 9.562 2.844 4.64.953 9.031.953 11.875 0 17.735-6.156 5.86-6.14 5.86-18.64z" stroke-linejoin="round"/><path id="j" d="M41.11 46.297q-1.516.875-3.297 1.281Q36.03 48 33.89 48q-7.625 0-11.703-4.953-4.079-4.953-4.079-14.234V0H9.08v54.688h9.03v-8.5q2.844 4.984 7.375 7.39Q30.031 56 36.531 56q.922 0 2.047-.125 1.125-.11 2.484-.36z" stroke-linejoin="round"/><path id="k" d="M0 0v2" stroke="#000" stroke-linejoin="round" stroke-width=".6"/><path id="l" d="M8.203 72.906h46.875v-4.203L28.61 0H18.312L43.22 64.594H8.203z" stroke-linejoin="round"/><path id="m" d="M40.578 39.313Q47.656 37.797 51.625 33q3.984-4.781 3.984-11.813 0-10.78-7.422-16.703-7.421-5.906-21.093-5.906-4.578 0-9.438.906-4.86.907-10.031 2.72v9.515q4.094-2.39 8.969-3.61 4.89-1.218 10.218-1.218 9.266 0 14.125 3.656 4.86 3.656 4.86 10.64 0 6.454-4.516 10.079-4.515 3.64-12.562 3.64h-8.5v8.11h8.89q7.266 0 11.125 2.906 3.86 2.906 3.86 8.375 0 5.61-3.985 8.61-3.968 3.015-11.39 3.015-4.063 0-8.703-.89-4.641-.876-10.203-2.72v8.782q5.624 1.562 10.53 2.344 4.907.78 9.25.78 11.235 0 17.766-5.109 6.547-5.093 6.547-13.78 0-6.063-3.468-10.235-3.47-4.172-9.86-5.782z" stroke-linejoin="round"/><path id="n" d="M12.406 8.297h16.11v55.625l-17.532-3.516v8.985l17.438 3.515h9.86V8.296H54.39V0H12.406z" stroke-linejoin="round"/><path id="o" d="M37.797 64.313L12.89 25.39h24.906zm-2.594 8.593H47.61V25.391h10.407v-8.203H47.609V0h-9.812v17.188H4.89v9.515z" stroke-linejoin="round"/><path id="p" d="M10.984 1.516V10.5q3.72-1.766 7.516-2.688 3.813-.921 7.484-.921 9.766 0 14.907 6.562 5.156 6.563 5.89 19.953-2.828-4.203-7.187-6.453-4.344-2.25-9.61-2.25-10.937 0-17.312 6.61-6.375 6.625-6.375 18.109 0 11.219 6.64 18 6.641 6.797 17.672 6.797 12.657 0 19.313-9.703 6.672-9.688 6.672-28.141 0-17.234-8.188-27.516Q40.234-1.42 26.422-1.42q-3.719 0-7.531.734-3.797.734-7.907 2.203zM30.61 32.422q6.641 0 10.516 4.531 3.89 4.547 3.89 12.469 0 7.86-3.89 12.422-3.875 4.562-10.516 4.562-6.64 0-10.515-4.562-3.875-4.563-3.875-12.422 0-7.922 3.875-12.469 3.875-4.531 10.515-4.531z" stroke-linejoin="round"/><path id="q" d="M33.016 40.375q-6.641 0-10.532-4.547-3.875-4.531-3.875-12.437 0-7.86 3.875-12.438 3.891-4.562 10.532-4.562 6.64 0 10.515 4.562 3.875 4.578 3.875 12.438 0 7.906-3.875 12.437-3.875 4.547-10.515 4.547zm19.578 30.922v-8.984q-3.719 1.75-7.5 2.671-3.782.938-7.5.938-9.766 0-14.922-6.594-5.14-6.594-5.875-19.922 2.875 4.25 7.219 6.516 4.359 2.266 9.578 2.266 10.984 0 17.36-6.672 6.374-6.657 6.374-18.125 0-11.235-6.64-18.032-6.641-6.78-17.672-6.78-12.657 0-19.344 9.687-6.688 9.703-6.688 28.109 0 17.281 8.204 27.563 8.203 10.28 22.015 10.28 3.719 0 7.5-.734t7.89-2.187z" stroke-linejoin="round"/><path id="r" d="M0 0h-3.5" stroke="#000" stroke-linejoin="round" stroke-width=".8"/><path id="s" d="M10.797 72.906h38.719v-8.312H19.828v-17.86q2.14.735 4.281 1.094 2.157.36 4.313.36 12.203 0 19.328-6.688 7.14-6.688 7.14-18.11 0-11.765-7.328-18.296-7.328-6.516-20.656-6.516-4.593 0-9.36.781-4.75.782-9.827 2.344v9.922q4.39-2.39 9.078-3.563 4.687-1.171 9.906-1.171 8.453 0 13.375 4.437 4.938 4.438 4.938 12.063 0 7.609-4.938 12.047-4.922 4.453-13.375 4.453-3.953 0-7.89-.875-3.922-.875-8.016-2.735z" stroke-linejoin="round"/><path id="t" d="M3.328 72.906h9.953L28.61 11.281l15.282 61.625h11.093l15.328-61.625 15.282 61.625h10.015L77.297 0H64.89L49.516 63.281 33.984 0H21.578z" stroke-linejoin="round"/><path id="O" d="M8.688 72.906h9.921V28.61q0-11.718 4.235-16.875 4.25-5.14 13.781-5.14 9.469 0 13.719 5.14 4.25 5.157 4.25 16.875v44.297H64.5V27.391q0-14.25-7.063-21.532-7.046-7.28-20.812-7.28-13.828 0-20.89 7.28-7.047 7.282-7.047 21.532z" stroke-linejoin="round"/><path id="v" d="M9.422 75.984h8.984V0H9.422z" stroke-linejoin="round"/><path id="w" d="M45.406 46.39v29.594h8.985V0h-8.985v8.203Q42.578 3.328 38.25.953q-4.313-2.375-10.375-2.375-9.906 0-16.14 7.906-6.22 7.922-6.22 20.813 0 12.89 6.22 20.797Q17.968 56 27.874 56q6.063 0 10.375-2.375 4.328-2.36 7.156-7.234zm-30.61-19.093q0-9.906 4.079-15.547 4.078-5.64 11.203-5.64 7.125 0 11.219 5.64 4.11 5.64 4.11 15.547 0 9.906-4.11 15.547-4.094 5.64-11.219 5.64-7.125 0-11.203-5.64-4.078-5.64-4.078-15.547z" stroke-linejoin="round"/><path id="x" d="M4.203 54.688h8.985l11.234-42.672 11.172 42.672h10.593l11.235-42.672 11.187 42.672h8.985L63.28 0H52.688L40.922 44.828 29.109 0H18.5z" stroke-linejoin="round"/><path id="y" d="M9.422 54.688h8.984V0H9.422zm0 21.296h8.984v-11.39H9.422z" stroke-linejoin="round"/><path id="z" d="M48.781 52.594v-8.407q-3.812 2.11-7.64 3.157-3.828 1.047-7.735 1.047-8.75 0-13.593-5.547-4.829-5.532-4.829-15.547 0-10.016 4.829-15.563 4.843-5.53 13.593-5.53 3.907 0 7.735 1.046 3.828 1.047 7.64 3.156V2.094Q45.016.344 40.984-.531q-4.015-.89-8.562-.89-12.36 0-19.64 7.765-7.266 7.765-7.266 20.953 0 13.375 7.343 21.031Q20.22 56 33.016 56q4.14 0 8.093-.86 3.953-.843 7.672-2.546z" stroke-linejoin="round"/><path id="A" d="M18.313 70.219V54.688h18.5v-6.985h-18.5V18.016q0-6.688 1.828-8.594 1.828-1.906 7.453-1.906h9.218V0h-9.218q-10.407 0-14.36 3.875-3.953 3.89-3.953 14.14v29.688H2.687v6.984h6.594V70.22z" stroke-linejoin="round"/><path id="B" d="M64.406 67.281v-10.39q-4.984 4.64-10.625 6.922-5.64 2.296-11.984 2.296-12.5 0-19.14-7.64-6.641-7.64-6.641-22.094 0-14.406 6.64-22.047 6.64-7.64 19.14-7.64 6.345 0 11.985 2.296 5.64 2.297 10.625 6.938V5.609Q59.234 2.094 53.437.33q-5.78-1.75-12.218-1.75-16.563 0-26.094 10.124-9.516 10.14-9.516 27.672 0 17.578 9.516 27.703 9.531 10.14 26.094 10.14 6.531 0 12.312-1.734 5.797-1.734 10.875-5.203z" stroke-linejoin="round"/><path id="C" d="M9.813 72.906h9.859V0h-9.86z" stroke-linejoin="round"/><path id="D" d="M4.89 31.39h26.313v-8H4.891z" stroke-linejoin="round"/><path id="E" d="M44.281 53.078v-8.5q-3.797 1.953-7.906 2.922-4.094.984-8.5.984-6.688 0-10.031-2.047-3.344-2.046-3.344-6.156 0-3.125 2.39-4.906 2.391-1.781 9.626-3.39l3.078-.688q9.562-2.047 13.593-5.781 4.032-3.735 4.032-10.422 0-7.625-6.032-12.078-6.03-4.438-16.578-4.438-4.39 0-9.156.86Q10.688.296 5.422 2v9.281q4.984-2.594 9.812-3.89 4.829-1.282 9.579-1.282 6.343 0 9.75 2.172 3.421 2.172 3.421 6.125 0 3.656-2.468 5.61-2.453 1.953-10.813 3.765l-3.125.735q-8.344 1.75-12.062 5.39-3.704 3.64-3.704 9.985 0 7.718 5.47 11.906Q16.75 56 26.811 56q4.97 0 9.36-.734 4.406-.72 8.11-2.188z" stroke-linejoin="round"/><path id="F" d="M37.11 75.984V68.5h-8.594q-4.828 0-6.72-1.953-1.874-1.953-1.874-7.031v-4.828h14.797v-6.985H19.922V0H10.89v47.703H2.297v6.984h8.594V58.5q0 9.125 4.25 13.297 4.25 4.187 13.468 4.187z" stroke-linejoin="round"/><path id="G" d="M54.89 33.016V0h-8.984v32.719q0 7.765-3.031 11.61-3.031 3.858-9.078 3.858-7.281 0-11.484-4.64-4.204-4.625-4.204-12.64V0H9.08v75.984h9.03V46.188q3.235 4.937 7.594 7.374Q30.078 56 35.797 56q9.422 0 14.25-5.828 4.844-5.828 4.844-17.156z" stroke-linejoin="round"/><path id="H" d="M54.89 33.016V0h-8.984v32.719q0 7.765-3.031 11.61-3.031 3.858-9.078 3.858-7.281 0-11.484-4.64-4.204-4.625-4.204-12.64V0H9.08v54.688h9.03v-8.5q3.235 4.937 7.594 7.374Q30.078 56 35.797 56q9.422 0 14.25-5.828 4.844-5.828 4.844-17.156z" stroke-linejoin="round"/><path id="I" d="M53.516 70.516V60.89q-5.61 2.687-10.594 4-4.984 1.328-9.625 1.328-8.047 0-12.422-3.125t-4.375-8.89q0-4.845 2.906-7.313 2.907-2.453 11.016-3.97l5.953-1.218q11.031-2.11 16.281-7.406 5.25-5.297 5.25-14.172 0-10.61-7.11-16.078-7.093-5.469-20.812-5.469-5.172 0-11.015 1.172Q13.14.922 6.89 3.219v10.156q6-3.36 11.765-5.078 5.766-1.703 11.328-1.703 8.438 0 13.032 3.312 4.593 3.328 4.593 9.485 0 5.359-3.297 8.39-3.296 3.032-10.812 4.547L27.484 33.5q-11.03 2.188-15.968 6.875-4.922 4.688-4.922 13.047 0 9.672 6.812 15.234 6.813 5.563 18.766 5.563 5.14 0 10.453-.938 5.328-.922 10.89-2.765z" stroke-linejoin="round"/><path id="J" d="M8.5 21.578v33.11h8.984V21.922q0-7.766 3.016-11.656 3.031-3.875 9.094-3.875 7.265 0 11.484 4.64 4.234 4.64 4.234 12.656v31h8.985V0h-8.984v8.406Q42.047 3.422 37.718 1q-4.313-2.422-10.032-2.422-9.421 0-14.312 5.86Q8.5 10.296 8.5 21.578z" stroke-linejoin="round"/><path id="K" d="M32.172-5.078q-3.797-9.766-7.422-12.735-3.61-2.984-9.656-2.984H7.906v7.516h5.282q3.703 0 5.75 1.765Q21-9.766 23.483-3.219l1.61 4.094-22.11 53.813H12.5l17.094-42.766 17.093 42.766h9.516z" stroke-linejoin="round"/><path id="L" d="M31 75.875q-6.531-11.219-9.719-22.219-3.172-10.984-3.172-22.265 0-11.266 3.203-22.328Q24.517-2 31-13.188h-7.813Q15.875-1.704 12.235 9.375q-3.64 11.078-3.64 22.016 0 10.89 3.61 21.922 3.624 11.046 10.983 22.562z" stroke-linejoin="round"/><path id="M" d="M10.688 12.406H21V0H10.687z" stroke-linejoin="round"/><path id="N" d="M8.016 75.875h7.812q7.313-11.516 10.953-22.563 3.64-11.03 3.64-21.921 0-10.938-3.64-22.016-3.64-11.078-10.953-22.563H8.016Q14.5-2 17.703 9.063q3.203 11.063 3.203 22.329 0 11.28-3.203 22.265-3.203 11-9.687 22.219z" stroke-linejoin="round"/><clipPath id="P" stroke-linejoin="round"><path d="M63.83 298.38h491.65v207.548H63.83z"/></clipPath><clipPath id="a" stroke-linejoin="round"><path d="M63.83 25.44h491.65v207.548H63.83z"/></clipPath></defs><path d="M0 568.8h568.8V0H0z" fill="#fff"/><path d="M63.83 232.988h491.65V25.44H63.83z" fill="#fff"/><g stroke-width=".8"><path clip-path="url(#a)" d="M63.83 232.988V25.44" fill="none" stroke="#b0b0b0" stroke-linecap="square"/><use stroke="#000" x="63.83" xlink:href="#b" y="232.988"/></g><path clip-path="url(#a)" d="M145.772 232.988V25.44" fill="none" stroke="#b0b0b0" stroke-linecap="square" stroke-width=".8"/><use stroke="#000" stroke-width=".8" x="145.772" xlink:href="#b" y="232.988"/><g transform="matrix(.1 0 0 -.1 136.649 269.982)"><use xlink:href="#c"/><use x="57.441" xlink:href="#d"/><use x="118.965" xlink:href="#e"/></g><g transform="matrix(.1 0 0 -.1 133.047 281.18)"><use xlink:href="#f"/><use x="63.623" xlink:href="#g"/><use x="127.246" xlink:href="#f"/><use x="190.869" xlink:href="#g"/></g><path clip-path="url(#a)" d="M383.402 232.988V25.44" fill="none" stroke="#b0b0b0" stroke-linecap="square" stroke-width=".8"/><use stroke="#000" stroke-width=".8" x="383.402" xlink:href="#b" y="232.988"/><g transform="matrix(.1 0 0 -.1 373.969 269.982)"><use xlink:href="#h"/><use x="86.279" xlink:href="#i"/><use x="147.559" xlink:href="#j"/></g><g stroke-width=".8"><path clip-path="url(#a)" d="M555.48 232.988V25.44" fill="none" stroke="#b0b0b0" stroke-linecap="square"/><use stroke="#000" x="555.48" xlink:href="#b" y="232.988"/></g><use stroke="#000" stroke-width=".6" x="63.83" xlink:href="#k" y="232.988"/><use stroke="#000" stroke-width=".6" x="72.024" xlink:href="#k" y="232.988"/><use stroke="#000" stroke-width=".6" x="80.218" xlink:href="#k" y="232.988"/><use stroke="#000" stroke-width=".6" x="88.412" xlink:href="#k" y="232.988"/><use stroke="#000" stroke-width=".6" x="96.607" xlink:href="#k" y="232.988"/><use stroke="#000" stroke-width=".6" x="104.801" xlink:href="#k" y="232.988"/><g transform="matrix(.1 0 0 -.1 98.438 245.986)"><use xlink:href="#f"/><use x="63.623" xlink:href="#l"/></g><g stroke="#000" stroke-width=".6"><use x="112.995" xlink:href="#k" y="232.988"/><use x="121.189" xlink:href="#k" y="232.988"/><use x="129.383" xlink:href="#k" y="232.988"/><use x="137.577" xlink:href="#k" y="232.988"/><use x="145.772" xlink:href="#k" y="232.988"/><use x="153.966" xlink:href="#k" y="232.988"/></g><use stroke="#000" stroke-width=".6" x="162.16" xlink:href="#k" y="232.988"/><g transform="matrix(.1 0 0 -.1 155.798 245.986)"><use xlink:href="#g"/><use x="63.623" xlink:href="#m"/></g><use stroke="#000" stroke-width=".6" x="170.354" xlink:href="#k" y="232.988"/><use stroke="#000" stroke-width=".6" x="178.548" xlink:href="#k" y="232.988"/><use stroke="#000" stroke-width=".6" x="186.743" xlink:href="#k" y="232.988"/><use stroke="#000" stroke-width=".6" x="194.937" xlink:href="#k" y="232.988"/><use stroke="#000" stroke-width=".6" x="203.131" xlink:href="#k" y="232.988"/><use stroke="#000" stroke-width=".6" x="211.325" xlink:href="#k" y="232.988"/><use stroke="#000" stroke-width=".6" x="219.519" xlink:href="#k" y="232.988"/><g transform="matrix(.1 0 0 -.1 213.157 245.986)"><use xlink:href="#n"/><use x="63.623" xlink:href="#g"/></g><use stroke="#000" stroke-width=".6" x="227.713" xlink:href="#k" y="232.988"/><use stroke="#000" stroke-width=".6" x="235.907" xlink:href="#k" y="232.988"/><use stroke="#000" stroke-width=".6" x="244.102" xlink:href="#k" y="232.988"/><use stroke="#000" stroke-width=".6" x="252.296" xlink:href="#k" y="232.988"/><use stroke="#000" stroke-width=".6" x="260.49" xlink:href="#k" y="232.988"/><use stroke="#000" stroke-width=".6" x="268.684" xlink:href="#k" y="232.988"/><use stroke="#000" stroke-width=".6" x="276.878" xlink:href="#k" y="232.988"/><g transform="matrix(.1 0 0 -.1 270.516 245.986)"><use xlink:href="#n"/><use x="63.623" xlink:href="#l"/></g><use stroke="#000" stroke-width=".6" x="285.072" xlink:href="#k" y="232.988"/><use stroke="#000" stroke-width=".6" x="293.267" xlink:href="#k" y="232.988"/><use stroke="#000" stroke-width=".6" x="301.461" xlink:href="#k" y="232.988"/><use stroke="#000" stroke-width=".6" x="309.655" xlink:href="#k" y="232.988"/><use stroke="#000" stroke-width=".6" x="317.849" xlink:href="#k" y="232.988"/><use stroke="#000" stroke-width=".6" x="326.043" xlink:href="#k" y="232.988"/><use stroke="#000" stroke-width=".6" x="334.238" xlink:href="#k" y="232.988"/><g transform="matrix(.1 0 0 -.1 327.875 245.986)"><use xlink:href="#f"/><use x="63.623" xlink:href="#o"/></g><use stroke="#000" stroke-width=".6" x="342.432" xlink:href="#k" y="232.988"/><use stroke="#000" stroke-width=".6" x="350.626" xlink:href="#k" y="232.988"/><use stroke="#000" stroke-width=".6" x="358.82" xlink:href="#k" y="232.988"/><use stroke="#000" stroke-width=".6" x="367.014" xlink:href="#k" y="232.988"/><use stroke="#000" stroke-width=".6" x="375.208" xlink:href="#k" y="232.988"/><use stroke="#000" stroke-width=".6" x="383.402" xlink:href="#k" y="232.988"/><use stroke="#000" stroke-width=".6" x="391.597" xlink:href="#k" y="232.988"/><g transform="matrix(.1 0 0 -.1 385.234 245.986)"><use xlink:href="#g"/><use x="63.623" xlink:href="#f"/></g><use stroke="#000" stroke-width=".6" x="399.791" xlink:href="#k" y="232.988"/><use stroke="#000" stroke-width=".6" x="407.985" xlink:href="#k" y="232.988"/><use stroke="#000" stroke-width=".6" x="416.179" xlink:href="#k" y="232.988"/><use stroke="#000" stroke-width=".6" x="424.373" xlink:href="#k" y="232.988"/><use stroke="#000" stroke-width=".6" x="432.567" xlink:href="#k" y="232.988"/><use stroke="#000" stroke-width=".6" x="440.762" xlink:href="#k" y="232.988"/><use stroke="#000" stroke-width=".6" x="448.956" xlink:href="#k" y="232.988"/><g transform="matrix(.1 0 0 -.1 442.593 245.986)"><use xlink:href="#g"/><use x="63.623" xlink:href="#p"/></g><use stroke="#000" stroke-width=".6" x="457.15" xlink:href="#k" y="232.988"/><use stroke="#000" stroke-width=".6" x="465.344" xlink:href="#k" y="232.988"/><use stroke="#000" stroke-width=".6" x="473.538" xlink:href="#k" y="232.988"/><use stroke="#000" stroke-width=".6" x="481.733" xlink:href="#k" y="232.988"/><use stroke="#000" stroke-width=".6" x="489.927" xlink:href="#k" y="232.988"/><use stroke="#000" stroke-width=".6" x="498.121" xlink:href="#k" y="232.988"/><g><use stroke="#000" stroke-width=".6" x="506.315" xlink:href="#k" y="232.988"/><g transform="matrix(.1 0 0 -.1 499.952 245.986)"><use xlink:href="#n"/><use x="63.623" xlink:href="#q"/></g></g><use stroke="#000" stroke-width=".6" x="514.509" xlink:href="#k" y="232.988"/><use stroke="#000" stroke-width=".6" x="522.703" xlink:href="#k" y="232.988"/><use stroke="#000" stroke-width=".6" x="530.898" xlink:href="#k" y="232.988"/><use stroke="#000" stroke-width=".6" x="539.092" xlink:href="#k" y="232.988"/><use stroke="#000" stroke-width=".6" x="547.286" xlink:href="#k" y="232.988"/><use stroke="#000" stroke-width=".6" x="555.48" xlink:href="#k" y="232.988"/><g><path clip-path="url(#a)" d="M63.83 223.554h491.65" fill="none" stroke="#b0b0b0" stroke-linecap="square" stroke-width=".8"/><use stroke="#000" stroke-width=".8" x="63.83" xlink:href="#r" y="223.554"/><use transform="matrix(.1 0 0 -.1 50.468 227.353)" xlink:href="#g"/><path clip-path="url(#a)" d="M63.83 191.049h491.65" fill="none" stroke="#b0b0b0" stroke-linecap="square" stroke-width=".8"/><use stroke="#000" stroke-width=".8" x="63.83" xlink:href="#r" y="191.049"/><g transform="matrix(.1 0 0 -.1 25.017 194.848)"><use xlink:href="#n"/><use x="63.623" xlink:href="#g"/><use x="127.246" xlink:href="#g"/><use x="190.869" xlink:href="#g"/><use x="254.492" xlink:href="#g"/></g><path clip-path="url(#a)" d="M63.83 158.543h491.65" fill="none" stroke="#b0b0b0" stroke-linecap="square" stroke-width=".8"/><use stroke="#000" stroke-width=".8" x="63.83" xlink:href="#r" y="158.543"/><g transform="matrix(.1 0 0 -.1 25.017 162.343)"><use xlink:href="#f"/><use x="63.623" xlink:href="#g"/><use x="127.246" xlink:href="#g"/><use x="190.869" xlink:href="#g"/><use x="254.492" xlink:href="#g"/></g><g><path clip-path="url(#a)" d="M63.83 126.038h491.65" fill="none" stroke="#b0b0b0" stroke-linecap="square" stroke-width=".8"/><use stroke="#000" stroke-width=".8" x="63.83" xlink:href="#r" y="126.038"/><g transform="matrix(.1 0 0 -.1 25.017 129.837)"><use xlink:href="#m"/><use x="63.623" xlink:href="#g"/><use x="127.246" xlink:href="#g"/><use x="190.869" xlink:href="#g"/><use x="254.492" xlink:href="#g"/></g></g><g><path clip-path="url(#a)" d="M63.83 93.533h491.65" fill="none" stroke="#b0b0b0" stroke-linecap="square" stroke-width=".8"/><use stroke="#000" stroke-width=".8" x="63.83" xlink:href="#r" y="93.533"/><g transform="matrix(.1 0 0 -.1 25.017 97.332)"><use xlink:href="#o"/><use x="63.623" xlink:href="#g"/><use x="127.246" xlink:href="#g"/><use x="190.869" xlink:href="#g"/><use x="254.492" xlink:href="#g"/></g></g><g><path clip-path="url(#a)" d="M63.83 61.028h491.65" fill="none" stroke="#b0b0b0" stroke-linecap="square" stroke-width=".8"/><use stroke="#000" stroke-width=".8" x="63.83" xlink:href="#r" y="61.028"/><g transform="matrix(.1 0 0 -.1 25.017 64.827)"><use xlink:href="#s"/><use x="63.623" xlink:href="#g"/><use x="127.246" xlink:href="#g"/><use x="190.869" xlink:href="#g"/><use x="254.492" xlink:href="#g"/></g></g><g><path clip-path="url(#a)" d="M63.83 28.522h491.65" fill="none" stroke="#b0b0b0" stroke-linecap="square" stroke-width=".8"/><use stroke="#000" stroke-width=".8" x="63.83" xlink:href="#r" y="28.522"/><g transform="matrix(.1 0 0 -.1 25.017 32.322)"><use xlink:href="#q"/><use x="63.623" xlink:href="#g"/><use x="127.246" xlink:href="#g"/><use x="190.869" xlink:href="#g"/><use x="254.492" xlink:href="#g"/></g></g><g transform="matrix(0 -.1 -.1 0 18.938 155.56)"><use xlink:href="#t"/><use x="98.799" xlink:href="#u"/><use x="159.98" xlink:href="#j"/><use x="201.094" xlink:href="#v"/><use x="228.877" xlink:href="#w"/><use x="292.354" xlink:href="#x"/><use x="374.141" xlink:href="#y"/><use x="401.924" xlink:href="#w"/><use x="465.4" xlink:href="#d"/></g></g><g fill="none"><path clip-path="url(#a)" d="M63.83 221.922l8.194-.29 8.194-.854 8.194-1.508 8.195-2.077 8.194-2.49 8.194-8.253 8.194-1.804 8.194-6.505 8.194-4.999 8.195-6.44 8.194-14.451 8.194-9.332 8.194-12.004 8.194-11.004 8.194-8.818 8.195-9.475 8.194-6.563 8.194-7.44 8.194-5.56 8.194-3.91 8.194.25 8.195-44.684 8.194-14.784 8.194-1.924 8.194-1.762 8.194-.367 8.194.351 8.195 4.74 8.194 5.587 8.194.709 8.194 8.935 8.194 1.525 8.194 5.708 8.195 7.222 8.194 6.664 8.194 7.934 8.194 10.113 8.194 8.477 8.194 7.473 8.195 8.237 8.194 8.133 8.194 8.019 8.194 7.04 8.194 4.96 8.194 5.003 8.195 5.923 8.194 4.557 8.194 4.437 8.194 4.548 8.194 4.085 8.194 4.194 8.195 4.697 8.194 4.359 8.194 2.85 8.194 2.848 8.194 3.003 8.194 2.386" stroke="#1f77b4" stroke-linecap="square" stroke-width="1.5"/><path clip-path="url(#a)" d="M530.898 199.689l8.194 2.28 8.194 2.064 8.194 1.866" stroke="#1f77b4" stroke-dasharray="1.5 2.475" stroke-width="1.5"/><path clip-path="url(#a)" d="M63.83 223.55h8.194l8.194-.003h8.194l8.195-.003 8.194-.003h24.582l8.194-.023 8.195-.003 8.194-.01h8.194l8.194-.003 8.194-.01 8.194-.013H203.131l8.194.003 8.194-.006 8.194-.003 8.194.013H252.296l8.194.006 8.194-.003h8.194l8.194.003h8.195l8.194-.22 8.194-.323 8.194-.744 8.194-.53 8.194-.744 8.195-.449 8.194-.916 8.194-1.639 8.194-1.856 8.194-2.616 8.194-1.892 8.195-1.911 8.194-2.767 8.194-1.355 8.194-1.518 8.194-1.313 8.194-1.45 8.195-.923 8.194-.524 8.194.31 8.194-.635 8.194-.204 8.194.217 8.195-.328 8.194-.237 8.194 1.797 8.194.624 8.194.14 8.194-.471" stroke="#ff7f0e" stroke-linecap="square" stroke-width="1.5"/><path clip-path="url(#a)" d="M530.898 201.54l8.194.39 8.194.382 8.194.376" stroke="#ff7f0e" stroke-dasharray="1.5 2.475" stroke-width="1.5"/><path clip-path="url(#a)" d="M63.83 223.554H129.383l8.194-.007H186.742l8.195-.003H301.46l8.194-.052 8.194-.13 8.194-.296 8.194-.23 8.195-.293 8.194-.413 8.194-.504 8.194-.74 8.194-.755 8.194-1.703 8.195-.839 8.194-1.39 8.194-1.44 8.194-1.919 8.194-2.015 8.194-3.722 8.195-4.31 8.194-5.194 8.194-2.63 8.194-5.838h8.194l8.194-14.189 8.195-9.085 8.194-9.274 8.194-8.028 8.194-9.716 8.194-8.608 8.194-14.562" stroke="#2ca02c" stroke-linecap="square" stroke-width="1.5"/><path clip-path="url(#a)" d="M530.898 115.035l8.194-14.838 8.194-16.867 8.194-19.173" stroke="#2ca02c" stroke-dasharray="1.5 2.475" stroke-width="1.5"/><path clip-path="url(#a)" d="M63.83 223.55h8.194l8.194-.003h8.194l8.195-.01h32.776l8.194-.003 8.195-.006h8.194l8.194-.01h8.194l8.194-.003H203.131l8.194.01h8.194l8.194-.004h8.194l8.195-.006H301.46l8.194-.059h16.388l8.194-.058 8.195.003 8.194-.02 8.194-.003 8.194-.003 8.194-.023 8.194-.019 8.195-.065 8.194-.062 8.194-.088 8.194-.217 8.194-.18 8.194-.441 8.195-.377 8.194-.218 8.194-1.131 8.194-1.02 8.194-1.217 8.194-1.654 8.195-1.755 8.194-2.484 8.194-3.595 8.194-5.74 8.194-4.115 8.194-18.886" stroke="#d62728" stroke-linecap="square" stroke-width="1.5"/><path clip-path="url(#a)" d="M530.898 186.178l8.194-12.76 8.194-17.116 8.194-22.96" stroke="#d62728" stroke-dasharray="1.5 2.475" stroke-width="1.5"/><path d="M63.83 232.988V25.44M555.48 232.988V25.44M63.83 232.988h491.65M63.83 25.44h491.65" stroke="#000" stroke-linecap="square" stroke-linejoin="miter" stroke-width=".8"/></g><g transform="matrix(.12 0 0 -.12 187.876 19.44)"><path d="M34.188 63.188L20.797 26.906h26.812zm-5.579 9.718h11.188L67.578 0h-10.25l-6.64 18.703h-32.86L11.188 0H.78z"/><use x="68.393" xlink:href="#z"/><use x="123.373" xlink:href="#A"/><use x="162.582" xlink:href="#y"/><path d="M193.35 54.688h9.515L219.96 8.797l17.094 45.89h9.515L226.053 0H213.85z"/><use x="249.545" xlink:href="#d"/><use x="342.855" xlink:href="#B"/><path d="M452.086 66.219q-10.75 0-17.078-8.016-6.313-8-6.313-21.828 0-13.766 6.313-21.781 6.328-8 17.078-8 10.734 0 17.016 8 6.28 8.015 6.28 21.781 0 13.828-6.28 21.828-6.282 8.016-17.016 8.016zm0 8q15.328 0 24.5-10.281 9.187-10.282 9.187-27.563 0-17.234-9.187-27.516-9.172-10.28-24.5-10.28-15.375 0-24.594 10.25-9.203 10.265-9.203 27.546t9.203 27.563q9.219 10.28 24.594 10.28zM519.984 0l-27.828 72.906h10.297l23.11-61.375 23.14 61.375h10.25L531.172 0z"/><use x="559.783" xlink:href="#C"/><path d="M608.947 64.797V8.109h11.922q15.094 0 22.094 6.829 7 6.843 7 21.593 0 14.64-7 21.453-7 6.813-22.094 6.813zm-9.86 8.11h20.267q21.187 0 31.093-8.813 9.922-8.813 9.922-27.563 0-18.86-9.969-27.703Q640.447 0 619.354 0h-20.266z"/><use x="666.277" xlink:href="#D"/><use x="702.361" xlink:href="#n"/><use x="765.984" xlink:href="#p"/><use x="861.395" xlink:href="#z"/><use x="916.375" xlink:href="#i"/><use x="977.654" xlink:href="#E"/><use x="1029.754" xlink:href="#d"/><use x="1091.277" xlink:href="#E"/><use x="1175.164" xlink:href="#i"/><use x="1236.443" xlink:href="#E"/><use x="1320.33" xlink:href="#u"/><use x="1381.512" xlink:href="#F"/><use x="1448.504" xlink:href="#f"/><use x="1512.127" xlink:href="#g"/><use x="1575.75" xlink:href="#f"/><use x="1639.373" xlink:href="#g"/><use x="1702.996" xlink:href="#D"/><use x="1739.08" xlink:href="#g"/><use x="1802.703" xlink:href="#m"/><use x="1866.326" xlink:href="#D"/><use x="1902.41" xlink:href="#n"/><use x="1966.033" xlink:href="#p"/></g><g><path d="M70.83 92.153h162.128q2 0 2-2V32.44q0-2-2-2H70.83q-2 0-2 2v57.713q0 2 2 2z" fill="#fff" opacity=".8" stroke="#ccc" stroke-linejoin="miter"/><path d="M72.83 38.538h20" fill="none" stroke="#1f77b4" stroke-linecap="square" stroke-width="1.5"/><g transform="matrix(.1 0 0 -.1 100.83 42.038)"><use xlink:href="#B"/><use x="69.824" xlink:href="#G"/><use x="133.203" xlink:href="#y"/><use x="160.986" xlink:href="#H"/><use x="224.365" xlink:href="#i"/></g><path d="M72.83 53.217h20" fill="none" stroke="#ff7f0e" stroke-linecap="square" stroke-width="1.5"/><g transform="matrix(.1 0 0 -.1 100.83 56.717)"><use xlink:href="#I"/><use x="63.477" xlink:href="#u"/><use x="124.658" xlink:href="#J"/><use x="188.037" xlink:href="#A"/><use x="227.246" xlink:href="#G"/><path d="M332.225 72.906h9.859V42.094l32.719 30.812h12.703l-36.188-33.984L390.084 0H377.1l-35.016 35.11V0h-9.86z"/><use x="387.91" xlink:href="#u"/><use x="449.092" xlink:href="#j"/><use x="490.174" xlink:href="#d"/><use x="551.697" xlink:href="#i"/></g><path d="M72.83 67.895h20" fill="none" stroke="#2ca02c" stroke-linecap="square" stroke-width="1.5"/><g transform="matrix(.1 0 0 -.1 100.83 71.395)"><use xlink:href="#C"/><use x="29.492" xlink:href="#A"/><use x="68.701" xlink:href="#i"/><use x="129.98" xlink:href="#v"/><use x="157.764" xlink:href="#K"/><use x="248.73" xlink:href="#L"/><use x="287.744" xlink:href="#w"/><use x="351.221" xlink:href="#u"/><use x="412.402" xlink:href="#J"/><use x="475.781" xlink:href="#e"/><use x="539.258" xlink:href="#v"/><use x="567.041" xlink:href="#d"/><use x="628.564" xlink:href="#E"/><use x="712.451" xlink:href="#y"/><use x="740.234" xlink:href="#H"/><use x="835.4" xlink:href="#s"/><use x="899.023" xlink:href="#M"/><use x="930.811" xlink:href="#o"/><use x="1026.221" xlink:href="#w"/><use x="1089.697" xlink:href="#i"/><use x="1150.977" xlink:href="#K"/><use x="1210.156" xlink:href="#E"/><use x="1262.256" xlink:href="#N"/></g><path d="M72.83 82.573h20" fill="none" stroke="#d62728" stroke-linecap="square" stroke-width="1.5"/><g transform="matrix(.1 0 0 -.1 100.83 86.073)"><use xlink:href="#O"/><use x="73.193" xlink:href="#I"/><use x="168.457" xlink:href="#L"/><use x="207.471" xlink:href="#w"/><use x="270.947" xlink:href="#u"/><use x="332.129" xlink:href="#J"/><use x="395.508" xlink:href="#e"/><use x="458.984" xlink:href="#v"/><use x="486.768" xlink:href="#d"/><use x="548.291" xlink:href="#E"/><use x="632.178" xlink:href="#y"/><use x="659.961" xlink:href="#H"/><use x="755.127" xlink:href="#f"/><use x="818.75" xlink:href="#M"/><use x="850.537" xlink:href="#o"/><use x="945.947" xlink:href="#w"/><use x="1009.424" xlink:href="#i"/><use x="1070.703" xlink:href="#K"/><use x="1129.883" xlink:href="#E"/><use x="1181.982" xlink:href="#N"/></g></g><g><path d="M63.83 505.928h491.65V298.38H63.83z" fill="#fff"/><g stroke-width=".8"><path clip-path="url(#P)" d="M63.83 505.928V298.38" fill="none" stroke="#b0b0b0" stroke-linecap="square"/><use stroke="#000" x="63.83" xlink:href="#b" y="505.928"/></g><path clip-path="url(#P)" d="M145.772 505.928V298.38" fill="none" stroke="#b0b0b0" stroke-linecap="square" stroke-width=".8"/><use stroke="#000" stroke-width=".8" x="145.772" xlink:href="#b" y="505.928"/><g transform="matrix(.1 0 0 -.1 136.649 542.922)"><use xlink:href="#c"/><use x="57.441" xlink:href="#d"/><use x="118.965" xlink:href="#e"/></g><g transform="matrix(.1 0 0 -.1 133.047 554.12)"><use xlink:href="#f"/><use x="63.623" xlink:href="#g"/><use x="127.246" xlink:href="#f"/><use x="190.869" xlink:href="#g"/></g><path clip-path="url(#P)" d="M383.402 505.928V298.38" fill="none" stroke="#b0b0b0" stroke-linecap="square" stroke-width=".8"/><use stroke="#000" stroke-width=".8" x="383.402" xlink:href="#b" y="505.928"/><g transform="matrix(.1 0 0 -.1 373.969 542.922)"><use xlink:href="#h"/><use x="86.279" xlink:href="#i"/><use x="147.559" xlink:href="#j"/></g><g stroke-width=".8"><path clip-path="url(#P)" d="M555.48 505.928V298.38" fill="none" stroke="#b0b0b0" stroke-linecap="square"/><use stroke="#000" x="555.48" xlink:href="#b" y="505.928"/></g><use stroke="#000" stroke-width=".6" x="63.83" xlink:href="#k" y="505.928"/><use stroke="#000" stroke-width=".6" x="72.024" xlink:href="#k" y="505.928"/><use stroke="#000" stroke-width=".6" x="80.218" xlink:href="#k" y="505.928"/><use stroke="#000" stroke-width=".6" x="88.412" xlink:href="#k" y="505.928"/><use stroke="#000" stroke-width=".6" x="96.607" xlink:href="#k" y="505.928"/><use stroke="#000" stroke-width=".6" x="104.801" xlink:href="#k" y="505.928"/><g transform="matrix(.1 0 0 -.1 98.438 518.926)"><use xlink:href="#f"/><use x="63.623" xlink:href="#l"/></g><g stroke="#000" stroke-width=".6"><use x="112.995" xlink:href="#k" y="505.928"/><use x="121.189" xlink:href="#k" y="505.928"/><use x="129.383" xlink:href="#k" y="505.928"/><use x="137.577" xlink:href="#k" y="505.928"/><use x="145.772" xlink:href="#k" y="505.928"/><use x="153.966" xlink:href="#k" y="505.928"/></g><use stroke="#000" stroke-width=".6" x="162.16" xlink:href="#k" y="505.928"/><g transform="matrix(.1 0 0 -.1 155.798 518.926)"><use xlink:href="#g"/><use x="63.623" xlink:href="#m"/></g><use stroke="#000" stroke-width=".6" x="170.354" xlink:href="#k" y="505.928"/><use stroke="#000" stroke-width=".6" x="178.548" xlink:href="#k" y="505.928"/><use stroke="#000" stroke-width=".6" x="186.743" xlink:href="#k" y="505.928"/><use stroke="#000" stroke-width=".6" x="194.937" xlink:href="#k" y="505.928"/><use stroke="#000" stroke-width=".6" x="203.131" xlink:href="#k" y="505.928"/><use stroke="#000" stroke-width=".6" x="211.325" xlink:href="#k" y="505.928"/><use stroke="#000" stroke-width=".6" x="219.519" xlink:href="#k" y="505.928"/><g transform="matrix(.1 0 0 -.1 213.157 518.926)"><use xlink:href="#n"/><use x="63.623" xlink:href="#g"/></g><use stroke="#000" stroke-width=".6" x="227.713" xlink:href="#k" y="505.928"/><use stroke="#000" stroke-width=".6" x="235.907" xlink:href="#k" y="505.928"/><use stroke="#000" stroke-width=".6" x="244.102" xlink:href="#k" y="505.928"/><use stroke="#000" stroke-width=".6" x="252.296" xlink:href="#k" y="505.928"/><use stroke="#000" stroke-width=".6" x="260.49" xlink:href="#k" y="505.928"/><use stroke="#000" stroke-width=".6" x="268.684" xlink:href="#k" y="505.928"/><use stroke="#000" stroke-width=".6" x="276.878" xlink:href="#k" y="505.928"/><g transform="matrix(.1 0 0 -.1 270.516 518.926)"><use xlink:href="#n"/><use x="63.623" xlink:href="#l"/></g><use stroke="#000" stroke-width=".6" x="285.072" xlink:href="#k" y="505.928"/><use stroke="#000" stroke-width=".6" x="293.267" xlink:href="#k" y="505.928"/><use stroke="#000" stroke-width=".6" x="301.461" xlink:href="#k" y="505.928"/><use stroke="#000" stroke-width=".6" x="309.655" xlink:href="#k" y="505.928"/><use stroke="#000" stroke-width=".6" x="317.849" xlink:href="#k" y="505.928"/><use stroke="#000" stroke-width=".6" x="326.043" xlink:href="#k" y="505.928"/><use stroke="#000" stroke-width=".6" x="334.238" xlink:href="#k" y="505.928"/><g transform="matrix(.1 0 0 -.1 327.875 518.926)"><use xlink:href="#f"/><use x="63.623" xlink:href="#o"/></g><use stroke="#000" stroke-width=".6" x="342.432" xlink:href="#k" y="505.928"/><use stroke="#000" stroke-width=".6" x="350.626" xlink:href="#k" y="505.928"/><use stroke="#000" stroke-width=".6" x="358.82" xlink:href="#k" y="505.928"/><use stroke="#000" stroke-width=".6" x="367.014" xlink:href="#k" y="505.928"/><use stroke="#000" stroke-width=".6" x="375.208" xlink:href="#k" y="505.928"/><use stroke="#000" stroke-width=".6" x="383.402" xlink:href="#k" y="505.928"/><use stroke="#000" stroke-width=".6" x="391.597" xlink:href="#k" y="505.928"/><g transform="matrix(.1 0 0 -.1 385.234 518.926)"><use xlink:href="#g"/><use x="63.623" xlink:href="#f"/></g><use stroke="#000" stroke-width=".6" x="399.791" xlink:href="#k" y="505.928"/><use stroke="#000" stroke-width=".6" x="407.985" xlink:href="#k" y="505.928"/><use stroke="#000" stroke-width=".6" x="416.179" xlink:href="#k" y="505.928"/><use stroke="#000" stroke-width=".6" x="424.373" xlink:href="#k" y="505.928"/><use stroke="#000" stroke-width=".6" x="432.567" xlink:href="#k" y="505.928"/><use stroke="#000" stroke-width=".6" x="440.762" xlink:href="#k" y="505.928"/><use stroke="#000" stroke-width=".6" x="448.956" xlink:href="#k" y="505.928"/><g transform="matrix(.1 0 0 -.1 442.593 518.926)"><use xlink:href="#g"/><use x="63.623" xlink:href="#p"/></g><use stroke="#000" stroke-width=".6" x="457.15" xlink:href="#k" y="505.928"/><use stroke="#000" stroke-width=".6" x="465.344" xlink:href="#k" y="505.928"/><use stroke="#000" stroke-width=".6" x="473.538" xlink:href="#k" y="505.928"/><use stroke="#000" stroke-width=".6" x="481.733" xlink:href="#k" y="505.928"/><use stroke="#000" stroke-width=".6" x="489.927" xlink:href="#k" y="505.928"/><use stroke="#000" stroke-width=".6" x="498.121" xlink:href="#k" y="505.928"/><g><use stroke="#000" stroke-width=".6" x="506.315" xlink:href="#k" y="505.928"/><g transform="matrix(.1 0 0 -.1 499.952 518.926)"><use xlink:href="#n"/><use x="63.623" xlink:href="#q"/></g></g><use stroke="#000" stroke-width=".6" x="514.509" xlink:href="#k" y="505.928"/><use stroke="#000" stroke-width=".6" x="522.703" xlink:href="#k" y="505.928"/><use stroke="#000" stroke-width=".6" x="530.898" xlink:href="#k" y="505.928"/><use stroke="#000" stroke-width=".6" x="539.092" xlink:href="#k" y="505.928"/><use stroke="#000" stroke-width=".6" x="547.286" xlink:href="#k" y="505.928"/><use stroke="#000" stroke-width=".6" x="555.48" xlink:href="#k" y="505.928"/><g><path clip-path="url(#P)" d="M63.83 496.494h491.65" fill="none" stroke="#b0b0b0" stroke-linecap="square" stroke-width=".8"/><use stroke="#000" stroke-width=".8" x="63.83" xlink:href="#r" y="496.494"/><use transform="matrix(.1 0 0 -.1 50.468 500.293)" xlink:href="#g"/><path clip-path="url(#P)" d="M63.83 469.987h491.65" fill="none" stroke="#b0b0b0" stroke-linecap="square" stroke-width=".8"/><use stroke="#000" stroke-width=".8" x="63.83" xlink:href="#r" y="469.987"/><g transform="matrix(.1 0 0 -.1 31.38 473.786)"><use xlink:href="#f"/><use x="63.623" xlink:href="#g"/><use x="127.246" xlink:href="#g"/><use x="190.869" xlink:href="#g"/></g><path clip-path="url(#P)" d="M63.83 443.48h491.65" fill="none" stroke="#b0b0b0" stroke-linecap="square" stroke-width=".8"/><use stroke="#000" stroke-width=".8" x="63.83" xlink:href="#r" y="443.48"/><g transform="matrix(.1 0 0 -.1 31.38 447.279)"><use xlink:href="#o"/><use x="63.623" xlink:href="#g"/><use x="127.246" xlink:href="#g"/><use x="190.869" xlink:href="#g"/></g><g><path clip-path="url(#P)" d="M63.83 416.973h491.65" fill="none" stroke="#b0b0b0" stroke-linecap="square" stroke-width=".8"/><use stroke="#000" stroke-width=".8" x="63.83" xlink:href="#r" y="416.973"/><g transform="matrix(.1 0 0 -.1 31.38 420.772)"><use xlink:href="#q"/><use x="63.623" xlink:href="#g"/><use x="127.246" xlink:href="#g"/><use x="190.869" xlink:href="#g"/></g></g><g><path clip-path="url(#P)" d="M63.83 390.466h491.65" fill="none" stroke="#b0b0b0" stroke-linecap="square" stroke-width=".8"/><use stroke="#000" stroke-width=".8" x="63.83" xlink:href="#r" y="390.466"/><g transform="matrix(.1 0 0 -.1 31.38 394.265)"><path d="M31.781 34.625q-7.031 0-11.062-3.766-4.016-3.765-4.016-10.343 0-6.594 4.016-10.36Q24.75 6.391 31.78 6.391q7.032 0 11.078 3.78 4.063 3.798 4.063 10.345 0 6.578-4.031 10.343-4.016 3.766-11.11 3.766zm-9.86 4.188q-6.343 1.562-9.89 5.906Q8.5 49.079 8.5 55.329q0 8.733 6.219 13.812 6.234 5.078 17.062 5.078 10.89 0 17.094-5.078 6.203-5.079 6.203-13.813 0-6.25-3.547-10.61-3.531-4.343-9.828-5.906 7.125-1.656 11.094-6.5 3.984-4.828 3.984-11.796 0-10.61-6.468-16.282-6.47-5.656-18.532-5.656-12.047 0-18.531 5.656-6.469 5.672-6.469 16.282 0 6.968 4 11.797 4.016 4.843 11.14 6.5zM18.314 54.39q0-5.657 3.53-8.828 3.548-3.172 9.938-3.172 6.36 0 9.938 3.172 3.593 3.171 3.593 8.828 0 5.672-3.593 8.843-3.578 3.172-9.938 3.172-6.39 0-9.937-3.172-3.532-3.172-3.532-8.843z"/><use x="63.623" xlink:href="#g"/><use x="127.246" xlink:href="#g"/><use x="190.869" xlink:href="#g"/></g></g><g><path clip-path="url(#P)" d="M63.83 363.958h491.65" fill="none" stroke="#b0b0b0" stroke-linecap="square" stroke-width=".8"/><use stroke="#000" stroke-width=".8" x="63.83" xlink:href="#r" y="363.958"/><g transform="matrix(.1 0 0 -.1 25.017 367.758)"><use xlink:href="#n"/><use x="63.623" xlink:href="#g"/><use x="127.246" xlink:href="#g"/><use x="190.869" xlink:href="#g"/><use x="254.492" xlink:href="#g"/></g></g><g><path clip-path="url(#P)" d="M63.83 337.451h491.65" fill="none" stroke="#b0b0b0" stroke-linecap="square" stroke-width=".8"/><use stroke="#000" stroke-width=".8" x="63.83" xlink:href="#r" y="337.451"/><g transform="matrix(.1 0 0 -.1 25.017 341.25)"><use xlink:href="#n"/><use x="63.623" xlink:href="#f"/><use x="127.246" xlink:href="#g"/><use x="190.869" xlink:href="#g"/><use x="254.492" xlink:href="#g"/></g></g><g><path clip-path="url(#P)" d="M63.83 310.944h491.65" fill="none" stroke="#b0b0b0" stroke-linecap="square" stroke-width=".8"/><use stroke="#000" stroke-width=".8" x="63.83" xlink:href="#r" y="310.944"/><g transform="matrix(.1 0 0 -.1 25.017 314.743)"><use xlink:href="#n"/><use x="63.623" xlink:href="#o"/><use x="127.246" xlink:href="#g"/><use x="190.869" xlink:href="#g"/><use x="254.492" xlink:href="#g"/></g></g><g transform="matrix(0 -.1 -.1 0 18.938 408.988)"><use xlink:href="#O"/><use x="73.193" xlink:href="#I"/></g></g><g fill="none"><path clip-path="url(#P)" d="M63.83 496.494H383.402l8.195-.013 8.194-.014 8.194-.119 8.194-.159 8.194-.172 8.194-.53 8.195-.398 8.194-.477 8.194-.41 8.194-.624 8.194-1.431 8.194-1.233 8.195-1.352 8.194-2.73 8.194-3.022 8.194-9.754 8.194-10.418 8.194-37.799" stroke="#1f77b4" stroke-linecap="square" stroke-width="1.5"/><path clip-path="url(#P)" d="M530.898 441.877l8.194-27.947 8.194-42.249 8.194-63.867" stroke="#1f77b4" stroke-dasharray="1.5 2.475" stroke-width="1.5"/><path clip-path="url(#P)" d="M63.83 496.48H203.131l8.194.014h155.689l8.194-.066 8.194-.053 8.195-.027 8.194-.106 8.194-.12 8.194-.397 8.194-.145 8.194-.279 8.195-.252 8.194.014 8.194-1.79 8.194-1.232 8.194-.981 8.194-1.59 8.195-.053 8.194-.902 8.194-3.353 8.194-2.187 8.194.809 8.194-4.546" stroke="#ff7f0e" stroke-linecap="square" stroke-width="1.5"/><path clip-path="url(#P)" d="M530.898 479.81l8.194-2.836 8.194-3.317 8.194-3.88" stroke="#ff7f0e" stroke-dasharray="1.5 2.475" stroke-width="1.5"/><path clip-path="url(#P)" d="M63.83 496.494h24.582l8.195-.027H137.577l8.195-.013h8.194l8.194-.04H219.519l8.194-.013h8.194l8.195-.013H301.46l8.194-.066h16.388l8.194.066H350.626l8.194-.013h8.194l8.194-.014h8.194l8.195-.119 8.194-.053 8.194-.12 8.194-.211 8.194-.106 8.194-.305 8.195-.212 8.194-.08 8.194-.516 8.194-.425 8.194-.517 8.194-.808 8.195-.755 8.194-1.127 8.194-1.723 8.194-1.802 8.194-.77 8.194-2.597" stroke="#2ca02c" stroke-linecap="square" stroke-width="1.5"/><path clip-path="url(#P)" d="M530.898 483.8l8.194-2.928 8.194-3.605 8.194-4.436" stroke="#2ca02c" stroke-dasharray="1.5 2.475" stroke-width="1.5"/><path clip-path="url(#P)" d="M63.83 496.494h344.155l8.194-.027h8.194l8.194-.026 8.195-.013h8.194l8.194-.12 8.194-.106 8.194-.08h8.194l8.195-.53 8.194-.37 8.194-1.047 8.194-1.167 8.194-.013 8.194-6.216" stroke="#d62728" stroke-linecap="square" stroke-width="1.5"/><path clip-path="url(#P)" d="M530.898 488.093l8.194-5.212 8.194-8.446 8.194-13.686" stroke="#d62728" stroke-dasharray="1.5 2.475" stroke-width="1.5"/><path d="M63.83 505.928V298.38M555.48 505.928V298.38M63.83 505.928h491.65M63.83 298.38h491.65" stroke="#000" stroke-linecap="square" stroke-linejoin="miter" stroke-width=".8"/></g><g><path d="M70.83 365.092h199.827q2 0 2-2V305.38q0-2-2-2H70.83q-2 0-2 2v57.712q0 2 2 2z" fill="#fff" opacity=".8" stroke="#ccc" stroke-linejoin="miter"/><path d="M72.83 311.478h20" fill="none" stroke="#1f77b4" stroke-linecap="square" stroke-width="1.5"/><g transform="matrix(.1 0 0 -.1 100.83 314.978)"><use xlink:href="#Q"/><use x="74.805" xlink:href="#d"/><use x="136.328" xlink:href="#x"/><path d="M249.7 72.906h10.609l20.203-29.984 20.078 29.984h10.594L285.402 34.72V0h-9.906v34.719z"/><use x="310.783" xlink:href="#u"/><use x="371.965" xlink:href="#j"/><path d="M422.156 75.984h9.031V31.11L458 54.687h11.469l-29-25.578L470.703 0h-11.719l-27.796 26.703V0h-9.032z"/><use x="502.775" xlink:href="#L"/><use x="541.789" xlink:href="#w"/><use x="605.266" xlink:href="#u"/><use x="666.447" xlink:href="#J"/><use x="729.826" xlink:href="#e"/><use x="793.303" xlink:href="#v"/><use x="821.086" xlink:href="#d"/><use x="882.609" xlink:href="#E"/><use x="966.496" xlink:href="#y"/><use x="994.279" xlink:href="#H"/><use x="1089.445" xlink:href="#n"/><use x="1153.068" xlink:href="#M"/><use x="1184.855" xlink:href="#l"/><use x="1280.266" xlink:href="#w"/><use x="1343.742" xlink:href="#i"/><use x="1405.021" xlink:href="#K"/><use x="1464.201" xlink:href="#E"/><use x="1516.301" xlink:href="#N"/></g><path d="M72.83 326.157h20" fill="none" stroke="#ff7f0e" stroke-linecap="square" stroke-width="1.5"/><g transform="matrix(.1 0 0 -.1 100.83 329.657)"><use xlink:href="#t"/><use x="98.783" xlink:href="#i"/><use x="160.063" xlink:href="#E"/><use x="212.162" xlink:href="#G"/><use x="275.541" xlink:href="#y"/><use x="303.324" xlink:href="#H"/><path d="M412.11 27.984q0 9.766-4.032 15.125-4.015 5.375-11.297 5.375-7.219 0-11.25-5.375-4.031-5.359-4.031-15.125 0-9.718 4.031-15.093t11.25-5.375q7.281 0 11.297 5.375 4.031 5.375 4.031 15.093zm8.984-21.203q0-13.953-6.203-20.765-6.188-6.813-18.985-6.813-4.734 0-8.937.703-4.203.703-8.156 2.172v8.735q3.953-2.141 7.812-3.157 3.86-1.031 7.86-1.031 8.843 0 13.234 4.61 4.39 4.609 4.39 13.937v4.453q-2.78-4.844-7.125-7.234Q400.641 0 394.578 0q-10.047 0-16.203 7.656-6.156 7.672-6.156 20.328 0 12.688 6.156 20.344Q384.531 56 394.578 56q6.063 0 10.406-2.39 4.344-2.391 7.125-7.22v8.297h8.985z"/><use x="430.18" xlink:href="#A"/><use x="469.389" xlink:href="#u"/><use x="530.57" xlink:href="#H"/><use x="625.736" xlink:href="#L"/><use x="664.75" xlink:href="#w"/><use x="728.227" xlink:href="#u"/><use x="789.408" xlink:href="#J"/><use x="852.787" xlink:href="#e"/><use x="916.264" xlink:href="#v"/><use x="944.047" xlink:href="#d"/><use x="1005.57" xlink:href="#E"/><use x="1089.457" xlink:href="#y"/><use x="1117.24" xlink:href="#H"/><use x="1212.406" xlink:href="#o"/><use x="1276.029" xlink:href="#M"/><use x="1307.816" xlink:href="#o"/><use x="1403.227" xlink:href="#w"/><use x="1466.703" xlink:href="#i"/><use x="1527.982" xlink:href="#K"/><use x="1587.162" xlink:href="#E"/><use x="1639.262" xlink:href="#N"/></g><path d="M72.83 340.835h20" fill="none" stroke="#2ca02c" stroke-linecap="square" stroke-width="1.5"/><g transform="matrix(.1 0 0 -.1 100.83 344.335)"><use xlink:href="#B"/><use x="69.824" xlink:href="#i"/><use x="131.104" xlink:href="#v"/><use x="158.887" xlink:href="#y"/><use x="186.67" xlink:href="#F"/><use x="221.875" xlink:href="#u"/><use x="283.057" xlink:href="#j"/><use x="324.154" xlink:href="#H"/><use x="387.533" xlink:href="#y"/><use x="415.316" xlink:href="#i"/><use x="508.383" xlink:href="#L"/><use x="547.396" xlink:href="#w"/><use x="610.873" xlink:href="#u"/><use x="672.055" xlink:href="#J"/><use x="735.434" xlink:href="#e"/><use x="798.91" xlink:href="#v"/><use x="826.693" xlink:href="#d"/><use x="888.217" xlink:href="#E"/><use x="972.104" xlink:href="#y"/><use x="999.887" xlink:href="#H"/><use x="1095.053" xlink:href="#m"/><use x="1158.676" xlink:href="#M"/><use x="1190.463" xlink:href="#m"/><use x="1285.873" xlink:href="#w"/><use x="1349.35" xlink:href="#i"/><use x="1410.629" xlink:href="#K"/><use x="1469.809" xlink:href="#E"/><use x="1521.908" xlink:href="#N"/></g><path d="M72.83 355.513h20" fill="none" stroke="#d62728" stroke-linecap="square" stroke-width="1.5"/><g transform="matrix(.1 0 0 -.1 100.83 359.013)"><use xlink:href="#Q"/><use x="74.805" xlink:href="#d"/><use x="136.328" xlink:href="#x"/><path d="M259.715 72.906h9.86V5.078q0-13.187-5-19.14-5-5.954-16.095-5.954h-3.75v8.297h3.079q6.53 0 9.218 3.672 2.688 3.656 2.688 13.125z"/><use x="279.395" xlink:href="#d"/><use x="340.918" xlink:href="#j"/><use x="382.031" xlink:href="#E"/><use x="434.131" xlink:href="#d"/><use x="495.654" xlink:href="#K"/><use x="586.621" xlink:href="#L"/><use x="625.635" xlink:href="#w"/><use x="689.111" xlink:href="#u"/><use x="750.293" xlink:href="#J"/><use x="813.672" xlink:href="#e"/><use x="877.148" xlink:href="#v"/><use x="904.932" xlink:href="#d"/><use x="966.455" xlink:href="#E"/><use x="1050.342" xlink:href="#y"/><use x="1078.125" xlink:href="#H"/><use x="1173.291" xlink:href="#n"/><use x="1236.914" xlink:href="#M"/><use x="1268.701" xlink:href="#o"/><use x="1364.111" xlink:href="#w"/><use x="1427.588" xlink:href="#i"/><use x="1488.867" xlink:href="#K"/><use x="1548.047" xlink:href="#E"/><use x="1600.146" xlink:href="#N"/></g></g></g></svg>