<svg height="758.4" stroke-linejoin="round" viewBox="0 0 568.8 568.8" width="758.4" xmlns="http://www.w3.org/2000/svg" xmlns:xlink="http://www.w3.org/1999/xlink"><defs><path id="y" d="M9.422 75.984h8.984V0H9.422z" stroke-linejoin="round"/><path id="X" d="M45.406 27.984q0 9.766-4.031 15.125-4.016 5.375-11.297 5.375-7.219 0-11.25-5.375-4.031-5.359-4.031-15.125 0-9.718 4.031-15.093t11.25-5.375q7.281 0 11.297 5.375 4.031 5.375 4.031 15.093zm8.985-21.203q0-13.953-6.203-20.765Q42-20.797 29.203-20.797q-4.734 0-8.937.703-4.203.703-8.157 2.172v8.735q3.954-2.141 7.813-3.157 3.86-1.031 7.86-1.031 8.843 0 13.234 4.61 4.39 4.609 4.39 13.937v4.453q-2.781-4.844-7.125-7.234Q33.938 0 27.875 0 17.828 0 11.672 7.656q-6.156 7.672-6.156 20.328 0 12.688 6.156 20.344Q17.828 56 27.875 56q6.063 0 10.406-2.39 4.344-2.391 7.125-7.22v8.297h8.985z" stroke-linejoin="round"/><path id="b" d="M0 0v3.5" stroke="#000" stroke-linejoin="round" stroke-width=".8"/><path id="c" d="M9.813 72.906h41.89v-8.312H19.672V43.109h28.906v-8.297H19.672V0h-9.86z" stroke-linejoin="round"/><path id="d" d="M56.203 29.594v-4.39H14.891q.593-9.282 5.593-14.142 5-4.859 13.938-4.859 5.172 0 10.031 1.266 4.86 1.265 9.656 3.812v-8.5Q49.266.734 44.187-.344 39.11-1.422 33.892-1.422q-13.094 0-20.735 7.61-7.64 7.625-7.64 20.625 0 13.421 7.25 21.296Q20.016 56 32.328 56q11.031 0 17.453-7.11 6.422-7.093 6.422-19.296zm-8.984 2.64q-.094 7.36-4.125 11.75-4.032 4.407-10.672 4.407-7.516 0-12.031-4.25-4.516-4.25-5.203-11.97z" stroke-linejoin="round"/><path id="e" d="M48.688 27.297q0 9.906-4.079 15.547-4.078 5.64-11.203 5.64-7.14 0-11.218-5.64-4.079-5.64-4.079-15.547 0-9.906 4.078-15.547 4.079-5.64 11.22-5.64 7.124 0 11.202 5.64t4.078 15.547zM18.108 46.39q2.844 4.875 7.157 7.234Q29.594 56 35.594 56q9.968 0 16.187-7.906 6.235-7.907 6.235-20.797T51.78 6.484q-6.218-7.906-16.187-7.906-6 0-10.328 2.375-4.313 2.375-7.157 7.25V0H9.08v75.984h9.03z" stroke-linejoin="round"/><path id="f" d="M19.188 8.297h34.421V0H7.33v8.297q5.609 5.812 15.296 15.594 9.703 9.797 12.188 12.64 4.734 5.313 6.609 9 1.89 3.688 1.89 7.25 0 5.813-4.078 9.469-4.078 3.672-10.625 3.672-4.64 0-9.797-1.61-5.14-1.609-11-4.89v9.969Q13.767 71.78 18.938 73q5.188 1.219 9.485 1.219 11.328 0 18.062-5.672 6.735-5.656 6.735-15.125 0-4.5-1.688-8.531-1.672-4.016-6.125-9.485-1.218-1.422-7.765-8.187-6.532-6.766-18.453-18.922z" stroke-linejoin="round"/><path id="g" d="M31.781 66.406q-7.61 0-11.453-7.5Q16.5 51.422 16.5 36.375q0-14.984 3.828-22.484 3.844-7.5 11.453-7.5 7.672 0 11.5 7.5 3.844 7.5 3.844 22.484 0 15.047-3.844 22.531-3.828 7.5-11.5 7.5zm0 7.813q12.266 0 18.735-9.703 6.468-9.688 6.468-28.141 0-18.406-6.468-28.11-6.47-9.687-18.735-9.687-12.25 0-18.718 9.688-6.47 9.703-6.47 28.109 0 18.453 6.47 28.14Q19.53 74.22 31.78 74.22z" stroke-linejoin="round"/><path id="h" d="M9.813 72.906h14.703l18.593-49.61 18.703 49.61h14.704V0H66.89v64.016l-18.797-50h-9.907l-18.796 50V0H9.813z" stroke-linejoin="round"/><path id="i" d="M34.281 27.484q-10.89 0-15.093-2.484-4.204-2.484-4.204-8.5 0-4.781 3.157-7.594 3.156-2.797 8.562-2.797 7.485 0 12 5.297 4.516 5.297 4.516 14.078v2zm17.922 3.72V0H43.22v8.297Q40.14 3.328 35.547.953q-4.594-2.375-11.234-2.375-8.391 0-13.36 4.719Q6 8.016 6 15.922q0 9.219 6.172 13.906 6.187 4.688 18.437 4.688h12.61v.89q0 6.203-4.078 9.594-4.078 3.39-11.453 3.39-4.688 0-9.141-1.124-4.438-1.125-8.531-3.375v8.312q4.921 1.906 9.562 2.844 4.64.953 9.031.953 11.875 0 17.735-6.156 5.86-6.14 5.86-18.64z" stroke-linejoin="round"/><path id="j" d="M41.11 46.297q-1.516.875-3.297 1.281Q36.03 48 33.89 48q-7.625 0-11.703-4.953-4.079-4.953-4.079-14.234V0H9.08v54.688h9.03v-8.5q2.844 4.984 7.375 7.39Q30.031 56 36.531 56q.922 0 2.047-.125 1.125-.11 2.484-.36z" stroke-linejoin="round"/><path id="k" d="M0 0v2" stroke="#000" stroke-linejoin="round" stroke-width=".6"/><path id="l" d="M8.203 72.906h46.875v-4.203L28.61 0H18.312L43.22 64.594H8.203z" stroke-linejoin="round"/><path id="m" d="M40.578 39.313Q47.656 37.797 51.625 33q3.984-4.781 3.984-11.813 0-10.78-7.422-16.703-7.421-5.906-21.093-5.906-4.578 0-9.438.906-4.86.907-10.031 2.72v9.515q4.094-2.39 8.969-3.61 4.89-1.218 10.218-1.218 9.266 0 14.125 3.656 4.86 3.656 4.86 10.64 0 6.454-4.516 10.079-4.515 3.64-12.562 3.64h-8.5v8.11h8.89q7.266 0 11.125 2.906 3.86 2.906 3.86 8.375 0 5.61-3.985 8.61-3.968 3.015-11.39 3.015-4.063 0-8.703-.89-4.641-.876-10.203-2.72v8.782q5.624 1.562 10.53 2.344 4.907.78 9.25.78 11.235 0 17.766-5.109 6.547-5.093 6.547-13.78 0-6.063-3.468-10.235-3.47-4.172-9.86-5.782z" stroke-linejoin="round"/><path id="n" d="M12.406 8.297h16.11v55.625l-17.532-3.516v8.985l17.438 3.515h9.86V8.296H54.39V0H12.406z" stroke-linejoin="round"/><path id="o" d="M37.797 64.313L12.89 25.39h24.906zm-2.594 8.593H47.61V25.391h10.407v-8.203H47.609V0h-9.812v17.188H4.89v9.515z" stroke-linejoin="round"/><path id="p" d="M10.984 1.516V10.5q3.72-1.766 7.516-2.688 3.813-.921 7.484-.921 9.766 0 14.907 6.562 5.156 6.563 5.89 19.953-2.828-4.203-7.187-6.453-4.344-2.25-9.61-2.25-10.937 0-17.312 6.61-6.375 6.625-6.375 18.109 0 11.219 6.64 18 6.641 6.797 17.672 6.797 12.657 0 19.313-9.703 6.672-9.688 6.672-28.141 0-17.234-8.188-27.516Q40.234-1.42 26.422-1.42q-3.719 0-7.531.734-3.797.734-7.907 2.203zM30.61 32.422q6.641 0 10.516 4.531 3.89 4.547 3.89 12.469 0 7.86-3.89 12.422-3.875 4.562-10.516 4.562-6.64 0-10.515-4.562-3.875-4.563-3.875-12.422 0-7.922 3.875-12.469 3.875-4.531 10.515-4.531z" stroke-linejoin="round"/><path id="q" d="M33.016 40.375q-6.641 0-10.532-4.547-3.875-4.531-3.875-12.437 0-7.86 3.875-12.438 3.891-4.562 10.532-4.562 6.64 0 10.515 4.562 3.875 4.578 3.875 12.438 0 7.906-3.875 12.437-3.875 4.547-10.515 4.547zm19.578 30.922v-8.984q-3.719 1.75-7.5 2.671-3.782.938-7.5.938-9.766 0-14.922-6.594-5.14-6.594-5.875-19.922 2.875 4.25 7.219 6.516 4.359 2.266 9.578 2.266 10.984 0 17.36-6.672 6.374-6.657 6.374-18.125 0-11.235-6.64-18.032-6.641-6.78-17.672-6.78-12.657 0-19.344 9.687-6.688 9.703-6.688 28.109 0 17.281 8.204 27.563 8.203 10.28 22.015 10.28 3.719 0 7.5-.734t7.89-2.187z" stroke-linejoin="round"/><path id="r" d="M19.672 64.797V8.109h11.922q15.093 0 22.093 6.829 7 6.843 7 21.593 0 14.64-7 21.453-7 6.813-22.093 6.813zm-9.86 8.11h20.266q21.188 0 31.094-8.813 9.922-8.813 9.922-27.563 0-18.86-9.969-27.703Q51.172 0 30.078 0H9.813z" stroke-linejoin="round"/><path id="s" d="M18.313 70.219V54.688h18.5v-6.985h-18.5V18.016q0-6.688 1.828-8.594 1.828-1.906 7.453-1.906h9.218V0h-9.218q-10.407 0-14.36 3.875-3.953 3.89-3.953 14.14v29.688H2.687v6.984h6.594V70.22z" stroke-linejoin="round"/><path id="t" d="M0 0h-3.5" stroke="#000" stroke-linejoin="round" stroke-width=".8"/><path id="u" d="M10.797 72.906h38.719v-8.312H19.828v-17.86q2.14.735 4.281 1.094 2.157.36 4.313.36 12.203 0 19.328-6.688 7.14-6.688 7.14-18.11 0-11.765-7.328-18.296-7.328-6.516-20.656-6.516-4.593 0-9.36.781-4.75.782-9.827 2.344v9.922q4.39-2.39 9.078-3.563 4.687-1.171 9.906-1.171 8.453 0 13.375 4.437 4.938 4.438 4.938 12.063 0 7.609-4.938 12.047-4.922 4.453-13.375 4.453-3.953 0-7.89-.875-3.922-.875-8.016-2.735z" stroke-linejoin="round"/><path id="v" d="M0 0h-2" stroke="#000" stroke-linejoin="round" stroke-width=".6"/><path id="w" d="M3.328 72.906h9.953L28.61 11.281l15.282 61.625h11.093l15.328-61.625 15.282 61.625h10.015L77.297 0H64.89L49.516 63.281 33.984 0H21.578z" stroke-linejoin="round"/><path id="x" d="M30.61 48.39q-7.22 0-11.422-5.64-4.204-5.64-4.204-15.453 0-9.813 4.172-15.453 4.188-5.64 11.453-5.64 7.188 0 11.375 5.655 4.203 5.672 4.203 15.438 0 9.719-4.203 15.406-4.187 5.688-11.375 5.688zm0 7.61q11.718 0 18.406-7.625 6.703-7.61 6.703-21.078 0-13.422-6.703-21.078-6.688-7.64-18.407-7.64-11.765 0-18.437 7.64-6.656 7.656-6.656 21.078 0 13.469 6.656 21.078Q18.844 56 30.609 56z" stroke-linejoin="round"/><path id="W" d="M54.89 33.016V0h-8.984v32.719q0 7.765-3.031 11.61-3.031 3.858-9.078 3.858-7.281 0-11.484-4.64-4.204-4.625-4.204-12.64V0H9.08v75.984h9.03V46.188q3.235 4.937 7.594 7.374Q30.078 56 35.797 56q9.422 0 14.25-5.828 4.844-5.828 4.844-17.156z" stroke-linejoin="round"/><path id="z" d="M45.406 46.39v29.594h8.985V0h-8.985v8.203Q42.578 3.328 38.25.953q-4.313-2.375-10.375-2.375-9.906 0-16.14 7.906-6.22 7.922-6.22 20.813 0 12.89 6.22 20.797Q17.968 56 27.874 56q6.063 0 10.375-2.375 4.328-2.36 7.156-7.234zm-30.61-19.093q0-9.906 4.079-15.547 4.078-5.64 11.203-5.64 7.125 0 11.219 5.64 4.11 5.64 4.11 15.547 0 9.906-4.11 15.547-4.094 5.64-11.219 5.64-7.125 0-11.203-5.64-4.078-5.64-4.078-15.547z" stroke-linejoin="round"/><path id="A" d="M4.203 54.688h8.985l11.234-42.672 11.172 42.672h10.593l11.235-42.672 11.187 42.672h8.985L63.28 0H52.688L40.922 44.828 29.109 0H18.5z" stroke-linejoin="round"/><path id="B" d="M9.422 54.688h8.984V0H9.422zm0 21.296h8.984v-11.39H9.422z" stroke-linejoin="round"/><path id="C" d="M-3 0h6M0 3v-6" stroke="#1f77b4" stroke-linejoin="round"/><path id="D" d="M0 1.5a1.5 1.5 0 100-3 1.5 1.5 0 000 3z" stroke="#ff7f0e" stroke-linejoin="round"/><path id="E" d="M-3 0h6M0 3v-6" stroke="#d62728" stroke-linejoin="round"/><path id="F" d="M0 1.5a1.5 1.5 0 100-3 1.5 1.5 0 000 3z" stroke="#9467bd" stroke-linejoin="round"/><path id="G" d="M48.781 52.594v-8.407q-3.812 2.11-7.64 3.157-3.828 1.047-7.735 1.047-8.75 0-13.593-5.547-4.829-5.532-4.829-15.547 0-10.016 4.829-15.563 4.843-5.53 13.593-5.53 3.907 0 7.735 1.046 3.828 1.047 7.64 3.156V2.094Q45.016.344 40.984-.531q-4.015-.89-8.562-.89-12.36 0-19.64 7.765-7.266 7.765-7.266 20.953 0 13.375 7.343 21.031Q20.22 56 33.016 56q4.14 0 8.093-.86 3.953-.843 7.672-2.546z" stroke-linejoin="round"/><path id="H" d="M64.406 67.281v-10.39q-4.984 4.64-10.625 6.922-5.64 2.296-11.984 2.296-12.5 0-19.14-7.64-6.641-7.64-6.641-22.094 0-14.406 6.64-22.047 6.64-7.64 19.14-7.64 6.345 0 11.985 2.296 5.64 2.297 10.625 6.938V5.609Q59.234 2.094 53.437.33q-5.78-1.75-12.218-1.75-16.563 0-26.094 10.124-9.516 10.14-9.516 27.672 0 17.578 9.516 27.703 9.531 10.14 26.094 10.14 6.531 0 12.312-1.734 5.797-1.734 10.875-5.203z" stroke-linejoin="round"/><path id="I" d="M9.813 72.906h9.859V0h-9.86z" stroke-linejoin="round"/><path id="J" d="M4.89 31.39h26.313v-8H4.891z" stroke-linejoin="round"/><path id="K" d="M44.281 53.078v-8.5q-3.797 1.953-7.906 2.922-4.094.984-8.5.984-6.688 0-10.031-2.047-3.344-2.046-3.344-6.156 0-3.125 2.39-4.906 2.391-1.781 9.626-3.39l3.078-.688q9.562-2.047 13.593-5.781 4.032-3.735 4.032-10.422 0-7.625-6.032-12.078-6.03-4.438-16.578-4.438-4.39 0-9.156.86Q10.688.296 5.422 2v9.281q4.984-2.594 9.812-3.89 4.829-1.282 9.579-1.282 6.343 0 9.75 2.172 3.421 2.172 3.421 6.125 0 3.656-2.468 5.61-2.453 1.953-10.813 3.765l-3.125.735q-8.344 1.75-12.062 5.39-3.704 3.64-3.704 9.985 0 7.718 5.47 11.906Q16.75 56 26.811 56q4.97 0 9.36-.734 4.406-.72 8.11-2.188z" stroke-linejoin="round"/><path id="L" d="M37.11 75.984V68.5h-8.594q-4.828 0-6.72-1.953-1.874-1.953-1.874-7.031v-4.828h14.797v-6.985H19.922V0H10.89v47.703H2.297v6.984h8.594V58.5q0 9.125 4.25 13.297 4.25 4.187 13.468 4.187z" stroke-linejoin="round"/><path id="M" d="M32.172-5.078q-3.797-9.766-7.422-12.735-3.61-2.984-9.656-2.984H7.906v7.516h5.282q3.703 0 5.75 1.765Q21-9.766 23.483-3.219l1.61 4.094-22.11 53.813H12.5l17.094-42.766 17.093 42.766h9.516z" stroke-linejoin="round"/><path id="N" d="M31 75.875q-6.531-11.219-9.719-22.219-3.172-10.984-3.172-22.265 0-11.266 3.203-22.328Q24.517-2 31-13.188h-7.813Q15.875-1.704 12.235 9.375q-3.64 11.078-3.64 22.016 0 10.89 3.61 21.922 3.624 11.046 10.983 22.562z" stroke-linejoin="round"/><path id="O" d="M8.5 21.578v33.11h8.984V21.922q0-7.766 3.016-11.656 3.031-3.875 9.094-3.875 7.265 0 11.484 4.64 4.234 4.64 4.234 12.656v31h8.985V0h-8.984v8.406Q42.047 3.422 37.718 1q-4.313-2.422-10.032-2.422-9.421 0-14.312 5.86Q8.5 10.296 8.5 21.578z" stroke-linejoin="round"/><path id="P" d="M54.89 33.016V0h-8.984v32.719q0 7.765-3.031 11.61-3.031 3.858-9.078 3.858-7.281 0-11.484-4.64-4.204-4.625-4.204-12.64V0H9.08v54.688h9.03v-8.5q3.235 4.937 7.594 7.374Q30.078 56 35.797 56q9.422 0 14.25-5.828 4.844-5.828 4.844-17.156z" stroke-linejoin="round"/><path id="Q" d="M10.688 12.406H21V0H10.687z" stroke-linejoin="round"/><path id="R" d="M8.016 75.875h7.812q7.313-11.516 10.953-22.563 3.64-11.03 3.64-21.921 0-10.938-3.64-22.016-3.64-11.078-10.953-22.563H8.016Q14.5-2 17.703 9.063q3.203 11.063 3.203 22.329 0 11.28-3.203 22.265-3.203 11-9.687 22.219z" stroke-linejoin="round"/><path id="S" d="M8.688 72.906h9.921V28.61q0-11.718 4.235-16.875 4.25-5.14 13.781-5.14 9.469 0 13.719 5.14 4.25 5.157 4.25 16.875v44.297H64.5V27.391q0-14.25-7.063-21.532-7.046-7.28-20.812-7.28-13.828 0-20.89 7.28-7.047 7.282-7.047 21.532z" stroke-linejoin="round"/><path id="T" d="M53.516 70.516V60.89q-5.61 2.687-10.594 4-4.984 1.328-9.625 1.328-8.047 0-12.422-3.125t-4.375-8.89q0-4.845 2.906-7.313 2.907-2.453 11.016-3.97l5.953-1.218q11.031-2.11 16.281-7.406 5.25-5.297 5.25-14.172 0-10.61-7.11-16.078-7.093-5.469-20.812-5.469-5.172 0-11.015 1.172Q13.14.922 6.89 3.219v10.156q6-3.36 11.765-5.078 5.766-1.703 11.328-1.703 8.438 0 13.032 3.312 4.593 3.328 4.593 9.485 0 5.359-3.297 8.39-3.296 3.032-10.812 4.547L27.484 33.5q-11.03 2.188-15.968 6.875-4.922 4.688-4.922 13.047 0 9.672 6.812 15.234 6.813 5.563 18.766 5.563 5.14 0 10.453-.938 5.328-.922 10.89-2.765z" stroke-linejoin="round"/><path id="V" d="M9.813 72.906h13.28l32.329-60.984v60.984h9.562V0h-13.28L19.39 60.984V0H9.813z" stroke-linejoin="round"/><clipPath id="U" stroke-linejoin="round"><path d="M71.1 307.152h440.82v199.08H71.1z"/></clipPath><clipPath id="a" stroke-linejoin="round"><path d="M71.1 68.256h440.82v199.08H71.1z"/></clipPath></defs><path d="M0 568.8h568.8V0H0z" fill="#fff"/><path d="M71.1 267.336h440.82V68.256H71.1z" fill="#fff"/><g stroke-width=".8"><path clip-path="url(#a)" d="M71.1 267.336V68.256" fill="none" stroke="#b0b0b0" stroke-linecap="square"/><use stroke="#000" x="71.1" xlink:href="#b" y="267.336"/></g><path clip-path="url(#a)" d="M138.918 267.336V68.256" fill="none" stroke="#b0b0b0" stroke-linecap="square" stroke-width=".8"/><use stroke="#000" stroke-width=".8" x="138.918" xlink:href="#b" y="267.336"/><g transform="matrix(.1 0 0 -.1 129.796 304.33)"><use xlink:href="#c"/><use x="57.441" xlink:href="#d"/><use x="118.965" xlink:href="#e"/></g><g transform="matrix(.1 0 0 -.1 126.193 315.528)"><use xlink:href="#f"/><use x="63.623" xlink:href="#g"/><use x="127.246" xlink:href="#f"/><use x="190.869" xlink:href="#g"/></g><path clip-path="url(#a)" d="M335.592 267.336V68.256" fill="none" stroke="#b0b0b0" stroke-linecap="square" stroke-width=".8"/><use stroke="#000" stroke-width=".8" x="335.592" xlink:href="#b" y="267.336"/><g transform="matrix(.1 0 0 -.1 326.158 304.33)"><use xlink:href="#h"/><use x="86.279" xlink:href="#i"/><use x="147.559" xlink:href="#j"/></g><g stroke-width=".8"><path clip-path="url(#a)" d="M511.92 267.336V68.256" fill="none" stroke="#b0b0b0" stroke-linecap="square"/><use stroke="#000" x="511.92" xlink:href="#b" y="267.336"/></g><use stroke="#000" stroke-width=".6" x="71.1" xlink:href="#k" y="267.336"/><use stroke="#000" stroke-width=".6" x="77.882" xlink:href="#k" y="267.336"/><use stroke="#000" stroke-width=".6" x="84.664" xlink:href="#k" y="267.336"/><use stroke="#000" stroke-width=".6" x="91.446" xlink:href="#k" y="267.336"/><use stroke="#000" stroke-width=".6" x="98.227" xlink:href="#k" y="267.336"/><use stroke="#000" stroke-width=".6" x="105.009" xlink:href="#k" y="267.336"/><g transform="matrix(.1 0 0 -.1 98.647 280.334)"><use xlink:href="#f"/><use x="63.623" xlink:href="#l"/></g><g stroke="#000" stroke-width=".6"><use x="111.791" xlink:href="#k" y="267.336"/><use x="118.573" xlink:href="#k" y="267.336"/><use x="125.355" xlink:href="#k" y="267.336"/><use x="132.137" xlink:href="#k" y="267.336"/><use x="138.918" xlink:href="#k" y="267.336"/><use x="145.7" xlink:href="#k" y="267.336"/></g><use stroke="#000" stroke-width=".6" x="152.482" xlink:href="#k" y="267.336"/><g transform="matrix(.1 0 0 -.1 146.12 280.334)"><use xlink:href="#g"/><use x="63.623" xlink:href="#m"/></g><use stroke="#000" stroke-width=".6" x="159.264" xlink:href="#k" y="267.336"/><use stroke="#000" stroke-width=".6" x="166.046" xlink:href="#k" y="267.336"/><use stroke="#000" stroke-width=".6" x="172.828" xlink:href="#k" y="267.336"/><use stroke="#000" stroke-width=".6" x="179.61" xlink:href="#k" y="267.336"/><use stroke="#000" stroke-width=".6" x="186.391" xlink:href="#k" y="267.336"/><use stroke="#000" stroke-width=".6" x="193.173" xlink:href="#k" y="267.336"/><use stroke="#000" stroke-width=".6" x="199.955" xlink:href="#k" y="267.336"/><g transform="matrix(.1 0 0 -.1 193.593 280.334)"><use xlink:href="#n"/><use x="63.623" xlink:href="#g"/></g><use stroke="#000" stroke-width=".6" x="206.737" xlink:href="#k" y="267.336"/><use stroke="#000" stroke-width=".6" x="213.519" xlink:href="#k" y="267.336"/><use stroke="#000" stroke-width=".6" x="220.301" xlink:href="#k" y="267.336"/><use stroke="#000" stroke-width=".6" x="227.082" xlink:href="#k" y="267.336"/><use stroke="#000" stroke-width=".6" x="233.864" xlink:href="#k" y="267.336"/><use stroke="#000" stroke-width=".6" x="240.646" xlink:href="#k" y="267.336"/><use stroke="#000" stroke-width=".6" x="247.428" xlink:href="#k" y="267.336"/><g transform="matrix(.1 0 0 -.1 241.065 280.334)"><use xlink:href="#n"/><use x="63.623" xlink:href="#l"/></g><use stroke="#000" stroke-width=".6" x="254.21" xlink:href="#k" y="267.336"/><use stroke="#000" stroke-width=".6" x="260.992" xlink:href="#k" y="267.336"/><use stroke="#000" stroke-width=".6" x="267.774" xlink:href="#k" y="267.336"/><use stroke="#000" stroke-width=".6" x="274.555" xlink:href="#k" y="267.336"/><use stroke="#000" stroke-width=".6" x="281.337" xlink:href="#k" y="267.336"/><use stroke="#000" stroke-width=".6" x="288.119" xlink:href="#k" y="267.336"/><use stroke="#000" stroke-width=".6" x="294.901" xlink:href="#k" y="267.336"/><g transform="matrix(.1 0 0 -.1 288.538 280.334)"><use xlink:href="#f"/><use x="63.623" xlink:href="#o"/></g><use stroke="#000" stroke-width=".6" x="301.683" xlink:href="#k" y="267.336"/><use stroke="#000" stroke-width=".6" x="308.465" xlink:href="#k" y="267.336"/><use stroke="#000" stroke-width=".6" x="315.246" xlink:href="#k" y="267.336"/><use stroke="#000" stroke-width=".6" x="322.028" xlink:href="#k" y="267.336"/><use stroke="#000" stroke-width=".6" x="328.81" xlink:href="#k" y="267.336"/><use stroke="#000" stroke-width=".6" x="335.592" xlink:href="#k" y="267.336"/><use stroke="#000" stroke-width=".6" x="342.374" xlink:href="#k" y="267.336"/><g transform="matrix(.1 0 0 -.1 336.011 280.334)"><use xlink:href="#g"/><use x="63.623" xlink:href="#f"/></g><use stroke="#000" stroke-width=".6" x="349.156" xlink:href="#k" y="267.336"/><use stroke="#000" stroke-width=".6" x="355.938" xlink:href="#k" y="267.336"/><use stroke="#000" stroke-width=".6" x="362.719" xlink:href="#k" y="267.336"/><use stroke="#000" stroke-width=".6" x="369.501" xlink:href="#k" y="267.336"/><use stroke="#000" stroke-width=".6" x="376.283" xlink:href="#k" y="267.336"/><use stroke="#000" stroke-width=".6" x="383.065" xlink:href="#k" y="267.336"/><use stroke="#000" stroke-width=".6" x="389.847" xlink:href="#k" y="267.336"/><g transform="matrix(.1 0 0 -.1 383.484 280.334)"><use xlink:href="#g"/><use x="63.623" xlink:href="#p"/></g><use stroke="#000" stroke-width=".6" x="396.629" xlink:href="#k" y="267.336"/><use stroke="#000" stroke-width=".6" x="403.41" xlink:href="#k" y="267.336"/><use stroke="#000" stroke-width=".6" x="410.192" xlink:href="#k" y="267.336"/><use stroke="#000" stroke-width=".6" x="416.974" xlink:href="#k" y="267.336"/><use stroke="#000" stroke-width=".6" x="423.756" xlink:href="#k" y="267.336"/><use stroke="#000" stroke-width=".6" x="430.538" xlink:href="#k" y="267.336"/><use stroke="#000" stroke-width=".6" x="437.32" xlink:href="#k" y="267.336"/><g transform="matrix(.1 0 0 -.1 430.957 280.334)"><use xlink:href="#n"/><use x="63.623" xlink:href="#q"/></g><use stroke="#000" stroke-width=".6" x="444.102" xlink:href="#k" y="267.336"/><use stroke="#000" stroke-width=".6" x="450.883" xlink:href="#k" y="267.336"/><use stroke="#000" stroke-width=".6" x="457.665" xlink:href="#k" y="267.336"/><use stroke="#000" stroke-width=".6" x="464.447" xlink:href="#k" y="267.336"/><use stroke="#000" stroke-width=".6" x="471.229" xlink:href="#k" y="267.336"/><use stroke="#000" stroke-width=".6" x="478.011" xlink:href="#k" y="267.336"/><g><use stroke="#000" stroke-width=".6" x="484.793" xlink:href="#k" y="267.336"/><g transform="matrix(.1 0 0 -.1 478.43 280.334)"><use xlink:href="#f"/><use x="63.623" xlink:href="#m"/></g></g><use stroke="#000" stroke-width=".6" x="491.574" xlink:href="#k" y="267.336"/><use stroke="#000" stroke-width=".6" x="498.356" xlink:href="#k" y="267.336"/><use stroke="#000" stroke-width=".6" x="505.138" xlink:href="#k" y="267.336"/><use stroke="#000" stroke-width=".6" x="511.92" xlink:href="#k" y="267.336"/><g transform="matrix(.1 0 0 -.1 279.56 329.206)"><use xlink:href="#r"/><use x="77.002" xlink:href="#i"/><use x="138.281" xlink:href="#s"/><use x="177.49" xlink:href="#d"/></g><g><path clip-path="url(#a)" d="M71.1 258.287h440.82" fill="none" stroke="#b0b0b0" stroke-linecap="square" stroke-width=".8"/><use stroke="#000" stroke-width=".8" x="71.1" xlink:href="#t" y="258.287"/><g transform="matrix(.1 0 0 -.1 46.5 262.086)"><use transform="translate(0 .766)" xlink:href="#n"/><use transform="translate(63.623 .766)" xlink:href="#g"/><use transform="matrix(.7 0 0 .7 128.203 39.047)" xlink:href="#g"/></g><path clip-path="url(#a)" d="M71.1 223.338h440.82" fill="none" stroke="#b0b0b0" stroke-linecap="square" stroke-width=".8"/><use stroke="#000" stroke-width=".8" x="71.1" xlink:href="#t" y="223.338"/><g transform="matrix(.1 0 0 -.1 46.5 227.137)"><use transform="translate(0 .684)" xlink:href="#n"/><use transform="translate(63.623 .684)" xlink:href="#g"/><use transform="matrix(.7 0 0 .7 128.203 38.966)" xlink:href="#n"/></g><path clip-path="url(#a)" d="M71.1 188.389h440.82" fill="none" stroke="#b0b0b0" stroke-linecap="square" stroke-width=".8"/><use stroke="#000" stroke-width=".8" x="71.1" xlink:href="#t" y="188.389"/><g transform="matrix(.1 0 0 -.1 46.5 192.188)"><use transform="translate(0 .766)" xlink:href="#n"/><use transform="translate(63.623 .766)" xlink:href="#g"/><use transform="matrix(.7 0 0 .7 128.203 39.047)" xlink:href="#f"/></g><g><path clip-path="url(#a)" d="M71.1 153.44h440.82" fill="none" stroke="#b0b0b0" stroke-linecap="square" stroke-width=".8"/><use stroke="#000" stroke-width=".8" x="71.1" xlink:href="#t" y="153.44"/><g transform="matrix(.1 0 0 -.1 46.5 157.239)"><use transform="translate(0 .766)" xlink:href="#n"/><use transform="translate(63.623 .766)" xlink:href="#g"/><use transform="matrix(.7 0 0 .7 128.203 39.047)" xlink:href="#m"/></g></g><g><path clip-path="url(#a)" d="M71.1 118.49h440.82" fill="none" stroke="#b0b0b0" stroke-linecap="square" stroke-width=".8"/><use stroke="#000" stroke-width=".8" x="71.1" xlink:href="#t" y="118.491"/><g transform="matrix(.1 0 0 -.1 46.5 122.29)"><use transform="translate(0 .684)" xlink:href="#n"/><use transform="translate(63.623 .684)" xlink:href="#g"/><use transform="matrix(.7 0 0 .7 128.203 38.966)" xlink:href="#o"/></g></g><g><path clip-path="url(#a)" d="M71.1 83.542h440.82" fill="none" stroke="#b0b0b0" stroke-linecap="square" stroke-width=".8"/><use stroke="#000" stroke-width=".8" x="71.1" xlink:href="#t" y="83.542"/><g transform="matrix(.1 0 0 -.1 46.5 87.34)"><use transform="translate(0 .684)" xlink:href="#n"/><use transform="translate(63.623 .684)" xlink:href="#g"/><use transform="matrix(.7 0 0 .7 128.203 38.966)" xlink:href="#u"/></g></g><g stroke="#000" stroke-width=".6"><use x="71.1" xlink:href="#v" y="266.04"/><use x="71.1" xlink:href="#v" y="263.701"/><use x="71.1" xlink:href="#v" y="261.674"/><use x="71.1" xlink:href="#v" y="259.886"/><use x="71.1" xlink:href="#v" y="247.766"/><use x="71.1" xlink:href="#v" y="241.612"/><use x="71.1" xlink:href="#v" y="237.245"/><use x="71.1" xlink:href="#v" y="233.859"/><use x="71.1" xlink:href="#v" y="231.091"/><use x="71.1" xlink:href="#v" y="228.752"/><use x="71.1" xlink:href="#v" y="226.725"/><use x="71.1" xlink:href="#v" y="224.937"/><use x="71.1" xlink:href="#v" y="212.817"/><use x="71.1" xlink:href="#v" y="206.663"/><use x="71.1" xlink:href="#v" y="202.296"/><use x="71.1" xlink:href="#v" y="198.909"/><use x="71.1" xlink:href="#v" y="196.142"/><use x="71.1" xlink:href="#v" y="193.802"/><use x="71.1" xlink:href="#v" y="191.776"/><use x="71.1" xlink:href="#v" y="189.988"/><use x="71.1" xlink:href="#v" y="177.868"/><use x="71.1" xlink:href="#v" y="171.714"/><use x="71.1" xlink:href="#v" y="167.347"/><use x="71.1" xlink:href="#v" y="163.96"/><use x="71.1" xlink:href="#v" y="161.193"/><use x="71.1" xlink:href="#v" y="158.853"/><use x="71.1" xlink:href="#v" y="156.827"/><use x="71.1" xlink:href="#v" y="155.039"/><use x="71.1" xlink:href="#v" y="142.919"/><use x="71.1" xlink:href="#v" y="136.765"/><use x="71.1" xlink:href="#v" y="132.398"/><use x="71.1" xlink:href="#v" y="129.011"/><use x="71.1" xlink:href="#v" y="126.244"/><use x="71.1" xlink:href="#v" y="123.904"/><use x="71.1" xlink:href="#v" y="121.878"/><use x="71.1" xlink:href="#v" y="120.09"/><use x="71.1" xlink:href="#v" y="107.97"/><use x="71.1" xlink:href="#v" y="101.816"/><use x="71.1" xlink:href="#v" y="97.449"/><use x="71.1" xlink:href="#v" y="94.062"/><use x="71.1" xlink:href="#v" y="91.295"/><use x="71.1" xlink:href="#v" y="88.955"/><use x="71.1" xlink:href="#v" y="86.928"/><use x="71.1" xlink:href="#v" y="85.141"/><use x="71.1" xlink:href="#v" y="73.021"/></g><g transform="matrix(0 -.1 -.1 0 40.42 194.143)"><use xlink:href="#w"/><use x="98.799" xlink:href="#x"/><use x="159.98" xlink:href="#j"/><use x="201.094" xlink:href="#y"/><use x="228.877" xlink:href="#z"/><use x="292.354" xlink:href="#A"/><use x="374.141" xlink:href="#B"/><use x="401.924" xlink:href="#z"/><use x="465.4" xlink:href="#d"/></g></g><g stroke="#1f77b4"><path clip-path="url(#a)" d="M132.074 569.8l.063-322.034h40.691l6.782-6.154H267.774l6.781-28.016 6.782-17.199 6.782-14.162 6.782-5.882 6.782-5.186 6.782-5.197 6.781-4.599 6.782-4.938 6.782-3.777 6.782-6.13 6.782-2.3 6.782-3.182 6.782-2.714 6.781-2.993 6.782-2.617 6.782-3.893 6.782-3.532 6.782-3.389 6.782-1.465 6.781-2.82h6.782l6.782-5.239 6.782-2.6 6.782-2.263 6.782-1.719 6.782-1.848 6.781-1.47 6.782-2.2 6.782-2.272 6.782-1.545 6.782-1.346 6.782-1.183 6.781-1.05" fill="none" stroke-linecap="square" stroke-width="1.5"/><g clip-path="url(#a)" fill="#1f77b4"><use x="71.1" xlink:href="#C" y="35207.358"/><use x="77.882" xlink:href="#C" y="35207.358"/><use x="84.664" xlink:href="#C" y="35207.358"/><use x="91.446" xlink:href="#C" y="35207.358"/><use x="98.227" xlink:href="#C" y="35207.358"/><use x="105.009" xlink:href="#C" y="35207.358"/><use x="111.791" xlink:href="#C" y="35207.358"/><use x="118.573" xlink:href="#C" y="35207.358"/><use x="125.355" xlink:href="#C" y="35207.358"/><use x="132.137" xlink:href="#C" y="247.766"/><use x="138.918" xlink:href="#C" y="247.766"/><use x="145.7" xlink:href="#C" y="247.766"/><use x="152.482" xlink:href="#C" y="247.766"/><use x="159.264" xlink:href="#C" y="247.766"/><use x="166.046" xlink:href="#C" y="247.766"/><use x="172.828" xlink:href="#C" y="247.766"/><use x="179.61" xlink:href="#C" y="241.612"/><use x="186.391" xlink:href="#C" y="241.612"/><use x="193.173" xlink:href="#C" y="241.612"/><use x="199.955" xlink:href="#C" y="241.612"/><use x="206.737" xlink:href="#C" y="241.612"/><use x="213.519" xlink:href="#C" y="241.612"/><use x="220.301" xlink:href="#C" y="241.612"/><use x="227.082" xlink:href="#C" y="241.612"/><use x="233.864" xlink:href="#C" y="241.612"/><use x="240.646" xlink:href="#C" y="241.612"/><use x="247.428" xlink:href="#C" y="241.612"/><use x="254.21" xlink:href="#C" y="241.612"/><use x="260.992" xlink:href="#C" y="241.612"/><use x="267.774" xlink:href="#C" y="241.612"/><use x="274.555" xlink:href="#C" y="213.596"/><use x="281.337" xlink:href="#C" y="196.397"/><use x="288.119" xlink:href="#C" y="182.235"/><use x="294.901" xlink:href="#C" y="176.353"/><use x="301.683" xlink:href="#C" y="171.167"/><use x="308.465" xlink:href="#C" y="165.97"/><use x="315.246" xlink:href="#C" y="161.371"/><use x="322.028" xlink:href="#C" y="156.433"/><use x="328.81" xlink:href="#C" y="152.656"/><use x="335.592" xlink:href="#C" y="146.526"/><use x="342.374" xlink:href="#C" y="144.226"/><use x="349.156" xlink:href="#C" y="141.044"/><use x="355.938" xlink:href="#C" y="138.33"/><use x="362.719" xlink:href="#C" y="135.337"/><use x="369.501" xlink:href="#C" y="132.72"/><use x="376.283" xlink:href="#C" y="128.827"/><use x="383.065" xlink:href="#C" y="125.295"/><use x="389.847" xlink:href="#C" y="121.906"/><use x="396.629" xlink:href="#C" y="120.441"/><use x="403.41" xlink:href="#C" y="117.621"/><use x="410.192" xlink:href="#C" y="117.621"/><use x="416.974" xlink:href="#C" y="112.382"/><use x="423.756" xlink:href="#C" y="109.781"/><use x="430.538" xlink:href="#C" y="107.519"/><use x="437.32" xlink:href="#C" y="105.8"/><use x="444.102" xlink:href="#C" y="103.952"/><use x="450.883" xlink:href="#C" y="102.483"/><use x="457.665" xlink:href="#C" y="100.282"/><use x="464.447" xlink:href="#C" y="98.01"/><use x="471.229" xlink:href="#C" y="96.465"/><use x="478.011" xlink:href="#C" y="95.119"/><use x="484.793" xlink:href="#C" y="93.936"/><use x="491.574" xlink:href="#C" y="92.886"/></g></g><g stroke="#ff7f0e"><path clip-path="url(#a)" d="M71.1 258.287h6.782l6.782-10.52h6.782l6.781-13.908h27.128l6.782-2.768 6.781-4.366h6.782l6.782-4.834h6.782l6.782-1.32h20.345l6.782 4.366h6.782l6.782-1.6h6.782l6.782-2.766h47.473l6.781-13.908h13.564l6.782-7.134 6.782.32 6.782-1.824 6.781-.284 6.782-.278 6.782-1.819 6.782-1.402 6.782-3.913 6.782-2.967 6.782-3.415 6.781-6.155 6.782-3.67 6.782-6.468 6.782-3.935 6.782-1.88 6.782-7.183 6.781-4.445 6.782-4.01 6.782-4.166 6.782-3.445 6.782-3.832 6.782-4.248 6.782-4.997 6.781-2.78 6.782-8.653 6.782-5.098 6.782-4.408 6.782-4.351 6.782-3.912 6.781-3.043" fill="none" stroke-linecap="square" stroke-width="1.5"/><g clip-path="url(#a)" fill="#ff7f0e"><use x="71.1" xlink:href="#D" y="258.287"/><use x="77.882" xlink:href="#D" y="258.287"/><use x="84.664" xlink:href="#D" y="247.766"/><use x="91.446" xlink:href="#D" y="247.766"/><use x="98.227" xlink:href="#D" y="233.859"/><use x="105.009" xlink:href="#D" y="233.859"/><use x="111.791" xlink:href="#D" y="233.859"/><use x="118.573" xlink:href="#D" y="233.859"/><use x="125.355" xlink:href="#D" y="233.859"/><use x="132.137" xlink:href="#D" y="231.091"/><use x="138.918" xlink:href="#D" y="226.725"/><use x="145.7" xlink:href="#D" y="226.725"/><use x="152.482" xlink:href="#D" y="221.891"/><use x="159.264" xlink:href="#D" y="221.891"/><use x="166.046" xlink:href="#D" y="220.571"/><use x="172.828" xlink:href="#D" y="220.571"/><use x="179.61" xlink:href="#D" y="220.571"/><use x="186.391" xlink:href="#D" y="220.571"/><use x="193.173" xlink:href="#D" y="224.937"/><use x="199.955" xlink:href="#D" y="224.937"/><use x="206.737" xlink:href="#D" y="223.338"/><use x="213.519" xlink:href="#D" y="223.338"/><use x="220.301" xlink:href="#D" y="220.571"/><use x="227.082" xlink:href="#D" y="220.571"/><use x="233.864" xlink:href="#D" y="220.571"/><use x="240.646" xlink:href="#D" y="220.571"/><use x="247.428" xlink:href="#D" y="220.571"/><use x="254.21" xlink:href="#D" y="220.571"/><use x="260.992" xlink:href="#D" y="220.571"/><use x="267.774" xlink:href="#D" y="220.571"/><use x="274.555" xlink:href="#D" y="206.663"/><use x="281.337" xlink:href="#D" y="206.663"/><use x="288.119" xlink:href="#D" y="206.663"/><use x="294.901" xlink:href="#D" y="199.529"/><use x="301.683" xlink:href="#D" y="199.849"/><use x="308.465" xlink:href="#D" y="198.025"/><use x="315.246" xlink:href="#D" y="197.741"/><use x="322.028" xlink:href="#D" y="197.463"/><use x="328.81" xlink:href="#D" y="195.644"/><use x="335.592" xlink:href="#D" y="194.242"/><use x="342.374" xlink:href="#D" y="190.329"/><use x="349.156" xlink:href="#D" y="187.362"/><use x="355.938" xlink:href="#D" y="183.947"/><use x="362.719" xlink:href="#D" y="177.792"/><use x="369.501" xlink:href="#D" y="174.121"/><use x="376.283" xlink:href="#D" y="167.654"/><use x="383.065" xlink:href="#D" y="163.719"/><use x="389.847" xlink:href="#D" y="161.839"/><use x="396.629" xlink:href="#D" y="154.656"/><use x="403.41" xlink:href="#D" y="150.211"/><use x="410.192" xlink:href="#D" y="146.202"/><use x="416.974" xlink:href="#D" y="142.035"/><use x="423.756" xlink:href="#D" y="138.59"/><use x="430.538" xlink:href="#D" y="134.758"/><use x="437.32" xlink:href="#D" y="130.51"/><use x="444.102" xlink:href="#D" y="125.513"/><use x="450.883" xlink:href="#D" y="122.732"/><use x="457.665" xlink:href="#D" y="114.08"/><use x="464.447" xlink:href="#D" y="108.982"/><use x="471.229" xlink:href="#D" y="104.574"/><use x="478.011" xlink:href="#D" y="100.223"/><use x="484.793" xlink:href="#D" y="96.311"/><use x="491.574" xlink:href="#D" y="93.268"/></g></g><path clip-path="url(#a)" d="M138.858 569.8l.06-311.513H186.391l6.782-10.52h33.909l.063 322.033m74.473 0l.065-332.555 6.782-15.354 6.781-2.535 6.782-12.693 6.782-5.464 6.782-9.798 6.782-5.524 6.782-4.81 6.782-4.507 6.781-2.32 6.782-6.625 6.782-2.389 6.782-4.677 6.782-7.305 6.782-7.201 6.781-3.425 6.782.008 6.782-13.327 6.782-2.22 6.782-3.157 6.782-3.95 6.782-1.763 6.781-2.744 6.782-4.133 6.782-1.575 6.782-3.147 6.782-1.857 6.782-2.667 6.781-1.847" fill="none" stroke="#2ca02c" stroke-linecap="square" stroke-width="1.5"/><g stroke="#d62728"><path clip-path="url(#a)" d="M111.727 569.8l.064-332.555h13.564l6.782-3.386 6.781-7.134 6.782-3.387 6.782-2.767h20.346l6.782-1.215h6.781l6.782-1.125h6.782l6.782-2.027h6.782l6.782.98h27.127l6.782 20.061h13.564l6.781 10.521h20.346l6.782-6.154 6.782-21.041 6.781-13.908 6.782-.98 6.782-10.281 6.782-9.002 6.782-3.44 6.782-3.493 6.782-4.741 6.781-9.697 6.782-5.12 6.782-2.718 6.782-4.082 6.782-1.87 6.782-3.302 6.781-4.079 6.782-1.314 6.782-8.639 6.782-3.395 6.782-3.588 6.782-3.42 6.782-3.69 6.781-4.332 6.782-3.308 6.782-3.896 6.782-1.68 6.782-1.714 6.782-2.277 6.781-.578" fill="none" stroke-linecap="square" stroke-width="1.5"/><g clip-path="url(#a)" fill="#d62728"><use x="71.1" xlink:href="#E" y="35207.358"/><use x="77.882" xlink:href="#E" y="35207.358"/><use x="84.664" xlink:href="#E" y="35207.358"/><use x="91.446" xlink:href="#E" y="35207.358"/><use x="98.227" xlink:href="#E" y="35207.358"/><use x="105.009" xlink:href="#E" y="35207.358"/><use x="111.791" xlink:href="#E" y="237.245"/><use x="118.573" xlink:href="#E" y="237.245"/><use x="125.355" xlink:href="#E" y="237.245"/><use x="132.137" xlink:href="#E" y="233.859"/><use x="138.918" xlink:href="#E" y="226.725"/><use x="145.7" xlink:href="#E" y="223.338"/><use x="152.482" xlink:href="#E" y="220.571"/><use x="159.264" xlink:href="#E" y="220.571"/><use x="166.046" xlink:href="#E" y="220.571"/><use x="172.828" xlink:href="#E" y="220.571"/><use x="179.61" xlink:href="#E" y="219.356"/><use x="186.391" xlink:href="#E" y="219.356"/><use x="193.173" xlink:href="#E" y="218.231"/><use x="199.955" xlink:href="#E" y="218.231"/><use x="206.737" xlink:href="#E" y="216.204"/><use x="213.519" xlink:href="#E" y="216.204"/><use x="220.301" xlink:href="#E" y="217.184"/><use x="227.082" xlink:href="#E" y="217.184"/><use x="233.864" xlink:href="#E" y="217.184"/><use x="240.646" xlink:href="#E" y="217.184"/><use x="247.428" xlink:href="#E" y="217.184"/><use x="254.21" xlink:href="#E" y="237.245"/><use x="260.992" xlink:href="#E" y="237.245"/><use x="267.774" xlink:href="#E" y="237.245"/><use x="274.555" xlink:href="#E" y="247.766"/><use x="281.337" xlink:href="#E" y="247.766"/><use x="288.119" xlink:href="#E" y="247.766"/><use x="294.901" xlink:href="#E" y="247.766"/><use x="301.683" xlink:href="#E" y="241.612"/><use x="308.465" xlink:href="#E" y="220.571"/><use x="315.246" xlink:href="#E" y="206.663"/><use x="322.028" xlink:href="#E" y="205.683"/><use x="328.81" xlink:href="#E" y="195.402"/><use x="335.592" xlink:href="#E" y="186.4"/><use x="342.374" xlink:href="#E" y="182.96"/><use x="349.156" xlink:href="#E" y="179.467"/><use x="355.938" xlink:href="#E" y="174.726"/><use x="362.719" xlink:href="#E" y="165.029"/><use x="369.501" xlink:href="#E" y="159.908"/><use x="376.283" xlink:href="#E" y="157.191"/><use x="383.065" xlink:href="#E" y="153.109"/><use x="389.847" xlink:href="#E" y="151.239"/><use x="396.629" xlink:href="#E" y="147.937"/><use x="403.41" xlink:href="#E" y="143.858"/><use x="410.192" xlink:href="#E" y="142.544"/><use x="416.974" xlink:href="#E" y="133.905"/><use x="423.756" xlink:href="#E" y="130.51"/><use x="430.538" xlink:href="#E" y="126.922"/><use x="437.32" xlink:href="#E" y="123.502"/><use x="444.102" xlink:href="#E" y="119.812"/><use x="450.883" xlink:href="#E" y="115.48"/><use x="457.665" xlink:href="#E" y="112.172"/><use x="464.447" xlink:href="#E" y="108.276"/><use x="471.229" xlink:href="#E" y="106.595"/><use x="478.011" xlink:href="#E" y="104.882"/><use x="484.793" xlink:href="#E" y="102.605"/><use x="491.574" xlink:href="#E" y="102.027"/></g></g><g stroke="#9467bd"><path clip-path="url(#a)" d="M84.601 569.8l.063-322.034 6.782-6.154H105.009l6.782-4.367 6.782-3.386h13.564l6.781-2.768H179.61l6.781-9.2h20.346l6.782 3.046H227.082l6.782 3.815H294.901l6.782 19.014 6.782-13.907 6.781-24.429 6.782-8.58 6.782-10.172 6.782-4.542 6.782-6.328 6.782-1 6.782-5.439 6.781-4.38 6.782-8.585 6.782-5.797 6.782-2.545 6.782-1.109 6.782-5.912 6.781-3.733h6.782l6.782-7.209 6.782-3.068 6.782-.114 6.782-5.865 6.782-2.241 6.781-2.538 6.782-2.711 6.782-2.052 6.782-1.835 6.782.445 6.782-3.731 6.781-1.014" fill="none" stroke-linecap="square" stroke-width="1.5"/><g clip-path="url(#a)" fill="#9467bd"><use x="71.1" xlink:href="#F" y="35207.358"/><use x="77.882" xlink:href="#F" y="35207.358"/><use x="84.664" xlink:href="#F" y="247.766"/><use x="91.446" xlink:href="#F" y="241.612"/><use x="98.227" xlink:href="#F" y="241.612"/><use x="105.009" xlink:href="#F" y="241.612"/><use x="111.791" xlink:href="#F" y="237.245"/><use x="118.573" xlink:href="#F" y="233.859"/><use x="125.355" xlink:href="#F" y="233.859"/><use x="132.137" xlink:href="#F" y="233.859"/><use x="138.918" xlink:href="#F" y="231.091"/><use x="145.7" xlink:href="#F" y="231.091"/><use x="152.482" xlink:href="#F" y="231.091"/><use x="159.264" xlink:href="#F" y="231.091"/><use x="166.046" xlink:href="#F" y="231.091"/><use x="172.828" xlink:href="#F" y="231.091"/><use x="179.61" xlink:href="#F" y="231.091"/><use x="186.391" xlink:href="#F" y="221.891"/><use x="193.173" xlink:href="#F" y="221.891"/><use x="199.955" xlink:href="#F" y="221.891"/><use x="206.737" xlink:href="#F" y="221.891"/><use x="213.519" xlink:href="#F" y="224.937"/><use x="220.301" xlink:href="#F" y="224.937"/><use x="227.082" xlink:href="#F" y="224.937"/><use x="233.864" xlink:href="#F" y="228.752"/><use x="240.646" xlink:href="#F" y="228.752"/><use x="247.428" xlink:href="#F" y="228.752"/><use x="254.21" xlink:href="#F" y="228.752"/><use x="260.992" xlink:href="#F" y="228.752"/><use x="267.774" xlink:href="#F" y="228.752"/><use x="274.555" xlink:href="#F" y="228.752"/><use x="281.337" xlink:href="#F" y="228.752"/><use x="288.119" xlink:href="#F" y="228.752"/><use x="294.901" xlink:href="#F" y="228.752"/><use x="301.683" xlink:href="#F" y="247.766"/><use x="308.465" xlink:href="#F" y="233.859"/><use x="315.246" xlink:href="#F" y="209.43"/><use x="322.028" xlink:href="#F" y="200.85"/><use x="328.81" xlink:href="#F" y="190.678"/><use x="335.592" xlink:href="#F" y="186.136"/><use x="342.374" xlink:href="#F" y="179.808"/><use x="349.156" xlink:href="#F" y="178.807"/><use x="355.938" xlink:href="#F" y="173.369"/><use x="362.719" xlink:href="#F" y="168.989"/><use x="369.501" xlink:href="#F" y="160.404"/><use x="376.283" xlink:href="#F" y="154.607"/><use x="383.065" xlink:href="#F" y="152.062"/><use x="389.847" xlink:href="#F" y="150.953"/><use x="396.629" xlink:href="#F" y="145.041"/><use x="403.41" xlink:href="#F" y="141.308"/><use x="410.192" xlink:href="#F" y="141.308"/><use x="416.974" xlink:href="#F" y="134.099"/><use x="423.756" xlink:href="#F" y="131.031"/><use x="430.538" xlink:href="#F" y="130.917"/><use x="437.32" xlink:href="#F" y="125.052"/><use x="444.102" xlink:href="#F" y="122.811"/><use x="450.883" xlink:href="#F" y="120.273"/><use x="457.665" xlink:href="#F" y="117.562"/><use x="464.447" xlink:href="#F" y="115.51"/><use x="471.229" xlink:href="#F" y="113.675"/><use x="478.011" xlink:href="#F" y="114.12"/><use x="484.793" xlink:href="#F" y="110.389"/><use x="491.574" xlink:href="#F" y="109.375"/></g></g><path clip-path="url(#a)" d="M491.574 92.271l6.782-1.585 6.782-1.584 6.782-1.585" fill="none" stroke="#1f77b4" stroke-dasharray="1.5 2.475" stroke-width="1.5"/><path clip-path="url(#a)" d="M491.574 91.522l6.782-4.74 6.782-4.738 6.782-4.739" fill="none" stroke="#ff7f0e" stroke-dasharray="1.5 2.475" stroke-width="1.5"/><path clip-path="url(#a)" d="M491.574 99.766l6.782-2.47 6.782-2.47 6.782-2.471" fill="none" stroke="#2ca02c" stroke-dasharray="1.5 2.475" stroke-width="1.5"/><path clip-path="url(#a)" d="M491.574 100.696l6.782-2.246 6.782-2.246 6.782-2.246" fill="none" stroke="#d62728" stroke-dasharray="1.5 2.475" stroke-width="1.5"/><path clip-path="url(#a)" d="M491.574 109.226l6.782-1.73 6.782-1.73 6.782-1.73" fill="none" stroke="#9467bd" stroke-dasharray="1.5 2.475" stroke-width="1.5"/><path d="M71.1 267.336V68.256M511.92 267.336V68.256M71.1 267.336h440.82M71.1 68.256h440.82" fill="none" stroke="#000" stroke-linecap="square" stroke-linejoin="miter" stroke-width=".8"/><g transform="matrix(.12 0 0 -.12 169.73 62.256)"><path d="M34.188 63.188L20.797 26.906h26.812zm-5.579 9.718h11.188L67.578 0h-10.25l-6.64 18.703h-32.86L11.188 0H.78z"/><use x="68.393" xlink:href="#G"/><use x="123.373" xlink:href="#s"/><use x="162.582" xlink:href="#B"/><path d="M193.35 54.688h9.515L219.96 8.797l17.094 45.89h9.515L226.053 0H213.85z"/><use x="249.545" xlink:href="#d"/><use x="342.855" xlink:href="#H"/><path d="M452.086 66.219q-10.75 0-17.078-8.016-6.313-8-6.313-21.828 0-13.766 6.313-21.781 6.328-8 17.078-8 10.734 0 17.016 8 6.28 8.015 6.28 21.781 0 13.828-6.28 21.828-6.282 8.016-17.016 8.016zm0 8q15.328 0 24.5-10.281 9.187-10.282 9.187-27.563 0-17.234-9.187-27.516-9.172-10.28-24.5-10.28-15.375 0-24.594 10.25-9.203 10.265-9.203 27.546t9.203 27.563q9.219 10.28 24.594 10.28zM519.984 0l-27.828 72.906h10.297l23.11-61.375 23.14 61.375h10.25L531.172 0z"/><use x="559.783" xlink:href="#I"/><use x="589.275" xlink:href="#r"/><use x="666.277" xlink:href="#J"/><use x="702.361" xlink:href="#n"/><use x="765.984" xlink:href="#p"/><use x="861.395" xlink:href="#G"/><use x="916.375" xlink:href="#i"/><use x="977.654" xlink:href="#K"/><use x="1029.754" xlink:href="#d"/><use x="1091.277" xlink:href="#K"/><use x="1175.164" xlink:href="#i"/><use x="1236.443" xlink:href="#K"/><use x="1320.33" xlink:href="#x"/><use x="1381.512" xlink:href="#L"/><use x="1448.504" xlink:href="#f"/><use x="1512.127" xlink:href="#g"/><use x="1575.75" xlink:href="#f"/><use x="1639.373" xlink:href="#g"/><use x="1702.996" xlink:href="#J"/><use x="1739.08" xlink:href="#g"/><use x="1802.703" xlink:href="#m"/><use x="1866.326" xlink:href="#J"/><use x="1902.41" xlink:href="#f"/><use x="1966.033" xlink:href="#o"/></g><g><path d="M78.1 149.647h186.569q2 0 2-2V75.256q0-2-2-2H78.1q-2 0-2 2v72.39q0 2 2 2z" fill="#fff" opacity=".8" stroke="#ccc" stroke-linejoin="miter"/><path d="M80.1 81.354h20" fill="none" stroke="#1f77b4" stroke-linecap="square" stroke-width="1.5"/><use fill="#1f77b4" stroke="#1f77b4" x="90.1" xlink:href="#C" y="81.354"/><g transform="matrix(.1 0 0 -.1 108.1 84.854)"><use xlink:href="#I"/><use x="29.492" xlink:href="#s"/><use x="68.701" xlink:href="#i"/><use x="129.98" xlink:href="#y"/><use x="157.764" xlink:href="#M"/><use x="248.73" xlink:href="#N"/><use x="287.744" xlink:href="#z"/><use x="351.221" xlink:href="#x"/><use x="412.402" xlink:href="#O"/><use x="475.781" xlink:href="#e"/><use x="539.258" xlink:href="#y"/><use x="567.041" xlink:href="#d"/><use x="628.564" xlink:href="#K"/><use x="712.451" xlink:href="#B"/><use x="740.234" xlink:href="#P"/><use x="835.4" xlink:href="#q"/><use x="899.023" xlink:href="#Q"/><use x="930.811" xlink:href="#q"/><use x="1026.221" xlink:href="#z"/><use x="1089.697" xlink:href="#i"/><use x="1150.977" xlink:href="#M"/><use x="1210.156" xlink:href="#K"/><use x="1262.256" xlink:href="#R"/></g><path d="M80.1 96.033h20" fill="none" stroke="#ff7f0e" stroke-linecap="square" stroke-width="1.5"/><use fill="#ff7f0e" stroke="#ff7f0e" x="90.1" xlink:href="#D" y="96.033"/><g transform="matrix(.1 0 0 -.1 108.1 99.533)"><use xlink:href="#S"/><use x="73.193" xlink:href="#T"/><use x="168.457" xlink:href="#N"/><use x="207.471" xlink:href="#z"/><use x="270.947" xlink:href="#x"/><use x="332.129" xlink:href="#O"/><use x="395.508" xlink:href="#e"/><use x="458.984" xlink:href="#y"/><use x="486.768" xlink:href="#d"/><use x="548.291" xlink:href="#K"/><use x="632.178" xlink:href="#B"/><use x="659.961" xlink:href="#P"/><use x="755.127" xlink:href="#f"/><use x="818.75" xlink:href="#Q"/><use x="850.537" xlink:href="#f"/><use x="945.947" xlink:href="#z"/><use x="1009.424" xlink:href="#i"/><use x="1070.703" xlink:href="#M"/><use x="1129.883" xlink:href="#K"/><use x="1181.982" xlink:href="#R"/></g><path d="M80.1 110.71h20" fill="none" stroke="#2ca02c" stroke-linecap="square" stroke-width="1.5"/><g transform="matrix(.1 0 0 -.1 108.1 114.21)"><use xlink:href="#T"/><path d="M81.586 8.203v-29h-9.031v75.484h9.03v-8.296q2.845 4.875 7.157 7.234Q93.07 56 99.07 56q9.97 0 16.188-7.906 6.234-7.907 6.234-20.797t-6.234-20.813q-6.219-7.906-16.188-7.906-6 0-10.328 2.375-4.312 2.375-7.156 7.25zm30.578 19.094q0 9.906-4.078 15.547-4.078 5.64-11.203 5.64-7.14 0-11.219-5.64-4.078-5.64-4.078-15.547 0-9.906 4.078-15.547 4.078-5.64 11.219-5.64 7.125 0 11.203 5.64 4.078 5.64 4.078 15.547z"/><use x="126.953" xlink:href="#i"/><use x="188.232" xlink:href="#B"/><use x="216.016" xlink:href="#P"/><use x="311.182" xlink:href="#N"/><use x="350.195" xlink:href="#z"/><use x="413.672" xlink:href="#x"/><use x="474.854" xlink:href="#O"/><use x="538.232" xlink:href="#e"/><use x="601.709" xlink:href="#y"/><use x="629.492" xlink:href="#d"/><use x="691.016" xlink:href="#K"/><use x="774.902" xlink:href="#B"/><use x="802.686" xlink:href="#P"/><use x="897.852" xlink:href="#o"/><use x="961.475" xlink:href="#Q"/><use x="993.262" xlink:href="#m"/><use x="1088.672" xlink:href="#z"/><use x="1152.148" xlink:href="#i"/><use x="1213.428" xlink:href="#M"/><use x="1272.607" xlink:href="#K"/><use x="1324.707" xlink:href="#R"/></g><path d="M80.1 125.389h20" fill="none" stroke="#d62728" stroke-linecap="square" stroke-width="1.5"/><use fill="#d62728" stroke="#d62728" x="90.1" xlink:href="#E" y="125.389"/><g transform="matrix(.1 0 0 -.1 108.1 128.889)"><path d="M59.516 10.406v19.578h-16.11v8.11h25.875V6.78Q63.578 2.734 56.687.656 49.813-1.422 42-1.422q-17.094 0-26.75 9.985-9.64 10-9.64 27.812 0 17.875 9.64 27.86 9.656 9.984 26.75 9.984 7.125 0 13.547-1.766 6.422-1.75 11.844-5.172v-10.5q-5.47 4.64-11.625 6.985-6.157 2.343-12.938 2.343-13.39 0-20.11-7.468-6.702-7.47-6.702-22.266 0-14.75 6.703-22.219 6.718-7.469 20.11-7.469 5.218 0 9.312.907 4.109.906 7.375 2.812z"/><use x="77.49" xlink:href="#d"/><use x="139.014" xlink:href="#j"/><path d="M232.111 44.188q3.375 6.062 8.063 8.937Q244.86 56 251.205 56q8.547 0 13.188-5.984 4.64-5.97 4.64-17V0h-9.031v32.719q0 7.86-2.797 11.656-2.781 3.813-8.484 3.813-6.985 0-11.047-4.641-4.047-4.625-4.047-12.64V0h-9.031v32.719q0 7.906-2.782 11.687-2.78 3.782-8.593 3.782-6.89 0-10.953-4.657-4.047-4.656-4.047-12.625V0h-9.032v54.688h9.032v-8.5q3.078 5.03 7.375 7.421Q209.893 56 215.799 56q5.969 0 10.14-3.031 4.172-3.016 6.172-8.782z"/><use x="277.523" xlink:href="#i"/><use x="338.803" xlink:href="#P"/><use x="402.182" xlink:href="#M"/><use x="493.148" xlink:href="#N"/><use x="532.162" xlink:href="#z"/><use x="595.639" xlink:href="#x"/><use x="656.82" xlink:href="#O"/><use x="720.199" xlink:href="#e"/><use x="783.676" xlink:href="#y"/><use x="811.459" xlink:href="#d"/><use x="872.982" xlink:href="#K"/><use x="956.869" xlink:href="#B"/><use x="984.652" xlink:href="#P"/><use x="1079.818" xlink:href="#o"/><use x="1143.441" xlink:href="#Q"/><use x="1175.229" xlink:href="#l"/><use x="1270.639" xlink:href="#z"/><use x="1334.115" xlink:href="#i"/><use x="1395.395" xlink:href="#M"/><use x="1454.574" xlink:href="#K"/><use x="1506.674" xlink:href="#R"/></g><path d="M80.1 140.067h20" fill="none" stroke="#9467bd" stroke-linecap="square" stroke-width="1.5"/><use fill="#9467bd" stroke="#9467bd" x="90.1" xlink:href="#F" y="140.067"/><g transform="matrix(.1 0 0 -.1 108.1 143.567)"><use xlink:href="#c"/><use x="57.41" xlink:href="#j"/><use x="98.523" xlink:href="#i"/><use x="159.803" xlink:href="#P"/><use x="223.182" xlink:href="#G"/><use x="278.162" xlink:href="#d"/><use x="371.473" xlink:href="#N"/><use x="410.486" xlink:href="#z"/><use x="473.963" xlink:href="#x"/><use x="535.145" xlink:href="#O"/><use x="598.523" xlink:href="#e"/><use x="662" xlink:href="#y"/><use x="689.783" xlink:href="#d"/><use x="751.307" xlink:href="#K"/><use x="835.193" xlink:href="#B"/><use x="862.977" xlink:href="#P"/><use x="958.143" xlink:href="#q"/><use x="1021.766" xlink:href="#Q"/><use x="1053.553" xlink:href="#n"/><use x="1148.963" xlink:href="#z"/><use x="1212.439" xlink:href="#i"/><use x="1273.719" xlink:href="#M"/><use x="1332.898" xlink:href="#K"/><use x="1384.998" xlink:href="#R"/></g></g><g><path d="M71.1 506.232h440.82v-199.08H71.1z" fill="#fff"/><g stroke-width=".8"><path clip-path="url(#U)" d="M71.1 506.232v-199.08" fill="none" stroke="#b0b0b0" stroke-linecap="square"/><use stroke="#000" x="71.1" xlink:href="#b" y="506.232"/></g><path clip-path="url(#U)" d="M138.918 506.232v-199.08" fill="none" stroke="#b0b0b0" stroke-linecap="square" stroke-width=".8"/><use stroke="#000" stroke-width=".8" x="138.918" xlink:href="#b" y="506.232"/><g transform="matrix(.1 0 0 -.1 129.796 543.226)"><use xlink:href="#c"/><use x="57.441" xlink:href="#d"/><use x="118.965" xlink:href="#e"/></g><g transform="matrix(.1 0 0 -.1 126.193 554.424)"><use xlink:href="#f"/><use x="63.623" xlink:href="#g"/><use x="127.246" xlink:href="#f"/><use x="190.869" xlink:href="#g"/></g><path clip-path="url(#U)" d="M335.592 506.232v-199.08" fill="none" stroke="#b0b0b0" stroke-linecap="square" stroke-width=".8"/><use stroke="#000" stroke-width=".8" x="335.592" xlink:href="#b" y="506.232"/><g transform="matrix(.1 0 0 -.1 326.158 543.226)"><use xlink:href="#h"/><use x="86.279" xlink:href="#i"/><use x="147.559" xlink:href="#j"/></g><g stroke-width=".8"><path clip-path="url(#U)" d="M511.92 506.232v-199.08" fill="none" stroke="#b0b0b0" stroke-linecap="square"/><use stroke="#000" x="511.92" xlink:href="#b" y="506.232"/></g><use stroke="#000" stroke-width=".6" x="71.1" xlink:href="#k" y="506.232"/><use stroke="#000" stroke-width=".6" x="77.882" xlink:href="#k" y="506.232"/><use stroke="#000" stroke-width=".6" x="84.664" xlink:href="#k" y="506.232"/><use stroke="#000" stroke-width=".6" x="91.446" xlink:href="#k" y="506.232"/><use stroke="#000" stroke-width=".6" x="98.227" xlink:href="#k" y="506.232"/><use stroke="#000" stroke-width=".6" x="105.009" xlink:href="#k" y="506.232"/><g transform="matrix(.1 0 0 -.1 98.647 519.23)"><use xlink:href="#f"/><use x="63.623" xlink:href="#l"/></g><g stroke="#000" stroke-width=".6"><use x="111.791" xlink:href="#k" y="506.232"/><use x="118.573" xlink:href="#k" y="506.232"/><use x="125.355" xlink:href="#k" y="506.232"/><use x="132.137" xlink:href="#k" y="506.232"/><use x="138.918" xlink:href="#k" y="506.232"/><use x="145.7" xlink:href="#k" y="506.232"/></g><use stroke="#000" stroke-width=".6" x="152.482" xlink:href="#k" y="506.232"/><g transform="matrix(.1 0 0 -.1 146.12 519.23)"><use xlink:href="#g"/><use x="63.623" xlink:href="#m"/></g><use stroke="#000" stroke-width=".6" x="159.264" xlink:href="#k" y="506.232"/><use stroke="#000" stroke-width=".6" x="166.046" xlink:href="#k" y="506.232"/><use stroke="#000" stroke-width=".6" x="172.828" xlink:href="#k" y="506.232"/><use stroke="#000" stroke-width=".6" x="179.61" xlink:href="#k" y="506.232"/><use stroke="#000" stroke-width=".6" x="186.391" xlink:href="#k" y="506.232"/><use stroke="#000" stroke-width=".6" x="193.173" xlink:href="#k" y="506.232"/><use stroke="#000" stroke-width=".6" x="199.955" xlink:href="#k" y="506.232"/><g transform="matrix(.1 0 0 -.1 193.593 519.23)"><use xlink:href="#n"/><use x="63.623" xlink:href="#g"/></g><use stroke="#000" stroke-width=".6" x="206.737" xlink:href="#k" y="506.232"/><use stroke="#000" stroke-width=".6" x="213.519" xlink:href="#k" y="506.232"/><use stroke="#000" stroke-width=".6" x="220.301" xlink:href="#k" y="506.232"/><use stroke="#000" stroke-width=".6" x="227.082" xlink:href="#k" y="506.232"/><use stroke="#000" stroke-width=".6" x="233.864" xlink:href="#k" y="506.232"/><use stroke="#000" stroke-width=".6" x="240.646" xlink:href="#k" y="506.232"/><use stroke="#000" stroke-width=".6" x="247.428" xlink:href="#k" y="506.232"/><g transform="matrix(.1 0 0 -.1 241.065 519.23)"><use xlink:href="#n"/><use x="63.623" xlink:href="#l"/></g><use stroke="#000" stroke-width=".6" x="254.21" xlink:href="#k" y="506.232"/><use stroke="#000" stroke-width=".6" x="260.992" xlink:href="#k" y="506.232"/><use stroke="#000" stroke-width=".6" x="267.774" xlink:href="#k" y="506.232"/><use stroke="#000" stroke-width=".6" x="274.555" xlink:href="#k" y="506.232"/><use stroke="#000" stroke-width=".6" x="281.337" xlink:href="#k" y="506.232"/><use stroke="#000" stroke-width=".6" x="288.119" xlink:href="#k" y="506.232"/><use stroke="#000" stroke-width=".6" x="294.901" xlink:href="#k" y="506.232"/><g transform="matrix(.1 0 0 -.1 288.538 519.23)"><use xlink:href="#f"/><use x="63.623" xlink:href="#o"/></g><use stroke="#000" stroke-width=".6" x="301.683" xlink:href="#k" y="506.232"/><use stroke="#000" stroke-width=".6" x="308.465" xlink:href="#k" y="506.232"/><use stroke="#000" stroke-width=".6" x="315.246" xlink:href="#k" y="506.232"/><use stroke="#000" stroke-width=".6" x="322.028" xlink:href="#k" y="506.232"/><use stroke="#000" stroke-width=".6" x="328.81" xlink:href="#k" y="506.232"/><use stroke="#000" stroke-width=".6" x="335.592" xlink:href="#k" y="506.232"/><use stroke="#000" stroke-width=".6" x="342.374" xlink:href="#k" y="506.232"/><g transform="matrix(.1 0 0 -.1 336.011 519.23)"><use xlink:href="#g"/><use x="63.623" xlink:href="#f"/></g><use stroke="#000" stroke-width=".6" x="349.156" xlink:href="#k" y="506.232"/><use stroke="#000" stroke-width=".6" x="355.938" xlink:href="#k" y="506.232"/><use stroke="#000" stroke-width=".6" x="362.719" xlink:href="#k" y="506.232"/><use stroke="#000" stroke-width=".6" x="369.501" xlink:href="#k" y="506.232"/><use stroke="#000" stroke-width=".6" x="376.283" xlink:href="#k" y="506.232"/><use stroke="#000" stroke-width=".6" x="383.065" xlink:href="#k" y="506.232"/><use stroke="#000" stroke-width=".6" x="389.847" xlink:href="#k" y="506.232"/><g transform="matrix(.1 0 0 -.1 383.484 519.23)"><use xlink:href="#g"/><use x="63.623" xlink:href="#p"/></g><use stroke="#000" stroke-width=".6" x="396.629" xlink:href="#k" y="506.232"/><use stroke="#000" stroke-width=".6" x="403.41" xlink:href="#k" y="506.232"/><use stroke="#000" stroke-width=".6" x="410.192" xlink:href="#k" y="506.232"/><use stroke="#000" stroke-width=".6" x="416.974" xlink:href="#k" y="506.232"/><use stroke="#000" stroke-width=".6" x="423.756" xlink:href="#k" y="506.232"/><use stroke="#000" stroke-width=".6" x="430.538" xlink:href="#k" y="506.232"/><use stroke="#000" stroke-width=".6" x="437.32" xlink:href="#k" y="506.232"/><g transform="matrix(.1 0 0 -.1 430.957 519.23)"><use xlink:href="#n"/><use x="63.623" xlink:href="#q"/></g><use stroke="#000" stroke-width=".6" x="444.102" xlink:href="#k" y="506.232"/><use stroke="#000" stroke-width=".6" x="450.883" xlink:href="#k" y="506.232"/><use stroke="#000" stroke-width=".6" x="457.665" xlink:href="#k" y="506.232"/><use stroke="#000" stroke-width=".6" x="464.447" xlink:href="#k" y="506.232"/><use stroke="#000" stroke-width=".6" x="471.229" xlink:href="#k" y="506.232"/><use stroke="#000" stroke-width=".6" x="478.011" xlink:href="#k" y="506.232"/><g><use stroke="#000" stroke-width=".6" x="484.793" xlink:href="#k" y="506.232"/><g transform="matrix(.1 0 0 -.1 478.43 519.23)"><use xlink:href="#f"/><use x="63.623" xlink:href="#m"/></g></g><use stroke="#000" stroke-width=".6" x="491.574" xlink:href="#k" y="506.232"/><use stroke="#000" stroke-width=".6" x="498.356" xlink:href="#k" y="506.232"/><use stroke="#000" stroke-width=".6" x="505.138" xlink:href="#k" y="506.232"/><use stroke="#000" stroke-width=".6" x="511.92" xlink:href="#k" y="506.232"/><g transform="matrix(.1 0 0 -.1 279.56 568.102)"><use xlink:href="#r"/><use x="77.002" xlink:href="#i"/><use x="138.281" xlink:href="#s"/><use x="177.49" xlink:href="#d"/></g><g><path clip-path="url(#U)" d="M71.1 497.183h440.82" fill="none" stroke="#b0b0b0" stroke-linecap="square" stroke-width=".8"/><use stroke="#000" stroke-width=".8" x="71.1" xlink:href="#t" y="497.183"/><g transform="matrix(.1 0 0 -.1 46.5 500.982)"><use transform="translate(0 .766)" xlink:href="#n"/><use transform="translate(63.623 .766)" xlink:href="#g"/><use transform="matrix(.7 0 0 .7 128.203 39.047)" xlink:href="#g"/></g><path clip-path="url(#U)" d="M71.1 460.739h440.82" fill="none" stroke="#b0b0b0" stroke-linecap="square" stroke-width=".8"/><use stroke="#000" stroke-width=".8" x="71.1" xlink:href="#t" y="460.739"/><g transform="matrix(.1 0 0 -.1 46.5 464.538)"><use transform="translate(0 .684)" xlink:href="#n"/><use transform="translate(63.623 .684)" xlink:href="#g"/><use transform="matrix(.7 0 0 .7 128.203 38.966)" xlink:href="#n"/></g><path clip-path="url(#U)" d="M71.1 424.294h440.82" fill="none" stroke="#b0b0b0" stroke-linecap="square" stroke-width=".8"/><use stroke="#000" stroke-width=".8" x="71.1" xlink:href="#t" y="424.294"/><g transform="matrix(.1 0 0 -.1 46.5 428.094)"><use transform="translate(0 .766)" xlink:href="#n"/><use transform="translate(63.623 .766)" xlink:href="#g"/><use transform="matrix(.7 0 0 .7 128.203 39.047)" xlink:href="#f"/></g><g><path clip-path="url(#U)" d="M71.1 387.85h440.82" fill="none" stroke="#b0b0b0" stroke-linecap="square" stroke-width=".8"/><use stroke="#000" stroke-width=".8" x="71.1" xlink:href="#t" y="387.85"/><g transform="matrix(.1 0 0 -.1 46.5 391.65)"><use transform="translate(0 .766)" xlink:href="#n"/><use transform="translate(63.623 .766)" xlink:href="#g"/><use transform="matrix(.7 0 0 .7 128.203 39.047)" xlink:href="#m"/></g></g><g><path clip-path="url(#U)" d="M71.1 351.406h440.82" fill="none" stroke="#b0b0b0" stroke-linecap="square" stroke-width=".8"/><use stroke="#000" stroke-width=".8" x="71.1" xlink:href="#t" y="351.406"/><g transform="matrix(.1 0 0 -.1 46.5 355.205)"><use transform="translate(0 .684)" xlink:href="#n"/><use transform="translate(63.623 .684)" xlink:href="#g"/><use transform="matrix(.7 0 0 .7 128.203 38.966)" xlink:href="#o"/></g></g><g><path clip-path="url(#U)" d="M71.1 314.962h440.82" fill="none" stroke="#b0b0b0" stroke-linecap="square" stroke-width=".8"/><use stroke="#000" stroke-width=".8" x="71.1" xlink:href="#t" y="314.962"/><g transform="matrix(.1 0 0 -.1 46.5 318.76)"><use transform="translate(0 .684)" xlink:href="#n"/><use transform="translate(63.623 .684)" xlink:href="#g"/><use transform="matrix(.7 0 0 .7 128.203 38.966)" xlink:href="#u"/></g></g><g stroke="#000" stroke-width=".6"><use x="71.1" xlink:href="#v" y="505.268"/><use x="71.1" xlink:href="#v" y="502.828"/><use x="71.1" xlink:href="#v" y="500.715"/><use x="71.1" xlink:href="#v" y="498.851"/><use x="71.1" xlink:href="#v" y="486.212"/><use x="71.1" xlink:href="#v" y="479.795"/><use x="71.1" xlink:href="#v" y="475.241"/><use x="71.1" xlink:href="#v" y="471.709"/><use x="71.1" xlink:href="#v" y="468.824"/><use x="71.1" xlink:href="#v" y="466.384"/><use x="71.1" xlink:href="#v" y="464.27"/><use x="71.1" xlink:href="#v" y="462.406"/><use x="71.1" xlink:href="#v" y="449.768"/><use x="71.1" xlink:href="#v" y="443.35"/><use x="71.1" xlink:href="#v" y="438.797"/><use x="71.1" xlink:href="#v" y="435.265"/><use x="71.1" xlink:href="#v" y="432.38"/><use x="71.1" xlink:href="#v" y="429.94"/><use x="71.1" xlink:href="#v" y="427.826"/><use x="71.1" xlink:href="#v" y="425.962"/><use x="71.1" xlink:href="#v" y="413.324"/><use x="71.1" xlink:href="#v" y="406.906"/><use x="71.1" xlink:href="#v" y="402.353"/><use x="71.1" xlink:href="#v" y="398.821"/><use x="71.1" xlink:href="#v" y="395.935"/><use x="71.1" xlink:href="#v" y="393.495"/><use x="71.1" xlink:href="#v" y="391.382"/><use x="71.1" xlink:href="#v" y="389.518"/><use x="71.1" xlink:href="#v" y="376.879"/><use x="71.1" xlink:href="#v" y="370.462"/><use x="71.1" xlink:href="#v" y="365.909"/><use x="71.1" xlink:href="#v" y="362.377"/><use x="71.1" xlink:href="#v" y="359.491"/><use x="71.1" xlink:href="#v" y="357.051"/><use x="71.1" xlink:href="#v" y="354.938"/><use x="71.1" xlink:href="#v" y="353.073"/><use x="71.1" xlink:href="#v" y="340.435"/><use x="71.1" xlink:href="#v" y="334.018"/><use x="71.1" xlink:href="#v" y="329.464"/><use x="71.1" xlink:href="#v" y="325.932"/><use x="71.1" xlink:href="#v" y="323.047"/><use x="71.1" xlink:href="#v" y="320.607"/><use x="71.1" xlink:href="#v" y="318.493"/><use x="71.1" xlink:href="#v" y="316.629"/></g><g transform="matrix(0 -.1 -.1 0 40.42 413.526)"><use xlink:href="#S"/><use x="73.193" xlink:href="#T"/></g></g><g stroke="#1f77b4"><path clip-path="url(#U)" d="M342.36 569.8l.014-72.617 6.782-10.97 6.782-26.983 6.781-11.674 6.782-7.091 6.782-11.827 6.782-5.266 6.782-4.628 6.782-3.125 6.781-3.804 6.782-6.321 6.782-3.951 6.782-3.434 6.782-5.256 6.782-4.307 6.782-9.03 6.781-6.035 6.782-12.119 6.782-6.946 6.782-5.427 6.782-4.705 6.782-4.413 6.781-3.263" fill="none" stroke-linecap="square" stroke-width="1.5"/><g clip-path="url(#U)" fill="#1f77b4"><use x="71.1" xlink:href="#C" y="36941.442"/><use x="77.882" xlink:href="#C" y="36941.442"/><use x="84.664" xlink:href="#C" y="36941.442"/><use x="91.446" xlink:href="#C" y="36941.442"/><use x="98.227" xlink:href="#C" y="36941.442"/><use x="105.009" xlink:href="#C" y="36941.442"/><use x="111.791" xlink:href="#C" y="36941.442"/><use x="118.573" xlink:href="#C" y="36941.442"/><use x="125.355" xlink:href="#C" y="36941.442"/><use x="132.137" xlink:href="#C" y="36941.442"/><use x="138.918" xlink:href="#C" y="36941.442"/><use x="145.7" xlink:href="#C" y="36941.442"/><use x="152.482" xlink:href="#C" y="36941.442"/><use x="159.264" xlink:href="#C" y="36941.442"/><use x="166.046" xlink:href="#C" y="36941.442"/><use x="172.828" xlink:href="#C" y="36941.442"/><use x="179.61" xlink:href="#C" y="36941.442"/><use x="186.391" xlink:href="#C" y="36941.442"/><use x="193.173" xlink:href="#C" y="36941.442"/><use x="199.955" xlink:href="#C" y="36941.442"/><use x="206.737" xlink:href="#C" y="36941.442"/><use x="213.519" xlink:href="#C" y="36941.442"/><use x="220.301" xlink:href="#C" y="36941.442"/><use x="227.082" xlink:href="#C" y="36941.442"/><use x="233.864" xlink:href="#C" y="36941.442"/><use x="240.646" xlink:href="#C" y="36941.442"/><use x="247.428" xlink:href="#C" y="36941.442"/><use x="254.21" xlink:href="#C" y="36941.442"/><use x="260.992" xlink:href="#C" y="36941.442"/><use x="267.774" xlink:href="#C" y="36941.442"/><use x="274.555" xlink:href="#C" y="36941.442"/><use x="281.337" xlink:href="#C" y="36941.442"/><use x="288.119" xlink:href="#C" y="36941.442"/><use x="294.901" xlink:href="#C" y="36941.442"/><use x="301.683" xlink:href="#C" y="36941.442"/><use x="308.465" xlink:href="#C" y="36941.442"/><use x="315.246" xlink:href="#C" y="36941.442"/><use x="322.028" xlink:href="#C" y="36941.442"/><use x="328.81" xlink:href="#C" y="36941.442"/><use x="335.592" xlink:href="#C" y="36941.442"/><use x="342.374" xlink:href="#C" y="497.183"/><use x="349.156" xlink:href="#C" y="486.212"/><use x="355.938" xlink:href="#C" y="459.23"/><use x="362.719" xlink:href="#C" y="447.556"/><use x="369.501" xlink:href="#C" y="440.465"/><use x="376.283" xlink:href="#C" y="428.638"/><use x="383.065" xlink:href="#C" y="423.372"/><use x="389.847" xlink:href="#C" y="418.744"/><use x="396.629" xlink:href="#C" y="415.619"/><use x="403.41" xlink:href="#C" y="411.815"/><use x="410.192" xlink:href="#C" y="405.494"/><use x="416.974" xlink:href="#C" y="401.543"/><use x="423.756" xlink:href="#C" y="398.109"/><use x="430.538" xlink:href="#C" y="392.853"/><use x="437.32" xlink:href="#C" y="388.546"/><use x="444.102" xlink:href="#C" y="379.517"/><use x="450.883" xlink:href="#C" y="373.481"/><use x="457.665" xlink:href="#C" y="361.362"/><use x="464.447" xlink:href="#C" y="354.416"/><use x="471.229" xlink:href="#C" y="348.989"/><use x="478.011" xlink:href="#C" y="344.284"/><use x="484.793" xlink:href="#C" y="339.871"/><use x="491.574" xlink:href="#C" y="336.608"/></g></g><g stroke="#ff7f0e"><path clip-path="url(#U)" d="M362.704 569.8l.015-83.588h6.782l6.782-10.97 6.782-3.533h6.782l6.782-16.296 6.781-7.154 6.782-3.817h6.782l6.782-14.044 6.782-5.457 6.782-9.504 6.782-6.448 6.781-.06 6.782-16.163 6.782-2.875 6.782-6.327 6.782-5.823 6.782-6.283 6.781-4.018" fill="none" stroke-linecap="square" stroke-width="1.5"/><g clip-path="url(#U)" fill="#ff7f0e"><use x="71.1" xlink:href="#D" y="36941.442"/><use x="77.882" xlink:href="#D" y="36941.442"/><use x="84.664" xlink:href="#D" y="36941.442"/><use x="91.446" xlink:href="#D" y="36941.442"/><use x="98.227" xlink:href="#D" y="36941.442"/><use x="105.009" xlink:href="#D" y="36941.442"/><use x="111.791" xlink:href="#D" y="36941.442"/><use x="118.573" xlink:href="#D" y="36941.442"/><use x="125.355" xlink:href="#D" y="36941.442"/><use x="132.137" xlink:href="#D" y="36941.442"/><use x="138.918" xlink:href="#D" y="36941.442"/><use x="145.7" xlink:href="#D" y="36941.442"/><use x="152.482" xlink:href="#D" y="36941.442"/><use x="159.264" xlink:href="#D" y="36941.442"/><use x="166.046" xlink:href="#D" y="36941.442"/><use x="172.828" xlink:href="#D" y="36941.442"/><use x="179.61" xlink:href="#D" y="36941.442"/><use x="186.391" xlink:href="#D" y="36941.442"/><use x="193.173" xlink:href="#D" y="36941.442"/><use x="199.955" xlink:href="#D" y="36941.442"/><use x="206.737" xlink:href="#D" y="36941.442"/><use x="213.519" xlink:href="#D" y="36941.442"/><use x="220.301" xlink:href="#D" y="36941.442"/><use x="227.082" xlink:href="#D" y="36941.442"/><use x="233.864" xlink:href="#D" y="36941.442"/><use x="240.646" xlink:href="#D" y="36941.442"/><use x="247.428" xlink:href="#D" y="36941.442"/><use x="254.21" xlink:href="#D" y="36941.442"/><use x="260.992" xlink:href="#D" y="36941.442"/><use x="267.774" xlink:href="#D" y="36941.442"/><use x="274.555" xlink:href="#D" y="36941.442"/><use x="281.337" xlink:href="#D" y="36941.442"/><use x="288.119" xlink:href="#D" y="36941.442"/><use x="294.901" xlink:href="#D" y="36941.442"/><use x="301.683" xlink:href="#D" y="36941.442"/><use x="308.465" xlink:href="#D" y="36941.442"/><use x="315.246" xlink:href="#D" y="36941.442"/><use x="322.028" xlink:href="#D" y="36941.442"/><use x="328.81" xlink:href="#D" y="36941.442"/><use x="335.592" xlink:href="#D" y="36941.442"/><use x="342.374" xlink:href="#D" y="36941.442"/><use x="349.156" xlink:href="#D" y="36941.442"/><use x="355.938" xlink:href="#D" y="36941.442"/><use x="362.719" xlink:href="#D" y="486.212"/><use x="369.501" xlink:href="#D" y="486.212"/><use x="376.283" xlink:href="#D" y="475.241"/><use x="383.065" xlink:href="#D" y="471.709"/><use x="389.847" xlink:href="#D" y="471.709"/><use x="396.629" xlink:href="#D" y="455.413"/><use x="403.41" xlink:href="#D" y="448.259"/><use x="410.192" xlink:href="#D" y="444.442"/><use x="416.974" xlink:href="#D" y="444.442"/><use x="423.756" xlink:href="#D" y="430.398"/><use x="430.538" xlink:href="#D" y="424.941"/><use x="437.32" xlink:href="#D" y="415.437"/><use x="444.102" xlink:href="#D" y="408.989"/><use x="450.883" xlink:href="#D" y="408.929"/><use x="457.665" xlink:href="#D" y="392.766"/><use x="464.447" xlink:href="#D" y="389.891"/><use x="471.229" xlink:href="#D" y="383.564"/><use x="478.011" xlink:href="#D" y="377.741"/><use x="484.793" xlink:href="#D" y="371.458"/><use x="491.574" xlink:href="#D" y="367.44"/></g></g><path clip-path="url(#U)" d="M98.212 569.8l.015-83.588h33.91l6.781-6.417h6.782l6.782-10.971h47.473l6.782-2.44h6.782l6.782-2.114h47.473l6.781-7.684h13.564l6.782 7.684h13.564l6.781-1.864h6.782l6.782-1.667h6.782l6.782-10.16 6.782-3.023 6.782-5.227 6.781-6.418 6.782-2.44 6.782-5.446 6.782-2.919 6.782-.97 6.782-5.167 6.781-3.258 6.782-3.235 6.782-4.02 6.782-3.01 6.782-3.638 6.782-4.322 6.782-3.532 6.781-1.295 6.782-3.728 6.782-3.348 6.782-2.365 6.782-2.964 6.782-3.912 6.781-2.918" fill="none" stroke="#2ca02c" stroke-linecap="square" stroke-width="1.5"/><g stroke="#d62728"><path clip-path="url(#U)" d="M71.1 497.183H186.391l.014 72.617m142.387 0l.018-98.09 6.782-9.304 6.782-3.176 6.782-8.65 6.782-6.138 6.781-11.526 6.782-2.749 6.782-4.205 6.782-3.032 6.782.146 6.782-12.835 6.781-5.129 6.782-3.15 6.782-4.063 6.782-.12 6.782-1.896 6.782-5.553 6.782-2.793 6.781.976 6.782-4.84 6.782-1.605 6.782-2.607 6.782-1.77 6.782-1.674 6.781-.732" fill="none" stroke-linecap="square" stroke-width="1.5"/><g clip-path="url(#U)" fill="#d62728"><use x="71.1" xlink:href="#E" y="497.183"/><use x="77.882" xlink:href="#E" y="497.183"/><use x="84.664" xlink:href="#E" y="497.183"/><use x="91.446" xlink:href="#E" y="497.183"/><use x="98.227" xlink:href="#E" y="497.183"/><use x="105.009" xlink:href="#E" y="497.183"/><use x="111.791" xlink:href="#E" y="497.183"/><use x="118.573" xlink:href="#E" y="497.183"/><use x="125.355" xlink:href="#E" y="497.183"/><use x="132.137" xlink:href="#E" y="497.183"/><use x="138.918" xlink:href="#E" y="497.183"/><use x="145.7" xlink:href="#E" y="497.183"/><use x="152.482" xlink:href="#E" y="497.183"/><use x="159.264" xlink:href="#E" y="497.183"/><use x="166.046" xlink:href="#E" y="497.183"/><use x="172.828" xlink:href="#E" y="497.183"/><use x="179.61" xlink:href="#E" y="497.183"/><use x="186.391" xlink:href="#E" y="497.183"/><use x="193.173" xlink:href="#E" y="36941.442"/><use x="199.955" xlink:href="#E" y="36941.442"/><use x="206.737" xlink:href="#E" y="36941.442"/><use x="213.519" xlink:href="#E" y="36941.442"/><use x="220.301" xlink:href="#E" y="36941.442"/><use x="227.082" xlink:href="#E" y="36941.442"/><use x="233.864" xlink:href="#E" y="36941.442"/><use x="240.646" xlink:href="#E" y="36941.442"/><use x="247.428" xlink:href="#E" y="36941.442"/><use x="254.21" xlink:href="#E" y="36941.442"/><use x="260.992" xlink:href="#E" y="36941.442"/><use x="267.774" xlink:href="#E" y="36941.442"/><use x="274.555" xlink:href="#E" y="36941.442"/><use x="281.337" xlink:href="#E" y="36941.442"/><use x="288.119" xlink:href="#E" y="36941.442"/><use x="294.901" xlink:href="#E" y="36941.442"/><use x="301.683" xlink:href="#E" y="36941.442"/><use x="308.465" xlink:href="#E" y="36941.442"/><use x="315.246" xlink:href="#E" y="36941.442"/><use x="322.028" xlink:href="#E" y="36941.442"/><use x="328.81" xlink:href="#E" y="471.709"/><use x="335.592" xlink:href="#E" y="462.406"/><use x="342.374" xlink:href="#E" y="459.23"/><use x="349.156" xlink:href="#E" y="450.58"/><use x="355.938" xlink:href="#E" y="444.442"/><use x="362.719" xlink:href="#E" y="432.916"/><use x="369.501" xlink:href="#E" y="430.167"/><use x="376.283" xlink:href="#E" y="425.962"/><use x="383.065" xlink:href="#E" y="422.93"/><use x="389.847" xlink:href="#E" y="423.076"/><use x="396.629" xlink:href="#E" y="410.241"/><use x="403.41" xlink:href="#E" y="405.112"/><use x="410.192" xlink:href="#E" y="401.962"/><use x="416.974" xlink:href="#E" y="397.899"/><use x="423.756" xlink:href="#E" y="397.78"/><use x="430.538" xlink:href="#E" y="395.883"/><use x="437.32" xlink:href="#E" y="390.33"/><use x="444.102" xlink:href="#E" y="387.537"/><use x="450.883" xlink:href="#E" y="388.513"/><use x="457.665" xlink:href="#E" y="383.673"/><use x="464.447" xlink:href="#E" y="382.068"/><use x="471.229" xlink:href="#E" y="379.461"/><use x="478.011" xlink:href="#E" y="377.691"/><use x="484.793" xlink:href="#E" y="376.017"/><use x="491.574" xlink:href="#E" y="375.285"/></g></g><g stroke="#9467bd"><path clip-path="url(#U)" d="M403.395 569.8l.015-83.588h6.782l6.782-32.912 6.782-7.064 6.782-4.394 6.782-7.499 6.782-3.23 6.781-3.87 6.782-21.893 6.782-8.009 6.782-5.62 6.782-4.277 6.782-3.916 6.781-4.706" fill="none" stroke-linecap="square" stroke-width="1.5"/><g clip-path="url(#U)" fill="#9467bd"><use x="71.1" xlink:href="#F" y="36941.442"/><use x="77.882" xlink:href="#F" y="36941.442"/><use x="84.664" xlink:href="#F" y="36941.442"/><use x="91.446" xlink:href="#F" y="36941.442"/><use x="98.227" xlink:href="#F" y="36941.442"/><use x="105.009" xlink:href="#F" y="36941.442"/><use x="111.791" xlink:href="#F" y="36941.442"/><use x="118.573" xlink:href="#F" y="36941.442"/><use x="125.355" xlink:href="#F" y="36941.442"/><use x="132.137" xlink:href="#F" y="36941.442"/><use x="138.918" xlink:href="#F" y="36941.442"/><use x="145.7" xlink:href="#F" y="36941.442"/><use x="152.482" xlink:href="#F" y="36941.442"/><use x="159.264" xlink:href="#F" y="36941.442"/><use x="166.046" xlink:href="#F" y="36941.442"/><use x="172.828" xlink:href="#F" y="36941.442"/><use x="179.61" xlink:href="#F" y="36941.442"/><use x="186.391" xlink:href="#F" y="36941.442"/><use x="193.173" xlink:href="#F" y="36941.442"/><use x="199.955" xlink:href="#F" y="36941.442"/><use x="206.737" xlink:href="#F" y="36941.442"/><use x="213.519" xlink:href="#F" y="36941.442"/><use x="220.301" xlink:href="#F" y="36941.442"/><use x="227.082" xlink:href="#F" y="36941.442"/><use x="233.864" xlink:href="#F" y="36941.442"/><use x="240.646" xlink:href="#F" y="36941.442"/><use x="247.428" xlink:href="#F" y="36941.442"/><use x="254.21" xlink:href="#F" y="36941.442"/><use x="260.992" xlink:href="#F" y="36941.442"/><use x="267.774" xlink:href="#F" y="36941.442"/><use x="274.555" xlink:href="#F" y="36941.442"/><use x="281.337" xlink:href="#F" y="36941.442"/><use x="288.119" xlink:href="#F" y="36941.442"/><use x="294.901" xlink:href="#F" y="36941.442"/><use x="301.683" xlink:href="#F" y="36941.442"/><use x="308.465" xlink:href="#F" y="36941.442"/><use x="315.246" xlink:href="#F" y="36941.442"/><use x="322.028" xlink:href="#F" y="36941.442"/><use x="328.81" xlink:href="#F" y="36941.442"/><use x="335.592" xlink:href="#F" y="36941.442"/><use x="342.374" xlink:href="#F" y="36941.442"/><use x="349.156" xlink:href="#F" y="36941.442"/><use x="355.938" xlink:href="#F" y="36941.442"/><use x="362.719" xlink:href="#F" y="36941.442"/><use x="369.501" xlink:href="#F" y="36941.442"/><use x="376.283" xlink:href="#F" y="36941.442"/><use x="383.065" xlink:href="#F" y="36941.442"/><use x="389.847" xlink:href="#F" y="36941.442"/><use x="396.629" xlink:href="#F" y="36941.442"/><use x="403.41" xlink:href="#F" y="486.212"/><use x="410.192" xlink:href="#F" y="486.212"/><use x="416.974" xlink:href="#F" y="453.3"/><use x="423.756" xlink:href="#F" y="446.236"/><use x="430.538" xlink:href="#F" y="441.842"/><use x="437.32" xlink:href="#F" y="434.343"/><use x="444.102" xlink:href="#F" y="431.113"/><use x="450.883" xlink:href="#F" y="427.244"/><use x="457.665" xlink:href="#F" y="405.35"/><use x="464.447" xlink:href="#F" y="397.341"/><use x="471.229" xlink:href="#F" y="391.722"/><use x="478.011" xlink:href="#F" y="387.444"/><use x="484.793" xlink:href="#F" y="383.528"/><use x="491.574" xlink:href="#F" y="378.822"/></g></g><path clip-path="url(#U)" d="M491.574 333.744l6.782-5.848 6.782-5.847 6.782-5.848" fill="none" stroke="#1f77b4" stroke-dasharray="1.5 2.475" stroke-width="1.5"/><path clip-path="url(#U)" d="M491.574 365.338l6.782-6.401 6.782-6.401 6.782-6.402" fill="none" stroke="#ff7f0e" stroke-dasharray="1.5 2.475" stroke-width="1.5"/><path clip-path="url(#U)" d="M491.574 373.465l6.782-3.15 6.782-3.151 6.782-3.15" fill="none" stroke="#2ca02c" stroke-dasharray="1.5 2.475" stroke-width="1.5"/><path clip-path="url(#U)" d="M491.574 374.025l6.782-2.12 6.782-2.12 6.782-2.121" fill="none" stroke="#d62728" stroke-dasharray="1.5 2.475" stroke-width="1.5"/><path clip-path="url(#U)" d="M491.574 374.62l6.782-7.1 6.782-7.1 6.782-7.1" fill="none" stroke="#9467bd" stroke-dasharray="1.5 2.475" stroke-width="1.5"/><path d="M71.1 506.232v-199.08M511.92 506.232v-199.08M71.1 506.232h440.82M71.1 307.152h440.82" fill="none" stroke="#000" stroke-linecap="square" stroke-linejoin="miter" stroke-width=".8"/><g><path d="M78.1 388.543h199.827q2 0 2-2v-72.391q0-2-2-2H78.1q-2 0-2 2v72.39q0 2 2 2z" fill="#fff" opacity=".8" stroke="#ccc" stroke-linejoin="miter"/><path d="M80.1 320.25h20" fill="none" stroke="#1f77b4" stroke-linecap="square" stroke-width="1.5"/><use fill="#1f77b4" stroke="#1f77b4" x="90.1" xlink:href="#C" y="320.25"/><g transform="matrix(.1 0 0 -.1 108.1 323.75)"><use xlink:href="#V"/><use x="74.805" xlink:href="#d"/><use x="136.328" xlink:href="#A"/><path d="M249.7 72.906h10.609l20.203-29.984 20.078 29.984h10.594L285.402 34.72V0h-9.906v34.719z"/><use x="310.783" xlink:href="#x"/><use x="371.965" xlink:href="#j"/><path d="M422.156 75.984h9.031V31.11L458 54.687h11.469l-29-25.578L470.703 0h-11.719l-27.796 26.703V0h-9.032z"/><use x="502.775" xlink:href="#N"/><use x="541.789" xlink:href="#z"/><use x="605.266" xlink:href="#x"/><use x="666.447" xlink:href="#O"/><use x="729.826" xlink:href="#e"/><use x="793.303" xlink:href="#y"/><use x="821.086" xlink:href="#d"/><use x="882.609" xlink:href="#K"/><use x="966.496" xlink:href="#B"/><use x="994.279" xlink:href="#P"/><use x="1089.445" xlink:href="#n"/><use x="1153.068" xlink:href="#Q"/><use x="1184.855" xlink:href="#p"/><use x="1280.266" xlink:href="#z"/><use x="1343.742" xlink:href="#i"/><use x="1405.021" xlink:href="#M"/><use x="1464.201" xlink:href="#K"/><use x="1516.301" xlink:href="#R"/></g><path d="M80.1 334.929h20" fill="none" stroke="#ff7f0e" stroke-linecap="square" stroke-width="1.5"/><use fill="#ff7f0e" stroke="#ff7f0e" x="90.1" xlink:href="#D" y="334.929"/><g transform="matrix(.1 0 0 -.1 108.1 338.429)"><use xlink:href="#V"/><use x="74.805" xlink:href="#d"/><use x="136.328" xlink:href="#A"/><path d="M259.715 72.906h9.86V5.078q0-13.187-5-19.14-5-5.954-16.095-5.954h-3.75v8.297h3.079q6.53 0 9.218 3.672 2.688 3.656 2.688 13.125z"/><use x="279.395" xlink:href="#d"/><use x="340.918" xlink:href="#j"/><use x="382.031" xlink:href="#K"/><use x="434.131" xlink:href="#d"/><use x="495.654" xlink:href="#M"/><use x="586.621" xlink:href="#N"/><use x="625.635" xlink:href="#z"/><use x="689.111" xlink:href="#x"/><use x="750.293" xlink:href="#O"/><use x="813.672" xlink:href="#e"/><use x="877.148" xlink:href="#y"/><use x="904.932" xlink:href="#d"/><use x="966.455" xlink:href="#K"/><use x="1050.342" xlink:href="#B"/><use x="1078.125" xlink:href="#P"/><use x="1173.291" xlink:href="#n"/><use x="1236.914" xlink:href="#Q"/><use x="1268.701" xlink:href="#l"/><use x="1364.111" xlink:href="#z"/><use x="1427.588" xlink:href="#i"/><use x="1488.867" xlink:href="#M"/><use x="1548.047" xlink:href="#K"/><use x="1600.146" xlink:href="#R"/></g><path d="M80.1 349.607h20" fill="none" stroke="#2ca02c" stroke-linecap="square" stroke-width="1.5"/><g transform="matrix(.1 0 0 -.1 108.1 353.107)"><use xlink:href="#H"/><use x="69.824" xlink:href="#i"/><use x="131.104" xlink:href="#y"/><use x="158.887" xlink:href="#B"/><use x="186.67" xlink:href="#L"/><use x="221.875" xlink:href="#x"/><use x="283.057" xlink:href="#j"/><use x="324.154" xlink:href="#P"/><use x="387.533" xlink:href="#B"/><use x="415.316" xlink:href="#i"/><use x="508.383" xlink:href="#N"/><use x="547.396" xlink:href="#z"/><use x="610.873" xlink:href="#x"/><use x="672.055" xlink:href="#O"/><use x="735.434" xlink:href="#e"/><use x="798.91" xlink:href="#y"/><use x="826.693" xlink:href="#d"/><use x="888.217" xlink:href="#K"/><use x="972.104" xlink:href="#B"/><use x="999.887" xlink:href="#P"/><use x="1095.053" xlink:href="#m"/><use x="1158.676" xlink:href="#Q"/><use x="1190.463" xlink:href="#u"/><use x="1285.873" xlink:href="#z"/><use x="1349.35" xlink:href="#i"/><use x="1410.629" xlink:href="#M"/><use x="1469.809" xlink:href="#K"/><use x="1521.908" xlink:href="#R"/></g><path d="M80.1 364.285h20" fill="none" stroke="#d62728" stroke-linecap="square" stroke-width="1.5"/><use fill="#d62728" stroke="#d62728" x="90.1" xlink:href="#E" y="364.285"/><g transform="matrix(.1 0 0 -.1 108.1 367.785)"><use xlink:href="#w"/><use x="98.783" xlink:href="#i"/><use x="160.063" xlink:href="#K"/><use x="212.162" xlink:href="#W"/><use x="275.541" xlink:href="#B"/><use x="303.324" xlink:href="#P"/><use x="366.703" xlink:href="#X"/><use x="430.18" xlink:href="#s"/><use x="469.389" xlink:href="#x"/><use x="530.57" xlink:href="#P"/><use x="625.736" xlink:href="#N"/><use x="664.75" xlink:href="#z"/><use x="728.227" xlink:href="#x"/><use x="789.408" xlink:href="#O"/><use x="852.787" xlink:href="#e"/><use x="916.264" xlink:href="#y"/><use x="944.047" xlink:href="#d"/><use x="1005.57" xlink:href="#K"/><use x="1089.457" xlink:href="#B"/><use x="1117.24" xlink:href="#P"/><use x="1212.406" xlink:href="#u"/><use x="1276.029" xlink:href="#Q"/><use x="1307.816" xlink:href="#f"/><use x="1403.227" xlink:href="#z"/><use x="1466.703" xlink:href="#i"/><use x="1527.982" xlink:href="#M"/><use x="1587.162" xlink:href="#K"/><use x="1639.262" xlink:href="#R"/></g><path d="M80.1 378.963h20" fill="none" stroke="#9467bd" stroke-linecap="square" stroke-width="1.5"/><use fill="#9467bd" stroke="#9467bd" x="90.1" xlink:href="#F" y="378.963"/><g transform="matrix(.1 0 0 -.1 108.1 382.463)"><use xlink:href="#h"/><use x="86.279" xlink:href="#B"/><use x="114.063" xlink:href="#G"/><use x="169.043" xlink:href="#W"/><use x="232.422" xlink:href="#B"/><use x="260.205" xlink:href="#X"/><use x="323.682" xlink:href="#i"/><use x="384.961" xlink:href="#P"/><use x="480.127" xlink:href="#N"/><use x="519.141" xlink:href="#z"/><use x="582.617" xlink:href="#x"/><use x="643.799" xlink:href="#O"/><use x="707.178" xlink:href="#e"/><use x="770.654" xlink:href="#y"/><use x="798.438" xlink:href="#d"/><use x="859.961" xlink:href="#K"/><use x="943.848" xlink:href="#B"/><use x="971.631" xlink:href="#P"/><use x="1066.797" xlink:href="#n"/><use x="1130.42" xlink:href="#Q"/><use x="1162.207" xlink:href="#u"/><use x="1257.617" xlink:href="#z"/><use x="1321.094" xlink:href="#i"/><use x="1382.373" xlink:href="#M"/><use x="1441.553" xlink:href="#K"/><use x="1493.652" xlink:href="#R"/></g></g></g></svg>