<svg xmlns="http://www.w3.org/2000/svg" width="647.84" height="82.87" viewBox="0 0 269.94 46.04"><clipPath id="a"><path d="M19 14h250.93v32H19zm0 0"/></clipPath><clipPath id="b"><path d="M19 14h250.93v32.04H19zm0 0"/></clipPath><clipPath id="c"><path d="M237 14h2v32.04h-2zm0 0"/></clipPath><clipPath id="d"><path d="M206 14h2v32.04h-2zm0 0"/></clipPath><clipPath id="e"><path d="M175 14h1v32.04h-1zm0 0"/></clipPath><clipPath id="f"><path d="M144 14h1v32.04h-1zm0 0"/></clipPath><clipPath id="g"><path d="M113 14h1v32.04h-1zm0 0"/></clipPath><clipPath id="h"><path d="M81 14h2v32.04h-2zm0 0"/></clipPath><clipPath id="i"><path d="M50 14h2v32.04h-2zm0 0"/></clipPath><symbol id="j" overflow="visible"><path d="M.27-5.34v.3l.45.06.14.1v4.4l-.14.12-.45.03V0h2.09c1.36 0 2.1-.56 2.1-1.56 0-.78-.55-1.27-1.5-1.28q1.16-.3 1.16-1.22 0-1.3-1.82-1.28zm1.3 2.42v-2.05L2.02-5q1.31 0 1.3.97c0 .78-.45 1.1-1.45 1.1zm0 2.53v-2.14q.46-.05.77-.05 1.34 0 1.33 1.08c0 .8-.5 1.12-1.56 1.12zm0 0"/></symbol><symbol id="k" overflow="visible"><path d="M1.23-5.64a.46.46 0 0 0-.46.47c0 .25.2.45.46.45.25 0 .46-.2.46-.45a.46.46 0 0 0-.46-.47M1.2-3.87l-.9.3v.23h.55v2.89L.7-.33l-.42.05V0h1.8v-.28l-.44-.05-.14-.12v-3.42zm0 0"/></symbol><symbol id="l" overflow="visible"><path d="M.7-3.36v2.58c0 .56.18.81.83.81q.47 0 1.05-.18v-.3a2 2 0 0 1-.55.08c-.56 0-.67-.27-.67-.88v-2.1h1.22v-.38H1.36v-.85h-.3l-.34.75-.52.22v.25zm0 0"/></symbol><symbol id="m" overflow="visible"><path d="M2.73-3.73a2 2 0 0 0-.92-.18C.91-3.9.4-3.5.4-2.8c0 .53.36.78 1.03 1.1.53.23.81.37.81.8 0 .37-.28.63-.75.63q-.33 0-.67-.18l-.1-.67H.34V-.1q.43.16 1.04.17c.94 0 1.49-.45 1.49-1.2q0-.46-.3-.7c-.26-.21-.58-.32-.84-.45-.45-.21-.69-.39-.69-.73 0-.36.25-.56.67-.56q.28 0 .58.15l.06.57h.4zm0 0"/></symbol><symbol id="n" overflow="visible"><path d="M2.22-5.44c-1.14 0-1.9 1-1.9 2.77 0 1.75.76 2.76 1.9 2.76S4.1-.92 4.1-2.67c0-1.77-.75-2.77-1.9-2.77zm0 .38q1.1.01 1.12 2.39C3.36-.3 2.95-.28 2.22-.28s-1.14-.81-1.14-2.4.4-2.38 1.14-2.38m0 0"/></symbol><symbol id="o" overflow="visible"><path d="m2.48-5.44-1.73.52v.33L2-4.81v4.28l-.1.14-.92.05V0h2.68v-.33L2.8-.37 2.7-.5v-4.94zm0 0"/></symbol><symbol id="p" overflow="visible"><path d="M1.13-.62c1.76-1.41 2.71-2.32 2.71-3.32 0-.9-.62-1.5-1.65-1.5C1.2-5.44.5-4.87.5-4.3q.02.41.45.43A.6.6 0 0 0 1.31-4v-.84q.36-.2.7-.2c.66 0 1.07.45 1.07 1.21 0 1.05-1 1.9-2.75 3.33V0h3.7v-1.31h-.36l-.15.69zm0 0"/></symbol><symbol id="q" overflow="visible"><path d="M2.53-2.81q1.18-.34 1.19-1.3c0-.8-.63-1.33-1.58-1.33-1 0-1.67.53-1.67 1.07 0 .25.17.42.42.42a.5.5 0 0 0 .33-.11v-.75a1.3 1.3 0 0 1 .75-.22c.62 0 1.01.4 1.01 1.03 0 .64-.42 1.03-1.23 1.03l-.17-.01v.46l.44-.03c.75 0 1.17.38 1.17 1 0 .7-.53 1.27-1.25 1.27a1 1 0 0 1-.67-.2l-.25-.68Q.87-1.2.77-1.19c-.25 0-.44.17-.44.4C.33-.37.95.1 1.9.1c1.22 0 2.01-.73 2.01-1.62 0-.72-.51-1.22-1.39-1.28zm0 0"/></symbol><symbol id="r" overflow="visible"><path d="M2.94-5.39.22-2.06v.51h2.56V.3h.61v-1.85h.9v-.51h-.9V-5.4zm-.16.86v2.47H.81zm0 0"/></symbol><symbol id="s" overflow="visible"><path d="M.81-5.34v2.62a4 4 0 0 1 .69-.05q1.66-.02 1.66 1.2c0 .74-.5 1.27-1.25 1.27a2 2 0 0 1-.54-.1l-.32-.68-.2-.01a.42.42 0 0 0-.45.42c0 .37.56.75 1.38.75C3.08.08 3.9-.7 3.9-1.73c0-.91-.67-1.54-1.73-1.54q-.4 0-.86.14v-1.59h2.36v-.62zm0 0"/></symbol><symbol id="t" overflow="visible"><path d="M3.53-5.69C1.58-5.56.4-4.25.4-2.2.4-.77 1.17.1 2.25.1a1.9 1.9 0 0 0 1.94-1.91c0-1.02-.72-1.74-1.66-1.74a2.3 2.3 0 0 0-1.36.49c.25-1.42 1.06-2.17 2.33-2.17h.03zM1.16-2.7q.5-.37 1.15-.36c.67 0 1.14.5 1.14 1.33S2.98-.28 2.31-.28c-.75 0-1.17-.67-1.17-1.94zm0 0"/></symbol><symbol id="u" overflow="visible"><path d="M.56-5.34v1.32h.38l.12-.71h2.46L.92.3h.66V.13l2.65-5.16v-.31zm0 0"/></symbol><symbol id="v" overflow="visible"><path d="M4.06-3.64a2 2 0 0 0 1.02-1.67c0-.99-.88-1.99-2.28-1.99H.77c-.2 0-.49 0-.49.35s.31.34.49.34h.26v5.92H.77c-.18 0-.49 0-.49.35s.3.34.49.34h1.3c.16 0 .5 0 .5-.34s-.34-.35-.5-.35H1.8V-3.3h.94c.22 0 .58 0 .97.34.28.25.28.52.28 1.03 0 .85 0 1.19.22 1.6q.3.47.87.48c.79 0 1.04-.83 1.04-1.25 0-.23-.11-.39-.41-.39-.36 0-.38.28-.38.39 0 .08-.03.56-.25.56-.32 0-.32-.53-.32-1.2 0-.81 0-.89-.11-1.19-.16-.34-.46-.6-.6-.7M2.67-4h-.86v-2.61h.86c1.11 0 1.63.72 1.63 1.3S3.78-4 2.67-4m0 0"/></symbol><symbol id="w" overflow="visible"><path d="M5.27-2.53c.23 0 .54 0 .54-.35 0-.36-.33-.36-.5-.36H3.98c-.17 0-.5 0-.5.37 0 .34.33.34.5.34h.49C4.4-1.81 4.09-.55 3.1-.55c-.97 0-1.9-1.3-1.9-3.1 0-1.83.96-3.1 1.92-3.1.56 0 1.2.45 1.36 1.64.03.3.26.3.37.3.4 0 .4-.2.4-.46V-7c0-.19 0-.45-.34-.45-.2 0-.26.14-.31.2l-.16.38a2 2 0 0 0-1.39-.58c-1.4 0-2.62 1.62-2.62 3.8C.44-1.46 1.66.13 3.06.13a2 2 0 0 0 1.42-.66c0 .32 0 .55.4.55s.39-.26.39-.48zm0 0"/></symbol><symbol id="x" overflow="visible"><path d="M5.25-6.61h.31c.17 0 .5 0 .5-.34s-.33-.35-.5-.35H4.14c-.16 0-.48 0-.48.35s.32.34.48.34h.33v4.11c0 1.31-.78 1.95-1.4 1.95-.63 0-1.4-.65-1.4-1.95v-4.11H2c.16 0 .48 0 .48-.34S2.16-7.3 2-7.3H.58c-.17 0-.5 0-.5.35s.33.34.5.34h.31v4.19C.9-.98 1.9.14 3.08.14c1.17 0 2.17-1.12 2.17-2.56zm0 0"/></symbol><symbol id="y" overflow="visible"><path d="M3.47-6.61h1.22c.17 0 .47 0 .47-.34s-.3-.35-.47-.35H1.47c-.17 0-.49 0-.49.35s.32.34.49.34h1.22v5.92H1.47c-.17 0-.48 0-.48.35s.3.34.48.34h3.22c.17 0 .47 0 .47-.34s-.3-.35-.47-.35H3.47zm0 0"/></symbol><symbol id="z" overflow="visible"><path d="M3.69-7.05c-.11-.42-.35-.42-.61-.42-.38 0-.52.05-.61.42L.98-.69c-.39 0-.65 0-.65.35S.64 0 .8 0h1.14c.18 0 .5 0 .5-.34S2.15-.7 1.8-.7l.3-1.34h1.95l.3 1.34c-.37 0-.66 0-.66.35s.33.34.5.34h1.14c.17 0 .5 0 .5-.34S5.55-.7 5.16-.7zM2.27-2.72c.07-.36.73-3.19.8-3.76.04.28.21 1.01.21 1.01l.61 2.75zm0 0"/></symbol><symbol id="A" overflow="visible"><path d="M2.06-6.61h.63c.17 0 .48 0 .48-.34s-.31-.35-.48-.35H.89c-.16 0-.48 0-.48.35s.32.34.48.34h.4v5.92H.9c-.16 0-.48 0-.48.35S.73 0 .89 0h4.36c.39 0 .47-.11.47-.48v-.99c0-.2 0-.48-.38-.48-.39 0-.39.26-.39.48v.78H2.06zm0 0"/></symbol><symbol id="B" overflow="visible"><path d="M3.47-6.61h1.6v.58c0 .22 0 .5.37.5.39 0 .39-.27.39-.5v-.78c0-.38-.06-.49-.47-.49H.8c-.4 0-.49.1-.49.49v.78c0 .22 0 .5.38.5.4 0 .4-.27.4-.5v-.58h1.6v5.92H2.1c-.16 0-.47 0-.47.35s.31.34.47.34h1.94c.15 0 .47 0 .47-.34S4.2-.7 4.05-.7h-.58zm0 0"/></symbol><symbol id="C" overflow="visible"><path d="M5.22-7c0-.19 0-.45-.33-.45-.25 0-.28.1-.42.6a2.5 2.5 0 0 0-1.69-.6c-1.26 0-2.17.92-2.17 1.97 0 .7.42 1.17.48 1.23.52.52.72.56 1.97.86.9.2 1.1.25 1.4.58q.33.39.34.9A1.4 1.4 0 0 1 3.33-.55c-1.02 0-1.88-.43-1.94-1.5-.01-.17-.03-.37-.39-.37-.39 0-.39.22-.39.47v1.64c0 .18 0 .45.33.45.25 0 .28-.1.42-.6.66.52 1.48.6 1.97.6 1.36 0 2.2-1.03 2.2-2.1 0-.84-.51-1.37-.55-1.42-.48-.48-.7-.53-1.9-.82l-.85-.2c-.48-.18-.89-.6-.89-1.13 0-.64.61-1.22 1.43-1.22.9 0 1.51.47 1.67 1.48.03.24.06.4.39.4.39 0 .39-.22.39-.46zm0 0"/></symbol><symbol id="D" overflow="visible"><path d="M2-3.31h1.63c0 .42 0 .64.39.64s.39-.27.39-.49v-1c0-.22 0-.5-.4-.5s-.38.24-.38.66H2v-2.61h2.95v.58c0 .22 0 .5.4.5s.38-.27.38-.5v-.78c0-.38-.06-.49-.46-.49H.86c-.17 0-.48 0-.48.35s.3.34.48.34h.36v5.92H.86c-.17 0-.49 0-.49.35S.7 0 .86 0h1.7c.17 0 .49 0 .49-.34S2.73-.7 2.56-.7H2zm0 0"/></symbol><symbol id="E" overflow="visible"><path d="M5.67-7c0-.19 0-.45-.34-.45-.22 0-.27.14-.31.22l-.18.39a2.4 2.4 0 0 0-1.54-.61C1.75-7.45.48-5.8.48-3.65.48-1.47 1.8.14 3.3.14c1.4 0 2.37-1.11 2.37-2.16 0-.37-.25-.37-.4-.37s-.36.06-.38.26A1.53 1.53 0 0 1 3.38-.55c-1.11 0-2.13-1.3-2.13-3.1 0-1.82 1.03-3.1 2.13-3.1.64 0 1.34.52 1.51 1.61.03.27.14.33.38.33.4 0 .4-.2.4-.46zm0 0"/></symbol><g clip-path="url(#a)"><path fill="#fbe963" d="M19.79 14.66v31.18h249.45V14.66zm0 0"/></g><g clip-path="url(#b)"><path fill="none" stroke="#000" stroke-miterlimit="10" stroke-width=".4" d="M19.79 14.66v31.18h249.45V14.66zm0 0"/></g><g clip-path="url(#c)"><path fill="none" stroke="#000" stroke-miterlimit="10" stroke-width=".4" d="M238.06 45.84V14.66"/></g><g clip-path="url(#d)"><path fill="none" stroke="#000" stroke-miterlimit="10" stroke-width=".4" d="M206.88 45.84V14.66"/></g><g clip-path="url(#e)"><path fill="none" stroke="#000" stroke-miterlimit="10" stroke-width=".4" d="M175.7 45.84V14.66"/></g><g clip-path="url(#f)"><path fill="none" stroke="#000" stroke-miterlimit="10" stroke-width=".4" d="M144.51 45.84V14.66"/></g><g clip-path="url(#g)"><path fill="none" stroke="#000" stroke-miterlimit="10" stroke-width=".4" d="M113.33 45.84V14.66"/></g><g clip-path="url(#h)"><path fill="none" stroke="#000" stroke-miterlimit="10" stroke-width=".4" d="M82.15 45.84V14.66"/></g><g clip-path="url(#i)"><path fill="none" stroke="#000" stroke-miterlimit="10" stroke-width=".4" d="M50.97 45.84V14.66"/></g><g fill="#ccc"><use x="3.98" y="9.67" href="#j"/><use x="8.8" y="9.67" href="#k"/><use x="11.03" y="9.67" href="#l"/><use x="13.69" y="9.67" href="#m"/><use x="251.43" y="9.56" href="#n"/><use x="220.25" y="9.59" href="#o"/><use x="189.07" y="9.59" href="#p"/><use x="157.89" y="9.56" href="#q"/><use x="126.71" y="9.39" href="#r"/><use x="95.52" y="9.51" href="#s"/><use x="64.34" y="9.67" href="#t"/><use x="33.16" y="9.39" href="#u"/></g><use x="23.07" y="33.67" href="#v"/><use x="29.23" y="33.67" href="#w"/><use x="35.38" y="33.67" href="#x"/><use x="41.53" y="33.67" href="#y"/><use x="54.26" y="33.67" href="#v"/><use x="60.41" y="33.67" href="#z"/><use x="66.56" y="33.67" href="#A"/><use x="72.71" y="33.67" href="#B"/><use x="85.44" y="33.67" href="#v"/><use x="91.59" y="33.67" href="#C"/><use x="97.74" y="33.67" href="#D"/><use x="103.89" y="33.67" href="#B"/><use x="116.62" y="33.67" href="#v"/><use x="122.77" y="33.67" href="#E"/><use x="128.92" y="33.67" href="#B"/><use x="135.07" y="33.67" href="#A"/><use x="147.8" y="33.67" href="#A"/><use x="153.95" y="33.67" href="#w"/><use x="160.1" y="33.67" href="#x"/><use x="166.25" y="33.67" href="#y"/><use x="178.98" y="33.67" href="#A"/><use x="185.13" y="33.67" href="#z"/><use x="191.28" y="33.67" href="#A"/><use x="197.44" y="33.67" href="#B"/><use x="210.16" y="33.67" href="#A"/><use x="216.31" y="33.67" href="#C"/><use x="222.47" y="33.67" href="#D"/><use x="228.62" y="33.67" href="#B"/><use x="241.34" y="33.67" href="#A"/><use x="247.5" y="33.67" href="#E"/><use x="253.65" y="33.67" href="#B"/><use x="259.8" y="33.67" href="#A"/></svg>