<svg xmlns="http://www.w3.org/2000/svg" width="847.43" height="58.57" viewBox="0 0 353.1 32.54"><clipPath id="a"><path d="M27 12h326v20.54H27zm0 0"/></clipPath><clipPath id="b"><path d="M27 12h42v20.54H27zm0 0"/></clipPath><clipPath id="c"><path d="M68 12h41v20.54H68zm0 0"/></clipPath><clipPath id="d"><path d="M27 12h326.1v20.54H27zm0 0"/></clipPath><clipPath id="e"><path d="M67 12h2v20.54h-2zm0 0"/></clipPath><clipPath id="f"><path d="M108 12h2v20.54h-2zm0 0"/></clipPath><clipPath id="g"><path d="M149 12h1v20.54h-1zm0 0"/></clipPath><clipPath id="h"><path d="M189 12h2v20.54h-2zm0 0"/></clipPath><clipPath id="i"><path d="M230 12h2v20.54h-2zm0 0"/></clipPath><clipPath id="j"><path d="M271 12h1v20.54h-1zm0 0"/></clipPath><clipPath id="k"><path d="M312 12h1v20.54h-1zm0 0"/></clipPath><symbol id="l" overflow="visible"><path d="M.27-5.34v.3l.45.06.14.1v4.4l-.14.12-.45.03V0h2.09c1.36 0 2.1-.56 2.1-1.56 0-.78-.55-1.27-1.5-1.28q1.16-.3 1.16-1.22 0-1.3-1.82-1.28zm1.3 2.42v-2.05L2.02-5q1.31 0 1.3.97c0 .78-.45 1.1-1.45 1.1zm0 2.53v-2.14q.46-.05.77-.05 1.34 0 1.33 1.08c0 .8-.5 1.12-1.56 1.12zm0 0"/></symbol><symbol id="m" overflow="visible"><path d="M-.02-3.83v.3l.5.05L1.81-.03q-.3.85-.64 1.19L.41.86a.6.6 0 0 0-.2.44c0 .25.21.44.54.44.52 0 .9-.44 1.28-1.35l1.6-3.86.45-.06v-.3H2.66v.3l.43.03.07.13-1 2.47-.96-2.47.1-.13.42-.03v-.3zm0 0"/></symbol><symbol id="n" overflow="visible"><path d="M.7-3.36v2.58c0 .56.18.81.83.81q.47 0 1.05-.18v-.3a2 2 0 0 1-.55.08c-.56 0-.67-.27-.67-.88v-2.1h1.22v-.38H1.36v-.85h-.3l-.34.75-.52.22v.25zm0 0"/></symbol><symbol id="o" overflow="visible"><path d="M3.56-.84c-.45.3-.84.47-1.25.47-.8 0-1.33-.61-1.33-1.64v-.08h2.58v-.25c0-.99-.56-1.57-1.42-1.57C1.06-3.9.3-3.09.3-1.89.3-.72 1.02.08 2.08.08q.76 0 1.48-.49zm-.7-1.6H1.02c.04-.67.5-1.1 1.01-1.1q.81.01.83.98zm0 0"/></symbol><symbol id="p" overflow="visible"><path d="M2.73-3.73a2 2 0 0 0-.92-.18C.91-3.9.4-3.5.4-2.8c0 .53.36.78 1.03 1.1.53.23.81.37.81.8 0 .37-.28.63-.75.63q-.33 0-.67-.18l-.1-.67H.34V-.1q.43.16 1.04.17c.94 0 1.49-.45 1.49-1.2q0-.46-.3-.7c-.26-.21-.58-.32-.84-.45-.45-.21-.69-.39-.69-.73 0-.36.25-.56.67-.56q.28 0 .58.15l.06.57h.4zm0 0"/></symbol><symbol id="q" overflow="visible"><path d="M2.22-5.44c-1.14 0-1.9 1-1.9 2.77 0 1.75.76 2.76 1.9 2.76S4.1-.92 4.1-2.67c0-1.77-.75-2.77-1.9-2.77zm0 .38q1.1.01 1.12 2.39C3.36-.3 2.95-.28 2.22-.28s-1.14-.81-1.14-2.4.4-2.38 1.14-2.38m0 0"/></symbol><symbol id="r" overflow="visible"><path d="m2.48-5.44-1.73.52v.33L2-4.81v4.28l-.1.14-.92.05V0h2.68v-.33L2.8-.37 2.7-.5v-4.94zm0 0"/></symbol><symbol id="s" overflow="visible"><path d="M1.13-.62c1.76-1.41 2.71-2.32 2.71-3.32 0-.9-.62-1.5-1.65-1.5C1.2-5.44.5-4.87.5-4.3q.02.41.45.43A.6.6 0 0 0 1.31-4v-.84q.36-.2.7-.2c.66 0 1.07.45 1.07 1.21 0 1.05-1 1.9-2.75 3.33V0h3.7v-1.31h-.36l-.15.69zm0 0"/></symbol><symbol id="t" overflow="visible"><path d="M2.53-2.81q1.18-.34 1.19-1.3c0-.8-.63-1.33-1.58-1.33-1 0-1.67.53-1.67 1.07 0 .25.17.42.42.42a.5.5 0 0 0 .33-.11v-.75a1.3 1.3 0 0 1 .75-.22c.62 0 1.01.4 1.01 1.03 0 .64-.42 1.03-1.23 1.03l-.17-.01v.46l.44-.03c.75 0 1.17.38 1.17 1 0 .7-.53 1.27-1.25 1.27a1 1 0 0 1-.67-.2l-.25-.68Q.87-1.2.77-1.19c-.25 0-.44.17-.44.4C.33-.37.95.1 1.9.1c1.22 0 2.01-.73 2.01-1.62 0-.72-.51-1.22-1.39-1.28zm0 0"/></symbol><symbol id="u" overflow="visible"><path d="M2.94-5.39.22-2.06v.51h2.56V.3h.61v-1.85h.9v-.51h-.9V-5.4zm-.16.86v2.47H.81zm0 0"/></symbol><symbol id="v" overflow="visible"><path d="M.81-5.34v2.62a4 4 0 0 1 .69-.05q1.66-.02 1.66 1.2c0 .74-.5 1.27-1.25 1.27a2 2 0 0 1-.54-.1l-.32-.68-.2-.01a.42.42 0 0 0-.45.42c0 .37.56.75 1.38.75C3.08.08 3.9-.7 3.9-1.73c0-.91-.67-1.54-1.73-1.54q-.4 0-.86.14v-1.59h2.36v-.62zm0 0"/></symbol><symbol id="w" overflow="visible"><path d="M3.53-5.69C1.58-5.56.4-4.25.4-2.2.4-.77 1.17.1 2.25.1a1.9 1.9 0 0 0 1.94-1.91c0-1.02-.72-1.74-1.66-1.74a2.3 2.3 0 0 0-1.36.49c.25-1.42 1.06-2.17 2.33-2.17h.03zM1.16-2.7q.5-.37 1.15-.36c.67 0 1.14.5 1.14 1.33S2.98-.28 2.31-.28c-.75 0-1.17-.67-1.17-1.94zm0 0"/></symbol><symbol id="x" overflow="visible"><path d="M.56-5.34v1.32h.38l.12-.71h2.46L.92.3h.66V.13l2.65-5.16v-.31zm0 0"/></symbol><symbol id="y" overflow="visible"><path d="M1.1-4c-.04-.3-.22-.3-.41-.3H.38c-.16 0-.43 0-.43.3 0 .31.22.31.58.31V-.6c-.36 0-.58 0-.58.31 0 .3.28.3.43.3h.87c.14 0 .4 0 .4-.3s-.2-.3-.56-.3v-1.8c0-.88.41-1.35.82-1.35.23 0 .36.17.36.81V-.6c-.2 0-.44 0-.44.31 0 .3.28.3.42.3h.73c.16 0 .43 0 .43-.3s-.22-.3-.57-.3v-1.8c0-.88.4-1.35.83-1.35.22 0 .36.17.36.81V-.6c-.19 0-.44 0-.44.31 0 .3.27.3.4.3h.76c.16 0 .4 0 .4-.3 0-.31-.2-.31-.56-.31V-3c0-.21 0-1.35-.89-1.35a1.2 1.2 0 0 0-.98.52.8.8 0 0 0-.77-.52q-.47.01-.84.36zm0 0"/></symbol><symbol id="z" overflow="visible"><path d="M4.66-2.16c0-1.25-.93-2.23-2.05-2.23S.56-3.41.56-2.16C.56-.89 1.52.06 2.61.06s2.05-.95 2.05-2.22M2.6-.55c-.73 0-1.36-.75-1.36-1.67 0-.9.66-1.56 1.36-1.56.72 0 1.36.65 1.36 1.56 0 .92-.63 1.67-1.36 1.67m0 0"/></symbol><symbol id="A" overflow="visible"><path d="M3.56-.5c0 .36 0 .5.4.5h.73c.17 0 .42 0 .42-.31 0-.3-.27-.3-.4-.3h-.46v-5.08c0-.3-.05-.4-.39-.4h-.73c-.16 0-.41 0-.41.3s.26.3.4.3h.44v1.58a1.7 1.7 0 0 0-1.15-.45C1.3-4.36.36-3.4.36-2.14c0 1.23.89 2.2 1.95 2.2A1.7 1.7 0 0 0 3.56-.5m0-2.14v.7c0 .56-.43 1.4-1.2 1.4-.72 0-1.31-.71-1.31-1.6 0-.95.7-1.61 1.39-1.61.64 0 1.12.56 1.12 1.11m0 0"/></symbol><symbol id="B" overflow="visible"><path d="m3.47-2.55-.67-.1c-.3-.05-.97-.18-.97-.55 0-.27.31-.58 1.26-.58.83 0 .97.3 1 .56 0 .17.03.34.33.34.36 0 .36-.21.36-.42v-.68c0-.16 0-.41-.3-.41-.25 0-.28.14-.3.22-.45-.22-.88-.22-1.07-.22-1.66 0-1.9.83-1.9 1.19 0 .9 1.06 1.07 1.98 1.22.48.07 1.28.2 1.28.73 0 .37-.38.7-1.28.7-.47 0-1.02-.1-1.27-.89-.06-.17-.1-.28-.36-.28-.34 0-.34.2-.34.4v.98c0 .15 0 .4.3.4.09 0 .25-.01.37-.37a2 2 0 0 0 1.3.37c1.56 0 1.89-.83 1.89-1.31 0-1.03-1.28-1.25-1.61-1.3m0 0"/></symbol><symbol id="H" overflow="visible"><path d="m2.86-2.55 1.23-1.14h.35c.14 0 .4 0 .4-.3s-.26-.3-.4-.3H2.9c-.18 0-.41 0-.41.3s.25.3.4.3h.37l-1.6 1.52V-5.7c0-.3-.07-.4-.41-.4H.61c-.16 0-.4 0-.4.3s.24.3.4.3h.48v4.9H.61c-.16 0-.4 0-.4.3-.01.3.23.3.39.3h1.53c.16 0 .4 0 .4-.3s-.24-.3-.4-.3h-.48v-.82l.8-.74L3.63-.6c-.36 0-.56 0-.56.31 0 .3.25.3.4.3h1.18c.15 0 .4 0 .4-.3 0-.31-.25-.31-.4-.31h-.32zm0 0"/></symbol><symbol id="I" overflow="visible"><path d="M4.23-1.9c.2 0 .4 0 .4-.37 0-1.14-.64-2.12-1.94-2.12A2.17 2.17 0 0 0 .55-2.16C.55-.96 1.56.06 2.85.06c1.3 0 1.77-.9 1.77-1.15 0-.27-.28-.27-.34-.27-.19 0-.26.03-.33.22-.22.5-.76.6-1.04.6-.75 0-1.49-.5-1.66-1.37zm-2.96-.6c.14-.73.73-1.28 1.42-1.28.51 0 1.14.25 1.23 1.28zm0 0"/></symbol><symbol id="J" overflow="visible"><path d="M4.28-3.69h.3c.15 0 .4 0 .4-.3s-.23-.3-.4-.3H3.42c-.15 0-.4 0-.4.29 0 .31.25.31.4.31h.28l-.72 2.13c-.14.36-.18.54-.26.86l-.22-.6-.92-2.39h.25c.14 0 .39 0 .39-.3s-.24-.3-.4-.3H.67c-.16 0-.4 0-.4.3s.26.3.4.3h.31l1.4 3.57c.05.09.05.1.05.12s-.25.84-.37 1.1c-.3.54-.66.56-.8.57 0-.01.05-.1.05-.22a.4.4 0 0 0-.43-.43c-.28 0-.45.18-.45.43a.8.8 0 0 0 .83.82c1 0 1.45-1.32 1.48-1.42zm0 0"/></symbol><symbol id="K" overflow="visible"><path d="M4.42-6.31c.14 0 .4 0 .4-.3 0-.31-.24-.31-.4-.31H2.61c-.33 0-.4.1-.4.4V.42c0 .31.06.4.4.4h1.81c.14 0 .4 0 .4-.29 0-.31-.24-.31-.4-.31H2.91v-6.53zm0 0"/></symbol><symbol id="L" overflow="visible"><path d="M4.72-3.05C4.72-4.89 3.7-6.2 2.6-6.2S.5-4.86.5-3.05C.5-1.2 1.52.11 2.61.11c1.12 0 2.1-1.33 2.1-3.16M2.6-.5c-.78 0-1.42-1.17-1.42-2.66 0-1.45.69-2.43 1.42-2.43s1.42.98 1.42 2.43C4.03-1.67 3.4-.5 2.61-.5m0 0"/></symbol><symbol id="M" overflow="visible"><path d="M3.02-6.52c0-.3-.07-.4-.41-.4H.8c-.15 0-.4 0-.4.3s.23.3.4.3h1.52V.23H.8c-.15 0-.4 0-.4.3s.23.3.4.3h1.8c.33 0 .4-.09.4-.4zm0 0"/></symbol><symbol id="N" overflow="visible"><path d="M3.1-5.8c0-.15 0-.4-.3-.4-.2 0-.25.12-.3.23-.38.86-.89.97-1.08.99-.17.01-.37.03-.37.3 0 .26.17.3.32.3.2 0 .6-.06 1.04-.43v4.2H1.5c-.16 0-.39 0-.39.31 0 .3.25.3.39.3H4c.16 0 .4 0 .4-.3S4.18-.6 4-.6h-.9zm0 0"/></symbol><symbol id="O" overflow="visible"><path d="M.67-.58C.57-.5.52-.45.52-.3c0 .31.25.31.4.31h3.4c.32 0 .38-.1.38-.4v-.27c0-.19 0-.4-.34-.4s-.34.18-.34.46H1.64c.6-.5 1.55-1.25 1.98-1.66.63-.56 1.08-1.18 1.08-1.98 0-1.2-1-1.95-2.22-1.95-1.17 0-1.96.8-1.96 1.67a.45.45 0 1 0 .89.03.4.4 0 0 0-.14-.33c.15-.45.62-.76 1.17-.76.8 0 1.58.45 1.58 1.34 0 .69-.49 1.27-1.15 1.81zm0 0"/></symbol><symbol id="P" overflow="visible"><path d="M3.66-3.33c.56-.36.84-.92.84-1.47 0-.73-.73-1.4-1.87-1.4-1.2 0-1.9.48-1.9 1.17 0 .33.26.47.44.47a.44.44 0 0 0 .44-.46q-.02-.21-.08-.26c.3-.31 1.02-.31 1.1-.31.68 0 1.18.36 1.18.8 0 .3-.15.65-.42.87-.31.26-.56.28-.92.3-.58.04-.72.04-.72.32 0 .32.23.32.39.32h.47c.98 0 1.48.67 1.48 1.25 0 .6-.56 1.23-1.46 1.23-.4 0-1.16-.11-1.43-.58.05-.04.13-.1.13-.31a.44.44 0 0 0-.44-.44c-.23 0-.45.16-.45.47 0 .9.97 1.47 2.19 1.47 1.3 0 2.15-.92 2.15-1.84 0-.7-.47-1.3-1.12-1.6m0 0"/></symbol><symbol id="Q" overflow="visible"><path d="M.38-2.44C.3-2.3.3-2.28.3-2.08c0 .33.08.4.39.4H3.2v1.07h-.62c-.16 0-.4 0-.4.31 0 .3.26.3.4.3h1.8c.15 0 .4 0 .4-.3s-.25-.3-.4-.3h-.61v-1.1h.76c.16 0 .4 0 .4-.3s-.24-.3-.4-.3h-.76v-3.5c0-.34-.08-.41-.43-.41h-.26c-.25 0-.3 0-.42.2zm.6.14L3.2-5.77v3.47zm0 0"/></symbol><symbol id="R" overflow="visible"><path d="M2.77-3.87c-.36 0-.8.06-1.2.28v-1.9h2.38c.16 0 .4 0 .4-.3s-.24-.3-.4-.3H1.28c-.33 0-.4.09-.4.4v2.66c0 .19 0 .4.32.4.18 0 .22-.04.3-.13q.4-.5 1.25-.5c.81 0 1.27.71 1.27 1.37 0 .8-.7 1.39-1.55 1.39-.28 0-.9-.08-1.19-.62.05-.05.13-.13.13-.33a.44.44 0 0 0-.44-.44c-.16 0-.45.1-.45.47C.52-.6 1.36.1 2.47.1c1.25 0 2.23-.9 2.23-2 0-1.02-.76-1.98-1.93-1.98m0 0"/></symbol><symbol id="C" overflow="visible"><path d="M1.8-1.45c0-.88.62-1.5 1.4-1.5.02.3.24.37.36.37.2 0 .36-.14.36-.37 0-.2-.14-.52-.76-.52-.72 0-1.16.42-1.36.61v-.23c0-.27-.08-.35-.35-.35H.6c-.1 0-.36 0-.36.27s.25.26.36.26h.6v2.38H.6c-.1 0-.36 0-.36.26S.48 0 .6 0h2.05c.13 0 .34 0 .34-.27s-.21-.26-.34-.26H1.8zm0 0"/></symbol><symbol id="D" overflow="visible"><path d="M3.4-1.5c.15 0 .35 0 .35-.3 0-.95-.55-1.7-1.58-1.7A1.75 1.75 0 0 0 .42-1.73c0 .95.8 1.78 1.88 1.78 1.09 0 1.45-.7 1.45-.9 0-.18-.14-.26-.31-.26-.13 0-.2.02-.3.19-.16.36-.55.44-.8.44-.57 0-1.17-.4-1.3-1.02zm-2.34-.52c.11-.56.6-.95 1.11-.95.72 0 .9.55.96.95zm0 0"/></symbol><symbol id="E" overflow="visible"><path d="M3.45-3.16c0-.12 0-.34-.26-.34-.19 0-.22.1-.25.14-.33-.14-.64-.14-.83-.14-1.36 0-1.53.67-1.53.95 0 .74.84.86 1.55.99.42.06 1.03.15 1.03.54 0 .3-.3.54-.99.54-.5 0-.81-.18-.98-.65-.05-.14-.08-.23-.3-.23-.31 0-.31.2-.31.34v.72c0 .11 0 .35.26.35.08 0 .22-.03.3-.27.4.27.86.27 1.02.27C3.52.05 3.69-.7 3.69-1a.9.9 0 0 0-.36-.72C3-1.95 2.69-2 2.14-2.09s-1.03-.18-1.03-.46c0-.15.19-.42.98-.42.72 0 .75.25.75.4.02.26.22.26.3.26.31 0 .31-.2.31-.35zm0 0"/></symbol><symbol id="F" overflow="visible"><path d="M3.47-2.9h.22c.1 0 .34 0 .34-.27s-.23-.27-.34-.27h-.94c-.12 0-.33 0-.33.27s.2.26.33.26h.19L2.1-.45l-.83-2.46h.19c.12 0 .34 0 .34-.26s-.22-.27-.34-.27H.55c-.13 0-.35 0-.35.27s.22.26.35.26h.2l.9 2.64c.1.32.29.32.46.32s.36 0 .47-.32zm0 0"/></symbol><symbol id="G" overflow="visible"><path d="M3.47-4.53c0-.27-.08-.34-.35-.34h-.59c-.12 0-.34 0-.34.26s.22.27.34.27h.33v1.2a1.4 1.4 0 0 0-.92-.33c-.88 0-1.67.75-1.67 1.75C.27-.73 1 .05 1.87.05c.43 0 .75-.2.99-.43 0 .22 0 .38.34.38h.6c.12 0 .34 0 .34-.27s-.22-.26-.34-.26h-.33zm-.61 2.97c0 .45-.36 1.08-.97 1.08-.53 0-1.01-.54-1.01-1.24s.53-1.23 1.1-1.23c.47 0 .88.4.88.84zm0 0"/></symbol><g clip-path="url(#a)"><path fill="#add2ff" d="M27.48 32.34V12.5H352.9v19.84zm0 0"/></g><g clip-path="url(#b)"><path fill="#fbe963" d="M27.48 32.34V12.5h40.68v19.84zm0 0"/></g><g clip-path="url(#c)"><path fill="#e8e8e8" d="M68.16 32.34V12.5h40.68v19.84zm0 0"/></g><g clip-path="url(#d)"><path fill="none" stroke="#000" stroke-miterlimit="10" stroke-width=".4" d="M27.48 32.34V12.5H352.9v19.84zm0 0"/></g><g clip-path="url(#e)"><path fill="none" stroke="#000" stroke-miterlimit="10" stroke-width=".4" d="M68.16 32.34V12.5"/></g><g clip-path="url(#f)"><path fill="none" stroke="#000" stroke-miterlimit="10" stroke-width=".4" d="M108.84 32.34V12.5"/></g><g clip-path="url(#g)"><path fill="none" stroke="#000" stroke-miterlimit="10" stroke-width=".4" d="M149.52 32.34V12.5"/></g><g clip-path="url(#h)"><path fill="none" stroke="#000" stroke-miterlimit="10" stroke-width=".4" d="M190.2 32.34V12.5"/></g><g clip-path="url(#i)"><path fill="none" stroke="#000" stroke-miterlimit="10" stroke-width=".4" d="M230.87 32.34V12.5"/></g><g clip-path="url(#j)"><path fill="none" stroke="#000" stroke-miterlimit="10" stroke-width=".4" d="M271.55 32.34V12.5"/></g><g clip-path="url(#k)"><path fill="none" stroke="#000" stroke-miterlimit="10" stroke-width=".4" d="M312.22 32.34V12.5"/></g><g fill="#ccc"><use x="3.98" y="9.35" href="#l"/><use x="8.8" y="9.35" href="#m"/><use x="12.74" y="9.35" href="#n"/><use x="15.41" y="9.35" href="#o"/><use x="19.32" y="9.35" href="#p"/><use x="45.61" y="10.24" href="#q"/><use x="86.28" y="10.27" href="#r"/><use x="126.96" y="10.27" href="#s"/><use x="167.64" y="10.24" href="#t"/><use x="208.31" y="10.07" href="#u"/><use x="248.99" y="10.19" href="#v"/><use x="289.67" y="10.35" href="#w"/><use x="330.34" y="10.07" href="#x"/></g><use x="37.36" y="25.05" href="#y"/><use x="42.59" y="25.05" href="#z"/><use x="47.82" y="25.05" href="#A"/><use x="53.05" y="25.05" href="#B"/><g fill="#666"><use x="71.56" y="25.05" href="#C"/><use x="75.8" y="25.05" href="#D"/><use x="80.03" y="25.05" href="#E"/><use x="84.27" y="25.05" href="#D"/><use x="88.5" y="25.05" href="#C"/><use x="92.73" y="25.05" href="#F"/><use x="96.97" y="25.05" href="#D"/><use x="101.2" y="25.05" href="#G"/></g><use x="113.48" y="25.47" href="#H"/><use x="118.71" y="25.47" href="#I"/><use x="123.94" y="25.47" href="#J"/><use x="129.18" y="25.47" href="#K"/><use x="134.41" y="25.47" href="#L"/><use x="139.64" y="25.47" href="#M"/><use x="154.16" y="25.47" href="#H"/><use x="159.39" y="25.47" href="#I"/><use x="164.62" y="25.47" href="#J"/><use x="169.85" y="25.47" href="#K"/><use x="175.08" y="25.47" href="#N"/><use x="180.31" y="25.47" href="#M"/><use x="194.84" y="25.47" href="#H"/><use x="200.07" y="25.47" href="#I"/><use x="205.3" y="25.47" href="#J"/><use x="210.53" y="25.47" href="#K"/><use x="215.76" y="25.47" href="#O"/><use x="220.99" y="25.47" href="#M"/><use x="235.51" y="25.47" href="#H"/><use x="240.74" y="25.47" href="#I"/><use x="245.97" y="25.47" href="#J"/><use x="251.21" y="25.47" href="#K"/><use x="256.44" y="25.47" href="#P"/><use x="261.67" y="25.47" href="#M"/><use x="276.19" y="25.47" href="#H"/><use x="281.42" y="25.47" href="#I"/><use x="286.65" y="25.47" href="#J"/><use x="291.88" y="25.47" href="#K"/><use x="297.11" y="25.47" href="#Q"/><use x="302.34" y="25.47" href="#M"/><use x="316.87" y="25.47" href="#H"/><use x="322.1" y="25.47" href="#I"/><use x="327.33" y="25.47" href="#J"/><use x="332.56" y="25.47" href="#K"/><use x="337.79" y="25.47" href="#R"/><use x="343.02" y="25.47" href="#M"/></svg>