<svg xmlns="http://www.w3.org/2000/svg" width="827.55" height="58.57" viewBox="0 0 344.81 32.54"><clipPath id="a"><path d="M27 12h317.81v20.54H27zm0 0"/></clipPath><clipPath id="b"><path d="M27 12h20v20.54H27zm0 0"/></clipPath><clipPath id="c"><path d="M46 12h2v20.54h-2zm0 0"/></clipPath><clipPath id="d"><path d="M49 12h1v20.54h-1zm0 0"/></clipPath><clipPath id="e"><path d="M51 12h2v20.54h-2zm0 0"/></clipPath><clipPath id="f"><path d="M54 12h1v20.54h-1zm0 0"/></clipPath><clipPath id="g"><path d="M56 12h2v20.54h-2zm0 0"/></clipPath><clipPath id="h"><path d="M59 12h1v20.54h-1zm0 0"/></clipPath><clipPath id="i"><path d="M61 12h2v20.54h-2zm0 0"/></clipPath><clipPath id="j"><path d="M64 12h1v20.54h-1zm0 0"/></clipPath><clipPath id="k"><path d="M66 12h2v20.54h-2zm0 0"/></clipPath><clipPath id="l"><path d="M69 12h1v20.54h-1zm0 0"/></clipPath><clipPath id="m"><path d="M71 12h1v20.54h-1zm0 0"/></clipPath><clipPath id="n"><path d="M74 12h1v20.54h-1zm0 0"/></clipPath><clipPath id="o"><path d="M76 12h1v20.54h-1zm0 0"/></clipPath><clipPath id="p"><path d="M79 12h1v20.54h-1zm0 0"/></clipPath><clipPath id="q"><path d="M81 12h1v20.54h-1zm0 0"/></clipPath><clipPath id="r"><path d="M83 12h2v20.54h-2zm0 0"/></clipPath><clipPath id="s"><path d="M86 12h1v20.54h-1zm0 0"/></clipPath><clipPath id="t"><path d="M88 12h2v20.54h-2zm0 0"/></clipPath><clipPath id="u"><path d="M91 12h1v20.54h-1zm0 0"/></clipPath><clipPath id="v"><path d="M93 12h2v20.54h-2zm0 0"/></clipPath><clipPath id="w"><path d="M96 12h1v20.54h-1zm0 0"/></clipPath><clipPath id="x"><path d="M98 12h2v20.54h-2zm0 0"/></clipPath><clipPath id="y"><path d="M101 12h1v20.54h-1zm0 0"/></clipPath><clipPath id="z"><path d="M103 12h2v20.54h-2zm0 0"/></clipPath><clipPath id="A"><path d="M106 12h1v20.54h-1zm0 0"/></clipPath><clipPath id="B"><path d="M108 12h2v20.54h-2zm0 0"/></clipPath><clipPath id="C"><path d="M111 12h1v20.54h-1zm0 0"/></clipPath><clipPath id="D"><path d="M113 12h2v20.54h-2zm0 0"/></clipPath><clipPath id="E"><path d="M116 12h1v20.54h-1zm0 0"/></clipPath><clipPath id="F"><path d="M118 12h2v20.54h-2zm0 0"/></clipPath><clipPath id="G"><path d="M121 12h1v20.54h-1zm0 0"/></clipPath><clipPath id="H"><path d="M123 12h2v20.54h-2zm0 0"/></clipPath><clipPath id="I"><path d="M126 12h1v20.54h-1zm0 0"/></clipPath><clipPath id="J"><path d="M128 12h2v20.54h-2zm0 0"/></clipPath><clipPath id="K"><path d="M131 12h1v20.54h-1zm0 0"/></clipPath><clipPath id="L"><path d="M133 12h1v20.54h-1zm0 0"/></clipPath><clipPath id="M"><path d="M136 12h1v20.54h-1zm0 0"/></clipPath><clipPath id="N"><path d="M138 12h1v20.54h-1zm0 0"/></clipPath><clipPath id="O"><path d="M141 12h1v20.54h-1zm0 0"/></clipPath><clipPath id="P"><path d="M143 12h1v20.54h-1zm0 0"/></clipPath><clipPath id="Q"><path d="M145 12h2v20.54h-2zm0 0"/></clipPath><clipPath id="R"><path d="M148 12h1v20.54h-1zm0 0"/></clipPath><clipPath id="S"><path d="M150 12h2v20.54h-2zm0 0"/></clipPath><clipPath id="T"><path d="M153 12h1v20.54h-1zm0 0"/></clipPath><clipPath id="U"><path d="M155 12h2v20.54h-2zm0 0"/></clipPath><clipPath id="V"><path d="M158 12h1v20.54h-1zm0 0"/></clipPath><clipPath id="W"><path d="M160 12h2v20.54h-2zm0 0"/></clipPath><clipPath id="X"><path d="M163 12h1v20.54h-1zm0 0"/></clipPath><clipPath id="Y"><path d="M165 12h2v20.54h-2zm0 0"/></clipPath><clipPath id="Z"><path d="M168 12h1v20.54h-1zm0 0"/></clipPath><clipPath id="aa"><path d="M170 12h2v20.54h-2zm0 0"/></clipPath><clipPath id="ab"><path d="M173 12h1v20.54h-1zm0 0"/></clipPath><clipPath id="ac"><path d="M175 12h2v20.54h-2zm0 0"/></clipPath><clipPath id="ad"><path d="M178 12h1v20.54h-1zm0 0"/></clipPath><clipPath id="ae"><path d="M180 12h2v20.54h-2zm0 0"/></clipPath><clipPath id="af"><path d="M183 12h1v20.54h-1zm0 0"/></clipPath><clipPath id="ag"><path d="M185 12h2v20.54h-2zm0 0"/></clipPath><clipPath id="ah"><path d="M188 12h1v20.54h-1zm0 0"/></clipPath><clipPath id="ai"><path d="M190 12h2v20.54h-2zm0 0"/></clipPath><clipPath id="aj"><path d="M193 12h1v20.54h-1zm0 0"/></clipPath><clipPath id="ak"><path d="M195 12h1v20.54h-1zm0 0"/></clipPath><clipPath id="al"><path d="M198 12h1v20.54h-1zm0 0"/></clipPath><clipPath id="am"><path d="M200 12h1v20.54h-1zm0 0"/></clipPath><clipPath id="an"><path d="M203 12h1v20.54h-1zm0 0"/></clipPath><clipPath id="ao"><path d="M205 12h1v20.54h-1zm0 0"/></clipPath><clipPath id="ap"><path d="M208 12h1v20.54h-1zm0 0"/></clipPath><clipPath id="aq"><path d="M210 12h1v20.54h-1zm0 0"/></clipPath><clipPath id="ar"><path d="M212 12h2v20.54h-2zm0 0"/></clipPath><clipPath id="as"><path d="M215 12h1v20.54h-1zm0 0"/></clipPath><clipPath id="at"><path d="M217 12h2v20.54h-2zm0 0"/></clipPath><clipPath id="au"><path d="M220 12h1v20.54h-1zm0 0"/></clipPath><clipPath id="av"><path d="M222 12h2v20.54h-2zm0 0"/></clipPath><clipPath id="aw"><path d="M225 12h1v20.54h-1zm0 0"/></clipPath><clipPath id="ax"><path d="M227 12h2v20.54h-2zm0 0"/></clipPath><clipPath id="ay"><path d="M230 12h1v20.54h-1zm0 0"/></clipPath><clipPath id="az"><path d="M232 12h2v20.54h-2zm0 0"/></clipPath><clipPath id="aA"><path d="M235 12h1v20.54h-1zm0 0"/></clipPath><clipPath id="aB"><path d="M237 12h2v20.54h-2zm0 0"/></clipPath><clipPath id="aC"><path d="M240 12h1v20.54h-1zm0 0"/></clipPath><clipPath id="aD"><path d="M242 12h2v20.54h-2zm0 0"/></clipPath><clipPath id="aE"><path d="M245 12h1v20.54h-1zm0 0"/></clipPath><clipPath id="aF"><path d="M247 12h2v20.54h-2zm0 0"/></clipPath><clipPath id="aG"><path d="M250 12h1v20.54h-1zm0 0"/></clipPath><clipPath id="aH"><path d="M252 12h2v20.54h-2zm0 0"/></clipPath><clipPath id="aI"><path d="M255 12h1v20.54h-1zm0 0"/></clipPath><clipPath id="aJ"><path d="M257 12h2v20.54h-2zm0 0"/></clipPath><clipPath id="aK"><path d="M260 12h1v20.54h-1zm0 0"/></clipPath><clipPath id="aL"><path d="M262 12h1v20.54h-1zm0 0"/></clipPath><clipPath id="aM"><path d="M265 12h1v20.54h-1zm0 0"/></clipPath><clipPath id="aN"><path d="M267 12h1v20.54h-1zm0 0"/></clipPath><clipPath id="aO"><path d="M270 12h1v20.54h-1zm0 0"/></clipPath><clipPath id="aP"><path d="M272 12h1v20.54h-1zm0 0"/></clipPath><clipPath id="aQ"><path d="M274 12h2v20.54h-2zm0 0"/></clipPath><clipPath id="aR"><path d="M277 12h1v20.54h-1zm0 0"/></clipPath><clipPath id="aS"><path d="M279 12h2v20.54h-2zm0 0"/></clipPath><clipPath id="aT"><path d="M282 12h1v20.54h-1zm0 0"/></clipPath><clipPath id="aU"><path d="M284 12h2v20.54h-2zm0 0"/></clipPath><clipPath id="aV"><path d="M287 12h1v20.54h-1zm0 0"/></clipPath><clipPath id="aW"><path d="M289 12h2v20.54h-2zm0 0"/></clipPath><clipPath id="aX"><path d="M292 12h1v20.54h-1zm0 0"/></clipPath><clipPath id="aY"><path d="M294 12h2v20.54h-2zm0 0"/></clipPath><clipPath id="aZ"><path d="M297 12h1v20.54h-1zm0 0"/></clipPath><clipPath id="ba"><path d="M299 12h2v20.54h-2zm0 0"/></clipPath><clipPath id="bb"><path d="M302 12h1v20.54h-1zm0 0"/></clipPath><clipPath id="bc"><path d="M304 12h2v20.54h-2zm0 0"/></clipPath><clipPath id="bd"><path d="M307 12h1v20.54h-1zm0 0"/></clipPath><clipPath id="be"><path d="M309 12h2v20.54h-2zm0 0"/></clipPath><clipPath id="bf"><path d="M312 12h1v20.54h-1zm0 0"/></clipPath><clipPath id="bg"><path d="M314 12h2v20.54h-2zm0 0"/></clipPath><clipPath id="bh"><path d="M317 12h1v20.54h-1zm0 0"/></clipPath><clipPath id="bi"><path d="M319 12h2v20.54h-2zm0 0"/></clipPath><clipPath id="bj"><path d="M322 12h1v20.54h-1zm0 0"/></clipPath><clipPath id="bk"><path d="M324 12h1v20.54h-1zm0 0"/></clipPath><clipPath id="bl"><path d="M327 12h1v20.54h-1zm0 0"/></clipPath><clipPath id="bm"><path d="M329 12h1v20.54h-1zm0 0"/></clipPath><clipPath id="bn"><path d="M332 12h1v20.54h-1zm0 0"/></clipPath><clipPath id="bo"><path d="M334 12h1v20.54h-1zm0 0"/></clipPath><clipPath id="bp"><path d="M336 12h2v20.54h-2zm0 0"/></clipPath><clipPath id="bq"><path d="M339 12h1v20.54h-1zm0 0"/></clipPath><clipPath id="br"><path d="M341 12h2v20.54h-2zm0 0"/></clipPath><clipPath id="bs"><path d="M26 12h318.81v20.54H26zm0 0"/></clipPath><symbol id="bt" overflow="visible"><path d="M.27-5.34v.3l.45.06.14.1v4.4l-.14.12-.45.03V0h2.09c1.36 0 2.1-.56 2.1-1.56 0-.78-.55-1.27-1.5-1.28q1.16-.3 1.16-1.22 0-1.3-1.82-1.28zm1.3 2.42v-2.05L2.02-5q1.31 0 1.3.97c0 .78-.45 1.1-1.45 1.1zm0 2.53v-2.14q.46-.05.77-.05 1.34 0 1.33 1.08c0 .8-.5 1.12-1.56 1.12zm0 0"/></symbol><symbol id="bu" overflow="visible"><path d="M-.02-3.83v.3l.5.05L1.81-.03q-.3.85-.64 1.19L.41.86a.6.6 0 0 0-.2.44c0 .25.21.44.54.44.52 0 .9-.44 1.28-1.35l1.6-3.86.45-.06v-.3H2.66v.3l.43.03.07.13-1 2.47-.96-2.47.1-.13.42-.03v-.3zm0 0"/></symbol><symbol id="bv" overflow="visible"><path d="M.7-3.36v2.58c0 .56.18.81.83.81q.47 0 1.05-.18v-.3a2 2 0 0 1-.55.08c-.56 0-.67-.27-.67-.88v-2.1h1.22v-.38H1.36v-.85h-.3l-.34.75-.52.22v.25zm0 0"/></symbol><symbol id="bw" overflow="visible"><path d="M3.56-.84c-.45.3-.84.47-1.25.47-.8 0-1.33-.61-1.33-1.64v-.08h2.58v-.25c0-.99-.56-1.57-1.42-1.57C1.06-3.9.3-3.09.3-1.89.3-.72 1.02.08 2.08.08q.76 0 1.48-.49zm-.7-1.6H1.02c.04-.67.5-1.1 1.01-1.1q.81.01.83.98zm0 0"/></symbol><symbol id="bx" overflow="visible"><path d="M2.73-3.73a2 2 0 0 0-.92-.18C.91-3.9.4-3.5.4-2.8c0 .53.36.78 1.03 1.1.53.23.81.37.81.8 0 .37-.28.63-.75.63q-.33 0-.67-.18l-.1-.67H.34V-.1q.43.16 1.04.17c.94 0 1.49-.45 1.49-1.2q0-.46-.3-.7c-.26-.21-.58-.32-.84-.45-.45-.21-.69-.39-.69-.73 0-.36.25-.56.67-.56q.28 0 .58.15l.06.57h.4zm0 0"/></symbol><symbol id="by" overflow="visible"><path d="M2.22-5.44c-1.14 0-1.9 1-1.9 2.77 0 1.75.76 2.76 1.9 2.76S4.1-.92 4.1-2.67c0-1.77-.75-2.77-1.9-2.77zm0 .38q1.1.01 1.12 2.39C3.36-.3 2.95-.28 2.22-.28s-1.14-.81-1.14-2.4.4-2.38 1.14-2.38m0 0"/></symbol><symbol id="bz" overflow="visible"><path d="m2.48-5.44-1.73.52v.33L2-4.81v4.28l-.1.14-.92.05V0h2.68v-.33L2.8-.37 2.7-.5v-4.94zm0 0"/></symbol><symbol id="bA" overflow="visible"><path d="M1.13-.62c1.76-1.41 2.71-2.32 2.71-3.32 0-.9-.62-1.5-1.65-1.5C1.2-5.44.5-4.87.5-4.3q.02.41.45.43A.6.6 0 0 0 1.31-4v-.84q.36-.2.7-.2c.66 0 1.07.45 1.07 1.21 0 1.05-1 1.9-2.75 3.33V0h3.7v-1.31h-.36l-.15.69zm0 0"/></symbol><symbol id="bB" overflow="visible"><path d="M2.53-2.81q1.18-.34 1.19-1.3c0-.8-.63-1.33-1.58-1.33-1 0-1.67.53-1.67 1.07 0 .25.17.42.42.42a.5.5 0 0 0 .33-.11v-.75a1.3 1.3 0 0 1 .75-.22c.62 0 1.01.4 1.01 1.03 0 .64-.42 1.03-1.23 1.03l-.17-.01v.46l.44-.03c.75 0 1.17.38 1.17 1 0 .7-.53 1.27-1.25 1.27a1 1 0 0 1-.67-.2l-.25-.68Q.87-1.2.77-1.19c-.25 0-.44.17-.44.4C.33-.37.95.1 1.9.1c1.22 0 2.01-.73 2.01-1.62 0-.72-.51-1.22-1.39-1.28zm0 0"/></symbol><symbol id="bC" overflow="visible"><path d="M2.94-5.39.22-2.06v.51h2.56V.3h.61v-1.85h.9v-.51h-.9V-5.4zm-.16.86v2.47H.81zm0 0"/></symbol><symbol id="bD" overflow="visible"><path d="M.81-5.34v2.62a4 4 0 0 1 .69-.05q1.66-.02 1.66 1.2c0 .74-.5 1.27-1.25 1.27a2 2 0 0 1-.54-.1l-.32-.68-.2-.01a.42.42 0 0 0-.45.42c0 .37.56.75 1.38.75C3.08.08 3.9-.7 3.9-1.73c0-.91-.67-1.54-1.73-1.54q-.4 0-.86.14v-1.59h2.36v-.62zm0 0"/></symbol><symbol id="bE" overflow="visible"><path d="M3.53-5.69C1.58-5.56.4-4.25.4-2.2.4-.77 1.17.1 2.25.1a1.9 1.9 0 0 0 1.94-1.91c0-1.02-.72-1.74-1.66-1.74a2.3 2.3 0 0 0-1.36.49c.25-1.42 1.06-2.17 2.33-2.17h.03zM1.16-2.7q.5-.37 1.15-.36c.67 0 1.14.5 1.14 1.33S2.98-.28 2.31-.28c-.75 0-1.17-.67-1.17-1.94zm0 0"/></symbol><symbol id="bF" overflow="visible"><path d="M.56-5.34v1.32h.38l.12-.71h2.46L.92.3h.66V.13l2.65-5.16v-.31zm0 0"/></symbol><symbol id="bG" overflow="visible"><path d="M2.56-2.94c-.87-.31-1.3-.67-1.3-1.2s.43-.94.97-.94c.58 0 .97.4.97 1.03 0 .42-.23.83-.64 1.11m.33.14c.6-.3.92-.8.92-1.33 0-.76-.6-1.32-1.56-1.32-.98 0-1.64.6-1.64 1.43q0 .88.83 1.24-1.09.4-1.1 1.37c0 .9.7 1.54 1.85 1.54 1.1 0 1.84-.7 1.84-1.55q0-.96-1.14-1.38m-1.14.17c1.06.41 1.6.66 1.6 1.29S2.9-.28 2.21-.28C1.45-.28.97-.75.97-1.45c0-.53.23-.88.78-1.17zm0 0"/></symbol><symbol id="bH" overflow="visible"><path d="M3.28-2.55q-.54.29-1.01.28c-.75 0-1.18-.48-1.18-1.37 0-.88.47-1.4 1.13-1.4.72 0 1.16.57 1.16 1.7q0 .37-.1.8M1 .42C2.97-.33 4.08-1.8 4.08-3.39c0-1.28-.67-2.03-1.8-2.03-1.14 0-1.94.78-1.94 1.87 0 1.03.68 1.72 1.63 1.72q.53 0 1.2-.31Q2.66-.8.83.05zm0 0"/></symbol><symbol id="bI" overflow="visible"><path d="M3.7-2.4c0-.18 0-1.07-.72-1.07a1 1 0 0 0-.8.4.6.6 0 0 0-.6-.4 1 1 0 0 0-.67.25c-.05-.22-.24-.22-.35-.22H.3c-.11 0-.35 0-.35.27s.2.26.46.26v2.38c-.25 0-.46 0-.46.26S.2 0 .3 0H1c.13 0 .34 0 .34-.27S1.16-.53.91-.53v-1.39c0-.66.34-1.03.65-1.03q.25 0 .25.6v1.82c-.08 0-.31 0-.31.27s.22.26.34.26h.57c.12 0 .34 0 .34-.27s-.19-.26-.45-.26v-1.39c0-.66.34-1.03.67-1.03q.24 0 .25.6v1.82c-.1 0-.31 0-.31.27s.21.26.34.26h.56c.11 0 .35 0 .35-.27s-.2-.26-.46-.26zm0 0"/></symbol><symbol id="bJ" overflow="visible"><path d="M3.78-1.72c0-.97-.75-1.78-1.67-1.78S.44-2.69.44-1.72C.44-.72 1.2.05 2.1.05s1.67-.77 1.67-1.77M2.11-.48c-.58 0-1.06-.57-1.06-1.3 0-.69.5-1.19 1.06-1.19s1.06.5 1.06 1.19c0 .73-.48 1.3-1.06 1.3m0 0"/></symbol><symbol id="bK" overflow="visible"><path d="M3.47-4.53c0-.27-.08-.34-.35-.34h-.59c-.12 0-.34 0-.34.26s.22.27.34.27h.33v1.2a1.4 1.4 0 0 0-.92-.33c-.88 0-1.67.75-1.67 1.75C.27-.73 1 .05 1.87.05c.43 0 .75-.2.99-.43 0 .22 0 .38.34.38h.6c.12 0 .34 0 .34-.27s-.22-.26-.34-.26h-.33zm-.61 2.97c0 .45-.36 1.08-.97 1.08-.53 0-1.01-.54-1.01-1.24s.53-1.23 1.1-1.23c.47 0 .88.4.88.84zm0 0"/></symbol><symbol id="bL" overflow="visible"><path d="M3.45-3.16c0-.12 0-.34-.26-.34-.19 0-.22.1-.25.14-.33-.14-.64-.14-.83-.14-1.36 0-1.53.67-1.53.95 0 .74.84.86 1.55.99.42.06 1.03.15 1.03.54 0 .3-.3.54-.99.54-.5 0-.81-.18-.98-.65-.05-.14-.08-.23-.3-.23-.31 0-.31.2-.31.34v.72c0 .11 0 .35.26.35.08 0 .22-.03.3-.27.4.27.86.27 1.02.27C3.52.05 3.69-.7 3.69-1a.9.9 0 0 0-.36-.72C3-1.95 2.69-2 2.14-2.09s-1.03-.18-1.03-.46c0-.15.19-.42.98-.42.72 0 .75.25.75.4.02.26.22.26.3.26.31 0 .31-.2.31-.35zm0 0"/></symbol><symbol id="bM" overflow="visible"><path d="M3.64-6.95c0-.2 0-.5-.36-.5-.2 0-.26.1-.34.26-.22.52-.63 1.16-1.25 1.2-.19.02-.44.04-.44.35q0 .32.39.34c.67 0 1.19-.5 1.22-.53v5.14H1.81c-.17 0-.5 0-.5.35s.33.34.5.34H4.7c.17 0 .48 0 .48-.34S4.86-.7 4.7-.7H3.64zm0 0"/></symbol><symbol id="bN" overflow="visible"><path d="M4.16-2.62c.17-.14 1.37-1.18 1.37-2.5 0-1.36-1.12-2.33-2.6-2.33C1.52-7.45.6-6.41.6-5.41c0 .5.42.55.48.55a.5.5 0 0 0 .49-.5c0-.22-.08-.3-.14-.34.17-.63.72-1.05 1.4-1.05 1.02 0 1.91.58 1.91 1.63 0 .92-.7 1.64-1.34 2.2L.78-.64c-.14.11-.17.16-.17.3 0 .34.33.34.48.34h4.18c.26-.08.26-.31.26-.48v-.25c0-.22 0-.5-.37-.5-.41 0-.41.25-.41.54H1.88zm0 0"/></symbol><symbol id="bO" overflow="visible"><path d="M5.55-3.64c0-2.23-1.2-3.81-2.47-3.81-1.31 0-2.49 1.6-2.49 3.8C.6-1.45 1.78.13 3.08.13s2.47-1.6 2.47-3.78zM3.08-.54c-.95 0-1.7-1.46-1.7-3.24s.82-2.97 1.7-2.97c.86 0 1.69 1.19 1.69 2.97 0 1.76-.75 3.23-1.7 3.23m0 0"/></symbol><symbol id="bP" overflow="visible"><path d="M1.92-6.81c0-.38-.06-.49-.47-.49h-.8c-.17 0-.48 0-.48.35s.31.34.49.34h.48v6.13c0 .2 0 .48.4.48.38 0 .38-.25.38-.6.3.32.74.68 1.4.68C4.6.08 5.7-1.06 5.7-2.58c0-1.47-1-2.64-2.25-2.64a2 2 0 0 0-1.53.64zm0 3.64c0-.69.67-1.36 1.46-1.36.86 0 1.54.87 1.54 1.95 0 1.14-.81 1.95-1.65 1.95-.91 0-1.35-1.01-1.35-1.6zm0 0"/></symbol><symbol id="bQ" overflow="visible"><path d="M3.61-6.78a.53.53 0 0 0-.53-.53c-.31 0-.55.23-.55.53s.24.55.55.55a.54.54 0 0 0 .53-.55M1.55-5.16c-.16 0-.47 0-.47.35 0 .36.31.36.47.36h1.28V-.7H1.47c-.17 0-.49 0-.49.35s.32.34.49.34H4.8c.15 0 .47 0 .47-.34S4.95-.7 4.8-.7H3.6v-3.97c0-.37-.08-.5-.48-.5zm0 0"/></symbol><symbol id="bR" overflow="visible"><path d="M2.58-4.45h1.94c.17 0 .48 0 .48-.36 0-.35-.31-.35-.48-.35H2.58v-.97c0-.21 0-.5-.38-.5-.39 0-.39.29-.39.5v.97H.78c-.16 0-.48 0-.48.35 0 .36.3.36.48.36h1.03v3c0 1.12.75 1.53 1.63 1.53.64 0 1.83-.33 1.83-1.55 0-.23 0-.5-.41-.5-.38 0-.38.27-.38.52-.01.72-.68.82-.97.82-.93 0-.93-.59-.93-.87zm0 0"/></symbol><symbol id="bS" overflow="visible"><path d="M5.02-4.81c0-.19 0-.46-.33-.46-.28 0-.36.29-.36.3-.49-.3-1.03-.3-1.27-.3-1.95 0-2.22 1-2.22 1.41 0 .48.3.83.7 1.05.38.22.73.28 1.71.44.47.07 1.42.23 1.42.89 0 .43-.4.86-1.51.86-.77 0-1.27-.3-1.52-1.16-.06-.17-.1-.3-.39-.3-.4 0-.4.22-.4.47v1.24c0 .18 0 .45.34.45.14 0 .25 0 .42-.5.55.45 1.17.5 1.55.5 2.2 0 2.2-1.44 2.2-1.56 0-1.24-1.47-1.49-2.05-1.58-1.04-.17-1.76-.3-1.76-.8 0-.33.36-.7 1.48-.7 1.14 0 1.19.53 1.22.84.02.24.24.28.38.28.39 0 .39-.22.39-.45zm0 0"/></symbol><g clip-path="url(#a)"><path fill="#add2ff" d="M27.14 32.34V12.5h317.48v19.84zm0 0"/></g><g clip-path="url(#b)"><path fill="#fbe963" d="M27.14 32.34V12.5h19.84v19.84zm0 0"/></g><g clip-path="url(#c)"><path fill="none" stroke="#000" stroke-miterlimit="10" stroke-width=".4" d="M46.98 32.34V12.5"/></g><g clip-path="url(#d)"><path fill="none" stroke="#7088a6" stroke-miterlimit="10" stroke-width=".4" d="M49.46 32.34V12.5"/></g><g clip-path="url(#e)"><path fill="none" stroke="#7088a6" stroke-miterlimit="10" stroke-width=".4" d="M51.94 32.34V12.5"/></g><g clip-path="url(#f)"><path fill="none" stroke="#7088a6" stroke-miterlimit="10" stroke-width=".4" d="M54.42 32.34V12.5"/></g><g clip-path="url(#g)"><path fill="none" stroke="#7088a6" stroke-miterlimit="10" stroke-width=".4" d="M56.9 32.34V12.5"/></g><g clip-path="url(#h)"><path fill="none" stroke="#7088a6" stroke-miterlimit="10" stroke-width=".4" d="M59.38 32.34V12.5"/></g><g clip-path="url(#i)"><path fill="none" stroke="#7088a6" stroke-miterlimit="10" stroke-width=".4" d="M61.86 32.34V12.5"/></g><g clip-path="url(#j)"><path fill="none" stroke="#7088a6" stroke-miterlimit="10" stroke-width=".4" d="M64.34 32.34V12.5"/></g><g clip-path="url(#k)"><path fill="none" stroke="#000" stroke-miterlimit="10" stroke-width=".4" d="M66.82 32.34V12.5"/></g><g clip-path="url(#l)"><path fill="none" stroke="#7088a6" stroke-miterlimit="10" stroke-width=".4" d="M69.3 32.34V12.5"/></g><g clip-path="url(#m)"><path fill="none" stroke="#7088a6" stroke-miterlimit="10" stroke-width=".4" d="M71.78 32.34V12.5"/></g><g clip-path="url(#n)"><path fill="none" stroke="#7088a6" stroke-miterlimit="10" stroke-width=".4" d="M74.26 32.34V12.5"/></g><g clip-path="url(#o)"><path fill="none" stroke="#7088a6" stroke-miterlimit="10" stroke-width=".4" d="M76.74 32.34V12.5"/></g><g clip-path="url(#p)"><path fill="none" stroke="#7088a6" stroke-miterlimit="10" stroke-width=".4" d="M79.22 32.34V12.5"/></g><g clip-path="url(#q)"><path fill="none" stroke="#7088a6" stroke-miterlimit="10" stroke-width=".4" d="M81.7 32.34V12.5"/></g><g clip-path="url(#r)"><path fill="none" stroke="#7088a6" stroke-miterlimit="10" stroke-width=".4" d="M84.18 32.34V12.5"/></g><g clip-path="url(#s)"><path fill="none" stroke="#000" stroke-miterlimit="10" stroke-width=".4" d="M86.66 32.34V12.5"/></g><g clip-path="url(#t)"><path fill="none" stroke="#7088a6" stroke-miterlimit="10" stroke-width=".4" d="M89.15 32.34V12.5"/></g><g clip-path="url(#u)"><path fill="none" stroke="#7088a6" stroke-miterlimit="10" stroke-width=".4" d="M91.63 32.34V12.5"/></g><g clip-path="url(#v)"><path fill="none" stroke="#7088a6" stroke-miterlimit="10" stroke-width=".4" d="M94.1 32.34V12.5"/></g><g clip-path="url(#w)"><path fill="none" stroke="#7088a6" stroke-miterlimit="10" stroke-width=".4" d="M96.59 32.34V12.5"/></g><g clip-path="url(#x)"><path fill="none" stroke="#7088a6" stroke-miterlimit="10" stroke-width=".4" d="M99.07 32.34V12.5"/></g><g clip-path="url(#y)"><path fill="none" stroke="#7088a6" stroke-miterlimit="10" stroke-width=".4" d="M101.55 32.34V12.5"/></g><g clip-path="url(#z)"><path fill="none" stroke="#7088a6" stroke-miterlimit="10" stroke-width=".4" d="M104.03 32.34V12.5"/></g><g clip-path="url(#A)"><path fill="none" stroke="#000" stroke-miterlimit="10" stroke-width=".4" d="M106.5 32.34V12.5"/></g><g clip-path="url(#B)"><path fill="none" stroke="#7088a6" stroke-miterlimit="10" stroke-width=".4" d="M108.99 32.34V12.5"/></g><g clip-path="url(#C)"><path fill="none" stroke="#7088a6" stroke-miterlimit="10" stroke-width=".4" d="M111.47 32.34V12.5"/></g><g clip-path="url(#D)"><path fill="none" stroke="#7088a6" stroke-miterlimit="10" stroke-width=".4" d="M113.95 32.34V12.5"/></g><g clip-path="url(#E)"><path fill="none" stroke="#7088a6" stroke-miterlimit="10" stroke-width=".4" d="M116.43 32.34V12.5"/></g><g clip-path="url(#F)"><path fill="none" stroke="#7088a6" stroke-miterlimit="10" stroke-width=".4" d="M118.91 32.34V12.5"/></g><g clip-path="url(#G)"><path fill="none" stroke="#7088a6" stroke-miterlimit="10" stroke-width=".4" d="M121.39 32.34V12.5"/></g><g clip-path="url(#H)"><path fill="none" stroke="#7088a6" stroke-miterlimit="10" stroke-width=".4" d="M123.87 32.34V12.5"/></g><g clip-path="url(#I)"><path fill="none" stroke="#000" stroke-miterlimit="10" stroke-width=".4" d="M126.35 32.34V12.5"/></g><g clip-path="url(#J)"><path fill="none" stroke="#7088a6" stroke-miterlimit="10" stroke-width=".4" d="M128.83 32.34V12.5"/></g><g clip-path="url(#K)"><path fill="none" stroke="#7088a6" stroke-miterlimit="10" stroke-width=".4" d="M131.3 32.34V12.5"/></g><g clip-path="url(#L)"><path fill="none" stroke="#7088a6" stroke-miterlimit="10" stroke-width=".4" d="M133.79 32.34V12.5"/></g><g clip-path="url(#M)"><path fill="none" stroke="#7088a6" stroke-miterlimit="10" stroke-width=".4" d="M136.27 32.34V12.5"/></g><g clip-path="url(#N)"><path fill="none" stroke="#7088a6" stroke-miterlimit="10" stroke-width=".4" d="M138.75 32.34V12.5"/></g><g clip-path="url(#O)"><path fill="none" stroke="#7088a6" stroke-miterlimit="10" stroke-width=".4" d="M141.23 32.34V12.5"/></g><g clip-path="url(#P)"><path fill="none" stroke="#7088a6" stroke-miterlimit="10" stroke-width=".4" d="M143.71 32.34V12.5"/></g><g clip-path="url(#Q)"><path fill="none" stroke="#000" stroke-miterlimit="10" stroke-width=".4" d="M146.2 32.34V12.5"/></g><g clip-path="url(#R)"><path fill="none" stroke="#7088a6" stroke-miterlimit="10" stroke-width=".4" d="M148.67 32.34V12.5"/></g><g clip-path="url(#S)"><path fill="none" stroke="#7088a6" stroke-miterlimit="10" stroke-width=".4" d="M151.15 32.34V12.5"/></g><g clip-path="url(#T)"><path fill="none" stroke="#7088a6" stroke-miterlimit="10" stroke-width=".4" d="M153.63 32.34V12.5"/></g><g clip-path="url(#U)"><path fill="none" stroke="#7088a6" stroke-miterlimit="10" stroke-width=".4" d="M156.11 32.34V12.5"/></g><g clip-path="url(#V)"><path fill="none" stroke="#7088a6" stroke-miterlimit="10" stroke-width=".4" d="M158.6 32.34V12.5"/></g><g clip-path="url(#W)"><path fill="none" stroke="#7088a6" stroke-miterlimit="10" stroke-width=".4" d="M161.07 32.34V12.5"/></g><g clip-path="url(#X)"><path fill="none" stroke="#7088a6" stroke-miterlimit="10" stroke-width=".4" d="M163.56 32.34V12.5"/></g><g clip-path="url(#Y)"><path fill="none" stroke="#000" stroke-miterlimit="10" stroke-width=".4" d="M166.04 32.34V12.5"/></g><g clip-path="url(#Z)"><path fill="none" stroke="#7088a6" stroke-miterlimit="10" stroke-width=".4" d="M168.52 32.34V12.5"/></g><g clip-path="url(#aa)"><path fill="none" stroke="#7088a6" stroke-miterlimit="10" stroke-width=".4" d="M171 32.34V12.5"/></g><g clip-path="url(#ab)"><path fill="none" stroke="#7088a6" stroke-miterlimit="10" stroke-width=".4" d="M173.48 32.34V12.5"/></g><g clip-path="url(#ac)"><path fill="none" stroke="#7088a6" stroke-miterlimit="10" stroke-width=".4" d="M175.96 32.34V12.5"/></g><g clip-path="url(#ad)"><path fill="none" stroke="#7088a6" stroke-miterlimit="10" stroke-width=".4" d="M178.44 32.34V12.5"/></g><g clip-path="url(#ae)"><path fill="none" stroke="#7088a6" stroke-miterlimit="10" stroke-width=".4" d="M180.92 32.34V12.5"/></g><g clip-path="url(#af)"><path fill="none" stroke="#7088a6" stroke-miterlimit="10" stroke-width=".4" d="M183.4 32.34V12.5"/></g><g clip-path="url(#ag)"><path fill="none" stroke="#000" stroke-miterlimit="10" stroke-width=".4" d="M185.88 32.34V12.5"/></g><g clip-path="url(#ah)"><path fill="none" stroke="#7088a6" stroke-miterlimit="10" stroke-width=".4" d="M188.36 32.34V12.5"/></g><g clip-path="url(#ai)"><path fill="none" stroke="#7088a6" stroke-miterlimit="10" stroke-width=".4" d="M190.84 32.34V12.5"/></g><g clip-path="url(#aj)"><path fill="none" stroke="#7088a6" stroke-miterlimit="10" stroke-width=".4" d="M193.32 32.34V12.5"/></g><g clip-path="url(#ak)"><path fill="none" stroke="#7088a6" stroke-miterlimit="10" stroke-width=".4" d="M195.8 32.34V12.5"/></g><g clip-path="url(#al)"><path fill="none" stroke="#7088a6" stroke-miterlimit="10" stroke-width=".4" d="M198.28 32.34V12.5"/></g><g clip-path="url(#am)"><path fill="none" stroke="#7088a6" stroke-miterlimit="10" stroke-width=".4" d="M200.76 32.34V12.5"/></g><g clip-path="url(#an)"><path fill="none" stroke="#7088a6" stroke-miterlimit="10" stroke-width=".4" d="M203.24 32.34V12.5"/></g><g clip-path="url(#ao)"><path fill="none" stroke="#000" stroke-miterlimit="10" stroke-width=".4" d="M205.72 32.34V12.5"/></g><g clip-path="url(#ap)"><path fill="none" stroke="#7088a6" stroke-miterlimit="10" stroke-width=".4" d="M208.2 32.34V12.5"/></g><g clip-path="url(#aq)"><path fill="none" stroke="#7088a6" stroke-miterlimit="10" stroke-width=".4" d="M210.68 32.34V12.5"/></g><g clip-path="url(#ar)"><path fill="none" stroke="#7088a6" stroke-miterlimit="10" stroke-width=".4" d="M213.16 32.34V12.5"/></g><g clip-path="url(#as)"><path fill="none" stroke="#7088a6" stroke-miterlimit="10" stroke-width=".4" d="M215.64 32.34V12.5"/></g><g clip-path="url(#at)"><path fill="none" stroke="#7088a6" stroke-miterlimit="10" stroke-width=".4" d="M218.12 32.34V12.5"/></g><g clip-path="url(#au)"><path fill="none" stroke="#7088a6" stroke-miterlimit="10" stroke-width=".4" d="M220.6 32.34V12.5"/></g><g clip-path="url(#av)"><path fill="none" stroke="#7088a6" stroke-miterlimit="10" stroke-width=".4" d="M223.08 32.34V12.5"/></g><g clip-path="url(#aw)"><path fill="none" stroke="#000" stroke-miterlimit="10" stroke-width=".4" d="M225.56 32.34V12.5"/></g><g clip-path="url(#ax)"><path fill="none" stroke="#7088a6" stroke-miterlimit="10" stroke-width=".4" d="M228.04 32.34V12.5"/></g><g clip-path="url(#ay)"><path fill="none" stroke="#7088a6" stroke-miterlimit="10" stroke-width=".4" d="M230.52 32.34V12.5"/></g><g clip-path="url(#az)"><path fill="none" stroke="#7088a6" stroke-miterlimit="10" stroke-width=".4" d="M233 32.34V12.5"/></g><g clip-path="url(#aA)"><path fill="none" stroke="#7088a6" stroke-miterlimit="10" stroke-width=".4" d="M235.48 32.34V12.5"/></g><g clip-path="url(#aB)"><path fill="none" stroke="#7088a6" stroke-miterlimit="10" stroke-width=".4" d="M237.97 32.34V12.5"/></g><g clip-path="url(#aC)"><path fill="none" stroke="#7088a6" stroke-miterlimit="10" stroke-width=".4" d="M240.45 32.34V12.5"/></g><g clip-path="url(#aD)"><path fill="none" stroke="#7088a6" stroke-miterlimit="10" stroke-width=".4" d="M242.93 32.34V12.5"/></g><g clip-path="url(#aE)"><path fill="none" stroke="#000" stroke-miterlimit="10" stroke-width=".4" d="M245.4 32.34V12.5"/></g><g clip-path="url(#aF)"><path fill="none" stroke="#7088a6" stroke-miterlimit="10" stroke-width=".4" d="M247.89 32.34V12.5"/></g><g clip-path="url(#aG)"><path fill="none" stroke="#7088a6" stroke-miterlimit="10" stroke-width=".4" d="M250.37 32.34V12.5"/></g><g clip-path="url(#aH)"><path fill="none" stroke="#7088a6" stroke-miterlimit="10" stroke-width=".4" d="M252.85 32.34V12.5"/></g><g clip-path="url(#aI)"><path fill="none" stroke="#7088a6" stroke-miterlimit="10" stroke-width=".4" d="M255.33 32.34V12.5"/></g><g clip-path="url(#aJ)"><path fill="none" stroke="#7088a6" stroke-miterlimit="10" stroke-width=".4" d="M257.8 32.34V12.5"/></g><g clip-path="url(#aK)"><path fill="none" stroke="#7088a6" stroke-miterlimit="10" stroke-width=".4" d="M260.29 32.34V12.5"/></g><g clip-path="url(#aL)"><path fill="none" stroke="#7088a6" stroke-miterlimit="10" stroke-width=".4" d="M262.77 32.34V12.5"/></g><g clip-path="url(#aM)"><path fill="none" stroke="#000" stroke-miterlimit="10" stroke-width=".4" d="M265.25 32.34V12.5"/></g><g clip-path="url(#aN)"><path fill="none" stroke="#7088a6" stroke-miterlimit="10" stroke-width=".4" d="M267.73 32.34V12.5"/></g><g clip-path="url(#aO)"><path fill="none" stroke="#7088a6" stroke-miterlimit="10" stroke-width=".4" d="M270.2 32.34V12.5"/></g><g clip-path="url(#aP)"><path fill="none" stroke="#7088a6" stroke-miterlimit="10" stroke-width=".4" d="M272.69 32.34V12.5"/></g><g clip-path="url(#aQ)"><path fill="none" stroke="#7088a6" stroke-miterlimit="10" stroke-width=".4" d="M275.17 32.34V12.5"/></g><g clip-path="url(#aR)"><path fill="none" stroke="#7088a6" stroke-miterlimit="10" stroke-width=".4" d="M277.65 32.34V12.5"/></g><g clip-path="url(#aS)"><path fill="none" stroke="#7088a6" stroke-miterlimit="10" stroke-width=".4" d="M280.13 32.34V12.5"/></g><g clip-path="url(#aT)"><path fill="none" stroke="#7088a6" stroke-miterlimit="10" stroke-width=".4" d="M282.61 32.34V12.5"/></g><g clip-path="url(#aU)"><path fill="none" stroke="#000" stroke-miterlimit="10" stroke-width=".4" d="M285.09 32.34V12.5"/></g><g clip-path="url(#aV)"><path fill="none" stroke="#7088a6" stroke-miterlimit="10" stroke-width=".4" d="M287.57 32.34V12.5"/></g><g clip-path="url(#aW)"><path fill="none" stroke="#7088a6" stroke-miterlimit="10" stroke-width=".4" d="M290.05 32.34V12.5"/></g><g clip-path="url(#aX)"><path fill="none" stroke="#7088a6" stroke-miterlimit="10" stroke-width=".4" d="M292.53 32.34V12.5"/></g><g clip-path="url(#aY)"><path fill="none" stroke="#7088a6" stroke-miterlimit="10" stroke-width=".4" d="M295.01 32.34V12.5"/></g><g clip-path="url(#aZ)"><path fill="none" stroke="#7088a6" stroke-miterlimit="10" stroke-width=".4" d="M297.5 32.34V12.5"/></g><g clip-path="url(#ba)"><path fill="none" stroke="#7088a6" stroke-miterlimit="10" stroke-width=".4" d="M299.97 32.34V12.5"/></g><g clip-path="url(#bb)"><path fill="none" stroke="#7088a6" stroke-miterlimit="10" stroke-width=".4" d="M302.45 32.34V12.5"/></g><g clip-path="url(#bc)"><path fill="none" stroke="#000" stroke-miterlimit="10" stroke-width=".4" d="M304.93 32.34V12.5"/></g><g clip-path="url(#bd)"><path fill="none" stroke="#7088a6" stroke-miterlimit="10" stroke-width=".4" d="M307.41 32.34V12.5"/></g><g clip-path="url(#be)"><path fill="none" stroke="#7088a6" stroke-miterlimit="10" stroke-width=".4" d="M309.9 32.34V12.5"/></g><g clip-path="url(#bf)"><path fill="none" stroke="#7088a6" stroke-miterlimit="10" stroke-width=".4" d="M312.38 32.34V12.5"/></g><g clip-path="url(#bg)"><path fill="none" stroke="#7088a6" stroke-miterlimit="10" stroke-width=".4" d="M314.86 32.34V12.5"/></g><g clip-path="url(#bh)"><path fill="none" stroke="#7088a6" stroke-miterlimit="10" stroke-width=".4" d="M317.34 32.34V12.5"/></g><g clip-path="url(#bi)"><path fill="none" stroke="#7088a6" stroke-miterlimit="10" stroke-width=".4" d="M319.82 32.34V12.5"/></g><g clip-path="url(#bj)"><path fill="none" stroke="#7088a6" stroke-miterlimit="10" stroke-width=".4" d="M322.3 32.34V12.5"/></g><g clip-path="url(#bk)"><path fill="none" stroke="#000" stroke-miterlimit="10" stroke-width=".4" d="M324.78 32.34V12.5"/></g><g clip-path="url(#bl)"><path fill="none" stroke="#7088a6" stroke-miterlimit="10" stroke-width=".4" d="M327.26 32.34V12.5"/></g><g clip-path="url(#bm)"><path fill="none" stroke="#7088a6" stroke-miterlimit="10" stroke-width=".4" d="M329.74 32.34V12.5"/></g><g clip-path="url(#bn)"><path fill="none" stroke="#7088a6" stroke-miterlimit="10" stroke-width=".4" d="M332.22 32.34V12.5"/></g><g clip-path="url(#bo)"><path fill="none" stroke="#7088a6" stroke-miterlimit="10" stroke-width=".4" d="M334.7 32.34V12.5"/></g><g clip-path="url(#bp)"><path fill="none" stroke="#7088a6" stroke-miterlimit="10" stroke-width=".4" d="M337.18 32.34V12.5"/></g><g clip-path="url(#bq)"><path fill="none" stroke="#7088a6" stroke-miterlimit="10" stroke-width=".4" d="M339.66 32.34V12.5"/></g><g clip-path="url(#br)"><path fill="none" stroke="#7088a6" stroke-miterlimit="10" stroke-width=".4" d="M342.14 32.34V12.5"/></g><g clip-path="url(#bs)"><path fill="none" stroke="#000" stroke-miterlimit="10" stroke-width=".4" d="M27.14 32.34V12.5h317.48v19.84zm0 0"/></g><g fill="#ccc"><use x="3.98" y="9.35" href="#bt"/><use x="8.8" y="9.35" href="#bu"/><use x="12.74" y="9.35" href="#bv"/><use x="15.41" y="9.35" href="#bw"/><use x="19.32" y="9.35" href="#bx"/><use x="34.84" y="10.24" href="#by"/><use x="54.68" y="10.27" href="#bz"/><use x="74.53" y="10.27" href="#bA"/><use x="94.37" y="10.24" href="#bB"/><use x="114.21" y="10.07" href="#bC"/><use x="134.05" y="10.19" href="#bD"/><use x="153.9" y="10.35" href="#bE"/><use x="173.74" y="10.07" href="#bF"/><use x="193.58" y="10.19" href="#bG"/><use x="213.42" y="10.06" href="#bH"/><use x="231.05" y="10.24" href="#bz"/><use x="235.48" y="10.24" href="#by"/><use x="250.89" y="10.27" href="#bz"/><use x="255.32" y="10.27" href="#bz"/><use x="270.74" y="10.27" href="#bz"/><use x="275.17" y="10.27" href="#bA"/><use x="290.58" y="10.24" href="#bz"/><use x="295.01" y="10.24" href="#bB"/><use x="310.42" y="10.12" href="#bz"/><use x="314.85" y="10.12" href="#bC"/><use x="330.26" y="10.24" href="#bz"/><use x="334.69" y="10.24" href="#bD"/></g><use x="28.59" y="24.67" href="#bI"/><use x="32.82" y="24.67" href="#bJ"/><use x="37.06" y="24.67" href="#bK"/><use x="41.29" y="24.67" href="#bL"/><path fill="#add2ff" d="M48.4 28.8h294.8V16.04H48.4zm0 0"/><use x="172.27" y="26.07" href="#bM"/><use x="178.42" y="26.07" href="#bN"/><use x="184.58" y="26.07" href="#bO"/><use x="194.71" y="26.07" href="#bP"/><use x="200.86" y="26.07" href="#bQ"/><use x="207.01" y="26.07" href="#bR"/><use x="213.17" y="26.07" href="#bS"/></svg>