<svg xmlns="http://www.w3.org/2000/svg" width="661.42" height="226.77" viewBox="0 0 496.06 170.08"><style>use{fill:#ccc!important}path[stroke=&quot;#000&quot;]{stroke:#ccc!important}path:not([fill]){fill:#ccc!important}</style><clipPath id="C"><path d="M382 32h114.06v131H382zm0 0"/></clipPath><symbol id="a" overflow="visible"><path d="M4.73-11.67.84-1l-1.03.16V0h3.7v-.84L2.43-.97l-.17-.22 1.03-2.9h3.77l1.03 2.92-.13.22-1.08.1V0h4.64v-.84l-1.01-.18-3.95-10.65zm.38 2.36 1.53 4.25H3.61zm0 0" style="fill:#000!important"/></symbol><symbol id="b" overflow="visible"><path d="M7.98-.78V-2q-1.26.78-2.39.78c-1.59 0-2.65-1.22-2.65-3.3 0-1.95 1.06-3.2 2.26-3.2q.18 0 .42.06v1.82q.46.33 1.02.32c.75 0 1.25-.5 1.25-1.17 0-1.04-1.08-1.87-2.84-1.87A4.3 4.3 0 0 0 .6-4.1C.6-1.6 2.23.14 4.73.14c1.11 0 2.16-.31 3.25-.92m0 0" style="fill:#000!important"/></symbol><symbol id="c" overflow="visible"><path d="m2.83-12.72-2.55.8v.67h1.25v10.14l-.23.27-.9.06V0h4.27v-.78l-.76-.06-.25-.27v-5.67a6 6 0 0 1 1.64-.3c1.07 0 1.56.6 1.56 1.86v4.11l-.25.27-.74.06V0h4.22v-.78l-.92-.06-.22-.27v-4.6q0-2.88-2.36-2.87c-.78 0-1.7.38-2.93 1.05v-5.19zm0 0" style="fill:#000!important"/></symbol><symbol id="d" overflow="visible"><path d="M5.1-8.6C2.38-8.6.63-6.82.63-4.18.64-1.58 2.38.14 4.95.14c2.72 0 4.47-1.73 4.47-4.3 0-2.73-1.69-4.43-4.33-4.43m-.07.93c1.22 0 2.02 1.22 2.02 3.47 0 2.23-.77 3.42-2.03 3.42-1.2 0-1.99-1.22-1.99-3.47 0-2.22.78-3.42 2-3.42m0 0" style="fill:#000!important"/></symbol><symbol id="e" overflow="visible"><path d="M.5 0h4.75v-.78L4.03-.84l-.26-.27v-4.94q.81-.48 1.23-.48.74-.01 1.11.62h.9l.22-2.37a2.6 2.6 0 0 0-1.51-.27q-1.07.76-2.02 1.77l.07-1.77h-.83L.4-7.73v.68h1.25v5.94l-.25.27-.91.06zm0 0" style="fill:#000!important"/></symbol><symbol id="f" overflow="visible"><path d="M6.7-11.23v2.8a8 8 0 0 0-1.62-.18C2.47-8.6.64-6.77.64-4 .64-1.52 2.04.16 3.98.16c.88 0 1.74-.4 2.72-1.13V0h3.22v-.75l-.87-.08-.25-.28v-11.6H8l-2.56.79v.69zm0 9.59q-.83.33-1.45.33c-1.42 0-2.31-1.11-2.31-3.05 0-2.05 1.01-3.28 2.48-3.28q.54 0 1.28.25zm0 0" style="fill:#000!important"/></symbol><symbol id="g" overflow="visible"><path d="M2.8-12.47c-.72 0-1.25.55-1.25 1.3s.58 1.26 1.26 1.26c.72 0 1.27-.53 1.27-1.3 0-.71-.52-1.26-1.28-1.26m.18 3.92-2.43.82v.68h1.14v5.94l-.24.27-.93.06V0h4.51v-.78l-.97-.06-.25-.27v-7.44zm0 0" style="fill:#000!important"/></symbol><symbol id="h" overflow="visible"><path d="M.53 0h4.25v-.78l-.75-.06-.25-.27v-5.67a6 6 0 0 1 1.64-.3c1.1 0 1.55.6 1.55 1.86v4.11l-.24.27-.75.06V0h4.22v-.78l-.9-.06-.22-.27v-4.6q.01-2.88-2.35-2.87c-.76 0-1.71.38-2.95 1.05v-1.02h-.81l-2.48.82v.68h1.17v5.94l-.25.27-.88.06zm0 0" style="fill:#000!important"/></symbol><symbol id="i" overflow="visible"><path d="M.47-9.62v.57l.83.08.23.2v7.91l-.23.2-.83.07V0h3.48v-.6l-.89-.06-.23-.2v-3.86h4.94v3.86l-.25.2-.9.07V0h3.49v-.6L9.3-.65l-.25-.2v-7.9l.25-.2.8-.09v-.57H6.64v.57l.89.08.25.2v3.4H2.82v-3.4l.23-.2.9-.08v-.57h2.67zm0 0"/></symbol><symbol id="j" overflow="visible"><path d="M3.86-7.05C1.92-7.05.53-5.59.53-3.45.53-1.33 1.93.13 3.86.13S7.2-1.33 7.2-3.45s-1.4-3.6-3.34-3.6m0 .63c1.16 0 2 1.1 2 2.97s-.84 2.97-2 2.97c-1.14 0-1.99-1.13-1.99-2.97 0-1.88.83-2.97 1.99-2.97m0 0"/></symbol><symbol id="k" overflow="visible"><path d="M.4 0h3.37v-.52l-.83-.07-.25-.22v-9.75h-.55l-1.75.51v.46h1.1v8.78l-.24.22-.84.07zm0 0"/></symbol><symbol id="l" overflow="visible"><path d="M5.5-9.6v2.7a6 6 0 0 0-1.28-.16c-2.19 0-3.7 1.54-3.7 3.83C.52-1.22 1.72.13 3.28.13c.8 0 1.49-.29 2.22-.88V0h2.1v-.52l-.68-.07-.23-.22v-9.75h-.55l-1.75.51v.46zm0 8.32q-.8.5-1.56.5c-1.3 0-2.16-1.02-2.16-2.69 0-1.8 1-2.95 2.45-2.95q.52 0 1.27.22zm0 0"/></symbol><symbol id="m" overflow="visible"><path d="M6.42-1.52c-.81.55-1.53.83-2.25.83-1.45 0-2.4-1.1-2.4-2.92v-.16H6.4l.01-.45c0-1.76-1.01-2.83-2.58-2.83-1.91 0-3.3 1.49-3.3 3.65C.53-1.3 1.84.13 3.73.13q1.38 0 2.7-.86zM5.16-4.37H1.84c.08-1.22.9-2.02 1.82-2.02.97 0 1.5.62 1.5 1.78zm0 0"/></symbol><symbol id="n" overflow="visible"><path d="M-.08-6.9v.53l.88.09L3.1 0h.82l2.5-6.25.85-.12v-.54H4.73v.54l.79.06.1.23-1.84 4.69-1.67-4.69.17-.23.77-.07v-.53zm0 0"/></symbol><symbol id="o" overflow="visible"><path d="M.44 0h3.14v-.52l-.69-.07-.25-.22v-4.82a3.6 3.6 0 0 1 1.61-.46c1.06 0 1.44.42 1.44 1.46V-.8l-.24.22-.68.07V0H7.9v-.52l-.79-.07-.23-.22v-4.05c0-1.44-.69-2.19-1.94-2.19-.62 0-1.36.33-2.3.86v-.78h-.56l-1.65.52v.43h1.01v5.2l-.25.23-.76.07zm0 0"/></symbol><symbol id="p" overflow="visible"><path d="M1.27-6.03v4.62c0 1.02.3 1.46 1.48 1.46q.85 0 1.89-.32V-.8a6 6 0 0 1-1 .11c-1 0-1.19-.47-1.19-1.56v-3.78h2.2v-.69h-2.2v-1.51h-.53l-.6 1.32-.96.43v.45zm0 0"/></symbol><symbol id="q" overflow="visible"><path d="M.42 0h3.35v-.52l-.9-.07-.25-.22v-5.22h2.02v-.69h-2v-1.05q0-1.79.94-2.23l1.3.86c.37-.1.59-.37.59-.72 0-.45-.47-.81-1.13-.81-1.68 0-2.9 1.42-2.9 3.8v.15l-.92.22v.47h.92v5.22l-.27.22-.75.07zm0 0"/></symbol><symbol id="r" overflow="visible"><path d="M.44 0h3.45v-.52l-1-.07-.25-.22v-4.11q.89-1.04 1.56-1.05.45 0 .74.35h.45v-1.24a2 2 0 0 0-.86-.19q-.18 0-.36.03-.78.63-1.53 1.4v-1.35h-.55l-1.65.52v.43h1.01v5.2l-.26.23-.75.07zm0 0"/></symbol><symbol id="s" overflow="visible"><path d="M6.52-6.08a1.7 1.7 0 0 0-1.58-.97 5 5 0 0 0-2.3.86v-.78H2.1l-1.65.52v.43h1.01v5.2l-.25.23-.76.07V0h3.14v-.52L2.9-.59l-.25-.22v-4.82a4 4 0 0 1 1.64-.46q1.27-.02 1.25 1.46V-.8l-.24.2-.7.07V0h3.06v-.52l-.68-.07-.25-.22v-4.82q.92-.45 1.61-.46c.9 0 1.3.46 1.3 1.46V-.8l-.26.22-.68.07V0h3.13v-.52l-.75-.07-.25-.22v-4.05c0-1.42-.72-2.19-1.85-2.19q-.86 0-2.46.97m0 0"/></symbol><symbol id="t" overflow="visible"><path d="M5.94.16c2.47-.41 4-2.32 4-4.99 0-1.56-.52-2.87-1.49-3.81-.86-.81-1.97-1.25-3.2-1.25s-2.33.44-3.19 1.25a5 5 0 0 0-1.5 3.81C.56-2.14 2.11-.22 4.58.16q0 2.39 2.72 2.37.89 0 2.03-.23v-.6a6 6 0 0 1-1.36.16Q6 1.86 5.94.16m-.69-.72c-1.87 0-3.17-1.63-3.17-4.27 0-2.7 1.28-4.28 3.17-4.28S8.42-7.5 8.42-4.83c0 2.64-1.28 4.27-3.17 4.27m0 0"/></symbol><symbol id="u" overflow="visible"><path d="M.44 0h3.03v-.6l-.88-.1-.25-.27V-8.8L5.61 0h.6l3.42-8.95v8.09l-.15.2-.95.07V0h3.44v-.6l-.9-.06-.18-.2v-7.9l.17-.2.9-.09v-.57H8.9v.43L6.17-2.03l-2.7-7.2v-.4H.44v.58l.94.08.18.2v7.8l-.25.27-.87.1zm0 0"/></symbol><symbol id="v" overflow="visible"><path d="M.47 0h3.48v-.6l-.89-.06-.23-.2v-3.42h1.06L6.63-.44V0H9v-.6L7.95-.65 4.7-5.33l3.01-3.6.96-.12v-.57h-3v.57l.8.08.1.2-3.2 3.9h-.54v-3.9l.23-.2.9-.08v-.58H.46v.58l.83.08.23.2v7.91l-.23.2-.83.07zm0 0"/></symbol><symbol id="w" overflow="visible"><path d="M8.44-.33v-2.26h-.81L7.3-1l-.23.22a4 4 0 0 1-1.24.19C3.52-.6 2.1-2.2 2.1-4.92c0-2.56 1.4-4.11 3.54-4.11a4 4 0 0 1 1.6.37l.2.25.2 1.32h.8v-2.22q-1.57-.5-2.84-.49c-2.99 0-4.99 2-4.99 5A5 5 0 0 0 3.09-.4q1.03.57 2.44.58 1.47 0 2.9-.5m0 0"/></symbol><symbol id="x" overflow="visible"><path d="M2.2-10.16c-.45 0-.83.36-.83.83s.38.83.83.83c.47 0 .85-.36.85-.83a.84.84 0 0 0-.85-.83m-.04 3.19L.5-6.45v.43h1v5.2l-.23.23-.77.07V0h3.23v-.52l-.78-.07-.25-.22v-6.16zm0 0"/></symbol><symbol id="y" overflow="visible"><path d="m2.03-7.05-1.65.53v.46h1.01v4.01c0 1.44.69 2.2 1.92 2.2Q4.36.12 5.64-.8V0h2.13v-.52l-.7-.07-.24-.22v-6.24h-.55l-1.65.53v.46h1.01v4.86a4 4 0 0 1-1.67.42q-1.41.01-1.4-1.52v-4.75zm0 0"/></symbol><symbol id="z" overflow="visible"><path d="m4.8-.83.18.83H7v-.52l-.77-.07-.25-.22v-4.17c0-1.44-.64-2.07-2.14-2.07-1.8 0-2.89.75-2.89 1.63 0 .34.11.44.44.44h.98v-1.2q.58-.24 1.1-.23c1.03 0 1.33.47 1.33 1.6v.47C1.92-3.66.6-3.24.6-1.74.62-.66 1.32.1 2.45.1q1.01 0 2.36-.92m0-.48a4 4 0 0 1-1.78.64c-.72 0-1.16-.47-1.16-1.17 0-1.05.9-1.44 2.94-2zm0 0"/></symbol><symbol id="A" overflow="visible"><path d="M4.94-6.73a4 4 0 0 0-1.69-.32C1.63-7.05.72-6.3.72-5.03c0 .95.62 1.42 1.84 1.97.96.42 1.47.69 1.47 1.42 0 .67-.51 1.17-1.34 1.17q-.63 0-1.22-.34L1.3-2.03H.6v1.86q.75.3 1.87.3c1.69 0 2.69-.82 2.69-2.14q-.01-.82-.55-1.24c-.48-.39-1.03-.6-1.53-.84-.8-.38-1.22-.69-1.22-1.3 0-.64.44-1.03 1.2-1.03q.52 0 1.05.3l.12 1.01h.7zm0 0"/></symbol><symbol id="B" overflow="visible"><path d="m2.02-10.56-1.75.51v.46h1.1v8.78l-.23.22-.78.07V0H3.5v-.52l-.67-.07-.27-.22v-4.82a4 4 0 0 1 1.61-.46c1.06 0 1.45.42 1.45 1.46V-.8l-.25.22-.67.07V0h3.13v-.52l-.75-.07-.27-.22v-4.05c0-1.44-.67-2.19-1.92-2.19-.6 0-1.36.33-2.33.86v-4.37zm0 0"/></symbol><symbol id="D" overflow="visible"><path d="M.86-.28a7 7 0 0 0 2.58.45c2.3 0 3.72-1.19 3.72-2.89q0-.94-.63-1.56c-.67-.66-1.44-.88-2.17-1.19-1.31-.56-2-.92-2-1.87 0-1.05.72-1.74 1.94-1.74q.75 0 1.3.3l.21.25.22 1.36h.73V-9.4a8 8 0 0 0-2.43-.4C2.3-9.8 1-8.67 1-7.06c0 1.4.83 1.93 2.43 2.61 1.56.67 2.4.94 2.4 2.13 0 1-.78 1.72-2.17 1.72q-.97 0-1.6-.33l-.2-.24L1.7-2.8H.86zm0 0" style="fill:#000!important"/></symbol><symbol id="E" overflow="visible"><path d="m1.88-10.56-1.77.51v.46h1.12V0h1.83c2.75 0 4.17-1.31 4.17-3.77 0-1.95-1.15-3.28-2.84-3.28q-.93.01-1.97.5v-4.01zm.54 9.9v-5.39q.71-.23 1.27-.23c1.44 0 2.25.98 2.25 2.78 0 1.98-.86 2.86-2.72 2.86zm0 0" style="fill:#000!important"/></symbol><symbol id="F" overflow="visible"><path d="M6.58-6.81q-1.13-.25-2.05-.25c-2.47 0-4 1.47-4 3.76C.53-1.27 1.67.05 3.36.05q.9 0 1.97-.52v2.78l-.23.24-.91.06v.52h3.36V2.6l-.77-.06-.25-.24v-8.08zm-1.25.53v5.34Q4.49-.7 4-.72c-1.34 0-2.17-.98-2.17-2.76 0-1.86.94-2.96 2.42-2.96q.45 0 1.08.16m0 0" style="fill:#000!important"/></symbol><symbol id="G" overflow="visible"><path d="M2-1.69c-.52 0-.92.4-.92.9s.4.92.92.92c.5 0 .89-.4.89-.91s-.39-.9-.89-.9m0 0" style="fill:#000!important"/></symbol><symbol id="H" overflow="visible"><path d="M.47-9.62v.57l.83.08.23.2v7.91l-.23.2-.83.07V0h3.42v-.6l-.83-.06-.23-.2v-3.42l.72-.02c1.3 0 1.86.36 2.25 1.55.3.9.36 1.84 1.04 2.45q.48.41 1.46.4.47.02 1.1-.12v-.54h-.12c-1.1 0-1.55-.17-1.86-1.02-.27-.67-.28-1.47-.69-2.12q-.41-.69-1.47-.96Q7.6-5.18 7.6-7.05c0-1.76-1.14-2.58-3.46-2.58zm2.36.65h.69c1.78 0 2.64.55 2.64 2.05 0 1.4-.83 1.97-2.55 1.97l-.78-.02zm0 0"/></symbol><symbol id="I" overflow="visible"><path d="M.33 3.13H3.7V2.6l-.92-.08-.25-.22V-.1q.8.14 1.35.14C6 .05 7.4-1.42 7.4-3.7c0-2-1.2-3.36-2.77-3.36-.67 0-1.34.3-2.1.86v-.78H2l-1.67.52v.44h1.01V2.3l-.23.22-.78.08zm2.2-3.96v-4.83a3 3 0 0 1 1.52-.48c1.25 0 2.1.98 2.1 2.64 0 1.77-1 2.89-2.38 2.89q-.52.01-1.24-.22m0 0"/></symbol><symbol id="y2" overflow="visible"><path d="m2.03-7.05-1.65.53v.46h1.01v4.01c0 1.44.69 2.2 1.92 2.2Q4.36.12 5.64-.8V0h2.13v-.52l-.7-.07-.24-.22v-6.24h-.55l-1.65.53v.46h1.01v4.86a4 4 0 0 1-1.67.42q-1.41.01-1.4-1.52v-4.75zm0 0" style="fill:#000!important"/></symbol><symbol id="A2" overflow="visible"><path d="M4.94-6.73a4 4 0 0 0-1.69-.32C1.63-7.05.72-6.3.72-5.03c0 .95.62 1.42 1.84 1.97.96.42 1.47.69 1.47 1.42 0 .67-.51 1.17-1.34 1.17q-.63 0-1.22-.34L1.3-2.03H.6v1.86q.75.3 1.87.3c1.69 0 2.69-.82 2.69-2.14q-.01-.82-.55-1.24c-.48-.39-1.03-.6-1.53-.84-.8-.38-1.22-.69-1.22-1.3 0-.64.44-1.03 1.2-1.03q.52 0 1.05.3l.12 1.01h.7zm0 0" style="fill:#000!important"/></symbol><symbol id="m2" overflow="visible"><path d="M6.42-1.52c-.81.55-1.53.83-2.25.83-1.45 0-2.4-1.1-2.4-2.92v-.16H6.4l.01-.45c0-1.76-1.01-2.83-2.58-2.83-1.91 0-3.3 1.49-3.3 3.65C.53-1.3 1.84.13 3.73.13q1.38 0 2.7-.86zM5.16-4.37H1.84c.08-1.22.9-2.02 1.82-2.02.97 0 1.5.62 1.5 1.78zm0 0" style="fill:#000!important"/></symbol><symbol id="o2" overflow="visible"><path d="M.44 0h3.14v-.52l-.69-.07-.25-.22v-4.82a3.6 3.6 0 0 1 1.61-.46c1.06 0 1.44.42 1.44 1.46V-.8l-.24.22-.68.07V0H7.9v-.52l-.79-.07-.23-.22v-4.05c0-1.44-.69-2.19-1.94-2.19-.62 0-1.36.33-2.3.86v-.78h-.56l-1.65.52v.43h1.01v5.2l-.25.23-.76.07zm0 0" style="fill:#000!important"/></symbol><symbol id="p2" overflow="visible"><path d="M1.27-6.03v4.62c0 1.02.3 1.46 1.48 1.46q.85 0 1.89-.32V-.8a6 6 0 0 1-1 .11c-1 0-1.19-.47-1.19-1.56v-3.78h2.2v-.69h-2.2v-1.51h-.53l-.6 1.32-.96.43v.45zm0 0" style="fill:#000!important"/></symbol><symbol id="B2" overflow="visible"><path d="m2.02-10.56-1.75.51v.46h1.1v8.78l-.23.22-.78.07V0H3.5v-.52l-.67-.07-.27-.22v-4.82a4 4 0 0 1 1.61-.46c1.06 0 1.45.42 1.45 1.46V-.8l-.25.22-.67.07V0h3.13v-.52l-.75-.07-.27-.22v-4.05c0-1.44-.67-2.19-1.92-2.19-.6 0-1.36.33-2.33.86v-4.37zm0 0" style="fill:#000!important"/></symbol><symbol id="z2" overflow="visible"><path d="m4.8-.83.18.83H7v-.52l-.77-.07-.25-.22v-4.17c0-1.44-.64-2.07-2.14-2.07-1.8 0-2.89.75-2.89 1.63 0 .34.11.44.44.44h.98v-1.2q.58-.24 1.1-.23c1.03 0 1.33.47 1.33 1.6v.47C1.92-3.66.6-3.24.6-1.74.62-.66 1.32.1 2.45.1q1.01 0 2.36-.92m0-.48a4 4 0 0 1-1.78.64c-.72 0-1.16-.47-1.16-1.17 0-1.05.9-1.44 2.94-2zm0 0" style="fill:#000!important"/></symbol><symbol id="l2" overflow="visible"><path d="M5.5-9.6v2.7a6 6 0 0 0-1.28-.16c-2.19 0-3.7 1.54-3.7 3.83C.52-1.22 1.72.13 3.28.13c.8 0 1.49-.29 2.22-.88V0h2.1v-.52l-.68-.07-.23-.22v-9.75h-.55l-1.75.51v.46zm0 8.32q-.8.5-1.56.5c-1.3 0-2.16-1.02-2.16-2.69 0-1.8 1-2.95 2.45-2.95q.52 0 1.27.22zm0 0" style="fill:#000!important"/></symbol><symbol id="k2" overflow="visible"><path d="M.4 0h3.37v-.52l-.83-.07-.25-.22v-9.75h-.55l-1.75.51v.46h1.1v8.78l-.24.22-.84.07zm0 0" style="fill:#000!important"/></symbol><symbol id="r2" overflow="visible"><path d="M.44 0h3.45v-.52l-1-.07-.25-.22v-4.11q.89-1.04 1.56-1.05.45 0 .74.35h.45v-1.24a2 2 0 0 0-.86-.19q-.18 0-.36.03-.78.63-1.53 1.4v-1.35h-.55l-1.65.52v.43h1.01v5.2l-.26.23-.75.07zm0 0" style="fill:#000!important"/></symbol><path fill="#ff9010" stroke="#000" stroke-miterlimit="10" stroke-width="1.2" d="m133.74 42.93 2.55-9.51a1.62 1.62 0 0 1 2.33-1.09l8.92 4.16a2 2 0 0 0 2.65-.96l4.16-8.93c.47-1 1.58-1.29 2.48-.66l8.07 5.65a2 2 0 0 0 2.78-.5l5.64-8.06c.64-.9 1.78-1 2.56-.22l6.96 6.96a2 2 0 0 0 2.82 0l6.96-6.96a1.62 1.62 0 0 1 2.56.22l5.65 8.07a2 2 0 0 0 2.77.49l8.07-5.65c.9-.63 2.01-.33 2.48.66l4.16 8.93a2 2 0 0 0 2.65.96l8.93-4.16c1-.46 2.04.02 2.32 1.09l2.55 9.5c.29 1.07.96 1.16 1.51.2l8.21-14.22a1.8 1.8 0 0 1 2.63-.58l14.23 9.96a2.03 2.03 0 0 1 .51 2.79l-41.3 61a1.76 1.76 0 0 1-2.65.36l-9.16-7.69a2.46 2.46 0 0 1-.53-3l5.66-9.81c.55-.95.28-1.2-.6-.53l-5.86 4.39c-.88.66-1.64.3-1.7-.8l-.4-7.31c-.07-1.1-.73-1.34-1.48-.53l-5.01 5.34c-.75.8-1.57.58-1.82-.49l-1.66-7.13c-.25-1.07-.95-1.2-1.55-.27l-4 6.13c-.6.92-1.44.85-1.88-.16l-2.88-6.74c-.43-1.01-1.13-1.01-1.56 0l-2.88 6.74c-.43 1-1.27 1.08-1.88.16l-4-6.13c-.6-.92-1.3-.8-1.54.27L171.5 82c-.25 1.07-1.06 1.3-1.82.49l-5-5.34c-.76-.8-1.42-.57-1.48.53l-.4 7.32c-.06 1.1-.83 1.45-1.7.79l-5.87-4.4c-.88-.65-1.15-.41-.6.54l5.67 9.8c.54.96.3 2.3-.53 3.01l-9.17 7.69c-.84.7-2.03.54-2.64-.37l-41.3-60.99a2.04 2.04 0 0 1 .5-2.8l14.23-9.95a1.8 1.8 0 0 1 2.63.58l8.21 14.23c.55.95 1.23.86 1.51-.2m0 0" style="stroke:none!important"/><use x="142.89" y="57.93" href="#a" style="fill:#000!important"/><use x="154.1" y="57.93" href="#b" style="fill:#000!important"/><use x="162.29" y="57.93" href="#c" style="fill:#000!important"/><use x="172.57" y="57.93" href="#d" style="fill:#000!important"/><use x="182.5" y="57.93" href="#e" style="fill:#000!important"/><use x="189.75" y="57.93" href="#f" style="fill:#000!important"/><use x="200.01" y="57.93" href="#g" style="fill:#000!important"/><use x="205.26" y="57.93" href="#d" style="fill:#000!important"/><use x="215.2" y="57.93" href="#h" style="fill:#000!important"/><path fill="none" stroke="#000" stroke-miterlimit="10" stroke-width="2.39" d="M82.2 61.8h25.64"/><path d="m112.82 61.8-7.97-4 2.99 4-3 3.98"/><use x="6.16" y="58.64" href="#i"/><use x="16.75" y="58.64" href="#j"/><use x="24.48" y="58.64" href="#k"/><use x="28.52" y="58.64" href="#l"/><use x="40.62" y="58.64" href="#m"/><use x="47.66" y="58.64" href="#n"/><use x="54.75" y="58.64" href="#m"/><use x="61.79" y="58.64" href="#o"/><use x="69.94" y="58.64" href="#p"/><use x="6.16" y="73.09" href="#q"/><use x="10.76" y="73.09" href="#r"/><use x="16.24" y="73.09" href="#j"/><use x="23.98" y="73.09" href="#s"/><use x="40.06" y="73.09" href="#t"/><use x="50.55" y="73.09" href="#u"/><use x="62.97" y="73.09" href="#v"/><path fill="none" stroke="#000" stroke-miterlimit="10" stroke-width="2.39" d="M255.69 61.8h25.63"/><path d="m286.3 61.8-7.97-4 2.99 4-2.99 3.98"/><use x="291.48" y="59.63" href="#w"/><use x="300.55" y="59.63" href="#j"/><use x="308.28" y="59.63" href="#o"/><use x="316.43" y="59.63" href="#p"/><use x="321.22" y="59.63" href="#x"/><use x="325.24" y="59.63" href="#o"/><use x="333.38" y="59.63" href="#y"/><use x="341.55" y="59.63" href="#m"/><use x="352.58" y="59.63" href="#z"/><use x="359.85" y="59.63" href="#A"/><use x="291.48" y="74.08" href="#B"/><use x="299.57" y="74.08" href="#j"/><use x="307.3" y="74.08" href="#k"/><use x="311.35" y="74.08" href="#l"/><use x="323.44" y="74.08" href="#m"/><use x="330.49" y="74.08" href="#n"/><use x="337.57" y="74.08" href="#m"/><use x="344.62" y="74.08" href="#o"/><use x="352.77" y="74.08" href="#p"/><path fill="none" stroke="#000" stroke-miterlimit="10" stroke-width="2.39" d="M373.04 61.8h15.55"/><path d="m393.57 61.8-7.97-4 3 4-3 3.98"/><path fill="#d9d9d9" d="M489.64 49.32h-88.5a2 2 0 0 0-1.99 2v92.39a2 2 0 0 0 2 1.99h88.49a2 2 0 0 0 1.99-2V51.32a2 2 0 0 0-2-1.99m0 0"/><use x="407.12" y="95.54" href="#D"/><use x="415.1" y="95.54" href="#y2"/><use x="423.26" y="95.54" href="#E"/><use x="430.99" y="95.54" href="#A2"/><use x="436.73" y="95.54" href="#m2"/><use x="443.77" y="95.54" href="#F"/><use x="451.39" y="95.54" href="#y2"/><use x="459.56" y="95.54" href="#m2"/><use x="466.6" y="95.54" href="#o2"/><use x="474.75" y="95.54" href="#p2"/><use x="407.12" y="109.98" href="#B2"/><use x="415.21" y="109.98" href="#z2"/><use x="422.49" y="109.98" href="#o2"/><use x="430.63" y="109.98" href="#l2"/><use x="438.74" y="109.98" href="#k2"/><use x="442.79" y="109.98" href="#m2"/><use x="449.83" y="109.98" href="#r2"/><use x="455.31" y="109.98" href="#A2"/><use x="461.05" y="109.98" href="#G"/><use x="465.04" y="109.98" href="#G"/><use x="469.02" y="109.98" href="#G"/><path fill="none" stroke="#000" stroke-miterlimit="10" stroke-width="2.39" d="M184.25 102.61v23.64a7 7 0 0 0 6.98 6.98h90.09"/><path d="m286.3 133.23-7.97-3.99 2.99 3.99-2.99 3.99"/><use x="291.48" y="129.56" href="#H"/><use x="300.22" y="129.56" href="#m"/><use x="307.26" y="129.56" href="#n"/><use x="314.35" y="129.56" href="#x"/><use x="318.36" y="129.56" href="#A"/><use x="324.1" y="129.56" href="#m"/><use x="335.13" y="129.56" href="#z"/><use x="342.41" y="129.56" href="#A"/><use x="291.48" y="144" href="#p"/><use x="296.27" y="144" href="#z"/><use x="303.54" y="144" href="#I"/><use x="315.44" y="144" href="#m"/><use x="322.48" y="144" href="#n"/><use x="329.57" y="144" href="#m"/><use x="336.61" y="144" href="#o"/><use x="344.76" y="144" href="#p"/><path fill="none" stroke="#000" stroke-miterlimit="10" stroke-width="2.39" d="M373.04 133.23h15.55"/><path d="m393.57 133.23-7.97-3.99 3 3.99-3 3.99"/></svg>