<svg xmlns="http://www.w3.org/2000/svg" xmlns:xlink="http://www.w3.org/1999/xlink" width="349.23pt" height="203.302pt" viewBox="0 0 349.23 203.302"><defs><path id="a" d="M3.6875-7.0469c-.1094-.4219-.3437-.4219-.6094-.4219-.375 0-.5156.047-.6094.422L.9845-.6876c-.3907 0-.6563 0-.6563.3438S.6406 0 .8125 0h1.1406c.1719 0 .5 0 .5-.3437s-.2969-.3438-.6562-.3438l.3125-1.3437h1.9375l.2969 1.3437c-.3594 0-.6563 0-.6563.3438s.3281.3437.5.3437h1.1406c.1719 0 .5 0 .5-.3437s-.2812-.3438-.6719-.3438ZM2.2656-2.7187c.0781-.3594.7344-3.1875.7969-3.7657h.0156c.0313.2813.2031 1.0157.2031 1.0157l.6094 2.75Zm0 0"/><path id="b" d="M5.1094.6875c0-.1562-.0781-.2031-.25-.3281-1.6406-1.1406-2.0469-2.8438-2.0469-4 0-1.1406.375-2.8594 2.0469-4.0156.1719-.125.25-.172.25-.3282 0-.125-.0469-.3125-.3438-.3125s-1.1875.6875-1.7343 1.4688c-.672.9375-1 2.0469-1 3.1875 0 1.3281.4843 2.4375.9843 3.1406.5469.7656 1.4219 1.4844 1.75 1.4844.2969 0 .3438-.2032.3438-.2969m0 0"/><path id="c" d="m3.2344-4.2812 1.8281-2.3282c.3594 0 .625 0 .625-.3437s-.3125-.3438-.4687-.3438H4.203c-.1562 0-.4687 0-.4687.3438s.3125.3437.4687.3437l-2.5 3.2032v-3.2032h.2344c.1719 0 .4844 0 .4844-.3437s-.3125-.3438-.4844-.3438H.7813c-.1563 0-.4688 0-.4688.3438s.3125.3437.4688.3437h.25v5.9219h-.25c-.1563 0-.4688 0-.4688.3438S.625 0 .7813 0h1.1562c.1719 0 .4844 0 .4844-.3437s-.3125-.3438-.4844-.3438h-.2344v-1.625l1.0782-1.3906L4.453-.6875c-.1562 0-.4687 0-.4687.3438S4.2969 0 4.453 0h.8594c.1719 0 .4844 0 .4844-.3437s-.2813-.3438-.5781-.3438Zm0 0"/><path id="d" d="M5.6719-7c0-.1875 0-.4531-.3438-.4531-.2187 0-.2656.1406-.3125.2187-.0469.0938-.1406.3125-.1719.3906-.5-.4218-1.0468-.6093-1.5468-.6093C1.75-7.4531.4844-5.797.4844-3.6562c0 2.1875 1.3125 3.7968 2.8125 3.7968 1.4062 0 2.375-1.1093 2.375-2.1562 0-.375-.25-.375-.4063-.375s-.3594.0625-.375.2656C4.797-.6406 3.5781-.5469 3.375-.5469c-1.1094 0-2.125-1.3125-2.125-3.1093C1.25-5.4687 2.2813-6.75 3.375-6.75c.6406 0 1.3438.5156 1.5156 1.6094.0313.2656.1406.3281.375.3281.4063 0 .4063-.2031.4063-.4531Zm0 0"/><path id="e" d="M3.4688-6.6094h1.5937v.5781c0 .2188 0 .5.375.5.3906 0 .3906-.2656.3906-.5v-.7812c0-.375-.0625-.4844-.4687-.4844H.7969c-.3907 0-.4844.0938-.4844.4844v.7813c0 .2187 0 .5.375.5.4063 0 .4063-.2657.4063-.5v-.5782h1.5937v5.9219h-.5781c-.1563 0-.4688 0-.4688.3438S1.9531 0 2.1094 0h1.9375c.1562 0 .4687 0 .4687-.3437s-.3125-.3438-.4687-.3438h-.5781Zm0 0"/><path id="f" d="M.7813-7.2969c-.1563 0-.4688 0-.4688.3438s.3281.3437.4844.3437h.2968v5.9219H.797c-.1563 0-.4844 0-.4844.3438S.6406 0 .7813 0H3.625c1.3281 0 2.0313-1.0469 2.0313-2 0-.8437-.5938-1.625-1.5313-1.8281.5938-.1875 1.2813-.7656 1.2813-1.625 0-.875-.7032-1.8438-2.0313-1.8438Zm1.078 3.1563v-2.4688h1.4845c1 0 1.2812.7344 1.2812 1.1719 0 .5625-.4687 1.2969-1.4687 1.2969Zm0 3.4531v-2.7656h1.5782c1.2031 0 1.4375 1.0312 1.4375 1.4375 0 .5781-.4531 1.3281-1.5156 1.3281Zm0 0"/><path id="g" d="M4.1094-3.6406c0-.9375-.2188-2.1406-1.0781-3.2969C2.625-7.5 1.7343-8.2969 1.375-8.2969c-.2812 0-.3437.2032-.3437.3125 0 .1406.078.2031.2968.3438 1.4532 1.0312 2 2.625 2 3.9844 0 1.078-.3437 2.828-2.0468 4.0156-.1563.1094-.25.1719-.25.3281 0 .0938.0624.2969.3437.2969.2969 0 1.1875-.6875 1.7344-1.4688.6875-.9687 1-2.0937 1-3.1562m0 0"/><path id="h" d="M5.2188-7c0-.1875 0-.4531-.3282-.4531-.25 0-.2812.1094-.4219.6094-.578-.5157-1.2656-.6094-1.6874-.6094-1.2657 0-2.172.9219-2.172 1.9687 0 .7031.422 1.1719.4845 1.2344.5156.5156.7187.5625 1.9687.8594.8906.2031 1.0938.25 1.3906.5781.2188.2656.3438.5625.3438.9063 0 .6406-.5156 1.3593-1.4688 1.3593-1.0156 0-1.875-.4375-1.9375-1.5-.0156-.1719-.0312-.375-.3906-.375-.3906 0-.3906.2188-.3906.4688v1.6406c0 .1875 0 .4531.3281.4531.25 0 .2813-.0937.4219-.5937.6562.5156 1.4844.5937 1.9687.5937 1.3594 0 2.2032-1.0312 2.2032-2.0937 0-.8438-.5157-1.375-.547-1.4219-.4843-.4844-.703-.5312-1.9062-.8281-.2812-.0625-.75-.1719-.8437-.2031-.4844-.172-.8906-.5938-.8906-1.125 0-.6407.6093-1.2188 1.4218-1.2188.9063 0 1.5157.4688 1.6719 1.4844.0313.2344.0625.3906.3906.3906.3906 0 .3906-.2187.3906-.4531Zm0 0"/><path id="i" d="M1.9219-2.9687h1.4844c1.3906 0 2.2187-1.0938 2.2187-2.1563 0-1.1094-.8594-2.1719-2.2187-2.1719H.828c-.1718 0-.5 0-.5.3438s.3282.3437.5.3437h.3125v5.9219H.8281c-.1718 0-.5 0-.5.3438S.6563 0 .8281 0H2.25c.1719 0 .4844 0 .4844-.3437S2.4219-.6875 2.25-.6875h-.3281Zm0-3.6407h1.2656c1.1563 0 1.6719.8438 1.6719 1.4688 0 .6875-.5469 1.4844-1.6719 1.4844H1.9219Zm0 0"/><path id="j" d="M11.0156-5.9531c0-3.5938-2.3593-6.2656-5.0625-6.2656S.8906-9.5157.8906-5.9531c0 3.5937 2.3907 6.2344 5.0625 6.2344s5.0625-2.6407 5.0625-6.2344M5.9531-.8125c-1.8906 0-3.6093-2.1094-3.6093-5.375 0-3.1562 1.828-4.9531 3.6093-4.9531 1.7969 0 3.625 1.7968 3.625 4.9531 0 3.2813-1.75 5.375-3.625 5.375m0 0"/><path id="k" d="M7.0469-7.4062H5.7344v4.75c0 1.2812-.9375 1.7968-1.9063 1.7968-1.1406 0-1.25-.375-1.25-1.0937v-5.4531H1.2813v5.5468c0 1.3438.453 2 1.6406 2 .5937 0 1.9219-.1406 2.8437-1V0H7.047Zm0 0"/><path id="l" d="M2.875-6.4062h2.2344v-1H2.875v-2.1094H1.6563v2.1093H.2969v1H1.625v4.3594c0 .9844.2188 2.1875 1.3594 2.1875.8594 0 1.6406-.25 2.4062-.6406l-.2812-1.0156c-.4063.3594-.9063.5625-1.4375.5625-.7656 0-.7969-.9531-.7969-1.3906Zm0 0"/><path id="m" d="M2.5938-.7812c.578.5625 1.3437.9218 2.1718.9218C6.375.1406 7.75-1.5156 7.75-3.7187 7.75-5.75 6.7188-7.547 5.2344-7.547c-.8594 0-1.8906.3125-2.6719.9375v-.7969H1.2969V3.3595h1.2969Zm0-4.8125c.1406-.2032.7343-.8594 1.6718-.8594 1.2032 0 2.1719 1.2344 2.1719 2.7344 0 1.703-1.1719 2.8125-2.3281 2.8125-.3438 0-.7031-.0938-1.0469-.3907-.4687-.4062-.4687-.6719-.4687-.9062Zm0 0"/><path id="n" d="M2.9219-7.4062h-1.375v1.375h1.375ZM1.5469-1.375V0h1.375v-1.375Zm0 0"/><path id="o" d="M6.2344-10.7969h1.4219c.2187 0 .4218.0157.625.0157h2.1562v-1.1094H.5781v1.1093h2.1563c.2031 0 .4219-.0156.625-.0156h1.4219V0h1.453Zm0 0"/><path id="p" d="M6.4688-4.875c0-1.6094-1.1407-2.7344-2.7032-2.7344-.75 0-1.5781.1406-2.5312.6875l.1094 1.1407c.4374-.3125 1.1718-.8125 2.4062-.8125.875 0 1.4219.6718 1.4219 1.7343v.6563c-2.7656.0937-4.4844.875-4.4844 2.2344 0 .7187.4375 2.1093 1.8594 2.1093.2656 0 1.6562-.0312 2.6562-.7812V0h1.2657Zm-1.297 2.6094c0 .2969 0 .7187-.5156 1.0312-.453.2813-1.0156.3281-1.2656.3281-.8593 0-1.4375-.4843-1.4375-1.0937 0-1.2031 2.6719-1.3281 3.2188-1.3437Zm0 0"/><path id="q" d="M2.5625-11.9531H1.2969V0h1.2969v-.7812C3.25-.1407 4.0468.1405 4.75.1405c1.6563 0 3-1.6718 3-3.8593 0-2-1.0312-3.8282-2.5625-3.8282-1.0937 0-2.0469.4531-2.625.9219Zm.0313 6.3437c.3906-.4844.9218-.875 1.6718-.875 1.0157 0 2.1719.7344 2.1719 2.7657 0 2.1718-1.375 2.8125-2.3281 2.8125-.3438 0-.7031-.0938-1.0469-.3907-.4687-.4062-.4687-.6719-.4687-.9062Zm0 0"/><path id="r" d="M6.1094-11.9531H4.625L.4531 0H1.75l1.2188-3.4844H7.578L8.797 0h1.5ZM7.25-4.4375H3.2813c.828-2.4219 1.8593-5.4062 1.9843-6.1875h.0156c.125.7031.4688 1.7344.7657 2.625Zm0 0"/><path id="s" d="M2.5469-11.9531H1.2813V0h1.2656Zm0 0"/><path id="t" d="M2.6406-11.3281H1.1875v1.4375h1.4531ZM2.547-7.4063H1.2813V0h1.2656Zm0 0"/><path id="u" d="M11.5313-5.0312c0-1.1563-.2813-2.5157-2.2188-2.5157-1.2812 0-2.0625.8125-2.4062 1.3125-.3125-.9062-1.0313-1.3125-2.0625-1.3125-1.172 0-1.922.6719-2.3125 1.1563v-1.0625h-1.25V0H2.578v-4.1719c0-1.0156.3906-2.3125 1.6094-2.3125C5.75-6.4844 5.75-5.3906 5.75-4.8906V0h1.3125v-4.1719c0-1.0156.375-2.3125 1.5938-2.3125 1.578 0 1.578 1.0938 1.578 1.5938V0h1.297Zm0 0"/><path id="v" d="M6.7344-3.7656c0-.5781-.0313-1.6719-.5938-2.5938-.5937-.9687-1.5781-1.25-2.3125-1.25-1.7968 0-3.3125 1.6875-3.3125 3.875 0 2.1407 1.5625 3.875 3.5469 3.875.7813 0 1.7188-.2343 2.5781-.8437 0-.0782-.0312-.4532-.0469-.4688 0-.0312-.0468-.5625-.0468-.6406-.8281.6719-1.7813.9063-2.4688.9063-1.0937 0-2.2812-.9375-2.3437-2.8594ZM1.875-4.7187c.2188-.9532.9844-1.8438 1.9531-1.8438.25 0 1.4532.0313 1.7657 1.8438Zm0 0"/></defs><path fill="#c49a6c" stroke="#000" stroke-miterlimit="10" stroke-width="1.19553" d="M6.2344 35.9258V16.457c0-2.1992 1.7851-3.9843 3.9883-3.9843h60.6289c2.1992 0 3.9843 1.7851 3.9843 3.9843v19.4688c0 2.2031-1.7851 3.9844-3.9843 3.9844h-60.629c-2.203 0-3.9882-1.7813-3.9882-3.9844Zm0 0"/><path fill="#f3e1a6" stroke="#000" stroke-miterlimit="10" stroke-width="1.19553" d="M6.2344 30.9375V13.9609c0-2.1992 1.7851-3.9843 3.9883-3.9843h60.6289c2.1992 0 3.9843 1.7851 3.9843 3.9843v16.9766c0 2.2031-1.7851 3.9844-3.9843 3.9844h-60.629c-2.203 0-3.9882-1.7813-3.9882-3.9844Zm0 0"/><use xlink:href="#a" x="13.713" y="26.104"/><use xlink:href="#b" x="19.8651" y="26.104"/><use xlink:href="#c" x="26.0173" y="26.104"/><use xlink:href="#d" x="32.1694" y="26.104"/><path fill="none" stroke="#000" stroke-miterlimit="10" stroke-width="0.398" d="M39.0586 25.9023H42.75"/><use xlink:href="#e" x="42.75" y="26.104"/><use xlink:href="#a" x="48.9021" y="26.104"/><use xlink:href="#f" x="55.0543" y="26.104"/><use xlink:href="#g" x="61.2064" y="26.104"/><path fill="#c49a6c" stroke="#000" stroke-miterlimit="10" stroke-width="1.19553" d="M6.2344 72.0977V52.6289c0-2.2031 1.7851-3.9844 3.9883-3.9844h60.6289c2.1992 0 3.9843 1.7813 3.9843 3.9844v19.4688c0 2.1992-1.7851 3.9843-3.9843 3.9843h-60.629c-2.203 0-3.9882-1.7851-3.9882-3.9843Zm0 0"/><path fill="#f3e1a6" stroke="#000" stroke-miterlimit="10" stroke-width="1.19553" d="M6.2344 67.1094V50.1328c0-2.1992 1.7851-3.9844 3.9883-3.9844h60.6289c2.1992 0 3.9843 1.7852 3.9843 3.9844v16.9766c0 2.1992-1.7851 3.9844-3.9843 3.9844h-60.629c-2.203 0-3.9882-1.7852-3.9882-3.9844Zm0 0"/><use xlink:href="#c" x="22.941" y="62.274"/><use xlink:href="#d" x="29.0931" y="62.274"/><path fill="none" stroke="#000" stroke-miterlimit="10" stroke-width="0.398" d="M35.9844 62.0742h3.6914"/><use xlink:href="#h" x="39.674" y="62.274"/><use xlink:href="#i" x="45.8261" y="62.274"/><use xlink:href="#d" x="51.9783" y="62.274"/><path fill="#666" stroke="#000" stroke-miterlimit="10" stroke-width="1.19553" d="M99.7813 36.4219V10.9727a.995.995 0 0 1 .996-.9961h47.8985c.5508 0 .996.4453.996.996V36.422a.9953.9953 0 0 1-.996.996h-47.8985a.9953.9953 0 0 1-.996-.996Zm74.8359 0V10.9727a.995.995 0 0 1 .996-.9961h47.8985a.995.995 0 0 1 .9961.996V36.422a.9953.9953 0 0 1-.996.996h-47.8985a.9953.9953 0 0 1-.9961-.996Zm96.6641 36.1719V47.1445c0-.5508.4453-.996.996-.996h47.8985c.5508 0 .996.4453.996.996v25.4493c0 .5468-.4452.996-.996.996h-47.8985c-.5507 0-.996-.4492-.996-.996Zm0 0"/><use xlink:href="#j" x="4.184" y="117.804"/><use xlink:href="#k" x="16.1108" y="117.804"/><use xlink:href="#l" x="24.4414" y="117.804"/><use xlink:href="#m" x="30.2877" y="117.804"/><use xlink:href="#k" x="38.6182" y="117.804"/><use xlink:href="#l" x="46.9488" y="117.804"/><use xlink:href="#n" x="52.7951" y="117.804"/><path fill="#277fbe" d="M99.7813 121.9883v-16.9766c0-2.1992 1.7851-3.9844 3.9843-3.9844h41.9219c2.1992 0 3.9844 1.7852 3.9844 3.9844v16.9766c0 2.2031-1.7852 3.9844-3.9844 3.9844h-41.9219c-2.1992 0-3.9844-1.7813-3.9844-3.9844m0 0"/><use xlink:href="#o" x="111.839" y="119.478" fill="#fff"/><g fill="#fff"><use xlink:href="#p" x="121.5244" y="119.478"/><use xlink:href="#q" x="129.2868" y="119.478"/></g><path fill="#277fbe" d="M174.6172 121.9883v-16.9766c0-2.1992 1.7851-3.9844 3.9844-3.9844h41.9218c2.1993 0 3.9844 1.7852 3.9844 3.9844v16.9766c0 2.2031-1.7851 3.9844-3.9844 3.9844h-41.9218c-2.1993 0-3.9844-1.7813-3.9844-3.9844m0 0"/><use xlink:href="#o" x="186.674" y="119.478" fill="#fff"/><g fill="#fff"><use xlink:href="#p" x="196.3594" y="119.478"/><use xlink:href="#q" x="204.1218" y="119.478"/></g><path fill="#277fbe" d="M99.7813 154.418v-16.9766c0-2.1992 1.7851-3.9844 3.9843-3.9844H267.293c2.203 0 3.9882 1.7852 3.9882 3.9844v16.9766c0 2.1992-1.7851 3.9843-3.9882 3.9843H103.7656c-2.1992 0-3.9844-1.7851-3.9844-3.9843m0 0"/><g fill="#fff"><use xlink:href="#r" x="110.2" y="151.906"/><use xlink:href="#s" x="120.951" y="151.906"/><use xlink:href="#l" x="124.7832" y="151.906"/></g><path fill="none" stroke="#000" stroke-miterlimit="10" stroke-width="1.49442" d="M96.664 170.875h247.957"/><path fill="none" stroke="#000" stroke-linecap="round" stroke-linejoin="round" stroke-miterlimit="10" stroke-width="1.49442" d="M339.539 163.9453c1.0665 4.1563 3.4376 6.1211 5.8282 6.9297-2.3906.8086-4.7617 2.7734-5.8281 6.9297"/><use xlink:href="#o" x="116.638" y="191.818"/><use xlink:href="#t" x="127.6662" y="191.818"/><use xlink:href="#u" x="131.4983" y="191.818"/><use xlink:href="#v" x="144.3255" y="191.818"/></svg>