<svg xmlns="http://www.w3.org/2000/svg" xmlns:xlink="http://www.w3.org/1999/xlink" width="153.369pt" height="138.897pt" viewBox="0 0 153.369 138.897"><defs><clipPath id="a"><path d="M56 7h41v36H56Zm0 0"/></clipPath><clipPath id="b"><path d="M95.379 0H57.9921c-2.1992 0-3.9844 1.7813-3.9844 3.9844v37.3828c0 2.2031 1.7852 3.9883 3.9844 3.9883h37.3867c2.1992 0 3.9844-1.7852 3.9844-3.9883V3.9844C99.3633 1.7813 97.578 0 95.3789 0m0 0"/></clipPath><clipPath id="c"><path d="M0 93h46v45.8984H0Zm0 0"/></clipPath><clipPath id="d"><path d="M2 101h41v35H2Zm0 0"/></clipPath><clipPath id="e"><path d="M41.371 93.543H3.9845C1.7852 93.543 0 95.328 0 97.5273v37.3868c0 2.1992 1.7852 3.9843 3.9844 3.9843H41.371c2.1992 0 3.9844-1.7851 3.9844-3.9843V97.5273c0-2.1992-1.7852-3.9843-3.9844-3.9843m0 0"/></clipPath><clipPath id="f"><path d="M108 93h45.3672v45.8984H108Zm0 0"/></clipPath><clipPath id="g"><path d="M111 101h40v35h-40Zm0 0"/></clipPath><clipPath id="h"><path d="M149.3867 93.543H112c-2.1992 0-3.9844 1.7851-3.9844 3.9843v37.3868c0 2.1992 1.7852 3.9843 3.9844 3.9843h37.3867c2.1992 0 3.9844-1.7851 3.9844-3.9843V97.5273c0-2.1992-1.7852-3.9843-3.9844-3.9843m0 0"/></clipPath><clipPath id="i"><path d="M23 99h103v39.8984H23Zm0 0"/></clipPath><clipPath id="j"><path d="M83 8h70.3672v107H83Zm0 0"/></clipPath></defs><path fill="#d0d0d0" d="M95.379 0H57.9921c-2.1992 0-3.9844 1.7813-3.9844 3.9844v37.3828c0 2.2031 1.7852 3.9883 3.9844 3.9883h37.3867c2.1992 0 3.9844-1.7852 3.9844-3.9883V3.9844C99.3633 1.7813 97.578 0 95.3789 0m0 0"/><g clip-path="url(#a)"><g clip-path="url(#b)"><path fill="#000" d="M56.996 40.371V9.961c0-1.1016.8907-1.9923 1.9923-1.9923h35.3945c1.0977 0 1.9922.8907 1.9922 1.9922v30.4102c0 1.1016-.8945 1.9922-1.9922 1.9922H58.9883c-1.1016 0-1.9922-.8906-1.9922-1.9922m0 0"/></g></g><g clip-path="url(#c)"><path fill="#d0d0d0" d="M41.371 93.543H3.9845C1.7852 93.543 0 95.328 0 97.5273v37.3868c0 2.1992 1.7852 3.9843 3.9844 3.9843H41.371c2.1992 0 3.9844-1.7851 3.9844-3.9843V97.5273c0-2.1992-1.7852-3.9843-3.9844-3.9843m0 0"/></g><g clip-path="url(#d)"><g clip-path="url(#e)"><path fill="#000" d="M2.9883 133.918v-30.414c0-1.0978.8906-1.9923 1.9922-1.9923H40.375c1.0977 0 1.9922.8945 1.9922 1.9922v30.414c0 1.0977-.8945 1.9923-1.9922 1.9923H4.9805c-1.1016 0-1.9922-.8946-1.9922-1.9922m0 0"/></g></g><g clip-path="url(#f)"><path fill="#d0d0d0" d="M149.3867 93.543H112c-2.1992 0-3.9844 1.7851-3.9844 3.9843v37.3868c0 2.1992 1.7852 3.9843 3.9844 3.9843h37.3867c2.1992 0 3.9844-1.7851 3.9844-3.9843V97.5273c0-2.1992-1.7852-3.9843-3.9844-3.9843m0 0"/></g><g clip-path="url(#g)"><g clip-path="url(#h)"><path fill="#000" d="M111.004 133.918v-30.414c0-1.0978.8905-1.9923 1.992-1.9923h35.3946c1.0977 0 1.9922.8945 1.9922 1.9922v30.414c0 1.0977-.8945 1.9923-1.9922 1.9923h-35.3945c-1.1016 0-1.9922-.8946-1.9922-1.9922m0 0"/></g></g><path fill="none" stroke="#888888" stroke-miterlimit="10" stroke-width="1.79329" d="M50.3164 30.7266c-20.2187 11.1289-30.2422 37.0039-24.832 52.871"/><path fill="#888888" stroke="#888888" stroke-linejoin="round" stroke-miterlimit="10" stroke-width="1.7932182684" d="m27.2305 88.7227.3672-7.9961-1.9688 3.293-3.5742-1.4063Zm0 0"/><g clip-path="url(#i)"><path fill="none" stroke="#888888" stroke-miterlimit="10" stroke-width="1.79329" d="M48.6055 124.914c15.5468 13.043 40.6093 13.043 51.3203 4.0547"/></g><path fill="#888888" stroke="#888888" stroke-linejoin="round" stroke-miterlimit="10" stroke-width="1.7932541342" d="m104.0781 125.4883-7.5937 2.5469 3.7851.6484-.0195 3.836Zm0 0"/><g clip-path="url(#j)"><path fill="none" stroke="#888888" stroke-miterlimit="10" stroke-width="1.79329" d="M125.8477 89.5703c7.4453-21.8398-2.5782-47.7148-17.2657-55.8008"/></g><path fill="#888888" stroke="#888888" stroke-linejoin="round" stroke-miterlimit="10" stroke-width="1.7932362013" d="m103.8398 31.1602 5.1133 6.1562-.7617-3.7617 3.586-1.3672Zm0 0"/></svg>
